<?xml version="1.0" encoding="UTF-8" standalone="no"?>
<svg
   width="64"
   height="64"
   version="1.1"
   viewBox="0 0 16.933 16.933"
   id="svg7"
   sodipodi:docname="abcd.svg"
   inkscape:version="1.4.3 (0d15f75042, 2025-12-25)"
   xmlns:inkscape="http://www.inkscape.org/namespaces/inkscape"
   xmlns:sodipodi="http://sodipodi.sourceforge.net/DTD/sodipodi-0.dtd"
   xmlns="http://www.w3.org/2000/svg"
   xmlns:svg="http://www.w3.org/2000/svg"
   xmlns:rdf="http://www.w3.org/1999/02/22-rdf-syntax-ns#"
   xmlns:cc="http://creativecommons.org/ns#"
   xmlns:dc="http://purl.org/dc/elements/1.1/">
  <sodipodi:namedview
     id="namedview7"
     pagecolor="#9c4444"
     bordercolor="#000000"
     borderopacity="0.25"
     inkscape:showpageshadow="2"
     inkscape:pageopacity="0.0"
     inkscape:pagecheckerboard="0"
     inkscape:deskcolor="#d1d1d1"
     inkscape:zoom="4.3531261"
     inkscape:cx="33.768836"
     inkscape:cy="30.093316"
     inkscape:window-width="1226"
     inkscape:window-height="669"
     inkscape:window-x="100"
     inkscape:window-y="206"
     inkscape:window-maximized="0"
     inkscape:current-layer="svg7"
     showgrid="false" />
  <defs
     id="defs2">
    <filter
       style="color-interpolation-filters:sRGB;"
       inkscape:label="Blur"
       id="filter5421"
       x="-0.12256455"
       y="-0.12342654"
       width="1.2451291"
       height="1.2468531">
      <feGaussianBlur
         stdDeviation="0.5 0.5"
         result="blur"
         id="feGaussianBlur5419" />
    </filter>
  </defs>
  <metadata
     id="metadata2">
    <rdf:RDF>
      <cc:Work
         rdf:about="">
        <dc:format>image/svg+xml</dc:format>
        <dc:type
           rdf:resource="http://purl.org/dc/dcmitype/StillImage" />
      </cc:Work>
    </rdf:RDF>
  </metadata>
  <rect
     style="opacity:0.3;fill:none;fill-opacity:0.996424;stroke:#000000;stroke-width:0.955221;stroke-dasharray:none;stroke-opacity:1;filter:url(#filter5421)"
     id="rect1-2-7"
     width="13.687567"
     height="13.591975"
     x="1.6227165"
     y="1.6705122"
     rx="2.8442214"
     ry="2.965905" />
  <rect
     style="fill:none;fill-opacity:1;stroke:{{colors.primary.default.hex}};stroke-width:0.955221;stroke-dasharray:none;stroke-opacity:1"
     id="rect1-2"
     width="13.687567"
     height="13.591975"
     x="1.6227167"
     y="1.6705124"
     rx="2.8442214"
     ry="2.965905" />
  <g
     fill-rule="nonzero"
     id="g3"
     transform="matrix(0.22357298,0,0,0.22357298,3.1007487,3.1007482)"
     style="fill:{{colors.primary.default.hex}};fill-opacity:1;stroke:none;stroke-width:0.566836;stroke-dasharray:none;stroke-opacity:0.6">
    <path
       d="m 21.724,13.756 c -0.631,0 -1.139,0.508 -1.139,1.138 v 4.613 c 0,0 1.234,1.085 1.234,1.816 0,0.732 -1.234,1.817 -1.234,1.817 v 9.966 c 0,0.63 0.508,1.138 1.139,1.138 h 4.552 c 0.631,0 1.139,-0.508 1.139,-1.138 v -4.595 l -0.012,-0.016 c 0,0 -1.286,-1.131 -1.287,-1.894 0,-0.764 1.287,-1.896 1.287,-1.896 l 0.012,-0.016 v -9.795 c 0,-0.63 -0.508,-1.138 -1.139,-1.138 z"
       fill="#2d3439"
       id="path2-3"
       style="fill:{{colors.primary.default.hex}};fill-opacity:1;stroke:none;stroke-width:0.566836;stroke-dasharray:none;stroke-opacity:0.6" />
    <path
       d="M 24,5.789 C 13.969,5.789 5.789,13.969 5.789,24 5.789,34.031 13.969,42.211 24,42.211 34.031,42.211 42.211,34.031 42.211,24 42.211,13.969 34.031,5.789 24,5.789 Z m 0,4.553 C 31.57,10.342 37.658,16.43 37.658,24 37.658,31.57 31.57,37.658 24,37.658 16.43,37.658 10.342,31.57 10.342,24 10.342,16.43 16.43,10.342 24,10.342 Z"
       fill="#0064e2"
       id="path3-3"
       style="fill:{{colors.primary.default.hex}};fill-opacity:1;stroke:none;stroke-width:0.566836;stroke-dasharray:none;stroke-opacity:0.6" />
  </g>
</svg>
