<?xml version="1.0" encoding="UTF-8" standalone="no"?>
<svg
   width="64"
   height="64"
   version="1.1"
   viewBox="0 0 16.933 16.933"
   id="svg7"
   sodipodi:docname="abcd.svg"
   inkscape:version="1.4.3 (0d15f75042, 2025-12-25)"
   xmlns:inkscape="http://www.inkscape.org/namespaces/inkscape"
   xmlns:sodipodi="http://sodipodi.sourceforge.net/DTD/sodipodi-0.dtd"
   xmlns="http://www.w3.org/2000/svg"
   xmlns:svg="http://www.w3.org/2000/svg"
   xmlns:rdf="http://www.w3.org/1999/02/22-rdf-syntax-ns#"
   xmlns:cc="http://creativecommons.org/ns#"
   xmlns:dc="http://purl.org/dc/elements/1.1/">
  <sodipodi:namedview
     id="namedview7"
     pagecolor="#9c4444"
     bordercolor="#000000"
     borderopacity="0.25"
     inkscape:showpageshadow="2"
     inkscape:pageopacity="0.0"
     inkscape:pagecheckerboard="0"
     inkscape:deskcolor="#d1d1d1"
     inkscape:zoom="4.3531261"
     inkscape:cx="33.768836"
     inkscape:cy="30.093316"
     inkscape:window-width="1226"
     inkscape:window-height="669"
     inkscape:window-x="100"
     inkscape:window-y="206"
     inkscape:window-maximized="0"
     inkscape:current-layer="svg7"
     showgrid="false" />
  <defs
     id="defs2">
    <filter
       style="color-interpolation-filters:sRGB;"
       inkscape:label="Blur"
       id="filter5421"
       x="-0.12256455"
       y="-0.12342654"
       width="1.2451291"
       height="1.2468531">
      <feGaussianBlur
         stdDeviation="0.5 0.5"
         result="blur"
         id="feGaussianBlur5419" />
    </filter>
  </defs>
  <metadata
     id="metadata2">
    <rdf:RDF>
      <cc:Work
         rdf:about="">
        <dc:format>image/svg+xml</dc:format>
        <dc:type
           rdf:resource="http://purl.org/dc/dcmitype/StillImage" />
      </cc:Work>
    </rdf:RDF>
  </metadata>
  <rect
     style="opacity:0.3;fill:none;fill-opacity:0.996424;stroke:#000000;stroke-width:0.955221;stroke-dasharray:none;stroke-opacity:1;filter:url(#filter5421)"
     id="rect1-2-7"
     width="13.687567"
     height="13.591975"
     x="1.6227165"
     y="1.6705122"
     rx="2.8442214"
     ry="2.965905" />
  <rect
     style="fill:none;fill-opacity:1;stroke:{{colors.primary.default.hex}};stroke-width:0.955221;stroke-dasharray:none;stroke-opacity:1"
     id="rect1-2"
     width="13.687567"
     height="13.591975"
     x="1.6227167"
     y="1.6705124"
     rx="2.8442214"
     ry="2.965905" />
  <path
     id="path9"
     style="fill:{{colors.primary.default.hex}};fill-opacity:1;stroke-width:0.0112139"
     d="m 8.9026486,5.6545871 c -0.034935,-4.992e-4 -0.070062,-6.7e-6 -0.1052562,0.00132 C 8.4552363,5.6687181 8.1663572,5.7506462 7.8723926,5.91812 7.5854156,6.0816122 7.3360223,6.323512 7.1565944,6.6126572 l -0.05381,0.08662 -0.121006,0.031761 C 6.7600612,6.7888604 6.5638196,6.8989988 6.3927601,7.0615081 6.1915737,7.2526396 6.0533922,7.505023 5.9992945,7.7804567 c -0.011296,0.057495 -0.017906,0.070084 -0.035961,0.070084 -0.012106,0 -0.073059,0.010399 -0.1357054,0.023096 -0.335147,0.067971 -0.611073,0.2144743 -0.8638395,0.4585626 -0.7166433,0.6920391 -0.6905323,1.8513947 0.056434,2.5143517 0.2497381,0.221649 0.5562391,0.366429 0.885102,0.417876 0.083394,0.01306 0.5112731,0.01542 2.600708,0.01362 l 2.5007014,-0.0022 0.103949,-0.02413 C 11.578419,11.143319 11.945348,10.89552 12.2021,10.515001 12.471957,10.11503 12.557403,9.6119846 12.436762,9.1343005 12.306854,8.6199376 11.931156,8.1849095 11.434585,7.9738488 11.311746,7.9216368 11.109792,7.866964 11.000172,7.8562557 c -0.13539,-0.013225 -0.12258,0.00592 -0.12258,-0.179278 0,-0.5531017 -0.203312,-1.0494835 -0.588494,-1.4363217 C 9.9187173,5.8686984 9.4266833,5.6615843 8.9026486,5.6545421 Z M 6.8518479,7.7946328 H 8.4666602 10.081472 V 9.1401343 10.485897 H 8.4666602 6.8518479 V 9.1401343 Z M 7.6705414,8.2093604 V 8.5345799 8.8597995 H 8.4666602 9.2627791 V 8.5345799 8.2093604 H 8.4666602 Z m 0,1.0654297 v 0.39819 0.3979279 H 8.4666602 9.2627791 V 9.6729801 9.2747901 H 8.4666602 Z" />
</svg>
