<?xml version="1.0" encoding="UTF-8" standalone="no"?>
<svg
   width="64"
   height="64"
   version="1.1"
   viewBox="0 0 16.933 16.933"
   id="svg7"
   sodipodi:docname="abcd.svg"
   inkscape:version="1.4.3 (0d15f75042, 2025-12-25)"
   xmlns:inkscape="http://www.inkscape.org/namespaces/inkscape"
   xmlns:sodipodi="http://sodipodi.sourceforge.net/DTD/sodipodi-0.dtd"
   xmlns="http://www.w3.org/2000/svg"
   xmlns:svg="http://www.w3.org/2000/svg"
   xmlns:rdf="http://www.w3.org/1999/02/22-rdf-syntax-ns#"
   xmlns:cc="http://creativecommons.org/ns#"
   xmlns:dc="http://purl.org/dc/elements/1.1/">
  <sodipodi:namedview
     id="namedview7"
     pagecolor="#9c4444"
     bordercolor="#000000"
     borderopacity="0.25"
     inkscape:showpageshadow="2"
     inkscape:pageopacity="0.0"
     inkscape:pagecheckerboard="0"
     inkscape:deskcolor="#d1d1d1"
     inkscape:zoom="4.3531261"
     inkscape:cx="33.768836"
     inkscape:cy="30.093316"
     inkscape:window-width="1226"
     inkscape:window-height="669"
     inkscape:window-x="100"
     inkscape:window-y="206"
     inkscape:window-maximized="0"
     inkscape:current-layer="svg7"
     showgrid="false" />
  <defs
     id="defs2">
    <filter
       style="color-interpolation-filters:sRGB;"
       inkscape:label="Blur"
       id="filter5421"
       x="-0.12256455"
       y="-0.12342654"
       width="1.2451291"
       height="1.2468531">
      <feGaussianBlur
         stdDeviation="0.5 0.5"
         result="blur"
         id="feGaussianBlur5419" />
    </filter>
  </defs>
  <metadata
     id="metadata2">
    <rdf:RDF>
      <cc:Work
         rdf:about="">
        <dc:format>image/svg+xml</dc:format>
        <dc:type
           rdf:resource="http://purl.org/dc/dcmitype/StillImage" />
      </cc:Work>
    </rdf:RDF>
  </metadata>
  <rect
     style="opacity:0.3;fill:none;fill-opacity:0.996424;stroke:#000000;stroke-width:0.955221;stroke-dasharray:none;stroke-opacity:1;filter:url(#filter5421)"
     id="rect1-2-7"
     width="13.687567"
     height="13.591975"
     x="1.6227165"
     y="1.6705122"
     rx="2.8442214"
     ry="2.965905" />
  <rect
     style="fill:none;fill-opacity:1;stroke:{{colors.primary.default.hex}};stroke-width:0.955221;stroke-dasharray:none;stroke-opacity:1"
     id="rect1-2"
     width="13.687567"
     height="13.591975"
     x="1.6227167"
     y="1.6705124"
     rx="2.8442214"
     ry="2.965905" />
  <path
     style="fill:{{colors.primary.default.hex}};fill-opacity:1;stroke-width:0.0112139"
     d="M 5.9713049,11.273251 C 5.1994817,11.170889 4.6081179,10.616167 4.4671687,9.8623091 4.4360518,9.6958794 4.4388446,9.3887262 4.4729236,9.2287178 4.545716,8.8869977 4.6882531,8.6154044 4.9218442,8.3733331 5.1059969,8.1824948 5.2939929,8.0536943 5.5194688,7.9638857 5.6399732,7.9158877 5.8169449,7.8682 5.9243715,7.854778 l 0.061279,-0.00766 0.013477,-0.06895 C 6.0527268,7.5040219 6.1882909,7.2559862 6.3911479,7.0609126 6.5582719,6.9002004 6.7583317,6.7879733 6.9813994,6.7297989 l 0.120995,-0.031554 0.046339,-0.076079 C 7.3203844,6.3403431 7.5696111,6.0948128 7.8552476,5.9261318 8.0514019,5.8102943 8.2941377,5.7208528 8.5280874,5.6782089 c 0.1579221,-0.028787 0.5261313,-0.028787 0.6840534,0 0.6389948,0.1164744 1.1682952,0.5128401 1.4578222,1.0916858 0.134509,0.2689195 0.195808,0.5241734 0.204571,0.8518449 l 0.0059,0.2152939 0.02938,0.00549 c 0.01617,0.00302 0.05968,0.00882 0.09669,0.012868 0.106423,0.011691 0.30535,0.065758 0.42336,0.115066 0.223499,0.093387 0.401947,0.2170748 0.581239,0.4028763 0.233591,0.242072 0.376127,0.513665 0.448921,0.8553851 0.03409,0.1600085 0.03688,0.4671612 0.0059,0.6335904 -0.101101,0.5407177 -0.446631,0.9996387 -0.93222,1.2381257 -0.146153,0.07178 -0.261101,0.112578 -0.422973,0.15012 l -0.104086,0.02413 -2.5007201,0.0014 c -1.3753544,8.67e-4 -2.5158177,-5.25e-4 -2.5343203,-0.0029 z M 7.5300497,10.316327 C 7.700147,10.251547 7.8475255,10.10478 7.8994077,9.9485073 7.9336818,9.8452722 7.9386712,9.7209464 7.9390892,8.9595819 L 7.9395096,8.191424 8.6543244,7.9398654 C 9.0474727,7.8015093 9.3754479,7.6861661 9.3831576,7.6835482 c 0.011084,-0.00375 0.014018,0.1083325 0.014018,0.5360191 v 0.5407786 l -0.025231,-0.00817 c -0.013879,-0.00448 -0.078862,-0.010665 -0.1444122,-0.013723 -0.091404,-0.00426 -0.1345287,-0.00116 -0.1850306,0.013356 -0.2113885,0.06069 -0.388119,0.2456575 -0.4307019,0.450777 -0.019008,0.091544 -0.00875,0.2633823 0.020525,0.3440199 0.060441,0.1664847 0.1908053,0.2983778 0.3582321,0.3624343 0.099949,0.038239 0.2579305,0.048022 0.3586873,0.02221 0.2169677,-0.055585 0.3903621,-0.2270886 0.446154,-0.4412933 0.024072,-0.092401 0.025373,-2.7768797 0.00147,-2.771202 -0.00844,0.00199 -0.5231073,0.1827714 -1.1437071,0.4017243 L 7.5247358,7.5185826 7.5246175,8.3400077 c -6.52e-5,0.4517832 -0.00391,0.8213034 -0.00853,0.8211571 -0.00463,-1.481e-4 -0.028596,-0.00528 -0.053268,-0.011389 -0.079479,-0.019704 -0.2391954,-0.01427 -0.3204149,0.010906 -0.243423,0.075461 -0.409029,0.2911336 -0.4225098,0.5502439 -0.00967,0.1859504 0.046162,0.3323863 0.1753156,0.4597833 0.081349,0.08025 0.1615211,0.128425 0.2648242,0.15916 0.095749,0.02848 0.2771286,0.02185 0.3700614,-0.01355 z"
     id="path7" />
</svg>
