<?xml version="1.0" encoding="UTF-8" standalone="no"?>
<svg
   width="64"
   height="64"
   version="1.1"
   viewBox="0 0 16.933 16.933"
   id="svg7"
   sodipodi:docname="abcd.svg"
   inkscape:version="1.4.3 (0d15f75042, 2025-12-25)"
   xmlns:inkscape="http://www.inkscape.org/namespaces/inkscape"
   xmlns:sodipodi="http://sodipodi.sourceforge.net/DTD/sodipodi-0.dtd"
   xmlns="http://www.w3.org/2000/svg"
   xmlns:svg="http://www.w3.org/2000/svg"
   xmlns:rdf="http://www.w3.org/1999/02/22-rdf-syntax-ns#"
   xmlns:cc="http://creativecommons.org/ns#"
   xmlns:dc="http://purl.org/dc/elements/1.1/">
  <sodipodi:namedview
     id="namedview7"
     pagecolor="#9c4444"
     bordercolor="#000000"
     borderopacity="0.25"
     inkscape:showpageshadow="2"
     inkscape:pageopacity="0.0"
     inkscape:pagecheckerboard="0"
     inkscape:deskcolor="#d1d1d1"
     inkscape:zoom="4.3531261"
     inkscape:cx="34.228276"
     inkscape:cy="29.404156"
     inkscape:window-width="1226"
     inkscape:window-height="669"
     inkscape:window-x="100"
     inkscape:window-y="206"
     inkscape:window-maximized="0"
     inkscape:current-layer="svg7"
     showgrid="false" />
  <defs
     id="defs2">
    <filter
       style="color-interpolation-filters:sRGB;"
       inkscape:label="Blur"
       id="filter5421"
       x="-0.12256455"
       y="-0.12342654"
       width="1.2451291"
       height="1.2468531">
      <feGaussianBlur
         stdDeviation="0.5 0.5"
         result="blur"
         id="feGaussianBlur5419" />
    </filter>
  </defs>
  <metadata
     id="metadata2">
    <rdf:RDF>
      <cc:Work
         rdf:about="">
        <dc:format>image/svg+xml</dc:format>
        <dc:type
           rdf:resource="http://purl.org/dc/dcmitype/StillImage" />
      </cc:Work>
    </rdf:RDF>
  </metadata>
  <rect
     style="opacity:0.3;fill:none;fill-opacity:0.996424;stroke:#000000;stroke-width:0.955221;stroke-dasharray:none;stroke-opacity:1;filter:url(#filter5421)"
     id="rect1-2-7"
     width="13.687567"
     height="13.591975"
     x="1.6227165"
     y="1.6705122"
     rx="2.8442214"
     ry="2.965905" />
  <rect
     style="fill:none;fill-opacity:1;stroke:{{colors.primary.default.hex}};stroke-width:0.955221;stroke-dasharray:none;stroke-opacity:1"
     id="rect1-2"
     width="13.687567"
     height="13.591975"
     x="1.6227167"
     y="1.6705124"
     rx="2.8442214"
     ry="2.965905" />
  <path
     id="path6"
     style="fill:{{colors.primary.default.hex}};fill-opacity:1;stroke:none;stroke-width:0.0383216;stroke-opacity:1"
     d="M 6.6123442,4.4725028 C 6.5551352,4.4762648 6.5083659,4.5072509 6.330172,4.6276976 5.8516038,4.9511769 5.4090929,5.4148227 5.1100693,5.9062923 4.7819124,6.4456447 4.5909145,7.0089483 4.5101587,7.6754558 l -0.00852,0.070249 0.036153,-0.033214 C 4.6049393,7.6501371 4.7780396,7.537144 4.9251919,7.460005 5.315849,7.2552174 5.7754256,7.1334607 6.4259977,7.0617301 6.6260753,7.0396694 7.4143531,7.0317012 7.7045926,7.0487936 8.1613945,7.0756995 8.6295012,7.1275011 9.105756,7.204282 9.2377623,7.2255658 9.3515978,7.2410831 9.3588296,7.238673 9.3747744,7.2333598 9.1743948,6.8275355 9.0143395,6.5411778 8.5941336,5.7893782 8.1510575,5.2373158 7.6904796,4.8916437 7.3577411,4.6419169 7.0348728,4.509232 6.6781856,4.4754393 c -0.026628,-0.00252 -0.04677,-0.0042 -0.065841,-0.00294 z m 1.9590423,0.1052266 c -0.2331016,-0.00633 -0.4681956,0.00894 -0.7021983,0.046441 -0.091333,0.014643 -0.1736599,0.030932 -0.1831181,0.036153 -3.678e-4,1.832e-4 -8.93e-4,3.151e-4 -0.00118,6.303e-4 l -2.496e-4,2.495e-4 c -1.22e-4,1.335e-4 -7.617e-4,7.355e-4 -8.93e-4,8.669e-4 -1.742e-4,2.494e-4 -5.253e-4,0.00116 -6.042e-4,0.0015 -0.00216,0.00945 0.020832,0.031126 0.073188,0.068485 0.1916779,0.1367785 0.4329298,0.3634514 0.6243073,0.5866842 0.3659059,0.4268122 0.6654563,0.8978458 1.0152334,1.596039 l 0.1851761,0.3697632 0.2936362,0.059668 c 0.6807827,0.1385696 1.3169347,0.3023967 1.9802057,0.5099681 0.154563,0.048371 0.295176,0.093295 0.31274,0.099936 0.01656,0.00626 0.03181,0.00704 0.03557,0.00205 9.8e-5,-1.741e-4 5.51e-4,-7.091e-4 6.03e-4,-8.931e-4 0.0024,-0.0061 -0.005,-0.075794 -0.01646,-0.1549004 C 12.06716,6.9699179 11.68799,6.2288064 11.080401,5.6376461 10.888739,5.4511646 10.756994,5.3445884 10.541335,5.2011598 9.9531027,4.8099437 9.2707219,4.5967013 8.5714163,4.5777347 Z M 7.2284212,7.1960565 C 6.7776612,7.1918329 6.3697218,7.2218025 5.9980311,7.2862926 5.1949184,7.4256372 4.628134,7.7351514 4.3070528,8.2095265 l -0.049087,0.072894 0.00852,0.1596042 c 0.012862,0.23402 0.040778,0.4547474 0.08377,0.6642812 0.3462448,1.6875191 1.7124082,3.0074951 3.4104672,3.2952461 0.1276737,0.02163 0.2644413,0.03766 0.4852781,0.05673 0.095002,0.0082 0.5343044,-0.0041 0.6642814,-0.01851 0.6835169,-0.07625 1.3271275,-0.3083 1.8823275,-0.678683 0.993465,-0.66276 1.657144,-1.70061 1.835003,-2.8696378 0.03124,-0.2052877 0.05765,-0.5571441 0.0435,-0.5763968 l -2.49e-4,-2.495e-4 C 12.654327,8.2991503 12.277163,8.1637034 11.9772,8.0658468 10.938012,7.7268328 9.7382177,7.4495743 8.7154606,7.3119169 8.1726303,7.2388549 7.6792294,7.2003334 7.2284697,7.1961086 Z" />
</svg>
