<?xml version="1.0" encoding="UTF-8" standalone="no"?>
<svg
   width="64"
   height="64"
   version="1.1"
   viewBox="0 0 16.933 16.933"
   id="svg7"
   sodipodi:docname="akonaditray.svg"
   inkscape:version="1.4.3 (0d15f75042, 2025-12-25)"
   xmlns:inkscape="http://www.inkscape.org/namespaces/inkscape"
   xmlns:sodipodi="http://sodipodi.sourceforge.net/DTD/sodipodi-0.dtd"
   xmlns="http://www.w3.org/2000/svg"
   xmlns:svg="http://www.w3.org/2000/svg"
   xmlns:rdf="http://www.w3.org/1999/02/22-rdf-syntax-ns#"
   xmlns:cc="http://creativecommons.org/ns#"
   xmlns:dc="http://purl.org/dc/elements/1.1/">
  <sodipodi:namedview
     id="namedview7"
     pagecolor="#9c4444"
     bordercolor="#000000"
     borderopacity="0.25"
     inkscape:showpageshadow="2"
     inkscape:pageopacity="0.0"
     inkscape:pagecheckerboard="0"
     inkscape:deskcolor="#d1d1d1"
     inkscape:zoom="6.15625"
     inkscape:cx="17.86802"
     inkscape:cy="27.126904"
     inkscape:window-width="1226"
     inkscape:window-height="661"
     inkscape:window-x="35"
     inkscape:window-y="32"
     inkscape:window-maximized="0"
     inkscape:current-layer="svg7"
     showgrid="false" />
  <defs
     id="defs2">
    <filter
       style="color-interpolation-filters:sRGB;"
       inkscape:label="Blur"
       id="filter5421"
       x="-0.12256455"
       y="-0.12342654"
       width="1.2451291"
       height="1.2468531">
      <feGaussianBlur
         stdDeviation="0.5 0.5"
         result="blur"
         id="feGaussianBlur5419" />
    </filter>
    <clipPath
       clipPathUnits="userSpaceOnUse"
       id="clipPath44">
      <path
         id="path46"
         style="display:block;opacity:0.85;fill:#f2f2f2;stroke-width:4.39162"
         d="m 17.570312,8.4453125 a 6.5431988,7.4283052 9.9958727e-8 0 0 -6.535156,7.4394535 6.5431988,7.4283052 9.9958727e-8 0 0 6.552735,7.417968 6.5431988,7.4283052 9.9958727e-8 0 0 6.535156,-7.4375 6.5431988,7.4283052 9.9958727e-8 0 0 -6.552735,-7.4199215 z M 45.646484,41.177734 a 6.5431986,7.0703472 2.4665357e-6 0 0 -6.533203,7.080078 6.5431986,7.0703472 2.4665357e-6 0 0 6.550781,7.060547 6.5431986,7.0703472 2.4665357e-6 0 0 6.535157,-7.080078 6.5431986,7.0703472 2.4665357e-6 0 0 -6.552735,-7.060547 z" />
    </clipPath>
    <inkscape:path-effect
       effect="powerclip"
       id="path-effect48"
       is_visible="true"
       lpeversion="1"
       inverse="true"
       flatten="false"
       hide_clip="false"
       message="" />
    <clipPath
       clipPathUnits="userSpaceOnUse"
       id="clipPath44-8">
      <path
         id="path46-7"
         style="display:none;opacity:0.85;fill:#f2f2f2;stroke-width:4.39162"
         d="m 17.570312,8.4453125 a 6.5431988,7.4283052 9.9958727e-8 0 0 -6.535156,7.4394535 6.5431988,7.4283052 9.9958727e-8 0 0 6.552735,7.417968 6.5431988,7.4283052 9.9958727e-8 0 0 6.535156,-7.4375 6.5431988,7.4283052 9.9958727e-8 0 0 -6.552735,-7.4199215 z M 45.646484,41.177734 a 6.5431986,7.0703472 2.4665357e-6 0 0 -6.533203,7.080078 6.5431986,7.0703472 2.4665357e-6 0 0 6.550781,7.060547 6.5431986,7.0703472 2.4665357e-6 0 0 6.535157,-7.080078 6.5431986,7.0703472 2.4665357e-6 0 0 -6.552735,-7.060547 z" />
      <path
         id="lpe_path-effect48-9"
         style="opacity:0.85;fill:#f2f2f2;stroke-width:4.39162"
         class="powerclip"
         d="M 2.7617133,-0.77345183 H 60.691413 V 64.992203 H 2.7617133 Z M 17.570312,8.4453125 a 6.5431988,7.4283052 9.9958727e-8 0 0 -6.535156,7.4394535 6.5431988,7.4283052 9.9958727e-8 0 0 6.552735,7.417968 6.5431988,7.4283052 9.9958727e-8 0 0 6.535156,-7.4375 6.5431988,7.4283052 9.9958727e-8 0 0 -6.552735,-7.4199215 z M 45.646484,41.177734 a 6.5431986,7.0703472 2.4665357e-6 0 0 -6.533203,7.080078 6.5431986,7.0703472 2.4665357e-6 0 0 6.550781,7.060547 6.5431986,7.0703472 2.4665357e-6 0 0 6.535157,-7.080078 6.5431986,7.0703472 2.4665357e-6 0 0 -6.552735,-7.060547 z" />
    </clipPath>
    <inkscape:path-effect
       effect="powerclip"
       id="path-effect48-2"
       is_visible="true"
       lpeversion="1"
       inverse="true"
       flatten="false"
       hide_clip="false"
       message="" />
    <clipPath
       clipPathUnits="userSpaceOnUse"
       id="clipath_lpe_path-effect48-2">
      <path
         id="path4497"
         style="display:block;opacity:0.85;fill:#f2f2f2;stroke-width:4.39162"
         d="m 17.570312,8.4453125 a 6.5431988,7.4283052 9.9958727e-8 0 0 -6.535156,7.4394535 6.5431988,7.4283052 9.9958727e-8 0 0 6.552735,7.417968 6.5431988,7.4283052 9.9958727e-8 0 0 6.535156,-7.4375 6.5431988,7.4283052 9.9958727e-8 0 0 -6.552735,-7.4199215 z M 45.646484,41.177734 a 6.5431986,7.0703472 2.4665357e-6 0 0 -6.533203,7.080078 6.5431986,7.0703472 2.4665357e-6 0 0 6.550781,7.060547 6.5431986,7.0703472 2.4665357e-6 0 0 6.535157,-7.080078 6.5431986,7.0703472 2.4665357e-6 0 0 -6.552735,-7.060547 z" />
    </clipPath>
    <filter
       style="color-interpolation-filters:sRGB"
       inkscape:label="Blur"
       id="filter5421-7"
       x="-0.12256455"
       y="-0.12342654"
       width="1.2451291"
       height="1.2468531">
      <feGaussianBlur
         stdDeviation="0.5 0.5"
         result="blur"
         id="feGaussianBlur5419-8" />
    </filter>
  </defs>
  <metadata
     id="metadata2">
    <rdf:RDF>
      <cc:Work
         rdf:about="">
        <dc:format>image/svg+xml</dc:format>
        <dc:type
           rdf:resource="http://purl.org/dc/dcmitype/StillImage" />
      </cc:Work>
    </rdf:RDF>
  </metadata>
  <path
     id="path6"
     style="fill:{{colors.primary.default.hex}};fill-opacity:1;stroke:none;stroke-width:0.0678891;stroke-opacity:1"
     d="M 5.1817514,1.3908985 C 5.0804025,1.3975668 4.9975477,1.4524573 4.6818663,1.6658354 3.8340535,2.2388988 3.0501185,3.0602758 2.5203799,3.9309438 1.9390299,4.8864399 1.6006654,5.8843664 1.4576016,7.0651251 l -0.015091,0.1244498 0.064048,-0.058841 C 1.6255119,7.0202694 1.9321693,6.8200959 2.1928587,6.6834395 2.8849314,6.3206459 3.6990995,6.1049464 4.8516275,5.9778712 5.2060772,5.9387882 6.6025595,5.924673 7.1167364,5.9549538 7.9259888,6.0026201 8.7552685,6.094389 9.5989829,6.2304111 9.8328402,6.2681158 10.034506,6.2956059 10.047318,6.2913368 10.075565,6.281925 9.7205803,5.5629825 9.4370327,5.0556824 8.6926123,3.7238236 7.9076761,2.7458114 7.091734,2.1334322 6.5022677,1.6910259 5.9302866,1.4559665 5.2983937,1.3961006 c -0.047173,-0.00445 -0.082856,-0.00744 -0.1166428,-0.00522 z m 3.4705631,0.1864153 c -0.4129537,-0.01122 -0.8294371,0.015831 -1.2439873,0.082273 -0.1618018,0.025941 -0.307649,0.054799 -0.3244047,0.064048 -6.516e-4,3.245e-4 -0.00158,5.582e-4 -0.00209,0.00112 l -4.422e-4,4.419e-4 c -2.162e-4,2.367e-4 -0.00134,0.00131 -0.00158,0.00155 -3.087e-4,4.418e-4 -9.306e-4,0.00206 -0.00107,0.00266 -0.00384,0.016743 0.036906,0.055142 0.1296581,0.121326 C 7.547963,2.0930492 7.9753554,2.494614 8.3143923,2.8900845 8.9626171,3.6462082 9.4932888,4.4806731 10.11294,5.717565 l 0.328051,0.655058 0.520193,0.1057056 c 1.20605,0.2454845 2.333029,0.5357143 3.508056,0.9034394 0.273817,0.085692 0.522923,0.1652779 0.554038,0.1770428 0.02933,0.011096 0.05635,0.012459 0.06301,0.00363 1.75e-4,-3.085e-4 9.76e-4,-0.00125 0.0011,-0.00158 0.0042,-0.010802 -0.0089,-0.1342726 -0.02916,-0.2744152 C 14.84529,5.8152216 14.173566,4.5022974 13.097185,3.4550208 12.757645,3.1246576 12.524253,2.9358513 12.142199,2.6817588 11.100109,1.9886957 9.8912299,1.6109236 8.6523673,1.5773231 Z M 6.2731697,6.21584 C 5.4746207,6.20836 4.7519311,6.2614504 4.0934584,6.3756986 2.6706952,6.6225562 1.6666021,7.1708794 1.097787,8.0112638 l -0.086963,0.129135 0.015091,0.2827486 c 0.022785,0.4145807 0.072241,0.8056128 0.1484036,1.1768148 0.6133941,2.9895438 3.0336361,5.3279618 6.041851,5.8377318 0.2261816,0.03832 0.4684738,0.06672 0.8596996,0.100496 0.1683021,0.0145 0.9465528,-0.0071 1.1768152,-0.03279 1.2108926,-0.135078 2.3510886,-0.546175 3.3346586,-1.202329 1.759985,-1.17412 2.935733,-3.012735 3.25082,-5.0837402 0.05534,-0.3636798 0.102135,-0.9870148 0.07707,-1.0211222 l -4.4e-4,-4.467e-4 C 15.885492,8.1700378 15.217321,7.9300854 14.68592,7.7567266 12.844935,7.1561426 10.719428,6.6649622 8.9075504,6.4210938 7.9458936,6.2916599 7.0718038,6.2234167 6.2732553,6.2159323 Z" />
</svg>
