<?xml version="1.0" encoding="UTF-8" standalone="no"?>
<svg
   width="64"
   height="64"
   version="1.1"
   viewBox="0 0 16.933 16.933"
   id="svg7"
   sodipodi:docname="abcd.svg"
   inkscape:version="1.4.3 (0d15f75042, 2025-12-25)"
   xmlns:inkscape="http://www.inkscape.org/namespaces/inkscape"
   xmlns:sodipodi="http://sodipodi.sourceforge.net/DTD/sodipodi-0.dtd"
   xmlns="http://www.w3.org/2000/svg"
   xmlns:svg="http://www.w3.org/2000/svg"
   xmlns:rdf="http://www.w3.org/1999/02/22-rdf-syntax-ns#"
   xmlns:cc="http://creativecommons.org/ns#"
   xmlns:dc="http://purl.org/dc/elements/1.1/">
  <sodipodi:namedview
     id="namedview7"
     pagecolor="#9c4444"
     bordercolor="#000000"
     borderopacity="0.25"
     inkscape:showpageshadow="2"
     inkscape:pageopacity="0.0"
     inkscape:pagecheckerboard="0"
     inkscape:deskcolor="#d1d1d1"
     inkscape:zoom="4.3531261"
     inkscape:cx="33.768836"
     inkscape:cy="30.552756"
     inkscape:window-width="1226"
     inkscape:window-height="669"
     inkscape:window-x="100"
     inkscape:window-y="206"
     inkscape:window-maximized="0"
     inkscape:current-layer="svg7"
     showgrid="false" />
  <defs
     id="defs2">
    <filter
       style="color-interpolation-filters:sRGB;"
       inkscape:label="Blur"
       id="filter5421"
       x="-0.12256455"
       y="-0.12342654"
       width="1.2451291"
       height="1.2468531">
      <feGaussianBlur
         stdDeviation="0.5 0.5"
         result="blur"
         id="feGaussianBlur5419" />
    </filter>
  </defs>
  <metadata
     id="metadata2">
    <rdf:RDF>
      <cc:Work
         rdf:about="">
        <dc:format>image/svg+xml</dc:format>
        <dc:type
           rdf:resource="http://purl.org/dc/dcmitype/StillImage" />
      </cc:Work>
    </rdf:RDF>
  </metadata>
  <rect
     style="opacity:0.3;fill:none;fill-opacity:0.996424;stroke:#000000;stroke-width:0.955221;stroke-dasharray:none;stroke-opacity:1;filter:url(#filter5421)"
     id="rect1-2-7"
     width="13.687567"
     height="13.591975"
     x="1.6227165"
     y="1.6705122"
     rx="2.8442214"
     ry="2.965905" />
  <rect
     style="fill:none;fill-opacity:1;stroke:{{colors.primary.default.hex}};stroke-width:0.955221;stroke-dasharray:none;stroke-opacity:1"
     id="rect1-2"
     width="13.687567"
     height="13.591975"
     x="1.6227167"
     y="1.6705124"
     rx="2.8442214"
     ry="2.965905" />
  <g
     id="g2"
     transform="matrix(0.23468008,0,0,0.23468008,0.96004344,0.95533554)"
     style="fill:{{colors.primary.default.hex}};fill-opacity:1">
    <path
       style="fill:{{colors.primary.default.hex}};fill-opacity:1;stroke-width:0.634851"
       d="m 36.947144,40.89388 c -1.378342,-2.598217 -3.070145,-5.021426 -4.903685,-7.31722 -1.878068,2.351484 -3.761233,4.715308 -5.28679,7.31722 -1.08545,0 -2.1709,0 -3.256351,0 1.845347,-3.367562 4.294502,-6.345283 6.665948,-9.347645 -2.132591,-2.809408 -4.265185,-5.618807 -6.397779,-8.428214 1.187611,0 2.375225,0 3.562836,0 1.596251,2.068743 3.192505,4.137485 4.788755,6.206228 1.468552,-2.068743 2.937105,-4.137485 4.405658,-6.206228 1.123759,0 2.247521,0 3.37128,0 -1.953808,2.745553 -3.907622,5.491109 -5.861438,8.23666 2.283166,3.080218 4.667638,6.121855 6.436091,9.539199 -1.174842,0 -2.349682,0 -3.524525,0 z"
       id="path3-7" />
    <path
       style="baseline-shift:baseline;display:inline;overflow:visible;opacity:1;vector-effect:none;fill:{{colors.primary.default.hex}};fill-opacity:1;enable-background:accumulate;stop-color:#000000;stop-opacity:1"
       d="m 31.986328,15.060547 c -9.347947,0 -16.945312,7.597365 -16.945312,16.945312 0,9.347948 7.597365,16.945312 16.945312,16.945313 9.347948,0 16.945313,-7.597365 16.945313,-16.945313 0,-9.347948 -7.597365,-16.945312 -16.945313,-16.945312 z m 0,1.818359 c 8.365331,0 15.126953,6.761623 15.126953,15.126953 0,8.365331 -6.761622,15.126953 -15.126953,15.126953 -8.36533,0 -15.126953,-6.761622 -15.126953,-15.126953 0,-8.36533 6.761623,-15.126952 15.126953,-15.126953 z"
       id="path1" />
  </g>
</svg>
