<?xml version="1.0" encoding="UTF-8" standalone="no"?>
<svg
   width="64"
   height="64"
   version="1.1"
   viewBox="0 0 16.933 16.933"
   id="svg7"
   sodipodi:docname="abcd.svg"
   inkscape:version="1.4.3 (0d15f75042, 2025-12-25)"
   xmlns:inkscape="http://www.inkscape.org/namespaces/inkscape"
   xmlns:sodipodi="http://sodipodi.sourceforge.net/DTD/sodipodi-0.dtd"
   xmlns="http://www.w3.org/2000/svg"
   xmlns:svg="http://www.w3.org/2000/svg"
   xmlns:rdf="http://www.w3.org/1999/02/22-rdf-syntax-ns#"
   xmlns:cc="http://creativecommons.org/ns#"
   xmlns:dc="http://purl.org/dc/elements/1.1/">
  <sodipodi:namedview
     id="namedview7"
     pagecolor="#9c4444"
     bordercolor="#000000"
     borderopacity="0.25"
     inkscape:showpageshadow="2"
     inkscape:pageopacity="0.0"
     inkscape:pagecheckerboard="0"
     inkscape:deskcolor="#d1d1d1"
     inkscape:zoom="4.3531261"
     inkscape:cx="33.768836"
     inkscape:cy="30.552756"
     inkscape:window-width="1226"
     inkscape:window-height="669"
     inkscape:window-x="100"
     inkscape:window-y="206"
     inkscape:window-maximized="0"
     inkscape:current-layer="svg7"
     showgrid="false" />
  <defs
     id="defs2">
    <filter
       style="color-interpolation-filters:sRGB;"
       inkscape:label="Blur"
       id="filter5421"
       x="-0.12256455"
       y="-0.12342654"
       width="1.2451291"
       height="1.2468531">
      <feGaussianBlur
         stdDeviation="0.5 0.5"
         result="blur"
         id="feGaussianBlur5419" />
    </filter>
  </defs>
  <metadata
     id="metadata2">
    <rdf:RDF>
      <cc:Work
         rdf:about="">
        <dc:format>image/svg+xml</dc:format>
        <dc:type
           rdf:resource="http://purl.org/dc/dcmitype/StillImage" />
      </cc:Work>
    </rdf:RDF>
  </metadata>
  <rect
     style="opacity:0.3;fill:none;fill-opacity:0.996424;stroke:#000000;stroke-width:0.955221;stroke-dasharray:none;stroke-opacity:1;filter:url(#filter5421)"
     id="rect1-2-7"
     width="13.687567"
     height="13.591975"
     x="1.6227165"
     y="1.6705122"
     rx="2.8442214"
     ry="2.965905" />
  <rect
     style="fill:none;fill-opacity:1;stroke:{{colors.primary.default.hex}};stroke-width:0.955221;stroke-dasharray:none;stroke-opacity:1"
     id="rect1-2"
     width="13.687567"
     height="13.591975"
     x="1.6227167"
     y="1.6705124"
     rx="2.8442214"
     ry="2.965905" />
  <path
     d="m 8.9773896,7.4452396 h 0.2728687 c 0.3526541,0.6111609 1.0132817,1.0212597 1.7696527,1.0212597 0.175531,0 0.347867,-0.022337 0.510631,-0.063829 v 0.063829 0.5106309 3.0637828 c 0,0.282443 -0.228188,0.510631 -0.510631,0.510631 -0.282442,0 -0.510632,-0.228188 -0.510632,-0.510631 V 9.7941392 L 8.3391015,11.530282 h 0.8936041 c 0.2824418,0 0.5106297,0.228188 0.5106297,0.510631 0,0.282443 -0.2281879,0.510631 -0.5106297,0.510631 H 6.9348687 c -0.8457322,0 -1.5318921,-0.686162 -1.5318921,-1.531892 V 7.4532177 c 0,-0.2569106 -0.1914857,-0.4755243 -0.4468009,-0.5074388 L 4.8301132,6.9298224 C 4.5492667,6.8963119 4.3513978,6.6409964 4.3849077,6.36015 4.4184176,6.0793032 4.675329,5.8814336 4.9545798,5.9165394 l 0.1260621,0.015956 c 0.7659453,0.095743 1.3420002,0.7467975 1.3420002,1.5207221 V 8.8143659 C 6.9715695,7.9893784 7.9098535,7.4452381 8.9757942,7.4452381 Z m 2.5531524,0.4228656 v 0 c -0.159573,0.05585 -0.331909,0.087764 -0.510631,0.087764 -0.453184,0 -0.861688,-0.1978693 -1.142535,-0.51063 v 0 C 9.8183342,7.3798146 9.7656756,7.3096028 9.7193997,7.2346046 9.5725936,6.9984384 9.4880202,6.7207821 9.4880202,6.423978 v 0 -1.5318909 -0.3191439 -0.020745 c 0,-0.094148 0.074999,-0.1691462 0.1691464,-0.1707419 h 0.00319 c 0.05266,0 0.1021259,0.025533 0.1340404,0.067021 v 0.00158 l 0.2042515,0.2712719 0.4340365,0.5792464 0.0766,0.1021258 h 1.021259 l 0.0766,-0.1021258 0.434034,-0.5792464 0.204253,-0.271272 v -0.00158 c 0.03192,-0.041488 0.08138,-0.067021 0.13404,-0.067021 h 0.0033 c 0.09414,0.00158 0.169147,0.076595 0.169147,0.1707419 v 0.020745 0.3191436 1.5318912 c 0,0.2760603 -0.07341,0.5361619 -0.201063,0.7595631 -0.180361,0.3159521 -0.472377,0.5616935 -0.820243,0.6845638 z M 10.764597,6.423978 c 0,-0.1404231 -0.114892,-0.2553144 -0.255318,-0.2553144 -0.140421,0 -0.255313,0.1148913 -0.255313,0.2553144 0,0.140424 0.114892,0.2553156 0.255313,0.2553156 0.140426,0 0.255318,-0.1148916 0.255318,-0.2553156 z m 0.765945,0.2553156 c 0.140423,0 0.255316,-0.1148916 0.255316,-0.2553156 0,-0.1404231 -0.114893,-0.2553144 -0.255316,-0.2553144 -0.140424,0 -0.255315,0.1148913 -0.255315,0.2553144 0,0.140424 0.114891,0.2553156 0.255315,0.2553156 z"
     id="path1"
     style="fill:{{colors.primary.default.hex}};fill-opacity:1;stroke-width:0.0159572" />
</svg>
