<?xml version="1.0" encoding="UTF-8" standalone="no"?>
<svg
   width="64"
   height="64"
   version="1.1"
   viewBox="0 0 16.933 16.933"
   id="svg7"
   sodipodi:docname="abcd.svg"
   inkscape:version="1.4.3 (0d15f75042, 2025-12-25)"
   xmlns:inkscape="http://www.inkscape.org/namespaces/inkscape"
   xmlns:sodipodi="http://sodipodi.sourceforge.net/DTD/sodipodi-0.dtd"
   xmlns="http://www.w3.org/2000/svg"
   xmlns:svg="http://www.w3.org/2000/svg"
   xmlns:rdf="http://www.w3.org/1999/02/22-rdf-syntax-ns#"
   xmlns:cc="http://creativecommons.org/ns#"
   xmlns:dc="http://purl.org/dc/elements/1.1/">
  <sodipodi:namedview
     id="namedview7"
     pagecolor="#9c4444"
     bordercolor="#000000"
     borderopacity="0.25"
     inkscape:showpageshadow="2"
     inkscape:pageopacity="0.0"
     inkscape:pagecheckerboard="0"
     inkscape:deskcolor="#d1d1d1"
     inkscape:zoom="4.3531261"
     inkscape:cx="33.768836"
     inkscape:cy="30.552756"
     inkscape:window-width="1226"
     inkscape:window-height="669"
     inkscape:window-x="100"
     inkscape:window-y="206"
     inkscape:window-maximized="0"
     inkscape:current-layer="svg7"
     showgrid="false" />
  <defs
     id="defs2">
    <filter
       style="color-interpolation-filters:sRGB;"
       inkscape:label="Blur"
       id="filter5421"
       x="-0.12256455"
       y="-0.12342654"
       width="1.2451291"
       height="1.2468531">
      <feGaussianBlur
         stdDeviation="0.5 0.5"
         result="blur"
         id="feGaussianBlur5419" />
    </filter>
  </defs>
  <metadata
     id="metadata2">
    <rdf:RDF>
      <cc:Work
         rdf:about="">
        <dc:format>image/svg+xml</dc:format>
        <dc:type
           rdf:resource="http://purl.org/dc/dcmitype/StillImage" />
      </cc:Work>
    </rdf:RDF>
  </metadata>
  <rect
     style="opacity:0.3;fill:none;fill-opacity:0.996424;stroke:#000000;stroke-width:0.955221;stroke-dasharray:none;stroke-opacity:1;filter:url(#filter5421)"
     id="rect1-2-7"
     width="13.687567"
     height="13.591975"
     x="1.6227165"
     y="1.6705122"
     rx="2.8442214"
     ry="2.965905" />
  <rect
     style="fill:none;fill-opacity:1;stroke:{{colors.primary.default.hex}};stroke-width:0.955221;stroke-dasharray:none;stroke-opacity:1"
     id="rect1-2"
     width="13.687567"
     height="13.591975"
     x="1.6227167"
     y="1.6705124"
     rx="2.8442214"
     ry="2.965905" />
  <path
     id="path5"
     style="fill:{{colors.primary.default.hex}};fill-opacity:1;stroke:none;stroke-width:0.00658107;stroke-opacity:0.5"
     d="m 8.4508543,4.4277384 c -0.087047,0.00109 -0.174168,0.00734 -0.2273556,0.018665 -0.199526,0.042441 -0.2510753,0.067433 -0.7567214,0.3667672 L 7.1704234,4.9884941 V 6.6925314 8.396285 l 0.035065,0.095579 c 0.1197843,0.3277623 0.4474279,0.6320351 0.8206293,0.7620946 0.097907,0.034121 0.1196682,0.036754 0.3093625,0.036479 C 8.522799,9.29021 8.5486231,9.2871152 8.6513455,9.2533943 9.0533844,9.1214234 9.3359862,8.825014 9.4360624,8.4305017 9.4720702,8.2885544 9.4796004,8.0822932 9.453875,7.9404425 9.415459,7.7285937 9.3090289,7.5228742 9.154127,7.3607402 8.9520889,7.1492693 8.7120538,7.0339209 8.4044748,7.0007599 l -0.08229,-0.00876 V 6.5635828 6.1351697 l 0.1218787,0.00764 c 0.1387507,0.00868 0.3129997,0.055165 0.4349167,0.1162232 0.044908,0.022492 0.2690824,0.150639 0.4982598,0.2847601 0.4433275,0.2594468 0.5579508,0.3435612 0.682067,0.5005223 0.134616,0.170238 0.222632,0.3570671 0.264964,0.5621679 0.02136,0.103482 0.02445,0.1830326 0.0246,0.6226832 1.39e-4,0.409348 -0.0036,0.5230354 -0.02064,0.6054335 C 10.269271,9.12102 10.141301,9.351563 9.93121,9.5497538 9.8110042,9.6631449 9.7953223,9.6734694 9.3155961,9.9532781 8.8755858,10.209921 8.766169,10.261191 8.5724476,10.301379 8.3285014,10.351991 8.0150182,10.316894 7.7888624,10.214002 7.7082627,10.177327 6.9809202,9.7520951 6.8582314,9.6699285 6.7550123,9.600801 6.5866052,9.4295115 6.5143697,9.320128 6.4452041,9.2153953 6.3691133,9.0490962 6.3325413,8.9228221 L 6.302002,8.8173445 6.2983256,7.1622292 c -0.00201,-0.9103279 -0.00655,-1.655116 -0.010181,-1.655116 -0.026124,0 -0.9089496,0.5351123 -0.9778556,0.5927085 -0.2166858,0.1811181 -0.36344,0.4226634 -0.4312413,0.7103455 -0.021332,0.090515 -0.023761,0.2184882 -0.028276,1.5397415 -0.00502,1.46668 -2.657e-4,1.6579983 0.044113,1.8298733 0.068395,0.264579 0.2361763,0.52239 0.444249,0.682917 0.063992,0.04937 0.6016628,0.367578 2.0815486,1.231509 0.6064272,0.354023 0.6916851,0.391732 0.9309146,0.413708 0.059893,0.0056 0.1235758,0.0085 0.1416737,0.0066 0.018095,-0.002 0.071673,-0.007 0.1190503,-0.01103 0.1191285,-0.0101 0.2641714,-0.05232 0.3811891,-0.111132 0.1107835,-0.05569 2.46208,-1.430387 2.551813,-1.491952 0.09763,-0.06698 0.232095,-0.202662 0.303707,-0.306251 0.134017,-0.193865 0.202744,-0.386891 0.224528,-0.6314491 0.01648,-0.1850563 0.01648,-2.7957279 0,-2.9785309 C 12.038818,6.5987202 11.84495,6.2558956 11.540234,6.0404362 11.457051,5.9816186 9.1002023,4.5997143 8.9870059,4.5433947 8.9054939,4.5028394 8.773276,4.4588648 8.6776439,4.4407458 8.6248982,4.4307543 8.5379001,4.4266521 8.450854,4.4277373 Z M 8.1774051,6.1640122 v 0.4204945 c 0,0.4522268 0.00235,0.4363312 -0.066452,0.4363312 -0.013612,0 -0.069288,0.014063 -0.1238583,0.031389 l -0.099256,0.031673 V 6.6509608 c 0,-0.2381239 0.00248,-0.4329382 0.00566,-0.4329373 0.00315,0 0.046243,-0.00833 0.095581,-0.018381 0.049339,-0.01005 0.111698,-0.022105 0.1388454,-0.026865 z M 7.7430538,6.3121897 v 0.4233228 0.4236054 l -0.061645,0.039024 c -0.033942,0.021445 -0.099298,0.073974 -0.1450666,0.1167886 l -0.083138,0.077765 0.00339,-0.4832722 0.00339,-0.4832728 0.1416732,-0.057122 z" />
</svg>
