<?xml version="1.0" encoding="UTF-8" standalone="no"?>
<svg
   width="64"
   height="64"
   version="1.1"
   viewBox="0 0 16.933 16.933"
   id="svg7"
   sodipodi:docname="abcd.svg"
   inkscape:version="1.4.3 (0d15f75042, 2025-12-25)"
   xmlns:inkscape="http://www.inkscape.org/namespaces/inkscape"
   xmlns:sodipodi="http://sodipodi.sourceforge.net/DTD/sodipodi-0.dtd"
   xmlns="http://www.w3.org/2000/svg"
   xmlns:svg="http://www.w3.org/2000/svg"
   xmlns:rdf="http://www.w3.org/1999/02/22-rdf-syntax-ns#"
   xmlns:cc="http://creativecommons.org/ns#"
   xmlns:dc="http://purl.org/dc/elements/1.1/">
  <sodipodi:namedview
     id="namedview7"
     pagecolor="#9c4444"
     bordercolor="#000000"
     borderopacity="0.25"
     inkscape:showpageshadow="2"
     inkscape:pageopacity="0.0"
     inkscape:pagecheckerboard="0"
     inkscape:deskcolor="#d1d1d1"
     inkscape:zoom="4.3531261"
     inkscape:cx="33.768836"
     inkscape:cy="30.552756"
     inkscape:window-width="1226"
     inkscape:window-height="669"
     inkscape:window-x="100"
     inkscape:window-y="206"
     inkscape:window-maximized="0"
     inkscape:current-layer="svg7"
     showgrid="false" />
  <defs
     id="defs2">
    <filter
       style="color-interpolation-filters:sRGB;"
       inkscape:label="Blur"
       id="filter5421"
       x="-0.12256455"
       y="-0.12342654"
       width="1.2451291"
       height="1.2468531">
      <feGaussianBlur
         stdDeviation="0.5 0.5"
         result="blur"
         id="feGaussianBlur5419" />
    </filter>
  </defs>
  <metadata
     id="metadata2">
    <rdf:RDF>
      <cc:Work
         rdf:about="">
        <dc:format>image/svg+xml</dc:format>
        <dc:type
           rdf:resource="http://purl.org/dc/dcmitype/StillImage" />
      </cc:Work>
    </rdf:RDF>
  </metadata>
  <rect
     style="opacity:0.3;fill:none;fill-opacity:0.996424;stroke:#000000;stroke-width:0.955221;stroke-dasharray:none;stroke-opacity:1;filter:url(#filter5421)"
     id="rect1-2-7"
     width="13.687567"
     height="13.591975"
     x="1.6227165"
     y="1.6705122"
     rx="2.8442214"
     ry="2.965905" />
  <rect
     style="fill:none;fill-opacity:1;stroke:{{colors.primary.default.hex}};stroke-width:0.955221;stroke-dasharray:none;stroke-opacity:1"
     id="rect1-2"
     width="13.687567"
     height="13.591975"
     x="1.6227167"
     y="1.6705124"
     rx="2.8442214"
     ry="2.965905" />
  <g
     id="g2"
     transform="matrix(0.17557343,0,0,0.17557343,4.2518946,4.2543005)"
     style="fill:{{colors.primary.default.hex}};fill-opacity:1;stroke:none;stroke-width:0.692799;stroke-dasharray:none;stroke-opacity:0.6">
    <path
       id="path5"
       style="fill:{{colors.primary.default.hex}};fill-opacity:1;stroke:none;stroke-width:0.692799;stroke-dasharray:none;stroke-opacity:0.6"
       d="M 23.673828,1.2714844 C 20.278177,1.3238228 16.895475,2.1410054 13.824219,3.6796875 7.557153,6.8194518 3.0501293,12.734407 1.7050781,19.587891 1.3709097,21.290589 1.324564,21.826729 1.3222656,23.970703 c -0.00231,2.150591 0.046248,2.698631 0.3886719,4.457031 1.3580853,6.973983 6.0325433,12.98719 12.5019535,16.078125 2.534157,1.210762 5.155402,1.913042 8.085937,2.169922 0.877789,0.07695 3.28571,0.02936 4.22461,-0.08398 3.147335,-0.379933 6.042639,-1.322524 8.71289,-2.833985 0.709679,-0.401704 2.222612,-1.41939 2.826172,-1.902343 4.779352,-3.824317 7.695561,-9.007417 8.511719,-15.126953 0.152027,-1.139885 0.150484,-4.324656 -0.002,-5.457032 C 46.413347,20.091318 46.14392,18.774715 45.855422,17.769535 44.533259,13.162728 41.867044,9.1787356 38.083984,6.1601562 37.459742,5.6620606 35.951219,4.6468812 35.236328,4.2421875 33.084202,3.0238887 30.724226,2.1525094 28.283203,1.6777344 26.762623,1.3819839 25.217306,1.2476942 23.673828,1.2714844 Z M 24,8.0644531 c 0.676672,0 1.352763,0.022456 1.730469,0.064453 5.297456,0.5890229 9.939498,3.7515279 12.402343,8.4492189 2.925237,5.579669 2.297509,12.387434 -1.597656,17.308594 -2.683677,3.390564 -6.654052,5.575806 -10.863281,5.980469 -2.647495,0.254521 -5.11476,-0.07566 -7.480469,-0.998047 C 14.499751,37.42977 11.47559,34.659752 9.7089844,31.099609 8.8896352,29.448421 8.4191484,27.902075 8.1484375,25.964844 c -0.1030509,-0.737441 -0.1029353,-3.190164 0,-3.929688 C 8.4264135,20.038088 8.970346,18.298645 9.8339844,16.642578 12.310166,11.894388 16.945446,8.7208895 22.269531,8.1289062 22.647237,8.0869093 23.323328,8.0644531 24,8.0644531 Z m -3.101562,9.1601559 c -0.191851,0.0038 -0.384053,0.03049 -0.498047,0.07813 -0.275469,0.115098 -0.612022,0.42728 -0.761719,0.707032 L 19.511719,18.25 l -0.01563,5.652344 c -0.01033,3.695224 0.004,5.728218 0.04297,5.873047 0.08997,0.334109 0.376734,0.688785 0.689454,0.851562 0.338225,0.176049 0.860823,0.200292 1.148437,0.05469 0.103287,-0.05229 2.127876,-1.322309 4.5,-2.822266 2.900722,-1.834203 4.393021,-2.811296 4.556641,-2.984375 0.480528,-0.508314 0.481207,-1.242409 0.002,-1.748047 -0.161885,-0.170795 -1.714976,-1.199979 -4.5625,-3.021484 -2.374946,-1.519207 -4.390486,-2.788796 -4.478516,-2.822266 -0.113358,-0.0431 -0.304244,-0.06242 -0.496093,-0.05859 z" />
  </g>
</svg>
