<?xml version="1.0" encoding="UTF-8" standalone="no"?>
<svg
   width="64"
   height="64"
   version="1.1"
   viewBox="0 0 16.933 16.933"
   id="svg7"
   sodipodi:docname="abcd.svg"
   inkscape:version="1.4.3 (0d15f75042, 2025-12-25)"
   xmlns:inkscape="http://www.inkscape.org/namespaces/inkscape"
   xmlns:sodipodi="http://sodipodi.sourceforge.net/DTD/sodipodi-0.dtd"
   xmlns="http://www.w3.org/2000/svg"
   xmlns:svg="http://www.w3.org/2000/svg"
   xmlns:rdf="http://www.w3.org/1999/02/22-rdf-syntax-ns#"
   xmlns:cc="http://creativecommons.org/ns#"
   xmlns:dc="http://purl.org/dc/elements/1.1/">
  <sodipodi:namedview
     id="namedview7"
     pagecolor="#9c4444"
     bordercolor="#000000"
     borderopacity="0.25"
     inkscape:showpageshadow="2"
     inkscape:pageopacity="0.0"
     inkscape:pagecheckerboard="0"
     inkscape:deskcolor="#d1d1d1"
     inkscape:zoom="4.3531261"
     inkscape:cx="33.768836"
     inkscape:cy="30.552756"
     inkscape:window-width="1226"
     inkscape:window-height="669"
     inkscape:window-x="100"
     inkscape:window-y="206"
     inkscape:window-maximized="0"
     inkscape:current-layer="svg7"
     showgrid="false" />
  <defs
     id="defs2">
    <filter
       style="color-interpolation-filters:sRGB;"
       inkscape:label="Blur"
       id="filter5421"
       x="-0.12256455"
       y="-0.12342654"
       width="1.2451291"
       height="1.2468531">
      <feGaussianBlur
         stdDeviation="0.5 0.5"
         result="blur"
         id="feGaussianBlur5419" />
    </filter>
  </defs>
  <metadata
     id="metadata2">
    <rdf:RDF>
      <cc:Work
         rdf:about="">
        <dc:format>image/svg+xml</dc:format>
        <dc:type
           rdf:resource="http://purl.org/dc/dcmitype/StillImage" />
      </cc:Work>
    </rdf:RDF>
  </metadata>
  <rect
     style="opacity:0.3;fill:none;fill-opacity:0.996424;stroke:#000000;stroke-width:0.955221;stroke-dasharray:none;stroke-opacity:1;filter:url(#filter5421)"
     id="rect1-2-7"
     width="13.687567"
     height="13.591975"
     x="1.6227165"
     y="1.6705122"
     rx="2.8442214"
     ry="2.965905" />
  <rect
     style="fill:none;fill-opacity:1;stroke:{{colors.primary.default.hex}};stroke-width:0.955221;stroke-dasharray:none;stroke-opacity:1"
     id="rect1-2"
     width="13.687567"
     height="13.591975"
     x="1.6227167"
     y="1.6705124"
     rx="2.8442214"
     ry="2.965905" />
  <path
     style="fill:{{colors.primary.default.hex}};fill-opacity:1;stroke-width:0.0593443"
     d="M 8.5548418,12.417114 C 8.1350155,12.203678 8.0632412,11.798859 8.3302172,11.150198 8.5832905,10.535316 8.4933576,10.33034 7.8355808,10.022826 7.6665601,9.9438087 7.5282564,9.8636942 7.5282413,9.8447941 c -1.72e-5,-0.018904 0.2336512,-0.026336 0.5192619,-0.016529 0.4744856,0.016293 0.6747253,-0.015219 1.2345952,-0.1943035 0.1022787,-0.032716 0.1475775,0.011847 0.2818847,0.2773009 0.1832757,0.3622385 0.2029576,0.6714355 0.054851,0.8617165 -0.056393,0.07245 -0.2949887,0.2251 -0.5302132,0.33922 -0.6293787,0.305339 -0.7885776,0.695689 -0.4299768,1.054291 0.1615359,0.161535 0.2094614,0.177642 0.4484149,0.150709 0.2466603,-0.0278 0.2579691,-0.02345 0.144847,0.05578 -0.1902766,0.133275 -0.4850115,0.151933 -0.6970643,0.04413 z M 7.3392119,9.3557429 C 7.1064762,9.304533 7.0508406,9.2650188 6.9979829,9.1133921 6.9261469,8.9073235 6.9146879,8.3585153 6.9802428,8.2638991 7.004221,8.22929 7.2107766,8.1726268 7.4392516,8.1379809 7.6677269,8.1033338 7.9822782,8.0148528 8.1382535,7.9413553 L 8.4218458,7.8077229 8.7645926,7.9615384 C 8.9531032,8.0461359 9.2578911,8.1330479 9.4418991,8.154674 L 9.7764596,8.1939951 9.6064603,8.4087702 C 9.5129604,8.5268968 9.4066675,8.7370211 9.3702534,8.8757126 9.2708396,9.2543472 8.9849888,9.3842771 8.2107261,9.4027624 7.8843333,9.4105555 7.4921505,9.3893903 7.3392089,9.3557429 Z M 6.5006549,7.857997 C 6.0458298,7.6899845 5.9347349,7.4396213 6.1548461,7.0786805 6.30243,6.8366701 6.8581827,6.5522478 7.4280607,6.4270767 8.0970954,6.2801269 9.2980883,6.3256472 9.8686501,6.5195795 10.845284,6.8515359 11.197309,7.4804538 10.581266,7.7927266 10.262589,7.9542643 9.4039285,7.9596451 8.9970401,7.8026498 8.8420027,7.742832 8.7151548,7.6717762 8.7151548,7.6447473 8.7151548,7.6003168 8.9695,7.4678131 9.3679419,7.3046711 9.5111383,7.246039 9.5070073,7.2413199 9.2492528,7.1690673 8.930454,7.0797031 8.0339754,7.074182 7.8249918,7.1602945 c -0.1192802,0.049151 -0.049488,0.062049 0.3560655,0.065804 0.2774341,0.00257 0.5381997,0.026108 0.579477,0.052311 C 8.8101093,7.3098785 8.6420053,7.425399 8.2653029,7.6187296 7.7359447,7.8904064 7.6602888,7.9124948 7.2110712,7.9265298 6.9054598,7.93608 6.6436691,7.91082 6.5006549,7.8579915 Z M 8.1131705,6.0741226 C 7.930997,5.9712643 7.8213889,5.7095315 7.8866307,5.5331653 8.0107029,5.1977664 8.576997,5.1026631 8.8886345,5.364889 9.1079365,5.5494197 9.1229674,5.7379171 8.9357371,5.9555847 8.7682013,6.1503576 8.3539269,6.2100581 8.1131705,6.0741226 Z M 9.0440045,5.2139681 C 8.7999642,4.9443059 8.2791096,4.9130617 7.948791,5.1482697 7.7256373,5.307169 7.6589514,5.3025018 7.5768174,5.1222349 7.4781681,4.905723 7.5875601,4.7164968 7.8983457,4.5660472 8.3270458,4.3585165 8.9399954,4.4269507 9.2619169,4.7182862 9.3992778,4.8425961 9.3977207,5.1065617 9.2588832,5.2322059 9.1568356,5.3245582 9.143027,5.3233857 9.0440023,5.2139668 Z"
     id="path1" />
</svg>
