<?xml version="1.0" encoding="UTF-8" standalone="no"?>
<svg
   width="64"
   height="64"
   version="1.1"
   viewBox="0 0 16.933 16.933"
   id="svg7"
   sodipodi:docname="abcd.svg"
   inkscape:version="1.4.3 (0d15f75042, 2025-12-25)"
   xmlns:inkscape="http://www.inkscape.org/namespaces/inkscape"
   xmlns:sodipodi="http://sodipodi.sourceforge.net/DTD/sodipodi-0.dtd"
   xmlns="http://www.w3.org/2000/svg"
   xmlns:svg="http://www.w3.org/2000/svg"
   xmlns:rdf="http://www.w3.org/1999/02/22-rdf-syntax-ns#"
   xmlns:cc="http://creativecommons.org/ns#"
   xmlns:dc="http://purl.org/dc/elements/1.1/">
  <sodipodi:namedview
     id="namedview7"
     pagecolor="#9c4444"
     bordercolor="#000000"
     borderopacity="0.25"
     inkscape:showpageshadow="2"
     inkscape:pageopacity="0.0"
     inkscape:pagecheckerboard="0"
     inkscape:deskcolor="#d1d1d1"
     inkscape:zoom="4.3531261"
     inkscape:cx="33.768836"
     inkscape:cy="30.552756"
     inkscape:window-width="1226"
     inkscape:window-height="669"
     inkscape:window-x="100"
     inkscape:window-y="206"
     inkscape:window-maximized="0"
     inkscape:current-layer="svg7"
     showgrid="false" />
  <defs
     id="defs2">
    <filter
       style="color-interpolation-filters:sRGB;"
       inkscape:label="Blur"
       id="filter5421"
       x="-0.12256455"
       y="-0.12342654"
       width="1.2451291"
       height="1.2468531">
      <feGaussianBlur
         stdDeviation="0.5 0.5"
         result="blur"
         id="feGaussianBlur5419" />
    </filter>
  </defs>
  <metadata
     id="metadata2">
    <rdf:RDF>
      <cc:Work
         rdf:about="">
        <dc:format>image/svg+xml</dc:format>
        <dc:type
           rdf:resource="http://purl.org/dc/dcmitype/StillImage" />
      </cc:Work>
    </rdf:RDF>
  </metadata>
  <rect
     style="opacity:0.3;fill:none;fill-opacity:0.996424;stroke:#000000;stroke-width:0.955221;stroke-dasharray:none;stroke-opacity:1;filter:url(#filter5421)"
     id="rect1-2-7"
     width="13.687567"
     height="13.591975"
     x="1.6227165"
     y="1.6705122"
     rx="2.8442214"
     ry="2.965905" />
  <rect
     style="fill:none;fill-opacity:1;stroke:{{colors.primary.default.hex}};stroke-width:0.955221;stroke-dasharray:none;stroke-opacity:1"
     id="rect1-2"
     width="13.687567"
     height="13.591975"
     x="1.6227167"
     y="1.6705124"
     rx="2.8442214"
     ry="2.965905" />
  <path
     id="path26"
     style="fill:{{colors.primary.default.hex}};fill-opacity:1;stroke:none;stroke-width:0.0672683;stroke-dasharray:none;stroke-opacity:1"
     d="m 8.7132337,4.3302184 c -0.1269469,0 -0.1489361,0.00376 -0.2167824,0.037084 C 8.4403871,4.3948348 8.1893442,4.6123748 7.5210874,5.2124241 7.0261438,5.6568506 6.6038876,6.042747 6.5827679,6.0699987 6.5057391,6.1693937 6.4951945,6.2160466 6.3848209,6.9468395 6.3261382,7.3353809 6.2781251,7.6630067 6.2781134,7.6748771 c -1.17e-5,0.012074 0.07854,0.079943 0.1782502,0.154011 0.3171235,0.2355725 0.6198807,0.5646448 0.7960957,0.8652889 0.086911,0.1482817 0.1846289,0.3694096 0.2296655,0.519753 0.019949,0.066596 0.038808,0.1293495 0.0419,0.1394439 0.00344,0.011228 0.0173,0.015761 0.035712,0.011708 0.3947809,-0.086915 0.656202,-0.1202225 0.9617369,-0.1225665 0.1202165,-8.978e-4 0.2186026,-0.0029 0.2186228,-0.00439 2e-5,-0.00149 -0.042148,-0.128622 -0.093707,-0.2825255 C 8.3279509,8.0050593 8.2922126,7.3056393 8.5272693,6.6245665 8.5567306,6.5392036 8.6798677,6.2665494 8.8009101,6.0186643 9.118036,5.3692156 9.1517562,5.2568773 9.1401418,4.8885456 9.1328733,4.6579798 9.1015091,4.5065855 9.0496069,4.4513382 9.0334923,4.4341835 8.9830209,4.3999106 8.937417,4.3751746 8.8583682,4.3322965 8.8479106,4.3302199 8.7132337,4.3302199 Z M 9.2573825,4.7041839 9.2568599,4.9342801 C 9.2560139,5.3101744 9.2237559,5.4144148 8.9086608,6.0590348 8.7839091,6.3142509 8.6644739,6.5789601 8.6332972,6.6693611 8.406801,7.3261155 8.4472483,8.0225084 8.7660058,8.9545037 c 0.037249,0.108908 0.078434,0.2205891 0.091553,0.2481878 l 0.023849,0.050201 0.1412844,0.024787 c 0.7297212,0.1280668 1.3129768,0.6134174 1.7703248,1.4731885 0.0358,0.0673 0.06897,0.121139 0.07456,0.121117 1.2e-5,-2e-6 1.07e-4,-1e-6 1.46e-4,0 h 7e-5 c 1.9e-5,-5e-6 1.45e-4,-6.9e-5 1.45e-4,-6.9e-5 0.02017,-0.0074 0.475166,-0.713653 0.689232,-1.0696972 C 11.60731,9.7188338 11.65375,9.6316809 11.660391,9.60854 11.681351,9.535488 11.655191,9.4717846 11.540253,9.3161421 11.380436,9.0997802 11.215432,8.8430739 11.086843,8.6109925 10.884957,8.2466131 10.811766,8.0462152 10.751295,7.6919777 10.712519,7.464822 10.677768,7.0886051 10.677521,6.8931411 10.677247,6.6896034 10.657066,6.5392679 10.619018,6.4580882 10.600706,6.4190727 10.307019,6.0345605 9.9491825,5.581091 9.5986646,5.1369692 9.2996504,4.7579681 9.2846507,4.7388773 Z M 6.2457294,7.8234057 c -6.967e-4,5.13e-5 -0.00117,2.738e-4 -0.00152,5.723e-4 -0.011488,0.011484 -0.9257269,2.0516979 -0.9513993,2.1231404 -0.020698,0.057589 -0.02526,0.097167 -0.020636,0.1785236 0.010916,0.192117 0.0038,0.183233 0.8298504,1.033123 0.402616,0.414238 0.7581615,0.777263 0.790104,0.806708 0.031943,0.02945 0.061571,0.05353 0.065864,0.05353 0.022329,0 0.2269144,-0.488954 0.3152277,-0.753414 0.067366,-0.201732 0.1521137,-0.54542 0.1824778,-0.73994 C 7.485585,10.334184 7.4965205,9.9216253 7.4764137,9.7444341 7.408477,9.1456481 7.1694994,8.6573909 6.7293562,8.2181147 6.588488,8.0775238 6.2741654,7.821555 6.2457466,7.8233956 Z m 2.3060535,1.5385048 c -0.1953238,0 -0.3624412,0.0069 -0.4372456,0.018054 -0.1784725,0.026606 -0.5367096,0.096866 -0.5474384,0.1073729 -0.00511,0.005 -0.00117,0.067103 0.00877,0.1379953 0.074128,0.5288613 0.00535,1.0951513 -0.2096556,1.7265053 -0.070387,0.206684 -0.18689,0.493889 -0.2553926,0.629592 -0.021424,0.04245 -0.038962,0.08052 -0.038962,0.08462 0,0.02196 0.1086584,0.03585 0.5209275,0.06653 0.2499696,0.0186 0.5119933,0.04049 0.5822893,0.04863 0.2638151,0.03057 0.5753125,0.107096 1.2371395,0.303988 0.1883474,0.05603 0.3699694,0.106383 0.4036076,0.111876 0.175631,0.02869 0.3558054,-0.04303 0.5026404,-0.200061 0.0967,-0.103414 0.139899,-0.208564 0.178525,-0.434465 0.05617,-0.328502 0.134466,-0.594621 0.245838,-0.835684 l 0.05215,-0.112895 -0.07949,-0.157732 C 10.356661,10.144153 9.8708259,9.6659336 9.30825,9.4710464 9.0521562,9.3823302 8.9107411,9.3619105 8.5517845,9.3619105 Z" />
</svg>
