<?xml version="1.0" encoding="UTF-8" standalone="no"?>
<svg
   width="64"
   height="64"
   version="1.1"
   viewBox="0 0 16.933 16.933"
   id="svg7"
   sodipodi:docname="abcd.svg"
   inkscape:version="1.4.3 (0d15f75042, 2025-12-25)"
   xmlns:inkscape="http://www.inkscape.org/namespaces/inkscape"
   xmlns:sodipodi="http://sodipodi.sourceforge.net/DTD/sodipodi-0.dtd"
   xmlns="http://www.w3.org/2000/svg"
   xmlns:svg="http://www.w3.org/2000/svg"
   xmlns:rdf="http://www.w3.org/1999/02/22-rdf-syntax-ns#"
   xmlns:cc="http://creativecommons.org/ns#"
   xmlns:dc="http://purl.org/dc/elements/1.1/">
  <sodipodi:namedview
     id="namedview7"
     pagecolor="#9c4444"
     bordercolor="#000000"
     borderopacity="0.25"
     inkscape:showpageshadow="2"
     inkscape:pageopacity="0.0"
     inkscape:pagecheckerboard="0"
     inkscape:deskcolor="#d1d1d1"
     inkscape:zoom="4.3531261"
     inkscape:cx="43.417074"
     inkscape:cy="20.445077"
     inkscape:window-width="1226"
     inkscape:window-height="669"
     inkscape:window-x="100"
     inkscape:window-y="206"
     inkscape:window-maximized="0"
     inkscape:current-layer="svg7"
     showgrid="false" />
  <defs
     id="defs2">
    <filter
       style="color-interpolation-filters:sRGB;"
       inkscape:label="Blur"
       id="filter5421"
       x="-0.12256455"
       y="-0.12342654"
       width="1.2451291"
       height="1.2468531">
      <feGaussianBlur
         stdDeviation="0.5 0.5"
         result="blur"
         id="feGaussianBlur5419" />
    </filter>
  </defs>
  <metadata
     id="metadata2">
    <rdf:RDF>
      <cc:Work
         rdf:about="">
        <dc:format>image/svg+xml</dc:format>
        <dc:type
           rdf:resource="http://purl.org/dc/dcmitype/StillImage" />
      </cc:Work>
    </rdf:RDF>
  </metadata>
  <rect
     style="opacity:0.3;fill:none;fill-opacity:0.996424;stroke:#000000;stroke-width:0.955221;stroke-dasharray:none;stroke-opacity:1;filter:url(#filter5421)"
     id="rect1-2-7"
     width="13.687567"
     height="13.591975"
     x="1.6227165"
     y="1.6705122"
     rx="2.8442214"
     ry="2.965905" />
  <rect
     style="fill:none;fill-opacity:1;stroke:{{colors.primary.default.hex}};stroke-width:0.955221;stroke-dasharray:none;stroke-opacity:1"
     id="rect1-2"
     width="13.687567"
     height="13.591975"
     x="1.6227167"
     y="1.6705124"
     rx="2.8442214"
     ry="2.965905" />
  <path
     style="color:#000000;clip-rule:nonzero;display:inline;overflow:visible;visibility:visible;isolation:auto;mix-blend-mode:normal;color-interpolation:sRGB;color-interpolation-filters:linearRGB;solid-color:#000000;solid-opacity:1;fill:{{colors.primary.default.hex}};fill-opacity:1;fill-rule:nonzero;stroke:none;stroke-width:0.26882;stroke-linecap:butt;stroke-linejoin:miter;stroke-miterlimit:4;stroke-dasharray:none;stroke-dashoffset:0;stroke-opacity:0.3;marker:none;color-rendering:auto;image-rendering:auto;shape-rendering:auto;text-rendering:auto;enable-background:accumulate"
     d="m 7.8943068,4.3405332 c -0.1029757,0 -0.1887878,0.4097038 -0.2391593,0.9952276 A 3.1470619,3.2418304 0 0 0 6.8946455,5.6650099 C 6.4553304,5.2857308 6.1121624,5.0567843 6.0391495,5.1319954 L 5.229474,5.9660528 C 5.1564617,6.0412633 5.3787162,6.3947661 5.7469067,6.84731 A 3.1470619,3.2418304 0 0 0 5.4300768,7.6307146 C 4.8600774,7.6825533 4.461149,7.7708218 4.461149,7.8770754 v 1.1788474 c 0,0.1060758 0.3977265,0.194473 0.9661344,0.2463612 a 3.1470619,3.2418304 0 0 0 0.3185059,0.78513 C 5.3784358,10.539149 5.1565498,10.891825 5.229474,10.966946 l 0.8096755,0.834057 c 0.072856,0.07505 0.4147917,-0.15297 0.852702,-0.530711 a 3.1470619,3.2418304 0 0 0 0.763296,0.324066 c 0.050322,0.587165 0.136012,0.998109 0.2391593,0.998109 h 1.1443861 c 0.1029757,0 0.1887879,-0.409705 0.2391594,-0.995231 a 3.1470619,3.2418304 0 0 0 0.7605017,-0.329247 c 0.439315,0.379277 0.782484,0.608224 0.855497,0.533014 l 0.809675,-0.834057 c 0.07302,-0.0752 -0.149241,-0.428713 -0.517434,-0.881258 A 3.1470619,3.2418304 0 0 0 11.502923,9.302284 C 12.072921,9.250445 12.471851,9.1621766 12.471851,9.0559228 V 7.8770754 C 12.471851,7.771 12.074125,7.682603 11.505716,7.6307146 A 3.1470619,3.2418304 0 0 0 11.187209,6.8455838 C 11.554564,6.3938508 11.77645,6.0411733 11.703526,5.9660531 L 10.893851,5.1319954 c -0.07286,-0.075048 -0.414792,0.1529715 -0.852704,0.5307117 A 3.1470619,3.2418304 0 0 0 9.2778523,5.3386392 C 9.227529,4.751475 9.1418408,4.3405332 9.0386929,4.3405332 Z M 8.4665,6.9929395 A 1.4304825,1.4735594 0 0 1 9.8969824,8.4664995 1.4304825,1.4735594 0 0 1 8.4665,9.9400583 1.4304825,1.4735594 0 0 1 7.0360169,8.4664995 1.4304825,1.4735594 0 0 1 8.4665,6.9929395 Z"
     id="path4690"
     inkscape:connector-curvature="0" />
</svg>
