<?xml version="1.0" encoding="UTF-8" standalone="no"?>
<svg
   width="64"
   height="64"
   version="1.1"
   viewBox="0 0 16.933 16.933"
   id="svg7"
   sodipodi:docname="abcd.svg"
   inkscape:version="1.4.3 (0d15f75042, 2025-12-25)"
   xmlns:inkscape="http://www.inkscape.org/namespaces/inkscape"
   xmlns:sodipodi="http://sodipodi.sourceforge.net/DTD/sodipodi-0.dtd"
   xmlns="http://www.w3.org/2000/svg"
   xmlns:svg="http://www.w3.org/2000/svg"
   xmlns:rdf="http://www.w3.org/1999/02/22-rdf-syntax-ns#"
   xmlns:cc="http://creativecommons.org/ns#"
   xmlns:dc="http://purl.org/dc/elements/1.1/">
  <sodipodi:namedview
     id="namedview7"
     pagecolor="#9c4444"
     bordercolor="#000000"
     borderopacity="0.25"
     inkscape:showpageshadow="2"
     inkscape:pageopacity="0.0"
     inkscape:pagecheckerboard="0"
     inkscape:deskcolor="#d1d1d1"
     inkscape:zoom="4.3531261"
     inkscape:cx="43.417074"
     inkscape:cy="20.445077"
     inkscape:window-width="1226"
     inkscape:window-height="669"
     inkscape:window-x="100"
     inkscape:window-y="206"
     inkscape:window-maximized="0"
     inkscape:current-layer="svg7"
     showgrid="false" />
  <defs
     id="defs2">
    <filter
       style="color-interpolation-filters:sRGB;"
       inkscape:label="Blur"
       id="filter5421"
       x="-0.12256455"
       y="-0.12342654"
       width="1.2451291"
       height="1.2468531">
      <feGaussianBlur
         stdDeviation="0.5 0.5"
         result="blur"
         id="feGaussianBlur5419" />
    </filter>
  </defs>
  <metadata
     id="metadata2">
    <rdf:RDF>
      <cc:Work
         rdf:about="">
        <dc:format>image/svg+xml</dc:format>
        <dc:type
           rdf:resource="http://purl.org/dc/dcmitype/StillImage" />
      </cc:Work>
    </rdf:RDF>
  </metadata>
  <rect
     style="opacity:0.3;fill:none;fill-opacity:0.996424;stroke:#000000;stroke-width:0.955221;stroke-dasharray:none;stroke-opacity:1;filter:url(#filter5421)"
     id="rect1-2-7"
     width="13.687567"
     height="13.591975"
     x="1.6227165"
     y="1.6705122"
     rx="2.8442214"
     ry="2.965905" />
  <rect
     style="fill:none;fill-opacity:1;stroke:{{colors.primary.default.hex}};stroke-width:0.955221;stroke-dasharray:none;stroke-opacity:1"
     id="rect1-2"
     width="13.687567"
     height="13.591975"
     x="1.6227167"
     y="1.6705124"
     rx="2.8442214"
     ry="2.965905" />
  <path
     d="m 9.255565,7.8942493 q 0,0.8459363 -0.3056742,1.4715029 -0.2985663,0.6255672 -0.93835,0.9170228 l 1.2298068,1.364873 H 7.8409315 L 6.938125,10.510256 q -0.021327,0 -0.049762,0 -0.028434,0 -0.049762,0 -0.8246104,0 -1.3648721,-0.327001 Q 4.9405774,9.8562535 4.6775551,9.2662299 4.4216411,8.6762074 4.4216411,7.8871404 q 0,-0.7819586 0.255914,-1.3648733 Q 4.9405774,5.9322449 5.473731,5.6123522 6.0139925,5.2853519 6.8457123,5.2853519 q 0.8246104,0 1.3577633,0.3270003 Q 8.743738,5.9322449 8.9996517,6.5222671 9.255565,7.1051818 9.255565,7.8942493 Z m -3.6894213,0 q 0,0.796175 0.2985661,1.2511328 0.3056744,0.4478489 0.9738939,0.4478489 0.682436,0 0.9738929,-0.4478489 0.2985657,-0.4549578 0.2985657,-1.2511328 0,-0.7961764 -0.2985657,-1.2511333 -0.2914569,-0.4549581 -0.9667843,-0.4549581 -0.6753281,0 -0.9810025,0.4549581 Q 5.5661437,7.0980729 5.5661437,7.8942493 Z M 11.84314,9.6643188 q 0.177718,0 0.341217,-0.035548 0.1635,-0.035543 0.327002,-0.085305 v 0.7890692 q -0.17061,0.0711 -0.426524,0.120846 -0.248807,0.05686 -0.547371,0.05686 -0.348328,0 -0.625566,-0.113738 Q 10.641767,10.282774 10.478267,10.005534 10.321875,9.7211848 10.321875,9.223575 V 7.353987 H 9.8171556 V 6.9061379 L 10.400069,6.5507025 10.705745,5.7332008 h 0.675328 v 0.8246101 h 1.087631 V 7.353987 h -1.087631 v 1.8695911 q 0,0.2203699 0.127957,0.3341095 0.127954,0.106631 0.33411,0.1066312 z"
     id="text3"
     style="font-weight:bold;font-size:7.51258px;-inkscape-font-specification:'sans-serif Bold';fill:{{colors.primary.default.hex}};fill-opacity:1;stroke:none;stroke-width:0.10342;stroke-dasharray:none;stroke-opacity:0.6"
     aria-label="Qt" />
</svg>
