<?xml version="1.0" encoding="UTF-8" standalone="no"?>
<svg
   width="64"
   height="64"
   version="1.1"
   viewBox="0 0 16.933 16.933"
   id="svg7"
   sodipodi:docname="abcd.svg"
   inkscape:version="1.4.3 (0d15f75042, 2025-12-25)"
   xmlns:inkscape="http://www.inkscape.org/namespaces/inkscape"
   xmlns:sodipodi="http://sodipodi.sourceforge.net/DTD/sodipodi-0.dtd"
   xmlns="http://www.w3.org/2000/svg"
   xmlns:svg="http://www.w3.org/2000/svg"
   xmlns:rdf="http://www.w3.org/1999/02/22-rdf-syntax-ns#"
   xmlns:cc="http://creativecommons.org/ns#"
   xmlns:dc="http://purl.org/dc/elements/1.1/">
  <sodipodi:namedview
     id="namedview7"
     pagecolor="#9c4444"
     bordercolor="#000000"
     borderopacity="0.25"
     inkscape:showpageshadow="2"
     inkscape:pageopacity="0.0"
     inkscape:pagecheckerboard="0"
     inkscape:deskcolor="#d1d1d1"
     inkscape:zoom="4.3531261"
     inkscape:cx="33.309396"
     inkscape:cy="31.471636"
     inkscape:window-width="1226"
     inkscape:window-height="669"
     inkscape:window-x="100"
     inkscape:window-y="206"
     inkscape:window-maximized="0"
     inkscape:current-layer="svg7"
     showgrid="false" />
  <defs
     id="defs2">
    <filter
       style="color-interpolation-filters:sRGB;"
       inkscape:label="Blur"
       id="filter5421"
       x="-0.12256455"
       y="-0.12342654"
       width="1.2451291"
       height="1.2468531">
      <feGaussianBlur
         stdDeviation="0.5 0.5"
         result="blur"
         id="feGaussianBlur5419" />
    </filter>
  </defs>
  <metadata
     id="metadata2">
    <rdf:RDF>
      <cc:Work
         rdf:about="">
        <dc:format>image/svg+xml</dc:format>
        <dc:type
           rdf:resource="http://purl.org/dc/dcmitype/StillImage" />
      </cc:Work>
    </rdf:RDF>
  </metadata>
  <rect
     style="opacity:0.3;fill:none;fill-opacity:0.996424;stroke:#000000;stroke-width:0.955221;stroke-dasharray:none;stroke-opacity:1;filter:url(#filter5421)"
     id="rect1-2-7"
     width="13.687567"
     height="13.591975"
     x="1.6227165"
     y="1.6705122"
     rx="2.8442214"
     ry="2.965905" />
  <rect
     style="fill:none;fill-opacity:1;stroke:{{colors.primary.default.hex}};stroke-width:0.955221;stroke-dasharray:none;stroke-opacity:1"
     id="rect1-2"
     width="13.687567"
     height="13.591975"
     x="1.6227167"
     y="1.6705124"
     rx="2.8442214"
     ry="2.965905" />
  <path
     style="fill:{{colors.primary.default.hex}};fill-opacity:1;stroke:none;stroke-width:0.116108;stroke-dasharray:none;stroke-opacity:0.6"
     d="m 6.9849307,4.7426175 c -0.09437,-0.00264 -0.182997,0.00583 -0.2420624,0.025457 -0.2897651,0.098031 -0.4716048,0.3089512 -0.572221,0.6611246 -0.086927,0.3069208 -0.084686,0.8594693 0.00606,1.3404356 0.015926,0.083568 0.032149,0.1594945 0.035965,0.1717475 0.00479,0.017275 -0.025941,0.028211 -0.162857,0.059 C 5.380484,7.1511722 4.8918302,7.375805 4.5982523,7.6679729 4.466433,7.7980364 4.3932843,7.9119454 4.350937,8.0555155 c -0.029932,0.09959 -0.029932,0.2968873 0,0.3952201 0.082162,0.2701738 0.3133659,0.5241951 0.6789059,0.7488169 0.2537756,0.1545685 0.3296391,0.171574 0.4117886,0.090521 0.038528,-0.038012 0.047281,-0.05588 0.047281,-0.101432 0,-0.088276 -0.027693,-0.1240027 -0.1470966,-0.1915481 C 4.5932272,8.5811766 4.4616558,8.1639552 4.9615497,7.7932471 5.2153332,7.6053875 5.5697721,7.4567458 6.0473945,7.3414511 c 0.2091971,-0.050264 0.2562067,-0.056517 0.2562067,-0.029499 0,0.036746 0.1539714,0.5227946 0.2335755,0.7326525 l 0.082439,0.2198362 -0.1083018,0.2056919 c -0.4327334,0.824633 -0.7105346,1.6656063 -0.7439682,2.2803963 -0.027384,0.473726 0.059729,0.812544 0.2711581,1.022401 0.2311781,0.228396 0.5573006,0.277246 0.9763322,0.144673 0.157907,-0.05026 0.4714849,-0.207325 0.6542546,-0.33016 0.1318246,-0.08702 0.1606985,-0.11286 0.178213,-0.158412 0.017511,-0.04554 0.017511,-0.06015 0,-0.107897 -0.026111,-0.07131 -0.081075,-0.110727 -0.1555825,-0.110727 -0.0484,0 -0.081598,0.01463 -0.2060963,0.0982 -0.2824293,0.189124 -0.5473847,0.307138 -0.7674059,0.343897 -0.3047092,0.05153 -0.500125,-0.08106 -0.5895977,-0.395221 -0.038531,-0.136349 -0.036287,-0.573046 0.00606,-0.798926 0.064641,-0.359391 0.1777001,-0.7327502 0.3394535,-1.1254483 0.095837,-0.2330971 0.2786475,-0.6232425 0.3034849,-0.649002 0.012415,-0.013506 0.028834,0.00853 0.069912,0.1018359 0.209201,0.4636693 0.5289096,1.0294171 0.8409541,1.4871274 0.7451213,1.091374 1.5608354,1.801978 2.189069,1.903766 l -0.00686,0.0011 c 0.2760613,0.04398 0.5087873,-0.02385 0.6890073,-0.201652 0.146786,-0.147359 0.243872,-0.354543 0.298639,-0.64294 0.03344,-0.180337 0.03344,-0.68486 0,-0.931476 C 10.756447,9.6666989 10.485446,8.8238822 10.078833,7.9844347 10.015465,7.8531177 9.9795373,7.8211742 9.8973875,7.8211742 9.8053663,7.8199648 9.7304911,7.889692 9.7304911,7.977969 c 0,0.030787 0.031433,0.114146 0.083651,0.2234727 0.5011639,1.054006 0.7697359,2.0737493 0.7423519,2.8113983 -0.01687,0.439504 -0.128087,0.703607 -0.338242,0.805394 -0.110496,0.05372 -0.2499687,0.05259 -0.4340122,-0.0065 C 8.9394343,11.529563 7.7951185,10.118217 7.057672,8.449088 L 6.9841248,8.282595 7.0912145,8.1019569 C 7.2118778,7.8971231 7.516551,7.4395755 7.6569691,7.2517078 l 0.094562,-0.1248699 h 0.2489301 c 1.5115074,0 3.0075878,0.3370838 3.8010658,0.8538862 0.161754,0.1055533 0.356839,0.2986013 0.415426,0.4113846 0.04235,0.078541 0.04647,0.099372 0.04647,0.2036715 0,0.1021032 -0.0042,0.1266063 -0.0388,0.1891242 -0.09713,0.1840853 -0.353388,0.3752597 -0.682946,0.5116041 -0.152837,0.063776 -0.193975,0.1057369 -0.193975,0.1927607 0,0.073513 0.04881,0.1348054 0.122042,0.1567949 0.04743,0.013506 0.0636,0.011165 0.148309,-0.021819 0.532396,-0.207648 0.896974,-0.5303043 0.971482,-0.8567145 0.02101,-0.088277 0.0194,-0.2540914 -0.0017,-0.339857 C 12.54814,8.2592991 12.406668,8.0435397 12.24364,7.8987122 11.517349,7.255617 9.9763064,6.8409544 8.1479772,6.7979144 L 8.0174489,6.7938747 8.1702032,6.624552 C 8.2523521,6.5299898 8.3989327,6.3731013 8.4995535,6.2725719 9.0195361,5.7510523 9.5024546,5.4098643 9.9240431,5.2675483 c 0.1343709,-0.046498 0.1611929,-0.051727 0.3006589,-0.051727 0.129593,0 0.160563,0.00406 0.216604,0.032329 0.07609,0.0355 0.161666,0.122574 0.205289,0.2048842 0.08565,0.1680877 0.114626,0.4625392 0.07355,0.7767004 -0.01368,0.1080699 -0.02506,0.2329683 -0.02506,0.2760083 0,0.072572 0.0025,0.083711 0.04486,0.1192119 0.03472,0.032044 0.05855,0.040412 0.103451,0.040412 0.07229,0 0.139162,-0.037785 0.159221,-0.089309 0.05954,-0.1520734 0.09066,-0.691001 0.05214,-0.9181392 C 10.994876,5.3091964 10.843096,5.0736564 10.601738,4.9596161 10.175074,4.7560231 9.555754,4.9548277 8.8329454,5.5265835 8.4549746,5.825972 7.9573958,6.3339196 7.6141478,6.7684153 l -0.033541,0.0392 -0.2028633,0.011315 c -0.1703223,0.00974 -0.4475951,0.036749 -0.7698318,0.07476 l -0.069506,0.00848 -0.029905,-0.1681095 c -0.058264,-0.3349106 -0.06344,-0.3851307 -0.06344,-0.7055742 0,-0.2811683 0.00371,-0.3353759 0.031117,-0.4481588 C 6.5433618,5.2956921 6.6765527,5.1188169 6.8520004,5.0820603 7.0933698,5.0318117 7.3930901,5.1508145 7.8133793,5.4586907 7.9477497,5.558278 8.1110649,5.473526 8.0910038,5.3164447 8.0824045,5.2479615 8.0188662,5.1887708 7.8048921,5.0477126 7.6256196,4.9286488 7.4244501,4.8303693 7.2601503,4.7826162 7.1792721,4.7587403 7.0793213,4.7452402 6.9849512,4.7426096 Z m 0.2178155,2.4161788 c 0.061396,-0.00389 0.1022402,-0.00462 0.1022402,0 0,0.00628 -0.057097,0.093351 -0.128103,0.1963974 C 7.1058775,7.4569812 7.0052262,7.6065915 6.9530064,7.6914139 6.9020602,7.7737239 6.8521527,7.8485287 6.8422796,7.8595236 6.8285925,7.8739751 6.8085358,7.8346444 6.7477178,7.643324 6.6607865,7.3794487 6.6234225,7.2373226 6.6345661,7.2250701 c 0.01384,-0.0139 0.3839957,-0.054581 0.5681801,-0.066274 z m 1.2636546,0.8938924 c -0.228424,0 -0.4138094,0.1860944 -0.4138094,0.4142128 0,0.2281233 0.1853892,0.4134058 0.4138094,0.4134058 0.2284233,0 0.4138089,-0.1852858 0.4138089,-0.4134058 0,-0.2281083 -0.1853896,-0.4142128 -0.4138089,-0.4142128 z"
     id="path3-7" />
</svg>
