<?xml version="1.0" encoding="UTF-8" standalone="no"?>
<svg
   width="64"
   height="64"
   version="1.1"
   viewBox="0 0 16.933 16.933"
   id="svg7"
   sodipodi:docname="abcd.svg"
   inkscape:version="1.4.3 (0d15f75042, 2025-12-25)"
   xmlns:inkscape="http://www.inkscape.org/namespaces/inkscape"
   xmlns:sodipodi="http://sodipodi.sourceforge.net/DTD/sodipodi-0.dtd"
   xmlns="http://www.w3.org/2000/svg"
   xmlns:svg="http://www.w3.org/2000/svg"
   xmlns:rdf="http://www.w3.org/1999/02/22-rdf-syntax-ns#"
   xmlns:cc="http://creativecommons.org/ns#"
   xmlns:dc="http://purl.org/dc/elements/1.1/">
  <sodipodi:namedview
     id="namedview7"
     pagecolor="#9c4444"
     bordercolor="#000000"
     borderopacity="0.25"
     inkscape:showpageshadow="2"
     inkscape:pageopacity="0.0"
     inkscape:pagecheckerboard="0"
     inkscape:deskcolor="#d1d1d1"
     inkscape:zoom="4.3531261"
     inkscape:cx="33.309396"
     inkscape:cy="31.241916"
     inkscape:window-width="1226"
     inkscape:window-height="669"
     inkscape:window-x="100"
     inkscape:window-y="206"
     inkscape:window-maximized="0"
     inkscape:current-layer="svg7"
     showgrid="false" />
  <defs
     id="defs2">
    <filter
       style="color-interpolation-filters:sRGB;"
       inkscape:label="Blur"
       id="filter5421"
       x="-0.12256455"
       y="-0.12342654"
       width="1.2451291"
       height="1.2468531">
      <feGaussianBlur
         stdDeviation="0.5 0.5"
         result="blur"
         id="feGaussianBlur5419" />
    </filter>
  </defs>
  <metadata
     id="metadata2">
    <rdf:RDF>
      <cc:Work
         rdf:about="">
        <dc:format>image/svg+xml</dc:format>
        <dc:type
           rdf:resource="http://purl.org/dc/dcmitype/StillImage" />
      </cc:Work>
    </rdf:RDF>
  </metadata>
  <rect
     style="opacity:0.3;fill:none;fill-opacity:0.996424;stroke:#000000;stroke-width:0.955221;stroke-dasharray:none;stroke-opacity:1;filter:url(#filter5421)"
     id="rect1-2-7"
     width="13.687567"
     height="13.591975"
     x="1.6227165"
     y="1.6705122"
     rx="2.8442214"
     ry="2.965905" />
  <rect
     style="fill:none;fill-opacity:1;stroke:{{colors.primary.default.hex}};stroke-width:0.955221;stroke-dasharray:none;stroke-opacity:1"
     id="rect1-2"
     width="13.687567"
     height="13.591975"
     x="1.6227167"
     y="1.6705124"
     rx="2.8442214"
     ry="2.965905" />
  <path
     id="path12"
     style="fill:{{colors.primary.default.hex}};fill-opacity:1;stroke:none;stroke-width:0.126729;stroke-dasharray:none;stroke-dashoffset:2.2;stroke-opacity:0.6"
     d="m 8.3058636,4.5130819 c -0.3561344,0 -0.6258572,0.3525104 -0.5451809,0.7125032 0.048078,0.214534 0.083401,0.2588857 0.4260945,0.5361364 l 0.3075127,0.248723 -1.5662011,0.017089 -1.5656993,0.017089 -0.1251153,0.085922 c -0.1933379,0.1325248 -0.2767166,0.309582 -0.2592744,0.5507091 0.010903,0.1506336 0.037914,0.2308466 0.1090367,0.3240937 0.1774955,0.2327101 0.227069,0.2442008 1.047651,0.2442008 0.7237457,0 0.73174,5.779e-4 0.653714,0.06482 -0.043458,0.03579 -0.569552,0.456903 -1.1692493,0.9355993 -0.5996971,0.4786958 -1.1161966,0.9097167 -1.1476425,0.9577091 -0.031444,0.047994 -0.064198,0.176887 -0.072857,0.2864077 -0.012973,0.1640467 -0.00187,0.2228922 0.063312,0.3336402 0.097075,0.1649148 0.2167903,0.2569896 0.3828828,0.2944496 0.2288031,0.05161 0.3527499,-0.01239 0.9697678,-0.500966 l 0.585378,-0.463277 0.041202,0.3537386 c 0.057763,0.4913474 0.1281578,0.7493454 0.3049997,1.1235274 0.4371028,0.924868 1.2408071,1.559132 2.2083586,1.742065 0.4033865,0.07626 0.9801128,0.04805 1.3677254,-0.06684 0.828273,-0.245467 1.465751,-0.788438 1.861652,-1.584792 0.220931,-0.444397 0.319838,-0.8020778 0.348714,-1.263211 C 12.604931,8.3081432 12.067294,7.1787349 11.142311,6.5420627 10.994869,6.4405849 10.703856,6.2210555 10.495631,6.054673 9.6353994,5.3673074 8.5973977,4.5723434 8.5229316,4.5437416 8.4791065,4.5269051 8.3812895,4.5130921 8.3058636,4.5130921 Z m 1.2109542,2.8952359 c 0.2627564,0.00244 0.5268652,0.065037 0.7697862,0.1944561 0.409867,0.2183638 0.769778,0.6978737 0.896406,1.1938703 C 11.418384,9.718584 10.827155,10.777122 9.9544689,10.995457 9.2881955,11.162146 8.74609,11.015095 8.2737046,10.540218 7.6486912,9.9119062 7.5560593,8.9779565 8.0425688,8.2052364 8.3669323,7.6900523 8.9387534,7.4028941 9.5168178,7.4083178 Z m -0.041203,0.9250481 c -0.4884625,0 -0.8586587,0.3946776 -0.8542006,0.9099748 0.00371,0.4281517 0.2990467,0.8034023 0.6893901,0.8753043 0.553594,0.101969 1.0290587,-0.3095096 1.0290587,-0.8903782 0,-0.5189899 -0.3629537,-0.8949009 -0.8642482,-0.8949009 z" />
</svg>
