<?xml version="1.0" encoding="UTF-8" standalone="no"?>
<svg
   width="64"
   height="64"
   version="1.1"
   viewBox="0 0 16.933 16.933"
   id="svg7"
   sodipodi:docname="abcd.svg"
   inkscape:version="1.4.3 (0d15f75042, 2025-12-25)"
   xmlns:inkscape="http://www.inkscape.org/namespaces/inkscape"
   xmlns:sodipodi="http://sodipodi.sourceforge.net/DTD/sodipodi-0.dtd"
   xmlns="http://www.w3.org/2000/svg"
   xmlns:svg="http://www.w3.org/2000/svg"
   xmlns:rdf="http://www.w3.org/1999/02/22-rdf-syntax-ns#"
   xmlns:cc="http://creativecommons.org/ns#"
   xmlns:dc="http://purl.org/dc/elements/1.1/">
  <sodipodi:namedview
     id="namedview7"
     pagecolor="#9c4444"
     bordercolor="#000000"
     borderopacity="0.25"
     inkscape:showpageshadow="2"
     inkscape:pageopacity="0.0"
     inkscape:pagecheckerboard="0"
     inkscape:deskcolor="#d1d1d1"
     inkscape:zoom="4.3531261"
     inkscape:cx="33.309396"
     inkscape:cy="31.241916"
     inkscape:window-width="1226"
     inkscape:window-height="669"
     inkscape:window-x="100"
     inkscape:window-y="206"
     inkscape:window-maximized="0"
     inkscape:current-layer="svg7"
     showgrid="false" />
  <defs
     id="defs2">
    <filter
       style="color-interpolation-filters:sRGB;"
       inkscape:label="Blur"
       id="filter5421"
       x="-0.12256455"
       y="-0.12342654"
       width="1.2451291"
       height="1.2468531">
      <feGaussianBlur
         stdDeviation="0.5 0.5"
         result="blur"
         id="feGaussianBlur5419" />
    </filter>
  </defs>
  <metadata
     id="metadata2">
    <rdf:RDF>
      <cc:Work
         rdf:about="">
        <dc:format>image/svg+xml</dc:format>
        <dc:type
           rdf:resource="http://purl.org/dc/dcmitype/StillImage" />
      </cc:Work>
    </rdf:RDF>
  </metadata>
  <rect
     style="opacity:0.3;fill:none;fill-opacity:0.996424;stroke:#000000;stroke-width:0.955221;stroke-dasharray:none;stroke-opacity:1;filter:url(#filter5421)"
     id="rect1-2-7"
     width="13.687567"
     height="13.591975"
     x="1.6227165"
     y="1.6705122"
     rx="2.8442214"
     ry="2.965905" />
  <rect
     style="fill:none;fill-opacity:1;stroke:{{colors.primary.default.hex}};stroke-width:0.955221;stroke-dasharray:none;stroke-opacity:1"
     id="rect1-2"
     width="13.687567"
     height="13.591975"
     x="1.6227167"
     y="1.6705124"
     rx="2.8442214"
     ry="2.965905" />
  <path
     style="fill:{{colors.primary.default.hex}};fill-opacity:1;stroke-width:0.183742"
     d="m 12.391391,5.5266399 c -0.0841,7.236e-4 -0.339854,0.019291 -1.168822,0.076373 -0.311174,0.021424 -0.791586,0.054475 -1.067583,0.073452 -0.2759963,0.018976 -0.7254145,0.049875 -0.9987059,0.068668 -0.2732914,0.018792 -0.7293508,0.049904 -1.0134657,0.069129 -0.9711493,0.06571 -0.9114973,0.060383 -0.9570421,0.085541 -0.056838,0.031398 -0.092727,0.093531 -0.1098293,0.1901455 -0.00763,0.043131 -0.018074,0.089482 -0.023196,0.1030104 -0.00513,0.013529 -0.012513,0.050596 -0.016411,0.08237 -0.00389,0.031773 -0.012968,0.07441 -0.020139,0.094746 -0.00717,0.020336 -0.016287,0.062851 -0.020237,0.094458 -0.00394,0.031608 -0.012662,0.070888 -0.019353,0.08729 -0.00669,0.016401 -0.015294,0.055804 -0.019122,0.087578 -0.00384,0.031773 -0.012671,0.07394 -0.01964,0.093689 -0.00696,0.01975 -0.01598,0.060068 -0.020042,0.089614 -0.00406,0.02955 -0.012923,0.069398 -0.019677,0.088558 -0.00676,0.019157 -0.015615,0.059012 -0.019677,0.088558 -0.00406,0.02955 -0.012923,0.069398 -0.019683,0.088559 -0.00676,0.019157 -0.015615,0.059012 -0.019677,0.088558 -0.00406,0.02955 -0.012923,0.069399 -0.019683,0.088558 -0.00677,0.019157 -0.015615,0.059012 -0.019683,0.088559 -0.00406,0.02955 -0.012923,0.069397 -0.019683,0.088558 -0.00676,0.019157 -0.015615,0.059011 -0.019683,0.088558 -0.00406,0.02955 -0.012923,0.069398 -0.019683,0.088558 -0.00677,0.019157 -0.015621,0.059115 -0.019683,0.08877 -0.00406,0.029655 -0.011616,0.064977 -0.016794,0.078507 -0.00518,0.01353 -0.015697,0.060024 -0.023388,0.1033174 -0.013024,0.073336 -0.012746,0.0804 0.00389,0.1033182 0.035142,0.048375 0.077568,0.059333 0.3836048,0.09909 0.1607292,0.02088 0.4117934,0.053767 0.5579097,0.073068 0.1461163,0.019301 0.3996057,0.052661 0.56331,0.074144 0.163704,0.021481 0.433797,0.056953 0.6002076,0.078815 0.1664099,0.021861 0.4198995,0.054928 0.5633095,0.07349 0.3117282,0.040349 0.8145564,0.1062096 1.0159254,0.1330682 0.330154,0.044034 0.448373,0.059731 0.705982,0.093766 0.148822,0.019663 0.379065,0.050289 0.511652,0.068052 0.302781,0.040563 0.31049,0.040854 0.328334,0.012513 0.01381,-0.021931 0.03314,-0.108676 0.07506,-0.3370134 0.01193,-0.064943 0.03187,-0.1712114 0.04435,-0.236154 0.01247,-0.064943 0.03229,-0.1689981 0.044,-0.2312351 0.01172,-0.062236 0.02954,-0.1507944 0.03961,-0.1967957 0.01005,-0.046 0.02117,-0.1013493 0.02469,-0.1229974 0.0065,-0.040239 0.02336,-0.1280544 0.06775,-0.3542317 0.0138,-0.070354 0.03416,-0.1754846 0.04523,-0.233637 0.01108,-0.058152 0.02922,-0.1533522 0.04033,-0.2115549 0.0111,-0.058203 0.03056,-0.1589704 0.04325,-0.2239127 0.0127,-0.064943 0.03239,-0.1667843 0.04379,-0.2263145 0.01883,-0.098305 0.03245,-0.1681046 0.0893,-0.45755 0.04249,-0.2163294 0.0445,-0.2399853 0.02331,-0.2762633 -0.01058,-0.018137 -0.03377,-0.041455 -0.05151,-0.051812 -0.01363,-0.00797 -0.0024,-0.013956 -0.05277,-0.013529 z m -5.9459239,2.697694 c -0.040352,-4.49e-4 -0.078745,0.00249 -0.1180352,0.00857 -0.054117,0.00839 -0.4769681,0.068888 -0.939669,0.1344319 -0.4627016,0.065544 -0.8604802,0.1261248 -0.8839385,0.1346248 -0.099492,0.036051 -0.1077408,0.161401 -0.013722,0.2084987 0.020182,0.010111 0.063273,0.026095 0.095742,0.035536 0.03247,0.00944 0.070107,0.020643 0.083635,0.024868 0.013529,0.00424 0.04231,0.012498 0.063957,0.018392 0.061726,0.016806 0.2215388,0.061752 0.282885,0.079563 0.017591,0.0051 0.049689,0.014215 0.071337,0.020237 0.021647,0.00603 0.052641,0.014772 0.068876,0.019453 0.047948,0.013811 0.2431081,0.068898 0.2804251,0.07916 0.018942,0.00522 0.064325,0.018361 0.1008545,0.02923 0.036529,0.010869 0.096304,0.028663 0.1328327,0.039532 0.036529,0.01087 0.084128,0.024658 0.1057747,0.030657 0.021647,0.00599 0.050426,0.014295 0.063957,0.01845 0.013532,0.00416 0.04231,0.0123 0.063957,0.01808 0.092248,0.024641 0.1604335,0.04399 0.3837392,0.1089098 0.1298811,0.03776 0.2759972,0.079344 0.3247024,0.092421 0.1459651,0.039191 0.819472,0.2319713 0.9199906,0.2633296 0.051411,0.01604 0.1111862,0.034169 0.132833,0.0403 0.02165,0.00614 0.059151,0.017413 0.083346,0.025099 0.024192,0.00768 0.070688,0.020622 0.1033143,0.028749 0.032629,0.00813 0.072608,0.018674 0.088844,0.023428 0.016237,0.00475 0.045016,0.012949 0.063956,0.018223 0.018944,0.00527 0.080929,0.023601 0.137753,0.040724 0.1480102,0.044611 0.214597,0.063531 0.2804247,0.079641 0.021649,0.00532 0.068138,0.018237 0.1033144,0.028757 0.035176,0.010514 0.1126622,0.032815 0.1721908,0.049565 0.059529,0.016759 0.1273112,0.036812 0.1506486,0.044583 0.023336,0.00779 0.078683,0.023275 0.1229934,0.034476 0.044309,0.0112 0.1691346,0.04644 0.2773687,0.07829 0.2859668,0.08419 0.3018337,0.08812 0.3371173,0.08359 0.017655,-0.0023 0.4869662,-0.2335228 1.0429262,-0.5139176 1.093184,-0.5513389 1.055226,-0.5294619 1.055226,-0.6084713 0,-0.053907 0.0434,-0.043319 -0.506733,-0.1236507 C 11.032175,8.896338 10.85285,8.870229 10.779792,8.859634 10.706732,8.849039 10.602681,8.833554 10.548565,8.825234 10.494455,8.816914 10.328407,8.792484 10.179586,8.770942 10.030763,8.7494094 9.7872357,8.7139706 9.6384141,8.6921909 9.489592,8.6704122 9.2770592,8.6394617 9.1661194,8.6234253 8.9100489,8.5864106 8.3653104,8.5065512 8.0591791,8.4611458 7.929298,8.4418823 7.7322623,8.41303 7.6213222,8.3970338 6.9430546,8.2992377 6.7336846,8.2678002 6.6767332,8.2552221 6.585415,8.2350504 6.5127219,8.2250481 6.4454671,8.2243388 Z M 5.8736826,9.3239095 c -0.017699,0.00375 -0.3776857,0.7766285 -0.3776857,0.8108785 0,0.03885 0.028001,0.08292 0.062131,0.09776 0.039795,0.01731 0.047489,0.01737 0.09263,7.23e-4 0.020404,-0.0076 0.083601,-0.02785 0.1404241,-0.04517 0.056822,-0.01731 0.1375834,-0.04227 0.179474,-0.05547 0.073075,-0.02301 0.1225551,-0.03815 0.3174189,-0.09713 C 6.4492694,9.986709 6.55033,9.951987 6.5768018,9.936278 6.6295858,9.904961 6.6859479,9.8019593 6.7460521,9.6270356 c 0.017392,-0.050614 0.017522,-0.054919 0.00197,-0.066611 -0.00912,-0.00687 -0.034451,-0.016959 -0.056266,-0.022417 C 6.613902,9.5185136 6.3923149,9.4590599 6.1421176,9.3905158 6.0023255,9.352218 5.8815225,9.3222403 5.8736656,9.3239046 Z m 4.5932634,0.6106621 c -0.01035,2.983e-4 -0.02318,0.00456 -0.03781,0.013053 -0.01792,0.010384 -0.07143,0.040508 -0.118918,0.066899 -0.07627,0.04239 -0.226887,0.130602 -0.3274116,0.191742 -0.018952,0.01151 -0.056582,0.03219 -0.083635,0.04595 -0.027057,0.01376 -0.073554,0.04012 -0.1033142,0.0586 -0.1455613,0.09038 -0.2051036,0.10924 -0.267664,0.08474 -0.012431,-0.0048 -0.077021,-0.02336 -0.1435374,-0.04107 -0.1040485,-0.02771 -0.1227375,-0.03026 -0.1338128,-0.0182 -0.011959,0.01301 -0.025904,0.04713 -0.076084,0.186188 -0.010743,0.02975 -0.028564,0.07625 -0.039607,0.103317 -0.011044,0.02706 -0.023828,0.06249 -0.028382,0.07872 -0.00455,0.01624 -0.022194,0.06716 -0.039205,0.113158 -0.017013,0.046 -0.034639,0.09471 -0.039185,0.108237 -0.00454,0.01353 -0.022156,0.06223 -0.039127,0.108238 -0.028895,0.07832 -0.079388,0.25846 -0.0786,0.280413 7.985e-4,0.02181 0.047892,0.06599 0.084135,0.07892 0.050467,0.01797 0.054118,0.01786 0.1199967,-0.0045 0.087333,-0.02964 0.6410597,-0.313322 0.7893094,-0.404373 0.073057,-0.04486 0.1803099,-0.107102 0.2383579,-0.138294 0.05804,-0.03119 0.114947,-0.06329 0.126435,-0.07135 0.04017,-0.02814 0.06885,-0.08491 0.08898,-0.176271 0.01103,-0.05004 0.0265,-0.119759 0.03439,-0.154937 0.0079,-0.03518 0.01835,-0.08389 0.02325,-0.108239 0.0048,-0.02436 0.02466,-0.112062 0.04394,-0.19493 0.01926,-0.08287 0.03502,-0.1616222 0.03502,-0.1749859 0,-0.020853 -0.01027,-0.031483 -0.02751,-0.031018 z"
     id="path3" />
</svg>
