<?xml version="1.0" encoding="UTF-8" standalone="no"?>
<svg
   width="64"
   height="64"
   version="1.1"
   viewBox="0 0 16.933 16.933"
   id="svg7"
   sodipodi:docname="abcd.svg"
   inkscape:version="1.4.3 (0d15f75042, 2025-12-25)"
   xmlns:inkscape="http://www.inkscape.org/namespaces/inkscape"
   xmlns:sodipodi="http://sodipodi.sourceforge.net/DTD/sodipodi-0.dtd"
   xmlns="http://www.w3.org/2000/svg"
   xmlns:svg="http://www.w3.org/2000/svg"
   xmlns:rdf="http://www.w3.org/1999/02/22-rdf-syntax-ns#"
   xmlns:cc="http://creativecommons.org/ns#"
   xmlns:dc="http://purl.org/dc/elements/1.1/">
  <sodipodi:namedview
     id="namedview7"
     pagecolor="#9c4444"
     bordercolor="#000000"
     borderopacity="0.25"
     inkscape:showpageshadow="2"
     inkscape:pageopacity="0.0"
     inkscape:pagecheckerboard="0"
     inkscape:deskcolor="#d1d1d1"
     inkscape:zoom="4.3531261"
     inkscape:cx="33.309396"
     inkscape:cy="31.241916"
     inkscape:window-width="1226"
     inkscape:window-height="669"
     inkscape:window-x="100"
     inkscape:window-y="206"
     inkscape:window-maximized="0"
     inkscape:current-layer="svg7"
     showgrid="false" />
  <defs
     id="defs2">
    <filter
       style="color-interpolation-filters:sRGB;"
       inkscape:label="Blur"
       id="filter5421"
       x="-0.12256455"
       y="-0.12342654"
       width="1.2451291"
       height="1.2468531">
      <feGaussianBlur
         stdDeviation="0.5 0.5"
         result="blur"
         id="feGaussianBlur5419" />
    </filter>
  </defs>
  <metadata
     id="metadata2">
    <rdf:RDF>
      <cc:Work
         rdf:about="">
        <dc:format>image/svg+xml</dc:format>
        <dc:type
           rdf:resource="http://purl.org/dc/dcmitype/StillImage" />
      </cc:Work>
    </rdf:RDF>
  </metadata>
  <rect
     style="opacity:0.3;fill:none;fill-opacity:0.996424;stroke:#000000;stroke-width:0.955221;stroke-dasharray:none;stroke-opacity:1;filter:url(#filter5421)"
     id="rect1-2-7"
     width="13.687567"
     height="13.591975"
     x="1.6227165"
     y="1.6705122"
     rx="2.8442214"
     ry="2.965905" />
  <rect
     style="fill:none;fill-opacity:1;stroke:{{colors.primary.default.hex}};stroke-width:0.955221;stroke-dasharray:none;stroke-opacity:1"
     id="rect1-2"
     width="13.687567"
     height="13.591975"
     x="1.6227167"
     y="1.6705124"
     rx="2.8442214"
     ry="2.965905" />
  <path
     id="path17-9"
     style="fill:{{colors.primary.default.hex}};fill-opacity:1;stroke:none;stroke-width:0.115818;stroke-dasharray:none;stroke-dashoffset:2.2;stroke-opacity:0.6"
     d="m 8.3330209,4.4504814 c -0.053512,0.00717 -0.1073743,0.0523 -0.1447763,0.1246299 -0.035751,0.069134 -0.0417,0.3113191 -0.0417,1.7209192 0,0.9024423 -0.00925,1.6409516 -0.020622,1.6407991 C 8.114558,7.9366774 7.6807308,7.5783213 7.1621551,7.1407935 6.6435795,6.703266 6.1988836,6.3376109 6.1735521,6.3278904 c -0.025333,-0.00972 -0.076021,0.00192 -0.1124478,0.025768 -0.1121449,0.07348 -0.150694,0.2436975 -0.086679,0.3841958 0.017816,0.039095 0.4673733,0.4380306 0.9989109,0.8864629 C 7.5048717,8.0727504 7.942526,8.4538856 7.9460084,8.4709556 7.949492,8.4880209 7.5244149,8.848943 7.0009792,9.2730826 6.4775433,9.6972225 6.0298978,10.065519 6.0062852,10.091609 5.935799,10.16949 5.9302691,10.361098 5.9955075,10.465027 6.1022054,10.635004 6.1165719,10.62678 7.1546563,9.7833139 7.6768896,9.35899 8.1137917,9.0116424 8.1254541,9.0116424 c 0.011666,0 0.021082,0.7308053 0.021082,1.6239316 0,1.061372 0.00976,1.650544 0.02858,1.701243 0.015838,0.04266 0.049551,0.09303 0.074497,0.111978 0.024945,0.01894 0.071908,0.03467 0.1044827,0.03467 0.061145,0 2.4136742,-1.777448 2.5549052,-1.930354 0.101372,-0.109753 0.108176,-0.332342 0.0136,-0.442765 C 10.888578,10.070632 10.407947,9.6935918 9.85481,9.2726156 9.3016697,8.8516362 8.8394376,8.498898 8.8273162,8.4882906 8.8151993,8.4776807 9.2708424,8.1119304 9.8402827,7.6758558 10.409722,7.2397803 10.900171,6.8517881 10.930089,6.8137566 c 0.0625,-0.079447 0.07298,-0.2870579 0.0192,-0.3832602 -0.03483,-0.06229 -2.4756163,-1.9414689 -2.5638107,-1.9739261 -0.017172,-0.00632 -0.034639,-0.00848 -0.052477,-0.00608 z M 8.5757205,5.264322 c 0.028245,0 1.7476245,1.3257222 1.7476245,1.3474991 0,0.011652 -0.3866147,0.3179475 -0.8592879,0.6803075 -0.4726722,0.3623628 -0.8695075,0.6626079 -0.8817775,0.6676598 -0.012266,0.00505 -0.022488,-0.5989815 -0.022488,-1.3428136 0,-0.7438315 0.00729,-1.3526528 0.01593,-1.3526528 z m 0.00469,3.7201467 c 0.039885,7.486e-4 1.7288835,1.3126233 1.7288835,1.3428133 0,0.01678 -0.3890214,0.329056 -0.8649099,0.693897 -0.4758889,0.36484 -0.8694843,0.662974 -0.8747494,0.662974 -0.00526,0 -0.00984,-0.607274 -0.00984,-1.349842 0,-0.7425693 0.00925,-1.3500658 0.020621,-1.3498423 z" />
</svg>
