<?xml version="1.0" encoding="UTF-8" standalone="no"?>
<svg
   width="64"
   height="64"
   version="1.1"
   viewBox="0 0 16.933 16.933"
   id="svg7"
   sodipodi:docname="abcd.svg"
   inkscape:version="1.4.3 (0d15f75042, 2025-12-25)"
   xmlns:inkscape="http://www.inkscape.org/namespaces/inkscape"
   xmlns:sodipodi="http://sodipodi.sourceforge.net/DTD/sodipodi-0.dtd"
   xmlns="http://www.w3.org/2000/svg"
   xmlns:svg="http://www.w3.org/2000/svg"
   xmlns:rdf="http://www.w3.org/1999/02/22-rdf-syntax-ns#"
   xmlns:cc="http://creativecommons.org/ns#"
   xmlns:dc="http://purl.org/dc/elements/1.1/">
  <sodipodi:namedview
     id="namedview7"
     pagecolor="#9c4444"
     bordercolor="#000000"
     borderopacity="0.25"
     inkscape:showpageshadow="2"
     inkscape:pageopacity="0.0"
     inkscape:pagecheckerboard="0"
     inkscape:deskcolor="#d1d1d1"
     inkscape:zoom="4.3531261"
     inkscape:cx="32.160796"
     inkscape:cy="33.309396"
     inkscape:window-width="1226"
     inkscape:window-height="669"
     inkscape:window-x="100"
     inkscape:window-y="206"
     inkscape:window-maximized="0"
     inkscape:current-layer="svg7"
     showgrid="false" />
  <defs
     id="defs2">
    <filter
       style="color-interpolation-filters:sRGB;"
       inkscape:label="Blur"
       id="filter5421"
       x="-0.12256455"
       y="-0.12342654"
       width="1.2451291"
       height="1.2468531">
      <feGaussianBlur
         stdDeviation="0.5 0.5"
         result="blur"
         id="feGaussianBlur5419" />
    </filter>
  </defs>
  <metadata
     id="metadata2">
    <rdf:RDF>
      <cc:Work
         rdf:about="">
        <dc:format>image/svg+xml</dc:format>
        <dc:type
           rdf:resource="http://purl.org/dc/dcmitype/StillImage" />
      </cc:Work>
    </rdf:RDF>
  </metadata>
  <rect
     style="opacity:0.3;fill:none;fill-opacity:0.996424;stroke:#000000;stroke-width:0.955221;stroke-dasharray:none;stroke-opacity:1;filter:url(#filter5421)"
     id="rect1-2-7"
     width="13.687567"
     height="13.591975"
     x="1.6227165"
     y="1.6705122"
     rx="2.8442214"
     ry="2.965905" />
  <rect
     style="fill:none;fill-opacity:1;stroke:{{colors.primary.default.hex}};stroke-width:0.955221;stroke-dasharray:none;stroke-opacity:1"
     id="rect1-2"
     width="13.687567"
     height="13.591975"
     x="1.6227167"
     y="1.6705124"
     rx="2.8442214"
     ry="2.965905" />
  <path
     style="fill:{{colors.primary.default.hex}};fill-opacity:1;stroke:none;stroke-width:0.127719;stroke-dasharray:none;stroke-dashoffset:2.2;stroke-opacity:0.6"
     d="M 8.3650104,12.590998 C 8.2648639,12.567031 8.2372373,12.549374 7.2302656,11.865951 6.3423253,11.263312 6.069673,11.028823 5.9406285,10.756819 5.8730261,10.614323 5.5066191,9.2596341 5.1050029,7.6673234 L 4.922387,6.9432966 5.0371621,6.61374 C 5.1002877,6.4324844 5.1519374,6.2627112 5.1519374,6.2364671 5.1519374,6.2102224 5.1027141,6.090849 5.0425518,5.9711932 4.9823904,5.8515363 4.933166,5.7373255 4.933166,5.7173909 c 0,-0.05112 0.6226356,-0.6581901 0.7383531,-0.7198947 0.1331657,-0.071011 0.5468037,-0.072938 0.6825382,-0.00318 l 0.09459,0.04861 0.3569923,-0.3562579 0.356992,-0.356258 H 8.4608538 9.759077 l 0.357154,0.3564209 0.357157,0.3564217 0.133074,-0.058868 c 0.109632,-0.048496 0.169627,-0.056696 0.340545,-0.046554 0.125597,0.00747 0.24524,0.031951 0.303183,0.062082 0.114309,0.059442 0.4877,0.3994201 0.646838,0.5889561 l 0.113585,0.1352816 -0.12042,0.2340251 c -0.06622,0.1287146 -0.120423,0.2573147 -0.120423,0.2857797 0,0.028463 0.04909,0.1848614 0.109082,0.3475484 0.05999,0.1626885 0.109217,0.3196181 0.109387,0.3487345 4.47e-4,0.0778 -0.538559,2.1934943 -0.864347,3.3927087 -0.152533,0.561474 -0.271785,0.722111 -0.833051,1.122132 -0.6455222,0.460073 -1.6669591,1.133949 -1.7187975,1.133949 -0.028614,0 -0.068413,0.0048 -0.088443,0.01082 -0.02003,0.0059 -0.073397,0.002 -0.1185909,-0.0087 z M 8.6413767,10.757536 C 8.7000145,10.71281 8.9119256,10.562953 9.1122895,10.42452 9.3126533,10.286087 9.5280066,10.126738 9.5908524,10.070409 9.7324075,9.9435315 9.7278036,9.9374201 9.3478855,9.7478672 8.5459263,9.3477461 8.4707468,9.3357083 8.0233108,9.5357887 c -0.4982003,0.22278 -0.7793722,0.3824831 -0.7793722,0.442679 0,0.038522 0.127943,0.1424073 0.4534128,0.3681523 0.2493782,0.172968 0.5065707,0.354477 0.5715417,0.403361 0.1465585,0.110264 0.2354589,0.11207 0.3724836,0.0075 z M 7.2390119,9.7218094 C 7.301883,9.6789755 7.4640762,9.5868099 7.5994418,9.516998 7.8569625,9.3841846 8.2723185,9.0512227 8.3373483,8.9254684 8.3900983,8.8234621 8.359945,8.7839674 7.9636308,8.4360615 7.7728813,8.2686088 7.6092061,8.1076319 7.599908,8.0783355 7.5896564,8.046051 7.6320213,7.8996992 7.7074443,7.7068069 7.8773693,7.2722224 7.873472,7.1162415 7.6903189,7.0215309 7.6434307,6.9972873 7.3831965,6.8919384 7.1120198,6.7874295 6.8408434,6.6829202 6.6057638,6.5888566 6.5896234,6.5784001 c -0.041526,-0.026895 0.1997413,-0.055064 0.4958312,-0.057882 0.2273705,-0.0022 0.2815901,0.00821 0.5606015,0.1071181 0.3103099,0.1100182 0.4087469,0.1774767 0.3887406,0.2663993 -0.00592,0.026382 -0.06017,0.2654106 -0.1205248,0.5311883 -0.060353,0.2657779 -0.1097352,0.5013303 -0.1097352,0.5234497 0,0.054392 0.163796,0.1161293 0.4507721,0.169904 0.221907,0.041582 0.2525292,0.041465 0.447483,-0.00168 0.2717546,-0.060194 0.4143735,-0.118081 0.4143735,-0.1681852 0,-0.022122 -0.049382,-0.2576712 -0.1097363,-0.5234492 C 8.9470743,7.1594873 8.8928386,6.9204525 8.8869043,6.8940778 8.8666086,6.8038651 8.9657115,6.7357645 9.2758859,6.6267797 9.5345416,6.535897 9.6198344,6.5181634 9.7982929,6.5181634 c 0.2527911,0 0.5494611,0.028166 0.5494611,0.052171 0,0.00937 -0.0646,0.039741 -0.143571,0.067497 C 9.7560593,6.7953459 9.207675,7.0267899 9.1529721,7.0814927 9.0525233,7.1819426 9.0680051,7.3397826 9.2137571,7.70121 9.2889901,7.8877718 9.3319171,8.0321478 9.322989,8.0686084 9.314899,8.1016414 9.1637577,8.2541471 8.9871162,8.4075059 8.602294,8.7416059 8.5702364,8.77607 8.5702364,8.8556854 c 0,0.085509 0.3799659,0.4434753 0.6642073,0.6257516 0.3389517,0.2173591 0.5257942,0.3182964 0.5891865,0.3182964 0.070328,0 0.3739298,-0.2657258 0.4763578,-0.4169296 0.154365,-0.2278783 0.155339,-0.3163271 0.0079,-0.7248002 -0.05205,-0.1442851 -0.06429,-0.2117963 -0.04496,-0.2479094 0.0146,-0.027295 0.202701,-0.2084543 0.417986,-0.4025784 C 10.896193,7.8133923 11.15721,7.571467 11.260948,7.469904 L 11.449645,7.2852441 11.433475,7.0923408 C 11.423975,6.9785292 11.393155,6.8509834 11.358335,6.7812738 11.24844,6.5612317 10.467228,5.5265449 10.388044,5.4961585 10.371974,5.4899785 10.168649,5.5328205 9.9362582,5.5913495 9.70387,5.6498775 9.4835253,5.6977656 9.4466059,5.6977656 c -0.036919,0 -0.1968983,-0.036447 -0.3555102,-0.080994 C 8.5282685,5.458699 8.3995357,5.4587468 7.8318829,5.6172695 7.6739578,5.6613622 7.5083894,5.6975188 7.4639528,5.6976177 7.4195166,5.6977156 7.2533868,5.6610607 7.0947759,5.6161613 6.936164,5.5712443 6.7470309,5.5234397 6.674479,5.5099117 L 6.5425665,5.4853162 6.4010148,5.6647449 C 6.1364196,6.0001433 5.7272485,6.5859109 5.632958,6.7642899 5.5036242,7.0089676 5.4633016,7.1773205 5.5081179,7.285518 5.5284109,7.334498 5.7717498,7.5780678 6.0970376,7.8749837 6.4019268,8.1532813 6.6586111,8.399816 6.667445,8.4228395 6.676285,8.4458635 6.651848,8.5528067 6.613145,8.6604947 6.4891054,9.0056493 6.4842458,9.0320611 6.520763,9.1624904 c 0.01852,0.06616 0.070257,0.1707828 0.1149637,0.2324984 0.1151225,0.1589231 0.3801635,0.4025734 0.4392018,0.4037567 0.027375,5.515e-4 0.1012065,-0.034044 0.1640787,-0.076881 z"
     id="path14" />
</svg>
