<?xml version="1.0" encoding="UTF-8" standalone="no"?>
<svg
   width="64"
   height="64"
   version="1.1"
   viewBox="0 0 16.933 16.933"
   id="svg7"
   sodipodi:docname="abcd.svg"
   inkscape:version="1.4.3 (0d15f75042, 2025-12-25)"
   xmlns:inkscape="http://www.inkscape.org/namespaces/inkscape"
   xmlns:sodipodi="http://sodipodi.sourceforge.net/DTD/sodipodi-0.dtd"
   xmlns="http://www.w3.org/2000/svg"
   xmlns:svg="http://www.w3.org/2000/svg"
   xmlns:rdf="http://www.w3.org/1999/02/22-rdf-syntax-ns#"
   xmlns:cc="http://creativecommons.org/ns#"
   xmlns:dc="http://purl.org/dc/elements/1.1/">
  <sodipodi:namedview
     id="namedview7"
     pagecolor="#9c4444"
     bordercolor="#000000"
     borderopacity="0.25"
     inkscape:showpageshadow="2"
     inkscape:pageopacity="0.0"
     inkscape:pagecheckerboard="0"
     inkscape:deskcolor="#d1d1d1"
     inkscape:zoom="4.3531261"
     inkscape:cx="32.620236"
     inkscape:cy="33.768836"
     inkscape:window-width="1226"
     inkscape:window-height="669"
     inkscape:window-x="100"
     inkscape:window-y="206"
     inkscape:window-maximized="0"
     inkscape:current-layer="svg7"
     showgrid="false" />
  <defs
     id="defs2">
    <filter
       style="color-interpolation-filters:sRGB;"
       inkscape:label="Blur"
       id="filter5421"
       x="-0.12256455"
       y="-0.12342654"
       width="1.2451291"
       height="1.2468531">
      <feGaussianBlur
         stdDeviation="0.5 0.5"
         result="blur"
         id="feGaussianBlur5419" />
    </filter>
  </defs>
  <metadata
     id="metadata2">
    <rdf:RDF>
      <cc:Work
         rdf:about="">
        <dc:format>image/svg+xml</dc:format>
        <dc:type
           rdf:resource="http://purl.org/dc/dcmitype/StillImage" />
      </cc:Work>
    </rdf:RDF>
  </metadata>
  <rect
     style="opacity:0.3;fill:none;fill-opacity:0.996424;stroke:#000000;stroke-width:0.955221;stroke-dasharray:none;stroke-opacity:1;filter:url(#filter5421)"
     id="rect1-2-7"
     width="13.687567"
     height="13.591975"
     x="1.6227165"
     y="1.6705122"
     rx="2.8442214"
     ry="2.965905" />
  <rect
     style="fill:none;fill-opacity:1;stroke:{{colors.primary.default.hex}};stroke-width:0.955221;stroke-dasharray:none;stroke-opacity:1"
     id="rect1-2"
     width="13.687567"
     height="13.591975"
     x="1.6227167"
     y="1.6705124"
     rx="2.8442214"
     ry="2.965905" />
  <g
     id="g10"
     transform="matrix(0.14329184,0,0,0.14329183,3.4512856,3.8811612)"
     style="fill:{{colors.primary.default.hex}};fill-opacity:1;stroke:none;stroke-width:0.846754;stroke-dasharray:none;stroke-opacity:0.6">
    <g
       id="path5-0"
       style="fill:{{colors.primary.default.hex}};fill-opacity:1;stroke:none;stroke-width:0.846754;stroke-dasharray:none;stroke-opacity:0.6">
      <path
         style="color:#000000;fill:{{colors.primary.default.hex}};fill-opacity:1;stroke:none;stroke-width:0.846754;stroke-linecap:round;stroke-dasharray:none;stroke-opacity:0.6"
         d="M 22,7 V 57"
         id="path1" />
      <path
         style="color:#000000;fill:{{colors.primary.default.hex}};fill-opacity:1;stroke:none;stroke-width:0.846754;stroke-linecap:round;stroke-dasharray:none;stroke-opacity:0.6"
         d="m 22,4 a 3,3 0 0 0 -3,3 v 50 a 3,3 0 0 0 3,3 3,3 0 0 0 3,-3 V 7 A 3,3 0 0 0 22,4 Z"
         id="path2-7" />
    </g>
    <g
       id="path6"
       style="fill:{{colors.primary.default.hex}};fill-opacity:1;stroke:none;stroke-width:0.846754;stroke-dasharray:none;stroke-opacity:0.6">
      <path
         style="color:#000000;fill:{{colors.primary.default.hex}};fill-opacity:1;stroke:none;stroke-width:0.846754;stroke-linecap:round;stroke-dasharray:none;stroke-opacity:0.6"
         d="M 30.042727,13.9994 H 41"
         id="path4-8" />
      <path
         style="color:#000000;fill:{{colors.primary.default.hex}};fill-opacity:1;stroke:none;stroke-width:0.846754;stroke-linecap:round;stroke-dasharray:none;stroke-opacity:0.6"
         d="m 30.042969,11 a 3,3 0 0 0 -3,3 3,3 0 0 0 3,3 H 41 a 3,3 0 0 0 3,-3 3,3 0 0 0 -3,-3 z"
         id="path12" />
    </g>
    <g
       id="path7"
       style="fill:{{colors.primary.default.hex}};fill-opacity:1;stroke:none;stroke-width:0.846754;stroke-dasharray:none;stroke-opacity:0.6">
      <path
         style="color:#000000;fill:{{colors.primary.default.hex}};fill-opacity:1;stroke:none;stroke-width:0.846754;stroke-linecap:round;stroke-dasharray:none;stroke-opacity:0.6"
         d="M 34.042727,22.9997 H 48"
         id="path13" />
      <path
         style="color:#000000;fill:{{colors.primary.default.hex}};fill-opacity:1;stroke:none;stroke-width:0.846754;stroke-linecap:round;stroke-dasharray:none;stroke-opacity:0.6"
         d="m 34.042969,20 a 3,3 0 0 0 -3,3 3,3 0 0 0 3,3 H 48 a 3,3 0 0 0 3,-3 3,3 0 0 0 -3,-3 z"
         id="path14" />
    </g>
    <g
       id="path8"
       style="fill:{{colors.primary.default.hex}};fill-opacity:1;stroke:none;stroke-width:0.846754;stroke-dasharray:none;stroke-opacity:0.6">
      <path
         style="color:#000000;fill:{{colors.primary.default.hex}};fill-opacity:1;stroke:none;stroke-width:0.846754;stroke-linecap:round;stroke-dasharray:none;stroke-opacity:0.6"
         d="M 34.042727,31.9997 H 48"
         id="path15" />
      <path
         style="color:#000000;fill:{{colors.primary.default.hex}};fill-opacity:1;stroke:none;stroke-width:0.846754;stroke-linecap:round;stroke-dasharray:none;stroke-opacity:0.6"
         d="m 34.042969,29 a 3,3 0 0 0 -3,3 3,3 0 0 0 3,3 H 48 a 3,3 0 0 0 3,-3 3,3 0 0 0 -3,-3 z"
         id="path16" />
    </g>
    <g
       id="path9"
       style="fill:{{colors.primary.default.hex}};fill-opacity:1;stroke:none;stroke-width:0.846754;stroke-dasharray:none;stroke-opacity:0.6">
      <path
         style="color:#000000;fill:{{colors.primary.default.hex}};fill-opacity:1;stroke:none;stroke-width:0.846754;stroke-linecap:round;stroke-dasharray:none;stroke-opacity:0.6"
         d="M 34.042727,40.9997 H 48"
         id="path17-8" />
      <path
         style="color:#000000;fill:{{colors.primary.default.hex}};fill-opacity:1;stroke:none;stroke-width:0.846754;stroke-linecap:round;stroke-dasharray:none;stroke-opacity:0.6"
         d="m 34.042969,38 a 3,3 0 0 0 -3,3 3,3 0 0 0 3,3 H 48 a 3,3 0 0 0 3,-3 3,3 0 0 0 -3,-3 z"
         id="path19" />
    </g>
    <g
       id="path10-3"
       style="fill:{{colors.primary.default.hex}};fill-opacity:1;stroke:none;stroke-width:0.846754;stroke-dasharray:none;stroke-opacity:0.6">
      <path
         style="color:#000000;fill:{{colors.primary.default.hex}};fill-opacity:1;stroke:none;stroke-width:0.846754;stroke-linecap:round;stroke-dasharray:none;stroke-opacity:0.6"
         d="M 30.042727,49.9997 H 41"
         id="path21" />
      <path
         style="color:#000000;fill:{{colors.primary.default.hex}};fill-opacity:1;stroke:none;stroke-width:0.846754;stroke-linecap:round;stroke-dasharray:none;stroke-opacity:0.6"
         d="m 30.042969,47 a 3,3 0 0 0 -3,3 3,3 0 0 0 3,3 H 41 a 3,3 0 0 0 3,-3 3,3 0 0 0 -3,-3 z"
         id="path23" />
    </g>
  </g>
</svg>
