<?xml version="1.0" encoding="UTF-8" standalone="no"?>
<svg
   width="64"
   height="64"
   version="1.1"
   viewBox="0 0 16.933 16.933"
   id="svg7"
   sodipodi:docname="abcd.svg"
   inkscape:version="1.4.3 (0d15f75042, 2025-12-25)"
   xmlns:inkscape="http://www.inkscape.org/namespaces/inkscape"
   xmlns:sodipodi="http://sodipodi.sourceforge.net/DTD/sodipodi-0.dtd"
   xmlns="http://www.w3.org/2000/svg"
   xmlns:svg="http://www.w3.org/2000/svg"
   xmlns:rdf="http://www.w3.org/1999/02/22-rdf-syntax-ns#"
   xmlns:cc="http://creativecommons.org/ns#"
   xmlns:dc="http://purl.org/dc/elements/1.1/">
  <sodipodi:namedview
     id="namedview7"
     pagecolor="#9c4444"
     bordercolor="#000000"
     borderopacity="0.25"
     inkscape:showpageshadow="2"
     inkscape:pageopacity="0.0"
     inkscape:pagecheckerboard="0"
     inkscape:deskcolor="#d1d1d1"
     inkscape:zoom="4.3531261"
     inkscape:cx="32.620236"
     inkscape:cy="33.768836"
     inkscape:window-width="1226"
     inkscape:window-height="669"
     inkscape:window-x="100"
     inkscape:window-y="206"
     inkscape:window-maximized="0"
     inkscape:current-layer="svg7"
     showgrid="false" />
  <defs
     id="defs2">
    <filter
       style="color-interpolation-filters:sRGB;"
       inkscape:label="Blur"
       id="filter5421"
       x="-0.12256455"
       y="-0.12342654"
       width="1.2451291"
       height="1.2468531">
      <feGaussianBlur
         stdDeviation="0.5 0.5"
         result="blur"
         id="feGaussianBlur5419" />
    </filter>
  </defs>
  <metadata
     id="metadata2">
    <rdf:RDF>
      <cc:Work
         rdf:about="">
        <dc:format>image/svg+xml</dc:format>
        <dc:type
           rdf:resource="http://purl.org/dc/dcmitype/StillImage" />
      </cc:Work>
    </rdf:RDF>
  </metadata>
  <rect
     style="opacity:0.3;fill:none;fill-opacity:0.996424;stroke:#000000;stroke-width:0.955221;stroke-dasharray:none;stroke-opacity:1;filter:url(#filter5421)"
     id="rect1-2-7"
     width="13.687567"
     height="13.591975"
     x="1.6227165"
     y="1.6705122"
     rx="2.8442214"
     ry="2.965905" />
  <rect
     style="fill:none;fill-opacity:1;stroke:{{colors.primary.default.hex}};stroke-width:0.955221;stroke-dasharray:none;stroke-opacity:1"
     id="rect1-2"
     width="13.687567"
     height="13.591975"
     x="1.6227167"
     y="1.6705124"
     rx="2.8442214"
     ry="2.965905" />
  <path
     id="path4"
     style="fill:{{colors.primary.default.hex}};fill-opacity:1;stroke:none;stroke-width:0.133067;stroke-dasharray:none;stroke-opacity:0.6"
     d="m 6.9651478,4.4275111 c -2.3959489,0 -2.4322791,5.777e-4 -2.4846499,0.052938 -0.052369,0.052371 -0.052937,0.0887 -0.052937,2.4846494 0,2.3959488 5.779e-4,2.4322786 0.052937,2.4846501 0.052371,0.052374 0.088701,0.052936 2.4846499,0.052936 2.3959498,0 2.4322788,-5.779e-4 2.4846491,-0.052936 0.052378,-0.052372 0.052937,-0.088702 0.052937,-2.4846501 0,-2.395949 -5.779e-4,-2.4322788 -0.052937,-2.4846494 -0.052371,-0.052371 -0.0887,-0.052938 -2.4846491,-0.052938 z m 2.9906661,1.4880394 -0.00751,1.8177412 -0.00703,1.8181581 -0.080449,0.1142079 C 9.8165188,9.7286171 9.728665,9.8164771 9.6657093,9.8607285 l -0.1142081,0.080449 -1.8181579,0.00703 -1.8177415,0.00751 v 0.4593355 c 0,0.477433 0.00681,0.509671 0.1196272,0.571873 0.037857,0.02086 0.7426568,0.02766 2.4504701,0.02334 l 2.3975339,-0.0061 0.06043,-0.06043 0.06043,-0.06043 0.0076,-2.37086 c 0.0041,-1.3039737 6.58e-4,-2.3980416 -0.0076,-2.4312967 -0.0082,-0.033255 -0.03824,-0.084101 -0.06711,-0.1129579 -0.04825,-0.04824 -0.08978,-0.052518 -0.516852,-0.052518 z m 1.5151311,1.4880386 -0.0076,1.7868969 c -0.0076,1.770479 -0.008,1.787951 -0.0646,1.893604 -0.0726,0.135535 -0.17916,0.242104 -0.314695,0.314698 -0.105623,0.05657 -0.12339,0.05714 -1.8802656,0.06461 l -1.7735584,0.0076 v 0.462251 0.462249 l 0.070024,0.05501 c 0.069657,0.0548 0.082164,0.05502 2.4675591,0.05502 2.3853969,0 2.3979029,-2.34e-4 2.4675619,-0.05502 l 0.07002,-0.05501 V 9.9545144 7.5136305 l -0.07002,-0.05502 c -0.0645,-0.050764 -0.10499,-0.055022 -0.517235,-0.055022 z" />
</svg>
