<?xml version="1.0" encoding="UTF-8" standalone="no"?>
<svg
   width="64"
   height="64"
   version="1.1"
   viewBox="0 0 16.933 16.933"
   id="svg7"
   sodipodi:docname="abcd.svg"
   inkscape:version="1.4.3 (0d15f75042, 2025-12-25)"
   xmlns:inkscape="http://www.inkscape.org/namespaces/inkscape"
   xmlns:sodipodi="http://sodipodi.sourceforge.net/DTD/sodipodi-0.dtd"
   xmlns="http://www.w3.org/2000/svg"
   xmlns:svg="http://www.w3.org/2000/svg"
   xmlns:rdf="http://www.w3.org/1999/02/22-rdf-syntax-ns#"
   xmlns:cc="http://creativecommons.org/ns#"
   xmlns:dc="http://purl.org/dc/elements/1.1/">
  <sodipodi:namedview
     id="namedview7"
     pagecolor="#9c4444"
     bordercolor="#000000"
     borderopacity="0.25"
     inkscape:showpageshadow="2"
     inkscape:pageopacity="0.0"
     inkscape:pagecheckerboard="0"
     inkscape:deskcolor="#d1d1d1"
     inkscape:zoom="4.3531261"
     inkscape:cx="32.160796"
     inkscape:cy="33.309396"
     inkscape:window-width="1226"
     inkscape:window-height="669"
     inkscape:window-x="100"
     inkscape:window-y="206"
     inkscape:window-maximized="0"
     inkscape:current-layer="svg7"
     showgrid="false" />
  <defs
     id="defs2">
    <filter
       style="color-interpolation-filters:sRGB;"
       inkscape:label="Blur"
       id="filter5421"
       x="-0.12256455"
       y="-0.12342654"
       width="1.2451291"
       height="1.2468531">
      <feGaussianBlur
         stdDeviation="0.5 0.5"
         result="blur"
         id="feGaussianBlur5419" />
    </filter>
  </defs>
  <metadata
     id="metadata2">
    <rdf:RDF>
      <cc:Work
         rdf:about="">
        <dc:format>image/svg+xml</dc:format>
        <dc:type
           rdf:resource="http://purl.org/dc/dcmitype/StillImage" />
      </cc:Work>
    </rdf:RDF>
  </metadata>
  <rect
     style="opacity:0.3;fill:none;fill-opacity:0.996424;stroke:#000000;stroke-width:0.955221;stroke-dasharray:none;stroke-opacity:1;filter:url(#filter5421)"
     id="rect1-2-7"
     width="13.687567"
     height="13.591975"
     x="1.6227165"
     y="1.6705122"
     rx="2.8442214"
     ry="2.965905" />
  <rect
     style="fill:none;fill-opacity:1;stroke:{{colors.primary.default.hex}};stroke-width:0.955221;stroke-dasharray:none;stroke-opacity:1"
     id="rect1-2"
     width="13.687567"
     height="13.591975"
     x="1.6227167"
     y="1.6705124"
     rx="2.8442214"
     ry="2.965905" />
  <path
     id="path205"
     style="fill:{{colors.primary.default.hex}};fill-opacity:1;stroke:none;stroke-width:0.0871262;stroke-dasharray:none;stroke-opacity:0.6"
     d="M 8.4541157,5.0942922 C 8.3351765,5.0979497 8.2200141,5.1662433 8.1634576,5.2907931 8.142112,5.3378162 8.1411924,5.4047038 8.1409445,7.178434 v 1.8389242 l 0.030292,0.060587 c 0.035083,0.070403 0.08106,0.1130703 0.1641607,0.1518796 0.1541007,0.071967 0.3446544,0.00333 0.4273908,-0.1535171 l 0.03193,-0.060586 0.00329,-1.8135432 C 8.8015134,5.1633116 8.8079591,5.312659 8.7128455,5.2068707 8.6415643,5.1275894 8.5466264,5.0914448 8.4541189,5.0942922 Z m 1.8188653,1.2465547 c -0.115452,0.00424 -0.224047,0.069897 -0.2783784,0.1805356 l -0.033155,0.067138 V 7.472367 8.3562132 l 0.03193,0.060179 c 0.039435,0.074762 0.1148664,0.1411744 0.1854494,0.1629324 0.127736,0.039376 0.244688,0.011174 0.337327,-0.081466 0.104754,-0.1047546 0.100441,-0.057294 0.09661,-1.0561945 l -0.0033,-0.8650153 -0.02578,-0.048307 c -0.04175,-0.078043 -0.08269,-0.1188646 -0.153514,-0.153516 -0.05082,-0.024859 -0.104721,-0.035906 -0.157198,-0.03398 z m -3.6287246,0.00205 c -0.043685,5.26e-5 -0.09515,0.00815 -0.1199476,0.018829 -0.061972,0.02669 -0.1442646,0.1068045 -0.1764418,0.1715289 L 6.32044,6.5885208 6.31716,7.4228325 c -0.00223,0.5468685 4.728e-4,0.8575734 0.00859,0.9014499 0.00679,0.036823 0.027096,0.090784 0.045032,0.1199476 0.03433,0.05582 0.1215659,0.1223759 0.1838105,0.1404162 0.1109185,0.032147 0.242792,-0.00242 0.3217699,-0.084333 0.099377,-0.1030164 0.09175,-0.023113 0.095395,-1.0095289 0.00363,-0.9816175 0.00639,-0.9426282 -0.080238,-1.0410474 C 6.8297001,6.3795093 6.744841,6.3427653 6.6442556,6.3428922 Z m 5.4484076,0.9112779 c -0.116068,0.00249 -0.224583,0.067252 -0.280423,0.1793072 l -0.03031,0.060999 v 0.4314854 0.4314845 l 0.03071,0.061407 c 0.03502,0.070293 0.09447,0.1249901 0.1703,0.1567909 0.03872,0.016237 0.0736,0.021047 0.134686,0.018019 0.133047,-0.00661 0.228827,-0.070774 0.284516,-0.1903662 0.02726,-0.058539 0.02758,-0.063445 0.02743,-0.477335 -1.33e-4,-0.3949109 -0.0016,-0.4214531 -0.02416,-0.4711957 -0.03855,-0.084993 -0.07652,-0.1254819 -0.153925,-0.1641603 -0.05175,-0.025861 -0.106079,-0.037578 -0.158839,-0.036434 z m -7.2627692,0.00613 c -0.1185016,0 -0.168256,0.02138 -0.2443988,0.1039815 -0.080904,0.087771 -0.08556,0.1189782 -0.08556,0.5616659 0,0.4574298 0.00298,0.4762015 0.098251,0.5714919 0.036987,0.036987 0.082368,0.068589 0.1142163,0.079828 0.1264209,0.04462 0.2537172,0.015245 0.349199,-0.080239 0.095038,-0.095036 0.09825,-0.11384 0.09825,-0.5710808 0,-0.4426876 -0.00505,-0.4738938 -0.085969,-0.5616655 C 4.9977416,7.2816848 4.9483959,7.2603079 4.8298945,7.2603079 Z M 7.9383,10.060449 c -0.097676,0.0029 -0.186226,0.01346 -0.2341643,0.0307 -0.1005023,0.03616 -0.1541262,0.06685 -0.218199,0.124451 -0.2181884,0.19617 -0.2070257,0.584767 0.021701,0.751619 0.073986,0.05397 0.1635759,0.09572 0.3148114,0.146966 0.1098617,0.03722 0.1445118,0.05494 0.1854484,0.09415 0.042663,0.04088 0.050353,0.05516 0.050353,0.09457 0,0.05801 -0.023258,0.09268 -0.083923,0.123631 -0.099454,0.05074 -0.3367763,0.05075 -0.5547061,0 l -0.091702,-0.02168 v 0.19732 0.19691 l 0.1088944,0.01473 c 0.059948,0.0079 0.1167762,0.01605 0.1264978,0.01802 0.060457,0.01232 0.3772369,0.0041 0.4572752,-0.01187 0.1988808,-0.03954 0.3713551,-0.158826 0.4384435,-0.302937 0.096884,-0.208115 0.064098,-0.438618 -0.083104,-0.585822 -0.07786,-0.07787 -0.1604463,-0.122445 -0.326683,-0.176444 -0.077503,-0.02517 -0.156129,-0.05373 -0.1748043,-0.06344 -0.1192535,-0.06203 -0.1232296,-0.182751 -0.00777,-0.234574 0.097371,-0.04371 0.3367818,-0.03906 0.5010784,0.0098 0.00298,7.89e-4 0.0056,0.0014 0.00777,7.89e-4 2.106e-4,-7.9e-5 9.975e-4,-3.16e-4 0.00123,-3.95e-4 1.92e-4,-1.21e-4 9.975e-4,-6.56e-4 0.00123,-7.87e-4 0.00897,-0.0082 0.010236,-0.04701 0.010236,-0.175624 0,-0.134205 -0.00311,-0.178128 -0.013921,-0.187085 l -3.939e-4,-4.21e-4 h -3.941e-4 v -3.94e-4 h -3.94e-4 -3.677e-4 l -3.94e-4,-3.94e-4 c -0.00886,-0.0034 -0.073768,-0.01518 -0.1441074,-0.02621 -0.085259,-0.01337 -0.1921635,-0.01839 -0.2898393,-0.01555 z m 1.8114961,0.0012 c -0.040059,0.0028 -0.072345,0.0086 -0.1183109,0.01965 -0.3323956,0.07919 -0.5696408,0.307733 -0.6554132,0.63126 -0.033078,0.124774 -0.035395,0.340494 -0.00492,0.459731 0.08602,0.336476 0.3299007,0.568825 0.680385,0.648456 0.1030458,0.02341 0.408686,0.01505 0.521958,-0.01435 l 0.08228,-0.02127 0.0033,-0.228433 c 0.0023,-0.157531 0.0023,-0.206571 -0.0058,-0.218199 -3.68e-4,-3.94e-4 -0.0011,-0.0012 -0.0017,-0.0017 -1.9e-4,-1.22e-4 -8.4e-4,-6.57e-4 -0.0011,-7.88e-4 -2.12e-4,-7.1e-5 -8.41e-4,-3.68e-4 -0.0011,-3.95e-4 -0.0022,-1.91e-4 -0.005,4.74e-4 -0.0077,0.0017 -0.12708,0.05319 -0.202188,0.06893 -0.3332335,0.0692 -0.152707,2.89e-4 -0.2016468,-0.01321 -0.3025445,-0.08228 -0.06654,-0.04554 -0.1330973,-0.13375 -0.1641603,-0.216968 -0.027787,-0.07447 -0.028182,-0.235459 -8.405e-4,-0.313995 0.064095,-0.183972 0.2129287,-0.292337 0.4212516,-0.307032 0.099469,-0.0069 0.2455882,0.01745 0.3356882,0.0561 0.02985,0.01281 0.05652,0.02292 0.05936,0.02292 0.0028,0 0.0039,-0.102041 0.0022,-0.226796 l -0.0033,-0.226794 -0.08228,-0.0217 c -0.05505,-0.01461 -0.141193,-0.02392 -0.2591369,-0.02784 -0.076596,-0.0026 -0.1245127,-0.0032 -0.1645699,-3.94e-4 z m 1.8966489,0.0033 c -0.165252,-2.49e-4 -0.199689,0.0033 -0.277151,0.02743 -0.157545,0.04921 -0.266098,0.113873 -0.377036,0.225161 -0.11459,0.114947 -0.164073,0.192619 -0.216151,0.338962 -0.03524,0.09905 -0.03665,0.111008 -0.03684,0.291887 -1.92e-4,0.181719 0.0011,0.192383 0.03684,0.291886 0.0479,0.133859 0.09841,0.217963 0.191179,0.317269 0.123294,0.131973 0.259326,0.211116 0.443355,0.257907 0.179816,0.04571 0.452522,0.02244 0.622665,-0.05279 0.245289,-0.108473 0.436014,-0.341968 0.496575,-0.607919 0.02819,-0.123751 0.02606,-0.309491 -0.0049,-0.430256 -0.0753,-0.293505 -0.285608,-0.519531 -0.578049,-0.62062 -0.108148,-0.03738 -0.11834,-0.03861 -0.300484,-0.0389 z m -6.3396251,4.37e-4 c -0.2103229,-6.57e-4 -0.212814,-7.1e-5 -0.3238183,0.03848 -0.312492,0.10853 -0.5182696,0.338041 -0.5854099,0.653777 -0.025483,0.119841 -0.015584,0.350163 0.019652,0.461778 0.073139,0.231658 0.2163864,0.404068 0.4245246,0.511311 0.094858,0.04888 0.1452168,0.06725 0.2472647,0.09089 0.093716,0.02171 0.3932674,0.01407 0.5096751,-0.01311 l 0.09129,-0.02129 v -0.228027 c 0,-0.125375 -0.00207,-0.228025 -0.0045,-0.228025 -0.00239,0 -0.027716,0.01047 -0.056084,0.02292 -0.066202,0.02905 -0.2162918,0.05977 -0.2918861,0.05977 -0.1985519,0 -0.3690235,-0.102537 -0.4470401,-0.268961 -0.027988,-0.0597 -0.031114,-0.08077 -0.031114,-0.196504 0,-0.117366 0.00303,-0.136625 0.033161,-0.201821 0.058432,-0.126433 0.1821301,-0.221908 0.3270922,-0.252995 0.119988,-0.02573 0.3029502,7.87e-4 0.4499067,0.0655 0.00275,0.0011 0.00531,0.0019 0.00736,0.0017 4.466e-4,-7.7e-5 0.00165,-2.29e-4 0.00202,-3.94e-4 1.914e-4,-1.17e-4 9.975e-4,-6.57e-4 0.00126,-7.88e-4 l 3.941e-4,-3.95e-4 c 0.00844,-0.01006 0.00881,-0.05802 0.00655,-0.219017 l -0.00286,-0.228498 -0.082695,-0.02252 c -0.066698,-0.01838 -0.1232445,-0.02315 -0.2947517,-0.02374 z m 0.9960158,0.01679 v 0.866242 0.865835 H 6.5206245 6.7388234 V 10.948412 10.082169 H 6.5206245 Z m 5.3088103,0.412652 c 0.07751,-0.0033 0.160225,0.0096 0.219426,0.03725 0.135398,0.06321 0.230088,0.188206 0.25832,0.341422 0.0363,0.196973 -0.07294,0.404577 -0.25832,0.491255 -0.05499,0.02572 -0.08685,0.03168 -0.178897,0.03437 -0.09704,0.0028 -0.121017,-4.99e-4 -0.181354,-0.02579 -0.179086,-0.07502 -0.280425,-0.228246 -0.280425,-0.424935 0,-0.200985 0.109306,-0.361185 0.293523,-0.430255 0.03656,-0.01371 0.08122,-0.02139 0.127727,-0.02334 z" />
</svg>
