<?xml version="1.0" encoding="UTF-8" standalone="no"?>
<svg
   width="64"
   height="64"
   version="1.1"
   viewBox="0 0 16.933 16.933"
   id="svg7"
   sodipodi:docname="abcd.svg"
   inkscape:version="1.4.3 (0d15f75042, 2025-12-25)"
   xmlns:inkscape="http://www.inkscape.org/namespaces/inkscape"
   xmlns:sodipodi="http://sodipodi.sourceforge.net/DTD/sodipodi-0.dtd"
   xmlns="http://www.w3.org/2000/svg"
   xmlns:svg="http://www.w3.org/2000/svg"
   xmlns:rdf="http://www.w3.org/1999/02/22-rdf-syntax-ns#"
   xmlns:cc="http://creativecommons.org/ns#"
   xmlns:dc="http://purl.org/dc/elements/1.1/">
  <sodipodi:namedview
     id="namedview7"
     pagecolor="#9c4444"
     bordercolor="#000000"
     borderopacity="0.25"
     inkscape:showpageshadow="2"
     inkscape:pageopacity="0.0"
     inkscape:pagecheckerboard="0"
     inkscape:deskcolor="#d1d1d1"
     inkscape:zoom="4.3531261"
     inkscape:cx="40.200995"
     inkscape:cy="23.201717"
     inkscape:window-width="1226"
     inkscape:window-height="669"
     inkscape:window-x="77"
     inkscape:window-y="131"
     inkscape:window-maximized="0"
     inkscape:current-layer="svg7"
     showgrid="false" />
  <defs
     id="defs2">
    <filter
       style="color-interpolation-filters:sRGB;"
       inkscape:label="Blur"
       id="filter5421"
       x="-0.12256455"
       y="-0.12342654"
       width="1.2451291"
       height="1.2468531">
      <feGaussianBlur
         stdDeviation="0.5 0.5"
         result="blur"
         id="feGaussianBlur5419" />
    </filter>
  </defs>
  <metadata
     id="metadata2">
    <rdf:RDF>
      <cc:Work
         rdf:about="">
        <dc:format>image/svg+xml</dc:format>
        <dc:type
           rdf:resource="http://purl.org/dc/dcmitype/StillImage" />
      </cc:Work>
    </rdf:RDF>
  </metadata>
  <rect
     style="opacity:0.3;fill:none;fill-opacity:0.996424;stroke:#000000;stroke-width:0.955221;stroke-dasharray:none;stroke-opacity:1;filter:url(#filter5421)"
     id="rect1-2-7"
     width="13.687567"
     height="13.591975"
     x="1.6227165"
     y="1.6705122"
     rx="2.8442214"
     ry="2.965905" />
  <rect
     style="fill:none;fill-opacity:1;stroke:{{colors.primary.default.hex}};stroke-width:0.955221;stroke-dasharray:none;stroke-opacity:1"
     id="rect1-2"
     width="13.687567"
     height="13.591975"
     x="1.6227167"
     y="1.6705124"
     rx="2.8442214"
     ry="2.965905" />
  <g
     id="g1178"
     transform="matrix(0.74291655,0,0,0.74291655,2.1647686,2.0501385)"
     style="fill:{{colors.primary.default.hex}};fill-opacity:1;stroke:none;stroke-width:0.166636;stroke-dasharray:none;stroke-opacity:0.6">
    <path
       style="fill:{{colors.primary.default.hex}};fill-opacity:1;stroke:none;stroke-width:0.166636;stroke-dasharray:none;stroke-opacity:0.6"
       d="M 7.3295516,10.698589 C 7.219476,10.664188 7.1210173,10.576958 7.0704094,10.469001 l -0.028577,-0.06096 -0.00281,-1.7772012 C 7.035871,6.6406159 7.0297733,6.795085 7.1161339,6.6777721 7.2209846,6.5353428 7.3914669,6.4743447 7.5583977,6.5195304 c 0.064001,0.017325 0.1873067,0.099616 1.323762,0.8834525 0.6892534,0.4753921 1.2763963,0.8868156 1.3047673,0.9142745 0.02838,0.027458 0.06703,0.081242 0.08593,0.1195185 0.03139,0.063618 0.03435,0.078421 0.03435,0.1724192 0,0.097306 -0.0021,0.1072333 -0.04057,0.184934 -0.0248,0.050185 -0.05691,0.096085 -0.08258,0.1180569 -0.09299,0.079596 -2.5304754,1.753086 -2.5877119,1.77663 -0.069921,0.02876 -0.1917521,0.03323 -0.2667899,0.0098 z"
       id="path101" />
    <path
       style="fill:{{colors.primary.default.hex}};fill-opacity:1;stroke:none;stroke-width:0.166636;stroke-dasharray:none;stroke-opacity:0.6"
       d="m 4.5058594,4.6621094 c -0.7615165,0 -1.3886719,0.6291085 -1.3886719,1.390625 v 5.1699216 c 0,0.761517 0.6271557,1.388672 1.3886719,1.388672 h 7.9531246 c 0.761517,0 1.388672,-0.627155 1.388672,-1.388672 V 6.0527344 c 0,-0.7615162 -0.627155,-1.390625 -1.388672,-1.390625 z m 0,0.9257812 h 7.9531246 c 0.264518,0 0.462891,0.2003262 0.462891,0.4648438 v 5.1699216 c 0,0.264518 -0.198373,0.462891 -0.462891,0.462891 H 4.5058594 c -0.2645176,0 -0.4628907,-0.198373 -0.4628907,-0.462891 V 6.0527344 c 0,-0.2645173 0.1983734,-0.4648438 0.4628907,-0.4648438 z"
       id="rect253" />
  </g>
</svg>
