<?xml version="1.0" encoding="UTF-8" standalone="no"?>
<svg
   width="64"
   height="64"
   version="1.1"
   viewBox="0 0 16.933 16.933"
   id="svg7"
   sodipodi:docname="abcd.svg"
   inkscape:version="1.4.3 (0d15f75042, 2025-12-25)"
   xmlns:inkscape="http://www.inkscape.org/namespaces/inkscape"
   xmlns:sodipodi="http://sodipodi.sourceforge.net/DTD/sodipodi-0.dtd"
   xmlns="http://www.w3.org/2000/svg"
   xmlns:svg="http://www.w3.org/2000/svg"
   xmlns:rdf="http://www.w3.org/1999/02/22-rdf-syntax-ns#"
   xmlns:cc="http://creativecommons.org/ns#"
   xmlns:dc="http://purl.org/dc/elements/1.1/">
  <sodipodi:namedview
     id="namedview7"
     pagecolor="#9c4444"
     bordercolor="#000000"
     borderopacity="0.25"
     inkscape:showpageshadow="2"
     inkscape:pageopacity="0.0"
     inkscape:pagecheckerboard="0"
     inkscape:deskcolor="#d1d1d1"
     inkscape:zoom="4.3531261"
     inkscape:cx="33.309396"
     inkscape:cy="31.471636"
     inkscape:window-width="1226"
     inkscape:window-height="669"
     inkscape:window-x="100"
     inkscape:window-y="206"
     inkscape:window-maximized="0"
     inkscape:current-layer="svg7"
     showgrid="false" />
  <defs
     id="defs2">
    <filter
       style="color-interpolation-filters:sRGB;"
       inkscape:label="Blur"
       id="filter5421"
       x="-0.12256455"
       y="-0.12342654"
       width="1.2451291"
       height="1.2468531">
      <feGaussianBlur
         stdDeviation="0.5 0.5"
         result="blur"
         id="feGaussianBlur5419" />
    </filter>
  </defs>
  <metadata
     id="metadata2">
    <rdf:RDF>
      <cc:Work
         rdf:about="">
        <dc:format>image/svg+xml</dc:format>
        <dc:type
           rdf:resource="http://purl.org/dc/dcmitype/StillImage" />
      </cc:Work>
    </rdf:RDF>
  </metadata>
  <rect
     style="opacity:0.3;fill:none;fill-opacity:0.996424;stroke:#000000;stroke-width:0.955221;stroke-dasharray:none;stroke-opacity:1;filter:url(#filter5421)"
     id="rect1-2-7"
     width="13.687567"
     height="13.591975"
     x="1.6227165"
     y="1.6705122"
     rx="2.8442214"
     ry="2.965905" />
  <rect
     style="fill:none;fill-opacity:1;stroke:{{colors.primary.default.hex}};stroke-width:0.955221;stroke-dasharray:none;stroke-opacity:1"
     id="rect1-2"
     width="13.687567"
     height="13.591975"
     x="1.6227167"
     y="1.6705124"
     rx="2.8442214"
     ry="2.965905" />
  <path
     d="m 8.4251605,4.4387064 c -0.09634,0.00168 -0.1930149,0.011073 -0.2876777,0.027527 C 7.3546791,4.7045662 6.8182637,5.3870022 6.4124273,6.0610462 5.7739654,7.1899361 5.374171,8.4940504 5.4560765,9.7998435 c 0.120509,1.3346615 1.232279,2.4934275 2.5595556,2.6703295 0.1460203,0.01947 0.293383,0.02182 0.4404116,0.02282 1.372929,0.04765 2.6750283,-0.99596 2.9549863,-2.336998 C 11.611766,9.191922 11.388207,8.1932751 11.078705,7.2772064 10.704423,6.2778924 10.170023,5.2584347 9.2482467,4.6649533 9.0035362,4.5001343 8.7145161,4.43367 8.4251605,4.4387064 Z m 0.083919,2.3521053 C 8.7460708,6.8112822 8.9776892,6.9452229 9.1307588,7.1291763 9.6332704,7.6813689 9.9256458,8.4232201 9.9672734,9.1660784 10.055222,9.8908098 9.5305526,10.610171 8.8232761,10.773648 8.2643701,10.911948 7.6494052,10.70819 7.2908999,10.256365 6.9209811,9.8340806 6.9068825,9.2375784 7.0129581,8.7149255 7.1771049,8.0247685 7.4839155,7.2990305 8.093509,6.8905081 8.2234175,6.8072599 8.3670882,6.7783914 8.5090795,6.7908117 Z"
     fill="#02ad7b"
     fill-rule="nonzero"
     id="path2-50"
     style="fill:{{colors.primary.default.hex}};fill-opacity:1;stroke:none;stroke-width:0.129961;stroke-dasharray:none;stroke-opacity:0.6" />
</svg>
