<?xml version="1.0" encoding="UTF-8" standalone="no"?>
<svg
   width="64"
   height="64"
   version="1.1"
   viewBox="0 0 16.933 16.933"
   id="svg7"
   sodipodi:docname="com.calibre_ebook.calibre.ebook-edit.svg"
   inkscape:version="1.4.3 (0d15f75042, 2025-12-25)"
   xmlns:inkscape="http://www.inkscape.org/namespaces/inkscape"
   xmlns:sodipodi="http://sodipodi.sourceforge.net/DTD/sodipodi-0.dtd"
   xmlns="http://www.w3.org/2000/svg"
   xmlns:svg="http://www.w3.org/2000/svg"
   xmlns:rdf="http://www.w3.org/1999/02/22-rdf-syntax-ns#"
   xmlns:cc="http://creativecommons.org/ns#"
   xmlns:dc="http://purl.org/dc/elements/1.1/">
  <sodipodi:namedview
     id="namedview7"
     pagecolor="#9c4444"
     bordercolor="#000000"
     borderopacity="0.25"
     inkscape:showpageshadow="2"
     inkscape:pageopacity="0.0"
     inkscape:pagecheckerboard="0"
     inkscape:deskcolor="#d1d1d1"
     inkscape:zoom="4.3531261"
     inkscape:cx="43.417074"
     inkscape:cy="19.755917"
     inkscape:window-width="1226"
     inkscape:window-height="669"
     inkscape:window-x="179"
     inkscape:window-y="207"
     inkscape:window-maximized="0"
     inkscape:current-layer="svg7"
     showgrid="false" />
  <defs
     id="defs2">
    <filter
       style="color-interpolation-filters:sRGB;"
       inkscape:label="Blur"
       id="filter5421"
       x="-0.12256455"
       y="-0.12342654"
       width="1.2451291"
       height="1.2468531">
      <feGaussianBlur
         stdDeviation="0.5 0.5"
         result="blur"
         id="feGaussianBlur5419" />
    </filter>
    <filter
       style="color-interpolation-filters:sRGB"
       inkscape:label="Blur"
       id="filter5421-3"
       x="-0.12256455"
       y="-0.12342654"
       width="1.2451291"
       height="1.2468531">
      <feGaussianBlur
         stdDeviation="0.5 0.5"
         result="blur"
         id="feGaussianBlur5419-6" />
    </filter>
  </defs>
  <metadata
     id="metadata2">
    <rdf:RDF>
      <cc:Work
         rdf:about="">
        <dc:format>image/svg+xml</dc:format>
        <dc:type
           rdf:resource="http://purl.org/dc/dcmitype/StillImage" />
      </cc:Work>
    </rdf:RDF>
  </metadata>
  <rect
     style="opacity:0.3;fill:none;fill-opacity:0.996424;stroke:#000000;stroke-width:0.955221;stroke-dasharray:none;stroke-opacity:1;filter:url(#filter5421)"
     id="rect1-2-7"
     width="13.687567"
     height="13.591975"
     x="1.6227165"
     y="1.6705122"
     rx="2.8442214"
     ry="2.965905" />
  <rect
     style="fill:none;fill-opacity:1;stroke:{{colors.primary.default.hex}};stroke-width:0.955221;stroke-dasharray:none;stroke-opacity:1"
     id="rect1-2"
     width="13.687567"
     height="13.591975"
     x="1.6227167"
     y="1.6705124"
     rx="2.8442214"
     ry="2.965905" />
  <path
     d="m 5.0246747,4.3262594 v 0.5520318 h 1.38008 V 4.3262594 Z m 1.9321121,0 V 4.8782912 H 9.164915 V 4.3262594 Z M 5.0246747,5.4303234 V 5.9823557 H 6.6807708 V 5.4303234 Z m 2.2081288,0 V 5.9823557 H 8.6128832 V 5.4303234 Z m 1.9321115,0 V 5.9823557 H 9.7169471 V 5.4303234 Z M 5.0246747,6.5343875 V 7.0864197 H 5.8527226 V 6.5343875 Z m 1.38008,0 V 7.0864197 H 7.5088189 V 6.5343875 Z m 1.6560963,0 V 7.0864197 H 9.164915 V 6.5343875 Z M 5.0246747,7.6384521 V 8.190484 h 1.38008 V 7.6384521 Z m 1.9321121,0 V 8.190484 H 9.164915 V 7.6384521 Z m 2.7601603,0 V 8.190484 H 11.097027 V 7.6384521 Z M 5.0246747,8.742516 v 0.5520317 h 1.38008 V 8.742516 Z m 1.9321121,0 V 9.2945477 H 7.7848351 V 8.742516 Z m 1.3800801,0 V 9.2945477 H 9.7169471 V 8.742516 Z M 5.0246747,9.8465806 V 10.398613 H 6.1287384 V 9.8465806 Z m 1.6560961,0 V 10.398613 H 9.164915 V 9.8465806 Z M 5.0246747,10.950644 v 0.552032 h 2.2081288 v -0.552032 z m 2.7601604,0 v 0.552032 h 1.1040637 v -0.552032 z m -2.7601604,1.104064 v 0.552033 h 1.38008 v -0.552033 z m 1.9321121,0 v 0.552033 h 1.6560964 v -0.552033 z"
     fill="#707070"
     id="path3-5"
     style="fill:{{colors.primary.default.hex}};fill-opacity:1;stroke:none;stroke-width:0.129302;stroke-dasharray:none;stroke-opacity:0.6" />
  <rect
     style="opacity:0.3;fill:none;fill-opacity:0.996424;stroke:#000000;stroke-width:0.955221;stroke-dasharray:none;stroke-opacity:1;filter:url(#filter5421-3)"
     id="rect1-2-7-5"
     width="13.687567"
     height="13.591975"
     x="1.6227165"
     y="1.6705122"
     rx="2.8442214"
     ry="2.965905"
     transform="matrix(0.43046721,0,0,0.43046721,9.5627021,9.5627021)" />
  <rect
     style="fill:none;fill-opacity:1;stroke:{{colors.primary.default.hex}};stroke-width:0.411191;stroke-dasharray:none;stroke-opacity:1"
     id="rect1-2-3"
     width="5.8920484"
     height="5.8508992"
     x="10.261228"
     y="10.281802"
     rx="1.224344"
     ry="1.2767248" />
  <path
     d="m 12.858839,12.893497 v -1.230031 c 0,-0.184452 0.149822,-0.333921 0.334274,-0.333921 0.184451,0 0.333922,0.149469 0.333922,0.333921 v 1.230031 h 1.230385 c 0.18445,0 0.33392,0.149823 0.33392,0.334275 0,0.184451 -0.14947,0.333922 -0.33392,0.333922 h -1.230385 v 1.230385 c 0,0.18445 -0.149471,0.333921 -0.333922,0.333921 -0.184452,0 -0.334274,-0.149471 -0.334274,-0.333921 v -1.230385 h -1.230032 c -0.184452,0 -0.333922,-0.149471 -0.333922,-0.333922 0,-0.184452 0.14947,-0.334275 0.333922,-0.334275 z"
     fill="{{colors.primary.default.hex}}"
     id="path5"
     style="fill:{{colors.primary.default.hex}};fill-opacity:1;stroke:none;stroke-width:0.124044;stroke-dasharray:none;stroke-opacity:0.6" />
</svg>
