<?xml version="1.0" encoding="UTF-8" standalone="no"?>
<svg
   width="64"
   height="64"
   version="1.1"
   viewBox="0 0 16.933 16.933"
   id="svg7"
   sodipodi:docname="abcd.svg"
   inkscape:version="1.4.3 (0d15f75042, 2025-12-25)"
   xmlns:inkscape="http://www.inkscape.org/namespaces/inkscape"
   xmlns:sodipodi="http://sodipodi.sourceforge.net/DTD/sodipodi-0.dtd"
   xmlns="http://www.w3.org/2000/svg"
   xmlns:svg="http://www.w3.org/2000/svg"
   xmlns:rdf="http://www.w3.org/1999/02/22-rdf-syntax-ns#"
   xmlns:cc="http://creativecommons.org/ns#"
   xmlns:dc="http://purl.org/dc/elements/1.1/">
  <sodipodi:namedview
     id="namedview7"
     pagecolor="#9c4444"
     bordercolor="#000000"
     borderopacity="0.25"
     inkscape:showpageshadow="2"
     inkscape:pageopacity="0.0"
     inkscape:pagecheckerboard="0"
     inkscape:deskcolor="#d1d1d1"
     inkscape:zoom="4.3531261"
     inkscape:cx="33.768836"
     inkscape:cy="30.093316"
     inkscape:window-width="1226"
     inkscape:window-height="669"
     inkscape:window-x="100"
     inkscape:window-y="206"
     inkscape:window-maximized="0"
     inkscape:current-layer="svg7"
     showgrid="false" />
  <defs
     id="defs2">
    <filter
       style="color-interpolation-filters:sRGB;"
       inkscape:label="Blur"
       id="filter5421"
       x="-0.12256455"
       y="-0.12342654"
       width="1.2451291"
       height="1.2468531">
      <feGaussianBlur
         stdDeviation="0.5 0.5"
         result="blur"
         id="feGaussianBlur5419" />
    </filter>
  </defs>
  <metadata
     id="metadata2">
    <rdf:RDF>
      <cc:Work
         rdf:about="">
        <dc:format>image/svg+xml</dc:format>
        <dc:type
           rdf:resource="http://purl.org/dc/dcmitype/StillImage" />
      </cc:Work>
    </rdf:RDF>
  </metadata>
  <rect
     style="opacity:0.3;fill:none;fill-opacity:0.996424;stroke:#000000;stroke-width:0.955221;stroke-dasharray:none;stroke-opacity:1;filter:url(#filter5421)"
     id="rect1-2-7"
     width="13.687567"
     height="13.591975"
     x="1.6227165"
     y="1.6705122"
     rx="2.8442214"
     ry="2.965905" />
  <rect
     style="fill:none;fill-opacity:1;stroke:{{colors.primary.default.hex}};stroke-width:0.955221;stroke-dasharray:none;stroke-opacity:1"
     id="rect1-2"
     width="13.687567"
     height="13.591975"
     x="1.6227167"
     y="1.6705124"
     rx="2.8442214"
     ry="2.965905" />
  <path
     style="fill:{{colors.primary.default.hex}};fill-opacity:1;stroke:none;stroke-width:0.127985;stroke-dasharray:none;stroke-opacity:0.6"
     d="M 10.449258,9.9327282 C 8.9568633,10.640531 7.4209142,11.304769 5.7901936,11.658716 5.2645855,11.656277 5.5239126,10.999779 5.6088132,10.702285 6.0165333,9.4385911 6.6487378,8.2554588 7.2500186,7.0691659 7.4880699,6.6943487 7.6569163,6.1777733 8.1368726,6.0335601 8.60307,5.983864 8.9093884,6.4163881 9.1508596,6.7319339 c 0.9874174,1.4507941 1.9199564,2.939534 2.7376574,4.4845181 0.207124,0.402676 0.410058,0.807305 0.610826,1.212918 C 11.902322,10.091263 11.098821,7.7722837 9.803309,5.6972474 9.5129437,5.2875105 9.248551,4.8428084 8.8567192,4.5131366 8.47489,4.2318324 8.0053055,4.5346843 7.7230062,4.8069994 6.8364266,5.6600531 6.2963484,6.7733148 5.7670772,7.8481773 5.1498914,9.1201525 4.7449939,10.476157 4.4477246,11.845859 4.3435069,12.30714 4.8380724,12.641962 5.2775878,12.498833 6.4949734,12.255927 7.6390585,11.746416 8.7156667,11.1617 9.3361603,10.812149 9.9329252,10.415227 10.449144,9.9325939 Z"
     id="path8" />
</svg>
