<?xml version="1.0" encoding="UTF-8" standalone="no"?>
<svg
   width="64"
   height="64"
   version="1.1"
   viewBox="0 0 16.933 16.933"
   id="svg7"
   sodipodi:docname="abcd.svg"
   inkscape:version="1.4.3 (0d15f75042, 2025-12-25)"
   xmlns:inkscape="http://www.inkscape.org/namespaces/inkscape"
   xmlns:sodipodi="http://sodipodi.sourceforge.net/DTD/sodipodi-0.dtd"
   xmlns="http://www.w3.org/2000/svg"
   xmlns:svg="http://www.w3.org/2000/svg"
   xmlns:rdf="http://www.w3.org/1999/02/22-rdf-syntax-ns#"
   xmlns:cc="http://creativecommons.org/ns#"
   xmlns:dc="http://purl.org/dc/elements/1.1/">
  <sodipodi:namedview
     id="namedview7"
     pagecolor="#9c4444"
     bordercolor="#000000"
     borderopacity="0.25"
     inkscape:showpageshadow="2"
     inkscape:pageopacity="0.0"
     inkscape:pagecheckerboard="0"
     inkscape:deskcolor="#d1d1d1"
     inkscape:zoom="4.3531261"
     inkscape:cx="40.200995"
     inkscape:cy="23.431437"
     inkscape:window-width="1226"
     inkscape:window-height="669"
     inkscape:window-x="474"
     inkscape:window-y="225"
     inkscape:window-maximized="0"
     inkscape:current-layer="svg7"
     showgrid="false" />
  <defs
     id="defs2">
    <filter
       style="color-interpolation-filters:sRGB;"
       inkscape:label="Blur"
       id="filter5421"
       x="-0.12256455"
       y="-0.12342654"
       width="1.2451291"
       height="1.2468531">
      <feGaussianBlur
         stdDeviation="0.5 0.5"
         result="blur"
         id="feGaussianBlur5419" />
    </filter>
  </defs>
  <metadata
     id="metadata2">
    <rdf:RDF>
      <cc:Work
         rdf:about="">
        <dc:format>image/svg+xml</dc:format>
        <dc:type
           rdf:resource="http://purl.org/dc/dcmitype/StillImage" />
      </cc:Work>
    </rdf:RDF>
  </metadata>
  <rect
     style="opacity:0.3;fill:none;fill-opacity:0.996424;stroke:#000000;stroke-width:0.955221;stroke-dasharray:none;stroke-opacity:1;filter:url(#filter5421)"
     id="rect1-2-7"
     width="13.687567"
     height="13.591975"
     x="1.6227165"
     y="1.6705122"
     rx="2.8442214"
     ry="2.965905" />
  <rect
     style="fill:none;fill-opacity:1;stroke:{{colors.primary.default.hex}};stroke-width:0.955221;stroke-dasharray:none;stroke-opacity:1"
     id="rect1-2"
     width="13.687567"
     height="13.591975"
     x="1.6227167"
     y="1.6705124"
     rx="2.8442214"
     ry="2.965905" />
  <path
     style="fill:{{colors.primary.default.hex}};fill-opacity:1;stroke-width:0.209026"
     d="M 9.5160377,4.9130766 A 0.81284319,1.2688731 78.451456 0 0 9.0265417,4.9788055 0.81284319,1.2688731 78.451456 0 0 8.0793945,6.0749653 0.81284319,1.2688731 78.451456 0 0 9.5784997,6.5191444 0.81284319,1.2688731 78.451456 0 0 10.525649,5.4229854 0.81284319,1.2688731 78.451456 0 0 9.5160377,4.9130766 Z M 5.3861489,5.1237354 A 1.3966081,1.0934423 45.000001 0 0 4.7300864,5.4221681 1.3966081,1.0934423 45.000001 0 0 5.0179045,7.189904 1.3966081,1.0934423 45.000001 0 0 6.7680857,7.3303428 1.3966081,1.0934423 45.000001 0 0 6.4802675,5.5626077 1.3966081,1.0934423 45.000001 0 0 5.3861489,5.1237354 Z M 9.4070338,7.4213837 A 3.0308704,2.2992813 0 0 0 6.3761629,9.7206656 3.0308704,2.2992813 0 0 0 9.4070338,12.019947 3.0308704,2.2992813 0 0 0 12.437906,9.7206656 3.0308704,2.2992813 0 0 0 9.4070338,7.4213837 Z"
     id="path3" />
</svg>
