<?xml version="1.0" encoding="UTF-8" standalone="no"?>
<svg
   width="64"
   height="64"
   version="1.1"
   viewBox="0 0 16.933 16.933"
   id="svg7"
   sodipodi:docname="abcd.svg"
   inkscape:version="1.4.3 (0d15f75042, 2025-12-25)"
   xmlns:inkscape="http://www.inkscape.org/namespaces/inkscape"
   xmlns:sodipodi="http://sodipodi.sourceforge.net/DTD/sodipodi-0.dtd"
   xmlns="http://www.w3.org/2000/svg"
   xmlns:svg="http://www.w3.org/2000/svg"
   xmlns:rdf="http://www.w3.org/1999/02/22-rdf-syntax-ns#"
   xmlns:cc="http://creativecommons.org/ns#"
   xmlns:dc="http://purl.org/dc/elements/1.1/">
  <sodipodi:namedview
     id="namedview7"
     pagecolor="#9c4444"
     bordercolor="#000000"
     borderopacity="0.25"
     inkscape:showpageshadow="2"
     inkscape:pageopacity="0.0"
     inkscape:pagecheckerboard="0"
     inkscape:deskcolor="#d1d1d1"
     inkscape:zoom="4.3531261"
     inkscape:cx="40.200995"
     inkscape:cy="23.431437"
     inkscape:window-width="1226"
     inkscape:window-height="669"
     inkscape:window-x="474"
     inkscape:window-y="225"
     inkscape:window-maximized="0"
     inkscape:current-layer="svg7"
     showgrid="false" />
  <defs
     id="defs2">
    <filter
       style="color-interpolation-filters:sRGB;"
       inkscape:label="Blur"
       id="filter5421"
       x="-0.12256455"
       y="-0.12342654"
       width="1.2451291"
       height="1.2468531">
      <feGaussianBlur
         stdDeviation="0.5 0.5"
         result="blur"
         id="feGaussianBlur5419" />
    </filter>
  </defs>
  <metadata
     id="metadata2">
    <rdf:RDF>
      <cc:Work
         rdf:about="">
        <dc:format>image/svg+xml</dc:format>
        <dc:type
           rdf:resource="http://purl.org/dc/dcmitype/StillImage" />
      </cc:Work>
    </rdf:RDF>
  </metadata>
  <rect
     style="opacity:0.3;fill:none;fill-opacity:0.996424;stroke:#000000;stroke-width:0.955221;stroke-dasharray:none;stroke-opacity:1;filter:url(#filter5421)"
     id="rect1-2-7"
     width="13.687567"
     height="13.591975"
     x="1.6227165"
     y="1.6705122"
     rx="2.8442214"
     ry="2.965905" />
  <rect
     style="fill:none;fill-opacity:1;stroke:{{colors.primary.default.hex}};stroke-width:0.955221;stroke-dasharray:none;stroke-opacity:1"
     id="rect1-2"
     width="13.687567"
     height="13.591975"
     x="1.6227167"
     y="1.6705124"
     rx="2.8442214"
     ry="2.965905" />
  <path
     style="fill:{{colors.primary.default.hex}};fill-opacity:1;stroke:none;stroke-width:0.125463;stroke-dasharray:none;stroke-dashoffset:2.2;stroke-opacity:0.6"
     d="M 4.8031157,12.484728 C 4.6574542,12.40794 4.5647831,12.313064 4.5014967,12.175941 4.44863,12.061396 4.4434932,11.952081 4.4428645,10.92834 l -6.568e-4,-1.1220554 0.1333909,7.091e-4 c 0.090131,4.99e-4 0.1842874,0.030669 0.2903221,0.093034 C 5.343985,10.181206 5.52331,10.215706 5.748346,10.069791 6.0358331,9.8833793 6.1831602,9.5120027 6.1627585,9.0251514 6.1438102,8.5730985 5.9816716,8.2580179 5.6910578,8.1085337 5.4862301,8.0031753 5.3132057,8.0398417 4.963117,8.2627963 4.7700875,8.3857266 4.6180016,8.4368089 4.5190067,8.4119619 L 4.4422075,8.3926881 V 7.5129112 c 0,-0.9550158 0.0031,-0.9748899 0.1840534,-1.1697807 C 4.8058961,6.1496309 4.7990601,6.1506717 5.9602228,6.1400047 L 7.0231393,6.130239 7.0100562,5.9494147 C 6.9995025,5.8035175 6.9685272,5.7207854 6.8496907,5.5210993 6.6100805,5.1184707 6.6112627,4.9349976 6.8550437,4.6912181 7.0699295,4.4763334 7.2929349,4.3960545 7.6749797,4.3960545 c 0.3820444,0 0.6050504,0.080278 0.8199353,0.2951636 0.2437793,0.2437795 0.2449622,0.4272526 0.00534,0.8298812 C 8.3808785,5.721703 8.3504713,5.8032108 8.3397572,5.9513334 l -0.01322,0.1827421 h 0.9082737 c 1.0231971,0 1.1498181,0.018778 1.3169341,0.1953035 0.185596,0.1960447 0.182116,0.1725739 0.199073,1.3426194 l 0.01569,1.0828216 0.07473,0.010564 c 0.137342,0.019421 0.2685,-0.024981 0.532153,-0.1801584 0.1439,-0.084695 0.309886,-0.1630435 0.36886,-0.1741068 0.222621,-0.041765 0.513933,0.1736353 0.64344,0.4757661 0.258814,0.6037893 0.01625,1.4040411 -0.469722,1.5496411 -0.11807,0.03536 -0.139308,0.03079 -0.355046,-0.07653 -0.12622,-0.06279 -0.292926,-0.150141 -0.370471,-0.194121 -0.105419,-0.05979 -0.176688,-0.07763 -0.282476,-0.07072 l -0.141481,0.0093 -0.0157,1.004358 c -0.01691,1.081219 -0.02012,1.102195 -0.193181,1.25962 -0.173087,0.157442 -0.233175,0.168447 -0.9194697,0.168447 h -0.644961 v -0.120217 c 0,-0.06992 0.034616,-0.184839 0.082727,-0.274628 0.045499,-0.08491 0.1231805,-0.230543 0.1726239,-0.323605 0.2701515,-0.508466 -0.1186615,-0.97886 -0.8516877,-1.030393 -0.5613655,-0.03946 -1.0678774,0.251835 -1.120536,0.644434 -0.020604,0.153576 0.022545,0.288709 0.1683624,0.527287 0.1309071,0.214189 0.20168,0.418505 0.1772815,0.511802 -0.01698,0.06493 -0.02531,0.06534 -1.3708739,0.06407 -1.1721391,-10e-4 -1.3664245,-0.0081 -1.4479494,-0.0509 z"
     id="path1" />
</svg>
