<?xml version="1.0" encoding="UTF-8" standalone="no"?>
<svg
   width="64"
   height="64"
   version="1.1"
   viewBox="0 0 16.933 16.933"
   id="svg7"
   sodipodi:docname="abcd.svg"
   inkscape:version="1.4.3 (0d15f75042, 2025-12-25)"
   xmlns:inkscape="http://www.inkscape.org/namespaces/inkscape"
   xmlns:sodipodi="http://sodipodi.sourceforge.net/DTD/sodipodi-0.dtd"
   xmlns="http://www.w3.org/2000/svg"
   xmlns:svg="http://www.w3.org/2000/svg"
   xmlns:rdf="http://www.w3.org/1999/02/22-rdf-syntax-ns#"
   xmlns:cc="http://creativecommons.org/ns#"
   xmlns:dc="http://purl.org/dc/elements/1.1/">
  <sodipodi:namedview
     id="namedview7"
     pagecolor="#9c4444"
     bordercolor="#000000"
     borderopacity="0.25"
     inkscape:showpageshadow="2"
     inkscape:pageopacity="0.0"
     inkscape:pagecheckerboard="0"
     inkscape:deskcolor="#d1d1d1"
     inkscape:zoom="4.3531261"
     inkscape:cx="43.417074"
     inkscape:cy="20.674797"
     inkscape:window-width="1226"
     inkscape:window-height="669"
     inkscape:window-x="474"
     inkscape:window-y="225"
     inkscape:window-maximized="0"
     inkscape:current-layer="svg7"
     showgrid="false" />
  <defs
     id="defs2">
    <filter
       style="color-interpolation-filters:sRGB;"
       inkscape:label="Blur"
       id="filter5421"
       x="-0.12256455"
       y="-0.12342654"
       width="1.2451291"
       height="1.2468531">
      <feGaussianBlur
         stdDeviation="0.5 0.5"
         result="blur"
         id="feGaussianBlur5419" />
    </filter>
  </defs>
  <metadata
     id="metadata2">
    <rdf:RDF>
      <cc:Work
         rdf:about="">
        <dc:format>image/svg+xml</dc:format>
        <dc:type
           rdf:resource="http://purl.org/dc/dcmitype/StillImage" />
      </cc:Work>
    </rdf:RDF>
  </metadata>
  <rect
     style="opacity:0.3;fill:none;fill-opacity:0.996424;stroke:#000000;stroke-width:0.955221;stroke-dasharray:none;stroke-opacity:1;filter:url(#filter5421)"
     id="rect1-2-7"
     width="13.687567"
     height="13.591975"
     x="1.6227165"
     y="1.6705122"
     rx="2.8442214"
     ry="2.965905" />
  <rect
     style="fill:none;fill-opacity:1;stroke:{{colors.primary.default.hex}};stroke-width:0.955221;stroke-dasharray:none;stroke-opacity:1"
     id="rect1-2"
     width="13.687567"
     height="13.591975"
     x="1.6227167"
     y="1.6705124"
     rx="2.8442214"
     ry="2.965905" />
  <path
     id="Layer"
     style="fill:{{colors.primary.default.hex}};fill-opacity:1;stroke-width:0.0201049"
     d="m 5.757965,4.4531555 h 5.417674 c 0.721968,0 1.305614,0.5832443 1.305614,1.3052119 v 5.4162676 c 0,0.721967 -0.583646,1.305211 -1.305614,1.305211 H 6.5907111 L 6.5754295,9.0213966 h -0.00179 c 0,-0.00825 0,-0.016085 0,-0.02453 0,-1.3112428 1.0412344,-2.3709738 2.3293568,-2.3709738 0.7728335,0 1.3976947,0.635919 1.3976947,1.4226249 0,0.7867057 -0.6248612,1.4226244 -1.3976947,1.4226244 -0.2573432,0 -0.4658311,-0.212107 -0.4658311,-0.4742755 0,-0.261967 0.2084879,-0.4742748 0.4658311,-0.4742748 0.2573432,0 0.465831,-0.2121073 0.465831,-0.4742756 0,-0.261967 -0.2084878,-0.474275 -0.465831,-0.474275 -0.7728336,0 -1.3976945,0.6359188 -1.3976945,1.4226251 0,0.7867053 0.6248609,1.4226237 1.3976945,1.4226237 1.2881227,0 2.3293567,-1.0597302 2.3293567,-2.3709738 0,-1.3112427 -1.041234,-2.3709737 -2.3293567,-2.3709737 -1.8034118,0 -3.2616221,1.4835424 -3.2616221,3.3193238 0,0.00965 0,0.018898 0,0.02875 h -0.00785 L 5.6488129,12.47522 C 4.9776928,12.420134 4.4517483,11.859609 4.4517483,11.174635 V 5.7583674 c 0,-0.7219676 0.5836458,-1.3052119 1.3056134,-1.3052119 z" />
</svg>
