<?xml version="1.0" encoding="UTF-8" standalone="no"?>
<svg
   width="64"
   height="64"
   version="1.1"
   viewBox="0 0 16.933 16.933"
   id="svg7"
   sodipodi:docname="abcd.svg"
   inkscape:version="1.4.3 (0d15f75042, 2025-12-25)"
   xmlns:inkscape="http://www.inkscape.org/namespaces/inkscape"
   xmlns:sodipodi="http://sodipodi.sourceforge.net/DTD/sodipodi-0.dtd"
   xmlns="http://www.w3.org/2000/svg"
   xmlns:svg="http://www.w3.org/2000/svg"
   xmlns:rdf="http://www.w3.org/1999/02/22-rdf-syntax-ns#"
   xmlns:cc="http://creativecommons.org/ns#"
   xmlns:dc="http://purl.org/dc/elements/1.1/">
  <sodipodi:namedview
     id="namedview7"
     pagecolor="#9c4444"
     bordercolor="#000000"
     borderopacity="0.25"
     inkscape:showpageshadow="2"
     inkscape:pageopacity="0.0"
     inkscape:pagecheckerboard="0"
     inkscape:deskcolor="#d1d1d1"
     inkscape:zoom="4.3531261"
     inkscape:cx="40.200995"
     inkscape:cy="23.201717"
     inkscape:window-width="1226"
     inkscape:window-height="669"
     inkscape:window-x="77"
     inkscape:window-y="131"
     inkscape:window-maximized="0"
     inkscape:current-layer="svg7"
     showgrid="false" />
  <defs
     id="defs2">
    <filter
       style="color-interpolation-filters:sRGB;"
       inkscape:label="Blur"
       id="filter5421"
       x="-0.12256455"
       y="-0.12342654"
       width="1.2451291"
       height="1.2468531">
      <feGaussianBlur
         stdDeviation="0.5 0.5"
         result="blur"
         id="feGaussianBlur5419" />
    </filter>
  </defs>
  <metadata
     id="metadata2">
    <rdf:RDF>
      <cc:Work
         rdf:about="">
        <dc:format>image/svg+xml</dc:format>
        <dc:type
           rdf:resource="http://purl.org/dc/dcmitype/StillImage" />
      </cc:Work>
    </rdf:RDF>
  </metadata>
  <rect
     style="opacity:0.3;fill:none;fill-opacity:0.996424;stroke:#000000;stroke-width:0.955221;stroke-dasharray:none;stroke-opacity:1;filter:url(#filter5421)"
     id="rect1-2-7"
     width="13.687567"
     height="13.591975"
     x="1.6227165"
     y="1.6705122"
     rx="2.8442214"
     ry="2.965905" />
  <rect
     style="fill:none;fill-opacity:1;stroke:{{colors.primary.default.hex}};stroke-width:0.955221;stroke-dasharray:none;stroke-opacity:1"
     id="rect1-2"
     width="13.687567"
     height="13.591975"
     x="1.6227167"
     y="1.6705124"
     rx="2.8442214"
     ry="2.965905" />
  <path
     style="fill:{{colors.primary.default.hex}};fill-opacity:1;stroke:none;stroke-width:0.130312;stroke-dasharray:none;stroke-opacity:0.6"
     d="M 7.7663884,12.543596 C 6.8614968,12.365727 6.2869009,12.057912 5.6272596,11.397644 4.8694758,10.639144 4.5323838,9.9638624 4.3959871,8.9310908 4.1778016,7.2790365 5.067779,5.5751686 6.5639283,4.7805537 7.2213207,4.4314083 7.6332853,4.3351179 8.4696636,4.3351179 c 0.6421203,0 0.8263681,0.021515 1.172125,0.136847 2.3072514,0.7696406 3.4875054,3.1615977 2.6680014,5.407092 -0.453535,1.2427191 -1.590841,2.2872801 -2.8300049,2.5992211 -0.5158706,0.129863 -1.2438458,0.157615 -1.7133967,0.06531 z m 1.4183172,-0.855289 c 0.5141865,-0.110606 0.5138059,-0.113423 -0.098519,-0.728941 -0.305581,-0.307175 -0.5830165,-0.5585 -0.616523,-0.5585 -0.091504,0 -1.1723309,1.103547 -1.1261027,1.149775 0.1694592,0.169459 1.3002762,0.254015 1.8411447,0.137666 z M 7.5319831,10.166421 8.4683298,9.2287008 9.4073435,10.166421 c 0.5164584,0.515746 0.9711325,0.93772 1.0103885,0.93772 0.139037,0 0.704892,-0.64637 0.913669,-1.043673 0.284021,-0.5404955 0.391049,-0.9849823 0.390215,-1.6205728 -0.0012,-0.9251511 -0.29051,-1.6582324 -0.91143,-2.3095901 L 10.439709,5.7416683 9.7623692,6.4146845 C 9.3898325,6.7848432 9.0850296,7.1137388 9.0850296,7.1455633 c 0,0.031825 0.1508159,0.2102695 0.3351467,0.396544 L 9.7553238,7.8807887 10.059121,7.5807651 c 0.167089,-0.1650133 0.332393,-0.2823506 0.367346,-0.2607495 0.03495,0.021601 0.119954,0.2249904 0.1889,0.4519764 0.157915,0.519903 0.133403,1.1049723 -0.06552,1.5640513 L 10.41446,9.6484676 9.4707181,8.7060261 C 8.9516598,8.1876834 8.5005855,7.7635842 8.4683298,7.7635842 c -0.032256,0 -0.4787156,0.4206859 -0.9921336,0.9348567 C 6.4283793,9.7477954 6.4866425,9.7286916 6.2993232,9.0843324 6.1720755,8.6466177 6.2076793,8.039742 6.3883521,7.5668015 l 0.1311471,-0.3432992 0.332181,0.3287152 0.332181,0.3287148 0.335218,-0.3387531 C 7.7034494,7.3558648 7.8542973,7.1773876 7.8542973,7.1455633 c 0,-0.031824 -0.3048027,-0.3607201 -0.6773396,-0.7308788 L 6.4996177,5.7416683 6.1366962,6.1232101 C 5.4933509,6.7995648 5.2147467,7.4996288 5.2103771,8.4508229 c -0.0029,0.6289295 0.098453,1.0369485 0.4011414,1.6150481 0.2064645,0.394326 0.7717309,1.03827 0.911411,1.03827 0.039989,0 0.4940633,-0.421974 1.0090536,-0.93772 z M 9.0675464,5.9653166 C 9.3672629,5.6531713 9.6124857,5.3783707 9.6124857,5.3546488 c 0,-0.070712 -0.7889233,-0.2283463 -1.1428221,-0.2283463 -0.3456182,0 -1.1428224,0.1569931 -1.1428224,0.2250554 0,0.070902 1.0622879,1.1814951 1.1301049,1.1814951 0.036113,0 0.3108837,-0.2553914 0.6106003,-0.5675364 z"
     id="path10" />
</svg>
