<?xml version="1.0" encoding="UTF-8" standalone="no"?>
<svg
   width="64"
   height="64"
   version="1.1"
   viewBox="0 0 16.933 16.933"
   id="svg7"
   sodipodi:docname="abcd.svg"
   inkscape:version="1.4.3 (0d15f75042, 2025-12-25)"
   xmlns:inkscape="http://www.inkscape.org/namespaces/inkscape"
   xmlns:sodipodi="http://sodipodi.sourceforge.net/DTD/sodipodi-0.dtd"
   xmlns="http://www.w3.org/2000/svg"
   xmlns:svg="http://www.w3.org/2000/svg"
   xmlns:rdf="http://www.w3.org/1999/02/22-rdf-syntax-ns#"
   xmlns:cc="http://creativecommons.org/ns#"
   xmlns:dc="http://purl.org/dc/elements/1.1/">
  <sodipodi:namedview
     id="namedview7"
     pagecolor="#9c4444"
     bordercolor="#000000"
     borderopacity="0.25"
     inkscape:showpageshadow="2"
     inkscape:pageopacity="0.0"
     inkscape:pagecheckerboard="0"
     inkscape:deskcolor="#d1d1d1"
     inkscape:zoom="4.3531261"
     inkscape:cx="40.200995"
     inkscape:cy="23.201717"
     inkscape:window-width="1226"
     inkscape:window-height="669"
     inkscape:window-x="77"
     inkscape:window-y="131"
     inkscape:window-maximized="0"
     inkscape:current-layer="svg7"
     showgrid="false" />
  <defs
     id="defs2">
    <filter
       style="color-interpolation-filters:sRGB;"
       inkscape:label="Blur"
       id="filter5421"
       x="-0.12256455"
       y="-0.12342654"
       width="1.2451291"
       height="1.2468531">
      <feGaussianBlur
         stdDeviation="0.5 0.5"
         result="blur"
         id="feGaussianBlur5419" />
    </filter>
  </defs>
  <metadata
     id="metadata2">
    <rdf:RDF>
      <cc:Work
         rdf:about="">
        <dc:format>image/svg+xml</dc:format>
        <dc:type
           rdf:resource="http://purl.org/dc/dcmitype/StillImage" />
      </cc:Work>
    </rdf:RDF>
  </metadata>
  <rect
     style="opacity:0.3;fill:none;fill-opacity:0.996424;stroke:#000000;stroke-width:0.955221;stroke-dasharray:none;stroke-opacity:1;filter:url(#filter5421)"
     id="rect1-2-7"
     width="13.687567"
     height="13.591975"
     x="1.6227165"
     y="1.6705122"
     rx="2.8442214"
     ry="2.965905" />
  <rect
     style="fill:none;fill-opacity:1;stroke:{{colors.primary.default.hex}};stroke-width:0.955221;stroke-dasharray:none;stroke-opacity:1"
     id="rect1-2"
     width="13.687567"
     height="13.591975"
     x="1.6227167"
     y="1.6705124"
     rx="2.8442214"
     ry="2.965905" />
  <path
     d="M 8.5462004,12.518837 C 8.4598626,12.495337 8.3847633,12.440162 8.3323989,12.361742 8.2547456,12.246029 8.2289467,12.162245 8.1344348,11.719061 8.0948416,11.534378 8.0368574,11.411258 7.9390244,11.305253 7.7681365,11.120314 7.5706827,11.054666 7.1032319,11.027335 6.5803506,10.996683 6.3946468,10.950449 6.2199278,10.808169 6.021452,10.646223 5.9384348,10.463328 5.8199119,9.9248665 5.7466012,9.5922856 5.7047092,9.4579251 5.6183708,9.2788632 5.4597439,8.9498594 5.2418557,8.6944213 4.9261343,8.4670812 4.7228058,8.3207158 4.6620121,8.2315676 4.6954739,8.128626 4.722805,8.0450981 4.8093993,7.991201 4.9169388,7.991201 c 0.086594,0 0.1394687,0.021461 0.2081819,0.08455 0.065902,0.060539 0.1047291,0.1177572 0.195921,0.2876229 0.083018,0.1553066 0.1629689,0.2684658 0.1895345,0.2684658 0.016093,0 0.018647,-0.065649 0.018647,-0.4707728 0,-0.2814924 0.00512,-0.489674 0.012773,-0.5180277 0.015584,-0.056706 0.077142,-0.112903 0.1236322,-0.112903 0.077142,2.529e-4 0.1435565,0.074332 0.1772739,0.198475 0.00767,0.028353 0.040103,0.3106125 0.072033,0.6278662 0.031929,0.3169986 0.062837,0.5813768 0.068457,0.5877621 0.017882,0.019159 0.09911,-0.082761 0.1519855,-0.190812 0.051853,-0.1060063 0.086848,-0.2411331 0.08736,-0.3366672 0,-0.030396 -0.014305,-0.1264411 -0.032185,-0.2138013 -0.02631,-0.1297619 -0.02963,-0.1680774 -0.018901,-0.2089475 0.034485,-0.1295071 0.1765074,-0.1509638 0.2697425,-0.040359 0.067436,0.079953 0.09068,0.1706328 0.090169,0.3514826 0,0.1959206 -0.016861,0.2689759 -0.1593936,0.7098624 C 6.2490483,9.3958553 6.2102218,9.5647 6.2104772,9.7179633 c 0,0.5497007 0.4544242,0.9078257 1.214097,0.9591677 0.06769,0.0045 0.1228649,0.0039 0.1228649,-0.0012 0,-0.0052 -0.042147,-0.08813 -0.094002,-0.184426 C 7.2751417,10.159631 7.2028532,9.9279493 7.2028532,9.6886033 7.2028532,9.508519 7.2289069,9.3984251 7.3433435,9.098286 7.5001843,8.6875133 7.5155104,8.6208439 7.5155104,8.349824 7.515764,8.2088226 7.50938,8.1212072 7.4935443,8.0468749 7.4082283,7.6427719 7.1982582,7.2956321 6.9019506,7.0688031 6.7844489,6.9788892 6.7494541,6.9594756 6.4490589,6.8187293 6.1601585,6.6833473 6.0848047,6.6363464 5.9693465,6.5183344 5.8452037,6.3916372 5.7925835,6.2879296 5.7841543,6.1538244 c -0.00511,-0.082762 -0.00306,-0.095789 0.017627,-0.1070285 0.047767,-0.025543 0.1491761,-0.030142 0.2398568,-0.010984 0.168078,0.035505 0.3187862,0.132572 0.5596645,0.3599118 0.2567147,0.2421552 0.4012927,0.3318142 0.578056,0.3576132 0.086082,0.012516 0.094767,0.011749 0.1108598,-0.010727 0.02631,-0.036527 0.022476,-0.1724202 -0.00741,-0.2528835 C 7.2278884,6.3415726 7.110387,6.2314788 6.8475413,6.0825584 6.6784411,5.9867695 6.5645161,5.9047737 6.5136842,5.8424471 6.3892856,5.6899503 6.363997,5.4661867 6.4582541,5.3522614 6.5476567,5.2444668 6.6991319,5.2324608 6.8735959,5.3190541 c 0.084806,0.041893 0.1228654,0.0728 0.2516065,0.2046058 0.3760048,0.3846899 0.6023219,0.8891793 0.701943,1.5645571 0.026567,0.1800841 0.02299,0.8595486 -0.00588,1.0953177 -0.027331,0.2247854 -0.071012,0.4914627 -0.122099,0.7481776 -0.044448,0.2222313 -0.047768,0.3241512 -0.013792,0.4005266 0.025292,0.056197 0.077397,0.093746 0.130018,0.093746 0.059774,0 0.1655238,-0.069225 0.2873676,-0.1877472 0.198988,-0.1941327 0.3103584,-0.3818794 0.3742179,-0.6306762 0.027843,-0.1083054 0.032696,-0.1616919 0.040871,-0.4444621 0.00843,-0.2986067 0.010984,-0.3254275 0.038315,-0.3821347 0.039339,-0.082762 0.1121375,-0.1356376 0.1867258,-0.1356376 0.048277,0 0.063094,0.0069 0.1039629,0.048276 C 8.9533699,7.801909 8.9497941,7.943677 8.8274395,8.4486781 8.7400836,8.8083361 8.6238596,9.0857415 8.475961,9.2849833 8.4317705,9.3450107 8.3012414,9.4849909 8.1862949,9.5963618 8.0483579,9.729957 7.9561453,9.8308541 7.9150195,9.8931815 7.6746522,10.258203 7.8028823,10.61607 8.1977889,10.682228 8.3630573,10.71007 8.5462068,10.656173 8.6711154,10.543014 8.8455794,10.385665 9.0082936,10.034949 9.1222191,9.5708179 9.29183,8.8813917 9.3462382,8.1314257 9.2578568,7.702035 9.1779046,7.3137693 9.0174896,6.9883418 8.7919382,6.7574255 8.7303773,6.6943322 8.5970391,6.5847493 8.4619126,6.4861502 8.0848861,6.2112993 7.9331561,6.0337699 7.8807911,5.8056639 7.854738,5.6925047 7.8613779,5.5773023 7.8950956,5.5515033 7.9387756,5.5180405 8.0486138,5.5019475 8.1244789,5.5172748 8.312225,5.5555902 8.477238,5.7045106 8.6509361,5.9929004 8.7875957,6.2194735 8.849922,6.3040232 8.9436679,6.388829 c 0.069735,0.062837 0.1049847,0.080207 0.1049847,0.051343 0,-0.00741 -0.033462,-0.078164 -0.074077,-0.1568387 C 8.6780126,5.7108964 8.4649773,5.2792064 8.4363682,5.1926133 8.3717427,4.996692 8.4087825,4.8579895 8.5413528,4.798472 8.6920616,4.730782 8.8596286,4.840365 8.9400919,5.0592739 8.9572069,5.1060189 9.0683216,5.4863663 9.1871001,5.9047737 9.4433044,6.808002 9.4259349,6.7512948 9.4440706,6.7451643 9.4662946,6.7377543 9.5498222,6.5311075 9.5919694,6.3788664 9.6471444,6.1788584 9.6708994,5.9706766 9.6627254,5.7622394 9.6542954,5.5581447 9.6330944,5.4260832 9.558251,5.1180249 9.517891,4.9522455 9.502821,4.8638644 9.502821,4.7948962 c 0,-0.1629698 0.063861,-0.2957974 0.173698,-0.3614447 0.1220991,-0.0728 0.3060149,-0.036271 0.429392,0.085316 0.121077,0.1192894 0.160414,0.2487965 0.149943,0.4940169 -0.01124,0.262335 -0.05389,0.4217283 -0.2927333,1.0953177 -0.2127811,0.6007899 -0.2766396,0.8245538 -0.3149555,1.1040025 -0.025286,0.1834047 -0.024777,0.4723048 0,0.6263338 0.022226,0.1346156 0.067437,0.2835362 0.08736,0.289922 0.00717,0.00228 0.069224,-0.155817 0.1374262,-0.3514826 0.1673116,-0.4789459 0.1897906,-0.5328432 0.2421556,-0.5793327 0.103451,-0.092468 0.257225,-0.013283 0.257225,0.1320609 0,0.1218442 -0.258503,0.8904568 -0.9165118,2.727823 -0.1839155,0.512919 -0.3323249,0.941543 -0.3302817,0.952527 0.00308,0.01302 0.2656558,-0.221976 0.7484345,-0.668226 1.031458,-0.9532941 1.046785,-0.9693867 1.113453,-1.1642861 0.02682,-0.078164 0.0304,-0.1062617 0.02478,-0.1997527 -0.0089,-0.1494308 -0.058,-0.2786827 -0.206647,-0.5451041 -0.176252,-0.3154659 -0.232192,-0.4495706 -0.250583,-0.5987465 -0.0373,-0.3032049 0.229894,-0.5004027 0.418407,-0.3088245 0.104729,0.1062622 0.249818,0.4723045 0.313168,0.7900697 0.01737,0.08787 0.03168,0.1716538 0.03168,0.1862141 0,0.073565 0.03908,0.012516 0.196688,-0.3078028 0.227849,-0.4631091 0.269999,-0.5267129 0.392606,-0.591083 0.107541,-0.056196 0.238836,0.00255 0.310359,0.1389578 0.03883,0.073822 0.03754,0.2130354 -0.0028,0.3374337 -0.106774,0.3290039 -0.526968,1.0291595 -0.979605,1.632248 -0.02528,0.033464 -0.03908,0.060793 -0.0309,0.060793 0.0084,0 0.047,-0.018901 0.08634,-0.042151 0.243689,-0.1438116 0.41611,-0.1532628 0.585975,-0.031674 0.0521,0.037033 0.109839,0.146877 0.109583,0.2084376 -2.53e-4,0.06923 -0.03832,0.1496868 -0.08966,0.1890238 -0.09375,0.07204 -0.192345,0.09528 -0.471028,0.111627 -0.459035,0.02657 -0.807452,0.151984 -1.141821,0.410743 -0.263612,0.203839 -0.4176409,0.409467 -0.6812538,0.909103 -0.214823,0.406657 -0.3152097,0.554044 -0.5159844,0.755841 -0.1453436,0.14611 -0.2536497,0.21559 -0.3772816,0.241898 -0.080718,0.01712 -0.080208,0.01712 -0.164502,-0.0059 z"
     fill="url(#b)"
     fill-rule="nonzero"
     id="path4"
     style="fill:{{colors.primary.default.hex}};fill-opacity:1;stroke:none;stroke-width:0.118466;stroke-dasharray:none;stroke-opacity:0.6" />
</svg>
