<?xml version="1.0" encoding="UTF-8" standalone="no"?>
<svg
   width="64"
   height="64"
   version="1.1"
   viewBox="0 0 16.933 16.933"
   id="svg7"
   sodipodi:docname="ca.desrt.dconf-editor.svg"
   inkscape:version="1.4.3 (0d15f75042, 2025-12-25)"
   xmlns:inkscape="http://www.inkscape.org/namespaces/inkscape"
   xmlns:sodipodi="http://sodipodi.sourceforge.net/DTD/sodipodi-0.dtd"
   xmlns="http://www.w3.org/2000/svg"
   xmlns:svg="http://www.w3.org/2000/svg"
   xmlns:rdf="http://www.w3.org/1999/02/22-rdf-syntax-ns#"
   xmlns:cc="http://creativecommons.org/ns#"
   xmlns:dc="http://purl.org/dc/elements/1.1/">
  <sodipodi:namedview
     id="namedview7"
     pagecolor="#9c4444"
     bordercolor="#000000"
     borderopacity="0.25"
     inkscape:showpageshadow="2"
     inkscape:pageopacity="0.0"
     inkscape:pagecheckerboard="0"
     inkscape:deskcolor="#d1d1d1"
     inkscape:zoom="4.3531261"
     inkscape:cx="43.417074"
     inkscape:cy="19.985637"
     inkscape:window-width="1226"
     inkscape:window-height="669"
     inkscape:window-x="575"
     inkscape:window-y="214"
     inkscape:window-maximized="0"
     inkscape:current-layer="svg7"
     showgrid="false" />
  <defs
     id="defs2">
    <filter
       style="color-interpolation-filters:sRGB;"
       inkscape:label="Blur"
       id="filter5421"
       x="-0.12256455"
       y="-0.12342654"
       width="1.2451291"
       height="1.2468531">
      <feGaussianBlur
         stdDeviation="0.5 0.5"
         result="blur"
         id="feGaussianBlur5419" />
    </filter>
    <filter
       style="color-interpolation-filters:sRGB"
       inkscape:label="Blur"
       id="filter5421-3"
       x="-0.12256455"
       y="-0.12342654"
       width="1.2451291"
       height="1.2468531">
      <feGaussianBlur
         stdDeviation="0.5 0.5"
         result="blur"
         id="feGaussianBlur5419-6" />
    </filter>
  </defs>
  <metadata
     id="metadata2">
    <rdf:RDF>
      <cc:Work
         rdf:about="">
        <dc:format>image/svg+xml</dc:format>
        <dc:type
           rdf:resource="http://purl.org/dc/dcmitype/StillImage" />
      </cc:Work>
    </rdf:RDF>
  </metadata>
  <rect
     style="opacity:0.3;fill:none;fill-opacity:0.996424;stroke:#000000;stroke-width:0.955221;stroke-dasharray:none;stroke-opacity:1;filter:url(#filter5421)"
     id="rect1-2-7"
     width="13.687567"
     height="13.591975"
     x="1.6227165"
     y="1.6705122"
     rx="2.8442214"
     ry="2.965905" />
  <rect
     style="fill:none;fill-opacity:1;stroke:{{colors.primary.default.hex}};stroke-width:0.955221;stroke-dasharray:none;stroke-opacity:1"
     id="rect1-2"
     width="13.687567"
     height="13.591975"
     x="1.6227167"
     y="1.6705124"
     rx="2.8442214"
     ry="2.965905" />
  <path
     style="fill:{{colors.primary.default.hex}};fill-opacity:1;stroke-width:0.00622898"
     d="M 5.9449738,12.526609 C 5.556453,12.476715 5.2243964,12.203551 5.0962224,11.828387 c -0.010464,-0.03062 -0.025843,-0.0867 -0.034181,-0.124582 -0.014527,-0.06602 -0.015158,-0.200723 -0.015158,-3.2373737 0,-3.0366501 6.304e-4,-3.1713421 0.015158,-3.2373769 C 5.1102634,5.0098723 5.196812,4.8537094 5.357568,4.6958219 5.4665358,4.5887974 5.5527383,4.5302382 5.6760574,4.4794632 5.8214115,4.4196151 5.9394922,4.3975152 6.1161903,4.3970868 l 0.1058918,-2.611e-4 v 3.2461684 3.2461689 l -0.1225025,0.0048 c -0.087365,0.0035 -0.1399622,0.0098 -0.1833699,0.02219 -0.2650593,0.07564 -0.4416051,0.308041 -0.4416051,0.581313 0,0.176032 0.053266,0.30402 0.1786833,0.429342 0.064445,0.06439 0.087938,0.08176 0.1542282,0.113904 0.1059496,0.05138 0.1618069,0.06316 0.3003686,0.06332 l 0.1141974,1.97e-4 v 0.215938 0.215937 l -0.1100444,-0.0011 c -0.060525,-5.78e-4 -0.1357038,-0.0044 -0.1670641,-0.0083 z m 0.7089848,-0.206461 v -0.215993 h 2.4040283 2.4040291 l 0.0025,-0.330134 c 0.0027,-0.364028 7.1e-4,-0.350213 0.05734,-0.407627 0.105984,-0.107504 0.280788,-0.07665 0.344971,0.06088 l 0.01939,0.04152 -1.98e-4,0.448488 c -1.98e-4,0.43313 -6.83e-4,0.449766 -0.017,0.48586 -0.02068,0.04576 -0.05901,0.08691 -0.103164,0.110772 l -0.03322,0.01796 -2.5393466,0.0021 -2.5393485,0.0021 z m 0,-4.6759026 v -3.247521 l 2.539348,0.0021 2.5393474,0.0021 0.03379,0.018087 c 0.04435,0.02374 0.0892,0.074225 0.106408,0.1197524 0.01281,0.033904 0.01365,0.2615592 0.01154,3.1178428 l -0.0023,3.0812704 -0.0182,0.03401 c -0.02123,0.03968 -0.06511,0.08042 -0.108767,0.100972 -0.02911,0.0137 -0.172658,0.01465 -2.5660305,0.01668 l -2.5351968,0.0022 z"
     id="path1" />
  <rect
     style="opacity:0.3;fill:none;fill-opacity:0.996424;stroke:#000000;stroke-width:0.955221;stroke-dasharray:none;stroke-opacity:1;filter:url(#filter5421-3)"
     id="rect1-2-7-5"
     width="13.687567"
     height="13.591975"
     x="1.6227165"
     y="1.6705122"
     rx="2.8442214"
     ry="2.965905"
     transform="matrix(0.43046721,0,0,0.43046721,9.5627021,9.5627021)" />
  <rect
     style="fill:none;fill-opacity:1;stroke:{{colors.primary.default.hex}};stroke-width:0.411191;stroke-dasharray:none;stroke-opacity:1"
     id="rect1-2-3"
     width="5.8920484"
     height="5.8508992"
     x="10.261228"
     y="10.281802"
     rx="1.224344"
     ry="1.2767248" />
  <path
     style="fill:{{colors.primary.default.hex}};fill-opacity:1;stroke:none;stroke-width:0.22645;stroke-dasharray:none;stroke-opacity:0.3"
     d="m 12.774974,15.316454 c -1.43e-4,-0.06122 -0.0084,-0.179784 -0.01848,-0.263452 -0.01655,-0.138267 -0.02787,-0.156756 -0.124364,-0.202959 -0.05839,-0.02796 -0.155776,-0.09029 -0.216418,-0.138531 l -0.110255,-0.08769 -0.207836,0.10511 c -0.114313,0.05782 -0.21815,0.105088 -0.230748,0.105077 -0.01259,-1.7e-5 -0.08141,-0.110232 -0.152916,-0.244925 -0.07149,-0.134691 -0.174873,-0.326816 -0.229715,-0.426944 l -0.09971,-0.182062 0.198478,-0.148478 0.198481,-0.14848 0.0018,-0.290625 0.0018,-0.290625 -0.198445,-0.149127 -0.198448,-0.14913 0.180386,-0.34301 c 0.09921,-0.188658 0.205155,-0.384685 0.235425,-0.435619 l 0.05503,-0.09259 0.220167,0.115854 0.220167,0.115853 0.129251,-0.09908 c 0.0711,-0.05449 0.169806,-0.115941 0.219377,-0.136563 0.07969,-0.03315 0.09227,-0.05531 0.108541,-0.191362 0.01013,-0.08463 0.01853,-0.210653 0.01867,-0.28005 l 2.77e-4,-0.126171 h 0.473018 0.473017 v 0.09955 c 0,0.05474 0.0084,0.180799 0.01879,0.280101 0.01693,0.162742 0.02711,0.184006 0.103085,0.215614 0.04636,0.01929 0.146383,0.07938 0.222264,0.133566 l 0.137962,0.09851 0.224626,-0.113416 0.224624,-0.113411 0.227482,0.436481 0.22748,0.436479 -0.19797,0.148764 -0.197971,0.148761 0.0029,0.29148 0.0029,0.291479 0.196006,0.146628 0.196003,0.146629 -0.19895,0.376024 c -0.109425,0.206815 -0.214604,0.402746 -0.233734,0.435401 -0.03394,0.05792 -0.04027,0.05666 -0.258572,-0.05174 l -0.223769,-0.111104 -0.127677,0.09786 c -0.07022,0.05383 -0.169077,0.115088 -0.219684,0.136138 -0.09065,0.0377 -0.09232,0.04218 -0.112609,0.302692 l -0.02059,0.264422 h -0.469303 -0.469206 l -2.76e-4,-0.111327 z m 0.813648,-1.238127 c 0.245049,-0.144211 0.369314,-0.376871 0.368864,-0.690628 -7.91e-4,-0.579267 -0.525806,-0.943559 -1.006761,-0.698617 -0.287149,0.146241 -0.428898,0.413688 -0.406495,0.766967 0.03564,0.562229 0.587603,0.891097 1.044392,0.622278 z"
     id="path792" />
</svg>
