<?xml version="1.0" encoding="UTF-8" standalone="no"?>
<svg
   width="64"
   height="64"
   version="1.1"
   viewBox="0 0 16.933 16.933"
   id="svg7"
   sodipodi:docname="abcd.svg"
   inkscape:version="1.4.3 (0d15f75042, 2025-12-25)"
   xmlns:inkscape="http://www.inkscape.org/namespaces/inkscape"
   xmlns:sodipodi="http://sodipodi.sourceforge.net/DTD/sodipodi-0.dtd"
   xmlns="http://www.w3.org/2000/svg"
   xmlns:svg="http://www.w3.org/2000/svg"
   xmlns:rdf="http://www.w3.org/1999/02/22-rdf-syntax-ns#"
   xmlns:cc="http://creativecommons.org/ns#"
   xmlns:dc="http://purl.org/dc/elements/1.1/">
  <sodipodi:namedview
     id="namedview7"
     pagecolor="#9c4444"
     bordercolor="#000000"
     borderopacity="0.25"
     inkscape:showpageshadow="2"
     inkscape:pageopacity="0.0"
     inkscape:pagecheckerboard="0"
     inkscape:deskcolor="#d1d1d1"
     inkscape:zoom="4.3531261"
     inkscape:cx="40.200995"
     inkscape:cy="23.431437"
     inkscape:window-width="1226"
     inkscape:window-height="669"
     inkscape:window-x="474"
     inkscape:window-y="225"
     inkscape:window-maximized="0"
     inkscape:current-layer="svg7"
     showgrid="false" />
  <defs
     id="defs2">
    <filter
       style="color-interpolation-filters:sRGB;"
       inkscape:label="Blur"
       id="filter5421"
       x="-0.12256455"
       y="-0.12342654"
       width="1.2451291"
       height="1.2468531">
      <feGaussianBlur
         stdDeviation="0.5 0.5"
         result="blur"
         id="feGaussianBlur5419" />
    </filter>
  </defs>
  <metadata
     id="metadata2">
    <rdf:RDF>
      <cc:Work
         rdf:about="">
        <dc:format>image/svg+xml</dc:format>
        <dc:type
           rdf:resource="http://purl.org/dc/dcmitype/StillImage" />
      </cc:Work>
    </rdf:RDF>
  </metadata>
  <rect
     style="opacity:0.3;fill:none;fill-opacity:0.996424;stroke:#000000;stroke-width:0.955221;stroke-dasharray:none;stroke-opacity:1;filter:url(#filter5421)"
     id="rect1-2-7"
     width="13.687567"
     height="13.591975"
     x="1.6227165"
     y="1.6705122"
     rx="2.8442214"
     ry="2.965905" />
  <rect
     style="fill:none;fill-opacity:1;stroke:{{colors.primary.default.hex}};stroke-width:0.955221;stroke-dasharray:none;stroke-opacity:1"
     id="rect1-2"
     width="13.687567"
     height="13.591975"
     x="1.6227167"
     y="1.6705124"
     rx="2.8442214"
     ry="2.965905" />
  <path
     style="fill:{{colors.primary.default.hex}};fill-opacity:1;stroke:none;stroke-width:0.129627;stroke-dasharray:none;stroke-opacity:0.6"
     d="M 4.6578098,12.459597 C 4.5341963,12.39841 4.4143805,12.250487 4.3709091,12.105391 4.3448696,12.018466 4.3595148,11.943372 4.5275089,11.302563 4.62944,10.913748 4.715467,10.549878 4.71868,10.493967 4.723012,10.418613 4.6989304,10.341382 4.6256427,10.195536 4.3067588,9.5609636 4.1791657,8.9903892 4.204422,8.311915 4.2258163,7.7370954 4.340249,7.2939054 4.605645,6.7579503 5.4566607,5.039363 7.4143177,4.1130278 9.3581182,4.50915 10.355462,4.7123951 11.276696,5.2847184 11.895676,6.0856216 12.461984,6.8183751 12.77968,7.7896415 12.725775,8.6234234 12.592543,10.684188 10.902049,12.33868 8.7786163,12.486522 8.0574198,12.536729 7.3812829,12.417514 6.6197496,12.105838 6.5458111,12.07558 6.4725937,12.090628 5.7048075,12.293966 5.2457918,12.415527 4.8473604,12.51486 4.819404,12.514706 4.7914474,12.514552 4.7187301,12.489749 4.6578098,12.459606 Z M 8.836924,11.902091 c 0.6719906,-0.06734 1.314092,-0.310666 1.87233,-0.709487 0.234049,-0.167213 0.646071,-0.59131 0.814545,-0.838421 l 0.147283,-0.216028 -0.07104,-0.01745 c -0.03909,-0.0096 -0.722687,-0.04746 -1.519133,-0.08414 C 9.2844594,9.9998826 8.6300068,9.9670601 8.6265648,9.9636211 8.6231258,9.9602011 9.412002,9.6046407 10.379629,9.1735385 11.347252,8.742437 12.143504,8.3858972 12.149071,8.3812288 12.173001,8.3611667 12.095149,7.7714852 12.039916,7.5543617 11.701784,6.2252668 10.600265,5.2099419 9.1849479,4.9227971 8.841749,4.8531676 8.0353551,4.8601596 7.6865189,4.9357917 7.0170043,5.0809468 6.3904134,5.4006213 5.9048042,5.844789 5.7343161,6.0007285 5.4814044,6.2849893 5.4984015,6.3015682 c 0.00396,0.00386 0.6848388,0.039236 1.5130523,0.078596 0.8282135,0.039361 1.505843,0.0785 1.505843,0.086978 0,0.00848 -0.8421719,0.3912234 -1.8714927,0.8505477 l -1.8714927,0.835135 0.014031,0.3827049 c 0.033872,0.9238994 0.3852555,1.6889552 1.0835624,2.3592072 0.78355,0.75207 1.8607269,1.118038 2.9650193,1.007358 z"
     id="path6" />
</svg>
