<?xml version="1.0" encoding="UTF-8" standalone="no"?>
<svg
   width="64"
   height="64"
   version="1.1"
   viewBox="0 0 16.933 16.933"
   id="svg7"
   sodipodi:docname="abcd.svg"
   inkscape:version="1.4.3 (0d15f75042, 2025-12-25)"
   xmlns:inkscape="http://www.inkscape.org/namespaces/inkscape"
   xmlns:sodipodi="http://sodipodi.sourceforge.net/DTD/sodipodi-0.dtd"
   xmlns="http://www.w3.org/2000/svg"
   xmlns:svg="http://www.w3.org/2000/svg"
   xmlns:rdf="http://www.w3.org/1999/02/22-rdf-syntax-ns#"
   xmlns:cc="http://creativecommons.org/ns#"
   xmlns:dc="http://purl.org/dc/elements/1.1/">
  <sodipodi:namedview
     id="namedview7"
     pagecolor="#9c4444"
     bordercolor="#000000"
     borderopacity="0.25"
     inkscape:showpageshadow="2"
     inkscape:pageopacity="0.0"
     inkscape:pagecheckerboard="0"
     inkscape:deskcolor="#d1d1d1"
     inkscape:zoom="4.3531261"
     inkscape:cx="32.620236"
     inkscape:cy="33.768836"
     inkscape:window-width="1226"
     inkscape:window-height="669"
     inkscape:window-x="100"
     inkscape:window-y="206"
     inkscape:window-maximized="0"
     inkscape:current-layer="svg7"
     showgrid="false" />
  <defs
     id="defs2">
    <filter
       style="color-interpolation-filters:sRGB;"
       inkscape:label="Blur"
       id="filter5421"
       x="-0.12256455"
       y="-0.12342654"
       width="1.2451291"
       height="1.2468531">
      <feGaussianBlur
         stdDeviation="0.5 0.5"
         result="blur"
         id="feGaussianBlur5419" />
    </filter>
  </defs>
  <metadata
     id="metadata2">
    <rdf:RDF>
      <cc:Work
         rdf:about="">
        <dc:format>image/svg+xml</dc:format>
        <dc:type
           rdf:resource="http://purl.org/dc/dcmitype/StillImage" />
      </cc:Work>
    </rdf:RDF>
  </metadata>
  <rect
     style="opacity:0.3;fill:none;fill-opacity:0.996424;stroke:#000000;stroke-width:0.955221;stroke-dasharray:none;stroke-opacity:1;filter:url(#filter5421)"
     id="rect1-2-7"
     width="13.687567"
     height="13.591975"
     x="1.6227165"
     y="1.6705122"
     rx="2.8442214"
     ry="2.965905" />
  <rect
     style="fill:none;fill-opacity:1;stroke:{{colors.primary.default.hex}};stroke-width:0.955221;stroke-dasharray:none;stroke-opacity:1"
     id="rect1-2"
     width="13.687567"
     height="13.591975"
     x="1.6227167"
     y="1.6705124"
     rx="2.8442214"
     ry="2.965905" />
  <path
     style="fill:{{colors.primary.default.hex}};fill-opacity:1;stroke-width:0.00595699;stroke-opacity:0.5"
     d="m 4.8605743,12.45389 c -0.08515,-0.01574 -0.1090994,-0.0324 -0.1008077,-0.07015 0.00384,-0.01748 0.055077,-0.128287 0.1138599,-0.246236 C 5.0541995,11.775189 5.1052127,11.542042 5.105632,11.077165 5.105815,10.85722 5.102782,10.816106 5.0804085,10.737102 5.0402577,10.595309 4.9737305,10.424666 4.8836714,10.23246 4.616017,9.6612323 4.4915457,9.1611302 4.472684,8.5811904 4.4371186,7.4876465 4.8594875,6.4270832 5.6423182,5.6442525 6.4251527,4.8614177 7.4862774,4.4388617 8.5792561,4.4747179 c 0.2549852,0.00837 0.3685255,0.020183 0.6076114,0.063248 0.793827,0.1429827 1.5235225,0.526847 2.1029615,1.1062864 1.181084,1.1810845 1.502731,2.9482763 0.814869,4.4770587 -0.210844,0.468603 -0.562173,0.951271 -0.943526,1.296248 -0.627498,0.567641 -1.3638575,0.906117 -2.2185407,1.019772 -0.2146716,0.02855 -0.7240381,0.02843 -0.9412022,-1.94e-4 -0.2611677,-0.03445 -0.5157774,-0.09173 -0.8816322,-0.198323 -0.1100748,-0.03207 -0.2804,-0.0595 -0.3693325,-0.05947 -0.116892,3.6e-5 -0.2896458,0.03118 -0.6247464,0.112636 -0.3467704,0.08429 -0.504567,0.115722 -0.721531,0.143723 -0.1730396,0.02233 -0.4678566,0.03221 -0.5436133,0.01821 z M 9.6991687,10.319814 C 9.9864563,10.273264 10.274554,10.085091 10.375693,9.8779281 10.447506,9.7308406 10.489318,9.5049795 10.46283,9.4072605 10.435276,9.3056125 10.292191,9.2100185 9.8719208,9.0124815 9.658708,8.9122662 9.5660592,8.8790394 9.4998343,8.8790394 c -0.077717,0 -0.1167104,0.033878 -0.3116973,0.2708052 -0.1182881,0.143732 -0.195876,0.2176669 -0.228423,0.2176669 -0.01118,0 -0.062487,-0.014131 -0.1140166,-0.031401 C 8.4355341,9.1986374 8.0626985,8.9343902 7.8162244,8.6064706 7.7194655,8.4777392 7.6133937,8.2818626 7.588471,8.1858929 7.5743268,8.1314428 7.5749755,8.1286672 7.6162052,8.0667538 7.6394217,8.0318888 7.6921144,7.9631537 7.7332993,7.9140086 7.8800773,7.7388609 7.9023709,7.6791673 7.8717114,7.543402 7.8476701,7.4369392 7.7284726,7.1317588 7.637217,6.9430213 7.5475315,6.7575316 7.4962135,6.6914018 7.4062425,6.6453843 7.3372355,6.610088 7.3326641,6.6094306 7.1563897,6.6094306 c -0.1689356,0 -0.1834368,0.00184 -0.2450867,0.031129 -0.036039,0.017123 -0.086399,0.05197 -0.1119095,0.077441 -0.1312716,0.1310698 -0.2698705,0.3672316 -0.31036,0.5288268 -0.010674,0.042592 -0.022607,0.141776 -0.026525,0.2204082 -0.012936,0.2596588 0.030646,0.4590815 0.1562147,0.7148372 0.1906704,0.3883532 0.6289923,0.9583778 0.9825938,1.2778327 0.371187,0.3353429 0.7802405,0.5713085 1.2817459,0.7393855 0.3473339,0.116407 0.6058628,0.154587 0.8161058,0.120523 z"
     id="path5" />
</svg>
