<?xml version="1.0" encoding="UTF-8" standalone="no"?>
<svg
   width="64"
   height="64"
   version="1.1"
   viewBox="0 0 16.933 16.933"
   id="svg7"
   sodipodi:docname="abcd.svg"
   inkscape:version="1.4.3 (0d15f75042, 2025-12-25)"
   xmlns:inkscape="http://www.inkscape.org/namespaces/inkscape"
   xmlns:sodipodi="http://sodipodi.sourceforge.net/DTD/sodipodi-0.dtd"
   xmlns="http://www.w3.org/2000/svg"
   xmlns:svg="http://www.w3.org/2000/svg"
   xmlns:rdf="http://www.w3.org/1999/02/22-rdf-syntax-ns#"
   xmlns:cc="http://creativecommons.org/ns#"
   xmlns:dc="http://purl.org/dc/elements/1.1/">
  <sodipodi:namedview
     id="namedview7"
     pagecolor="#9c4444"
     bordercolor="#000000"
     borderopacity="0.25"
     inkscape:showpageshadow="2"
     inkscape:pageopacity="0.0"
     inkscape:pagecheckerboard="0"
     inkscape:deskcolor="#d1d1d1"
     inkscape:zoom="4.3531261"
     inkscape:cx="33.309396"
     inkscape:cy="31.241916"
     inkscape:window-width="1226"
     inkscape:window-height="669"
     inkscape:window-x="100"
     inkscape:window-y="206"
     inkscape:window-maximized="0"
     inkscape:current-layer="svg7"
     showgrid="false" />
  <defs
     id="defs2">
    <filter
       style="color-interpolation-filters:sRGB;"
       inkscape:label="Blur"
       id="filter5421"
       x="-0.12256455"
       y="-0.12342654"
       width="1.2451291"
       height="1.2468531">
      <feGaussianBlur
         stdDeviation="0.5 0.5"
         result="blur"
         id="feGaussianBlur5419" />
    </filter>
  </defs>
  <metadata
     id="metadata2">
    <rdf:RDF>
      <cc:Work
         rdf:about="">
        <dc:format>image/svg+xml</dc:format>
        <dc:type
           rdf:resource="http://purl.org/dc/dcmitype/StillImage" />
      </cc:Work>
    </rdf:RDF>
  </metadata>
  <rect
     style="opacity:0.3;fill:none;fill-opacity:0.996424;stroke:#000000;stroke-width:0.955221;stroke-dasharray:none;stroke-opacity:1;filter:url(#filter5421)"
     id="rect1-2-7"
     width="13.687567"
     height="13.591975"
     x="1.6227165"
     y="1.6705122"
     rx="2.8442214"
     ry="2.965905" />
  <rect
     style="fill:none;fill-opacity:1;stroke:{{colors.primary.default.hex}};stroke-width:0.955221;stroke-dasharray:none;stroke-opacity:1"
     id="rect1-2"
     width="13.687567"
     height="13.591975"
     x="1.6227167"
     y="1.6705124"
     rx="2.8442214"
     ry="2.965905" />
  <path
     style="fill:{{colors.primary.default.hex}};fill-opacity:1;stroke:none;stroke-width:0.127719;stroke-dasharray:none;stroke-opacity:0.6"
     d="m 7.2333803,4.4851299 c -0.024425,6.041e-4 -0.05056,0.00768 -0.075487,0.024201 -0.024918,0.016538 -0.045369,0.046807 -0.05032,0.072608 -0.0099,0.0516 0.0022,0.076297 0.025152,0.1210124 0.1058459,0.1834546 0.2104762,0.3265816 0.2516069,0.4356518 0.070651,0.1512345 0.069648,0.2917818 0.050319,0.3872421 L 7.3088533,6.1067154 C 6.6736749,6.248202 6.0606155,6.3912014 5.446956,6.5907872 5.3275138,6.627536 5.2365216,6.6645304 5.1450295,6.7118033 c -0.00833,-0.00132 -0.016831,-0.00132 -0.025157,0 -0.032151,0.018415 -0.033655,0.04554 -0.05032,0.072607 -0.00833,0.013535 -0.022846,0.029306 -0.02516,0.048407 -0.00228,0.019098 0.00712,0.050283 0.02516,0.07261 0.053589,0.071028 0.1256282,0.1003821 0.2264434,0.1452181 0.1008141,0.04483 0.2166156,0.091064 0.301926,0.1210113 C 6.0247105,7.3214809 6.5735558,7.4426039 7.0068909,7.486293 6.8901952,7.992743 6.7774399,8.493339 6.6043245,8.9868478 6.5621756,9.1069953 6.508451,9.2321404 6.453361,9.3498872 6.2951372,9.6880839 6.094453,9.9968564 5.8998096,10.293781 c -0.2055827,0.277279 -0.3788178,0.547583 -0.603862,0.798676 -0.041979,0.04276 -0.1097344,0.07937 -0.1509633,0.121013 -0.02061,0.02084 -0.035313,0.05415 -0.05032,0.07262 -0.00751,0.0093 -0.018744,0.01298 -0.025158,0.0242 -0.00644,0.0112 -0.00244,0.01708 0,0.0484 -0.00139,0.008 -0.00139,0.01619 0,0.0242 0.00631,0.0098 0.014935,0.01813 0.025158,0.02421 0.00631,0.0098 0.014932,0.01814 0.025163,0.02422 0.00833,0.0012 0.016831,0.0012 0.025157,0 0.04495,0.0065 0.082154,-0.01112 0.1258039,-0.02422 0.043647,-0.01307 0.073673,-0.02489 0.1258033,-0.0484 0.104255,-0.04704 0.238739,-0.100353 0.3522467,-0.169422 0.1630705,-0.09923 0.2833812,-0.200127 0.3774069,-0.266229 0.1657056,-0.116493 0.5388765,-0.450625 0.7296393,-0.677669 0.219196,-0.239934 0.452586,-0.4973706 0.6290183,-0.8228852 0.00338,-0.00623 -0.00338,-0.017908 0,-0.024207 0.012027,-0.01996 0.081734,-0.1482402 0.1006431,-0.1936171 0.037819,-0.090754 0.063112,-0.1808117 0.075484,-0.2178265 L 8.2145817,7.3652736 10.151945,6.9296214 C 10.103885,7.3206611 10.049975,7.699469 10.000983,8.091361 9.963648,8.4144227 9.93815,8.5445332 9.9003382,8.8900377 c -0.00117,0.010328 0.00118,0.013472 0,0.024207 -0.021462,0.106493 -0.083871,0.4056685 -0.1006429,0.4840706 -0.1286022,0.6011375 -0.2667567,1.1462517 -0.5535509,1.6215627 -0.068613,0.09272 -0.1479868,0.190223 -0.2264433,0.26623 -0.079353,-0.03704 -0.190678,-0.08862 -0.3522461,-0.09681 -0.00278,-3.93e-4 -0.017396,3.41e-4 -0.025157,0 -0.00833,-0.0013 -0.016826,-0.0013 -0.025157,0 -3.941e-4,1.01e-4 -0.024995,0.02403 -0.025157,0.0242 -0.010228,0.006 -0.018836,0.01435 -0.025157,0.02421 -0.010672,0.05496 0.00856,0.09746 0.025157,0.145217 0.016608,0.04776 0.030152,0.101303 0.05032,0.145219 0.1454703,0.31675 0.3161729,0.589749 0.4780416,0.871305 0.00631,0.0098 0.014935,0.01813 0.025157,0.02422 0.00631,0.0098 0.014937,0.01813 0.025157,0.02421 0.00832,0.0012 0.016826,0.0012 0.025165,0 0.00832,0.0012 0.016826,0.0012 0.025157,0 0.010228,-0.0061 0.018835,-0.01436 0.025157,-0.02421 0.2417039,-0.220375 0.5255301,-0.575178 0.7296415,-0.871307 0.4014929,-0.579277 0.7409359,-1.226882 0.9812819,-1.9604154 0.03591,-0.1141074 0.06516,-0.2296043 0.100644,-0.3630396 L 11.8125,6.4456026 C 11.84441,6.3226 11.88132,6.1858918 11.88798,6.082563 c 0.0012,-0.00801 0.0012,-0.016188 0,-0.024201 C 11.87236,6.022532 11.83819,6.003831 11.8125,5.985756 11.78679,5.967682 11.76951,5.95295 11.73702,5.937349 11.67286,5.905136 11.586857,5.86699 11.511134,5.839515 11.149203,5.7222109 10.75561,5.6166927 10.328653,5.5248713 c -0.04577,-0.019068 -0.07658,-0.026719 -0.125779,-0.02417 -0.049,0.00255 -0.1215,0.014383 -0.176125,0.024201 -0.1092485,0.019637 -0.2217551,0.056254 -0.301927,0.072609 L 8.7181665,5.8153071 C 8.7609488,5.6866134 8.8306826,5.4969189 8.7686492,5.2586466 8.682658,4.9881999 8.4610497,4.8304395 8.215056,4.7504049 8.0054259,4.682196 7.8009301,4.6215132 7.5861663,4.556768 7.5510851,4.5462931 7.3932212,4.4925406 7.2336464,4.4841795 Z"
     id="path8-7" />
</svg>
