<?xml version="1.0" encoding="UTF-8" standalone="no"?>
<svg
   width="64"
   height="64"
   version="1.1"
   viewBox="0 0 16.933 16.933"
   id="svg7"
   sodipodi:docname="abcd.svg"
   inkscape:version="1.4.3 (0d15f75042, 2025-12-25)"
   xmlns:inkscape="http://www.inkscape.org/namespaces/inkscape"
   xmlns:sodipodi="http://sodipodi.sourceforge.net/DTD/sodipodi-0.dtd"
   xmlns="http://www.w3.org/2000/svg"
   xmlns:svg="http://www.w3.org/2000/svg"
   xmlns:rdf="http://www.w3.org/1999/02/22-rdf-syntax-ns#"
   xmlns:cc="http://creativecommons.org/ns#"
   xmlns:dc="http://purl.org/dc/elements/1.1/">
  <sodipodi:namedview
     id="namedview7"
     pagecolor="#9c4444"
     bordercolor="#000000"
     borderopacity="0.25"
     inkscape:showpageshadow="2"
     inkscape:pageopacity="0.0"
     inkscape:pagecheckerboard="0"
     inkscape:deskcolor="#d1d1d1"
     inkscape:zoom="4.3531261"
     inkscape:cx="32.620236"
     inkscape:cy="33.768836"
     inkscape:window-width="1226"
     inkscape:window-height="669"
     inkscape:window-x="100"
     inkscape:window-y="206"
     inkscape:window-maximized="0"
     inkscape:current-layer="svg7"
     showgrid="false" />
  <defs
     id="defs2">
    <filter
       style="color-interpolation-filters:sRGB;"
       inkscape:label="Blur"
       id="filter5421"
       x="-0.12256455"
       y="-0.12342654"
       width="1.2451291"
       height="1.2468531">
      <feGaussianBlur
         stdDeviation="0.5 0.5"
         result="blur"
         id="feGaussianBlur5419" />
    </filter>
  </defs>
  <metadata
     id="metadata2">
    <rdf:RDF>
      <cc:Work
         rdf:about="">
        <dc:format>image/svg+xml</dc:format>
        <dc:type
           rdf:resource="http://purl.org/dc/dcmitype/StillImage" />
      </cc:Work>
    </rdf:RDF>
  </metadata>
  <rect
     style="opacity:0.3;fill:none;fill-opacity:0.996424;stroke:#000000;stroke-width:0.955221;stroke-dasharray:none;stroke-opacity:1;filter:url(#filter5421)"
     id="rect1-2-7"
     width="13.687567"
     height="13.591975"
     x="1.6227165"
     y="1.6705122"
     rx="2.8442214"
     ry="2.965905" />
  <rect
     style="fill:none;fill-opacity:1;stroke:{{colors.primary.default.hex}};stroke-width:0.955221;stroke-dasharray:none;stroke-opacity:1"
     id="rect1-2"
     width="13.687567"
     height="13.591975"
     x="1.6227167"
     y="1.6705124"
     rx="2.8442214"
     ry="2.965905" />
  <path
     d="M 9.5993704,6.1399082 C 9.458638,6.1347098 9.2979124,6.1908002 9.0496833,6.2840164 8.7863945,6.3829443 8.5158357,6.463437 8.4483257,6.463437 8.3802972,6.463437 8.1723141,6.3990431 7.9848442,6.3195891 7.5182469,6.1209539 7.3315556,6.0944693 7.1409701,6.1998887 7.0563231,6.2466262 6.7426615,6.5402947 6.4430217,6.851879 5.9875891,7.3254869 5.8536073,7.43558 5.6284883,7.5254197 5.2743203,7.6671912 4.9759787,7.7014652 4.7308653,7.6279834 4.3982493,7.5282762 4.2185688,7.7152273 4.3616382,8.0112323 4.4982156,8.2937347 5.0429688,8.5497538 5.7655844,8.670492 6.7686267,8.8384882 7.432821,8.6824377 8.13778,8.1148333 8.2730601,8.0060385 8.4233989,7.9169781 8.4716946,7.9169781 c 0.048035,0 0.2118774,0.1007454 0.3640341,0.2230419 0.3611784,0.2908119 0.5372236,0.3832488 0.9656519,0.5091808 0.3045724,0.089842 0.4221984,0.099966 0.8508854,0.073221 0.900998,-0.056606 1.504172,-0.246671 1.82173,-0.5751325 0.106977,-0.1106127 0.146963,-0.1957789 0.146963,-0.310546 0,-0.2305724 -0.124375,-0.2882149 -0.442189,-0.2066839 -0.192663,0.049854 -0.299641,0.050634 -0.493863,0.00701 C 11.209743,7.5306124 10.994747,7.3836488 10.441166,6.7890421 10.010663,6.3273775 9.8330587,6.1484764 9.5993704,6.1399082 Z M 8.2068478,8.9768835 c -0.1422895,0 -0.2596538,0.1173633 -0.2596538,0.2596537 0,0.017138 0.00184,0.034015 0.0052,0.050633 L 8.2120443,10.58544 c 0.024149,0.120998 0.1311254,0.208502 0.254461,0.208502 0.1233346,0 0.2303125,-0.0875 0.2544602,-0.208502 L 8.9806137,9.2871693 c 0.00337,-0.016618 0.0052,-0.033494 0.0052,-0.050633 0,-0.1422908 -0.1173635,-0.259654 -0.2596543,-0.259654 z"
     fill="#ffffff"
     fill-opacity="0.89"
     fill-rule="nonzero"
     id="path3-3"
     style="fill:{{colors.primary.default.hex}};fill-opacity:1;stroke:none;stroke-width:0.133801;stroke-dasharray:none;stroke-opacity:0.6" />
</svg>
