<?xml version="1.0" encoding="UTF-8" standalone="no"?>
<svg
   width="64"
   height="64"
   version="1.1"
   viewBox="0 0 16.933 16.933"
   id="svg7"
   sodipodi:docname="abcd.svg"
   inkscape:version="1.4.3 (0d15f75042, 2025-12-25)"
   xmlns:inkscape="http://www.inkscape.org/namespaces/inkscape"
   xmlns:sodipodi="http://sodipodi.sourceforge.net/DTD/sodipodi-0.dtd"
   xmlns="http://www.w3.org/2000/svg"
   xmlns:svg="http://www.w3.org/2000/svg"
   xmlns:rdf="http://www.w3.org/1999/02/22-rdf-syntax-ns#"
   xmlns:cc="http://creativecommons.org/ns#"
   xmlns:dc="http://purl.org/dc/elements/1.1/">
  <sodipodi:namedview
     id="namedview7"
     pagecolor="#9c4444"
     bordercolor="#000000"
     borderopacity="0.25"
     inkscape:showpageshadow="2"
     inkscape:pageopacity="0.0"
     inkscape:pagecheckerboard="0"
     inkscape:deskcolor="#d1d1d1"
     inkscape:zoom="4.3531261"
     inkscape:cx="40.200995"
     inkscape:cy="23.431437"
     inkscape:window-width="1226"
     inkscape:window-height="669"
     inkscape:window-x="474"
     inkscape:window-y="225"
     inkscape:window-maximized="0"
     inkscape:current-layer="svg7"
     showgrid="false" />
  <defs
     id="defs2">
    <filter
       style="color-interpolation-filters:sRGB;"
       inkscape:label="Blur"
       id="filter5421"
       x="-0.12256455"
       y="-0.12342654"
       width="1.2451291"
       height="1.2468531">
      <feGaussianBlur
         stdDeviation="0.5 0.5"
         result="blur"
         id="feGaussianBlur5419" />
    </filter>
  </defs>
  <metadata
     id="metadata2">
    <rdf:RDF>
      <cc:Work
         rdf:about="">
        <dc:format>image/svg+xml</dc:format>
        <dc:type
           rdf:resource="http://purl.org/dc/dcmitype/StillImage" />
      </cc:Work>
    </rdf:RDF>
  </metadata>
  <rect
     style="opacity:0.3;fill:none;fill-opacity:0.996424;stroke:#000000;stroke-width:0.955221;stroke-dasharray:none;stroke-opacity:1;filter:url(#filter5421)"
     id="rect1-2-7"
     width="13.687567"
     height="13.591975"
     x="1.6227165"
     y="1.6705122"
     rx="2.8442214"
     ry="2.965905" />
  <rect
     style="fill:none;fill-opacity:1;stroke:{{colors.primary.default.hex}};stroke-width:0.955221;stroke-dasharray:none;stroke-opacity:1"
     id="rect1-2"
     width="13.687567"
     height="13.591975"
     x="1.6227167"
     y="1.6705124"
     rx="2.8442214"
     ry="2.965905" />
  <path
     style="fill:{{colors.primary.default.hex}};fill-opacity:1;stroke-width:0.0170093"
     d="M 8.2170189,11.012302 C 7.7186499,10.912843 7.1374088,10.667932 6.1985886,10.161822 5.4887829,9.7791711 4.7277384,9.357827 4.6190321,9.2873162 4.528855,9.2288247 4.4875453,9.1815943 4.4375998,9.0798795 4.3774025,8.9572859 4.37293,8.9293576 4.37293,8.6760305 c 0,-0.2581207 0.03492,-0.4541867 0.098124,-0.5509446 0.014493,-0.02219 0.1848939,0.052845 0.7002571,0.3083634 1.2289295,0.6093069 2.0499879,0.9276709 2.9377104,1.1390921 L 8.4205863,9.646744 8.3281104,9.7470685 C 8.1853694,9.9019237 8.1191712,10.068081 8.107894,10.299807 c -0.012051,0.247661 0.030041,0.399221 0.1660483,0.597882 0.05584,0.08156 0.099044,0.147336 0.096009,0.146164 -0.00303,-0.0011 -0.071854,-0.01537 -0.1529324,-0.03155 z m 0.4761123,-0.03287 C 8.5162589,10.925636 8.4276302,10.843054 8.3390084,10.649479 8.2134821,10.375294 8.2681785,10.049486 8.4734757,9.8485002 8.612535,9.7123612 8.7004573,9.68401 9.024094,9.6709477 9.184133,9.6644948 9.4133566,9.6370073 9.5598489,9.6067168 9.8986638,9.536662 11.914597,9.0968261 11.962273,9.0825561 c 0.04981,-0.014905 0.06682,-0.088953 0.03151,-0.1372323 -0.03113,-0.042585 -0.01254,-0.046226 -1.951108,0.382051 C 9.3810689,9.4735409 9.293907,9.4877868 9.0561414,9.4886183 8.8377508,9.4893538 8.774154,9.4812166 8.6651127,9.4384145 8.4250576,9.3441824 8.3118049,9.1721876 8.2911226,8.8704447 8.2662644,8.5077765 8.4341396,8.2023776 8.7303856,8.0713342 8.8075343,8.0372071 10.277994,7.7463996 12.178903,7.389334 c 0.286248,-0.053769 0.294496,-0.051565 0.37146,0.099298 0.07565,0.1482866 0.05105,0.3119609 -0.06547,0.4356039 -0.08009,0.084992 -0.11635,0.09742 -0.479112,0.1642177 -0.169146,0.031146 -0.889254,0.168904 -1.600242,0.3061283 -1.3241311,0.2555652 -1.3493997,0.2623578 -1.3493997,0.3627331 0,0.082494 -0.1144478,0.1010702 2.4493317,-0.3975512 0.355493,-0.069139 0.696174,-0.1257672 0.757068,-0.1258402 0.09719,-1.111e-4 0.119844,0.00954 0.185401,0.079055 0.161728,0.1714823 0.215405,0.497599 0.122686,0.7454095 -0.09201,0.245909 -0.277175,0.3901766 -0.683861,0.532803 -0.233727,0.081969 -0.41242,0.1204545 -1.753373,0.3776206 -1.0445453,0.2003243 -1.1218902,0.2224753 -1.0877221,0.3115163 0.00769,0.02003 0.025946,0.0408 0.040572,0.04615 0.039817,0.01456 1.7666601,-0.304431 2.2428281,-0.414318 0.227992,-0.052616 0.511482,-0.1313713 0.62998,-0.1750146 0.412644,-0.1519801 0.416998,-0.1520364 0.515947,-0.00674 0.05971,0.087689 0.06409,0.1747772 0.01677,0.3341176 -0.05128,0.172685 -0.12909,0.242731 -0.317931,0.286212 -0.08694,0.02003 -0.392812,0.092 -0.6797,0.159941 -0.690341,0.163502 -1.433919,0.315258 -2.0165067,0.411544 -0.4647039,0.07681 -0.670689,0.09183 -0.7844961,0.05721 z M 7.9550368,9.357384 C 7.1633493,9.1522038 6.301976,8.8070357 5.173968,8.2429588 4.8661318,8.089021 4.5783036,7.9314959 4.5343484,7.8929039 4.2514992,7.6445583 4.2435556,7.1591827 4.5175461,6.8662646 4.6444458,6.7305979 4.7732653,6.6630368 4.9966018,6.6150156 5.1444786,6.5832204 7.5070002,6.128685 8.4438084,5.9517936 c 0.421731,-0.079633 0.783135,-0.083422 1.0534092,-0.011048 0.1056208,0.028283 0.3967442,0.1528936 0.7030484,0.3009266 0.28753,0.1389589 0.844255,0.4049937 1.23717,0.591189 0.392912,0.1861948 0.722789,0.3466551 0.733057,0.3565794 0.02498,0.024143 0.06361,0.016002 -1.186638,0.2500242 C 9.2707911,7.7601175 8.7378806,7.8695974 8.6105452,7.9270327 8.2833622,8.0746086 8.0555665,8.5512128 8.1216381,8.9499426 c 0.020317,0.122607 0.065084,0.238375 0.1812987,0.4688249 0.014179,0.028115 -0.0383,0.018859 -0.3479,-0.061383 z"
     id="path1" />
</svg>
