<?xml version="1.0" encoding="UTF-8" standalone="no"?>
<svg
   width="64"
   height="64"
   version="1.1"
   viewBox="0 0 16.933 16.933"
   id="svg7"
   sodipodi:docname="abcd.svg"
   inkscape:version="1.4.3 (0d15f75042, 2025-12-25)"
   xmlns:inkscape="http://www.inkscape.org/namespaces/inkscape"
   xmlns:sodipodi="http://sodipodi.sourceforge.net/DTD/sodipodi-0.dtd"
   xmlns="http://www.w3.org/2000/svg"
   xmlns:svg="http://www.w3.org/2000/svg"
   xmlns:rdf="http://www.w3.org/1999/02/22-rdf-syntax-ns#"
   xmlns:cc="http://creativecommons.org/ns#"
   xmlns:dc="http://purl.org/dc/elements/1.1/">
  <sodipodi:namedview
     id="namedview7"
     pagecolor="#9c4444"
     bordercolor="#000000"
     borderopacity="0.25"
     inkscape:showpageshadow="2"
     inkscape:pageopacity="0.0"
     inkscape:pagecheckerboard="0"
     inkscape:deskcolor="#d1d1d1"
     inkscape:zoom="4.3531261"
     inkscape:cx="33.768836"
     inkscape:cy="30.552756"
     inkscape:window-width="1226"
     inkscape:window-height="669"
     inkscape:window-x="100"
     inkscape:window-y="206"
     inkscape:window-maximized="0"
     inkscape:current-layer="svg7"
     showgrid="false" />
  <defs
     id="defs2">
    <filter
       style="color-interpolation-filters:sRGB;"
       inkscape:label="Blur"
       id="filter5421"
       x="-0.12256455"
       y="-0.12342654"
       width="1.2451291"
       height="1.2468531">
      <feGaussianBlur
         stdDeviation="0.5 0.5"
         result="blur"
         id="feGaussianBlur5419" />
    </filter>
  </defs>
  <metadata
     id="metadata2">
    <rdf:RDF>
      <cc:Work
         rdf:about="">
        <dc:format>image/svg+xml</dc:format>
        <dc:type
           rdf:resource="http://purl.org/dc/dcmitype/StillImage" />
      </cc:Work>
    </rdf:RDF>
  </metadata>
  <rect
     style="opacity:0.3;fill:none;fill-opacity:0.996424;stroke:#000000;stroke-width:0.955221;stroke-dasharray:none;stroke-opacity:1;filter:url(#filter5421)"
     id="rect1-2-7"
     width="13.687567"
     height="13.591975"
     x="1.6227165"
     y="1.6705122"
     rx="2.8442214"
     ry="2.965905" />
  <rect
     style="fill:none;fill-opacity:1;stroke:{{colors.primary.default.hex}};stroke-width:0.955221;stroke-dasharray:none;stroke-opacity:1"
     id="rect1-2"
     width="13.687567"
     height="13.591975"
     x="1.6227167"
     y="1.6705124"
     rx="2.8442214"
     ry="2.965905" />
  <path
     style="fill:{{colors.primary.default.hex}};fill-opacity:1;stroke:none;stroke-width:0.124207;stroke-dasharray:none;stroke-opacity:0.6"
     d="M 8.3303063,12.478198 C 8.2863312,12.456036 8.2182879,12.413433 8.1790987,12.383529 8.0005061,12.247263 6.8720034,11.265955 6.7718754,11.159856 6.5678806,10.943695 6.634583,11.148749 5.7274351,7.9491242 5.2881147,6.399586 4.9196875,5.0936785 4.9087074,5.0471087 4.880714,4.9283788 4.8828609,4.8300504 4.9148034,4.7674242 4.9667294,4.6656414 5.0597642,4.6080439 5.3533671,4.4959122 l 0.2131648,-0.081411 h 2.9002839 2.9002822 l 0.207187,0.079178 c 0.32421,0.1238995 0.408592,0.1764473 0.452646,0.2818845 0.02686,0.064287 0.02128,0.1978121 -0.01378,0.3289268 -0.0169,0.063249 -0.38511,1.3630684 -0.818231,2.8884871 -0.894473,3.1502714 -0.829535,2.9512254 -1.033161,3.1667354 -0.100767,0.106648 -1.228235,1.087272 -1.4060987,1.222966 -0.1068269,0.08149 -0.2223508,0.135819 -0.2888466,0.135819 -0.03584,0 -0.085848,-0.01477 -0.1365136,-0.04029 z m 0.3058365,-0.839203 c 0.089178,-0.04469 0.1621425,-0.08684 0.1621425,-0.09362 0,-0.0066 -0.018381,-0.175687 -0.040844,-0.375323 L 8.716592,10.807068 8.5987524,10.688682 C 8.5339401,10.62355 8.474571,10.570294 8.4668198,10.570294 c -0.00774,0 -0.067121,0.05328 -0.1319327,0.118388 l -0.1178402,0.118386 -0.040844,0.362974 c -0.022469,0.199636 -0.040846,0.368527 -0.040846,0.375315 0,0.01125 0.3040339,0.172574 0.3282917,0.174219 0.00569,4.36e-4 0.083318,-0.03586 0.1724967,-0.08059 z M 7.7633009,10.536222 c 0.1860267,-0.01846 0.3480805,-0.03355 0.360119,-0.03356 0.012655,-1.1e-5 0.057323,-0.05377 0.1059269,-0.127465 l 0.084039,-0.127448 -0.082463,-0.122638 c -0.053516,-0.0796 -0.093072,-0.124863 -0.1126903,-0.1289719 -0.038485,-0.00812 -0.7254507,-0.07527 -0.7693965,-0.07527 -0.02856,0 -0.043498,0.021442 -0.1132729,0.1625519 l -0.080375,0.162554 0.084218,0.169071 0.084218,0.169072 0.050724,-0.0072 c 0.027896,-0.004 0.2029272,-0.02227 0.3889539,-0.04072 z M 9.694314,10.414905 9.7784541,10.245993 9.698078,10.083441 C 9.6283026,9.9423257 9.6133654,9.920889 9.5848053,9.920889 c -0.04395,0 -0.7309137,0.067197 -0.7693968,0.075261 -0.019619,0.00416 -0.059172,0.049391 -0.1126913,0.128971 l -0.082462,0.122638 0.084038,0.127447 c 0.069755,0.105786 0.090058,0.127597 0.119456,0.128322 0.019477,4.89e-4 0.1967534,0.01802 0.3939424,0.03898 0.1971879,0.02097 0.3661649,0.03882 0.3755034,0.03972 0.00933,9.31e-4 0.054839,-0.0744 0.101119,-0.167287 z M 8.5990555,9.8021977 8.7171986,9.6835041 8.9212556,7.6834273 9.1253122,5.6833478 8.79732,5.1909813 C 8.6169243,4.9201798 8.4681992,4.6986152 8.4668203,4.6986152 c -0.0014,0 -0.1501046,0.2215646 -0.3305004,0.4923661 L 7.8083281,5.6833478 8.0123845,7.6834273 8.2164419,9.6835041 8.3345838,9.8021977 c 0.06498,0.065283 0.1244851,0.1186913 0.1322365,0.1186913 0.00774,0 0.067257,-0.053409 0.1322352,-0.1186913 z"
     id="path6" />
</svg>
