<?xml version="1.0" encoding="UTF-8" standalone="no"?>
<svg
   width="64"
   height="64"
   version="1.1"
   viewBox="0 0 16.933 16.933"
   id="svg7"
   sodipodi:docname="abcd.svg"
   inkscape:version="1.4.3 (0d15f75042, 2025-12-25)"
   xmlns:inkscape="http://www.inkscape.org/namespaces/inkscape"
   xmlns:sodipodi="http://sodipodi.sourceforge.net/DTD/sodipodi-0.dtd"
   xmlns="http://www.w3.org/2000/svg"
   xmlns:svg="http://www.w3.org/2000/svg"
   xmlns:rdf="http://www.w3.org/1999/02/22-rdf-syntax-ns#"
   xmlns:cc="http://creativecommons.org/ns#"
   xmlns:dc="http://purl.org/dc/elements/1.1/">
  <sodipodi:namedview
     id="namedview7"
     pagecolor="#9c4444"
     bordercolor="#000000"
     borderopacity="0.25"
     inkscape:showpageshadow="2"
     inkscape:pageopacity="0.0"
     inkscape:pagecheckerboard="0"
     inkscape:deskcolor="#d1d1d1"
     inkscape:zoom="4.3531261"
     inkscape:cx="43.417074"
     inkscape:cy="20.674797"
     inkscape:window-width="1226"
     inkscape:window-height="669"
     inkscape:window-x="474"
     inkscape:window-y="225"
     inkscape:window-maximized="0"
     inkscape:current-layer="svg7"
     showgrid="false" />
  <defs
     id="defs2">
    <filter
       style="color-interpolation-filters:sRGB;"
       inkscape:label="Blur"
       id="filter5421"
       x="-0.12256455"
       y="-0.12342654"
       width="1.2451291"
       height="1.2468531">
      <feGaussianBlur
         stdDeviation="0.5 0.5"
         result="blur"
         id="feGaussianBlur5419" />
    </filter>
  </defs>
  <metadata
     id="metadata2">
    <rdf:RDF>
      <cc:Work
         rdf:about="">
        <dc:format>image/svg+xml</dc:format>
        <dc:type
           rdf:resource="http://purl.org/dc/dcmitype/StillImage" />
      </cc:Work>
    </rdf:RDF>
  </metadata>
  <rect
     style="opacity:0.3;fill:none;fill-opacity:0.996424;stroke:#000000;stroke-width:0.955221;stroke-dasharray:none;stroke-opacity:1;filter:url(#filter5421)"
     id="rect1-2-7"
     width="13.687567"
     height="13.591975"
     x="1.6227165"
     y="1.6705122"
     rx="2.8442214"
     ry="2.965905" />
  <rect
     style="fill:none;fill-opacity:1;stroke:{{colors.primary.default.hex}};stroke-width:0.955221;stroke-dasharray:none;stroke-opacity:1"
     id="rect1-2"
     width="13.687567"
     height="13.591975"
     x="1.6227167"
     y="1.6705124"
     rx="2.8442214"
     ry="2.965905" />
  <path
     id="path12"
     style="fill:{{colors.primary.default.hex}};fill-opacity:1;stroke:none;stroke-width:0.0228234;stroke-dasharray:none"
     d="m 7.6445047,4.6437769 c -0.8212201,0 -1.5559132,0.5298084 -1.8112926,1.3061819 l -0.041937,0.1282147 -0.081469,0.025909 C 5.1961605,6.2685207 4.763718,6.7062468 4.5908705,7.2369085 4.5288896,7.427199 4.5102022,7.5542948 4.5102022,7.7820862 c 0,0.2279284 0.018802,0.3546928 0.080935,0.5454441 0.1979186,0.6076202 0.6881693,1.0482341 1.3262155,1.1921245 0.09525,0.021484 0.1453591,0.02492 0.362739,0.025108 l 0.2521547,2.37e-4 0.028849,0.051551 c 0.097767,0.1745304 0.332307,0.4265462 0.52274,0.5617372 0.130958,0.09297 0.3676546,0.213329 0.5075146,0.258299 0.089036,0.02862 0.266812,0.06897 0.3766287,0.08546 0.01883,0.0028 0.1367759,0.0036 0.2623047,0.0016 0.2487182,-0.004 0.3509505,-0.01975 0.5555947,-0.08575 0.1448993,-0.04671 0.3803355,-0.166095 0.5115212,-0.259365 0.059628,-0.0424 0.1684957,-0.136955 0.2420043,-0.2099518 l 0.1335568,-0.1327554 0.057694,0.026981 c 0.085354,0.039534 0.2286678,0.082489 0.3392326,0.1017722 0.124445,0.021707 0.344627,0.02165 0.478132,0 0.525076,-0.08516 0.965931,-0.4705153 1.127484,-0.9853799 0.03481,-0.1109546 0.06376,-0.2776239 0.06385,-0.3675472 v -0.063001 l 0.08734,-0.062504 C 12.073602,8.289667 12.268494,8.019354 12.360919,7.7248932 12.453658,7.4294421 12.44164,7.0839301 12.328324,6.7905321 12.251487,6.5915747 12.139902,6.4249304 11.983484,6.2750191 11.753179,6.0542955 11.465313,5.9175642 11.156503,5.8823636 11.09433,5.8752699 11.092363,5.8738801 11.06702,5.8217291 10.97026,5.6225683 10.760674,5.4155677 10.546952,5.3083357 10.318402,5.1936638 10.004772,5.1609152 9.7538946,5.2252642 9.6223854,5.2589955 9.4482765,5.344058 9.3337262,5.4306741 9.2816162,5.4700769 9.2377195,5.5002724 9.23623,5.4979857 9.1342917,5.3416327 8.9167563,5.1146689 8.7658446,5.0073005 8.4304889,4.7686948 8.0449443,4.6437467 7.6445047,4.6437467 Z m 2.9708283,1.3467835 0.04541,0.025643 c 0.02644,0.015051 0.05961,0.048992 0.07988,0.081737 l 0.03445,0.056093 0.0034,0.5085832 c 0.0037,0.5517237 0.0017,0.5737158 -0.0569,0.64481 -0.07106,0.086212 -0.0084,0.080935 -0.945046,0.080935 -0.4613168,0 -0.8531019,-0.00395 -0.8705204,-0.00881 C 8.8581765,7.3661765 8.7875021,7.2959018 8.7666059,7.241185 8.75638,7.2144092 8.7444257,7.1483575 8.7401619,7.0945402 L 8.7324194,6.9967773 8.5299478,7.1639893 8.3277434,7.3312022 8.3275064,7.782623 8.3272693,8.2340437 8.5300083,8.4009892 8.73248,8.5682017 8.740213,8.469905 C 8.744473,8.41582 8.756431,8.3495022 8.766656,8.3227263 8.786741,8.2701253 8.85856,8.1972993 8.9004795,8.1870325 c 0.01428,-0.00352 0.4118884,-0.00497 0.8836084,-0.00319 l 0.8577001,0.00319 0.04302,0.034992 c 0.02368,0.019166 0.05377,0.055095 0.06678,0.079866 0.02272,0.04334 0.02365,0.064599 0.02671,0.5625396 l 0.0031,0.5173974 -0.02753,0.0601 c -0.01639,0.035795 -0.04498,0.073269 -0.07077,0.092955 l -0.04329,0.033121 -0.8625077,0.0029 C 8.8418098,9.5740961 8.8890642,9.5768633 8.8192907,9.5129617 8.7636856,9.4620537 8.7463401,9.3984359 8.7391891,9.220486 L 8.7325167,9.0554164 8.3844691,8.7672016 8.0364209,8.4787198 6.843762,8.4755133 5.6513701,8.4723069 5.6000848,8.4437258 C 5.5359324,8.4079105 5.4803625,8.3271777 5.4633006,8.2449927 5.4547219,8.2036627 5.4516227,8.0383967 5.4539509,7.745759 l 0.00348,-0.4372637 0.03152,-0.064641 c 0.017614,-0.035878 0.049935,-0.078301 0.072649,-0.095625 0.084193,-0.064216 0.046803,-0.062236 1.3101883,-0.062236 h 1.1654085 l 0.3488489,-0.288216 0.3488498,-0.2882151 0.00508,-0.1669456 c 0.00452,-0.1490968 0.00808,-0.1725078 0.033122,-0.221169 0.015416,-0.029952 0.047764,-0.070519 0.071854,-0.090017 L 8.8887534,5.996172 9.7520626,5.993227 Z M 9.0121219,6.2985413 V 6.6922658 7.0859904 H 9.7651134 10.518374 V 6.6922658 6.2985413 H 9.7651134 Z M 5.7255657,7.3824855 V 7.7820864 8.1814199 H 6.8893766 8.0534543 V 7.7820864 7.3824855 H 6.8893766 Z M 9.0121219,8.4781822 V 8.8719067 9.2656314 H 9.7651134 10.518374 V 8.8719067 8.4781822 H 9.7651134 Z m 0.5342259,2.0455518 c -0.010061,1.93e-4 -0.020061,8.57e-4 -0.029918,0.0016 -0.2917054,0.02348 -0.5311876,0.219866 -0.6135585,0.503239 -0.023934,0.08235 -0.026726,0.237 -0.00588,0.325345 0.057169,0.242226 0.2640417,0.44983 0.5072474,0.508848 0.081865,0.01988 0.229562,0.01913 0.3101188,-0.0014 0.2440519,-0.06203 0.4391275,-0.254961 0.5019025,-0.496295 0.02639,-0.101447 0.01799,-0.284904 -0.01763,-0.386244 -0.03506,-0.09973 -0.125659,-0.23083 -0.2032712,-0.29436 C 9.8699083,10.581822 9.6973296,10.520493 9.5463366,10.523703 Z m -2.0396733,0.684609 c -0.2014276,1.14e-4 -0.3945073,0.115006 -0.4888168,0.312524 -0.04214,0.08826 -0.042739,0.09192 -0.042739,0.227579 v 0.137561 l 0.048347,0.09803 c 0.073553,0.148493 0.1911402,0.245618 0.3483157,0.287947 0.186634,0.05026 0.3943094,-0.01164 0.5296849,-0.157865 0.247581,-0.267417 0.1679055,-0.691159 -0.1600011,-0.85102 -0.07598,-0.03705 -0.1559727,-0.0548 -0.2347915,-0.05476 z" />
</svg>
