<?xml version="1.0" encoding="UTF-8" standalone="no"?>
<svg
   width="64"
   height="64"
   version="1.1"
   viewBox="0 0 16.933 16.933"
   id="svg7"
   sodipodi:docname="abcd.svg"
   inkscape:version="1.4.3 (0d15f75042, 2025-12-25)"
   xmlns:inkscape="http://www.inkscape.org/namespaces/inkscape"
   xmlns:sodipodi="http://sodipodi.sourceforge.net/DTD/sodipodi-0.dtd"
   xmlns="http://www.w3.org/2000/svg"
   xmlns:svg="http://www.w3.org/2000/svg"
   xmlns:rdf="http://www.w3.org/1999/02/22-rdf-syntax-ns#"
   xmlns:cc="http://creativecommons.org/ns#"
   xmlns:dc="http://purl.org/dc/elements/1.1/">
  <sodipodi:namedview
     id="namedview7"
     pagecolor="#9c4444"
     bordercolor="#000000"
     borderopacity="0.25"
     inkscape:showpageshadow="2"
     inkscape:pageopacity="0.0"
     inkscape:pagecheckerboard="0"
     inkscape:deskcolor="#d1d1d1"
     inkscape:zoom="4.3531261"
     inkscape:cx="32.620236"
     inkscape:cy="33.768836"
     inkscape:window-width="1226"
     inkscape:window-height="669"
     inkscape:window-x="100"
     inkscape:window-y="206"
     inkscape:window-maximized="0"
     inkscape:current-layer="svg7"
     showgrid="false" />
  <defs
     id="defs2">
    <filter
       style="color-interpolation-filters:sRGB;"
       inkscape:label="Blur"
       id="filter5421"
       x="-0.12256455"
       y="-0.12342654"
       width="1.2451291"
       height="1.2468531">
      <feGaussianBlur
         stdDeviation="0.5 0.5"
         result="blur"
         id="feGaussianBlur5419" />
    </filter>
  </defs>
  <metadata
     id="metadata2">
    <rdf:RDF>
      <cc:Work
         rdf:about="">
        <dc:format>image/svg+xml</dc:format>
        <dc:type
           rdf:resource="http://purl.org/dc/dcmitype/StillImage" />
      </cc:Work>
    </rdf:RDF>
  </metadata>
  <rect
     style="opacity:0.3;fill:none;fill-opacity:0.996424;stroke:#000000;stroke-width:0.955221;stroke-dasharray:none;stroke-opacity:1;filter:url(#filter5421)"
     id="rect1-2-7"
     width="13.687567"
     height="13.591975"
     x="1.6227165"
     y="1.6705122"
     rx="2.8442214"
     ry="2.965905" />
  <rect
     style="fill:none;fill-opacity:1;stroke:{{colors.primary.default.hex}};stroke-width:0.955221;stroke-dasharray:none;stroke-opacity:1"
     id="rect1-2"
     width="13.687567"
     height="13.591975"
     x="1.6227167"
     y="1.6705124"
     rx="2.8442214"
     ry="2.965905" />
  <path
     d="m 7.3106858,5.3639278 c -0.5763533,0.1003317 -1.1278965,0.275636 -1.642634,0.5139203 -0.00435,0.0022 -0.00763,0.0049 -0.010364,0.00926 -1.0458326,1.5769277 -1.3326461,3.1154139 -1.1919656,4.6345439 5.517e-4,0.0077 0.00435,0.01444 0.010089,0.01881 0.6903152,0.511468 1.3585463,0.822272 2.0147816,1.028114 0.010364,0.0029 0.021812,-5.52e-4 0.028356,-0.0093 0.1554024,-0.213748 0.2936288,-0.346522 0.4122256,-0.583715 0.00711,-0.01391 2.627e-4,-0.03026 -0.013905,-0.03571 -0.2194717,-0.08398 -0.4280388,-0.185938 -0.6292446,-0.302353 -0.015815,-0.0093 -0.017451,-0.03272 -0.00299,-0.04362 0.042259,-0.03189 0.085063,-0.06516 0.1254127,-0.09869 0.00735,-0.0063 0.017718,-0.0077 0.026169,-0.0039 1.3203773,0.608524 2.7498095,0.608524 4.0546465,0 0.0086,-0.0042 0.01853,-0.0029 0.02618,0.0029 0.04036,0.0338 0.08288,0.06762 0.125415,0.09951 0.01473,0.01092 0.01336,0.03437 -0.0026,0.04362 -0.200935,0.118597 -0.410045,0.218654 -0.629792,0.302354 -0.014164,0.0055 -0.020187,0.02182 -0.013357,0.03571 0.121326,0.23692 0.25928,0.369148 0.411684,0.583167 0.0063,0.0089 0.01799,0.01282 0.02837,0.0098 0.659234,-0.205839 1.327739,-0.516647 2.017781,-1.028112 0.006,-0.0042 0.0104,-0.01118 0.01091,-0.01881 0.168214,-1.7563268 -0.282183,-3.2814543 -1.193332,-4.6340029 -0.0021,-0.00463 -0.006,-0.00789 -0.0104,-0.00981 -0.514096,-0.2379127 -1.065362,-0.4132177 -1.6417187,-0.51382 -0.01063,-0.00191 -0.021265,0.00242 -0.026713,0.012266 -0.070826,0.127353 -0.1493446,0.2312277 -0.2041441,0.3618206 -0.6202475,-0.093787 -1.2374962,-0.093787 -1.8449296,0 C 7.4895804,5.6043387 7.4086075,5.5034632 7.3371774,5.3761416 7.3319846,5.3666045 7.3210894,5.362239 7.3107315,5.3638754 Z M 7.0694019,8.1562694 c 0.4354003,0 0.7832845,0.351155 0.7764679,0.7756497 0,0.4277661 -0.3443396,0.775923 -0.7764679,0.775923 -0.4253121,0 -0.7751039,-0.3481569 -0.7751039,-0.775923 0,-0.4274934 0.3429761,-0.7756497 0.7751039,-0.7756497 z m 2.7934326,0 c 0.4353995,0 0.7824645,0.351155 0.7756505,0.7756497 0,0.4277661 -0.340251,0.775923 -0.7756505,0.775923 -0.4253132,0 -0.7759236,-0.3481569 -0.7759236,-0.775923 0,-0.4274934 0.343794,-0.7756497 0.7759236,-0.7756497 z"
     fill="#ffffff"
     fill-rule="nonzero"
     id="path2-3"
     style="fill:{{colors.primary.default.hex}};fill-opacity:1;stroke:none;stroke-width:0.140492;stroke-dasharray:none;stroke-opacity:0.6" />
</svg>
