<?xml version="1.0" encoding="UTF-8" standalone="no"?>
<svg
   width="64"
   height="64"
   version="1.1"
   viewBox="0 0 16.933 16.933"
   id="svg7"
   sodipodi:docname="abcd.svg"
   inkscape:version="1.4.3 (0d15f75042, 2025-12-25)"
   xmlns:inkscape="http://www.inkscape.org/namespaces/inkscape"
   xmlns:sodipodi="http://sodipodi.sourceforge.net/DTD/sodipodi-0.dtd"
   xmlns="http://www.w3.org/2000/svg"
   xmlns:svg="http://www.w3.org/2000/svg"
   xmlns:rdf="http://www.w3.org/1999/02/22-rdf-syntax-ns#"
   xmlns:cc="http://creativecommons.org/ns#"
   xmlns:dc="http://purl.org/dc/elements/1.1/">
  <sodipodi:namedview
     id="namedview7"
     pagecolor="#9c4444"
     bordercolor="#000000"
     borderopacity="0.25"
     inkscape:showpageshadow="2"
     inkscape:pageopacity="0.0"
     inkscape:pagecheckerboard="0"
     inkscape:deskcolor="#d1d1d1"
     inkscape:zoom="4.3531261"
     inkscape:cx="43.417074"
     inkscape:cy="20.674797"
     inkscape:window-width="1226"
     inkscape:window-height="669"
     inkscape:window-x="101"
     inkscape:window-y="175"
     inkscape:window-maximized="0"
     inkscape:current-layer="svg7"
     showgrid="false" />
  <defs
     id="defs2">
    <filter
       style="color-interpolation-filters:sRGB;"
       inkscape:label="Blur"
       id="filter5421"
       x="-0.12256455"
       y="-0.12342654"
       width="1.2451291"
       height="1.2468531">
      <feGaussianBlur
         stdDeviation="0.5 0.5"
         result="blur"
         id="feGaussianBlur5419" />
    </filter>
  </defs>
  <metadata
     id="metadata2">
    <rdf:RDF>
      <cc:Work
         rdf:about="">
        <dc:format>image/svg+xml</dc:format>
        <dc:type
           rdf:resource="http://purl.org/dc/dcmitype/StillImage" />
      </cc:Work>
    </rdf:RDF>
  </metadata>
  <rect
     style="opacity:0.3;fill:none;fill-opacity:0.996424;stroke:#000000;stroke-width:0.955221;stroke-dasharray:none;stroke-opacity:1;filter:url(#filter5421)"
     id="rect1-2-7"
     width="13.687567"
     height="13.591975"
     x="1.6227165"
     y="1.6705122"
     rx="2.8442214"
     ry="2.965905" />
  <rect
     style="fill:none;fill-opacity:1;stroke:{{colors.primary.default.hex}};stroke-width:0.955221;stroke-dasharray:none;stroke-opacity:1"
     id="rect1-2"
     width="13.687567"
     height="13.591975"
     x="1.6227167"
     y="1.6705124"
     rx="2.8442214"
     ry="2.965905" />
  <path
     id="path1"
     style="fill:{{colors.primary.default.hex}};fill-opacity:1;stroke:none;stroke-width:0.109171;stroke-dasharray:none;stroke-dashoffset:2.2;stroke-opacity:0.6"
     d="m 10.707196,5.1024184 c -0.134814,-5.63e-5 -0.279118,0.054229 -0.45972,0.1600491 -0.429769,0.2518097 -0.9918263,0.3705667 -1.7636812,0.3705667 -0.77178,0 -1.3525872,-0.1212839 -1.7797965,-0.3716409 C 6.3614322,5.0606452 6.1569159,5.0579848 5.8694193,5.2518301 5.1313183,5.7492349 4.5750415,7.3440043 4.4118535,9.4279621 4.3139945,10.67762 4.405402,11.336448 4.7287143,11.707216 4.8846484,11.885974 5.2674471,11.855667 5.6127049,11.636328 5.9053734,11.450392 6.2540857,11.0401 6.6707012,10.391432 7.0471719,9.8052631 7.5025368,9.612204 8.5095739,9.6105538 c 1.0050326,-0.00157 1.4000014,0.1885877 1.8635761,0.9011752 0.77777,1.195549 1.496673,1.611766 1.918355,1.110625 0.233611,-0.277626 0.276368,-0.545861 0.265303,-1.6627126 C 12.53665,7.9308113 12.00632,6.0851509 11.242103,5.3807186 11.038569,5.1931075 10.880539,5.1025973 10.707196,5.1025242 Z M 6.3409509,6.2978996 H 6.807113 7.2732758 V 6.697467 7.0970364 h 0.3995686 0.399567 V 7.5964971 8.095956 H 7.6728444 7.2732758 V 8.5288214 8.9616863 H 6.8511529 C 6.619248,8.9616863 6.4104748,8.940899 6.3860622,8.916581 6.361658,8.8921769 6.3409563,8.6983885 6.3409563,8.4847911 V 8.095956 H 5.9413823 5.5418134 V 7.5964971 7.0970364 H 5.9413823 6.3409509 V 6.697467 Z m 3.8001911,0 c 0.420542,0 0.600637,0.4659483 0.297529,0.7690627 -0.192767,0.1927446 -0.368696,0.207896 -0.5585365,0.047265 C 9.5508535,6.8356011 9.7227256,6.2979069 10.141142,6.2979069 Z M 9.3323409,7.151815 c 0.1050081,7.31e-5 0.2107389,0.041927 0.2943035,0.1342543 0.1302631,0.1439412 0.1443339,0.4734956 0.026862,0.62728 -0.2299041,0.3009755 -0.781949,0.1073799 -0.781949,-0.2738961 0,-0.2893742 0.2297697,-0.4878042 0.4607925,-0.4876457 z m 1.6509031,0.016219 c 0.121047,0.00228 0.238545,0.042298 0.307193,0.1181457 0.13026,0.1439412 0.14433,0.4734929 0.02686,0.62728 -0.244539,0.3201261 -0.78195,0.1058609 -0.78195,-0.3114924 0,-0.1265025 0.05071,-0.2636199 0.121368,-0.3276027 0.08079,-0.073124 0.205509,-0.1085431 0.326531,-0.1063369 z m -0.8131,0.8614314 c 0.372831,0 0.554239,0.3954654 0.328675,0.7175043 -0.07711,0.1100811 -0.171148,0.1482239 -0.365198,0.1482239 -0.2234076,0 -0.2752494,-0.029076 -0.3651927,-0.2030146 C 9.5910844,8.3492272 9.7846445,8.0294535 10.170144,8.0294535 Z" />
</svg>
