<?xml version="1.0" encoding="UTF-8" standalone="no"?>
<svg
   width="64"
   height="64"
   version="1.1"
   viewBox="0 0 16.933 16.933"
   id="svg7"
   sodipodi:docname="abcd.svg"
   inkscape:version="1.4.3 (0d15f75042, 2025-12-25)"
   xmlns:inkscape="http://www.inkscape.org/namespaces/inkscape"
   xmlns:sodipodi="http://sodipodi.sourceforge.net/DTD/sodipodi-0.dtd"
   xmlns="http://www.w3.org/2000/svg"
   xmlns:svg="http://www.w3.org/2000/svg"
   xmlns:rdf="http://www.w3.org/1999/02/22-rdf-syntax-ns#"
   xmlns:cc="http://creativecommons.org/ns#"
   xmlns:dc="http://purl.org/dc/elements/1.1/">
  <sodipodi:namedview
     id="namedview7"
     pagecolor="#9c4444"
     bordercolor="#000000"
     borderopacity="0.25"
     inkscape:showpageshadow="2"
     inkscape:pageopacity="0.0"
     inkscape:pagecheckerboard="0"
     inkscape:deskcolor="#d1d1d1"
     inkscape:zoom="4.3531261"
     inkscape:cx="43.417074"
     inkscape:cy="20.674797"
     inkscape:window-width="1226"
     inkscape:window-height="669"
     inkscape:window-x="474"
     inkscape:window-y="225"
     inkscape:window-maximized="0"
     inkscape:current-layer="svg7"
     showgrid="false" />
  <defs
     id="defs2">
    <filter
       style="color-interpolation-filters:sRGB;"
       inkscape:label="Blur"
       id="filter5421"
       x="-0.12256455"
       y="-0.12342654"
       width="1.2451291"
       height="1.2468531">
      <feGaussianBlur
         stdDeviation="0.5 0.5"
         result="blur"
         id="feGaussianBlur5419" />
    </filter>
  </defs>
  <metadata
     id="metadata2">
    <rdf:RDF>
      <cc:Work
         rdf:about="">
        <dc:format>image/svg+xml</dc:format>
        <dc:type
           rdf:resource="http://purl.org/dc/dcmitype/StillImage" />
      </cc:Work>
    </rdf:RDF>
  </metadata>
  <rect
     style="opacity:0.3;fill:none;fill-opacity:0.996424;stroke:#000000;stroke-width:0.955221;stroke-dasharray:none;stroke-opacity:1;filter:url(#filter5421)"
     id="rect1-2-7"
     width="13.687567"
     height="13.591975"
     x="1.6227165"
     y="1.6705122"
     rx="2.8442214"
     ry="2.965905" />
  <rect
     style="fill:none;fill-opacity:1;stroke:{{colors.primary.default.hex}};stroke-width:0.955221;stroke-dasharray:none;stroke-opacity:1"
     id="rect1-2"
     width="13.687567"
     height="13.591975"
     x="1.6227167"
     y="1.6705124"
     rx="2.8442214"
     ry="2.965905" />
  <g
     id="g8"
     transform="matrix(0.41532755,0,0,0.41532755,3.1936302,3.3551468)"
     style="fill:{{colors.primary.default.hex}};fill-opacity:1">
    <path
       d="m 20.1376,9.05555 c 1.1559,0 2.093,-0.93707 2.093,-2.09302 0,-1.15594 -0.9371,-2.09302 -2.093,-2.09302 -1.156,0 -2.093,0.93708 -2.093,2.09302 0,1.15595 0.937,2.09302 2.093,2.09302 z"
       fill="#000000"
       id="path1"
       style="fill:{{colors.primary.default.hex}};fill-opacity:1" />
    <path
       d="m 19.0215,18.7972 c 0.1346,0.017 0.2717,0.0257 0.411,0.0257 h 0.0153 c 1.7938,0 3.2479,-1.4541 3.2479,-3.2479 v -4.7056 c 0,-0.488 -0.3956,-0.88368 -0.8837,-0.88368 h -2.5181 c 0.1425,0.26968 0.221,0.57788 0.2157,0.90388 v 5.3464 c 0.0195,0.908 -0.156,1.7751 -0.4881,2.5612 z"
       fill="#000000"
       id="path2-2"
       style="fill:{{colors.primary.default.hex}};fill-opacity:1" />
    <path
       d="M 13.9281,9.03159 C 15.4559,8.87992 16.6491,7.59093 16.6491,6.02326 16.6491,4.35356 15.2955,3 13.6258,3 c -1.6697,0 -3.0233,1.35356 -3.0233,3.02326 0,0.05766 0.0017,0.11494 0.0048,0.17181 h 1.4682 c 1.0232,0 1.8526,0.82943 1.8526,1.85255 z"
       fill="#000000"
       id="path4-7"
       style="fill:{{colors.primary.default.hex}};fill-opacity:1" />
    <path
       d="m 8.695,18.4276 h 3.3805 c 1.0232,0 1.8526,-0.8294 1.8526,-1.8525 V 9.98572 h 3.729 c 0.4822,0.01193 0.8637,0.41218 0.8525,0.89438 v 5.367 c 0.0674,2.8941 -2.2223,5.2957 -5.1162,5.3665 -2.1203,-0.0519 -3.91617,-1.3548 -4.6984,-3.186 z"
       fill="#000000"
       id="path7"
       style="fill:{{colors.primary.default.hex}};fill-opacity:1" />
    <path
       fill-rule="evenodd"
       clip-rule="evenodd"
       d="M 12.0757,7.19507 H 3.54823 c -0.47084,0 -0.85255,0.3817 -0.85255,0.85255 v 8.52748 c 0,0.4708 0.3817,0.8525 0.85255,0.8525 h 8.52747 c 0.4708,0 0.8525,-0.3817 0.8525,-0.8525 V 8.04762 c 0,-0.47085 -0.3817,-0.85255 -0.8525,-0.85255 z M 5.5,10.6759 h 1.75 v 4.5 h 1 v -4.5 H 10 v -1 H 5.5 Z"
       fill="#000000"
       id="path8"
       style="fill:{{colors.primary.default.hex}};fill-opacity:1" />
  </g>
</svg>
