<?xml version="1.0" encoding="UTF-8" standalone="no"?>
<svg
   width="64"
   height="64"
   version="1.1"
   viewBox="0 0 16.933 16.933"
   id="svg7"
   sodipodi:docname="abcd.svg"
   inkscape:version="1.4.3 (0d15f75042, 2025-12-25)"
   xmlns:inkscape="http://www.inkscape.org/namespaces/inkscape"
   xmlns:sodipodi="http://sodipodi.sourceforge.net/DTD/sodipodi-0.dtd"
   xmlns="http://www.w3.org/2000/svg"
   xmlns:svg="http://www.w3.org/2000/svg"
   xmlns:rdf="http://www.w3.org/1999/02/22-rdf-syntax-ns#"
   xmlns:cc="http://creativecommons.org/ns#"
   xmlns:dc="http://purl.org/dc/elements/1.1/">
  <sodipodi:namedview
     id="namedview7"
     pagecolor="#9c4444"
     bordercolor="#000000"
     borderopacity="0.25"
     inkscape:showpageshadow="2"
     inkscape:pageopacity="0.0"
     inkscape:pagecheckerboard="0"
     inkscape:deskcolor="#d1d1d1"
     inkscape:zoom="4.3531261"
     inkscape:cx="32.620236"
     inkscape:cy="33.768836"
     inkscape:window-width="1226"
     inkscape:window-height="669"
     inkscape:window-x="100"
     inkscape:window-y="206"
     inkscape:window-maximized="0"
     inkscape:current-layer="svg7"
     showgrid="false" />
  <defs
     id="defs2">
    <filter
       style="color-interpolation-filters:sRGB;"
       inkscape:label="Blur"
       id="filter5421"
       x="-0.12256455"
       y="-0.12342654"
       width="1.2451291"
       height="1.2468531">
      <feGaussianBlur
         stdDeviation="0.5 0.5"
         result="blur"
         id="feGaussianBlur5419" />
    </filter>
  </defs>
  <metadata
     id="metadata2">
    <rdf:RDF>
      <cc:Work
         rdf:about="">
        <dc:format>image/svg+xml</dc:format>
        <dc:type
           rdf:resource="http://purl.org/dc/dcmitype/StillImage" />
      </cc:Work>
    </rdf:RDF>
  </metadata>
  <rect
     style="opacity:0.3;fill:none;fill-opacity:0.996424;stroke:#000000;stroke-width:0.955221;stroke-dasharray:none;stroke-opacity:1;filter:url(#filter5421)"
     id="rect1-2-7"
     width="13.687567"
     height="13.591975"
     x="1.6227165"
     y="1.6705122"
     rx="2.8442214"
     ry="2.965905" />
  <rect
     style="fill:none;fill-opacity:1;stroke:{{colors.primary.default.hex}};stroke-width:0.955221;stroke-dasharray:none;stroke-opacity:1"
     id="rect1-2"
     width="13.687567"
     height="13.591975"
     x="1.6227167"
     y="1.6705124"
     rx="2.8442214"
     ry="2.965905" />
  <path
     id="path6"
     style="fill:{{colors.primary.default.hex}};fill-opacity:1;stroke:none;stroke-width:0.115555;stroke-dasharray:none;stroke-opacity:0.6"
     d="M 8.4750959,4.4699746 C 7.9704132,4.4696252 7.8335629,4.4958892 7.5060757,4.6568483 6.849266,4.9796672 6.4879417,5.7333385 6.3954922,6.9736728 l -0.017766,0.238701 0.1234973,-0.1030619 c 0.172101,-0.1435809 0.4729333,-0.335023 0.6660534,-0.4237988 0.089442,-0.041115 0.1657144,-0.076386 0.1696967,-0.07848 0.00397,-0.00208 0.034997,-0.1077781 0.069004,-0.234852 0.1289451,-0.4818251 0.3398319,-0.7930126 0.6355496,-0.938517 0.1585698,-0.078023 0.1840795,-0.082968 0.4332754,-0.082331 0.2370622,5.989e-4 0.2795303,0.00793 0.4075098,0.070188 0.2904905,0.1413029 0.5094171,0.4596967 0.6432498,0.9358513 l 0.069596,0.2469934 0.1637733,0.073447 c 0.1960542,0.087867 0.6127375,0.3614323 0.7161025,0.4702949 0.04066,0.042827 0.07791,0.077889 0.08292,0.077889 0.0093,0 -0.0014,-0.1257186 -0.04709,-0.553811 C 10.458363,6.1801679 10.332891,5.7251919 10.153411,5.3759134 10.006698,5.0904046 9.6922529,4.7745674 9.4316788,4.650925 9.1044719,4.4956664 8.9703709,4.4703564 8.4750966,4.4699746 Z m 0.038502,1.9522567 c -0.043474,-4.991e-4 -0.086893,9.58e-5 -0.1303089,0.0015 -0.7641168,0.024367 -1.5141833,0.3365086 -2.0559117,0.8896495 -1.431137,1.4612838 -1.0517984,3.8701942 0.7566771,4.8042342 0.3384556,0.174805 0.6309981,0.263149 1.0889636,0.328732 0.4067993,0.05825 1.0216928,-0.03944 1.4982501,-0.237813 0.8993769,-0.374416 1.5868869,-1.250062 1.7772279,-2.2638146 0.04563,-0.242973 0.03945,-0.8012748 -0.01185,-1.0640873 C 11.224644,7.7944388 10.462048,6.9238456 9.4156862,6.5732822 9.1227084,6.4751257 8.817893,6.4256308 8.5135969,6.4222429 Z M 8.489609,7.3044781 c 0.782209,0.013148 1.527524,0.4563241 1.881476,1.1677409 0.657992,1.3225234 -0.16537,2.882229 -1.6270797,3.08209 -0.5595835,0.07652 -1.1197507,-0.07521 -1.586801,-0.429425 C 6.7814837,10.839929 6.4809996,10.357306 6.3815732,9.8783638 6.3169872,9.5672511 6.3292597,9.1518516 6.4111887,8.8634405 6.5254623,8.4611692 6.8062652,8.0343953 7.1293656,7.7721073 7.3087087,7.6265204 7.7189666,7.4226097 7.9464586,7.3660789 8.1265422,7.3213277 8.3090976,7.3014439 8.489609,7.3044781 Z m 1.1345715,0.9787937 c -0.00292,0 -0.2044583,0.066882 -0.4480835,0.1483741 C 8.7548575,8.5725478 8.7265912,8.578407 8.598593,8.5551428 8.2236376,8.4869926 7.8230838,8.7102271 7.6491185,9.0843724 c -0.055187,0.1186905 -0.066476,0.1792497 -0.066931,0.3574599 -4.991e-4,0.1922193 0.00788,0.2320261 0.082035,0.3826328 0.128875,0.2617819 0.3807196,0.4516639 0.6595381,0.4972459 0.2868532,0.04688 0.5564204,-0.04444 0.7708931,-0.261506 C 9.3064297,9.8458642 9.3649724,9.689166 9.3502355,9.378455 9.3397304,9.1569688 9.3426948,9.1422473 9.4843936,8.7177316 9.5641131,8.4788978 9.6270602,8.2832718 9.6241805,8.2832718 Z" />
</svg>
