<?xml version="1.0" encoding="UTF-8" standalone="no"?>
<svg
   width="64"
   height="64"
   version="1.1"
   viewBox="0 0 16.933 16.933"
   id="svg7"
   sodipodi:docname="abcd.svg"
   inkscape:version="1.4.3 (0d15f75042, 2025-12-25)"
   xmlns:inkscape="http://www.inkscape.org/namespaces/inkscape"
   xmlns:sodipodi="http://sodipodi.sourceforge.net/DTD/sodipodi-0.dtd"
   xmlns="http://www.w3.org/2000/svg"
   xmlns:svg="http://www.w3.org/2000/svg"
   xmlns:rdf="http://www.w3.org/1999/02/22-rdf-syntax-ns#"
   xmlns:cc="http://creativecommons.org/ns#"
   xmlns:dc="http://purl.org/dc/elements/1.1/">
  <sodipodi:namedview
     id="namedview7"
     pagecolor="#9c4444"
     bordercolor="#000000"
     borderopacity="0.25"
     inkscape:showpageshadow="2"
     inkscape:pageopacity="0.0"
     inkscape:pagecheckerboard="0"
     inkscape:deskcolor="#d1d1d1"
     inkscape:zoom="4.3531261"
     inkscape:cx="33.768836"
     inkscape:cy="30.552756"
     inkscape:window-width="1226"
     inkscape:window-height="669"
     inkscape:window-x="100"
     inkscape:window-y="206"
     inkscape:window-maximized="0"
     inkscape:current-layer="svg7"
     showgrid="false" />
  <defs
     id="defs2">
    <filter
       style="color-interpolation-filters:sRGB;"
       inkscape:label="Blur"
       id="filter5421"
       x="-0.12256455"
       y="-0.12342654"
       width="1.2451291"
       height="1.2468531">
      <feGaussianBlur
         stdDeviation="0.5 0.5"
         result="blur"
         id="feGaussianBlur5419" />
    </filter>
  </defs>
  <metadata
     id="metadata2">
    <rdf:RDF>
      <cc:Work
         rdf:about="">
        <dc:format>image/svg+xml</dc:format>
        <dc:type
           rdf:resource="http://purl.org/dc/dcmitype/StillImage" />
      </cc:Work>
    </rdf:RDF>
  </metadata>
  <rect
     style="opacity:0.3;fill:none;fill-opacity:0.996424;stroke:#000000;stroke-width:0.955221;stroke-dasharray:none;stroke-opacity:1;filter:url(#filter5421)"
     id="rect1-2-7"
     width="13.687567"
     height="13.591975"
     x="1.6227165"
     y="1.6705122"
     rx="2.8442214"
     ry="2.965905" />
  <rect
     style="fill:none;fill-opacity:1;stroke:{{colors.primary.default.hex}};stroke-width:0.955221;stroke-dasharray:none;stroke-opacity:1"
     id="rect1-2"
     width="13.687567"
     height="13.591975"
     x="1.6227167"
     y="1.6705124"
     rx="2.8442214"
     ry="2.965905" />
  <path
     id="path10"
     style="fill:{{colors.primary.default.hex}};fill-opacity:1;stroke:none;stroke-width:0.121637;stroke-dasharray:none;stroke-opacity:0.6"
     d="m 11.48213,5.2836896 c -0.106041,5.254e-4 -0.204788,0.1059256 -0.401524,0.3030142 l -0.271217,0.2718395 0.571113,0.5714242 0.571112,0.5714233 0.259059,-0.2578103 c 0.277094,-0.2754621 0.312679,-0.323381 0.312679,-0.4214761 0,-0.1026199 -0.08431,-0.2069981 -0.499101,-0.616315 C 11.732038,5.4174322 11.60231,5.283132 11.48213,5.2836896 Z m -0.916836,0.837029 c -0.01046,0 -0.218808,0.2004135 -0.46325,0.4451684 l -0.4445444,0.4448564 0.029313,0.084171 C 9.7282543,7.2144509 9.7072295,7.345804 9.6185394,7.5220017 9.4797037,7.7977941 9.2540055,8.0234917 8.9782129,8.1623204 8.7991248,8.2524695 8.6577896,8.2750068 8.5455145,8.2309045 L 8.4675793,8.2000418 8.0127469,8.6545627 7.5582259,9.1090832 8.1246618,9.6761431 c 0.3116859,0.3118114 0.5711724,0.5667499 0.5764125,0.5667499 0.00523,0 0.6838422,-0.6744425 1.5082107,-1.4988604 L 11.708143,7.2451742 11.146382,6.6827906 C 10.837327,6.3736058 10.575746,6.1207186 10.565294,6.1207186 Z M 4.6085171,8.3178802 c -0.01281,-5.253e-4 -0.024997,7.617e-4 -0.037719,0.00313 -0.1319789,0.024758 -0.2064965,0.1991829 -0.1309319,0.3070665 0.016343,0.023338 0.083942,0.067948 0.1499482,0.099134 0.066006,0.031187 0.1325266,0.075061 0.1480777,0.097264 0.044775,0.063927 0.033615,0.1941463 -0.039281,0.4548318 -0.108903,0.3894615 -0.1063434,0.5922864 0.00998,0.7528585 0.1154656,0.159397 0.3029512,0.249392 0.5954286,0.286492 0.2691781,0.03414 0.4020343,0.07002 0.4738482,0.127815 0.2035581,0.163797 0.3062491,0.437524 0.3251477,0.866644 0.00923,0.209573 0.024567,0.254564 0.1041219,0.30395 0.099923,0.06203 0.1078322,0.03173 0.017147,-0.0664 -0.049573,-0.05364 -0.090173,-0.114844 -0.090094,-0.135916 7.87e-5,-0.02106 0.064008,-0.181108 0.1418424,-0.355698 C 6.3814989,10.82248 6.414482,10.729416 6.4057179,10.693691 6.3757131,10.571374 6.2565661,10.366158 6.1488374,10.250997 5.9563048,10.045178 5.8077102,9.9780194 5.4474171,9.9339556 5.1685207,9.8998425 5.0491237,9.8534964 5.0197061,9.7677935 5.0051286,9.7253351 5.0142219,9.6649347 5.0642851,9.477252 5.1949474,8.9874081 5.2002311,8.8781736 5.102318,8.6751375 5.0345371,8.5345868 4.9516342,8.4590526 4.7718705,8.3736829 4.6908169,8.3351896 4.6469528,8.3193842 4.6085171,8.317881 Z M 7.3144428,9.3528658 6.9727732,9.6948474 6.6307911,10.036828 7.2019039,10.608253 7.7733282,11.179677 8.1156211,10.838009 8.4576032,10.496025 7.8861784,9.9246009 Z M 6.7140264,10.219822 c -0.018599,0.02243 -0.5424316,1.176384 -0.5424316,1.194909 0,0.0094 0.047604,0.06508 0.1059924,0.124074 0.079197,0.08004 0.1137742,0.103593 0.1359198,0.09197 0.016325,-0.0086 0.2870342,-0.131725 0.6013512,-0.273398 0.3143178,-0.141671 0.5751596,-0.260808 0.5798412,-0.26498 0.00467,-0.0042 -0.1891064,-0.205465 -0.4305162,-0.447038 -0.2414099,-0.24158 -0.4439268,-0.433047 -0.4501568,-0.425534 z" />
</svg>
