<?xml version="1.0" encoding="UTF-8" standalone="no"?>
<svg
   width="64"
   height="64"
   version="1.1"
   viewBox="0 0 16.933 16.933"
   id="svg7"
   sodipodi:docname="abcd.svg"
   inkscape:version="1.4.3 (0d15f75042, 2025-12-25)"
   xmlns:inkscape="http://www.inkscape.org/namespaces/inkscape"
   xmlns:sodipodi="http://sodipodi.sourceforge.net/DTD/sodipodi-0.dtd"
   xmlns="http://www.w3.org/2000/svg"
   xmlns:svg="http://www.w3.org/2000/svg"
   xmlns:rdf="http://www.w3.org/1999/02/22-rdf-syntax-ns#"
   xmlns:cc="http://creativecommons.org/ns#"
   xmlns:dc="http://purl.org/dc/elements/1.1/">
  <sodipodi:namedview
     id="namedview7"
     pagecolor="#9c4444"
     bordercolor="#000000"
     borderopacity="0.25"
     inkscape:showpageshadow="2"
     inkscape:pageopacity="0.0"
     inkscape:pagecheckerboard="0"
     inkscape:deskcolor="#d1d1d1"
     inkscape:zoom="4.3531261"
     inkscape:cx="43.417074"
     inkscape:cy="20.674797"
     inkscape:window-width="1226"
     inkscape:window-height="669"
     inkscape:window-x="474"
     inkscape:window-y="225"
     inkscape:window-maximized="0"
     inkscape:current-layer="svg7"
     showgrid="false" />
  <defs
     id="defs2">
    <filter
       style="color-interpolation-filters:sRGB;"
       inkscape:label="Blur"
       id="filter5421"
       x="-0.12256455"
       y="-0.12342654"
       width="1.2451291"
       height="1.2468531">
      <feGaussianBlur
         stdDeviation="0.5 0.5"
         result="blur"
         id="feGaussianBlur5419" />
    </filter>
  </defs>
  <metadata
     id="metadata2">
    <rdf:RDF>
      <cc:Work
         rdf:about="">
        <dc:format>image/svg+xml</dc:format>
        <dc:type
           rdf:resource="http://purl.org/dc/dcmitype/StillImage" />
      </cc:Work>
    </rdf:RDF>
  </metadata>
  <rect
     style="opacity:0.3;fill:none;fill-opacity:0.996424;stroke:#000000;stroke-width:0.955221;stroke-dasharray:none;stroke-opacity:1;filter:url(#filter5421)"
     id="rect1-2-7"
     width="13.687567"
     height="13.591975"
     x="1.6227165"
     y="1.6705122"
     rx="2.8442214"
     ry="2.965905" />
  <rect
     style="fill:none;fill-opacity:1;stroke:{{colors.primary.default.hex}};stroke-width:0.955221;stroke-dasharray:none;stroke-opacity:1"
     id="rect1-2"
     width="13.687567"
     height="13.591975"
     x="1.6227167"
     y="1.6705124"
     rx="2.8442214"
     ry="2.965905" />
  <path
     style="fill:{{colors.primary.default.hex}};fill-opacity:1;stroke:none;stroke-width:0.121333;stroke-dasharray:none;stroke-opacity:0.6"
     d="m 8.5203638,11.458374 c -0.00388,-0.0095 -0.00837,-0.05256 -0.00999,-0.09578 -0.00478,-0.126726 0.015352,-0.254141 0.090196,-0.571097 0.021437,-0.09079 0.039742,-0.174449 0.040679,-0.185908 l 0.00167,-0.02083 -0.1425031,-0.04774 c -0.1952573,-0.06541 -0.3048188,-0.0831 -0.3486585,-0.05629 -0.010804,0.0066 -0.038802,0.03099 -0.062213,0.05422 -0.08513,0.08442 -0.1799848,0.117612 -0.4011131,0.140357 -0.020706,0.002 -0.037652,0.0056 -0.037652,0.0074 0,0.02384 0.030057,0.101899 0.068798,0.178614 0.05038,0.09977 0.059418,0.123436 0.102476,0.26835 0.029521,0.09937 0.039506,0.18956 0.025629,0.23161 -0.018871,0.05717 -0.079614,0.08319 -0.1942368,0.08319 -0.076737,0 -0.2232393,-0.01678 -0.2359517,-0.02703 -0.012992,-0.01047 -0.030405,-0.08631 -0.029737,-0.12957 7.237e-4,-0.04633 -0.018479,-0.101724 -0.095514,-0.275614 -0.021546,-0.04863 -0.055975,-0.138508 -0.076509,-0.199739 -0.020533,-0.06124 -0.048666,-0.134931 -0.062514,-0.163779 -0.027128,-0.05651 -0.073091,-0.114545 -0.090733,-0.114536 -0.021802,0 -0.090126,0.03782 -0.11071,0.06128 -0.042409,0.04833 -0.04785,0.06733 -0.070432,0.246513 -0.00931,0.07383 -0.021133,0.153407 -0.02628,0.176817 -0.00515,0.02341 -0.012518,0.0912 -0.016383,0.150621 -0.00877,0.135135 -0.016076,0.182053 -0.03154,0.202951 -0.037733,0.05099 -0.1147215,0.07199 -0.2639045,0.07207 -0.1175068,8.3e-5 -0.1666737,-0.021 -0.1825572,-0.07817 -0.01217,-0.04379 -0.00758,-0.169932 0.01346,-0.370382 0.00378,-0.03602 0.021235,-0.130318 0.038786,-0.209558 0.04066,-0.183559 0.048401,-0.238487 0.044638,-0.316673 -0.00387,-0.0803 -0.024526,-0.130654 -0.071735,-0.174813 C 6.3295457,10.242203 6.2651292,10.220135 6.119422,10.203605 5.9962631,10.18963 5.9290696,10.17653 5.8701513,10.155031 5.7526517,10.1121 5.7108296,10.064153 5.6568244,9.9104051 5.6130726,9.7858087 5.5585878,9.7380102 5.3666715,9.6558238 5.2773018,9.6175524 5.242429,9.5944016 5.2068906,9.5497514 5.142087,9.468332 5.1210254,9.3885751 5.1270295,9.2473302 5.1332995,9.0998018 5.1182705,9.0476827 5.0326974,8.9203712 4.9898932,8.8566842 4.9887561,8.8539159 4.989613,8.8153891 4.9900871,8.7936281 4.998453,8.7229271 5.008213,8.6582829 5.020545,8.5764779 5.025261,8.5225727 5.023708,8.4809668 5.021638,8.4270748 5.019548,8.4184018 5.00184,8.3928978 4.95819,8.3300478 4.953107,8.3208168 4.941767,8.2838363 4.932557,8.2537823 4.930041,8.2238793 4.930306,8.1471361 4.9306803,8.0314851 4.937666,8.0064079 4.994601,7.9158029 5.035135,7.8512909 5.046332,7.8193859 5.043269,7.7771303 l -0.00209,-0.029469 -0.052392,-0.00479 c -0.058562,-0.00534 -0.1113367,-0.00262 -0.2345022,0.012204 -0.046134,0.00555 -0.1153865,0.00909 -0.1538965,0.00788 C 4.5380913,7.7609853 4.5260573,7.7585753 4.491247,7.7411043 4.454466,7.7226313 4.451604,7.7194973 4.443501,7.6887133 4.401118,7.5277247 4.5538197,7.3841993 4.7674848,7.3841993 c 0.071622,0 0.1181957,0.013004 0.2134459,0.059604 0.070198,0.034343 0.1497798,0.06181 0.1634721,0.056417 0.00445,-0.00178 0.031668,-0.040648 0.060485,-0.086432 C 5.2801358,7.2942132 5.3196626,7.2531685 5.3939645,7.2174475 5.4268375,7.2016425 5.4949926,7.1749965 5.5454176,7.1582315 5.6894863,7.1103345 5.7162889,7.0907195 5.7892224,6.9798032 5.8561864,6.8779656 5.901884,6.8451745 6.0203195,6.8139759 c 0.045314,-0.011932 0.081487,-0.015438 0.1963473,-0.019016 0.188579,-0.00587 0.1904185,-0.00657 0.311742,-0.1179065 0.059227,-0.054354 0.1141722,-0.08666 0.1925134,-0.1131948 l 0.062215,-0.021073 0.1735415,-5.15e-5 c 0.2065687,-5.06e-5 0.2263334,-0.00405 0.3716594,-0.075023 0.2033094,-0.099289 0.2770795,-0.1067838 0.494542,-0.05024 0.1686045,0.043838 0.2122665,0.041583 0.352941,-0.018238 0.1304415,-0.055474 0.2028206,-0.069798 0.2867999,-0.05677 0.09897,0.015355 0.1814901,0.052897 0.2870772,0.1305961 0.083237,0.061255 0.1047689,0.07271 0.1781617,0.094779 0.097915,0.029445 0.1592416,0.037312 0.3438107,0.044126 0.097249,0.0036 0.1919174,0.00949 0.2103787,0.01313 0.09259,0.018204 0.1746882,0.119241 0.2922218,0.3596425 0.080801,0.1652836 0.115975,0.2286926 0.1858359,0.3350478 0.214625,0.3267533 0.490699,0.5583707 0.861499,0.7227748 0.08723,0.038674 0.104914,0.052995 0.131067,0.1061164 0.02144,0.043512 0.02168,0.045121 0.02165,0.1358543 -8.8e-5,0.101374 -0.0077,0.1473552 -0.04699,0.2803889 -0.01295,0.043961 -0.02764,0.09614 -0.03265,0.1159497 -0.01336,0.053081 -0.01159,0.1487895 0.0045,0.2455781 0.01657,0.099468 0.0143,0.1520406 -0.0096,0.2208181 -0.02505,0.072077 -0.06508,0.1319402 -0.141773,0.2120186 -0.07739,0.08082 -0.09038,0.1020261 -0.140186,0.2285899 -0.03906,0.09932 -0.06611,0.1441542 -0.112495,0.1865469 -0.08836,0.080769 -0.213715,0.1180852 -0.4409,0.131277 l -0.1146035,0.00668 -0.021235,0.024394 c -0.02823,0.032414 -0.06968,0.1181848 -0.084598,0.1750238 -0.00981,0.03741 -0.011995,0.06996 -0.011712,0.176816 3.491e-4,0.142804 0.00532,0.181823 0.061885,0.471514 0.054304,0.278772 0.1003288,0.600753 0.08747,0.611822 -0.00589,0.0051 -0.3486156,0.05963 -0.3735717,0.05949 -0.012247,-8.6e-5 -0.016723,-0.008 -0.030731,-0.05409 C 9.46547,11.042163 9.4182773,10.792661 9.3996029,10.491606 c -0.0036,-0.05763 -0.00942,-0.114763 -0.012998,-0.126965 -0.013212,-0.04513 -0.040317,-0.06208 -0.1151624,-0.072 -0.1045273,-0.01384 -0.1006965,-0.0143 -0.1077018,0.01202 -0.030963,0.116143 -0.2216236,0.887632 -0.2359532,0.95476 -0.014894,0.06976 -0.036159,0.149157 -0.042047,0.156962 -5.988e-4,8.58e-4 -0.067215,0.01199 -0.1481017,0.02495 -0.080887,0.01296 -0.1612755,0.02597 -0.1786428,0.02893 -0.030127,0.0051 -0.031903,0.0046 -0.038614,-0.01184 z M 11.140766,7.9703928 C 10.912824,7.9272343 10.64028,7.7597207 10.384215,7.5053941 10.193299,7.3157736 10.082467,7.1518496 9.9592249,6.8768228 9.9037021,6.7529113 9.877137,6.7081146 9.8111496,6.6270723 c -0.020862,-0.025629 -0.042984,-0.059519 -0.049132,-0.075312 -0.00613,-0.015793 -0.016568,-0.036479 -0.023128,-0.04597 l -0.01193,-0.017257 -0.1556239,-0.00311 C 9.4462902,6.482924 9.4017688,6.479478 9.3447772,6.4679499 9.2519087,6.4491755 9.1468177,6.4114095 9.0348217,6.356572 8.9133088,6.2970746 8.8770379,6.2582255 8.8386756,6.1464929 8.8285044,6.1168783 8.8263114,6.0912608 8.8263114,6.0024195 c 0,-0.094981 0.0019,-0.1139966 0.015343,-0.1571698 0.03091,-0.098955 0.037421,-0.1092833 0.078698,-0.1248982 0.031011,-0.011735 0.04638,-0.01346 0.095874,-0.010737 0.079579,0.00436 0.137751,0.026033 0.3370513,0.1255456 0.2130537,0.1063796 0.2853973,0.1338098 0.3782453,0.1434177 l 0.034225,0.00352 0.053328,-0.066797 C 9.848424,5.8785628 9.894525,5.8146132 9.9215498,5.773193 9.9768548,5.68845 10.007621,5.6530972 10.041103,5.6358508 c 0.03909,-0.02014 0.109492,-0.039123 0.245578,-0.066234 0.126364,-0.025173 0.139656,-0.029552 0.220466,-0.072602 0.04323,-0.02304 0.144433,-0.039586 0.224851,-0.036762 0.06254,0.00214 0.08067,0.00565 0.137524,0.026148 0.03602,0.012988 0.09064,0.032662 0.121392,0.043717 0.06015,0.021627 0.113242,0.029126 0.281868,0.039807 0.107926,0.00683 0.160501,0.015343 0.192676,0.031154 0.0108,0.00532 0.05512,0.046732 0.09845,0.092045 l 0.0788,0.082388 0.08165,-0.026798 c 0.04491,-0.014741 0.142058,-0.047581 0.215896,-0.072987 0.174576,-0.060069 0.247298,-0.074963 0.347084,-0.071089 0.05594,0.00212 0.08466,0.00653 0.111667,0.016956 0.108686,0.041967 0.127505,0.1522126 0.05188,0.3039168 -0.073,0.1464426 -0.193658,0.2694162 -0.32296,0.3291565 -0.08946,0.041337 -0.136788,0.049037 -0.341571,0.055586 -0.100852,0.00323 -0.186744,0.00599 -0.190876,0.00618 -0.01395,5.739e-4 -0.02528,0.1103188 -0.02467,0.2393385 7.48e-4,0.1580624 0.0097,0.2025213 0.0885,0.4365567 0.08179,0.2429544 0.09989,0.3515656 0.08504,0.510298 -0.01504,0.160759 -0.055,0.2583382 -0.140725,0.3436056 -0.05874,0.05842 -0.113123,0.089497 -0.200375,0.1144864 -0.06408,0.018345 -0.191771,0.023043 -0.262483,0.00965 z M 10.436824,6.7957247 c 0.01054,-0.00598 0.026,-0.023842 0.03438,-0.039672 0.04075,-0.077071 -0.0053,-0.1708323 -0.08378,-0.1707659 -0.03808,2.52e-5 -0.06621,0.018153 -0.08347,0.053793 -0.03028,0.062542 -0.01067,0.1326856 0.04497,0.1607975 0.03203,0.016186 0.05394,0.015156 0.08789,-0.00414 z m 1.012337,-0.068028 c 0.0396,-0.026941 0.04907,-0.046211 0.04907,-0.099868 0,-0.053836 -0.0094,-0.072762 -0.04971,-0.1004477 -0.01762,-0.012107 -0.02829,-0.014657 -0.0509,-0.012175 -0.03639,0.00401 -0.05927,0.02076 -0.07784,0.057096 -0.04929,0.096452 0.04668,0.2116996 0.129407,0.1554005 z"
     id="path1" />
</svg>
