<?xml version="1.0" encoding="UTF-8" standalone="no"?>
<svg
   width="64"
   height="64"
   version="1.1"
   viewBox="0 0 16.933 16.933"
   id="svg7"
   sodipodi:docname="abcd.svg"
   inkscape:version="1.4.3 (0d15f75042, 2025-12-25)"
   xmlns:inkscape="http://www.inkscape.org/namespaces/inkscape"
   xmlns:sodipodi="http://sodipodi.sourceforge.net/DTD/sodipodi-0.dtd"
   xmlns="http://www.w3.org/2000/svg"
   xmlns:svg="http://www.w3.org/2000/svg"
   xmlns:rdf="http://www.w3.org/1999/02/22-rdf-syntax-ns#"
   xmlns:cc="http://creativecommons.org/ns#"
   xmlns:dc="http://purl.org/dc/elements/1.1/">
  <sodipodi:namedview
     id="namedview7"
     pagecolor="#9c4444"
     bordercolor="#000000"
     borderopacity="0.25"
     inkscape:showpageshadow="2"
     inkscape:pageopacity="0.0"
     inkscape:pagecheckerboard="0"
     inkscape:deskcolor="#d1d1d1"
     inkscape:zoom="4.3531261"
     inkscape:cx="32.620236"
     inkscape:cy="33.768836"
     inkscape:window-width="1226"
     inkscape:window-height="669"
     inkscape:window-x="100"
     inkscape:window-y="206"
     inkscape:window-maximized="0"
     inkscape:current-layer="svg7"
     showgrid="false" />
  <defs
     id="defs2">
    <filter
       style="color-interpolation-filters:sRGB;"
       inkscape:label="Blur"
       id="filter5421"
       x="-0.12256455"
       y="-0.12342654"
       width="1.2451291"
       height="1.2468531">
      <feGaussianBlur
         stdDeviation="0.5 0.5"
         result="blur"
         id="feGaussianBlur5419" />
    </filter>
  </defs>
  <metadata
     id="metadata2">
    <rdf:RDF>
      <cc:Work
         rdf:about="">
        <dc:format>image/svg+xml</dc:format>
        <dc:type
           rdf:resource="http://purl.org/dc/dcmitype/StillImage" />
      </cc:Work>
    </rdf:RDF>
  </metadata>
  <rect
     style="opacity:0.3;fill:none;fill-opacity:0.996424;stroke:#000000;stroke-width:0.955221;stroke-dasharray:none;stroke-opacity:1;filter:url(#filter5421)"
     id="rect1-2-7"
     width="13.687567"
     height="13.591975"
     x="1.6227165"
     y="1.6705122"
     rx="2.8442214"
     ry="2.965905" />
  <rect
     style="fill:none;fill-opacity:1;stroke:{{colors.primary.default.hex}};stroke-width:0.955221;stroke-dasharray:none;stroke-opacity:1"
     id="rect1-2"
     width="13.687567"
     height="13.591975"
     x="1.6227167"
     y="1.6705124"
     rx="2.8442214"
     ry="2.965905" />
  <path
     id="path11-3"
     style="fill:{{colors.primary.default.hex}};fill-opacity:1;stroke:none;stroke-width:0.131737;stroke-dasharray:none;stroke-opacity:0.6"
     d="m 8.4672874,4.4361907 c -0.2943842,0 -0.5886897,0.00367 -0.7495918,0.01121 C 6.1223021,4.5223199 5.0064688,4.7834195 4.6296267,5.1699186 4.4685512,5.3351228 4.3986939,5.5683622 4.4546037,5.7554273 4.5763122,6.1626397 5.0921748,6.4461108 6.084509,6.6507809 6.6952369,6.7767439 7.3744694,6.847862 8.1128657,6.86327 9.2775466,6.8875635 10.301519,6.793393 11.140494,6.5848738 11.584796,6.4744473 11.894034,6.3528085 12.128557,6.1962673 12.611794,5.8737102 12.621442,5.3599899 12.150442,5.0449408 11.674535,4.7266175 10.629097,4.5137182 9.2168842,4.447401 9.0559817,4.4398469 8.7616764,4.4361907 8.4672917,4.4361907 Z m 0.01094,0.7556094 c 1.1665616,9.975e-4 2.2906756,0.1218704 2.8564336,0.3257072 0.0722,0.026011 0.140803,0.050035 0.152327,0.053602 0.01602,0.00496 0.02021,0.016368 0.0175,0.048129 -0.0033,0.040422 -0.0064,0.042769 -0.108299,0.086145 C 10.966996,5.8881344 10.282014,6.0128195 9.3041222,6.0866059 9.0945406,6.1024233 8.0684383,6.1102901 7.8339271,6.0978137 7.2397313,6.0662093 6.7183119,6.0046918 6.2518738,5.9113052 5.9725168,5.8553757 5.7827502,5.8015808 5.5848696,5.7223353 L 5.43364,5.6618972 5.4300965,5.6197818 c -0.0027,-0.032309 0.00142,-0.043699 0.017501,-0.048677 0.011524,-0.00356 0.080134,-0.027588 0.1523251,-0.053601 C 5.9613233,5.3872933 6.5644023,5.2870933 7.316511,5.2322715 7.6956663,5.2046307 8.0893744,5.1914667 8.4782275,5.1917974 Z m -2.8353755,1.4423014 -0.040474,0.03063 C 5.5303239,6.7187875 5.4324424,6.8251573 5.3885222,6.897459 5.2338163,7.1521314 5.2629376,7.4454322 5.4670086,7.6916274 5.8311953,8.1309865 6.8311035,8.4653004 7.9966428,8.5372088 8.6593157,8.5780912 9.4311637,8.5204668 10.023358,8.3862505 11.089866,8.1445364 11.680797,7.7090381 11.642871,7.1925364 11.635146,7.0865677 11.60474,6.994068 11.546057,6.8974588 11.502149,6.8251563 11.404256,6.718788 11.332202,6.6647313 l -0.04046,-0.03063 -0.139471,0.034184 C 10.717014,6.7749845 10.062116,6.8751543 9.5888128,6.907302 l -0.1219686,0.00821 0.1829537,0.020511 c 0.4524581,0.051045 0.8434891,0.1426624 1.0490441,0.2455805 0.07571,0.037907 0.08671,0.048606 0.08696,0.084775 4.46e-4,0.055007 -0.322906,0.2104198 -0.625982,0.3008215 -0.4952012,0.1477044 -1.0489339,0.2195947 -1.6925325,0.2195947 -0.6454779,0 -1.2171727,-0.07479 -1.7092123,-0.2237022 -0.2872774,-0.08694 -0.6096954,-0.244055 -0.6093035,-0.29672 2.627e-4,-0.036274 0.011202,-0.046846 0.086965,-0.084777 C 6.4412986,7.0786797 6.8323307,6.9870628 7.2847877,6.936018 L 7.4677421,6.9155095 7.345772,6.9073041 C 6.8724685,6.8751589 6.2175706,6.7749865 5.7823208,6.668288 Z m 0.727988,1.6854197 -0.047584,0.051413 C 6.253118,8.4470237 6.1882622,8.552897 6.158076,8.6408535 6.119655,8.7528087 6.122116,8.9090645 6.163826,9.0177 c 0.085362,0.2223533 0.2895736,0.4020001 0.6000022,0.5278053 0.2997688,0.1214844 0.7265387,0.2105172 1.180314,0.2464 0.1859773,0.0147 0.8355101,0.01541 1.0175965,0.00116 C 9.5834017,9.7441743 10.07825,9.6216395 10.391457,9.438647 10.525385,9.360402 10.685312,9.2008472 10.737402,9.0937965 10.858048,8.8458581 10.813532,8.5903717 10.61133,8.3710049 l -0.04731,-0.051414 -0.08368,0.028437 c -0.287536,0.097952 -0.8083848,0.20289 -1.210949,0.243913 l -0.081496,0.00821 0.1512312,0.027623 c 0.1878554,0.034296 0.3513358,0.077936 0.4386523,0.1167731 0.06208,0.027612 0.066731,0.032336 0.066731,0.068369 0,0.04801 -0.021385,0.060511 -0.1744766,0.1017326 -0.6620976,0.1782703 -1.701895,0.1813948 -2.3778535,0.0071 -0.177099,-0.045666 -0.2020976,-0.059197 -0.2020976,-0.108846 0,-0.036033 0.00465,-0.040761 0.066728,-0.068369 0.087315,-0.038839 0.2507964,-0.082477 0.4386513,-0.116773 l 0.1512307,-0.027623 -0.081496,-0.00821 C 7.2575161,8.5503572 6.7276776,8.4426115 6.4370181,8.3422203 Z m 2.0781286,1.7516018 c -0.2888041,10e-4 -0.5804035,0.01552 -0.8302669,0.04322 -0.802369,0.08887 -1.4060169,0.320946 -1.4535142,0.558433 -0.015134,0.07569 0.084473,0.194909 0.2319061,0.277302 0.2981062,0.166602 0.8755186,0.299934 1.4833223,0.342665 0.099083,0.0069 0.2062339,0.01461 0.2381956,0.01697 0.1309158,0.0097 0.8382504,-0.0055 1.0113072,-0.02158 0.7550089,-0.0702 1.3164624,-0.229301 1.5440334,-0.437286 0.119611,-0.109324 0.125574,-0.196311 0.02022,-0.301651 -0.200407,-0.200423 -0.7392262,-0.366578 -1.4308096,-0.441124 -0.2395439,-0.02582 -0.5256019,-0.03802 -0.8144059,-0.03691 z m -2.2567082,0.30383 c -0.00319,0 -0.08115,0.02572 -0.1733824,0.05715 -0.5242813,0.178706 -0.8692321,0.408449 -0.9954449,0.662902 -0.040513,0.08168 -0.042935,0.09268 -0.042935,0.197996 0,0.10633 0.00223,0.116049 0.045398,0.203461 0.1872146,0.378807 0.9034898,0.713223 1.8897059,0.88223 0.2975149,0.051 0.6820926,0.09396 1.0402944,0.115951 0.038355,0.0024 0.3052281,0.0029 0.592892,0.0011 0.5387013,-0.003 0.7063651,-0.01266 1.1215172,-0.06454 1.1530005,-0.144105 2.0283515,-0.509757 2.2383835,-0.934733 0.0432,-0.08741 0.04539,-0.09713 0.04539,-0.203466 0,-0.106453 -0.0022,-0.115913 -0.04566,-0.20401 -0.09799,-0.198271 -0.363264,-0.401741 -0.727168,-0.557613 -0.08545,-0.03661 -0.421994,-0.156427 -0.439198,-0.156427 -0.0031,0 0.02039,0.02529 0.05278,0.05634 0.107906,0.10346 0.148485,0.225112 0.114311,0.342664 -0.03781,0.13009 -0.155588,0.238955 -0.373019,0.34485 -0.339177,0.165188 -0.8102821,0.270123 -1.4701967,0.327623 -0.2559483,0.02232 -0.9997594,0.0187 -1.2670049,-0.0063 -1.023346,-0.09569 -1.6792711,-0.342172 -1.7734786,-0.666235 -0.034158,-0.117498 0.00408,-0.233062 0.1126716,-0.339929 0.032973,-0.03246 0.057357,-0.05907 0.054145,-0.05907 z" />
</svg>
