<?xml version="1.0" encoding="UTF-8" standalone="no"?>
<svg
   width="64"
   height="64"
   version="1.1"
   viewBox="0 0 16.933 16.933"
   id="svg7"
   sodipodi:docname="abcd.svg"
   inkscape:version="1.4.3 (0d15f75042, 2025-12-25)"
   xmlns:inkscape="http://www.inkscape.org/namespaces/inkscape"
   xmlns:sodipodi="http://sodipodi.sourceforge.net/DTD/sodipodi-0.dtd"
   xmlns="http://www.w3.org/2000/svg"
   xmlns:svg="http://www.w3.org/2000/svg"
   xmlns:rdf="http://www.w3.org/1999/02/22-rdf-syntax-ns#"
   xmlns:cc="http://creativecommons.org/ns#"
   xmlns:dc="http://purl.org/dc/elements/1.1/">
  <sodipodi:namedview
     id="namedview7"
     pagecolor="#9c4444"
     bordercolor="#000000"
     borderopacity="0.25"
     inkscape:showpageshadow="2"
     inkscape:pageopacity="0.0"
     inkscape:pagecheckerboard="0"
     inkscape:deskcolor="#d1d1d1"
     inkscape:zoom="4.3531261"
     inkscape:cx="43.417074"
     inkscape:cy="20.674797"
     inkscape:window-width="1226"
     inkscape:window-height="669"
     inkscape:window-x="474"
     inkscape:window-y="225"
     inkscape:window-maximized="0"
     inkscape:current-layer="svg7"
     showgrid="false" />
  <defs
     id="defs2">
    <filter
       style="color-interpolation-filters:sRGB;"
       inkscape:label="Blur"
       id="filter5421"
       x="-0.12256455"
       y="-0.12342654"
       width="1.2451291"
       height="1.2468531">
      <feGaussianBlur
         stdDeviation="0.5 0.5"
         result="blur"
         id="feGaussianBlur5419" />
    </filter>
  </defs>
  <metadata
     id="metadata2">
    <rdf:RDF>
      <cc:Work
         rdf:about="">
        <dc:format>image/svg+xml</dc:format>
        <dc:type
           rdf:resource="http://purl.org/dc/dcmitype/StillImage" />
      </cc:Work>
    </rdf:RDF>
  </metadata>
  <rect
     style="opacity:0.3;fill:none;fill-opacity:0.996424;stroke:#000000;stroke-width:0.955221;stroke-dasharray:none;stroke-opacity:1;filter:url(#filter5421)"
     id="rect1-2-7"
     width="13.687567"
     height="13.591975"
     x="1.6227165"
     y="1.6705122"
     rx="2.8442214"
     ry="2.965905" />
  <rect
     style="fill:none;fill-opacity:1;stroke:{{colors.primary.default.hex}};stroke-width:0.955221;stroke-dasharray:none;stroke-opacity:1"
     id="rect1-2"
     width="13.687567"
     height="13.591975"
     x="1.6227167"
     y="1.6705124"
     rx="2.8442214"
     ry="2.965905" />
  <path
     id="path4"
     style="fill:{{colors.primary.default.hex}};fill-opacity:1;stroke:none;stroke-width:0.132764;stroke-dasharray:none;stroke-opacity:0.6"
     d="M 8.8299594,4.5707426 C 8.6012791,4.5747534 8.3217309,4.6018588 8.1277045,4.6418498 7.6736249,4.7354395 7.1136932,4.976378 6.6857136,5.2625232 L 6.4696359,5.4072188 6.3343109,5.3303235 C 6.2599226,5.2880547 6.0579069,5.170409 5.8853423,5.0690455 5.2416783,4.6909596 5.0213949,4.6037126 4.6723829,4.5883809 l -0.2381275,-0.010473 0.021493,0.096187 c 0.030855,0.1373221 0.1882539,0.4931412 0.3161246,0.7149333 0.3208145,0.5564508 0.7057203,0.9543573 1.0123153,1.0462155 0.054224,0.01624 0.098668,0.035068 0.098668,0.041892 0,0.00683 -0.04564,0.071097 -0.1014241,0.1427659 -0.5602234,0.7197355 -0.8449774,1.5952637 -0.7317445,2.250355 0.1187254,0.6868593 0.6412088,1.7388204 1.0591699,2.1323954 0.3443214,0.324233 0.6883605,0.4236 1.2148884,0.350853 0.2500966,-0.03455 0.3508429,-0.06617 0.6523689,-0.204228 0.3056866,-0.13995 0.5101435,-0.193096 0.7413913,-0.192926 0.2086928,1.42e-4 0.3208397,0.05669 0.5233828,0.264033 0.09223,0.09442 0.1865466,0.185763 0.209464,0.202848 0.022922,0.01709 0.1388777,0.04458 0.2576951,0.06145 0.2951539,0.04189 1.0797419,0.02766 1.3755709,-0.02507 0.277979,-0.04955 0.673096,-0.178349 0.856319,-0.278916 0.161904,-0.08887 0.272407,-0.232647 0.38613,-0.502436 0.133235,-0.316088 0.169805,-0.4978 0.172532,-0.8590781 C 12.5014,9.456335 12.46428,9.2862253 12.320005,9.0000666 11.974069,8.3139366 11.206321,7.7529087 10.29813,7.5225272 9.436643,7.3039931 8.4403429,7.3715532 7.7220029,7.6972635 7.4110571,7.8382533 7.0136201,8.1341886 6.8882829,8.318213 6.8570971,8.3640014 6.8194096,8.4016351 6.8044976,8.4017227 6.7513022,8.4020117 6.5694356,8.168932 6.5181389,8.0348863 6.3910848,7.7028729 6.4033339,7.2143351 6.5517636,6.6973505 L 6.5870412,6.5744282 H 6.7094129 C 6.8755568,6.5743001 7.225147,6.5156098 7.3824519,6.4614283 7.6670473,6.3634045 7.9774885,6.1757998 8.2569627,5.9333603 8.5243358,5.701418 8.9102723,5.1968218 9.157104,4.7562293 L 9.2502603,4.5897615 9.0366629,4.5748765 c -0.059913,-0.00415 -0.1304808,-0.00547 -0.2067071,-0.00412 z m 0.7256802,3.186051 c 0.1655049,0.00231 0.3404915,0.049219 0.4252667,0.139459 0.068201,0.072589 0.057162,0.1696353 -0.026457,0.2317878 C 9.8725018,8.1889582 9.5726484,8.205776 9.4255557,8.1578086 9.2282234,8.0934569 9.1333769,7.9851836 9.1868708,7.885229 9.2341731,7.7968445 9.3901325,7.7544696 9.5556375,7.7567946 Z M 5.2310442,9.8596971 c -0.00427,0.00686 0.017499,0.071568 0.066147,0.1940309 0.513466,1.292579 1.5898189,2.093121 3.0515539,2.270197 1.1733861,0.142147 2.4028159,-0.112786 3.1549069,-0.654295 0.178918,-0.128825 0.398348,-0.334275 0.329631,-0.308684 -0.522323,0.194518 -0.878669,0.255767 -1.499319,0.25797 -0.7639373,0.0028 -0.9341878,-0.04142 -1.1561846,-0.299588 -0.062567,-0.07274 -0.155068,-0.15976 -0.2056048,-0.193202 -0.080702,-0.0534 -0.1140304,-0.06034 -0.2734054,-0.05732 -0.22002,0.0041 -0.4016297,0.04914 -0.5958691,0.147175 C 7.8881171,11.3244 7.6739316,11.400518 7.4780926,11.43812 7.2352832,11.48475 6.7723211,11.48279 6.6090945,11.43442 6.1494148,11.298627 5.7662935,10.889088 5.3765661,10.117392 5.2854118,9.9368994 5.2365465,9.8507433 5.2310442,9.8596971 Z m 3.4183907,1.4287639 c 0.1553,0.01061 0.2554898,0.122501 0.2554898,0.295177 0,0.110234 -0.068337,0.206827 -0.1788706,0.253012 -0.101164,0.04226 -0.144123,0.04088 -0.2411583,-0.0086 -0.2507202,-0.127753 -0.183977,-0.506567 0.094809,-0.537991 0.024311,-0.0028 0.047543,-0.0031 0.069731,-0.0017 z" />
</svg>
