<?xml version="1.0" encoding="UTF-8" standalone="no"?>
<svg
   width="64"
   height="64"
   version="1.1"
   viewBox="0 0 16.933 16.933"
   id="svg7"
   sodipodi:docname="abcd.svg"
   inkscape:version="1.4.3 (0d15f75042, 2025-12-25)"
   xmlns:inkscape="http://www.inkscape.org/namespaces/inkscape"
   xmlns:sodipodi="http://sodipodi.sourceforge.net/DTD/sodipodi-0.dtd"
   xmlns="http://www.w3.org/2000/svg"
   xmlns:svg="http://www.w3.org/2000/svg"
   xmlns:rdf="http://www.w3.org/1999/02/22-rdf-syntax-ns#"
   xmlns:cc="http://creativecommons.org/ns#"
   xmlns:dc="http://purl.org/dc/elements/1.1/">
  <sodipodi:namedview
     id="namedview7"
     pagecolor="#9c4444"
     bordercolor="#000000"
     borderopacity="0.25"
     inkscape:showpageshadow="2"
     inkscape:pageopacity="0.0"
     inkscape:pagecheckerboard="0"
     inkscape:deskcolor="#d1d1d1"
     inkscape:zoom="4.3531261"
     inkscape:cx="40.200995"
     inkscape:cy="23.431437"
     inkscape:window-width="1226"
     inkscape:window-height="669"
     inkscape:window-x="474"
     inkscape:window-y="225"
     inkscape:window-maximized="0"
     inkscape:current-layer="svg7"
     showgrid="false" />
  <defs
     id="defs2">
    <filter
       style="color-interpolation-filters:sRGB;"
       inkscape:label="Blur"
       id="filter5421"
       x="-0.12256455"
       y="-0.12342654"
       width="1.2451291"
       height="1.2468531">
      <feGaussianBlur
         stdDeviation="0.5 0.5"
         result="blur"
         id="feGaussianBlur5419" />
    </filter>
  </defs>
  <metadata
     id="metadata2">
    <rdf:RDF>
      <cc:Work
         rdf:about="">
        <dc:format>image/svg+xml</dc:format>
        <dc:type
           rdf:resource="http://purl.org/dc/dcmitype/StillImage" />
      </cc:Work>
    </rdf:RDF>
  </metadata>
  <rect
     style="opacity:0.3;fill:none;fill-opacity:0.996424;stroke:#000000;stroke-width:0.955221;stroke-dasharray:none;stroke-opacity:1;filter:url(#filter5421)"
     id="rect1-2-7"
     width="13.687567"
     height="13.591975"
     x="1.6227165"
     y="1.6705122"
     rx="2.8442214"
     ry="2.965905" />
  <rect
     style="fill:none;fill-opacity:1;stroke:{{colors.primary.default.hex}};stroke-width:0.955221;stroke-dasharray:none;stroke-opacity:1"
     id="rect1-2"
     width="13.687567"
     height="13.591975"
     x="1.6227167"
     y="1.6705124"
     rx="2.8442214"
     ry="2.965905" />
  <path
     style="fill:{{colors.primary.default.hex}};fill-opacity:1;stroke:none;stroke-width:0.00742177;stroke-opacity:0.5"
     d="M 5.9404361,12.563883 C 5.5422502,12.461069 5.2386258,12.161479 5.1212694,11.755604 L 5.0869345,11.636858 V 9.514234 c 0,-1.6645545 0.00416,-2.1514526 0.019319,-2.2562145 C 5.1626265,6.8681826 5.2648065,6.5302469 5.4229874,6.2104882 6.108096,4.8255627 7.6674897,4.0862495 9.2049624,4.417443 9.794888,4.5445215 10.387321,4.861482 10.822349,5.2827685 c 0.544778,0.5275696 0.863298,1.141087 0.990808,1.9084553 0.02356,0.141765 0.02641,0.3417393 0.03141,2.2116837 0.0038,1.3953625 4.2e-4,2.0996105 -0.01031,2.1921065 -0.01805,0.155457 -0.07642,0.333694 -0.150524,0.459735 -0.02795,0.04753 -0.107589,0.143571 -0.176982,0.21342 -0.213984,0.215387 -0.480735,0.325886 -0.786707,0.325886 -0.248119,0 -0.445471,-0.06355 -0.665627,-0.21432 C 9.9044578,12.277036 9.8271843,12.242833 9.6962923,12.221216 9.5092605,12.190332 9.3465547,12.237672 9.1126479,12.39104 8.8955871,12.533366 8.7006658,12.593621 8.4564063,12.593901 8.2227274,12.59416 8.0272364,12.533156 7.8182927,12.394763 7.5988862,12.249431 7.5170597,12.220424 7.3279992,12.220953 c -0.157208,4.2e-4 -0.2752138,0.03989 -0.430161,0.143796 C 6.7405891,12.470205 6.5821162,12.5418 6.442026,12.57068 6.2871574,12.6026 6.0794928,12.599794 5.9404311,12.564001 Z M 6.3128756,8.8338497 C 6.39948,8.8075831 7.7303094,8.0470301 7.7916767,7.9887314 7.8656213,7.9184838 7.899834,7.8314718 7.8994546,7.71462 7.8990605,7.5936884 7.8676634,7.517785 7.7865125,7.4415913 7.728735,7.3873423 6.4184063,6.6317921 6.3265967,6.5997875 6.2591929,6.5762899 6.1495029,6.5782756 6.0756579,6.6043262 5.8192614,6.6947879 5.7393087,7.0374609 5.9306665,7.2257531 5.969376,7.263843 6.1381224,7.3697916 6.3688001,7.5008395 6.6975584,7.687607 6.7406383,7.7162177 6.7170041,7.7320945 6.7021717,7.7420598 6.5330637,7.8391704 6.3412113,7.9478977 5.9747337,8.1555887 5.913291,8.2003154 5.8615512,8.2970618 c -0.044786,0.083744 -0.044786,0.257656 0,0.341401 0.046734,0.087388 0.1258616,0.1561505 0.2151878,0.1870017 0.094938,0.032789 0.1492954,0.034719 0.2361366,0.00838 z M 10.797602,8.0811578 c 0.145605,-0.040439 0.263848,-0.1985437 0.263848,-0.3527962 0,-0.1147173 -0.0259,-0.1872532 -0.09481,-0.2655414 -0.1142,-0.129739 -0.04314,-0.122509 -1.2039985,-0.122509 -0.9602272,0 -1.027932,0.00168 -1.0839059,0.027121 -0.07622,0.034627 -0.1525032,0.1109067 -0.1871279,0.1871282 -0.033734,0.074257 -0.036615,0.235307 -0.00555,0.3096779 0.042498,0.1017116 0.1364793,0.1856051 0.2448541,0.2185711 0.058761,0.017874 2.0019672,0.016322 2.0666822,-0.00165 z"
     id="path9" />
</svg>
