<?xml version="1.0" encoding="UTF-8" standalone="no"?>
<svg
   width="64"
   height="64"
   version="1.1"
   viewBox="0 0 16.933 16.933"
   id="svg7"
   sodipodi:docname="abcd.svg"
   inkscape:version="1.4.3 (0d15f75042, 2025-12-25)"
   xmlns:inkscape="http://www.inkscape.org/namespaces/inkscape"
   xmlns:sodipodi="http://sodipodi.sourceforge.net/DTD/sodipodi-0.dtd"
   xmlns="http://www.w3.org/2000/svg"
   xmlns:svg="http://www.w3.org/2000/svg"
   xmlns:rdf="http://www.w3.org/1999/02/22-rdf-syntax-ns#"
   xmlns:cc="http://creativecommons.org/ns#"
   xmlns:dc="http://purl.org/dc/elements/1.1/">
  <sodipodi:namedview
     id="namedview7"
     pagecolor="#9c4444"
     bordercolor="#000000"
     borderopacity="0.25"
     inkscape:showpageshadow="2"
     inkscape:pageopacity="0.0"
     inkscape:pagecheckerboard="0"
     inkscape:deskcolor="#d1d1d1"
     inkscape:zoom="4.3531261"
     inkscape:cx="40.200995"
     inkscape:cy="23.201717"
     inkscape:window-width="1226"
     inkscape:window-height="669"
     inkscape:window-x="77"
     inkscape:window-y="131"
     inkscape:window-maximized="0"
     inkscape:current-layer="svg7"
     showgrid="false" />
  <defs
     id="defs2">
    <filter
       style="color-interpolation-filters:sRGB;"
       inkscape:label="Blur"
       id="filter5421"
       x="-0.12256455"
       y="-0.12342654"
       width="1.2451291"
       height="1.2468531">
      <feGaussianBlur
         stdDeviation="0.5 0.5"
         result="blur"
         id="feGaussianBlur5419" />
    </filter>
  </defs>
  <metadata
     id="metadata2">
    <rdf:RDF>
      <cc:Work
         rdf:about="">
        <dc:format>image/svg+xml</dc:format>
        <dc:type
           rdf:resource="http://purl.org/dc/dcmitype/StillImage" />
      </cc:Work>
    </rdf:RDF>
  </metadata>
  <rect
     style="opacity:0.3;fill:none;fill-opacity:0.996424;stroke:#000000;stroke-width:0.955221;stroke-dasharray:none;stroke-opacity:1;filter:url(#filter5421)"
     id="rect1-2-7"
     width="13.687567"
     height="13.591975"
     x="1.6227165"
     y="1.6705122"
     rx="2.8442214"
     ry="2.965905" />
  <rect
     style="fill:none;fill-opacity:1;stroke:{{colors.primary.default.hex}};stroke-width:0.955221;stroke-dasharray:none;stroke-opacity:1"
     id="rect1-2"
     width="13.687567"
     height="13.591975"
     x="1.6227167"
     y="1.6705124"
     rx="2.8442214"
     ry="2.965905" />
  <path
     style="fill:{{colors.primary.default.hex}};fill-opacity:1;stroke-width:0.0120456"
     d="M 8.2401844,12.062608 C 8.2236212,12.059758 8.161285,12.051398 8.1016591,12.043969 7.6690185,11.990046 7.2164092,11.791291 6.7826601,11.464757 6.5112496,11.260432 6.3134266,11.074953 5.6499618,10.402723 5.1802009,9.9267559 4.9948475,9.7623977 4.7187702,9.5770112 4.5968606,9.4951492 4.5381853,9.4337493 4.494684,9.3425241 4.4023128,9.1488125 4.4194883,8.8956298 4.5365404,8.7255045 4.5598213,8.6916691 4.6261707,8.6268876 4.6839857,8.5815457 4.8078294,8.4844186 5.1521031,8.1426957 5.3535999,7.9168915 L 5.4958738,7.7574538 5.1304434,7.3792653 C 4.9086036,7.1496806 4.7489457,6.9743112 4.7241226,6.9329604 4.5834614,6.6986421 4.6210919,6.4060903 4.8171105,6.2100384 5.0170158,6.010099 5.3391274,5.9773797 5.5684003,6.1337239 c 0.031772,0.021665 0.2155058,0.2033625 0.4083003,0.4037714 0.1927942,0.20041 0.3543696,0.3643819 0.359056,0.3643819 0.00468,0 0.059725,-0.041133 0.1223119,-0.091409 0.062586,-0.050274 0.190449,-0.1426973 0.2841408,-0.2053839 L 6.9125574,6.4911073 6.8946488,6.4224534 C 6.8848,6.384694 6.8284692,6.1751605 6.7694719,5.9568234 6.6755305,5.609166 6.6622039,5.5475931 6.6622039,5.4612094 c 0,-0.4535979 0.4781658,-0.7356225 0.8821535,-0.5202994 0.099607,0.053091 0.1932536,0.1509546 0.2438027,0.2547825 0.025457,0.052288 0.083814,0.236144 0.148755,0.4686637 0.058775,0.2104413 0.1099252,0.3856801 0.1136645,0.3894195 0.00375,0.00373 0.081808,1.831e-4 0.173487,-0.00785 0.1568128,-0.013777 0.4175221,-0.010256 0.6003322,0.00811 l 0.072273,0.00727 0.1116721,-0.4000867 c 0.06142,-0.2200654 0.1263672,-0.4307021 0.1443292,-0.4680997 0.042689,-0.088883 0.16943,-0.2165041 0.2575176,-0.2593062 0.2473872,-0.1202063 0.5070481,-0.0785 0.6981383,0.1121345 0.127019,0.1267157 0.192283,0.2980003 0.175335,0.4601568 -0.0042,0.040056 -0.06203,0.274053 -0.128541,0.519994 -0.06651,0.2459409 -0.119395,0.4534799 -0.117522,0.4611979 0.002,0.00771 0.07658,0.063042 0.166026,0.1229452 0.08944,0.0599 0.213822,0.1500205 0.276408,0.2002642 0.06259,0.050244 0.117556,0.091353 0.122155,0.091353 0.0046,0 0.159001,-0.1558404 0.343116,-0.3463126 0.184111,-0.1904714 0.354094,-0.3630313 0.377739,-0.3834647 0.213062,-0.1841395 0.538525,-0.1834824 0.760437,0.00154 0.234774,0.1957434 0.284393,0.5295286 0.116501,0.783699 -0.0214,0.032418 -0.200447,0.2258069 -0.397848,0.4297515 l -0.358914,0.370809 0.147635,0.1652402 c 0.205239,0.229711 0.537717,0.5597014 0.663263,0.6582972 0.181969,0.1429103 0.242052,0.2620761 0.243336,0.4826408 0.0014,0.2484672 -0.06404,0.3660131 -0.290609,0.5216982 -0.299482,0.2057802 -0.443768,0.3353185 -0.986765,0.8859067 -0.458191,0.464596 -0.673437,0.672901 -0.847815,0.820474 -0.502848,0.425551 -0.9673184,0.658085 -1.4936621,0.747788 -0.1085677,0.0185 -0.5672448,0.03479 -0.6384191,0.02267 z m 0.5203575,-0.721809 c 0.8913362,-0.117664 1.6287751,-0.727203 1.9064081,-1.5757602 0.02343,-0.0716 0.0426,-0.1352905 0.0426,-0.141536 0,-0.00694 -0.21043,-0.011356 -0.541347,-0.011356 H 9.6268461 l -0.038301,0.071861 C 9.4969508,9.8558492 9.3078503,10.047303 9.1211765,10.157186 8.9251481,10.272576 8.7502516,10.32246 8.5112068,10.331162 8.3693384,10.336307 8.3228105,10.333238 8.2181085,10.31157 7.9616901,10.258561 7.7358563,10.136126 7.553245,9.951112 7.3906396,9.7863669 7.281445,9.5986926 7.2214166,9.3807902 7.1830983,9.2416972 7.1695609,9.0032113 7.1914758,8.8533335 7.2689473,8.3235051 7.6828273,7.8893919 8.2160931,7.7786262 8.3800653,7.7445668 8.6442012,7.7532412 8.8039983,7.797934 9.1344718,7.8903604 9.4049968,8.0970943 9.5820575,8.392522 l 0.045125,0.075286 h 0.5414125 0.541412 l -0.0079,-0.033126 C 10.684627,8.3628448 10.609965,8.1600735 10.565312,8.063423 10.361484,7.6223062 9.9921534,7.2345536 9.5521587,6.999767 8.9033459,6.653553 8.091387,6.643181 7.4359374,6.9727347 6.9758506,7.2040619 6.6198239,7.5634887 6.3905147,8.0281426 6.2183935,8.3769142 6.1462152,8.7199301 6.159911,9.1240492 c 0.00985,0.2909536 0.055815,0.520621 0.1535118,0.7671808 0.2139473,0.539949 0.6241219,0.984417 1.1377739,1.232898 0.4089208,0.197819 0.8718447,0.274422 1.3093478,0.21667 z"
     id="path5" />
</svg>
