<?xml version="1.0" encoding="UTF-8" standalone="no"?>
<svg
   width="64"
   height="64"
   version="1.1"
   viewBox="0 0 16.933 16.933"
   id="svg7"
   sodipodi:docname="abcd.svg"
   inkscape:version="1.4.3 (0d15f75042, 2025-12-25)"
   xmlns:inkscape="http://www.inkscape.org/namespaces/inkscape"
   xmlns:sodipodi="http://sodipodi.sourceforge.net/DTD/sodipodi-0.dtd"
   xmlns="http://www.w3.org/2000/svg"
   xmlns:svg="http://www.w3.org/2000/svg"
   xmlns:rdf="http://www.w3.org/1999/02/22-rdf-syntax-ns#"
   xmlns:cc="http://creativecommons.org/ns#"
   xmlns:dc="http://purl.org/dc/elements/1.1/">
  <sodipodi:namedview
     id="namedview7"
     pagecolor="#9c4444"
     bordercolor="#000000"
     borderopacity="0.25"
     inkscape:showpageshadow="2"
     inkscape:pageopacity="0.0"
     inkscape:pagecheckerboard="0"
     inkscape:deskcolor="#d1d1d1"
     inkscape:zoom="4.3531261"
     inkscape:cx="32.620236"
     inkscape:cy="33.768836"
     inkscape:window-width="1226"
     inkscape:window-height="669"
     inkscape:window-x="100"
     inkscape:window-y="206"
     inkscape:window-maximized="0"
     inkscape:current-layer="svg7"
     showgrid="false" />
  <defs
     id="defs2">
    <filter
       style="color-interpolation-filters:sRGB;"
       inkscape:label="Blur"
       id="filter5421"
       x="-0.12256455"
       y="-0.12342654"
       width="1.2451291"
       height="1.2468531">
      <feGaussianBlur
         stdDeviation="0.5 0.5"
         result="blur"
         id="feGaussianBlur5419" />
    </filter>
  </defs>
  <metadata
     id="metadata2">
    <rdf:RDF>
      <cc:Work
         rdf:about="">
        <dc:format>image/svg+xml</dc:format>
        <dc:type
           rdf:resource="http://purl.org/dc/dcmitype/StillImage" />
      </cc:Work>
    </rdf:RDF>
  </metadata>
  <rect
     style="opacity:0.3;fill:none;fill-opacity:0.996424;stroke:#000000;stroke-width:0.955221;stroke-dasharray:none;stroke-opacity:1;filter:url(#filter5421)"
     id="rect1-2-7"
     width="13.687567"
     height="13.591975"
     x="1.6227165"
     y="1.6705122"
     rx="2.8442214"
     ry="2.965905" />
  <rect
     style="fill:none;fill-opacity:1;stroke:{{colors.primary.default.hex}};stroke-width:0.955221;stroke-dasharray:none;stroke-opacity:1"
     id="rect1-2"
     width="13.687567"
     height="13.591975"
     x="1.6227167"
     y="1.6705124"
     rx="2.8442214"
     ry="2.965905" />
  <path
     style="fill:{{colors.primary.default.hex}};fill-opacity:1;stroke:none;stroke-width:0.12673;stroke-dasharray:none;stroke-opacity:0.6"
     d="m 11.392306,4.4608083 c -0.231687,0.010041 -0.460191,0.1042103 -0.63969,0.2809237 -0.39411,0.3895722 -0.40937,1.0326176 -0.03087,1.4382547 l -0.0042,-0.0081 c 0.296559,0.3132639 0.757176,0.3933496 1.139583,0.2005711 L 11.17804,5.6779274 c -0.02342,-0.028112 -0.02342,-0.068435 0,-0.096548 L 12.051943,4.68566 c -0.19313,-0.1606368 -0.42795,-0.2348929 -0.65964,-0.2248525 z m 0.753471,0.3170511 -0.830933,0.8558521 0.651795,0.6702305 C 12.021269,6.267798 12.06808,6.224165 12.11491,6.1799867 12.493416,5.79443 12.504771,5.1754645 12.14577,4.7778594 Z m -0.04476,0.5151305 c 0.02075,-8.05e-5 0.04046,0.00984 0.05267,0.02741 0.07022,0.1365511 0.05095,0.3008664 -0.0466,0.417336 -0.0117,0.016069 -0.03558,0.028029 -0.05506,0.028029 -0.01561,0.00401 -0.03521,0.00401 -0.05083,0 l -0.0036,-0.00371 c -0.02732,-0.028115 -0.02368,-0.076533 0.0036,-0.1046453 0.05853,-0.068276 0.06687,-0.1682091 0.02785,-0.2485336 0,-0.00401 -0.0042,-0.00409 -0.0042,-0.0081 -0.01561,-0.036144 0.0042,-0.080482 0.03936,-0.096548 0.0117,-0.00751 0.02444,-0.011168 0.03692,-0.011213 z m -1.94995,0.7026203 C 9.7320066,5.9607841 9.0436395,6.43144 7.2642769,8.2598174 L 7.7792968,8.7905212 10.190999,6.3083015 c 0.08583,-0.088357 0.199183,-0.1367578 0.32015,-0.1407723 -0.110237,-0.092372 -0.220408,-0.1603084 -0.36009,-0.171919 z M 10.51842,6.321382 c -0.08583,0 -0.171504,0.032771 -0.237841,0.09904 L 7.876733,8.8783494 8.2005138,9.2277907 10.741121,6.922472 c 0.07022,-0.064261 0.109275,-0.1521443 0.113171,-0.2485344 0.0039,-0.092371 -0.03109,-0.1852394 -0.09743,-0.2535147 -0.06633,-0.066268 -0.152599,-0.099039 -0.238446,-0.099039 z m 0.374615,0.621646 c -0.01951,0.028115 -0.04255,0.052175 -0.06595,0.072256 L 8.2864592,9.3162411 8.7391447,9.7821628 C 9.7888044,8.7499986 10.81108,7.690041 10.893026,6.943028 Z M 7.1704714,8.3401721 6.5344113,8.9948297 6.5229125,9.0110329 c -0.011704,0.012043 -0.015395,0.024425 -0.011494,0.040487 0.00388,0.024094 0.026823,0.040139 0.050232,0.036124 L 7.6503961,8.8465833 Z M 7.7871652,8.9948297 7.4240484,9.3685646 c -0.00781,0.012049 -0.00781,0.028437 0,0.040486 0.011704,0.00804 0.023405,0.00804 0.035101,0 L 8.0564757,9.252081 Z M 8.169649,9.3766605 7.1825758,9.5934267 5.1454892,11.693814 5.8087828,12.397057 c 0.019507,0.0201 0.054658,0.0201 0.078069,0 0.023402,-0.01608 0.039275,-0.04824 0.03147,-0.08035 L 5.8087802,11.834588 c -0.011705,-0.05623 0.015849,-0.112662 0.06657,-0.140775 h 0.0036 v -0.0081 C 6.8700901,11.19974 7.7988121,10.585417 8.6416674,9.8624993 Z M 5.0401829,11.794099 4.5287931,12.324802 c -0.00389,0.01205 -0.00389,0.02756 0,0.0436 0.00389,0.01204 0.019495,0.02464 0.035101,0.02866 l 1.1395796,0.07601 z"
     id="path8" />
</svg>
