<?xml version="1.0" encoding="UTF-8" standalone="no"?>
<svg
   width="64"
   height="64"
   version="1.1"
   viewBox="0 0 16.933 16.933"
   id="svg7"
   sodipodi:docname="abcd.svg"
   inkscape:version="1.4.3 (0d15f75042, 2025-12-25)"
   xmlns:inkscape="http://www.inkscape.org/namespaces/inkscape"
   xmlns:sodipodi="http://sodipodi.sourceforge.net/DTD/sodipodi-0.dtd"
   xmlns="http://www.w3.org/2000/svg"
   xmlns:svg="http://www.w3.org/2000/svg"
   xmlns:rdf="http://www.w3.org/1999/02/22-rdf-syntax-ns#"
   xmlns:cc="http://creativecommons.org/ns#"
   xmlns:dc="http://purl.org/dc/elements/1.1/">
  <sodipodi:namedview
     id="namedview7"
     pagecolor="#9c4444"
     bordercolor="#000000"
     borderopacity="0.25"
     inkscape:showpageshadow="2"
     inkscape:pageopacity="0.0"
     inkscape:pagecheckerboard="0"
     inkscape:deskcolor="#d1d1d1"
     inkscape:zoom="4.3531261"
     inkscape:cx="32.620236"
     inkscape:cy="33.768836"
     inkscape:window-width="1226"
     inkscape:window-height="669"
     inkscape:window-x="100"
     inkscape:window-y="206"
     inkscape:window-maximized="0"
     inkscape:current-layer="svg7"
     showgrid="false" />
  <defs
     id="defs2">
    <filter
       style="color-interpolation-filters:sRGB;"
       inkscape:label="Blur"
       id="filter5421"
       x="-0.12256455"
       y="-0.12342654"
       width="1.2451291"
       height="1.2468531">
      <feGaussianBlur
         stdDeviation="0.5 0.5"
         result="blur"
         id="feGaussianBlur5419" />
    </filter>
  </defs>
  <metadata
     id="metadata2">
    <rdf:RDF>
      <cc:Work
         rdf:about="">
        <dc:format>image/svg+xml</dc:format>
        <dc:type
           rdf:resource="http://purl.org/dc/dcmitype/StillImage" />
      </cc:Work>
    </rdf:RDF>
  </metadata>
  <rect
     style="opacity:0.3;fill:none;fill-opacity:0.996424;stroke:#000000;stroke-width:0.955221;stroke-dasharray:none;stroke-opacity:1;filter:url(#filter5421)"
     id="rect1-2-7"
     width="13.687567"
     height="13.591975"
     x="1.6227165"
     y="1.6705122"
     rx="2.8442214"
     ry="2.965905" />
  <rect
     style="fill:none;fill-opacity:1;stroke:{{colors.primary.default.hex}};stroke-width:0.955221;stroke-dasharray:none;stroke-opacity:1"
     id="rect1-2"
     width="13.687567"
     height="13.591975"
     x="1.6227167"
     y="1.6705124"
     rx="2.8442214"
     ry="2.965905" />
  <path
     style="fill:{{colors.primary.default.hex}};fill-opacity:1;stroke-width:0.0173014"
     d="M 7.417309,11.934118 C 7.2541895,11.761369 6.9823907,11.468209 6.8133112,11.282652 6.6442326,11.097095 6.3998427,10.824599 6.2702219,10.677104 6.1406019,10.529609 5.9291064,10.284363 5.8002327,10.13211 5.6713585,9.9798586 5.4765713,9.7423979 5.3673729,9.6044195 5.2581742,9.4664416 5.1142654,9.279587 5.0475761,9.1891871 4.980887,9.0987879 4.8784887,8.9536485 4.8200243,8.8666551 4.7615597,8.7796621 4.6775112,8.6473067 4.6332494,8.5725315 4.5889878,8.4977575 4.5341243,8.3998548 4.5113301,8.3549715 c -0.022795,-0.044883 -0.041445,-0.093331 -0.041445,-0.107662 0,-0.014327 0.1596054,-0.1711727 0.354678,-0.3485372 0.1950726,-0.1773647 0.354678,-0.3293963 0.354678,-0.3378482 0,-0.00846 -0.00756,-0.015363 -0.016803,-0.015363 -0.00924,0 -0.077366,-0.035692 -0.1513873,-0.079313 C 4.9370307,7.4226265 4.8219684,7.3459318 4.7553581,7.2958158 4.6887477,7.2456994 4.5855885,7.1552753 4.5261149,7.0948731 4.466642,7.0344711 4.4179815,6.9758321 4.4179815,6.9645641 c 0,-0.011266 0.04866,-0.051618 0.1081334,-0.089666 0.059474,-0.038049 0.2132393,-0.135433 0.3417018,-0.2164085 0.1284627,-0.080976 0.5138506,-0.3231583 0.8564178,-0.5381827 l 0.622849,-0.390954 0.011556,0.4885457 c 0.00636,0.2687002 0.024032,0.6325795 0.03927,0.8086208 0.015244,0.1760418 0.0433,0.4485379 0.062355,0.605548 0.019056,0.1570095 0.058393,0.4294264 0.087419,0.6053701 0.029025,0.1759441 0.07503,0.4328699 0.1022336,0.5709455 0.027202,0.1380753 0.084216,0.3989728 0.1266959,0.5797721 0.042481,0.1807995 0.1203172,0.4805446 0.1729707,0.6661029 0.052654,0.185557 0.1399996,0.473625 0.1941033,0.64015 0.054104,0.166526 0.1552395,0.454593 0.2247439,0.640151 0.069505,0.185556 0.1783955,0.461947 0.24198,0.614197 0.063585,0.152253 0.1191776,0.282662 0.12354,0.289799 0.00437,0.0071 0.00162,0.01223 -0.00607,0.01131 -0.0077,-9.02e-4 -0.1474591,-0.143001 -0.3105791,-0.31575 z m 1.7817,0.304434 c 0.00434,-0.0071 0.066218,-0.153117 0.137504,-0.324401 C 9.4078,11.742869 9.5246684,11.443122 9.5962234,11.24805 9.6677784,11.052976 9.7695621,10.757123 9.82241,10.590597 9.8752585,10.424072 9.9546217,10.159361 9.9987739,10.00235 10.04293,9.8453412 10.113829,9.5689522 10.156335,9.3881527 c 0.0425,-0.1807992 0.09954,-0.4416969 0.126744,-0.5797721 0.0272,-0.1380762 0.07321,-0.3950011 0.102234,-0.5709453 0.02902,-0.1759443 0.06836,-0.4483608 0.08742,-0.6053711 0.01906,-0.1570091 0.04711,-0.429506 0.06236,-0.605547 0.01525,-0.1760415 0.03292,-0.5399212 0.03926,-0.8086212 l 0.01156,-0.4885456 0.622849,0.390954 c 0.342566,0.2150249 0.727954,0.4572065 0.856418,0.5381827 0.128461,0.080976 0.282228,0.1783591 0.341701,0.216408 0.05947,0.038049 0.108133,0.078399 0.108133,0.089667 0,0.011266 -0.04866,0.069906 -0.108133,0.1303087 -0.05947,0.060403 -0.162633,0.1508268 -0.229243,0.2009426 -0.06661,0.050116 -0.181672,0.1268105 -0.255693,0.1704331 -0.07401,0.043621 -0.142144,0.079313 -0.151387,0.079313 -0.0092,0 -0.0168,0.00693 -0.0168,0.015363 0,0.00846 0.159604,0.1604835 0.354676,0.3378475 0.195074,0.1773647 0.354679,0.3342061 0.354679,0.3485374 0,0.014333 -0.01865,0.062779 -0.04144,0.107662 -0.0228,0.044883 -0.07766,0.1427857 -0.121919,0.2175603 -0.04426,0.074775 -0.128311,0.2071297 -0.186775,0.2941231 -0.05846,0.086992 -0.160863,0.2321324 -0.227552,0.322532 -0.06669,0.0904 -0.210597,0.2772544 -0.319796,0.4152325 -0.109199,0.1379783 -0.304054,0.3754396 -0.433009,0.5276907 -0.128957,0.152253 -0.315728,0.37025 -0.415048,0.48444 -0.09932,0.114189 -0.243537,0.277267 -0.320482,0.362396 -0.07694,0.08513 -0.243828,0.268091 -0.370854,0.406583 -0.1270261,0.138491 -0.3605939,0.38926 -0.5190413,0.557268 -0.1584469,0.168009 -0.2943836,0.306202 -0.3020824,0.3071 -0.0077,9.03e-4 -0.010448,-0.0043 -0.0061,-0.01134 z M 8.3367397,11.22438 c -0.028548,-0.01331 -0.069338,-0.04091 -0.090647,-0.06132 -0.021308,-0.02042 -0.052068,-0.06219 -0.068353,-0.09284 -0.018356,-0.03454 -0.029339,-0.09328 -0.028893,-0.154517 5.489e-4,-0.07723 0.010764,-0.113976 0.046745,-0.168347 0.025315,-0.03826 0.076853,-0.08529 0.114527,-0.1045 0.042109,-0.02149 0.1023538,-0.03494 0.1563812,-0.03494 0.054029,0 0.1142737,0.01346 0.156383,0.03494 0.037673,0.01923 0.08921,0.06624 0.1145262,0.1045 0.035784,0.05407 0.046273,0.09154 0.04713,0.168347 8.234e-4,0.07239 -0.00942,0.117369 -0.038282,0.168293 -0.021659,0.03823 -0.066944,0.08839 -0.1006308,0.111472 -0.042889,0.02939 -0.090588,0.04364 -0.1591156,0.04757 -0.059018,0.0033 -0.1184692,-0.0041 -0.1497705,-0.01863 z M 8.4059453,9.8989815 C 8.3773978,9.892379 8.3287056,9.8738341 8.297738,9.8576983 8.2667709,9.8415626 8.2201876,9.796259 8.1942183,9.7570206 8.1568957,9.7006229 8.1470014,9.6653456 8.1470014,9.5886747 c 0,-0.065499 0.011147,-0.1160187 0.034314,-0.1555765 0.018872,-0.032219 0.063202,-0.08193 0.098513,-0.1104681 0.045769,-0.036993 0.088648,-0.054237 0.1493698,-0.060071 0.046843,-0.0045 0.1128145,9.477e-4 0.1466014,0.01209 0.033787,0.011151 0.088775,0.050541 0.1221956,0.087533 0.03342,0.036994 0.069603,0.1000833 0.080406,0.1402008 0.0108,0.040117 0.01459,0.100897 0.00842,0.1350664 -0.00618,0.034168 -0.030171,0.091168 -0.053333,0.1266631 -0.023158,0.035496 -0.071296,0.079139 -0.1069694,0.096985 -0.035674,0.017851 -0.088219,0.036362 -0.1167656,0.041136 -0.028548,0.00479 -0.07526,0.00334 -0.1038078,-0.00325 z M 8.3567271,8.5411013 c -0.036587,-0.013043 -0.085986,-0.041898 -0.109778,-0.06412 -0.023792,-0.02222 -0.053529,-0.060135 -0.066082,-0.084255 -0.012551,-0.024115 -0.028019,-0.071539 -0.034367,-0.1053783 -0.00636,-0.03384 -0.00237,-0.095574 0.00883,-0.1371864 0.012268,-0.045567 0.045766,-0.1010514 0.084218,-0.1395026 0.038163,-0.038165 0.093953,-0.071952 0.1386972,-0.084 0.041167,-0.011087 0.1049352,-0.015075 0.1417058,-0.00886 0.03677,0.00621 0.092153,0.028343 0.1230746,0.049182 0.030921,0.02084 0.07327,0.063186 0.094107,0.094107 0.02084,0.030922 0.042969,0.086305 0.049182,0.1230748 0.00622,0.036771 0.00219,0.1005371 -0.00886,0.1417056 C 8.7654297,8.3705264 8.7316397,8.4263803 8.6936927,8.464328 8.6587067,8.499314 8.5991177,8.536533 8.5612692,8.547041 8.5234212,8.557551 8.4768812,8.56585 8.4578513,8.565483 8.4388203,8.5650838 8.3933143,8.554149 8.3567283,8.541105 Z M 8.3364181,7.1927214 C 8.3076939,7.1802051 8.2598576,7.1422498 8.2301156,7.1083756 8.200374,7.0745015 8.1665625,7.0180705 8.1549792,6.9829729 8.1426928,6.9457462 8.1386401,6.889263 8.145255,6.8474034 8.151485,6.8079374 8.175721,6.7466052 8.199106,6.7111091 c 0.023383,-0.035497 0.073339,-0.080263 0.1110122,-0.099483 0.042734,-0.021799 0.1023468,-0.034944 0.1584981,-0.034944 0.064701,0 0.1106765,0.012117 0.1635465,0.043101 0.04045,0.023703 0.089448,0.068833 0.1088853,0.1002816 0.019433,0.03145 0.040445,0.089112 0.046686,0.1281384 0.0066,0.041306 0.00254,0.097624 -0.00971,0.1347707 -0.011583,0.035098 -0.045418,0.091554 -0.075187,0.1254615 -0.029771,0.033906 -0.079302,0.072167 -0.1100717,0.085023 -0.03077,0.012859 -0.089285,0.023069 -0.1300316,0.022699 -0.040748,-3.992e-4 -0.097587,-0.010917 -0.126312,-0.023436 z M 7.2513527,6.1974893 7.1948498,6.1470236 7.1894075,5.5097605 c -0.00352,-0.4127993 9.975e-4,-0.6591236 0.012828,-0.6993262 0.010051,-0.034135 0.034726,-0.076955 0.05484,-0.095158 0.024102,-0.021816 0.061015,-0.032806 0.1082825,-0.032249 0.060715,6.986e-4 0.1506564,0.046689 0.58643,0.2997529 L 8.466504,5.2816879 8.9812198,4.9827794 C 9.4169939,4.7297152 9.5069341,4.6837413 9.567649,4.6830264 c 0.047268,-5.74e-4 0.084179,0.010438 0.1082837,0.032249 0.020109,0.018203 0.044791,0.061022 0.054841,0.095158 0.011835,0.040202 0.016351,0.2865271 0.012828,0.6993263 l -0.00544,0.6372631 -0.056503,0.050466 c -0.03806,0.033996 -0.075009,0.050467 -0.113203,0.050467 -0.04195,0 -0.1926101,-0.078569 -0.5790977,-0.3019962 L 8.4669618,5.6439648 7.9441535,5.9459603 C 7.5573071,6.1694184 7.4065901,6.2479564 7.3646052,6.2479564 c -0.038238,0 -0.075166,-0.016459 -0.1132421,-0.050467 z"
     id="path1614" />
</svg>
