<?xml version="1.0" encoding="UTF-8" standalone="no"?>
<svg
   width="64"
   height="64"
   version="1.1"
   viewBox="0 0 16.933 16.933"
   id="svg7"
   sodipodi:docname="abcd.svg"
   inkscape:version="1.4.3 (0d15f75042, 2025-12-25)"
   xmlns:inkscape="http://www.inkscape.org/namespaces/inkscape"
   xmlns:sodipodi="http://sodipodi.sourceforge.net/DTD/sodipodi-0.dtd"
   xmlns="http://www.w3.org/2000/svg"
   xmlns:svg="http://www.w3.org/2000/svg"
   xmlns:rdf="http://www.w3.org/1999/02/22-rdf-syntax-ns#"
   xmlns:cc="http://creativecommons.org/ns#"
   xmlns:dc="http://purl.org/dc/elements/1.1/">
  <sodipodi:namedview
     id="namedview7"
     pagecolor="#9c4444"
     bordercolor="#000000"
     borderopacity="0.25"
     inkscape:showpageshadow="2"
     inkscape:pageopacity="0.0"
     inkscape:pagecheckerboard="0"
     inkscape:deskcolor="#d1d1d1"
     inkscape:zoom="4.3531261"
     inkscape:cx="33.768836"
     inkscape:cy="30.552756"
     inkscape:window-width="1226"
     inkscape:window-height="669"
     inkscape:window-x="100"
     inkscape:window-y="206"
     inkscape:window-maximized="0"
     inkscape:current-layer="svg7"
     showgrid="false" />
  <defs
     id="defs2">
    <filter
       style="color-interpolation-filters:sRGB;"
       inkscape:label="Blur"
       id="filter5421"
       x="-0.12256455"
       y="-0.12342654"
       width="1.2451291"
       height="1.2468531">
      <feGaussianBlur
         stdDeviation="0.5 0.5"
         result="blur"
         id="feGaussianBlur5419" />
    </filter>
  </defs>
  <metadata
     id="metadata2">
    <rdf:RDF>
      <cc:Work
         rdf:about="">
        <dc:format>image/svg+xml</dc:format>
        <dc:type
           rdf:resource="http://purl.org/dc/dcmitype/StillImage" />
      </cc:Work>
    </rdf:RDF>
  </metadata>
  <rect
     style="opacity:0.3;fill:none;fill-opacity:0.996424;stroke:#000000;stroke-width:0.955221;stroke-dasharray:none;stroke-opacity:1;filter:url(#filter5421)"
     id="rect1-2-7"
     width="13.687567"
     height="13.591975"
     x="1.6227165"
     y="1.6705122"
     rx="2.8442214"
     ry="2.965905" />
  <rect
     style="fill:none;fill-opacity:1;stroke:{{colors.primary.default.hex}};stroke-width:0.955221;stroke-dasharray:none;stroke-opacity:1"
     id="rect1-2"
     width="13.687567"
     height="13.591975"
     x="1.6227167"
     y="1.6705124"
     rx="2.8442214"
     ry="2.965905" />
  <path
     style="fill:{{colors.primary.default.hex}};fill-opacity:1;stroke:none;stroke-width:0.137383;stroke-dasharray:none;stroke-opacity:0.6"
     d="m 4.6222117,12.523537 c -0.03982,-0.01609 -0.1053889,-0.07119 -0.1457061,-0.122441 l -0.073303,-0.09318 V 9.7496612 7.191416 L 5.7832809,5.8116546 7.1633575,4.4318926 h 2.5620124 2.5620121 l 0.111964,0.1000297 0.111961,0.1000286 0.0092,2.5771652 0.0092,2.5771638 -1.397648,1.3838711 -1.3977049,1.383872 -2.5198547,-6.3e-4 C 5.8284738,12.553051 4.6619577,12.539597 4.622135,12.523512 Z M 10.231438,9.9344329 V 9.334467 H 9.0818321 c -1.2674745,0 -1.2968653,-0.00417 -1.52014,-0.216011 C 7.3635073,8.9304267 7.3188265,8.7872557 7.3188265,8.3402395 c 0,-0.4470188 0.044681,-0.5901886 0.2428656,-0.7782185 0.2232747,-0.2118343 0.2526655,-0.2160102 1.52014,-0.2160102 H 10.231438 V 6.7460448 6.1460796 L 9.0400793,6.1466312 C 8.0995362,6.1470251 7.8025474,6.1580255 7.6294087,6.1988337 6.933459,6.3628834 6.3341493,6.9621937 6.170099,7.658144 6.101603,7.9487266 6.100905,8.7288963 6.168919,9.0172063 c 0.164972,0.6996862 0.7274047,1.2746227 1.4327949,1.4646467 0.1365903,0.03678 0.4661019,0.04862 1.4041181,0.05034 l 1.225643,0.0022 z"
     id="path5-5" />
</svg>
