<?xml version="1.0" encoding="UTF-8" standalone="no"?>
<svg
   width="64"
   height="64"
   version="1.1"
   viewBox="0 0 16.933 16.933"
   id="svg7"
   sodipodi:docname="abcd.svg"
   inkscape:version="1.4.3 (0d15f75042, 2025-12-25)"
   xmlns:inkscape="http://www.inkscape.org/namespaces/inkscape"
   xmlns:sodipodi="http://sodipodi.sourceforge.net/DTD/sodipodi-0.dtd"
   xmlns="http://www.w3.org/2000/svg"
   xmlns:svg="http://www.w3.org/2000/svg"
   xmlns:rdf="http://www.w3.org/1999/02/22-rdf-syntax-ns#"
   xmlns:cc="http://creativecommons.org/ns#"
   xmlns:dc="http://purl.org/dc/elements/1.1/">
  <sodipodi:namedview
     id="namedview7"
     pagecolor="#9c4444"
     bordercolor="#000000"
     borderopacity="0.25"
     inkscape:showpageshadow="2"
     inkscape:pageopacity="0.0"
     inkscape:pagecheckerboard="0"
     inkscape:deskcolor="#d1d1d1"
     inkscape:zoom="4.3531261"
     inkscape:cx="43.417074"
     inkscape:cy="20.674797"
     inkscape:window-width="1226"
     inkscape:window-height="669"
     inkscape:window-x="367"
     inkscape:window-y="200"
     inkscape:window-maximized="0"
     inkscape:current-layer="svg7"
     showgrid="false" />
  <defs
     id="defs2">
    <filter
       style="color-interpolation-filters:sRGB;"
       inkscape:label="Blur"
       id="filter5421"
       x="-0.12256455"
       y="-0.12342654"
       width="1.2451291"
       height="1.2468531">
      <feGaussianBlur
         stdDeviation="0.5 0.5"
         result="blur"
         id="feGaussianBlur5419" />
    </filter>
  </defs>
  <metadata
     id="metadata2">
    <rdf:RDF>
      <cc:Work
         rdf:about="">
        <dc:format>image/svg+xml</dc:format>
        <dc:type
           rdf:resource="http://purl.org/dc/dcmitype/StillImage" />
      </cc:Work>
    </rdf:RDF>
  </metadata>
  <rect
     style="opacity:0.3;fill:none;fill-opacity:0.996424;stroke:#000000;stroke-width:0.955221;stroke-dasharray:none;stroke-opacity:1;filter:url(#filter5421)"
     id="rect1-2-7"
     width="13.687567"
     height="13.591975"
     x="1.6227165"
     y="1.6705122"
     rx="2.8442214"
     ry="2.965905" />
  <rect
     style="fill:none;fill-opacity:1;stroke:{{colors.primary.default.hex}};stroke-width:0.955221;stroke-dasharray:none;stroke-opacity:1"
     id="rect1-2"
     width="13.687567"
     height="13.591975"
     x="1.6227167"
     y="1.6705124"
     rx="2.8442214"
     ry="2.965905" />
  <path
     id="path10"
     style="fill:{{colors.primary.default.hex}};fill-opacity:1;stroke:none;stroke-width:0.110524;stroke-dasharray:none;stroke-opacity:0.6"
     d="m 10.285454,4.9904467 c -0.04033,-8.9e-6 -0.7195332,0.2485291 -2.0189689,0.738474 l -1.9580168,0.7382021 0.048706,0.055508 c 0.027625,0.031462 0.060599,0.098104 0.075917,0.1531901 l 0.027209,0.097413 h 0.08544 c 0.072772,0 0.3628994,-0.104644 1.9558399,-0.7050066 1.0286726,-0.3876958 1.8862578,-0.7194218 1.9057748,-0.7373859 0.09099,-0.083766 0.08938,-0.2082273 -0.0039,-0.2900563 -0.04198,-0.03686 -0.07359,-0.050327 -0.118093,-0.050338 z M 6.0314717,6.3827719 C 5.9338511,6.382091 5.8347351,6.4152976 5.7555647,6.4848095 5.6940127,6.5388532 5.6211413,6.6749366 5.6208763,6.7365004 v 0.036734 h 0.4086914 c 0.2248731,0 0.4090131,-0.00549 0.4089631,-0.012245 C 6.4381379,6.71693 6.3948979,6.6078083 6.3544526,6.5490233 6.2799556,6.440746 6.1569857,6.383695 6.0314717,6.3827709 Z m 3.628972,0.4056992 v 2.57704 2.5770419 l 1.1569593,-0.0052 c 1.05786,-0.0048 1.163418,-0.0076 1.2307,-0.03375 0.108924,-0.04258 0.224235,-0.133632 0.279445,-0.220672 0.101707,-0.160341 0.09659,-0.03992 0.09659,-2.3280716 0,-2.0777941 -1.28e-4,-2.0902977 -0.03402,-2.1808668 -0.06172,-0.164999 -0.198534,-0.3016761 -0.355354,-0.3548327 -0.04519,-0.015315 -0.348033,-0.021735 -1.217367,-0.025575 z m -0.016323,5.501e-4 -2.3509263,0.00436 -2.3511988,0.00436 -0.1028538,0.04761 C 4.7099398,6.9050162 4.5899347,7.0316333 4.542554,7.1582676 4.508947,7.2480926 4.508815,7.2648516 4.508815,9.3655275 c 0,2.0950865 2.211e-4,2.1175865 0.033469,2.2064435 0.065183,0.174213 0.2429834,0.320277 0.4263769,0.350735 0.048442,0.008 1.1201387,0.01554 2.3816743,0.01659 l 2.2937874,0.0019 V 9.3652238 Z m -2.6067,0.6903117 c 0.2802832,-0.00545 0.5618486,0.049987 0.8181989,0.1684283 0.1151285,0.053194 0.398352,0.2276943 0.398352,0.2454329 -3e-7,0.00468 -0.5351388,0.00843 -1.1890692,0.00843 -0.6894216,0 -1.1822958,-0.00604 -1.1732863,-0.014422 0.00853,-0.00796 0.065286,-0.048216 0.1262527,-0.089519 C 6.3185857,7.5939618 6.6770561,7.4863495 7.0374207,7.4793329 Z M 11.063383,8.037133 c 0.198304,0.00782 0.391501,0.1191297 0.48869,0.319444 0.03903,0.080459 0.04511,0.1130019 0.04516,0.2402622 4.6e-5,0.115864 -0.0076,0.1634812 -0.0351,0.2242091 -0.04881,0.1070759 -0.171652,0.232954 -0.278356,0.2851584 -0.152359,0.074542 -0.360248,0.068603 -0.520526,-0.014964 -0.08099,-0.042236 -0.188942,-0.1607217 -0.234546,-0.2574045 -0.03587,-0.076095 -0.04252,-0.1124793 -0.04244,-0.236998 1.01e-4,-0.1769178 0.03204,-0.2596527 0.148021,-0.3836581 C 10.751809,8.0875379 10.909148,8.03105 11.063385,8.037135 Z m -0.268831,0.2552284 c -0.01605,6.025e-4 -0.03248,0.00649 -0.04763,0.019048 -0.03297,0.027357 -0.02965,0.1084101 0.0051,0.1287028 0.04397,0.025617 0.07781,0.020894 0.110741,-0.015512 0.05152,-0.056935 -0.0053,-0.1344664 -0.06828,-0.13224 z m -5.3018314,0.018236 h 1.573271 1.5735436 l 0.051698,0.085712 c 0.063649,0.1053929 0.151287,0.2971059 0.151287,0.3308713 0,0.022131 -0.1965884,0.02503 -1.7743515,0.02503 -1.4701852,0 -1.7743515,-0.00393 -1.7743515,-0.022045 0,-0.012023 0.044622,-0.1112652 0.099316,-0.2206714 z M 5.1999434,9.1445795 h 1.8684975 1.8684975 l 0.0098,0.036733 c 0.012887,0.048114 0.013359,0.3456457 5.501e-4,0.3790327 -0.00896,0.023383 -0.1897314,0.02585 -1.8785657,0.02585 H 5.1999701 L 5.1896318,9.5102805 C 5.1839003,9.4685479 5.1792955,9.40349 5.1792955,9.3655242 c 0,-0.037966 0.00462,-0.1032953 0.010336,-0.1450285 z m 5.4963806,0.4252836 c 0.201153,0 0.207066,0.0061 0.207066,0.2155017 0,0.1300047 -0.0049,0.1599693 -0.02993,0.1825791 -0.02324,0.021042 -0.06324,0.027207 -0.179857,0.027207 -0.203279,0 -0.215501,-0.012141 -0.215501,-0.2127802 0,-0.2011643 0.01172,-0.2125088 0.218223,-0.2125088 z m 0.691945,0 c 0.206503,0 0.218224,0.011342 0.218224,0.2125091 0,0.1253833 -0.0048,0.1519936 -0.03266,0.1798576 -0.02804,0.028044 -0.05456,0.032913 -0.185571,0.032913 -0.202911,0 -0.215229,-0.012258 -0.215229,-0.2127814 0,-0.2005194 0.01231,-0.2125083 0.215229,-0.2125083 z M 7.0681687,9.978554 c 1.1265857,0 1.7743515,0.00585 1.7743515,0.015786 0,0.033507 -0.070358,0.194254 -0.1346885,0.307473 l -0.067208,0.118366 h -1.565926 -1.566197 l -0.034556,-0.04872 C 5.4334862,10.314654 5.293816,10.024576 5.293816,9.997328 c 0,-0.013707 0.4622265,-0.018774 1.7743512,-0.018774 z m 3.6175453,0.278083 c 0.116558,0 0.179383,0.01717 0.205161,0.05578 0.0067,0.0099 0.01211,0.08604 0.01223,0.169248 2.21e-4,0.129674 -0.0043,0.1559 -0.03238,0.183939 -0.0275,0.0275 -0.05451,0.03266 -0.169518,0.03266 -0.113639,0 -0.144335,-0.0056 -0.180128,-0.03375 -0.04105,-0.03228 -0.04298,-0.04114 -0.04298,-0.186931 0,-0.145802 0.002,-0.154631 0.04298,-0.186933 0.03481,-0.02739 0.06644,-0.03402 0.16462,-0.03402 z m 0.773573,2.62e-4 c 0.06289,1.12e-4 0.07592,0.0087 0.105575,0.03837 0.03855,0.03855 0.04162,0.05305 0.04162,0.188566 0,0.139052 -0.0021,0.148553 -0.04299,0.180671 -0.03569,0.02808 -0.06641,0.03375 -0.178225,0.03375 -0.19721,0 -0.212237,-0.01548 -0.212237,-0.218765 0,-0.204664 0.0076,-0.212729 0.204347,-0.220402 0.03456,-0.0014 0.06094,-0.0021 0.08191,-0.0021 z m -4.3911206,0.555905 c 0.7259646,0 1.1858041,0.0059 1.1858041,0.01524 0,0.02797 -0.278659,0.201264 -0.4252904,0.264479 -0.1629971,0.07027 -0.3404665,0.118841 -0.5286861,0.144485 -0.3419489,0.04658 -0.73493,-0.01858 -1.0494821,-0.173867 -0.1276442,-0.06302 -0.3681484,-0.218349 -0.3681484,-0.237815 0,-0.0069 0.5336726,-0.01253 1.1858029,-0.01253 z" />
</svg>
