<?xml version="1.0" encoding="UTF-8" standalone="no"?>
<svg
   width="64"
   height="64"
   version="1.1"
   viewBox="0 0 16.933 16.933"
   id="svg7"
   sodipodi:docname="abcd.svg"
   inkscape:version="1.4.3 (0d15f75042, 2025-12-25)"
   xmlns:inkscape="http://www.inkscape.org/namespaces/inkscape"
   xmlns:sodipodi="http://sodipodi.sourceforge.net/DTD/sodipodi-0.dtd"
   xmlns="http://www.w3.org/2000/svg"
   xmlns:svg="http://www.w3.org/2000/svg"
   xmlns:rdf="http://www.w3.org/1999/02/22-rdf-syntax-ns#"
   xmlns:cc="http://creativecommons.org/ns#"
   xmlns:dc="http://purl.org/dc/elements/1.1/">
  <sodipodi:namedview
     id="namedview7"
     pagecolor="#9c4444"
     bordercolor="#000000"
     borderopacity="0.25"
     inkscape:showpageshadow="2"
     inkscape:pageopacity="0.0"
     inkscape:pagecheckerboard="0"
     inkscape:deskcolor="#d1d1d1"
     inkscape:zoom="4.3531261"
     inkscape:cx="33.768836"
     inkscape:cy="30.552756"
     inkscape:window-width="1226"
     inkscape:window-height="669"
     inkscape:window-x="100"
     inkscape:window-y="206"
     inkscape:window-maximized="0"
     inkscape:current-layer="svg7"
     showgrid="false" />
  <defs
     id="defs2">
    <filter
       style="color-interpolation-filters:sRGB;"
       inkscape:label="Blur"
       id="filter5421"
       x="-0.12256455"
       y="-0.12342654"
       width="1.2451291"
       height="1.2468531">
      <feGaussianBlur
         stdDeviation="0.5 0.5"
         result="blur"
         id="feGaussianBlur5419" />
    </filter>
  </defs>
  <metadata
     id="metadata2">
    <rdf:RDF>
      <cc:Work
         rdf:about="">
        <dc:format>image/svg+xml</dc:format>
        <dc:type
           rdf:resource="http://purl.org/dc/dcmitype/StillImage" />
      </cc:Work>
    </rdf:RDF>
  </metadata>
  <rect
     style="opacity:0.3;fill:none;fill-opacity:0.996424;stroke:#000000;stroke-width:0.955221;stroke-dasharray:none;stroke-opacity:1;filter:url(#filter5421)"
     id="rect1-2-7"
     width="13.687567"
     height="13.591975"
     x="1.6227165"
     y="1.6705122"
     rx="2.8442214"
     ry="2.965905" />
  <rect
     style="fill:none;fill-opacity:1;stroke:{{colors.primary.default.hex}};stroke-width:0.955221;stroke-dasharray:none;stroke-opacity:1"
     id="rect1-2"
     width="13.687567"
     height="13.591975"
     x="1.6227167"
     y="1.6705124"
     rx="2.8442214"
     ry="2.965905" />
  <path
     id="path5-2"
     style="fill:{{colors.primary.default.hex}};fill-opacity:1;stroke:none;stroke-width:0.135095;stroke-dasharray:none;stroke-opacity:0.6"
     d="m 8.5068844,4.4568883 c -0.1347887,8.33e-5 -0.269129,0.00428 -0.3561686,0.012345 C 7.2101343,4.5563321 6.3359612,4.9709358 5.653057,5.6538413 4.8750289,6.4318686 4.4558287,7.433466 4.4558287,8.5149599 c 0,0.6410843 0.1372082,1.2232952 0.421512,1.7906541 0.5646053,1.126731 1.6302773,1.905897 2.8978574,2.118778 0.098333,0.01652 0.2270564,0.03479 0.2860555,0.0404 0.1795552,0.01706 0.5941163,0.0144 0.7748751,-0.0047 0.4119422,-0.04369 0.722175,-0.121907 1.1798393,-0.297837 0.467303,-0.179633 0.635924,-0.220486 0.911732,-0.220431 0.27567,5.4e-5 0.480226,0.04691 0.954641,0.218747 0.302886,0.109704 0.423721,0.14727 0.435817,0.135177 0.01144,-0.01144 -0.02337,-0.09637 -0.14527,-0.353924 -0.240461,-0.508019 -0.318117,-0.826195 -0.290826,-1.1919 0.01677,-0.224711 0.05951,-0.375007 0.237538,-0.8343294 0.309337,-0.798161 0.357872,-1.0106842 0.357569,-1.5657779 C 12.476711,7.5634775 12.268425,6.866351 11.843922,6.2312822 11.165417,5.216227 10.086929,4.5780943 8.8658559,4.4689535 8.776897,4.4609967 8.6416717,4.4568143 8.5068844,4.4568929 Z m -0.058054,1.1338466 c 0.3463171,-0.0031 0.7228216,0.025872 0.9888556,0.083291 0.3675272,0.079329 0.666232,0.2762712 0.737296,0.4857345 0.02104,0.061997 0.01636,0.1553647 -0.01095,0.2156638 -0.02937,0.064895 -0.117428,0.1501748 -0.1968746,0.1907036 -0.049648,0.025325 -0.07456,0.029916 -0.1657402,0.029728 C 9.6308592,6.5954228 9.5357032,6.5478282 9.1936977,6.2918529 8.9717201,6.1257134 8.8248307,6.0277487 8.7130117,5.9713023 8.2728972,5.7491331 7.5462759,5.876601 7.3985569,6.2018296 c -0.031853,0.070138 -0.02809,0.1121423 0.019633,0.2075306 0.1146577,0.2291862 0.4286212,0.4711625 1.224151,0.9442648 0.2114478,0.1257465 0.466271,0.2795548 0.5665027,0.3415837 0.5546607,0.3432524 0.9046774,0.6594152 1.1001924,0.9941834 0.234915,0.402227 0.228323,1.0342181 -0.01599,1.5351679 -0.110255,0.226076 -0.280635,0.432235 -0.5025611,0.607729 -0.3519009,0.27827 -0.6683636,0.415443 -1.1153365,0.48377 -0.1520209,0.02324 -0.4933055,0.03232 -0.6310071,0.01683 C 7.6121582,11.284253 7.2199342,11.110271 6.9403095,10.842946 6.6429128,10.558633 6.4949324,10.255528 6.4579413,9.8552141 6.4315593,9.5696996 6.4958923,9.218859 6.619479,8.9737683 6.7355796,8.743523 6.9774188,8.4899479 7.2507645,8.3116328 7.4880419,8.156847 7.724895,8.0535624 8.0721936,7.9535031 8.3242367,7.8808866 8.4008774,7.8511221 8.4008774,7.8256189 8.4008774,7.7752915 8.0971397,7.4974297 7.7763216,7.2543487 7.2395916,6.8476721 7.0905594,6.6782023 7.0522082,6.4315171 7.0168906,6.2043475 7.1153839,5.9874162 7.3152669,5.8518332 7.464472,5.7506269 7.686073,5.6656091 7.8885008,5.6319633 8.0441643,5.6060885 8.2410436,5.5926103 8.4488339,5.590738 Z M 8.6628128,8.1885142 C 8.6213229,8.1884086 8.568859,8.1962961 8.4923015,8.21179 8.181102,8.2747775 7.8889445,8.4184755 7.6910641,8.6063785 7.4069788,8.876141 7.318581,9.1233694 7.3315305,9.6106581 c 0.00675,0.2537883 0.031033,0.3619504 0.1278843,0.5648219 0.161876,0.339067 0.4091875,0.571387 0.7187856,0.675314 0.051157,0.01716 0.123351,0.03575 0.1606963,0.04122 v -2.82e-4 c 0.1493918,0.02192 0.313421,0.0072 0.4711504,-0.04261 C 9.1817539,10.731962 9.4522598,10.433178 9.5636074,10.01675 9.6022611,9.8721964 9.6158951,9.6270057 9.5936165,9.474641 9.5515092,9.186686 9.4359228,8.9252478 9.2380067,8.6694788 9.133391,8.5342826 8.8365668,8.2458248 8.7674169,8.2123503 8.7348263,8.1965737 8.7043007,8.1886167 8.6628104,8.1885075 Z" />
</svg>
