<?xml version="1.0" encoding="UTF-8" standalone="no"?>
<svg
   width="64"
   height="64"
   version="1.1"
   viewBox="0 0 16.933 16.933"
   id="svg7"
   sodipodi:docname="abcd.svg"
   inkscape:version="1.4.3 (0d15f75042, 2025-12-25)"
   xmlns:inkscape="http://www.inkscape.org/namespaces/inkscape"
   xmlns:sodipodi="http://sodipodi.sourceforge.net/DTD/sodipodi-0.dtd"
   xmlns="http://www.w3.org/2000/svg"
   xmlns:svg="http://www.w3.org/2000/svg"
   xmlns:rdf="http://www.w3.org/1999/02/22-rdf-syntax-ns#"
   xmlns:cc="http://creativecommons.org/ns#"
   xmlns:dc="http://purl.org/dc/elements/1.1/">
  <sodipodi:namedview
     id="namedview7"
     pagecolor="#9c4444"
     bordercolor="#000000"
     borderopacity="0.25"
     inkscape:showpageshadow="2"
     inkscape:pageopacity="0.0"
     inkscape:pagecheckerboard="0"
     inkscape:deskcolor="#d1d1d1"
     inkscape:zoom="4.3531261"
     inkscape:cx="38.822675"
     inkscape:cy="26.647517"
     inkscape:window-width="1226"
     inkscape:window-height="669"
     inkscape:window-x="100"
     inkscape:window-y="206"
     inkscape:window-maximized="0"
     inkscape:current-layer="svg7"
     showgrid="false" />
  <defs
     id="defs2">
    <filter
       style="color-interpolation-filters:sRGB;"
       inkscape:label="Blur"
       id="filter5421"
       x="-0.12256455"
       y="-0.12342654"
       width="1.2451291"
       height="1.2468531">
      <feGaussianBlur
         stdDeviation="0.5 0.5"
         result="blur"
         id="feGaussianBlur5419" />
    </filter>
  </defs>
  <metadata
     id="metadata2">
    <rdf:RDF>
      <cc:Work
         rdf:about="">
        <dc:format>image/svg+xml</dc:format>
        <dc:type
           rdf:resource="http://purl.org/dc/dcmitype/StillImage" />
      </cc:Work>
    </rdf:RDF>
  </metadata>
  <rect
     style="opacity:0.3;fill:none;fill-opacity:0.996424;stroke:#000000;stroke-width:0.955221;stroke-dasharray:none;stroke-opacity:1;filter:url(#filter5421)"
     id="rect1-2-7"
     width="13.687567"
     height="13.591975"
     x="1.6227165"
     y="1.6705122"
     rx="2.8442214"
     ry="2.965905" />
  <rect
     style="fill:none;fill-opacity:1;stroke:{{colors.primary.default.hex}};stroke-width:0.955221;stroke-dasharray:none;stroke-opacity:1"
     id="rect1-2"
     width="13.687567"
     height="13.591975"
     x="1.6227167"
     y="1.6705124"
     rx="2.8442214"
     ry="2.965905" />
  <path
     style="fill:{{colors.primary.default.hex}};fill-opacity:1;stroke:none;stroke-width:0.105553;stroke-dasharray:none;stroke-opacity:0.6"
     d="m 4.4107548,4.8163291 c 0.052961,0 0,0.041072 0,0 z m 0,0 v 1.2167235 c 0,-0.041072 0.052961,0 0,0 H 5.2219035 V 10.899948 H 4.4107548 c 0.052961,0 0,0.04109 0,0 v 1.216722 c 0,-0.04109 0.052961,0 0,0 h 2.839022 c -0.052966,0 0,-0.04109 0,0 v -1.216722 c 0,0.04109 -0.052966,0 0,0 H 6.4386277 V 6.0330526 h 0.8111491 c -0.052966,0 0,-0.041072 0,0 V 4.8163291 c 0,0.041072 -0.052966,0 0,0 z m 3.650171,0 c 0.070615,0 0,0.090791 0,0 z m 0,0 v 1.2167235 c 0,-0.090792 0.070615,0 0,0 h 2.8390232 c -0.07063,0 0,-0.090792 0,0 V 4.8163291 c 0,0.090791 -0.07063,0 0,0 z m 2.0278732,2.0278732 c 0.07265,0 0,0.09079 0,0 z m 0,0 v 1.2167238 c 0,-0.090791 0.07265,0 0,0 h 2.433447 c -0.07264,0 0,-0.090791 0,0 V 6.8442023 c 0,0.09079 -0.07264,0 0,0 z m 0,2.0278728 c 0.07265,0 0,0.090791 0,0 z m 0,0 V 10.0888 c 0,-0.090792 0.07265,0 0,0 h 2.433447 c -0.07264,0 0,-0.090792 0,0 V 8.8720751 c 0,0.090791 -0.07264,0 0,0 z M 8.0609258,10.899948 c 0.070615,0 0,0.09079 0,0 z m 0,0 v 1.216722 c 0,-0.09079 0.070615,0 0,0 h 2.8390232 c -0.07063,0 0,-0.09079 0,0 v -1.216722 c 0,0.09079 -0.07063,0 0,0 z"
     id="path3-2" />
</svg>
