<?xml version="1.0" encoding="UTF-8" standalone="no"?>
<svg
   width="64"
   height="64"
   version="1.1"
   viewBox="0 0 16.933 16.933"
   id="svg7"
   sodipodi:docname="abcd.svg"
   inkscape:version="1.4.3 (0d15f75042, 2025-12-25)"
   xmlns:inkscape="http://www.inkscape.org/namespaces/inkscape"
   xmlns:sodipodi="http://sodipodi.sourceforge.net/DTD/sodipodi-0.dtd"
   xmlns="http://www.w3.org/2000/svg"
   xmlns:svg="http://www.w3.org/2000/svg"
   xmlns:rdf="http://www.w3.org/1999/02/22-rdf-syntax-ns#"
   xmlns:cc="http://creativecommons.org/ns#"
   xmlns:dc="http://purl.org/dc/elements/1.1/">
  <sodipodi:namedview
     id="namedview7"
     pagecolor="#9c4444"
     bordercolor="#000000"
     borderopacity="0.25"
     inkscape:showpageshadow="2"
     inkscape:pageopacity="0.0"
     inkscape:pagecheckerboard="0"
     inkscape:deskcolor="#d1d1d1"
     inkscape:zoom="4.3531261"
     inkscape:cx="43.417074"
     inkscape:cy="20.674797"
     inkscape:window-width="1226"
     inkscape:window-height="669"
     inkscape:window-x="106"
     inkscape:window-y="190"
     inkscape:window-maximized="0"
     inkscape:current-layer="svg7"
     showgrid="false" />
  <defs
     id="defs2">
    <filter
       style="color-interpolation-filters:sRGB;"
       inkscape:label="Blur"
       id="filter5421"
       x="-0.12256455"
       y="-0.12342654"
       width="1.2451291"
       height="1.2468531">
      <feGaussianBlur
         stdDeviation="0.5 0.5"
         result="blur"
         id="feGaussianBlur5419" />
    </filter>
  </defs>
  <metadata
     id="metadata2">
    <rdf:RDF>
      <cc:Work
         rdf:about="">
        <dc:format>image/svg+xml</dc:format>
        <dc:type
           rdf:resource="http://purl.org/dc/dcmitype/StillImage" />
      </cc:Work>
    </rdf:RDF>
  </metadata>
  <rect
     style="opacity:0.3;fill:none;fill-opacity:0.996424;stroke:#000000;stroke-width:0.955221;stroke-dasharray:none;stroke-opacity:1;filter:url(#filter5421)"
     id="rect1-2-7"
     width="13.687567"
     height="13.591975"
     x="1.6227165"
     y="1.6705122"
     rx="2.8442214"
     ry="2.965905" />
  <rect
     style="fill:none;fill-opacity:1;stroke:{{colors.primary.default.hex}};stroke-width:0.955221;stroke-dasharray:none;stroke-opacity:1"
     id="rect1-2"
     width="13.687567"
     height="13.591975"
     x="1.6227167"
     y="1.6705124"
     rx="2.8442214"
     ry="2.965905" />
  <path
     d="m 9.4379929,11.993766 v 0.304581 c 0,0.16707 -0.1378328,0.30458 -0.3049025,0.30458 H 7.9141216 c -0.1670702,0 -0.3045813,-0.13751 -0.3045813,-0.30458 V 11.993766 Z M 8.5236053,6.5084081 c -1.1701321,0 -2.1330337,0.9629022 -2.1330337,2.1330346 0,0.7251481 0.3624129,1.3622643 0.9140659,1.7490933 v 0.688843 c 0,0.167068 0.1375113,0.304581 0.3049028,0.304581 h 1.8284526 c 0.16707,0 0.3045822,-0.137513 0.3045822,-0.304581 V 10.390536 C 10.294226,10.003707 10.65664,9.3665908 10.65664,8.6414427 10.65664,7.4713103 9.6937395,6.5084081 8.5236053,6.5084081 Z M 12.293606,9.4758289 11.577774,9.2432162 c -0.170282,-0.054941 -0.352453,0.037912 -0.407715,0.207873 -0.05526,0.1696407 0.03791,0.3521332 0.207552,0.4077156 l 0.716154,0.2322922 c 0.0331,0.01093 0.06651,0.01605 0.09991,0.01605 0.136227,0 0.262811,-0.08709 0.307792,-0.2236179 0.05494,-0.1702827 -0.03823,-0.3524539 -0.207874,-0.4077154 z M 5.3557006,9.2432162 4.6392274,9.475508 c -0.1696401,0.05494 -0.2628136,0.2374317 -0.2075521,0.4077157 0.044338,0.1365463 0.1712469,0.2236153 0.3074734,0.2236153 0.033092,0 0.066828,-0.0051 0.1002409,-0.01606 L 5.5555426,9.8588048 C 5.7251833,9.8032227 5.8183564,9.6210508 5.7630948,9.4510895 5.708476,9.2811278 5.5272695,9.1882759 5.3557006,9.2432162 Z m 6.1221534,-1.325315 c 0.0331,0 0.06651,-0.00546 0.09991,-0.016065 l 0.715835,-0.2326124 c 0.169639,-0.055261 0.262815,-0.2377539 0.207874,-0.407715 -0.05559,-0.16964 -0.238716,-0.2624924 -0.407715,-0.2075521 l -0.716152,0.2326131 c -0.169641,0.055261 -0.262816,0.237753 -0.207553,0.4073939 0.04434,0.1368681 0.171248,0.2239378 0.307794,0.2239378 z M 5.5558641,7.2865691 4.8397117,7.0536347 C 4.668465,6.9983732 4.4872584,7.0912262 4.4319968,7.2611872 c -0.055263,0.169962 0.037591,0.3524531 0.2072306,0.4077149 l 0.7161525,0.2329343 c 0.033414,0.010598 0.066827,0.015744 0.100241,0.015744 0.1365483,0 0.2631354,-0.086748 0.3074739,-0.2236168 C 5.8183559,7.5243242 5.7255048,7.341832 5.5558641,7.28657 Z M 6.3436634,6.2012564 c 0.063293,0.087389 0.1619291,0.1333346 0.2621716,0.1333346 0.065863,0 0.1323709,-0.01992 0.1898819,-0.061687 C 6.9399752,6.1681641 6.9721037,5.9657522 6.8676851,5.8211721 L 6.4252705,5.2120093 C 6.3198877,5.0677504 6.1181186,5.0349793 5.9728966,5.1403614 5.8286379,5.2451015 5.7965093,5.4475136 5.9015702,5.5920934 Z M 10.508206,5.2120093 c 0.105382,-0.14458 0.306509,-0.1773513 0.452053,-0.071647 0.144257,0.1047393 0.176706,0.3071522 0.07165,0.4517317 l -0.442415,0.6091633 c -0.06329,0.087389 -0.161929,0.1333341 -0.262171,0.1333341 -0.06556,0 -0.132371,-0.019918 -0.189883,-0.061687 C 9.9931832,6.1681637 9.9610542,5.9657517 10.06579,5.8211716 Z m -2.0417894,0.517917 c 0.1789574,0 0.323859,-0.1452228 0.323859,-0.3235379 V 4.6539307 c 0,-0.1789576 -0.1449016,-0.3238584 -0.323859,-0.3238584 -0.1786363,0 -0.3235374,0.1449008 -0.3235374,0.3238584 v 0.7524577 c 0,0.1783151 0.1449011,0.3235379 0.3235374,0.3235379 z"
     fill="url(#b)"
     fill-rule="nonzero"
     id="path4"
     style="fill:{{colors.primary.default.hex}};fill-opacity:1;stroke:none;stroke-width:0.136828;stroke-dasharray:none;stroke-opacity:0.6" />
</svg>
