<?xml version="1.0" encoding="UTF-8" standalone="no"?>
<svg
   width="64"
   height="64"
   version="1.1"
   viewBox="0 0 16.933 16.933"
   id="svg7"
   sodipodi:docname="abcd.svg"
   inkscape:version="1.4.3 (0d15f75042, 2025-12-25)"
   xmlns:inkscape="http://www.inkscape.org/namespaces/inkscape"
   xmlns:sodipodi="http://sodipodi.sourceforge.net/DTD/sodipodi-0.dtd"
   xmlns="http://www.w3.org/2000/svg"
   xmlns:svg="http://www.w3.org/2000/svg"
   xmlns:rdf="http://www.w3.org/1999/02/22-rdf-syntax-ns#"
   xmlns:cc="http://creativecommons.org/ns#"
   xmlns:dc="http://purl.org/dc/elements/1.1/">
  <sodipodi:namedview
     id="namedview7"
     pagecolor="#9c4444"
     bordercolor="#000000"
     borderopacity="0.25"
     inkscape:showpageshadow="2"
     inkscape:pageopacity="0.0"
     inkscape:pagecheckerboard="0"
     inkscape:deskcolor="#d1d1d1"
     inkscape:zoom="4.3531261"
     inkscape:cx="43.417074"
     inkscape:cy="20.674797"
     inkscape:window-width="1226"
     inkscape:window-height="669"
     inkscape:window-x="106"
     inkscape:window-y="190"
     inkscape:window-maximized="0"
     inkscape:current-layer="svg7"
     showgrid="false" />
  <defs
     id="defs2">
    <filter
       style="color-interpolation-filters:sRGB;"
       inkscape:label="Blur"
       id="filter5421"
       x="-0.12256455"
       y="-0.12342654"
       width="1.2451291"
       height="1.2468531">
      <feGaussianBlur
         stdDeviation="0.5 0.5"
         result="blur"
         id="feGaussianBlur5419" />
    </filter>
  </defs>
  <metadata
     id="metadata2">
    <rdf:RDF>
      <cc:Work
         rdf:about="">
        <dc:format>image/svg+xml</dc:format>
        <dc:type
           rdf:resource="http://purl.org/dc/dcmitype/StillImage" />
      </cc:Work>
    </rdf:RDF>
  </metadata>
  <rect
     style="opacity:0.3;fill:none;fill-opacity:0.996424;stroke:#000000;stroke-width:0.955221;stroke-dasharray:none;stroke-opacity:1;filter:url(#filter5421)"
     id="rect1-2-7"
     width="13.687567"
     height="13.591975"
     x="1.6227165"
     y="1.6705122"
     rx="2.8442214"
     ry="2.965905" />
  <rect
     style="fill:none;fill-opacity:1;stroke:{{colors.primary.default.hex}};stroke-width:0.955221;stroke-dasharray:none;stroke-opacity:1"
     id="rect1-2"
     width="13.687567"
     height="13.591975"
     x="1.6227167"
     y="1.6705124"
     rx="2.8442214"
     ry="2.965905" />
  <path
     style="fill:{{colors.primary.default.hex}};fill-opacity:1;stroke-width:0.229893"
     d="m 8.4665011,4.5583036 c -0.9224046,0.00162 -1.8145165,0.329401 -2.5185074,0.9254131 l 1.324136,2.2931041 1.825682,-3.162391 C 8.8892418,4.5786594 8.6781105,4.5598895 8.4665011,4.5583036 Z M 9.7901886,4.7944835 8.4665011,7.0871382 H 12.121008 C 11.716405,6.0190473 10.864814,5.1814 9.7901886,4.7944835 Z M 5.4450998,5.991549 C 4.872562,6.6893721 4.5592237,7.5638645 4.5583007,8.4665027 4.558826,8.697804 4.5798448,8.9286045 4.621165,9.1561855 h 2.650967 z m 4.2157723,1.7852718 1.8270289,3.1646372 c 0.572539,-0.697822 0.885877,-1.5723168 0.886798,-2.4749553 -5.25e-4,-0.231301 -0.02155,-0.4621011 -0.06288,-0.6896819 z m 0,1.3793647 -1.8256817,3.1623925 c 0.2085701,0.03576 0.4197012,0.05453 0.6313107,0.05612 0.9224045,-0.0017 1.8145179,-0.329402 2.5185079,-0.925415 z M 4.8119933,9.8458687 C 5.216598,10.91396 6.0681896,11.751608 7.1428138,12.138524 L 8.4665011,9.8458687 Z"
     id="path3-7" />
</svg>
