<?xml version="1.0" encoding="UTF-8" standalone="no"?>
<svg
   width="64"
   height="64"
   version="1.1"
   viewBox="0 0 16.933 16.933"
   id="svg7"
   sodipodi:docname="abcd.svg"
   inkscape:version="1.4.3 (0d15f75042, 2025-12-25)"
   xmlns:inkscape="http://www.inkscape.org/namespaces/inkscape"
   xmlns:sodipodi="http://sodipodi.sourceforge.net/DTD/sodipodi-0.dtd"
   xmlns="http://www.w3.org/2000/svg"
   xmlns:svg="http://www.w3.org/2000/svg"
   xmlns:rdf="http://www.w3.org/1999/02/22-rdf-syntax-ns#"
   xmlns:cc="http://creativecommons.org/ns#"
   xmlns:dc="http://purl.org/dc/elements/1.1/">
  <sodipodi:namedview
     id="namedview7"
     pagecolor="#9c4444"
     bordercolor="#000000"
     borderopacity="0.25"
     inkscape:showpageshadow="2"
     inkscape:pageopacity="0.0"
     inkscape:pagecheckerboard="0"
     inkscape:deskcolor="#d1d1d1"
     inkscape:zoom="4.3531261"
     inkscape:cx="43.417074"
     inkscape:cy="20.674797"
     inkscape:window-width="1226"
     inkscape:window-height="669"
     inkscape:window-x="106"
     inkscape:window-y="190"
     inkscape:window-maximized="0"
     inkscape:current-layer="svg7"
     showgrid="false" />
  <defs
     id="defs2">
    <filter
       style="color-interpolation-filters:sRGB;"
       inkscape:label="Blur"
       id="filter5421"
       x="-0.12256455"
       y="-0.12342654"
       width="1.2451291"
       height="1.2468531">
      <feGaussianBlur
         stdDeviation="0.5 0.5"
         result="blur"
         id="feGaussianBlur5419" />
    </filter>
  </defs>
  <metadata
     id="metadata2">
    <rdf:RDF>
      <cc:Work
         rdf:about="">
        <dc:format>image/svg+xml</dc:format>
        <dc:type
           rdf:resource="http://purl.org/dc/dcmitype/StillImage" />
      </cc:Work>
    </rdf:RDF>
  </metadata>
  <rect
     style="opacity:0.3;fill:none;fill-opacity:0.996424;stroke:#000000;stroke-width:0.955221;stroke-dasharray:none;stroke-opacity:1;filter:url(#filter5421)"
     id="rect1-2-7"
     width="13.687567"
     height="13.591975"
     x="1.6227165"
     y="1.6705122"
     rx="2.8442214"
     ry="2.965905" />
  <rect
     style="fill:none;fill-opacity:1;stroke:{{colors.primary.default.hex}};stroke-width:0.955221;stroke-dasharray:none;stroke-opacity:1"
     id="rect1-2"
     width="13.687567"
     height="13.591975"
     x="1.6227167"
     y="1.6705124"
     rx="2.8442214"
     ry="2.965905" />
  <path
     style="fill:{{colors.primary.default.hex}};fill-opacity:1;stroke:none;stroke-width:0.130312;stroke-dasharray:none;stroke-dashoffset:2.2;stroke-opacity:0.6"
     d="M 7.0846362,12.553161 C 6.6513855,12.486015 6.1850604,12.309895 5.8490022,12.086483 5.4897968,11.847685 5.1056559,11.375807 5.0080302,11.053433 4.9723573,10.935634 5.0739862,10.793329 5.351648,10.572281 5.4970691,10.456511 5.6489756,10.318621 5.6892161,10.265862 5.7442799,10.19367 5.8010318,10.013393 5.9186005,9.5372052 6.1522991,8.5906524 6.4196907,7.813818 6.8496506,6.8322891 7.3502973,5.6893925 7.6884194,5.1746983 8.1733924,4.8172677 8.5454178,4.5430809 8.8557694,4.4315639 9.3763247,4.3850226 c 0.8506103,-0.076051 1.2126553,-0.00568 1.6432443,0.3194248 0.400836,0.3026347 0.872973,1.2163674 0.908251,1.7577552 0.02346,0.3601196 -0.05462,0.3761375 -0.266047,0.054576 -0.142128,-0.2161569 -0.270511,-0.3392575 -0.353817,-0.3392575 -0.160435,0 -0.413247,0.2905902 -0.579122,0.6656583 -0.117719,0.2661867 -0.262189,0.7050272 -0.329978,1.0023445 -0.114099,0.5004449 -0.07967,1.1395073 0.119547,2.2179031 0.105234,0.569687 0.09588,0.542155 0.198762,0.584771 0.14126,0.05851 0.386847,0.312314 0.419477,0.43351 0.07798,0.289536 -0.186708,0.612347 -0.713293,0.869991 -0.4524451,0.221376 -0.9901177,0.380548 -1.8014306,0.53329 C 8.1810051,12.568 7.4030147,12.6025 7.0846362,12.553161 Z m 1.8148047,-1.851962 0.3059901,-0.258524 0.3040591,0.101818 c 0.1672325,0.05599 0.3070629,0.09878 0.3107327,0.09506 0.00358,-0.0038 -0.030367,-0.160489 -0.075625,-0.34838 C 9.6993258,10.103282 9.6620108,9.9270537 9.6616536,9.8995544 9.6613123,9.8720605 9.7383005,9.7134144 9.8327609,9.5470214 9.927227,9.3806268 9.9973006,9.2372742 9.9884865,9.2284575 9.9797465,9.2196415 9.822227,9.2070721 9.6386093,9.2005275 L 9.3047612,9.1886264 9.096595,8.875962 C 8.9821029,8.7039967 8.8804504,8.5712762 8.8706998,8.5810267 8.8609473,8.5907792 8.8137825,8.7602001 8.7658827,8.9575211 L 8.6787951,9.3162864 8.3740263,9.4490163 c -0.167623,0.073002 -0.3142794,0.1422412 -0.3259034,0.153865 -0.011625,0.011625 0.1049081,0.147649 0.2589592,0.3022812 l 0.2800938,0.2811485 -0.020503,0.386932 c -0.011274,0.212814 -0.00987,0.386832 0.00314,0.38671 0.012999,-1.24e-4 0.1613381,-0.116562 0.3296327,-0.258751 z M 7.6975193,10.027088 C 7.7214526,9.8217519 7.747076,9.6491777 7.7544566,9.6435898 7.7618381,9.6379848 7.886345,9.5463592 8.031143,9.4399394 8.1759413,9.3335204 8.28818,9.2363669 8.2805645,9.2240429 8.2729446,9.2117215 8.1335384,9.1228156 7.9707668,9.0264788 L 7.6748181,8.8513216 7.5932387,8.4681195 C 7.5483695,8.2573579 7.5030049,8.0849107 7.4924273,8.0849028 7.48185,8.0848949 7.3794706,8.2142105 7.2649173,8.3722701 L 7.0566387,8.6596518 6.8428916,8.642001 C 6.7253311,8.6322932 6.5679912,8.6170248 6.4932479,8.6080691 l -0.1358984,-0.016282 0.060718,0.1522225 c 0.033395,0.083722 0.1024841,0.2594228 0.1535311,0.3904471 L 6.664412,9.3726809 6.5262111,9.7303373 C 6.4502025,9.927048 6.393291,10.093273 6.3997444,10.099729 c 0.00647,0.0064 0.1784972,-0.02589 0.3823193,-0.07183 l 0.3705847,-0.083571 0.2222077,0.235786 c 0.1222146,0.12968 0.2350187,0.232306 0.2506756,0.22805 0.015657,-0.0043 0.048053,-0.175736 0.071989,-0.381071 z M 9.6040695,8.4572958 V 8.0610615 L 9.8674012,7.8138758 C 10.012234,7.6779238 10.117921,7.5611706 10.102262,7.5544235 10.086607,7.5476678 9.9338862,7.4815223 9.7628865,7.4074137 L 9.4519765,7.2726695 9.3351389,6.9222412 C 9.2708777,6.729505 9.2061079,6.5711567 9.1912059,6.5703554 9.1763079,6.5695937 9.0919798,6.6989333 9.0038198,6.8578638 8.9156589,7.0167954 8.8352975,7.1550601 8.8252382,7.1651197 8.8151752,7.1751827 8.6642599,7.1937217 8.4898632,7.2063237 8.3154662,7.2189287 8.1664771,7.2355387 8.1587756,7.2432407 8.1461266,7.2558897 8.267173,7.5025144 8.44209,7.8204517 L 8.508045,7.9403347 8.411602,8.312351 C 8.3585573,8.5169591 8.3225666,8.6917757 8.331622,8.7008299 8.340685,8.7098929 8.499806,8.6582718 8.6852434,8.5861337 8.870681,8.5139974 9.0290912,8.454975 9.0372652,8.454975 c 0.00819,0 0.129442,0.089068 0.2694831,0.1979281 0.1400408,0.1088605 0.2642274,0.1985347 0.2759703,0.1992775 0.011743,7.354e-4 0.021357,-0.1769564 0.021351,-0.3948848 z"
     id="path92" />
</svg>
