<?xml version="1.0" encoding="UTF-8" standalone="no"?>
<svg
   width="64"
   height="64"
   version="1.1"
   viewBox="0 0 16.933 16.933"
   id="svg7"
   sodipodi:docname="abcd.svg"
   inkscape:version="1.4.3 (0d15f75042, 2025-12-25)"
   xmlns:inkscape="http://www.inkscape.org/namespaces/inkscape"
   xmlns:sodipodi="http://sodipodi.sourceforge.net/DTD/sodipodi-0.dtd"
   xmlns="http://www.w3.org/2000/svg"
   xmlns:svg="http://www.w3.org/2000/svg"
   xmlns:rdf="http://www.w3.org/1999/02/22-rdf-syntax-ns#"
   xmlns:cc="http://creativecommons.org/ns#"
   xmlns:dc="http://purl.org/dc/elements/1.1/">
  <sodipodi:namedview
     id="namedview7"
     pagecolor="#9c4444"
     bordercolor="#000000"
     borderopacity="0.25"
     inkscape:showpageshadow="2"
     inkscape:pageopacity="0.0"
     inkscape:pagecheckerboard="0"
     inkscape:deskcolor="#d1d1d1"
     inkscape:zoom="4.3531261"
     inkscape:cx="43.417074"
     inkscape:cy="20.674797"
     inkscape:window-width="1226"
     inkscape:window-height="669"
     inkscape:window-x="106"
     inkscape:window-y="190"
     inkscape:window-maximized="0"
     inkscape:current-layer="svg7"
     showgrid="false" />
  <defs
     id="defs2">
    <filter
       style="color-interpolation-filters:sRGB;"
       inkscape:label="Blur"
       id="filter5421"
       x="-0.12256455"
       y="-0.12342654"
       width="1.2451291"
       height="1.2468531">
      <feGaussianBlur
         stdDeviation="0.5 0.5"
         result="blur"
         id="feGaussianBlur5419" />
    </filter>
  </defs>
  <metadata
     id="metadata2">
    <rdf:RDF>
      <cc:Work
         rdf:about="">
        <dc:format>image/svg+xml</dc:format>
        <dc:type
           rdf:resource="http://purl.org/dc/dcmitype/StillImage" />
      </cc:Work>
    </rdf:RDF>
  </metadata>
  <rect
     style="opacity:0.3;fill:none;fill-opacity:0.996424;stroke:#000000;stroke-width:0.955221;stroke-dasharray:none;stroke-opacity:1;filter:url(#filter5421)"
     id="rect1-2-7"
     width="13.687567"
     height="13.591975"
     x="1.6227165"
     y="1.6705122"
     rx="2.8442214"
     ry="2.965905" />
  <rect
     style="fill:none;fill-opacity:1;stroke:{{colors.primary.default.hex}};stroke-width:0.955221;stroke-dasharray:none;stroke-opacity:1"
     id="rect1-2"
     width="13.687567"
     height="13.591975"
     x="1.6227167"
     y="1.6705124"
     rx="2.8442214"
     ry="2.965905" />
  <path
     style="fill:{{colors.primary.default.hex}};fill-opacity:1;stroke:none;stroke-width:0.100476;stroke-dasharray:none;stroke-opacity:0.6"
     d="m 8.6976288,12.359968 c 0.034599,-0.0051 0.062905,-0.01618 0.062905,-0.0247 0,-0.0085 -0.080567,-0.05468 -0.1790373,-0.10258 -0.3217729,-0.156507 -0.4849888,-0.304551 -0.5879124,-0.533267 -0.041548,-0.09233 -0.061971,-0.217196 -0.035527,-0.217196 0.00574,0 0.042764,0.01619 0.082261,0.036 0.083584,0.04189 0.2113983,0.06333 0.2617221,0.04394 0.031921,-0.01231 0.029819,-0.02013 -0.023446,-0.08716 -0.1001315,-0.125994 -0.1374298,-0.257647 -0.1374298,-0.485081 0,-0.199073 6.286e-4,-0.201813 0.087332,-0.374993 0.1859059,-0.371365 0.5445662,-0.6586388 0.957857,-0.7672076 0.1595489,-0.041911 0.6098578,-0.059964 0.8419586,-0.033738 0.09581,0.010833 0.177793,0.016116 0.182182,0.011766 C 10.263505,9.7731809 9.8340734,9.3288033 9.5347431,9.1264668 9.4283933,9.0545776 8.9336681,8.8057819 8.8321151,8.7731159 8.7916434,8.7600952 8.7614709,8.7393837 8.7650635,8.7270844 8.7786369,8.6806365 9.0281966,8.5777303 9.2444183,8.5294243 9.3668413,8.5020724 9.4739847,8.4728298 9.4825156,8.4644378 9.5091358,8.4382524 9.2684676,8.3058283 9.0317633,8.2164266 8.884462,8.1607911 8.3608388,8.037097 8.2708024,8.0366653 8.200558,8.0362724 8.1442726,8.0080647 8.1674911,7.984787 8.1760311,7.976227 8.3404992,7.966313 8.532974,7.962769 8.7952096,7.957929 8.9318715,7.964439 9.0781893,7.988787 9.427794,8.046916 9.7979369,8.1863411 10.06811,8.3616679 c 0.122298,0.079365 0.376342,0.3059066 0.376342,0.3356008 0,0.00943 -0.02888,0.017141 -0.0642,0.017141 -0.127627,0 -0.4592704,0.07601 -0.5024803,0.1151656 -0.00828,0.00749 0.087534,0.051035 0.2129083,0.09675 0.445891,0.1625917 0.782976,0.3613191 1.14733,0.6764089 l 0.203231,0.1757513 0.013,-0.3087603 C 11.474891,8.9791995 11.507881,8.8717202 11.6908,8.6987132 11.856052,8.5424238 11.967,8.5000876 12.27126,8.477216 12.410893,8.466717 12.533848,8.449776 12.544493,8.439561 12.57334,8.4119025 12.412042,8.2771038 12.099333,8.0675155 11.841067,7.8944158 11.743302,7.8359531 11.344475,7.6161106 11.117292,7.4908821 11.077249,7.4357758 11.086773,7.2614726 c 0.01318,-0.2411742 0.171501,-0.481084 0.434673,-0.6586697 0.07833,-0.052845 0.14239,-0.1035857 0.14239,-0.1127525 0,-0.032473 -0.110053,-0.043901 -0.405908,-0.042144 -0.321572,0.00186 -0.384869,0.00836 -0.52924,0.053893 -0.05125,0.016172 -0.09777,0.024816 -0.103367,0.01922 -0.0056,-0.0056 0.02089,-0.07899 0.05888,-0.1630979 0.07861,-0.1741138 0.116527,-0.3353216 0.150311,-0.6391408 0.01539,-0.1384245 0.01729,-0.2337778 0.0055,-0.2749046 l -0.01816,-0.062965 -0.129129,0.1629672 C 10.528364,5.751341 10.242194,6.0247486 10.056498,6.1517577 9.9771203,6.2060482 9.7476561,6.339707 9.5465754,6.4487767 8.9676659,6.76279 8.7470554,6.9147035 8.4145181,7.2283195 8.2781219,7.3569556 8.206915,7.4122605 8.2029842,7.3926125 8.1945631,7.3505036 8.3341854,7.0807597 8.4356401,6.9431407 8.5469226,6.7921904 8.8211925,6.5051338 8.9717009,6.3820879 9.1194329,6.2613127 9.1578641,6.1824772 9.1877147,5.9389754 9.2333849,5.5664225 9.1816981,5.1769333 9.0315506,4.762292 8.9533082,4.546218 8.9225415,4.5172137 8.9057629,4.6437121 8.8519326,5.0495289 8.7757582,5.2394364 8.5411066,5.5528219 8.3996137,5.7417901 8.1962408,5.9427889 7.3954038,6.6851528 6.919643,7.1261749 6.546813,7.5306508 6.3344961,7.8361116 6.2743944,7.9225786 6.2106333,8.005323 6.1928059,8.0199867 6.163278,8.0442679 6.1615652,8.0407187 6.1735774,7.9801102 6.194236,7.8758659 6.3649672,7.5364311 6.4633037,7.4041063 6.6138237,7.2015608 6.812722,6.9856188 7.3776611,6.4113958 7.9157903,5.864424 8.0173184,5.7467124 8.0606766,5.6195012 8.0913107,5.5296272 8.0883128,5.2678725 8.0548382,5.1099231 8.0027084,4.8639446 7.9089021,4.7218051 7.9089021,4.8887977 c 0,0.09537 -0.1104549,0.4279569 -0.2033861,0.6124047 C 7.6598701,5.5918076 7.5665926,5.7312633 7.4982364,5.8111042 7.3718496,5.9587254 6.8998069,6.4157716 6.188824,7.0789188 5.7530943,7.485332 5.5954372,7.6738272 5.4590519,7.9514335 5.3476458,8.1781957 5.3160427,8.332103 5.3156235,8.6499217 c -1.851e-4,0.1401818 -0.00562,0.268653 -0.012083,0.2854917 -0.0066,0.017206 -0.034163,0.030649 -0.062905,0.030689 -0.1293611,1.827e-4 -0.272863,0.1638972 -0.28877,0.3294445 -0.00694,0.072243 -0.017101,0.096255 -0.040661,0.096115 C 4.8440253,9.3912427 4.624344,9.1997586 4.5231572,9.0533872 4.4676364,8.9730761 4.4141168,8.912369 4.4042223,8.9184846 c -0.00989,0.00611 -0.017882,0.1129469 -0.017735,0.2374024 6.811e-4,0.6256354 0.2398224,1.114635 0.7158936,1.464006 l 0.1258106,0.09233 0.010333,-0.190817 c 0.012277,-0.226699 0.05346,-0.333337 0.1738507,-0.450174 0.17425,-0.1691044 0.4638913,-0.2572404 0.8281445,-0.2520012 0.1096713,0.00162 0.2039452,-0.00167 0.2094966,-0.00722 0.00554,-0.00554 -0.00361,-0.036601 -0.020368,-0.068987 -0.037514,-0.072549 -0.039389,-0.214898 -0.00394,-0.2997274 0.059576,-0.1425829 0.2571822,-0.2556814 0.5541456,-0.3171592 0.2174847,-0.045024 0.8395631,-0.044243 1.0032011,0.00126 0.1581844,0.043986 0.3323194,0.121156 0.3323194,0.1472704 0,0.012476 -0.055455,0.020423 -0.142524,0.020423 -0.170316,0 -0.2943894,0.021675 -0.4436264,0.077516 -0.1293124,0.048383 -0.1371583,0.075049 -0.052352,0.1779338 0.074535,0.090426 0.1502286,0.2536935 0.1658209,0.3576691 0.00955,0.063684 0.00155,0.1043915 -0.037465,0.1895175 -0.056563,0.123548 -0.1249426,0.165133 -0.2715406,0.165133 -0.1482157,0 -0.1538698,0.0085 -0.086153,0.128412 0.051539,0.09132 0.058385,0.119802 0.050796,0.211304 -0.015071,0.18177 -0.1348834,0.271533 -0.3404048,0.255036 l -0.1244056,-0.01 0.013134,0.07052 c 0.035807,0.192291 0.034508,0.223714 -0.012122,0.293116 -0.072915,0.108531 -0.1693291,0.145419 -0.3740447,0.143114 -0.1333193,-0.0016 -0.207128,-0.01353 -0.3145251,-0.05124 -0.1039535,-0.0365 -0.1403253,-0.04268 -0.1403253,-0.0238 0,0.04792 0.1899588,0.309231 0.3127961,0.430308 0.1673554,0.164955 0.2822264,0.244853 0.5098071,0.354586 0.3608393,0.173991 0.8575319,0.284683 1.3355192,0.297633 0.1490363,0.0041 0.2992823,0.0033 0.3338799,-0.0019 z M 6.2400865,8.7601269 C 6.2208502,8.7482928 6.2854787,8.589962 6.3634218,8.4579861 6.5382999,8.1618792 6.8805929,7.8593984 7.0911338,7.8149142 l 0.062905,-0.013293 v 0.1083763 c 0,0.1807001 -0.1517555,0.4823749 -0.3518598,0.6994626 -0.096821,0.1050385 -0.1688554,0.1464573 -0.2868672,0.1649477 -0.082229,0.012879 -0.2447886,0.00445 -0.2752246,-0.014288 z"
     id="path2-65" />
</svg>
