<?xml version="1.0" encoding="UTF-8" standalone="no"?>
<svg
   width="64"
   height="64"
   version="1.1"
   viewBox="0 0 16.933 16.933"
   id="svg7"
   sodipodi:docname="abcd.svg"
   inkscape:version="1.4.3 (0d15f75042, 2025-12-25)"
   xmlns:inkscape="http://www.inkscape.org/namespaces/inkscape"
   xmlns:sodipodi="http://sodipodi.sourceforge.net/DTD/sodipodi-0.dtd"
   xmlns="http://www.w3.org/2000/svg"
   xmlns:svg="http://www.w3.org/2000/svg"
   xmlns:rdf="http://www.w3.org/1999/02/22-rdf-syntax-ns#"
   xmlns:cc="http://creativecommons.org/ns#"
   xmlns:dc="http://purl.org/dc/elements/1.1/">
  <sodipodi:namedview
     id="namedview7"
     pagecolor="#9c4444"
     bordercolor="#000000"
     borderopacity="0.25"
     inkscape:showpageshadow="2"
     inkscape:pageopacity="0.0"
     inkscape:pagecheckerboard="0"
     inkscape:deskcolor="#d1d1d1"
     inkscape:zoom="4.3531261"
     inkscape:cx="33.768836"
     inkscape:cy="30.552756"
     inkscape:window-width="1226"
     inkscape:window-height="669"
     inkscape:window-x="100"
     inkscape:window-y="206"
     inkscape:window-maximized="0"
     inkscape:current-layer="svg7"
     showgrid="false" />
  <defs
     id="defs2">
    <filter
       style="color-interpolation-filters:sRGB;"
       inkscape:label="Blur"
       id="filter5421"
       x="-0.12256455"
       y="-0.12342654"
       width="1.2451291"
       height="1.2468531">
      <feGaussianBlur
         stdDeviation="0.5 0.5"
         result="blur"
         id="feGaussianBlur5419" />
    </filter>
  </defs>
  <metadata
     id="metadata2">
    <rdf:RDF>
      <cc:Work
         rdf:about="">
        <dc:format>image/svg+xml</dc:format>
        <dc:type
           rdf:resource="http://purl.org/dc/dcmitype/StillImage" />
      </cc:Work>
    </rdf:RDF>
  </metadata>
  <rect
     style="opacity:0.3;fill:none;fill-opacity:0.996424;stroke:#000000;stroke-width:0.955221;stroke-dasharray:none;stroke-opacity:1;filter:url(#filter5421)"
     id="rect1-2-7"
     width="13.687567"
     height="13.591975"
     x="1.6227165"
     y="1.6705122"
     rx="2.8442214"
     ry="2.965905" />
  <rect
     style="fill:none;fill-opacity:1;stroke:{{colors.primary.default.hex}};stroke-width:0.955221;stroke-dasharray:none;stroke-opacity:1"
     id="rect1-2"
     width="13.687567"
     height="13.591975"
     x="1.6227167"
     y="1.6705124"
     rx="2.8442214"
     ry="2.965905" />
  <path
     style="fill:{{colors.primary.default.hex}};fill-opacity:1;stroke:none;stroke-width:0.132764;stroke-dasharray:none;stroke-opacity:0.6"
     d="M 4.8056463,12.197859 C 4.6104701,12.135081 4.4643166,11.981467 4.414407,11.786653 4.396147,11.715375 4.3938955,11.589376 4.3972025,10.824238 4.4009835,9.9471017 4.401107,9.943562 4.430994,9.870292 4.4915033,9.7219086 4.6203878,9.5930334 4.7687193,9.5325885 4.8404148,9.5033741 4.858195,9.5024535 5.4764404,9.4959118 l 0.6341767,-0.0067 0.5996954,-1.0214481 C 7.0401441,7.9059641 7.3082197,7.4445253 7.306036,7.442341 7.3038034,7.4401084 7.2726272,7.4257487 7.2366507,7.4103306 7.0838412,7.3448268 6.969569,7.2237166 6.9126701,7.06696 L 6.8814093,6.9808407 V 6.0809679 c 0,-0.8487036 0.00155,-0.9040641 0.025359,-0.9735855 0.06373,-0.185233 0.2075373,-0.3242529 0.3904161,-0.3774166 0.066488,-0.019334 0.1961193,-0.021252 1.209949,-0.01801 l 1.1354824,0.00364 0.090455,0.044235 c 0.175469,0.085809 0.3004492,0.2537578 0.3302762,0.4438235 0.0081,0.052037 0.01359,0.4088591 0.01351,0.889203 -1.39e-4,0.8565558 -0.0037,0.912417 -0.06714,1.0382137 -0.066064,0.1310866 -0.2093828,0.2565899 -0.3365408,0.2946877 -0.035801,0.010722 -0.049476,0.021357 -0.04442,0.03453 0.00401,0.010473 0.2735345,0.4727503 0.5989298,1.0272951 l 0.591625,1.0082612 0.601715,1.898e-4 c 0.650859,2.107e-4 0.676369,0.00252 0.807085,0.073671 0.08521,0.046376 0.189013,0.1499828 0.235091,0.234641 0.07062,0.1297408 0.07388,0.1763725 0.07388,1.0554452 0,0.882801 -0.0029,0.925291 -0.07578,1.058931 -0.07158,0.131522 -0.188525,0.22777 -0.337874,0.278081 -0.08059,0.02715 -0.100513,0.02753 -1.215221,0.0239 l -1.1332918,-0.0037 -0.1005777,-0.04971 C 9.5497707,12.105672 9.4506995,12.004951 9.391247,11.879441 L 9.348438,11.789071 9.344728,10.887829 C 9.3405319,9.8653201 9.3370573,9.9041051 9.4456244,9.7611333 9.5708824,9.5961889 9.7478212,9.5117409 9.9942495,9.4992887 10.091895,9.4943487 10.130785,9.4876636 10.127963,9.476275 10.125778,9.4674495 9.8600445,9.0108678 9.5374489,8.4616572 l -0.5865355,-0.9985655 -0.4684456,0.00352 -0.4684461,0.00352 -0.592901,1.0095455 -0.5929004,1.0095461 0.1187764,0.00941 c 0.3296681,0.026111 0.5217584,0.1337491 0.604244,0.3385885 l 0.032172,0.079889 v 0.9226342 0.922632 l -0.030668,0.08077 c -0.057944,0.152597 -0.1844031,0.281616 -0.3370473,0.343866 l -0.073543,0.02999 -1.1298884,0.0028 c -1.0661302,0.0028 -1.1342182,0.0012 -1.2066149,-0.02191 z"
     id="path2-2" />
</svg>
