<?xml version="1.0" encoding="UTF-8" standalone="no"?>
<svg
   width="64"
   height="64"
   version="1.1"
   viewBox="0 0 16.933 16.933"
   id="svg7"
   sodipodi:docname="abcd.svg"
   inkscape:version="1.4.3 (0d15f75042, 2025-12-25)"
   xmlns:inkscape="http://www.inkscape.org/namespaces/inkscape"
   xmlns:sodipodi="http://sodipodi.sourceforge.net/DTD/sodipodi-0.dtd"
   xmlns="http://www.w3.org/2000/svg"
   xmlns:svg="http://www.w3.org/2000/svg"
   xmlns:rdf="http://www.w3.org/1999/02/22-rdf-syntax-ns#"
   xmlns:cc="http://creativecommons.org/ns#"
   xmlns:dc="http://purl.org/dc/elements/1.1/">
  <sodipodi:namedview
     id="namedview7"
     pagecolor="#9c4444"
     bordercolor="#000000"
     borderopacity="0.25"
     inkscape:showpageshadow="2"
     inkscape:pageopacity="0.0"
     inkscape:pagecheckerboard="0"
     inkscape:deskcolor="#d1d1d1"
     inkscape:zoom="4.3531261"
     inkscape:cx="32.620236"
     inkscape:cy="33.768836"
     inkscape:window-width="1226"
     inkscape:window-height="669"
     inkscape:window-x="100"
     inkscape:window-y="206"
     inkscape:window-maximized="0"
     inkscape:current-layer="svg7"
     showgrid="false" />
  <defs
     id="defs2">
    <filter
       style="color-interpolation-filters:sRGB;"
       inkscape:label="Blur"
       id="filter5421"
       x="-0.12256455"
       y="-0.12342654"
       width="1.2451291"
       height="1.2468531">
      <feGaussianBlur
         stdDeviation="0.5 0.5"
         result="blur"
         id="feGaussianBlur5419" />
    </filter>
  </defs>
  <metadata
     id="metadata2">
    <rdf:RDF>
      <cc:Work
         rdf:about="">
        <dc:format>image/svg+xml</dc:format>
        <dc:type
           rdf:resource="http://purl.org/dc/dcmitype/StillImage" />
      </cc:Work>
    </rdf:RDF>
  </metadata>
  <rect
     style="opacity:0.3;fill:none;fill-opacity:0.996424;stroke:#000000;stroke-width:0.955221;stroke-dasharray:none;stroke-opacity:1;filter:url(#filter5421)"
     id="rect1-2-7"
     width="13.687567"
     height="13.591975"
     x="1.6227165"
     y="1.6705122"
     rx="2.8442214"
     ry="2.965905" />
  <rect
     style="fill:none;fill-opacity:1;stroke:{{colors.primary.default.hex}};stroke-width:0.955221;stroke-dasharray:none;stroke-opacity:1"
     id="rect1-2"
     width="13.687567"
     height="13.591975"
     x="1.6227167"
     y="1.6705124"
     rx="2.8442214"
     ry="2.965905" />
  <path
     id="path8"
     style="fill:{{colors.primary.default.hex}};fill-opacity:1;stroke:none;stroke-width:0.127719;stroke-dasharray:none;stroke-opacity:0.6"
     d="M 10.288528,4.6480401 9.4615939,5.3373963 8.6343657,6.0267528 9.8301339,6.7299553 c 0.6575651,0.3867896 1.1986961,0.7031779 1.2028391,0.7032025 0.03326,2.028e-4 1.507065,-1.2371469 1.490954,-1.2517416 -0.02255,-0.020445 -1.954744,-1.3483731 -2.129932,-1.4638513 z M 6.6885551,4.68133 c -0.088701,0.00876 -0.5616079,0.3236095 -2.2795898,1.5115765 -0.00325,0.0022 0.3342266,0.2822551 0.7500438,0.6221878 0.4158164,0.3399324 0.7600073,0.618064 0.764773,0.618064 0.017417,0 2.3232066,-1.3589967 2.3532381,-1.3869615 C 8.301009,6.0238576 8.1317692,5.8705251 7.5275667,5.3668557 7.0983832,5.0090854 6.7267351,4.7014465 6.7015171,4.683392 c -0.00276,-0.00197 -0.00705,-0.00264 -0.012963,-0.00207 z m 4.3102439,3.001646 c -0.0075,8.143e-4 -0.01382,0.00371 -0.02003,0.00766 -0.02927,0.018507 -0.568111,0.3359051 -1.1972402,0.7052646 L 8.637606,9.0672859 9.0303034,9.3845675 c 0.2159515,0.1745064 0.5838128,0.4717969 0.8175057,0.6604845 0.2336949,0.188688 0.4339549,0.34291 0.4448409,0.34291 0.01787,0 2.182855,-1.4332153 2.230392,-1.476518 C 12.534033,8.9014386 12.202988,8.6150982 11.787435,8.2751156 11.169602,7.7696376 11.051904,7.677128 10.998798,7.6829759 Z M 5.9019813,7.687396 C 5.8924338,7.6867631 5.8862825,7.6886 5.8819486,7.6924 5.8600872,7.7112888 5.5208865,7.9892511 5.12837,8.3098749 4.7358519,8.6304986 4.4199043,8.899552 4.426345,8.9079061 c 0.00644,0.00837 0.5077389,0.3561075 1.113871,0.7727279 0.6061319,0.416618 1.1109716,0.757409 1.1218245,0.757409 0.041674,0 1.6486329,-1.3602918 1.629414,-1.3793031 C 8.280294,9.0477023 7.7423796,8.7281289 7.0962753,8.3484658 6.1992612,7.8213638 5.9688352,7.6915364 5.9019803,7.6873906 Z m 2.5783106,1.4986104 c -0.00902,0 -0.4091243,0.3278684 -0.889092,0.728538 C 7.1112313,10.315222 6.7048009,10.64881 6.6879658,10.655759 6.6711348,10.662659 6.5499175,10.594009 6.418704,10.503157 6.2874902,10.412307 6.1746005,10.33789 6.1677078,10.33789 c -0.029063,0 -0.011734,0.567804 0.018567,0.607457 0.025838,0.03382 1.1777575,0.723461 2.0471528,1.225523 0.1204327,0.06955 0.2349175,0.118931 0.2636641,0.113714 0.079706,-0.01446 2.1962343,-1.266069 2.2592603,-1.335998 0.05179,-0.05746 0.05627,-0.08651 0.05627,-0.36147 0,-0.164502 -0.0058,-0.29931 -0.01326,-0.29931 -0.0075,0 -0.114932,0.06825 -0.238625,0.151424 -0.123692,0.08317 -0.239606,0.156825 -0.257771,0.163796 C 10.2846,10.610053 9.8765166,10.298672 9.383234,9.9009993 8.8955855,9.507853 8.4893166,9.1860045 8.4803008,9.1860048 Z" />
</svg>
