<?xml version="1.0" encoding="UTF-8" standalone="no"?>
<svg
   width="64"
   height="64"
   version="1.1"
   viewBox="0 0 16.933 16.933"
   id="svg7"
   sodipodi:docname="abcd.svg"
   inkscape:version="1.4.3 (0d15f75042, 2025-12-25)"
   xmlns:inkscape="http://www.inkscape.org/namespaces/inkscape"
   xmlns:sodipodi="http://sodipodi.sourceforge.net/DTD/sodipodi-0.dtd"
   xmlns="http://www.w3.org/2000/svg"
   xmlns:svg="http://www.w3.org/2000/svg"
   xmlns:rdf="http://www.w3.org/1999/02/22-rdf-syntax-ns#"
   xmlns:cc="http://creativecommons.org/ns#"
   xmlns:dc="http://purl.org/dc/elements/1.1/">
  <sodipodi:namedview
     id="namedview7"
     pagecolor="#9c4444"
     bordercolor="#000000"
     borderopacity="0.25"
     inkscape:showpageshadow="2"
     inkscape:pageopacity="0.0"
     inkscape:pagecheckerboard="0"
     inkscape:deskcolor="#d1d1d1"
     inkscape:zoom="4.3531261"
     inkscape:cx="43.417074"
     inkscape:cy="20.674797"
     inkscape:window-width="1226"
     inkscape:window-height="669"
     inkscape:window-x="106"
     inkscape:window-y="190"
     inkscape:window-maximized="0"
     inkscape:current-layer="svg7"
     showgrid="false" />
  <defs
     id="defs2">
    <filter
       style="color-interpolation-filters:sRGB;"
       inkscape:label="Blur"
       id="filter5421"
       x="-0.12256455"
       y="-0.12342654"
       width="1.2451291"
       height="1.2468531">
      <feGaussianBlur
         stdDeviation="0.5 0.5"
         result="blur"
         id="feGaussianBlur5419" />
    </filter>
  </defs>
  <metadata
     id="metadata2">
    <rdf:RDF>
      <cc:Work
         rdf:about="">
        <dc:format>image/svg+xml</dc:format>
        <dc:type
           rdf:resource="http://purl.org/dc/dcmitype/StillImage" />
      </cc:Work>
    </rdf:RDF>
  </metadata>
  <rect
     style="opacity:0.3;fill:none;fill-opacity:0.996424;stroke:#000000;stroke-width:0.955221;stroke-dasharray:none;stroke-opacity:1;filter:url(#filter5421)"
     id="rect1-2-7"
     width="13.687567"
     height="13.591975"
     x="1.6227165"
     y="1.6705122"
     rx="2.8442214"
     ry="2.965905" />
  <rect
     style="fill:none;fill-opacity:1;stroke:{{colors.primary.default.hex}};stroke-width:0.955221;stroke-dasharray:none;stroke-opacity:1"
     id="rect1-2"
     width="13.687567"
     height="13.591975"
     x="1.6227167"
     y="1.6705124"
     rx="2.8442214"
     ry="2.965905" />
  <path
     style="fill:{{colors.primary.default.hex}};fill-opacity:1;stroke:none;stroke-width:0.136828;stroke-dasharray:none;stroke-opacity:0.6"
     d="m 8.946483,12.542361 c 0.5339352,-0.03414 1.0015525,-0.121622 1.442387,-0.269815 0.441775,-0.148517 0.858121,-0.365969 1.116849,-0.583323 0.513759,-0.431608 0.77603,-1.006845 0.752717,-1.650924 C 12.24574,9.6876016 12.17624,9.4036998 12.031599,9.1117653 11.890186,8.8263336 11.729802,8.614004 11.427281,8.3117113 11.171504,8.0561262 11.149541,8.0228865 11.14215,7.8801805 c -0.0081,-0.1512291 0.04247,-0.2524459 0.206977,-0.4164878 0.07601,-0.0758 0.136882,-0.1228114 0.286807,-0.2215164 0.241345,-0.1588911 0.369748,-0.2606724 0.52114,-0.4130934 0.137923,-0.1388578 0.237349,-0.2659721 0.330434,-0.4224554 0.0791,-0.1329719 0.08395,-0.1676398 0.03087,-0.220705 -0.0273,-0.027295 -0.04196,-0.034056 -0.07384,-0.034056 -0.102013,0 -0.506988,-0.051011 -0.709762,-0.089402 -0.121235,-0.022955 -0.137373,-0.03741 -0.163567,-0.146477 C 11.484819,5.5562554 11.280366,5.2047628 11.003614,4.9401869 10.702965,4.6527649 10.342361,4.473407 9.9230989,4.4027586 9.7957989,4.3813071 9.4815355,4.3785703 9.3471459,4.3977392 8.5404457,4.5128236 7.876255,5.0986598 7.6745308,5.8730339 7.6237969,6.0677896 7.6111174,6.1685237 7.6104308,6.382243 7.6093012,6.7232165 7.664912,6.9708851 7.8093537,7.2687102 7.9329438,7.5235424 8.0690221,7.7006505 8.310966,7.9215684 8.4190956,8.0203004 8.4572773,8.0790046 8.4697703,8.1657236 8.4851669,8.2726035 8.4336631,8.3745293 8.3533295,8.396161 8.3252284,8.403733 8.0852437,8.4056905 7.565439,8.4025688 6.7814374,8.3978787 6.7905766,8.3983567 6.5575294,8.3502451 6.4349012,8.3249299 6.2199295,8.2509465 6.0970791,8.1917781 5.798639,8.0480412 5.5412674,7.8380196 5.3953207,7.6191241 5.3326926,7.5251932 5.3085264,7.5006166 5.2580644,7.4795316 5.162153,7.4394575 5.080163,7.469477 4.9868562,7.5788326 4.7015332,7.9132307 4.4933677,8.3690185 4.4148377,8.8312909 4.34913,9.2181032 4.3766439,9.7130698 4.4858359,10.108405 c 0.089835,0.32525 0.2131026,0.628908 0.3334237,0.821359 0.3153474,0.50439 0.8394488,0.921897 1.5279226,1.21716 0.4544991,0.19492 1.0082256,0.321796 1.6627506,0.380996 0.2020587,0.0183 0.7455088,0.02667 0.93655,0.01444 z m 1.552165,-6.16617 c -0.09889,-0.029365 -0.171894,-0.093073 -0.21689,-0.1892668 -0.02356,-0.05036 -0.02809,-0.073161 -0.02798,-0.1407073 1.13e-4,-0.070537 0.0042,-0.088864 0.03264,-0.146667 0.03795,-0.077081 0.09249,-0.1301624 0.171357,-0.1667439 0.08013,-0.03717 0.192724,-0.03717 0.272852,0 0.07761,0.036004 0.13336,0.089515 0.168986,0.1622114 0.0642,0.131019 0.04554,0.275623 -0.04893,0.3789768 -0.09478,0.1037049 -0.222315,0.1407264 -0.352057,0.1021968 z"
     id="path1" />
</svg>
