<?xml version="1.0" encoding="UTF-8" standalone="no"?>
<svg
   width="64"
   height="64"
   version="1.1"
   viewBox="0 0 16.933 16.933"
   id="svg7"
   sodipodi:docname="abcd.svg"
   inkscape:version="1.4.3 (0d15f75042, 2025-12-25)"
   xmlns:inkscape="http://www.inkscape.org/namespaces/inkscape"
   xmlns:sodipodi="http://sodipodi.sourceforge.net/DTD/sodipodi-0.dtd"
   xmlns="http://www.w3.org/2000/svg"
   xmlns:svg="http://www.w3.org/2000/svg"
   xmlns:rdf="http://www.w3.org/1999/02/22-rdf-syntax-ns#"
   xmlns:cc="http://creativecommons.org/ns#"
   xmlns:dc="http://purl.org/dc/elements/1.1/">
  <sodipodi:namedview
     id="namedview7"
     pagecolor="#9c4444"
     bordercolor="#000000"
     borderopacity="0.25"
     inkscape:showpageshadow="2"
     inkscape:pageopacity="0.0"
     inkscape:pagecheckerboard="0"
     inkscape:deskcolor="#d1d1d1"
     inkscape:zoom="4.3531261"
     inkscape:cx="43.417074"
     inkscape:cy="20.674797"
     inkscape:window-width="1226"
     inkscape:window-height="669"
     inkscape:window-x="106"
     inkscape:window-y="190"
     inkscape:window-maximized="0"
     inkscape:current-layer="svg7"
     showgrid="false" />
  <defs
     id="defs2">
    <filter
       style="color-interpolation-filters:sRGB;"
       inkscape:label="Blur"
       id="filter5421"
       x="-0.12256455"
       y="-0.12342654"
       width="1.2451291"
       height="1.2468531">
      <feGaussianBlur
         stdDeviation="0.5 0.5"
         result="blur"
         id="feGaussianBlur5419" />
    </filter>
  </defs>
  <metadata
     id="metadata2">
    <rdf:RDF>
      <cc:Work
         rdf:about="">
        <dc:format>image/svg+xml</dc:format>
        <dc:type
           rdf:resource="http://purl.org/dc/dcmitype/StillImage" />
      </cc:Work>
    </rdf:RDF>
  </metadata>
  <rect
     style="opacity:0.3;fill:none;fill-opacity:0.996424;stroke:#000000;stroke-width:0.955221;stroke-dasharray:none;stroke-opacity:1;filter:url(#filter5421)"
     id="rect1-2-7"
     width="13.687567"
     height="13.591975"
     x="1.6227165"
     y="1.6705122"
     rx="2.8442214"
     ry="2.965905" />
  <rect
     style="fill:none;fill-opacity:1;stroke:{{colors.primary.default.hex}};stroke-width:0.955221;stroke-dasharray:none;stroke-opacity:1"
     id="rect1-2"
     width="13.687567"
     height="13.591975"
     x="1.6227167"
     y="1.6705124"
     rx="2.8442214"
     ry="2.965905" />
  <g
     id="g1"
     style="fill:{{colors.primary.default.hex}};fill-opacity:1"
     transform="matrix(0.7978955,0,0,0.7978955,1.711118,1.4789021)">
    <path
       id="path2-92"
       class="ColorScheme-Text"
       d="m 6.5016586,7.6659565 c -0.602857,0 -1.0915785,0.4887214 -1.0915785,1.0915785 0,0.6028569 0.4887215,1.0915785 1.0915785,1.0915785 H 10.43134 c 0.602857,0 1.091579,-0.4887215 1.091579,-1.0915785 0,-0.6028571 -0.488722,-1.0915785 -1.091579,-1.0915785 z M 5.8467115,8.757535 c 0,-0.3617055 0.2932416,-0.6549471 0.6549471,-0.6549471 0.3617055,0 0.6549471,0.2932416 0.6549471,0.6549471 0,0.3617054 -0.2932416,0.6549471 -0.6549471,0.6549471 -0.3617055,0 -0.6549471,-0.2932417 -0.6549471,-0.6549471 z m 3.9296824,0 c 0,-0.3617055 0.2932421,-0.6549471 0.6549461,-0.6549471 0.361706,0 0.654947,0.2932416 0.654947,0.6549471 0,0.3617054 -0.293241,0.6549471 -0.654947,0.6549471 -0.361704,0 -0.6549461,-0.2932417 -0.6549461,-0.6549471 z"
       clip-rule="evenodd"
       fill="currentColor"
       fill-rule="evenodd"
       stroke-width="0.436631"
       style="color:#232629;fill:{{colors.primary.default.hex}};fill-opacity:1" />
    <path
       style="fill:{{colors.primary.default.hex}};fill-opacity:1;stroke-width:0.23812;stroke-linecap:round"
       d="m 4.894695,5.4833814 c -0.819343,0 -1.4882518,0.668909 -1.4882518,1.4882519 v 3.5718047 c 0,0.819342 0.6689088,1.488251 1.4882518,1.488251 h 7.143609 c 0.819343,0 1.488252,-0.668909 1.488252,-1.488251 V 6.9716333 c 0,-0.8193429 -0.668909,-1.4882519 -1.488252,-1.4882519 z m 0,0.5953007 h 7.143609 c 0.499843,0 0.892951,0.3931076 0.892951,0.8929512 v 3.5718047 c 0,0.499843 -0.393108,0.89295 -0.892951,0.89295 H 4.894695 c -0.4998434,0 -0.8929512,-0.393107 -0.8929512,-0.89295 V 6.9716333 c 0,-0.4998436 0.3931078,-0.8929512 0.8929512,-0.8929512 z"
       id="rect3" />
  </g>
</svg>
