<?xml version="1.0" encoding="UTF-8" standalone="no"?>
<svg
   width="64"
   height="64"
   version="1.1"
   viewBox="0 0 16.933 16.933"
   id="svg7"
   sodipodi:docname="abcd.svg"
   inkscape:version="1.4.3 (0d15f75042, 2025-12-25)"
   xmlns:inkscape="http://www.inkscape.org/namespaces/inkscape"
   xmlns:sodipodi="http://sodipodi.sourceforge.net/DTD/sodipodi-0.dtd"
   xmlns="http://www.w3.org/2000/svg"
   xmlns:svg="http://www.w3.org/2000/svg"
   xmlns:rdf="http://www.w3.org/1999/02/22-rdf-syntax-ns#"
   xmlns:cc="http://creativecommons.org/ns#"
   xmlns:dc="http://purl.org/dc/elements/1.1/">
  <sodipodi:namedview
     id="namedview7"
     pagecolor="#9c4444"
     bordercolor="#000000"
     borderopacity="0.25"
     inkscape:showpageshadow="2"
     inkscape:pageopacity="0.0"
     inkscape:pagecheckerboard="0"
     inkscape:deskcolor="#d1d1d1"
     inkscape:zoom="4.3531261"
     inkscape:cx="41.809035"
     inkscape:cy="23.661157"
     inkscape:window-width="1226"
     inkscape:window-height="669"
     inkscape:window-x="106"
     inkscape:window-y="190"
     inkscape:window-maximized="0"
     inkscape:current-layer="svg7"
     showgrid="false" />
  <defs
     id="defs2">
    <filter
       style="color-interpolation-filters:sRGB;"
       inkscape:label="Blur"
       id="filter5421"
       x="-0.12256455"
       y="-0.12342654"
       width="1.2451291"
       height="1.2468531">
      <feGaussianBlur
         stdDeviation="0.5 0.5"
         result="blur"
         id="feGaussianBlur5419" />
    </filter>
  </defs>
  <metadata
     id="metadata2">
    <rdf:RDF>
      <cc:Work
         rdf:about="">
        <dc:format>image/svg+xml</dc:format>
        <dc:type
           rdf:resource="http://purl.org/dc/dcmitype/StillImage" />
      </cc:Work>
    </rdf:RDF>
  </metadata>
  <rect
     style="opacity:0.3;fill:none;fill-opacity:0.996424;stroke:#000000;stroke-width:0.955221;stroke-dasharray:none;stroke-opacity:1;filter:url(#filter5421)"
     id="rect1-2-7"
     width="13.687567"
     height="13.591975"
     x="1.6227165"
     y="1.6705122"
     rx="2.8442214"
     ry="2.965905" />
  <rect
     style="fill:none;fill-opacity:1;stroke:{{colors.primary.default.hex}};stroke-width:0.955221;stroke-dasharray:none;stroke-opacity:1"
     id="rect1-2"
     width="13.687567"
     height="13.591975"
     x="1.6227167"
     y="1.6705124"
     rx="2.8442214"
     ry="2.965905" />
  <path
     d="M 12.511039,7.2221906 C 12.414657,6.8121592 11.737532,6.3817085 11.318518,6.4245904 11.35078,6.271441 10.662631,5.7466501 10.529084,5.664971 9.8156127,5.2292099 8.9277559,4.7995744 8.051334,4.7909981 6.315644,4.7742588 5.5568408,6.086028 5.1925488,6.4397018 4.9711977,6.6545181 4.6322279,6.9698003 4.3757533,7.2413855 c 0.2552491,0 0.6297498,0 0.8167955,0 C 4.9752811,7.6060849 4.2928486,8.4069523 4.3757533,9.2833752 4.7245248,8.8153508 4.9626208,8.721828 5.2505415,8.5935909 4.7196246,10.184301 5.4477976,11.733762 6.4177429,12.142159 c -0.1147601,-0.510496 -0.127828,-1.378341 0,-1.63359 0.4913028,0.831089 1.5739652,1.420815 2.0419895,1.63359 0,-0.867845 -0.089847,-1.944381 0.4083971,-2.8587838 0.3226352,-0.5925859 0.9826062,-1.2251943 1.6335915,-1.2251943 0.555013,0 0.87438,0 1.633593,0 0.08943,0.1212948 0.204197,0.2042001 0.408397,0.4083982 0,-0.2932297 0.02654,-0.5562375 0.0192,-0.8167955 -0.0041,-0.1417145 -0.01797,-0.2830194 -0.05187,-0.427593 z M 9.5313676,6.8746444 c -0.348363,0 -0.5995276,-0.2205342 -0.6632381,-0.450054 C 8.7803249,6.3269824 8.5279346,6.1538225 8.4597324,6.0161928 8.634526,6.1824105 9.9401743,6.4245904 10.093323,6.4245904 c 0,0.2176761 -0.08944,0.450054 -0.5619554,0.450054 z"
     id="path1"
     style="fill:{{colors.primary.default.hex}};fill-opacity:1;stroke-width:0.408394" />
</svg>
