<?xml version="1.0" encoding="UTF-8" standalone="no"?>
<svg
   width="64"
   height="64"
   version="1.1"
   viewBox="0 0 16.933 16.933"
   id="svg7"
   sodipodi:docname="abcd.svg"
   inkscape:version="1.4.3 (0d15f75042, 2025-12-25)"
   xmlns:inkscape="http://www.inkscape.org/namespaces/inkscape"
   xmlns:sodipodi="http://sodipodi.sourceforge.net/DTD/sodipodi-0.dtd"
   xmlns="http://www.w3.org/2000/svg"
   xmlns:svg="http://www.w3.org/2000/svg"
   xmlns:rdf="http://www.w3.org/1999/02/22-rdf-syntax-ns#"
   xmlns:cc="http://creativecommons.org/ns#"
   xmlns:dc="http://purl.org/dc/elements/1.1/">
  <sodipodi:namedview
     id="namedview7"
     pagecolor="#9c4444"
     bordercolor="#000000"
     borderopacity="0.25"
     inkscape:showpageshadow="2"
     inkscape:pageopacity="0.0"
     inkscape:pagecheckerboard="0"
     inkscape:deskcolor="#d1d1d1"
     inkscape:zoom="4.3531261"
     inkscape:cx="32.620236"
     inkscape:cy="33.768836"
     inkscape:window-width="1226"
     inkscape:window-height="669"
     inkscape:window-x="100"
     inkscape:window-y="206"
     inkscape:window-maximized="0"
     inkscape:current-layer="svg7"
     showgrid="false" />
  <defs
     id="defs2">
    <filter
       style="color-interpolation-filters:sRGB;"
       inkscape:label="Blur"
       id="filter5421"
       x="-0.12256455"
       y="-0.12342654"
       width="1.2451291"
       height="1.2468531">
      <feGaussianBlur
         stdDeviation="0.5 0.5"
         result="blur"
         id="feGaussianBlur5419" />
    </filter>
  </defs>
  <metadata
     id="metadata2">
    <rdf:RDF>
      <cc:Work
         rdf:about="">
        <dc:format>image/svg+xml</dc:format>
        <dc:type
           rdf:resource="http://purl.org/dc/dcmitype/StillImage" />
      </cc:Work>
    </rdf:RDF>
  </metadata>
  <rect
     style="opacity:0.3;fill:none;fill-opacity:0.996424;stroke:#000000;stroke-width:0.955221;stroke-dasharray:none;stroke-opacity:1;filter:url(#filter5421)"
     id="rect1-2-7"
     width="13.687567"
     height="13.591975"
     x="1.6227165"
     y="1.6705122"
     rx="2.8442214"
     ry="2.965905" />
  <rect
     style="fill:none;fill-opacity:1;stroke:{{colors.primary.default.hex}};stroke-width:0.955221;stroke-dasharray:none;stroke-opacity:1"
     id="rect1-2"
     width="13.687567"
     height="13.591975"
     x="1.6227167"
     y="1.6705124"
     rx="2.8442214"
     ry="2.965905" />
  <path
     id="path3-6"
     style="fill:{{colors.primary.default.hex}};fill-opacity:1;stroke:none;stroke-width:0.134105;stroke-dasharray:none;stroke-opacity:0.6"
     d="M 8.4690609,4.473723 C 7.6996467,4.4732765 6.925796,4.6964543 6.2470645,5.1511483 4.7501425,6.153962 4.1125674,8.0184671 4.6818721,9.7284943 5.1692161,11.192334 6.4849288,12.261712 8.0109137,12.434414 9.4059909,12.592303 10.805428,11.98978 11.651343,10.866816 12.877779,9.2387086 12.685829,6.9668245 11.203507,5.5656458 10.440235,4.8441568 9.4583073,4.4742928 8.4690609,4.473723 Z m -0.016157,2.9891255 c 0.114936,0 0.2164222,0.054857 0.7269174,0.3921579 0.2391749,0.1580301 0.4996217,0.3238282 0.5787848,0.3680985 l 0.1440066,0.080424 0.1481363,-0.038149 c 0.08155,-0.02101 0.304311,-0.087796 0.494922,-0.1481332 0.486069,-0.1538609 0.726054,-0.2157761 0.83415,-0.215841 0.08311,-4.89e-5 0.09314,0.00535 0.09314,0.05121 0,0.257054 -1.190765,1.4583738 -1.5036734,1.5170753 C 9.8217,9.4973796 9.5668602,9.3828373 8.8973032,8.9878293 8.6810327,8.8602394 8.4911318,8.7558567 8.4755878,8.7558341 8.4332717,8.7557719 8.2992352,8.8273867 7.9229244,9.0514124 7.5301612,9.2852334 7.3468228,9.3808621 7.1805409,9.4380709 7.0227621,9.4923551 6.9641004,9.4895873 6.836501,9.4219147 6.4229178,9.2025798 5.4472803,8.1559582 5.4472803,7.9316483 c 2e-7,-0.06404 0.2563414,-0.022534 0.7011404,0.1134196 0.2229443,0.068141 0.5072113,0.1535168 0.6317138,0.1897201 l 0.2264958,0.06599 0.091422,-0.040901 C 7.1482909,8.2375325 7.3518595,8.1116296 7.5507012,7.9797657 8.1660987,7.5716594 8.3559147,7.4628465 8.4529042,7.4628462 Z" />
</svg>
