<?xml version="1.0" encoding="UTF-8" standalone="no"?>
<svg
   width="64"
   height="64"
   version="1.1"
   viewBox="0 0 16.933 16.933"
   id="svg7"
   sodipodi:docname="abcd.svg"
   inkscape:version="1.4.3 (0d15f75042, 2025-12-25)"
   xmlns:inkscape="http://www.inkscape.org/namespaces/inkscape"
   xmlns:sodipodi="http://sodipodi.sourceforge.net/DTD/sodipodi-0.dtd"
   xmlns="http://www.w3.org/2000/svg"
   xmlns:svg="http://www.w3.org/2000/svg"
   xmlns:rdf="http://www.w3.org/1999/02/22-rdf-syntax-ns#"
   xmlns:cc="http://creativecommons.org/ns#"
   xmlns:dc="http://purl.org/dc/elements/1.1/">
  <sodipodi:namedview
     id="namedview7"
     pagecolor="#9c4444"
     bordercolor="#000000"
     borderopacity="0.25"
     inkscape:showpageshadow="2"
     inkscape:pageopacity="0.0"
     inkscape:pagecheckerboard="0"
     inkscape:deskcolor="#d1d1d1"
     inkscape:zoom="4.3531261"
     inkscape:cx="40.890155"
     inkscape:cy="24.120597"
     inkscape:window-width="1226"
     inkscape:window-height="669"
     inkscape:window-x="94"
     inkscape:window-y="173"
     inkscape:window-maximized="0"
     inkscape:current-layer="svg7"
     showgrid="false" />
  <defs
     id="defs2">
    <filter
       style="color-interpolation-filters:sRGB;"
       inkscape:label="Blur"
       id="filter5421"
       x="-0.12256455"
       y="-0.12342654"
       width="1.2451291"
       height="1.2468531">
      <feGaussianBlur
         stdDeviation="0.5 0.5"
         result="blur"
         id="feGaussianBlur5419" />
    </filter>
  </defs>
  <metadata
     id="metadata2">
    <rdf:RDF>
      <cc:Work
         rdf:about="">
        <dc:format>image/svg+xml</dc:format>
        <dc:type
           rdf:resource="http://purl.org/dc/dcmitype/StillImage" />
      </cc:Work>
    </rdf:RDF>
  </metadata>
  <rect
     style="opacity:0.3;fill:none;fill-opacity:0.996424;stroke:#000000;stroke-width:0.955221;stroke-dasharray:none;stroke-opacity:1;filter:url(#filter5421)"
     id="rect1-2-7"
     width="13.687567"
     height="13.591975"
     x="1.6227165"
     y="1.6705122"
     rx="2.8442214"
     ry="2.965905" />
  <rect
     style="fill:none;fill-opacity:1;stroke:{{colors.primary.default.hex}};stroke-width:0.955221;stroke-dasharray:none;stroke-opacity:1"
     id="rect1-2"
     width="13.687567"
     height="13.591975"
     x="1.6227167"
     y="1.6705124"
     rx="2.8442214"
     ry="2.965905" />
  <path
     style="fill:{{colors.primary.default.hex}};fill-opacity:1;stroke-width:0.0836837"
     d="M 5.2729617,12.171229 C 5.2028273,12.101091 5.1725416,11.64681 5.1725416,10.66492 V 9.2590313 h 3.1381445 3.1381429 v 1.4196817 c 0,1.31795 -0.0116,1.425887 -0.161866,1.506309 -0.243845,0.130503 -5.8826376,0.117568 -6.0140013,-0.01379 z m -0.5029698,-3.3933804 0.025972,-0.3138137 3.4938001,-0.02184 3.4938,-0.02184 v 0.335654 0.3356537 H 8.2637924 4.7440195 Z M 5.8995397,8.1399979 C 5.8753093,8.0768431 5.8301464,7.8562646 5.7991892,7.6498242 L 5.7429017,7.274477 6.0904278,7.2189048 c 0.1911395,-0.030565 0.3785532,-0.036395 0.4164758,-0.012957 0.037923,0.023439 0.095154,0.2173512 0.1271804,0.4309189 0.032028,0.2135681 0.078059,0.439977 0.102293,0.5031321 0.033722,0.087878 -0.054137,0.1148275 -0.3743559,0.1148275 -0.2774039,0 -0.4332694,-0.038699 -0.4624814,-0.1148284 z m 1.9508848,0.044244 c 0,-0.038822 0.074485,-0.2870743 0.1655191,-0.5516747 C 8.1656144,7.1975427 8.1696209,7.1285753 8.0577863,6.9123104 7.9897638,6.7807684 7.9341082,6.5666798 7.9341082,6.4365561 7.9341082,6.0654687 8.3189241,5.5852321 8.620788,5.579604 8.7523588,5.577184 8.7538307,5.604412 8.6396,5.9281677 8.5239075,6.2560769 8.5264259,6.2901397 8.67754,6.4412537 8.9322197,6.6959325 9.2231517,6.5755758 9.3462833,6.1646 9.4633029,5.7740274 9.5428425,5.7444273 9.6780347,6.0411412 9.8933858,6.5137851 9.654038,7.1938145 9.23534,7.2989009 9.0699517,7.3404106 8.9946908,7.4480575 8.8827264,7.80325 L 8.7403797,8.2548252 h -0.444978 c -0.2447387,0 -0.4449791,-0.031761 -0.4449788,-0.070583 z M 10.400141,7.6344138 c 0.263016,-0.3556547 0.491907,-0.7676907 0.536359,-0.9655319 0.05715,-0.2543935 0.18191,-0.4377824 0.474551,-0.6976088 0.218352,-0.1938688 0.448206,-0.3827287 0.510784,-0.4196888 0.131566,-0.077706 0.614885,0.1775336 0.614885,0.3247197 0,0.052748 -0.113199,0.3455616 -0.251553,0.6506937 C 12.095209,6.9459423 11.953768,7.132189 11.707513,7.287643 11.528157,7.4008651 11.258395,7.6648003 11.108042,7.8741634 10.842275,8.244235 10.822243,8.2548252 10.387998,8.2548252 H 9.9413237 Z M 5.7192565,6.6959752 C 5.6430262,6.1876377 5.5967726,6.0790451 5.4564811,6.0790451 c -0.064114,0 -0.1165721,-0.037658 -0.1165721,-0.083685 0,-0.1244365 -0.2324721,-0.1012539 -0.3096561,0.03088 C 4.9934456,6.0892513 4.8798564,6.166706 4.7778304,6.1983631 4.5789645,6.2600692 4.5932995,6.2883086 4.4277097,5.5086189 4.3411627,5.101109 4.4227297,5.0155279 4.8059923,5.1117206 4.9462262,5.1469173 5.0739319,5.1232566 5.161461,5.0458751 5.3106597,4.9139655 6.4501177,4.6564198 6.8845235,4.6564198 c 0.5288393,0 1.098882,0.2965577 1.3051681,0.6789985 0.064775,0.1200905 0.029155,0.1264615 -0.3214989,0.057503 C 7.4892467,5.3183971 6.753689,5.3539965 6.4767611,5.4602654 6.4038068,5.4882628 6.344115,5.598143 6.344115,5.7044487 c 0,0.1063056 -0.041983,0.2072768 -0.093294,0.2243816 C 6.1828,5.9514973 6.18502,6.0923729 6.259041,6.4488218 6.3694304,6.9806173 6.322198,7.0793463 5.9561289,7.0819698 5.8073717,7.0830698 5.7675819,7.0181938 5.7192622,6.6959749 Z"
     id="path423" />
</svg>
