<?xml version="1.0" encoding="UTF-8" standalone="no"?>
<svg
   width="64"
   height="64"
   version="1.1"
   viewBox="0 0 16.933 16.933"
   id="svg7"
   sodipodi:docname="abcd.svg"
   inkscape:version="1.4.3 (0d15f75042, 2025-12-25)"
   xmlns:inkscape="http://www.inkscape.org/namespaces/inkscape"
   xmlns:sodipodi="http://sodipodi.sourceforge.net/DTD/sodipodi-0.dtd"
   xmlns="http://www.w3.org/2000/svg"
   xmlns:svg="http://www.w3.org/2000/svg"
   xmlns:rdf="http://www.w3.org/1999/02/22-rdf-syntax-ns#"
   xmlns:cc="http://creativecommons.org/ns#"
   xmlns:dc="http://purl.org/dc/elements/1.1/">
  <sodipodi:namedview
     id="namedview7"
     pagecolor="#9c4444"
     bordercolor="#000000"
     borderopacity="0.25"
     inkscape:showpageshadow="2"
     inkscape:pageopacity="0.0"
     inkscape:pagecheckerboard="0"
     inkscape:deskcolor="#d1d1d1"
     inkscape:zoom="4.3531261"
     inkscape:cx="40.890155"
     inkscape:cy="24.120597"
     inkscape:window-width="1226"
     inkscape:window-height="669"
     inkscape:window-x="94"
     inkscape:window-y="173"
     inkscape:window-maximized="0"
     inkscape:current-layer="svg7"
     showgrid="false" />
  <defs
     id="defs2">
    <filter
       style="color-interpolation-filters:sRGB;"
       inkscape:label="Blur"
       id="filter5421"
       x="-0.12256455"
       y="-0.12342654"
       width="1.2451291"
       height="1.2468531">
      <feGaussianBlur
         stdDeviation="0.5 0.5"
         result="blur"
         id="feGaussianBlur5419" />
    </filter>
  </defs>
  <metadata
     id="metadata2">
    <rdf:RDF>
      <cc:Work
         rdf:about="">
        <dc:format>image/svg+xml</dc:format>
        <dc:type
           rdf:resource="http://purl.org/dc/dcmitype/StillImage" />
      </cc:Work>
    </rdf:RDF>
  </metadata>
  <rect
     style="opacity:0.3;fill:none;fill-opacity:0.996424;stroke:#000000;stroke-width:0.955221;stroke-dasharray:none;stroke-opacity:1;filter:url(#filter5421)"
     id="rect1-2-7"
     width="13.687567"
     height="13.591975"
     x="1.6227165"
     y="1.6705122"
     rx="2.8442214"
     ry="2.965905" />
  <rect
     style="fill:none;fill-opacity:1;stroke:{{colors.primary.default.hex}};stroke-width:0.955221;stroke-dasharray:none;stroke-opacity:1"
     id="rect1-2"
     width="13.687567"
     height="13.591975"
     x="1.6227167"
     y="1.6705124"
     rx="2.8442214"
     ry="2.965905" />
  <path
     style="fill:{{colors.primary.default.hex}};fill-opacity:1;stroke-width:0.0267498"
     d="M 8.493542,12.485725 C 8.4809212,12.279748 8.4465198,11.950722 8.4170984,11.754554 8.3876777,11.558387 8.3384633,10.876257 8.3077345,10.238713 8.2442614,8.9218326 8.237636,8.8605207 8.1540535,8.8165309 8.1205686,8.7989064 7.8122951,8.7659776 7.4690015,8.7433538 7.1257083,8.7207284 6.7244561,8.6850287 6.5773303,8.6640183 6.4302048,8.6430081 6.1252532,8.6068669 5.8996604,8.583705 L 5.4894916,8.5415929 5.799608,8.5162595 C 5.9701722,8.5023255 6.2109237,8.4677675 6.334611,8.4394635 6.4582984,8.4111585 6.9125982,8.3630695 7.3441679,8.3325965 8.2428297,8.2691435 8.2533237,8.2648585 8.2540897,7.961002 8.2547201,7.7126985 8.3550261,5.8298681 8.3807183,5.584191 c 0.012306,-0.1177009 0.044839,-0.3664773 0.07229,-0.5528367 0.027451,-0.1863585 0.051606,-0.4431601 0.053676,-0.5706694 0.00461,-0.2831474 0.058702,-0.1639258 0.064745,0.142668 0.00213,0.1078917 0.027493,0.3965624 0.05637,0.6414896 0.028878,0.2449275 0.077625,0.9591566 0.1083304,1.5871752 0.065005,1.3296324 0.068566,1.3606635 0.1619317,1.4106307 0.038856,0.020794 0.4033056,0.061137 0.8098853,0.089649 0.4065803,0.028511 0.8275123,0.070063 0.9354043,0.092339 0.107891,0.022276 0.356668,0.05923 0.552835,0.082121 l 0.356669,0.041621 -0.356669,0.027766 c -0.196167,0.015274 -0.420868,0.042166 -0.499336,0.059767 -0.07845,0.017601 -0.503793,0.058353 -0.9451703,0.090561 -0.8718424,0.063619 -0.9118363,0.075396 -0.9430981,0.2777179 -0.00943,0.061061 -0.042221,0.6246233 -0.072858,1.2523597 -0.030639,0.627737 -0.078906,1.33394 -0.1072654,1.56934 -0.028358,0.235403 -0.053661,0.524303 -0.056229,0.642003 -0.00876,0.401372 -0.05455,0.411752 -0.07869,0.01784 z M 7.7900032,11.216246 C 6.7755109,10.946754 6.0088076,10.061983 5.8518815,8.9796608 L 5.8322266,8.844114 6.0175269,8.8548278 c 0.184106,0.010646 0.1852285,0.011431 0.1741919,0.1218913 -0.00611,0.061149 0.010955,0.1333743 0.037926,0.1605009 0.026969,0.027127 0.1027746,0.1503096 0.1684596,0.2737392 0.1499155,0.2817073 0.4780053,0.5904128 0.7753848,0.7295738 0.196324,0.09187 0.3335402,0.12397 0.8219517,0.192284 0.094707,0.01324 0.1109066,0.02753 0.087343,0.077 -0.01591,0.0334 -0.020081,0.215225 -0.00927,0.404044 0.010808,0.188822 0.014469,0.369383 0.00812,0.401253 -0.01371,0.06889 -0.036215,0.06898 -0.2916358,0.0011 z M 8.9810775,10.9788 c 0.012353,-0.142221 0.025627,-0.407047 0.029514,-0.588504 0.00388,-0.181454 0.018757,-0.329918 0.033046,-0.329918 0.083894,0 0.6178702,-0.4594431 0.7575356,-0.6517977 0.08867,-0.122121 0.1860339,-0.2501263 0.2163639,-0.2844559 0.03033,-0.034328 0.05514,-0.092888 0.05514,-0.1301309 0,-0.072434 0.02139,-0.075996 0.792007,-0.1319258 L 11.17519,8.8395317 11.15516,8.9773691 C 11.025922,9.8670115 10.485912,10.634804 9.7162466,11.02324 9.493669,11.135571 9.1747744,11.237384 9.0455095,11.237384 c -0.086143,0 -0.086693,-0.0022 -0.064438,-0.258584 z M 5.8757877,8.0132449 c 0.027296,-0.1991407 0.1763481,-0.5389903 0.248542,-0.5666943 0.035124,-0.013477 0.048152,-0.047832 0.035903,-0.09467 -0.013958,-0.053361 -0.00225,-0.073516 0.042596,-0.073516 0.04688,0 0.056478,0.019395 0.039721,0.08025 -0.012156,0.044139 -0.040218,0.2354196 -0.062364,0.4250718 -0.042574,0.3646053 -0.055837,0.3843944 -0.258625,0.3858627 -0.059011,4.464e-4 -0.064628,-0.018754 -0.045774,-0.156305 z M 10.64335,8.1335783 C 10.476608,8.1233323 10.32012,8.1023263 10.2956,8.0868903 10.27109,8.0714533 10.25102,8.0149943 10.25102,7.9614238 10.25102,7.7929405 10.147739,7.4486832 10.016625,7.1801286 9.8469852,6.832673 9.5677428,6.5370711 9.2528278,6.3715879 9.0275554,6.25321 9.0026764,6.2294556 9.0026764,6.1327364 c 0,-0.05907 -0.017918,-0.140884 -0.039823,-0.181808 -0.038616,-0.072153 -0.033942,-0.073801 0.1541567,-0.054388 0.1066885,0.011013 0.3027058,0.069319 0.4355936,0.129574 0.7939463,0.3599915 1.4564343,1.1857885 1.5382913,1.9174929 0.02403,0.2148716 0.0228,0.2192948 -0.05992,0.2140011 -0.04645,-0.00297 -0.220886,-0.013786 -0.387629,-0.024031 z M 7.2906675,6.2660176 c 0,-0.031712 0.014179,-0.057657 0.031506,-0.057657 0.017333,0 0.039936,-0.032228 0.050235,-0.071616 0.010617,-0.040614 0.08576,-0.1018952 0.1735767,-0.1415631 0.1619326,-0.073148 0.519864,-0.1655431 0.5434976,-0.1402984 0.00753,0.00805 0.00561,0.09665 -0.00427,0.1968816 l -0.017987,0.1822395 -0.2901957,0.02324 c -0.1596093,0.012781 -0.3343354,0.032958 -0.3882812,0.044836 -0.075458,0.016614 -0.098084,0.00829 -0.098084,-0.036062 z"
     id="path1" />
</svg>
