<?xml version="1.0" encoding="UTF-8" standalone="no"?>
<svg
   width="64"
   height="64"
   version="1.1"
   viewBox="0 0 16.933 16.933"
   id="svg7"
   sodipodi:docname="abcd.svg"
   inkscape:version="1.4.3 (0d15f75042, 2025-12-25)"
   xmlns:inkscape="http://www.inkscape.org/namespaces/inkscape"
   xmlns:sodipodi="http://sodipodi.sourceforge.net/DTD/sodipodi-0.dtd"
   xmlns="http://www.w3.org/2000/svg"
   xmlns:svg="http://www.w3.org/2000/svg"
   xmlns:rdf="http://www.w3.org/1999/02/22-rdf-syntax-ns#"
   xmlns:cc="http://creativecommons.org/ns#"
   xmlns:dc="http://purl.org/dc/elements/1.1/">
  <sodipodi:namedview
     id="namedview7"
     pagecolor="#9c4444"
     bordercolor="#000000"
     borderopacity="0.25"
     inkscape:showpageshadow="2"
     inkscape:pageopacity="0.0"
     inkscape:pagecheckerboard="0"
     inkscape:deskcolor="#d1d1d1"
     inkscape:zoom="4.3531261"
     inkscape:cx="40.890155"
     inkscape:cy="24.120597"
     inkscape:window-width="1226"
     inkscape:window-height="669"
     inkscape:window-x="94"
     inkscape:window-y="173"
     inkscape:window-maximized="0"
     inkscape:current-layer="svg7"
     showgrid="false" />
  <defs
     id="defs2">
    <filter
       style="color-interpolation-filters:sRGB;"
       inkscape:label="Blur"
       id="filter5421"
       x="-0.12256455"
       y="-0.12342654"
       width="1.2451291"
       height="1.2468531">
      <feGaussianBlur
         stdDeviation="0.5 0.5"
         result="blur"
         id="feGaussianBlur5419" />
    </filter>
  </defs>
  <metadata
     id="metadata2">
    <rdf:RDF>
      <cc:Work
         rdf:about="">
        <dc:format>image/svg+xml</dc:format>
        <dc:type
           rdf:resource="http://purl.org/dc/dcmitype/StillImage" />
      </cc:Work>
    </rdf:RDF>
  </metadata>
  <rect
     style="opacity:0.3;fill:none;fill-opacity:0.996424;stroke:#000000;stroke-width:0.955221;stroke-dasharray:none;stroke-opacity:1;filter:url(#filter5421)"
     id="rect1-2-7"
     width="13.687567"
     height="13.591975"
     x="1.6227165"
     y="1.6705122"
     rx="2.8442214"
     ry="2.965905" />
  <rect
     style="fill:none;fill-opacity:1;stroke:{{colors.primary.default.hex}};stroke-width:0.955221;stroke-dasharray:none;stroke-opacity:1"
     id="rect1-2"
     width="13.687567"
     height="13.591975"
     x="1.6227167"
     y="1.6705124"
     rx="2.8442214"
     ry="2.965905" />
  <path
     id="path4-3"
     style="fill:{{colors.primary.default.hex}};fill-opacity:1;stroke:none;stroke-width:0.130312;stroke-dasharray:none;stroke-opacity:0.6"
     d="m 8.4664946,4.3260835 c -0.1695339,0 -0.1823425,0.00184 -0.2883321,0.038593 C 8.1166441,4.3859993 7.9955208,4.4442886 7.906158,4.4956691 7.8175364,4.5466238 7.1727567,4.9174132 6.4734016,5.3194768 5.7740447,5.7215396 5.1726069,6.0701227 5.1367559,6.0943002 5.0486579,6.1537139 4.9244245,6.2872542 4.8662354,6.3856016 4.8399578,6.4300172 4.8008774,6.5171337 4.7794018,6.5789362 l -0.038964,0.112439 v 1.7741535 1.7741543 l 0.038964,0.112438 c 0.06959,0.200267 0.1914186,0.365932 0.3510455,0.478328 0.074596,0.05252 2.797742,1.621282 2.9219177,1.683239 0.079553,0.03969 0.1354402,0.05944 0.2308146,0.08163 0.086646,0.02015 0.3273351,0.01282 0.4200671,-0.01262 0.039033,-0.01073 0.1084407,-0.03697 0.154371,-0.05862 0.1129812,-0.05327 2.8547453,-1.63009 2.9449243,-1.693628 0.159688,-0.112511 0.281464,-0.278084 0.351047,-0.478328 l 0.03897,-0.112438 V 8.4655274 6.6913736 L 12.153589,6.5789351 C 12.132119,6.5171309 12.093036,6.4300152 12.066759,6.3855996 12.008589,6.2872933 11.884375,6.153794 11.796234,6.0942984 11.741533,6.0573742 11.272171,5.7864242 9.026832,4.4956673 8.9375234,4.4443275 8.8163087,4.3859818 8.7548272,4.3646743 8.6488378,4.3279415 8.6360292,4.3260814 8.4664946,4.3260814 Z M 6.9613772,6.6167868 c 0.1091717,-0.00342 0.2235189,9.476e-4 0.3128241,0.014106 0.3817504,0.056145 0.7576718,0.22525 1.0776285,0.4846362 0.050135,0.040643 0.097242,0.07757 0.1046456,0.08201 0.00754,0.00451 0.059351,-0.029408 0.1180049,-0.076815 0.3279402,-0.2650468 0.7007063,-0.4334144 1.0843076,-0.4898321 0.1786132,-0.026272 0.4580541,-0.01721 0.5937351,0.018927 0.124734,0.033221 0.290308,0.1146605 0.378136,0.1859134 0.146424,0.1187929 0.264267,0.3102137 0.314678,0.5120959 0.0323,0.1293414 0.04469,0.4425928 0.02302,0.5770365 -0.07761,0.4813522 -0.455519,0.9337141 -1.0141722,1.2138171 l -0.1061301,0.053436 -0.00744,0.1217155 C 9.8180027,9.675612 9.7084221,9.9665171 9.4951334,10.231523 c -0.1767061,0.219555 -0.4142561,0.378123 -0.6857645,0.45792 -0.09041,0.02657 -0.1345543,0.03193 -0.2953826,0.03599 -0.2143925,0.0055 -0.304965,-0.0069 -0.4738742,-0.06605 C 7.842035,10.590195 7.6857355,10.489535 7.525798,10.328749 7.2650436,10.066613 7.1170955,9.7229569 7.0927427,9.3219972 L 7.0849496,9.1913727 6.9713975,9.1342254 C 6.569855,8.9322526 6.2457166,8.6238817 6.0822794,8.2881534 5.9912435,8.1011506 5.9632447,7.9821168 5.9561109,7.751566 5.9494956,7.5378711 5.9607949,7.435142 6.0084334,7.2825151 6.1093245,6.9592623 6.3428848,6.7397282 6.6804667,6.6498163 6.7483076,6.6317482 6.8522061,6.6202179 6.9613768,6.6167902 Z M 7.4077914,7.7615817 C 7.3682685,7.7612403 7.3260695,7.7695712 7.2738299,7.7856994 7.1768157,7.8156633 7.08569,7.8923769 7.08569,7.9437807 c 0,0.059349 0.053086,0.096482 0.2278465,0.1591955 0.2357902,0.084615 0.338873,0.1435905 0.4812959,0.2760866 0.040549,0.037724 0.078365,0.068651 0.084237,0.068651 0.027455,0 0.040515,-0.03753 0.033397,-0.097596 C 7.8820567,8.0934634 7.7633765,7.908458 7.5632761,7.8061083 7.5053659,7.7764874 7.458607,7.7619953 7.4077914,7.7615778 Z m 2.1140674,0 c -0.1232001,0 -0.3156949,0.1286958 -0.3981735,0.2660675 -0.068846,0.1146657 -0.1277773,0.3635767 -0.095368,0.4026264 0.00806,0.00971 0.01955,0.017438 0.025231,0.017438 0.00569,0 0.047102,-0.033729 0.092029,-0.074959 C 9.2883019,8.2417781 9.3899164,8.1835448 9.6138866,8.1048328 9.8185689,8.0328988 9.84433,8.014483 9.84433,7.9393292 9.84433,7.8605077 9.6651812,7.7615798 9.5218584,7.7615798 Z M 8.1477336,8.9342079 c -0.016907,6.303e-4 -0.026893,0.01509 -0.048612,0.064197 -0.062876,0.1421707 -0.091155,0.2632099 -0.092028,0.3955758 -6.041e-4,0.091812 0.00463,0.1361631 0.019297,0.1695856 0.025892,0.059006 0.058736,0.055373 0.1102116,-0.012243 0.071171,-0.093494 0.092332,-0.1689728 0.092028,-0.3287812 C 8.2282625,9.05162 8.2000627,8.9414315 8.1551562,8.9349524 c -0.00276,-3.939e-4 -0.00501,-8.142e-4 -0.00741,-6.829e-4 z m 0.6349252,4.201e-4 c -0.00187,-1.15e-4 -0.00403,9.28e-5 -0.00594,3.941e-4 -0.05489,0.00794 -0.09811,0.2709114 -0.06828,0.4145013 0.01848,0.088967 0.075602,0.2013472 0.122087,0.2404625 l 0.037108,0.03154 0.020414,-0.025234 C 8.9496013,9.5202791 8.9454723,9.3220704 8.8784008,9.1161121 8.8352959,8.9837518 8.8109158,8.9363777 8.7826604,8.9346517 Z" />
</svg>
