<?xml version="1.0" encoding="UTF-8" standalone="no"?>
<svg
   width="64"
   height="64"
   version="1.1"
   viewBox="0 0 16.933 16.933"
   id="svg7"
   sodipodi:docname="abcd.svg"
   inkscape:version="1.4.3 (0d15f75042, 2025-12-25)"
   xmlns:inkscape="http://www.inkscape.org/namespaces/inkscape"
   xmlns:sodipodi="http://sodipodi.sourceforge.net/DTD/sodipodi-0.dtd"
   xmlns="http://www.w3.org/2000/svg"
   xmlns:svg="http://www.w3.org/2000/svg"
   xmlns:rdf="http://www.w3.org/1999/02/22-rdf-syntax-ns#"
   xmlns:cc="http://creativecommons.org/ns#"
   xmlns:dc="http://purl.org/dc/elements/1.1/">
  <sodipodi:namedview
     id="namedview7"
     pagecolor="#9c4444"
     bordercolor="#000000"
     borderopacity="0.25"
     inkscape:showpageshadow="2"
     inkscape:pageopacity="0.0"
     inkscape:pagecheckerboard="0"
     inkscape:deskcolor="#d1d1d1"
     inkscape:zoom="4.3531261"
     inkscape:cx="40.890155"
     inkscape:cy="24.120597"
     inkscape:window-width="1226"
     inkscape:window-height="669"
     inkscape:window-x="94"
     inkscape:window-y="173"
     inkscape:window-maximized="0"
     inkscape:current-layer="svg7"
     showgrid="false" />
  <defs
     id="defs2">
    <filter
       style="color-interpolation-filters:sRGB;"
       inkscape:label="Blur"
       id="filter5421"
       x="-0.12256455"
       y="-0.12342654"
       width="1.2451291"
       height="1.2468531">
      <feGaussianBlur
         stdDeviation="0.5 0.5"
         result="blur"
         id="feGaussianBlur5419" />
    </filter>
  </defs>
  <metadata
     id="metadata2">
    <rdf:RDF>
      <cc:Work
         rdf:about="">
        <dc:format>image/svg+xml</dc:format>
        <dc:type
           rdf:resource="http://purl.org/dc/dcmitype/StillImage" />
      </cc:Work>
    </rdf:RDF>
  </metadata>
  <rect
     style="opacity:0.3;fill:none;fill-opacity:0.996424;stroke:#000000;stroke-width:0.955221;stroke-dasharray:none;stroke-opacity:1;filter:url(#filter5421)"
     id="rect1-2-7"
     width="13.687567"
     height="13.591975"
     x="1.6227165"
     y="1.6705122"
     rx="2.8442214"
     ry="2.965905" />
  <rect
     style="fill:none;fill-opacity:1;stroke:{{colors.primary.default.hex}};stroke-width:0.955221;stroke-dasharray:none;stroke-opacity:1"
     id="rect1-2"
     width="13.687567"
     height="13.591975"
     x="1.6227167"
     y="1.6705124"
     rx="2.8442214"
     ry="2.965905" />
  <path
     id="path21"
     style="fill:{{colors.primary.default.hex}};fill-opacity:1;stroke:none;stroke-width:0.130312;stroke-dasharray:none;stroke-opacity:0.6"
     d="M 8.1642848,4.6378564 C 7.9916757,4.6354399 7.8148516,4.6924882 7.6662264,4.8233129 7.3789895,5.0761489 7.3210488,5.4753589 7.5249549,5.796886 7.6142938,5.9377599 7.7457659,6.0397174 7.9172093,6.1010717 8.1917538,6.1993206 8.5182819,6.1089282 8.7212561,5.8783428 8.8475143,5.7349063 8.9052328,5.5748154 8.9049095,5.3694642 8.9042529,4.9372176 8.5440249,4.6432617 8.1642848,4.6378564 Z m 1.0261738,0.044788 0.073641,0.1466816 c 0.040628,0.080548 0.081152,0.1843608 0.089874,0.2308446 l 0.015932,0.084463 0.2212264,0.017735 c 0.833002,0.066341 1.498964,0.4278201 1.856972,1.0078386 l 0.09437,0.1526937 0.220627,-0.015026 c 0.121448,-0.00819 0.224606,-0.017985 0.22904,-0.021643 C 12.005311,6.2753581 11.842821,5.964307 11.759198,5.8401716 11.384238,5.2835542 10.779906,4.8985491 10.054319,4.7541828 9.9492761,4.7332828 9.7118908,4.7086996 9.5268038,4.699478 Z M 6.8997519,5.4770707 6.6953586,5.6231521 C 6.2532542,5.9392607 5.805082,6.3555938 5.5044677,6.7292799 5.3560855,6.9137304 5.3396883,6.9627127 5.4257164,6.9658348 c 0.023763,8.668e-4 0.1007682,0.028822 0.1710287,0.061919 0.070261,0.0331 0.1333449,0.060788 0.1403705,0.061618 0.00702,8.142e-4 0.047414,-0.044931 0.089573,-0.1018961 C 6.0115673,6.7376545 6.7390709,6.0817191 6.9827121,5.9453711 7.0198533,5.924587 7.0199331,5.9108091 6.9833163,5.7857641 6.9612421,5.710393 6.9333662,5.6098886 6.9213972,5.5627349 Z m 4.9357971,1.3123246 c -0.06658,0.00142 -0.134284,0.011662 -0.201689,0.03126 -0.168248,0.048912 -0.377847,0.2235002 -0.460186,0.3835381 -0.07461,0.1450313 -0.09255,0.4512765 -0.03457,0.5906358 0.0951,0.2285821 0.253575,0.3853318 0.466797,0.4613879 0.132127,0.047128 0.356624,0.045309 0.501065,-0.00391 0.163999,-0.055884 0.354561,-0.2336518 0.428323,-0.3994711 0.08883,-0.1997057 0.08529,-0.4448864 -0.0094,-0.6375258 C 12.391643,6.9417736 12.12402,6.7831819 11.835545,6.7893962 Z M 5.0728371,7.4121934 C 4.8447946,7.4129288 4.6785876,7.4860435 4.5296928,7.6508525 4.389035,7.8065439 4.3501844,7.9008574 4.3373222,8.1176509 4.3273282,8.286065 4.3344532,8.3317466 4.388722,8.4497899 4.4782044,8.6444546 4.5669125,8.738521 4.7458092,8.8279172 5.248899,9.0793135 5.8240528,8.7194019 5.8248839,8.1525177 5.8253042,7.8509142 5.6793669,7.615215 5.4097856,7.4828294 5.2894829,7.423753 5.2316421,7.4116549 5.0728371,7.4121934 Z M 11.523849,8.7482643 11.421652,8.9595706 C 11.288108,9.2362933 11.10992,9.5305281 10.933813,9.7645193 l -0.141871,0.1884619 0.13616,0.1535948 0.136162,0.153596 0.07213,-0.08295 C 11.293991,9.9960468 11.62572,9.4688333 11.765805,9.1765972 11.971161,8.7481962 11.966648,8.7783691 11.823515,8.77803 11.757195,8.7778769 11.662667,8.77115 11.61341,8.763006 Z M 4.4398198,9.2439175 c -0.027956,-0.00147 -0.031078,0.040456 -0.030961,0.2404626 2.627e-4,0.4908368 0.094929,0.9136639 0.2981737,1.3315619 0.1012341,0.208151 0.1614103,0.287518 0.1614103,0.21251 0,-0.01318 0.052569,-0.100772 0.1169251,-0.194776 L 5.1025942,10.662647 5.0358662,10.513859 C 4.9991772,10.432106 4.9519023,10.309971 4.9309647,10.242441 4.8814281,10.082665 4.8178386,9.6693339 4.8176463,9.5066229 L 4.8173837,9.3788769 4.6577768,9.3199633 C 4.569955,9.2876206 4.4779795,9.2545539 4.453388,9.2466233 c -0.00508,-0.00165 -0.00954,-0.00249 -0.013527,-0.0027 z m 5.4807439,0.9405085 c -0.096516,2.63e-4 -0.1398565,0.01504 -0.2332492,0.06072 -0.4692201,0.22957 -0.5819477,0.829487 -0.2251331,1.199006 0.102654,0.106309 0.191565,0.160319 0.3501735,0.212812 0.2220051,0.07346 0.5268451,-0.01183 0.7201861,-0.201088 0.35507,-0.347569 0.273816,-0.93096 -0.165619,-1.188488 -0.09291,-0.05445 -0.157079,-0.07007 -0.328232,-0.07904 -0.047785,-0.0026 -0.085965,-0.004 -0.1181263,-0.004 z m -3.98687,0.614083 c -0.089431,2.62e-4 -0.1371547,0.01429 -0.2257342,0.05499 -0.2826391,0.129918 -0.4289661,0.335916 -0.4502664,0.633618 -0.026286,0.367387 0.1780946,0.663789 0.5389365,0.781804 0.061288,0.02004 0.1696712,0.03057 0.2548905,0.02465 0.6227701,-0.04326 0.9268205,-0.778738 0.5124862,-1.239579 -0.1607079,-0.178745 -0.28246,-0.23746 -0.5239083,-0.251886 -0.042127,-0.0026 -0.076596,-0.0037 -0.1064043,-0.0036 z m 2.9219208,0.616486 -0.1884627,0.07304 C 8.2484411,11.650617 7.7037343,11.767569 7.3656481,11.767569 H 7.2249778 l -0.030058,0.121434 c -0.01666,0.06675 -0.058562,0.171829 -0.092879,0.233548 l -0.062218,0.112417 0.3387506,-0.01442 c 0.5122294,-0.02163 0.9041191,-0.109385 1.4698279,-0.329435 l 0.2627051,-0.102195 -0.077249,-0.08807 C 8.9914014,11.652498 8.9339014,11.56836 8.9061125,11.513889 Z" />
</svg>
