<?xml version="1.0" encoding="UTF-8" standalone="no"?>
<svg
   width="64"
   height="64"
   version="1.1"
   viewBox="0 0 16.933 16.933"
   id="svg7"
   sodipodi:docname="abcd.svg"
   inkscape:version="1.4.3 (0d15f75042, 2025-12-25)"
   xmlns:inkscape="http://www.inkscape.org/namespaces/inkscape"
   xmlns:sodipodi="http://sodipodi.sourceforge.net/DTD/sodipodi-0.dtd"
   xmlns="http://www.w3.org/2000/svg"
   xmlns:svg="http://www.w3.org/2000/svg"
   xmlns:rdf="http://www.w3.org/1999/02/22-rdf-syntax-ns#"
   xmlns:cc="http://creativecommons.org/ns#"
   xmlns:dc="http://purl.org/dc/elements/1.1/">
  <sodipodi:namedview
     id="namedview7"
     pagecolor="#9c4444"
     bordercolor="#000000"
     borderopacity="0.25"
     inkscape:showpageshadow="2"
     inkscape:pageopacity="0.0"
     inkscape:pagecheckerboard="0"
     inkscape:deskcolor="#d1d1d1"
     inkscape:zoom="4.3531261"
     inkscape:cx="33.768836"
     inkscape:cy="30.552756"
     inkscape:window-width="1226"
     inkscape:window-height="669"
     inkscape:window-x="100"
     inkscape:window-y="206"
     inkscape:window-maximized="0"
     inkscape:current-layer="svg7"
     showgrid="false" />
  <defs
     id="defs2">
    <filter
       style="color-interpolation-filters:sRGB;"
       inkscape:label="Blur"
       id="filter5421"
       x="-0.12256455"
       y="-0.12342654"
       width="1.2451291"
       height="1.2468531">
      <feGaussianBlur
         stdDeviation="0.5 0.5"
         result="blur"
         id="feGaussianBlur5419" />
    </filter>
  </defs>
  <metadata
     id="metadata2">
    <rdf:RDF>
      <cc:Work
         rdf:about="">
        <dc:format>image/svg+xml</dc:format>
        <dc:type
           rdf:resource="http://purl.org/dc/dcmitype/StillImage" />
      </cc:Work>
    </rdf:RDF>
  </metadata>
  <rect
     style="opacity:0.3;fill:none;fill-opacity:0.996424;stroke:#000000;stroke-width:0.955221;stroke-dasharray:none;stroke-opacity:1;filter:url(#filter5421)"
     id="rect1-2-7"
     width="13.687567"
     height="13.591975"
     x="1.6227165"
     y="1.6705122"
     rx="2.8442214"
     ry="2.965905" />
  <rect
     style="fill:none;fill-opacity:1;stroke:{{colors.primary.default.hex}};stroke-width:0.955221;stroke-dasharray:none;stroke-opacity:1"
     id="rect1-2"
     width="13.687567"
     height="13.591975"
     x="1.6227167"
     y="1.6705124"
     rx="2.8442214"
     ry="2.965905" />
  <path
     style="fill:{{colors.primary.default.hex}};stroke:none;stroke-width:0.115845;stroke-dasharray:none;stroke-opacity:0.6;fill-opacity:1"
     d="M 11.040855,6.7381011 C 10.880934,6.7306285 10.430336,6.7840438 9.7260746,7.2739833 9.3320878,7.1551817 8.8823444,7.1112056 8.4134933,7.112339 7.9845862,7.1133633 7.5398176,7.1485162 7.10751,7.2739833 6.4030217,6.7840697 6.0429756,6.7309239 5.8828988,6.7384675 c -0.053372,0.00252 -0.079173,0.010627 -0.079173,0.010627 -0.2678211,0.6947676 -0.098375,1.2087583 -0.04765,1.3364067 -0.3146209,0.3526611 -0.4992278,0.8030212 -0.4992278,1.354 0,1.9343588 1.2533665,2.3676548 2.3454915,2.4950408 -0.1404017,0.126129 -0.2287524,0.38691 -0.2734389,0.712922 -0.2801998,0.129223 -1.0318404,0.44549 -1.47056,-0.325856 0,0 -0.2595545,-0.484868 -0.7532406,-0.520487 0,0 -0.4799391,-0.0062 -0.033355,0.306795 0,0 0.3223941,0.155343 0.5461452,0.738578 0,0 0.3322813,0.887751 1.7003805,0.582798 0.00136,0.236847 -0.026817,1.366762 0.00116,1.366812 l 2.4368393,0.0044 c 0.0054,10e-6 0.00687,-1.534069 0.00687,-1.934805 0,-0.470736 -0.194607,-0.778805 -0.3709399,-0.934677 1.0954289,-0.124887 2.2454269,-0.552062 2.2454269,-2.4913757 0,-0.5509794 -0.153228,-1.0017096 -0.46844,-1.3543664 0.05043,-0.1276787 0.219674,-0.6412729 -0.04875,-1.3360397 0,0 -0.02585,-0.00851 -0.07917,-0.010995 z"
     id="path5"
     sodipodi:nodetypes="ccccsccscccccccssscscccc" />
</svg>
