<?xml version="1.0" encoding="UTF-8" standalone="no"?>
<svg
   width="64"
   height="64"
   version="1.1"
   viewBox="0 0 16.933 16.933"
   id="svg7"
   sodipodi:docname="abcd.svg"
   inkscape:version="1.4.3 (0d15f75042, 2025-12-25)"
   xmlns:inkscape="http://www.inkscape.org/namespaces/inkscape"
   xmlns:sodipodi="http://sodipodi.sourceforge.net/DTD/sodipodi-0.dtd"
   xmlns="http://www.w3.org/2000/svg"
   xmlns:svg="http://www.w3.org/2000/svg"
   xmlns:rdf="http://www.w3.org/1999/02/22-rdf-syntax-ns#"
   xmlns:cc="http://creativecommons.org/ns#"
   xmlns:dc="http://purl.org/dc/elements/1.1/">
  <sodipodi:namedview
     id="namedview7"
     pagecolor="#9c4444"
     bordercolor="#000000"
     borderopacity="0.25"
     inkscape:showpageshadow="2"
     inkscape:pageopacity="0.0"
     inkscape:pagecheckerboard="0"
     inkscape:deskcolor="#d1d1d1"
     inkscape:zoom="4.3531261"
     inkscape:cx="40.890155"
     inkscape:cy="24.120597"
     inkscape:window-width="1226"
     inkscape:window-height="669"
     inkscape:window-x="94"
     inkscape:window-y="173"
     inkscape:window-maximized="0"
     inkscape:current-layer="svg7"
     showgrid="false" />
  <defs
     id="defs2">
    <filter
       style="color-interpolation-filters:sRGB;"
       inkscape:label="Blur"
       id="filter5421"
       x="-0.12256455"
       y="-0.12342654"
       width="1.2451291"
       height="1.2468531">
      <feGaussianBlur
         stdDeviation="0.5 0.5"
         result="blur"
         id="feGaussianBlur5419" />
    </filter>
  </defs>
  <metadata
     id="metadata2">
    <rdf:RDF>
      <cc:Work
         rdf:about="">
        <dc:format>image/svg+xml</dc:format>
        <dc:type
           rdf:resource="http://purl.org/dc/dcmitype/StillImage" />
      </cc:Work>
    </rdf:RDF>
  </metadata>
  <rect
     style="opacity:0.3;fill:none;fill-opacity:0.996424;stroke:#000000;stroke-width:0.955221;stroke-dasharray:none;stroke-opacity:1;filter:url(#filter5421)"
     id="rect1-2-7"
     width="13.687567"
     height="13.591975"
     x="1.6227165"
     y="1.6705122"
     rx="2.8442214"
     ry="2.965905" />
  <rect
     style="fill:none;fill-opacity:1;stroke:{{colors.primary.default.hex}};stroke-width:0.955221;stroke-dasharray:none;stroke-opacity:1"
     id="rect1-2"
     width="13.687567"
     height="13.591975"
     x="1.6227167"
     y="1.6705124"
     rx="2.8442214"
     ry="2.965905" />
  <path
     style="fill:{{colors.primary.default.hex}};fill-opacity:1;stroke:none;stroke-width:0.124106;stroke-dasharray:none;stroke-dashoffset:2.2;stroke-opacity:0.6"
     d="M 5.5824363,11.425735 C 5.2192238,11.340446 4.7788408,10.960482 4.5913164,10.570601 4.4381325,10.25212 4.3944498,10.050957 4.3946208,9.6648012 4.3947419,9.3906429 4.4072368,9.2857683 4.4601831,9.1144192 4.6672408,8.4443429 5.1372576,7.9914829 5.7229935,7.8977053 c 0.1642644,-0.0263 0.2384056,-0.024286 0.4092589,0.011119 0.1147582,0.023778 0.2308794,0.052102 0.2580457,0.06294 0.044404,0.017716 0.049392,-0.00168 0.049392,-0.1925155 0,-0.6377896 0.2572053,-1.261858 0.7056341,-1.712107 0.378138,-0.3796715 0.7410479,-0.5549896 1.2119954,-0.5855004 1.1059941,-0.071655 2.0474674,0.9103512 2.1366074,2.2285999 0.01023,0.1513546 0.02146,0.2751906 0.02493,0.2751906 0.0035,0 0.06191,-0.020842 0.129825,-0.046314 0.185454,-0.069547 0.586373,-0.062318 0.798619,0.014399 0.490081,0.177141 0.888832,0.6432437 1.034192,1.2088733 0.07127,0.277348 0.07625,0.7207348 0.0111,0.9898538 -0.14416,0.595569 -0.5729,1.092405 -1.077048,1.248119 -0.178886,0.05526 -0.254847,0.05664 -2.9537164,0.05387 -1.5523113,-0.0016 -2.818156,-0.01413 -2.8794046,-0.0285 z"
     id="path99" />
</svg>
