<?xml version="1.0" encoding="UTF-8" standalone="no"?>
<svg
   width="64"
   height="64"
   version="1.1"
   viewBox="0 0 16.933 16.933"
   id="svg7"
   sodipodi:docname="abcd.svg"
   inkscape:version="1.4.3 (0d15f75042, 2025-12-25)"
   xmlns:inkscape="http://www.inkscape.org/namespaces/inkscape"
   xmlns:sodipodi="http://sodipodi.sourceforge.net/DTD/sodipodi-0.dtd"
   xmlns="http://www.w3.org/2000/svg"
   xmlns:svg="http://www.w3.org/2000/svg"
   xmlns:rdf="http://www.w3.org/1999/02/22-rdf-syntax-ns#"
   xmlns:cc="http://creativecommons.org/ns#"
   xmlns:dc="http://purl.org/dc/elements/1.1/">
  <sodipodi:namedview
     id="namedview7"
     pagecolor="#9c4444"
     bordercolor="#000000"
     borderopacity="0.25"
     inkscape:showpageshadow="2"
     inkscape:pageopacity="0.0"
     inkscape:pagecheckerboard="0"
     inkscape:deskcolor="#d1d1d1"
     inkscape:zoom="4.3531261"
     inkscape:cx="40.890155"
     inkscape:cy="24.120597"
     inkscape:window-width="1226"
     inkscape:window-height="669"
     inkscape:window-x="94"
     inkscape:window-y="173"
     inkscape:window-maximized="0"
     inkscape:current-layer="svg7"
     showgrid="false" />
  <defs
     id="defs2">
    <filter
       style="color-interpolation-filters:sRGB;"
       inkscape:label="Blur"
       id="filter5421"
       x="-0.12256455"
       y="-0.12342654"
       width="1.2451291"
       height="1.2468531">
      <feGaussianBlur
         stdDeviation="0.5 0.5"
         result="blur"
         id="feGaussianBlur5419" />
    </filter>
  </defs>
  <metadata
     id="metadata2">
    <rdf:RDF>
      <cc:Work
         rdf:about="">
        <dc:format>image/svg+xml</dc:format>
        <dc:type
           rdf:resource="http://purl.org/dc/dcmitype/StillImage" />
      </cc:Work>
    </rdf:RDF>
  </metadata>
  <rect
     style="opacity:0.3;fill:none;fill-opacity:0.996424;stroke:#000000;stroke-width:0.955221;stroke-dasharray:none;stroke-opacity:1;filter:url(#filter5421)"
     id="rect1-2-7"
     width="13.687567"
     height="13.591975"
     x="1.6227165"
     y="1.6705122"
     rx="2.8442214"
     ry="2.965905" />
  <rect
     style="fill:none;fill-opacity:1;stroke:{{colors.primary.default.hex}};stroke-width:0.955221;stroke-dasharray:none;stroke-opacity:1"
     id="rect1-2"
     width="13.687567"
     height="13.591975"
     x="1.6227167"
     y="1.6705124"
     rx="2.8442214"
     ry="2.965905" />
  <path
     id="path8"
     style="fill:{{colors.primary.default.hex}};fill-opacity:1;stroke:none;stroke-width:0.136828;stroke-dasharray:none;stroke-opacity:0.6"
     d="m 8.9079807,4.5592246 c -0.020763,5.516e-4 -0.034226,0.00321 -0.03866,0.00801 -0.025139,0.02716 -0.162848,0.3826338 -0.239031,0.6171483 l -0.065534,0.201318 -0.2512895,0.011313 C 8.0924974,5.4072611 7.8369416,5.4465375 7.7363965,5.4851789 7.7117275,5.4946609 7.679154,5.4603366 7.6124015,5.3555271 7.4535974,5.1061835 7.2059545,4.7641687 7.184314,4.7643124 7.1024161,4.764864 6.4049864,5.1007947 6.1956574,5.2404902 c -0.028816,0.01923 0.017081,0.3278456 0.099479,0.6694765 0.023061,0.095628 0.04196,0.1911059 0.04196,0.2116866 0,0.021105 -0.056872,0.081696 -0.1305952,0.1390822 -0.071894,0.05596 -0.232033,0.2032938 -0.3554824,0.3276659 L 5.6266015,6.8147033 5.5478672,6.7746285 C 5.4624154,6.7310754 5.1368779,6.5904987 4.9651395,6.5233392 L 4.8581172,6.4818504 4.7110213,6.7048519 C 4.5466303,6.9542402 4.3506568,7.3000764 4.2970774,7.4356186 l -0.03536,0.089107 0.1008927,0.1202223 C 4.4180027,7.7109721 4.5491189,7.859 4.653974,7.9740288 l 0.1904713,0.2093297 0.1107931,0.8990791 c 0.060867,0.4946275 0.1171694,0.9319684 0.1249379,0.9716854 0.013823,0.07066 0.017488,0.07301 0.1697267,0.104665 0.1904904,0.03963 0.1950472,0.0469 0.2305446,0.365384 l 0.02593,0.234788 0.2602471,0.04761 c 0.1429579,0.02613 0.2646002,0.04232 0.2706204,0.03632 0.00602,-0.0062 -0.0033,-0.121895 -0.020742,-0.257416 -0.032788,-0.254602 -0.026642,-0.302682 0.043846,-0.338512 0.021438,-0.01089 0.2420826,-0.0048 0.5426533,0.0151 0.3996495,0.02649 0.5134839,0.04058 0.5393533,0.06648 0.022013,0.02203 0.044032,0.123293 0.066946,0.307865 l 0.033945,0.274862 0.158883,0.007 c 0.087257,0.004 0.2686998,0.0085 0.4035717,0.01084 l 0.2451617,0.0042 -0.00943,-0.05751 c -0.056708,-0.333347 -0.064644,-0.554132 -0.021218,-0.590174 0.041289,-0.03427 1.4296885,-0.20836 1.4888781,-0.186701 0.056688,0.02073 0.060942,0.03473 0.1018365,0.353128 0.018437,0.143552 0.036012,0.264198 0.039603,0.267789 0.00611,0.0062 0.7463543,-0.184102 0.7614123,-0.195656 0.0039,-0.0029 -0.0095,-0.134102 -0.02923,-0.291365 -0.03493,-0.2780115 -0.03457,-0.2870764 0.0038,-0.322951 0.03976,-0.037192 0.936562,-0.3356826 1.008458,-0.3356821 0.07472,0 0.102976,0.066825 0.135311,0.3205941 0.01733,0.135994 0.03633,0.251791 0.04196,0.257419 0.0058,0.0058 0.116906,-0.03947 0.247519,-0.09994 0.130606,-0.060477 0.239284,-0.1104454 0.241384,-0.1112662 0.0022,-8.398e-4 -0.01014,-0.1089697 -0.02734,-0.2404467 -0.01716,-0.1314783 -0.02595,-0.2607204 -0.01933,-0.2871211 0.0079,-0.030729 0.04974,-0.067086 0.116453,-0.1008931 0.05731,-0.029044 0.103756,-0.064551 0.103254,-0.078733 -5.25e-4,-0.014183 -0.05561,-0.4585773 -0.122581,-0.9877138 L 11.989421,7.2838109 12.068148,7.1480297 C 12.111287,7.07326 12.203239,6.8981065 12.272761,6.759073 L 12.399162,6.5062874 12.258196,6.3408039 c -0.163598,-0.1917438 -0.66667,-0.6778777 -0.701543,-0.677878 -0.02024,0 -0.413106,0.2900191 -0.607714,0.4483608 l -0.0627,0.05092 -0.156991,-0.1037225 C 10.642969,6.0014526 10.453629,5.8962287 10.308697,5.8246344 L 10.045149,5.6945106 10.031476,5.4436927 C 10.023686,5.305656 10.011602,5.1008511 10.0046,4.9887297 L 9.9918741,4.7845867 9.8325197,4.7346111 C 9.5568731,4.6477796 9.0533364,4.5552926 8.9079807,4.5592246 Z m 1.5657273,3.0579062 c 0.111655,0.00118 0.220513,0.0209 0.304094,0.059404 0.163819,0.075467 0.267672,0.1611885 0.355011,0.2927783 0.300935,0.4534155 0.09048,1.0666774 -0.421488,1.2281593 C 10.250135,9.3429418 9.7924664,9.0858997 9.6712779,8.6128594 9.6305395,8.4538401 9.6430725,8.2894084 9.7089936,8.1126377 9.7705213,7.9476526 9.9817671,7.7377602 10.154054,7.6704059 c 0.0938,-0.036671 0.207998,-0.054427 0.319653,-0.053276 z m -0.08251,0.3460535 c -0.271682,2.625e-4 -0.5178761,0.221263 -0.5190828,0.524738 -8.141e-4,0.2122978 0.1411748,0.4144306 0.3436998,0.489378 0.109461,0.040508 0.293288,0.028466 0.399798,-0.026401 0.390459,-0.2011455 0.393114,-0.7394762 0.0048,-0.9330243 C 10.545163,7.980367 10.46738,7.963108 10.39131,7.963184 Z M 6.7029499,8.0994367 c 0.2104826,0 0.2403076,0.00545 0.3512402,0.059877 0.1547179,0.075928 0.3083153,0.2290534 0.3842415,0.3837706 0.05444,0.1109333 0.059404,0.1407576 0.059404,0.3512396 0,0.2104828 -0.00497,0.2403071 -0.059404,0.3512392 C 7.3625468,9.4001949 7.209149,9.5535082 7.0551331,9.6288614 6.8975358,9.7059673 6.597184,9.7227287 6.4313881,9.6632781 6.2027146,9.5812823 6.0266789,9.4074669 5.9382382,9.1767291 5.8724043,9.0049699 5.8862957,8.7099802 5.9684132,8.5421403 6.0437668,8.3881247 6.1970811,8.2351978 6.3517124,8.1593126 6.4626458,8.1048746 6.492469,8.0994367 6.702952,8.0994367 Z M 6.771785,8.4101306 C 6.680662,8.4124676 6.5873466,8.4395331 6.5006927,8.4968798 6.3293824,8.6102486 6.2293657,8.840625 6.271091,9.0263329 6.3115981,9.206615 6.4243565,9.3440238 6.5916859,9.4167036 6.6900909,9.4594451 6.8940837,9.4560194 6.9962006,9.4096261 7.1838047,9.3244099 7.2979729,9.1455997 7.2984079,8.9362841 7.2990383,8.6215403 7.0451514,8.4030234 6.771785,8.4101315 Z m 5.835762,0.963198 c -0.02057,-0.01271 -0.35171,0.136436 -0.35171,0.1584114 0,0.00754 0.0143,0.1207303 0.03159,0.2517617 0.01727,0.1310325 0.02615,0.2548343 0.01979,0.2748633 -0.01131,0.03565 -0.08016,0.07185 -0.580371,0.304565 -0.264039,0.12285 -0.335012,0.130808 -0.368208,0.04196 -0.0095,-0.02557 -0.0294,-0.157146 -0.04431,-0.292308 -0.0162,-0.1467111 -0.03639,-0.2457259 -0.04997,-0.245633 -0.01252,8.58e-5 -0.164077,0.045233 -0.336625,0.100421 -0.265194,0.084826 -0.313157,0.107054 -0.311635,0.141441 0.001,0.02237 0.01415,0.155817 0.0297,0.297021 0.02446,0.221874 0.02461,0.261075 -0.0014,0.286648 -0.03242,0.03188 -1.0296536,0.303622 -1.1140681,0.303622 -0.028037,0 -0.062679,-0.01356 -0.076848,-0.03064 -0.01414,-0.01707 -0.041626,-0.158247 -0.061259,-0.313521 -0.019631,-0.155273 -0.041582,-0.288629 -0.049031,-0.296078 -0.01288,-0.0129 -1.0835663,0.11281 -1.100393,0.12918 -0.00442,0.0043 0.00713,0.129363 0.025927,0.277692 0.041807,0.329948 0.041908,0.327717 0.00147,0.368212 -0.028243,0.02825 -0.1115667,0.03255 -0.5935721,0.03255 -0.5074301,0 -0.5654867,-0.0033 -0.6072432,-0.03724 -0.039531,-0.03201 -0.050792,-0.07754 -0.08062,-0.31871 l -0.03487,-0.281939 -0.3451111,-0.02263 c -0.1896932,-0.01256 -0.3482461,-0.02005 -0.3526776,-0.01651 -0.00443,0.0035 0.00684,0.126498 0.025465,0.272975 0.030178,0.237606 0.030446,0.271599 0.00237,0.314467 -0.019968,0.0305 -0.05188,0.04809 -0.087692,0.04809 -0.10717,0 -0.8527439,-0.150421 -0.8811631,-0.177744 -0.016831,-0.01617 -0.041416,-0.133971 -0.060345,-0.287592 L 5.2226368,10.39689 5.0321655,10.36058 C 4.9274298,10.34071 4.8204308,10.31924 4.7945484,10.31297 c -0.045383,-0.01105 -0.046675,-0.0064 -0.046675,0.133896 0,0.508656 0.3319782,1.010137 0.8957791,1.352627 0.4351033,0.264309 1.0760172,0.464858 1.7392245,0.544068 0.2912022,0.03477 1.0848862,0.04118 1.3832715,0.0113 1.3447685,-0.134592 2.5407345,-0.608256 3.2625215,-1.292281 0.41281,-0.391209 0.620044,-0.782852 0.640718,-1.2116572 0.01014,-0.2112309 -0.02109,-0.4524536 -0.06177,-0.4775925 z" />
</svg>
