<?xml version="1.0" encoding="UTF-8" standalone="no"?>
<svg
   width="64"
   height="64"
   version="1.1"
   viewBox="0 0 16.933 16.933"
   id="svg7"
   sodipodi:docname="abcd.svg"
   inkscape:version="1.4.3 (0d15f75042, 2025-12-25)"
   xmlns:inkscape="http://www.inkscape.org/namespaces/inkscape"
   xmlns:sodipodi="http://sodipodi.sourceforge.net/DTD/sodipodi-0.dtd"
   xmlns="http://www.w3.org/2000/svg"
   xmlns:svg="http://www.w3.org/2000/svg"
   xmlns:rdf="http://www.w3.org/1999/02/22-rdf-syntax-ns#"
   xmlns:cc="http://creativecommons.org/ns#"
   xmlns:dc="http://purl.org/dc/elements/1.1/">
  <sodipodi:namedview
     id="namedview7"
     pagecolor="#9c4444"
     bordercolor="#000000"
     borderopacity="0.25"
     inkscape:showpageshadow="2"
     inkscape:pageopacity="0.0"
     inkscape:pagecheckerboard="0"
     inkscape:deskcolor="#d1d1d1"
     inkscape:zoom="4.3531261"
     inkscape:cx="43.417074"
     inkscape:cy="20.674797"
     inkscape:window-width="1226"
     inkscape:window-height="669"
     inkscape:window-x="474"
     inkscape:window-y="225"
     inkscape:window-maximized="0"
     inkscape:current-layer="svg7"
     showgrid="false" />
  <defs
     id="defs2">
    <filter
       style="color-interpolation-filters:sRGB;"
       inkscape:label="Blur"
       id="filter5421"
       x="-0.12256455"
       y="-0.12342654"
       width="1.2451291"
       height="1.2468531">
      <feGaussianBlur
         stdDeviation="0.5 0.5"
         result="blur"
         id="feGaussianBlur5419" />
    </filter>
  </defs>
  <metadata
     id="metadata2">
    <rdf:RDF>
      <cc:Work
         rdf:about="">
        <dc:format>image/svg+xml</dc:format>
        <dc:type
           rdf:resource="http://purl.org/dc/dcmitype/StillImage" />
      </cc:Work>
    </rdf:RDF>
  </metadata>
  <rect
     style="opacity:0.3;fill:none;fill-opacity:0.996424;stroke:#000000;stroke-width:0.955221;stroke-dasharray:none;stroke-opacity:1;filter:url(#filter5421)"
     id="rect1-2-7"
     width="13.687567"
     height="13.591975"
     x="1.6227165"
     y="1.6705122"
     rx="2.8442214"
     ry="2.965905" />
  <rect
     style="fill:none;fill-opacity:1;stroke:{{colors.primary.default.hex}};stroke-width:0.955221;stroke-dasharray:none;stroke-opacity:1"
     id="rect1-2"
     width="13.687567"
     height="13.591975"
     x="1.6227167"
     y="1.6705124"
     rx="2.8442214"
     ry="2.965905" />
  <path
     style="fill:{{colors.primary.default.hex}};fill-opacity:1;stroke:none;stroke-width:0.133467;stroke-dasharray:none;stroke-opacity:0.6"
     d="M 8.0543883,12.422447 C 7.5394316,12.366934 6.9645851,12.182032 6.5149683,11.927282 5.4464456,11.321869 4.7216289,10.265745 4.5283096,9.0325382 4.4940786,8.8141729 4.4844396,7.9543125 4.5155264,7.8916671 4.5261139,7.870325 4.5536394,7.7620577 4.5766917,7.6510752 4.7352526,6.8876831 5.110737,6.201124 5.6737416,5.6451615 6.3013434,5.02541 7.0341835,4.6613023 7.9224557,4.5279009 c 0.2517018,-0.037801 0.8370054,-0.037354 1.0943054,8.484e-4 0.8735546,0.1296629 1.6416699,0.5139901 2.2569449,1.1292641 0.779529,0.7795309 1.191466,1.8143743 1.161008,2.9166329 -0.02915,1.0544302 -0.444958,1.9975607 -1.208267,2.7404857 -0.608534,0.592283 -1.3250785,0.946657 -2.1969106,1.086501 -0.1850667,0.02968 -0.7758788,0.0423 -0.9751436,0.02081 z M 10.476577,11.49901 c 0.08496,-0.05633 0.203368,-0.141647 0.263126,-0.189573 0.114069,-0.09148 0.442381,-0.404226 0.442381,-0.421403 0,-0.0056 -0.06042,-10e-4 -0.134285,0.0096 -0.405179,0.05917 -0.955855,0.06517 -1.2601046,0.01374 C 9.1930539,10.810841 8.628205,10.607399 7.5887266,10.119371 6.8274045,9.7619346 6.176528,9.5375529 5.6019031,9.434436 5.4421432,9.4057631 4.9876834,9.3932815 4.9640302,9.4169042 4.9389274,9.4419728 5.08078,9.8312466 5.2066738,10.082772 c 0.1898095,0.379224 0.3819572,0.644532 0.6898349,0.952488 0.1196922,0.11972 0.2799516,0.264138 0.356132,0.320923 l 0.1385111,0.10325 0.085459,-0.07617 c 0.1727732,-0.153988 0.4518976,-0.264048 0.6697364,-0.264075 0.1369987,-1.6e-5 0.4104571,0.04484 0.6286432,0.103129 0.421404,0.112576 0.5800431,0.151281 0.8247981,0.201235 0.3030991,0.06186 0.7147417,0.122113 0.9990442,0.146236 0.1067146,0.0091 0.218473,0.01876 0.2483526,0.02157 0.029888,0.0028 0.14896,0.0064 0.2646247,0.0075 l 0.210291,0.0026 z m 1.440842,-1.8805147 c 0.05366,-0.1629676 0.111023,-0.3775133 0.121103,-0.452853 0.0045,-0.032871 -0.0038,-0.039994 -0.06482,-0.056231 C 11.52125,8.9889833 10.431835,8.2756034 9.2728697,7.3408263 8.8119935,6.9691007 8.3877029,6.696281 7.8370792,6.4176109 7.1378874,6.0637507 6.4257939,5.8272329 6.059607,5.8272329 H 5.9541856 L 5.8118498,5.9776306 C 5.4175375,6.3942767 5.125403,6.9093126 4.963764,7.4728149 4.941488,7.5504739 4.926481,7.6172309 4.930412,7.6211636 c 0.00394,0.00395 0.069316,-0.00832 0.1452953,-0.027238 0.1825979,-0.045451 0.5994598,-0.048779 0.8366366,-0.00666 0.3581645,0.063588 0.7186397,0.1714832 1.1331106,0.3391588 0.442916,0.1791828 0.6592519,0.2852475 1.5444447,0.7572057 0.4231964,0.2256357 1.2710572,0.6402737 1.5765548,0.7709965 0.341267,0.146029 0.666639,0.2598487 0.858567,0.3003367 0.105507,0.022256 0.208135,0.028444 0.485623,0.029301 l 0.351842,0.00111 z M 12.075506,8.0119628 C 12.06946,7.9500693 12.047051,7.8156093 12.025544,7.7131634 11.878052,7.0104157 11.494621,6.3245156 10.973648,5.8314672 10.317844,5.2108158 9.5189318,4.8755129 8.5821386,4.8277537 l -0.155221,-0.00789 0.093132,0.040961 c 0.736285,0.3238435 1.461512,0.8650231 2.1287704,1.5885302 0.383271,0.4155813 0.534537,0.5977427 1.030147,1.2405476 0.15518,0.2012682 0.366876,0.4346168 0.394286,0.4346168 0.0071,0 0.0082,-0.050641 0.0022,-0.1125344 z"
     id="path452" />
</svg>
