<?xml version="1.0" encoding="UTF-8" standalone="no"?>
<svg
   width="64"
   height="64"
   version="1.1"
   viewBox="0 0 16.933 16.933"
   id="svg7"
   sodipodi:docname="abcd.svg"
   inkscape:version="1.4.3 (0d15f75042, 2025-12-25)"
   xmlns:inkscape="http://www.inkscape.org/namespaces/inkscape"
   xmlns:sodipodi="http://sodipodi.sourceforge.net/DTD/sodipodi-0.dtd"
   xmlns="http://www.w3.org/2000/svg"
   xmlns:svg="http://www.w3.org/2000/svg"
   xmlns:rdf="http://www.w3.org/1999/02/22-rdf-syntax-ns#"
   xmlns:cc="http://creativecommons.org/ns#"
   xmlns:dc="http://purl.org/dc/elements/1.1/">
  <sodipodi:namedview
     id="namedview7"
     pagecolor="#9c4444"
     bordercolor="#000000"
     borderopacity="0.25"
     inkscape:showpageshadow="2"
     inkscape:pageopacity="0.0"
     inkscape:pagecheckerboard="0"
     inkscape:deskcolor="#d1d1d1"
     inkscape:zoom="4.3531261"
     inkscape:cx="33.768836"
     inkscape:cy="30.552756"
     inkscape:window-width="1226"
     inkscape:window-height="669"
     inkscape:window-x="100"
     inkscape:window-y="206"
     inkscape:window-maximized="0"
     inkscape:current-layer="svg7"
     showgrid="false" />
  <defs
     id="defs2">
    <filter
       style="color-interpolation-filters:sRGB;"
       inkscape:label="Blur"
       id="filter5421"
       x="-0.12256455"
       y="-0.12342654"
       width="1.2451291"
       height="1.2468531">
      <feGaussianBlur
         stdDeviation="0.5 0.5"
         result="blur"
         id="feGaussianBlur5419" />
    </filter>
  </defs>
  <metadata
     id="metadata2">
    <rdf:RDF>
      <cc:Work
         rdf:about="">
        <dc:format>image/svg+xml</dc:format>
        <dc:type
           rdf:resource="http://purl.org/dc/dcmitype/StillImage" />
      </cc:Work>
    </rdf:RDF>
  </metadata>
  <rect
     style="opacity:0.3;fill:none;fill-opacity:0.996424;stroke:#000000;stroke-width:0.955221;stroke-dasharray:none;stroke-opacity:1;filter:url(#filter5421)"
     id="rect1-2-7"
     width="13.687567"
     height="13.591975"
     x="1.6227165"
     y="1.6705122"
     rx="2.8442214"
     ry="2.965905" />
  <rect
     style="fill:none;fill-opacity:1;stroke:{{colors.primary.default.hex}};stroke-width:0.955221;stroke-dasharray:none;stroke-opacity:1"
     id="rect1-2"
     width="13.687567"
     height="13.591975"
     x="1.6227167"
     y="1.6705124"
     rx="2.8442214"
     ry="2.965905" />
  <path
     id="path3211"
     style="fill:{{colors.primary.default.hex}};fill-opacity:1;stroke:none;stroke-width:0.0230278;stroke-opacity:1"
     d="M 10.35668,5.0188765 C 10.08,5.0145373 9.8380677,5.1247744 9.6120205,5.3537041 9.5576984,5.4087185 9.4820424,5.5078762 9.4440683,5.5740515 9.3769823,5.690956 9.3005693,5.7636069 9.0295704,5.9680935 8.7771264,6.1585789 8.4064988,6.5793483 7.8897924,7.2614688 7.5627208,7.6932455 7.279925,8.0931201 7.1002736,8.3782792 6.7911961,8.8688747 6.5260395,9.1684708 6.186585,9.4103956 6.0835688,9.4838135 5.9239908,9.6136037 5.8320193,9.6985701 l -0.1672346,0.1543152 0.0384,0.074284 c 0.038334,0.074128 0.038246,0.074423 -0.036964,0.1428317 -0.056391,0.0513 -0.065436,0.06876 -0.035887,0.06926 0.02172,3.41e-4 0.050682,0.02133 0.064238,0.04665 0.013553,0.02534 0.029153,0.04629 0.034811,0.04629 0.00566,0 0.1310779,-0.104237 0.2784852,-0.231474 0.1474069,-0.127236 0.271852,-0.227338 0.2766903,-0.2225003 0.00484,0.00484 -0.011959,0.069111 -0.037323,0.1428315 -0.025362,0.073716 -0.046294,0.1397398 -0.046294,0.1467778 0,0.007 0.051871,-0.03811 0.1151977,-0.1004833 L 6.4313355,9.8539656 v 0.088996 c 0,0.088511 8.668e-4,0.087495 0.1629283,-0.1579042 0.1824133,-0.276196 0.4422439,-0.5662999 0.5070867,-0.5662999 0.073858,0 0.587439,-0.1775295 0.7959783,-0.2752546 l 0.2002506,-0.094024 0.070698,0.063521 c 0.038924,0.034792 0.1405988,0.1305624 0.2260894,0.2128113 L 8.5497586,9.2751009 V 9.0536766 c 0,-0.2392439 0.00585,-0.2494063 0.1345771,-0.2490573 0.056838,1.502e-4 0.064006,0.011794 0.099049,0.157186 0.039267,0.1629198 0.1947757,0.5480961 0.2300371,0.569889 0.011058,0.00683 0.020096,-0.05957 0.020096,-0.1474964 0,-0.1463223 0.00425,-0.1609851 0.051677,-0.1736941 0.1082926,-0.029021 0.1498948,-0.016807 0.1661582,0.048806 0.01831,0.073871 0.1884365,0.4209285 0.2228596,0.4546913 0.015949,0.015644 0.018042,-0.1191375 0.00682,-0.4202396 -0.014451,-0.3876028 -0.011794,-0.4432071 0.018662,-0.4432071 0.019156,0 0.06443,-0.00601 0.100843,-0.01328 0.063821,-0.012744 0.067277,-0.00873 0.095101,0.1094562 0.015875,0.067429 0.06974,0.2075733 0.1195044,0.311501 0.090127,0.18822 0.273526,0.4790292 0.291045,0.4615093 0.0078,-0.00771 -0.1598933,-0.5256837 -0.2074279,-0.6409454 -0.011029,-0.026747 0.00962,-0.047294 0.078238,-0.078234 0.051319,-0.023137 0.095829,-0.038164 0.099048,-0.033016 0.213317,0.3411329 0.373394,0.5056881 0.670374,0.6893935 0.177161,0.1095885 0.545925,0.2613705 0.602905,0.247981 0.01624,-0.00379 -0.07461,-0.1476659 -0.211017,-0.3341103 -0.131794,-0.1801353 -0.239727,-0.3417384 -0.239727,-0.3588725 0,-0.017133 0.02561,-0.055129 0.05671,-0.084335 l 0.05634,-0.053113 0.151084,0.064238 c 0.08305,0.035295 0.156321,0.059004 0.16257,0.052754 C 11.34117,9.1755833 10.976648,8.7418008 10.612557,8.3431076 10.371706,8.0793684 10.276179,7.9546547 10.165043,7.758505 10.027985,7.5166062 10.000635,7.4455682 10.04482,7.4455682 c 0.04353,0 0.167477,-0.148168 0.233985,-0.2799203 0.07443,-0.1474486 0.158625,-0.4419716 0.217476,-0.7622444 0.03578,-0.1946839 0.04107,-0.2061095 0.151445,-0.3093467 0.141267,-0.132139 0.283654,-0.409323 0.333033,-0.6488415 0.01926,-0.093424 0.05062,-0.2000899 0.06962,-0.2368554 0.03401,-0.065756 0.03361,-0.066594 -0.02154,-0.052753 -0.03505,0.0088 -0.136939,-0.013532 -0.271666,-0.059932 -0.141931,-0.048882 -0.274738,-0.074827 -0.400502,-0.076799 z m -5.9802464,0.6305382 0.033733,0.052036 c 0.018528,0.028497 0.4922865,0.7536758 1.0525721,1.611695 L 6.4812194,8.8731641 6.5802681,8.7540182 C 6.6347332,8.6884314 6.7454965,8.532688 6.8260954,8.4080654 7.597601,7.2151503 8.5774413,5.997202 8.9606671,5.7552823 9.011163,5.723406 9.0594656,5.6866372 9.067611,5.6734598 9.0778282,5.6569224 8.3533372,5.6494163 6.7295587,5.6494163 Z m 7.4771034,0 c -0.648857,0 -0.703958,0.00335 -0.716669,0.040553 -0.0555,0.1624127 -0.189029,0.3930646 -0.292481,0.5056506 -0.116155,0.1264122 -0.124171,0.1438762 -0.16185,0.3405702 -0.08393,0.4381159 -0.179004,0.7074148 -0.317603,0.9004102 l -0.07537,0.1051491 0.08003,0.1521619 c 0.04408,0.083762 0.167456,0.2490107 0.274179,0.3671266 0.106722,0.1181155 0.201253,0.2068199 0.20994,0.1970209 0.01301,-0.014669 0.748054,-1.1406365 1.534179,-2.3495365 L 12.556572,5.649415 Z M 8.0706642,9.0978177 7.8492399,9.192919 C 7.7272776,9.245233 7.5214522,9.3192949 7.3920368,9.3576414 7.1888869,9.4178345 7.1436353,9.4405726 7.0615155,9.5245169 l -0.095101,0.097255 0.749684,1.1462391 0.7496841,1.146237 0.3359044,-0.512829 c 0.1847299,-0.282151 0.4396764,-0.671701 0.5663,-0.8656 L 9.598024,10.183406 9.4943099,10.075386 C 9.4372055,10.015979 9.3567541,9.9162922 9.3155916,9.853962 L 9.2405875,9.7405578 v 0.2343436 c 0,0.1288236 -0.00818,0.2339846 -0.018302,0.2339846 -0.024787,0 -0.2793832,-0.3694588 -0.3811221,-0.5530218 C 8.7591434,9.507879 8.7529913,9.5072118 8.7230941,9.6425841 L 8.7083799,9.7096932 8.5773916,9.5851645 C 8.5053102,9.5167678 8.3619611,9.3793088 8.2587139,9.2794068 Z m 1.6400457,0.4435664 c -0.00524,0 -0.00933,0.1033847 -0.00933,0.230037 0,0.1266523 0.00396,0.2303959 0.00897,0.2303959 0.00502,0 0.041921,-0.050863 0.081824,-0.1130447 L 9.8646657,9.7757272 9.7925322,9.6583763 C 9.7528655,9.5939064 9.7159573,9.5413841 9.7107114,9.5413841 Z" />
</svg>
