<?xml version="1.0" encoding="UTF-8" standalone="no"?>
<svg
   width="64"
   height="64"
   version="1.1"
   viewBox="0 0 16.933 16.933"
   id="svg7"
   sodipodi:docname="abcd.svg"
   inkscape:version="1.4.3 (0d15f75042, 2025-12-25)"
   xmlns:inkscape="http://www.inkscape.org/namespaces/inkscape"
   xmlns:sodipodi="http://sodipodi.sourceforge.net/DTD/sodipodi-0.dtd"
   xmlns="http://www.w3.org/2000/svg"
   xmlns:svg="http://www.w3.org/2000/svg"
   xmlns:rdf="http://www.w3.org/1999/02/22-rdf-syntax-ns#"
   xmlns:cc="http://creativecommons.org/ns#"
   xmlns:dc="http://purl.org/dc/elements/1.1/">
  <sodipodi:namedview
     id="namedview7"
     pagecolor="#9c4444"
     bordercolor="#000000"
     borderopacity="0.25"
     inkscape:showpageshadow="2"
     inkscape:pageopacity="0.0"
     inkscape:pagecheckerboard="0"
     inkscape:deskcolor="#d1d1d1"
     inkscape:zoom="4.3531261"
     inkscape:cx="41.809035"
     inkscape:cy="23.661157"
     inkscape:window-width="1226"
     inkscape:window-height="669"
     inkscape:window-x="106"
     inkscape:window-y="190"
     inkscape:window-maximized="0"
     inkscape:current-layer="svg7"
     showgrid="false" />
  <defs
     id="defs2">
    <filter
       style="color-interpolation-filters:sRGB;"
       inkscape:label="Blur"
       id="filter5421"
       x="-0.12256455"
       y="-0.12342654"
       width="1.2451291"
       height="1.2468531">
      <feGaussianBlur
         stdDeviation="0.5 0.5"
         result="blur"
         id="feGaussianBlur5419" />
    </filter>
  </defs>
  <metadata
     id="metadata2">
    <rdf:RDF>
      <cc:Work
         rdf:about="">
        <dc:format>image/svg+xml</dc:format>
        <dc:type
           rdf:resource="http://purl.org/dc/dcmitype/StillImage" />
      </cc:Work>
    </rdf:RDF>
  </metadata>
  <rect
     style="opacity:0.3;fill:none;fill-opacity:0.996424;stroke:#000000;stroke-width:0.955221;stroke-dasharray:none;stroke-opacity:1;filter:url(#filter5421)"
     id="rect1-2-7"
     width="13.687567"
     height="13.591975"
     x="1.6227165"
     y="1.6705122"
     rx="2.8442214"
     ry="2.965905" />
  <rect
     style="fill:none;fill-opacity:1;stroke:{{colors.primary.default.hex}};stroke-width:0.955221;stroke-dasharray:none;stroke-opacity:1"
     id="rect1-2"
     width="13.687567"
     height="13.591975"
     x="1.6227167"
     y="1.6705124"
     rx="2.8442214"
     ry="2.965905" />
  <path
     style="fill:{{colors.primary.default.hex}};fill-opacity:1;stroke:none;stroke-width:0.124106;stroke-dasharray:none;stroke-dashoffset:2.2;stroke-opacity:0.6"
     d="M 8.3351406,12.547634 C 7.9595367,12.407438 7.4215681,12.071816 7.0613397,11.752952 5.843922,10.67532 5.1589455,8.6240129 5.2164536,6.2280472 5.2320795,5.5768452 5.2563983,5.4473948 5.375003,5.3839194 5.5303102,5.3008018 8.3799502,4.3584041 8.4731697,4.3593323 c 0.058241,6.041e-4 0.7537442,0.221343 1.5994733,0.507697 1.762443,0.596742 1.604121,0.4991486 1.636111,1.0085295 0.03038,0.4838412 -0.0045,1.509679 -0.06698,1.9744016 -0.134603,0.9999163 -0.347776,1.7382828 -0.716048,2.4801826 -0.473945,0.954777 -1.136736,1.634173 -2.0153565,2.065851 -0.3871384,0.190207 -0.4368253,0.203304 -0.5752405,0.15164 z M 8.7838572,9.3399622 C 9.2809961,8.6582412 9.7088792,8.056152 9.7347094,8.0019862 9.8039721,7.8567396 9.7961477,7.6956469 9.7159344,7.6154327 9.6171409,7.51664 9.4748198,7.4900352 9.0442221,7.4898652 L 8.6531656,7.489711 8.8606932,6.9285517 c 0.2467611,-0.6672463 0.2648129,-0.7626042 0.1635379,-0.863879 -0.069731,-0.06973 -0.080151,-0.071385 -0.449491,-0.071385 -0.4239959,0 -0.5211373,0.027217 -0.6363878,0.1783213 -0.089411,0.1172233 -0.7338529,2.0099408 -0.7338529,2.1553157 0,0.083792 0.018872,0.1281129 0.081002,0.1902446 l 0.081002,0.081002 h 0.358605 0.3586025 L 7.9204644,9.559977 c -0.089785,0.528992 -0.156708,0.978842 -0.148718,0.999665 0.008,0.02083 0.03561,0.0338 0.061375,0.02882 0.025768,-0.0049 0.4535974,-0.566794 0.9507361,-1.2485152 z"
     id="path83" />
</svg>
