<?xml version="1.0" encoding="UTF-8" standalone="no"?>
<svg
   width="64"
   height="64"
   version="1.1"
   viewBox="0 0 16.933 16.933"
   id="svg7"
   sodipodi:docname="abcd.svg"
   inkscape:version="1.4.3 (0d15f75042, 2025-12-25)"
   xmlns:inkscape="http://www.inkscape.org/namespaces/inkscape"
   xmlns:sodipodi="http://sodipodi.sourceforge.net/DTD/sodipodi-0.dtd"
   xmlns="http://www.w3.org/2000/svg"
   xmlns:svg="http://www.w3.org/2000/svg"
   xmlns:rdf="http://www.w3.org/1999/02/22-rdf-syntax-ns#"
   xmlns:cc="http://creativecommons.org/ns#"
   xmlns:dc="http://purl.org/dc/elements/1.1/">
  <sodipodi:namedview
     id="namedview7"
     pagecolor="#9c4444"
     bordercolor="#000000"
     borderopacity="0.25"
     inkscape:showpageshadow="2"
     inkscape:pageopacity="0.0"
     inkscape:pagecheckerboard="0"
     inkscape:deskcolor="#d1d1d1"
     inkscape:zoom="4.3531261"
     inkscape:cx="39.282115"
     inkscape:cy="25.498917"
     inkscape:window-width="1226"
     inkscape:window-height="669"
     inkscape:window-x="94"
     inkscape:window-y="173"
     inkscape:window-maximized="0"
     inkscape:current-layer="svg7"
     showgrid="false" />
  <defs
     id="defs2">
    <filter
       style="color-interpolation-filters:sRGB;"
       inkscape:label="Blur"
       id="filter5421"
       x="-0.12256455"
       y="-0.12342654"
       width="1.2451291"
       height="1.2468531">
      <feGaussianBlur
         stdDeviation="0.5 0.5"
         result="blur"
         id="feGaussianBlur5419" />
    </filter>
  </defs>
  <metadata
     id="metadata2">
    <rdf:RDF>
      <cc:Work
         rdf:about="">
        <dc:format>image/svg+xml</dc:format>
        <dc:type
           rdf:resource="http://purl.org/dc/dcmitype/StillImage" />
      </cc:Work>
    </rdf:RDF>
  </metadata>
  <rect
     style="opacity:0.3;fill:none;fill-opacity:0.996424;stroke:#000000;stroke-width:0.955221;stroke-dasharray:none;stroke-opacity:1;filter:url(#filter5421)"
     id="rect1-2-7"
     width="13.687567"
     height="13.591975"
     x="1.6227165"
     y="1.6705122"
     rx="2.8442214"
     ry="2.965905" />
  <rect
     style="fill:none;fill-opacity:1;stroke:{{colors.primary.default.hex}};stroke-width:0.955221;stroke-dasharray:none;stroke-opacity:1"
     id="rect1-2"
     width="13.687567"
     height="13.591975"
     x="1.6227167"
     y="1.6705124"
     rx="2.8442214"
     ry="2.965905" />
  <path
     d="M 4.4809985,5.2163054 4.333386,5.3640417 v 0.2954638 l 0.1476125,0.147736 H 4.9238332 V 11.56904 l 0.1476149,0.147736 H 5.5142825 L 12.009345,5.6595818 V 5.3641186 L 11.861734,5.216382 H 9.2047231 L 9.057109,5.3641186 V 5.6595818 L 9.2047231,5.8073186 H 9.6475583 V 6.1027818 L 6.400027,9.0574165 V 5.80716 H 6.842862 L 6.9904769,5.6594235 V 5.3639603 L 6.842862,5.2162242 Z M 9.0259121,8.7619577 8.8165953,8.9096938 8.7173991,9.2051572 8.8281087,9.3528939 H 9.1475429 L 9.3568579,9.2051572 9.4554636,8.9096938 9.3453442,8.7619577 M 8.2600872,9.6483709 8.1712242,9.9438346 H 8.4369249 L 7.8759857,11.421197 h 0.8856701 l 0.10894,-0.295464 H 8.6140388 L 9.174978,9.6483709 m 0.3539729,0 -0.1033287,0.2954637 H 9.6470427 L 9.0861033,11.421197 H 9.8392278 L 9.9425587,11.125733 H 9.7798882 l 0.3102908,-0.886411 h 0.627348 l -0.420994,1.181897 h 0.738074 l 0.11809,-0.295463 h -0.162079 l 0.309702,-0.886413 h 0.590452 l -0.41332,1.181899 h 0.773791 L 12.38675,11.125779 H 12.180387 L 12.599615,9.9438802 12.363135,9.6484154 H 12.00916 L 11.713923,9.9438802 H 11.462978 L 11.211741,9.6484154 H 10.931577 L 10.651118,9.9438802 H 10.35588 L 10.090178,9.6484154"
     fill="url(#c)"
     id="path37"
     style="fill:{{colors.primary.default.hex}};fill-opacity:1;stroke:none;stroke-width:0.130312;stroke-dasharray:none;stroke-opacity:0.6" />
</svg>
