<?xml version="1.0" encoding="UTF-8" standalone="no"?>
<svg
   width="64"
   height="64"
   version="1.1"
   viewBox="0 0 16.933 16.933"
   id="svg7"
   sodipodi:docname="abcd.svg"
   inkscape:version="1.4.3 (0d15f75042, 2025-12-25)"
   xmlns:inkscape="http://www.inkscape.org/namespaces/inkscape"
   xmlns:sodipodi="http://sodipodi.sourceforge.net/DTD/sodipodi-0.dtd"
   xmlns="http://www.w3.org/2000/svg"
   xmlns:svg="http://www.w3.org/2000/svg"
   xmlns:rdf="http://www.w3.org/1999/02/22-rdf-syntax-ns#"
   xmlns:cc="http://creativecommons.org/ns#"
   xmlns:dc="http://purl.org/dc/elements/1.1/">
  <sodipodi:namedview
     id="namedview7"
     pagecolor="#9c4444"
     bordercolor="#000000"
     borderopacity="0.25"
     inkscape:showpageshadow="2"
     inkscape:pageopacity="0.0"
     inkscape:pagecheckerboard="0"
     inkscape:deskcolor="#d1d1d1"
     inkscape:zoom="4.3531261"
     inkscape:cx="38.822675"
     inkscape:cy="26.647517"
     inkscape:window-width="1226"
     inkscape:window-height="669"
     inkscape:window-x="100"
     inkscape:window-y="206"
     inkscape:window-maximized="0"
     inkscape:current-layer="svg7"
     showgrid="false" />
  <defs
     id="defs2">
    <filter
       style="color-interpolation-filters:sRGB;"
       inkscape:label="Blur"
       id="filter5421"
       x="-0.12256455"
       y="-0.12342654"
       width="1.2451291"
       height="1.2468531">
      <feGaussianBlur
         stdDeviation="0.5 0.5"
         result="blur"
         id="feGaussianBlur5419" />
    </filter>
  </defs>
  <metadata
     id="metadata2">
    <rdf:RDF>
      <cc:Work
         rdf:about="">
        <dc:format>image/svg+xml</dc:format>
        <dc:type
           rdf:resource="http://purl.org/dc/dcmitype/StillImage" />
      </cc:Work>
    </rdf:RDF>
  </metadata>
  <rect
     style="opacity:0.3;fill:none;fill-opacity:0.996424;stroke:#000000;stroke-width:0.955221;stroke-dasharray:none;stroke-opacity:1;filter:url(#filter5421)"
     id="rect1-2-7"
     width="13.687567"
     height="13.591975"
     x="1.6227165"
     y="1.6705122"
     rx="2.8442214"
     ry="2.965905" />
  <rect
     style="fill:none;fill-opacity:1;stroke:{{colors.primary.default.hex}};stroke-width:0.955221;stroke-dasharray:none;stroke-opacity:1"
     id="rect1-2"
     width="13.687567"
     height="13.591975"
     x="1.6227167"
     y="1.6705124"
     rx="2.8442214"
     ry="2.965905" />
  <path
     style="fill:{{colors.primary.default.hex}};fill-opacity:1;fill-rule:evenodd;stroke:none;stroke-width:0.115787;stroke-dasharray:none;stroke-opacity:0.6"
     d="m 8.4665006,6.0478146 v 7.858e-4 C 7.6696978,6.0559554 6.8677822,6.2270468 6.173713,6.5973337 5.8970818,6.7669577 5.564982,6.985962 5.3147211,7.2066908 4.9209546,7.5696331 4.583895,7.9927513 4.3561833,8.467131 c 0.6242254,1.2963013 1.9961734,2.246662 3.5058118,2.387043 0.9902575,0.105527 2.0268064,-0.05596 2.8972929,-0.517246 0.276621,-0.169622 0.608727,-0.3886267 0.858988,-0.6093579 0.393769,-0.3637308 0.730829,-0.7868497 0.95854,-1.2604556 C 11.95287,7.1708886 10.580314,6.2209278 9.0710046,6.0808589 8.870422,6.058414 8.6679038,6.0477931 8.4665006,6.0477931 Z m 0.0016,0.8061777 C 9.3476023,6.8348818 10.126383,7.6068094 10.109833,8.4647739 10.138082,9.4130184 9.1749425,10.231374 8.2225174,10.054298 7.2606364,9.9435322 6.5847486,8.8849288 6.9011151,7.9884666 7.1033863,7.3289364 7.7640916,6.8470503 8.4689767,6.8547802 Z m -0.0016,0.806177 A 0.82206291,0.80571341 0 0 0 7.6444369,8.4671352 0.82206291,0.80571341 0 0 0 8.4665006,9.2725253 0.82206291,0.80571341 0 0 0 9.288564,8.4671352 0.82206291,0.80571341 0 0 0 8.4665006,7.6625314 Z"
     id="path24" />
</svg>
