<?xml version="1.0" encoding="UTF-8" standalone="no"?>
<svg
   width="64"
   height="64"
   version="1.1"
   viewBox="0 0 16.933 16.933"
   id="svg7"
   sodipodi:docname="abcd.svg"
   inkscape:version="1.4.3 (0d15f75042, 2025-12-25)"
   xmlns:inkscape="http://www.inkscape.org/namespaces/inkscape"
   xmlns:sodipodi="http://sodipodi.sourceforge.net/DTD/sodipodi-0.dtd"
   xmlns="http://www.w3.org/2000/svg"
   xmlns:svg="http://www.w3.org/2000/svg"
   xmlns:rdf="http://www.w3.org/1999/02/22-rdf-syntax-ns#"
   xmlns:cc="http://creativecommons.org/ns#"
   xmlns:dc="http://purl.org/dc/elements/1.1/">
  <sodipodi:namedview
     id="namedview7"
     pagecolor="#9c4444"
     bordercolor="#000000"
     borderopacity="0.25"
     inkscape:showpageshadow="2"
     inkscape:pageopacity="0.0"
     inkscape:pagecheckerboard="0"
     inkscape:deskcolor="#d1d1d1"
     inkscape:zoom="4.3531261"
     inkscape:cx="39.282115"
     inkscape:cy="25.498917"
     inkscape:window-width="1226"
     inkscape:window-height="669"
     inkscape:window-x="94"
     inkscape:window-y="173"
     inkscape:window-maximized="0"
     inkscape:current-layer="svg7"
     showgrid="false" />
  <defs
     id="defs2">
    <filter
       style="color-interpolation-filters:sRGB;"
       inkscape:label="Blur"
       id="filter5421"
       x="-0.12256455"
       y="-0.12342654"
       width="1.2451291"
       height="1.2468531">
      <feGaussianBlur
         stdDeviation="0.5 0.5"
         result="blur"
         id="feGaussianBlur5419" />
    </filter>
  </defs>
  <metadata
     id="metadata2">
    <rdf:RDF>
      <cc:Work
         rdf:about="">
        <dc:format>image/svg+xml</dc:format>
        <dc:type
           rdf:resource="http://purl.org/dc/dcmitype/StillImage" />
      </cc:Work>
    </rdf:RDF>
  </metadata>
  <rect
     style="opacity:0.3;fill:none;fill-opacity:0.996424;stroke:#000000;stroke-width:0.955221;stroke-dasharray:none;stroke-opacity:1;filter:url(#filter5421)"
     id="rect1-2-7"
     width="13.687567"
     height="13.591975"
     x="1.6227165"
     y="1.6705122"
     rx="2.8442214"
     ry="2.965905" />
  <rect
     style="fill:none;fill-opacity:1;stroke:{{colors.primary.default.hex}};stroke-width:0.955221;stroke-dasharray:none;stroke-opacity:1"
     id="rect1-2"
     width="13.687567"
     height="13.591975"
     x="1.6227167"
     y="1.6705124"
     rx="2.8442214"
     ry="2.965905" />
  <path
     id="path11-6"
     style="fill:{{colors.primary.default.hex}};fill-opacity:1;stroke:none;stroke-width:0.130312;stroke-dasharray:none;stroke-opacity:0.6"
     d="M 8.2608822,4.4622779 C 7.7587226,4.4616738 7.6712952,4.4671976 7.4560837,4.5139473 6.6789216,4.6827675 6.024876,5.0209085 5.4972452,5.5265055 4.9444651,6.0562014 4.6118275,6.6430399 4.4519546,7.3706426 c -0.034019,0.154822 -0.042388,0.2897638 -0.041931,0.6654805 5.253e-4,0.4297271 0.006,0.4943648 0.061949,0.7301349 0.1716333,0.723094 0.5933168,1.416822 1.1424075,1.879036 l 0.1631235,0.137152 v 0.688476 c 0,0.653429 0.00213,0.686641 0.040308,0.653847 0.022132,-0.019 0.249182,-0.201521 0.5045206,-0.40551 l 0.4642128,-0.370885 0.099011,0.03545 c 0.1507876,0.05388 0.6124001,0.170429 0.6749483,0.170429 0.052569,0 0.049019,-0.009 -0.071146,-0.185579 C 7.2576236,11.028341 7.1075991,10.667898 7.0400235,10.289559 6.9992498,10.061304 6.9991109,9.5167513 7.0397609,9.3124389 7.2622801,8.1938138 8.1590573,7.3309636 9.3375615,7.1014749 c 0.2452732,-0.047762 0.8660815,-0.055676 1.0883035,-0.013798 0.59642,0.112402 1.157921,0.3870754 1.557386,0.7617858 l 0.146351,0.1374245 -0.01596,-0.188012 C 11.975,6.1826201 10.800347,4.9039455 9.1073401,4.5261198 8.8414368,4.4667786 8.7899794,4.4629098 8.2608813,4.4622766 Z m 1.6417891,2.8964622 c -0.2064109,1.526e-4 -0.4114587,0.014273 -0.5342785,0.04193 -1.0131419,0.228131 -1.7634434,0.9155148 -1.995629,1.8284475 -0.2789003,1.0966084 0.2753236,2.2680794 1.3174341,2.7844684 0.4239592,0.210078 0.7527086,0.286336 1.22627,0.284858 0.3304011,-0.0011 0.4763471,-0.02111 0.8056091,-0.111726 l 0.149869,-0.04139 0.287022,0.162583 0.286751,0.162852 0.0062,-0.318673 0.0065,-0.318943 0.146351,-0.116324 c 0.424156,-0.337511 0.715811,-0.792833 0.869724,-1.357471 0.0381,-0.139735 0.04748,-0.244161 0.04843,-0.5410417 C 12.52419,9.4160267 12.50177,9.2826712 12.377942,8.9621105 12.074389,8.1763485 11.353903,7.5940343 10.445351,7.3998564 10.316802,7.3723818 10.109097,7.3585889 9.9026858,7.3587375 Z" />
</svg>
