<?xml version="1.0" encoding="UTF-8" standalone="no"?>
<svg
   width="64"
   height="64"
   version="1.1"
   viewBox="0 0 16.933 16.933"
   id="svg7"
   sodipodi:docname="abcd.svg"
   inkscape:version="1.4.3 (0d15f75042, 2025-12-25)"
   xmlns:inkscape="http://www.inkscape.org/namespaces/inkscape"
   xmlns:sodipodi="http://sodipodi.sourceforge.net/DTD/sodipodi-0.dtd"
   xmlns="http://www.w3.org/2000/svg"
   xmlns:svg="http://www.w3.org/2000/svg"
   xmlns:rdf="http://www.w3.org/1999/02/22-rdf-syntax-ns#"
   xmlns:cc="http://creativecommons.org/ns#"
   xmlns:dc="http://purl.org/dc/elements/1.1/">
  <sodipodi:namedview
     id="namedview7"
     pagecolor="#9c4444"
     bordercolor="#000000"
     borderopacity="0.25"
     inkscape:showpageshadow="2"
     inkscape:pageopacity="0.0"
     inkscape:pagecheckerboard="0"
     inkscape:deskcolor="#d1d1d1"
     inkscape:zoom="4.3531261"
     inkscape:cx="43.417074"
     inkscape:cy="20.674797"
     inkscape:window-width="1226"
     inkscape:window-height="669"
     inkscape:window-x="367"
     inkscape:window-y="200"
     inkscape:window-maximized="0"
     inkscape:current-layer="svg7"
     showgrid="false" />
  <defs
     id="defs2">
    <filter
       style="color-interpolation-filters:sRGB;"
       inkscape:label="Blur"
       id="filter5421"
       x="-0.12256455"
       y="-0.12342654"
       width="1.2451291"
       height="1.2468531">
      <feGaussianBlur
         stdDeviation="0.5 0.5"
         result="blur"
         id="feGaussianBlur5419" />
    </filter>
  </defs>
  <metadata
     id="metadata2">
    <rdf:RDF>
      <cc:Work
         rdf:about="">
        <dc:format>image/svg+xml</dc:format>
        <dc:type
           rdf:resource="http://purl.org/dc/dcmitype/StillImage" />
      </cc:Work>
    </rdf:RDF>
  </metadata>
  <rect
     style="opacity:0.3;fill:none;fill-opacity:0.996424;stroke:#000000;stroke-width:0.955221;stroke-dasharray:none;stroke-opacity:1;filter:url(#filter5421)"
     id="rect1-2-7"
     width="13.687567"
     height="13.591975"
     x="1.6227165"
     y="1.6705122"
     rx="2.8442214"
     ry="2.965905" />
  <rect
     style="fill:none;fill-opacity:1;stroke:{{colors.primary.default.hex}};stroke-width:0.955221;stroke-dasharray:none;stroke-opacity:1"
     id="rect1-2"
     width="13.687567"
     height="13.591975"
     x="1.6227167"
     y="1.6705124"
     rx="2.8442214"
     ry="2.965905" />
  <path
     style="fill:{{colors.primary.default.hex}};fill-opacity:1;stroke:none;stroke-width:0.0995508;stroke-dasharray:none;stroke-opacity:0.6"
     d="M 4.7569474,8.4664981 V 4.4255079 h 0.8413425 0.841341 V 6.1145644 7.8036218 H 8.4664996 10.493366 V 6.1145644 4.4255079 h 0.841345 0.841341 V 8.4664981 12.507486 H 11.334711 10.493366 V 10.990521 9.4735578 H 8.4661507 6.4389323 l 0.00354,1.5169692 0.00354,1.516966 -0.8445295,-2e-6 -0.8445289,-5e-6 z M 6.1081925,10.996898 V 10.48062 H 5.5982899 5.0883853 v 0.516278 0.516278 h 0.5099046 0.5099026 z m 5.7364225,0 V 10.48062 h -0.509904 -0.509904 v 0.516278 0.516278 h 0.509904 0.509904 z M 6.1081925,8.6322162 V 8.1223118 H 5.5982899 5.0883853 v 0.5099044 0.5099043 h 0.5099046 0.5099026 z m 5.7364225,0 V 8.1223118 h -0.509904 -0.509904 v 0.5099044 0.5099043 h 0.509904 0.509904 z M 6.1081925,5.9360989 V 5.4198203 H 5.5982899 5.0883853 v 0.5162786 0.5162778 h 0.5099046 0.5099026 z m 5.7364225,0 V 5.4198203 h -0.509904 -0.509904 v 0.5162786 0.5162778 h 0.509904 0.509904 z"
     id="path7" />
</svg>
