<?xml version="1.0" encoding="UTF-8" standalone="no"?>
<svg
   width="64"
   height="64"
   version="1.1"
   viewBox="0 0 16.933 16.933"
   id="svg7"
   sodipodi:docname="abcd.svg"
   inkscape:version="1.4.3 (0d15f75042, 2025-12-25)"
   xmlns:inkscape="http://www.inkscape.org/namespaces/inkscape"
   xmlns:sodipodi="http://sodipodi.sourceforge.net/DTD/sodipodi-0.dtd"
   xmlns="http://www.w3.org/2000/svg"
   xmlns:svg="http://www.w3.org/2000/svg"
   xmlns:rdf="http://www.w3.org/1999/02/22-rdf-syntax-ns#"
   xmlns:cc="http://creativecommons.org/ns#"
   xmlns:dc="http://purl.org/dc/elements/1.1/">
  <sodipodi:namedview
     id="namedview7"
     pagecolor="#9c4444"
     bordercolor="#000000"
     borderopacity="0.25"
     inkscape:showpageshadow="2"
     inkscape:pageopacity="0.0"
     inkscape:pagecheckerboard="0"
     inkscape:deskcolor="#d1d1d1"
     inkscape:zoom="4.3531261"
     inkscape:cx="38.133515"
     inkscape:cy="27.106957"
     inkscape:window-width="1226"
     inkscape:window-height="669"
     inkscape:window-x="100"
     inkscape:window-y="206"
     inkscape:window-maximized="0"
     inkscape:current-layer="svg7"
     showgrid="false" />
  <defs
     id="defs2">
    <filter
       style="color-interpolation-filters:sRGB;"
       inkscape:label="Blur"
       id="filter5421"
       x="-0.12256455"
       y="-0.12342654"
       width="1.2451291"
       height="1.2468531">
      <feGaussianBlur
         stdDeviation="0.5 0.5"
         result="blur"
         id="feGaussianBlur5419" />
    </filter>
  </defs>
  <metadata
     id="metadata2">
    <rdf:RDF>
      <cc:Work
         rdf:about="">
        <dc:format>image/svg+xml</dc:format>
        <dc:type
           rdf:resource="http://purl.org/dc/dcmitype/StillImage" />
      </cc:Work>
    </rdf:RDF>
  </metadata>
  <rect
     style="opacity:0.3;fill:none;fill-opacity:0.996424;stroke:#000000;stroke-width:0.955221;stroke-dasharray:none;stroke-opacity:1;filter:url(#filter5421)"
     id="rect1-2-7"
     width="13.687567"
     height="13.591975"
     x="1.6227165"
     y="1.6705122"
     rx="2.8442214"
     ry="2.965905" />
  <rect
     style="fill:none;fill-opacity:1;stroke:{{colors.primary.default.hex}};stroke-width:0.955221;stroke-dasharray:none;stroke-opacity:1"
     id="rect1-2"
     width="13.687567"
     height="13.591975"
     x="1.6227167"
     y="1.6705124"
     rx="2.8442214"
     ry="2.965905" />
  <path
     id="path72"
     style="fill:{{colors.primary.default.hex}};fill-opacity:1;stroke:none;stroke-width:0.132066;stroke-dasharray:none;stroke-dashoffset:2.2;stroke-opacity:0.6"
     d="m 8.4577776,4.5284256 c -2.6646247,0 -2.675659,4.424e-4 -2.7604199,0.067047 -0.190481,0.149835 -0.1804305,-0.07509 -0.1804305,3.8560853 0,2.1694481 0.012428,3.6378461 0.030524,3.6854671 0.040573,0.106722 0.154992,0.20875 0.2730975,0.243665 0.054486,0.0161 1.2449102,0.02657 2.7097262,0.02344 2.5081061,-0.0055 2.6164401,-0.0083 2.7026411,-0.06649 0.193181,-0.130938 0.182611,0.09187 0.182611,-3.8838882 0,-3.3149148 -0.0048,-3.6510386 -0.05233,-3.731801 C 11.242579,4.517732 11.401353,4.528414 8.4577836,4.5284145 Z M 4.1388974,5.1694715 V 5.5701247 5.9713234 H 4.5553587 4.9723654 V 5.5701247 5.1694715 H 4.5553587 Z m 7.7895746,0 v 0.4006532 0.4011987 h 0.432816 0.432814 V 5.5701247 5.1694715 H 12.361288 Z M 6.9598247,5.489994 H 7.1522471 7.3441252 V 5.9871311 6.4837236 H 7.1522471 6.9598247 V 5.9871311 Z m 1.3142521,0 h 0.1924228 0.192423 V 6.8205994 8.1506601 H 8.4877584 c -0.094033,0 -0.1806669,-0.00949 -0.1924227,-0.021256 -0.011753,-0.011756 -0.021259,-0.6101286 -0.021259,-1.3300613 z m 1.3464142,0 H 9.79656 9.9731762 V 6.4837236 7.4779982 H 9.79656 9.620491 V 6.4837236 Z M 4.1388974,6.6439847 v 0.4011989 0.400654 H 4.5553587 4.9723654 V 7.0451836 6.6439847 H 4.5553587 Z m 7.7895746,0 v 0.4011989 0.400654 h 0.432816 0.432814 V 7.0451836 6.6439847 H 12.361288 Z M 6.9598247,6.8047912 H 7.1527921 7.34576 L 7.33703,7.3095605 7.3283,7.8143288 7.1669477,7.8235888 C 7.0781546,7.8287972 6.9952879,7.8230961 6.982743,7.8105243 6.9701989,7.7979802 6.9598445,7.5662868 6.9598445,7.2959434 Z M 9.620491,7.7985211 H 9.79656 9.9731762 V 8.2951134 8.7922507 H 9.79656 9.620491 V 8.2951134 Z M 6.9598247,8.1190436 H 7.1522471 7.3441252 V 9.1127738 10.106501 H 7.1522471 6.9598247 V 9.1127738 Z M 4.1388974,8.1506596 V 8.535505 8.9203497 H 4.5553587 4.9723654 V 8.5355039 8.1506584 H 4.5553587 Z m 7.7895746,0 v 0.3848457 0.3848455 h 0.432816 0.432814 V 8.5355045 8.1506593 H 12.361288 Z M 8.6589226,8.4362953 V 9.7679909 11.100232 H 8.4659549 8.2735319 l 0.00818,-1.3224292 0.00817,-1.3224287 0.1842458,-0.00925 z M 9.620491,9.1127729 H 9.79656 9.9731762 V 10.28257 11.452917 H 9.79656 9.620491 V 10.282571 Z M 4.1388974,9.6257188 v 0.4006532 0.400655 H 4.5553587 4.9723654 V 10.026372 9.6257188 H 4.5553587 Z m 7.7895746,0 v 0.4006532 0.400655 h 0.432816 0.432814 V 10.026372 9.6257188 H 12.361288 Z M 4.1388974,11.100232 v 0.400654 0.400653 H 4.5553587 4.9723654 V 11.500886 11.100232 H 4.5553587 Z m 7.7895746,0 v 0.400654 0.400653 h 0.432816 0.432814 v -0.400653 -0.400654 h -0.432814 z" />
</svg>
