<?xml version="1.0" encoding="UTF-8" standalone="no"?>
<svg
   width="64"
   height="64"
   version="1.1"
   viewBox="0 0 16.933 16.933"
   id="svg7"
   sodipodi:docname="abcd.svg"
   inkscape:version="1.4.3 (0d15f75042, 2025-12-25)"
   xmlns:inkscape="http://www.inkscape.org/namespaces/inkscape"
   xmlns:sodipodi="http://sodipodi.sourceforge.net/DTD/sodipodi-0.dtd"
   xmlns="http://www.w3.org/2000/svg"
   xmlns:svg="http://www.w3.org/2000/svg"
   xmlns:rdf="http://www.w3.org/1999/02/22-rdf-syntax-ns#"
   xmlns:cc="http://creativecommons.org/ns#"
   xmlns:dc="http://purl.org/dc/elements/1.1/">
  <sodipodi:namedview
     id="namedview7"
     pagecolor="#9c4444"
     bordercolor="#000000"
     borderopacity="0.25"
     inkscape:showpageshadow="2"
     inkscape:pageopacity="0.0"
     inkscape:pagecheckerboard="0"
     inkscape:deskcolor="#d1d1d1"
     inkscape:zoom="4.3531261"
     inkscape:cx="39.282115"
     inkscape:cy="25.498917"
     inkscape:window-width="1226"
     inkscape:window-height="669"
     inkscape:window-x="50"
     inkscape:window-y="194"
     inkscape:window-maximized="0"
     inkscape:current-layer="svg7"
     showgrid="false" />
  <defs
     id="defs2">
    <filter
       style="color-interpolation-filters:sRGB;"
       inkscape:label="Blur"
       id="filter5421"
       x="-0.12256455"
       y="-0.12342654"
       width="1.2451291"
       height="1.2468531">
      <feGaussianBlur
         stdDeviation="0.5 0.5"
         result="blur"
         id="feGaussianBlur5419" />
    </filter>
  </defs>
  <metadata
     id="metadata2">
    <rdf:RDF>
      <cc:Work
         rdf:about="">
        <dc:format>image/svg+xml</dc:format>
        <dc:type
           rdf:resource="http://purl.org/dc/dcmitype/StillImage" />
      </cc:Work>
    </rdf:RDF>
  </metadata>
  <rect
     style="opacity:0.3;fill:none;fill-opacity:0.996424;stroke:#000000;stroke-width:0.955221;stroke-dasharray:none;stroke-opacity:1;filter:url(#filter5421)"
     id="rect1-2-7"
     width="13.687567"
     height="13.591975"
     x="1.6227165"
     y="1.6705122"
     rx="2.8442214"
     ry="2.965905" />
  <rect
     style="fill:none;fill-opacity:1;stroke:{{colors.primary.default.hex}};stroke-width:0.955221;stroke-dasharray:none;stroke-opacity:1"
     id="rect1-2"
     width="13.687567"
     height="13.591975"
     x="1.6227167"
     y="1.6705124"
     rx="2.8442214"
     ry="2.965905" />
  <path
     id="path98"
     style="fill:{{colors.primary.default.hex}};fill-opacity:1;stroke:none;stroke-width:0.118466;stroke-dasharray:none;stroke-opacity:0.6"
     d="M 8.1548239,6.0948483 6.7063969,6.1087325 5.257507,6.1230794 4.8155748,6.8158255 c -0.2432331,0.3809407 -0.4427517,0.7105652 -0.4433204,0.732543 -5.778e-4,0.021979 0.4543629,0.039797 1.0111225,0.039797 0.5567591,0 1.0125103,0.014352 1.0125103,0.03193 0,0.017577 -0.2556884,0.5750793 -0.5678017,1.238798 -0.3121131,0.6637197 -0.6471836,1.3803595 -0.744575,1.5928075 l -0.1767728,0.386401 0.5178244,-0.0013 0.5182867,-0.0013 1.038888,-2.2133338 C 7.5531477,7.4044672 8.0508192,6.3374687 8.0877243,6.2512844 Z m 2.8052271,0.013884 C 10.079715,6.100971 9.3417258,6.11315 9.3200442,6.13557 9.2983644,6.1579854 9.0974334,6.5720281 8.873484,7.0555296 8.649535,7.5390314 8.1682071,8.5696403 7.8035915,9.3461731 7.4389768,10.122706 7.1406171,10.776324 7.1409252,10.798302 v 4.73e-4 l 4.729e-4,4.73e-4 v 4.73e-4 l 4.727e-4,4.72e-4 v 4.72e-4 c 0.019962,0.02056 0.2370779,0.03749 0.4983883,0.03749 H 8.1386474 L 8.9021957,9.2134127 9.6662056,7.5882125 h 0.5756694 c 0.31668,0 0.576132,0.00929 0.576132,0.020364 0,0.011066 -0.33572,0.7332238 -0.745964,1.6048389 -0.4102435,0.8716136 -0.7459626,1.5945616 -0.7459626,1.6066886 0,0.01212 0.2317394,0.01533 0.5150476,0.0068 l 0.515047,-0.01527 1.102286,-2.3443237 1.102285,-2.3443228 z" />
</svg>
