<?xml version="1.0" encoding="UTF-8" standalone="no"?>
<svg
   width="64"
   height="64"
   version="1.1"
   viewBox="0 0 16.933 16.933"
   id="svg7"
   sodipodi:docname="abcd.svg"
   inkscape:version="1.4.3 (0d15f75042, 2025-12-25)"
   xmlns:inkscape="http://www.inkscape.org/namespaces/inkscape"
   xmlns:sodipodi="http://sodipodi.sourceforge.net/DTD/sodipodi-0.dtd"
   xmlns="http://www.w3.org/2000/svg"
   xmlns:svg="http://www.w3.org/2000/svg"
   xmlns:rdf="http://www.w3.org/1999/02/22-rdf-syntax-ns#"
   xmlns:cc="http://creativecommons.org/ns#"
   xmlns:dc="http://purl.org/dc/elements/1.1/">
  <sodipodi:namedview
     id="namedview7"
     pagecolor="#9c4444"
     bordercolor="#000000"
     borderopacity="0.25"
     inkscape:showpageshadow="2"
     inkscape:pageopacity="0.0"
     inkscape:pagecheckerboard="0"
     inkscape:deskcolor="#d1d1d1"
     inkscape:zoom="4.3531261"
     inkscape:cx="33.309396"
     inkscape:cy="31.471636"
     inkscape:window-width="1226"
     inkscape:window-height="669"
     inkscape:window-x="100"
     inkscape:window-y="206"
     inkscape:window-maximized="0"
     inkscape:current-layer="svg7"
     showgrid="false" />
  <defs
     id="defs2">
    <filter
       style="color-interpolation-filters:sRGB;"
       inkscape:label="Blur"
       id="filter5421"
       x="-0.12256455"
       y="-0.12342654"
       width="1.2451291"
       height="1.2468531">
      <feGaussianBlur
         stdDeviation="0.5 0.5"
         result="blur"
         id="feGaussianBlur5419" />
    </filter>
  </defs>
  <metadata
     id="metadata2">
    <rdf:RDF>
      <cc:Work
         rdf:about="">
        <dc:format>image/svg+xml</dc:format>
        <dc:type
           rdf:resource="http://purl.org/dc/dcmitype/StillImage" />
      </cc:Work>
    </rdf:RDF>
  </metadata>
  <rect
     style="opacity:0.3;fill:none;fill-opacity:0.996424;stroke:#000000;stroke-width:0.955221;stroke-dasharray:none;stroke-opacity:1;filter:url(#filter5421)"
     id="rect1-2-7"
     width="13.687567"
     height="13.591975"
     x="1.6227165"
     y="1.6705122"
     rx="2.8442214"
     ry="2.965905" />
  <rect
     style="fill:none;fill-opacity:1;stroke:{{colors.primary.default.hex}};stroke-width:0.955221;stroke-dasharray:none;stroke-opacity:1"
     id="rect1-2"
     width="13.687567"
     height="13.591975"
     x="1.6227167"
     y="1.6705124"
     rx="2.8442214"
     ry="2.965905" />
  <path
     style="fill:{{colors.primary.default.hex}};stroke-width:0.00595699;stroke-opacity:0.5;fill-opacity:1"
     d="M 8.1265405,12.451816 C 7.4138217,12.384394 6.7830444,12.158755 6.202437,11.763533 5.9914573,11.619918 5.8580992,11.507587 5.6418345,11.291323 5.4083918,11.057879 5.2991092,10.925236 5.1262152,10.66548 4.7952285,10.168204 4.577651,9.5760778 4.4966992,8.9522795 4.466987,8.723325 4.466987,8.2108113 4.4966992,7.981857 4.5820692,7.3240125 4.8013937,6.7443714 5.169624,6.2034167 5.3132391,5.9924367 5.42557,5.8590791 5.6418345,5.6428145 5.8507511,5.4338979 5.9872365,5.31803 6.1845663,5.1820694 6.74051,4.7990216 7.3248961,4.580544 8.0312293,4.4916796 c 0.1877439,-0.023621 0.7276215,-0.019793 0.9233315,0.00655 0.7689689,0.1034872 1.4252282,0.3802417 2.0194152,0.8516162 0.145757,0.1156302 0.49371,0.4635828 0.60934,0.609339 0.482194,0.6078261 0.758463,1.2752919 0.858038,2.0730283 0.02059,0.1649329 0.02059,0.704786 0,0.8697193 -0.09957,0.7977361 -0.375844,1.4652026 -0.858038,2.0730276 -0.115432,0.145506 -0.463334,0.493476 -0.60934,0.609459 -0.2439,0.193748 -0.487596,0.346261 -0.776879,0.486197 -0.3875668,0.187481 -0.7935596,0.307103 -1.2365794,0.364348 -0.1749867,0.02261 -0.6678428,0.03257 -0.8339771,0.01686 z m 0.5256322,-0.850993 c 0.2472502,-0.0433 0.452553,-0.148822 0.6249284,-0.321198 C 9.7253707,10.831356 9.7250881,10.102273 9.2764707,9.6574398 8.8232218,9.2080136 8.1009847,9.2083651 7.6549149,9.6582278 7.2052389,10.111728 7.2053096,10.829859 7.6550722,11.279624 7.9184143,11.542966 8.293182,11.66369 8.652169,11.600821 Z M 6.6538664,9.5987879 C 6.8984509,9.5561355 7.1030432,9.4505946 7.2755564,9.2780811 7.8860868,8.667551 7.6301862,7.6321148 6.8044185,7.371741 6.2148837,7.185854 5.5789238,7.5095962 5.3782739,8.097736 5.1510014,8.7639082 5.5711017,9.4723911 6.2681552,9.5984853 c 0.1207112,0.021835 0.2615941,0.021945 0.3857112,2.495e-4 z m 4.0030896,0 C 10.90154,9.5561357 11.106132,9.4505946 11.278645,9.2780811 11.726915,8.8298115 11.726633,8.1007284 11.277989,7.6558952 10.82568,7.2074023 10.101577,7.2077545 9.656433,7.6566569 9.2067571,8.1101579 9.2068283,8.8282884 9.6565903,9.278053 9.9209033,9.5423661 10.294137,9.6620251 10.656925,9.59876 Z M 8.7772004,8.9461955 c 0.084184,-0.077148 0.059443,-0.2048053 -0.047587,-0.2455426 -0.062846,-0.02392 -0.1320625,-4.465e-4 -0.1718548,0.058307 -0.064666,0.095461 0.00634,0.2263649 0.1227815,0.2263649 0.044387,0 0.06154,-0.00695 0.09666,-0.039129 z M 8.1754128,8.803249 C 8.2328918,8.7646367 8.2562346,8.6947985 8.2325039,8.6324462 8.1917668,8.5254151 8.0641102,8.5006747 7.9869612,8.5848588 7.8702435,8.71222 8.0319549,8.8996204 8.1754128,8.803249 Z M 8.9452161,8.3492777 c 0.032186,-0.035122 0.039129,-0.052273 0.039129,-0.096661 0,-0.044387 -0.00694,-0.061539 -0.039129,-0.09666 -0.077149,-0.084184 -0.204806,-0.059444 -0.2455426,0.047587 -0.015197,0.039936 -0.01525,0.052174 -4.466e-4,0.094734 0.038333,0.1100041 0.1673718,0.1367599 0.2459655,0.051 z M 8.3113289,8.2295059 c 0.1436431,-0.060017 0.096715,-0.2806945 -0.059691,-0.2806945 -0.1546803,0 -0.2033574,0.2188693 -0.062314,0.2801852 0.049421,0.021483 0.071582,0.021578 0.122005,5.516e-4 z M 8.6521727,7.5977336 C 8.8994229,7.5544326 9.1047257,7.448912 9.2771011,7.2765365 9.7252479,6.82839 9.7252479,6.1026577 9.2771011,5.6545116 8.8286857,5.2060968 8.1039951,5.2062412 7.6554002,5.6548006 7.205505,6.104695 7.2053612,6.8267854 7.6551114,7.2765011 7.9179515,7.5393404 8.2939066,7.6604484 8.6522083,7.5976979 Z"
     id="path6" />
</svg>
