<?xml version="1.0" encoding="UTF-8" standalone="no"?>
<svg
   width="64"
   height="64"
   version="1.1"
   viewBox="0 0 16.933 16.933"
   id="svg7"
   sodipodi:docname="abcd.svg"
   inkscape:version="1.4.3 (0d15f75042, 2025-12-25)"
   xmlns:inkscape="http://www.inkscape.org/namespaces/inkscape"
   xmlns:sodipodi="http://sodipodi.sourceforge.net/DTD/sodipodi-0.dtd"
   xmlns="http://www.w3.org/2000/svg"
   xmlns:svg="http://www.w3.org/2000/svg"
   xmlns:rdf="http://www.w3.org/1999/02/22-rdf-syntax-ns#"
   xmlns:cc="http://creativecommons.org/ns#"
   xmlns:dc="http://purl.org/dc/elements/1.1/">
  <sodipodi:namedview
     id="namedview7"
     pagecolor="#9c4444"
     bordercolor="#000000"
     borderopacity="0.25"
     inkscape:showpageshadow="2"
     inkscape:pageopacity="0.0"
     inkscape:pagecheckerboard="0"
     inkscape:deskcolor="#d1d1d1"
     inkscape:zoom="4.3531261"
     inkscape:cx="39.282115"
     inkscape:cy="25.498917"
     inkscape:window-width="1226"
     inkscape:window-height="669"
     inkscape:window-x="50"
     inkscape:window-y="194"
     inkscape:window-maximized="0"
     inkscape:current-layer="svg7"
     showgrid="false" />
  <defs
     id="defs2">
    <filter
       style="color-interpolation-filters:sRGB;"
       inkscape:label="Blur"
       id="filter5421"
       x="-0.12256455"
       y="-0.12342654"
       width="1.2451291"
       height="1.2468531">
      <feGaussianBlur
         stdDeviation="0.5 0.5"
         result="blur"
         id="feGaussianBlur5419" />
    </filter>
  </defs>
  <metadata
     id="metadata2">
    <rdf:RDF>
      <cc:Work
         rdf:about="">
        <dc:format>image/svg+xml</dc:format>
        <dc:type
           rdf:resource="http://purl.org/dc/dcmitype/StillImage" />
      </cc:Work>
    </rdf:RDF>
  </metadata>
  <rect
     style="opacity:0.3;fill:none;fill-opacity:0.996424;stroke:#000000;stroke-width:0.955221;stroke-dasharray:none;stroke-opacity:1;filter:url(#filter5421)"
     id="rect1-2-7"
     width="13.687567"
     height="13.591975"
     x="1.6227165"
     y="1.6705122"
     rx="2.8442214"
     ry="2.965905" />
  <rect
     style="fill:none;fill-opacity:1;stroke:{{colors.primary.default.hex}};stroke-width:0.955221;stroke-dasharray:none;stroke-opacity:1"
     id="rect1-2"
     width="13.687567"
     height="13.591975"
     x="1.6227167"
     y="1.6705124"
     rx="2.8442214"
     ry="2.965905" />
  <path
     id="path1"
     style="fill:{{colors.primary.default.hex}};fill-opacity:1;stroke-width:0.0748048"
     d="m 7.0739428,4.3533013 c -0.087554,0.00276 -0.1568606,0.016787 -0.2469175,0.035863 -0.8824303,0.186935 -1.4602192,1.1176579 -1.2366038,1.9919842 0.078527,0.3070399 0.2037707,0.5205422 0.4480529,0.7638684 0.3306879,0.3293941 0.6841546,0.4784914 1.136036,0.4792122 0.3694404,6.303e-4 0.6621938,-0.095986 0.9780947,-0.322634 0.1014108,-0.072759 0.2033316,-0.132022 0.2264985,-0.1316924 0.054611,7.617e-4 1.0009615,0.2130516 1.0087076,0.2262602 0.00324,0.00552 0.044822,0.088192 0.092419,0.1837145 0.2105221,0.422489 0.6710538,0.7596873 1.1602058,0.8495041 0.221459,0.040664 0.310511,0.04242 0.509554,0.010125 0.364128,-0.059079 0.701054,-0.2299298 0.940425,-0.476893 0.7873,-0.8122759 0.562608,-2.1106688 -0.452588,-2.61523 C 11.454043,5.2560422 11.278455,5.2129957 9.406152,4.8002639 7.7633352,4.4381204 7.3366073,4.3450194 7.0739428,4.3533013 Z m 0.1502379,0.649495 c 0.1354112,-0.00132 0.3481387,0.055082 0.3774513,0.1173738 0.010842,0.023041 0.025772,0.1572016 0.03317,0.2981568 l 0.013466,0.2562933 0.2119414,0.097567 C 8.1302002,5.8964602 8.1567097,5.9360745 8.1138112,6.1514121 8.066242,6.3901929 8.0198141,6.4212734 7.7104165,6.4212734 H 7.4636347 l -0.1016925,0.21818 C 7.305998,6.7594525 7.2415946,6.8716495 7.2188298,6.8887926 7.1383216,6.9494202 6.80262,6.8876631 6.752402,6.8029863 6.7376982,6.7781859 6.7200544,6.6425699 6.7131976,6.5016247 L 6.7007213,6.2453657 6.4962455,6.1503555 C 6.3837678,6.0981045 6.2743465,6.0409236 6.2531104,6.0232991 6.2074921,5.9854397 6.2042847,5.8978649 6.2420656,5.7216993 6.2857388,5.5180554 6.3187641,5.4986786 6.622312,5.4986786 H 6.880515 L 6.98306,5.2780098 c 0.056392,-0.1213713 0.1198892,-0.2351151 0.1411345,-0.252748 0.018297,-0.015185 0.054851,-0.022027 0.099988,-0.022465 z m 3.8661503,0.7487663 c 0.134934,0.00126 0.270034,0.07302 0.338622,0.2147031 0.08481,0.1751934 0.02209,0.3997408 -0.135133,0.4838821 -0.210443,0.1126247 -0.450659,0.041048 -0.542725,-0.1617252 -0.06047,-0.1331789 -0.06012,-0.2010236 0.0015,-0.3284637 0.06797,-0.1404103 0.202735,-0.2096545 0.337667,-0.2083963 z m -0.800038,0.5388026 c 0.05506,0.00255 0.108909,0.015384 0.154498,0.039034 0.235913,0.1224104 0.252083,0.4814145 0.02918,0.6475514 -0.03805,0.028362 -0.118374,0.053702 -0.186988,0.059011 -0.3792112,0.029344 -0.5539487,-0.443045 -0.249713,-0.6750964 0.06606,-0.050392 0.161244,-0.074737 0.25302,-0.0705 z m 1.297796,0.2997252 c 0.129434,-0.00552 0.263015,0.051566 0.342883,0.1587257 0.125939,0.1689726 0.05911,0.4481553 -0.130396,0.5448368 -0.24192,0.1234184 -0.517379,-0.011567 -0.56195,-0.275384 -0.02205,-0.1304976 0.06548,-0.314614 0.180952,-0.3806565 0.05171,-0.029573 0.109677,-0.045009 0.168511,-0.047522 z m -0.795506,0.529462 c 0.300745,-2.036e-4 0.476177,0.2989031 0.327442,0.5583354 -0.03063,0.05343 -0.09478,0.117958 -0.142567,0.1433861 -0.321679,0.1711692 -0.674702,-0.1550321 -0.527621,-0.4875304 0.0648,-0.1464816 0.172932,-0.2140695 0.342746,-0.2141911 z M 7.4389857,8.234452 c -0.00508,-1.351e-4 -0.010601,-1.351e-4 -0.016636,6.58e-5 -0.080467,0.00294 -0.252406,0.041111 -0.7074142,0.142465 -0.402134,0.089574 -0.7454589,0.1747552 -0.7629489,0.1892711 -0.017491,0.014518 -0.037949,0.051181 -0.045442,0.081477 -0.021435,0.08665 0.2893859,1.4518971 0.3443837,1.5126691 0.025362,0.02803 0.072135,0.05097 0.1039427,0.05097 0.085074,0 1.3927713,-0.2906102 1.453181,-0.3229414 C 7.83641,9.8732486 7.866546,9.8332606 7.875006,9.7995546 7.8841602,9.763074 7.826265,9.4489828 7.7319261,9.0233487 7.5887567,8.3774075 7.5672973,8.3038716 7.5097575,8.2612879 7.4889496,8.2458934 7.4745915,8.2356076 7.4389851,8.2344588 Z M 6.8426045,8.8665942 C 6.9008119,8.8640767 6.9807717,8.9479 7.1316924,9.1110582 7.3541855,9.3515914 7.396082,9.4298131 7.3303387,9.4819303 7.313195,9.4955172 7.1645365,9.5361943 6.9999665,9.572339 6.6910606,9.6401862 6.6087504,9.6498006 6.5802089,9.6212589 6.5456306,9.5866802 6.5702646,9.4664061 6.671265,9.1765809 6.7433315,8.9697839 6.7806413,8.869269 6.8426045,8.8665942 Z M 9.7820693,9.7387687 C 9.7467454,9.7394517 9.4103937,9.8095608 9.0345977,9.8946318 8.413112,10.035321 8.3469227,10.055228 8.3025014,10.115028 l -0.048853,0.06577 0.1575679,0.719686 c 0.1277412,0.583506 0.1681316,0.730316 0.2135428,0.775803 0.030807,0.03086 0.067803,0.05611 0.082193,0.05611 0.051039,0 1.3858299,-0.300035 1.4413859,-0.323997 0.124359,-0.05364 0.122307,-0.09413 -0.04346,-0.851585 C 9.9402026,9.8043871 9.9133517,9.7363803 9.7820693,9.7387687 Z m -1.927075,0.4392923 c -0.1093408,0.0017 -0.3096881,0.04504 -0.6991314,0.131556 -0.3874605,0.08607 -0.7246555,0.167175 -0.7493119,0.180237 -0.09807,0.05196 -0.093028,0.113206 0.070364,0.85772 0.1310541,0.597165 0.1674775,0.728337 0.2124529,0.764756 0.029859,0.02418 0.067081,0.04406 0.082704,0.04417 0.015621,2.89e-4 0.3425766,-0.06848 0.7265736,-0.152487 0.732943,-0.16035 0.8104023,-0.190164 0.8104023,-0.312031 0,-0.06066 -0.2601318,-1.266802 -0.3010207,-1.39574 -0.02537,-0.08001 -0.043691,-0.119906 -0.153032,-0.118191 z m 1.1315359,0.198441 c 0.055434,5.53e-4 0.1462206,0.02925 0.2853046,0.07224 0.3329955,0.102921 0.40861,0.141745 0.40861,0.20983 0,0.0274 -0.1059782,0.147092 -0.25343,0.286189 -0.1393911,0.131494 -0.2662962,0.239079 -0.281997,0.239079 -0.078689,0 -0.112348,-0.07589 -0.1795556,-0.404555 -0.061739,-0.301923 -0.084762,-0.403771 0.021071,-0.40278 z M 5.9138391,10.61057 c -0.1053736,-0.0016 -0.3094166,0.04094 -0.7383349,0.135884 -0.5958856,0.131905 -0.7249992,0.168137 -0.7618234,0.213612 -0.024386,0.03012 -0.044385,0.07314 -0.04442,0.09563 -5.1e-5,0.02248 0.069711,0.35465 0.1549762,0.738164 0.1062029,0.477693 0.169038,0.711318 0.1995326,0.741813 0.024482,0.02447 0.072605,0.04452 0.1069425,0.04452 0.1243487,0 1.4205032,-0.302168 1.4636473,-0.341212 0.023947,-0.02168 0.049746,-0.05898 0.05734,-0.08292 0.013871,-0.0437 -0.2659527,-1.359259 -0.3116566,-1.465216 -0.021988,-0.05098 -0.044247,-0.079 -0.1262036,-0.08028 z m 1.6759293,0.13452 c 0.060775,0.0024 0.081847,0.02445 0.090102,0.0674 0.00368,0.0191 -0.042141,0.180588 -0.1017949,0.358872 -0.1442764,0.431201 -0.148131,0.431861 -0.4750867,0.08305 -0.1320985,-0.14093 -0.2401685,-0.269754 -0.2401685,-0.286293 0,-0.06693 0.08546,-0.103742 0.3986896,-0.17168 0.1670118,-0.03622 0.2674834,-0.05368 0.3282587,-0.05135 z m -2.0557329,0.392487 c 0.020789,-3.95e-4 0.0367,0.0095 0.051272,0.02754 0.029396,0.03634 0.1554196,0.585869 0.1554196,0.677689 0,0.03615 -0.020254,0.07323 -0.048203,0.08819 -0.026526,0.01419 -0.051783,0.02491 -0.056113,0.02383 -0.06001,-0.01495 -0.6156315,-0.215375 -0.6380409,-0.230146 -0.068389,-0.04508 -0.019946,-0.122031 0.2211804,-0.351304 0.1762869,-0.16762 0.26135,-0.234971 0.3144861,-0.235805 z" />
</svg>
