<?xml version="1.0" encoding="UTF-8" standalone="no"?>
<svg
   width="64"
   height="64"
   version="1.1"
   viewBox="0 0 16.933 16.933"
   id="svg7"
   sodipodi:docname="abcd.svg"
   inkscape:version="1.4.3 (0d15f75042, 2025-12-25)"
   xmlns:inkscape="http://www.inkscape.org/namespaces/inkscape"
   xmlns:sodipodi="http://sodipodi.sourceforge.net/DTD/sodipodi-0.dtd"
   xmlns="http://www.w3.org/2000/svg"
   xmlns:svg="http://www.w3.org/2000/svg"
   xmlns:rdf="http://www.w3.org/1999/02/22-rdf-syntax-ns#"
   xmlns:cc="http://creativecommons.org/ns#"
   xmlns:dc="http://purl.org/dc/elements/1.1/">
  <sodipodi:namedview
     id="namedview7"
     pagecolor="#9c4444"
     bordercolor="#000000"
     borderopacity="0.25"
     inkscape:showpageshadow="2"
     inkscape:pageopacity="0.0"
     inkscape:pagecheckerboard="0"
     inkscape:deskcolor="#d1d1d1"
     inkscape:zoom="4.3531261"
     inkscape:cx="33.309396"
     inkscape:cy="31.471636"
     inkscape:window-width="1226"
     inkscape:window-height="669"
     inkscape:window-x="100"
     inkscape:window-y="206"
     inkscape:window-maximized="0"
     inkscape:current-layer="svg7"
     showgrid="false" />
  <defs
     id="defs2">
    <filter
       style="color-interpolation-filters:sRGB;"
       inkscape:label="Blur"
       id="filter5421"
       x="-0.12256455"
       y="-0.12342654"
       width="1.2451291"
       height="1.2468531">
      <feGaussianBlur
         stdDeviation="0.5 0.5"
         result="blur"
         id="feGaussianBlur5419" />
    </filter>
  </defs>
  <metadata
     id="metadata2">
    <rdf:RDF>
      <cc:Work
         rdf:about="">
        <dc:format>image/svg+xml</dc:format>
        <dc:type
           rdf:resource="http://purl.org/dc/dcmitype/StillImage" />
      </cc:Work>
    </rdf:RDF>
  </metadata>
  <rect
     style="opacity:0.3;fill:none;fill-opacity:0.996424;stroke:#000000;stroke-width:0.955221;stroke-dasharray:none;stroke-opacity:1;filter:url(#filter5421)"
     id="rect1-2-7"
     width="13.687567"
     height="13.591975"
     x="1.6227165"
     y="1.6705122"
     rx="2.8442214"
     ry="2.965905" />
  <rect
     style="fill:none;fill-opacity:1;stroke:{{colors.primary.default.hex}};stroke-width:0.955221;stroke-dasharray:none;stroke-opacity:1"
     id="rect1-2"
     width="13.687567"
     height="13.591975"
     x="1.6227167"
     y="1.6705124"
     rx="2.8442214"
     ry="2.965905" />
  <path
     id="path13"
     style="fill:{{colors.primary.default.hex}};stroke:none;stroke-width:0.0227849;stroke-opacity:0.5;fill-opacity:1"
     d="m 8.1930915,4.3932549 -1.7526498,0.00317 -1.7526497,0.00292 -0.077989,0.039793 C 4.555059,4.4671231 4.517305,4.4970414 4.4832681,4.5388851 4.393475,4.6492739 4.399442,4.5091055 4.399442,6.4520244 V 8.1874341 H 5.07164 5.7438383 V 6.9685119 5.7493235 H 6.9685976 8.1930915 V 5.0712891 Z m 0.5469901,0 v 0.6780342 0.6780344 h 1.2244937 1.2247587 v 1.2191884 1.2189233 h 0.672464 0.672199 l -0.0028,-1.7574246 -0.0032,-1.7571594 -0.03157,-0.064462 c -0.03793,-0.077337 -0.1023,-0.1383649 -0.189084,-0.1790575 l -0.06394,-0.029976 -1.751588,-0.00292 z M 7.1450032,6.2984357 c -0.6257245,-0.00395 -0.6604173,-0.00153 -0.7382511,0.055707 -0.1477969,0.108691 -0.1342542,0.3384528 0.025731,0.4374328 0.054714,0.033853 0.058766,0.034398 0.2302558,0.0382 l 0.174814,0.00398 v 0.819158 0.819159 L 6.6807776,8.472601 C 6.580003,8.4729271 6.5090576,8.4787 6.4815587,8.4885164 6.3012888,8.5528485 6.2437014,8.780862 6.3730628,8.9182567 c 0.029314,0.031134 0.083849,0.06338 0.133962,0.07905 0.015704,0.00492 0.2951773,0.0078 0.6210009,0.00662 0.5832116,-0.00208 0.5931159,-0.00232 0.6379783,-0.026528 C 7.9293873,8.8892503 7.9655802,8.699027 7.8445243,8.5643843 7.7739488,8.4858868 7.7274612,8.472069 7.5304426,8.472069 h -0.157571 v -0.8202174 -0.82022 h 0.1554492 c 0.1777862,0 0.2252406,-0.010858 0.2894113,-0.065787 C 7.8835831,6.7094776 7.9129191,6.6471962 7.9129641,6.563973 7.9130207,6.4611727 7.8617687,6.3782294 7.7660042,6.3265544 7.721313,6.3024385 7.709233,6.3019953 7.1450032,6.2984357 Z m 2.6667762,0.00317 c -0.01473,6.227e-4 -0.0294,0.00256 -0.04404,0.00583 -0.050076,0.011205 -0.074013,0.025123 -0.1225567,0.072419 -0.088612,0.086333 -0.090662,0.099398 -0.073214,0.4652842 0.035978,0.7543612 -0.031634,1.1955479 -0.2236237,1.4576678 -0.050534,0.068993 -0.141768,0.130266 -0.226276,0.1520009 -0.1015712,0.026124 -0.1201681,0.02378 -0.1201681,-0.01459 0,-0.050734 -0.055241,-0.1489054 -0.1034557,-0.1838333 C 8.8047678,8.1885312 8.6947095,8.183975 8.5997561,8.2441936 8.4913051,8.3129717 8.4590958,8.415748 8.4695077,8.6609354 c 0.00503,0.1184288 0.010018,0.1453915 0.035546,0.1957705 0.03382,0.066738 0.087339,0.1122133 0.1578365,0.1342273 0.059744,0.018654 0.3186271,0.021566 0.4504315,0.00504 C 9.5237025,8.9445253 9.8229021,8.6749504 9.9796965,8.2158189 10.094798,7.8787797 10.134425,7.4458885 10.104904,6.8478121 10.089471,6.5350349 10.085912,6.5002013 10.062463,6.4517616 10.01602,6.3558308 9.9148124,6.2972347 9.8117776,6.301617 Z M 4.3994418,8.7455652 v 1.7354068 c 0,1.926464 -0.0052,1.796254 0.077193,1.90465 0.047994,0.06314 0.1408014,0.124793 0.2122172,0.140861 0.027115,0.0061 0.7693998,0.01096 1.7754631,0.01167 l 1.7287754,9.02e-4 V 11.86134 11.18357 H 6.9685976 5.7438383 V 9.9644885 8.7455667 H 5.07164 Z m 6.7898922,0 V 9.9644895 11.183677 H 9.9645753 8.7400816 v 0.678036 0.678034 l 1.7526504,-0.0031 1.75265,-0.0029 0.07798,-0.03979 c 0.05475,-0.02798 0.09249,-0.05789 0.126534,-0.09974 0.08979,-0.110388 0.08383,0.02977 0.08383,-1.913139 V 8.7455296 H 11.861528 Z M 6.4881905,10.10694 6.4324845,10.14142 c -0.1190188,0.07358 -0.1629501,0.218198 -0.1031907,0.340341 0.033625,0.06872 0.088562,0.116484 0.159163,0.138738 0.037572,0.01184 0.2762043,0.01449 1.1807242,0.01274 1.0922962,-0.0022 1.1351008,-0.003 1.1775407,-0.02414 0.1934575,-0.09603 0.2072772,-0.354941 0.024937,-0.467675 l -0.055706,-0.03449 H 7.6519386 Z" />
</svg>
