<?xml version="1.0" encoding="UTF-8" standalone="no"?>
<svg
   width="64"
   height="64"
   version="1.1"
   viewBox="0 0 16.933 16.933"
   id="svg7"
   sodipodi:docname="abcd.svg"
   inkscape:version="1.4.3 (0d15f75042, 2025-12-25)"
   xmlns:inkscape="http://www.inkscape.org/namespaces/inkscape"
   xmlns:sodipodi="http://sodipodi.sourceforge.net/DTD/sodipodi-0.dtd"
   xmlns="http://www.w3.org/2000/svg"
   xmlns:svg="http://www.w3.org/2000/svg"
   xmlns:rdf="http://www.w3.org/1999/02/22-rdf-syntax-ns#"
   xmlns:cc="http://creativecommons.org/ns#"
   xmlns:dc="http://purl.org/dc/elements/1.1/">
  <sodipodi:namedview
     id="namedview7"
     pagecolor="#9c4444"
     bordercolor="#000000"
     borderopacity="0.25"
     inkscape:showpageshadow="2"
     inkscape:pageopacity="0.0"
     inkscape:pagecheckerboard="0"
     inkscape:deskcolor="#d1d1d1"
     inkscape:zoom="4.3531261"
     inkscape:cx="40.200995"
     inkscape:cy="23.201717"
     inkscape:window-width="1226"
     inkscape:window-height="669"
     inkscape:window-x="77"
     inkscape:window-y="131"
     inkscape:window-maximized="0"
     inkscape:current-layer="svg7"
     showgrid="false" />
  <defs
     id="defs2">
    <filter
       style="color-interpolation-filters:sRGB;"
       inkscape:label="Blur"
       id="filter5421"
       x="-0.12256455"
       y="-0.12342654"
       width="1.2451291"
       height="1.2468531">
      <feGaussianBlur
         stdDeviation="0.5 0.5"
         result="blur"
         id="feGaussianBlur5419" />
    </filter>
  </defs>
  <metadata
     id="metadata2">
    <rdf:RDF>
      <cc:Work
         rdf:about="">
        <dc:format>image/svg+xml</dc:format>
        <dc:type
           rdf:resource="http://purl.org/dc/dcmitype/StillImage" />
      </cc:Work>
    </rdf:RDF>
  </metadata>
  <rect
     style="opacity:0.3;fill:none;fill-opacity:0.996424;stroke:#000000;stroke-width:0.955221;stroke-dasharray:none;stroke-opacity:1;filter:url(#filter5421)"
     id="rect1-2-7"
     width="13.687567"
     height="13.591975"
     x="1.6227165"
     y="1.6705122"
     rx="2.8442214"
     ry="2.965905" />
  <rect
     style="fill:none;fill-opacity:1;stroke:{{colors.primary.default.hex}};stroke-width:0.955221;stroke-dasharray:none;stroke-opacity:1"
     id="rect1-2"
     width="13.687567"
     height="13.591975"
     x="1.6227167"
     y="1.6705124"
     rx="2.8442214"
     ry="2.965905" />
  <path
     style="fill:{{colors.primary.default.hex}};fill-opacity:1;stroke:none;stroke-width:0.124106;stroke-dasharray:none;stroke-opacity:0.6"
     d="M 6.2722484,11.811628 C 5.3768764,11.679717 4.6682653,11.348202 4.4747881,10.97071 4.281999,10.594563 4.7499646,10.123257 5.4888024,9.9494613 6.6702916,9.6715424 7.9977021,9.9247993 9.2547317,10.66798 c 0.1282645,0.07583 0.2332089,0.126199 0.2332089,0.111924 0,-0.09202 -0.6553649,-0.591373 -0.9488624,-0.722998 C 8.4111126,9.9995158 8.4069119,9.9932705 8.4251019,9.8876593 8.4354879,9.8273452 8.4920628,9.6788752 8.550822,9.5577265 8.6711722,9.3095937 8.8146101,9.1644523 9.2940614,8.8056599 9.6263748,8.5569771 9.8349244,8.3563528 9.90799,8.2150564 9.9458115,8.1419195 9.9211891,8.1577219 9.7911615,8.290044 9.6361856,8.4477537 9.4713944,8.5596744 8.944524,8.8650489 8.625996,9.0496678 8.4003791,9.2675999 8.2934513,9.4939432 L 8.204072,9.6831403 8.1363094,9.5305494 C 8.0990399,9.4466234 8.0054491,9.1494744 7.9283288,8.8702173 7.7322975,8.1603712 7.7389178,8.2240552 7.8611212,8.2237003 8.0031737,8.2233326 8.2788116,8.0900193 8.4211436,7.9529341 8.5476894,7.8310521 8.6190301,7.7144917 8.6590697,7.5641972 8.6801429,7.4850893 8.6783043,7.4792608 8.6475389,7.5276449 8.51494,7.7361614 8.4732995,7.7857683 8.3553549,7.8757274 8.0251508,8.1275825 7.5149629,8.1326495 7.1478639,7.8877178 7.0724692,7.8374137 6.8870126,7.69171 6.7357397,7.5639311 6.5844665,7.4361524 6.4443179,7.331606 6.4242975,7.331606 c -0.02659,0 -0.029253,0.038247 -0.00989,0.1418858 0.01458,0.078039 0.018757,0.1544245 0.00929,0.1697492 -0.031343,0.050715 -0.074513,-0.00609 -0.074513,-0.098046 0,-0.089423 -0.039743,-0.1198976 -0.077241,-0.059227 -0.045301,0.0733 -0.07279,-0.010967 -0.030349,-0.093036 0.060327,-0.1166592 0.058957,-0.1228708 -0.027116,-0.1228708 -0.1012527,0 -0.1506353,-0.071276 -0.1506353,-0.2174175 0,-0.1212273 0.081047,-0.244165 0.1609667,-0.244165 0.017635,0 0.032058,-0.034619 0.032058,-0.07693 0,-0.047868 0.017435,-0.076931 0.046159,-0.076931 0.027193,0 0.046376,0.028445 0.04669,0.069238 2.627e-4,0.03808 0.034911,0.1018474 0.076931,0.1417039 0.042019,0.039857 0.076399,0.090089 0.076399,0.1116281 0,0.1102204 0.2757716,0.1587155 0.4352388,0.076538 C 7.0425624,6.999989 7.1785804,6.8679353 7.2289386,6.7715421 7.2960489,6.6430819 7.2812263,6.6341294 7.1723401,6.7373596 7.1173347,6.789508 7.0202353,6.8504567 6.9565626,6.8728014 6.8500504,6.9101802 6.8373042,6.9084435 6.7971185,6.8510715 6.7730983,6.8167753 6.6985354,6.7722638 6.6314279,6.7521583 6.47656,6.7057586 6.4552641,6.6487837 6.550489,6.5356151 6.592093,6.4861711 6.626134,6.4376861 6.626134,6.4278696 c 0,-0.022872 -0.1709621,-0.1117437 -0.2149598,-0.1117437 -0.023689,0 -0.023405,0.018641 9.975e-4,0.064179 0.018893,0.035298 0.025916,0.072612 0.01561,0.08292 C 6.411387,6.4796156 6.3563959,6.4319736 6.1060582,6.1844981 5.9754461,6.0553827 5.9349788,5.6430602 6.039833,5.50976 6.2088286,5.2949168 7.0238794,5.0844221 7.6724152,5.0881298 c 0.2658832,0.00153 0.6670809,0.045649 0.4982322,0.054804 -0.1100975,0.00597 -0.051107,0.057512 0.094293,0.082391 0.1002841,0.017159 0.1166436,0.027322 0.070439,0.043766 -0.047626,0.016947 0.00845,0.058237 0.2688373,0.1979007 0.7302393,0.3916955 1.0027632,0.4727066 1.9251233,0.572266 0.399589,0.04313 0.676091,0.089805 0.841422,0.1420337 0.271814,0.085867 0.302263,0.1194964 0.06869,0.075858 -0.08318,-0.015542 -0.155146,-0.02436 -0.159914,-0.019589 -0.0048,0.00478 0.0948,0.050804 0.221255,0.1023089 0.126455,0.051504 0.307476,0.1451236 0.40227,0.2080441 0.180597,0.1198732 0.211543,0.1765705 0.05108,0.093594 -0.156342,-0.080848 -0.153574,-0.05589 0.01286,0.1159409 0.294089,0.3036297 0.475193,0.8063602 0.51723,1.4357852 l 0.01746,0.2615638 -0.05216,-0.1384753 -0.05214,-0.1384752 -0.02189,0.2965725 c -0.07911,1.0719892 -0.996048,2.2211329 -2.215904,2.7770419 -0.5278654,0.240554 -1.1328936,0.410337 -1.8355998,0.515105 -0.5407017,0.08061 -1.6457013,0.104884 -2.0517373,0.04505 z M 6.1491594,5.7006825 c 0.010461,-0.016923 0.00954,-0.046098 -0.00202,-0.064831 -0.020679,-0.033465 -0.073311,0.017813 -0.07443,0.072524 -6.829e-4,0.03373 0.054276,0.0282 0.07646,-0.00769 z M 8.1169261,5.5982795 C 8.1557146,5.4879904 8.085862,5.3512355 7.9832194,5.3365046 c -0.1127445,-0.01618 -0.145474,0.044909 -0.035811,0.066842 0.086011,0.017205 0.09424,0.029439 0.09424,0.1401413 0,0.067236 -0.017144,0.129052 -0.038465,0.1387013 -0.02116,0.00957 -0.011055,0.014057 0.022445,0.00996 0.035279,-0.00431 0.073697,-0.043814 0.091301,-0.093869 z m -1.1523043,-0.111751 0.076931,-0.023384 -0.088777,-0.035908 c -0.072262,-0.029229 -0.1023161,-0.027036 -0.161554,0.01178 -0.040028,0.026227 -0.072776,0.05429 -0.072776,0.062361 0,0.021631 0.1574259,0.012138 0.246177,-0.014846 z"
     id="path1" />
</svg>
