<?xml version="1.0" encoding="UTF-8" standalone="no"?>
<svg
   width="64"
   height="64"
   version="1.1"
   viewBox="0 0 16.933 16.933"
   id="svg7"
   sodipodi:docname="abcd.svg"
   inkscape:version="1.4.3 (0d15f75042, 2025-12-25)"
   xmlns:inkscape="http://www.inkscape.org/namespaces/inkscape"
   xmlns:sodipodi="http://sodipodi.sourceforge.net/DTD/sodipodi-0.dtd"
   xmlns="http://www.w3.org/2000/svg"
   xmlns:svg="http://www.w3.org/2000/svg"
   xmlns:rdf="http://www.w3.org/1999/02/22-rdf-syntax-ns#"
   xmlns:cc="http://creativecommons.org/ns#"
   xmlns:dc="http://purl.org/dc/elements/1.1/">
  <sodipodi:namedview
     id="namedview7"
     pagecolor="#9c4444"
     bordercolor="#000000"
     borderopacity="0.25"
     inkscape:showpageshadow="2"
     inkscape:pageopacity="0.0"
     inkscape:pagecheckerboard="0"
     inkscape:deskcolor="#d1d1d1"
     inkscape:zoom="4.3531261"
     inkscape:cx="39.282115"
     inkscape:cy="25.498917"
     inkscape:window-width="1226"
     inkscape:window-height="669"
     inkscape:window-x="50"
     inkscape:window-y="194"
     inkscape:window-maximized="0"
     inkscape:current-layer="svg7"
     showgrid="false" />
  <defs
     id="defs2">
    <filter
       style="color-interpolation-filters:sRGB;"
       inkscape:label="Blur"
       id="filter5421"
       x="-0.12256455"
       y="-0.12342654"
       width="1.2451291"
       height="1.2468531">
      <feGaussianBlur
         stdDeviation="0.5 0.5"
         result="blur"
         id="feGaussianBlur5419" />
    </filter>
  </defs>
  <metadata
     id="metadata2">
    <rdf:RDF>
      <cc:Work
         rdf:about="">
        <dc:format>image/svg+xml</dc:format>
        <dc:type
           rdf:resource="http://purl.org/dc/dcmitype/StillImage" />
      </cc:Work>
    </rdf:RDF>
  </metadata>
  <rect
     style="opacity:0.3;fill:none;fill-opacity:0.996424;stroke:#000000;stroke-width:0.955221;stroke-dasharray:none;stroke-opacity:1;filter:url(#filter5421)"
     id="rect1-2-7"
     width="13.687567"
     height="13.591975"
     x="1.6227165"
     y="1.6705122"
     rx="2.8442214"
     ry="2.965905" />
  <rect
     style="fill:none;fill-opacity:1;stroke:{{colors.primary.default.hex}};stroke-width:0.955221;stroke-dasharray:none;stroke-opacity:1"
     id="rect1-2"
     width="13.687567"
     height="13.591975"
     x="1.6227167"
     y="1.6705124"
     rx="2.8442214"
     ry="2.965905" />
  <path
     style="fill:{{colors.primary.default.hex}};fill-opacity:1;stroke:none;stroke-width:0.123796;stroke-dasharray:none;stroke-opacity:0.6"
     d="M 8.4642971,10.627628 8.4620762,8.7771539 8.3417643,9.1252398 C 8.1475059,9.6872668 7.7133328,10.125532 7.1301893,10.348238 6.6970466,10.513656 5.9255216,10.45214 5.5340109,10.22097 4.9678938,9.8867027 4.6080813,9.3690584 4.4949861,8.7261766 L 4.4501461,8.47129 6.3053983,8.469067 8.1606505,8.466844 7.8125648,8.3465545 C 7.2505386,8.1522955 6.8122724,7.7181237 6.5895679,7.1349795 6.4241496,6.7018369 6.4856644,5.9303123 6.7168341,5.5388018 7.0511029,4.9726833 7.5687463,4.6128709 8.2116288,4.4997751 l 0.254886,-0.04484 0.00222,1.8552525 0.00219,1.8552525 0.1240663,-0.3591758 C 8.7753671,7.2840661 9.1092677,6.9306676 9.6802188,6.6576634 9.9998048,6.504852 10.108832,6.4872944 10.571764,6.5140929 c 0.408557,0.02365 0.594576,0.070177 0.825355,0.2064356 0.568015,0.3353739 0.927664,0.8522275 1.040896,1.4958895 l 0.04484,0.254886 -1.855252,0.00454 C 8.9659173,8.479904 8.8030296,8.48997 9.0664287,8.572168 c 0.5821686,0.1816799 1.0120743,0.5947553 1.2738563,1.2239868 0.17077,0.4104752 0.108499,1.2129392 -0.12505,1.6114632 -0.3323768,0.567154 -0.8536601,0.919697 -1.5278516,1.033279 L 8.466484,12.4781 Z"
     id="path1" />
</svg>
