<?xml version="1.0" encoding="UTF-8" standalone="no"?>
<svg
   width="64"
   height="64"
   version="1.1"
   viewBox="0 0 16.933 16.933"
   id="svg7"
   sodipodi:docname="abcd.svg"
   inkscape:version="1.4.3 (0d15f75042, 2025-12-25)"
   xmlns:inkscape="http://www.inkscape.org/namespaces/inkscape"
   xmlns:sodipodi="http://sodipodi.sourceforge.net/DTD/sodipodi-0.dtd"
   xmlns="http://www.w3.org/2000/svg"
   xmlns:svg="http://www.w3.org/2000/svg"
   xmlns:rdf="http://www.w3.org/1999/02/22-rdf-syntax-ns#"
   xmlns:cc="http://creativecommons.org/ns#"
   xmlns:dc="http://purl.org/dc/elements/1.1/">
  <sodipodi:namedview
     id="namedview7"
     pagecolor="#9c4444"
     bordercolor="#000000"
     borderopacity="0.25"
     inkscape:showpageshadow="2"
     inkscape:pageopacity="0.0"
     inkscape:pagecheckerboard="0"
     inkscape:deskcolor="#d1d1d1"
     inkscape:zoom="4.3531261"
     inkscape:cx="43.417074"
     inkscape:cy="20.674797"
     inkscape:window-width="1226"
     inkscape:window-height="669"
     inkscape:window-x="106"
     inkscape:window-y="190"
     inkscape:window-maximized="0"
     inkscape:current-layer="svg7"
     showgrid="false" />
  <defs
     id="defs2">
    <filter
       style="color-interpolation-filters:sRGB;"
       inkscape:label="Blur"
       id="filter5421"
       x="-0.12256455"
       y="-0.12342654"
       width="1.2451291"
       height="1.2468531">
      <feGaussianBlur
         stdDeviation="0.5 0.5"
         result="blur"
         id="feGaussianBlur5419" />
    </filter>
  </defs>
  <metadata
     id="metadata2">
    <rdf:RDF>
      <cc:Work
         rdf:about="">
        <dc:format>image/svg+xml</dc:format>
        <dc:type
           rdf:resource="http://purl.org/dc/dcmitype/StillImage" />
      </cc:Work>
    </rdf:RDF>
  </metadata>
  <rect
     style="opacity:0.3;fill:none;fill-opacity:0.996424;stroke:#000000;stroke-width:0.955221;stroke-dasharray:none;stroke-opacity:1;filter:url(#filter5421)"
     id="rect1-2-7"
     width="13.687567"
     height="13.591975"
     x="1.6227165"
     y="1.6705122"
     rx="2.8442214"
     ry="2.965905" />
  <rect
     style="fill:none;fill-opacity:1;stroke:{{colors.primary.default.hex}};stroke-width:0.955221;stroke-dasharray:none;stroke-opacity:1"
     id="rect1-2"
     width="13.687567"
     height="13.591975"
     x="1.6227167"
     y="1.6705124"
     rx="2.8442214"
     ry="2.965905" />
  <g
     id="g7227"
     transform="matrix(0.1928487,0,0,0.1928487,2.680306,2.7333655)"
     style="fill:{{colors.primary.default.hex}};fill-opacity:1;stroke:none;stroke-width:0.675722;stroke-dasharray:none;stroke-opacity:0.6">
    <path
       style="color:#000000;fill:{{colors.primary.default.hex}};fill-opacity:1;stroke:none;stroke-width:0.675722;stroke-linecap:round;stroke-dasharray:none;stroke-opacity:0.6"
       d="m 19.720703,23.611328 a 2.32932,2.32932 0 0 0 -1.587891,0.8125 l -3.535156,4.160156 -1.75,-1.228515 a 2.32932,2.32932 0 0 0 -3.2441404,0.568359 2.32932,2.32932 0 0 0 0.5664064,3.244141 l 5.224609,3.669922 6.28711,-7.396485 a 2.32932,2.32932 0 0 0 -0.265625,-3.283203 2.32932,2.32932 0 0 0 -1.695313,-0.546875 z"
       id="path14" />
    <g
       id="path16"
       style="fill:{{colors.primary.default.hex}};fill-opacity:1;stroke:none;stroke-width:0.675722;stroke-dasharray:none;stroke-opacity:0.6">
      <path
         style="color:#000000;fill:{{colors.primary.default.hex}};fill-opacity:1;stroke:none;stroke-width:0.675722;stroke-linecap:round;stroke-dasharray:none;stroke-opacity:0.6"
         d="M 28.832479,16.13251 H 48.050681"
         id="path1" />
      <path
         style="color:#000000;fill:{{colors.primary.default.hex}};fill-opacity:1;stroke:none;stroke-width:0.675722;stroke-linecap:round;stroke-dasharray:none;stroke-opacity:0.6"
         d="m 28.832031,13.353516 a 2.7781949,2.7781949 0 0 0 -2.777344,2.779296 2.7781949,2.7781949 0 0 0 2.777344,2.777344 h 19.21875 a 2.7781949,2.7781949 0 0 0 2.777344,-2.777344 2.7781949,2.7781949 0 0 0 -2.777344,-2.779296 z"
         id="path2-9-2" />
    </g>
    <path
       style="color:#000000;fill:{{colors.primary.default.hex}};fill-opacity:1;stroke:none;stroke-width:0.675722;stroke-linecap:round;stroke-dasharray:none;stroke-opacity:0.6"
       d="m 19.720703,10.005859 a 2.32932,2.32932 0 0 0 -1.587891,0.8125 l -3.535156,4.158204 -1.75,-1.226563 A 2.32932,2.32932 0 0 0 9.6035156,14.316406 2.32932,2.32932 0 0 0 10.169922,17.5625 l 5.224609,3.667969 6.28711,-7.394531 a 2.32932,2.32932 0 0 0 -0.265625,-3.283204 2.32932,2.32932 0 0 0 -1.695313,-0.546875 z"
       id="path18" />
    <path
       style="color:#000000;fill:{{colors.primary.default.hex}};fill-opacity:1;stroke:none;stroke-width:0.675722;stroke-linecap:round;stroke-dasharray:none;stroke-opacity:0.6"
       d="m 19.720703,38.232422 a 2.32932,2.32932 0 0 0 -1.587891,0.8125 l -3.535156,4.160156 -1.75,-1.228516 a 2.32932,2.32932 0 0 0 -3.2441404,0.56836 2.32932,2.32932 0 0 0 0.5664064,3.24414 l 5.224609,3.669922 6.28711,-7.396484 a 2.32932,2.32932 0 0 0 -0.265625,-3.283203 2.32932,2.32932 0 0 0 -1.695313,-0.546875 z"
       id="path20" />
    <g
       id="path22"
       style="fill:{{colors.primary.default.hex}};fill-opacity:1;stroke:none;stroke-width:0.675722;stroke-dasharray:none;stroke-opacity:0.6">
      <path
         style="color:#000000;fill:{{colors.primary.default.hex}};fill-opacity:1;stroke:none;stroke-width:0.675722;stroke-linecap:round;stroke-dasharray:none;stroke-opacity:0.6"
         d="M 28.832479,29.220274 H 48.050681"
         id="path3-6" />
      <path
         style="color:#000000;fill:{{colors.primary.default.hex}};fill-opacity:1;stroke:none;stroke-width:0.675722;stroke-linecap:round;stroke-dasharray:none;stroke-opacity:0.6"
         d="m 28.832031,26.441406 a 2.7781949,2.7781949 0 0 0 -2.777344,2.779297 2.7781949,2.7781949 0 0 0 2.777344,2.777344 h 19.21875 a 2.7781949,2.7781949 0 0 0 2.777344,-2.777344 2.7781949,2.7781949 0 0 0 -2.777344,-2.779297 z"
         id="path4-7" />
    </g>
    <g
       id="path24"
       style="fill:{{colors.primary.default.hex}};fill-opacity:1;stroke:none;stroke-width:0.675722;stroke-dasharray:none;stroke-opacity:0.6">
      <path
         style="color:#000000;fill:{{colors.primary.default.hex}};fill-opacity:1;stroke:none;stroke-width:0.675722;stroke-linecap:round;stroke-dasharray:none;stroke-opacity:0.6"
         d="M 28.832479,42.308039 H 48.050681"
         id="path5" />
      <path
         style="color:#000000;fill:{{colors.primary.default.hex}};fill-opacity:1;stroke:none;stroke-width:0.675722;stroke-linecap:round;stroke-dasharray:none;stroke-opacity:0.6"
         d="m 28.832031,39.529297 a 2.7781949,2.7781949 0 0 0 -2.777344,2.779297 2.7781949,2.7781949 0 0 0 2.777344,2.777343 h 19.21875 a 2.7781949,2.7781949 0 0 0 2.777344,-2.777343 2.7781949,2.7781949 0 0 0 -2.777344,-2.779297 z"
         id="path6" />
    </g>
  </g>
</svg>
