<?xml version="1.0" encoding="UTF-8" standalone="no"?>
<svg
   width="64"
   height="64"
   version="1.1"
   viewBox="0 0 16.933 16.933"
   id="svg7"
   sodipodi:docname="abcd.svg"
   inkscape:version="1.4.3 (0d15f75042, 2025-12-25)"
   xmlns:inkscape="http://www.inkscape.org/namespaces/inkscape"
   xmlns:sodipodi="http://sodipodi.sourceforge.net/DTD/sodipodi-0.dtd"
   xmlns="http://www.w3.org/2000/svg"
   xmlns:svg="http://www.w3.org/2000/svg"
   xmlns:rdf="http://www.w3.org/1999/02/22-rdf-syntax-ns#"
   xmlns:cc="http://creativecommons.org/ns#"
   xmlns:dc="http://purl.org/dc/elements/1.1/">
  <sodipodi:namedview
     id="namedview7"
     pagecolor="#9c4444"
     bordercolor="#000000"
     borderopacity="0.25"
     inkscape:showpageshadow="2"
     inkscape:pageopacity="0.0"
     inkscape:pagecheckerboard="0"
     inkscape:deskcolor="#d1d1d1"
     inkscape:zoom="4.3531261"
     inkscape:cx="39.282115"
     inkscape:cy="25.498917"
     inkscape:window-width="1226"
     inkscape:window-height="669"
     inkscape:window-x="50"
     inkscape:window-y="194"
     inkscape:window-maximized="0"
     inkscape:current-layer="svg7"
     showgrid="false" />
  <defs
     id="defs2">
    <filter
       style="color-interpolation-filters:sRGB;"
       inkscape:label="Blur"
       id="filter5421"
       x="-0.12256455"
       y="-0.12342654"
       width="1.2451291"
       height="1.2468531">
      <feGaussianBlur
         stdDeviation="0.5 0.5"
         result="blur"
         id="feGaussianBlur5419" />
    </filter>
  </defs>
  <metadata
     id="metadata2">
    <rdf:RDF>
      <cc:Work
         rdf:about="">
        <dc:format>image/svg+xml</dc:format>
        <dc:type
           rdf:resource="http://purl.org/dc/dcmitype/StillImage" />
      </cc:Work>
    </rdf:RDF>
  </metadata>
  <rect
     style="opacity:0.3;fill:none;fill-opacity:0.996424;stroke:#000000;stroke-width:0.955221;stroke-dasharray:none;stroke-opacity:1;filter:url(#filter5421)"
     id="rect1-2-7"
     width="13.687567"
     height="13.591975"
     x="1.6227165"
     y="1.6705122"
     rx="2.8442214"
     ry="2.965905" />
  <rect
     style="fill:none;fill-opacity:1;stroke:{{colors.primary.default.hex}};stroke-width:0.955221;stroke-dasharray:none;stroke-opacity:1"
     id="rect1-2"
     width="13.687567"
     height="13.591975"
     x="1.6227167"
     y="1.6705124"
     rx="2.8442214"
     ry="2.965905" />
  <path
     style="fill:{{colors.primary.default.hex}};fill-opacity:1;stroke:none;stroke-width:0.123146;stroke-dasharray:none;stroke-opacity:0.6"
     d="M 7.808957,12.227457 C 7.738671,12.190807 7.706168,12.157157 7.6745636,12.08834 7.6393886,12.01173 7.6377266,11.941798 7.6692736,11.865705 7.6862496,11.824765 8.2575158,11.242621 9.6153356,9.8826018 11.08229,8.4132734 11.554443,7.9313089 11.609465,7.8470286 11.991457,7.2619137 11.997422,6.5421942 11.624933,5.9806065 11.178751,5.3079129 10.301316,5.0478182 9.5607751,5.3687355 9.2656238,5.4966399 9.315996,5.4499794 7.2810659,7.480471 6.2448476,8.5144299 5.3560809,9.4112744 5.3060295,9.4734591 5.1373953,9.6829712 5.0565803,9.9140034 5.0565803,10.186575 c 0,0.527154 0.3423922,0.969067 0.8583705,1.107866 0.1524788,0.04102 0.4107109,0.03824 0.5668145,-0.0062 0.1427611,-0.04056 0.2810894,-0.106195 0.3824155,-0.181457 0.039491,-0.02933 0.8445068,-0.827111 1.7889254,-1.7728423 1.1594297,-1.1610616 1.7275848,-1.7405603 1.7493278,-1.7842742 0.0672,-0.1350961 0.06887,-0.3175823 0.0042,-0.4636845 C 10.369863,7.003031 10.259751,6.8883556 10.175836,6.8457317 10.022048,6.7676158 9.8179247,6.77083 9.6716317,6.8536693 9.6278382,6.8784723 8.9895296,7.5040097 7.972513,8.518804 7.0765795,9.412782 6.3263483,10.152986 6.3053329,10.163703 c -0.052882,0.02697 -0.1868831,0.0244 -0.2427441,-0.0047 C 6.0002138,10.126563 5.9525462,10.073343 5.9234036,10.003597 5.8909966,9.926039 5.8930246,9.8584501 5.9300436,9.7822017 5.9509956,9.7391017 6.4914254,9.1894124 7.6175041,8.0658291 9.4133438,6.2740146 9.3400099,6.340917 9.6015075,6.2558844 9.6917803,6.2265304 9.7714068,6.213333 9.88989,6.2080804 c 0.214033,-0.00948 0.353169,0.019787 0.545549,0.1147717 0.122987,0.060725 0.170559,0.095749 0.281031,0.2069024 0.425402,0.4280312 0.436226,1.0646753 0.02601,1.529508 C 10.67845,8.1318325 9.8764319,8.9386122 8.9602458,9.8521068 7.2086287,11.59863 7.2188103,11.589178 6.9445515,11.723318 6.0268737,12.172197 4.8989875,11.698967 4.5749786,10.729095 4.5205316,10.566119 4.4810307,10.331563 4.4809871,10.170982 4.4808355,9.84015 4.6099136,9.4457042 4.8077681,9.1718843 4.8443634,9.1212411 5.7555562,8.1987392 6.8326424,7.12188 8.57956,5.3753314 8.8068801,5.1534615 8.9382398,5.0667615 9.2051301,4.890608 9.4769385,4.775548 9.7730419,4.7133773 c 0.1968711,-0.041336 0.6896121,-0.04198 0.8807351,-0.00116 0.78618,0.1679448 1.426904,0.7277738 1.680315,1.4681661 0.0865,0.2527093 0.116563,0.4375884 0.117887,0.7248535 0.0025,0.5184933 -0.132093,0.934197 -0.438733,1.3561773 -0.103916,0.1430049 -3.8834871,3.9322708 -3.9570065,3.9671568 -0.064039,0.03039 -0.1879248,0.02982 -0.2472816,-0.0011 z"
     id="path1" />
</svg>
