<?xml version="1.0" encoding="UTF-8" standalone="no"?>
<svg
   width="64"
   height="64"
   version="1.1"
   viewBox="0 0 16.933 16.933"
   id="svg7"
   sodipodi:docname="hb-icon.svg"
   inkscape:version="1.4.3 (0d15f75042, 2025-12-25)"
   xmlns:inkscape="http://www.inkscape.org/namespaces/inkscape"
   xmlns:sodipodi="http://sodipodi.sourceforge.net/DTD/sodipodi-0.dtd"
   xmlns="http://www.w3.org/2000/svg"
   xmlns:svg="http://www.w3.org/2000/svg"
   xmlns:rdf="http://www.w3.org/1999/02/22-rdf-syntax-ns#"
   xmlns:cc="http://creativecommons.org/ns#"
   xmlns:dc="http://purl.org/dc/elements/1.1/">
  <sodipodi:namedview
     id="namedview7"
     pagecolor="#9c4444"
     bordercolor="#000000"
     borderopacity="0.25"
     inkscape:showpageshadow="2"
     inkscape:pageopacity="0.0"
     inkscape:pagecheckerboard="0"
     inkscape:deskcolor="#d1d1d1"
     inkscape:zoom="4.3531261"
     inkscape:cx="43.417074"
     inkscape:cy="20.215357"
     inkscape:window-width="1226"
     inkscape:window-height="669"
     inkscape:window-x="75"
     inkscape:window-y="167"
     inkscape:window-maximized="0"
     inkscape:current-layer="svg7"
     showgrid="false" />
  <defs
     id="defs2">
    <filter
       style="color-interpolation-filters:sRGB;"
       inkscape:label="Blur"
       id="filter5421"
       x="-0.12256455"
       y="-0.12342654"
       width="1.2451291"
       height="1.2468531">
      <feGaussianBlur
         stdDeviation="0.5 0.5"
         result="blur"
         id="feGaussianBlur5419" />
    </filter>
    <filter
       style="color-interpolation-filters:sRGB"
       inkscape:label="Blur"
       id="filter5421-3"
       x="-0.12256455"
       y="-0.12342654"
       width="1.2451291"
       height="1.2468531">
      <feGaussianBlur
         stdDeviation="0.5 0.5"
         result="blur"
         id="feGaussianBlur5419-6" />
    </filter>
  </defs>
  <metadata
     id="metadata2">
    <rdf:RDF>
      <cc:Work
         rdf:about="">
        <dc:format>image/svg+xml</dc:format>
        <dc:type
           rdf:resource="http://purl.org/dc/dcmitype/StillImage" />
      </cc:Work>
    </rdf:RDF>
  </metadata>
  <rect
     style="opacity:0.3;fill:none;fill-opacity:0.996424;stroke:#000000;stroke-width:0.955221;stroke-dasharray:none;stroke-opacity:1;filter:url(#filter5421)"
     id="rect1-2-7"
     width="13.687567"
     height="13.591975"
     x="1.6227165"
     y="1.6705122"
     rx="2.8442214"
     ry="2.965905" />
  <rect
     style="fill:none;fill-opacity:1;stroke:{{colors.primary.default.hex}};stroke-width:0.955221;stroke-dasharray:none;stroke-opacity:1"
     id="rect1-2"
     width="13.687567"
     height="13.591975"
     x="1.6227167"
     y="1.6705124"
     rx="2.8442214"
     ry="2.965905" />
  <path
     id="path72"
     style="fill:{{colors.primary.default.hex}};fill-opacity:1;stroke:none;stroke-width:0.125115;stroke-dasharray:none;stroke-dashoffset:2.2;stroke-opacity:0.6"
     d="m 8.4582366,4.7356926 c -2.5243813,0 -2.5348348,4.192e-4 -2.6151346,0.063518 -0.1804556,0.141949 -0.1709342,-0.071138 -0.1709342,3.6531335 0,2.0552669 0.011774,3.4463809 0.028918,3.4914959 0.038437,0.101105 0.1468346,0.197762 0.2587239,0.23084 0.051619,0.01525 1.1793887,0.02517 2.5671091,0.0222 2.3761002,-0.0052 2.4787322,-0.0078 2.5603962,-0.06299 0.183013,-0.124046 0.173,0.08704 0.173,-3.6794732 0,-3.1404457 -0.0045,-3.4588787 -0.04957,-3.5353904 C 11.096469,4.7255619 11.246887,4.7356817 8.4582424,4.7356822 Z M 4.3666659,5.3429993 v 0.3795662 0.380083 H 4.7612083 5.1562672 V 5.7225655 5.3429993 H 4.7612083 Z m 7.3795971,0 v 0.3795662 0.380083 h 0.410036 0.410035 V 5.7225655 5.3429993 H 12.156299 Z M 7.0391234,5.6466522 h 0.1822949 0.1817792 v 0.470972 0.4704561 H 7.2214183 7.0391234 V 6.1176242 Z m 1.245081,0 H 8.4664996 8.6487951 V 6.9072258 8.1672833 H 8.4866396 c -0.089084,0 -0.1711582,-0.00899 -0.1822952,-0.020137 -0.011135,-0.011138 -0.02014,-0.5780166 -0.02014,-1.2600581 z m 1.2755503,0 H 9.7265569 9.8938775 V 6.5880803 7.5300246 H 9.7265569 9.5597546 V 6.5880803 Z M 4.3666659,6.7399065 V 7.1199897 7.4995566 H 4.7612083 5.1562672 V 7.1199897 6.7399065 H 4.7612083 Z m 7.3795971,0 v 0.3800832 0.3795669 h 0.410036 0.410035 V 7.1199897 6.7399065 h -0.410035 z m -4.7071396,0.152343 h 0.1828112 0.1828117 l -0.00827,0.4782026 -0.00827,0.4782015 -0.15286,0.00878 C 7.1512254,7.8623605 7.0727201,7.8569594 7.0608354,7.8450494 7.0489516,7.8331655 7.0391422,7.6136665 7.0391422,7.3575517 Z M 9.5597546,7.8336779 H 9.7265569 9.8938775 V 8.3041338 8.7751059 H 9.7265569 9.5597546 V 8.3041338 Z M 7.0391234,8.1373307 H 7.2214183 7.4031975 V 9.0787594 10.020185 H 7.2214183 7.0391234 V 9.0787594 Z M 4.3666659,8.1672827 V 8.5318732 8.8964628 H 4.7612083 5.1562672 V 8.5318721 8.1672817 H 4.7612083 Z m 7.3795971,0 v 0.3645908 0.3645904 h 0.410036 0.410035 V 8.5318727 8.1672825 H 12.156299 Z M 8.6487951,8.437885 V 9.6994913 10.961614 H 8.4659836 8.2836881 l 0.00775,-1.2528272 0.00774,-1.2528272 0.1745486,-0.00877 z m 0.9109595,0.6408736 h 0.1668023 0.1673206 v 1.1082294 1.108749 H 9.7265569 9.5597546 V 10.186989 Z M 4.3666659,9.5647073 V 9.9442739 10.323842 H 4.7612083 5.1562672 V 9.9442739 9.5647073 H 4.7612083 Z m 7.3795971,0 v 0.3795666 0.3795681 h 0.410036 0.410035 V 9.9442739 9.5647073 H 12.156299 Z M 4.3666659,10.961615 v 0.379567 0.379566 H 4.7612083 5.1562672 V 11.341182 10.961615 H 4.7612083 Z m 7.3795971,0 v 0.379567 0.379566 h 0.410036 0.410035 v -0.379566 -0.379567 h -0.410035 z" />
  <rect
     style="opacity:0.3;fill:none;fill-opacity:0.996424;stroke:#000000;stroke-width:0.955221;stroke-dasharray:none;stroke-opacity:1;filter:url(#filter5421-3)"
     id="rect1-2-7-5"
     width="13.687567"
     height="13.591975"
     x="1.6227165"
     y="1.6705122"
     rx="2.8442214"
     ry="2.965905"
     transform="matrix(0.43046721,0,0,0.43046721,9.5627021,9.5627021)" />
  <rect
     style="fill:none;fill-opacity:1;stroke:{{colors.primary.default.hex}};stroke-width:0.411191;stroke-dasharray:none;stroke-opacity:1"
     id="rect1-2-3"
     width="5.8920484"
     height="5.8508992"
     x="10.261228"
     y="10.281802"
     rx="1.224344"
     ry="1.2767248" />
  <path
     style="fill:{{colors.primary.default.hex}};fill-opacity:1;stroke:none;stroke-width:0.22645;stroke-dasharray:none;stroke-opacity:0.3"
     d="m 12.774974,15.184113 c -1.43e-4,-0.06122 -0.0084,-0.179784 -0.01848,-0.263452 -0.01655,-0.138267 -0.02787,-0.156756 -0.124364,-0.202959 -0.05839,-0.02796 -0.155776,-0.09029 -0.216418,-0.138531 l -0.110255,-0.08769 -0.207836,0.10511 c -0.114313,0.05782 -0.21815,0.105088 -0.230748,0.105077 -0.01259,-1.7e-5 -0.08141,-0.110232 -0.152916,-0.244925 -0.07149,-0.134691 -0.174873,-0.326816 -0.229715,-0.426944 l -0.09971,-0.182062 0.198478,-0.148478 0.198481,-0.14848 0.0018,-0.290625 0.0018,-0.290625 -0.198445,-0.149127 -0.198448,-0.14913 0.180386,-0.34301 c 0.09921,-0.188658 0.205155,-0.384685 0.235425,-0.435619 l 0.05503,-0.09259 0.220167,0.115854 0.220167,0.115853 0.129251,-0.09908 c 0.0711,-0.05449 0.169806,-0.115941 0.219377,-0.136563 0.07969,-0.03315 0.09227,-0.05531 0.108541,-0.191362 0.01013,-0.08463 0.01853,-0.210653 0.01867,-0.28005 l 2.77e-4,-0.126171 h 0.473018 0.473017 v 0.09955 c 0,0.05474 0.0084,0.180799 0.01879,0.280101 0.01693,0.162742 0.02711,0.184006 0.103085,0.215614 0.04636,0.01929 0.146383,0.07938 0.222264,0.133566 l 0.137962,0.09851 0.224626,-0.113416 0.224624,-0.113411 0.227482,0.436481 0.22748,0.436479 -0.19797,0.148764 -0.197971,0.148761 0.0029,0.29148 0.0029,0.291479 0.196006,0.146628 0.196003,0.146629 -0.19895,0.376024 c -0.109425,0.206815 -0.214604,0.402746 -0.233734,0.435401 -0.03394,0.05792 -0.04027,0.05666 -0.258572,-0.05174 L 14.19468,14.49433 14.067003,14.59219 c -0.07022,0.05383 -0.169077,0.115088 -0.219684,0.136138 -0.09065,0.0377 -0.09232,0.04218 -0.112609,0.302692 l -0.02059,0.264422 h -0.469303 -0.469206 l -2.76e-4,-0.111327 z m 0.813648,-1.238127 c 0.245049,-0.144211 0.369314,-0.376871 0.368864,-0.690628 -7.91e-4,-0.579267 -0.525806,-0.943559 -1.006761,-0.698617 -0.287149,0.146241 -0.428898,0.413688 -0.406495,0.766967 0.03564,0.562229 0.587603,0.891097 1.044392,0.622278 z"
     id="path792" />
</svg>
