<?xml version="1.0" encoding="UTF-8" standalone="no"?>
<svg
   width="64"
   height="64"
   version="1.1"
   viewBox="0 0 16.933 16.933"
   id="svg7"
   sodipodi:docname="abcd.svg"
   inkscape:version="1.4.3 (0d15f75042, 2025-12-25)"
   xmlns:inkscape="http://www.inkscape.org/namespaces/inkscape"
   xmlns:sodipodi="http://sodipodi.sourceforge.net/DTD/sodipodi-0.dtd"
   xmlns="http://www.w3.org/2000/svg"
   xmlns:svg="http://www.w3.org/2000/svg"
   xmlns:rdf="http://www.w3.org/1999/02/22-rdf-syntax-ns#"
   xmlns:cc="http://creativecommons.org/ns#"
   xmlns:dc="http://purl.org/dc/elements/1.1/">
  <sodipodi:namedview
     id="namedview7"
     pagecolor="#9c4444"
     bordercolor="#000000"
     borderopacity="0.25"
     inkscape:showpageshadow="2"
     inkscape:pageopacity="0.0"
     inkscape:pagecheckerboard="0"
     inkscape:deskcolor="#d1d1d1"
     inkscape:zoom="4.3531261"
     inkscape:cx="33.768836"
     inkscape:cy="30.552756"
     inkscape:window-width="1226"
     inkscape:window-height="669"
     inkscape:window-x="100"
     inkscape:window-y="206"
     inkscape:window-maximized="0"
     inkscape:current-layer="svg7"
     showgrid="false" />
  <defs
     id="defs2">
    <filter
       style="color-interpolation-filters:sRGB;"
       inkscape:label="Blur"
       id="filter5421"
       x="-0.12256455"
       y="-0.12342654"
       width="1.2451291"
       height="1.2468531">
      <feGaussianBlur
         stdDeviation="0.5 0.5"
         result="blur"
         id="feGaussianBlur5419" />
    </filter>
  </defs>
  <metadata
     id="metadata2">
    <rdf:RDF>
      <cc:Work
         rdf:about="">
        <dc:format>image/svg+xml</dc:format>
        <dc:type
           rdf:resource="http://purl.org/dc/dcmitype/StillImage" />
      </cc:Work>
    </rdf:RDF>
  </metadata>
  <rect
     style="opacity:0.3;fill:none;fill-opacity:0.996424;stroke:#000000;stroke-width:0.955221;stroke-dasharray:none;stroke-opacity:1;filter:url(#filter5421)"
     id="rect1-2-7"
     width="13.687567"
     height="13.591975"
     x="1.6227165"
     y="1.6705122"
     rx="2.8442214"
     ry="2.965905" />
  <rect
     style="fill:none;fill-opacity:1;stroke:{{colors.primary.default.hex}};stroke-width:0.955221;stroke-dasharray:none;stroke-opacity:1"
     id="rect1-2"
     width="13.687567"
     height="13.591975"
     x="1.6227167"
     y="1.6705124"
     rx="2.8442214"
     ry="2.965905" />
  <path
     style="fill:{{colors.primary.default.hex}};fill-opacity:1;stroke:none;stroke-width:0.117901;stroke-dasharray:none;stroke-opacity:0.6"
     d="M 8.7826336,12.45274 C 8.7432029,12.410719 8.7253824,12.408011 8.4120507,12.39653 7.7127044,12.370895 7.011469,12.213161 6.3994799,11.943826 5.691156,11.632093 5.4442852,11.18274 5.693285,10.658415 5.8712846,10.283599 6.2800758,10.062471 6.7273,10.099086 c 0.6336978,0.05188 1.2509526,0.52663 1.7602836,1.353891 0.077387,0.125692 0.1121414,0.169373 0.1047623,0.131663 -0.00607,-0.03103 -0.027644,-0.170691 -0.047932,-0.310349 -0.111267,-0.76586 -0.1161392,-1.3375406 -0.017312,-2.0313937 0.044762,-0.3142761 0.06388,-0.3573741 0.1585213,-0.3573741 0.099687,0 0.113879,0.048691 0.077573,0.2661479 -0.064633,0.3871281 -0.07839,0.5780114 -0.07707,1.0693029 0.0015,0.55149 0.027608,0.807452 0.149654,1.466228 0.095052,0.513057 0.07899,0.496178 0.1847695,0.1942 0.3258839,-0.930329 0.7412956,-1.641378 1.0860953,-1.85904 0.250125,-0.1578988 0.605875,-0.1798808 0.872858,-0.05394 0.145644,0.068694 0.227385,0.14759 0.294774,0.284474 0.05559,0.112898 0.06118,0.139843 0.05953,0.28617 -0.0021,0.188079 -0.05844,0.36595 -0.178356,0.563311 -0.387612,0.638022 -1.15524,1.124967 -1.9832666,1.258085 -0.1737933,0.02794 -0.1922943,0.03495 -0.2201327,0.08346 -0.038236,0.06662 -0.1115821,0.07043 -0.1694081,0.0088 z M 8.6162471,8.5796842 C 8.406503,8.5064258 8.2844771,8.4026483 8.1779591,8.2069395 8.1118558,8.0854854 8.0672871,7.8690819 8.0826654,7.7442359 l 0.011993,-0.097382 -0.071717,0.067648 C 7.9834966,7.7517079 7.8962062,7.8082265 7.8289637,7.8400973 7.7188628,7.8922826 7.6889341,7.8980169 7.5280174,7.8977535 7.3765678,7.8975272 7.3349957,7.89041 7.255285,7.8511798 7.1261204,7.7876145 7.0091185,7.6649223 6.9430694,7.5237792 6.7447317,7.0999418 6.9884391,6.6430784 7.4772063,6.5224633 L 7.6019247,6.4916856 7.4735452,6.4015288 C 7.2396037,6.2372383 7.1441107,6.051387 7.1552292,5.7820144 c 0.0051,-0.123848 0.017811,-0.1839334 0.056345,-0.2666221 0.063367,-0.135975 0.1749399,-0.257007 0.301615,-0.327186 0.091392,-0.050632 0.1147462,-0.055107 0.2875618,-0.055107 0.2202105,0 0.3109082,0.032367 0.4500218,0.1605973 l 0.08604,0.079308 v -0.141789 c 0,-0.3437374 0.187128,-0.6320651 0.4869374,-0.7502767 0.1502918,-0.059257 0.4376383,-0.05931 0.5851851,-1.101e-4 0.3180894,0.1276338 0.5015642,0.4220045 0.4859708,0.7797034 -0.00361,0.079961 -0.00541,0.1453641 -0.00424,0.1453403 0.00108,-2.53e-5 0.035017,-0.026537 0.075232,-0.058919 0.1075899,-0.08663 0.2755779,-0.1609435 0.4236139,-0.1873988 0.428508,-0.076579 0.828561,0.2203091 0.900074,0.6679646 0.03831,0.2397602 -0.04311,0.4675178 -0.236566,0.661759 -0.136489,0.1370482 -0.30771,0.2275388 -0.468535,0.2476242 l -0.112855,0.014096 0.06942,0.043008 c 0.117459,0.072772 0.255679,0.2394501 0.28754,0.3467442 0.06295,0.2119783 0.02421,0.5203156 -0.08986,0.7149458 -0.107522,0.1835419 -0.334688,0.3390028 -0.529321,0.3622712 -0.175606,0.020993 -0.3735954,-0.071364 -0.4627367,-0.2158573 -0.054616,-0.088542 -0.074389,-0.094811 -0.074389,-0.023598 0,0.086672 -0.1190115,0.3084292 -0.2226051,0.4147859 -0.06084,0.062449 -0.1430714,0.1207433 -0.2236498,0.1585386 -0.1101168,0.051648 -0.1517232,0.06057 -0.3061247,0.065632 -0.1485729,0.00487 -0.1997466,-0.00153 -0.3036503,-0.037788 z M 9.3162762,7.1593698 C 9.6625807,6.9928084 9.8552273,6.5559516 9.7088784,6.2690827 9.5910693,6.0381591 9.2540949,5.9199845 8.916122,5.9910707 8.4226125,6.0948706 8.1833333,6.5682367 8.4360692,6.9407588 8.5132942,7.0545871 8.6029807,7.1259186 8.7429613,7.184846 8.8393033,7.225404 8.8765609,7.230771 9.0233491,7.225229 9.1669645,7.219809 9.2113789,7.209822 9.3162762,7.1593698 Z"
     id="path1" />
</svg>
