<?xml version="1.0" encoding="UTF-8" standalone="no"?>
<svg
   width="64"
   height="64"
   version="1.1"
   viewBox="0 0 16.933 16.933"
   id="svg7"
   sodipodi:docname="abcd.svg"
   inkscape:version="1.4.3 (0d15f75042, 2025-12-25)"
   xmlns:inkscape="http://www.inkscape.org/namespaces/inkscape"
   xmlns:sodipodi="http://sodipodi.sourceforge.net/DTD/sodipodi-0.dtd"
   xmlns="http://www.w3.org/2000/svg"
   xmlns:svg="http://www.w3.org/2000/svg"
   xmlns:rdf="http://www.w3.org/1999/02/22-rdf-syntax-ns#"
   xmlns:cc="http://creativecommons.org/ns#"
   xmlns:dc="http://purl.org/dc/elements/1.1/">
  <sodipodi:namedview
     id="namedview7"
     pagecolor="#9c4444"
     bordercolor="#000000"
     borderopacity="0.25"
     inkscape:showpageshadow="2"
     inkscape:pageopacity="0.0"
     inkscape:pagecheckerboard="0"
     inkscape:deskcolor="#d1d1d1"
     inkscape:zoom="4.3531261"
     inkscape:cx="39.282115"
     inkscape:cy="25.498917"
     inkscape:window-width="1226"
     inkscape:window-height="669"
     inkscape:window-x="50"
     inkscape:window-y="194"
     inkscape:window-maximized="0"
     inkscape:current-layer="svg7"
     showgrid="false" />
  <defs
     id="defs2">
    <filter
       style="color-interpolation-filters:sRGB;"
       inkscape:label="Blur"
       id="filter5421"
       x="-0.12256455"
       y="-0.12342654"
       width="1.2451291"
       height="1.2468531">
      <feGaussianBlur
         stdDeviation="0.5 0.5"
         result="blur"
         id="feGaussianBlur5419" />
    </filter>
  </defs>
  <metadata
     id="metadata2">
    <rdf:RDF>
      <cc:Work
         rdf:about="">
        <dc:format>image/svg+xml</dc:format>
        <dc:type
           rdf:resource="http://purl.org/dc/dcmitype/StillImage" />
      </cc:Work>
    </rdf:RDF>
  </metadata>
  <rect
     style="opacity:0.3;fill:none;fill-opacity:0.996424;stroke:#000000;stroke-width:0.955221;stroke-dasharray:none;stroke-opacity:1;filter:url(#filter5421)"
     id="rect1-2-7"
     width="13.687567"
     height="13.591975"
     x="1.6227165"
     y="1.6705122"
     rx="2.8442214"
     ry="2.965905" />
  <rect
     style="fill:none;fill-opacity:1;stroke:{{colors.primary.default.hex}};stroke-width:0.955221;stroke-dasharray:none;stroke-opacity:1"
     id="rect1-2"
     width="13.687567"
     height="13.591975"
     x="1.6227167"
     y="1.6705124"
     rx="2.8442214"
     ry="2.965905" />
  <path
     style="fill:{{colors.primary.default.hex}};fill-opacity:1;stroke-width:0.141899"
     d="M 6.7774271,11.384044 C 5.8256033,11.008964 4.9008709,10.107598 4.6678707,9.3277918 4.5718895,9.0065621 4.4933595,8.3839851 4.4933595,7.9442873 V 7.1448379 h 0.4966427 0.4966421 v 0.7140474 c 0,0.9226733 0.2585953,1.5221027 0.8993371,2.0846814 0.8754364,0.7686433 1.5403871,0.8422573 4.7574036,0.5266713 1.098059,-0.107718 1.122108,0.0791 0.09233,0.717186 -0.632511,0.391929 -0.798925,0.427025 -2.1880643,0.461478 -1.2579352,0.03121 -1.628711,-0.01206 -2.2702236,-0.264858 z M 7.686062,9.7946272 C 6.8697266,9.4751903 6.6449074,9.2722792 6.4016851,8.6354115 6.1203494,7.8987432 6.1891324,6.7546819 6.5476551,6.207507 7.0035673,5.511697 7.5144241,5.3779575 9.9197335,5.3247168 l 2.2336715,-0.049442 0.143118,0.3764269 c 0.07871,0.2070354 0.143117,0.4305146 0.143117,0.4966209 0,0.066107 -1.027399,0.1417676 -2.283112,0.1681346 C 7.9561257,6.3626631 7.8635966,6.3765353 7.6023666,6.6993898 7.2335379,7.1552249 7.2387234,8.1271202 7.6121192,8.5279175 7.913308,8.8512046 9.1113451,9.1130003 9.318511,8.9007981 9.3851651,8.8325237 9.4830677,8.6010645 9.5360734,8.3864438 9.6307792,8.0029716 9.6210629,7.9962249 8.9740689,7.9962249 c -0.7106124,0 -0.968171,-0.254529 -0.6479701,-0.6403473 C 8.5556583,7.0792751 10.822904,7.0497934 10.915218,7.3222104 11.030726,7.6630686 10.236247,9.7421549 9.9472431,9.8553186 9.5297145,10.018809 8.1653818,9.9821909 7.6860586,9.7946272 Z"
     id="path1714" />
</svg>
