<?xml version="1.0" encoding="UTF-8" standalone="no"?>
<svg
   width="64"
   height="64"
   version="1.1"
   viewBox="0 0 16.933 16.933"
   id="svg7"
   sodipodi:docname="calibre-ebook-edit.svg"
   inkscape:version="1.4.3 (0d15f75042, 2025-12-25)"
   xmlns:inkscape="http://www.inkscape.org/namespaces/inkscape"
   xmlns:sodipodi="http://sodipodi.sourceforge.net/DTD/sodipodi-0.dtd"
   xmlns="http://www.w3.org/2000/svg"
   xmlns:svg="http://www.w3.org/2000/svg"
   xmlns:rdf="http://www.w3.org/1999/02/22-rdf-syntax-ns#"
   xmlns:cc="http://creativecommons.org/ns#"
   xmlns:dc="http://purl.org/dc/elements/1.1/">
  <sodipodi:namedview
     id="namedview7"
     pagecolor="#9c4444"
     bordercolor="#000000"
     borderopacity="0.25"
     inkscape:showpageshadow="2"
     inkscape:pageopacity="0.0"
     inkscape:pagecheckerboard="0"
     inkscape:deskcolor="#d1d1d1"
     inkscape:zoom="4.3531261"
     inkscape:cx="43.417074"
     inkscape:cy="19.755917"
     inkscape:window-width="1226"
     inkscape:window-height="669"
     inkscape:window-x="127"
     inkscape:window-y="154"
     inkscape:window-maximized="0"
     inkscape:current-layer="svg7"
     showgrid="false" />
  <defs
     id="defs2">
    <filter
       style="color-interpolation-filters:sRGB;"
       inkscape:label="Blur"
       id="filter5421"
       x="-0.12256455"
       y="-0.12342654"
       width="1.2451291"
       height="1.2468531">
      <feGaussianBlur
         stdDeviation="0.5 0.5"
         result="blur"
         id="feGaussianBlur5419" />
    </filter>
    <filter
       style="color-interpolation-filters:sRGB"
       inkscape:label="Blur"
       id="filter5421-3"
       x="-0.12256455"
       y="-0.12342654"
       width="1.2451291"
       height="1.2468531">
      <feGaussianBlur
         stdDeviation="0.5 0.5"
         result="blur"
         id="feGaussianBlur5419-6" />
    </filter>
  </defs>
  <metadata
     id="metadata2">
    <rdf:RDF>
      <cc:Work
         rdf:about="">
        <dc:format>image/svg+xml</dc:format>
        <dc:type
           rdf:resource="http://purl.org/dc/dcmitype/StillImage" />
      </cc:Work>
    </rdf:RDF>
  </metadata>
  <rect
     style="opacity:0.3;fill:none;fill-opacity:0.996424;stroke:#000000;stroke-width:0.955221;stroke-dasharray:none;stroke-opacity:1;filter:url(#filter5421)"
     id="rect1-2-7"
     width="13.687567"
     height="13.591975"
     x="1.6227165"
     y="1.6705122"
     rx="2.8442214"
     ry="2.965905" />
  <rect
     style="fill:none;fill-opacity:1;stroke:{{colors.primary.default.hex}};stroke-width:0.955221;stroke-dasharray:none;stroke-opacity:1"
     id="rect1-2"
     width="13.687567"
     height="13.591975"
     x="1.6227167"
     y="1.6705124"
     rx="2.8442214"
     ry="2.965905" />
  <path
     id="path2-1"
     style="fill:{{colors.primary.default.hex}};fill-opacity:1;stroke:none;stroke-width:0.130312;stroke-dasharray:none;stroke-opacity:0.6"
     d="m 11.464939,4.273784 -0.05804,0.224465 C 11.290372,4.9462462 10.998667,5.468471 10.66958,5.8185893 L 10.499482,5.9993372 10.185746,5.8336513 C 9.6251037,5.5374615 9.0680422,5.3957425 8.4660713,5.3957425 c -0.6525116,0 -1.2762636,0.1694188 -1.8497254,0.5025665 L 6.4411092,6.0000715 6.3073848,5.8696538 C 6.1340887,5.7006164 5.912827,5.4009667 5.7802042,5.1562146 5.66679,4.9469118 5.4915733,4.4744846 5.4881426,4.3685662 c -0.00199,-0.062814 -0.00303,-0.063029 -0.027921,-0.00515 -0.040933,0.095259 -0.033487,0.5145371 0.014328,0.8093233 0.060412,0.3724752 0.1380609,0.608285 0.3137365,0.9533339 L 5.938174,6.4203456 5.7544883,6.6165234 C 4.8996985,7.5302952 4.6021602,8.9629276 5.0123936,10.187393 c 0.4177212,1.246814 1.5110093,2.195075 2.7986508,2.427604 0.3221608,0.05817 0.9580154,0.05911 1.2865412,0.0019 C 11.016811,12.282155 12.337737,10.459558 12.067799,8.5187892 11.973302,7.8393404 11.621212,7.0906078 11.168103,6.606234 L 10.994333,6.4207102 11.142752,6.1249751 C 11.224262,5.9622367 11.325807,5.708 11.36832,5.5599549 11.462294,5.2327031 11.51988,4.6993924 11.488085,4.4534261 Z m -0.428356,4.4415438 c 0.03588,0 0.141494,0.2852338 0.169726,0.4584825 C 11.302332,9.763009 10.860892,10.3825 10.245628,10.522438 9.719989,10.641992 9.2517951,10.509965 8.9157359,10.146984 8.8223524,10.046116 8.757156,9.9526165 8.7706236,9.9394153 8.8019539,9.9087124 9.5459382,9.4967293 9.9168274,9.3045951 10.073099,9.2236418 10.384641,9.0580759 10.609328,8.9364872 10.834014,8.8148984 11.026275,8.7153278 11.036583,8.7153278 Z m -5.1557188,0.013593 c 0.015344,-0.00949 0.2602905,0.1084651 0.5440799,0.2619373 0.2837906,0.1534725 0.5560835,0.2966279 0.6054317,0.3181458 0.04935,0.021512 0.2378606,0.1236817 0.4188057,0.2270362 0.1809446,0.1033546 0.4201642,0.2378294 0.5315893,0.2986738 l 0.2027905,0.1105804 -0.061351,0.085595 C 7.9625324,10.255136 7.6727603,10.445782 7.3668904,10.52721 7.0635546,10.607969 6.6691141,10.563861 6.3812275,10.416998 6.1963166,10.322668 5.9297775,10.054247 5.8422906,9.8743894 5.7390213,9.6620895 5.68968,9.4048981 5.7155466,9.214221 5.7386003,9.0442635 5.8366914,8.7562208 5.8808642,8.7289208 Z m 4.0385353,0.6131464 c -0.025974,9.205e-4 -0.071721,0.025581 -0.1700928,0.080087 l -0.182218,0.1006601 0.058047,0.1719293 c 0.043181,0.1279021 0.055266,0.2310397 0.047391,0.4044794 -0.00919,0.202298 -0.00529,0.22591 0.030491,0.179648 C 9.8578622,10.078569 10.02111,9.5070664 9.9598126,9.3795386 9.9480041,9.3549963 9.9396061,9.3413477 9.9194072,9.3420659 Z m -2.9327411,0.00113 c -0.045407,0 -0.037709,0.2312087 0.014696,0.4323968 0.025189,0.096702 0.089226,0.257515 0.142174,0.35709 l 0.096252,0.181117 0.017632,-0.283248 c 0.00975,-0.1558063 0.03964,-0.334187 0.066128,-0.3960276 L 7.3716642,9.522117 7.1945907,9.4328455 C 7.0971386,9.3836414 7.0035781,9.3431965 6.9866584,9.3431972 Z" />
  <rect
     style="opacity:0.3;fill:none;fill-opacity:0.996424;stroke:#000000;stroke-width:0.955221;stroke-dasharray:none;stroke-opacity:1;filter:url(#filter5421-3)"
     id="rect1-2-7-5"
     width="13.687567"
     height="13.591975"
     x="1.6227165"
     y="1.6705122"
     rx="2.8442214"
     ry="2.965905"
     transform="matrix(0.43046721,0,0,0.43046721,9.5627021,9.5627021)" />
  <rect
     style="fill:none;fill-opacity:1;stroke:{{colors.primary.default.hex}};stroke-width:0.411191;stroke-dasharray:none;stroke-opacity:1"
     id="rect1-2-3"
     width="5.8920484"
     height="5.8508992"
     x="10.261228"
     y="10.281802"
     rx="1.224344"
     ry="1.2767248" />
  <path
     style="fill:{{colors.primary.default.hex}};fill-opacity:1;stroke:none;stroke-width:0.111361;stroke-dasharray:none;stroke-opacity:0.6"
     d="m 13.533272,11.301432 c -0.821078,0 -1.499455,0.67236 -1.499455,1.494376 0,0.312433 0.105512,0.599869 0.271091,0.840598 l -0.999647,1.001912 a 0.27258117,0.27319879 0 0 0 0.381235,0.390574 l 0.999645,-1.00191 c 0.240536,0.165986 0.534861,0.263213 0.847157,0.263213 0.821105,0 1.490994,-0.672359 1.490994,-1.494375 0,-0.822014 -0.669889,-1.494374 -1.490994,-1.494374 z m 0,0.54341 c 0.52792,0 0.948815,0.422446 0.948815,0.950966 0,0.528491 -0.420895,0.950965 -0.948815,0.950965 -0.527922,0 -0.948816,-0.422474 -0.948816,-0.950965 0,-0.52852 0.420894,-0.950966 0.948816,-0.950966 z"
     id="path8" />
</svg>
