<?xml version="1.0" encoding="UTF-8" standalone="no"?>
<svg
   width="64"
   height="64"
   version="1.1"
   viewBox="0 0 16.933 16.933"
   id="svg7"
   sodipodi:docname="abcd.svg"
   inkscape:version="1.4.3 (0d15f75042, 2025-12-25)"
   xmlns:inkscape="http://www.inkscape.org/namespaces/inkscape"
   xmlns:sodipodi="http://sodipodi.sourceforge.net/DTD/sodipodi-0.dtd"
   xmlns="http://www.w3.org/2000/svg"
   xmlns:svg="http://www.w3.org/2000/svg"
   xmlns:rdf="http://www.w3.org/1999/02/22-rdf-syntax-ns#"
   xmlns:cc="http://creativecommons.org/ns#"
   xmlns:dc="http://purl.org/dc/elements/1.1/">
  <sodipodi:namedview
     id="namedview7"
     pagecolor="#9c4444"
     bordercolor="#000000"
     borderopacity="0.25"
     inkscape:showpageshadow="2"
     inkscape:pageopacity="0.0"
     inkscape:pagecheckerboard="0"
     inkscape:deskcolor="#d1d1d1"
     inkscape:zoom="4.3531261"
     inkscape:cx="40.890155"
     inkscape:cy="24.120597"
     inkscape:window-width="1226"
     inkscape:window-height="669"
     inkscape:window-x="94"
     inkscape:window-y="173"
     inkscape:window-maximized="0"
     inkscape:current-layer="svg7"
     showgrid="false" />
  <defs
     id="defs2">
    <filter
       style="color-interpolation-filters:sRGB;"
       inkscape:label="Blur"
       id="filter5421"
       x="-0.12256455"
       y="-0.12342654"
       width="1.2451291"
       height="1.2468531">
      <feGaussianBlur
         stdDeviation="0.5 0.5"
         result="blur"
         id="feGaussianBlur5419" />
    </filter>
  </defs>
  <metadata
     id="metadata2">
    <rdf:RDF>
      <cc:Work
         rdf:about="">
        <dc:format>image/svg+xml</dc:format>
        <dc:type
           rdf:resource="http://purl.org/dc/dcmitype/StillImage" />
      </cc:Work>
    </rdf:RDF>
  </metadata>
  <rect
     style="opacity:0.3;fill:none;fill-opacity:0.996424;stroke:#000000;stroke-width:0.955221;stroke-dasharray:none;stroke-opacity:1;filter:url(#filter5421)"
     id="rect1-2-7"
     width="13.687567"
     height="13.591975"
     x="1.6227165"
     y="1.6705122"
     rx="2.8442214"
     ry="2.965905" />
  <rect
     style="fill:none;fill-opacity:1;stroke:{{colors.primary.default.hex}};stroke-width:0.955221;stroke-dasharray:none;stroke-opacity:1"
     id="rect1-2"
     width="13.687567"
     height="13.591975"
     x="1.6227167"
     y="1.6705124"
     rx="2.8442214"
     ry="2.965905" />
  <path
     id="path102"
     style="fill:{{colors.primary.default.hex}};fill-opacity:1;stroke:none;stroke-width:0.130312;stroke-dasharray:none;stroke-dashoffset:2.2;stroke-opacity:0.6"
     d="m 7.2821593,4.3536544 c -1.9414833,0 -1.8747215,-0.00635 -1.9879042,0.1852729 -0.04574,0.077443 -0.050102,0.4242408 -0.050102,3.9105679 0,4.2244338 -0.013561,3.9437338 0.1931013,4.0697458 0.095632,0.05828 0.1765094,0.05991 3.0233461,0.06003 3.1869715,1.23e-4 3.0221555,0.009 3.1647765,-0.172226 0.06389,-0.08121 0.06365,-0.09064 0.06365,-2.7477837 V 6.9934085 h -1.15859 C 9.2313935,6.9933545 9.2091559,6.9897445 9.1035714,6.7783865 9.0553268,6.6818175 9.0498627,6.5538366 9.0498125,5.5122666 V 4.3536544 Z m 2.1361223,0.046971 v 0.9910808 c 0,1.0817946 0.00554,1.1233435 0.1764011,1.2160188 0.069174,0.037531 0.2568525,0.045953 1.0620583,0.046971 l 0.978033,0.00104 -0.522939,-0.5448584 C 10.824032,5.8112376 10.325194,5.3036118 10.003326,4.9830491 Z M 6.6866748,8.313281 H 8.4663421 10.246531 V 8.5434366 8.7735928 H 8.4663421 6.6866748 V 8.5434363 Z m 0,0.8590407 H 8.4663421 10.246531 V 9.4181346 9.6634271 H 8.4663421 6.6866748 V 9.4181338 Z m 0,0.8903563 h 1.7796673 1.7801889 v 0.24529 0.245815 H 8.4663421 6.6866748 v -0.245815 z m 0,0.889831 h 1.11999 1.1205128 v 0.245814 0.24529 h -1.1205128 -1.11999 v -0.24529 z" />
</svg>
