<?xml version="1.0" encoding="UTF-8" standalone="no"?>
<svg
   width="64"
   height="64"
   version="1.1"
   viewBox="0 0 16.933 16.933"
   id="svg7"
   sodipodi:docname="abcd.svg"
   inkscape:version="1.4.3 (0d15f75042, 2025-12-25)"
   xmlns:inkscape="http://www.inkscape.org/namespaces/inkscape"
   xmlns:sodipodi="http://sodipodi.sourceforge.net/DTD/sodipodi-0.dtd"
   xmlns="http://www.w3.org/2000/svg"
   xmlns:svg="http://www.w3.org/2000/svg"
   xmlns:rdf="http://www.w3.org/1999/02/22-rdf-syntax-ns#"
   xmlns:cc="http://creativecommons.org/ns#"
   xmlns:dc="http://purl.org/dc/elements/1.1/">
  <sodipodi:namedview
     id="namedview7"
     pagecolor="#9c4444"
     bordercolor="#000000"
     borderopacity="0.25"
     inkscape:showpageshadow="2"
     inkscape:pageopacity="0.0"
     inkscape:pagecheckerboard="0"
     inkscape:deskcolor="#d1d1d1"
     inkscape:zoom="4.3531261"
     inkscape:cx="39.282115"
     inkscape:cy="25.498917"
     inkscape:window-width="1226"
     inkscape:window-height="669"
     inkscape:window-x="50"
     inkscape:window-y="194"
     inkscape:window-maximized="0"
     inkscape:current-layer="svg7"
     showgrid="false" />
  <defs
     id="defs2">
    <filter
       style="color-interpolation-filters:sRGB;"
       inkscape:label="Blur"
       id="filter5421"
       x="-0.12256455"
       y="-0.12342654"
       width="1.2451291"
       height="1.2468531">
      <feGaussianBlur
         stdDeviation="0.5 0.5"
         result="blur"
         id="feGaussianBlur5419" />
    </filter>
  </defs>
  <metadata
     id="metadata2">
    <rdf:RDF>
      <cc:Work
         rdf:about="">
        <dc:format>image/svg+xml</dc:format>
        <dc:type
           rdf:resource="http://purl.org/dc/dcmitype/StillImage" />
      </cc:Work>
    </rdf:RDF>
  </metadata>
  <rect
     style="opacity:0.3;fill:none;fill-opacity:0.996424;stroke:#000000;stroke-width:0.955221;stroke-dasharray:none;stroke-opacity:1;filter:url(#filter5421)"
     id="rect1-2-7"
     width="13.687567"
     height="13.591975"
     x="1.6227165"
     y="1.6705122"
     rx="2.8442214"
     ry="2.965905" />
  <rect
     style="fill:none;fill-opacity:1;stroke:{{colors.primary.default.hex}};stroke-width:0.955221;stroke-dasharray:none;stroke-opacity:1"
     id="rect1-2"
     width="13.687567"
     height="13.591975"
     x="1.6227167"
     y="1.6705124"
     rx="2.8442214"
     ry="2.965905" />
  <path
     id="path635"
     style="fill:{{colors.primary.default.hex}};fill-opacity:1;stroke:none;stroke-width:0.124106;stroke-dasharray:none;stroke-opacity:0.6"
     d="m 8.466515,4.3706492 c -0.042457,0 -0.9638125,0.4433401 -2.0474287,0.9852002 -1.6888327,0.8444979 -1.9769489,0.9982622 -2.0174389,1.076563 -0.041003,0.07929 -0.047243,0.3511881 -0.047243,2.0600637 0,1.9585159 3.677e-4,1.9691479 0.065231,2.0516409 0.044895,0.05707 0.6665713,0.38426 1.9944526,1.049719 1.4721379,0.737755 1.9566006,0.967216 2.0448146,0.968506 0.091942,0.0013 0.5120536,-0.196544 2.0524264,-0.966806 1.336005,-0.66807 1.957046,-0.994219 2.002039,-1.051419 0.06488,-0.08249 0.06523,-0.09312 0.06523,-2.0516409 0,-1.7088756 -0.0064,-1.9807738 -0.04722,-2.0600637 -0.0405,-0.078301 -0.32862,-0.2320651 -2.017451,-1.076563 C 9.4303012,4.8139893 8.5089724,4.3706492 8.466515,4.3706492 Z m 0.01022,0.3880061 1.865515,0.9379838 1.865539,0.9379844 5.79e-4,1.8508498 6.29e-4,1.8508767 -0.423552,0.200968 c -0.232945,0.110525 -1.074991,0.52632 -1.8712267,0.923978 L 8.4665268,12.184307 6.5959384,11.257589 4.7253493,10.330869 4.7247188,8.4825558 4.7240884,6.6342175 6.6004365,5.6964364 Z m -0.01022,2.3809876 c -1.3465246,0 -2.6930657,0.013383 -2.7198494,0.040163 -0.027569,0.027566 -0.036965,0.3636799 -0.036965,1.322311 0,1.1274123 0.00595,1.291273 0.048409,1.3337285 0.043256,0.043257 0.3313061,0.048408 2.7084067,0.048408 2.3770997,0 2.6651237,-0.00523 2.7083797,-0.048408 0.04246,-0.042456 0.04841,-0.2063162 0.04841,-1.3337285 1e-6,-0.9586311 -0.0094,-1.2947435 -0.03696,-1.322311 -0.02678,-0.026782 -1.3732981,-0.040163 -2.7198227,-0.040163 z m 0.9406226,0.4318229 -0.00827,0.7020543 -0.00831,0.7020548 -0.2237512,0.00905 c -0.1634837,0.00662 -0.2279511,-0.00187 -0.239342,-0.031561 -0.00858,-0.022342 -0.011841,-0.3382878 -0.00726,-0.7021052 l 0.00833,-0.6614856 0.2393051,-0.00901 z m -3.2661987,9.45e-5 0.2387203,0.00901 0.2387201,0.00898 0.00873,0.6314461 c 0.00479,0.3472937 0.00107,0.6626427 -0.00831,0.7007599 -0.015566,0.063428 -0.034804,0.06929 -0.2268973,0.06929 -0.1154424,0 -0.2191553,-0.00923 -0.2304491,-0.020527 -0.011292,-0.011297 -0.020525,-0.3306777 -0.020525,-0.7097437 z m 0.9240545,0 0.2387211,0.00901 0.2387198,0.00898 v 0.6930514 0.6930477 l -0.2169519,0.00893 C 7.2061542,8.9894782 7.0987284,8.9836751 7.0867621,8.971727 7.0747949,8.9597598 7.0649928,8.6398338 7.0649928,8.2607675 Z m 0.9394817,0.017984 H 8.2354814 8.466515 v 0.6930488 0.6930476 l -0.223776,0.00905 C 8.0792416,8.9913164 8.0147736,8.982851 8.0033833,8.9531325 7.9948095,8.9307902 7.9915452,8.6148444 7.9961362,8.2510272 Z" />
</svg>
