<?xml version="1.0" encoding="UTF-8" standalone="no"?>
<svg
   width="64"
   height="64"
   version="1.1"
   viewBox="0 0 16.933 16.933"
   id="svg7"
   sodipodi:docname="abcd.svg"
   inkscape:version="1.4.3 (0d15f75042, 2025-12-25)"
   xmlns:inkscape="http://www.inkscape.org/namespaces/inkscape"
   xmlns:sodipodi="http://sodipodi.sourceforge.net/DTD/sodipodi-0.dtd"
   xmlns="http://www.w3.org/2000/svg"
   xmlns:svg="http://www.w3.org/2000/svg"
   xmlns:rdf="http://www.w3.org/1999/02/22-rdf-syntax-ns#"
   xmlns:cc="http://creativecommons.org/ns#"
   xmlns:dc="http://purl.org/dc/elements/1.1/">
  <sodipodi:namedview
     id="namedview7"
     pagecolor="#9c4444"
     bordercolor="#000000"
     borderopacity="0.25"
     inkscape:showpageshadow="2"
     inkscape:pageopacity="0.0"
     inkscape:pagecheckerboard="0"
     inkscape:deskcolor="#d1d1d1"
     inkscape:zoom="4.3531261"
     inkscape:cx="39.282115"
     inkscape:cy="25.498917"
     inkscape:window-width="1226"
     inkscape:window-height="669"
     inkscape:window-x="50"
     inkscape:window-y="194"
     inkscape:window-maximized="0"
     inkscape:current-layer="svg7"
     showgrid="false" />
  <defs
     id="defs2">
    <filter
       style="color-interpolation-filters:sRGB;"
       inkscape:label="Blur"
       id="filter5421"
       x="-0.12256455"
       y="-0.12342654"
       width="1.2451291"
       height="1.2468531">
      <feGaussianBlur
         stdDeviation="0.5 0.5"
         result="blur"
         id="feGaussianBlur5419" />
    </filter>
  </defs>
  <metadata
     id="metadata2">
    <rdf:RDF>
      <cc:Work
         rdf:about="">
        <dc:format>image/svg+xml</dc:format>
        <dc:type
           rdf:resource="http://purl.org/dc/dcmitype/StillImage" />
      </cc:Work>
    </rdf:RDF>
  </metadata>
  <rect
     style="opacity:0.3;fill:none;fill-opacity:0.996424;stroke:#000000;stroke-width:0.955221;stroke-dasharray:none;stroke-opacity:1;filter:url(#filter5421)"
     id="rect1-2-7"
     width="13.687567"
     height="13.591975"
     x="1.6227165"
     y="1.6705122"
     rx="2.8442214"
     ry="2.965905" />
  <rect
     style="fill:none;fill-opacity:1;stroke:{{colors.primary.default.hex}};stroke-width:0.955221;stroke-dasharray:none;stroke-opacity:1"
     id="rect1-2"
     width="13.687567"
     height="13.591975"
     x="1.6227167"
     y="1.6705124"
     rx="2.8442214"
     ry="2.965905" />
  <path
     style="fill:{{colors.primary.default.hex}};fill-opacity:1;stroke:none;stroke-width:0.13546;stroke-dasharray:none;stroke-opacity:0.6"
     d="m 7.5546294,12.568356 c -0.088458,-0.04378 -0.09315,-0.05753 -0.1935381,-0.566476 l -0.090697,-0.459818 -0.088589,-0.03621 C 6.9706718,11.419516 6.6963228,11.263102 6.5013756,11.117906 L 6.4009043,11.043074 5.962607,11.191838 c -0.3044438,0.103321 -0.4534035,0.148763 -0.4877607,0.148763 -0.05216,0 -0.1193654,-0.02804 -0.1498139,-0.06251 -0.00998,-0.01137 -0.208905,-0.351498 -0.4420321,-0.755946 C 4.4172762,9.7141828 4.4263356,9.7337042 4.470826,9.6338422 4.4886475,9.5938228 4.5562233,9.5296574 4.8486507,9.2750012 5.2040622,8.9655012 5.2047573,8.964809 5.1995904,8.9261214 5.1590957,8.6229145 5.1590704,8.3140079 5.1995185,8.0068526 5.2046037,7.9681929 5.2037105,7.9672972 4.848591,7.6579739 4.5563564,7.4034262 4.4886667,7.3391262 4.4708387,7.2991316 4.4264917,7.1996509 4.4174719,7.2190858 4.8830083,6.4111803 5.1161791,6.0065301 5.3151085,5.6662006 5.3250757,5.6548917 c 0.030327,-0.034404 0.097573,-0.062506 0.1495899,-0.062506 0.034152,0 0.1838545,0.04572 0.4875632,0.148903 L 6.4005074,5.8901932 6.5011757,5.8152154 C 6.6962702,5.6699127 6.9704127,5.5135914 7.1817768,5.4271238 l 0.088564,-0.036231 0.087274,-0.4447233 c 0.048002,-0.2445975 0.094292,-0.4619856 0.102871,-0.4830828 0.020317,-0.049969 0.044212,-0.07554 0.09461,-0.101263 0.039287,-0.020049 0.079172,-0.02097 0.9074658,-0.02097 0.860231,0 0.8667173,1.676e-4 0.9149033,0.02349 0.0891,0.043133 0.093651,0.056396 0.194385,0.5665973 l 0.090806,0.4599218 0.088565,0.036247 c 0.2115773,0.086594 0.4855391,0.2428299 0.6807761,0.3882411 l 0.100851,0.07511 0.438758,-0.1490374 c 0.300514,-0.1020758 0.45408,-0.149038 0.487385,-0.149038 0.05142,0 0.118689,0.028222 0.148974,0.062506 0.0099,0.011324 0.208905,0.3514728 0.442033,0.7559226 0.46563,0.8078203 0.456599,0.7883597 0.412275,0.8883167 -0.01778,0.040081 -0.08476,0.1037199 -0.377674,0.3588416 -0.354958,0.3091528 -0.356048,0.3102342 -0.35104,0.3488804 0.04042,0.3119304 0.04042,0.6090442 -3.2e-5,0.9192688 -0.0049,0.03866 -0.004,0.039666 0.350943,0.348879 0.29225,0.2545885 0.35988,0.3188377 0.377701,0.3588393 0.04449,0.099896 0.05356,0.080374 -0.412093,0.8883561 -0.233074,0.404427 -0.43199,0.744577 -0.442029,0.755885 -0.03054,0.03437 -0.09772,0.06253 -0.149355,0.06253 -0.03371,0 -0.185501,-0.04641 -0.487718,-0.149115 l -0.438795,-0.149117 -0.07481,0.05684 c -0.190931,0.145067 -0.4716995,0.308399 -0.6789281,0.394962 l -0.1157885,0.04836 -0.090805,0.459709 c -0.100733,0.509959 -0.1052954,0.523257 -0.194386,0.566384 -0.048181,0.02333 -0.054724,0.02352 -0.9116942,0.02352 -0.8601955,-5e-6 -0.8633264,-9.1e-5 -0.9111383,-0.02374 z M 9.2147602,9.9398505 C 9.6133904,9.4614107 9.9412049,9.065009 9.9432351,9.0589555 9.9456775,9.0517639 9.7921831,9.0479133 9.5031209,9.0479133 H 9.0593162 l -0.00287,-1.260654 -0.00292,-1.2606526 -0.02947,-0.044528 c -0.057545,-0.086948 -0.05629,-0.086756 -0.5575333,-0.086756 -0.5012436,0 -0.4999891,-2.015e-4 -0.5575342,0.086756 l -0.029469,0.044528 -0.00292,1.2606526 -0.00287,1.2606546 h -0.442878 c -0.2435855,0 -0.4428068,0.0037 -0.4427164,0.00831 9.12e-5,0.00464 0.3318409,0.4061297 0.7372229,0.8923537 0.5550052,0.6656934 0.7404674,0.8812184 0.7508667,0.8725894 0.0076,-0.0063 0.3399613,-0.402911 0.7385916,-0.8813503 z"
     id="path5" />
</svg>
