<?xml version="1.0" encoding="UTF-8" standalone="no"?>
<svg
   width="64"
   height="64"
   version="1.1"
   viewBox="0 0 16.933 16.933"
   id="svg7"
   sodipodi:docname="abcd.svg"
   inkscape:version="1.4.3 (0d15f75042, 2025-12-25)"
   xmlns:inkscape="http://www.inkscape.org/namespaces/inkscape"
   xmlns:sodipodi="http://sodipodi.sourceforge.net/DTD/sodipodi-0.dtd"
   xmlns="http://www.w3.org/2000/svg"
   xmlns:svg="http://www.w3.org/2000/svg"
   xmlns:rdf="http://www.w3.org/1999/02/22-rdf-syntax-ns#"
   xmlns:cc="http://creativecommons.org/ns#"
   xmlns:dc="http://purl.org/dc/elements/1.1/">
  <sodipodi:namedview
     id="namedview7"
     pagecolor="#9c4444"
     bordercolor="#000000"
     borderopacity="0.25"
     inkscape:showpageshadow="2"
     inkscape:pageopacity="0.0"
     inkscape:pagecheckerboard="0"
     inkscape:deskcolor="#d1d1d1"
     inkscape:zoom="4.3531261"
     inkscape:cx="39.282115"
     inkscape:cy="25.498917"
     inkscape:window-width="1226"
     inkscape:window-height="669"
     inkscape:window-x="50"
     inkscape:window-y="194"
     inkscape:window-maximized="0"
     inkscape:current-layer="svg7"
     showgrid="false" />
  <defs
     id="defs2">
    <filter
       style="color-interpolation-filters:sRGB;"
       inkscape:label="Blur"
       id="filter5421"
       x="-0.12256455"
       y="-0.12342654"
       width="1.2451291"
       height="1.2468531">
      <feGaussianBlur
         stdDeviation="0.5 0.5"
         result="blur"
         id="feGaussianBlur5419" />
    </filter>
  </defs>
  <metadata
     id="metadata2">
    <rdf:RDF>
      <cc:Work
         rdf:about="">
        <dc:format>image/svg+xml</dc:format>
        <dc:type
           rdf:resource="http://purl.org/dc/dcmitype/StillImage" />
      </cc:Work>
    </rdf:RDF>
  </metadata>
  <rect
     style="opacity:0.3;fill:none;fill-opacity:0.996424;stroke:#000000;stroke-width:0.955221;stroke-dasharray:none;stroke-opacity:1;filter:url(#filter5421)"
     id="rect1-2-7"
     width="13.687567"
     height="13.591975"
     x="1.6227165"
     y="1.6705122"
     rx="2.8442214"
     ry="2.965905" />
  <rect
     style="fill:none;fill-opacity:1;stroke:{{colors.primary.default.hex}};stroke-width:0.955221;stroke-dasharray:none;stroke-opacity:1"
     id="rect1-2"
     width="13.687567"
     height="13.591975"
     x="1.6227167"
     y="1.6705124"
     rx="2.8442214"
     ry="2.965905" />
  <g
     id="g1952"
     transform="matrix(0.1994949,0,0,0.1994949,1.9829158,1.8831681)"
     style="fill:{{colors.primary.default.hex}};fill-opacity:1;stroke:none;stroke-width:0.617284;stroke-dasharray:none;stroke-opacity:0.6">
    <path
       style="fill:{{colors.primary.default.hex}};fill-opacity:1;stroke:none;stroke-width:0.617284;stroke-dasharray:none;stroke-opacity:0.6"
       d="m 47.997154,14.869545 c 0.02585,0.592985 -0.124756,1.180216 -0.432884,1.687536 -0.307923,0.50722 -0.759531,0.911726 -1.297532,1.162358 -0.538001,0.250632 -1.13828,0.335994 -1.724822,0.245387 -0.586439,-0.09061 -1.132987,-0.353147 -1.570244,-0.754423 -0.437261,-0.401276 -0.745695,-0.923226 -0.886328,-1.499763 -0.140528,-0.576639 -0.106946,-1.181933 0.09657,-1.739501 0.203519,-0.557467 0.567818,-1.042084 1.046798,-1.392507 0.479082,-0.350321 1.051277,-0.550809 1.644226,-0.575932 0.794334,-0.0337 1.569536,0.249321 2.155363,0.786912 0.58583,0.537489 0.934356,1.285656 0.968851,2.079933 z"
       id="path1449" />
    <path
       style="fill:{{colors.primary.default.hex}};fill-opacity:1;stroke:none;stroke-width:0.617284;stroke-dasharray:none;stroke-opacity:0.6"
       d="M 31.996387,44 C 25.550961,44 19.921918,41.582358 17,38 c 1.088237,3.214498 3.116427,5.999877 5.803766,7.970613 C 25.491187,47.941346 28.704828,49 32,49 35.295173,49 38.508814,47.941346 41.196234,45.970613 43.883574,43.999877 45.911764,41.214498 47,38 c -2.929142,3.582358 -8.558103,6 -15.003613,6 z"
       id="path1451" />
    <path
       style="fill:{{colors.primary.default.hex}};fill-opacity:1;stroke:none;stroke-width:0.617284;stroke-dasharray:none;stroke-opacity:0.6"
       d="M 32.003531,22 C 38.449041,22 44.078084,24.417641 47,28 45.911764,24.785504 43.883575,22.000122 41.196234,20.029388 38.508814,18.058654 35.295173,17 32,17 28.704829,17 25.491188,18.058654 22.803766,20.029388 20.116427,22.000122 18.088238,24.785504 17,28 c 2.929144,-3.574955 8.558105,-6 15.003531,-6 z"
       id="path1453" />
    <path
       style="fill:{{colors.primary.default.hex}};fill-opacity:1;stroke:none;stroke-width:0.617284;stroke-dasharray:none;stroke-opacity:0.6"
       d="m 24.996634,50.346863 c 0.03033,0.691987 -0.145341,1.377439 -0.50488,1.96949 -0.359445,0.592146 -0.886461,1.064275 -1.514452,1.356611 -0.627897,0.292337 -1.328513,0.391806 -2.01302,0.285799 -0.684509,-0.106006 -1.322109,-0.412727 -1.832263,-0.881307 -0.510062,-0.468672 -0.8696,-1.078096 -1.033122,-1.751218 -0.16352,-0.673123 -0.123582,-1.379588 0.114635,-2.02992 0.238217,-0.650426 0.664068,-1.215579 1.223674,-1.623824 0.559513,-0.408244 1.227632,-0.641272 1.91977,-0.669572 0.925739,-0.03783 1.828683,0.292897 2.510931,0.919694 0.682248,0.626889 1.08813,1.498575 1.128727,2.424247 z"
       id="path1455" />
    <path
       style="fill:{{colors.primary.default.hex}};fill-opacity:1;stroke:none;stroke-width:0.617284;stroke-dasharray:none;stroke-opacity:0.6"
       d="m 19.086342,20.998132 c -0.3954,0.0171 -0.786947,-0.08349 -1.125115,-0.289108 -0.338167,-0.205531 -0.607819,-0.506825 -0.774657,-0.865596 -0.166928,-0.35886 -0.223611,-0.759191 -0.162892,-1.150246 0.06072,-0.391054 0.236084,-0.755281 0.503902,-1.046663 0.267821,-0.29138 0.616077,-0.49673 1.000654,-0.590038 0.384578,-0.0934 0.788231,-0.07057 1.159875,0.06557 0.371553,0.13614 0.694405,0.379505 0.927646,0.699259 0.23324,0.319667 0.366416,0.701444 0.382559,1.096865 0.02174,0.529197 -0.167386,1.045389 -0.525824,1.435352 -0.358437,0.389873 -0.856929,0.621776 -1.386148,0.644605 z"
       id="path1457" />
  </g>
</svg>
