<?xml version="1.0" encoding="UTF-8" standalone="no"?>
<svg
   width="64"
   height="64"
   version="1.1"
   viewBox="0 0 16.933 16.933"
   id="svg7"
   sodipodi:docname="org.gnome.Software.svg"
   inkscape:version="1.4.3 (0d15f75042, 2025-12-25)"
   xmlns:inkscape="http://www.inkscape.org/namespaces/inkscape"
   xmlns:sodipodi="http://sodipodi.sourceforge.net/DTD/sodipodi-0.dtd"
   xmlns="http://www.w3.org/2000/svg"
   xmlns:svg="http://www.w3.org/2000/svg"
   xmlns:rdf="http://www.w3.org/1999/02/22-rdf-syntax-ns#"
   xmlns:cc="http://creativecommons.org/ns#"
   xmlns:dc="http://purl.org/dc/elements/1.1/">
  <sodipodi:namedview
     id="namedview7"
     pagecolor="#9c4444"
     bordercolor="#000000"
     borderopacity="0.25"
     inkscape:showpageshadow="2"
     inkscape:pageopacity="0.0"
     inkscape:pagecheckerboard="0"
     inkscape:deskcolor="#d1d1d1"
     inkscape:zoom="4.3531261"
     inkscape:cx="43.417074"
     inkscape:cy="20.445077"
     inkscape:window-width="1226"
     inkscape:window-height="669"
     inkscape:window-x="575"
     inkscape:window-y="214"
     inkscape:window-maximized="0"
     inkscape:current-layer="svg7"
     showgrid="false" />
  <defs
     id="defs2">
    <filter
       style="color-interpolation-filters:sRGB;"
       inkscape:label="Blur"
       id="filter5421"
       x="-0.12256455"
       y="-0.12342654"
       width="1.2451291"
       height="1.2468531">
      <feGaussianBlur
         stdDeviation="0.5 0.5"
         result="blur"
         id="feGaussianBlur5419" />
    </filter>
    <filter
       style="color-interpolation-filters:sRGB"
       inkscape:label="Blur"
       id="filter5421-3"
       x="-0.12256455"
       y="-0.12342654"
       width="1.2451291"
       height="1.2468531">
      <feGaussianBlur
         stdDeviation="0.5 0.5"
         result="blur"
         id="feGaussianBlur5419-6" />
    </filter>
  </defs>
  <metadata
     id="metadata2">
    <rdf:RDF>
      <cc:Work
         rdf:about="">
        <dc:format>image/svg+xml</dc:format>
        <dc:type
           rdf:resource="http://purl.org/dc/dcmitype/StillImage" />
      </cc:Work>
    </rdf:RDF>
  </metadata>
  <rect
     style="opacity:0.3;fill:none;fill-opacity:0.996424;stroke:#000000;stroke-width:0.955221;stroke-dasharray:none;stroke-opacity:1;filter:url(#filter5421)"
     id="rect1-2-7"
     width="13.687567"
     height="13.591975"
     x="1.6227165"
     y="1.6705122"
     rx="2.8442214"
     ry="2.965905" />
  <rect
     style="fill:none;fill-opacity:1;stroke:{{colors.primary.default.hex}};stroke-width:0.955221;stroke-dasharray:none;stroke-opacity:1"
     id="rect1-2"
     width="13.687567"
     height="13.591975"
     x="1.6227167"
     y="1.6705124"
     rx="2.8442214"
     ry="2.965905" />
  <path
     fill="#f5f7fa"
     d="m 8.4665015,12.668613 c -2.3560006,0 -4.2659152,-1.881349 -4.2659152,-4.2021121 0,-2.3207637 1.9099146,-4.2021136 4.2659152,-4.2021136 2.3559975,0 4.2659125,1.8813499 4.2659125,4.2021136 0,2.3207631 -1.909915,4.2021121 -4.2659125,4.2021121 z m 0,-7.4704252 c -1.8324456,0 -3.3179346,1.4632753 -3.3179346,3.2683131 0,0.1289305 0.1061063,0.2334491 0.2369952,0.2334491 0.130889,0 0.2369951,-0.1045166 0.2369951,-0.2334491 0,-1.5471763 1.2732772,-2.8014107 2.8439443,-2.8014107 0.1308888,0 0.2369954,-0.1045198 0.2369954,-0.2334496 0,-0.1289318 -0.1061069,-0.2334528 -0.2369954,-0.2334528 z m 0,5.1359192 c 1.0471107,0 1.8959625,-0.8361583 1.8959625,-1.8676061 0,-1.0314501 -0.8488518,-1.8676076 -1.8959625,-1.8676076 -1.0471112,0 -1.895962,0.8361575 -1.895962,1.8676076 0,1.0314478 0.8488508,1.8676061 1.895962,1.8676061 z m 0,-0.4669024 c -0.7853335,0 -1.4219717,-0.6271158 -1.4219717,-1.4007034 0,-0.7735891 0.6366382,-1.4007061 1.4219717,-1.4007061 0.7853331,0 1.4219721,0.627117 1.4219721,1.4007061 0,0.7735876 -0.636639,1.4007034 -1.4219721,1.4007034 z m 0,-0.4669024 c 0.5235543,0 0.9479807,-0.4180761 0.9479807,-0.933801 0,-0.5157273 -0.4244264,-0.9338045 -0.9479807,-0.9338045 -0.5235559,0 -0.9479803,0.4180772 -0.9479803,0.9338045 0,0.5157249 0.4244244,0.933801 0.9479803,0.933801 z"
     id="path42"
     style="fill:{{colors.primary.default.hex}};fill-opacity:1;stroke:none;stroke-width:0.128039;stroke-dasharray:none;stroke-opacity:0.6" />
  <rect
     style="opacity:0.3;fill:none;fill-opacity:0.996424;stroke:#000000;stroke-width:0.955221;stroke-dasharray:none;stroke-opacity:1;filter:url(#filter5421-3)"
     id="rect1-2-7-5"
     width="13.687567"
     height="13.591975"
     x="1.6227165"
     y="1.6705122"
     rx="2.8442214"
     ry="2.965905"
     transform="matrix(0.43046721,0,0,0.43046721,9.5627021,9.5627021)" />
  <rect
     style="fill:none;fill-opacity:1;stroke:{{colors.primary.default.hex}};stroke-width:0.411191;stroke-dasharray:none;stroke-opacity:1"
     id="rect1-2-3"
     width="5.8920484"
     height="5.8508992"
     x="10.261228"
     y="10.281802"
     rx="1.224344"
     ry="1.2767248" />
  <path
     style="fill:{{colors.primary.default.hex}};stroke:none;stroke-width:0.118466;stroke-dasharray:none;stroke-opacity:0.6;fill-opacity:1"
     d="m 13.734737,11.346359 c -1.241151,0.505767 -1.986145,1.691285 -1.986145,2.528837 0,0.828143 0.65163,1.500103 1.461008,1.515833 -0.404452,-0.0081 -0.730276,-0.343265 -0.730276,-0.757184 0,-0.418992 0.372401,-1.011533 0.993073,-1.264417 0,0.885093 0.666399,1.013051 0.49653,1.517302 -0.09631,0.285925 -0.331241,0.502939 -0.738519,0.50527 0.0025,1.4e-5 0.0052,2.89e-4 0.0077,2.89e-4 0.822681,0 1.295926,-0.436577 1.489585,-1.011534 0.33975,-1.008534 -0.993047,-1.264402 -0.993047,-3.034587 z"
     id="path12447"
     inkscape:transform-center-x="0.16764228"
     inkscape:transform-center-y="3.9800169" />
</svg>
