<?xml version="1.0" encoding="UTF-8" standalone="no"?>
<svg
   width="64"
   height="64"
   version="1.1"
   viewBox="0 0 16.933 16.933"
   id="svg7"
   sodipodi:docname="abcd.svg"
   inkscape:version="1.4.3 (0d15f75042, 2025-12-25)"
   xmlns:inkscape="http://www.inkscape.org/namespaces/inkscape"
   xmlns:sodipodi="http://sodipodi.sourceforge.net/DTD/sodipodi-0.dtd"
   xmlns="http://www.w3.org/2000/svg"
   xmlns:svg="http://www.w3.org/2000/svg"
   xmlns:rdf="http://www.w3.org/1999/02/22-rdf-syntax-ns#"
   xmlns:cc="http://creativecommons.org/ns#"
   xmlns:dc="http://purl.org/dc/elements/1.1/">
  <sodipodi:namedview
     id="namedview7"
     pagecolor="#9c4444"
     bordercolor="#000000"
     borderopacity="0.25"
     inkscape:showpageshadow="2"
     inkscape:pageopacity="0.0"
     inkscape:pagecheckerboard="0"
     inkscape:deskcolor="#d1d1d1"
     inkscape:zoom="4.3531261"
     inkscape:cx="32.620236"
     inkscape:cy="33.768836"
     inkscape:window-width="1226"
     inkscape:window-height="669"
     inkscape:window-x="100"
     inkscape:window-y="206"
     inkscape:window-maximized="0"
     inkscape:current-layer="svg7"
     showgrid="false" />
  <defs
     id="defs2">
    <filter
       style="color-interpolation-filters:sRGB;"
       inkscape:label="Blur"
       id="filter5421"
       x="-0.12256455"
       y="-0.12342654"
       width="1.2451291"
       height="1.2468531">
      <feGaussianBlur
         stdDeviation="0.5 0.5"
         result="blur"
         id="feGaussianBlur5419" />
    </filter>
  </defs>
  <metadata
     id="metadata2">
    <rdf:RDF>
      <cc:Work
         rdf:about="">
        <dc:format>image/svg+xml</dc:format>
        <dc:type
           rdf:resource="http://purl.org/dc/dcmitype/StillImage" />
      </cc:Work>
    </rdf:RDF>
  </metadata>
  <rect
     style="opacity:0.3;fill:none;fill-opacity:0.996424;stroke:#000000;stroke-width:0.955221;stroke-dasharray:none;stroke-opacity:1;filter:url(#filter5421)"
     id="rect1-2-7"
     width="13.687567"
     height="13.591975"
     x="1.6227165"
     y="1.6705122"
     rx="2.8442214"
     ry="2.965905" />
  <rect
     style="fill:none;fill-opacity:1;stroke:{{colors.primary.default.hex}};stroke-width:0.955221;stroke-dasharray:none;stroke-opacity:1"
     id="rect1-2"
     width="13.687567"
     height="13.591975"
     x="1.6227167"
     y="1.6705124"
     rx="2.8442214"
     ry="2.965905" />
  <path
     fill="#f5f7fa"
     d="M 10.134671,11.797902 9.7919642,11.128793 c -0.3830247,0.245029 -1.0381999,0.424085 -1.6732146,0.424085 -1.8748065,0 -2.8928473,-0.904711 -2.8928473,-2.6481605 0,-1.8942349 1.5421799,-3.5151709 3.6084996,-3.5151709 1.8143301,0 2.8827671,0.8481655 2.8827671,2.365439 0,0.9989483 -0.483822,1.9696249 -1.320429,1.9696249 -0.302388,0 -0.4233424,-0.141361 -0.4233424,-0.4146586 0,-0.1413592 0.030229,-0.4052344 0.070547,-0.6219864 L 10.35642,6.7937301 C 10.033874,6.60525 9.499656,6.4921608 9.0158343,6.4921608 c -1.2297118,0 -2.4695035,0.7821965 -2.4695035,2.4785256 0,0.8198942 0.4334233,1.4795756 1.4817019,1.4795756 0.4737419,0 0.8970848,-0.169631 1.1793154,-0.4994735 h 0.040321 c 0.1411135,0.2921465 0.4636615,0.4994735 1.0281189,0.4994735 1.411147,0 2.32839,-1.1968548 2.32839,-2.7989423 0,-1.8282665 -1.441382,-3.0156976 -3.638737,-3.0156976 -2.661017,0 -4.6366191,1.9319318 -4.6366191,4.3633367 0,2.0167472 1.2700301,3.2984192 3.638738,3.2984192 0.8466862,0 1.6530543,-0.197907 2.1671131,-0.499476 z M 8.2094659,9.734035 c -0.5241392,0 -0.7761297,-0.2827208 -0.7761297,-0.914132 0,-0.942407 0.6350149,-1.6020898 1.471623,-1.6020898 0.1915112,0 0.3729451,0.037697 0.4938995,0.075394 l -0.23183,1.4795757 C 9.1468697,8.8764452 9.1166359,9.14032 9.1166359,9.2534072 8.9654422,9.5078586 8.6227351,9.734035 8.2094707,9.734035 Z"
     id="path42"
     style="fill:{{colors.primary.default.hex}};fill-opacity:1;stroke:none;stroke-width:0.130312;stroke-dasharray:none;stroke-opacity:0.6" />
</svg>
