<?xml version="1.0" encoding="UTF-8" standalone="no"?>
<svg
   width="64"
   height="64"
   version="1.1"
   viewBox="0 0 16.933 16.933"
   id="svg7"
   sodipodi:docname="abcd.svg"
   inkscape:version="1.4.3 (0d15f75042, 2025-12-25)"
   xmlns:inkscape="http://www.inkscape.org/namespaces/inkscape"
   xmlns:sodipodi="http://sodipodi.sourceforge.net/DTD/sodipodi-0.dtd"
   xmlns="http://www.w3.org/2000/svg"
   xmlns:svg="http://www.w3.org/2000/svg"
   xmlns:rdf="http://www.w3.org/1999/02/22-rdf-syntax-ns#"
   xmlns:cc="http://creativecommons.org/ns#"
   xmlns:dc="http://purl.org/dc/elements/1.1/">
  <sodipodi:namedview
     id="namedview7"
     pagecolor="#9c4444"
     bordercolor="#000000"
     borderopacity="0.25"
     inkscape:showpageshadow="2"
     inkscape:pageopacity="0.0"
     inkscape:pagecheckerboard="0"
     inkscape:deskcolor="#d1d1d1"
     inkscape:zoom="4.3531261"
     inkscape:cx="43.417074"
     inkscape:cy="20.674797"
     inkscape:window-width="1226"
     inkscape:window-height="669"
     inkscape:window-x="146"
     inkscape:window-y="136"
     inkscape:window-maximized="0"
     inkscape:current-layer="svg7"
     showgrid="false" />
  <defs
     id="defs2">
    <filter
       style="color-interpolation-filters:sRGB;"
       inkscape:label="Blur"
       id="filter5421"
       x="-0.12256455"
       y="-0.12342654"
       width="1.2451291"
       height="1.2468531">
      <feGaussianBlur
         stdDeviation="0.5 0.5"
         result="blur"
         id="feGaussianBlur5419" />
    </filter>
  </defs>
  <metadata
     id="metadata2">
    <rdf:RDF>
      <cc:Work
         rdf:about="">
        <dc:format>image/svg+xml</dc:format>
        <dc:type
           rdf:resource="http://purl.org/dc/dcmitype/StillImage" />
      </cc:Work>
    </rdf:RDF>
  </metadata>
  <rect
     style="opacity:0.3;fill:none;fill-opacity:0.996424;stroke:#000000;stroke-width:0.955221;stroke-dasharray:none;stroke-opacity:1;filter:url(#filter5421)"
     id="rect1-2-7"
     width="13.687567"
     height="13.591975"
     x="1.6227165"
     y="1.6705122"
     rx="2.8442214"
     ry="2.965905" />
  <rect
     style="fill:none;fill-opacity:1;stroke:{{colors.primary.default.hex}};stroke-width:0.955221;stroke-dasharray:none;stroke-opacity:1"
     id="rect1-2"
     width="13.687567"
     height="13.591975"
     x="1.6227167"
     y="1.6705124"
     rx="2.8442214"
     ry="2.965905" />
  <g
     id="g1"
     style="fill:{{colors.primary.default.hex}};fill-opacity:1"
     transform="matrix(0.18374257,0,0,0.18374257,2.5902018,2.5867379)">
    <path
       style="fill:{{colors.primary.default.hex}};fill-opacity:1"
       d="M 27.402,24 C 24.428,24 22,26.234 22,29 c 0,1.43958 0.65106,2.753 1.69644,3.6666 l 8.17,7.334 8.438,-7.334 c 1.046,-0.912 1.696,-2.226 1.696,-3.666 0,-2.766 -2.428,-5 -5.402,-5 -1.958,0 -3.656,0.962 -4.598,2.416 -0.942,-1.454 -2.64,-2.416 -4.598,-2.416 z"
       id="path2" />
    <path
       style="fill:{{colors.primary.default.hex}};fill-opacity:1"
       d="m 13.56171,20 c -1.1898,0 -2.1608,0.838 -2.1608,1.876 0,0.538 0.2604,1.032 0.6786,1.374 l 3.2678,2.75 3.3756,-2.75 c 0.418,-0.342 0.678,-0.836 0.678,-1.374 0,-1.038 -0.972,-1.876 -2.1608,-1.876 -0.7836,0 -1.4624,0.36 -1.8392,0.906 C 15.02411,20.36 14.34531,20 13.56171,20 Z"
       id="path3" />
    <path
       style="fill:{{colors.primary.default.hex}};fill-opacity:1"
       d="m 16.90091,17 h -3 l -0.5,1 h -2 l 2.9632,-8 h 2.0368 l 3.0857,8 h -2.0857 z m -2.403,-1.9999 h 1.8913 L 15.40091,12 l -0.9028,2.9999 z"
       id="path4" />
    <path
       style="fill:{{colors.primary.default.hex}};fill-opacity:1"
       d="m 50.43909,44 c 1.188,0 2.16,-0.838 2.16,-1.876 0,-0.538 -0.26,-1.032 -0.678,-1.374 l -3.268,-2.75 -3.376,2.75 c -0.418,0.342 -0.678,0.836 -0.678,1.374 0,1.038 0.972,1.876 2.16,1.876 0.784,0 1.464,-0.36 1.84,-0.906 0.376,0.546 1.056,0.906 1.84,0.906 z"
       id="path5" />
    <path
       style="fill:{{colors.primary.default.hex}};fill-opacity:1"
       d="m 50.09909,47 h -3 l -0.5,-1 h -2 l 2.9632,8 h 2.0368 l 3.0857,-8 h -2.0857 z m -2.403,1.9999 h 1.8913 L 48.59909,52 47.69629,49.0001 Z"
       id="path6" />
  </g>
</svg>
