<?xml version="1.0" encoding="UTF-8" standalone="no"?>
<svg
   width="64"
   height="64"
   version="1.1"
   viewBox="0 0 16.933 16.933"
   id="svg7"
   sodipodi:docname="abcd.svg"
   inkscape:version="1.4.3 (0d15f75042, 2025-12-25)"
   xmlns:inkscape="http://www.inkscape.org/namespaces/inkscape"
   xmlns:sodipodi="http://sodipodi.sourceforge.net/DTD/sodipodi-0.dtd"
   xmlns="http://www.w3.org/2000/svg"
   xmlns:svg="http://www.w3.org/2000/svg"
   xmlns:rdf="http://www.w3.org/1999/02/22-rdf-syntax-ns#"
   xmlns:cc="http://creativecommons.org/ns#"
   xmlns:dc="http://purl.org/dc/elements/1.1/">
  <sodipodi:namedview
     id="namedview7"
     pagecolor="#9c4444"
     bordercolor="#000000"
     borderopacity="0.25"
     inkscape:showpageshadow="2"
     inkscape:pageopacity="0.0"
     inkscape:pagecheckerboard="0"
     inkscape:deskcolor="#d1d1d1"
     inkscape:zoom="4.3531261"
     inkscape:cx="39.282115"
     inkscape:cy="25.498917"
     inkscape:window-width="1226"
     inkscape:window-height="669"
     inkscape:window-x="50"
     inkscape:window-y="194"
     inkscape:window-maximized="0"
     inkscape:current-layer="svg7"
     showgrid="false" />
  <defs
     id="defs2">
    <filter
       style="color-interpolation-filters:sRGB;"
       inkscape:label="Blur"
       id="filter5421"
       x="-0.12256455"
       y="-0.12342654"
       width="1.2451291"
       height="1.2468531">
      <feGaussianBlur
         stdDeviation="0.5 0.5"
         result="blur"
         id="feGaussianBlur5419" />
    </filter>
  </defs>
  <metadata
     id="metadata2">
    <rdf:RDF>
      <cc:Work
         rdf:about="">
        <dc:format>image/svg+xml</dc:format>
        <dc:type
           rdf:resource="http://purl.org/dc/dcmitype/StillImage" />
      </cc:Work>
    </rdf:RDF>
  </metadata>
  <rect
     style="opacity:0.3;fill:none;fill-opacity:0.996424;stroke:#000000;stroke-width:0.955221;stroke-dasharray:none;stroke-opacity:1;filter:url(#filter5421)"
     id="rect1-2-7"
     width="13.687567"
     height="13.591975"
     x="1.6227165"
     y="1.6705122"
     rx="2.8442214"
     ry="2.965905" />
  <rect
     style="fill:none;fill-opacity:1;stroke:{{colors.primary.default.hex}};stroke-width:0.955221;stroke-dasharray:none;stroke-opacity:1"
     id="rect1-2"
     width="13.687567"
     height="13.591975"
     x="1.6227167"
     y="1.6705124"
     rx="2.8442214"
     ry="2.965905" />
  <path
     d="m 8.4665001,4.4241635 c -2.2325208,0 -4.0423366,1.809816 -4.0423366,4.0423365 0,2.232521 1.8098158,4.042336 4.0423366,4.042336 2.2325209,0 4.0423359,-1.809815 4.0423359,-4.042336 0,-2.2325205 -1.809815,-4.0423365 -4.0423359,-4.0423365 z m 0,0.5512276 c 1.9534549,0 3.4911089,1.5376533 3.4911089,3.4911089 -0.0015,1.623955 -1.062805,2.946413 -2.6389222,3.337674 -0.022408,-0.05659 0.00503,-0.116968 0.01101,-0.136685 0.030297,-0.0999 0.051851,-0.142865 0.059214,-0.28125 0.011665,-0.219241 0.062991,-0.567029 0.2020164,-0.72537 0.1222858,-0.139278 0.1456282,-0.250341 0.1480346,-0.7026724 0.00199,-0.3744493 0.00616,-0.4183216 0.054279,-0.5862172 0.08192,-0.285805 0.2173312,-0.487426 0.3164442,-0.6321084 0.05037,-0.073529 0.130662,-0.2047826 0.178628,-0.2916285 0.04797,-0.086849 0.117806,-0.2039424 0.154943,-0.2600475 0.09702,-0.146569 0.405242,-0.3490913 0.507643,-0.397227 0.114441,-0.053793 0.203771,-0.1985822 0.245493,-0.3241958 0.04288,-0.1291223 0.02988,-0.3328228 -0.02615,-0.4075895 -0.03302,-0.044059 -0.01729,-0.051813 -0.101899,-0.051813 -0.07749,0 -0.110986,-0.010251 -0.149515,-0.046384 -0.05299,-0.049702 -0.09178,-0.043047 -0.09178,0.015794 0,0.046145 -0.171286,0.1339724 -0.191836,0.1134932 -0.0086,-0.00853 1.18e-4,-0.057382 0.01974,-0.1085589 0.07189,-0.1875615 0.09536,-0.3071256 0.08388,-0.4283137 C 10.719912,6.3535822 10.59547,6.0845651 10.52764,6.0714958 10.511328,6.0683513 10.422709,6.1288321 10.330752,6.2062074 9.8512202,6.6097109 9.4865661,6.7857348 9.232825,6.9391156 9.1117412,7.0123029 9.1113571,7.012136 8.9071485,7.0077056 8.6653693,7.0024602 8.7073476,7.0040125 8.3040667,7.2484973 8.1643891,7.3331756 8.0068822,7.5130772 7.9542111,7.5330906 7.9012735,7.5532051 7.733511,7.5270416 7.5786963,7.5429587 7.2607397,7.5756378 7.2491033,7.5951367 7.1301378,7.6638537 7.0124879,7.7318099 6.9827325,7.7824253 7.0077622,7.8730763 7.0322705,7.9618372 7.0890097,8.1366072 7.245618,8.2905346 L 7.3635521,8.4433126 7.2727576,8.583946 C 7.2226321,8.6613347 7.1470079,8.8043754 7.104985,8.9017272 7.0214685,9.0952057 6.9985885,9.1315333 6.8321077,9.3364559 6.6878854,9.513977 6.4525095,9.7693394 6.303216,10.061826 6.1755467,10.311949 6.114197,10.376779 5.8798368,10.510866 5.8212132,10.544401 5.7489513,10.600774 5.6745617,10.635708 5.1921396,10.015475 4.9759162,9.2522626 4.9753871,8.4665036 c 0,-1.9534552 1.5376532,-3.4911085 3.4911087,-3.4911085 z M 9.023975,7.2298053 8.8603461,7.4632071 8.5667436,7.5041631 8.7493202,7.2707619 Z"
     style="fill:{{colors.primary.default.hex}};fill-opacity:1;stroke-width:0.183742"
     id="path4" />
</svg>
