<?xml version="1.0" encoding="UTF-8" standalone="no"?>
<svg
   width="64"
   height="64"
   version="1.1"
   viewBox="0 0 16.933 16.933"
   id="svg7"
   sodipodi:docname="abcd.svg"
   inkscape:version="1.4.3 (0d15f75042, 2025-12-25)"
   xmlns:inkscape="http://www.inkscape.org/namespaces/inkscape"
   xmlns:sodipodi="http://sodipodi.sourceforge.net/DTD/sodipodi-0.dtd"
   xmlns="http://www.w3.org/2000/svg"
   xmlns:svg="http://www.w3.org/2000/svg"
   xmlns:rdf="http://www.w3.org/1999/02/22-rdf-syntax-ns#"
   xmlns:cc="http://creativecommons.org/ns#"
   xmlns:dc="http://purl.org/dc/elements/1.1/">
  <sodipodi:namedview
     id="namedview7"
     pagecolor="#9c4444"
     bordercolor="#000000"
     borderopacity="0.25"
     inkscape:showpageshadow="2"
     inkscape:pageopacity="0.0"
     inkscape:pagecheckerboard="0"
     inkscape:deskcolor="#d1d1d1"
     inkscape:zoom="4.3531261"
     inkscape:cx="43.417074"
     inkscape:cy="20.674797"
     inkscape:window-width="1226"
     inkscape:window-height="669"
     inkscape:window-x="146"
     inkscape:window-y="136"
     inkscape:window-maximized="0"
     inkscape:current-layer="svg7"
     showgrid="false" />
  <defs
     id="defs2">
    <filter
       style="color-interpolation-filters:sRGB;"
       inkscape:label="Blur"
       id="filter5421"
       x="-0.12256455"
       y="-0.12342654"
       width="1.2451291"
       height="1.2468531">
      <feGaussianBlur
         stdDeviation="0.5 0.5"
         result="blur"
         id="feGaussianBlur5419" />
    </filter>
  </defs>
  <metadata
     id="metadata2">
    <rdf:RDF>
      <cc:Work
         rdf:about="">
        <dc:format>image/svg+xml</dc:format>
        <dc:type
           rdf:resource="http://purl.org/dc/dcmitype/StillImage" />
      </cc:Work>
    </rdf:RDF>
  </metadata>
  <rect
     style="opacity:0.3;fill:none;fill-opacity:0.996424;stroke:#000000;stroke-width:0.955221;stroke-dasharray:none;stroke-opacity:1;filter:url(#filter5421)"
     id="rect1-2-7"
     width="13.687567"
     height="13.591975"
     x="1.6227165"
     y="1.6705122"
     rx="2.8442214"
     ry="2.965905" />
  <rect
     style="fill:none;fill-opacity:1;stroke:{{colors.primary.default.hex}};stroke-width:0.955221;stroke-dasharray:none;stroke-opacity:1"
     id="rect1-2"
     width="13.687567"
     height="13.591975"
     x="1.6227167"
     y="1.6705124"
     rx="2.8442214"
     ry="2.965905" />
  <path
     id="path1"
     style="fill:{{colors.primary.default.hex}};fill-opacity:1;stroke:none;stroke-width:0.128979;stroke-dasharray:none;stroke-opacity:0.6"
     d="m 7.6264646,4.5107476 c -2.5045332,4.74e-4 -2.624546,0.00178 -2.7074889,0.040176 C 4.812624,4.6001616 4.7262531,4.689708 4.6815683,4.796679 c -0.029861,0.071474 -0.033916,0.3911075 -0.033916,2.8050596 0,2.4139534 0.00404,2.7335884 0.033916,2.8050604 0.044678,0.106971 0.1310557,0.196519 0.2374074,0.245757 0.082947,0.03842 0.2029557,0.04025 2.7074889,0.0407 2.8700334,5.25e-4 2.7019784,0.0081 2.8441954,-0.125227 0.03433,-0.03218 0.08069,-0.09784 0.102791,-0.145574 0.03843,-0.083 0.04024,-0.206127 0.04069,-2.8269774 C 10.61464,4.9412511 10.613041,4.8527404 10.572921,4.774765 10.519671,4.6712033 10.429409,4.5861048 10.32769,4.5436139 10.256256,4.5137691 9.9473249,4.5103134 7.6264608,4.5107403 Z m -0.8176211,1.197994 c 0.029787,-4.99e-4 0.060814,0.00906 0.091309,0.031831 0.030745,0.022949 0.063268,0.068548 0.072003,0.1012244 0.01965,0.073454 -0.015836,0.1808422 -0.068873,0.209232 C 6.8353589,6.0873801 6.7526982,6.0747162 6.6971812,6.019198 6.5791747,5.9011903 6.6797844,5.710802 6.8088415,5.7087414 Z m -1.2282579,0.03809 c 0.2981358,0 0.3688953,0.00566 0.3688953,0.029741 0,0.017994 -0.034269,0.035376 -0.087137,0.043828 -0.067106,0.010737 -0.092399,0.026979 -0.1085303,0.069395 -0.032038,0.084271 -0.027811,1.2301907 0.00465,1.2626935 0.032211,0.032213 0.2533113,0.034316 0.3360239,0.00313 0.094156,-0.035499 0.1886875,-0.13891 0.2567134,-0.2812354 0.041551,-0.086929 0.074607,-0.1294007 0.1006985,-0.1294007 0.030432,0 0.036743,0.012776 0.028698,0.059482 -0.03533,0.2052191 -0.075074,0.4526228 -0.075132,0.4664668 -3.83e-5,0.00894 -0.2687399,0.016178 -0.596911,0.016178 -0.5739796,0 -0.5969102,-0.00164 -0.5969102,-0.041742 0,-0.028683 0.020299,-0.045963 0.065217,-0.05583 0.035897,-0.00788 0.075304,-0.032155 0.087139,-0.054263 0.028679,-0.053591 0.028679,-1.2044099 0,-1.2579983 -0.011835,-0.022113 -0.051235,-0.046903 -0.087139,-0.054787 -0.035895,-0.00788 -0.065217,-0.027921 -0.065217,-0.044872 0,-0.025422 0.064662,-0.030786 0.3688947,-0.030786 z m 1.7469017,0 h 0.206102 v 0.2728876 0.2728882 l 0.077224,-0.047482 c 0.1120126,-0.069227 0.2881077,-0.053187 0.3808954,0.034957 0.1280492,0.1216426 0.1601848,0.2129899 0.1601848,0.4539448 0,0.2002759 -0.00485,0.2259413 -0.064703,0.3339348 -0.092761,0.1674849 -0.1955491,0.2300306 -0.3782862,0.230103 -0.1149697,4.54e-5 -0.1565152,-0.00966 -0.2139272,-0.050611 l -0.071486,-0.051135 -0.073568,0.056352 c -0.04056,0.030939 -0.084321,0.056352 -0.097055,0.056352 -0.015934,0 -0.022956,-0.2266082 -0.022956,-0.7273538 V 5.8543161 L 7.1756493,5.82979 C 7.1458133,5.816198 7.1213863,5.792029 7.1213863,5.776047 c 0,-0.022245 0.048326,-0.02922 0.2061005,-0.02922 z m 1.6295024,0.4539431 c 0.045549,0.00254 0.086149,0.021891 0.1153135,0.058961 0.064438,0.081927 0.059321,0.1886125 -0.011995,0.2447127 -0.076587,0.060242 -0.1077515,0.057127 -0.1847088,-0.019826 -0.035804,-0.035802 -0.079979,-0.065222 -0.097569,-0.065222 -0.062632,0 -0.094762,0.1383084 -0.094439,0.4059409 4.242e-4,0.3165345 0.00888,0.351777 0.089219,0.3678511 0.041994,0.0084 0.062613,0.025783 0.062613,0.053221 0,0.037692 -0.020952,0.040698 -0.2822795,0.040698 -0.2549536,0 -0.2817595,-0.00352 -0.2817595,-0.038089 0,-0.021035 0.021679,-0.047704 0.048526,-0.059482 0.04789,-0.02101 0.049002,-0.029811 0.054787,-0.4398556 l 0.00576,-0.4179421 -0.054787,-0.020871 c -0.030088,-0.011441 -0.05426,-0.035547 -0.05426,-0.053743 0,-0.027329 0.035856,-0.03287 0.2061008,-0.03287 h 0.2061092 l 5.24e-4,0.070441 c 6.738e-4,0.069302 0.00153,0.069915 0.038086,0.026616 0.069812,-0.082585 0.158882,-0.1247832 0.2347984,-0.1205302 z m 0.6506538,0.00264 c 0.061716,5.241e-4 0.1213886,0.010971 0.1607076,0.031305 0.1219038,0.06304 0.2170593,0.240626 0.2170593,0.4048973 v 0.08349 H 9.7354789 9.4860697 l 5.24e-4,0.081398 c 5.241e-4,0.092443 0.060835,0.2396365 0.1173992,0.2864534 0.068154,0.056405 0.1777644,0.03936 0.2603666,-0.040699 0.047661,-0.046194 0.087371,-0.067476 0.1095721,-0.058962 0.030932,0.01188 0.03116,0.019551 0.00304,0.073049 C 9.9344496,7.1456014 9.8142498,7.2579517 9.7395914,7.2860995 9.6567664,7.3173345 9.5113629,7.3136135 9.4301985,7.2782695 9.2752975,7.2108245 9.1724477,7.0026873 9.1724477,6.7559791 9.1724477,6.505877 9.2762823,6.2983918 9.4348996,6.232118 9.4819016,6.212471 9.5458985,6.202925 9.6076079,6.20342 Z m 1.2679145,0.01722 -0.0058,2.2201504 c -0.0063,2.4459219 0.0039,2.2699919 -0.138794,2.4126839 -0.142448,0.142454 0.02141,0.132879 -2.3036342,0.139314 l -2.1110998,0.0058 0.00626,0.561952 0.00677,0.561949 0.065218,0.09288 c 0.069792,0.09924 0.1673739,0.16672 0.2786266,0.193576 0.037713,0.009 1.2406157,0.01491 2.6735735,0.01305 l 2.6057429,-0.003 0.105399,-0.06575 c 0.07704,-0.04763 0.122309,-0.09657 0.166445,-0.181058 l 0.06104,-0.116353 V 9.3283036 6.6009881 l -0.05994,-0.1179163 c -0.04476,-0.088347 -0.08629,-0.1342032 -0.166413,-0.1831433 l -0.106484,-0.06522 -0.538471,-0.00677 z m -4.1121087,0.00366 h 0.2061014 v 0.4659445 c 0,0.4428094 0.00217,0.4678645 0.043307,0.4935984 0.023862,0.014902 0.043307,0.044226 0.043307,0.06522 0,0.034221 -0.025727,0.038089 -0.249409,0.038089 -0.2350521,0 -0.2499296,-0.00242 -0.2499296,-0.043307 0,-0.023862 0.00929,-0.043308 0.020341,-0.043308 0.011076,0 0.035511,-0.01517 0.054262,-0.033915 0.028454,-0.028464 0.033916,-0.098391 0.033916,-0.4226425 V 6.3552347 l -0.054263,-0.035481 c -0.029836,-0.019545 -0.054261,-0.049214 -0.054261,-0.065742 0,-0.023491 0.045478,-0.029742 0.206623,-0.029742 z m 2.842629,0.075653 c -0.075555,0 -0.106599,0.051005 -0.1294003,0.2118413 L 9.462063,6.6145691 h 0.131488 0.1314861 l -0.00162,-0.081398 C 9.7227918,6.4884172 9.7105298,6.417881 9.6962798,6.3761129 9.6744336,6.3120582 9.6606786,6.2999334 9.6060108,6.2999334 Z M 7.6713377,6.339073 c -0.016002,4.99e-4 -0.032503,0.00549 -0.049567,0.014613 -0.076346,0.040859 -0.088178,0.098458 -0.088178,0.4304634 0,0.2948879 0.00393,0.3288571 0.044871,0.3808959 0.075619,0.096137 0.1682852,0.065803 0.2238414,-0.073047 C 7.854547,6.9614323 7.8503861,6.5694839 7.7955407,6.4486506 7.7620897,6.3749744 7.7193773,6.3376369 7.6713586,6.3390728 Z M 6.9815519,7.7635196 c 0.1367957,-0.00411 0.2703667,0.058481 0.3005421,0.1794905 0.034078,0.1366541 -0.07186,0.2398754 -0.1862747,0.1815772 -0.045004,-0.022936 -0.050192,-0.03996 -0.046436,-0.1497533 0.00435,-0.1263138 -0.010743,-0.1459111 -0.079828,-0.1022674 -0.023981,0.01515 -0.034593,0.072072 -0.040177,0.216536 l -0.00787,0.1961873 h 0.089221 c 0.080414,0 0.088703,0.00523 0.088703,0.054264 0,0.048817 -0.00848,0.054262 -0.086612,0.054262 h -0.087141 v 0.3908087 c 0,0.3616216 0.00364,0.3934148 0.043832,0.4335952 0.02387,0.02387 0.062744,0.043307 0.086614,0.043307 0.024112,0 0.043308,0.014791 0.043308,0.032871 0,0.027323 -0.046811,0.03235 -0.2927164,0.03235 -0.2303006,0 -0.293236,-0.00637 -0.293236,-0.02922 0,-0.015977 0.024431,-0.040151 0.054262,-0.053743 l 0.054263,-0.02452 V 8.8065223 8.3937979 h -0.054263 c -0.043395,0 -0.05426,-0.010874 -0.05426,-0.054263 0,-0.042139 0.011311,-0.054264 0.050093,-0.054264 0.04565,0 0.051768,-0.014078 0.073566,-0.1654024 C 6.6510188,8.023575 6.678623,7.9307079 6.7028879,7.8975918 6.7668134,7.8103277 6.875118,7.766689 6.9815151,7.763497 Z m 0.7054396,5.489e-4 c 0.1009306,0.0042 0.1969498,0.042578 0.2467979,0.1137467 0.027794,0.039688 0.033392,0.041634 0.033392,0.010959 0,-0.057768 0.080203,-0.124183 0.1497491,-0.124183 0.105402,0 0.1648809,0.066993 0.1648809,0.1847089 0,0.080465 -0.010517,0.1100758 -0.051131,0.142966 -0.065702,0.053208 -0.1345281,0.052682 -0.2034919,-0.00162 l -0.054786,-0.043317 -0.031311,0.046437 c -0.035986,0.054196 -0.1465309,0.063627 -0.202449,0.017222 -0.033462,-0.027771 -0.036794,-0.1142559 -0.00839,-0.2160147 0.015665,-0.056012 -0.074001,-0.037581 -0.1038336,0.021394 -0.015095,0.029832 -0.027475,0.1253222 -0.027649,0.2118407 v 0.1570497 h 0.086613 c 0.078112,0 0.086614,0.00543 0.086614,0.054263 0,0.048818 -0.00848,0.054265 -0.086614,0.054265 h -0.08661 v 0.3673257 c 0,0.2020913 0.00909,0.3928101 0.020871,0.4236805 0.014266,0.037519 0.043388,0.060646 0.087137,0.069395 0.035999,0.00721 0.065219,0.026381 0.065219,0.042787 0,0.02384 -0.058644,0.029741 -0.2927154,0.029741 -0.2303024,0 -0.2932377,-0.00636 -0.2932377,-0.029219 0,-0.01598 0.02443,-0.040151 0.05426,-0.053744 L 7.2945688,9.219229 V 8.8065277 8.3938037 h -0.054261 c -0.043396,0 -0.054261,-0.010874 -0.054261,-0.054265 0,-0.042966 0.010966,-0.054263 0.052697,-0.054263 0.04803,0 0.053908,-0.010959 0.066782,-0.1247046 0.019323,-0.1707278 0.047011,-0.2514942 0.103832,-0.3047148 0.07063,-0.066164 0.1766515,-0.096023 0.2775844,-0.091834 z m -1.9890067,0.00366 c 0.021477,-2.069e-4 0.043186,1.2e-4 0.06522,0.00162 0.269615,0.017696 0.4739732,0.1643536 0.5948236,0.4268182 C 6.4676451,8.434242 6.4446428,8.8283268 6.3084603,9.0440541 6.228996,9.1699288 6.064997,9.3014814 5.9426969,9.3378007 5.828361,9.3717553 5.5867986,9.3781406 5.4939704,9.349798 5.2911646,9.287887 5.1156443,9.1228568 5.034806,8.9177711 4.9771317,8.771455 4.9656215,8.4182675 5.0139356,8.2744231 5.1200958,7.9583854 5.3758844,7.7709475 5.6979828,7.7677813 Z m 0.00576,0.086093 c -0.039787,-0.0014 -0.075692,0.013933 -0.124708,0.046959 -0.1627852,0.109702 -0.2263442,0.3423474 -0.2118398,0.7779666 0.00829,0.2477098 0.014946,0.2828478 0.073566,0.4002013 0.046759,0.093605 0.084555,0.1388295 0.1398357,0.1664459 0.092924,0.046421 0.1563653,0.047918 0.2379295,0.00573 0.1502873,-0.077725 0.224863,-0.2953565 0.2269729,-0.662141 0.0022,-0.3851483 -0.07897,-0.6286085 -0.2342759,-0.7023088 -0.04369,-0.020738 -0.076546,-0.031824 -0.1074867,-0.032872 z m 4.098016,0.3986348 c 0.027025,0.00127 0.054135,0.0057 0.081391,0.013044 0.1598582,0.043045 0.2461472,0.1718109 0.2864542,0.4268116 l 0.0146,0.092353 H 9.9196569 9.6551164 l 0.01513,0.1027899 c 0.040475,0.2699299 0.2142144,0.3726255 0.3720246,0.219667 0.06432,-0.062339 0.138271,-0.074912 0.138271,-0.02348 0,0.043306 -0.167479,0.2090168 -0.2483645,0.245757 C 9.7149037,9.4280782 9.4722786,9.3124004 9.390064,9.0711076 9.3518357,8.9589238 9.3453939,8.70397 9.3780692,8.5863786 9.4363295,8.376634 9.6125849,8.2432239 9.8017495,8.2524434 Z m -0.8405793,0.00209 c 0.1594317,0.00594 0.2963696,0.095583 0.2963696,0.2509733 0,0.099865 -0.046459,0.1487054 -0.1414018,0.1487054 -0.078807,0 -0.1091949,-0.042831 -0.1257478,-0.1784471 -0.013297,-0.1088996 -0.016887,-0.11426 -0.077747,-0.11426 -0.1030371,0 -0.151183,0.1054084 -0.152358,0.3349787 -0.00115,0.2208645 0.045344,0.3629033 0.1460965,0.4476828 0.084706,0.071274 0.1882269,0.060956 0.2807158,-0.027653 0.051109,-0.048966 0.066306,-0.054471 0.081917,-0.02922 0.011105,0.017968 0.010687,0.046347 -5.49e-4,0.067309 C 9.2326008,9.2216425 9.0974435,9.3242183 9.0148928,9.3471419 8.8071349,9.4048401 8.6285427,9.3252584 8.5192055,9.1259129 8.465459,9.0279098 8.4569667,8.9887565 8.4565935,8.838937 8.4560445,8.6254957 8.4899641,8.522892 8.6021681,8.4011676 8.6993233,8.2957661 8.8371498,8.2499304 8.9611489,8.2545487 Z m -0.895887,0.030783 h 0.2061 v 0.4539433 c 0,0.3838821 0.00504,0.4595585 0.033917,0.4883813 0.018749,0.018757 0.043186,0.033915 0.05426,0.033915 0.011076,0 0.020341,0.014972 0.020341,0.032871 0,0.027122 -0.043388,0.032351 -0.2603647,0.032351 -0.2031071,0 -0.2603662,-0.00655 -0.2603662,-0.02922 0,-0.015989 0.023912,-0.040151 0.053738,-0.053744 l 0.054264,-0.024531 V 8.8060587 8.3928128 l -0.054264,-0.024523 c -0.029835,-0.013592 -0.053738,-0.03776 -0.053738,-0.053743 0,-0.02225 0.048327,-0.02922 0.2061016,-0.02922 z m 1.6931595,0.067831 c -0.031338,0.0014 -0.044746,0.018195 -0.066779,0.070961 -0.017626,0.042203 -0.031828,0.1162413 -0.031828,0.1643582 v 0.087658 H 9.7793305 9.8982962 V 8.5728368 C 9.897798,8.4366987 9.8590835,8.3629709 9.7835045,8.3542138 c -0.00949,-0.00112 -0.017811,-0.0014 -0.025037,-0.00104 z" />
</svg>
