<?xml version="1.0" encoding="UTF-8" standalone="no"?>
<svg
   width="64"
   height="64"
   version="1.1"
   viewBox="0 0 16.933 16.933"
   id="svg7"
   sodipodi:docname="abcd.svg"
   inkscape:version="1.4.3 (0d15f75042, 2025-12-25)"
   xmlns:inkscape="http://www.inkscape.org/namespaces/inkscape"
   xmlns:sodipodi="http://sodipodi.sourceforge.net/DTD/sodipodi-0.dtd"
   xmlns="http://www.w3.org/2000/svg"
   xmlns:svg="http://www.w3.org/2000/svg"
   xmlns:rdf="http://www.w3.org/1999/02/22-rdf-syntax-ns#"
   xmlns:cc="http://creativecommons.org/ns#"
   xmlns:dc="http://purl.org/dc/elements/1.1/">
  <sodipodi:namedview
     id="namedview7"
     pagecolor="#9c4444"
     bordercolor="#000000"
     borderopacity="0.25"
     inkscape:showpageshadow="2"
     inkscape:pageopacity="0.0"
     inkscape:pagecheckerboard="0"
     inkscape:deskcolor="#d1d1d1"
     inkscape:zoom="4.3531261"
     inkscape:cx="35.606595"
     inkscape:cy="28.255556"
     inkscape:window-width="1226"
     inkscape:window-height="669"
     inkscape:window-x="100"
     inkscape:window-y="206"
     inkscape:window-maximized="0"
     inkscape:current-layer="svg7"
     showgrid="false" />
  <defs
     id="defs2">
    <filter
       style="color-interpolation-filters:sRGB;"
       inkscape:label="Blur"
       id="filter5421"
       x="-0.12256455"
       y="-0.12342654"
       width="1.2451291"
       height="1.2468531">
      <feGaussianBlur
         stdDeviation="0.5 0.5"
         result="blur"
         id="feGaussianBlur5419" />
    </filter>
  </defs>
  <metadata
     id="metadata2">
    <rdf:RDF>
      <cc:Work
         rdf:about="">
        <dc:format>image/svg+xml</dc:format>
        <dc:type
           rdf:resource="http://purl.org/dc/dcmitype/StillImage" />
      </cc:Work>
    </rdf:RDF>
  </metadata>
  <rect
     style="opacity:0.3;fill:none;fill-opacity:0.996424;stroke:#000000;stroke-width:0.955221;stroke-dasharray:none;stroke-opacity:1;filter:url(#filter5421)"
     id="rect1-2-7"
     width="13.687567"
     height="13.591975"
     x="1.6227165"
     y="1.6705122"
     rx="2.8442214"
     ry="2.965905" />
  <rect
     style="fill:none;fill-opacity:1;stroke:{{colors.primary.default.hex}};stroke-width:0.955221;stroke-dasharray:none;stroke-opacity:1"
     id="rect1-2"
     width="13.687567"
     height="13.591975"
     x="1.6227167"
     y="1.6705124"
     rx="2.8442214"
     ry="2.965905" />
  <path
     style="fill:{{colors.primary.default.hex}};fill-opacity:1;stroke:none;stroke-width:0.130312;stroke-dasharray:none;stroke-opacity:0.6"
     d="M 4.2713366,8.4664999 V 5.4873683 h 4.195163 4.1951634 V 8.4664999 11.445632 H 8.4664996 4.2713366 Z m 3.853538,1.7927541 V 9.6528797 H 6.5465629 4.968253 v 0.6063743 0.606371 h 1.5783099 1.5783117 z m 3.8535374,-5.5e-5 V 9.6527722 l -1.581727,0.00327 -1.5817268,0.00327 -0.00355,0.6030758 -0.00355,0.603077 H 10.39313 11.978409 V 10.259056 Z M 8.1248746,8.4664999 V 7.8601282 H 6.5465629 4.968253 v 0.606372 0.6063723 h 1.5783099 1.5783117 z m 3.8535374,-5.25e-5 V 7.8600205 l -1.581727,0.00336 -1.5817268,0.00334 -0.00355,0.6030766 -0.00355,0.6030762 h 1.5852848 1.58528 V 8.4664463 Z M 8.1248746,6.6737483 V 6.0673762 H 6.5465629 4.968253 V 6.6737483 7.280121 h 1.5783099 1.5783117 z m 3.8535374,-5.48e-5 V 6.0672669 l -1.581727,0.00334 -1.5817268,0.00334 -0.00355,0.6030765 -0.00355,0.6030769 h 1.5852848 1.58528 V 6.6737114 Z"
     id="path2224" />
</svg>
