<?xml version="1.0" encoding="UTF-8" standalone="no"?>
<svg
   width="64"
   height="64"
   version="1.1"
   viewBox="0 0 16.933 16.933"
   id="svg7"
   sodipodi:docname="abcd.svg"
   inkscape:version="1.4.3 (0d15f75042, 2025-12-25)"
   xmlns:inkscape="http://www.inkscape.org/namespaces/inkscape"
   xmlns:sodipodi="http://sodipodi.sourceforge.net/DTD/sodipodi-0.dtd"
   xmlns="http://www.w3.org/2000/svg"
   xmlns:svg="http://www.w3.org/2000/svg"
   xmlns:rdf="http://www.w3.org/1999/02/22-rdf-syntax-ns#"
   xmlns:cc="http://creativecommons.org/ns#"
   xmlns:dc="http://purl.org/dc/elements/1.1/">
  <sodipodi:namedview
     id="namedview7"
     pagecolor="#9c4444"
     bordercolor="#000000"
     borderopacity="0.25"
     inkscape:showpageshadow="2"
     inkscape:pageopacity="0.0"
     inkscape:pagecheckerboard="0"
     inkscape:deskcolor="#d1d1d1"
     inkscape:zoom="4.3531261"
     inkscape:cx="43.417074"
     inkscape:cy="20.674797"
     inkscape:window-width="1226"
     inkscape:window-height="669"
     inkscape:window-x="146"
     inkscape:window-y="136"
     inkscape:window-maximized="0"
     inkscape:current-layer="svg7"
     showgrid="false" />
  <defs
     id="defs2">
    <filter
       style="color-interpolation-filters:sRGB;"
       inkscape:label="Blur"
       id="filter5421"
       x="-0.12256455"
       y="-0.12342654"
       width="1.2451291"
       height="1.2468531">
      <feGaussianBlur
         stdDeviation="0.5 0.5"
         result="blur"
         id="feGaussianBlur5419" />
    </filter>
  </defs>
  <metadata
     id="metadata2">
    <rdf:RDF>
      <cc:Work
         rdf:about="">
        <dc:format>image/svg+xml</dc:format>
        <dc:type
           rdf:resource="http://purl.org/dc/dcmitype/StillImage" />
      </cc:Work>
    </rdf:RDF>
  </metadata>
  <rect
     style="opacity:0.3;fill:none;fill-opacity:0.996424;stroke:#000000;stroke-width:0.955221;stroke-dasharray:none;stroke-opacity:1;filter:url(#filter5421)"
     id="rect1-2-7"
     width="13.687567"
     height="13.591975"
     x="1.6227165"
     y="1.6705122"
     rx="2.8442214"
     ry="2.965905" />
  <rect
     style="fill:none;fill-opacity:1;stroke:{{colors.primary.default.hex}};stroke-width:0.955221;stroke-dasharray:none;stroke-opacity:1"
     id="rect1-2"
     width="13.687567"
     height="13.591975"
     x="1.6227167"
     y="1.6705124"
     rx="2.8442214"
     ry="2.965905" />
  <path
     d="m 10.706591,8.6260508 c 1.010744,0.073779 1.808954,0.9120674 1.808954,1.9401152 0,1.077237 -0.872902,1.951352 -1.950137,1.951352 -1.0283528,0 -1.8693734,-0.800033 -1.9401164,-1.810168 1.1100267,-0.08046 2.0008414,-0.9724874 2.0812994,-2.0812992 h -0.0011 z m -4.5369592,0 c -0.9834171,0.099586 -1.7539992,0.9296774 -1.7539992,1.9401152 0,1.077237 0.8725976,1.950136 1.949833,1.950136 1.0298709,0 1.8684632,-0.798817 1.9413314,-1.808952 C 7.1964665,10.62688 6.3056529,9.7348626 6.2251946,8.6245329 c -0.019431,0.0027 -0.037649,-0.00123 -0.057385,0 z M 10.335873,8.7778595 C 10.257847,9.7260574 9.7259061,10.257996 8.7780116,10.336027 V 8.7778595 Z m -2.1824035,0 V 10.336027 C 7.2052718,10.257996 6.6733341,9.7260574 6.5953044,8.7778595 Z M 10.567231,4.4157851 c 1.077236,0 1.950136,0.8738118 1.950136,1.9510466 0,1.0286567 -0.800032,1.8675521 -1.810168,1.9404206 C 10.626739,7.1969226 9.7359254,6.3061082 8.6258988,6.22565 8.6987673,5.2152103 9.537359,4.4157851 10.566928,4.4157851 Z m -4.2017654,0 c -1.0772354,0 -1.949833,0.8725972 -1.949833,1.9498322 0,1.0298711 0.7994252,1.8684629 1.8098654,1.9413316 C 6.3059568,7.1966186 7.1967709,6.3058051 8.3071004,6.2253456 8.2342321,5.2152103 7.3953365,4.4154812 6.3666804,4.4154812 Z M 10.335873,8.154837 H 8.7780116 V 6.5966703 c 0.9478945,0.07803 1.4798324,0.609968 1.5578614,1.5581667 z m -2.1824035,0 H 6.5953044 C 6.6733341,7.2066383 7.2052718,6.6747005 8.1534695,6.5966703 Z"
     fill="#ffffff"
     fill-opacity="0.56"
     fill-rule="nonzero"
     id="path2-52"
     style="fill:{{colors.primary.default.hex}};fill-opacity:1;stroke:none;stroke-width:0.142233;stroke-dasharray:none;stroke-opacity:0.6" />
</svg>
