<?xml version="1.0" encoding="UTF-8" standalone="no"?>
<svg
   width="64"
   height="64"
   version="1.1"
   viewBox="0 0 16.933 16.933"
   id="svg7"
   sodipodi:docname="abcd.svg"
   inkscape:version="1.4.3 (0d15f75042, 2025-12-25)"
   xmlns:inkscape="http://www.inkscape.org/namespaces/inkscape"
   xmlns:sodipodi="http://sodipodi.sourceforge.net/DTD/sodipodi-0.dtd"
   xmlns="http://www.w3.org/2000/svg"
   xmlns:svg="http://www.w3.org/2000/svg"
   xmlns:rdf="http://www.w3.org/1999/02/22-rdf-syntax-ns#"
   xmlns:cc="http://creativecommons.org/ns#"
   xmlns:dc="http://purl.org/dc/elements/1.1/">
  <sodipodi:namedview
     id="namedview7"
     pagecolor="#9c4444"
     bordercolor="#000000"
     borderopacity="0.25"
     inkscape:showpageshadow="2"
     inkscape:pageopacity="0.0"
     inkscape:pagecheckerboard="0"
     inkscape:deskcolor="#d1d1d1"
     inkscape:zoom="4.3531261"
     inkscape:cx="43.417074"
     inkscape:cy="20.445077"
     inkscape:window-width="1226"
     inkscape:window-height="669"
     inkscape:window-x="146"
     inkscape:window-y="136"
     inkscape:window-maximized="0"
     inkscape:current-layer="svg7"
     showgrid="false" />
  <defs
     id="defs2">
    <filter
       style="color-interpolation-filters:sRGB;"
       inkscape:label="Blur"
       id="filter5421"
       x="-0.12256455"
       y="-0.12342654"
       width="1.2451291"
       height="1.2468531">
      <feGaussianBlur
         stdDeviation="0.5 0.5"
         result="blur"
         id="feGaussianBlur5419" />
    </filter>
  </defs>
  <metadata
     id="metadata2">
    <rdf:RDF>
      <cc:Work
         rdf:about="">
        <dc:format>image/svg+xml</dc:format>
        <dc:type
           rdf:resource="http://purl.org/dc/dcmitype/StillImage" />
      </cc:Work>
    </rdf:RDF>
  </metadata>
  <rect
     style="opacity:0.3;fill:none;fill-opacity:0.996424;stroke:#000000;stroke-width:0.955221;stroke-dasharray:none;stroke-opacity:1;filter:url(#filter5421)"
     id="rect1-2-7"
     width="13.687567"
     height="13.591975"
     x="1.6227165"
     y="1.6705122"
     rx="2.8442214"
     ry="2.965905" />
  <rect
     style="fill:none;fill-opacity:1;stroke:{{colors.primary.default.hex}};stroke-width:0.955221;stroke-dasharray:none;stroke-opacity:1"
     id="rect1-2"
     width="13.687567"
     height="13.591975"
     x="1.6227167"
     y="1.6705124"
     rx="2.8442214"
     ry="2.965905" />
  <g
     id="g4"
     transform="matrix(0.17407191,0,0,0.17407191,2.8961991,2.8961992)"
     style="fill:{{colors.primary.default.hex}};fill-opacity:1">
    <circle
       style="fill:{{colors.primary.default.hex}};fill-opacity:1"
       cx="32"
       cy="32"
       r="12"
       id="circle3" />
    <path
       style="fill:{{colors.primary.default.hex}};fill-opacity:1"
       d="m 32,9 a 23,23 0 0 0 -6.852,1.07 5,5 0 0 0 5.348,4.004 c 0,0 0.838,-0.074 1.504,-0.074 0.666,0 1.504,0.074 1.504,0.074 A 5,5 0 0 0 38.857,10.051 23,23 0 0 0 32,9 Z m 10.672,2.629 a 5,5 0 0 0 0.941,6.633 c 0,0 0.645,0.539 1.117,1.011 0.47,0.472 1.004,1.114 1.004,1.114 a 5,5 0 0 0 6.635,0.939 23,23 0 0 0 -9.697,-9.697 z M 21.4,11.648 a 23,23 0 0 0 -9.724,9.704 5,5 0 0 0 6.586,-0.965 c 0,0 0.54,-0.643 1.011,-1.114 0.471,-0.471 1.114,-1.011 1.114,-1.011 A 5,5 0 0 0 21.4,11.648 Z M 10.09,25.094 A 23,23 0 0 0 9,32 a 23,23 0 0 0 1.09,6.906 5,5 0 0 0 0.09,-0.004 5,5 0 0 0 3.922,-5.882 c 0,0 -0.102,-0.686 -0.102,-1.02 0,-0.334 0.102,-1.02 0.102,-1.02 A 5,5 0 0 0 10.18,25.098 5,5 0 0 0 10.09,25.094 Z m 43.859,0.049 a 5,5 0 0 0 -4.023,5.353 c 0,0 0.074,0.838 0.074,1.504 0,0.666 -0.074,1.504 -0.074,1.504 A 5,5 0 0 0 53.93,38.852 23,23 0 0 0 55,32 23,23 0 0 0 53.949,25.143 Z M 14.141,41.719 a 5,5 0 0 0 -2.453,0.828 5,5 0 0 0 -0.045,0.041 23,23 0 0 0 9.765,9.767 5,5 0 0 0 0.045,-0.046 5,5 0 0 0 -1.387,-6.932 c 0,0 -0.553,-0.409 -0.793,-0.647 L 19.27,44.727 c -0.239,-0.24 -0.645,-0.793 -0.645,-0.793 a 5,5 0 0 0 -3.184,-2.129 5,5 0 0 0 -1.3,-0.086 z m 35.75,0.066 a 5,5 0 0 0 -4.157,1.828 c 0,0 -0.537,0.647 -1.011,1.121 -0.472,0.47 -1.11,1 -1.11,1 a 5,5 0 0 0 -0.967,6.592 23,23 0 0 0 9.68,-9.68 5,5 0 0 0 -2.435,-0.861 z M 30.496,49.926 A 5,5 0 0 0 25.148,53.93 23,23 0 0 0 32,55 23,23 0 0 0 38.852,53.93 5,5 0 0 0 33.504,49.926 c 0,0 -0.838,0.074 -1.504,0.074 -0.666,0 -1.504,-0.074 -1.504,-0.074 z"
       id="path4" />
  </g>
</svg>
