<?xml version="1.0" encoding="UTF-8" standalone="no"?>
<svg
   width="64"
   height="64"
   version="1.1"
   viewBox="0 0 16.933 16.933"
   id="svg7"
   sodipodi:docname="abcd.svg"
   inkscape:version="1.4.3 (0d15f75042, 2025-12-25)"
   xmlns:inkscape="http://www.inkscape.org/namespaces/inkscape"
   xmlns:sodipodi="http://sodipodi.sourceforge.net/DTD/sodipodi-0.dtd"
   xmlns="http://www.w3.org/2000/svg"
   xmlns:svg="http://www.w3.org/2000/svg"
   xmlns:rdf="http://www.w3.org/1999/02/22-rdf-syntax-ns#"
   xmlns:cc="http://creativecommons.org/ns#"
   xmlns:dc="http://purl.org/dc/elements/1.1/">
  <sodipodi:namedview
     id="namedview7"
     pagecolor="#9c4444"
     bordercolor="#000000"
     borderopacity="0.25"
     inkscape:showpageshadow="2"
     inkscape:pageopacity="0.0"
     inkscape:pagecheckerboard="0"
     inkscape:deskcolor="#d1d1d1"
     inkscape:zoom="4.3531261"
     inkscape:cx="39.971275"
     inkscape:cy="24.809757"
     inkscape:window-width="1226"
     inkscape:window-height="669"
     inkscape:window-x="146"
     inkscape:window-y="136"
     inkscape:window-maximized="0"
     inkscape:current-layer="svg7"
     showgrid="false" />
  <defs
     id="defs2">
    <filter
       style="color-interpolation-filters:sRGB;"
       inkscape:label="Blur"
       id="filter5421"
       x="-0.12256455"
       y="-0.12342654"
       width="1.2451291"
       height="1.2468531">
      <feGaussianBlur
         stdDeviation="0.5 0.5"
         result="blur"
         id="feGaussianBlur5419" />
    </filter>
  </defs>
  <metadata
     id="metadata2">
    <rdf:RDF>
      <cc:Work
         rdf:about="">
        <dc:format>image/svg+xml</dc:format>
        <dc:type
           rdf:resource="http://purl.org/dc/dcmitype/StillImage" />
      </cc:Work>
    </rdf:RDF>
  </metadata>
  <rect
     style="opacity:0.3;fill:none;fill-opacity:0.996424;stroke:#000000;stroke-width:0.955221;stroke-dasharray:none;stroke-opacity:1;filter:url(#filter5421)"
     id="rect1-2-7"
     width="13.687567"
     height="13.591975"
     x="1.6227165"
     y="1.6705122"
     rx="2.8442214"
     ry="2.965905" />
  <rect
     style="fill:none;fill-opacity:1;stroke:{{colors.primary.default.hex}};stroke-width:0.955221;stroke-dasharray:none;stroke-opacity:1"
     id="rect1-2"
     width="13.687567"
     height="13.591975"
     x="1.6227167"
     y="1.6705124"
     rx="2.8442214"
     ry="2.965905" />
  <path
     style="fill:{{colors.primary.default.hex}};fill-opacity:1;stroke:none;stroke-width:0.123146;stroke-dasharray:none;stroke-opacity:0.6"
     d="M 8.3596251,12.481377 C 8.3314519,12.475962 7.5401419,12.147263 6.6011589,11.750872 5.2220072,11.168662 4.8821538,11.017063 4.8327047,10.96202 4.7714967,10.8939 4.7714917,10.89387 4.7714917,10.549217 c 0,-0.189565 0.00406,-0.344664 0.009,-0.344664 0.011662,0 1.0606652,0.434898 2.3949837,0.992918 l 1.0573053,0.44217 0.2337203,-6.3e-4 0.2337201,-6.31e-4 0.400663,-0.168531 c 0.8367025,-0.352001 3.0389689,-1.265164 3.0510529,-1.265164 0.007,0 0.0094,0.159488 0.0056,0.354417 -0.0067,0.338109 -0.0095,0.357016 -0.06022,0.410908 -0.03154,0.03352 -0.217021,0.125863 -0.45631,0.227149 -1.9933695,0.843754 -2.9936846,1.259956 -3.071251,1.277866 -0.095563,0.02207 -0.1239894,0.02294 -0.2100527,0.0064 z M 8.2884243,11.347565 C 8.2429243,11.329648 6.3183676,10.531501 5.4949116,10.189052 5.1276377,10.036316 4.8146193,9.9009676 4.7993162,9.8882821 4.7631079,9.8582649 4.7635727,9.7713957 4.8000779,9.7410771 4.8242559,9.7210127 7.9225824,8.4238284 7.9463294,8.4238284 c 0.0045,0 0.00819,0.2973341 0.00819,0.6607441 0,0.624714 0.00252,0.665984 0.046516,0.7568346 0.1469535,0.3035669 0.5903556,0.3726849 0.833165,0.1298753 0.1360757,-0.1360754 0.1442347,-0.1876949 0.1442347,-0.9124703 0,-0.5028506 0.00595,-0.6373831 0.027825,-0.6286999 0.3484635,0.1383575 3.1077249,1.2958904 3.1273989,1.3119701 0.01529,0.012508 0.02783,0.045334 0.02783,0.072938 0,0.027607 -0.01252,0.060549 -0.02783,0.073193 -0.0153,0.012645 -0.41847,0.1851677 -0.895928,0.3833767 -0.477456,0.198208 -1.2537408,0.521458 -1.7250775,0.718331 -0.817225,0.341351 -0.8647165,0.358252 -1.0239169,0.364377 -0.091818,0.0035 -0.1819675,4.48e-4 -0.2003315,-0.0067 z m -1.7191967,-1.2882 c 0.1618971,-0.04809 0.2500982,-0.142101 0.2500982,-0.2666046 0,-0.078195 -0.013033,-0.1097764 -0.067985,-0.1647268 C 6.568583,9.4452752 6.1175717,9.450887 5.9533179,9.6379594 5.7182593,9.9056759 6.1324572,10.18907 6.5692276,10.059365 Z M 8.3252918,9.8009396 C 8.2254269,9.7428897 8.2229443,9.7064603 8.2232581,8.3036911 l 2.89e-4,-1.3267022 H 8.4563134 8.689079 V 8.3469331 9.7168769 L 8.634444,9.7715099 C 8.591343,9.8146009 8.55727,9.8259999 8.4730654,9.8254669 8.4143573,9.8250736 8.3478546,9.8140527 8.3252835,9.8009349 Z M 8.3193015,6.6876374 C 7.945383,6.6328708 7.614664,6.3982353 7.4567125,6.0756555 7.4218808,6.0045207 7.3772698,5.8683972 7.357577,5.7731598 7.3271799,5.6261581 7.3258069,5.5720306 7.3484863,5.4148274 7.4811475,4.4952894 8.5965948,4.1154579 9.2566579,4.7650584 9.6860152,5.1876102 9.7089909,5.8656366 9.309305,6.3187442 9.0726812,6.5869957 8.6662216,6.7384501 8.3193015,6.6876374 Z"
     id="path1" />
</svg>
