<?xml version="1.0" encoding="UTF-8" standalone="no"?>
<svg
   width="64"
   height="64"
   version="1.1"
   viewBox="0 0 16.933 16.933"
   id="svg7"
   sodipodi:docname="abcd.svg"
   inkscape:version="1.4.3 (0d15f75042, 2025-12-25)"
   xmlns:inkscape="http://www.inkscape.org/namespaces/inkscape"
   xmlns:sodipodi="http://sodipodi.sourceforge.net/DTD/sodipodi-0.dtd"
   xmlns="http://www.w3.org/2000/svg"
   xmlns:svg="http://www.w3.org/2000/svg"
   xmlns:rdf="http://www.w3.org/1999/02/22-rdf-syntax-ns#"
   xmlns:cc="http://creativecommons.org/ns#"
   xmlns:dc="http://purl.org/dc/elements/1.1/">
  <sodipodi:namedview
     id="namedview7"
     pagecolor="#9c4444"
     bordercolor="#000000"
     borderopacity="0.25"
     inkscape:showpageshadow="2"
     inkscape:pageopacity="0.0"
     inkscape:pagecheckerboard="0"
     inkscape:deskcolor="#d1d1d1"
     inkscape:zoom="4.3531261"
     inkscape:cx="39.971275"
     inkscape:cy="24.809757"
     inkscape:window-width="1226"
     inkscape:window-height="669"
     inkscape:window-x="146"
     inkscape:window-y="136"
     inkscape:window-maximized="0"
     inkscape:current-layer="svg7"
     showgrid="false" />
  <defs
     id="defs2">
    <filter
       style="color-interpolation-filters:sRGB;"
       inkscape:label="Blur"
       id="filter5421"
       x="-0.12256455"
       y="-0.12342654"
       width="1.2451291"
       height="1.2468531">
      <feGaussianBlur
         stdDeviation="0.5 0.5"
         result="blur"
         id="feGaussianBlur5419" />
    </filter>
  </defs>
  <metadata
     id="metadata2">
    <rdf:RDF>
      <cc:Work
         rdf:about="">
        <dc:format>image/svg+xml</dc:format>
        <dc:type
           rdf:resource="http://purl.org/dc/dcmitype/StillImage" />
      </cc:Work>
    </rdf:RDF>
  </metadata>
  <rect
     style="opacity:0.3;fill:none;fill-opacity:0.996424;stroke:#000000;stroke-width:0.955221;stroke-dasharray:none;stroke-opacity:1;filter:url(#filter5421)"
     id="rect1-2-7"
     width="13.687567"
     height="13.591975"
     x="1.6227165"
     y="1.6705122"
     rx="2.8442214"
     ry="2.965905" />
  <rect
     style="fill:none;fill-opacity:1;stroke:{{colors.primary.default.hex}};stroke-width:0.955221;stroke-dasharray:none;stroke-opacity:1"
     id="rect1-2"
     width="13.687567"
     height="13.591975"
     x="1.6227167"
     y="1.6705124"
     rx="2.8442214"
     ry="2.965905" />
  <path
     style="fill:{{colors.primary.default.hex}};fill-opacity:1;stroke:none;stroke-width:0.130312;stroke-dasharray:none;stroke-opacity:0.6"
     d="M 8.2055865,12.604994 C 7.2054904,12.537907 6.2489259,12.104123 5.539109,11.395791 4.8917991,10.749834 4.4944314,9.9479841 4.3527122,9.0017529 c -0.028678,-0.191478 -0.028678,-0.8838066 0,-1.0752844 C 4.4528736,7.2577093 4.661689,6.7038202 5.0114549,6.179129 5.4330052,5.5467543 5.9666385,5.0778012 6.6400978,4.7478899 7.0589342,4.5427128 7.4216301,4.4295523 7.889326,4.358135 c 0.3144841,-0.048021 0.8398657,-0.048021 1.1543511,0 0.4687679,0.071582 0.8390592,0.1870412 1.2492269,0.3895203 0.432883,0.2136925 0.770039,0.4546604 1.10681,0.7910471 0.643803,0.6430617 1.038972,1.4423152 1.180576,2.3877661 0.02867,0.1914778 0.02867,0.8838064 0,1.0752844 -0.09802,0.6544658 -0.310289,1.2223321 -0.648315,1.7343851 -0.5774,0.874672 -1.469119,1.5059 -2.4771601,1.753528 -0.3656135,0.08981 -0.8975247,0.138919 -1.2492284,0.115328 z m -1.2047034,-2.50682 c 0.074622,-0.03976 0.07304,-0.01906 0.073569,-0.9615549 l 5.252e-4,-0.8929784 0.6206612,0.6187159 c 0.5240185,0.522376 0.6305097,0.6213954 0.6839132,0.6359291 0.078776,0.021443 0.095329,0.021428 0.1739431,-1.316e-4 0.053295,-0.014609 0.1609349,-0.1146725 0.6839129,-0.6357502 l 0.6206614,-0.618406 5.253e-4,0.8928003 c 3.943e-4,0.6768846 0.00523,0.8988678 0.019774,0.9178898 0.042562,0.05545 0.084899,0.06187 0.4068586,0.06187 h 0.318518 l 0.04623,-0.04623 0.04624,-0.04623 V 8.4641101 6.9040952 l -0.04624,-0.046221 -0.04623,-0.04622 -0.242366,3.413e-4 c -0.203516,2.627e-4 -0.252502,0.0051 -0.305616,0.030013 -0.0423,0.019839 -0.3119788,0.2789476 -0.8143075,0.7823972 -0.41308,0.4140016 -0.761785,0.7527302 -0.7748994,0.7527302 -0.013114,0 -0.3618195,-0.3384817 -0.7749004,-0.7521822 C 7.2785548,7.2112537 6.9141789,6.8590186 6.8819109,6.8422096 6.8312339,6.8158002 6.7895949,6.811637 6.5762924,6.811637 H 6.3293409 l -0.046221,0.04622 -0.046219,0.04622 v 1.560017 1.560013 l 0.046219,0.04623 0.046221,0.04623 h 0.3185162 c 0.2118231,0 0.3300854,-0.0061 0.3530559,-0.01838 z"
     id="path5" />
</svg>
