<?xml version="1.0" encoding="UTF-8" standalone="no"?>
<svg
   width="64"
   height="64"
   version="1.1"
   viewBox="0 0 16.933 16.933"
   id="svg7"
   sodipodi:docname="abcd.svg"
   inkscape:version="1.4.3 (0d15f75042, 2025-12-25)"
   xmlns:inkscape="http://www.inkscape.org/namespaces/inkscape"
   xmlns:sodipodi="http://sodipodi.sourceforge.net/DTD/sodipodi-0.dtd"
   xmlns="http://www.w3.org/2000/svg"
   xmlns:svg="http://www.w3.org/2000/svg"
   xmlns:rdf="http://www.w3.org/1999/02/22-rdf-syntax-ns#"
   xmlns:cc="http://creativecommons.org/ns#"
   xmlns:dc="http://purl.org/dc/elements/1.1/">
  <sodipodi:namedview
     id="namedview7"
     pagecolor="#9c4444"
     bordercolor="#000000"
     borderopacity="0.25"
     inkscape:showpageshadow="2"
     inkscape:pageopacity="0.0"
     inkscape:pagecheckerboard="0"
     inkscape:deskcolor="#d1d1d1"
     inkscape:zoom="4.3531261"
     inkscape:cx="39.971275"
     inkscape:cy="24.809757"
     inkscape:window-width="1226"
     inkscape:window-height="669"
     inkscape:window-x="146"
     inkscape:window-y="136"
     inkscape:window-maximized="0"
     inkscape:current-layer="svg7"
     showgrid="false" />
  <defs
     id="defs2">
    <filter
       style="color-interpolation-filters:sRGB;"
       inkscape:label="Blur"
       id="filter5421"
       x="-0.12256455"
       y="-0.12342654"
       width="1.2451291"
       height="1.2468531">
      <feGaussianBlur
         stdDeviation="0.5 0.5"
         result="blur"
         id="feGaussianBlur5419" />
    </filter>
  </defs>
  <metadata
     id="metadata2">
    <rdf:RDF>
      <cc:Work
         rdf:about="">
        <dc:format>image/svg+xml</dc:format>
        <dc:type
           rdf:resource="http://purl.org/dc/dcmitype/StillImage" />
      </cc:Work>
    </rdf:RDF>
  </metadata>
  <rect
     style="opacity:0.3;fill:none;fill-opacity:0.996424;stroke:#000000;stroke-width:0.955221;stroke-dasharray:none;stroke-opacity:1;filter:url(#filter5421)"
     id="rect1-2-7"
     width="13.687567"
     height="13.591975"
     x="1.6227165"
     y="1.6705122"
     rx="2.8442214"
     ry="2.965905" />
  <rect
     style="fill:none;fill-opacity:1;stroke:{{colors.primary.default.hex}};stroke-width:0.955221;stroke-dasharray:none;stroke-opacity:1"
     id="rect1-2"
     width="13.687567"
     height="13.591975"
     x="1.6227167"
     y="1.6705124"
     rx="2.8442214"
     ry="2.965905" />
  <path
     id="path5-9"
     style="fill:{{colors.primary.default.hex}};fill-opacity:1;stroke:none;stroke-width:0.123796;stroke-dasharray:none;stroke-opacity:0.6"
     d="M 8.3232324,4.4607768 8.1095991,4.5813418 C 6.9064093,5.2616571 6.2526666,6.101678 6.0631623,7.2101585 6.0134046,7.5012116 6.0024552,7.9119274 6.0402483,8.0784397 6.1488492,8.5569314 6.4127524,9.029819 6.7442509,9.3397928 7.2444077,9.8074726 8.0174633,9.9563111 8.577407,9.6926755 8.7601573,9.6066295 8.9670121,9.3936021 9.0212423,9.2357968 9.1084081,8.9821512 9.0520058,8.5896964 8.9059649,8.434848 8.846139,8.371414 8.8188308,8.3595787 8.7360458,8.3597591 8.6786831,8.3598871 8.5875027,8.3832117 8.5174768,8.4158116 8.358266,8.4899231 8.2723063,8.4903133 8.2537843,8.4164605 8.2354417,8.3433787 8.2992159,8.241876 8.457547,8.0921328 8.6361393,7.9232273 8.7508445,7.8763878 8.9859895,7.8763846 c 0.1672456,-2.7e-6 0.2080343,0.00835 0.3260904,0.067334 0.1937313,0.09678 0.4282327,0.338869 0.533729,0.5506516 C 9.9719859,8.7476629 10.006943,8.908394 10.006562,9.2357406 10.006189,9.5598492 9.97355,9.7079564 9.8387588,9.9965017 9.471556,10.782572 8.5273674,11.393343 7.5550699,11.473954 c -0.609327,0.05051 -1.5147182,-0.212481 -2.19873,-0.638783 -0.098885,-0.06164 -0.183329,-0.108132 -0.1878985,-0.103644 -0.00457,0.0045 0.057499,0.09204 0.1378394,0.194598 0.1598095,0.203998 0.4993127,0.54645 0.6849656,0.690958 0.574713,0.44734 1.3028034,0.747709 2.013652,0.830562 0.088524,0.01032 0.27495,0.01991 0.4142225,0.02151 l 0.2531167,0.003 0.2072874,-0.116336 c 1.117369,-0.626295 1.772109,-1.444282 1.998493,-2.4976735 0.0393,-0.1828711 0.04912,-0.3061603 0.05007,-0.6112888 10e-4,-0.3618276 -0.0022,-0.3919475 -0.06275,-0.572861 C 10.707068,8.2015724 10.431329,7.7815643 10.113028,7.5280821 9.9427107,7.3924485 9.6196174,7.2328206 9.4019748,7.176962 9.1942736,7.1236549 8.8233377,7.1224089 8.6309917,7.1744668 8.1037598,7.3172361 7.8342121,7.6650619 7.8994915,8.1181901 7.934156,8.358811 8.0183447,8.5316376 8.1222906,8.5750687 c 0.094326,0.039411 0.1619692,0.029643 0.3564081,-0.05147 0.1062489,-0.044321 0.1435793,-0.050797 0.1854307,-0.031727 0.076984,0.035076 0.065158,0.105182 -0.040541,0.2421882 C 8.4464955,8.963606 8.2281799,9.0821556 7.9833939,9.0820074 7.8077928,9.0819009 7.6972444,9.0516574 7.5638832,8.9670825 7.0859049,8.6639577 6.8456058,8.0122824 6.9765681,7.3750564 7.1568983,6.4976244 8.0174269,5.7503457 9.10726,5.5249792 c 0.4406369,-0.09112 1.017774,-0.031397 1.583212,0.1635736 0.275047,0.094841 0.696894,0.294731 0.912349,0.4325542 0.07156,0.045773 0.135374,0.077906 0.142068,0.071212 C 11.765856,6.1713459 11.515141,5.862384 11.308105,5.6540048 10.568062,4.9091675 9.6063781,4.4902823 8.5816373,4.4666933 Z m -0.5629901,0.062749 c -0.00486,-0.00164 -0.016182,-3.99e-4 -0.032786,0.00282 C 6.1958763,4.8253807 4.9545582,5.9987857 4.581126,7.5006431 4.490028,7.8670178 4.4638173,8.091047 4.4647914,8.4944254 c 0.00132,0.5328953 0.093764,0.9943763 0.3007077,1.5021306 l 0.094831,0.232316 0.2146909,0.161811 c 0.6480963,0.488206 1.35445,0.784365 2.0905036,0.876391 0.2813802,0.03518 0.7262655,-0.02908 1.0787418,-0.155818 C 8.886296,10.880403 9.4610062,10.375634 9.6839977,9.8460253 9.8648525,9.416493 9.8592344,8.9958719 9.6677808,8.60653 9.573685,8.4151708 9.3883406,8.2140279 9.2338179,8.1351969 9.0952491,8.0645043 8.9095014,8.0534384 8.7949181,8.1094629 l -0.089896,0.044067 0.067685,0.00249 c 0.2602124,0.00893 0.4485701,0.2754818 0.4938954,0.6987185 0.071389,0.6666151 -0.4915069,1.1679296 -1.3117646,1.1679296 -0.5520127,0 -1.0053764,-0.1923447 -1.4073,-0.5968309 C 6.2066111,9.0827399 5.9942395,8.7083535 5.8703287,8.2318223 5.7726793,7.8562899 5.8034879,7.3081564 5.9517624,6.780103 6.1914057,5.9266573 6.7423999,5.2145666 7.604071,4.6448288 7.7321467,4.560145 7.7748399,4.5285657 7.7602414,4.5235585 Z M 9.5930451,5.6875809 C 9.4273394,5.6858593 9.2670591,5.7002421 9.1146628,5.7312953 8.31172,5.8949249 7.6140986,6.4050972 7.3012482,7.0575129 c -0.2055561,0.4286657 -0.209633,0.8928117 -0.01163,1.2951956 0.09298,0.1889581 0.2876688,0.3961019 0.4466551,0.4752107 0.123229,0.061316 0.3315036,0.071863 0.4276189,0.021501 l 0.05993,-0.031375 -0.1159829,-0.029966 C 7.8883439,8.731826 7.757212,8.5318437 7.7003149,8.1658655 7.6485019,7.832589 7.7441273,7.5268117 7.9692954,7.30675 8.1250534,7.1545241 8.3062433,7.0539806 8.5485023,6.9852422 c 0.2684301,-0.076164 0.6862104,-0.070926 0.9655796,0.012341 0.5579191,0.166284 0.9632701,0.4910723 1.2860291,1.0304452 0.220591,0.3686356 0.343363,0.7838782 0.343363,1.1608817 0,1.2337679 -0.611745,2.3339259 -1.7023656,3.0610189 -0.095708,0.0638 -0.1843515,0.125775 -0.1967121,0.137839 -0.01473,0.01436 -0.00691,0.01782 0.022564,0.0099 0.024723,-0.0066 0.1307767,-0.03355 0.2358426,-0.05992 0.7232401,-0.181561 1.5006481,-0.676895 1.9984941,-1.273341 0.94858,-1.1364587 1.213231,-2.5617545 0.731851,-3.9398803 C 12.105928,6.7602732 12.069187,6.7016843 11.882381,6.5625593 11.133393,6.0047418 10.311112,5.6951563 9.5930509,5.6875792 Z" />
</svg>
