<?xml version="1.0" encoding="UTF-8" standalone="no"?>
<svg
   width="64"
   height="64"
   version="1.1"
   viewBox="0 0 16.933 16.933"
   id="svg7"
   sodipodi:docname="abcd.svg"
   inkscape:version="1.4.3 (0d15f75042, 2025-12-25)"
   xmlns:inkscape="http://www.inkscape.org/namespaces/inkscape"
   xmlns:sodipodi="http://sodipodi.sourceforge.net/DTD/sodipodi-0.dtd"
   xmlns="http://www.w3.org/2000/svg"
   xmlns:svg="http://www.w3.org/2000/svg"
   xmlns:rdf="http://www.w3.org/1999/02/22-rdf-syntax-ns#"
   xmlns:cc="http://creativecommons.org/ns#"
   xmlns:dc="http://purl.org/dc/elements/1.1/">
  <sodipodi:namedview
     id="namedview7"
     pagecolor="#9c4444"
     bordercolor="#000000"
     borderopacity="0.25"
     inkscape:showpageshadow="2"
     inkscape:pageopacity="0.0"
     inkscape:pagecheckerboard="0"
     inkscape:deskcolor="#d1d1d1"
     inkscape:zoom="4.3531261"
     inkscape:cx="40.200995"
     inkscape:cy="23.431437"
     inkscape:window-width="1226"
     inkscape:window-height="669"
     inkscape:window-x="474"
     inkscape:window-y="225"
     inkscape:window-maximized="0"
     inkscape:current-layer="svg7"
     showgrid="false" />
  <defs
     id="defs2">
    <filter
       style="color-interpolation-filters:sRGB;"
       inkscape:label="Blur"
       id="filter5421"
       x="-0.12256455"
       y="-0.12342654"
       width="1.2451291"
       height="1.2468531">
      <feGaussianBlur
         stdDeviation="0.5 0.5"
         result="blur"
         id="feGaussianBlur5419" />
    </filter>
  </defs>
  <metadata
     id="metadata2">
    <rdf:RDF>
      <cc:Work
         rdf:about="">
        <dc:format>image/svg+xml</dc:format>
        <dc:type
           rdf:resource="http://purl.org/dc/dcmitype/StillImage" />
      </cc:Work>
    </rdf:RDF>
  </metadata>
  <rect
     style="opacity:0.3;fill:none;fill-opacity:0.996424;stroke:#000000;stroke-width:0.955221;stroke-dasharray:none;stroke-opacity:1;filter:url(#filter5421)"
     id="rect1-2-7"
     width="13.687567"
     height="13.591975"
     x="1.6227165"
     y="1.6705122"
     rx="2.8442214"
     ry="2.965905" />
  <rect
     style="fill:none;fill-opacity:1;stroke:{{colors.primary.default.hex}};stroke-width:0.955221;stroke-dasharray:none;stroke-opacity:1"
     id="rect1-2"
     width="13.687567"
     height="13.591975"
     x="1.6227167"
     y="1.6705124"
     rx="2.8442214"
     ry="2.965905" />
  <path
     id="path127"
     style="fill:{{colors.primary.default.hex}};fill-opacity:1;stroke:none;stroke-width:0.127719;stroke-dasharray:none;stroke-dashoffset:2.2;stroke-opacity:0.6"
     d="M 8.4294612,4.4378238 C 8.1591394,4.4374823 7.8939603,4.4527796 7.7143695,4.4843714 6.9051397,4.6267162 6.1512634,5.0240411 5.5465884,5.626573 5.0817418,6.0897744 4.756007,6.6131815 4.556816,7.2168597 4.3973764,7.7000676 4.3954371,7.7731277 4.5491384,7.4710801 4.8343924,6.9105256 5.2715951,6.4676653 5.8043852,6.1994653 6.2174658,5.9915254 6.4549151,5.9401974 7.0043884,5.9416643 8.393033,5.9453643 9.2695863,6.4610287 9.491352,7.4040721 9.552898,7.6658043 9.539391,8.3071435 9.468847,8.4700598 9.443774,8.5279668 9.405953,8.6294572 9.384446,8.6956359 9.362945,8.7618149 9.29322,8.8964487 9.2294582,8.9948692 9.1656952,9.0932902 9.1133454,9.1828235 9.1133454,9.1938464 c 0,0.011021 0.028194,0.056114 0.062917,0.100257 0.1248698,0.1587457 0.500684,0.3011604 0.9186726,0.3478256 0.617442,0.068942 1.106598,-0.035268 1.562666,-0.3329921 0.664021,-0.4334764 0.90883,-0.9450386 0.823533,-1.7202096 C 12.44002,7.2151143 12.365363,6.9707442 12.174227,6.5897473 11.975392,6.1934055 11.829184,5.9834401 11.552741,5.6940926 10.946668,5.059723 10.111079,4.6349556 9.1767741,4.4864172 8.9751695,4.4543601 8.6997795,4.4381526 8.4294578,4.4378238 Z M 6.5742131,6.1856542 C 6.3853015,6.1836842 6.3107043,6.1974108 6.1614247,6.2424331 5.3366307,6.4911841 4.6614957,7.354829 4.53789,8.3186533 4.481004,8.7622265 4.5695934,9.4599622 4.7527251,10.01073 c 0.4283098,1.288143 1.4163627,2.217976 2.6010305,2.448086 0.1915271,0.03718 0.3200978,0.03784 1.067521,0.007 0.024816,-0.0011 0.1877626,0.0086 0.3621501,0.02098 0.3601536,0.02561 0.5909235,-0.005 0.9524309,-0.125833 0.7438154,-0.248627 1.5197654,-0.818655 1.9744324,-1.450131 0.177575,-0.24663 0.198401,-0.304893 0.129413,-0.362147 -0.03203,-0.02656 -0.07693,-0.0095 -0.201537,0.07621 -0.08816,0.06064 -0.242052,0.146905 -0.342201,0.191817 -0.317059,0.14219 -0.46749,0.164992 -1.069569,0.162661 -0.517575,-0.002 -0.5753166,-0.0078 -0.8271118,-0.08439 C 8.8619901,10.73132 8.4386469,10.47203 8.0596386,10.075179 7.7938301,9.7968566 7.6377311,9.5525319 7.5199962,9.2296535 7.3282616,8.7038404 7.3390574,8.2237263 7.5486389,7.9293941 7.6468914,7.7914122 7.6202186,7.7956361 7.4258761,7.9483188 7.0041087,8.2796785 6.6784471,8.7703432 6.506181,9.3334887 6.4351552,9.565671 6.4248477,9.649901 6.4238265,10.019427 c -0.00139,0.480762 0.037049,0.659016 0.2250638,1.052683 0.1483174,0.31055 0.3846726,0.616437 0.646549,0.836832 0.2169154,0.182556 0.64117,0.412736 0.9002592,0.487983 l 0.1503842,0.04345 -0.2168806,-0.01483 C 7.2093804,12.361893 6.449257,11.618512 6.2391722,10.57799 6.1648209,10.209734 6.1905658,9.6322692 6.2974849,9.2736401 6.5210944,8.5236042 7.037756,7.8860775 7.6089977,7.6562438 7.8700291,7.551221 8.2462889,7.6544576 8.4504317,7.8869354 8.5704772,8.0236588 8.6903272,8.2718449 8.6954447,8.3948653 8.7031486,8.5800359 8.74892,8.2527027 8.7501774,8.0035601 8.7537101,7.3015226 8.4404971,6.7324278 7.8944199,6.4480569 7.5588304,6.2732975 7.294957,6.2112997 6.8079723,6.1923012 6.7125672,6.1885873 6.6371819,6.1863257 6.5742122,6.1856533 Z" />
</svg>
