<?xml version="1.0" encoding="UTF-8" standalone="no"?>
<svg
   width="64"
   height="64"
   version="1.1"
   viewBox="0 0 16.933 16.933"
   id="svg7"
   sodipodi:docname="abcd.svg"
   inkscape:version="1.4.3 (0d15f75042, 2025-12-25)"
   xmlns:inkscape="http://www.inkscape.org/namespaces/inkscape"
   xmlns:sodipodi="http://sodipodi.sourceforge.net/DTD/sodipodi-0.dtd"
   xmlns="http://www.w3.org/2000/svg"
   xmlns:svg="http://www.w3.org/2000/svg"
   xmlns:rdf="http://www.w3.org/1999/02/22-rdf-syntax-ns#"
   xmlns:cc="http://creativecommons.org/ns#"
   xmlns:dc="http://purl.org/dc/elements/1.1/">
  <sodipodi:namedview
     id="namedview7"
     pagecolor="#9c4444"
     bordercolor="#000000"
     borderopacity="0.25"
     inkscape:showpageshadow="2"
     inkscape:pageopacity="0.0"
     inkscape:pagecheckerboard="0"
     inkscape:deskcolor="#d1d1d1"
     inkscape:zoom="4.3531261"
     inkscape:cx="39.282115"
     inkscape:cy="25.498917"
     inkscape:window-width="1226"
     inkscape:window-height="669"
     inkscape:window-x="50"
     inkscape:window-y="194"
     inkscape:window-maximized="0"
     inkscape:current-layer="svg7"
     showgrid="false" />
  <defs
     id="defs2">
    <filter
       style="color-interpolation-filters:sRGB;"
       inkscape:label="Blur"
       id="filter5421"
       x="-0.12256455"
       y="-0.12342654"
       width="1.2451291"
       height="1.2468531">
      <feGaussianBlur
         stdDeviation="0.5 0.5"
         result="blur"
         id="feGaussianBlur5419" />
    </filter>
  </defs>
  <metadata
     id="metadata2">
    <rdf:RDF>
      <cc:Work
         rdf:about="">
        <dc:format>image/svg+xml</dc:format>
        <dc:type
           rdf:resource="http://purl.org/dc/dcmitype/StillImage" />
      </cc:Work>
    </rdf:RDF>
  </metadata>
  <rect
     style="opacity:0.3;fill:none;fill-opacity:0.996424;stroke:#000000;stroke-width:0.955221;stroke-dasharray:none;stroke-opacity:1;filter:url(#filter5421)"
     id="rect1-2-7"
     width="13.687567"
     height="13.591975"
     x="1.6227165"
     y="1.6705122"
     rx="2.8442214"
     ry="2.965905" />
  <rect
     style="fill:none;fill-opacity:1;stroke:{{colors.primary.default.hex}};stroke-width:0.955221;stroke-dasharray:none;stroke-opacity:1"
     id="rect1-2"
     width="13.687567"
     height="13.591975"
     x="1.6227167"
     y="1.6705124"
     rx="2.8442214"
     ry="2.965905" />
  <path
     style="fill:{{colors.primary.default.hex}};fill-opacity:1;stroke-width:0.0739075"
     d="M 8.0272983,12.493029 C 6.3921849,12.302996 5.0303372,11.154039 4.5763043,9.5815131 4.3498606,8.7972322 4.3665107,7.9937982 4.6259614,7.1853906 4.7179034,6.8989134 4.9805815,6.3833716 5.1717736,6.1141593 5.3841942,5.8150556 5.8150347,5.3842151 6.1141388,5.1717946 6.668445,4.7781311 7.3521459,4.5193355 8.0486219,4.4395502 8.9911562,4.331578 10.017642,4.6029213 10.818725,5.1718053 c 0.29909,0.2123961 0.729935,0.6432361 0.942366,0.942354 0.566163,0.7971998 0.839706,1.8320211 0.732243,2.7701039 -0.07978,0.6964763 -0.33858,1.3801768 -0.732243,1.9344828 -0.212915,0.299799 -0.644906,0.731943 -0.936259,0.936589 -0.8280048,0.581588 -1.8414029,0.848815 -2.7975337,0.737694 z M 8.5977448,9.3219569 C 9.4151995,8.8549565 10.074824,8.4643193 10.063575,8.4538746 10.045675,8.4372562 7.2005872,6.8088964 7.0560318,6.7325383 l -0.055431,-0.029281 v 1.7631944 1.7631943 l 0.055431,-0.0293 c 0.030486,-0.01611 0.7242577,-0.4113913 1.541713,-0.8783912 z"
     id="path7" />
</svg>
