<?xml version="1.0" encoding="UTF-8" standalone="no"?>
<svg
   width="64"
   height="64"
   version="1.1"
   viewBox="0 0 16.933 16.933"
   id="svg7"
   sodipodi:docname="fr.handbrake.ghb.svg"
   inkscape:version="1.4.3 (0d15f75042, 2025-12-25)"
   xmlns:inkscape="http://www.inkscape.org/namespaces/inkscape"
   xmlns:sodipodi="http://sodipodi.sourceforge.net/DTD/sodipodi-0.dtd"
   xmlns="http://www.w3.org/2000/svg"
   xmlns:svg="http://www.w3.org/2000/svg"
   xmlns:rdf="http://www.w3.org/1999/02/22-rdf-syntax-ns#"
   xmlns:cc="http://creativecommons.org/ns#"
   xmlns:dc="http://purl.org/dc/elements/1.1/">
  <sodipodi:namedview
     id="namedview7"
     pagecolor="#9c4444"
     bordercolor="#000000"
     borderopacity="0.25"
     inkscape:showpageshadow="2"
     inkscape:pageopacity="0.0"
     inkscape:pagecheckerboard="0"
     inkscape:deskcolor="#d1d1d1"
     inkscape:zoom="4.3531261"
     inkscape:cx="43.417074"
     inkscape:cy="20.215357"
     inkscape:window-width="1226"
     inkscape:window-height="669"
     inkscape:window-x="57"
     inkscape:window-y="206"
     inkscape:window-maximized="0"
     inkscape:current-layer="svg7"
     showgrid="false" />
  <defs
     id="defs2">
    <filter
       style="color-interpolation-filters:sRGB;"
       inkscape:label="Blur"
       id="filter5421"
       x="-0.12256455"
       y="-0.12342654"
       width="1.2451291"
       height="1.2468531">
      <feGaussianBlur
         stdDeviation="0.5 0.5"
         result="blur"
         id="feGaussianBlur5419" />
    </filter>
    <filter
       style="color-interpolation-filters:sRGB"
       inkscape:label="Blur"
       id="filter5421-3"
       x="-0.12256455"
       y="-0.12342654"
       width="1.2451291"
       height="1.2468531">
      <feGaussianBlur
         stdDeviation="0.5 0.5"
         result="blur"
         id="feGaussianBlur5419-6" />
    </filter>
  </defs>
  <metadata
     id="metadata2">
    <rdf:RDF>
      <cc:Work
         rdf:about="">
        <dc:format>image/svg+xml</dc:format>
        <dc:type
           rdf:resource="http://purl.org/dc/dcmitype/StillImage" />
      </cc:Work>
    </rdf:RDF>
  </metadata>
  <rect
     style="opacity:0.3;fill:none;fill-opacity:0.996424;stroke:#000000;stroke-width:0.955221;stroke-dasharray:none;stroke-opacity:1;filter:url(#filter5421)"
     id="rect1-2-7"
     width="13.687567"
     height="13.591975"
     x="1.6227165"
     y="1.6705122"
     rx="2.8442214"
     ry="2.965905" />
  <rect
     style="fill:none;fill-opacity:1;stroke:{{colors.primary.default.hex}};stroke-width:0.955221;stroke-dasharray:none;stroke-opacity:1"
     id="rect1-2"
     width="13.687567"
     height="13.591975"
     x="1.6227167"
     y="1.6705124"
     rx="2.8442214"
     ry="2.965905" />
  <path
     d="M 9.3172362,5.0840013 6.3404207,5.8892185 C 6.1168853,5.9521475 5.9365797,6.2016747 5.9365797,6.4440884 V 10.286861 C 5.7097625,10.162373 5.4189207,10.1123 5.1168616,10.194384 4.5721154,10.342677 4.230657,10.821757 4.3474859,11.264175 4.4640416,11.706595 5.0011265,11.954208 5.5458732,11.805913 5.980357,11.687718 6.2796796,11.35255 6.3272869,10.999875 L 6.3404254,7.3685977 9.009163,6.6194691 V 9.3741179 C 8.8113469,9.3038019 8.5823408,9.2846494 8.3453983,9.3492159 7.8006521,9.4972355 7.4597411,9.9763166 7.5765703,10.419009 c 0.1168295,0.442417 0.6530932,0.689757 1.19784,0.541464 0.3868766,-0.105066 0.6654058,-0.381953 0.7559692,-0.690306 0.097402,-0.180032 0.1417276,-0.3827731 0.1417276,-0.4637583 0,-0.025452 0.00321,-0.085913 0.00352,-0.1127255 V 9.5929956 c 0.013407,-0.099318 0.062098,-0.1794831 0.1923437,-0.1794831 0.1321512,0 0.1833152,0.080711 0.2027392,0.1794831 h 0.0047 v 0.4487114 c 0,0.148842 0.08946,0.268954 0.200006,0.268954 0.110264,0 0.200005,-0.120112 0.200005,-0.268954 V 9.0545439 c 0,-0.07907 0.07388,-0.3586959 0.133246,-0.3586959 0.05908,0 0.133245,0.2796235 0.133245,0.3586959 v 0.090016 c 0,0.1488402 0.09003,0.2689524 0.200554,0.2689524 0.110261,0 0.199729,-0.1201122 0.199729,-0.2689524 v -0.80768 c 0,-0.079346 0.07416,-0.1794846 0.13352,-0.1794846 0.05908,0 0.133245,0.1001393 0.133245,0.1794846 v 0.090016 c 0,0.1485673 0.08946,0.268953 0.19973,0.268953 0.110536,0 0.200005,-0.1203857 0.200005,-0.268953 v -0.269498 h 0.599742 c 0.110536,0 0.200005,-0.1201132 0.200005,-0.2686797 0,-0.1488407 -0.08947,-0.2695006 -0.200005,-0.2695006 h -0.599768 v -0.268953 c 0,-0.1485672 -0.08947,-0.2692271 -0.200004,-0.2692271 -0.110263,0 -0.199733,0.1206599 -0.199733,0.2692271 v 0.089468 c 0,0.079347 -0.07416,0.1794847 -0.133243,0.1794847 -0.05937,0 -0.13352,-0.1001393 -0.13352,-0.1794847 v -0.807131 c 0,-0.1485675 -0.08946,-0.2695011 -0.199732,-0.2695011 -0.110535,0 -0.20055,0.1209336 -0.20055,0.2695011 V 6.72207 c 0,0.079345 -0.07416,0.3589684 -0.133248,0.3589684 -0.05936,0 -0.133245,-0.2796238 -0.133245,-0.3589684 V 5.7354522 c 0,-0.1485665 -0.08974,-0.2695001 -0.200004,-0.2695001 -0.110537,0 -0.200006,0.1209336 -0.200006,0.2695001 v 0.4484381 c -0.01369,0.099045 -0.0643,0.1792105 -0.2073914,0.1792105 -0.130236,0 -0.1726441,-0.080167 -0.1863241,-0.1792105 L 9.6420048,6.0013968 C 9.6417596,5.9748566 9.6097224,5.5940001 9.6015159,5.5696498 9.5801789,5.5072675 9.5744281,5.440782 9.5621178,5.3784007 9.5440602,5.2224459 9.4482972,5.1069843 9.3172399,5.0840016 Z"
     fill="url(#d)"
     fill-rule="nonzero"
     id="path11"
     style="fill:{{colors.primary.default.hex}};fill-opacity:1;stroke:none;stroke-width:0.13343;stroke-dasharray:none;stroke-opacity:0.6" />
  <rect
     style="opacity:0.3;fill:none;fill-opacity:0.996424;stroke:#000000;stroke-width:0.955221;stroke-dasharray:none;stroke-opacity:1;filter:url(#filter5421-3)"
     id="rect1-2-7-5"
     width="13.687567"
     height="13.591975"
     x="1.6227165"
     y="1.6705122"
     rx="2.8442214"
     ry="2.965905"
     transform="matrix(0.43046721,0,0,0.43046721,9.5627021,9.5627021)" />
  <rect
     style="fill:none;fill-opacity:1;stroke:{{colors.primary.default.hex}};stroke-width:0.411191;stroke-dasharray:none;stroke-opacity:1"
     id="rect1-2-3"
     width="5.8920484"
     height="5.8508992"
     x="10.261228"
     y="10.281802"
     rx="1.224344"
     ry="1.2767248" />
  <path
     style="fill:{{colors.primary.default.hex}};fill-opacity:1;stroke:none;stroke-width:0.22645;stroke-dasharray:none;stroke-opacity:0.3"
     d="m 12.774974,15.184113 c -1.43e-4,-0.06122 -0.0084,-0.179784 -0.01848,-0.263452 -0.01655,-0.138267 -0.02787,-0.156756 -0.124364,-0.202959 -0.05839,-0.02796 -0.155776,-0.09029 -0.216418,-0.138531 l -0.110255,-0.08769 -0.207836,0.10511 c -0.114313,0.05782 -0.21815,0.105088 -0.230748,0.105077 -0.01259,-1.7e-5 -0.08141,-0.110232 -0.152916,-0.244925 -0.07149,-0.134691 -0.174873,-0.326816 -0.229715,-0.426944 l -0.09971,-0.182062 0.198478,-0.148478 0.198481,-0.14848 0.0018,-0.290625 0.0018,-0.290625 -0.198445,-0.149127 -0.198448,-0.14913 0.180386,-0.34301 c 0.09921,-0.188658 0.205155,-0.384685 0.235425,-0.435619 l 0.05503,-0.09259 0.220167,0.115854 0.220167,0.115853 0.129251,-0.09908 c 0.0711,-0.05449 0.169806,-0.115941 0.219377,-0.136563 0.07969,-0.03315 0.09227,-0.05531 0.108541,-0.191362 0.01013,-0.08463 0.01853,-0.210653 0.01867,-0.28005 l 2.77e-4,-0.126171 h 0.473018 0.473017 v 0.09955 c 0,0.05474 0.0084,0.180799 0.01879,0.280101 0.01693,0.162742 0.02711,0.184006 0.103085,0.215614 0.04636,0.01929 0.146383,0.07938 0.222264,0.133566 l 0.137962,0.09851 0.224626,-0.113416 0.224624,-0.113411 0.227482,0.436481 0.22748,0.436479 -0.19797,0.148764 -0.197971,0.148761 0.0029,0.29148 0.0029,0.291479 0.196006,0.146628 0.196003,0.146629 -0.19895,0.376024 c -0.109425,0.206815 -0.214604,0.402746 -0.233734,0.435401 -0.03394,0.05792 -0.04027,0.05666 -0.258572,-0.05174 L 14.19468,14.49433 14.067003,14.59219 c -0.07022,0.05383 -0.169077,0.115088 -0.219684,0.136138 -0.09065,0.0377 -0.09232,0.04218 -0.112609,0.302692 l -0.02059,0.264422 h -0.469303 -0.469206 l -2.76e-4,-0.111327 z m 0.813648,-1.238127 c 0.245049,-0.144211 0.369314,-0.376871 0.368864,-0.690628 -7.91e-4,-0.579267 -0.525806,-0.943559 -1.006761,-0.698617 -0.287149,0.146241 -0.428898,0.413688 -0.406495,0.766967 0.03564,0.562229 0.587603,0.891097 1.044392,0.622278 z"
     id="path792" />
</svg>
