<?xml version="1.0" encoding="UTF-8" standalone="no"?>
<svg
   width="64"
   height="64"
   version="1.1"
   viewBox="0 0 16.933 16.933"
   id="svg7"
   sodipodi:docname="abcd.svg"
   inkscape:version="1.4.3 (0d15f75042, 2025-12-25)"
   xmlns:inkscape="http://www.inkscape.org/namespaces/inkscape"
   xmlns:sodipodi="http://sodipodi.sourceforge.net/DTD/sodipodi-0.dtd"
   xmlns="http://www.w3.org/2000/svg"
   xmlns:svg="http://www.w3.org/2000/svg"
   xmlns:rdf="http://www.w3.org/1999/02/22-rdf-syntax-ns#"
   xmlns:cc="http://creativecommons.org/ns#"
   xmlns:dc="http://purl.org/dc/elements/1.1/">
  <sodipodi:namedview
     id="namedview7"
     pagecolor="#9c4444"
     bordercolor="#000000"
     borderopacity="0.25"
     inkscape:showpageshadow="2"
     inkscape:pageopacity="0.0"
     inkscape:pagecheckerboard="0"
     inkscape:deskcolor="#d1d1d1"
     inkscape:zoom="4.3531261"
     inkscape:cx="40.890155"
     inkscape:cy="24.120597"
     inkscape:window-width="1226"
     inkscape:window-height="669"
     inkscape:window-x="94"
     inkscape:window-y="173"
     inkscape:window-maximized="0"
     inkscape:current-layer="svg7"
     showgrid="false" />
  <defs
     id="defs2">
    <filter
       style="color-interpolation-filters:sRGB;"
       inkscape:label="Blur"
       id="filter5421"
       x="-0.12256455"
       y="-0.12342654"
       width="1.2451291"
       height="1.2468531">
      <feGaussianBlur
         stdDeviation="0.5 0.5"
         result="blur"
         id="feGaussianBlur5419" />
    </filter>
  </defs>
  <metadata
     id="metadata2">
    <rdf:RDF>
      <cc:Work
         rdf:about="">
        <dc:format>image/svg+xml</dc:format>
        <dc:type
           rdf:resource="http://purl.org/dc/dcmitype/StillImage" />
      </cc:Work>
    </rdf:RDF>
  </metadata>
  <rect
     style="opacity:0.3;fill:none;fill-opacity:0.996424;stroke:#000000;stroke-width:0.955221;stroke-dasharray:none;stroke-opacity:1;filter:url(#filter5421)"
     id="rect1-2-7"
     width="13.687567"
     height="13.591975"
     x="1.6227165"
     y="1.6705122"
     rx="2.8442214"
     ry="2.965905" />
  <rect
     style="fill:none;fill-opacity:1;stroke:{{colors.primary.default.hex}};stroke-width:0.955221;stroke-dasharray:none;stroke-opacity:1"
     id="rect1-2"
     width="13.687567"
     height="13.591975"
     x="1.6227167"
     y="1.6705124"
     rx="2.8442214"
     ry="2.965905" />
  <path
     id="path83"
     style="fill:{{colors.primary.default.hex}};fill-opacity:1;stroke:none;stroke-width:0.142233;stroke-dasharray:none;stroke-opacity:0.6"
     d="M 10.916675,4.3700741 10.353859,4.3884053 9.7915956,4.4067336 8.5703964,6.7724597 7.3491972,9.13763 7.5353218,9.4909892 c 0.1025458,0.19432 0.2283261,0.4207637 0.2794646,0.5033693 0.088619,0.1431485 0.096447,0.1448895 0.1722348,0.032222 C 8.0307545,9.9615645 8.4208579,9.2174961 8.8537504,8.3731288 9.2866423,7.52876 9.9280037,6.2827181 10.278854,5.6040398 Z m 0.647826,0.00499 -1.749015,3.3902442 C 8.85346,9.6299534 8.0487629,11.155552 8.0270238,11.155552 c -0.021732,0 -0.2255343,-0.345668 -0.4528103,-0.767835 L 7.1608506,9.6204498 H 6.6058108 6.0507706 l 0.3155779,0.5917092 c 0.1737968,0.325433 0.5247942,0.987264 0.7795008,1.470662 l 0.4628119,0.878952 0.4183626,5.79e-4 0.4178084,5.78e-4 L 10.53776,8.5093047 C 11.688695,6.2799068 12.630133,4.437927 12.630133,4.4156763 v -5.778e-4 -5.778e-4 l -5.77e-4,-5.779e-4 V 4.4133649 L 12.628978,4.412787 C 12.607948,4.391974 12.37653,4.375007 12.097274,4.375007 Z M 4.3028665,9.6204489 4.5545514,10.08437 c 0.1383841,0.255071 0.4922737,0.917101 0.7861678,1.471218 l 0.5339275,1.007296 h 0.4016956 c 0.3961187,0 0.4032862,-0.0029 0.5189262,-0.228352 L 6.9124994,12.105628 6.653036,11.598369 C 6.4978788,11.295357 6.3619513,11.103574 6.3152338,11.121113 6.2676043,11.138997 6.0798387,10.851419 5.8351997,10.38606 L 5.4340593,9.6226718 4.868463,9.6215162 Z" />
</svg>
