<?xml version="1.0" encoding="UTF-8" standalone="no"?>
<svg
   width="64"
   height="64"
   version="1.1"
   viewBox="0 0 16.933 16.933"
   id="svg7"
   sodipodi:docname="abcd.svg"
   inkscape:version="1.4.3 (0d15f75042, 2025-12-25)"
   xmlns:inkscape="http://www.inkscape.org/namespaces/inkscape"
   xmlns:sodipodi="http://sodipodi.sourceforge.net/DTD/sodipodi-0.dtd"
   xmlns="http://www.w3.org/2000/svg"
   xmlns:svg="http://www.w3.org/2000/svg"
   xmlns:rdf="http://www.w3.org/1999/02/22-rdf-syntax-ns#"
   xmlns:cc="http://creativecommons.org/ns#"
   xmlns:dc="http://purl.org/dc/elements/1.1/">
  <sodipodi:namedview
     id="namedview7"
     pagecolor="#9c4444"
     bordercolor="#000000"
     borderopacity="0.25"
     inkscape:showpageshadow="2"
     inkscape:pageopacity="0.0"
     inkscape:pagecheckerboard="0"
     inkscape:deskcolor="#d1d1d1"
     inkscape:zoom="4.3531261"
     inkscape:cx="37.674075"
     inkscape:cy="26.188077"
     inkscape:window-width="1226"
     inkscape:window-height="669"
     inkscape:window-x="146"
     inkscape:window-y="136"
     inkscape:window-maximized="0"
     inkscape:current-layer="svg7"
     showgrid="false" />
  <defs
     id="defs2">
    <filter
       style="color-interpolation-filters:sRGB;"
       inkscape:label="Blur"
       id="filter5421"
       x="-0.12256455"
       y="-0.12342654"
       width="1.2451291"
       height="1.2468531">
      <feGaussianBlur
         stdDeviation="0.5 0.5"
         result="blur"
         id="feGaussianBlur5419" />
    </filter>
  </defs>
  <metadata
     id="metadata2">
    <rdf:RDF>
      <cc:Work
         rdf:about="">
        <dc:format>image/svg+xml</dc:format>
        <dc:type
           rdf:resource="http://purl.org/dc/dcmitype/StillImage" />
      </cc:Work>
    </rdf:RDF>
  </metadata>
  <rect
     style="opacity:0.3;fill:none;fill-opacity:0.996424;stroke:#000000;stroke-width:0.955221;stroke-dasharray:none;stroke-opacity:1;filter:url(#filter5421)"
     id="rect1-2-7"
     width="13.687567"
     height="13.591975"
     x="1.6227165"
     y="1.6705122"
     rx="2.8442214"
     ry="2.965905" />
  <rect
     style="fill:none;fill-opacity:1;stroke:{{colors.primary.default.hex}};stroke-width:0.955221;stroke-dasharray:none;stroke-opacity:1"
     id="rect1-2"
     width="13.687567"
     height="13.591975"
     x="1.6227167"
     y="1.6705124"
     rx="2.8442214"
     ry="2.965905" />
  <path
     id="path51"
     style="fill:{{colors.primary.default.hex}};fill-opacity:1;stroke:none;stroke-width:0.130312;stroke-dasharray:none;stroke-opacity:0.6"
     d="m 8.571116,5.036843 c -0.5894456,0 -0.707168,0.01338 -1.3000674,0.1455827 C 6.7198052,5.3053429 6.5359651,5.3678579 6.0804229,5.5865971 L 5.5418672,5.8451855 5.0537058,6.4158098 C 4.7852139,6.7296276 4.5473067,7.0277069 4.5253309,7.0785697 4.5033568,7.1294324 4.450523,7.4508541 4.4077444,7.7927412 L 4.3298634,8.4142692 4.563,9.0408876 l 0.2326275,0.6266183 0.610838,0.4932521 0.6103297,0.49376 0.6948285,0.235683 c 0.6866322,0.232654 0.7033865,0.236019 1.3799852,0.276911 0.5543907,0.03351 0.7557235,0.02952 1.0567501,-0.01934 0.5935215,-0.09634 0.5878201,-0.09729 1.305157,0.291168 0.357088,0.19337 0.712967,0.378161 0.790528,0.410787 0.07271,0.03059 0.138917,0.05029 0.153727,0.04581 2.18e-4,-8.7e-5 0.0013,-4.19e-4 0.0014,-5.24e-4 l 5.25e-4,-5.26e-4 v -5.25e-4 c 0.0082,-0.0082 -0.07996,-0.277577 -0.196485,-0.598622 -0.116535,-0.321045 -0.212268,-0.611142 -0.212268,-0.644435 0,-0.0333 0.154032,-0.181192 0.34207,-0.328834 0.220803,-0.173366 0.471734,-0.4295924 0.708063,-0.7238436 L 12.406649,9.1426407 12.504899,8.6127388 12.603138,8.0828367 12.481519,7.5732975 12.359861,7.0637566 11.958744,6.5888304 C 11.597883,6.1616832 11.506288,6.0803156 11.04657,5.7815347 10.578102,5.4770656 10.480384,5.4319794 9.8773241,5.2429783 L 9.2191456,5.036821 Z m 1.324501,1.3250096 c 0.089185,-0.00264 0.257448,0.038938 0.416897,0.1104601 0.165029,0.074027 0.343641,0.116129 0.554335,0.1303121 0.258793,0.01742 0.346344,0.043414 0.521757,0.1552547 0.181402,0.1156599 0.222641,0.16777 0.297785,0.3771927 0.04881,0.1360142 0.09718,0.3985739 0.109951,0.5955672 0.02121,0.3270897 0.01488,0.3676827 -0.0906,0.5675707 -0.0795,0.1506501 -0.185963,0.2673284 -0.355305,0.388391 -0.220794,0.1578502 -0.259741,0.1711768 -0.441329,0.153728 l -0.199032,-0.019345 0.01985,0.2524798 c 0.01086,0.138868 0.0668,0.3981365 0.124203,0.5762242 0.05559,0.1725221 0.0935,0.3225614 0.08654,0.3410513 v 5.253e-4 l -5.26e-4,5.254e-4 -5.25e-4,5.253e-4 -5.25e-4,5.254e-4 c -0.01852,0.00855 -0.169624,-0.00295 -0.342577,-0.02699 C 10.417985,9.941028 10.205555,9.932117 10.124135,9.9465 10.042701,9.9608925 9.9431002,9.982638 9.9032146,9.9943515 9.8111719,10.021388 9.8113306,10.022832 9.9337552,9.6975868 10.018609,9.4721433 10.040947,9.3184269 10.063554,8.8159432 10.096451,8.0844081 10.020939,7.0331918 9.9093097,6.6739424 9.86682,6.5371875 9.8317136,6.4110697 9.8314275,6.3939747 c -3.677e-4,-0.020805 0.0236,-0.030869 0.064139,-0.032068 z m -3.3794625,0.011197 c 0.00894,-2.626e-4 0.019166,0.00147 0.030542,0.00458 0.039886,0.010982 0.2218312,0.050944 0.4041713,0.089081 0.2599151,0.054366 0.4004416,0.114329 0.650543,0.2769171 L 7.9205733,6.9508033 8.0732825,7.4094404 C 8.2136594,7.8307202 8.2238137,7.8937431 8.2000322,8.1826575 8.1649103,8.6093018 8.0056701,9.0263617 7.7872069,9.2623141 7.6914041,9.3657867 7.5777774,9.5299131 7.5347271,9.626781 7.4943673,9.7175944 7.4501646,9.7928257 7.4329209,9.8018877 h -5.253e-4 c -6.567e-4,1.574e-4 -0.00168,4.728e-4 -0.00205,5.253e-4 l -5.253e-4,5.254e-4 c -0.014465,0 -0.1329799,-0.1752331 -0.263679,-0.3894092 C 6.8923203,8.9648063 6.8007055,8.909685 6.5787263,9.0617883 6.4584735,9.1441865 6.4341666,9.1970998 6.3476258,9.5636935 6.2952564,9.7855329 6.2397231,9.9755662 6.2229129,9.9907719 l -5.254e-4,5.253e-4 h -5.253e-4 l -5.254e-4,5.244e-4 H 6.2208116 6.2202862 6.2197609 C 6.1980389,9.9903244 6.1095835,9.8809157 6.0176753,9.7398503 5.9067549,9.5696031 5.7834521,9.4376532 5.6817141,9.3804736 5.5932691,9.3307645 5.5208598,9.2740802 5.5208598,9.2542339 c 0,-0.019846 0.075453,-0.1470081 0.1674717,-0.2825126 0.083392,-0.1228009 0.1450921,-0.2256742 0.1471104,-0.2438264 v -5.253e-4 -5.254e-4 -5.253e-4 -5.253e-4 h -5.254e-4 v -5.254e-4 h -5.253e-4 -5.253e-4 c -0.011846,0 -0.1451949,0.07552 -0.2962562,0.1679804 -0.1439813,0.088126 -0.267108,0.1556646 -0.2830221,0.1557639 H 5.2540622 5.2535369 L 5.2530115,9.0484871 C 5.2475903,9.0414977 5.2156939,8.8928273 5.181747,8.7181258 5.1250767,8.4264879 5.1262359,8.3656562 5.1959989,7.9749392 5.2599941,7.6165326 5.3062328,7.4879118 5.4881833,7.15947 L 5.7040129,6.7695515 6.0303023,6.6056434 C 6.2098353,6.5153758 6.3751752,6.4474191 6.3978234,6.4549696 l 5.253e-4,5.253e-4 h 5.254e-4 l 5.252e-4,5.253e-4 h 5.254e-4 l 5.253e-4,5.253e-4 5.253e-4,5.254e-4 v 5.252e-4 c 0.011323,0.018974 -0.050106,0.1248725 -0.1440561,0.2458623 -0.2446339,0.3150401 -0.341936,0.6076879 -0.3038918,0.9121851 0.023253,0.1861054 0.050189,0.2471982 0.1343844,0.3023647 0.1289785,0.08451 0.1712317,0.048688 0.211248,-0.1776519 0.020905,-0.1182385 0.092549,-0.2427075 0.2326278,-0.4046807 L 6.733373,7.1020304 6.9318959,7.2974987 C 7.057609,7.4213219 7.1392175,7.542316 7.1553606,7.6283689 7.1902481,7.8143371 7.2825262,7.8880198 7.3416657,7.7775161 7.5021576,7.4776347 7.230504,6.9566646 6.7593335,6.6601907 6.6024283,6.5614612 6.474276,6.4527727 6.474276,6.4189096 c 0,-0.028962 0.014945,-0.044923 0.041739,-0.045814 z m 2.4937471,0.8434659 c 0.04897,-0.00147 0.1042395,0.01229 0.1985222,0.037158 C 9.5402482,7.3412075 9.7554069,7.570409 9.8645655,7.9520654 9.9944344,8.4061268 10.013696,8.744405 9.9327765,9.1518536 9.8467093,9.5852074 9.7338289,9.7934705 9.5194422,9.9148922 9.4287372,9.9662682 9.3171289,10.005996 9.271544,10.002957 9.0077148,9.9853616 8.9270933,9.9500501 8.7441868,9.7713467 8.5888929,9.6196209 8.5215114,9.5067977 8.4184066,9.2251551 8.292961,8.8824894 8.2893151,8.8533042 8.31151,8.386271 8.3318557,7.9580769 8.3489352,7.8746402 8.4576021,7.6593733 8.5569476,7.4625698 8.6190068,7.3950605 8.7833822,7.3055958 8.894374,7.2451869 8.9469396,7.218372 9.0099016,7.2165155 Z m 1.6915144,0.3899182 v 0.3486869 c 0,0.24026 0.01573,0.35516 0.0514,0.369557 0.09234,0.037262 0.132557,0.028801 0.279969,-0.060575 0.179432,-0.1087917 0.205885,-0.1479895 0.206668,-0.3079643 9.02e-4,-0.1815619 -0.184529,-0.349705 -0.385339,-0.349705 z M 9.2552548,8.6255156 c -0.02563,0.00144 -0.051102,0.020731 -0.097225,0.057011 -0.1441148,0.1133595 -0.215247,0.3793388 -0.1537275,0.5736788 0.026629,0.084118 0.077993,0.1761399 0.1140232,0.2046303 0.08118,0.064195 0.1408133,0.064924 0.2743681,0.00407 0.217474,-0.099085 0.2056674,-0.609515 -0.017819,-0.7747433 -0.061151,-0.045211 -0.090574,-0.066286 -0.1196224,-0.064647 z" />
</svg>
