<?xml version="1.0" encoding="UTF-8" standalone="no"?>
<svg
   width="64"
   height="64"
   version="1.1"
   viewBox="0 0 16.933 16.933"
   id="svg7"
   sodipodi:docname="abcd.svg"
   inkscape:version="1.4.3 (0d15f75042, 2025-12-25)"
   xmlns:inkscape="http://www.inkscape.org/namespaces/inkscape"
   xmlns:sodipodi="http://sodipodi.sourceforge.net/DTD/sodipodi-0.dtd"
   xmlns="http://www.w3.org/2000/svg"
   xmlns:svg="http://www.w3.org/2000/svg"
   xmlns:rdf="http://www.w3.org/1999/02/22-rdf-syntax-ns#"
   xmlns:cc="http://creativecommons.org/ns#"
   xmlns:dc="http://purl.org/dc/elements/1.1/">
  <sodipodi:namedview
     id="namedview7"
     pagecolor="#9c4444"
     bordercolor="#000000"
     borderopacity="0.25"
     inkscape:showpageshadow="2"
     inkscape:pageopacity="0.0"
     inkscape:pagecheckerboard="0"
     inkscape:deskcolor="#d1d1d1"
     inkscape:zoom="4.3531261"
     inkscape:cx="38.133515"
     inkscape:cy="27.106957"
     inkscape:window-width="1226"
     inkscape:window-height="669"
     inkscape:window-x="100"
     inkscape:window-y="206"
     inkscape:window-maximized="0"
     inkscape:current-layer="svg7"
     showgrid="false" />
  <defs
     id="defs2">
    <filter
       style="color-interpolation-filters:sRGB;"
       inkscape:label="Blur"
       id="filter5421"
       x="-0.12256455"
       y="-0.12342654"
       width="1.2451291"
       height="1.2468531">
      <feGaussianBlur
         stdDeviation="0.5 0.5"
         result="blur"
         id="feGaussianBlur5419" />
    </filter>
  </defs>
  <metadata
     id="metadata2">
    <rdf:RDF>
      <cc:Work
         rdf:about="">
        <dc:format>image/svg+xml</dc:format>
        <dc:type
           rdf:resource="http://purl.org/dc/dcmitype/StillImage" />
      </cc:Work>
    </rdf:RDF>
  </metadata>
  <rect
     style="opacity:0.3;fill:none;fill-opacity:0.996424;stroke:#000000;stroke-width:0.955221;stroke-dasharray:none;stroke-opacity:1;filter:url(#filter5421)"
     id="rect1-2-7"
     width="13.687567"
     height="13.591975"
     x="1.6227165"
     y="1.6705122"
     rx="2.8442214"
     ry="2.965905" />
  <rect
     style="fill:none;fill-opacity:1;stroke:{{colors.primary.default.hex}};stroke-width:0.955221;stroke-dasharray:none;stroke-opacity:1"
     id="rect1-2"
     width="13.687567"
     height="13.591975"
     x="1.6227167"
     y="1.6705124"
     rx="2.8442214"
     ry="2.965905" />
  <path
     d="M 6.3768902,10.638573 H 4.3637384 L 5.9964559,6.6273307 C 6.1141544,6.4436006 6.2383398,6.4985111 6.386158,6.7992445 6.5956054,7.2257851 7.1581478,8.6668951 7.137296,8.7236592 7.0749721,8.8932559 6.3780491,10.635795 6.3768902,10.638573 Z m 6.1923708,0 h -2.019638 c 0,0 -0.400591,-0.9830582 -0.400591,-1.0437606 0,-0.054911 0.559298,-0.281503 1.195285,-0.4842314 0.267139,-0.08503 0.325061,-0.092444 0.443223,-0.056302 0.07484,0.022938 0.152221,0.062092 0.171682,0.087116 0.05143,0.065567 0.609345,1.494863 0.610039,1.497178 z M 10.021832,9.4238256 C 9.1865914,9.7245588 8.492449,9.9801122 8.4203935,9.9914647 8.2880987,10.012782 8.20052,9.9662127 8.20052,9.8749252 c 0,-0.078545 0.8352416,-2.0374795 0.8945539,-2.098877 0.03151,-0.032437 0.2504565,-0.1431841 0.5460928,-0.2460546 0.6107343,-0.2124593 0.7967813,-0.2323847 0.9756463,-0.1049555 0.15106,0.1079677 1.243941,1.3431053 1.243941,1.4045031 0,0.031973 -0.05214,0.047496 -0.160098,0.047496 -0.114917,0 -0.587101,0.1538419 -1.678824,0.5467884 z M 8.0594212,9.7792373 C 8.1757295,9.5948124 8.9484143,7.794815 8.9477191,7.7104798 8.9472463,7.6604352 8.8385936,7.3692011 8.7062986,7.0636023 8.4644145,6.504535 8.3569104,6.3511564 8.1761928,6.3059767 8.133562,6.295318 7.683157,6.2913807 7.1750618,6.2969438 l -0.9235155,0.010193 0.094529,0.1144549 c 0.1183937,0.143879 0.244201,0.4202848 0.7119829,1.5622837 0.6899716,1.6853105 0.7835742,1.8773806 0.9133203,1.8773806 0.020156,0 0.059775,-0.03707 0.088042,-0.082016 z"
     fill="#ffffff"
     id="path3-7"
     style="fill:{{colors.primary.default.hex}};fill-opacity:1;stroke:none;stroke-width:0.118197;stroke-dasharray:none;stroke-opacity:0.6" />
</svg>
