<?xml version="1.0" encoding="UTF-8" standalone="no"?>
<svg
   width="64"
   height="64"
   version="1.1"
   viewBox="0 0 16.933 16.933"
   id="svg7"
   sodipodi:docname="abcd.svg"
   inkscape:version="1.4.3 (0d15f75042, 2025-12-25)"
   xmlns:inkscape="http://www.inkscape.org/namespaces/inkscape"
   xmlns:sodipodi="http://sodipodi.sourceforge.net/DTD/sodipodi-0.dtd"
   xmlns="http://www.w3.org/2000/svg"
   xmlns:svg="http://www.w3.org/2000/svg"
   xmlns:rdf="http://www.w3.org/1999/02/22-rdf-syntax-ns#"
   xmlns:cc="http://creativecommons.org/ns#"
   xmlns:dc="http://purl.org/dc/elements/1.1/">
  <sodipodi:namedview
     id="namedview7"
     pagecolor="#9c4444"
     bordercolor="#000000"
     borderopacity="0.25"
     inkscape:showpageshadow="2"
     inkscape:pageopacity="0.0"
     inkscape:pagecheckerboard="0"
     inkscape:deskcolor="#d1d1d1"
     inkscape:zoom="4.3531261"
     inkscape:cx="33.309396"
     inkscape:cy="31.241916"
     inkscape:window-width="1226"
     inkscape:window-height="669"
     inkscape:window-x="100"
     inkscape:window-y="206"
     inkscape:window-maximized="0"
     inkscape:current-layer="svg7"
     showgrid="false" />
  <defs
     id="defs2">
    <filter
       style="color-interpolation-filters:sRGB;"
       inkscape:label="Blur"
       id="filter5421"
       x="-0.12256455"
       y="-0.12342654"
       width="1.2451291"
       height="1.2468531">
      <feGaussianBlur
         stdDeviation="0.5 0.5"
         result="blur"
         id="feGaussianBlur5419" />
    </filter>
  </defs>
  <metadata
     id="metadata2">
    <rdf:RDF>
      <cc:Work
         rdf:about="">
        <dc:format>image/svg+xml</dc:format>
        <dc:type
           rdf:resource="http://purl.org/dc/dcmitype/StillImage" />
      </cc:Work>
    </rdf:RDF>
  </metadata>
  <rect
     style="opacity:0.3;fill:none;fill-opacity:0.996424;stroke:#000000;stroke-width:0.955221;stroke-dasharray:none;stroke-opacity:1;filter:url(#filter5421)"
     id="rect1-2-7"
     width="13.687567"
     height="13.591975"
     x="1.6227165"
     y="1.6705122"
     rx="2.8442214"
     ry="2.965905" />
  <rect
     style="fill:none;fill-opacity:1;stroke:{{colors.primary.default.hex}};stroke-width:0.955221;stroke-dasharray:none;stroke-opacity:1"
     id="rect1-2"
     width="13.687567"
     height="13.591975"
     x="1.6227167"
     y="1.6705124"
     rx="2.8442214"
     ry="2.965905" />
  <path
     style="fill:{{colors.primary.default.hex}};fill-opacity:1;stroke:none;stroke-width:0.252219;stroke-dasharray:none;stroke-dashoffset:2.2;stroke-opacity:0.3"
     d="M 6.9077856,11.161797 C 6.3303202,11.069594 5.6800485,10.687713 5.2455537,10.185628 5.012493,9.916313 4.6431275,9.3626126 4.5102038,9.0832974 4.3370309,8.7194063 4.3026162,8.5057752 4.3735803,8.2352079 4.45038,7.942391 4.5868279,7.6626667 4.8323561,7.2946994 5.3750104,6.4814354 5.9124907,6.0479464 6.6585222,5.821857 6.9333934,5.738555 7.5108282,5.731646 7.8616583,5.807463 8.5335833,5.9526659 9.3833784,6.4775795 9.8344142,7.0260244 10.066219,7.3078924 10.195844,7.3919242 10.402653,7.3944 c 0.137714,0.00162 0.239028,-0.048336 1.005692,-0.4961975 0.987131,-0.5766489 1.061582,-0.6148684 1.139521,-0.5849615 0.0905,0.034734 0.04812,0.2548358 -0.127516,0.6621694 -0.634363,1.4711551 -0.641218,1.4899966 -0.589015,1.6185652 0.02662,0.065549 0.20432,0.4836008 0.394894,0.9290037 0.370964,0.8669907 0.423102,1.0699487 0.280083,1.0902987 -0.04736,0.0067 -0.411545,-0.184801 -1.01046,-0.531444 C 10.294588,9.3865599 10.302407,9.3873549 9.8290647,9.9124223 9.1528638,10.662517 8.2429649,11.136293 7.4051731,11.174521 c -0.178678,0.0082 -0.4025021,0.0026 -0.4973875,-0.01272 z M 6.2604271,7.7265021 C 6.4442672,7.5426625 6.4246808,7.1887326 6.2227076,7.0449159 5.8495837,6.7792279 5.3673605,7.1849493 5.5639279,7.5991832 5.6495946,7.7797141 5.7918481,7.8599224 5.9952396,7.8423756 6.1209458,7.8315303 6.1821354,7.8047931 6.2604271,7.7265021 Z"
     id="path26" />
</svg>
