<?xml version="1.0" encoding="UTF-8" standalone="no"?>
<svg
   width="64"
   height="64"
   version="1.1"
   viewBox="0 0 16.933 16.933"
   id="svg7"
   sodipodi:docname="abcd.svg"
   inkscape:version="1.4.3 (0d15f75042, 2025-12-25)"
   xmlns:inkscape="http://www.inkscape.org/namespaces/inkscape"
   xmlns:sodipodi="http://sodipodi.sourceforge.net/DTD/sodipodi-0.dtd"
   xmlns="http://www.w3.org/2000/svg"
   xmlns:svg="http://www.w3.org/2000/svg"
   xmlns:rdf="http://www.w3.org/1999/02/22-rdf-syntax-ns#"
   xmlns:cc="http://creativecommons.org/ns#"
   xmlns:dc="http://purl.org/dc/elements/1.1/">
  <sodipodi:namedview
     id="namedview7"
     pagecolor="#9c4444"
     bordercolor="#000000"
     borderopacity="0.25"
     inkscape:showpageshadow="2"
     inkscape:pageopacity="0.0"
     inkscape:pagecheckerboard="0"
     inkscape:deskcolor="#d1d1d1"
     inkscape:zoom="4.3531261"
     inkscape:cx="40.200995"
     inkscape:cy="23.431437"
     inkscape:window-width="1226"
     inkscape:window-height="669"
     inkscape:window-x="474"
     inkscape:window-y="225"
     inkscape:window-maximized="0"
     inkscape:current-layer="svg7"
     showgrid="false" />
  <defs
     id="defs2">
    <filter
       style="color-interpolation-filters:sRGB;"
       inkscape:label="Blur"
       id="filter5421"
       x="-0.12256455"
       y="-0.12342654"
       width="1.2451291"
       height="1.2468531">
      <feGaussianBlur
         stdDeviation="0.5 0.5"
         result="blur"
         id="feGaussianBlur5419" />
    </filter>
  </defs>
  <metadata
     id="metadata2">
    <rdf:RDF>
      <cc:Work
         rdf:about="">
        <dc:format>image/svg+xml</dc:format>
        <dc:type
           rdf:resource="http://purl.org/dc/dcmitype/StillImage" />
      </cc:Work>
    </rdf:RDF>
  </metadata>
  <rect
     style="opacity:0.3;fill:none;fill-opacity:0.996424;stroke:#000000;stroke-width:0.955221;stroke-dasharray:none;stroke-opacity:1;filter:url(#filter5421)"
     id="rect1-2-7"
     width="13.687567"
     height="13.591975"
     x="1.6227165"
     y="1.6705122"
     rx="2.8442214"
     ry="2.965905" />
  <rect
     style="fill:none;fill-opacity:1;stroke:{{colors.primary.default.hex}};stroke-width:0.955221;stroke-dasharray:none;stroke-opacity:1"
     id="rect1-2"
     width="13.687567"
     height="13.591975"
     x="1.6227167"
     y="1.6705124"
     rx="2.8442214"
     ry="2.965905" />
  <path
     id="path100"
     style="fill:{{colors.primary.default.hex}};fill-opacity:1;stroke:none;stroke-width:0.127719;stroke-dasharray:none;stroke-opacity:0.6"
     d="m 10.899478,4.5163024 c -0.09016,0.00446 -0.186548,0.077336 -0.360705,0.2334858 C 10.397152,4.8767664 9.0776899,6.1855219 7.6067247,7.6578887 L 4.9321103,10.3345 5.78673,11.17465 c 0.4699893,0.462034 0.8621664,0.840152 0.8715821,0.840152 0.020842,0 3.1003134,-3.0869612 4.3164999,-4.3269784 0.941429,-0.9598738 1.27741,-1.3273124 1.393933,-1.5261421 0.06941,-0.1184201 0.07099,-0.1306635 0.02994,-0.2165236 C 12.31741,5.7751733 11.420005,4.8382135 11.131969,4.6225687 11.03598,4.5506997 10.969607,4.5128332 10.899478,4.5163024 Z M 9.2067037,6.4061439 9.793413,6.9723975 c 0.322735,0.3114553 0.589353,0.5750214 0.592696,0.5857112 l 5.25e-4,5.252e-4 c 0.0012,0.012539 -0.02703,0.059045 -0.06436,0.1047699 L 10.252426,7.749215 10.100763,7.6000428 9.9495931,7.4503721 9.8108998,7.6075268 C 9.7347075,7.694031 9.6376538,7.7824967 9.5953737,7.8040936 9.4986972,7.8534781 9.3700711,7.874633 9.2641023,7.8584742 9.2106089,7.8503159 9.0987206,7.7656278 8.941313,7.6145109 8.5429928,7.232108 8.545264,7.0878029 8.9557828,6.6646013 Z m 0.00847,0.3387543 -0.1571541,0.1626423 C 8.837117,7.1363412 8.8412171,7.1938041 9.0949466,7.4348799 9.3459815,7.6733951 9.39423,7.6763017 9.6143036,7.4638179 L 9.7769513,7.3066635 9.4960691,7.0257815 Z M 8.204407,7.4338821 8.7966038,8.0046261 c 0.325889,0.3137417 0.5926961,0.5859977 0.5926961,0.6051682 0,0.019166 -0.032537,0.065382 -0.072341,0.1027741 L 9.2446221,8.7804192 9.1014377,8.6397283 8.9582526,8.4985399 8.7931157,8.6596848 C 8.7023394,8.7481713 8.6021979,8.8328614 8.5706055,8.8482694 8.4978884,8.8837331 8.3785614,8.9097215 8.3411106,8.8981604 8.3253142,8.8932869 8.2768183,8.8813108 8.2333477,8.8717145 8.142743,8.8517285 7.768312,8.5108224 7.7070059,8.3922696 7.6487875,8.2796862 7.6558039,8.0824349 7.7214758,7.9796776 7.7517612,7.93229 7.8727372,7.790241 7.9903844,7.6638728 Z M 8.203357,7.7801202 8.0496955,7.9517426 c -0.096058,0.1073338 -0.1536306,0.197467 -0.1536627,0.2409695 -3.54e-5,0.047716 0.061586,0.1314311 0.1960688,0.2659152 0.2560099,0.25601 0.3034917,0.2586732 0.5308315,0.028935 L 8.7885725,8.3199312 8.495717,8.0500249 Z M 7.2324969,8.6646734 c 0.1542256,-0.00442 0.2727937,0.082477 0.5682497,0.3711834 l 0.326781,0.3192979 -0.08631,0.086809 -0.086809,0.086309 L 7.6281264,9.2064813 C 7.4068037,8.9881192 7.2808655,8.8841904 7.2369869,8.8841904 c -0.040413,0 -0.1311485,0.065102 -0.2414686,0.1731196 L 6.8189068,9.230429 7.1880946,9.581656 7.5567838,9.9323842 7.4944211,10.0117 c -0.034298,0.04343 -0.077688,0.07852 -0.096288,0.07782 C 7.3795371,10.088894 7.1640248,9.8954344 6.9191864,9.6599772 L 6.4741776,9.2319258 6.7346046,8.970002 C 6.9468199,8.7567539 7.0179895,8.7029432 7.117262,8.6806385 7.159206,8.6712185 7.196919,8.6656905 7.2325094,8.6646735 Z M 4.5069938,10.854354 v 0.781282 0.78128 h 0.7348826 c 0.4311545,0 0.7305222,-0.01105 0.7249047,-0.02645 -0.010501,-0.02877 -1.1537713,-1.239939 -1.3425453,-1.422362 z" />
</svg>
