<?xml version="1.0" encoding="UTF-8" standalone="no"?>
<svg
   width="64"
   height="64"
   version="1.1"
   viewBox="0 0 16.933 16.933"
   id="svg7"
   sodipodi:docname="abcd.svg"
   inkscape:version="1.4.3 (0d15f75042, 2025-12-25)"
   xmlns:inkscape="http://www.inkscape.org/namespaces/inkscape"
   xmlns:sodipodi="http://sodipodi.sourceforge.net/DTD/sodipodi-0.dtd"
   xmlns="http://www.w3.org/2000/svg"
   xmlns:svg="http://www.w3.org/2000/svg"
   xmlns:rdf="http://www.w3.org/1999/02/22-rdf-syntax-ns#"
   xmlns:cc="http://creativecommons.org/ns#"
   xmlns:dc="http://purl.org/dc/elements/1.1/">
  <sodipodi:namedview
     id="namedview7"
     pagecolor="#9c4444"
     bordercolor="#000000"
     borderopacity="0.25"
     inkscape:showpageshadow="2"
     inkscape:pageopacity="0.0"
     inkscape:pagecheckerboard="0"
     inkscape:deskcolor="#d1d1d1"
     inkscape:zoom="4.3531261"
     inkscape:cx="40.200995"
     inkscape:cy="23.431437"
     inkscape:window-width="1226"
     inkscape:window-height="669"
     inkscape:window-x="474"
     inkscape:window-y="225"
     inkscape:window-maximized="0"
     inkscape:current-layer="svg7"
     showgrid="false" />
  <defs
     id="defs2">
    <filter
       style="color-interpolation-filters:sRGB;"
       inkscape:label="Blur"
       id="filter5421"
       x="-0.12256455"
       y="-0.12342654"
       width="1.2451291"
       height="1.2468531">
      <feGaussianBlur
         stdDeviation="0.5 0.5"
         result="blur"
         id="feGaussianBlur5419" />
    </filter>
  </defs>
  <metadata
     id="metadata2">
    <rdf:RDF>
      <cc:Work
         rdf:about="">
        <dc:format>image/svg+xml</dc:format>
        <dc:type
           rdf:resource="http://purl.org/dc/dcmitype/StillImage" />
      </cc:Work>
    </rdf:RDF>
  </metadata>
  <rect
     style="opacity:0.3;fill:none;fill-opacity:0.996424;stroke:#000000;stroke-width:0.955221;stroke-dasharray:none;stroke-opacity:1;filter:url(#filter5421)"
     id="rect1-2-7"
     width="13.687567"
     height="13.591975"
     x="1.6227165"
     y="1.6705122"
     rx="2.8442214"
     ry="2.965905" />
  <rect
     style="fill:none;fill-opacity:1;stroke:{{colors.primary.default.hex}};stroke-width:0.955221;stroke-dasharray:none;stroke-opacity:1"
     id="rect1-2"
     width="13.687567"
     height="13.591975"
     x="1.6227167"
     y="1.6705124"
     rx="2.8442214"
     ry="2.965905" />
  <path
     style="fill:{{colors.primary.default.hex}};fill-opacity:1;stroke:none;stroke-width:0.121637;stroke-dasharray:none;stroke-opacity:0.6"
     d="M 7.3664084,12.328931 C 6.8055664,12.075589 6.2001329,11.506691 5.9123033,10.962581 5.7422433,10.641101 5.688064,10.322943 5.6548338,9.4506397 L 5.6127479,8.345856 5.8533958,8.4201944 c 0.737063,0.2276841 0.8004885,0.3098429 0.8004885,1.0369174 0,0.9081492 0.269108,1.4668792 0.8785229,1.8240202 0.5285779,0.309767 1.2548875,0.353948 1.7352329,0.10555 0.3140191,-0.162384 0.8890059,-0.753454 0.9703539,-0.997494 0.03566,-0.107 0.133296,-0.09526 0.46982,0.05648 0.23364,0.105358 0.424803,0.232682 0.424803,0.282943 0,0.198296 -0.307793,0.659632 -0.678691,1.017259 -0.5653768,0.545146 -1.1752311,0.789966 -1.9678334,0.789966 -0.4471013,0 -0.810152,-0.06708 -1.1196828,-0.206913 z M 10.827249,9.5888797 10.369196,9.4099812 10.3183,7.9978097 C 10.259695,6.3716837 10.131046,6.0405076 9.3979159,5.628464 8.1433082,4.9233361 6.6538835,5.8194452 6.6538835,7.2794062 c 0,0.2622452 -0.044879,0.4768098 -0.09973,0.4768098 -0.054851,0 -0.2838777,-0.07368 -0.508947,-0.1637364 L 5.6359895,7.4287434 V 5.9129555 4.3971667 l 1.7558662,0.00103 c 1.626545,9.206e-4 1.7933509,0.018528 2.2648131,0.2390502 0.6570372,0.3073231 1.3003442,1.0120393 1.5156842,1.6603659 0.133542,0.4020554 0.163477,0.8239685 0.141208,1.990209 l -0.02825,1.4799906 z"
     id="path1" />
</svg>
