<?xml version="1.0" encoding="UTF-8" standalone="no"?>
<svg
   width="64"
   height="64"
   version="1.1"
   viewBox="0 0 16.933 16.933"
   id="svg7"
   sodipodi:docname="abcd.svg"
   inkscape:version="1.4.3 (0d15f75042, 2025-12-25)"
   xmlns:inkscape="http://www.inkscape.org/namespaces/inkscape"
   xmlns:sodipodi="http://sodipodi.sourceforge.net/DTD/sodipodi-0.dtd"
   xmlns="http://www.w3.org/2000/svg"
   xmlns:svg="http://www.w3.org/2000/svg"
   xmlns:rdf="http://www.w3.org/1999/02/22-rdf-syntax-ns#"
   xmlns:cc="http://creativecommons.org/ns#"
   xmlns:dc="http://purl.org/dc/elements/1.1/">
  <sodipodi:namedview
     id="namedview7"
     pagecolor="#9c4444"
     bordercolor="#000000"
     borderopacity="0.25"
     inkscape:showpageshadow="2"
     inkscape:pageopacity="0.0"
     inkscape:pagecheckerboard="0"
     inkscape:deskcolor="#d1d1d1"
     inkscape:zoom="4.3531261"
     inkscape:cx="37.674075"
     inkscape:cy="26.188077"
     inkscape:window-width="1226"
     inkscape:window-height="669"
     inkscape:window-x="146"
     inkscape:window-y="136"
     inkscape:window-maximized="0"
     inkscape:current-layer="svg7"
     showgrid="false" />
  <defs
     id="defs2">
    <filter
       style="color-interpolation-filters:sRGB;"
       inkscape:label="Blur"
       id="filter5421"
       x="-0.12256455"
       y="-0.12342654"
       width="1.2451291"
       height="1.2468531">
      <feGaussianBlur
         stdDeviation="0.5 0.5"
         result="blur"
         id="feGaussianBlur5419" />
    </filter>
  </defs>
  <metadata
     id="metadata2">
    <rdf:RDF>
      <cc:Work
         rdf:about="">
        <dc:format>image/svg+xml</dc:format>
        <dc:type
           rdf:resource="http://purl.org/dc/dcmitype/StillImage" />
      </cc:Work>
    </rdf:RDF>
  </metadata>
  <rect
     style="opacity:0.3;fill:none;fill-opacity:0.996424;stroke:#000000;stroke-width:0.955221;stroke-dasharray:none;stroke-opacity:1;filter:url(#filter5421)"
     id="rect1-2-7"
     width="13.687567"
     height="13.591975"
     x="1.6227165"
     y="1.6705122"
     rx="2.8442214"
     ry="2.965905" />
  <rect
     style="fill:none;fill-opacity:1;stroke:{{colors.primary.default.hex}};stroke-width:0.955221;stroke-dasharray:none;stroke-opacity:1"
     id="rect1-2"
     width="13.687567"
     height="13.591975"
     x="1.6227167"
     y="1.6705124"
     rx="2.8442214"
     ry="2.965905" />
  <path
     style="fill:{{colors.primary.default.hex}};fill-opacity:1;stroke:none;stroke-width:0.13133;stroke-dasharray:none;stroke-opacity:0.6"
     d="M 7.8882843,10.677399 C 6.6288202,10.598975 5.6186724,10.009005 4.8707834,8.9150495 4.6749826,8.6286428 4.4153889,8.1514776 4.3621876,7.9801785 4.333922,7.8891374 4.4117891,7.809971 4.8784959,7.4550249 6.035515,6.5751212 7.2663726,6.1507694 8.3018292,6.2748 9.2175007,6.3844422 10.03821,6.7971753 10.800208,7.5311033 c 0.196527,0.1892985 0.357324,0.3551157 0.357324,0.3685019 0,0.042149 -0.625351,0.6565192 -0.88025,0.864791 C 9.9482426,9.033252 9.482426,9.3333512 9.1702818,9.4775673 8.4531447,9.8089068 7.6694411,9.8195935 7.0729792,9.5061391 6.6178309,9.2669611 6.1857888,8.7708258 5.9999588,8.2739085 L 5.9205327,8.0615215 6.0973365,7.9034676 C 6.5489532,7.4997118 7.1496131,7.2588496 7.8018083,7.2199892 8.3536297,7.1871151 8.8386522,7.3587162 9.2279147,7.7246122 L 9.4373641,7.9214814 9.1125699,8.1973575 C 8.9339261,8.3491117 8.7620483,8.4930399 8.7306111,8.5172521 8.6806044,8.5557539 8.6569639,8.5339784 8.5416693,8.3436258 8.2452255,7.8539786 7.9893094,7.6848783 7.5446917,7.6848783 c -0.2541954,0 -0.5205376,0.1121333 -0.7499298,0.3156884 L 6.6456478,8.1328638 6.6951897,8.282981 C 6.7224378,8.365529 6.801674,8.521179 6.8712327,8.6288274 7.265204,9.2383729 7.8796071,9.484864 8.5187985,9.289822 8.9201664,9.1673559 9.2898947,8.9119476 9.7823696,8.4169604 10.024968,8.1731212 10.223459,7.9571852 10.223459,7.9370983 c 0,-0.020085 -0.124118,-0.1594655 -0.2757902,-0.3097254 C 9.4925674,7.1765356 9.012403,6.8952309 8.4591526,6.7553275 8.082399,6.6600496 7.44342,6.6771456 7.0406934,6.7933128 6.3965317,6.9790933 5.7622313,7.3755085 5.3814879,7.8302625 L 5.237577,8.002141 5.3571802,8.2781539 C 5.8852967,9.4968458 6.8818117,10.219344 8.0338369,10.218816 9.0839011,10.217739 10.06034,9.8074801 11.191047,8.8903513 l 0.362189,-0.2937688 0.191339,0.1072825 c 0.406006,0.2276473 0.831349,0.4801181 0.831349,0.4934705 0,0.030439 -0.585403,0.3986852 -0.820136,0.5159198 -0.737202,0.3681867 -1.8771878,0.7282167 -2.7485695,0.8680657 -0.3908372,0.06269 -0.922038,0.108307 -1.1189509,0.09606 z"
     id="path1-5-2" />
</svg>
