<?xml version="1.0" encoding="UTF-8" standalone="no"?>
<svg
   width="64"
   height="64"
   version="1.1"
   viewBox="0 0 16.933 16.933"
   id="svg7"
   sodipodi:docname="abcd.svg"
   inkscape:version="1.4.3 (0d15f75042, 2025-12-25)"
   xmlns:inkscape="http://www.inkscape.org/namespaces/inkscape"
   xmlns:sodipodi="http://sodipodi.sourceforge.net/DTD/sodipodi-0.dtd"
   xmlns="http://www.w3.org/2000/svg"
   xmlns:svg="http://www.w3.org/2000/svg"
   xmlns:rdf="http://www.w3.org/1999/02/22-rdf-syntax-ns#"
   xmlns:cc="http://creativecommons.org/ns#"
   xmlns:dc="http://purl.org/dc/elements/1.1/">
  <sodipodi:namedview
     id="namedview7"
     pagecolor="#9c4444"
     bordercolor="#000000"
     borderopacity="0.25"
     inkscape:showpageshadow="2"
     inkscape:pageopacity="0.0"
     inkscape:pagecheckerboard="0"
     inkscape:deskcolor="#d1d1d1"
     inkscape:zoom="4.3531261"
     inkscape:cx="37.674075"
     inkscape:cy="26.188077"
     inkscape:window-width="1226"
     inkscape:window-height="669"
     inkscape:window-x="146"
     inkscape:window-y="136"
     inkscape:window-maximized="0"
     inkscape:current-layer="svg7"
     showgrid="false" />
  <defs
     id="defs2">
    <filter
       style="color-interpolation-filters:sRGB;"
       inkscape:label="Blur"
       id="filter5421"
       x="-0.12256455"
       y="-0.12342654"
       width="1.2451291"
       height="1.2468531">
      <feGaussianBlur
         stdDeviation="0.5 0.5"
         result="blur"
         id="feGaussianBlur5419" />
    </filter>
  </defs>
  <metadata
     id="metadata2">
    <rdf:RDF>
      <cc:Work
         rdf:about="">
        <dc:format>image/svg+xml</dc:format>
        <dc:type
           rdf:resource="http://purl.org/dc/dcmitype/StillImage" />
      </cc:Work>
    </rdf:RDF>
  </metadata>
  <rect
     style="opacity:0.3;fill:none;fill-opacity:0.996424;stroke:#000000;stroke-width:0.955221;stroke-dasharray:none;stroke-opacity:1;filter:url(#filter5421)"
     id="rect1-2-7"
     width="13.687567"
     height="13.591975"
     x="1.6227165"
     y="1.6705122"
     rx="2.8442214"
     ry="2.965905" />
  <rect
     style="fill:none;fill-opacity:1;stroke:{{colors.primary.default.hex}};stroke-width:0.955221;stroke-dasharray:none;stroke-opacity:1"
     id="rect1-2"
     width="13.687567"
     height="13.591975"
     x="1.6227167"
     y="1.6705124"
     rx="2.8442214"
     ry="2.965905" />
  <path
     style="fill:{{colors.primary.default.hex}};fill-opacity:1;stroke-width:0.0547775"
     d="M 6.5277554,11.996856 C 6.3975093,11.943276 6.314143,11.877254 6.2514343,11.778029 6.222961,11.732974 5.877851,11.140012 5.4845232,10.460335 5.0911953,9.780658 4.7038446,9.1115416 4.6237438,8.9734113 4.5436431,8.8352804 4.4652985,8.6831068 4.4496449,8.6352478 4.409183,8.5115433 4.4236732,8.3231059 4.4825092,8.2078909 4.5924671,7.9925615 6.2739199,5.1003598 6.3134751,5.0585162 6.3378027,5.0327836 6.4061381,4.9854565 6.465337,4.9533438 L 6.5729713,4.8949568 H 8.4660762 10.35918 l 0.107635,0.058387 c 0.0592,0.032113 0.127718,0.079441 0.152266,0.1051724 0.06413,0.067214 0.66036,1.10745 0.66036,1.1521005 0,0.020561 -0.01661,0.052411 -0.0369,0.070777 -0.03579,0.032389 -0.09972,0.033529 -2.1286351,0.037985 l -2.0917415,0.0046 -0.036164,0.045976 c -0.035224,0.044779 -0.036165,0.065044 -0.036165,0.7783864 0,0.4028253 0.0049,0.7451783 0.01089,0.7607846 0.031617,0.082394 -0.06096,0.079664 2.7026056,0.079664 h 2.592539 l 0.0584,0.039439 c 0.111085,0.075033 0.192001,0.2578661 0.192001,0.4338365 0,0.1455725 -0.02304,0.2051457 -0.195185,0.5046266 C 12.086681,9.3570962 12.075797,9.3721916 11.9921,9.409215 11.92159,9.440407 11.816094,9.44183 9.4742538,9.443186 l -2.4442479,0.00142 -0.040078,0.037649 -0.040078,0.03765 v 1.189765 c 0,1.275049 7.355e-4,1.263414 -0.086672,1.310212 -0.059652,0.03192 -0.2303273,0.02022 -0.335411,-0.02302 z"
     id="path1-3" />
</svg>
