<?xml version="1.0" encoding="UTF-8" standalone="no"?>
<svg
   width="64"
   height="64"
   version="1.1"
   viewBox="0 0 16.933 16.933"
   id="svg7"
   sodipodi:docname="accessories-text-editor.svg"
   inkscape:version="1.4.3 (0d15f75042, 2025-12-25)"
   xmlns:inkscape="http://www.inkscape.org/namespaces/inkscape"
   xmlns:sodipodi="http://sodipodi.sourceforge.net/DTD/sodipodi-0.dtd"
   xmlns="http://www.w3.org/2000/svg"
   xmlns:svg="http://www.w3.org/2000/svg"
   xmlns:rdf="http://www.w3.org/1999/02/22-rdf-syntax-ns#"
   xmlns:cc="http://creativecommons.org/ns#"
   xmlns:dc="http://purl.org/dc/elements/1.1/">
  <sodipodi:namedview
     id="namedview7"
     pagecolor="#9c4444"
     bordercolor="#000000"
     borderopacity="0.25"
     inkscape:showpageshadow="2"
     inkscape:pageopacity="0.0"
     inkscape:pagecheckerboard="0"
     inkscape:deskcolor="#d1d1d1"
     inkscape:zoom="4.3531261"
     inkscape:cx="43.417074"
     inkscape:cy="20.674797"
     inkscape:window-width="1226"
     inkscape:window-height="669"
     inkscape:window-x="474"
     inkscape:window-y="225"
     inkscape:window-maximized="0"
     inkscape:current-layer="svg7"
     showgrid="false" />
  <defs
     id="defs2">
    <filter
       style="color-interpolation-filters:sRGB;"
       inkscape:label="Blur"
       id="filter5421"
       x="-0.12256455"
       y="-0.12342654"
       width="1.2451291"
       height="1.2468531">
      <feGaussianBlur
         stdDeviation="0.5 0.5"
         result="blur"
         id="feGaussianBlur5419" />
    </filter>
  </defs>
  <metadata
     id="metadata2">
    <rdf:RDF>
      <cc:Work
         rdf:about="">
        <dc:format>image/svg+xml</dc:format>
        <dc:type
           rdf:resource="http://purl.org/dc/dcmitype/StillImage" />
      </cc:Work>
    </rdf:RDF>
  </metadata>
  <rect
     style="opacity:0.3;fill:none;fill-opacity:0.996424;stroke:#000000;stroke-width:0.955221;stroke-dasharray:none;stroke-opacity:1;filter:url(#filter5421)"
     id="rect1-2-7"
     width="13.687567"
     height="13.591975"
     x="1.6227165"
     y="1.6705122"
     rx="2.8442214"
     ry="2.965905" />
  <rect
     style="fill:none;fill-opacity:1;stroke:{{colors.primary.default.hex}};stroke-width:0.955221;stroke-dasharray:none;stroke-opacity:1"
     id="rect1-2"
     width="13.687567"
     height="13.591975"
     x="1.6227167"
     y="1.6705124"
     rx="2.8442214"
     ry="2.965905" />
  <path
     style="fill:{{colors.primary.default.hex}};fill-opacity:1;stroke:none;stroke-width:0.13133;stroke-dasharray:none;stroke-opacity:0.6"
     d="m 5.7477431,10.673053 c 0.070117,-0.07788 0.8253613,-0.9899603 0.8253613,-0.9967532 0,-0.0042 -0.2688907,-0.00753 -0.5975345,-0.00753 -0.3286444,0 -0.5975349,-0.00354 -0.5975349,-0.00785 0,-0.00615 0.1561263,-0.5311743 0.195667,-0.658064 0.00739,-0.023741 -0.028297,-0.025209 -0.6125254,-0.025209 H 4.3407994 l 0.010047,-0.039596 c 0.00552,-0.02178 0.1210537,-0.4834314 0.2567315,-1.0258922 L 4.8542647,6.925866 5.1017515,6.921926 c 0.1651078,-0.00262 0.2474869,0.00107 0.2474869,0.011119 0,0.00827 -0.055074,0.2350663 -0.1223864,0.5039678 -0.067312,0.2689034 -0.1223867,0.4955356 -0.1223867,0.5036295 0,0.00966 0.1348783,0.014715 0.3927799,0.014715 h 0.3927795 l 0.085546,-0.3455661 0.085547,-0.345562 h 0.6879476 c 0.3783708,0 0.6879471,-0.00331 0.6879471,-0.00735 0,-0.00405 -0.1478108,-0.2291999 -0.3284688,-0.500345 C 6.9278842,6.485384 6.7752383,6.2554387 6.7693295,6.2455397 c -0.00843,-0.014112 0.042229,-0.018001 0.23478,-0.018001 H 7.2496333 L 7.5953939,6.7458828 7.941154,7.2642262 h 0.5253451 0.5253445 l 0.34576,-0.5183432 0.34576,-0.5183439 h 0.2455245 c 0.1925509,0 0.2432069,0.00388 0.2347799,0.018001 -0.006,0.0099 -0.158556,0.239844 -0.3392123,0.5109895 -0.1806583,0.2711451 -0.3284692,0.4963009 -0.3284692,0.5003457 0,0.00405 0.3095762,0.00735 0.6879485,0.00735 h 0.687947 l 0.08556,0.3455624 0.08555,0.345562 h 0.392779 c 0.257902,0 0.39278,-0.00504 0.39278,-0.014715 0,-0.00808 -0.05508,-0.234726 -0.122385,-0.5036276 -0.06732,-0.2689039 -0.122398,-0.4956892 -0.122398,-0.5039701 0,-0.010044 0.08238,-0.013746 0.247488,-0.011116 l 0.247486,0.00394 0.246688,0.9862922 c 0.135677,0.5424609 0.251207,1.0041103 0.256732,1.025888 l 0.01004,0.039596 H 11.97182 c -0.584226,0 -0.619917,0.00144 -0.612524,0.025197 0.03954,0.1268891 0.195667,0.6519718 0.195667,0.6580642 0,0.00427 -0.268891,0.00785 -0.597535,0.00785 -0.328644,0 -0.597533,0.0034 -0.597533,0.00753 0,0.0068 0.755245,0.9188686 0.825359,0.9967526 l 0.02916,0.03239 H 10.708067 10.20171 L 9.8559448,10.187105 9.5101846,9.6687612 H 8.4686586 7.4271337 L 7.0829095,10.18673 6.7386847,10.704699 6.2286306,10.705093 5.718576,10.705461 Z M 7.43701,8.2073219 V 7.7681699 H 6.9978578 6.5587059 V 8.2073219 8.646474 H 6.9978578 7.43701 Z m 2.93728,0 V 7.7681699 H 9.9351372 9.4959855 V 8.2073219 8.646474 H 9.9351372 10.37429 Z"
     id="path1526" />
</svg>
