<?xml version="1.0" encoding="UTF-8" standalone="no"?>
<svg
   width="64"
   height="64"
   version="1.1"
   viewBox="0 0 16.933 16.933"
   id="svg7"
   sodipodi:docname="abcd.svg"
   inkscape:version="1.4.3 (0d15f75042, 2025-12-25)"
   xmlns:inkscape="http://www.inkscape.org/namespaces/inkscape"
   xmlns:sodipodi="http://sodipodi.sourceforge.net/DTD/sodipodi-0.dtd"
   xmlns="http://www.w3.org/2000/svg"
   xmlns:svg="http://www.w3.org/2000/svg"
   xmlns:rdf="http://www.w3.org/1999/02/22-rdf-syntax-ns#"
   xmlns:cc="http://creativecommons.org/ns#"
   xmlns:dc="http://purl.org/dc/elements/1.1/">
  <sodipodi:namedview
     id="namedview7"
     pagecolor="#9c4444"
     bordercolor="#000000"
     borderopacity="0.25"
     inkscape:showpageshadow="2"
     inkscape:pageopacity="0.0"
     inkscape:pagecheckerboard="0"
     inkscape:deskcolor="#d1d1d1"
     inkscape:zoom="4.3531261"
     inkscape:cx="37.674075"
     inkscape:cy="26.188077"
     inkscape:window-width="1226"
     inkscape:window-height="669"
     inkscape:window-x="146"
     inkscape:window-y="136"
     inkscape:window-maximized="0"
     inkscape:current-layer="svg7"
     showgrid="false" />
  <defs
     id="defs2">
    <filter
       style="color-interpolation-filters:sRGB;"
       inkscape:label="Blur"
       id="filter5421"
       x="-0.12256455"
       y="-0.12342654"
       width="1.2451291"
       height="1.2468531">
      <feGaussianBlur
         stdDeviation="0.5 0.5"
         result="blur"
         id="feGaussianBlur5419" />
    </filter>
  </defs>
  <metadata
     id="metadata2">
    <rdf:RDF>
      <cc:Work
         rdf:about="">
        <dc:format>image/svg+xml</dc:format>
        <dc:type
           rdf:resource="http://purl.org/dc/dcmitype/StillImage" />
      </cc:Work>
    </rdf:RDF>
  </metadata>
  <rect
     style="opacity:0.3;fill:none;fill-opacity:0.996424;stroke:#000000;stroke-width:0.955221;stroke-dasharray:none;stroke-opacity:1;filter:url(#filter5421)"
     id="rect1-2-7"
     width="13.687567"
     height="13.591975"
     x="1.6227165"
     y="1.6705122"
     rx="2.8442214"
     ry="2.965905" />
  <rect
     style="fill:none;fill-opacity:1;stroke:{{colors.primary.default.hex}};stroke-width:0.955221;stroke-dasharray:none;stroke-opacity:1"
     id="rect1-2"
     width="13.687567"
     height="13.591975"
     x="1.6227167"
     y="1.6705124"
     rx="2.8442214"
     ry="2.965905" />
  <path
     id="path6"
     style="fill:{{colors.primary.default.hex}};fill-opacity:1;stroke:none;stroke-width:0.136178;stroke-dasharray:none;stroke-opacity:0.6"
     d="m 8.5788329,4.5503623 c -0.19845,0.0016 -0.3975426,0.011099 -0.5025665,0.027221 C 7.5205396,4.6628989 7.0462959,4.8294114 6.5985809,5.0969021 6.2980089,5.2764814 6.1060907,5.427954 5.8356562,5.6985864 5.4963623,6.0381302 5.2999701,6.3084432 5.0915779,6.7225668 5.0363481,6.832322 4.9910647,6.9274893 4.9910647,6.9340631 c 0,0.00657 0.3314652,0.010136 0.7363999,0.00804 l 0.7360517,-0.00385 0.061075,-0.099815 C 6.74086,6.4844572 7.0795523,6.1344748 7.4253727,5.9072848 8.1525053,5.4295879 9.0562005,5.2975841 9.9029579,5.5453669 c 0.021732,0.00636 0.02481,-0.018099 0.029666,-0.2268532 0.00627,-0.2664114 0.02564,-0.329918 0.1298311,-0.4240408 l 0.0562,-0.050606 -0.1462319,-0.054446 C 9.7038434,4.6901083 9.3944326,4.6142748 9.0775597,4.5695541 8.9751643,4.5551039 8.7772825,4.548756 8.5788315,4.5503604 Z m 2.3289121,0.4393961 c -0.05309,2.164e-4 -0.113301,7.486e-4 -0.182182,0.0014 l -0.481277,0.0042 -0.04014,0.036994 c -0.07747,0.071524 -0.08084,0.096334 -0.07991,0.5744615 9.5e-4,0.4897667 0.006,0.5241447 0.08655,0.578301 0.04996,0.033582 0.0548,0.033854 0.539215,0.033854 0.476203,0 0.489665,-6.738e-4 0.533277,-0.03176 0.08164,-0.05813 0.08586,-0.086962 0.08586,-0.57865 0,-0.4211109 -0.002,-0.4520924 -0.03035,-0.5109423 -0.04664,-0.096324 -0.05939,-0.1093205 -0.431027,-0.1078377 z m 0.66171,0.9102047 -0.01009,0.1225005 c -0.01581,0.1905218 -0.09035,0.3047228 -0.239767,0.367153 l -0.05585,0.023383 0.06909,0.084808 c 0.208734,0.2570567 0.416293,0.6335781 0.517922,0.9395208 0.159036,0.4787483 0.194803,1.0201718 0.09947,1.5056067 l -0.02687,0.135414 0.186717,0.00663 c 0.155314,0.00539 0.198006,0.01215 0.256868,0.040483 0.03886,0.018705 0.07443,0.040409 0.07923,0.048163 0.01442,0.023343 0.01773,0.011 0.04502,-0.1738035 0.03282,-0.2221118 0.03726,-0.8032442 0.0077,-1.0156043 C 12.431632,7.5014246 12.290817,7.0538236 12.079003,6.649281 11.975406,6.4514249 11.779712,6.1532283 11.65566,6.0039709 Z M 4.7464125,7.1459098 4.6825448,7.1801124 C 4.5843518,7.2325412 4.5065572,7.3109186 4.4612754,7.4031266 l -0.041182,0.08411 -0.0042,0.9478966 c -0.00457,1.0498659 -0.00507,1.043073 0.090042,1.1684681 0.053701,0.070785 0.1665152,0.153328 0.2383704,0.174153 0.02558,0.0074 0.4746743,0.013925 0.9978047,0.014657 1.0413928,0.00154 1.0105838,0.00377 1.137057,-0.087252 C 6.9673685,9.6417033 7.039228,9.5295577 7.062402,9.4189762 7.076989,9.3493732 7.082063,9.1163768 7.082294,8.4724759 7.0826435,7.5959729 7.077014,7.4964819 7.022967,7.3905613 6.9848747,7.315897 6.8855592,7.220908 6.8034419,7.1804604 L 6.7339922,7.14591 H 5.7400273 Z m 6.9005225,2.1289293 c -0.617948,-3.991e-4 -0.638179,0.00178 -0.719995,0.078178 -0.0769,0.071801 -0.07679,0.069658 -0.07679,0.7147609 0,0.647837 0.0012,0.661408 0.07817,0.732212 0.02066,0.01906 0.0632,0.04378 0.09458,0.05514 0.04573,0.01658 0.171582,0.02015 0.635536,0.01743 0.653982,-0.0039 0.655403,-0.0042 0.731863,-0.119709 l 0.03943,-0.05969 0.0046,-0.587027 c 0.0029,-0.3823067 -9.5e-4,-0.6055023 -0.01117,-0.6404214 -0.02208,-0.075288 -0.06977,-0.1309239 -0.140349,-0.1629797 -0.0555,-0.025216 -0.107992,-0.027617 -0.635887,-0.027921 z M 5.7808624,9.9868094 c -0.4344159,-2.166e-4 -0.7897977,0.00494 -0.7897977,0.011504 0,0.00637 0.045283,0.1017436 0.1005132,0.2114956 0.115292,0.229111 0.2377716,0.427784 0.3908855,0.633794 0.1371114,0.184479 0.556226,0.603203 0.7440781,0.743381 0.5967669,0.445313 1.2739709,0.710907 2.0053813,0.786657 0.1825333,0.01891 0.7238677,0.007 0.9049689,-0.0199 0.8616263,-0.12786 1.5854343,-0.483782 2.1948923,-1.079819 l 0.208005,-0.20347 -0.230341,-6.5e-4 c -0.262439,-5.98e-4 -0.366506,-0.02057 -0.466968,-0.08969 -0.03549,-0.02442 -0.07944,-0.06599 -0.09772,-0.09248 -0.01829,-0.02649 -0.03508,-0.05074 -0.03733,-0.05374 -0.0023,-0.003 -0.04656,0.02134 -0.09842,0.05409 -0.9314083,0.588239 -2.1682539,0.589202 -3.1148683,0.0021 -0.3298458,-0.2046 -0.6712678,-0.527892 -0.871477,-0.825426 L 6.5706637,9.987184 Z" />
</svg>
