<?xml version="1.0" encoding="UTF-8" standalone="no"?>
<svg
   width="64"
   height="64"
   version="1.1"
   viewBox="0 0 16.933 16.933"
   id="svg7"
   sodipodi:docname="abcd.svg"
   inkscape:version="1.4.3 (0d15f75042, 2025-12-25)"
   xmlns:inkscape="http://www.inkscape.org/namespaces/inkscape"
   xmlns:sodipodi="http://sodipodi.sourceforge.net/DTD/sodipodi-0.dtd"
   xmlns="http://www.w3.org/2000/svg"
   xmlns:svg="http://www.w3.org/2000/svg"
   xmlns:rdf="http://www.w3.org/1999/02/22-rdf-syntax-ns#"
   xmlns:cc="http://creativecommons.org/ns#"
   xmlns:dc="http://purl.org/dc/elements/1.1/">
  <sodipodi:namedview
     id="namedview7"
     pagecolor="#9c4444"
     bordercolor="#000000"
     borderopacity="0.25"
     inkscape:showpageshadow="2"
     inkscape:pageopacity="0.0"
     inkscape:pagecheckerboard="0"
     inkscape:deskcolor="#d1d1d1"
     inkscape:zoom="4.3531261"
     inkscape:cx="32.160796"
     inkscape:cy="33.309396"
     inkscape:window-width="1226"
     inkscape:window-height="669"
     inkscape:window-x="100"
     inkscape:window-y="206"
     inkscape:window-maximized="0"
     inkscape:current-layer="svg7"
     showgrid="false" />
  <defs
     id="defs2">
    <filter
       style="color-interpolation-filters:sRGB;"
       inkscape:label="Blur"
       id="filter5421"
       x="-0.12256455"
       y="-0.12342654"
       width="1.2451291"
       height="1.2468531">
      <feGaussianBlur
         stdDeviation="0.5 0.5"
         result="blur"
         id="feGaussianBlur5419" />
    </filter>
  </defs>
  <metadata
     id="metadata2">
    <rdf:RDF>
      <cc:Work
         rdf:about="">
        <dc:format>image/svg+xml</dc:format>
        <dc:type
           rdf:resource="http://purl.org/dc/dcmitype/StillImage" />
      </cc:Work>
    </rdf:RDF>
  </metadata>
  <rect
     style="opacity:0.3;fill:none;fill-opacity:0.996424;stroke:#000000;stroke-width:0.955221;stroke-dasharray:none;stroke-opacity:1;filter:url(#filter5421)"
     id="rect1-2-7"
     width="13.687567"
     height="13.591975"
     x="1.6227165"
     y="1.6705122"
     rx="2.8442214"
     ry="2.965905" />
  <rect
     style="fill:none;fill-opacity:1;stroke:{{colors.primary.default.hex}};stroke-width:0.955221;stroke-dasharray:none;stroke-opacity:1"
     id="rect1-2"
     width="13.687567"
     height="13.591975"
     x="1.6227167"
     y="1.6705124"
     rx="2.8442214"
     ry="2.965905" />
  <path
     id="path103"
     style="fill:{{colors.primary.default.hex}};fill-opacity:1;stroke:none;stroke-width:0.124106;stroke-dasharray:none;stroke-opacity:0.6"
     d="m 8.4665003,4.368301 c -0.7464331,0 -1.3716717,0.4672216 -1.5588032,1.1644581 -0.040641,0.1514386 -0.042159,0.2172395 -0.042159,1.6470121 0,1.4297725 0.0015,1.4960754 0.042159,1.6475142 0.1510455,0.5627796 0.5827018,0.9762825 1.1720004,1.1232828 0.2174068,0.054236 0.5452692,0.05472 0.765701,9.5e-4 C 9.4400476,9.80662 9.8732277,9.3938583 10.025304,8.8272399 c 0.04065,-0.1514387 0.04215,-0.2177409 0.04215,-1.6475137 0,-1.4297728 -0.0015,-1.495573 -0.04215,-1.6470123 C 9.8381722,4.835517 9.2129333,4.3682962 8.4665003,4.3682962 Z M 5.2324315,7.9575823 v 0.2872226 c 0,0.6701497 0.094911,1.0960134 0.3557103,1.597803 0.3006042,0.5783761 0.8649517,1.1082381 1.4765949,1.3864031 0.2064668,0.0939 0.5504991,0.205799 0.7372433,0.240023 l 0.1306905,0.02411 v 0.53578 0.535782 h 0.5338298 0.5338296 v -0.535783 -0.53578 l 0.130691,-0.02411 c 0.1867436,-0.03423 0.5307765,-0.146125 0.7372421,-0.240022 0.571691,-0.259995 1.121405,-0.756952 1.425478,-1.2884852 0.285759,-0.4995202 0.406828,-1.003399 0.406828,-1.6957207 V 7.9575808 h -0.531722 -0.531194 l -0.01002,0.4238047 c -0.0086,0.3708939 -0.0165,0.4476009 -0.06271,0.6136124 -0.204909,0.7363128 -0.7979557,1.2924891 -1.5777761,1.4797991 -0.1564708,0.03759 -0.2402757,0.04464 -0.5311946,0.04369 -0.3019261,-9.5e-4 -0.3703231,-0.0077 -0.5443696,-0.05223 C 7.1463895,10.270675 6.5702779,9.7220885 6.3685933,8.9970063 6.3217312,8.8285317 6.3140224,8.7535798 6.3053558,8.3813855 L 6.2953407,7.9575808 H 5.7641463 Z" />
</svg>
