<?xml version="1.0" encoding="UTF-8" standalone="no"?>
<svg
   width="64"
   height="64"
   version="1.1"
   viewBox="0 0 16.933 16.933"
   id="svg7"
   sodipodi:docname="abcd.svg"
   inkscape:version="1.4.3 (0d15f75042, 2025-12-25)"
   xmlns:inkscape="http://www.inkscape.org/namespaces/inkscape"
   xmlns:sodipodi="http://sodipodi.sourceforge.net/DTD/sodipodi-0.dtd"
   xmlns="http://www.w3.org/2000/svg"
   xmlns:svg="http://www.w3.org/2000/svg"
   xmlns:rdf="http://www.w3.org/1999/02/22-rdf-syntax-ns#"
   xmlns:cc="http://creativecommons.org/ns#"
   xmlns:dc="http://purl.org/dc/elements/1.1/">
  <sodipodi:namedview
     id="namedview7"
     pagecolor="#9c4444"
     bordercolor="#000000"
     borderopacity="0.25"
     inkscape:showpageshadow="2"
     inkscape:pageopacity="0.0"
     inkscape:pagecheckerboard="0"
     inkscape:deskcolor="#d1d1d1"
     inkscape:zoom="4.3531261"
     inkscape:cx="40.890155"
     inkscape:cy="24.120597"
     inkscape:window-width="1226"
     inkscape:window-height="669"
     inkscape:window-x="94"
     inkscape:window-y="173"
     inkscape:window-maximized="0"
     inkscape:current-layer="svg7"
     showgrid="false" />
  <defs
     id="defs2">
    <filter
       style="color-interpolation-filters:sRGB;"
       inkscape:label="Blur"
       id="filter5421"
       x="-0.12256455"
       y="-0.12342654"
       width="1.2451291"
       height="1.2468531">
      <feGaussianBlur
         stdDeviation="0.5 0.5"
         result="blur"
         id="feGaussianBlur5419" />
    </filter>
  </defs>
  <metadata
     id="metadata2">
    <rdf:RDF>
      <cc:Work
         rdf:about="">
        <dc:format>image/svg+xml</dc:format>
        <dc:type
           rdf:resource="http://purl.org/dc/dcmitype/StillImage" />
      </cc:Work>
    </rdf:RDF>
  </metadata>
  <rect
     style="opacity:0.3;fill:none;fill-opacity:0.996424;stroke:#000000;stroke-width:0.955221;stroke-dasharray:none;stroke-opacity:1;filter:url(#filter5421)"
     id="rect1-2-7"
     width="13.687567"
     height="13.591975"
     x="1.6227165"
     y="1.6705122"
     rx="2.8442214"
     ry="2.965905" />
  <rect
     style="fill:none;fill-opacity:1;stroke:{{colors.primary.default.hex}};stroke-width:0.955221;stroke-dasharray:none;stroke-opacity:1"
     id="rect1-2"
     width="13.687567"
     height="13.591975"
     x="1.6227167"
     y="1.6705124"
     rx="2.8442214"
     ry="2.965905" />
  <path
     d="m 7.7025468,4.4961449 c -0.1250659,0 -0.2263104,0.1022362 -0.2263104,0.229288 v 0.9181444 c 0,0.52144 -0.426482,1.2490071 -0.8384068,1.9381953 C 6.2024142,8.3096709 5.586348,9.0623841 5.5013155,9.7621584 5.4910526,9.8475207 5.4880829,9.9305678 5.4887422,10.012621 8.2054573,10.109235 10.611826,8.4856901 10.637632,8.4678235 L 10.844421,8.326214 C 10.708105,8.0770742 10.560539,7.8282653 10.412974,7.5817726 10.00072,6.8925844 9.4753097,6.1650173 9.4753097,5.6435773 V 4.7254329 c 0,-0.1270518 -0.1015755,-0.229288 -0.2263109,-0.229288 z M 11.0972,8.7232493 10.932762,8.8350815 C 9.5699371,9.7608347 7.4838464,10.495021 5.5423427,10.454655 c 0.2749469,1.064386 1.3697726,1.783351 1.4256879,1.818752 0.036727,0.02282 0.2938067,0.163448 1.4730019,0.163448 1.1788645,0 1.4759809,-0.140616 1.5123743,-0.163448 0.068162,-0.04268 1.6553052,-1.073648 1.4769722,-2.5267994 C 11.389339,9.4150841 11.263625,9.0713171 11.0972,8.7232493 Z"
     fill="#ffffff"
     fill-rule="nonzero"
     id="path2-1"
     style="fill:{{colors.primary.default.hex}};fill-opacity:1;stroke:none;stroke-width:0.123796;stroke-dasharray:none;stroke-opacity:0.6" />
</svg>
