<?xml version="1.0" encoding="UTF-8" standalone="no"?>
<svg
   width="64"
   height="64"
   version="1.1"
   viewBox="0 0 16.933 16.933"
   id="svg7"
   sodipodi:docname="abcd.svg"
   inkscape:version="1.4.3 (0d15f75042, 2025-12-25)"
   xmlns:inkscape="http://www.inkscape.org/namespaces/inkscape"
   xmlns:sodipodi="http://sodipodi.sourceforge.net/DTD/sodipodi-0.dtd"
   xmlns="http://www.w3.org/2000/svg"
   xmlns:svg="http://www.w3.org/2000/svg"
   xmlns:rdf="http://www.w3.org/1999/02/22-rdf-syntax-ns#"
   xmlns:cc="http://creativecommons.org/ns#"
   xmlns:dc="http://purl.org/dc/elements/1.1/">
  <sodipodi:namedview
     id="namedview7"
     pagecolor="#9c4444"
     bordercolor="#000000"
     borderopacity="0.25"
     inkscape:showpageshadow="2"
     inkscape:pageopacity="0.0"
     inkscape:pagecheckerboard="0"
     inkscape:deskcolor="#d1d1d1"
     inkscape:zoom="4.3531261"
     inkscape:cx="43.417074"
     inkscape:cy="20.674797"
     inkscape:window-width="1226"
     inkscape:window-height="669"
     inkscape:window-x="0"
     inkscape:window-y="161"
     inkscape:window-maximized="0"
     inkscape:current-layer="svg7"
     showgrid="false" />
  <defs
     id="defs2">
    <filter
       style="color-interpolation-filters:sRGB;"
       inkscape:label="Blur"
       id="filter5421"
       x="-0.12256455"
       y="-0.12342654"
       width="1.2451291"
       height="1.2468531">
      <feGaussianBlur
         stdDeviation="0.5 0.5"
         result="blur"
         id="feGaussianBlur5419" />
    </filter>
  </defs>
  <metadata
     id="metadata2">
    <rdf:RDF>
      <cc:Work
         rdf:about="">
        <dc:format>image/svg+xml</dc:format>
        <dc:type
           rdf:resource="http://purl.org/dc/dcmitype/StillImage" />
      </cc:Work>
    </rdf:RDF>
  </metadata>
  <rect
     style="opacity:0.3;fill:none;fill-opacity:0.996424;stroke:#000000;stroke-width:0.955221;stroke-dasharray:none;stroke-opacity:1;filter:url(#filter5421)"
     id="rect1-2-7"
     width="13.687567"
     height="13.591975"
     x="1.6227165"
     y="1.6705122"
     rx="2.8442214"
     ry="2.965905" />
  <rect
     style="fill:none;fill-opacity:1;stroke:{{colors.primary.default.hex}};stroke-width:0.955221;stroke-dasharray:none;stroke-opacity:1"
     id="rect1-2"
     width="13.687567"
     height="13.591975"
     x="1.6227167"
     y="1.6705124"
     rx="2.8442214"
     ry="2.965905" />
  <path
     style="fill:{{colors.primary.default.hex}};fill-opacity:1;stroke-width:0.0383216"
     d="M 5.9323124,12.434584 C 5.6543361,12.407703 5.3997103,12.277115 5.1883041,12.053013 5.0490427,11.905389 4.9527194,11.734166 4.8949014,11.531468 l -0.028051,-0.09834 -0.00383,-2.8868937 C 4.8603641,6.5342338 4.8633736,5.6225649 4.8730371,5.5379898 4.92983,5.039659 5.2957385,4.6338117 5.8026953,4.5068605 c 0.061227,-0.015336 0.1376672,-0.021355 0.2648957,-0.020868 0.1898389,6.987e-4 0.2900257,0.019557 0.4518838,0.084936 0.041391,0.016718 1.1407865,0.6457519 2.4431015,1.3978521 1.3023147,0.7521005 2.3879647,1.377569 2.4125547,1.3899301 0.161851,0.081361 0.392781,0.2795168 0.487675,0.4184629 0.07139,0.1045396 0.146068,0.2662033 0.178225,0.3858442 0.04197,0.1561866 0.03939,0.4152638 -0.0059,0.58596 -0.0745,0.2810146 -0.246936,0.5365715 -0.462038,0.6847635 -0.09184,0.06327 -4.9312861,2.8593717 -5.0066152,2.8926857 -0.1258592,0.05566 -0.2657627,0.0942 -0.3938118,0.108476 -0.067794,0.0076 -0.1249251,0.01296 -0.126958,0.01202 -0.00202,-9.03e-4 -0.053077,-0.0065 -0.113431,-0.01235 z m 1.7753849,-1.973996 c 0.081956,-0.04084 0.1351767,-0.109805 0.1546571,-0.200406 0.010151,-0.0472 0.013091,-0.5519594 0.010287,-1.765043 L 7.8687161,6.7962156 7.8411448,6.7451197 C 7.7198622,6.5203646 7.4059107,6.5187344 7.2945129,6.7422801 l -0.032558,0.065338 1.253e-4,1.7251567 1.246e-4,1.7251572 0.029984,0.06439 c 0.031387,0.06741 0.090146,0.125859 0.1549867,0.154184 0.067064,0.0293 0.1841449,0.02214 0.2605261,-0.01592 z M 8.626354,9.3996911 C 8.704126,9.3516091 8.7532225,9.2792098 8.7699162,9.1879946 8.7785362,9.1409106 8.7819902,8.8902379 8.7795162,8.4918191 8.7752362,7.8016288 8.7770462,7.8169877 8.6887822,7.723954 8.6304352,7.662457 8.5600452,7.633465 8.4690797,7.633465 c -0.095453,0 -0.1636021,0.029647 -0.2251941,0.097964 -0.082461,0.091464 -0.081379,0.080619 -0.081379,0.8151523 V 9.211168 l 0.031992,0.062161 C 8.2776907,9.4349697 8.4756177,9.4928844 8.626354,9.3996911 Z M 6.7655779,9.1253944 C 6.8368165,9.1040507 6.90901,9.0366454 6.9414869,8.9611495 6.968616,8.8980866 6.969414,8.8834129 6.9656539,8.5167021 6.9613979,8.1013343 6.9612649,8.1006214 6.8800076,8.0193575 6.8197463,7.9590962 6.7552051,7.9338452 6.6615793,7.9339003 c -0.1219259,7.22e-5 -0.2134067,0.055525 -0.2726141,0.1652485 -0.02606,0.048293 -0.027789,0.070711 -0.031529,0.4087635 -0.00277,0.2508889 6.487e-4,0.3740587 0.011413,0.4125686 0.046711,0.1668632 0.2218315,0.257314 0.3967287,0.2049135 z M 5.8474831,8.8287879 c 0.083046,-0.024993 0.1321776,-0.064145 0.1756845,-0.1400034 0.031327,-0.054623 0.037772,-0.080122 0.037639,-0.148937 -3.241e-4,-0.1816104 -0.1225461,-0.3065726 -0.299785,-0.3065726 -0.1728361,0 -0.3042562,0.1297089 -0.3047518,0.3007853 -4.242e-4,0.1386147 0.081317,0.2531022 0.2089479,0.292732 0.074508,0.023136 0.1107076,0.023533 0.1822654,0.002 z M 9.5088095,8.8085339 C 9.658599,8.7313027 9.7172873,8.5583436 9.6457988,8.4048182 9.5259792,8.1474998 9.1418103,8.1882079 9.0753445,8.4652665 9.035682,8.6305978 9.1335063,8.7920761 9.2993813,8.835084 c 0.0544,0.014106 0.1554173,0.00129 0.2094282,-0.02655 z m 0.9069445,5.01e-5 c 0.169724,-0.087322 0.216556,-0.3113075 0.09768,-0.4671645 -0.06817,-0.089375 -0.217169,-0.1303739 -0.340033,-0.093563 -0.1963026,0.058813 -0.2692932,0.3312068 -0.130051,0.4853312 0.0991,0.1096877 0.247397,0.1397123 0.372405,0.075396 z"
     id="path20" />
</svg>
