<?xml version="1.0" encoding="UTF-8" standalone="no"?>
<svg
   width="64"
   height="64"
   version="1.1"
   viewBox="0 0 16.933 16.933"
   id="svg7"
   sodipodi:docname="abcd.svg"
   inkscape:version="1.4.3 (0d15f75042, 2025-12-25)"
   xmlns:inkscape="http://www.inkscape.org/namespaces/inkscape"
   xmlns:sodipodi="http://sodipodi.sourceforge.net/DTD/sodipodi-0.dtd"
   xmlns="http://www.w3.org/2000/svg"
   xmlns:svg="http://www.w3.org/2000/svg"
   xmlns:rdf="http://www.w3.org/1999/02/22-rdf-syntax-ns#"
   xmlns:cc="http://creativecommons.org/ns#"
   xmlns:dc="http://purl.org/dc/elements/1.1/">
  <sodipodi:namedview
     id="namedview7"
     pagecolor="#9c4444"
     bordercolor="#000000"
     borderopacity="0.25"
     inkscape:showpageshadow="2"
     inkscape:pageopacity="0.0"
     inkscape:pagecheckerboard="0"
     inkscape:deskcolor="#d1d1d1"
     inkscape:zoom="4.3531261"
     inkscape:cx="40.200995"
     inkscape:cy="23.201717"
     inkscape:window-width="1226"
     inkscape:window-height="669"
     inkscape:window-x="77"
     inkscape:window-y="131"
     inkscape:window-maximized="0"
     inkscape:current-layer="svg7"
     showgrid="false" />
  <defs
     id="defs2">
    <filter
       style="color-interpolation-filters:sRGB;"
       inkscape:label="Blur"
       id="filter5421"
       x="-0.12256455"
       y="-0.12342654"
       width="1.2451291"
       height="1.2468531">
      <feGaussianBlur
         stdDeviation="0.5 0.5"
         result="blur"
         id="feGaussianBlur5419" />
    </filter>
  </defs>
  <metadata
     id="metadata2">
    <rdf:RDF>
      <cc:Work
         rdf:about="">
        <dc:format>image/svg+xml</dc:format>
        <dc:type
           rdf:resource="http://purl.org/dc/dcmitype/StillImage" />
      </cc:Work>
    </rdf:RDF>
  </metadata>
  <rect
     style="opacity:0.3;fill:none;fill-opacity:0.996424;stroke:#000000;stroke-width:0.955221;stroke-dasharray:none;stroke-opacity:1;filter:url(#filter5421)"
     id="rect1-2-7"
     width="13.687567"
     height="13.591975"
     x="1.6227165"
     y="1.6705122"
     rx="2.8442214"
     ry="2.965905" />
  <rect
     style="fill:none;fill-opacity:1;stroke:{{colors.primary.default.hex}};stroke-width:0.955221;stroke-dasharray:none;stroke-opacity:1"
     id="rect1-2"
     width="13.687567"
     height="13.591975"
     x="1.6227167"
     y="1.6705124"
     rx="2.8442214"
     ry="2.965905" />
  <path
     style="fill:{{colors.primary.default.hex}};fill-opacity:1;stroke:none;stroke-width:0.13133;stroke-dasharray:none;stroke-opacity:0.6"
     d="m 7.0736102,12.488881 c 0,-0.005 0.1257778,-0.197288 0.279507,-0.427003 l 0.2795068,-0.417661 0.100806,0.02348 c 0.4343345,0.101178 1.0319317,0.101178 1.4662666,0 l 0.1008058,-0.02348 0.2795061,0.417661 c 0.153729,0.229715 0.2795084,0.421865 0.2795084,0.427003 0,0.005 -0.6268296,0.0093 -1.3929538,0.0093 -0.766124,0 -1.3929529,-0.0042 -1.3929529,-0.0093 z M 8.3199363,11.366678 C 7.8922952,11.350908 7.3905725,11.208806 7.0129381,10.996493 6.6395749,10.786582 6.2950825,10.480708 6.0614334,10.151657 5.9504571,9.9953667 5.7577703,9.6393997 5.7268839,9.5336161 l -0.01204,-0.041236 h 2.7517204 2.7517197 l -0.01204,0.041236 c -0.0067,0.02268 -0.05688,0.1319633 -0.111673,0.2428493 C 10.592033,10.793423 9.5149234,11.410743 8.3199334,11.366679 Z M 7.9016921,9.0926332 c 0.00882,-0.049955 0.5542947,-1.4512372 0.564871,-1.4511068 0.010704,1.37e-4 0.5561887,1.401123 0.5648704,1.4507837 0.00557,0.031855 -0.02215,0.0335 -0.5648704,0.0335 -0.5407097,0 -0.5704194,-0.00176 -0.564871,-0.033177 z M 7.1536051,7.3998427 c -0.052633,-0.025486 -0.087586,-0.09533 -0.085449,-0.1707387 0.00231,-0.082072 0.085265,-0.1839045 0.2710517,-0.3327956 0.6618085,-0.5303817 1.5929028,-0.5303817 2.2547117,0 0.1857859,0.1488911 0.2687234,0.250723 0.27105,0.3327956 0.00316,0.1147837 -0.069899,0.1921714 -0.1816389,0.1921714 -0.064854,0 -0.096394,-0.020243 -0.2199788,-0.14117 -0.5604199,-0.5483707 -1.447664,-0.5451262 -2.001449,0.00732 -0.053574,0.053445 -0.1128283,0.1054252 -0.1316755,0.1155117 -0.04312,0.023077 -0.1255569,0.021635 -0.1766222,-0.00309 z M 6.3819239,6.7334229 C 6.3224072,6.6917356 6.2991742,6.588115 6.3318244,6.5099724 6.3666326,6.4266645 6.637545,6.1603867 6.8445061,6.0060614 7.0228149,5.8731005 7.3175262,5.7117326 7.5226538,5.6347435 8.4547928,5.2848904 9.4622266,5.4720091 10.257795,6.1427622 c 0.166991,0.140791 0.324014,0.3128713 0.351525,0.385232 0.02384,0.062714 -0.0062,0.169101 -0.05812,0.2054287 -0.02202,0.015419 -0.07488,0.028032 -0.11748,0.028032 -0.07401,0 -0.08634,-0.00884 -0.277375,-0.1988648 C 9.7782687,6.1865035 9.3483164,5.9554249 8.8699627,5.8712186 8.6681939,5.8357009 8.263855,5.8358155 8.0633402,5.8714502 7.5831965,5.9567737 7.1549897,6.1871347 6.7751957,6.5644278 6.5858313,6.7525459 6.5733567,6.7614572 6.4994035,6.7614572 c -0.042602,0 -0.095467,-0.012615 -0.1174796,-0.028032 z M 5.5270052,6.0779485 C 5.4237649,5.9747082 5.4395549,5.890025 5.5953554,5.7113916 6.0773542,5.1587516 6.8305452,4.7118662 7.5800907,4.5338023 8.1871512,4.3895878 8.919423,4.4037157 9.5021143,4.5708869 10.21887,4.7765196 10.896253,5.1990305 11.346676,5.7214147 c 0.146757,0.1702035 0.160907,0.2550716 0.05945,0.356534 -0.03942,0.039421 -0.05858,0.045104 -0.12624,0.037477 -0.07398,-0.00834 -0.09685,-0.026329 -0.314771,-0.2477098 C 10.626338,5.5235839 10.274969,5.2756033 9.8819395,5.1032634 8.7171296,4.592506 7.394334,4.7445634 6.3643224,5.5076176 6.2856834,5.5658753 6.1111553,5.7244768 5.9764815,5.8600658 5.7501338,6.0879525 5.725641,6.1072663 5.6525472,6.1155046 c -0.066889,0.00754 -0.086233,0.00176 -0.125542,-0.037556 z"
     id="path1" />
</svg>
