<?xml version="1.0" encoding="UTF-8" standalone="no"?>
<svg
   width="64"
   height="64"
   version="1.1"
   viewBox="0 0 16.933 16.933"
   id="svg7"
   sodipodi:docname="abcd.svg"
   inkscape:version="1.4.3 (0d15f75042, 2025-12-25)"
   xmlns:inkscape="http://www.inkscape.org/namespaces/inkscape"
   xmlns:sodipodi="http://sodipodi.sourceforge.net/DTD/sodipodi-0.dtd"
   xmlns="http://www.w3.org/2000/svg"
   xmlns:svg="http://www.w3.org/2000/svg"
   xmlns:rdf="http://www.w3.org/1999/02/22-rdf-syntax-ns#"
   xmlns:cc="http://creativecommons.org/ns#"
   xmlns:dc="http://purl.org/dc/elements/1.1/">
  <sodipodi:namedview
     id="namedview7"
     pagecolor="#9c4444"
     bordercolor="#000000"
     borderopacity="0.25"
     inkscape:showpageshadow="2"
     inkscape:pageopacity="0.0"
     inkscape:pagecheckerboard="0"
     inkscape:deskcolor="#d1d1d1"
     inkscape:zoom="4.3531261"
     inkscape:cx="43.417074"
     inkscape:cy="20.674797"
     inkscape:window-width="1226"
     inkscape:window-height="669"
     inkscape:window-x="474"
     inkscape:window-y="225"
     inkscape:window-maximized="0"
     inkscape:current-layer="svg7"
     showgrid="false" />
  <defs
     id="defs2">
    <filter
       style="color-interpolation-filters:sRGB;"
       inkscape:label="Blur"
       id="filter5421"
       x="-0.12256455"
       y="-0.12342654"
       width="1.2451291"
       height="1.2468531">
      <feGaussianBlur
         stdDeviation="0.5 0.5"
         result="blur"
         id="feGaussianBlur5419" />
    </filter>
  </defs>
  <metadata
     id="metadata2">
    <rdf:RDF>
      <cc:Work
         rdf:about="">
        <dc:format>image/svg+xml</dc:format>
        <dc:type
           rdf:resource="http://purl.org/dc/dcmitype/StillImage" />
      </cc:Work>
    </rdf:RDF>
  </metadata>
  <rect
     style="opacity:0.3;fill:none;fill-opacity:0.996424;stroke:#000000;stroke-width:0.955221;stroke-dasharray:none;stroke-opacity:1;filter:url(#filter5421)"
     id="rect1-2-7"
     width="13.687567"
     height="13.591975"
     x="1.6227165"
     y="1.6705122"
     rx="2.8442214"
     ry="2.965905" />
  <rect
     style="fill:none;fill-opacity:1;stroke:{{colors.primary.default.hex}};stroke-width:0.955221;stroke-dasharray:none;stroke-opacity:1"
     id="rect1-2"
     width="13.687567"
     height="13.591975"
     x="1.6227167"
     y="1.6705124"
     rx="2.8442214"
     ry="2.965905" />
  <path
     d="M 9.3195982,5.0746055 6.3345137,5.8820594 C 6.1103574,5.9451631 5.9295511,6.1953835 5.9295511,6.4384706 V 10.291917 C 5.7021038,10.167084 5.4104541,10.116872 5.1075559,10.199187 4.5612966,10.347893 4.2188896,10.828303 4.336043,11.271951 4.4529226,11.7156 4.9914994,11.9639 5.5377593,11.815193 5.9734499,11.696669 6.2736039,11.360571 6.3213435,11.006916 L 6.3345185,7.365548 9.0106692,6.6143385 V 9.376639 C 8.8123037,9.3061277 8.5826614,9.2869221 8.3450608,9.3516679 7.7988015,9.5000987 7.4569435,9.9805102 7.5740972,10.424432 c 0.1171539,0.443647 0.6549073,0.691673 1.2011673,0.542969 0.3879513,-0.105358 0.6672541,-0.383014 0.7580691,-0.692224 0.097672,-0.180532 0.1421213,-0.3838362 0.1421213,-0.4650464 0,-0.025523 0.00322,-0.086152 0.00352,-0.1130385 V 9.5961248 c 0.013444,-0.099594 0.06227,-0.1799817 0.192878,-0.1799817 0.1325181,0 0.1838251,0.080935 0.2033031,0.1799817 h 0.0047 v 0.4499572 c 0,0.149256 0.08971,0.269702 0.200561,0.269702 0.11057,0 0.200561,-0.120446 0.200561,-0.269702 V 9.0561773 c 0,-0.07929 0.07408,-0.3596923 0.133616,-0.3596923 0.05925,0 0.133615,0.2804003 0.133615,0.3596923 v 0.090266 c 0,0.1492536 0.09028,0.2696995 0.201111,0.2696995 0.110567,0 0.200285,-0.1204459 0.200285,-0.2696995 V 8.3365199 c 0,-0.079566 0.07437,-0.1799832 0.133889,-0.1799832 0.05925,0 0.133615,0.1004174 0.133615,0.1799832 v 0.090266 c 0,0.14898 0.08971,0.2697001 0.200286,0.2697001 0.110842,0 0.20056,-0.1207201 0.20056,-0.2697001 V 8.1565395 h 0.601408 c 0.110842,0 0.200561,-0.1204469 0.200561,-0.2694261 0,-0.1492541 -0.08972,-0.2702492 -0.200561,-0.2702492 H 11.81793 v -0.2697 c 0,-0.1489799 -0.08972,-0.2699751 -0.200559,-0.2699751 -0.11057,0 -0.200288,0.1209952 -0.200288,0.2699751 v 0.089716 c 0,0.079567 -0.07437,0.1799832 -0.133613,0.1799832 -0.05954,0 -0.133891,-0.1004175 -0.133891,-0.1799832 V 6.6275078 c 0,-0.1489802 -0.08971,-0.2702498 -0.200287,-0.2702498 -0.110841,0 -0.201107,0.1212696 -0.201107,0.2702498 v 0.089717 c 0,0.079565 -0.07437,0.3599655 -0.133617,0.3599655 -0.05952,0 -0.133617,-0.2804006 -0.133617,-0.3599655 V 5.727866 c 0,-0.1489792 -0.08998,-0.2702488 -0.200558,-0.2702488 -0.110844,0 -0.200562,0.1212696 -0.200562,0.2702488 v 0.4496837 c -0.01373,0.09932 -0.06448,0.1797083 -0.2079676,0.1797083 -0.1305977,0 -0.1731237,-0.08039 -0.1868417,-0.1797083 L 9.645269,5.9945494 C 9.6450231,5.9679353 9.612897,5.5860209 9.6046676,5.561603 9.5832713,5.4990474 9.5775046,5.4323772 9.5651601,5.3698227 9.5470524,5.2134347 9.4510232,5.0976524 9.3196019,5.0746057 Z"
     fill="url(#d)"
     fill-rule="nonzero"
     id="path11"
     style="fill:{{colors.primary.default.hex}};fill-opacity:1;stroke:none;stroke-width:0.133801;stroke-dasharray:none;stroke-opacity:0.6" />
</svg>
