<?xml version="1.0" encoding="UTF-8" standalone="no"?>
<svg
   width="64"
   height="64"
   version="1.1"
   viewBox="0 0 16.933 16.933"
   id="svg7"
   sodipodi:docname="abcd.svg"
   inkscape:version="1.4.3 (0d15f75042, 2025-12-25)"
   xmlns:inkscape="http://www.inkscape.org/namespaces/inkscape"
   xmlns:sodipodi="http://sodipodi.sourceforge.net/DTD/sodipodi-0.dtd"
   xmlns="http://www.w3.org/2000/svg"
   xmlns:svg="http://www.w3.org/2000/svg"
   xmlns:rdf="http://www.w3.org/1999/02/22-rdf-syntax-ns#"
   xmlns:cc="http://creativecommons.org/ns#"
   xmlns:dc="http://purl.org/dc/elements/1.1/">
  <sodipodi:namedview
     id="namedview7"
     pagecolor="#9c4444"
     bordercolor="#000000"
     borderopacity="0.25"
     inkscape:showpageshadow="2"
     inkscape:pageopacity="0.0"
     inkscape:pagecheckerboard="0"
     inkscape:deskcolor="#d1d1d1"
     inkscape:zoom="4.3531261"
     inkscape:cx="40.890155"
     inkscape:cy="24.120597"
     inkscape:window-width="1226"
     inkscape:window-height="669"
     inkscape:window-x="94"
     inkscape:window-y="173"
     inkscape:window-maximized="0"
     inkscape:current-layer="svg7"
     showgrid="false" />
  <defs
     id="defs2">
    <filter
       style="color-interpolation-filters:sRGB;"
       inkscape:label="Blur"
       id="filter5421"
       x="-0.12256455"
       y="-0.12342654"
       width="1.2451291"
       height="1.2468531">
      <feGaussianBlur
         stdDeviation="0.5 0.5"
         result="blur"
         id="feGaussianBlur5419" />
    </filter>
  </defs>
  <metadata
     id="metadata2">
    <rdf:RDF>
      <cc:Work
         rdf:about="">
        <dc:format>image/svg+xml</dc:format>
        <dc:type
           rdf:resource="http://purl.org/dc/dcmitype/StillImage" />
      </cc:Work>
    </rdf:RDF>
  </metadata>
  <rect
     style="opacity:0.3;fill:none;fill-opacity:0.996424;stroke:#000000;stroke-width:0.955221;stroke-dasharray:none;stroke-opacity:1;filter:url(#filter5421)"
     id="rect1-2-7"
     width="13.687567"
     height="13.591975"
     x="1.6227165"
     y="1.6705122"
     rx="2.8442214"
     ry="2.965905" />
  <rect
     style="fill:none;fill-opacity:1;stroke:{{colors.primary.default.hex}};stroke-width:0.955221;stroke-dasharray:none;stroke-opacity:1"
     id="rect1-2"
     width="13.687567"
     height="13.591975"
     x="1.6227167"
     y="1.6705124"
     rx="2.8442214"
     ry="2.965905" />
  <path
     style="fill:{{colors.primary.default.hex}};fill-opacity:1;stroke:none;stroke-width:0.136828;stroke-dasharray:none;stroke-opacity:0.6"
     d="M 6.7839401,11.581643 6.267571,10.990105 H 5.543939 c -0.4723758,0 -0.7555703,-0.0096 -0.8156165,-0.02755 C 4.599071,10.923833 4.4731726,10.812246 4.4034201,10.674596 l -0.05953,-0.117485 V 7.8755127 c 0,-2.9180896 -0.00753,-2.7517342 0.1328842,-2.9358268 0.032427,-0.042513 0.1066317,-0.1003755 0.1648992,-0.128582 l 0.1059414,-0.051287 3.7195597,3.939e-4 c 2.2626514,2.173e-4 3.7429464,0.00924 3.7792684,0.023054 0.0925,0.035173 0.231421,0.1680125 0.289829,0.2771651 l 0.05292,0.098862 v 2.7041602 2.7041639 l -0.05221,0.09657 c -0.02872,0.05312 -0.08852,0.131428 -0.132884,0.17402 -0.163145,0.156607 -0.09607,0.151929 -2.17868,0.151929 H 8.3385156 l -0.5163695,0.591536 c -0.2840029,0.325343 -0.5175995,0.591536 -0.5191027,0.591536 -0.00155,0 -0.2351001,-0.266193 -0.5191033,-0.591536 z m 5.3837789,-0.736301 c 0.04705,-0.01307 0.119855,-0.0592 0.161751,-0.10248 0.160282,-0.165608 0.15107,0.009 0.15092,-2.860562 C 12.480301,6.1667009 12.47179,5.2493789 12.45531,5.190183 12.44159,5.140797 12.40234,5.067069 12.36807,5.026342 12.239298,4.8732982 12.37157,4.8815944 10.060878,4.8815944 H 7.9526971 L 7.7909355,4.9761228 C 7.4386981,5.1819585 7.1020621,5.4945291 6.8894491,5.8131635 6.7375458,6.0408153 6.6601562,6.2074334 6.5723293,6.495918 c -0.056106,0.184292 -0.06364,0.2507323 -0.064717,0.5707367 -0.00155,0.436809 0.027077,0.5617122 0.2152072,0.9416288 0.2713188,0.5479078 0.739824,0.9375927 1.2789322,1.0637674 0.2490303,0.058284 0.6431163,0.038553 0.8766026,-0.04389 C 9.613411,8.7686173 9.9761927,8.0364241 9.6827778,7.4046063 9.6025975,7.2319492 9.4347851,7.056509 9.2758465,6.9791776 9.1241055,6.9053492 8.881912,6.8901654 8.7190206,6.9442696 8.3615223,7.0630114 8.2146946,7.4784314 8.4478239,7.7115615 c 0.079479,0.079478 0.1061386,0.091494 0.202986,0.091494 0.062371,0 0.1114892,-0.01126 0.1114892,-0.025575 0,-0.014063 -0.011079,-0.018723 -0.024614,-0.010356 -0.013543,0.00837 -0.063582,0.00234 -0.1112083,-0.013367 C 8.5587068,7.731395 8.5297029,7.7021652 8.49305,7.6193046 8.373805,7.3497321 8.603788,7.0471181 8.8973272,7.087352 9.0902279,7.1137896 9.238382,7.2144239 9.3206749,7.3749043 9.4745781,7.6750342 9.397282,8.0671553 9.1369043,8.3071627 8.8503518,8.5712979 8.4615789,8.6119687 8.0698997,8.4187861 7.43564,8.1059575 7.2127932,7.3230909 7.5544226,6.6079034 7.7290645,6.2422986 7.9801949,5.9948655 8.3639203,5.8103265 8.6579145,5.66894 8.9062714,5.6205274 9.254758,5.6366744 c 0.5744298,0.026616 1.020146,0.2281871 1.45354,0.6573532 0.503705,0.4987913 0.73321,1.0578083 0.733522,1.7866796 1.45e-4,0.3555641 -0.0217,0.5198413 -0.109728,0.8249583 -0.133604,0.4630633 -0.396301,0.9296912 -0.720553,1.2799145 -0.129889,0.140294 -0.403543,0.368503 -0.7748153,0.646148 -0.043097,0.03223 0.07511,0.03618 1.0985653,0.03674 0.680727,4.19e-4 1.181637,-0.009 1.232433,-0.02315 z"
     id="path8-1" />
</svg>
