<?xml version="1.0" encoding="UTF-8" standalone="no"?>
<svg
   width="64"
   height="64"
   version="1.1"
   viewBox="0 0 16.933 16.933"
   id="svg7"
   sodipodi:docname="accessories-text-editor.svg"
   inkscape:version="1.4.3 (0d15f75042, 2025-12-25)"
   xmlns:inkscape="http://www.inkscape.org/namespaces/inkscape"
   xmlns:sodipodi="http://sodipodi.sourceforge.net/DTD/sodipodi-0.dtd"
   xmlns="http://www.w3.org/2000/svg"
   xmlns:svg="http://www.w3.org/2000/svg"
   xmlns:rdf="http://www.w3.org/1999/02/22-rdf-syntax-ns#"
   xmlns:cc="http://creativecommons.org/ns#"
   xmlns:dc="http://purl.org/dc/elements/1.1/">
  <sodipodi:namedview
     id="namedview7"
     pagecolor="#9c4444"
     bordercolor="#000000"
     borderopacity="0.25"
     inkscape:showpageshadow="2"
     inkscape:pageopacity="0.0"
     inkscape:pagecheckerboard="0"
     inkscape:deskcolor="#d1d1d1"
     inkscape:zoom="4.3531261"
     inkscape:cx="43.417074"
     inkscape:cy="20.674797"
     inkscape:window-width="1226"
     inkscape:window-height="669"
     inkscape:window-x="474"
     inkscape:window-y="225"
     inkscape:window-maximized="0"
     inkscape:current-layer="svg7"
     showgrid="false" />
  <defs
     id="defs2">
    <filter
       style="color-interpolation-filters:sRGB;"
       inkscape:label="Blur"
       id="filter5421"
       x="-0.12256455"
       y="-0.12342654"
       width="1.2451291"
       height="1.2468531">
      <feGaussianBlur
         stdDeviation="0.5 0.5"
         result="blur"
         id="feGaussianBlur5419" />
    </filter>
  </defs>
  <metadata
     id="metadata2">
    <rdf:RDF>
      <cc:Work
         rdf:about="">
        <dc:format>image/svg+xml</dc:format>
        <dc:type
           rdf:resource="http://purl.org/dc/dcmitype/StillImage" />
      </cc:Work>
    </rdf:RDF>
  </metadata>
  <rect
     style="opacity:0.3;fill:none;fill-opacity:0.996424;stroke:#000000;stroke-width:0.955221;stroke-dasharray:none;stroke-opacity:1;filter:url(#filter5421)"
     id="rect1-2-7"
     width="13.687567"
     height="13.591975"
     x="1.6227165"
     y="1.6705122"
     rx="2.8442214"
     ry="2.965905" />
  <rect
     style="fill:none;fill-opacity:1;stroke:{{colors.primary.default.hex}};stroke-width:0.955221;stroke-dasharray:none;stroke-opacity:1"
     id="rect1-2"
     width="13.687567"
     height="13.591975"
     x="1.6227167"
     y="1.6705124"
     rx="2.8442214"
     ry="2.965905" />
  <path
     style="fill:{{colors.primary.default.hex}};fill-opacity:1;stroke:none;stroke-width:0.137896;stroke-dasharray:none;stroke-opacity:0.6"
     d="M 6.3126857,4.9790748 C 6.2076398,5.0072217 6.1457328,5.1144495 6.1738794,5.2194954 l 0.5378369,2.0072338 1.68294,0.971646 0.9716458,-1.68294 L 8.8284653,4.5082008 C 8.8003179,4.4031548 8.693091,4.3412479 8.5880457,4.3693941 Z m -1.804485,3.1254599 c -0.1050456,0.028147 -0.1669535,0.1353744 -0.1388066,0.24042 l 0.6096807,2.2753583 c 0.028147,0.105048 0.1353741,0.166955 0.2404199,0.138808 L 7.2267294,10.221284 8.1983752,8.5383438 6.5154349,7.5666983 Z M 9.7062709,6.7117165 8.7346251,8.3946563 10.417565,9.3663021 12.4248,8.8284657 c 0.105046,-0.028147 0.166952,-0.1353746 0.138807,-0.2404205 l -0.609681,-2.275359 c -0.02815,-0.105046 -0.135375,-0.166954 -0.24042,-0.1388069 z M 8.538344,8.7346249 7.5666982,10.417564 8.1045347,12.424799 c 0.028147,0.105046 0.1353746,0.166953 0.2404202,0.138807 l 2.2753581,-0.609681 c 0.105049,-0.02816 0.166955,-0.135374 0.13881,-0.24042 L 10.221284,9.7062707 Z"
     id="path2" />
</svg>
