<?xml version="1.0" encoding="UTF-8" standalone="no"?>
<svg
   width="64"
   height="64"
   version="1.1"
   viewBox="0 0 16.933 16.933"
   id="svg7"
   sodipodi:docname="clamav.svg"
   inkscape:version="1.4.3 (0d15f75042, 2025-12-25)"
   xmlns:inkscape="http://www.inkscape.org/namespaces/inkscape"
   xmlns:sodipodi="http://sodipodi.sourceforge.net/DTD/sodipodi-0.dtd"
   xmlns="http://www.w3.org/2000/svg"
   xmlns:svg="http://www.w3.org/2000/svg"
   xmlns:rdf="http://www.w3.org/1999/02/22-rdf-syntax-ns#"
   xmlns:cc="http://creativecommons.org/ns#"
   xmlns:dc="http://purl.org/dc/elements/1.1/">
  <sodipodi:namedview
     id="namedview7"
     pagecolor="#9c4444"
     bordercolor="#000000"
     borderopacity="0.25"
     inkscape:showpageshadow="2"
     inkscape:pageopacity="0.0"
     inkscape:pagecheckerboard="0"
     inkscape:deskcolor="#d1d1d1"
     inkscape:zoom="4.3531261"
     inkscape:cx="43.417074"
     inkscape:cy="19.526198"
     inkscape:window-width="1226"
     inkscape:window-height="669"
     inkscape:window-x="127"
     inkscape:window-y="154"
     inkscape:window-maximized="0"
     inkscape:current-layer="svg7"
     showgrid="false" />
  <defs
     id="defs2">
    <filter
       style="color-interpolation-filters:sRGB;"
       inkscape:label="Blur"
       id="filter5421"
       x="-0.12256455"
       y="-0.12342654"
       width="1.2451291"
       height="1.2468531">
      <feGaussianBlur
         stdDeviation="0.5 0.5"
         result="blur"
         id="feGaussianBlur5419" />
    </filter>
    <filter
       style="color-interpolation-filters:sRGB"
       inkscape:label="Blur"
       id="filter5421-3"
       x="-0.12256455"
       y="-0.12342654"
       width="1.2451291"
       height="1.2468531">
      <feGaussianBlur
         stdDeviation="0.5 0.5"
         result="blur"
         id="feGaussianBlur5419-6" />
    </filter>
  </defs>
  <metadata
     id="metadata2">
    <rdf:RDF>
      <cc:Work
         rdf:about="">
        <dc:format>image/svg+xml</dc:format>
        <dc:type
           rdf:resource="http://purl.org/dc/dcmitype/StillImage" />
      </cc:Work>
    </rdf:RDF>
  </metadata>
  <rect
     style="opacity:0.3;fill:none;fill-opacity:0.996424;stroke:#000000;stroke-width:0.955221;stroke-dasharray:none;stroke-opacity:1;filter:url(#filter5421)"
     id="rect1-2-7"
     width="13.687567"
     height="13.591975"
     x="1.6227165"
     y="1.6705122"
     rx="2.8442214"
     ry="2.965905" />
  <rect
     style="fill:none;fill-opacity:1;stroke:{{colors.primary.default.hex}};stroke-width:0.955221;stroke-dasharray:none;stroke-opacity:1"
     id="rect1-2"
     width="13.687567"
     height="13.591975"
     x="1.6227167"
     y="1.6705124"
     rx="2.8442214"
     ry="2.965905" />
  <g
     id="g1"
     style="fill:{{colors.primary.default.hex}};fill-opacity:1;stroke:none"
     transform="matrix(0.24952693,0,0,0.24952693,0.48248953,0.32728012)">
    <path
       style="fill:{{colors.primary.default.hex}};fill-opacity:1;stroke:none;stroke-width:0.454545;stroke-dasharray:none;stroke-opacity:0.6"
       d="m 22.677636,34.805286 a 6.372233,6.371019 0 0 0 -6.28689,6.371018 6.372233,6.371019 0 0 0 3.667945,5.768404 c -0.975732,0.325814 -1.847306,0.69934 -1.847306,1.007914 v 0.707495 c 0,0.392174 0.338927,0.707499 0.75919,0.707499 h 7.584808 c 0.420264,0 0.759191,-0.315325 0.759191,-0.707499 v -0.707495 c 0,-0.308574 -0.871578,-0.6821 -1.847308,-1.007914 a 6.372233,6.371019 0 0 0 3.667946,-5.768404 6.372233,6.371019 0 0 0 -6.372234,-6.371018 6.372233,6.371019 0 0 0 -0.08534,0 z m 0.03022,2.730436 a 3.6412758,3.6405824 0 0 1 0.05512,0 3.6412758,3.6405824 0 0 1 3.641266,3.640582 3.6412758,3.6405824 0 0 1 -3.64127,3.640586 3.6412758,3.6405824 0 0 1 -3.641277,-3.640586 3.6412758,3.6405824 0 0 1 3.586161,-3.640582 z m 0.01067,1.820291 a 1.8206378,1.820291 0 0 0 -1.776194,1.820291 1.8206378,1.820291 0 0 0 1.820636,1.820292 1.8206378,1.820291 0 0 0 1.820639,-1.820292 1.8206378,1.820291 0 0 0 -1.820639,-1.820291 1.8206378,1.820291 0 0 0 -0.04445,0 z"
       id="path2" />
    <path
       fill="#f5f7fa"
       d="m 43.632675,28.361059 -0.597701,-1.166965 c -0.66802,0.427345 -1.810687,0.739628 -2.918194,0.739628 -3.269782,0 -5.045309,-1.577872 -5.045309,-4.61856 0,-3.303666 2.689659,-6.130682 6.293453,-6.130682 3.164304,0 5.02773,1.479255 5.02773,4.125476 0,1.74223 -0.843818,3.435152 -2.302912,3.435152 -0.527386,0 -0.738337,-0.246543 -0.738337,-0.723191 0,-0.246539 0.05273,-0.706755 0.123047,-1.084784 l 0.544972,-3.303667 C 43.456879,19.304745 42.52517,19.10751 41.681353,19.10751 c -2.144695,0 -4.306971,1.3642 -4.306971,4.322706 0,1.429948 0.755918,2.580476 2.584183,2.580476 0.826236,0 1.564573,-0.295847 2.056801,-0.871116 h 0.07032 c 0.246111,0.509523 0.808655,0.871116 1.793106,0.871116 2.461128,0 4.060861,-2.087392 4.060861,-4.881536 0,-3.188613 -2.513866,-5.259569 -6.346192,-5.259569 -4.640983,0 -8.086559,3.369413 -8.086559,7.609938 0,3.517335 2.215014,5.752653 6.346191,5.752653 1.476675,0 2.883033,-0.345162 3.779587,-0.871119 z m -3.357679,-3.599514 c -0.914133,0 -1.35362,-0.493083 -1.35362,-1.594304 0,-1.643618 1.107507,-2.794147 2.566604,-2.794147 0.334008,0 0.65044,0.06575 0.861393,0.13149 l -0.404327,2.580476 c -0.03516,0.180794 -0.08789,0.641009 -0.08789,0.83824 -0.263692,0.443779 -0.861394,0.838245 -1.582154,0.838245 z"
       id="path42"
       style="fill:{{colors.primary.default.hex}};fill-opacity:1;stroke:none;stroke-width:0.454545;stroke-dasharray:none;stroke-opacity:0.6" />
    <path
       id="path1-2"
       style="fill:{{colors.primary.default.hex}};fill-opacity:1;stroke:none;stroke-width:0.454545;stroke-dasharray:none;stroke-dashoffset:2.2;stroke-opacity:0.6"
       d="m 23.320512,15.869726 c -0.392203,0.0039 -0.778432,0.113264 -0.946077,0.326392 -0.05783,0.07351 -0.280028,0.660764 -0.494645,1.304648 l -0.390751,1.170415 0.216061,0.192157 c 0.228313,0.202533 0.592831,0.356946 1.026066,0.435803 0.414565,0.07546 1.256911,0.01972 1.637478,-0.108491 0.413798,-0.139399 0.751487,-0.357711 0.789776,-0.510274 0.03811,-0.151847 -0.711872,-2.345594 -0.855973,-2.503566 -0.191166,-0.209565 -0.589733,-0.310978 -0.981935,-0.307084 z m -2.557811,4.98966 -0.323634,0.935965 c -0.591943,1.709516 -0.579221,1.620155 -0.275823,1.965708 0.473474,0.539257 1.380266,0.889259 2.577118,0.994805 1.498408,0.13214 3.046301,-0.240249 3.696046,-0.889993 0.381188,-0.381187 0.381251,-0.385097 -0.03494,-1.642074 -0.202857,-0.612663 -0.390206,-1.170233 -0.415574,-1.23845 -0.04573,-0.122961 -0.04771,-0.122521 -0.214227,0.06712 -0.215799,0.245791 -0.829655,0.54537 -1.346934,0.657381 -0.605381,0.131087 -1.632681,0.118876 -2.236934,-0.02667 -0.567428,-0.13667 -1.064448,-0.386234 -1.274308,-0.640831 z m -1.312004,3.597668 c 0,-0.007 -0.675256,0.276847 -1.500484,0.630718 -1.296672,0.556036 -1.528507,0.673755 -1.709192,0.865166 -0.184555,0.195517 -0.205163,0.243853 -0.177446,0.414658 0.01861,0.114665 0.102692,0.267642 0.206868,0.375121 0.102015,0.105266 1.345559,0.847198 2.962353,1.768032 3.263064,1.858456 2.951592,1.690661 3.310811,1.787343 0.462311,0.124438 1.298939,0.104708 1.724821,-0.04043 0.204763,-0.06981 1.586265,-0.82407 3.236338,-1.767116 3.002926,-1.716221 3.137962,-1.808654 3.137962,-2.151429 0,-0.194071 -0.141709,-0.423091 -0.336506,-0.543375 -0.158246,-0.0977 -3.069928,-1.367356 -3.069928,-1.338664 0,0.0064 0.07184,0.222807 0.159065,0.480853 0.123201,0.364502 0.14794,0.505535 0.111264,0.633476 -0.301231,1.05028 -2.18018,1.741837 -4.50698,1.658619 -1.792278,-0.06411 -3.240425,-0.600872 -3.689612,-1.367182 -0.164505,-0.280649 -0.163372,-0.499168 0.0055,-0.995723 0.07435,-0.218583 0.135155,-0.403087 0.135155,-0.41006 z" />
  </g>
  <rect
     style="opacity:0.3;fill:none;fill-opacity:0.996424;stroke:#000000;stroke-width:0.955221;stroke-dasharray:none;stroke-opacity:1;filter:url(#filter5421-3)"
     id="rect1-2-7-5"
     width="13.687567"
     height="13.591975"
     x="1.6227165"
     y="1.6705122"
     rx="2.8442214"
     ry="2.965905"
     transform="matrix(0.43046721,0,0,0.43046721,9.5627021,9.5627021)" />
  <rect
     style="fill:none;fill-opacity:1;stroke:{{colors.primary.default.hex}};stroke-width:0.411191;stroke-dasharray:none;stroke-opacity:1"
     id="rect1-2-3"
     width="5.8920484"
     height="5.8508992"
     x="10.261228"
     y="10.281802"
     rx="1.224344"
     ry="1.2767248" />
  <path
     style="fill:{{colors.primary.default.hex}};fill-opacity:1;stroke:none;stroke-width:0.111361;stroke-dasharray:none;stroke-opacity:0.6"
     d="m 13.533272,11.301432 c -0.821078,0 -1.499455,0.67236 -1.499455,1.494376 0,0.312433 0.105512,0.599869 0.271091,0.840598 l -0.999647,1.001912 a 0.27258117,0.27319879 0 0 0 0.381235,0.390574 l 0.999645,-1.00191 c 0.240536,0.165986 0.534861,0.263213 0.847157,0.263213 0.821105,0 1.490994,-0.672359 1.490994,-1.494375 0,-0.822014 -0.669889,-1.494374 -1.490994,-1.494374 z m 0,0.54341 c 0.52792,0 0.948815,0.422446 0.948815,0.950966 0,0.528491 -0.420895,0.950965 -0.948815,0.950965 -0.527922,0 -0.948816,-0.422474 -0.948816,-0.950965 0,-0.52852 0.420894,-0.950966 0.948816,-0.950966 z"
     id="path8" />
</svg>
