<?xml version="1.0" encoding="UTF-8" standalone="no"?>
<svg
   width="64"
   height="64"
   version="1.1"
   viewBox="0 0 16.933 16.933"
   id="svg7"
   sodipodi:docname="abcd.svg"
   inkscape:version="1.4.3 (0d15f75042, 2025-12-25)"
   xmlns:inkscape="http://www.inkscape.org/namespaces/inkscape"
   xmlns:sodipodi="http://sodipodi.sourceforge.net/DTD/sodipodi-0.dtd"
   xmlns="http://www.w3.org/2000/svg"
   xmlns:svg="http://www.w3.org/2000/svg"
   xmlns:rdf="http://www.w3.org/1999/02/22-rdf-syntax-ns#"
   xmlns:cc="http://creativecommons.org/ns#"
   xmlns:dc="http://purl.org/dc/elements/1.1/">
  <sodipodi:namedview
     id="namedview7"
     pagecolor="#9c4444"
     bordercolor="#000000"
     borderopacity="0.25"
     inkscape:showpageshadow="2"
     inkscape:pageopacity="0.0"
     inkscape:pagecheckerboard="0"
     inkscape:deskcolor="#d1d1d1"
     inkscape:zoom="4.3531261"
     inkscape:cx="33.768836"
     inkscape:cy="30.552756"
     inkscape:window-width="1226"
     inkscape:window-height="669"
     inkscape:window-x="100"
     inkscape:window-y="206"
     inkscape:window-maximized="0"
     inkscape:current-layer="svg7"
     showgrid="false" />
  <defs
     id="defs2">
    <filter
       style="color-interpolation-filters:sRGB;"
       inkscape:label="Blur"
       id="filter5421"
       x="-0.12256455"
       y="-0.12342654"
       width="1.2451291"
       height="1.2468531">
      <feGaussianBlur
         stdDeviation="0.5 0.5"
         result="blur"
         id="feGaussianBlur5419" />
    </filter>
  </defs>
  <metadata
     id="metadata2">
    <rdf:RDF>
      <cc:Work
         rdf:about="">
        <dc:format>image/svg+xml</dc:format>
        <dc:type
           rdf:resource="http://purl.org/dc/dcmitype/StillImage" />
      </cc:Work>
    </rdf:RDF>
  </metadata>
  <rect
     style="opacity:0.3;fill:none;fill-opacity:0.996424;stroke:#000000;stroke-width:0.955221;stroke-dasharray:none;stroke-opacity:1;filter:url(#filter5421)"
     id="rect1-2-7"
     width="13.687567"
     height="13.591975"
     x="1.6227165"
     y="1.6705122"
     rx="2.8442214"
     ry="2.965905" />
  <rect
     style="fill:none;fill-opacity:1;stroke:{{colors.primary.default.hex}};stroke-width:0.955221;stroke-dasharray:none;stroke-opacity:1"
     id="rect1-2"
     width="13.687567"
     height="13.591975"
     x="1.6227167"
     y="1.6705124"
     rx="2.8442214"
     ry="2.965905" />
  <path
     style="fill:{{colors.primary.default.hex}};fill-opacity:1;stroke-width:0.00990518"
     d="M 8.3708833,12.544103 C 7.9609862,12.513677 7.5687359,12.418906 7.204017,12.262185 6.9345681,12.146401 6.4610513,11.859981 6.1491143,11.624097 5.6118583,11.217828 5.2720699,10.800363 5.1888002,10.444257 5.1710152,10.36821 5.1699389,10.333489 5.1838222,10.283526 5.2007322,10.222631 5.2881743,10.10291 5.4052546,9.9803438 5.6021709,9.7741959 5.6116677,9.756807 5.5424218,9.7291696 5.4794376,9.7040332 5.3461014,9.5881956 5.123578,9.3652993 4.8110749,9.0522734 4.5675372,8.7601063 4.5239234,8.6459033 c -0.016424,-0.042999 -0.016356,-0.045154 0.00176,-0.058715 0.01033,-0.00775 0.1703451,-0.086238 0.3555714,-0.174434 C 5.06648,8.3245589 5.3027186,8.2098043 5.406228,8.1577448 L 5.5944295,8.0630906 5.8222488,7.8394551 C 6.0345554,7.6310466 6.1582753,7.5208956 6.2105318,7.493756 6.222517,7.4875378 6.282693,7.4737864 6.3442526,7.4632055 6.5410899,7.4293878 6.7636035,7.354525 6.8626079,7.2888096 6.9438749,7.2348682 7.0770142,7.1155673 7.4417469,6.7698708 7.8720556,6.3620214 7.9204144,6.3193162 7.9914846,6.2844117 c 0.1182819,-0.058092 0.3168,-0.081259 0.6778203,-0.079105 0.2881443,0.00168 0.3137722,-0.00264 0.4159766,-0.070898 0.033383,-0.022297 0.081067,-0.065711 0.1059625,-0.096487 0.024893,-0.030773 0.077148,-0.084332 0.1161157,-0.1190152 0.2597181,-0.2311557 0.9996293,-0.7845032 1.3487763,-1.0086859 0.02716,-0.017435 0.129605,-0.1058779 0.227664,-0.196536 0.261124,-0.241411 0.387236,-0.3310563 0.466077,-0.3313087 0.04282,-1.368e-4 0.07592,0.037385 0.229818,0.260357 0.191509,0.2774694 0.231074,0.3699349 0.215892,0.5045418 -0.0097,0.085974 -0.03351,0.1446854 -0.139697,0.34457 -0.192985,0.3632447 -0.43127,0.865471 -0.530966,1.1191024 -0.07908,0.20119 -0.09648,0.2968843 -0.05999,0.3299106 0.05264,0.047641 0.164491,0.067636 0.378359,0.067636 0.276872,0 0.297098,-0.00465 0.544939,-0.1253192 0.117131,-0.057028 0.231822,-0.1065066 0.254879,-0.1099522 0.03807,-0.00568 0.04459,-0.00341 0.07108,0.02496 0.05138,0.055014 0.09377,0.2131138 0.105161,0.3922179 0.01125,0.1759428 -0.02528,0.2162811 -0.247888,0.2743683 -0.428004,0.1116759 -1.238412,0.7115219 -1.517875,1.123495 -0.131953,0.1945197 -0.219794,0.5037346 -0.303549,1.0685285 -0.07647,0.515731 -0.154046,1.4399 -0.173758,2.070186 -0.01087,0.347021 -0.02117,0.431783 -0.06383,0.524996 -0.01329,0.02903 -0.03548,0.06019 -0.04932,0.06927 -0.05772,0.03782 -0.469974,0.135198 -0.7740702,0.182845 -0.2450399,0.03837 -0.6829187,0.05748 -0.9181758,0.03999 z M 7.7394494,8.0522029 C 7.7582163,8.0386075 7.867169,7.9321714 7.9815744,7.8156718 8.2021941,7.591013 8.2890432,7.5187389 8.3597975,7.5009227 c 0.1096454,-0.027605 0.2625457,-0.1710515 0.32993,-0.3095229 0.021478,-0.04413 0.041515,-0.095838 0.044531,-0.1149064 0.00971,-0.061384 0.00208,-0.064558 -0.1506466,-0.06293 -0.1585267,0.00168 -0.2510868,0.021575 -0.3685353,0.079184 -0.1233853,0.06052 -0.252081,0.2097547 -0.3703704,0.4294799 -0.1170237,0.2173739 -0.2096242,0.5292215 -0.1627631,0.5481301 0.020205,0.00815 0.021951,0.00761 0.057506,-0.018157 z"
     id="path6" />
</svg>
