<?xml version="1.0" encoding="UTF-8" standalone="no"?>
<svg
   width="64"
   height="64"
   version="1.1"
   viewBox="0 0 16.933 16.933"
   id="svg7"
   sodipodi:docname="abcd.svg"
   inkscape:version="1.4.3 (0d15f75042, 2025-12-25)"
   xmlns:inkscape="http://www.inkscape.org/namespaces/inkscape"
   xmlns:sodipodi="http://sodipodi.sourceforge.net/DTD/sodipodi-0.dtd"
   xmlns="http://www.w3.org/2000/svg"
   xmlns:svg="http://www.w3.org/2000/svg"
   xmlns:rdf="http://www.w3.org/1999/02/22-rdf-syntax-ns#"
   xmlns:cc="http://creativecommons.org/ns#"
   xmlns:dc="http://purl.org/dc/elements/1.1/">
  <sodipodi:namedview
     id="namedview7"
     pagecolor="#9c4444"
     bordercolor="#000000"
     borderopacity="0.25"
     inkscape:showpageshadow="2"
     inkscape:pageopacity="0.0"
     inkscape:pagecheckerboard="0"
     inkscape:deskcolor="#d1d1d1"
     inkscape:zoom="4.3531261"
     inkscape:cx="43.417074"
     inkscape:cy="20.674797"
     inkscape:window-width="1226"
     inkscape:window-height="669"
     inkscape:window-x="474"
     inkscape:window-y="225"
     inkscape:window-maximized="0"
     inkscape:current-layer="svg7"
     showgrid="false" />
  <defs
     id="defs2">
    <filter
       style="color-interpolation-filters:sRGB;"
       inkscape:label="Blur"
       id="filter5421"
       x="-0.12256455"
       y="-0.12342654"
       width="1.2451291"
       height="1.2468531">
      <feGaussianBlur
         stdDeviation="0.5 0.5"
         result="blur"
         id="feGaussianBlur5419" />
    </filter>
  </defs>
  <metadata
     id="metadata2">
    <rdf:RDF>
      <cc:Work
         rdf:about="">
        <dc:format>image/svg+xml</dc:format>
        <dc:type
           rdf:resource="http://purl.org/dc/dcmitype/StillImage" />
      </cc:Work>
    </rdf:RDF>
  </metadata>
  <rect
     style="opacity:0.3;fill:none;fill-opacity:0.996424;stroke:#000000;stroke-width:0.955221;stroke-dasharray:none;stroke-opacity:1;filter:url(#filter5421)"
     id="rect1-2-7"
     width="13.687567"
     height="13.591975"
     x="1.6227165"
     y="1.6705122"
     rx="2.8442214"
     ry="2.965905" />
  <rect
     style="fill:none;fill-opacity:1;stroke:{{colors.primary.default.hex}};stroke-width:0.955221;stroke-dasharray:none;stroke-opacity:1"
     id="rect1-2"
     width="13.687567"
     height="13.591975"
     x="1.6227167"
     y="1.6705124"
     rx="2.8442214"
     ry="2.965905" />
  <path
     style="fill:{{colors.primary.default.hex}};fill-opacity:1;stroke-width:0.226843"
     d="M 7.5144466,11.741557 C 5.9290203,11.3115 4.5815748,10.917908 4.5201233,10.866908 c -0.061451,-0.051 -0.1117297,-0.15084 -0.1117297,-0.221867 0,-0.149911 0.6191661,-2.4975235 0.6881369,-2.6091205 0.076382,-0.1235889 0.3926266,-0.086616 1.2717837,0.1486876 0.9379244,0.2510327 1.1155276,0.3606935 1.0520727,0.649601 -0.027126,0.1235083 -0.00444,0.2238679 0.063345,0.2801172 0.138337,0.1148096 1.3956087,0.4505113 1.5146124,0.4044137 0.050645,-0.019617 0.1477274,-0.1331539 0.215738,-0.2523018 0.073313,-0.1284375 0.1835085,-0.2166326 0.2706711,-0.2166326 0.2706965,0 1.9863756,0.4981471 2.0474706,0.5944823 0.03317,0.052316 0.06082,0.1327331 0.06144,0.1787053 0.0025,0.1802748 -0.650573,2.5128108 -0.730344,2.6089298 -0.04664,0.0562 -0.170637,0.09979 -0.27554,0.09687 -0.104904,-0.0029 -1.4879006,-0.357179 -3.0733262,-0.787236 z M 10.578515,8.7825785 C 10.07946,8.6421949 9.630312,8.4938973 9.5804066,8.453029 9.5305013,8.4121603 9.4896694,8.272393 9.4896694,8.1424351 c 0,-0.3036835 -0.062392,-0.3471282 -0.7671346,-0.534167 C 7.95755,7.4052404 7.8332574,7.4087944 7.7468106,7.6361676 7.7084734,7.7370015 7.6206018,7.841185 7.5515397,7.8676862 7.4265604,7.9156453 6.0375708,7.5921949 5.5879756,7.4104364 5.4174928,7.341515 5.3521911,7.2687342 5.3525353,7.1480312 5.3532589,6.8969431 5.9766378,4.6350328 6.0791721,4.5114865 c 0.049032,-0.05908 0.129586,-0.1074188 0.1790082,-0.1074188 0.1927288,0 6.0871527,1.599668 6.1807967,1.6773859 0.141545,0.1174718 0.135427,0.1579224 -0.232918,1.5398743 -0.311164,1.1674242 -0.433897,1.4388108 -0.643311,1.422486 -0.04227,-0.0033 -0.48518,-0.1208515 -0.984233,-0.2612354 z"
     id="path1" />
</svg>
