<?xml version="1.0" encoding="UTF-8" standalone="no"?>
<svg
   width="64"
   height="64"
   version="1.1"
   viewBox="0 0 16.933 16.933"
   id="svg7"
   sodipodi:docname="abcd.svg"
   inkscape:version="1.4.3 (0d15f75042, 2025-12-25)"
   xmlns:inkscape="http://www.inkscape.org/namespaces/inkscape"
   xmlns:sodipodi="http://sodipodi.sourceforge.net/DTD/sodipodi-0.dtd"
   xmlns="http://www.w3.org/2000/svg"
   xmlns:svg="http://www.w3.org/2000/svg"
   xmlns:rdf="http://www.w3.org/1999/02/22-rdf-syntax-ns#"
   xmlns:cc="http://creativecommons.org/ns#"
   xmlns:dc="http://purl.org/dc/elements/1.1/">
  <sodipodi:namedview
     id="namedview7"
     pagecolor="#9c4444"
     bordercolor="#000000"
     borderopacity="0.25"
     inkscape:showpageshadow="2"
     inkscape:pageopacity="0.0"
     inkscape:pagecheckerboard="0"
     inkscape:deskcolor="#d1d1d1"
     inkscape:zoom="4.3531261"
     inkscape:cx="32.160796"
     inkscape:cy="33.309396"
     inkscape:window-width="1226"
     inkscape:window-height="669"
     inkscape:window-x="100"
     inkscape:window-y="206"
     inkscape:window-maximized="0"
     inkscape:current-layer="svg7"
     showgrid="false" />
  <defs
     id="defs2">
    <filter
       style="color-interpolation-filters:sRGB;"
       inkscape:label="Blur"
       id="filter5421"
       x="-0.12256455"
       y="-0.12342654"
       width="1.2451291"
       height="1.2468531">
      <feGaussianBlur
         stdDeviation="0.5 0.5"
         result="blur"
         id="feGaussianBlur5419" />
    </filter>
  </defs>
  <metadata
     id="metadata2">
    <rdf:RDF>
      <cc:Work
         rdf:about="">
        <dc:format>image/svg+xml</dc:format>
        <dc:type
           rdf:resource="http://purl.org/dc/dcmitype/StillImage" />
      </cc:Work>
    </rdf:RDF>
  </metadata>
  <rect
     style="opacity:0.3;fill:none;fill-opacity:0.996424;stroke:#000000;stroke-width:0.955221;stroke-dasharray:none;stroke-opacity:1;filter:url(#filter5421)"
     id="rect1-2-7"
     width="13.687567"
     height="13.591975"
     x="1.6227165"
     y="1.6705122"
     rx="2.8442214"
     ry="2.965905" />
  <rect
     style="fill:none;fill-opacity:1;stroke:{{colors.primary.default.hex}};stroke-width:0.955221;stroke-dasharray:none;stroke-opacity:1"
     id="rect1-2"
     width="13.687567"
     height="13.591975"
     x="1.6227167"
     y="1.6705124"
     rx="2.8442214"
     ry="2.965905" />
  <path
     style="fill:{{colors.primary.default.hex}};fill-opacity:1;stroke:none;stroke-width:0.134105;stroke-dasharray:none;stroke-opacity:0.6"
     d="M 5.2562592,12.416125 C 5.0304672,12.35115 4.7840985,12.170104 4.6540714,11.973622 4.3651136,11.536974 4.4189007,11.008084 4.7900038,10.63698 4.9010878,10.525897 5.0400724,10.422935 5.0988587,10.408182 l 0.1068844,-0.02682 V 8.4702599 6.5591654 L 5.0782826,6.5063691 C 4.9101134,6.4367112 4.6883912,6.216385 4.5875569,6.0187339 4.3300911,5.5140594 4.5137085,4.9144713 5.0161733,4.6191189 5.1946898,4.514187 5.2762307,4.4948907 5.5369915,4.4958741 c 0.4419386,0.00168 0.7638102,0.1911618 0.9545219,0.5619567 l 0.085185,0.1656241 h 1.8993527 1.8993539 l 0.04013,-0.1055094 c 0.121376,-0.3192413 0.603356,-0.6440513 0.956935,-0.6448887 0.590038,-0.00139 1.083927,0.4764066 1.087431,1.0520185 8.41e-4,0.1393086 -0.03158,0.3288625 -0.07307,0.4271261 -0.08887,0.2104689 -0.342406,0.4818582 -0.518208,0.5546763 l -0.126229,0.052287 v 1.9105246 1.9105247 l 0.127457,0.05278 c 0.187132,0.07752 0.403954,0.305787 0.50402,0.530635 0.357545,0.803423 -0.413237,1.68955 -1.255279,1.443134 -0.28492,-0.08336 -0.539319,-0.28346 -0.659207,-0.518459 l -0.08795,-0.172385 H 8.4773603 6.5832975 l -0.115598,0.197255 c -0.1425776,0.243289 -0.3540727,0.409042 -0.6265707,0.491052 -0.2349536,0.07073 -0.3709087,0.07349 -0.5848696,0.01191 z m 5.1925848,-1.518288 0.0742,-0.155592 -0.256433,-0.259135 C 10.021436,10.235354 10.002354,10.225024 9.8320787,10.24786 9.6222288,10.276007 9.3982304,10.174347 9.3110157,10.011392 9.2543096,9.9054327 9.2517449,9.9050987 8.4938769,9.9050987 H 7.7336238 L 7.5513756,10.087347 C 7.3776818,10.261042 7.35892,10.268615 7.1516426,10.248697 6.935708,10.227949 6.9323458,10.22964 6.6796204,10.485024 l -0.2545377,0.257221 0.074194,0.155592 0.074197,0.155593 H 8.474063 10.374649 Z M 6.4502545,10.272744 C 6.6944517,10.031098 6.7026764,10.015446 6.6784266,9.8385243 6.64903,9.6240425 6.7386837,9.4145207 6.9070716,9.3041894 L 7.0165682,9.2324447 V 8.4656286 7.6988129 L 6.9038948,7.6249865 C 6.7337586,7.5135089 6.6489037,7.316253 6.6784266,7.1008561 6.7027017,6.9237647 6.6945907,6.9084217 6.4475691,6.6639748 L 6.1915532,6.4106322 6.029897,6.4877198 5.8682399,6.5648092 v 1.8869118 1.886912 l 0.1435411,0.08874 c 0.078949,0.04881 0.1529026,0.09039 0.1643437,0.09239 0.011446,0.0021 0.1347998,-0.109149 0.2741298,-0.247026 z M 11.035436,8.4725518 11.035173,6.5705325 10.895463,6.4909952 10.75575,6.4114597 10.496435,6.6676621 c -0.244746,0.2418094 -0.257777,0.2653494 -0.232019,0.4190138 0.0336,0.2004366 -0.08029,0.4650428 -0.22942,0.5329923 C 9.9322039,7.6665022 9.9315712,7.671579 9.9315712,8.449617 v 0.7828268 l 0.1141038,0.074766 c 0.154451,0.1011992 0.253992,0.3507593 0.217498,0.545286 -0.02686,0.143227 -0.01133,0.1716992 0.22334,0.4088272 l 0.252217,0.254879 0.148501,-0.07081 0.148501,-0.07082 -2.62e-4,-1.9020186 z M 9.304123,9.4878554 C 9.3312087,9.4284113 9.40396,9.346625 9.4657951,9.3061095 L 9.5782225,9.2324435 V 8.4676183 7.7027922 L 9.4483357,7.6103038 C 9.3768979,7.5594359 9.3059957,7.4785828 9.2907763,7.4306308 9.2645968,7.3481501 9.2208827,7.3434454 8.4806079,7.3434454 H 7.6981101 l -0.076681,0.1298115 c -0.042175,0.071398 -0.116022,0.1422986 -0.1641047,0.1575594 -0.082812,0.026281 -0.087425,0.069266 -0.087425,0.8146871 v 0.786941 l 0.1124271,0.073667 c 0.061835,0.040517 0.1345878,0.1223008 0.1616723,0.1817447 l 0.049247,0.1080793 H 8.4740631 9.2548806 Z M 9.2907824,6.9470946 C 9.3060014,6.8991443 9.3783572,6.8172542 9.451574,6.7651206 9.5574461,6.6897334 9.6286256,6.6745524 9.7993315,6.690956 10.011742,6.7113649 10.016612,6.708911 10.26851,6.454358 L 10.523047,6.1971344 10.448856,6.041543 10.374656,5.8859527 H 8.4791446 6.5836354 l -0.088157,0.1494149 -0.088158,0.1494149 0.2597254,0.2570141 c 0.2460302,0.2434642 0.2700409,0.2563808 0.4554028,0.2449813 0.2318002,-0.014259 0.4252702,0.074181 0.5104385,0.233318 l 0.06111,0.1141847 h 0.7845568 c 0.7423255,0 0.7860466,-0.00468 0.8122285,-0.087186 z"
     id="path2647" />
</svg>
