<?xml version="1.0" encoding="UTF-8" standalone="no"?>
<svg
   width="64"
   height="64"
   version="1.1"
   viewBox="0 0 16.933 16.933"
   id="svg7"
   sodipodi:docname="abcd.svg"
   inkscape:version="1.4.3 (0d15f75042, 2025-12-25)"
   xmlns:inkscape="http://www.inkscape.org/namespaces/inkscape"
   xmlns:sodipodi="http://sodipodi.sourceforge.net/DTD/sodipodi-0.dtd"
   xmlns="http://www.w3.org/2000/svg"
   xmlns:svg="http://www.w3.org/2000/svg"
   xmlns:rdf="http://www.w3.org/1999/02/22-rdf-syntax-ns#"
   xmlns:cc="http://creativecommons.org/ns#"
   xmlns:dc="http://purl.org/dc/elements/1.1/">
  <sodipodi:namedview
     id="namedview7"
     pagecolor="#9c4444"
     bordercolor="#000000"
     borderopacity="0.25"
     inkscape:showpageshadow="2"
     inkscape:pageopacity="0.0"
     inkscape:pagecheckerboard="0"
     inkscape:deskcolor="#d1d1d1"
     inkscape:zoom="4.3531261"
     inkscape:cx="39.971275"
     inkscape:cy="24.809757"
     inkscape:window-width="1226"
     inkscape:window-height="669"
     inkscape:window-x="146"
     inkscape:window-y="136"
     inkscape:window-maximized="0"
     inkscape:current-layer="svg7"
     showgrid="false" />
  <defs
     id="defs2">
    <filter
       style="color-interpolation-filters:sRGB;"
       inkscape:label="Blur"
       id="filter5421"
       x="-0.12256455"
       y="-0.12342654"
       width="1.2451291"
       height="1.2468531">
      <feGaussianBlur
         stdDeviation="0.5 0.5"
         result="blur"
         id="feGaussianBlur5419" />
    </filter>
  </defs>
  <metadata
     id="metadata2">
    <rdf:RDF>
      <cc:Work
         rdf:about="">
        <dc:format>image/svg+xml</dc:format>
        <dc:type
           rdf:resource="http://purl.org/dc/dcmitype/StillImage" />
      </cc:Work>
    </rdf:RDF>
  </metadata>
  <rect
     style="opacity:0.3;fill:none;fill-opacity:0.996424;stroke:#000000;stroke-width:0.955221;stroke-dasharray:none;stroke-opacity:1;filter:url(#filter5421)"
     id="rect1-2-7"
     width="13.687567"
     height="13.591975"
     x="1.6227165"
     y="1.6705122"
     rx="2.8442214"
     ry="2.965905" />
  <rect
     style="fill:none;fill-opacity:1;stroke:{{colors.primary.default.hex}};stroke-width:0.955221;stroke-dasharray:none;stroke-opacity:1"
     id="rect1-2"
     width="13.687567"
     height="13.591975"
     x="1.6227167"
     y="1.6705124"
     rx="2.8442214"
     ry="2.965905" />
  <path
     d="m 9.9814631,11.082875 c 0.050274,0.415148 0.04409,0.889149 -0.032309,1.285545 -0.4612318,0.176952 -0.9603678,0.274107 -1.4806501,0.274107 -0.2120628,0 -0.4207348,-0.01616 -0.6246188,-0.04727 0.2028864,-0.320588 0.371061,-0.72277 0.481581,-1.105998 0.04748,0.0022 0.095158,0.0032 0.1430378,0.0032 0.5494094,0 1.0668985,-0.149621 1.5129691,-0.409762 z M 5.7747151,9.8400221 C 6.0569999,10.387438 6.5016743,10.839889 7.0435026,11.132151 6.7288993,11.366157 6.2969931,11.604555 5.8792499,11.734226 5.2957274,11.270201 4.8372885,10.654561 4.5657763,9.9493455 4.950602,9.9752738 5.3862986,9.9293907 5.7747151,9.8400221 Z M 11.493835,8.3517903 c 0.361486,0.1566029 0.786608,0.4141507 1.109192,0.7131943 -0.110721,0.7576817 -0.428116,1.4521234 -0.892741,2.0234764 -0.16957,-0.345725 -0.426519,-0.699229 -0.697434,-0.990492 0.305228,-0.4720047 0.483176,-1.0325854 0.483176,-1.6314693 0,-0.038503 -7.09e-4,-0.076605 -0.0022,-0.1147094 z M 9.5944436,8.6244994 7.6603408,9.8410197 c -0.075808,0.047276 -0.1380504,0.00654 -0.1380504,-0.111718 V 7.3461361 c 0,-0.1354563 0.060446,-0.1583989 0.1380504,-0.1119167 l 1.9341028,1.21652 c 0.085982,0.054262 0.082392,0.1216916 0,0.17376 z M 5.4425559,8.5650503 C 5.0541393,8.4080479 4.6403869,8.1660604 4.3299733,7.8959445 4.4378997,7.1203074 4.7624778,6.4099066 5.2396698,5.8285784 c 0.1699697,0.3449269 0.42652,0.6972348 0.6968357,0.9876994 -0.3130074,0.4759949 -0.4955456,1.043358 -0.4955456,1.6502219 0,0.032917 6.042e-4,0.065834 0.00161,0.098551 z m 4.435769,-2.772181 C 10.209488,5.5367178 10.612666,5.3170738 11.023825,5.1722409 11.621711,5.6378616 12.09192,6.2612834 12.36882,6.9776691 11.983793,6.9509393 11.5471,6.9954277 11.157487,7.0838008 10.87221,6.5353892 10.423944,6.0831342 9.8783249,5.7928693 Z m -2.91462,0.052666 C 6.927197,5.4509355 6.9427552,4.9627713 7.038116,4.5456274 7.4851839,4.3806452 7.9671641,4.2904729 8.4684942,4.2904729 c 0.2120633,0 0.4207348,0.016161 0.6248179,0.047281 -0.2030853,0.3203885 -0.3714592,0.7227701 -0.4819795,1.106199 -0.047481,-0.0022 -0.09496,-0.00339 -0.1428384,-0.00339 -0.5462173,0 -1.0605146,0.1476259 -1.5047893,0.4049747 z"
     fill="#ff3859"
     fill-rule="nonzero"
     id="path3-5"
     style="fill:{{colors.primary.default.hex}};fill-opacity:1;stroke:none;stroke-width:0.136828;stroke-dasharray:none;stroke-opacity:0.6" />
</svg>
