<?xml version="1.0" encoding="UTF-8" standalone="no"?>
<svg
   width="64"
   height="64"
   version="1.1"
   viewBox="0 0 16.933 16.933"
   id="svg7"
   sodipodi:docname="abcd.svg"
   inkscape:version="1.4.3 (0d15f75042, 2025-12-25)"
   xmlns:inkscape="http://www.inkscape.org/namespaces/inkscape"
   xmlns:sodipodi="http://sodipodi.sourceforge.net/DTD/sodipodi-0.dtd"
   xmlns="http://www.w3.org/2000/svg"
   xmlns:svg="http://www.w3.org/2000/svg"
   xmlns:rdf="http://www.w3.org/1999/02/22-rdf-syntax-ns#"
   xmlns:cc="http://creativecommons.org/ns#"
   xmlns:dc="http://purl.org/dc/elements/1.1/">
  <sodipodi:namedview
     id="namedview7"
     pagecolor="#9c4444"
     bordercolor="#000000"
     borderopacity="0.25"
     inkscape:showpageshadow="2"
     inkscape:pageopacity="0.0"
     inkscape:pagecheckerboard="0"
     inkscape:deskcolor="#d1d1d1"
     inkscape:zoom="4.3531261"
     inkscape:cx="43.417074"
     inkscape:cy="20.674797"
     inkscape:window-width="1226"
     inkscape:window-height="669"
     inkscape:window-x="106"
     inkscape:window-y="190"
     inkscape:window-maximized="0"
     inkscape:current-layer="svg7"
     showgrid="false" />
  <defs
     id="defs2">
    <filter
       style="color-interpolation-filters:sRGB;"
       inkscape:label="Blur"
       id="filter5421"
       x="-0.12256455"
       y="-0.12342654"
       width="1.2451291"
       height="1.2468531">
      <feGaussianBlur
         stdDeviation="0.5 0.5"
         result="blur"
         id="feGaussianBlur5419" />
    </filter>
  </defs>
  <metadata
     id="metadata2">
    <rdf:RDF>
      <cc:Work
         rdf:about="">
        <dc:format>image/svg+xml</dc:format>
        <dc:type
           rdf:resource="http://purl.org/dc/dcmitype/StillImage" />
      </cc:Work>
    </rdf:RDF>
  </metadata>
  <rect
     style="opacity:0.3;fill:none;fill-opacity:0.996424;stroke:#000000;stroke-width:0.955221;stroke-dasharray:none;stroke-opacity:1;filter:url(#filter5421)"
     id="rect1-2-7"
     width="13.687567"
     height="13.591975"
     x="1.6227165"
     y="1.6705122"
     rx="2.8442214"
     ry="2.965905" />
  <rect
     style="fill:none;fill-opacity:1;stroke:{{colors.primary.default.hex}};stroke-width:0.955221;stroke-dasharray:none;stroke-opacity:1"
     id="rect1-2"
     width="13.687567"
     height="13.591975"
     x="1.6227167"
     y="1.6705124"
     rx="2.8442214"
     ry="2.965905" />
  <path
     style="fill:{{colors.primary.default.hex}};fill-opacity:1;stroke:none;stroke-width:0.129627;stroke-dasharray:none;stroke-opacity:0.6"
     d="m 10.989022,12.931752 c -0.553694,-0.924145 -0.9968744,-1.717023 -1.016217,-1.743476 -0.031062,-0.04247 -0.044273,-0.04213 -0.1131198,0.003 -0.2086159,0.136513 -0.7863901,0.192363 -1.2090218,0.11687 -0.1052655,-0.0188 -0.6328877,-0.165694 -1.1724935,-0.326422 L 6.4970673,10.689489 6.0176256,10.712609 C 5.6680653,10.729439 5.5258227,10.725429 5.492554,10.697829 5.467458,10.677009 5.429626,10.58266 5.408484,10.488189 5.3757167,10.34173 5.3574851,10.313874 5.284916,10.29936 5.153496,10.273075 5.0293457,10.157698 4.9895461,10.024858 4.929241,9.823578 4.9960324,9.6486293 5.2131419,9.4392056 5.3142938,9.341634 5.4301548,9.2078351 5.4706102,9.1418759 5.6009979,8.9292908 5.9440272,8.6465178 6.2607787,8.4905058 6.802563,8.223659 7.3632678,8.1064198 8.3463791,8.0544251 8.9684734,8.0215234 9.0864635,7.9931327 9.7776623,7.7100367 10.246445,7.5180372 10.651612,7.4018205 10.760525,7.4281169 c 0.135705,0.032766 0.255945,0.1328295 0.347656,0.289324 l 0.08487,0.1448199 0.06346,-0.1066083 c 0.09637,-0.1618826 0.348201,-0.4101046 0.492786,-0.4857169 0.07588,-0.039682 0.190561,-0.067737 0.278428,-0.068109 0.280314,-0.00116 0.415058,0.1686799 0.415058,0.5232556 0,0.2224415 -0.07202,0.6273108 -0.165338,0.9294305 l -0.06547,0.2119727 0.09603,0.1008926 c 0.05282,0.055492 0.547921,0.6504182 1.100239,1.322061 0.818297,0.995082 1.515686,1.543104 1.499017,1.599362 -0.01126,0.03796 -0.143033,1.341097 -0.143033,1.341097 -0.335749,0.707483 -1.1625,1.407016 -1.1625,1.407016 -0.510077,0.448689 -1.462362,0.214832 -1.462362,0.214832 z"
     id="path1-9"
     sodipodi:nodetypes="ssssscsssssssssssscsscsscssssscs" />
</svg>
