<?xml version="1.0" encoding="UTF-8" standalone="no"?>
<svg
   width="64"
   height="64"
   version="1.1"
   viewBox="0 0 16.933 16.933"
   id="svg7"
   sodipodi:docname="abcd.svg"
   inkscape:version="1.4.3 (0d15f75042, 2025-12-25)"
   xmlns:inkscape="http://www.inkscape.org/namespaces/inkscape"
   xmlns:sodipodi="http://sodipodi.sourceforge.net/DTD/sodipodi-0.dtd"
   xmlns="http://www.w3.org/2000/svg"
   xmlns:svg="http://www.w3.org/2000/svg"
   xmlns:rdf="http://www.w3.org/1999/02/22-rdf-syntax-ns#"
   xmlns:cc="http://creativecommons.org/ns#"
   xmlns:dc="http://purl.org/dc/elements/1.1/">
  <sodipodi:namedview
     id="namedview7"
     pagecolor="#9c4444"
     bordercolor="#000000"
     borderopacity="0.25"
     inkscape:showpageshadow="2"
     inkscape:pageopacity="0.0"
     inkscape:pagecheckerboard="0"
     inkscape:deskcolor="#d1d1d1"
     inkscape:zoom="4.3531261"
     inkscape:cx="37.674075"
     inkscape:cy="26.188077"
     inkscape:window-width="1226"
     inkscape:window-height="669"
     inkscape:window-x="146"
     inkscape:window-y="136"
     inkscape:window-maximized="0"
     inkscape:current-layer="svg7"
     showgrid="false" />
  <defs
     id="defs2">
    <filter
       style="color-interpolation-filters:sRGB;"
       inkscape:label="Blur"
       id="filter5421"
       x="-0.12256455"
       y="-0.12342654"
       width="1.2451291"
       height="1.2468531">
      <feGaussianBlur
         stdDeviation="0.5 0.5"
         result="blur"
         id="feGaussianBlur5419" />
    </filter>
  </defs>
  <metadata
     id="metadata2">
    <rdf:RDF>
      <cc:Work
         rdf:about="">
        <dc:format>image/svg+xml</dc:format>
        <dc:type
           rdf:resource="http://purl.org/dc/dcmitype/StillImage" />
      </cc:Work>
    </rdf:RDF>
  </metadata>
  <rect
     style="opacity:0.3;fill:none;fill-opacity:0.996424;stroke:#000000;stroke-width:0.955221;stroke-dasharray:none;stroke-opacity:1;filter:url(#filter5421)"
     id="rect1-2-7"
     width="13.687567"
     height="13.591975"
     x="1.6227165"
     y="1.6705122"
     rx="2.8442214"
     ry="2.965905" />
  <rect
     style="fill:none;fill-opacity:1;stroke:{{colors.primary.default.hex}};stroke-width:0.955221;stroke-dasharray:none;stroke-opacity:1"
     id="rect1-2"
     width="13.687567"
     height="13.591975"
     x="1.6227167"
     y="1.6705124"
     rx="2.8442214"
     ry="2.965905" />
  <path
     style="fill:{{colors.primary.default.hex}};fill-opacity:1;stroke:none;stroke-width:0.128687;stroke-dasharray:none;stroke-opacity:0.6"
     d="m 4.7717084,4.4710628 0.2686953,0.2075089 c -0.8522742,0.4042138 1.336525,2.2497323 1.336525,2.2497323 0,0 0.4259759,-0.3944664 1.0500823,-0.4359923 0.6190443,-0.6526172 3.195444,-0.1559106 3.098913,0.3796898 -0.8660502,0.013916 -1.1403357,-0.099921 -1.1403357,-0.099921 0,0 0.042753,0.050729 0.060406,0.2248155 C 9.3827003,7.0505237 8.4871362,6.8440864 8.2999094,6.858791 7.7671737,6.9006784 7.4076238,6.9145199 7.0254296,6.9580303 7.288363,7.0472334 9.3835717,7.4310977 10.053512,8.0973539 9.8748057,8.1682287 9.7966508,8.1390969 9.7369797,8.1617079 9.6845033,8.1815647 9.6314207,8.2915876 9.516271,8.2921161 9.433765,8.2924156 9.4619657,8.2169653 9.2915738,8.1340962 8.2313847,8.1774326 7.8876561,7.5120022 7.7830331,7.4304025 7.3150059,7.3154866 6.5265364,7.0556401 6.5265364,7.0556401 c 0,0 0.6675945,0.5480512 1.0336234,0.8522352 0.03044,0.025291 0.5322449,0.1212485 1.1701675,0.4413466 C 9.073229,8.0604454 9.9976539,8.5504626 9.8258852,8.9991801 9.6728814,9.3988715 8.6463362,8.9870057 8.6840763,8.443295 8.4497285,8.3682163 8.0168218,8.1529091 7.7398551,8.050191 8.0053892,8.2632299 9.0486105,9.1574394 9.2582265,9.4103656 10.176537,9.2943413 11.562867,9.5301144 12.422823,10.097116 12.226704,10.150373 11.293516,10.332716 11.106594,10.2814 10.759266,10.146258 10.241603,9.7084689 10.186447,9.6594072 9.9869351,9.6247619 9.5391384,9.5586023 9.3671278,9.5384772 c 0.1744667,0.1821232 0.7506442,0.8669458 0.9315562,1.1550198 0.07494,-0.01631 0.457122,0.07821 0.563038,0.15226 0.392379,-0.411874 1.02861,0.310834 1.41971,0.659877 -0.102743,0.214597 -1.716466,-0.115683 -1.500796,-0.596568 -0.115319,-0.0158 -0.34612,-0.14618 -0.431227,-0.1531 0.08699,0.117212 0.276725,0.276304 0.526775,0.546131 0.240518,-0.07037 1.147095,0.938958 1.171422,1.15984 -0.678418,-0.170044 -1.013479,-0.317997 -1.118512,-0.444203 -0.207312,-0.249114 -0.128825,-0.60681 -0.109074,-0.671831 -0.266781,-0.245265 -0.316483,-0.318196 -0.403741,-0.366874 -0.0023,0.0028 2.49e-4,0.07555 0.0045,0.111037 0.438244,0.332375 0.226488,1.252296 -0.02546,1.284915 -0.109654,0.0142 -0.362407,-1.297866 -0.0468,-1.346755 0.0073,-0.02601 0.01142,-0.103478 0.01183,-0.106537 C 10.193758,10.735154 9.2700528,9.7248104 9.2099862,9.6822574 9.2399045,9.761988 9.2889549,9.8930998 9.3339729,10.054952 9.8794287,10.421685 9.9696783,11.008487 9.9285661,11.69771 9.7977538,11.462154 8.5162946,10.388951 9.0767491,9.9132029 9.080693,9.8398372 9.0594422,9.6733069 9.1066458,9.5796981 8.928821,9.396966 8.3754046,8.8349415 8.3257459,8.835399 8.3875533,8.9657426 8.4259341,9.0401548 8.4565895,9.1811007 8.878428,9.3976909 8.7558876,9.957163 8.5637468,9.9690399 8.3613234,9.981578 7.9127111,9.339483 8.3346599,9.2033197 8.3005728,9.0416621 8.2385758,8.8219485 8.2135805,8.7264984 8.0310118,8.5828568 7.4263711,8.0856934 7.2868413,7.9697999 7.4584052,8.2634904 7.6259929,8.7206285 7.7097985,8.9827371 8.21525,9.571828 8.0754293,10.483054 8.0243223,11.422954 7.4312983,10.970026 7.0631185,9.4242508 7.4403354,9.0394732 7.31441,8.5925099 7.124075,7.8362098 7.124075,7.8362098 6.30872,7.1851578 5.8576242,6.6971906 5.8576242,6.6971906 c 0,0 0.5432578,0.7247031 0.605134,1.1131838 0.4757858,0.094898 0.8732663,0.9475548 0.4949514,1.0930663 -0.5529694,0.212684 -1.1465383,-0.6898238 -0.6748062,-1.0259665 0,0 -0.4176996,-0.7915276 -0.7410248,-1.48575 C 4.2665486,4.9515939 4.3891384,4.5192259 4.771666,4.4710846 Z"
     id="path8" />
</svg>
