<?xml version="1.0" encoding="UTF-8" standalone="no"?>
<svg
   width="64"
   height="64"
   version="1.1"
   viewBox="0 0 16.933 16.933"
   id="svg7"
   sodipodi:docname="abcd.svg"
   inkscape:version="1.4.3 (0d15f75042, 2025-12-25)"
   xmlns:inkscape="http://www.inkscape.org/namespaces/inkscape"
   xmlns:sodipodi="http://sodipodi.sourceforge.net/DTD/sodipodi-0.dtd"
   xmlns="http://www.w3.org/2000/svg"
   xmlns:svg="http://www.w3.org/2000/svg"
   xmlns:rdf="http://www.w3.org/1999/02/22-rdf-syntax-ns#"
   xmlns:cc="http://creativecommons.org/ns#"
   xmlns:dc="http://purl.org/dc/elements/1.1/">
  <sodipodi:namedview
     id="namedview7"
     pagecolor="#9c4444"
     bordercolor="#000000"
     borderopacity="0.25"
     inkscape:showpageshadow="2"
     inkscape:pageopacity="0.0"
     inkscape:pagecheckerboard="0"
     inkscape:deskcolor="#d1d1d1"
     inkscape:zoom="4.3531261"
     inkscape:cx="41.809035"
     inkscape:cy="23.661157"
     inkscape:window-width="1226"
     inkscape:window-height="669"
     inkscape:window-x="106"
     inkscape:window-y="190"
     inkscape:window-maximized="0"
     inkscape:current-layer="svg7"
     showgrid="false" />
  <defs
     id="defs2">
    <filter
       style="color-interpolation-filters:sRGB;"
       inkscape:label="Blur"
       id="filter5421"
       x="-0.12256455"
       y="-0.12342654"
       width="1.2451291"
       height="1.2468531">
      <feGaussianBlur
         stdDeviation="0.5 0.5"
         result="blur"
         id="feGaussianBlur5419" />
    </filter>
  </defs>
  <metadata
     id="metadata2">
    <rdf:RDF>
      <cc:Work
         rdf:about="">
        <dc:format>image/svg+xml</dc:format>
        <dc:type
           rdf:resource="http://purl.org/dc/dcmitype/StillImage" />
      </cc:Work>
    </rdf:RDF>
  </metadata>
  <rect
     style="opacity:0.3;fill:none;fill-opacity:0.996424;stroke:#000000;stroke-width:0.955221;stroke-dasharray:none;stroke-opacity:1;filter:url(#filter5421)"
     id="rect1-2-7"
     width="13.687567"
     height="13.591975"
     x="1.6227165"
     y="1.6705122"
     rx="2.8442214"
     ry="2.965905" />
  <rect
     style="fill:none;fill-opacity:1;stroke:{{colors.primary.default.hex}};stroke-width:0.955221;stroke-dasharray:none;stroke-opacity:1"
     id="rect1-2"
     width="13.687567"
     height="13.591975"
     x="1.6227167"
     y="1.6705124"
     rx="2.8442214"
     ry="2.965905" />
  <path
     id="path36"
     style="fill:{{colors.primary.default.hex}};fill-opacity:1;stroke:none;stroke-width:0.133801;stroke-dasharray:none;stroke-opacity:0.6"
     d="m 9.7239315,4.4162346 c -0.079084,0 -0.6219867,0.476921 -0.8221109,0.7222052 -0.2035875,0.249527 -0.4880971,0.776992 -0.4880971,0.9046198 0,0.046454 0.035674,0.068108 0.1133252,0.068593 0.2404562,0.00153 0.7054376,0.1284974 1.0025383,0.2738708 0.4132378,0.2022 0.802626,0.5930742 1.008003,1.0119808 0.08221,0.1676795 0.161066,0.3702506 0.174963,0.4498252 l 0.02535,0.14464 -0.07304,-0.1033854 C 10.498545,7.6520442 10.197072,7.3782263 9.9823951,7.2687703 9.8030141,7.1773084 9.3924335,7.0619989 9.2462734,7.0619989 c -0.011198,0 0.068263,0.062894 0.1769481,0.1401666 0.9778525,0.6952278 0.9488235,2.1565768 -0.056162,2.8276835 -0.5000026,0.333889 -1.0927426,0.359414 -1.6770281,0.07257 C 6.8901396,9.7097253 6.4152337,8.8509145 6.7834191,8.4636632 7.0228302,8.2118561 7.3105676,8.0904429 7.8038509,8.0337198 7.9954636,8.0116931 8.0816812,7.9749843 8.2482095,7.8433518 8.3618543,7.7535204 8.4539444,7.6570163 8.4524942,7.6291267 8.4509708,7.6012377 8.2881364,7.4997529 8.0906463,7.4034686 7.8931554,7.3071837 7.5890368,7.1141589 7.4146661,6.9745195 L 7.0975501,6.7205299 7.0503322,6.4496412 C 7.0230041,6.2927223 7.0153783,6.0665233 7.0319434,5.9118394 L 7.0602755,5.6449269 6.8833286,5.7438387 C 6.7859976,5.7981253 6.5685065,5.9707327 6.4002006,6.127557 6.2256729,6.2901777 6.0795503,6.3967443 6.0597248,6.3755813 6.0011962,6.3130971 5.9334764,5.9149227 5.9334764,5.6334953 c 0,-0.1466636 -0.016288,-0.2664155 -0.035792,-0.2664155 -0.019502,0 -0.191699,0.1624121 -0.383221,0.3613504 C 4.739808,6.5330835 4.3922136,7.3931235 4.3911445,8.508894 c -6.041e-4,0.6299204 0.098937,1.0756416 0.3673155,1.647205 0.2227948,0.47448 0.4590006,0.808857 0.829567,1.174018 0.6125963,0.603656 1.3252554,0.972285 2.1770531,1.126796 0.9408131,0.170659 1.9836387,-0.02779 2.8480629,-0.542275 0.716739,-0.426589 1.403594,-1.252682 1.682495,-2.023466 C 12.503654,9.3162965 12.561811,8.9379857 12.53621,8.3239934 12.508918,7.6695636 12.390536,7.2239179 12.094834,6.6613818 11.91069,6.3110717 11.558343,5.8046568 11.523235,5.8397684 c -0.0084,0.00827 0.0246,0.092896 0.07305,0.187883 0.102403,0.2007245 0.248523,0.7430975 0.248523,0.9230099 0,0.1160011 -0.01417,0.1050417 -0.220688,-0.1729713 C 11.502831,6.6143921 11.129312,6.2006739 10.794074,5.8581588 10.178351,5.2290672 9.8985664,4.8635124 9.8119136,4.5742943 9.7858473,4.4872898 9.7462295,4.4162346 9.7239415,4.4162346 Z M 8.966436,7.4387578 C 8.942629,7.4372278 8.917574,7.4441778 8.884917,7.4556598 8.792599,7.4881274 8.7601686,7.5364345 8.7179116,7.7026913 8.6780716,7.8594268 8.6172527,7.955139 8.4669052,8.0988361 8.2921879,8.2658241 8.2401434,8.291551 8.0275171,8.3165411 7.754257,8.3486583 7.6101278,8.4127775 7.4683415,8.5645658 7.383544,8.6553416 7.3739839,8.6949441 7.3982613,8.8568281 7.4540963,9.2291708 7.8306865,9.6222099 8.2357812,9.7311289 8.6410553,9.8400952 8.8812354,9.7810414 9.1573007,9.504973 9.6519924,9.0102803 9.6605755,8.1144898 9.1756895,7.6012946 9.0655851,7.4847594 9.0188088,7.4420471 8.9664344,7.4387609 Z" />
</svg>
