<?xml version="1.0" encoding="UTF-8" standalone="no"?>
<svg
   width="64"
   height="64"
   version="1.1"
   viewBox="0 0 16.933 16.933"
   id="svg7"
   sodipodi:docname="abcd.svg"
   inkscape:version="1.4.3 (0d15f75042, 2025-12-25)"
   xmlns:inkscape="http://www.inkscape.org/namespaces/inkscape"
   xmlns:sodipodi="http://sodipodi.sourceforge.net/DTD/sodipodi-0.dtd"
   xmlns="http://www.w3.org/2000/svg"
   xmlns:svg="http://www.w3.org/2000/svg"
   xmlns:rdf="http://www.w3.org/1999/02/22-rdf-syntax-ns#"
   xmlns:cc="http://creativecommons.org/ns#"
   xmlns:dc="http://purl.org/dc/elements/1.1/">
  <sodipodi:namedview
     id="namedview7"
     pagecolor="#9c4444"
     bordercolor="#000000"
     borderopacity="0.25"
     inkscape:showpageshadow="2"
     inkscape:pageopacity="0.0"
     inkscape:pagecheckerboard="0"
     inkscape:deskcolor="#d1d1d1"
     inkscape:zoom="4.3531261"
     inkscape:cx="33.309396"
     inkscape:cy="31.471636"
     inkscape:window-width="1226"
     inkscape:window-height="669"
     inkscape:window-x="100"
     inkscape:window-y="206"
     inkscape:window-maximized="0"
     inkscape:current-layer="svg7"
     showgrid="false" />
  <defs
     id="defs2">
    <filter
       style="color-interpolation-filters:sRGB;"
       inkscape:label="Blur"
       id="filter5421"
       x="-0.12256455"
       y="-0.12342654"
       width="1.2451291"
       height="1.2468531">
      <feGaussianBlur
         stdDeviation="0.5 0.5"
         result="blur"
         id="feGaussianBlur5419" />
    </filter>
  </defs>
  <metadata
     id="metadata2">
    <rdf:RDF>
      <cc:Work
         rdf:about="">
        <dc:format>image/svg+xml</dc:format>
        <dc:type
           rdf:resource="http://purl.org/dc/dcmitype/StillImage" />
      </cc:Work>
    </rdf:RDF>
  </metadata>
  <rect
     style="opacity:0.3;fill:none;fill-opacity:0.996424;stroke:#000000;stroke-width:0.955221;stroke-dasharray:none;stroke-opacity:1;filter:url(#filter5421)"
     id="rect1-2-7"
     width="13.687567"
     height="13.591975"
     x="1.6227165"
     y="1.6705122"
     rx="2.8442214"
     ry="2.965905" />
  <rect
     style="fill:none;fill-opacity:1;stroke:{{colors.primary.default.hex}};stroke-width:0.955221;stroke-dasharray:none;stroke-opacity:1"
     id="rect1-2"
     width="13.687567"
     height="13.591975"
     x="1.6227167"
     y="1.6705124"
     rx="2.8442214"
     ry="2.965905" />
  <path
     style="fill:{{colors.primary.default.hex}};fill-opacity:1;stroke:none;stroke-width:0.132433;stroke-dasharray:none;stroke-opacity:0.6"
     d="m 10.443116,4.430911 c -8e-6,0 -0.262221,0.033448 -0.4534125,0.069691 C 9.5401082,4.559585 9.1086764,4.6128712 8.6979142,4.6304459 H 7.5177151 6.6793381 c -0.051217,-0.0076 -0.088498,-0.016598 -0.2194465,-0.016598 -0.074258,2.12e-5 -0.1485057,0.00557 -0.2219357,0.016598 -0.2112279,0.031625 -0.4789743,0.059658 -0.8582886,0.3156875 -0.379295,0.2560458 -0.7363287,0.920565 -0.7363287,1.3842969 0.016473,0.3193613 0.093818,0.5993098 0.1526576,0.8060189 0.025527,0.17647 0.051206,0.3528683 0.076745,0.5264228 0.00303,0.020671 0.00646,0.041285 0.010368,0.061809 0.049354,0.2591841 0.096204,0.4867696 0.2372851,0.7881819 0.070538,0.1507079 0.1614955,0.3304396 0.3791556,0.5430175 0.2029999,0.1982585 0.596289,0.410921 1.0333489,0.4409672 -0.1413004,0.1184509 -0.271669,0.2460738 -0.3492891,0.3617341 -0.00421,0.00632 -0.00832,0.012671 -0.012439,0.019097 -0.2816197,0.4339393 -0.2933432,1.4017063 0.030697,1.8625983 0.1791944,0.254872 0.6200753,0.584628 0.9690495,0.681984 0.3489719,0.09735 0.5819606,0.08336 0.8097529,0.07134 l 0.00167,-4.24e-4 c 0.2779478,-0.01491 0.5161838,-0.03741 0.7462848,-0.06345 0.1018971,-0.003 0.1757294,3e-5 0.2016084,0.0026 0.00428,4.49e-4 0.00857,9.03e-4 0.012858,0.0011 0.1180091,0.01021 0.2304987,0.02192 0.415248,0.01078 0.1847486,-0.01112 0.4327413,-0.07527 0.5334739,-0.112005 0.016895,-0.0062 0.033519,-0.0127 0.050197,-0.01949 0.5127698,-0.208379 1.1076038,-1.012583 1.1076038,-1.627388 0,-0.367585 -0.147703,-0.9810717 -0.638844,-1.3739276 -0.0714,-0.057117 -0.144369,-0.090821 -0.216957,-0.1327465 -1.66e-4,-0.047804 -6.49e-4,-0.088672 -8.48e-4,-0.1339911 0.0871,0.013305 0.201002,0.063056 0.270056,0.063056 0.276926,0 0.66253,-0.024152 1.093913,-0.3364291 0.431384,-0.3122788 0.687793,-0.9497937 0.687793,-1.3602366 0,-0.2072779 -0.01113,-0.2909919 -0.03734,-0.4658572 0.01584,-0.1257835 0.03295,-0.2471152 0.05558,-0.3409923 l -0.003,0.013689 C 12.386066,6.1145396 12.101021,5.1717984 11.601747,4.8017814 11.266112,4.5579647 10.821892,4.4335667 10.443118,4.430921 Z m 0.0018,0.8495775 c 0.218242,5.241e-4 0.457341,0.069415 0.642991,0.2045129 0.26415,0.190142 0.404501,0.6469686 0.333939,0.9283953 l 0.0018,-0.00581 c -0.03687,0.1531953 -0.06611,0.3257624 -0.08629,0.5160522 6.49e-4,-4.242e-4 10e-4,0.022171 0.0082,0.060981 10e-4,0.00564 0.0021,0.011331 0.0029,0.017011 0.02704,0.1712192 0.0332,0.2827944 0.0332,0.4110994 0,0.2160086 -0.122961,0.5194227 -0.335186,0.6732737 -0.212223,0.1538492 -0.419066,0.1738146 -0.592796,0.1738146 -0.243232,0 -0.6209881,-0.10692 -0.8031158,-0.4281074 -0.049116,-0.086751 -0.077001,-0.1838007 -0.081723,-0.2833305 -0.00548,-0.1142976 0.00129,-0.2743147 0.00581,-0.4252039 -0.078966,0.00472 -0.1546512,0.00973 -0.2318914,0.014942 -9.476e-4,0.013455 -0.0023,0.026872 -0.00416,0.040241 -0.014881,0.1094985 -0.027095,0.3330274 -0.027793,0.6338643 0.014358,0.1474191 0.014747,0.2981755 0.018667,0.5724692 0.00437,0.3061954 0.00661,0.7244845 0.00661,1.2577727 v 0.1572229 c 0.1714676,0.0042 0.3573166,0.035443 0.532645,0.1758887 0.2410742,0.1931084 0.3194222,0.4972504 0.3194222,0.7118504 0,0.331357 -0.2881315,0.723386 -0.5757894,0.840454 -0.00713,0.0029 -0.014315,0.0058 -0.021574,0.0082 -0.064222,0.02346 -0.187784,0.05552 -0.2920421,0.06183 -0.1042586,0.0063 -0.1854639,-5.74e-4 -0.2895536,-0.0095 -0.0018,-1.49e-4 -0.00359,-2.5e-4 -0.0054,-4.48e-4 -0.076321,-0.0072 -0.1845817,-0.01012 -0.3177619,-0.0054 -0.2209201,0.02672 -0.466111,0.04831 -0.7558254,0.06389 h -4.129e-4 c -0.1851754,0.0099 -0.3435571,0.01271 -0.5343048,-0.04058 -0.1907815,-0.0533 -0.4033141,-0.214371 -0.4994925,-0.351366 -0.1646654,-0.234547 -0.1597851,-0.687382 -0.013277,-0.91346 0.00178,-0.0027 0.00357,-0.0053 0.00539,-0.008 0.09655,-0.144069 0.2907071,-0.308215 0.4865991,-0.3787429 0.076512,-0.027531 0.1528104,-0.019931 0.2269135,-0.032372 0.0011,-0.025089 6.737e-4,-0.055991 0.00207,-0.080053 -5e-7,-5.736e-4 -5e-7,-0.0012 0,-0.0018 0.015004,-0.2567318 0.016298,-0.6544736 -4.242e-4,-1.1727587 -1.488e-4,-5.739e-4 -2.496e-4,-0.0011 -4.243e-4,-0.00167 -0.016125,-0.5435814 0.00375,-1.0040527 0.018667,-1.4759742 -0.069477,-0.00115 -0.1153731,8.483e-4 -0.1937263,-0.00123 0.016523,0.1451787 0.052052,0.361234 0.057662,0.4704209 0.00135,0.027517 5.74e-4,0.055091 -0.00167,0.082551 L 7.4670737,7.955289 C 7.4517749,8.1732134 7.2774286,8.4479346 7.0891603,8.5551372 6.9008917,8.6623413 6.7485466,8.6692162 6.6170808,8.6692162 6.3980519,8.6692162 6.2000889,8.5555997 6.0927321,8.4506001 5.9853759,8.3455991 5.9326339,8.2480159 5.8894638,8.1556529 5.8031245,7.9709282 5.7595395,7.7899393 5.7173086,7.5678354 c -0.00172,-0.00881 -0.00323,-0.017666 -0.00457,-0.026553 -0.034206,-0.2327827 -0.068274,-0.4683698 -0.1024633,-0.7064607 -0.0011,0.00123 -0.0034,0.00207 -0.00334,0.00371 -0.0023,-0.010874 -0.00528,-0.022555 -0.010787,-0.035259 -0.00604,-0.013904 -0.011547,-0.028022 -0.016586,-0.042315 -0.045494,-0.1296972 -0.08666,-0.234398 -0.08666,-0.4293359 0,-0.237306 0.1685299,-0.550552 0.3617351,-0.6811545 0.1932124,-0.1306035 0.3535741,-0.1559871 0.5056802,-0.1787934 0.031507,-0.00472 0.063551,-0.00708 0.095411,-0.00704 0.082662,0 0.1180022,0.00657 0.1704977,0.013689 0.014374,0.00199 0.025511,0.00262 0.031112,0.00292 H 7.512314 8.7174036 c 0.4761441,-0.019888 0.9511678,-0.079778 1.4270254,-0.142706 0.146713,-0.030212 0.184683,-0.046057 0.300338,-0.058076 z m 0,0.637183 c -0.01435,1.745e-4 -0.02907,0.00115 -0.04397,0.00249 -0.06807,0.016192 -0.118628,0.031931 -0.152662,0.048121 -0.4878582,0.064767 -0.9928293,0.1294182 -1.5146358,0.151005 H 7.5081971 6.6233589 c -0.017015,0 -0.044922,-0.00332 -0.084626,-0.0087 -0.039702,-0.00539 -0.068027,-0.00789 -0.085042,-0.00789 -0.2155266,0.032382 -0.3235673,0.0949 -0.3235673,0.2298186 0,0.048571 0.016577,0.1214745 0.05061,0.2186166 0.039703,0.091744 0.06015,0.1563648 0.06015,0.1941416 0.034033,0.2374579 0.068019,0.4723254 0.1020483,0.7043865 0.073734,0.3885671 0.1643666,0.5832547 0.2721311,0.5832547 0.1361237,0 0.2071367,-0.040595 0.2128091,-0.1215464 l 0.016986,-0.218627 c -0.01134,-0.221268 -0.057074,-0.590759 -0.1364791,-1.1088478 0.3232938,-0.021586 0.4966838,-0.032772 0.5193704,-0.032772 0.4821048,0.016192 0.832217,0.018672 1.0080439,0.00789 l 0.025718,0.024888 c -0.039703,0.6098334 -0.048405,1.297866 -0.025718,2.064207 0.017013,0.5288824 0.017013,0.9385533 0,1.2299803 -0.00567,0.1025391 -0.00871,0.2214224 -0.00871,0.3563414 0.00566,0.04318 0.00871,0.08873 0.00871,0.137309 0,0.09174 -0.1091633,0.13814 -0.2849904,0.13814 -0.3346362,0 -0.4565578,0.05965 -0.5359634,0.178378 -0.045373,0.07018 -0.045373,0.137262 0,0.202024 0.068063,0.09715 0.1699497,0.137736 0.476228,0.121546 0.300606,-0.01617 0.5563384,-0.03772 0.7661957,-0.06473 0.1531388,-0.0054 0.286048,-0.0028 0.3994837,0.0079 0.1871701,0.01618 0.2328276,0.01081 0.3065615,-0.01618 0.119108,-0.04856 0.1783783,-0.131832 0.1783783,-0.25056 0,-0.199681 -0.1076257,-0.286669 -0.3231548,-0.259685 H 8.734015 C 8.705655,10.390851 8.691289,10.326223 8.691289,10.234478 V 9.6432759 c 0,-1.0631638 -0.0087,-1.6650361 -0.02572,-1.8053523 0,-0.3292024 0.011331,-0.5769105 0.034016,-0.7442104 L 8.6655657,6.8020884 c -0.011336,-0.1025379 -0.011336,-0.1886973 0,-0.2588553 0.4650888,-0.043175 1.0036694,-0.075899 1.5311493,-0.097485 0.01134,0.010794 0.02004,0.016601 0.02572,0.016601 0,0.080951 -0.0062,0.2429147 -0.01741,0.4857688 -0.01134,0.2050768 -0.01399,0.4520812 -0.0082,0.5708101 0.03969,0.070158 0.122044,0.1045379 0.246824,0.1045379 0.192844,0 0.289138,-0.069589 0.289138,-0.2099052 0,-0.043175 -0.0088,-0.2040184 -0.02573,-0.311954 -0.01702,-0.091744 -0.02267,-0.1675491 -0.017,-0.2269136 0.02268,-0.2212672 0.05666,-0.4263105 0.102049,-0.6151971 0.02834,-0.1133324 3.7e-5,-0.1994916 -0.08503,-0.2588556 -0.07445,-0.056665 -0.161669,-0.084185 -0.262174,-0.082968 z"
     id="path4" />
</svg>
