<?xml version="1.0" encoding="UTF-8" standalone="no"?>
<svg
   width="64"
   height="64"
   version="1.1"
   viewBox="0 0 16.933 16.933"
   id="svg7"
   sodipodi:docname="accessories-text-editor.svg"
   inkscape:version="1.4.3 (0d15f75042, 2025-12-25)"
   xmlns:inkscape="http://www.inkscape.org/namespaces/inkscape"
   xmlns:sodipodi="http://sodipodi.sourceforge.net/DTD/sodipodi-0.dtd"
   xmlns="http://www.w3.org/2000/svg"
   xmlns:svg="http://www.w3.org/2000/svg"
   xmlns:rdf="http://www.w3.org/1999/02/22-rdf-syntax-ns#"
   xmlns:cc="http://creativecommons.org/ns#"
   xmlns:dc="http://purl.org/dc/elements/1.1/">
  <sodipodi:namedview
     id="namedview7"
     pagecolor="#9c4444"
     bordercolor="#000000"
     borderopacity="0.25"
     inkscape:showpageshadow="2"
     inkscape:pageopacity="0.0"
     inkscape:pagecheckerboard="0"
     inkscape:deskcolor="#d1d1d1"
     inkscape:zoom="4.3531261"
     inkscape:cx="36.984915"
     inkscape:cy="29.863596"
     inkscape:window-width="1226"
     inkscape:window-height="669"
     inkscape:window-x="0"
     inkscape:window-y="133"
     inkscape:window-maximized="0"
     inkscape:current-layer="svg7"
     showgrid="false" />
  <defs
     id="defs2">
    <filter
       style="color-interpolation-filters:sRGB;"
       inkscape:label="Blur"
       id="filter5421"
       x="-0.12256455"
       y="-0.12342654"
       width="1.2451291"
       height="1.2468531">
      <feGaussianBlur
         stdDeviation="0.5 0.5"
         result="blur"
         id="feGaussianBlur5419" />
    </filter>
  </defs>
  <metadata
     id="metadata2">
    <rdf:RDF>
      <cc:Work
         rdf:about="">
        <dc:format>image/svg+xml</dc:format>
        <dc:type
           rdf:resource="http://purl.org/dc/dcmitype/StillImage" />
      </cc:Work>
    </rdf:RDF>
  </metadata>
  <rect
     style="opacity:0.3;fill:none;fill-opacity:0.996424;stroke:#000000;stroke-width:0.955221;stroke-dasharray:none;stroke-opacity:1;filter:url(#filter5421)"
     id="rect1-2-7"
     width="13.687567"
     height="13.591975"
     x="1.6227165"
     y="1.6705122"
     rx="2.8442214"
     ry="2.965905" />
  <rect
     style="fill:none;fill-opacity:1;stroke:{{colors.primary.default.hex}};stroke-width:0.955221;stroke-dasharray:none;stroke-opacity:1"
     id="rect1-2"
     width="13.687567"
     height="13.591975"
     x="1.6227167"
     y="1.6705124"
     rx="2.8442214"
     ry="2.965905" />
  <path
     id="path5"
     style="fill:{{colors.primary.default.hex}};fill-opacity:1;stroke:none;stroke-width:0.13724;stroke-dasharray:none;stroke-opacity:0.6"
     d="M 8.1616695,4.4259918 6.6243393,5.2792726 C 5.4916422,5.9078885 5.0491292,6.1708838 4.942849,6.2789928 4.6909618,6.5352135 4.6898143,6.5447985 4.7009671,8.5348456 l 0.00969,1.7398964 0.1028492,0.185472 c 0.056437,0.10201 0.1611466,0.22814 0.2327648,0.280059 0.1320084,0.09569 2.9494805,1.674077 3.1037202,1.738753 0.046114,0.01933 0.2072402,0.0315 0.3581214,0.02707 l 0.2743608,-0.0081 1.4700935,-0.817098 c 0.808531,-0.449394 1.537403,-0.86512 1.619953,-0.923654 0.08856,-0.0628 0.193885,-0.183293 0.256696,-0.294302 l 0.106267,-0.188276 V 8.4619096 6.6493639 L 12.134625,6.4667418 C 12.079051,6.3664231 11.993817,6.2509822 11.945163,6.2100457 11.896508,6.1691089 11.165416,5.7508301 10.320655,5.2806957 L 8.7847522,4.4259906 H 8.473069 Z M 6.2670722,5.9821253 h 2.0726612 2.0726606 l 0.114531,0.1145304 c 0.06286,0.062851 0.124452,0.1552708 0.137038,0.2054143 0.05836,0.232501 0.03828,0.2601972 -1.4783565,2.0319201 l -1.4564179,1.7014349 1.474937,0.0088 1.4752204,0.0088 v 0.444446 0.444161 H 8.606686 6.5337405 L 6.4194945,10.827453 C 6.3566432,10.764597 6.2950427,10.672182 6.2824571,10.622038 6.2236873,10.387882 6.2426558,10.361764 7.7608128,8.5889782 L 9.216946,6.8886841 7.7420096,6.8798491 6.2670722,6.8707291 V 6.4265722 Z" />
</svg>
