<?xml version="1.0" encoding="UTF-8" standalone="no"?>
<svg
   width="64"
   height="64"
   version="1.1"
   viewBox="0 0 16.933 16.933"
   id="svg7"
   sodipodi:docname="abcd.svg"
   inkscape:version="1.4.3 (0d15f75042, 2025-12-25)"
   xmlns:inkscape="http://www.inkscape.org/namespaces/inkscape"
   xmlns:sodipodi="http://sodipodi.sourceforge.net/DTD/sodipodi-0.dtd"
   xmlns="http://www.w3.org/2000/svg"
   xmlns:svg="http://www.w3.org/2000/svg"
   xmlns:rdf="http://www.w3.org/1999/02/22-rdf-syntax-ns#"
   xmlns:cc="http://creativecommons.org/ns#"
   xmlns:dc="http://purl.org/dc/elements/1.1/">
  <sodipodi:namedview
     id="namedview7"
     pagecolor="#9c4444"
     bordercolor="#000000"
     borderopacity="0.25"
     inkscape:showpageshadow="2"
     inkscape:pageopacity="0.0"
     inkscape:pagecheckerboard="0"
     inkscape:deskcolor="#d1d1d1"
     inkscape:zoom="4.3531261"
     inkscape:cx="32.620236"
     inkscape:cy="33.768836"
     inkscape:window-width="1226"
     inkscape:window-height="669"
     inkscape:window-x="100"
     inkscape:window-y="206"
     inkscape:window-maximized="0"
     inkscape:current-layer="svg7"
     showgrid="false" />
  <defs
     id="defs2">
    <filter
       style="color-interpolation-filters:sRGB;"
       inkscape:label="Blur"
       id="filter5421"
       x="-0.12256455"
       y="-0.12342654"
       width="1.2451291"
       height="1.2468531">
      <feGaussianBlur
         stdDeviation="0.5 0.5"
         result="blur"
         id="feGaussianBlur5419" />
    </filter>
  </defs>
  <metadata
     id="metadata2">
    <rdf:RDF>
      <cc:Work
         rdf:about="">
        <dc:format>image/svg+xml</dc:format>
        <dc:type
           rdf:resource="http://purl.org/dc/dcmitype/StillImage" />
      </cc:Work>
    </rdf:RDF>
  </metadata>
  <rect
     style="opacity:0.3;fill:none;fill-opacity:0.996424;stroke:#000000;stroke-width:0.955221;stroke-dasharray:none;stroke-opacity:1;filter:url(#filter5421)"
     id="rect1-2-7"
     width="13.687567"
     height="13.591975"
     x="1.6227165"
     y="1.6705122"
     rx="2.8442214"
     ry="2.965905" />
  <rect
     style="fill:none;fill-opacity:1;stroke:{{colors.primary.default.hex}};stroke-width:0.955221;stroke-dasharray:none;stroke-opacity:1"
     id="rect1-2"
     width="13.687567"
     height="13.591975"
     x="1.6227167"
     y="1.6705124"
     rx="2.8442214"
     ry="2.965905" />
  <path
     style="fill:{{colors.primary.default.hex}};fill-opacity:1;stroke:none;stroke-width:0.0164627;stroke-opacity:1"
     d="M 8.3145671,11.364812 C 7.3027877,11.281041 6.3698711,10.848162 5.6571278,10.131746 5.5526873,10.026766 5.4195905,9.8820837 5.3613567,9.8102293 5.0999292,9.4876544 4.8209201,8.9970421 4.6779153,8.6084611 4.5995258,8.3954594 4.4999671,8.000197 4.4620186,7.7513236 c -0.042525,-0.2788929 -0.042525,-0.9228907 0,-1.2017837 C 4.5120741,6.2212637 4.6786905,5.621389 4.7358984,5.56348 c 0.00857,-0.00867 0.050564,6.987e-4 0.1018905,0.022867 0.048023,0.020691 0.1180807,0.050837 0.1556834,0.066987 L 5.0618403,5.6827 4.9886533,5.9021022 c -0.2928033,0.8777722 -0.27098,1.8331804 0.060909,2.6667074 0.4604634,1.1564337 1.4467912,2.0253754 2.6422681,2.3278004 0.8995727,0.227569 1.8216787,0.13283 2.6495286,-0.272226 0.749752,-0.366841 1.350244,-0.953318 1.744934,-1.7042058 0.05233,-0.0996 0.10343,-0.1786522 0.113504,-0.1756732 0.01789,0.00528 0.293821,0.1208299 0.302637,0.1267228 0.0089,0.00596 -0.120153,0.2666326 -0.199503,0.4029011 -0.656889,1.1280871 -1.819129,1.9005801 -3.1057368,2.0642461 -0.2451035,0.03116 -0.6711928,0.04395 -0.8826292,0.02644 z M 8.723566,10.714841 c -0.1692332,-0.04759 -0.2480748,-0.112866 -0.2618055,-0.216727 -0.00757,-0.0572 0.014201,-0.5072033 0.085082,-1.7590232 0.013328,-0.2354184 0.028728,-0.4891506 0.034215,-0.5638505 l 0.00997,-0.135818 0.084951,-2.495e-4 c 0.046725,-1.491e-4 0.1278282,-0.010347 0.1802338,-0.022679 l 0.09528,-0.022421 0.026339,0.051486 c 0.014487,0.028317 0.2669892,0.5100504 0.5611197,1.070518 0.2941289,0.5604665 0.541739,1.0442272 0.550243,1.0750282 0.0531,0.192365 -0.1873085,0.385124 -0.6244621,0.500666 -0.1720037,0.04546 -0.6127846,0.05918 -0.7411681,0.02308 z M 7.460373,10.583837 C 7.093482,10.488187 6.7378707,10.293745 6.5121995,10.065395 6.3692865,9.9207874 6.3213202,9.8254553 6.3403728,9.7238954 6.3533535,9.6547275 6.3097569,9.7012161 7.4448697,8.545965 7.8075787,8.1768216 8.1096117,7.8747942 8.1160552,7.8747942 c 0.00644,0 0.039759,0.017703 0.074038,0.039344 0.034274,0.021636 0.1008062,0.05301 0.1478374,0.069716 0.072353,0.025697 0.085509,0.036744 0.085476,0.071781 -4.9e-5,0.060576 -0.170637,1.3958128 -0.2467319,1.9312988 -0.044677,0.314389 -0.074689,0.476084 -0.094732,0.510404 -0.016131,0.02762 -0.061892,0.06745 -0.1016805,0.08849 -0.1001514,0.05296 -0.3122234,0.05215 -0.5198912,-0.002 z m 2.938485,-0.556532 C 10.324182,9.9764441 9.9948942,9.4559059 9.3316779,8.3403254 L 9.0848238,7.9250969 9.1451261,7.8880132 c 0.033163,-0.020396 0.089935,-0.064146 0.1261532,-0.097221 l 0.065851,-0.060136 1.0918457,0.4736516 c 0.600515,0.2605086 1.109617,0.4903483 1.131341,0.5107547 0.118219,0.1110654 0.0778,0.3439489 -0.110006,0.6337382 -0.318663,0.4917088 -0.835782,0.8254063 -1.051453,0.6785043 z M 5.9284502,9.3651188 C 5.7433355,9.2725597 5.5592551,9.0612255 5.426177,8.7884794 5.3267007,8.5846026 5.288992,8.4324727 5.301,8.2834833 5.313152,8.1327129 5.3626209,8.0481206 5.4714022,7.9920943 5.5360028,7.9588234 6.259008,7.7950126 7.007144,7.6441429 7.4103471,7.5628328 7.7567119,7.492475 7.7768436,7.4877931 c 0.029657,-0.0069 0.042763,0.00354 0.069037,0.055061 0.017836,0.034965 0.059481,0.09901 0.092541,0.14232 l 0.060108,0.078747 -0.038599,0.036557 C 7.324296,8.4024888 6.3178819,9.3076502 6.2092013,9.3750724 6.1389412,9.4186592 6.0276379,9.4147135 5.9284502,9.3651188 Z M 8.4794045,7.7030346 C 8.3807372,7.6704698 8.2898981,7.6083531 8.2127189,7.5206731 8.14121,7.4394338 8.072649,7.2850425 8.0810218,7.2241004 8.0856618,7.1903454 8.1137278,7.2002584 8.5428612,7.3872483 8.7941579,7.4967471 8.9975939,7.5938255 8.9949402,7.602979 8.9922502,7.612129 8.9471082,7.641258 8.8945411,7.667707 8.7816827,7.724487 8.5930406,7.74054 8.4794045,7.7030346 Z M 5.2350792,7.6301071 C 4.9993261,7.4805579 4.9863247,6.8146311 5.2098773,6.3390834 5.2794891,6.1909989 5.3822322,6.0803496 5.450123,6.0803496 c 0.021604,0 0.549415,0.2173443 1.1729267,0.4829876 L 7.756707,7.0463236 V 7.193039 7.3397535 L 7.394524,7.4008597 C 6.6859598,7.520406 5.8134021,7.6348311 5.4683777,7.65345 5.3053086,7.66225 5.2820919,7.65992 5.2350823,7.630107 Z"
     id="path1-6" />
</svg>
