<?xml version="1.0" encoding="UTF-8" standalone="no"?>
<svg
   width="64"
   height="64"
   version="1.1"
   viewBox="0 0 16.933 16.933"
   id="svg7"
   sodipodi:docname="accessories-text-editor.svg"
   inkscape:version="1.4.3 (0d15f75042, 2025-12-25)"
   xmlns:inkscape="http://www.inkscape.org/namespaces/inkscape"
   xmlns:sodipodi="http://sodipodi.sourceforge.net/DTD/sodipodi-0.dtd"
   xmlns="http://www.w3.org/2000/svg"
   xmlns:svg="http://www.w3.org/2000/svg"
   xmlns:rdf="http://www.w3.org/1999/02/22-rdf-syntax-ns#"
   xmlns:cc="http://creativecommons.org/ns#"
   xmlns:dc="http://purl.org/dc/elements/1.1/">
  <sodipodi:namedview
     id="namedview7"
     pagecolor="#9c4444"
     bordercolor="#000000"
     borderopacity="0.25"
     inkscape:showpageshadow="2"
     inkscape:pageopacity="0.0"
     inkscape:pagecheckerboard="0"
     inkscape:deskcolor="#d1d1d1"
     inkscape:zoom="4.3531261"
     inkscape:cx="39.282115"
     inkscape:cy="26.417797"
     inkscape:window-width="1226"
     inkscape:window-height="669"
     inkscape:window-x="474"
     inkscape:window-y="225"
     inkscape:window-maximized="0"
     inkscape:current-layer="svg7"
     showgrid="false" />
  <defs
     id="defs2">
    <filter
       style="color-interpolation-filters:sRGB;"
       inkscape:label="Blur"
       id="filter5421"
       x="-0.12256455"
       y="-0.12342654"
       width="1.2451291"
       height="1.2468531">
      <feGaussianBlur
         stdDeviation="0.5 0.5"
         result="blur"
         id="feGaussianBlur5419" />
    </filter>
  </defs>
  <metadata
     id="metadata2">
    <rdf:RDF>
      <cc:Work
         rdf:about="">
        <dc:format>image/svg+xml</dc:format>
        <dc:type
           rdf:resource="http://purl.org/dc/dcmitype/StillImage" />
      </cc:Work>
    </rdf:RDF>
  </metadata>
  <rect
     style="opacity:0.3;fill:none;fill-opacity:0.996424;stroke:#000000;stroke-width:0.955221;stroke-dasharray:none;stroke-opacity:1;filter:url(#filter5421)"
     id="rect1-2-7"
     width="13.687567"
     height="13.591975"
     x="1.6227165"
     y="1.6705122"
     rx="2.8442214"
     ry="2.965905" />
  <rect
     style="fill:none;fill-opacity:1;stroke:{{colors.primary.default.hex}};stroke-width:0.955221;stroke-dasharray:none;stroke-opacity:1"
     id="rect1-2"
     width="13.687567"
     height="13.591975"
     x="1.6227167"
     y="1.6705124"
     rx="2.8442214"
     ry="2.965905" />
  <path
     style="fill:{{colors.primary.default.hex}};fill-opacity:1;stroke:none;stroke-width:0.137896;stroke-dasharray:none;stroke-opacity:0.6"
     d="m 5.2619851,12.513607 c -0.536995,-0.150594 -0.8820837,-0.592564 -0.8820837,-1.129721 0,-0.153128 0.027959,-0.292012 0.1527002,-0.758538 L 4.6853021,10.054261 4.5947044,9.7851904 C 4.4225602,9.2739249 4.3935681,9.0808957 4.3941187,8.4496862 4.3946439,7.8251729 4.420465,7.6518977 4.5870563,7.1540512 4.9899388,5.950053 5.9555765,4.9834702 7.1564173,4.5821748 7.6586528,4.4143385 7.830402,4.3886889 8.4556613,4.3881439 9.0716397,4.3876186 9.2611024,4.4144601 9.7371381,4.5697821 11.550058,5.1613013 12.736021,6.9875903 12.529886,8.8703878 12.415052,9.9192497 11.916381,10.8796 11.142668,11.541924 10.002432,12.518 8.4885272,12.801948 7.0787861,12.304146 L 6.8698894,12.230376 6.3123001,12.38118 c -0.6163262,0.16669 -0.8314245,0.19381 -1.050315,0.132423 z m 0.3985634,-0.432236 c -0.00806,-0.03012 -0.014825,-0.12866 -0.015001,-0.218996 -3.152e-4,-0.159741 -0.00207,-0.164248 -0.062372,-0.164248 -0.121115,0 -0.3016324,-0.140092 -0.338783,-0.262917 -0.00932,-0.03086 -0.029725,-0.05103 -0.045317,-0.04486 -0.015594,0.0062 -0.107737,0.03667 -0.2047647,0.06775 -0.097028,0.03109 -0.1764134,0.06532 -0.1764134,0.07608 0,0.01075 0.02775,0.07432 0.061667,0.141247 0.134315,0.26506 0.4213136,0.449299 0.7137415,0.458189 0.073526,0.0022 0.080417,-0.0031 0.067247,-0.05225 z m 3.366936,0.0019 c 0.1003735,-0.01463 0.1920877,-0.03527 0.2038092,-0.04588 0.020679,-0.01869 -0.048168,-0.359128 -0.07917,-0.391511 -0.00832,-0.0087 -0.1136887,-7.1e-4 -0.2341367,0.01774 -0.1204477,0.01844 -0.2862607,0.03378 -0.368473,0.03408 -0.1772209,6.31e-4 -0.1790167,0.0033 -0.1790167,0.260906 v 0.183399 l 0.2372458,-0.01605 c 0.1304847,-0.0088 0.3193689,-0.02802 0.4197421,-0.04266 z m -1.0590567,-0.05047 c 0.02536,-0.110914 0.056011,-0.347211 0.046983,-0.362185 -0.00512,-0.0085 -0.05848,-0.02282 -0.118575,-0.03182 -0.060096,-0.009 -0.2215738,-0.05369 -0.3588407,-0.09929 -0.1372661,-0.0456 -0.2568575,-0.07508 -0.2657583,-0.0655 -0.0089,0.0096 -0.049125,0.09558 -0.089388,0.191124 l -0.073206,0.173724 0.08902,0.03756 c 0.1677032,0.07077 0.6247516,0.202181 0.7272941,0.209122 0.016474,0.0012 0.035585,-0.0226 0.04247,-0.05273 z M 6.7848084,11.845704 c 0.06265,-0.01712 0.1012044,-0.04056 0.094992,-0.05776 -0.00575,-0.01592 -0.030424,-0.105577 -0.054829,-0.199261 -0.024401,-0.09368 -0.046791,-0.173694 -0.049746,-0.177805 -0.00446,-0.0063 -0.6889766,0.170546 -0.7817731,0.201868 -0.025355,0.0085 0.00803,0.177997 0.077581,0.393792 0.00857,0.02661 0.1195292,0.0015 0.7137756,-0.160838 z m 3.179492,-0.04194 C 10.071367,11.756822 10.22222,11.68004 10.299529,11.633143 l 0.140567,-0.08527 -0.05397,-0.08908 c -0.131478,-0.217065 -0.167843,-0.271588 -0.181134,-0.271588 -0.0079,0 -0.04325,0.02052 -0.07878,0.04562 -0.08829,0.06235 -0.3851342,0.208806 -0.4961587,0.244796 -0.05,0.01622 -0.09721,0.03964 -0.1049103,0.05212 -0.0077,0.01245 0.016718,0.105251 0.054259,0.206205 0.079199,0.212967 0.061129,0.209783 0.3848907,0.06783 z m -3.3982,-0.680164 0.4220639,-0.112598 0.2105914,0.09882 c 0.4322335,0.202826 0.7846921,0.280695 1.2690725,0.280372 0.3485634,-2.62e-4 0.5110995,-0.02336 0.8457434,-0.120329 C 10.13265,11.032462 10.860111,10.375441 11.182614,9.581759 11.689652,8.3339286 11.291465,6.8944424 10.217664,6.093368 9.4943697,5.5537782 8.5211088,5.3785087 7.6432341,5.6297516 7.3598847,5.7108453 6.9409439,5.9192575 6.7008476,6.0985642 5.5782408,6.936942 5.2017911,8.4841641 5.8146918,9.7406954 L 5.907484,9.9309326 5.7155156,10.648216 c -0.1055829,0.394503 -0.1919684,0.725611 -0.1919684,0.735789 0,0.01021 0.1396105,-0.01891 0.3102447,-0.06468 0.1706341,-0.04574 0.5001725,-0.133848 0.7323083,-0.195777 z m 4.5198826,-0.111169 c 0.135135,-0.138902 0.257657,-0.274892 0.272272,-0.302201 0.02375,-0.04439 0.0084,-0.06323 -0.14461,-0.177762 l -0.171185,-0.128105 -0.03801,0.05684 c -0.02089,0.03127 -0.139491,0.159418 -0.26353,0.284794 l -0.225527,0.227956 0.124212,0.16598 c 0.09581,0.128017 0.132955,0.161301 0.162443,0.145514 0.02102,-0.01127 0.148793,-0.134115 0.283929,-0.273016 z m -5.7362761,-0.2572 c 0.055862,-0.210785 0.1014047,-0.39493 0.1012056,-0.40921 -2.187e-4,-0.01429 -0.07975,-0.04543 -0.176777,-0.06922 -0.097027,-0.0238 -0.1873787,-0.04771 -0.2007817,-0.05313 -0.023632,-0.0096 -0.2492049,0.783169 -0.2286848,0.803688 0.00841,0.0084 0.3409195,0.101476 0.3890936,0.108897 0.00791,0.0012 0.060082,-0.170245 0.1159446,-0.381028 z m 6.3848981,-0.638916 c 0.08873,-0.1771221 0.23716,-0.54273 0.23716,-0.5841649 0,-0.019634 -0.18834,-0.082332 -0.336054,-0.1118745 -0.06715,-0.013427 -0.07224,-0.0078 -0.126524,0.140365 -0.0311,0.084898 -0.09934,0.2405948 -0.151626,0.3459959 -0.06167,0.1243385 -0.08674,0.1999605 -0.07137,0.2153365 0.05389,0.05389 0.286762,0.185588 0.320579,0.181295 0.02008,-0.0027 0.07761,-0.08668 0.127835,-0.186953 z M 5.3600976,9.9014542 c 0.090002,-0.037969 0.1698803,-0.075272 0.177506,-0.082905 0.00763,-0.0076 -0.00384,-0.048076 -0.025451,-0.089895 -0.021625,-0.041816 -0.081683,-0.2024584 -0.1334638,-0.3569828 -0.051782,-0.154525 -0.09886,-0.285665 -0.1046172,-0.2914223 -0.013795,-0.013795 -0.365458,0.064003 -0.3901284,0.086307 -0.039798,0.035981 0.2332393,0.8039342 0.2858301,0.8039342 0.014678,0 0.1003226,-0.031065 0.190326,-0.069032 z M 12.079797,9.0773863 c 0.02648,-0.068981 0.07003,-0.7031208 0.05297,-0.7711107 -0.01468,-0.058461 -0.02612,-0.063419 -0.146243,-0.063419 -0.07169,0 -0.164544,0.00685 -0.206367,0.01521 l -0.07603,0.015208 V 8.478485 c 0,0.1128658 -0.01192,0.2820684 -0.02649,0.3760064 -0.01457,0.093938 -0.01972,0.1775681 -0.01146,0.1858442 0.0082,0.00827 0.09412,0.028147 0.19075,0.044157 0.09664,0.016011 0.18274,0.030285 0.191345,0.03173 0.0086,0.00147 0.02281,-0.016036 0.03155,-0.038833 z M 5.1714898,8.7169738 c 0.045864,-0.00932 0.049641,-0.029355 0.052285,-0.2772651 0.00155,-0.146968 0.010257,-0.3210887 0.019316,-0.3869366 L 5.2595597,7.9330492 5.0621269,7.9023363 C 4.9535383,7.8854447 4.858248,7.8780691 4.8503711,7.8859463 c -0.033288,0.033288 -0.054755,0.2440944 -0.055746,0.547428 l -0.00105,0.324348 0.1642473,-0.015347 c 0.090336,-0.00844 0.1864928,-0.01987 0.2136821,-0.025404 z M 11.906782,7.8644557 c 0.09461,-0.011347 0.14671,-0.029687 0.156449,-0.05507 0.035,-0.09118 -0.204848,-0.8251849 -0.265763,-0.8133551 -0.01791,0.00347 -0.106747,0.041323 -0.197454,0.084109 -0.124929,0.058926 -0.161026,0.086898 -0.148861,0.1153467 0.03628,0.084846 0.179223,0.5442523 0.194234,0.6242659 0.01357,0.072301 0.0245,0.084213 0.06786,0.073951 0.02842,-0.00675 0.11552,-0.019891 0.193537,-0.029249 z M 5.4021442,7.3912056 C 5.4332127,7.3042158 5.4882351,7.1728177 5.524416,7.0992105 5.6401774,6.8637048 5.6419325,6.8735412 5.4641012,6.7612294 5.3770047,6.7062236 5.2946639,6.6612188 5.2811209,6.6612188 c -0.050589,0 -0.3415632,0.6602128 -0.3415632,0.7749999 0,0.03156 0.045833,0.053622 0.1885802,0.090772 0.1037185,0.026994 0.1950911,0.043074 0.203049,0.035729 0.00795,-0.00735 0.03989,-0.084525 0.070957,-0.1715141 z M 11.466392,6.7220505 c 0.09008,-0.053532 0.16399,-0.1046263 0.164245,-0.1135424 0.0015,-0.056001 -0.451831,-0.6527698 -0.511615,-0.6733314 -0.02146,-0.00739 -0.293947,0.2229708 -0.309404,0.2615727 -0.0034,0.00869 0.04924,0.08118 0.11717,0.1610635 0.06793,0.079884 0.173249,0.2196709 0.234047,0.310639 0.0608,0.090968 0.117571,0.162142 0.126159,0.1581635 0.0086,-0.00398 0.08932,-0.051033 0.179398,-0.1045649 z M 6.1597713,6.1867272 6.3712524,5.9677313 6.2248492,5.8124715 6.0784457,5.6572119 5.8724058,5.8611376 C 5.63237,6.0987091 5.4832774,6.290061 5.5142088,6.3208619 c 0.01183,0.011775 0.087204,0.071142 0.1675022,0.1319199 l 0.1459974,0.1105068 0.060291,-0.078782 C 5.921158,6.4411756 6.0434562,6.3071753 6.1597713,6.1867272 Z M 10.682659,5.7898137 c 0.07248,-0.087047 0.118489,-0.1624329 0.10624,-0.1740093 -0.115223,-0.1088916 -0.705015,-0.4827093 -0.72567,-0.4599399 -0.01227,0.013519 -0.1840936,0.3590976 -0.1840936,0.3702428 0,0.00535 0.095812,0.065744 0.2129156,0.1341809 0.117101,0.068436 0.262184,0.1625791 0.322409,0.2092052 0.06022,0.046625 0.11644,0.082327 0.124922,0.079337 0.0084,-0.003 0.07296,-0.074547 0.143277,-0.1590167 z M 6.7944685,5.6807819 C 6.86499,5.636716 7.0157627,5.5582677 7.1295183,5.506452 7.2432747,5.454637 7.3393565,5.4101209 7.3430341,5.4075281 7.3467114,5.4049279 7.3177346,5.3163994 7.278639,5.2107808 7.2220159,5.0578064 7.1983843,5.0200623 7.1624553,5.0252061 7.1048089,5.0334642 6.5508126,5.3095848 6.4793554,5.365678 l -0.054008,0.042397 0.1026742,0.176044 c 0.056469,0.096824 0.1106729,0.1762099 0.1204504,0.1764131 0.00978,2.19e-4 0.075477,-0.035684 0.1459965,-0.07975 z M 9.6149778,5.2004728 c 0.038222,-0.099512 0.069495,-0.1871233 0.069495,-0.1946901 0,-0.034286 -0.3838206,-0.1367731 -0.6752378,-0.1802992 L 8.808489,4.7954987 8.80827,4.8827904 C 8.8081536,4.9308004 8.80124,5.0268027 8.792915,5.0961288 L 8.777773,5.222176 8.87221,5.237195 c 0.176457,0.028062 0.556605,0.1154161 0.59326,0.1363243 0.060577,0.034555 0.077118,0.01541 0.1495022,-0.1730472 z m -1.777043,0.07256 c 0.072088,-0.01405 0.2440704,-0.034891 0.3821833,-0.046312 0.1381132,-0.011426 0.2538324,-0.024564 0.2571538,-0.029206 0.00333,-0.00465 0.00134,-0.098771 -0.00427,-0.2091829 L 8.4626707,4.7875845 8.3131661,4.7874448 c -0.1557594,-1.453e-4 -0.6481948,0.067311 -0.6928528,0.094912 -0.01734,0.010716 -0.00937,0.080799 0.024606,0.216041 0.02765,0.1100981 0.052897,0.2001782 0.056108,0.2001782 0.00321,0 0.064816,-0.011494 0.1369036,-0.025544 z"
     id="path6" />
</svg>
