<?xml version="1.0" encoding="UTF-8" standalone="no"?>
<svg
   width="64"
   height="64"
   version="1.1"
   viewBox="0 0 16.933 16.933"
   id="svg7"
   sodipodi:docname="accessories-text-editor.svg"
   inkscape:version="1.4.3 (0d15f75042, 2025-12-25)"
   xmlns:inkscape="http://www.inkscape.org/namespaces/inkscape"
   xmlns:sodipodi="http://sodipodi.sourceforge.net/DTD/sodipodi-0.dtd"
   xmlns="http://www.w3.org/2000/svg"
   xmlns:svg="http://www.w3.org/2000/svg"
   xmlns:rdf="http://www.w3.org/1999/02/22-rdf-syntax-ns#"
   xmlns:cc="http://creativecommons.org/ns#"
   xmlns:dc="http://purl.org/dc/elements/1.1/">
  <sodipodi:namedview
     id="namedview7"
     pagecolor="#9c4444"
     bordercolor="#000000"
     borderopacity="0.25"
     inkscape:showpageshadow="2"
     inkscape:pageopacity="0.0"
     inkscape:pagecheckerboard="0"
     inkscape:deskcolor="#d1d1d1"
     inkscape:zoom="4.3531261"
     inkscape:cx="43.417074"
     inkscape:cy="20.674797"
     inkscape:window-width="1226"
     inkscape:window-height="669"
     inkscape:window-x="474"
     inkscape:window-y="225"
     inkscape:window-maximized="0"
     inkscape:current-layer="svg7"
     showgrid="false" />
  <defs
     id="defs2">
    <filter
       style="color-interpolation-filters:sRGB;"
       inkscape:label="Blur"
       id="filter5421"
       x="-0.12256455"
       y="-0.12342654"
       width="1.2451291"
       height="1.2468531">
      <feGaussianBlur
         stdDeviation="0.5 0.5"
         result="blur"
         id="feGaussianBlur5419" />
    </filter>
  </defs>
  <metadata
     id="metadata2">
    <rdf:RDF>
      <cc:Work
         rdf:about="">
        <dc:format>image/svg+xml</dc:format>
        <dc:type
           rdf:resource="http://purl.org/dc/dcmitype/StillImage" />
      </cc:Work>
    </rdf:RDF>
  </metadata>
  <rect
     style="opacity:0.3;fill:none;fill-opacity:0.996424;stroke:#000000;stroke-width:0.955221;stroke-dasharray:none;stroke-opacity:1;filter:url(#filter5421)"
     id="rect1-2-7"
     width="13.687567"
     height="13.591975"
     x="1.6227165"
     y="1.6705122"
     rx="2.8442214"
     ry="2.965905" />
  <rect
     style="fill:none;fill-opacity:1;stroke:{{colors.primary.default.hex}};stroke-width:0.955221;stroke-dasharray:none;stroke-opacity:1"
     id="rect1-2"
     width="13.687567"
     height="13.591975"
     x="1.6227167"
     y="1.6705124"
     rx="2.8442214"
     ry="2.965905" />
  <path
     id="path6-5"
     style="fill:{{colors.primary.default.hex}};fill-opacity:1;stroke-width:0.0114768"
     d="m 8.6105467,4.4063756 c -0.2253368,-0.0034 -0.5200565,0.0068 -0.6575671,0.025848 C 7.4834573,4.4972412 7.0861682,4.618469 6.6733504,4.8227879 6.2369873,5.0387604 5.9028313,5.2817517 5.5593202,5.6331726 4.9012546,6.3063904 4.5024162,7.1727743 4.4185895,8.1106253 c -0.015213,0.1701984 -0.015279,0.542864 0,0.7118205 0.07255,0.8022727 0.3763527,1.5573672 0.8794077,2.1863072 0.206778,0.25852 0.5458504,0.579683 0.8069761,0.764368 0.5938459,0.420006 1.2816805,0.677202 1.9857688,0.742781 0.1554976,0.01449 0.5791341,0.0153 0.7345441,0.0014 0.627428,-0.05609 1.2634128,-0.267831 1.7815388,-0.593373 0.961115,-0.603873 1.626752,-1.557139 1.845165,-2.6424848 0.06477,-0.3218278 0.07385,-0.4220247 0.07385,-0.8149293 0,-0.3928676 -0.0091,-0.4929809 -0.07385,-0.8149295 C 12.329145,7.0408857 12.066579,6.4743944 11.664614,5.9530215 11.532842,5.7821048 11.153819,5.4030825 10.982903,5.2713103 10.329336,4.767426 9.6030679,4.4816868 8.8042668,4.4143424 8.7529537,4.4100215 8.6856595,4.4075263 8.6105467,4.4063915 Z m 0.6089959,1.1492517 c 0.058844,0.00367 0.1182837,0.019059 0.1758243,0.047436 0.096549,0.047611 0.1514353,0.1050433 0.2030934,0.2124666 l 0.035789,0.074419 0.0034,0.6456373 0.00313,0.6453539 0.054253,-0.026984 c 0.084689,-0.04266 0.2058497,-0.083341 0.3360287,-0.1124821 0.101697,-0.022765 0.151475,-0.0267 0.332049,-0.0267 0.180578,0 0.230071,0.00393 0.331765,0.0267 0.149882,0.033553 0.252174,0.070263 0.391133,0.1400346 0.654408,0.3285786 1.003412,1.0781711 0.835959,1.7954581 -0.149394,0.6399109 -0.669111,1.1201463 -1.323661,1.2228203 -0.117256,0.01838 -0.383983,0.01522 -0.505033,-0.006 -0.1258673,-0.02201 -0.2732578,-0.06568 -0.3715343,-0.110209 -0.040325,-0.01828 -0.075262,-0.03323 -0.077545,-0.03323 -0.00228,0 -0.00426,0.03871 -0.00426,0.08606 v 0.08607 H 9.1979512 8.7559746 l 0.00313,-2.172103 0.00284,-2.1718185 0.030393,-0.064479 C 8.8739099,5.6401271 9.0430065,5.5446006 9.2195368,5.5556276 Z m -1.920722,1.4534658 h 0.4419761 0.4419764 l -0.00313,2.1661378 -0.00284,2.1661381 -0.032381,0.07015 c -0.041215,0.08919 -0.1300172,0.177202 -0.2201364,0.218433 -0.054487,0.02492 -0.089261,0.03227 -0.166451,0.03494 -0.1714773,0.0059 -0.2981552,-0.05947 -0.3888591,-0.200824 -0.068303,-0.106444 -0.070159,-0.128449 -0.070159,-0.803285 0,-0.48586 -0.00312,-0.611561 -0.014487,-0.606723 -0.3137044,0.133465 -0.531582,0.174495 -0.8257148,0.155384 C 5.7771015,10.165158 5.1952346,9.6781192 5.0256007,9.0099151 4.9338741,8.6485954 4.9684561,8.2750446 5.1255851,7.9288347 5.2218797,7.7166648 5.4381102,7.4555041 5.6340281,7.3144421 5.8171454,7.1825969 6.034974,7.0866356 6.2657477,7.0363603 c 0.1523767,-0.033197 0.4820134,-0.030651 0.6427967,0.00512 0.098506,0.021908 0.2388199,0.068389 0.3701128,0.1224242 0.018019,0.00741 0.020169,-1.05e-4 0.020169,-0.073284 z M 6.591829,7.8919089 C 6.4709781,7.8888189 6.347382,7.9167069 6.2325103,7.9805319 6.0710273,8.0702569 5.9280906,8.2540566 5.8808611,8.4321658 5.8552311,8.5288168 5.8548451,8.6905299 5.8800206,8.78694 5.9543136,9.0715875 6.1979849,9.2888191 6.4858912,9.3266282 6.6283687,9.3453402 6.789312,9.3147012 6.9258794,9.2431182 7.028933,9.1891015 7.1687251,9.0444441 7.2212876,8.9371998 7.3004827,8.7756191 7.318976,8.6065911 7.2761083,8.4389825 7.19195,8.1099206 6.9006822,7.8998061 6.5918406,7.8919089 Z m 3.765035,8.405e-4 C 10.02443,7.8921453 9.7299847,8.1315423 9.6564062,8.462266 9.5660788,8.86827 9.8548364,9.2728173 10.27307,9.326335 10.514519,9.3572311 10.769699,9.2523053 10.921266,9.0598996 11.028569,8.9236849 11.078334,8.7811183 11.078059,8.6099702 11.077691,8.4087608 11.011461,8.2537831 10.862466,8.1046514 10.718765,7.9608196 10.5575,7.8931164 10.356864,7.8927531 Z" />
</svg>
