<?xml version="1.0" encoding="UTF-8" standalone="no"?>
<svg
   width="64"
   height="64"
   version="1.1"
   viewBox="0 0 16.933 16.933"
   id="svg7"
   sodipodi:docname="abcd.svg"
   inkscape:version="1.4.3 (0d15f75042, 2025-12-25)"
   xmlns:inkscape="http://www.inkscape.org/namespaces/inkscape"
   xmlns:sodipodi="http://sodipodi.sourceforge.net/DTD/sodipodi-0.dtd"
   xmlns="http://www.w3.org/2000/svg"
   xmlns:svg="http://www.w3.org/2000/svg"
   xmlns:rdf="http://www.w3.org/1999/02/22-rdf-syntax-ns#"
   xmlns:cc="http://creativecommons.org/ns#"
   xmlns:dc="http://purl.org/dc/elements/1.1/">
  <sodipodi:namedview
     id="namedview7"
     pagecolor="#9c4444"
     bordercolor="#000000"
     borderopacity="0.25"
     inkscape:showpageshadow="2"
     inkscape:pageopacity="0.0"
     inkscape:pagecheckerboard="0"
     inkscape:deskcolor="#d1d1d1"
     inkscape:zoom="4.3531261"
     inkscape:cx="43.417074"
     inkscape:cy="20.674797"
     inkscape:window-width="1226"
     inkscape:window-height="669"
     inkscape:window-x="0"
     inkscape:window-y="161"
     inkscape:window-maximized="0"
     inkscape:current-layer="svg7"
     showgrid="false" />
  <defs
     id="defs2">
    <filter
       style="color-interpolation-filters:sRGB;"
       inkscape:label="Blur"
       id="filter5421"
       x="-0.12256455"
       y="-0.12342654"
       width="1.2451291"
       height="1.2468531">
      <feGaussianBlur
         stdDeviation="0.5 0.5"
         result="blur"
         id="feGaussianBlur5419" />
    </filter>
  </defs>
  <metadata
     id="metadata2">
    <rdf:RDF>
      <cc:Work
         rdf:about="">
        <dc:format>image/svg+xml</dc:format>
        <dc:type
           rdf:resource="http://purl.org/dc/dcmitype/StillImage" />
      </cc:Work>
    </rdf:RDF>
  </metadata>
  <rect
     style="opacity:0.3;fill:none;fill-opacity:0.996424;stroke:#000000;stroke-width:0.955221;stroke-dasharray:none;stroke-opacity:1;filter:url(#filter5421)"
     id="rect1-2-7"
     width="13.687567"
     height="13.591975"
     x="1.6227165"
     y="1.6705122"
     rx="2.8442214"
     ry="2.965905" />
  <rect
     style="fill:none;fill-opacity:1;stroke:{{colors.primary.default.hex}};stroke-width:0.955221;stroke-dasharray:none;stroke-opacity:1"
     id="rect1-2"
     width="13.687567"
     height="13.591975"
     x="1.6227167"
     y="1.6705124"
     rx="2.8442214"
     ry="2.965905" />
  <path
     id="path10"
     style="fill:{{colors.primary.default.hex}};fill-opacity:1;stroke:none;stroke-width:0.124106;stroke-dasharray:none;stroke-opacity:0.6"
     d="M 8.4705904,4.4585376 C 6.9871863,4.4616449 5.5353158,5.2685241 4.8267023,6.6921938 4.5168466,7.3147225 4.4068246,7.7966822 4.4114249,8.5100977 4.4140944,8.9246403 4.4338772,9.097674 4.5145317,9.4071719 4.9243006,10.979644 6.166097,12.128772 7.7678511,12.418165 8.388159,12.530237 9.1464352,12.472543 9.7492069,12.267069 11.756547,11.582788 12.902989,9.5269117 12.406217,7.5023153 12.181726,6.5874103 11.546435,5.6957555 10.725156,5.1422715 10.033164,4.6759224 9.2476118,4.4569097 8.4705904,4.4585376 Z m 0.021853,0.8524095 c 0.5838621,5.254e-4 0.629329,0.00635 0.968346,0.124488 0.5689706,0.1982828 0.8637036,0.3822125 1.2862156,0.8025199 0.308689,0.3070762 0.410734,0.4405056 0.561147,0.7336238 0.282961,0.5514192 0.36351,0.8828697 0.362536,1.4990823 -8.68e-4,0.6058524 -0.05832,0.8584346 -0.312644,1.3826709 -0.42682,0.879788 -1.251913,1.525259 -2.200398,1.720975 -1.7395088,0.358942 -3.3960762,-0.65836 -3.8258687,-2.349591 -0.1076875,-0.4237519 -0.1075984,-1.0683149 0,-1.517138 C 5.5462903,6.8127852 6.1730412,6.0356178 7.0109403,5.6259685 7.5627405,5.3561931 7.7789808,5.3103388 8.4924434,5.3109471 Z m 1.1351221,0.8894714 c -0.071131,-0.00123 -0.1444913,0.019153 -0.1905338,0.060819 -0.03814,0.034513 -0.2703642,0.413913 -0.5164829,0.843382 C 8.4751647,7.8818027 8.471958,7.8859427 8.2871802,7.9518031 8.0718731,8.0285456 7.9407037,8.1866469 7.9113409,8.4055669 L 7.8913866,8.5547622 6.9116376,9.05699 C 6.3727581,9.3332728 5.9095502,9.5859861 5.8824723,9.6186119 c -0.037469,0.045153 -0.038608,0.082969 -0.00479,0.1572732 0.050985,0.1119026 0.2152878,0.1327674 0.3440054,0.043717 C 6.2645562,9.7899423 6.6978573,9.5654137 7.1848081,9.320702 8.0603815,8.880688 8.0713728,8.876162 8.1788163,8.9396299 8.3273664,9.0273793 8.602209,9.0210374 8.7575432,8.9263261 8.9464049,8.8111705 9.0199894,8.6390149 8.9955912,8.3699315 L 8.9751614,8.145663 9.4455558,7.3227119 C 9.9306191,6.4740309 9.9466333,6.4278873 9.8057159,6.2674151 9.7678429,6.2242882 9.6986698,6.2016559 9.6275365,6.2004193 Z m -1.1750336,1.973752 c 0.2810279,0 0.423423,0.3207758 0.2252183,0.5069797 -0.1966572,0.1847495 -0.5169576,0.058267 -0.5169576,-0.2038373 0,-0.1921659 0.1070289,-0.3031424 0.2917393,-0.3031424 z" />
</svg>
