<?xml version="1.0" encoding="UTF-8" standalone="no"?>
<svg
   width="64"
   height="64"
   version="1.1"
   viewBox="0 0 16.933 16.933"
   id="svg7"
   sodipodi:docname="abcd.svg"
   inkscape:version="1.4.3 (0d15f75042, 2025-12-25)"
   xmlns:inkscape="http://www.inkscape.org/namespaces/inkscape"
   xmlns:sodipodi="http://sodipodi.sourceforge.net/DTD/sodipodi-0.dtd"
   xmlns="http://www.w3.org/2000/svg"
   xmlns:svg="http://www.w3.org/2000/svg"
   xmlns:rdf="http://www.w3.org/1999/02/22-rdf-syntax-ns#"
   xmlns:cc="http://creativecommons.org/ns#"
   xmlns:dc="http://purl.org/dc/elements/1.1/">
  <sodipodi:namedview
     id="namedview7"
     pagecolor="#9c4444"
     bordercolor="#000000"
     borderopacity="0.25"
     inkscape:showpageshadow="2"
     inkscape:pageopacity="0.0"
     inkscape:pagecheckerboard="0"
     inkscape:deskcolor="#d1d1d1"
     inkscape:zoom="4.3531261"
     inkscape:cx="40.200995"
     inkscape:cy="23.431437"
     inkscape:window-width="1226"
     inkscape:window-height="669"
     inkscape:window-x="474"
     inkscape:window-y="225"
     inkscape:window-maximized="0"
     inkscape:current-layer="svg7"
     showgrid="false" />
  <defs
     id="defs2">
    <filter
       style="color-interpolation-filters:sRGB;"
       inkscape:label="Blur"
       id="filter5421"
       x="-0.12256455"
       y="-0.12342654"
       width="1.2451291"
       height="1.2468531">
      <feGaussianBlur
         stdDeviation="0.5 0.5"
         result="blur"
         id="feGaussianBlur5419" />
    </filter>
  </defs>
  <metadata
     id="metadata2">
    <rdf:RDF>
      <cc:Work
         rdf:about="">
        <dc:format>image/svg+xml</dc:format>
        <dc:type
           rdf:resource="http://purl.org/dc/dcmitype/StillImage" />
      </cc:Work>
    </rdf:RDF>
  </metadata>
  <rect
     style="opacity:0.3;fill:none;fill-opacity:0.996424;stroke:#000000;stroke-width:0.955221;stroke-dasharray:none;stroke-opacity:1;filter:url(#filter5421)"
     id="rect1-2-7"
     width="13.687567"
     height="13.591975"
     x="1.6227165"
     y="1.6705122"
     rx="2.8442214"
     ry="2.965905" />
  <rect
     style="fill:none;fill-opacity:1;stroke:{{colors.primary.default.hex}};stroke-width:0.955221;stroke-dasharray:none;stroke-opacity:1"
     id="rect1-2"
     width="13.687567"
     height="13.591975"
     x="1.6227167"
     y="1.6705124"
     rx="2.8442214"
     ry="2.965905" />
  <path
     style="fill:{{colors.primary.default.hex}};fill-opacity:1;stroke:none;stroke-width:0.118466;stroke-dasharray:none;stroke-opacity:0.6"
     d="M 5.3157332,12.254766 C 4.8924705,12.107231 4.581759,11.793926 4.4778003,11.409846 4.4053992,11.142354 4.4546652,10.766676 4.5949272,10.516668 4.8649997,10.03529 5.5135745,9.7584268 6.0265394,9.9055443 l 0.127681,0.036616 0.026198,-0.2506607 C 6.2473398,9.0512313 6.7185239,8.487436 7.3547547,8.2863487 7.4788593,8.2471241 7.5886981,8.2080827 7.5988397,8.19959 7.6089836,8.1910983 7.4272902,7.9935116 7.1950817,7.7605099 L 6.7728842,7.3368703 7.1868988,6.9351284 7.6009131,6.5333865 V 5.9652129 5.3970393 H 8.189068 8.7772235 L 9.1943299,5.0035618 9.611437,4.6100854 9.8061996,4.7746782 c 0.1071198,0.090526 0.2956734,0.26759 0.4190064,0.3934768 l 0.224244,0.2288843 h 0.58603 0.586028 v 0.5665401 0.5665401 l 0.43343,0.4030512 0.433433,0.4030507 -0.433433,0.40821 -0.43343,0.4082095 V 8.7030845 9.253528 h -0.556927 -0.556924 l -0.328111,0.2974419 -0.3281082,0.2974418 0.2818012,0.025846 c 0.362468,0.033248 0.640821,0.1737103 0.887137,0.4476723 0.422714,0.470161 0.416979,1.098144 -0.01436,1.570074 -0.125469,0.137283 -0.286252,0.260002 -0.419621,0.320277 l -0.216214,0.09772 -2.4205619,0.0096 c -2.2459775,0.0088 -2.43595,0.0043 -2.6339065,-0.06481 z M 9.9807316,8.9874375 C 10.545718,8.9167597 11.111888,8.4157931 11.294328,7.8251237 11.600035,6.8353536 10.954548,5.8536662 9.8810767,5.6757863 9.3487687,5.5875801 8.8020262,5.7598202 8.3962485,6.1435522 7.874962,6.6365168 7.7179649,7.4185469 8.020408,8.0156794 c 0.082978,0.1638274 0.1183846,0.1918827 0.3189834,0.2527441 0.4091663,0.1241398 0.7869308,0.3743096 0.9293918,0.6154766 0.04857,0.082223 0.109681,0.1238752 0.1962267,0.1337456 0.1274746,0.014539 0.1849123,0.011177 0.5157217,-0.030208 z"
     id="path53290" />
</svg>
