<?xml version="1.0" encoding="UTF-8" standalone="no"?>
<svg
   width="64"
   height="64"
   version="1.1"
   viewBox="0 0 16.933 16.933"
   id="svg7"
   sodipodi:docname="accessories-text-editor.svg"
   inkscape:version="1.4.3 (0d15f75042, 2025-12-25)"
   xmlns:inkscape="http://www.inkscape.org/namespaces/inkscape"
   xmlns:sodipodi="http://sodipodi.sourceforge.net/DTD/sodipodi-0.dtd"
   xmlns="http://www.w3.org/2000/svg"
   xmlns:svg="http://www.w3.org/2000/svg"
   xmlns:rdf="http://www.w3.org/1999/02/22-rdf-syntax-ns#"
   xmlns:cc="http://creativecommons.org/ns#"
   xmlns:dc="http://purl.org/dc/elements/1.1/">
  <sodipodi:namedview
     id="namedview7"
     pagecolor="#9c4444"
     bordercolor="#000000"
     borderopacity="0.25"
     inkscape:showpageshadow="2"
     inkscape:pageopacity="0.0"
     inkscape:pagecheckerboard="0"
     inkscape:deskcolor="#d1d1d1"
     inkscape:zoom="4.3531261"
     inkscape:cx="39.282115"
     inkscape:cy="26.417797"
     inkscape:window-width="1226"
     inkscape:window-height="669"
     inkscape:window-x="0"
     inkscape:window-y="133"
     inkscape:window-maximized="0"
     inkscape:current-layer="svg7"
     showgrid="false" />
  <defs
     id="defs2">
    <filter
       style="color-interpolation-filters:sRGB;"
       inkscape:label="Blur"
       id="filter5421"
       x="-0.12256455"
       y="-0.12342654"
       width="1.2451291"
       height="1.2468531">
      <feGaussianBlur
         stdDeviation="0.5 0.5"
         result="blur"
         id="feGaussianBlur5419" />
    </filter>
  </defs>
  <metadata
     id="metadata2">
    <rdf:RDF>
      <cc:Work
         rdf:about="">
        <dc:format>image/svg+xml</dc:format>
        <dc:type
           rdf:resource="http://purl.org/dc/dcmitype/StillImage" />
      </cc:Work>
    </rdf:RDF>
  </metadata>
  <rect
     style="opacity:0.3;fill:none;fill-opacity:0.996424;stroke:#000000;stroke-width:0.955221;stroke-dasharray:none;stroke-opacity:1;filter:url(#filter5421)"
     id="rect1-2-7"
     width="13.687567"
     height="13.591975"
     x="1.6227165"
     y="1.6705122"
     rx="2.8442214"
     ry="2.965905" />
  <rect
     style="fill:none;fill-opacity:1;stroke:{{colors.primary.default.hex}};stroke-width:0.955221;stroke-dasharray:none;stroke-opacity:1"
     id="rect1-2"
     width="13.687567"
     height="13.591975"
     x="1.6227167"
     y="1.6705124"
     rx="2.8442214"
     ry="2.965905" />
  <path
     style="fill:{{colors.primary.default.hex}};fill-opacity:1;stroke-width:0.0312678"
     d="M 6.1838993,11.805845 C 5.9274021,11.586601 5.7634718,11.306185 5.5721907,10.759526 5.3463085,10.113966 5.2372253,9.5038611 5.2397305,8.9000322 5.2421996,8.3040858 5.3553001,7.7139382 5.5743964,7.1537968 5.7873016,6.6094771 6.0795384,6.2322828 6.486385,5.976672 6.8501814,5.7481091 7.1925609,5.6653013 7.5980146,5.7078018 c 0.1069077,0.011213 0.1103661,0.012302 0.1178561,0.037344 0.00522,0.017404 0.027444,0.040404 0.068216,0.070708 0.033225,0.024798 0.1059092,0.091544 0.1613554,0.1486061 0.083407,0.085735 0.1165621,0.1134409 0.1916628,0.1599869 0.079352,0.050178 0.088722,0.056781 0.0722,0.062543 -0.295768,0.099077 -0.4995877,0.1553814 -0.720575,0.1990683 -0.087577,0.017315 -0.2228857,0.045579 -0.3006795,0.062808 -0.077794,0.017236 -0.1585019,0.035027 -0.1793587,0.039549 -0.045533,0.00983 -0.071866,0.046242 -0.06071,0.08389 0.012813,0.043305 0.075949,0.082919 0.1449293,0.090638 0.3566277,0.041328 0.7825988,0.077096 0.9654169,0.08107 l 0.048356,0.00103 -0.02515,0.022756 C 8.0130869,6.8297311 7.8194165,7.1609916 7.744399,7.3444789 7.678116,7.5066502 7.668202,7.6612839 7.721981,7.6940609 7.750059,7.7111729 7.8479162,7.6764919 7.9534659,7.6120629 8.2104517,7.4551563 8.4130208,7.35558 8.6226376,7.2831173 8.7389392,7.2429104 8.90242,7.2081537 8.9248113,7.2188697 c 0.02517,0.012174 0.036478,0.031553 0.1060014,0.1833476 0.064939,0.141824 0.1375022,0.2889899 0.3178587,0.6446695 0.076997,0.1518497 0.1166694,0.2137087 0.1660684,0.2589588 0.051231,0.046948 0.088799,0.062759 0.1240981,0.052318 0.034323,-0.010165 0.042995,-0.038924 0.062333,-0.2079928 0.00895,-0.078369 0.021708,-0.169428 0.028317,-0.2023575 0.031019,-0.1544815 0.1298808,-0.479155 0.1471926,-0.48335 0.0037,-8.93e-4 0.033392,0.02753 0.065098,0.063363 0.031692,0.035859 0.089956,0.098678 0.1294395,0.139629 0.03947,0.040965 0.149713,0.1585807 0.244938,0.2614053 0.09521,0.1028379 0.212965,0.2297339 0.261662,0.2820185 0.0487,0.052267 0.103796,0.1153242 0.122464,0.1400904 0.04017,0.053296 0.06926,0.065208 0.125429,0.051633 0.0943,-0.022878 0.09702,-0.1006429 0.01502,-0.430548 -0.05239,-0.2108079 -0.07726,-0.3512541 -0.08699,-0.4911397 -0.0055,-0.079269 -0.0036,-0.092213 0.01519,-0.1049796 0.01181,-0.00803 0.02591,-0.011849 0.03133,-0.00854 0.0054,0.00332 0.0481,0.042951 0.09486,0.088129 0.509229,0.4917939 0.742138,1.0374779 0.688901,1.6140505 -0.01927,0.2087535 -0.06257,0.3765535 -0.15622,0.6053571 -0.06278,0.1532611 -0.353055,0.6294462 -0.463242,0.7571392 -0.360031,0.424015 -0.781352,0.749722 -1.3730017,1.06142 -0.4417664,0.232755 -0.857374,0.392484 -1.303359,0.500936 -0.6574226,0.159862 -1.2591721,0.181937 -1.6482954,0.06047 -0.1318287,-0.04113 -0.3565058,-0.164022 -0.4570083,-0.249904 z m 0.765162,-0.668918 c 0.052462,-0.01102 0.102659,-0.05554 0.131783,-0.116878 0.032771,-0.06913 0.04899,-0.160376 0.039032,-0.220049 -0.00696,-0.04173 -0.011668,-0.04901 -0.036772,-0.05681 -0.044593,-0.01386 -0.1272767,0.01348 -0.178847,0.05914 -0.064351,0.05697 -0.1206581,0.152109 -0.1169328,0.197157 0.00695,0.08099 0.090764,0.152225 0.1615908,0.137387 z m 1.6343462,-0.02033 c 0.068495,0.0051 0.097147,-0.01378 0.1481649,-0.09804 0.074401,-0.125001 0.092391,-0.273836 0.03522,-0.30868 -0.03158,-0.01925 -0.1076892,0.0031 -0.1816396,0.05334 -0.048168,0.03274 -0.066415,0.05201 -0.098778,0.104277 -0.048793,0.07708 -0.052091,0.120889 -0.016679,0.176902 0.02961,0.04685 0.063548,0.0684 0.1138129,0.07208 z M 6.3800216,9.62636 C 6.4767546,9.6231922 6.5545799,9.478531 6.5481818,9.3137739 6.544274,9.2131686 6.5088238,9.1810006 6.4253127,9.2022613 6.3524918,9.2207996 6.2245333,9.3736977 6.219625,9.4480333 6.213005,9.5483857 6.285888,9.6294223 6.3800075,9.6263453 Z M 7.597939,10.021885 C 7.641758,10.018785 7.695797,9.984084 7.7207557,9.943139 7.7502367,9.894765 7.7865447,9.7201379 7.7768597,9.673314 7.7700197,9.640103 7.7616867,9.628567 7.7310857,9.609918 7.6602707,9.566758 7.6138604,9.586735 7.5244818,9.69886 c -0.087714,0.1099943 -0.100588,0.1817511 -0.047153,0.2620369 0.029308,0.044042 0.069996,0.064562 0.1205962,0.061009 z M 6.1625403,8.4479974 c 0.091232,0.00954 0.1715837,-0.099442 0.1840251,-0.2496089 0.00962,-0.1160836 -0.010635,-0.1784696 -0.059063,-0.1819304 -0.080399,-0.00574 -0.1287021,0.025877 -0.2034378,0.1331866 -0.047608,0.068344 -0.055609,0.085105 -0.061465,0.1298587 -0.00542,0.040961 -0.00139,0.059288 0.019765,0.090382 0.032306,0.047552 0.071549,0.072968 0.1201637,0.078054 z m 2.6442264,1.4742325 c 0.075411,-0.015027 0.1302114,-0.086838 0.1569362,-0.2055974 0.00915,-0.040807 0.015407,-0.095818 0.01385,-0.1222626 -0.00484,-0.082528 -0.02939,-0.1051697 -0.102648,-0.094695 -0.05968,0.00853 -0.094513,0.033304 -0.1625737,0.1156044 -0.06383,0.077219 -0.084254,0.1352627 -0.068951,0.1935887 0.018097,0.068165 0.1011342,0.1257833 0.1634165,0.1133639 z M 7.2688037,8.85224 c 0.057498,-0.00881 0.090437,-0.032247 0.1249235,-0.088855 0.034741,-0.05703 0.078163,-0.1690461 0.083099,-0.2144612 0.00372,-0.034448 -0.018315,-0.077877 -0.04869,-0.095759 -0.04946,-0.02836 -0.107467,-0.010557 -0.1910857,0.060107 -0.1184627,0.1001097 -0.1425466,0.1491562 -0.1164313,0.237064 0.013642,0.045896 0.020451,0.05473 0.061647,0.079839 0.03749,0.022848 0.053953,0.027066 0.086537,0.022067 z m 2.4788936,1.453062 c 0.052348,0.0037 0.095192,-0.02357 0.1321097,-0.08405 C 9.945158,10.115441 9.959426,9.9134896 9.904878,9.8802487 9.881882,9.8662337 9.8031297,9.8899287 9.7487484,9.9272597 9.6230106,10.01359 9.5704022,10.150171 9.630161,10.23517 c 0.026114,0.03713 0.076575,0.0673 0.1178935,0.06955 z M 6.8114711,7.5443597 c 0.050396,0.00353 0.086743,-0.019692 0.1315398,-0.08406 0.082794,-0.1189582 0.1107989,-0.2670427 0.058317,-0.3083329 -0.030092,-0.023613 -0.121435,-0.00207 -0.2004952,0.047352 -0.055013,0.034403 -0.070629,0.049794 -0.102275,0.100764 -0.033336,0.053384 -0.036936,0.065296 -0.032463,0.1070063 0.00268,0.02577 0.01111,0.055218 0.018717,0.065428 0.022011,0.029502 0.092312,0.069439 0.1266596,0.071834 z M 8.7067708,8.6185031 C 8.7890266,8.5966816 8.8113332,8.5678282 8.8433117,8.4419039 8.8571038,8.3874984 8.8683252,8.325849 8.8681903,8.304881 8.8679014,8.2586749 8.840493,8.2182762 8.7992013,8.2032046 8.7375985,8.1807077 8.6951414,8.2040189 8.6085758,8.3078289 c -0.070405,0.0845 -0.086946,0.1342342 -0.067983,0.2051225 0.015508,0.057975 0.021607,0.066409 0.070392,0.097356 0.03303,0.021916 0.043523,0.021982 0.095776,0.0082 z m 1.4960002,0.64755 c 0.04632,-0.00331 0.107285,-0.049316 0.124078,-0.093662 0.02758,-0.07276 0.01433,-0.2449506 -0.02385,-0.3104444 -0.02623,-0.04502 -0.07845,-0.062136 -0.117332,-0.03852 -0.0418,0.025404 -0.116683,0.1467825 -0.135752,0.2198088 -0.03089,0.1190666 0.04546,0.2303811 0.152752,0.2227064 z M 7.8299652,7.4946532 C 7.8666598,7.3570872 8.0601349,6.9905827 8.1474115,6.8933027 8.254152,6.7742907 8.2683528,6.7352686 8.2274288,6.6728602 8.1974175,6.6270759 8.1604255,6.6136598 8.0634231,6.6133041 7.9781492,6.6129889 7.7796474,6.5988657 7.4927269,6.5726735 L 7.315129,6.5564621 7.4691077,6.5249179 C 7.7693782,6.4633959 8.1884592,6.3448997 8.2889545,6.2931012 8.3335226,6.2701315 8.3609935,6.2260777 8.3609756,6.1776069 8.3609385,6.1182174 8.3456914,6.1007264 8.2330228,6.0309079 8.146664,5.9764595 8.1151699,5.9518107 8.0257015,5.8616007 7.9677845,5.8033057 7.9015031,5.7405951 7.8783637,5.7223112 c -0.027629,-0.02184 -0.04848,-0.048493 -0.060713,-0.077767 -0.010246,-0.024469 -0.035491,-0.06685 -0.056094,-0.094087 -0.020601,-0.027283 -0.038909,-0.054074 -0.040667,-0.059646 -0.0074,-0.023045 0.7609332,0.2199194 1.0489876,0.3317786 0.170366,0.066161 0.4253291,0.2221002 0.5338913,0.3272083 0.072148,0.069285 0.081022,0.075461 0.1168666,0.080947 0.053665,0.00816 0.095151,-0.018401 0.1227575,-0.078641 0.042075,-0.091853 0.1069758,-0.4177731 0.1145885,-0.5754813 0.00123,-0.025013 0.00399,-0.081352 0.00618,-0.1251323 0.010893,-0.2178386 -0.00738,-0.4978179 -0.048584,-0.7443649 -0.023915,-0.1431216 -0.018872,-0.1937004 0.022314,-0.2237769 0.051089,-0.037323 0.1330979,-0.012658 0.1652281,0.049694 0.018258,0.035393 0.058662,0.2851497 0.074804,0.4622533 0.02314,0.2539901 0.018032,0.5278709 -0.014205,0.7607723 -0.016795,0.1213552 -0.03816,0.2187679 -0.1035145,0.4719555 -0.014493,0.056073 -0.015707,0.084309 -0.00507,0.1182923 0.012855,0.041102 0.017946,0.046615 0.064184,0.069697 0.037698,0.018893 0.074191,0.026085 0.1464017,0.029335 0.2412955,0.010737 0.4369185,0.071416 0.6510655,0.201934 0.156798,0.095565 0.223926,0.1529766 0.520072,0.4444942 0.06851,0.067379 0.153196,0.1468421 0.188281,0.1765221 0.03509,0.029657 0.06249,0.055991 0.06094,0.058416 -0.0085,0.010987 -0.308088,-0.031259 -0.443789,-0.063357 -0.126169,-0.029856 -0.168104,-0.030332 -0.238875,-0.00274 -0.08097,0.03158 -0.09186,0.062379 -0.08021,0.2268203 0.01051,0.1480254 0.02874,0.2573975 0.08272,0.4961796 0.0378,0.167172 0.0469,0.2249897 0.03345,0.2121066 C 10.729014,8.1862439 10.641634,8.0917541 10.544773,7.986331 10.332134,7.7548749 10.026121,7.4268397 9.9825761,7.3836799 9.9152494,7.316968 9.8317733,7.315172 9.7783295,7.3793389 9.7140145,7.4565245 9.5912805,7.8963014 9.573448,8.1133788 9.567292,8.1881238 9.564195,8.1868774 9.5173771,8.0907982 9.5008898,8.0569771 9.4629383,7.9829642 9.4330266,7.9263088 9.3428612,7.7555575 9.2720441,7.6123421 9.1766043,7.4077496 9.0661001,7.1708754 9.0512302,7.1460976 9.001382,7.1157163 8.94415,7.0808353 8.8893066,7.0810873 8.7383252,7.1170063 c -0.187644,0.044621 -0.3545213,0.1102058 -0.5751591,0.226043 -0.089431,0.046958 -0.2806608,0.1571669 -0.28557,0.1645778 -0.00171,0.00257 -0.015683,0.00981 -0.030785,0.0156 l -0.027472,0.010574 z"
     id="path1" />
</svg>
