<?xml version="1.0" encoding="UTF-8" standalone="no"?>
<svg
   width="64"
   height="64"
   version="1.1"
   viewBox="0 0 16.933 16.933"
   id="svg7"
   sodipodi:docname="abcd.svg"
   inkscape:version="1.4.3 (0d15f75042, 2025-12-25)"
   xmlns:inkscape="http://www.inkscape.org/namespaces/inkscape"
   xmlns:sodipodi="http://sodipodi.sourceforge.net/DTD/sodipodi-0.dtd"
   xmlns="http://www.w3.org/2000/svg"
   xmlns:svg="http://www.w3.org/2000/svg"
   xmlns:rdf="http://www.w3.org/1999/02/22-rdf-syntax-ns#"
   xmlns:cc="http://creativecommons.org/ns#"
   xmlns:dc="http://purl.org/dc/elements/1.1/">
  <sodipodi:namedview
     id="namedview7"
     pagecolor="#9c4444"
     bordercolor="#000000"
     borderopacity="0.25"
     inkscape:showpageshadow="2"
     inkscape:pageopacity="0.0"
     inkscape:pagecheckerboard="0"
     inkscape:deskcolor="#d1d1d1"
     inkscape:zoom="4.3531261"
     inkscape:cx="38.133515"
     inkscape:cy="27.106957"
     inkscape:window-width="1226"
     inkscape:window-height="669"
     inkscape:window-x="100"
     inkscape:window-y="206"
     inkscape:window-maximized="0"
     inkscape:current-layer="svg7"
     showgrid="false" />
  <defs
     id="defs2">
    <filter
       style="color-interpolation-filters:sRGB;"
       inkscape:label="Blur"
       id="filter5421"
       x="-0.12256455"
       y="-0.12342654"
       width="1.2451291"
       height="1.2468531">
      <feGaussianBlur
         stdDeviation="0.5 0.5"
         result="blur"
         id="feGaussianBlur5419" />
    </filter>
  </defs>
  <metadata
     id="metadata2">
    <rdf:RDF>
      <cc:Work
         rdf:about="">
        <dc:format>image/svg+xml</dc:format>
        <dc:type
           rdf:resource="http://purl.org/dc/dcmitype/StillImage" />
      </cc:Work>
    </rdf:RDF>
  </metadata>
  <rect
     style="opacity:0.3;fill:none;fill-opacity:0.996424;stroke:#000000;stroke-width:0.955221;stroke-dasharray:none;stroke-opacity:1;filter:url(#filter5421)"
     id="rect1-2-7"
     width="13.687567"
     height="13.591975"
     x="1.6227165"
     y="1.6705122"
     rx="2.8442214"
     ry="2.965905" />
  <rect
     style="fill:none;fill-opacity:1;stroke:{{colors.primary.default.hex}};stroke-width:0.955221;stroke-dasharray:none;stroke-opacity:1"
     id="rect1-2"
     width="13.687567"
     height="13.591975"
     x="1.6227167"
     y="1.6705124"
     rx="2.8442214"
     ry="2.965905" />
  <path
     id="path8"
     style="fill:{{colors.primary.default.hex}};fill-opacity:1;stroke:none;stroke-width:0.121942;stroke-dasharray:none;stroke-opacity:0.6"
     d="M 8.422479,4.1656595 C 8.3363948,4.168443 8.2808262,4.1934033 8.2098378,4.2531355 8.0445608,4.3922067 8.0450406,4.3873691 8.0444503,5.6052074 l -5.53e-4,1.0941462 0.1015391,-0.018278 C 8.271997,6.6583877 8.67115,6.6573835 8.7912356,6.6794131 L 8.88068,6.6957255 V 5.5847113 C 8.88068,4.5249445 8.87852,4.4692485 8.833428,4.3808695 8.7700862,4.2567323 8.6613472,4.1834667 8.5203632,4.1699196 c -0.037172,-0.00357 -0.069187,-0.00516 -0.097883,-0.00422 z M 8.438512,6.8599596 C 8.1586092,6.8596001 7.9208646,6.9270999 7.6613593,7.0804765 7.1540117,7.3803354 6.8702439,7.874169 6.8707048,8.456175 6.8709785,8.7440754 6.91102,8.9128707 7.0436868,9.1852308 7.2406702,9.5896325 7.6836382,9.9399246 8.1156126,10.032703 8.6484105,10.147135 9.2045327,9.9829985 9.5939755,9.5961686 9.7280208,9.4630241 9.805999,9.3599132 9.8774978,9.2212337 10.029425,8.9265542 10.06281,8.7888833 10.062294,8.456175 10.061769,8.1330803 10.040168,8.0360521 9.9089993,7.7628404 9.7543927,7.4408058 9.5095732,7.195563 9.1796626,7.0326602 8.9221218,6.9054916 8.7283241,6.8603196 8.438512,6.8599596 Z m -0.3825291,0.8162498 0.00617,0.7363685 c 0.00348,0.4049812 0.0013,0.7498996 -0.00506,0.7664649 -0.00636,0.016564 -0.021524,0.030095 -0.033471,0.030095 -0.011944,0 -0.1385774,-0.081923 -0.2815529,-0.1819824 C 7.1832478,8.636057 7.0158435,8.5069054 7.0158435,8.4663012 c 0,-0.042787 0.1773693,-0.1814203 0.7293373,-0.5707 z m 0.8334072,0.037127 c 0.094678,0.018295 1.0155932,0.6792546 1.0373282,0.74762 0.00893,0.028235 -0.3040107,0.2697037 -0.762526,0.588139 -0.2289614,0.1590122 -0.2607892,0.1748998 -0.2913968,0.1442915 -0.02855,-0.028548 -0.018748,-1.4619265 0.010128,-1.4797688 0.0013,-7.741e-4 0.00341,-8.571e-4 0.00646,-3.041e-4 z m -0.8469083,2.5182246 0.00675,1.122273 0.00675,1.122554 0.067224,0.10154 c 0.042348,0.06397 0.1044403,0.11854 0.1673573,0.147105 0.1643795,0.07463 0.3301138,0.05024 0.4531279,-0.06665 0.1408806,-0.133878 0.1369794,-0.09814 0.1369794,-1.311008 v -1.115522 l -0.1057582,0.01575 c -0.1364798,0.02047 -0.4890485,0.0205 -0.6258291,0 z" />
</svg>
