<?xml version="1.0" encoding="UTF-8" standalone="no"?>
<svg
   width="64"
   height="64"
   version="1.1"
   viewBox="0 0 16.933 16.933"
   id="svg7"
   sodipodi:docname="accessories-text-editor.svg"
   inkscape:version="1.4.3 (0d15f75042, 2025-12-25)"
   xmlns:inkscape="http://www.inkscape.org/namespaces/inkscape"
   xmlns:sodipodi="http://sodipodi.sourceforge.net/DTD/sodipodi-0.dtd"
   xmlns="http://www.w3.org/2000/svg"
   xmlns:svg="http://www.w3.org/2000/svg"
   xmlns:rdf="http://www.w3.org/1999/02/22-rdf-syntax-ns#"
   xmlns:cc="http://creativecommons.org/ns#"
   xmlns:dc="http://purl.org/dc/elements/1.1/">
  <sodipodi:namedview
     id="namedview7"
     pagecolor="#9c4444"
     bordercolor="#000000"
     borderopacity="0.25"
     inkscape:showpageshadow="2"
     inkscape:pageopacity="0.0"
     inkscape:pagecheckerboard="0"
     inkscape:deskcolor="#d1d1d1"
     inkscape:zoom="4.3531261"
     inkscape:cx="36.984915"
     inkscape:cy="29.863596"
     inkscape:window-width="1226"
     inkscape:window-height="669"
     inkscape:window-x="0"
     inkscape:window-y="133"
     inkscape:window-maximized="0"
     inkscape:current-layer="svg7"
     showgrid="false" />
  <defs
     id="defs2">
    <filter
       style="color-interpolation-filters:sRGB;"
       inkscape:label="Blur"
       id="filter5421"
       x="-0.12256455"
       y="-0.12342654"
       width="1.2451291"
       height="1.2468531">
      <feGaussianBlur
         stdDeviation="0.5 0.5"
         result="blur"
         id="feGaussianBlur5419" />
    </filter>
  </defs>
  <metadata
     id="metadata2">
    <rdf:RDF>
      <cc:Work
         rdf:about="">
        <dc:format>image/svg+xml</dc:format>
        <dc:type
           rdf:resource="http://purl.org/dc/dcmitype/StillImage" />
      </cc:Work>
    </rdf:RDF>
  </metadata>
  <rect
     style="opacity:0.3;fill:none;fill-opacity:0.996424;stroke:#000000;stroke-width:0.955221;stroke-dasharray:none;stroke-opacity:1;filter:url(#filter5421)"
     id="rect1-2-7"
     width="13.687567"
     height="13.591975"
     x="1.6227165"
     y="1.6705122"
     rx="2.8442214"
     ry="2.965905" />
  <rect
     style="fill:none;fill-opacity:1;stroke:{{colors.primary.default.hex}};stroke-width:0.955221;stroke-dasharray:none;stroke-opacity:1"
     id="rect1-2"
     width="13.687567"
     height="13.591975"
     x="1.6227167"
     y="1.6705124"
     rx="2.8442214"
     ry="2.965905" />
  <path
     id="path1"
     style="fill:{{colors.primary.default.hex}};fill-opacity:1;stroke:none;stroke-width:0.0972439;stroke-dasharray:none;stroke-opacity:0.6"
     d="m 4.2326476,6.2312039 c -0.00272,0 -0.00512,3.993e-4 -0.00746,9.785e-4 -0.023558,0.00591 -0.03074,0.032434 -0.015445,0.057159 0.014727,0.023877 0.0764,0.071515 0.1609596,0.1244597 0.2061858,0.1290494 0.5490255,0.296592 0.97531,0.476599 0.457871,0.1933455 1.0407568,0.5548858 1.4534537,0.9015416 0.1363872,0.1145576 0.259834,0.2492507 0.2598317,0.2835843 0,0.0053 -0.00976,0.023041 -0.02163,0.039394 -0.032067,0.044185 -0.094572,0.150016 -0.1283224,0.2172514 -0.084136,0.1676075 -0.1392732,0.3559882 -0.16569,0.5663953 -0.013544,0.1078853 -0.010974,0.4281816 0.00444,0.5550034 0.00687,0.056464 0.012554,0.1142038 0.012551,0.128322 -2e-7,0.035824 -0.024758,0.069406 -0.1385575,0.1877044 -0.1576033,0.1638498 -0.2000637,0.230327 -0.2008315,0.3148715 -3.992e-4,0.04626 -4.17e-5,0.04738 0.023558,0.06904 0.021669,0.01994 0.027534,0.02202 0.062184,0.02202 0.045648,0 0.1122072,-0.02 0.2173466,-0.06518 0.092738,-0.03984 0.1540349,-0.06324 0.1656899,-0.06324 0.01971,1e-6 0.005,0.06615 -0.058416,0.263114 -0.082491,0.256231 -0.093611,0.348695 -0.045961,0.382071 0.048573,0.03402 0.1126133,-0.01057 0.4889582,-0.340745 0.1198005,-0.105099 0.2312965,-0.201438 0.2478599,-0.214064 0.016569,-0.01262 0.030314,-0.02605 0.030509,-0.02984 l 8e-7,-1.02e-4 -5e-7,-1.01e-4 h 1.017e-4 l -1e-7,-1.01e-4 v -1.01e-4 h 1.012e-4 l 1.008e-4,-1.02e-4 1.018e-4,-1.01e-4 c 0.005,-0.0025 0.045508,0.0059 0.1030237,0.02116 0.1782375,0.0475 0.3808295,0.08428 0.593142,0.107756 0.4897153,0.05412 1.1389697,0.03673 1.6782345,-0.04509 l 0.1124883,-0.01708 0.179403,0.08043 c 0.623623,0.279677 0.865634,0.363661 0.921528,0.319695 0.02533,-0.01992 0.0512,-0.07434 0.05495,-0.115384 0.0084,-0.09255 -0.04481,-0.186324 -0.200545,-0.353585 -0.126235,-0.1355729 -0.163372,-0.1860582 -0.163374,-0.2216933 0,-0.01676 4.99e-4,-0.016922 0.0337,-0.012455 0.04477,0.00605 0.150925,0.036786 0.353974,0.1025421 0.205192,0.066452 0.27594,0.085652 0.334469,0.090763 0.07309,0.0063 0.09916,-0.01425 0.09916,-0.078489 -2e-6,-0.087985 -0.0746,-0.199793 -0.288608,-0.4325701 -0.06257,-0.068063 -0.109467,-0.1249919 -0.119144,-0.1446411 -0.0389,-0.078989 -0.03086,-0.1729804 0.01999,-0.2332932 0.028,-0.033195 0.06918,-0.056667 0.236945,-0.1350814 C 12.11363,8.7544825 12.414488,8.5766813 12.593617,8.3952054 12.695456,8.2920062 12.730905,8.2257576 12.731302,8.1380636 12.731975,7.9680616 12.604349,7.7854204 12.39297,7.6543189 12.145637,7.5009177 11.825177,7.4055545 11.238646,7.310774 11.140426,7.2949 11.049528,7.280077 11.036748,7.277843 l -0.02318,-0.00406 -0.0033,-0.1741865 c -0.0066,-0.3454047 -0.05461,-0.5343534 -0.1629,-0.6419874 -0.05317,-0.052856 -0.138364,-0.07342 -0.218792,-0.052816 -0.145136,0.037182 -0.207551,0.1365193 -0.207403,0.3302209 2.12e-4,0.1262888 0.02143,0.2505679 0.07483,0.4366251 0.01557,0.054232 0.02829,0.1039773 0.02829,0.1105565 0,0.00749 -0.0062,0.013535 -0.01642,0.016127 -0.02173,0.00545 -0.07109,-3.993e-4 -0.08237,-0.00975 -0.0049,-0.00408 -0.02421,-0.041311 -0.04278,-0.082653 C 10.242509,6.8938222 10.186206,6.7954981 10.101838,6.715218 10.004758,6.622849 9.9129548,6.623134 9.8190249,6.716288 c -0.071778,0.071179 -0.099361,0.1498744 -0.099163,0.2830056 2.113e-4,0.094969 0.00695,0.1386309 0.047795,0.3079164 0.014047,0.05823 0.026564,0.1117055 0.027905,0.1187639 0.00172,0.00921 -0.006,0.019299 -0.027423,0.035822 -0.034008,0.026202 -0.069724,0.08269 -0.094819,0.1500475 C 9.6140125,7.7709 9.5810513,7.8280435 9.535485,7.8505362 9.4668266,7.8844246 9.3098153,7.8936149 9.1151769,7.8750595 8.9388656,7.8582507 8.7591393,7.8294762 8.2784314,7.7412302 7.8190019,7.6568904 7.7502585,7.6543904 7.5670088,7.7152565 c -0.03661,0.012159 -0.1222065,0.05006 -0.1902147,0.084197 l -0.1237046,0.062017 -0.088832,-0.08381 C 6.7871663,7.4220728 6.3913954,7.1373532 5.9973944,6.9380818 5.7761133,6.826166 5.6316215,6.7691753 5.4030937,6.7037408 5.1345586,6.6268509 4.9092488,6.537167 4.470172,6.3321945 4.2902136,6.248185 4.2517587,6.2310612 4.2326448,6.2311967 Z m 8.1164794,0.6551308 c -0.0014,7.06e-5 -0.0028,2.994e-4 -0.0042,8.484e-4 -0.03203,0.012291 -0.101955,0.3656232 -0.103605,0.5236228 -6.75e-4,0.058745 6.72e-4,0.070132 0.01149,0.081783 0.02118,0.023438 0.03614,0.016508 0.05436,-0.025202 0.04727,-0.1081833 0.09249,-0.5309015 0.06092,-0.5695824 -0.0065,-0.00804 -0.01287,-0.011877 -0.01903,-0.01149 z m 0.367296,0.1346956 c -0.0084,0.00282 -0.08527,0.1076929 -0.124847,0.1708068 -0.07664,0.1222709 -0.135773,0.2466374 -0.144931,0.3047298 l -0.0041,0.02568 0.02269,-0.025403 c 0.03239,-0.036086 0.09082,-0.1355855 0.160098,-0.2729553 0.06113,-0.1212162 0.096,-0.1984033 0.09163,-0.202767 l -3.25e-4,-9.1e-5 h -3.24e-4 -3.25e-4 -3.24e-4 -3.24e-4 z m -0.379176,0.010043 3.25e-4,-3e-7 c 2.2e-5,-4e-7 4.98e-4,0 6.98e-4,0 l 3.24e-4,3e-7 3.25e-4,-3e-7 3.24e-4,9.12e-5 3.24e-4,9.13e-5 3.25e-4,9.11e-5 c 6.99e-4,0.00104 0.0012,0.00427 0.0013,0.00966 8.48e-4,0.046695 -0.01688,0.1927057 -0.03524,0.2872536 -0.01178,0.060759 -0.01956,0.093244 -0.02337,0.097424 -5e-5,4.83e-5 -6.98e-4,2.295e-4 -6.49e-4,2.993e-4 l -3.24e-4,9.2e-5 h -3.25e-4 -3.24e-4 -3.24e-4 -3.25e-4 -3.24e-4 -3.25e-4 l -3.24e-4,-9.14e-5 -3.24e-4,-9.13e-5 c -0.0018,-0.00249 -0.0019,-0.017515 -6.99e-4,-0.044805 0.0065,-0.1032913 0.04685,-0.3394854 0.05752,-0.3497138 l 3.24e-4,-9.11e-5 c 4.4e-5,-2.71e-5 6.98e-4,-1.94e-4 6.98e-4,-2.295e-4 z m -1.14872,0.5552923 c 0.04068,1.729e-4 0.0814,0.01666 0.109107,0.049435 0.07514,0.0889 0.04832,0.2353086 -0.05156,0.281653 -0.04735,0.021963 -0.113318,0.011649 -0.154586,-0.024234 -0.04152,-0.036105 -0.06519,-0.1078775 -0.05456,-0.1654 0.0074,-0.040023 0.01828,-0.063577 0.04287,-0.09279 0.02738,-0.032579 0.06804,-0.048825 0.10872,-0.048666 z m -0.299032,0.080238 0.0071,0.027229 c 0.03105,0.1184569 0.05758,0.177882 0.09964,0.2228505 0.05793,0.061939 0.132624,0.084966 0.274315,0.084485 l 0.08236,-2.995e-4 -0.02779,0.02542 c -0.04593,0.041978 -0.119674,0.088817 -0.15497,0.098489 -0.119829,0.032817 -0.21149,-0.00378 -0.285035,-0.1137425 -0.04399,-0.065759 -0.0626,-0.1261698 -0.06259,-0.2032694 2.1e-5,-0.068962 0.01187,-0.1007742 0.04721,-0.1267779 z m 0.728704,0.6738625 c 0.02455,-0.0012 0.04381,0.00316 0.05938,0.012648 0.02972,0.018117 0.02897,0.045471 -0.0021,0.073865 -0.0565,0.051711 -0.3103,0.1618355 -0.495526,0.2149325 -0.101145,0.028999 -0.143113,0.024307 -0.122818,-0.013612 0.01561,-0.029183 0.163213,-0.1229509 0.307627,-0.1954282 0.12008,-0.060275 0.199355,-0.089734 0.25336,-0.092405 z m 0.09366,0.1664619 c 0.01856,2.102e-4 0.03242,0.00895 0.04141,0.02636 0.01334,0.025807 0.01161,0.066222 -0.0042,0.097133 -0.03662,0.071793 -0.162505,0.1745316 -0.339201,0.2768265 h -2.99e-4 c -0.0405,0.023443 -0.07815,0.042679 -0.08371,0.042679 -0.01356,-1.7e-6 -0.02549,-0.012795 -0.02549,-0.027223 -2e-6,-0.0363 0.07921,-0.146958 0.179398,-0.2507552 0.106269,-0.110078 0.184438,-0.1655204 0.231867,-0.1650152 z m -1.695231,1.642896 c 3e-4,-1e-5 3.5e-4,0 6.74e-4,0 0.0035,0 0.0065,0.0028 0.0064,0.0064 0,0.0035 -0.0029,0.0064 -0.0064,0.0064 -0.0035,-2e-6 -0.0064,-0.0029 -0.0064,-0.0064 0,-0.0033 0.0026,-0.0061 0.0058,-0.0064 z" />
</svg>
