<?xml version="1.0" encoding="UTF-8" standalone="no"?>
<svg
   width="64"
   height="64"
   version="1.1"
   viewBox="0 0 16.933 16.933"
   id="svg7"
   sodipodi:docname="accessories-text-editor.svg"
   inkscape:version="1.4.3 (0d15f75042, 2025-12-25)"
   xmlns:inkscape="http://www.inkscape.org/namespaces/inkscape"
   xmlns:sodipodi="http://sodipodi.sourceforge.net/DTD/sodipodi-0.dtd"
   xmlns="http://www.w3.org/2000/svg"
   xmlns:svg="http://www.w3.org/2000/svg"
   xmlns:rdf="http://www.w3.org/1999/02/22-rdf-syntax-ns#"
   xmlns:cc="http://creativecommons.org/ns#"
   xmlns:dc="http://purl.org/dc/elements/1.1/">
  <sodipodi:namedview
     id="namedview7"
     pagecolor="#9c4444"
     bordercolor="#000000"
     borderopacity="0.25"
     inkscape:showpageshadow="2"
     inkscape:pageopacity="0.0"
     inkscape:pagecheckerboard="0"
     inkscape:deskcolor="#d1d1d1"
     inkscape:zoom="4.3531261"
     inkscape:cx="36.984915"
     inkscape:cy="29.863596"
     inkscape:window-width="1226"
     inkscape:window-height="669"
     inkscape:window-x="0"
     inkscape:window-y="133"
     inkscape:window-maximized="0"
     inkscape:current-layer="svg7"
     showgrid="false" />
  <defs
     id="defs2">
    <filter
       style="color-interpolation-filters:sRGB;"
       inkscape:label="Blur"
       id="filter5421"
       x="-0.12256455"
       y="-0.12342654"
       width="1.2451291"
       height="1.2468531">
      <feGaussianBlur
         stdDeviation="0.5 0.5"
         result="blur"
         id="feGaussianBlur5419" />
    </filter>
  </defs>
  <metadata
     id="metadata2">
    <rdf:RDF>
      <cc:Work
         rdf:about="">
        <dc:format>image/svg+xml</dc:format>
        <dc:type
           rdf:resource="http://purl.org/dc/dcmitype/StillImage" />
      </cc:Work>
    </rdf:RDF>
  </metadata>
  <rect
     style="opacity:0.3;fill:none;fill-opacity:0.996424;stroke:#000000;stroke-width:0.955221;stroke-dasharray:none;stroke-opacity:1;filter:url(#filter5421)"
     id="rect1-2-7"
     width="13.687567"
     height="13.591975"
     x="1.6227165"
     y="1.6705122"
     rx="2.8442214"
     ry="2.965905" />
  <rect
     style="fill:none;fill-opacity:1;stroke:{{colors.primary.default.hex}};stroke-width:0.955221;stroke-dasharray:none;stroke-opacity:1"
     id="rect1-2"
     width="13.687567"
     height="13.591975"
     x="1.6227167"
     y="1.6705124"
     rx="2.8442214"
     ry="2.965905" />
  <path
     style="fill:{{colors.primary.default.hex}};fill-opacity:1;stroke:none;stroke-width:0.144463;stroke-dasharray:none;stroke-dashoffset:2.2;stroke-opacity:0.6"
     d="m 4.6704366,11.993456 c -0.039642,-0.0075 -0.108302,-0.03948 -0.1525839,-0.07099 -0.176308,-0.125542 -0.1665794,0.07555 -0.1665794,-3.4431747 0,-3.1088422 0.00187,-3.2231038 0.055204,-3.3269327 C 4.4368379,5.0932161 4.5053042,5.0187499 4.5586239,4.9868714 4.6542593,4.9296928 4.7072027,4.92891 8.480972,4.92891 h 3.825403 l 0.09461,0.067489 c 0.192743,0.1374762 0.180691,-0.093361 0.180691,3.459878 0,3.091486 -0.0023,3.230165 -0.05401,3.326932 -0.02969,0.05552 -0.09816,0.127064 -0.152145,0.158942 -0.09671,0.05711 -0.153431,0.05801 -3.8655978,0.06147 -2.0720932,0.002 -3.799875,-0.0028 -3.8395146,-0.01015 z m 7.0544914,-0.734909 c 0.157846,-0.03977 0.319148,-0.17132 0.39692,-0.323759 0.04803,-0.09414 0.05788,-0.157452 0.049,-0.314733 -0.01358,-0.239903 -0.114447,-0.404936 -0.31098,-0.508691 l -0.127726,-0.06743 H 8.5044622 c -2.8477251,0 -3.2403169,0.0053 -3.3350298,0.04486 -0.3898876,0.162909 -0.4921377,0.656061 -0.203917,0.983496 0.1991046,0.226195 -0.00713,0.213517 3.5098677,0.21579 2.1622249,0.0013 3.1628569,-0.0077 3.2495449,-0.02952 z"
     id="path90" />
</svg>
