<?xml version="1.0" encoding="UTF-8" standalone="no"?>
<svg
   width="64"
   height="64"
   version="1.1"
   viewBox="0 0 16.933 16.933"
   id="svg7"
   sodipodi:docname="abcd.svg"
   inkscape:version="1.4.3 (0d15f75042, 2025-12-25)"
   xmlns:inkscape="http://www.inkscape.org/namespaces/inkscape"
   xmlns:sodipodi="http://sodipodi.sourceforge.net/DTD/sodipodi-0.dtd"
   xmlns="http://www.w3.org/2000/svg"
   xmlns:svg="http://www.w3.org/2000/svg"
   xmlns:rdf="http://www.w3.org/1999/02/22-rdf-syntax-ns#"
   xmlns:cc="http://creativecommons.org/ns#"
   xmlns:dc="http://purl.org/dc/elements/1.1/">
  <sodipodi:namedview
     id="namedview7"
     pagecolor="#9c4444"
     bordercolor="#000000"
     borderopacity="0.25"
     inkscape:showpageshadow="2"
     inkscape:pageopacity="0.0"
     inkscape:pagecheckerboard="0"
     inkscape:deskcolor="#d1d1d1"
     inkscape:zoom="4.3531261"
     inkscape:cx="40.890155"
     inkscape:cy="24.120597"
     inkscape:window-width="1226"
     inkscape:window-height="669"
     inkscape:window-x="94"
     inkscape:window-y="173"
     inkscape:window-maximized="0"
     inkscape:current-layer="svg7"
     showgrid="false" />
  <defs
     id="defs2">
    <filter
       style="color-interpolation-filters:sRGB;"
       inkscape:label="Blur"
       id="filter5421"
       x="-0.12256455"
       y="-0.12342654"
       width="1.2451291"
       height="1.2468531">
      <feGaussianBlur
         stdDeviation="0.5 0.5"
         result="blur"
         id="feGaussianBlur5419" />
    </filter>
  </defs>
  <metadata
     id="metadata2">
    <rdf:RDF>
      <cc:Work
         rdf:about="">
        <dc:format>image/svg+xml</dc:format>
        <dc:type
           rdf:resource="http://purl.org/dc/dcmitype/StillImage" />
      </cc:Work>
    </rdf:RDF>
  </metadata>
  <rect
     style="opacity:0.3;fill:none;fill-opacity:0.996424;stroke:#000000;stroke-width:0.955221;stroke-dasharray:none;stroke-opacity:1;filter:url(#filter5421)"
     id="rect1-2-7"
     width="13.687567"
     height="13.591975"
     x="1.6227165"
     y="1.6705122"
     rx="2.8442214"
     ry="2.965905" />
  <rect
     style="fill:none;fill-opacity:1;stroke:{{colors.primary.default.hex}};stroke-width:0.955221;stroke-dasharray:none;stroke-opacity:1"
     id="rect1-2"
     width="13.687567"
     height="13.591975"
     x="1.6227167"
     y="1.6705124"
     rx="2.8442214"
     ry="2.965905" />
  <path
     id="path60"
     style="fill:{{colors.primary.default.hex}};fill-opacity:1;stroke:none;stroke-width:0.124763;stroke-dasharray:none;stroke-dashoffset:2.2;stroke-opacity:0.6"
     d="M 6.8842764,5.0124263 C 6.8164611,5.0116908 6.7485551,5.0168469 6.6810545,5.0285798 6.1138987,5.1271593 5.6716937,5.5609161 5.5774016,6.1113894 5.464502,6.7704928 5.977236,7.4858216 6.645621,7.6016846 7.1948272,7.6968883 7.7721918,7.3928553 8.0285734,6.8737325 8.1399466,6.6482225 8.1442538,6.6291223 8.1442538,6.3172163 c 0,-0.3000561 -0.00688,-0.3381752 -0.097964,-0.5304614 C 7.8247986,5.3191671 7.3589843,5.0176634 6.8842764,5.0124263 Z M 10.734555,6.2906414 C 10.290698,6.310207 9.8578003,6.6132088 9.7314716,7.0587168 l -0.050022,0.1761258 -0.21677,0.00105 c -0.35872,0.00113 -0.6377648,0.175234 -0.8050755,0.5023263 -0.1192959,0.2332247 -0.1085198,0.4553289 0.036998,0.7420214 L 8.8112393,8.7058688 8.6200018,9.0200816 C 7.9080705,10.189449 7.4394829,10.942876 7.4241179,10.942876 c -0.00986,0 -0.1614638,-0.23096 -0.3366191,-0.513266 C 6.9123437,10.147302 6.6451745,9.7250336 6.4934647,9.4911404 L 6.2172911,9.065937 6.1610141,9.135762 c -0.105898,0.1307784 -1.6789278,2.688999 -1.6789278,2.730473 0,0.01241 0.031381,0.02813 0.069304,0.03543 0.037921,0.0073 1.7351724,0.01544 3.7721155,0.01772 3.5028102,0.004 3.7028232,0.0013 3.6835332,-0.04897 -0.01121,-0.02924 -0.407356,-0.691824 -0.880109,-1.472581 -0.472752,-0.7807547 -0.850444,-1.4287683 -0.839464,-1.4397494 0.01097,-0.010982 0.388307,-0.029733 0.838423,-0.041686 0.849613,-0.022565 0.925622,-0.03411 1.101569,-0.1683099 0.19893,-0.1517378 0.283637,-0.4782987 0.177164,-0.6841878 -0.07068,-0.1366909 -0.289454,-0.3066362 -0.421553,-0.327761 -0.06433,-0.010291 -0.126862,-0.034295 -0.13913,-0.053151 -0.01226,-0.018861 -0.03014,-0.1805427 -0.0396,-0.3590325 -0.01461,-0.275736 -0.0291,-0.3449155 -0.09692,-0.4606304 -0.106505,-0.1817346 -0.360229,-0.4145841 -0.536193,-0.4924216 -0.1395,-0.061708 -0.288714,-0.086769 -0.436667,-0.080247 z" />
</svg>
