<?xml version="1.0" encoding="UTF-8" standalone="no"?>
<svg
   width="64"
   height="64"
   version="1.1"
   viewBox="0 0 16.933 16.933"
   id="svg7"
   sodipodi:docname="accessories-text-editor.svg"
   inkscape:version="1.4.3 (0d15f75042, 2025-12-25)"
   xmlns:inkscape="http://www.inkscape.org/namespaces/inkscape"
   xmlns:sodipodi="http://sodipodi.sourceforge.net/DTD/sodipodi-0.dtd"
   xmlns="http://www.w3.org/2000/svg"
   xmlns:svg="http://www.w3.org/2000/svg"
   xmlns:rdf="http://www.w3.org/1999/02/22-rdf-syntax-ns#"
   xmlns:cc="http://creativecommons.org/ns#"
   xmlns:dc="http://purl.org/dc/elements/1.1/">
  <sodipodi:namedview
     id="namedview7"
     pagecolor="#9c4444"
     bordercolor="#000000"
     borderopacity="0.25"
     inkscape:showpageshadow="2"
     inkscape:pageopacity="0.0"
     inkscape:pagecheckerboard="0"
     inkscape:deskcolor="#d1d1d1"
     inkscape:zoom="4.3531261"
     inkscape:cx="41.809035"
     inkscape:cy="22.971997"
     inkscape:window-width="1226"
     inkscape:window-height="669"
     inkscape:window-x="474"
     inkscape:window-y="225"
     inkscape:window-maximized="0"
     inkscape:current-layer="svg7"
     showgrid="false" />
  <defs
     id="defs2">
    <filter
       style="color-interpolation-filters:sRGB;"
       inkscape:label="Blur"
       id="filter5421"
       x="-0.12256455"
       y="-0.12342654"
       width="1.2451291"
       height="1.2468531">
      <feGaussianBlur
         stdDeviation="0.5 0.5"
         result="blur"
         id="feGaussianBlur5419" />
    </filter>
  </defs>
  <metadata
     id="metadata2">
    <rdf:RDF>
      <cc:Work
         rdf:about="">
        <dc:format>image/svg+xml</dc:format>
        <dc:type
           rdf:resource="http://purl.org/dc/dcmitype/StillImage" />
      </cc:Work>
    </rdf:RDF>
  </metadata>
  <rect
     style="opacity:0.3;fill:none;fill-opacity:0.996424;stroke:#000000;stroke-width:0.955221;stroke-dasharray:none;stroke-opacity:1;filter:url(#filter5421)"
     id="rect1-2-7"
     width="13.687567"
     height="13.591975"
     x="1.6227165"
     y="1.6705122"
     rx="2.8442214"
     ry="2.965905" />
  <rect
     style="fill:none;fill-opacity:1;stroke:{{colors.primary.default.hex}};stroke-width:0.955221;stroke-dasharray:none;stroke-opacity:1"
     id="rect1-2"
     width="13.687567"
     height="13.591975"
     x="1.6227167"
     y="1.6705124"
     rx="2.8442214"
     ry="2.965905" />
  <path
     id="path5"
     style="fill:{{colors.primary.default.hex}};fill-opacity:1;stroke:none;stroke-width:0.13133;stroke-dasharray:none;stroke-opacity:0.6"
     d="m 10.006477,4.3872944 c -0.018649,0 -0.1153854,0.064783 -0.1845744,0.1236461 -0.074825,0.06366 -0.095835,0.058802 -0.1182702,-0.027777 L 9.6874999,4.4222369 9.577294,4.5230355 C 9.459869,4.6303546 9.4215497,4.6315324 9.4196001,4.5275217 9.4187596,4.4822523 9.4038747,4.4927466 9.2811699,4.6251844 l -0.1370828,0.1482832 -0.027327,-0.06496 -0.027327,-0.064959 -0.069888,0.085566 C 8.8381321,4.9507384 8.7263743,5.210419 8.7256636,5.4118579 c -3.152e-4,0.100916 0.0098,0.137031 0.064062,0.2262369 0.037128,0.061035 0.09482,0.1235943 0.1357425,0.1469419 L 8.9966994,5.8253556 9.163801,5.7039495 C 9.544565,5.4278793 9.9345045,5.2171207 10.39444,5.0377833 c 0.410056,-0.1598887 0.408998,-0.1507332 -0.0098,0.081535 -0.5107563,0.2832313 -0.9361488,0.5763665 -1.1410403,0.786229 -0.087021,0.089129 -0.087774,0.090802 -0.064513,0.1684456 0.054665,0.1824575 0.2821506,0.3521619 0.5662643,0.4220097 0.078201,0.01923 0.2084661,0.035484 0.289405,0.036287 l 0.14739,0.00136 -0.03719,-0.040768 c -0.03173,-0.035055 -0.03292,-0.043873 -0.0081,-0.059582 0.01597,-0.010095 0.05691,-0.018197 0.09094,-0.01837 0.07097,-3.152e-4 0.268202,-0.035693 0.283133,-0.050624 0.0055,-0.0055 -0.0077,-0.022534 -0.02866,-0.038079 -0.05065,-0.03739 -0.02835,-0.055964 0.130813,-0.108862 0.07104,-0.023613 0.151423,-0.055624 0.178749,-0.071233 l 0.04973,-0.028223 -0.04973,-0.00136 c -0.05059,-0.00107 -0.115562,-0.031076 -0.09856,-0.045694 0.0051,-0.00443 0.06299,-0.036258 0.128573,-0.070783 0.06559,-0.034525 0.145958,-0.084719 0.17875,-0.1115515 l 0.05959,-0.048831 -0.06316,-8.93e-4 c -0.03487,-3.678e-4 -0.06845,-0.00836 -0.07437,-0.017919 -0.0059,-0.00957 0.05126,-0.063569 0.12723,-0.1200616 0.07597,-0.056494 0.143623,-0.1114064 0.150078,-0.1218545 0.0067,-0.010722 -0.01922,-0.019261 -0.05914,-0.019261 -0.0389,0 -0.07078,-0.00663 -0.07078,-0.015231 0,-0.00862 0.04531,-0.060446 0.100799,-0.1146865 0.05548,-0.05424 0.10991,-0.1151323 0.120959,-0.1352937 0.01727,-0.031519 0.01459,-0.034609 -0.02104,-0.023295 -0.0491,0.015584 -0.120959,-0.00355 -0.120959,-0.032255 0,-0.011134 0.05139,-0.070408 0.114239,-0.1317099 l 0.114239,-0.1115506 -0.07973,-0.0112 c -0.07098,-0.00987 -0.07842,-0.016114 -0.07257,-0.060479 0.0037,-0.027323 0.03249,-0.096726 0.06452,-0.15411 l 0.05823,-0.1043823 -0.154111,-0.00136 c -0.08481,-7.617e-4 -0.170555,-0.00785 -0.190396,-0.015678 -0.03417,-0.013472 -0.03394,-0.015846 0.0046,-0.050624 0.02232,-0.020193 0.03585,-0.044737 0.03001,-0.054207 -0.01659,-0.026841 -0.142592,-0.020128 -0.281787,0.014785 -0.06975,0.017488 -0.132351,0.025796 -0.139326,0.018815 -0.0068,-0.00697 -0.0028,-0.038857 0.0094,-0.071232 0.01222,-0.032375 0.01642,-0.059137 0.0089,-0.059137 -0.0074,0 -0.07836,0.018007 -0.157247,0.039872 -0.07889,0.021861 -0.148057,0.039872 -0.153662,0.039872 -0.02365,0 -0.0075,-0.069444 0.02464,-0.105727 C 10.38367,4.382537 10.38327,4.381635 10.32511,4.394899 10.29233,4.402389 10.212139,4.4348 10.146809,4.466578 10.020206,4.52816 9.9864205,4.519756 10.007035,4.432083 c 0.0059,-0.024593 0.0058,-0.0448 -4.73e-4,-0.0448 z m -3.3057468,0.00136 c -0.016267,7.88e-4 -0.012519,0.015457 0.00583,0.043456 0.051319,0.078326 0.012813,0.1046982 -0.1007982,0.068543 -0.053204,-0.016927 -0.1279523,-0.036963 -0.1662088,-0.044349 -0.056884,-0.010985 -0.065114,-0.00866 -0.044799,0.012542 0.02681,0.027994 0.03477,0.1173143 0.010304,0.1169267 -0.00819,-1.296e-4 -0.064424,-0.01343 -0.1245425,-0.029568 -0.1126874,-0.030247 -0.2782041,-0.040152 -0.2782041,-0.016576 0,0.00733 0.015,0.030119 0.03315,0.050173 0.018148,0.020056 0.026483,0.04294 0.01837,0.051071 -0.00811,0.00813 -0.094742,0.018136 -0.1921894,0.021951 l -0.1769573,0.00672 0.039872,0.056447 c 0.038567,0.054162 0.099006,0.2019952 0.099006,0.242365 0,0.010722 -0.035507,0.015822 -0.079295,0.011647 -0.043722,-0.00418 -0.079742,1.862e-4 -0.079742,0.00941 0,0.00922 0.055433,0.069465 0.1231978,0.1339505 0.067767,0.064484 0.1162795,0.1238457 0.1079671,0.1321579 -0.00831,0.00831 -0.049357,0.015231 -0.091391,0.015231 h -0.076613 l 0.038976,0.054656 c 0.021375,0.030013 0.078691,0.087008 0.1272303,0.1267817 0.09716,0.079616 0.09829,0.1075188 0.00447,0.1075188 h -0.061824 l 0.047936,0.051519 c 0.0265,0.028317 0.09099,0.082764 0.14291,0.1209581 0.051919,0.038193 0.094079,0.07781 0.094079,0.087808 0,0.01 -0.032084,0.01837 -0.071679,0.01837 -0.097782,0 -0.070993,0.028551 0.1308138,0.1397742 0.087922,0.048456 0.156893,0.096901 0.1532143,0.1079663 -0.00368,0.011066 -0.033069,0.025368 -0.064958,0.03136 l -0.05779,0.01075 0.059582,0.030911 c 0.032791,0.017115 0.1217841,0.051701 0.1975657,0.076605 l 0.1375341,0.045248 -0.046143,0.037631 c -0.025412,0.020577 -0.041851,0.041477 -0.036736,0.046591 0.016059,0.016059 0.2165678,0.049279 0.2974682,0.049279 0.084783,0 0.1181226,0.039036 0.076158,0.089599 -0.021281,0.02564 -0.00771,0.029418 0.1021425,0.029119 0.383623,-0.00107 0.7250726,-0.1735539 0.8453682,-0.426929 l 0.047495,-0.09901 -0.155902,-0.1491821 C 7.6499107,5.7760975 7.4955744,5.6487902 7.3924407,5.5753915 7.1889346,5.4305576 6.682729,5.1237981 6.4857009,5.0257028 6.3294222,4.9478953 6.3079755,4.9151141 6.4440381,4.9620876 6.9680718,5.1430032 7.5546995,5.4514346 7.9242093,5.7407012 l 0.1231983,0.096766 0.084671,-0.064512 C 8.3519235,5.6052745 8.3736024,5.362712 8.2001732,5.0136071 8.1028508,4.8177011 7.9325118,4.6046088 7.930929,4.676716 7.9287489,4.7755366 7.8880718,4.7625004 7.74994,4.6189247 L 7.6133014,4.4769106 7.6128286,4.5400777 c -3.151e-4,0.034879 -0.00996,0.069481 -0.021491,0.076608 C 7.5798047,4.6238202 7.5191871,4.5819052 7.4569389,4.523504 7.3477075,4.4210205 7.34351,4.4191047 7.3368765,4.4670555 7.3229135,4.568005 7.298085,4.5690344 7.1711187,4.475571 7.037352,4.3770977 7.0149863,4.3693224 7.0300008,4.426739 7.0356808,4.448438 7.0353808,4.47984 7.0291078,4.496178 7.0197078,4.52065 6.9920858,4.513721 6.8732058,4.456754 6.7756228,4.409987 6.7216444,4.387631 6.7007265,4.388656 Z m 1.7937669,2.1915985 c -0.3001604,0.00509 -0.6619966,0.1733361 -0.8104202,0.3875122 -0.059134,0.08533 -0.0682,0.1927136 -0.023295,0.2795479 0.068911,0.1332586 0.3086625,0.276432 0.5501368,0.3288275 0.1730404,0.037548 0.4645671,0.037194 0.6491425,-8.931e-4 C 9.2542237,7.4938975 9.4592906,7.2890997 9.3730129,7.0631843 9.287272,6.8386741 8.9277917,6.6198627 8.5854399,6.5838307 c -0.029419,-0.00309 -0.059891,-0.00412 -0.090943,-0.00359 z M 7.2069627,6.7567537 C 7.0969889,6.7564647 6.973056,6.7640188 6.9018794,6.7791533 6.5192767,6.8604843 6.239269,7.1058445 6.1093786,7.4739918 6.0757907,7.5691913 6.0392771,7.8737496 6.0560674,7.9175057 6.1033838,8.0408113 6.6460083,7.6745489 7.1290124,7.1935477 7.3285741,6.9948134 7.4605707,6.8127963 7.4282721,6.7804975 7.4129249,6.7651582 7.3169382,6.7570289 7.2069627,6.7567531 Z m 2.5477411,0.019261 c -0.035405,4.991e-4 -0.071287,0.00244 -0.1075181,0.00583 -0.1244543,0.011665 -0.1469427,0.019251 -0.1469427,0.050174 0,0.1606 0.850577,0.9331086 1.213614,1.1020646 0.05921,0.027555 0.116749,0.046947 0.127679,0.043456 0.03337,-0.010654 0.03404,-0.2646283 8.94e-4,-0.396476 C 10.717217,7.0827911 10.285803,6.7686148 9.7547074,6.7760179 Z M 9.5029314,7.6666274 C 9.2889874,7.6655504 9.0826888,7.7447107 8.9268112,7.9152633 8.8149333,8.0376778 8.7510139,8.1836598 8.7225261,8.3816252 8.6780195,8.6909194 8.8098653,9.0584815 9.0535939,9.3058363 9.192913,9.4472305 9.3150638,9.5248752 9.500243,9.5898652 9.6061729,9.6270339 9.6613444,9.6341903 9.8080155,9.628838 10.015019,9.621238 10.156786,9.567715 10.290952,9.4465047 10.584586,9.1812244 10.6465,8.7021743 10.439687,8.2933707 10.2375,7.8937218 9.8595051,7.6684161 9.5029314,7.6666337 Z M 7.522799,7.7194903 c -0.1447115,4.99e-4 -0.2045677,0.01052 -0.3140436,0.052863 -0.6102096,0.2360193 -0.9243676,0.9662589 -0.648247,1.5074986 0.095291,0.1867858 0.3110689,0.3498204 0.5214647,0.3942347 0.045722,0.00964 0.1404496,0.012991 0.210557,0.00768 C 8.1601883,9.615251 8.6430323,8.4599439 8.035304,7.9045138 7.8861187,7.7681685 7.7485636,7.7187125 7.522799,7.7194921 Z m 3.452688,0.5272861 c -0.01548,2.889e-4 -0.02964,0.00792 -0.05241,0.022849 -0.07451,0.048815 -0.111101,0.198477 -0.111101,0.452474 0,0.4730074 0.128547,0.9828724 0.288507,1.1428313 0.0676,0.067606 0.115469,0.058654 0.197117,-0.036732 0.152501,-0.1781712 0.229,-0.4059245 0.229367,-0.6840868 2.92e-4,-0.2207975 -0.04606,-0.3865318 -0.155003,-0.5550641 -0.08242,-0.1275132 -0.234074,-0.2727597 -0.335549,-0.3216591 -0.02877,-0.013872 -0.04545,-0.020921 -0.06092,-0.020608 z m -5.0143943,0.022399 c -0.027618,-0.00242 -0.058007,0.01426 -0.1290223,0.063167 -0.2794867,0.192489 -0.4260417,0.4793334 -0.4260417,0.8341644 0,0.2845442 0.078602,0.5174114 0.2316121,0.6867749 0.039143,0.04332 0.086227,0.078853 0.1043832,0.078853 0.1971092,0 0.3969876,-0.66667 0.3763145,-1.2552804 -0.00873,-0.2486296 -0.045214,-0.3609761 -0.1290223,-0.39916 -0.00999,-0.00455 -0.019016,-0.0077 -0.028225,-0.00852 z M 8.5164488,9.53565 C 8.2663824,9.53976 8.0134478,9.633897 7.8162346,9.8263983 7.6757787,9.9634969 7.5748102,10.173849 7.5590868,10.361749 c -0.039568,0.472822 0.3337659,0.894136 0.8579072,0.968117 0.1036325,0.01462 0.3136306,-0.0094 0.4372423,-0.05017 C 9.3896321,11.103457 9.6497564,10.54082 9.4151246,10.066074 9.2418854,9.7155427 8.8819291,9.5295768 8.5164488,9.535639 Z m 2.1862092,0.3355464 c -0.163858,0.00443 -0.355283,0.1253596 -0.607927,0.3776596 -0.204689,0.204408 -0.2401076,0.250416 -0.3225554,0.418425 -0.161518,0.329145 -0.2145981,0.651401 -0.1357424,0.824758 0.042888,0.09427 0.076409,0.124662 0.1765102,0.16038 0.1795928,0.0641 0.4503416,0.01266 0.6890136,-0.130813 0.126797,-0.07623 0.364426,-0.317047 0.438587,-0.444858 0.09548,-0.164548 0.135182,-0.324276 0.136188,-0.548344 0.0013,-0.318054 -0.08302,-0.5591615 -0.218173,-0.6236067 -0.0498,-0.023754 -0.101281,-0.035116 -0.155901,-0.033601 z M 6.2487044,10.01276 c -0.055489,3.68e-4 -0.1053804,0.01125 -0.1469415,0.0327 -0.2203266,0.11374 -0.237747,0.574799 -0.037631,0.994099 0.1214263,0.254428 0.4378364,0.515349 0.7154453,0.590008 0.142542,0.03833 0.2865072,0.03667 0.393787,-0.0046 0.1215863,-0.04659 0.1805067,-0.157557 0.1800929,-0.339525 -0.00107,-0.470654 -0.3248758,-0.956928 -0.7920528,-1.189375 -0.1120386,-0.05574 -0.2202209,-0.08398 -0.3126993,-0.08333 z m 2.307616,1.639656 c -0.364744,-9.6e-5 -0.5817258,0.04134 -0.803701,0.153215 -0.2416456,0.121793 -0.2533511,0.208568 -0.05376,0.404091 0.1435205,0.140593 0.3871453,0.270818 0.5891118,0.315386 0.3368733,0.07435 0.7332593,-0.05484 1.0138105,-0.33017 0.2046769,-0.200857 0.198045,-0.304141 -0.027327,-0.413945 -0.2059059,-0.100322 -0.3614061,-0.12848 -0.7181343,-0.128577 z" />
</svg>
