<?xml version="1.0" encoding="UTF-8" standalone="no"?>
<svg
   width="64"
   height="64"
   version="1.1"
   viewBox="0 0 16.933 16.933"
   id="svg7"
   sodipodi:docname="abcd.svg"
   inkscape:version="1.4.3 (0d15f75042, 2025-12-25)"
   xmlns:inkscape="http://www.inkscape.org/namespaces/inkscape"
   xmlns:sodipodi="http://sodipodi.sourceforge.net/DTD/sodipodi-0.dtd"
   xmlns="http://www.w3.org/2000/svg"
   xmlns:svg="http://www.w3.org/2000/svg"
   xmlns:rdf="http://www.w3.org/1999/02/22-rdf-syntax-ns#"
   xmlns:cc="http://creativecommons.org/ns#"
   xmlns:dc="http://purl.org/dc/elements/1.1/">
  <sodipodi:namedview
     id="namedview7"
     pagecolor="#9c4444"
     bordercolor="#000000"
     borderopacity="0.25"
     inkscape:showpageshadow="2"
     inkscape:pageopacity="0.0"
     inkscape:pagecheckerboard="0"
     inkscape:deskcolor="#d1d1d1"
     inkscape:zoom="4.3531261"
     inkscape:cx="43.417074"
     inkscape:cy="20.674797"
     inkscape:window-width="1226"
     inkscape:window-height="669"
     inkscape:window-x="146"
     inkscape:window-y="136"
     inkscape:window-maximized="0"
     inkscape:current-layer="svg7"
     showgrid="false" />
  <defs
     id="defs2">
    <filter
       style="color-interpolation-filters:sRGB;"
       inkscape:label="Blur"
       id="filter5421"
       x="-0.12256455"
       y="-0.12342654"
       width="1.2451291"
       height="1.2468531">
      <feGaussianBlur
         stdDeviation="0.5 0.5"
         result="blur"
         id="feGaussianBlur5419" />
    </filter>
  </defs>
  <metadata
     id="metadata2">
    <rdf:RDF>
      <cc:Work
         rdf:about="">
        <dc:format>image/svg+xml</dc:format>
        <dc:type
           rdf:resource="http://purl.org/dc/dcmitype/StillImage" />
      </cc:Work>
    </rdf:RDF>
  </metadata>
  <rect
     style="opacity:0.3;fill:none;fill-opacity:0.996424;stroke:#000000;stroke-width:0.955221;stroke-dasharray:none;stroke-opacity:1;filter:url(#filter5421)"
     id="rect1-2-7"
     width="13.687567"
     height="13.591975"
     x="1.6227165"
     y="1.6705122"
     rx="2.8442214"
     ry="2.965905" />
  <rect
     style="fill:none;fill-opacity:1;stroke:{{colors.primary.default.hex}};stroke-width:0.955221;stroke-dasharray:none;stroke-opacity:1"
     id="rect1-2"
     width="13.687567"
     height="13.591975"
     x="1.6227167"
     y="1.6705124"
     rx="2.8442214"
     ry="2.965905" />
  <path
     style="color:#444444;fill:{{colors.primary.default.hex}};fill-opacity:1;stroke:none;stroke-width:0.245016;stroke-dasharray:none;stroke-opacity:0.3"
     class="ColorScheme-Text"
     d="m 7.4788289,5.0096484 c -0.197534,0 -0.1972603,2.626e-4 -0.3848447,0.1996557 L 6.5586738,5.9973198 H 5.3057583 c -0.4345763,0 -0.7899455,0.324038 -0.7899455,0.7465405 v 4.4117287 c 0,0.422507 0.3553692,0.767762 0.7899455,0.767762 h 6.3214837 c 0.434575,0 0.789944,-0.345255 0.789944,-0.767762 V 6.7438603 c 0,-0.4225025 -0.355369,-0.7465405 -0.789944,-0.7465405 H 10.374328 L 9.8322647,5.2015882 C 9.6519274,5.0099806 9.6517073,5.0096484 9.4541723,5.0096484 Z M 11.670646,6.491156 a 0.24691793,0.24691793 0 0 1 0.0058,0 0.24691793,0.24691793 0 0 1 0.246898,0.246918 0.24691793,0.24691793 0 0 1 -0.246952,0.246917 0.24691793,0.24691793 0 0 1 -0.24691,-0.246917 0.24691793,0.24691793 0 0 1 0.241132,-0.246918 z M 8.4366,6.984991 a 1.9753434,1.9753434 0 0 1 0.029901,0 1.9753434,1.9753434 0 0 1 1.975343,1.9753449 A 1.9753434,1.9753434 0 0 1 8.466502,10.935679 1.9753434,1.9753434 0 0 1 6.491159,8.9603359 1.9753434,1.9753434 0 0 1 8.4366007,6.984991 Z M 8.44238,7.9726634 A 0.98767168,0.98767168 0 0 0 7.4788204,8.9603359 0.98767168,0.98767168 0 0 0 8.4664927,9.948006 0.98767168,0.98767168 0 0 0 9.4541649,8.9603359 0.98767168,0.98767168 0 0 0 8.4664927,7.9726634 a 0.98767168,0.98767168 0 0 0 -0.024113,0 z"
     id="path5-3" />
</svg>
