<?xml version="1.0" encoding="UTF-8" standalone="no"?>
<svg
   width="64"
   height="64"
   version="1.1"
   viewBox="0 0 16.933 16.933"
   id="svg7"
   sodipodi:docname="abcd.svg"
   inkscape:version="1.4.3 (0d15f75042, 2025-12-25)"
   xmlns:inkscape="http://www.inkscape.org/namespaces/inkscape"
   xmlns:sodipodi="http://sodipodi.sourceforge.net/DTD/sodipodi-0.dtd"
   xmlns="http://www.w3.org/2000/svg"
   xmlns:svg="http://www.w3.org/2000/svg"
   xmlns:rdf="http://www.w3.org/1999/02/22-rdf-syntax-ns#"
   xmlns:cc="http://creativecommons.org/ns#"
   xmlns:dc="http://purl.org/dc/elements/1.1/">
  <sodipodi:namedview
     id="namedview7"
     pagecolor="#9c4444"
     bordercolor="#000000"
     borderopacity="0.25"
     inkscape:showpageshadow="2"
     inkscape:pageopacity="0.0"
     inkscape:pagecheckerboard="0"
     inkscape:deskcolor="#d1d1d1"
     inkscape:zoom="4.3531261"
     inkscape:cx="39.282115"
     inkscape:cy="25.498917"
     inkscape:window-width="1226"
     inkscape:window-height="669"
     inkscape:window-x="50"
     inkscape:window-y="194"
     inkscape:window-maximized="0"
     inkscape:current-layer="svg7"
     showgrid="false" />
  <defs
     id="defs2">
    <filter
       style="color-interpolation-filters:sRGB;"
       inkscape:label="Blur"
       id="filter5421"
       x="-0.12256455"
       y="-0.12342654"
       width="1.2451291"
       height="1.2468531">
      <feGaussianBlur
         stdDeviation="0.5 0.5"
         result="blur"
         id="feGaussianBlur5419" />
    </filter>
  </defs>
  <metadata
     id="metadata2">
    <rdf:RDF>
      <cc:Work
         rdf:about="">
        <dc:format>image/svg+xml</dc:format>
        <dc:type
           rdf:resource="http://purl.org/dc/dcmitype/StillImage" />
      </cc:Work>
    </rdf:RDF>
  </metadata>
  <rect
     style="opacity:0.3;fill:none;fill-opacity:0.996424;stroke:#000000;stroke-width:0.955221;stroke-dasharray:none;stroke-opacity:1;filter:url(#filter5421)"
     id="rect1-2-7"
     width="13.687567"
     height="13.591975"
     x="1.6227165"
     y="1.6705122"
     rx="2.8442214"
     ry="2.965905" />
  <rect
     style="fill:none;fill-opacity:1;stroke:{{colors.primary.default.hex}};stroke-width:0.955221;stroke-dasharray:none;stroke-opacity:1"
     id="rect1-2"
     width="13.687567"
     height="13.591975"
     x="1.6227167"
     y="1.6705124"
     rx="2.8442214"
     ry="2.965905" />
  <path
     id="path5"
     style="fill:{{colors.primary.default.hex}};fill-opacity:1;stroke:none;stroke-width:0.130312;stroke-dasharray:none;stroke-opacity:0.6"
     d="m 11.6923,5.6248681 c -0.16407,9.785e-4 -0.328103,0.045283 -0.471646,0.1306216 -0.20291,0.1206291 -0.37816,0.3538836 -0.435655,0.5796334 -0.0307,0.120551 -0.03037,0.338283 4.2e-4,0.45866 0.08938,0.350068 0.39771,0.6366099 0.754045,0.7006073 0.123172,0.022122 0.304638,0.0067 0.444928,-0.03785 0.468629,-0.14881 0.743857,-0.6443243 0.62231,-1.1195616 -0.08095,-0.3165183 -0.312297,-0.5639823 -0.623051,-0.6664675 -0.09421,-0.031068 -0.192856,-0.046238 -0.2913,-0.045644 z m -6.4631737,0.00147 C 5.1325637,5.6280506 5.0345526,5.6430349 4.9493292,5.6708766 4.299865,5.8830237 4.0840811,6.6879995 4.541137,7.1930625 c 0.1395247,0.1541798 0.2984116,0.2446026 0.5187757,0.2953829 0.1201533,0.027687 0.317678,0.016989 0.4519805,-0.02449 0.2763406,-0.085353 0.5207874,-0.3225918 0.6156289,-0.5970743 0.052757,-0.1526874 0.052757,-0.4525508 0,-0.6052387 C 6.0313195,5.9832187 5.7883317,5.7502249 5.5015028,5.6612307 5.420988,5.6362492 5.3256915,5.624684 5.2291263,5.6263493 Z m 1.1076872,1.2691082 c -0.00396,0 -0.00741,0.00948 -0.00741,0.020784 0,0.043777 -0.1254635,0.2770279 -0.1948193,0.3621778 l -0.072732,0.089432 0.2716337,0.1603081 c 0.1495305,0.088126 0.3287798,0.1944199 0.3981736,0.2363809 0.069394,0.041961 0.127198,0.076548 0.128395,0.076814 0.00116,2.627e-4 0.027535,-0.053267 0.058631,-0.1187466 C 6.9497782,7.6571234 7.0118959,7.5506999 7.0567261,7.485852 7.1015537,7.421006 7.1354535,7.3652672 7.1320544,7.3619099 7.1211211,7.3511186 6.344295,6.8954559 6.3368168,6.8954564 Z m 4.2604185,0 c -0.0067,0 -0.7854068,0.4561552 -0.7963482,0.4664531 -0.00334,0.00319 0.030496,0.059096 0.075329,0.1239419 0.044836,0.064848 0.1069063,0.1715566 0.1380452,0.2371225 l 0.05677,0.1191184 0.04935,-0.030057 c 0.02717,-0.016547 0.191293,-0.1132555 0.364778,-0.2148605 0.173481,-0.101605 0.331568,-0.1948428 0.351044,-0.2070652 l 0.03525,-0.02189 -0.0705,-0.086833 C 10.735172,7.200595 10.603556,6.9556474 10.603556,6.914004 c 0,-0.010205 -0.0028,-0.018552 -0.0063,-0.018552 z M 8.466466,6.9666997 C 8.169271,6.9668345 8.0363355,6.9954961 7.8040808,7.1091959 7.2855796,7.3630252 6.960235,7.8854861 6.9602348,8.4647668 c 0,0.7220086 0.5003023,1.3330907 1.214559,1.4835944 0.1364078,0.028757 0.5257398,0.019826 0.6505109,-0.014849 C 9.112283,9.8537633 9.335877,9.7260753 9.5314774,9.530152 9.7282292,9.3330754 9.8611783,9.1017316 9.9348451,8.8276892 9.9801221,8.6592539 9.9775248,8.2585705 9.9300989,8.0851499 9.7840213,7.5520687 9.3801691,7.1472318 8.8501699,7.0023247 8.738711,6.9718503 8.6803863,6.9666023 8.4664693,6.9667003 Z M 6.8618972,9.0874512 6.8125428,9.1175083 C 6.7853581,9.1340518 6.6212519,9.2307601 6.4477673,9.3323653 6.2742831,9.4339706 6.1161978,9.5272083 6.0967215,9.5394302 l -0.035253,0.021896 0.073102,0.089802 c 0.06944,0.085256 0.1948196,0.3183713 0.1948196,0.3621768 0,0.01131 0.00278,0.02079 0.0063,0.02079 0.00663,0 0.7854047,-0.4561542 0.7963466,-0.466452 0.0034,-0.00324 -0.030501,-0.059093 -0.07533,-0.1239427 C 7.0118873,9.3788407 6.9498103,9.2721325 6.9186725,9.2065657 Z m 3.2091368,0 -0.05678,0.1191176 c -0.031132,0.065566 -0.093833,0.1732469 -0.1395293,0.2393487 -0.045694,0.066103 -0.076143,0.1231831 -0.067543,0.1265407 0.0086,0.00337 0.1859109,0.1078174 0.3940923,0.2322981 0.208181,0.1244804 0.383875,0.2270477 0.390381,0.2278457 0.0066,7.89e-4 0.01188,-0.0064 0.01188,-0.01596 0,-0.043348 0.127539,-0.2831869 0.194076,-0.3647758 l 0.07384,-0.090546 -0.03524,-0.022271 C 10.816732,9.5266657 10.65865,9.4332227 10.485166,9.3316207 10.31168,9.2300183 10.147577,9.1335132 10.120389,9.1171339 Z m 1.612361,0.3347178 c -0.01928,1.35e-5 -0.03786,9.476e-4 -0.05566,0.00262 -0.371256,0.034503 -0.698912,0.2859479 -0.819726,0.629359 -0.04812,0.136782 -0.0598,0.393177 -0.0245,0.531023 0.09405,0.367107 0.393034,0.642943 0.769999,0.709883 0.120611,0.0214 0.302467,0.0044 0.43788,-0.04082 0.553634,-0.184631 0.806226,-0.817562 0.532877,-1.3355328 C 12.44848,9.7750992 12.264986,9.5980735 12.117563,9.5261057 11.985149,9.461462 11.818379,9.4221042 11.683394,9.4222025 Z M 5.2287558,9.423328 C 5.2098366,9.4235371 5.1907815,9.4244585 5.17198,9.42595 4.9334316,9.4449861 4.7443733,9.5340441 4.5708244,9.7094542 4.4426812,9.8389714 4.370154,9.966509 4.3262799,10.138056 c -0.1347903,0.527026 0.2201415,1.065797 0.7622067,1.156298 0.1187791,0.01982 0.1775132,0.0187 0.3135666,-0.0057 0.1929074,-0.03439 0.3439684,-0.115802 0.495026,-0.26718 0.1956975,-0.196114 0.2746023,-0.387394 0.2746023,-0.665726 0,-0.219936 -0.056235,-0.3840881 -0.1944485,-0.5666467 C 5.8050164,9.5617639 5.512522,9.4203423 5.2287558,9.4233465 Z" />
</svg>
