<?xml version="1.0" encoding="UTF-8" standalone="no"?>
<svg
   width="64"
   height="64"
   version="1.1"
   viewBox="0 0 16.933 16.933"
   id="svg7"
   sodipodi:docname="accessories-text-editor.svg"
   inkscape:version="1.4.3 (0d15f75042, 2025-12-25)"
   xmlns:inkscape="http://www.inkscape.org/namespaces/inkscape"
   xmlns:sodipodi="http://sodipodi.sourceforge.net/DTD/sodipodi-0.dtd"
   xmlns="http://www.w3.org/2000/svg"
   xmlns:svg="http://www.w3.org/2000/svg"
   xmlns:rdf="http://www.w3.org/1999/02/22-rdf-syntax-ns#"
   xmlns:cc="http://creativecommons.org/ns#"
   xmlns:dc="http://purl.org/dc/elements/1.1/">
  <sodipodi:namedview
     id="namedview7"
     pagecolor="#9c4444"
     bordercolor="#000000"
     borderopacity="0.25"
     inkscape:showpageshadow="2"
     inkscape:pageopacity="0.0"
     inkscape:pagecheckerboard="0"
     inkscape:deskcolor="#d1d1d1"
     inkscape:zoom="4.3531261"
     inkscape:cx="43.417074"
     inkscape:cy="20.674797"
     inkscape:window-width="1226"
     inkscape:window-height="669"
     inkscape:window-x="474"
     inkscape:window-y="225"
     inkscape:window-maximized="0"
     inkscape:current-layer="svg7"
     showgrid="false" />
  <defs
     id="defs2">
    <filter
       style="color-interpolation-filters:sRGB;"
       inkscape:label="Blur"
       id="filter5421"
       x="-0.12256455"
       y="-0.12342654"
       width="1.2451291"
       height="1.2468531">
      <feGaussianBlur
         stdDeviation="0.5 0.5"
         result="blur"
         id="feGaussianBlur5419" />
    </filter>
  </defs>
  <metadata
     id="metadata2">
    <rdf:RDF>
      <cc:Work
         rdf:about="">
        <dc:format>image/svg+xml</dc:format>
        <dc:type
           rdf:resource="http://purl.org/dc/dcmitype/StillImage" />
      </cc:Work>
    </rdf:RDF>
  </metadata>
  <rect
     style="opacity:0.3;fill:none;fill-opacity:0.996424;stroke:#000000;stroke-width:0.955221;stroke-dasharray:none;stroke-opacity:1;filter:url(#filter5421)"
     id="rect1-2-7"
     width="13.687567"
     height="13.591975"
     x="1.6227165"
     y="1.6705122"
     rx="2.8442214"
     ry="2.965905" />
  <rect
     style="fill:none;fill-opacity:1;stroke:{{colors.primary.default.hex}};stroke-width:0.955221;stroke-dasharray:none;stroke-opacity:1"
     id="rect1-2"
     width="13.687567"
     height="13.591975"
     x="1.6227167"
     y="1.6705124"
     rx="2.8442214"
     ry="2.965905" />
  <path
     style="color:#6e6e6e;fill:{{colors.primary.default.hex}};fill-opacity:1;stroke:none;stroke-width:0.124763;stroke-dasharray:none;stroke-opacity:0.6"
     class="ColorScheme-Text"
     d="m 6.4281329,4.4178227 c -1.0191839,0 -1.0191839,1.0796471 -1.0191839,1.0796471 v 5.9380592 c 0,1.079649 0.9648109,1.077704 1.0191839,1.079649 h 4.0767351 c 0,0 1.019183,-0.0021 1.019183,-1.079649 V 5.4974698 c 0,-1.0796471 -1.019183,-1.0796471 -1.019183,-1.0796471 z m 2.0383677,1.0796471 c 0.2823494,0 0.509591,0.2426239 0.509591,0.5398237 0,0.2972485 -0.2272416,0.5398239 -0.509591,0.5398239 -0.2824362,0 -0.5095921,-0.2425754 -0.5095921,-0.5398239 0,-0.2971998 0.2271559,-0.5398237 0.5095921,-0.5398237 z m 0,1.619471 c 1.125739,0 2.0383674,0.9667703 2.0383674,2.1592956 0,1.1925226 -0.9126284,2.1592926 -2.0383674,2.1592926 -1.1257395,0 -2.0383677,-0.96677 -2.0383677,-2.1592926 0,-1.1925253 0.9126282,-2.1592956 2.0383677,-2.1592956 z m 0,1.0796475 c -0.5628958,0 -1.019184,0.483374 -1.019184,1.0796481 0,0.5962728 0.4563042,1.0796466 1.019184,1.0796466 0.5628794,0 1.0191833,-0.4833738 1.0191833,-1.0796466 0,-0.5962741 -0.4563039,-1.0796481 -1.0191833,-1.0796481 z"
     id="path5" />
</svg>
