<?xml version="1.0" encoding="UTF-8" standalone="no"?>
<svg
   width="64"
   height="64"
   version="1.1"
   viewBox="0 0 16.933 16.933"
   id="svg7"
   sodipodi:docname="abcd.svg"
   inkscape:version="1.4.3 (0d15f75042, 2025-12-25)"
   xmlns:inkscape="http://www.inkscape.org/namespaces/inkscape"
   xmlns:sodipodi="http://sodipodi.sourceforge.net/DTD/sodipodi-0.dtd"
   xmlns="http://www.w3.org/2000/svg"
   xmlns:svg="http://www.w3.org/2000/svg"
   xmlns:rdf="http://www.w3.org/1999/02/22-rdf-syntax-ns#"
   xmlns:cc="http://creativecommons.org/ns#"
   xmlns:dc="http://purl.org/dc/elements/1.1/">
  <sodipodi:namedview
     id="namedview7"
     pagecolor="#9c4444"
     bordercolor="#000000"
     borderopacity="0.25"
     inkscape:showpageshadow="2"
     inkscape:pageopacity="0.0"
     inkscape:pagecheckerboard="0"
     inkscape:deskcolor="#d1d1d1"
     inkscape:zoom="4.3531261"
     inkscape:cx="38.133515"
     inkscape:cy="27.106957"
     inkscape:window-width="1226"
     inkscape:window-height="669"
     inkscape:window-x="100"
     inkscape:window-y="206"
     inkscape:window-maximized="0"
     inkscape:current-layer="svg7"
     showgrid="false" />
  <defs
     id="defs2">
    <filter
       style="color-interpolation-filters:sRGB;"
       inkscape:label="Blur"
       id="filter5421"
       x="-0.12256455"
       y="-0.12342654"
       width="1.2451291"
       height="1.2468531">
      <feGaussianBlur
         stdDeviation="0.5 0.5"
         result="blur"
         id="feGaussianBlur5419" />
    </filter>
  </defs>
  <metadata
     id="metadata2">
    <rdf:RDF>
      <cc:Work
         rdf:about="">
        <dc:format>image/svg+xml</dc:format>
        <dc:type
           rdf:resource="http://purl.org/dc/dcmitype/StillImage" />
      </cc:Work>
    </rdf:RDF>
  </metadata>
  <rect
     style="opacity:0.3;fill:none;fill-opacity:0.996424;stroke:#000000;stroke-width:0.955221;stroke-dasharray:none;stroke-opacity:1;filter:url(#filter5421)"
     id="rect1-2-7"
     width="13.687567"
     height="13.591975"
     x="1.6227165"
     y="1.6705122"
     rx="2.8442214"
     ry="2.965905" />
  <rect
     style="fill:none;fill-opacity:1;stroke:{{colors.primary.default.hex}};stroke-width:0.955221;stroke-dasharray:none;stroke-opacity:1"
     id="rect1-2"
     width="13.687567"
     height="13.591975"
     x="1.6227167"
     y="1.6705124"
     rx="2.8442214"
     ry="2.965905" />
  <path
     id="path11"
     style="fill:{{colors.primary.default.hex}};fill-opacity:1;stroke:none;stroke-width:0.01227;stroke-opacity:1"
     d="m 8.3867573,4.4322287 -0.082823,0.00375 C 7.8978848,4.4554689 7.5186656,4.526764 7.1536267,4.6522238 6.5161971,4.8713012 5.9202982,5.2641562 5.4756141,5.7582458 4.8420206,6.4622326 4.4880597,7.307602 4.4288334,8.2584414 l -0.00834,0.1319977 h 0.3620598 0.3620595 l 0.00834,-0.1196319 C 5.1951724,7.6674598 5.388057,7.0966593 5.7120024,6.617239 5.9425752,6.2760055 6.2723229,5.9462578 6.6135568,5.7156849 7.092977,5.3917391 7.6637774,5.1988548 8.2671256,5.1566347 l 0.1196317,-0.00834 V 4.7902566 Z m 0,0.8750968 -0.1135924,0.00834 C 7.9722747,5.3378987 7.6382312,5.4077415 7.3816754,5.5020159 7.0937749,5.6078077 6.7254044,5.8162327 6.4910489,6.0055631 6.3578184,6.1131984 6.1221349,6.3479288 6.0125199,6.4823668 5.8138879,6.7259826 5.6048106,7.0937302 5.4966073,7.3896724 5.434745,7.5588704 5.3627087,7.8509213 5.3358518,8.0407465 c -0.031261,0.2209485 -0.031261,0.6377579 0,0.8587061 0.026986,0.1907203 0.099188,0.4828583 0.1610432,0.6510749 0.1075338,0.2924427 0.3075053,0.6474175 0.501534,0.8900515 0.1114479,0.139365 0.344208,0.372722 0.4851433,0.48658 0.250063,0.202021 0.6019754,0.402141 0.9012669,0.512175 0.2192271,0.08061 0.5312725,0.150628 0.7870979,0.176859 0.1436185,0.01473 0.4098215,0.01515 0.5645142,9.31e-4 0.4252472,-0.03924 0.8105384,-0.151027 1.1790664,-0.342216 0.8752823,-0.454092 1.4981773,-1.3009536 1.6613333,-2.2586308 0.02194,-0.1286715 0.04916,-0.3708883 0.04917,-0.4388424 V 8.5497968 H 11.26396 c -0.337027,0 -0.362059,0.00151 -0.362059,0.021568 0,0.064133 -0.0405,0.3538558 -0.06297,0.4500591 C 10.732847,9.4749975 10.494768,9.8934759 10.157938,10.21885 9.9659926,10.404272 9.7879265,10.530325 9.5462624,10.651655 8.6077126,11.12288 7.4529931,10.92285 6.7176596,10.161628 6.4596282,9.8945126 6.2743758,9.5907593 6.1597599,9.2462693 5.773116,8.0841652 6.2902384,6.8371848 7.3865642,6.2882452 7.6611146,6.1507754 7.9603442,6.0689745 8.2915695,6.0406413 l 0.095187,-0.00834 V 5.6699471 Z M 8.5147295,6.1956512 C 8.2506603,6.1895733 7.9835173,6.2293447 7.7250431,6.3181594 7.5713803,6.3709595 7.2927337,6.5138586 7.1657051,6.6048739 6.8385263,6.839293 6.6084946,7.1065454 6.4364089,7.4517881 6.3368768,7.6514746 6.2903825,7.7792588 6.247184,7.9740285 c -0.075607,0.3408891 -0.075607,0.651252 0,0.9921412 0.043199,0.19477 0.089692,0.3225537 0.1892249,0.5222393 0.1304234,0.261658 0.3140498,0.5024057 0.5187891,0.680409 0.3600032,0.31299 0.8031964,0.512194 1.2535495,0.563075 0.2418291,0.02732 0.5053855,0.01251 0.7537395,-0.04256 0.1947699,-0.0432 0.3225539,-0.08969 0.5222401,-0.189226 C 9.8291121,10.328449 10.097167,10.09777 10.331643,9.7708109 10.422673,9.643877 10.565502,9.3652963 10.618356,9.2114733 10.898406,8.3964538 10.691006,7.4878626 10.085188,6.8743335 9.6613535,6.4451039 9.0956807,6.2090158 8.5147295,6.1956512 Z m -0.054352,0.8040654 c 0.2291858,-2.77e-4 0.3057632,0.011191 0.4883061,0.072471 C 9.1550028,7.1414482 9.3886572,7.2916424 9.5379288,7.451214 10.089229,8.0405557 10.076977,8.9467745 9.5100353,9.5137181 9.3183071,9.7054455 9.0906932,9.8351313 8.830203,9.9013706 8.7143437,9.9308367 8.6547673,9.9386326 8.5155937,9.9424958 8.321426,9.9477897 8.2427111,9.9393031 8.0730122,9.8941818 7.5719429,9.7608168 7.1699042,9.3504225 7.0339948,8.833884 6.9986967,8.6997289 6.9963224,8.6772941 6.9963224,8.4700989 c 0,-0.2071953 0.00239,-0.2296301 0.037672,-0.3637853 0.13906,-0.5285153 0.5404793,-0.929988 1.0686369,-1.0686362 0.133004,-0.034915 0.1580338,-0.03771 0.3577462,-0.037961 z m 3.3272675,1.5500415 -0.0082,0.1196318 c -0.04029,0.5866889 -0.219943,1.131012 -0.531156,1.6104331 -0.240795,0.370941 -0.601357,0.731503 -0.972297,0.972296 -0.3995162,0.259346 -0.8528791,0.430863 -1.3205545,0.499523 -0.093595,0.01375 -0.1770519,0.02498 -0.1854871,0.02502 -0.011925,5e-5 -0.015242,0.0807 -0.015242,0.36206 v 0.362059 h 0.02991 c 0.053275,0 0.3160384,-0.03632 0.4486202,-0.06212 0.8160024,-0.158784 1.5466114,-0.555031 2.1286474,-1.154047 0.180618,-0.185888 0.304496,-0.336215 0.438267,-0.532305 0.425132,-0.623195 0.655371,-1.3007011 0.703988,-2.0705567 l 0.0084,-0.131998 h -0.36229 z" />
</svg>
