<?xml version="1.0" encoding="UTF-8" standalone="no"?>
<svg
   width="64"
   height="64"
   version="1.1"
   viewBox="0 0 16.933 16.933"
   id="svg7"
   sodipodi:docname="abcd.svg"
   inkscape:version="1.4.3 (0d15f75042, 2025-12-25)"
   xmlns:inkscape="http://www.inkscape.org/namespaces/inkscape"
   xmlns:sodipodi="http://sodipodi.sourceforge.net/DTD/sodipodi-0.dtd"
   xmlns="http://www.w3.org/2000/svg"
   xmlns:svg="http://www.w3.org/2000/svg"
   xmlns:rdf="http://www.w3.org/1999/02/22-rdf-syntax-ns#"
   xmlns:cc="http://creativecommons.org/ns#"
   xmlns:dc="http://purl.org/dc/elements/1.1/">
  <sodipodi:namedview
     id="namedview7"
     pagecolor="#9c4444"
     bordercolor="#000000"
     borderopacity="0.25"
     inkscape:showpageshadow="2"
     inkscape:pageopacity="0.0"
     inkscape:pagecheckerboard="0"
     inkscape:deskcolor="#d1d1d1"
     inkscape:zoom="4.3531261"
     inkscape:cx="43.417074"
     inkscape:cy="20.674797"
     inkscape:window-width="1226"
     inkscape:window-height="669"
     inkscape:window-x="101"
     inkscape:window-y="175"
     inkscape:window-maximized="0"
     inkscape:current-layer="svg7"
     showgrid="false" />
  <defs
     id="defs2">
    <filter
       style="color-interpolation-filters:sRGB;"
       inkscape:label="Blur"
       id="filter5421"
       x="-0.12256455"
       y="-0.12342654"
       width="1.2451291"
       height="1.2468531">
      <feGaussianBlur
         stdDeviation="0.5 0.5"
         result="blur"
         id="feGaussianBlur5419" />
    </filter>
  </defs>
  <metadata
     id="metadata2">
    <rdf:RDF>
      <cc:Work
         rdf:about="">
        <dc:format>image/svg+xml</dc:format>
        <dc:type
           rdf:resource="http://purl.org/dc/dcmitype/StillImage" />
      </cc:Work>
    </rdf:RDF>
  </metadata>
  <rect
     style="opacity:0.3;fill:none;fill-opacity:0.996424;stroke:#000000;stroke-width:0.955221;stroke-dasharray:none;stroke-opacity:1;filter:url(#filter5421)"
     id="rect1-2-7"
     width="13.687567"
     height="13.591975"
     x="1.6227165"
     y="1.6705122"
     rx="2.8442214"
     ry="2.965905" />
  <rect
     style="fill:none;fill-opacity:1;stroke:{{colors.primary.default.hex}};stroke-width:0.955221;stroke-dasharray:none;stroke-opacity:1"
     id="rect1-2"
     width="13.687567"
     height="13.591975"
     x="1.6227167"
     y="1.6705124"
     rx="2.8442214"
     ry="2.965905" />
  <path
     style="fill:{{colors.primary.default.hex}};fill-opacity:1;stroke:none;stroke-width:0.102932;stroke-dasharray:none;stroke-opacity:0.6"
     d="M 8.4665144,4.382374 A 4.079295,4.0841259 0 0 0 5.251519,5.9547627 L 6.4676597,8.063192 A 2.0396477,2.0420628 0 0 1 8.4665144,6.4244368 H 11.995104 A 4.079295,4.0841259 0 0 0 8.4665144,4.382374 Z M 4.936903,6.4295425 A 4.079295,4.0841259 0 0 0 4.3872188,8.4664995 4.079295,4.0841259 0 0 0 7.9030611,12.504677 L 9.1186906,10.401355 A 2.0396477,2.0420628 0 0 1 8.4665141,10.50856 2.0396477,2.0420628 0 0 1 6.7027285,9.4875306 H 6.699651 Z M 8.4665141,6.9349519 A 1.5297357,1.5315471 0 0 0 6.9367782,8.4664995 1.5297357,1.5315471 0 0 0 8.4665141,9.9980458 1.5297357,1.5315471 0 0 0 9.996252,8.4664995 1.5297357,1.5315471 0 0 0 8.4665141,6.9349519 Z m 1.3456582,0 A 2.0396477,2.0420628 0 0 1 10.50616,8.4664995 2.0396477,2.0420628 0 0 1 10.231319,9.4875306 h 0.002 L 8.4674985,12.550625 A 4.079295,4.0841259 0 0 0 12.545784,8.4664995 4.079295,4.0841259 0 0 0 12.244934,6.9349519 Z"
     id="path2-50" />
</svg>
