<?xml version="1.0" encoding="UTF-8" standalone="no"?>
<svg
   width="64"
   height="64"
   version="1.1"
   viewBox="0 0 16.933 16.933"
   id="svg7"
   sodipodi:docname="dconf-editor.svg"
   inkscape:version="1.4.3 (0d15f75042, 2025-12-25)"
   xmlns:inkscape="http://www.inkscape.org/namespaces/inkscape"
   xmlns:sodipodi="http://sodipodi.sourceforge.net/DTD/sodipodi-0.dtd"
   xmlns="http://www.w3.org/2000/svg"
   xmlns:svg="http://www.w3.org/2000/svg"
   xmlns:rdf="http://www.w3.org/1999/02/22-rdf-syntax-ns#"
   xmlns:cc="http://creativecommons.org/ns#"
   xmlns:dc="http://purl.org/dc/elements/1.1/">
  <sodipodi:namedview
     id="namedview7"
     pagecolor="#9c4444"
     bordercolor="#000000"
     borderopacity="0.25"
     inkscape:showpageshadow="2"
     inkscape:pageopacity="0.0"
     inkscape:pagecheckerboard="0"
     inkscape:deskcolor="#d1d1d1"
     inkscape:zoom="4.3531261"
     inkscape:cx="43.417074"
     inkscape:cy="19.985637"
     inkscape:window-width="1226"
     inkscape:window-height="669"
     inkscape:window-x="81"
     inkscape:window-y="107"
     inkscape:window-maximized="0"
     inkscape:current-layer="svg7"
     showgrid="false" />
  <defs
     id="defs2">
    <filter
       style="color-interpolation-filters:sRGB;"
       inkscape:label="Blur"
       id="filter5421"
       x="-0.12256455"
       y="-0.12342654"
       width="1.2451291"
       height="1.2468531">
      <feGaussianBlur
         stdDeviation="0.5 0.5"
         result="blur"
         id="feGaussianBlur5419" />
    </filter>
    <filter
       style="color-interpolation-filters:sRGB"
       inkscape:label="Blur"
       id="filter5421-3"
       x="-0.12256455"
       y="-0.12342654"
       width="1.2451291"
       height="1.2468531">
      <feGaussianBlur
         stdDeviation="0.5 0.5"
         result="blur"
         id="feGaussianBlur5419-6" />
    </filter>
  </defs>
  <metadata
     id="metadata2">
    <rdf:RDF>
      <cc:Work
         rdf:about="">
        <dc:format>image/svg+xml</dc:format>
        <dc:type
           rdf:resource="http://purl.org/dc/dcmitype/StillImage" />
      </cc:Work>
    </rdf:RDF>
  </metadata>
  <rect
     style="opacity:0.3;fill:none;fill-opacity:0.996424;stroke:#000000;stroke-width:0.955221;stroke-dasharray:none;stroke-opacity:1;filter:url(#filter5421)"
     id="rect1-2-7"
     width="13.687567"
     height="13.591975"
     x="1.6227165"
     y="1.6705122"
     rx="2.8442214"
     ry="2.965905" />
  <rect
     style="fill:none;fill-opacity:1;stroke:{{colors.primary.default.hex}};stroke-width:0.955221;stroke-dasharray:none;stroke-opacity:1"
     id="rect1-2"
     width="13.687567"
     height="13.591975"
     x="1.6227167"
     y="1.6705124"
     rx="2.8442214"
     ry="2.965905" />
  <path
     style="fill:{{colors.primary.default.hex}};fill-opacity:1;stroke:none;stroke-width:0.124106;stroke-dasharray:none;stroke-opacity:1"
     d="m 5.209365,12.416283 c -0.064257,-0.09174 -0.086888,-0.266186 -0.086888,-0.669784 0,-0.659758 0.067398,-0.769 0.4744319,-0.769 H 5.8480783 V 8.4658026 5.9541051 H 5.5721655 c -0.3936137,0 -0.4496889,-0.09899 -0.4496889,-0.7938361 0,-0.8317284 -0.1140371,-0.783259 1.7766981,-0.755157 1.702809,0.025307 1.8747194,0.051981 2.6082237,0.4046752 1.0269526,0.4937925 1.7953386,1.3935652 2.1450246,2.5117971 0.186754,0.5972041 0.211979,1.4318135 0.06219,2.057511 -0.361235,1.5088867 -1.537422,2.6912947 -3.034048,3.0500957 -0.3976861,0.09534 -0.6592602,0.110414 -1.9223154,0.110752 -1.4477183,4.99e-4 -1.4628394,-7.36e-4 -1.5488796,-0.12366 z m 3.4853032,-1.597696 c 0.610418,-0.237358 1.1572596,-0.78232 1.4087568,-1.4039214 0.103105,-0.2548377 0.12437,-0.4160209 0.125187,-0.948863 9.46e-4,-0.6259371 -0.0041,-0.652617 -0.20549,-1.0742708 C 9.5929564,6.4906852 8.7384747,5.9541051 7.7340778,5.9541051 H 7.410912 v 2.5185245 2.5185244 l 0.4883851,-0.02661 c 0.3099401,-0.01688 0.6005514,-0.0702 0.7953711,-0.145966 z"
     id="path1-3" />
  <rect
     style="opacity:0.3;fill:none;fill-opacity:0.996424;stroke:#000000;stroke-width:0.955221;stroke-dasharray:none;stroke-opacity:1;filter:url(#filter5421-3)"
     id="rect1-2-7-5"
     width="13.687567"
     height="13.591975"
     x="1.6227165"
     y="1.6705122"
     rx="2.8442214"
     ry="2.965905"
     transform="matrix(0.43046721,0,0,0.43046721,9.5627021,9.5627021)" />
  <rect
     style="fill:none;fill-opacity:1;stroke:{{colors.primary.default.hex}};stroke-width:0.411191;stroke-dasharray:none;stroke-opacity:1"
     id="rect1-2-3"
     width="5.8920484"
     height="5.8508992"
     x="10.261228"
     y="10.281802"
     rx="1.224344"
     ry="1.2767248" />
  <g
     style="color:#000000;display:inline;overflow:visible;visibility:visible;fill:{{colors.primary.default.hex}};fill-opacity:1;fill-rule:nonzero;stroke:none;stroke-width:0.428623;stroke-linecap:butt;stroke-linejoin:miter;stroke-miterlimit:4;stroke-dasharray:none;stroke-dashoffset:0;stroke-opacity:0.6;marker:none;enable-background:accumulate"
     id="layer1-9-4-1"
     transform="matrix(0.24874764,0,0,0.24874764,11.361771,11.258851)">
    <path
       style="color:#000000;display:inline;overflow:visible;visibility:visible;fill:{{colors.primary.default.hex}};fill-opacity:1;fill-rule:nonzero;stroke:none;stroke-width:0.428623;stroke-linecap:butt;stroke-linejoin:miter;stroke-miterlimit:4;stroke-dasharray:none;stroke-dashoffset:0;stroke-opacity:0.6;marker:none;enable-background:accumulate"
       id="rect2996-4-03"
       d="M 13.053978,0 6,1.90625 C 5.446,2.0546939 5,2.645207 5,3.21875 V 12.3125 C 4.4382289,12.018344 3.716744,11.899398 2.96875,12.09375 1.6189863,12.444461 0.77316552,13.577902 1.0625,14.625 c 0.2893345,1.047098 1.6189863,1.631961 2.96875,1.28125 1.0768335,-0.279795 1.5252383,-1.064241 1.6436216,-1.899043 V 5.3360911 L 13.011969,3.3350644 13,10.3125 C 12.438229,10.018344 11.716744,9.8993976 10.96875,10.09375 9.6189863,10.444461 8.7731655,11.577902 9.0625,12.625 c 0.2893345,1.047098 1.618986,1.631961 2.96875,1.28125 1.076834,-0.279795 1.529345,-1.065268 1.647728,-1.90007 V 0.8125 c 0,-0.43015725 -0.265844,-0.75198835 -0.625,-0.8125 z" />
  </g>
</svg>
