<?xml version="1.0" encoding="UTF-8" standalone="no"?>
<svg
   width="64"
   height="64"
   version="1.1"
   viewBox="0 0 16.933 16.933"
   id="svg7"
   sodipodi:docname="accessories-text-editor.svg"
   inkscape:version="1.4.3 (0d15f75042, 2025-12-25)"
   xmlns:inkscape="http://www.inkscape.org/namespaces/inkscape"
   xmlns:sodipodi="http://sodipodi.sourceforge.net/DTD/sodipodi-0.dtd"
   xmlns="http://www.w3.org/2000/svg"
   xmlns:svg="http://www.w3.org/2000/svg"
   xmlns:rdf="http://www.w3.org/1999/02/22-rdf-syntax-ns#"
   xmlns:cc="http://creativecommons.org/ns#"
   xmlns:dc="http://purl.org/dc/elements/1.1/">
  <sodipodi:namedview
     id="namedview7"
     pagecolor="#9c4444"
     bordercolor="#000000"
     borderopacity="0.25"
     inkscape:showpageshadow="2"
     inkscape:pageopacity="0.0"
     inkscape:pagecheckerboard="0"
     inkscape:deskcolor="#d1d1d1"
     inkscape:zoom="4.3531261"
     inkscape:cx="41.809035"
     inkscape:cy="22.971997"
     inkscape:window-width="1226"
     inkscape:window-height="669"
     inkscape:window-x="474"
     inkscape:window-y="225"
     inkscape:window-maximized="0"
     inkscape:current-layer="svg7"
     showgrid="false" />
  <defs
     id="defs2">
    <filter
       style="color-interpolation-filters:sRGB;"
       inkscape:label="Blur"
       id="filter5421"
       x="-0.12256455"
       y="-0.12342654"
       width="1.2451291"
       height="1.2468531">
      <feGaussianBlur
         stdDeviation="0.5 0.5"
         result="blur"
         id="feGaussianBlur5419" />
    </filter>
  </defs>
  <metadata
     id="metadata2">
    <rdf:RDF>
      <cc:Work
         rdf:about="">
        <dc:format>image/svg+xml</dc:format>
        <dc:type
           rdf:resource="http://purl.org/dc/dcmitype/StillImage" />
      </cc:Work>
    </rdf:RDF>
  </metadata>
  <rect
     style="opacity:0.3;fill:none;fill-opacity:0.996424;stroke:#000000;stroke-width:0.955221;stroke-dasharray:none;stroke-opacity:1;filter:url(#filter5421)"
     id="rect1-2-7"
     width="13.687567"
     height="13.591975"
     x="1.6227165"
     y="1.6705122"
     rx="2.8442214"
     ry="2.965905" />
  <rect
     style="fill:none;fill-opacity:1;stroke:{{colors.primary.default.hex}};stroke-width:0.955221;stroke-dasharray:none;stroke-opacity:1"
     id="rect1-2"
     width="13.687567"
     height="13.591975"
     x="1.6227167"
     y="1.6705124"
     rx="2.8442214"
     ry="2.965905" />
  <path
     style="fill:{{colors.primary.default.hex}};fill-opacity:1;stroke:none;stroke-width:0.0170855;stroke-opacity:0.5"
     d="M 4.9611853,11.407032 C 4.8000454,11.360682 4.4939905,11.046168 4.447664,10.879316 4.4227379,10.789541 4.4105522,9.9905745 4.410424,8.4375006 l -1.904e-4,-2.3083763 0.08851,-0.177618 C 4.547425,5.8538164 4.643531,5.7272536 4.712313,5.6702553 4.9686113,5.4578659 4.850563,5.4639002 8.5479234,5.4741867 c 3.2040926,0.00892 3.3684916,0.012358 3.4824446,0.072981 0.166947,0.088814 0.334483,0.2536398 0.421589,0.4147691 0.07335,0.1356778 0.07396,0.1535103 0.08359,2.4219541 0.01068,2.5161271 0.01112,2.5099741 -0.196414,2.7604121 -0.057,0.06878 -0.183561,0.164888 -0.28125,0.213569 l -0.177619,0.08851 -3.4018484,-0.003 c -2.0888761,-0.0019 -3.4463815,-0.01589 -3.5172311,-0.03627 z m 5.5524187,-1.078048 c 0.200197,-0.107105 0.440964,-0.3895537 0.527171,-0.6184327 0.09677,-0.2569298 0.08421,-0.7593666 -0.02506,-1.0020319 C 10.933142,8.52513 10.739478,8.299874 10.579239,8.2008411 10.42827,8.107537 10.152005,8.0589389 9.9679927,8.093316 L 9.81841,8.121261 9.7800643,7.8446174 C 9.7051075,7.3038391 9.3923123,6.8358068 8.9645468,6.624368 8.8260072,6.5558897 8.7493274,6.5435719 8.4594982,6.5432376 8.1445741,6.5428699 8.1035125,6.5507497 7.9356747,6.6437224 7.7179543,6.7643256 7.4211596,7.0748324 7.3160357,7.2919896 7.2128715,7.5050987 7.1448082,7.7738956 7.14432,7.970134 7.1438996,8.1314427 7.1429541,8.1328303 7.0499441,8.1068181 6.8457568,8.0497159 6.5872471,8.080166 6.3969599,8.1837331 6.1854661,8.2988425 6.0515288,8.4479871 5.921926,8.7127023 5.840876,8.8782477 5.829839,8.9413612 5.829304,9.2423529 5.8287787,9.5393362 5.840257,9.6086627 5.917021,9.7720036 6.0942681,10.149153 6.350885,10.357589 6.6795829,10.39139 c 0.1144262,0.01177 0.9922723,0.01946 1.9507691,0.01708 1.726154,-0.0043 1.744057,-0.005 1.883251,-0.0795 z"
     id="path1" />
</svg>
