<?xml version="1.0" encoding="UTF-8" standalone="no"?>
<svg
   width="64"
   height="64"
   version="1.1"
   viewBox="0 0 16.933 16.933"
   id="svg7"
   sodipodi:docname="abcd.svg"
   inkscape:version="1.4.3 (0d15f75042, 2025-12-25)"
   xmlns:inkscape="http://www.inkscape.org/namespaces/inkscape"
   xmlns:sodipodi="http://sodipodi.sourceforge.net/DTD/sodipodi-0.dtd"
   xmlns="http://www.w3.org/2000/svg"
   xmlns:svg="http://www.w3.org/2000/svg"
   xmlns:rdf="http://www.w3.org/1999/02/22-rdf-syntax-ns#"
   xmlns:cc="http://creativecommons.org/ns#"
   xmlns:dc="http://purl.org/dc/elements/1.1/">
  <sodipodi:namedview
     id="namedview7"
     pagecolor="#9c4444"
     bordercolor="#000000"
     borderopacity="0.25"
     inkscape:showpageshadow="2"
     inkscape:pageopacity="0.0"
     inkscape:pagecheckerboard="0"
     inkscape:deskcolor="#d1d1d1"
     inkscape:zoom="4.3531261"
     inkscape:cx="43.417074"
     inkscape:cy="20.674797"
     inkscape:window-width="1226"
     inkscape:window-height="669"
     inkscape:window-x="106"
     inkscape:window-y="190"
     inkscape:window-maximized="0"
     inkscape:current-layer="svg7"
     showgrid="false" />
  <defs
     id="defs2">
    <filter
       style="color-interpolation-filters:sRGB;"
       inkscape:label="Blur"
       id="filter5421"
       x="-0.12256455"
       y="-0.12342654"
       width="1.2451291"
       height="1.2468531">
      <feGaussianBlur
         stdDeviation="0.5 0.5"
         result="blur"
         id="feGaussianBlur5419" />
    </filter>
  </defs>
  <metadata
     id="metadata2">
    <rdf:RDF>
      <cc:Work
         rdf:about="">
        <dc:format>image/svg+xml</dc:format>
        <dc:type
           rdf:resource="http://purl.org/dc/dcmitype/StillImage" />
      </cc:Work>
    </rdf:RDF>
  </metadata>
  <rect
     style="opacity:0.3;fill:none;fill-opacity:0.996424;stroke:#000000;stroke-width:0.955221;stroke-dasharray:none;stroke-opacity:1;filter:url(#filter5421)"
     id="rect1-2-7"
     width="13.687567"
     height="13.591975"
     x="1.6227165"
     y="1.6705122"
     rx="2.8442214"
     ry="2.965905" />
  <rect
     style="fill:none;fill-opacity:1;stroke:{{colors.primary.default.hex}};stroke-width:0.955221;stroke-dasharray:none;stroke-opacity:1"
     id="rect1-2"
     width="13.687567"
     height="13.591975"
     x="1.6227167"
     y="1.6705124"
     rx="2.8442214"
     ry="2.965905" />
  <path
     style="fill:{{colors.primary.default.hex}};fill-opacity:1;stroke:none;stroke-width:0.0206396"
     d="M 8.2739155,12.564965 C 7.2742441,12.510779 6.3537686,11.998021 5.8211032,11.198607 5.6367884,10.92199 5.4751289,10.537313 5.4118089,10.224672 5.3293245,9.8174014 5.3400643,9.3446844 5.4408296,8.947317 5.5202102,8.634281 5.679837,8.2596684 5.847547,7.9928325 6.0026834,7.7460015 8.2295866,4.5495392 8.2985679,4.4746763 8.379231,4.3871344 8.4217121,4.3617092 8.4873161,4.3617092 c 0.040562,0 0.057841,0.011018 0.1264135,0.080623 0.054025,0.054836 0.4410094,0.6025773 1.2098645,1.7124498 0.6217379,0.8975035 1.1722579,1.6956794 1.2233739,1.7737238 0.119353,0.1822285 0.293936,0.5372137 0.361481,0.7350148 0.120869,0.3539646 0.167669,0.627624 0.167757,0.9809973 9e-5,0.3499713 -0.0346,0.5740151 -0.136769,0.8832981 -0.310389,0.939611 -1.105964,1.664145 -2.1242569,1.934572 -0.182596,0.04849 -0.4294096,0.08888 -0.5962211,0.09755 -0.070949,0.0037 -0.1609251,0.0085 -0.1999472,0.01058 -0.039022,0.0021 -0.1493151,-3.67e-4 -0.2450963,-0.0056 z M 8.725409,11.411813 c 0.138613,-0.03077 0.3444078,-0.101229 0.4478937,-0.153343 0.1598777,-0.08051 0.4474373,-0.291115 0.4263228,-0.312229 -0.00374,-0.0038 -0.072816,0.01072 -0.1534916,0.03215 -0.1834281,0.04872 -0.4274268,0.0887 -0.6043534,0.09906 C 8.6428266,11.089088 8.3192477,11.06417 8.1669251,11.025498 7.6886999,10.904047 7.3025501,10.554068 7.1473572,10.101425 6.943535,9.5069462 7.1767516,8.8474273 7.71598,8.4934054 7.8992008,8.3731147 8.0696921,8.3087601 8.3433594,8.2565919 8.4814288,8.2302731 8.4942391,8.2255574 8.4723569,8.209118 8.4247691,8.1733644 8.3045085,8.1180346 8.1965163,8.082208 8.093944,8.0481797 8.0727177,8.0457929 7.8675716,8.045218 7.6762721,8.0446663 7.6351002,8.048383 7.5450762,8.0742154 7.0865809,8.2057736 6.7244638,8.5931684 6.5598742,9.128188 c -0.1046204,0.3400802 -0.1075863,0.7168956 -0.00823,1.044884 0.109073,0.360047 0.3805696,0.712781 0.7333868,0.95283 0.2320902,0.15791 0.4588593,0.244811 0.8082821,0.309748 0.077657,0.01444 0.5378856,-0.0029 0.6320906,-0.02383 z m 0.1166612,-0.85101 c 0.287817,-0.03832 0.6724827,-0.145723 0.938672,-0.262087 0.3688188,-0.161227 0.6954158,-0.4507 0.8473068,-0.7509943 0.121046,-0.2393146 0.136921,-0.4834492 0.05093,-0.783231 C 10.639267,8.626065 10.513562,8.3628085 10.399906,8.1800523 10.254278,7.9458876 8.4793003,5.23258 8.4699081,5.2297742 c -0.00904,-0.0027 -1.8084688,2.7453947 -1.8084688,2.7618927 0,0.00489 0.039184,-0.022594 0.087074,-0.06109 0.2677992,-0.215258 0.5846454,-0.3574345 0.9098317,-0.408264 0.1332934,-0.020835 0.411554,-0.017908 0.5479541,0.00575 0.2966101,0.051468 0.6270825,0.2090193 0.7634965,0.3639939 C 9.1610919,8.1093776 9.14742,8.4325765 8.9385767,8.6300917 8.8308184,8.7320098 8.7346342,8.7712851 8.5399764,8.7928569 8.4510934,8.8027065 8.3498742,8.8192279 8.3150463,8.8295715 7.7901387,8.9854523 7.5304508,9.5768427 7.770413,10.06987 c 0.1024319,0.210456 0.2973993,0.381636 0.5141857,0.451451 0.1721006,0.05542 0.3454895,0.0677 0.5574719,0.03947 z"
     id="path10" />
</svg>
