<?xml version="1.0" encoding="UTF-8" standalone="no"?>
<svg
   width="64"
   height="64"
   version="1.1"
   viewBox="0 0 16.933 16.933"
   id="svg7"
   sodipodi:docname="abcd.svg"
   inkscape:version="1.4.3 (0d15f75042, 2025-12-25)"
   xmlns:inkscape="http://www.inkscape.org/namespaces/inkscape"
   xmlns:sodipodi="http://sodipodi.sourceforge.net/DTD/sodipodi-0.dtd"
   xmlns="http://www.w3.org/2000/svg"
   xmlns:svg="http://www.w3.org/2000/svg"
   xmlns:rdf="http://www.w3.org/1999/02/22-rdf-syntax-ns#"
   xmlns:cc="http://creativecommons.org/ns#"
   xmlns:dc="http://purl.org/dc/elements/1.1/">
  <sodipodi:namedview
     id="namedview7"
     pagecolor="#9c4444"
     bordercolor="#000000"
     borderopacity="0.25"
     inkscape:showpageshadow="2"
     inkscape:pageopacity="0.0"
     inkscape:pagecheckerboard="0"
     inkscape:deskcolor="#d1d1d1"
     inkscape:zoom="4.3531261"
     inkscape:cx="43.417074"
     inkscape:cy="20.674797"
     inkscape:window-width="1226"
     inkscape:window-height="669"
     inkscape:window-x="146"
     inkscape:window-y="136"
     inkscape:window-maximized="0"
     inkscape:current-layer="svg7"
     showgrid="false" />
  <defs
     id="defs2">
    <filter
       style="color-interpolation-filters:sRGB;"
       inkscape:label="Blur"
       id="filter5421"
       x="-0.12256455"
       y="-0.12342654"
       width="1.2451291"
       height="1.2468531">
      <feGaussianBlur
         stdDeviation="0.5 0.5"
         result="blur"
         id="feGaussianBlur5419" />
    </filter>
  </defs>
  <metadata
     id="metadata2">
    <rdf:RDF>
      <cc:Work
         rdf:about="">
        <dc:format>image/svg+xml</dc:format>
        <dc:type
           rdf:resource="http://purl.org/dc/dcmitype/StillImage" />
      </cc:Work>
    </rdf:RDF>
  </metadata>
  <rect
     style="opacity:0.3;fill:none;fill-opacity:0.996424;stroke:#000000;stroke-width:0.955221;stroke-dasharray:none;stroke-opacity:1;filter:url(#filter5421)"
     id="rect1-2-7"
     width="13.687567"
     height="13.591975"
     x="1.6227165"
     y="1.6705122"
     rx="2.8442214"
     ry="2.965905" />
  <rect
     style="fill:none;fill-opacity:1;stroke:{{colors.primary.default.hex}};stroke-width:0.955221;stroke-dasharray:none;stroke-opacity:1"
     id="rect1-2"
     width="13.687567"
     height="13.591975"
     x="1.6227167"
     y="1.6705124"
     rx="2.8442214"
     ry="2.965905" />
  <path
     id="path4"
     style="fill:{{colors.primary.default.hex}};fill-opacity:1;stroke:none;stroke-width:0.269016;stroke-dasharray:none;stroke-dashoffset:2.2;stroke-opacity:0.3"
     d="m 7.6586699,4.3326102 -0.094381,0.036299 C 7.3340407,4.4576504 7.1684073,4.6248309 7.0851268,4.8528184 l -0.030436,0.083491 -0.00305,1.1993026 c -0.00191,0.7480021 7.879e-4,1.1993021 0.00753,1.1993021 0.02286,0 0.085319,0.063859 0.1052703,0.1077843 0.025609,0.056382 0.026902,0.118653 0.00389,0.1736821 -0.029489,0.07058 -0.037777,0.075446 -0.075672,0.043562 -0.018363,-0.01545 -0.053589,-0.033512 -0.078465,-0.040209 -0.1274071,-0.034308 -0.2553112,0.069567 -0.2535427,0.2060735 0.00161,0.1230039 0.1103319,0.2157397 0.2337177,0.1993721 l 0.054729,-0.00728 v 0.2837 0.2836995 l 0.051657,0.00586 c 0.031707,0.00358 0.077749,0.022037 0.1189534,0.047469 0.076187,0.047026 0.148385,0.075114 0.1929492,0.075114 0.031226,0 0.1211085,0.081101 0.1477141,0.1331938 0.030362,0.059448 0.00876,0.1220977 -0.05054,0.146876 -0.080891,0.033817 -0.174952,0.015863 -0.2954124,-0.056113 C 7.148189,8.8981215 7.1253004,8.8903724 7.0776121,8.8910736 6.9706257,8.8926495 6.8654094,8.9643502 6.643405,9.1862217 6.4850906,9.344443 6.4039909,9.396138 6.2985538,9.4056982 6.1857271,9.4159315 6.0684677,9.3461984 6.0357959,9.2493287 6.0283941,9.2273966 6.0171287,9.1349641 6.0106646,9.0440927 5.9929666,8.7951452 5.9611455,8.6673386 5.887523,8.5512481 5.8367642,8.4712099 5.773682,8.4345287 5.6873137,8.4345287 c -0.058092,0 -0.079734,0.00602 -0.1262131,0.034623 -0.030917,0.01903 -0.071961,0.058214 -0.091589,0.087399 -0.083774,0.1245672 -0.055367,0.2043042 0.1312387,0.3671909 0.065181,0.056895 0.1234614,0.1144651 0.1295646,0.1281668 0.019227,0.043165 7.617e-4,0.080159 -0.057242,0.1142071 -0.04759,0.027934 -0.065727,0.031788 -0.1510653,0.031832 C 5.3641,9.1980286 5.278454,9.1502932 5.2025663,9.0203557 5.1329409,8.9011445 5.0734847,8.866949 4.9937005,8.9002852 c -0.069653,0.029103 -0.1148462,0.1349619 -0.084608,0.1982551 0.013805,0.028901 0.022673,0.031927 0.1186742,0.043839 0.057968,0.00718 0.1164062,0.02157 0.1329144,0.032391 0.016218,0.01063 0.061611,0.063741 0.1008034,0.1181158 0.2762189,0.3832088 0.7989318,1.0544309 1.1197214,1.4377639 0.5563898,0.664873 1.115341,1.234337 1.4938927,1.522376 0.2163158,0.164593 0.3753776,0.256892 0.5386394,0.312182 0.1757854,0.05953 0.3103997,0.04517 0.5210472,-0.05556 0.269938,-0.129083 0.6037039,-0.394167 1.0141709,-0.805027 0.5635349,-0.564074 1.2814259,-1.423676 1.9216769,-2.3014309 0.0823,-0.1128071 0.171513,-0.2281343 0.198256,-0.2563356 0.06183,-0.065183 0.107777,-0.133876 0.107777,-0.1611175 0,-0.054539 -0.178358,-0.00452 -0.293471,0.082375 -0.08447,0.063781 -0.183552,0.1022057 -0.28314,0.1097377 -0.101276,0.00766 -0.138663,-0.00113 -0.154697,-0.0363 -0.01017,-0.022226 -0.0078,-0.034542 0.01117,-0.065339 0.0259,-0.041785 0.07362,-0.079307 0.254936,-0.2016061 0.128702,-0.086808 0.187919,-0.1437123 0.223946,-0.2144499 0.06345,-0.1245604 0.07844,-0.2930221 0.03296,-0.3733337 -0.05812,-0.1026205 -0.163729,-0.1260041 -0.288446,-0.063666 -0.126426,0.063193 -0.26447,0.2099739 -0.295986,0.3146945 -0.0085,0.028318 -0.02116,0.1295124 -0.02791,0.2247822 -0.01264,0.1776964 -0.03391,0.2906396 -0.06283,0.3347993 -0.05081,0.077533 -0.17518,0.1201346 -0.223386,0.076509 -0.01303,-0.011786 -0.03089,-0.035277 -0.03965,-0.052218 -0.0304,-0.058769 -0.02048,-0.090795 0.05893,-0.1915531 0.0877,-0.1113277 0.104414,-0.140857 0.114481,-0.2038394 0.01542,-0.096424 -0.05677,-0.2313422 -0.149111,-0.2789532 -0.0871,-0.044903 -0.228851,-0.015379 -0.328935,0.068412 -0.09818,0.082203 -0.09895,0.1286186 -0.0062,0.3328446 0.03832,0.084324 0.07215,0.1728228 0.07538,0.1968595 0.0077,0.057871 -0.01817,0.096415 -0.08628,0.1278879 -0.04672,0.021591 -0.07316,0.024572 -0.218358,0.024572 -0.207322,0 -0.272213,-0.017008 -0.337873,-0.088239 C 10.099526,9.0526093 10.075586,9.0056845 10.006394,8.8232139 9.9546,8.6866079 9.927791,8.6338944 9.910054,8.6338944 c -0.00533,0 -0.048799,0.02548 -0.096616,0.056685 -0.133901,0.087436 -0.176076,0.1057883 -0.2582439,0.111687 -0.1004733,0.0072 -0.188226,-0.028309 -0.2122172,-0.085725 -0.014943,-0.035755 -0.013892,-0.043289 0.012563,-0.1010834 0.015722,-0.034355 0.039231,-0.077259 0.052215,-0.095498 0.020451,-0.028714 0.0273,-0.031811 0.052216,-0.022339 0.082052,0.031196 0.1838648,0.00228 0.3275395,-0.092985 C 9.8430514,8.367793 9.898076,8.33762 9.9098139,8.33762 c 0.030099,0 0.04693,0.030499 0.1122511,0.2038394 0.05729,0.151986 0.09187,0.2219801 0.136264,0.2753225 l 0.02345,0.027921 2.62e-4,-0.2923558 2.63e-4,-0.2923559 0.0712,-0.1331939 c 0.03917,-0.073255 0.098,-0.1638328 0.130398,-0.2013269 0.07097,-0.082117 0.08992,-0.143829 0.07261,-0.2342757 -0.01699,-0.088708 -0.05861,-0.161908 -0.114205,-0.2002093 -0.09323,-0.06426 -0.159795,0.03174 -0.205794,0.2971033 -0.03451,0.1990763 -0.04566,0.241815 -0.06311,0.241815 -0.02732,0 -0.04215,-0.045795 -0.03492,-0.1072249 0.0037,-0.031904 0.02191,-0.1246035 0.04051,-0.2060735 0.0186,-0.081471 0.04246,-0.1967994 0.05305,-0.2563349 0.01062,-0.059538 0.02637,-0.1281728 0.03491,-0.1524613 0.01269,-0.03608 0.01534,-0.2403921 0.01534,-1.116929 0,-1.1273908 -0.0029,-1.2048264 -0.0511,-1.343665 C 10.054192,4.6251379 9.8697117,4.4421696 9.6448338,4.3649935 L 9.5501748,4.3326014 H 8.6044147 Z m 1.0987793,1.9845037 c 0.037523,8.406e-4 0.075144,0.00733 0.1063876,0.019267 0.064818,0.024753 0.1463155,0.1110422 0.1655844,0.1753576 0.043224,0.1442678 -0.028363,0.3062589 -0.1597204,0.3610471 -0.052038,0.021706 -0.1836936,0.022728 -0.2320423,0.00171 -0.052079,-0.022678 -0.116951,-0.083716 -0.1449216,-0.1365443 -0.034776,-0.065677 -0.034696,-0.1986357 0,-0.2641538 0.031724,-0.059904 0.1025729,-0.1235059 0.1586045,-0.142408 0.031146,-0.010509 0.068585,-0.015097 0.1061078,-0.014244 z M 7.4704673,7.175474 c 0.096308,0 0.180435,0.083158 0.2719726,0.2686212 0.099622,0.2018432 0.1702551,0.4681546 0.1574866,0.5939273 -0.01033,0.1017329 -0.024527,0.1075849 -0.046631,0.01899 C 7.8094294,7.8811939 7.7025213,7.6550327 7.6176231,7.5585833 7.5332046,7.4626798 7.4561931,7.4450364 7.3869772,7.505808 L 7.3478852,7.540152 7.3353222,7.489333 c -0.018176,-0.072179 -0.016218,-0.1947861 0.00389,-0.2337172 0.027911,-0.053973 0.07093,-0.080139 0.1312402,-0.080139 z M 5.3226127,7.187472 c -0.041985,2.65e-5 -0.083928,0.00692 -0.1142056,0.020663 -0.057973,0.026333 -0.1340942,0.1118255 -0.1516228,0.1703319 -0.044233,0.1476379 0.036956,0.304784 0.1803841,0.3493195 0.066746,0.020721 0.098727,0.020737 0.1639092,0.00113 C 5.5530206,7.6831902 5.639409,7.5161372 5.5848116,7.373176 5.5590684,7.3057756 5.495247,7.2348879 5.4365398,7.2081502 5.4064253,7.1944368 5.3645976,7.1874632 5.3226127,7.1874868 Z m 4.143528,0.2621998 c 0.029709,-0.00383 0.057309,0.0033 0.081537,0.022339 0.044343,0.034881 0.057778,0.090953 0.050539,0.2122167 -0.00348,0.058184 -0.00942,0.1104621 -0.013122,0.1164403 -0.00368,0.00596 -0.021653,-0.00407 -0.039933,-0.022339 -0.042924,-0.042919 -0.08391,-0.042737 -0.1521831,5.517e-4 -0.066339,0.042073 -0.1430805,0.145388 -0.2091427,0.2811876 -0.047911,0.098487 -0.051221,0.112269 -0.061711,0.2451664 -0.019962,0.2529761 -0.031369,0.3190763 -0.065061,0.3853409 -0.07065,0.1389462 -0.2982019,0.232902 -0.4305761,0.1775919 -0.050543,-0.021116 -0.057818,-0.042035 -0.033508,-0.093263 0.033216,-0.069994 -0.0094,-0.1870953 -0.088796,-0.2446078 -0.1568442,-0.1136172 -0.3838935,0.079369 -0.2917975,0.247958 0.025393,0.046484 0.02599,0.052047 0.00978,0.080978 -0.00958,0.017091 -0.032026,0.038277 -0.049982,0.046911 C 8.1316303,8.9256385 8.01617,8.9323275 7.9532654,8.9189905 7.8300332,8.8928521 7.7269232,8.8057225 7.6916204,8.697836 7.6221771,8.4856204 7.4131438,8.2298262 7.2889672,8.2049912 7.2583161,8.1988606 7.2479536,8.1884147 7.2292107,8.1452355 7.1999871,8.0779103 7.1910359,7.9767439 7.2110635,7.938883 7.2307555,7.901647 7.2838955,7.896098 7.3414653,7.925479 c 0.05712,0.029155 0.072696,0.048204 0.1236989,0.1502271 0.051684,0.1033848 0.1364106,0.2301355 0.1909952,0.2859337 0.022079,0.022573 0.050792,0.061605 0.063667,0.08684 0.068586,0.134439 0.2633935,0.2136761 0.4163357,0.1692146 0.083891,-0.024383 0.098783,-0.051745 0.064783,-0.1183947 -0.04132,-0.080992 -0.028818,-0.1593121 0.03658,-0.228412 0.046346,-0.048971 0.095614,-0.069807 0.1644675,-0.069807 0.076497,0 0.1269262,0.030129 0.170611,0.1021989 0.046013,0.075913 0.057746,0.1438837 0.032951,0.1918322 -0.025329,0.048982 -0.02396,0.052933 0.027085,0.075952 0.1378712,0.06217 0.3856379,-0.063002 0.4364405,-0.2205939 0.011234,-0.034838 0.024627,-0.1331906 0.031272,-0.2278538 0.015102,-0.2151199 0.02523,-0.2614403 0.079858,-0.3716576 C 9.2694562,7.570912 9.377011,7.461149 9.4661449,7.4496676 Z m -3.0670878,0.022341 c -0.027174,-1.166e-4 -0.055453,0.00996 -0.078465,0.029324 -0.053052,0.044641 -0.047647,0.082395 0.027642,0.1921115 0.080818,0.1177707 0.1191967,0.2243024 0.1195117,0.3328448 2.143e-4,0.071859 -0.00352,0.0862 -0.029879,0.1175574 -0.023752,0.02823 -0.037513,0.034849 -0.065618,0.032114 C 6.3178404,8.1706684 6.2978107,8.1177904 6.28289,7.9394533 6.2683728,7.7658952 6.2560788,7.7378791 6.175666,7.6987583 6.1102549,7.6669344 5.9890267,7.6560933 5.9265905,7.6766975 c -0.09606,0.031704 -0.1645688,0.1293479 -0.1650256,0.2351134 -4.465e-4,0.1082054 0.058305,0.1973693 0.1627923,0.246841 0.083573,0.03957 0.1214946,0.087746 0.1773124,0.2256197 0.061435,0.1517527 0.075755,0.1697282 0.1580455,0.1990927 0.082872,0.029571 0.2456519,0.014935 0.3347994,-0.03016 C 6.6912151,8.5042982 6.7462784,8.384902 6.7385981,8.2407442 6.7331533,8.1384714 6.7054327,8.0710504 6.6330486,7.9844094 6.5560159,7.8922081 6.5142998,7.7868252 6.4956661,7.6370447 6.4840408,7.5435838 6.4683417,7.4954642 6.4454046,7.4831875 c -0.0142,-0.0076 -0.030051,-0.01111 -0.046352,-0.011171 z m 4.9197941,2.628e-4 c -0.0266,3.676e-4 -0.05384,0.00441 -0.08125,0.012 -0.05985,0.016616 -0.156922,0.1143592 -0.175357,0.1767541 -0.04359,0.1475235 0.03318,0.3016185 0.175635,0.3523908 0.220063,0.078443 0.438292,-0.1542555 0.345972,-0.3688653 C 11.536514,7.5345441 11.434054,7.4706058 11.318845,7.4722719 Z M 4.5245667,8.1851548 c -0.010669,2.627e-4 -0.021007,0.00136 -0.030993,0.00362 -0.085992,0.019626 -0.1670096,0.113535 -0.1675387,0.1943473 -5.515e-4,0.081348 0.055751,0.1679382 0.130681,0.2007681 0.078571,0.034426 0.1702751,0.012237 0.2298077,-0.055567 0.063468,-0.072287 0.074252,-0.1550772 0.031275,-0.238187 C 4.6857164,8.2280924 4.5992341,8.1832217 4.5245707,8.1851435 Z M 12.38663,8.4758353 c -0.06659,0.00155 -0.114758,0.027107 -0.153576,0.080698 -0.07636,0.1054145 -0.04187,0.2479799 0.07373,0.3052003 0.171229,0.084759 0.359191,-0.091246 0.282582,-0.2644326 -0.03274,-0.074018 -0.09125,-0.1147054 -0.173124,-0.120629 -0.0103,-7.354e-4 -0.02009,-0.00104 -0.02959,-8.142e-4 z" />
</svg>
