<?xml version="1.0" encoding="UTF-8" standalone="no"?>
<svg
   width="64"
   height="64"
   version="1.1"
   viewBox="0 0 16.933 16.933"
   id="svg7"
   sodipodi:docname="abcd.svg"
   inkscape:version="1.4.3 (0d15f75042, 2025-12-25)"
   xmlns:inkscape="http://www.inkscape.org/namespaces/inkscape"
   xmlns:sodipodi="http://sodipodi.sourceforge.net/DTD/sodipodi-0.dtd"
   xmlns="http://www.w3.org/2000/svg"
   xmlns:svg="http://www.w3.org/2000/svg"
   xmlns:rdf="http://www.w3.org/1999/02/22-rdf-syntax-ns#"
   xmlns:cc="http://creativecommons.org/ns#"
   xmlns:dc="http://purl.org/dc/elements/1.1/">
  <sodipodi:namedview
     id="namedview7"
     pagecolor="#9c4444"
     bordercolor="#000000"
     borderopacity="0.25"
     inkscape:showpageshadow="2"
     inkscape:pageopacity="0.0"
     inkscape:pagecheckerboard="0"
     inkscape:deskcolor="#d1d1d1"
     inkscape:zoom="4.3531261"
     inkscape:cx="43.417074"
     inkscape:cy="20.674797"
     inkscape:window-width="1226"
     inkscape:window-height="669"
     inkscape:window-x="367"
     inkscape:window-y="200"
     inkscape:window-maximized="0"
     inkscape:current-layer="svg7"
     showgrid="false" />
  <defs
     id="defs2">
    <filter
       style="color-interpolation-filters:sRGB;"
       inkscape:label="Blur"
       id="filter5421"
       x="-0.12256455"
       y="-0.12342654"
       width="1.2451291"
       height="1.2468531">
      <feGaussianBlur
         stdDeviation="0.5 0.5"
         result="blur"
         id="feGaussianBlur5419" />
    </filter>
  </defs>
  <metadata
     id="metadata2">
    <rdf:RDF>
      <cc:Work
         rdf:about="">
        <dc:format>image/svg+xml</dc:format>
        <dc:type
           rdf:resource="http://purl.org/dc/dcmitype/StillImage" />
      </cc:Work>
    </rdf:RDF>
  </metadata>
  <rect
     style="opacity:0.3;fill:none;fill-opacity:0.996424;stroke:#000000;stroke-width:0.955221;stroke-dasharray:none;stroke-opacity:1;filter:url(#filter5421)"
     id="rect1-2-7"
     width="13.687567"
     height="13.591975"
     x="1.6227165"
     y="1.6705122"
     rx="2.8442214"
     ry="2.965905" />
  <rect
     style="fill:none;fill-opacity:1;stroke:{{colors.primary.default.hex}};stroke-width:0.955221;stroke-dasharray:none;stroke-opacity:1"
     id="rect1-2"
     width="13.687567"
     height="13.591975"
     x="1.6227167"
     y="1.6705124"
     rx="2.8442214"
     ry="2.965905" />
  <path
     id="path1-2"
     style="fill:{{colors.primary.default.hex}};fill-opacity:1;stroke:none;stroke-width:0.126378;stroke-dasharray:none;stroke-dashoffset:2.2;stroke-opacity:0.6"
     d="m 8.4511443,4.4321512 c -0.2180887,0.00217 -0.4328572,0.062982 -0.526079,0.1814944 -0.032155,0.040878 -0.1557127,0.3674271 -0.275053,0.7254671 L 7.4327292,5.9899381 7.5528736,6.0967899 C 7.6798299,6.2094109 7.8825252,6.2952747 8.123431,6.339124 8.3539553,6.381082 8.8223533,6.3500839 9.033973,6.2787963 9.2640708,6.2012814 9.4518475,6.0798861 9.4731387,5.9950515 9.4943297,5.9106145 9.0772925,4.6907516 8.9971631,4.6029094 8.8908622,4.4863785 8.669234,4.429986 8.4511443,4.4321512 Z M 7.0288397,7.2067196 6.8488783,7.7271751 C 6.5197206,8.6777751 6.5267944,8.6280841 6.6955032,8.820234 6.9587845,9.120095 7.4630185,9.3147185 8.1285443,9.3734088 8.9617544,9.4468872 9.8224824,9.2398149 10.183782,8.8785157 10.395747,8.6665519 10.395783,8.6643775 10.164359,7.9654186 10.051556,7.6247391 9.9473783,7.3146946 9.9332723,7.2767612 9.9078458,7.2083873 9.9067429,7.208632 9.8141481,7.314083 9.694149,7.450758 9.3528069,7.6173434 9.0651662,7.6796289 8.7285362,7.7525212 8.1572918,7.745731 7.8212892,7.6648021 7.5057627,7.5888031 7.2293878,7.45003 7.1126916,7.3084578 Z M 6.2992819,9.2072514 c 0,-0.00386 -0.3754853,0.1539441 -0.834364,0.3507191 -0.7210327,0.3091912 -0.8499478,0.3746507 -0.9504203,0.4810865 -0.1026249,0.10872 -0.1140834,0.135599 -0.098671,0.230575 0.010353,0.06375 0.057102,0.148827 0.115031,0.208593 0.056726,0.05854 0.7482164,0.471098 1.647257,0.983139 1.8144706,1.03342 1.6412727,0.940115 1.8410211,0.993876 0.2570747,0.0692 0.7222929,0.05822 0.9591099,-0.02247 0.1138611,-0.0388 0.8820662,-0.458235 1.7996124,-0.98263 1.669818,-0.954328 1.744905,-1.005727 1.744905,-1.196331 0,-0.107917 -0.0788,-0.235265 -0.187119,-0.3021516 -0.088,-0.054325 -1.707074,-0.7603362 -1.707074,-0.7443821 0,0.00359 0.03993,0.1238959 0.08845,0.2673854 0.0685,0.2026861 0.08226,0.2811101 0.06187,0.3522521 C 10.611391,10.41093 9.5665733,10.795481 8.2727245,10.749205 7.2761041,10.713557 6.4708425,10.415083 6.2210659,9.9889649 6.1295906,9.8329065 6.130221,9.7113965 6.2241214,9.4352798 6.2654629,9.313734 6.2992761,9.2111381 6.2992761,9.207261 Z" />
</svg>
