<?xml version="1.0" encoding="UTF-8" standalone="no"?>
<svg
   width="64"
   height="64"
   version="1.1"
   viewBox="0 0 16.933 16.933"
   id="svg7"
   sodipodi:docname="abcd.svg"
   inkscape:version="1.4.3 (0d15f75042, 2025-12-25)"
   xmlns:inkscape="http://www.inkscape.org/namespaces/inkscape"
   xmlns:sodipodi="http://sodipodi.sourceforge.net/DTD/sodipodi-0.dtd"
   xmlns="http://www.w3.org/2000/svg"
   xmlns:svg="http://www.w3.org/2000/svg"
   xmlns:rdf="http://www.w3.org/1999/02/22-rdf-syntax-ns#"
   xmlns:cc="http://creativecommons.org/ns#"
   xmlns:dc="http://purl.org/dc/elements/1.1/">
  <sodipodi:namedview
     id="namedview7"
     pagecolor="#9c4444"
     bordercolor="#000000"
     borderopacity="0.25"
     inkscape:showpageshadow="2"
     inkscape:pageopacity="0.0"
     inkscape:pagecheckerboard="0"
     inkscape:deskcolor="#d1d1d1"
     inkscape:zoom="4.3531261"
     inkscape:cx="43.417074"
     inkscape:cy="20.674797"
     inkscape:window-width="1226"
     inkscape:window-height="669"
     inkscape:window-x="0"
     inkscape:window-y="161"
     inkscape:window-maximized="0"
     inkscape:current-layer="svg7"
     showgrid="false" />
  <defs
     id="defs2">
    <filter
       style="color-interpolation-filters:sRGB;"
       inkscape:label="Blur"
       id="filter5421"
       x="-0.12256455"
       y="-0.12342654"
       width="1.2451291"
       height="1.2468531">
      <feGaussianBlur
         stdDeviation="0.5 0.5"
         result="blur"
         id="feGaussianBlur5419" />
    </filter>
  </defs>
  <metadata
     id="metadata2">
    <rdf:RDF>
      <cc:Work
         rdf:about="">
        <dc:format>image/svg+xml</dc:format>
        <dc:type
           rdf:resource="http://purl.org/dc/dcmitype/StillImage" />
      </cc:Work>
    </rdf:RDF>
  </metadata>
  <rect
     style="opacity:0.3;fill:none;fill-opacity:0.996424;stroke:#000000;stroke-width:0.955221;stroke-dasharray:none;stroke-opacity:1;filter:url(#filter5421)"
     id="rect1-2-7"
     width="13.687567"
     height="13.591975"
     x="1.6227165"
     y="1.6705122"
     rx="2.8442214"
     ry="2.965905" />
  <rect
     style="fill:none;fill-opacity:1;stroke:{{colors.primary.default.hex}};stroke-width:0.955221;stroke-dasharray:none;stroke-opacity:1"
     id="rect1-2"
     width="13.687567"
     height="13.591975"
     x="1.6227167"
     y="1.6705124"
     rx="2.8442214"
     ry="2.965905" />
  <path
     id="path51393"
     style="fill:{{colors.primary.default.hex}};fill-opacity:1;stroke:none;stroke-width:0.130312;stroke-dasharray:none;stroke-opacity:0.6"
     d="M 10.613226,6.0205845 C 9.6535575,6.0189315 9.0749886,6.5587158 8.8416249,7.6729476 8.720352,8.2519957 8.7217748,9.2799686 8.8446174,9.7359082 9.0184622,10.381147 9.3887392,10.795482 9.8768465,10.891866 10.274064,10.970298 10.759916,10.818194 11.005364,10.538643 11.314036,10.187086 11.462279,9.5689121 11.377543,8.9875551 11.320255,8.5944386 11.189983,8.3251393 10.948991,8.1030017 10.744007,7.9140553 10.557056,7.8480898 10.23057,7.8490603 9.9284977,7.8500059 9.716884,7.954694 9.4872063,8.2172502 L 9.2961264,8.4352703 V 8.2466854 c 0,-0.2826418 0.1068155,-0.7857736 0.2170228,-1.0222506 0.1218492,-0.2614567 0.3176985,-0.4614962 0.5547788,-0.5672517 0.215761,-0.096245 0.687116,-0.1360818 0.903513,-0.076332 l 0.152661,0.041908 V 6.3463675 c 0,-0.3261444 0.0014,-0.3249151 -0.510875,-0.3257829 z m -3.8046269,0.00399 c -0.034048,1.675e-4 -0.06898,0.00121 -0.1047692,0.00298 C 6.4032582,6.0421225 6.3154785,6.0637203 6.1076415,6.1752396 5.9736088,6.2471586 5.7922156,6.367181 5.7040296,6.441653 L 5.543383,6.576859 5.6775879,6.7858988 c 0.073761,0.114945 0.1462254,0.20904 0.1611452,0.20904 0.014925,0 0.094254,-0.055257 0.1761127,-0.1227297 C 6.2488942,6.6792859 6.4830782,6.590328 6.7617023,6.5893315 7.2138364,6.5876766 7.4343604,6.8383979 7.4327254,7.3521526 7.4309131,7.937903 7.3230114,8.1148073 5.9699446,9.7568616 L 5.5189368,10.304656 v 0.274397 0.274396 h 1.3200958 1.3200946 v -0.304828 -0.30433 h -0.978347 c -0.5656729,0 -0.972706,-0.01569 -0.9648769,-0.03692 0.00744,-0.02018 0.2514029,-0.3147163 0.5418076,-0.6545572 C 7.8378591,8.2887895 8.0224364,7.9331558 7.9890016,7.1820278 7.9750623,6.868863 7.9547623,6.7789105 7.8547969,6.5958178 7.6371153,6.1971255 7.3193007,6.0220533 6.8085991,6.0245759 Z M 3.8261618,7.2398976 C 3.762747,7.239346 3.695065,7.2717137 3.6285967,7.3381812 l -0.099781,0.09978 v 1.0117734 c 0,0.9620798 0.00378,1.0167764 0.083817,1.1185387 0.1295588,0.1647073 0.3234803,0.1380714 0.4250647,-0.058372 0.086618,-0.1675027 0.086618,-1.9383623 0,-2.1058658 C 3.9817794,7.2959077 3.9076964,7.2405812 3.8261618,7.2399009 Z m 9.3010322,0 c -0.06341,-5.516e-4 -0.131094,0.031815 -0.197566,0.098284 l -0.09978,0.09978 v 1.0117733 c 0,0.962083 0.0043,1.0167764 0.08431,1.1185387 0.12956,0.1647083 0.323478,0.1380714 0.425063,-0.058372 0.08661,-0.1675037 0.08661,-1.9383617 0,-2.1058658 -0.05592,-0.108132 -0.130494,-0.163458 -0.212031,-0.1641381 z m -2.990418,1.1360002 c 0.295131,0 0.470463,0.1014052 0.597685,0.345241 0.0716,0.1372519 0.08482,0.2350148 0.08482,0.629614 0,0.4358254 -0.0076,0.4796833 -0.111256,0.6560542 -0.07716,0.131271 -0.164742,0.214778 -0.286867,0.273901 -0.200252,0.09694 -0.399554,0.106683 -0.5767325,0.02794 C 9.3957345,10.109228 9.1589357,9.2330147 9.429332,8.7730265 9.5865038,8.5056513 9.8177163,8.3759005 10.136776,8.3759005 Z" />
</svg>
