<?xml version="1.0" encoding="UTF-8" standalone="no"?>
<svg
   width="64"
   height="64"
   version="1.1"
   viewBox="0 0 16.933 16.933"
   id="svg7"
   sodipodi:docname="abcd.svg"
   inkscape:version="1.4.3 (0d15f75042, 2025-12-25)"
   xmlns:inkscape="http://www.inkscape.org/namespaces/inkscape"
   xmlns:sodipodi="http://sodipodi.sourceforge.net/DTD/sodipodi-0.dtd"
   xmlns="http://www.w3.org/2000/svg"
   xmlns:svg="http://www.w3.org/2000/svg"
   xmlns:rdf="http://www.w3.org/1999/02/22-rdf-syntax-ns#"
   xmlns:cc="http://creativecommons.org/ns#"
   xmlns:dc="http://purl.org/dc/elements/1.1/">
  <sodipodi:namedview
     id="namedview7"
     pagecolor="#9c4444"
     bordercolor="#000000"
     borderopacity="0.25"
     inkscape:showpageshadow="2"
     inkscape:pageopacity="0.0"
     inkscape:pagecheckerboard="0"
     inkscape:deskcolor="#d1d1d1"
     inkscape:zoom="4.3531261"
     inkscape:cx="33.768836"
     inkscape:cy="30.552756"
     inkscape:window-width="1226"
     inkscape:window-height="669"
     inkscape:window-x="100"
     inkscape:window-y="206"
     inkscape:window-maximized="0"
     inkscape:current-layer="svg7"
     showgrid="false" />
  <defs
     id="defs2">
    <filter
       style="color-interpolation-filters:sRGB;"
       inkscape:label="Blur"
       id="filter5421"
       x="-0.12256455"
       y="-0.12342654"
       width="1.2451291"
       height="1.2468531">
      <feGaussianBlur
         stdDeviation="0.5 0.5"
         result="blur"
         id="feGaussianBlur5419" />
    </filter>
  </defs>
  <metadata
     id="metadata2">
    <rdf:RDF>
      <cc:Work
         rdf:about="">
        <dc:format>image/svg+xml</dc:format>
        <dc:type
           rdf:resource="http://purl.org/dc/dcmitype/StillImage" />
      </cc:Work>
    </rdf:RDF>
  </metadata>
  <rect
     style="opacity:0.3;fill:none;fill-opacity:0.996424;stroke:#000000;stroke-width:0.955221;stroke-dasharray:none;stroke-opacity:1;filter:url(#filter5421)"
     id="rect1-2-7"
     width="13.687567"
     height="13.591975"
     x="1.6227165"
     y="1.6705122"
     rx="2.8442214"
     ry="2.965905" />
  <rect
     style="fill:none;fill-opacity:1;stroke:{{colors.primary.default.hex}};stroke-width:0.955221;stroke-dasharray:none;stroke-opacity:1"
     id="rect1-2"
     width="13.687567"
     height="13.591975"
     x="1.6227167"
     y="1.6705124"
     rx="2.8442214"
     ry="2.965905" />
  <path
     style="fill:{{colors.primary.default.hex}};fill-opacity:1;stroke:none;stroke-width:0.131436;stroke-dasharray:none;stroke-opacity:0.6"
     d="M 7.3860394,11.533247 C 6.9242907,11.489569 6.4803795,11.240366 6.1531306,10.841121 5.9092575,10.54359 5.7138533,9.9932115 5.6404894,9.3971975 L 5.6260036,9.2795568 5.469308,9.2723127 C 5.3831248,9.2683277 5.1042245,9.2615673 4.8495272,9.2573069 l -0.4630847,-0.00775 2.99e-5,-0.1349345 c 1.62e-5,-0.074215 0.0035,-0.2478863 0.00783,-0.3859378 l 0.00776,-0.2510025 0.1923568,0.00422 c 0.1057963,0.0023 0.3777097,0.00897 0.6042529,0.014834 0.2265437,0.00584 0.4133497,0.00921 0.4151263,0.00745 0.00175,-0.00169 0.00846,-0.073451 0.014865,-0.159385 C 5.6592294,7.9343757 5.7826519,7.4772016 5.953293,7.1423545 6.2128913,6.6329491 6.5770509,6.3333154 7.02752,6.2584709 c 0.5180644,-0.086076 1.031093,0.040354 1.4744589,0.3633624 0.1568602,0.1142786 0.4236722,0.3745966 0.581707,0.5675477 0.068744,0.083932 0.2325032,0.2985071 0.3639109,0.4768334 0.4194396,0.569199 0.5560262,0.7243354 0.6989272,0.7938534 0.08672,0.042193 0.118561,0.04475 0.18533,0.01491 0.06719,-0.030038 0.08773,-0.057207 0.102999,-0.1361319 0.02947,-0.1525445 -0.0039,-0.3613104 -0.151707,-0.9506022 -0.142601,-0.5683127 -0.163999,-0.6935961 -0.164355,-0.9622482 -2.59e-4,-0.1972774 0.0024,-0.224934 0.03175,-0.3315699 0.116455,-0.4228509 0.442056,-0.7038607 0.815546,-0.7038607 0.303153,0 0.704562,0.1685589 1.113987,0.467782 0.124154,0.090736 0.460106,0.3661297 0.466435,0.3823567 0.0058,0.014949 -0.499493,0.5823802 -0.51196,0.5748824 -0.0058,-0.00359 -0.07699,-0.061827 -0.157704,-0.1293653 C 11.604542,6.4584172 11.4078,6.3259735 11.204242,6.2334321 c -0.144492,-0.065688 -0.21453,-0.081877 -0.251695,-0.05817 -0.03618,0.023087 -0.05289,0.083889 -0.05297,0.1928691 -1.38e-4,0.1820345 0.03843,0.3896836 0.163035,0.8780667 0.142768,0.5595306 0.179766,0.790551 0.16845,1.051866 -0.0077,0.1818323 -0.03903,0.3067627 -0.113344,0.4547438 -0.0475,0.094592 -0.07196,0.1265404 -0.169725,0.2216271 -0.09296,0.090454 -0.134187,0.1210485 -0.221753,0.1646103 C 10.352461,9.324989 9.9874736,9.2977404 9.6383435,9.0578296 9.4485841,8.9274311 9.2249856,8.6886575 8.9865318,8.361778 8.9170301,8.2665054 8.8068615,8.1152592 8.7417124,8.0256772 8.2851976,7.3979617 7.9218843,7.086335 7.5628148,7.0144932 7.38966,6.9798486 7.1469507,7.0011349 7.0240998,7.0617393 6.8921749,7.1268205 6.7448918,7.3020956 6.6446662,7.5132873 6.5254366,7.7645217 6.4324073,8.1355992 6.4121578,8.4407204 l -0.00825,0.1241946 0.057855,0.00754 c 0.4979383,0.0651 0.80838,0.1471192 1.1061604,0.2922462 0.4239143,0.2065993 0.6818683,0.4642313 0.9069402,0.9058123 0.247959,0.4864815 0.2674051,0.9180945 0.056683,1.2580915 -0.1786027,0.288173 -0.4913966,0.467969 -0.8777685,0.504546 -0.1301659,0.01231 -0.1382269,0.01231 -0.2677482,6.7e-5 z m 0.39226,-0.818319 c 0.047292,-0.02389 0.068182,-0.04275 0.08139,-0.07352 0.062771,-0.146255 0.00203,-0.388669 -0.1664912,-0.6648664 C 7.5324231,9.713092 7.3419037,9.5739961 6.9859425,9.460171 6.8570651,9.4189611 6.5461084,9.357941 6.4643671,9.3578229 l -0.031356,-4.67e-5 0.022602,0.1250662 c 0.052589,0.2910607 0.1358836,0.5519046 0.2412692,0.7555646 0.091498,0.176823 0.2476058,0.319944 0.4561242,0.418182 0.1622798,0.07645 0.2590106,0.09785 0.4242451,0.0938 0.1230034,-0.003 0.1441112,-0.0066 0.2010526,-0.03547 z"
     id="path109" />
</svg>
