<?xml version="1.0" encoding="UTF-8" standalone="no"?>
<svg
   width="64"
   height="64"
   version="1.1"
   viewBox="0 0 16.933 16.933"
   id="svg7"
   sodipodi:docname="accessories-text-editor.svg"
   inkscape:version="1.4.3 (0d15f75042, 2025-12-25)"
   xmlns:inkscape="http://www.inkscape.org/namespaces/inkscape"
   xmlns:sodipodi="http://sodipodi.sourceforge.net/DTD/sodipodi-0.dtd"
   xmlns="http://www.w3.org/2000/svg"
   xmlns:svg="http://www.w3.org/2000/svg"
   xmlns:rdf="http://www.w3.org/1999/02/22-rdf-syntax-ns#"
   xmlns:cc="http://creativecommons.org/ns#"
   xmlns:dc="http://purl.org/dc/elements/1.1/">
  <sodipodi:namedview
     id="namedview7"
     pagecolor="#9c4444"
     bordercolor="#000000"
     borderopacity="0.25"
     inkscape:showpageshadow="2"
     inkscape:pageopacity="0.0"
     inkscape:pagecheckerboard="0"
     inkscape:deskcolor="#d1d1d1"
     inkscape:zoom="4.3531261"
     inkscape:cx="43.417074"
     inkscape:cy="20.674797"
     inkscape:window-width="1226"
     inkscape:window-height="669"
     inkscape:window-x="474"
     inkscape:window-y="225"
     inkscape:window-maximized="0"
     inkscape:current-layer="svg7"
     showgrid="false" />
  <defs
     id="defs2">
    <filter
       style="color-interpolation-filters:sRGB;"
       inkscape:label="Blur"
       id="filter5421"
       x="-0.12256455"
       y="-0.12342654"
       width="1.2451291"
       height="1.2468531">
      <feGaussianBlur
         stdDeviation="0.5 0.5"
         result="blur"
         id="feGaussianBlur5419" />
    </filter>
  </defs>
  <metadata
     id="metadata2">
    <rdf:RDF>
      <cc:Work
         rdf:about="">
        <dc:format>image/svg+xml</dc:format>
        <dc:type
           rdf:resource="http://purl.org/dc/dcmitype/StillImage" />
      </cc:Work>
    </rdf:RDF>
  </metadata>
  <rect
     style="opacity:0.3;fill:none;fill-opacity:0.996424;stroke:#000000;stroke-width:0.955221;stroke-dasharray:none;stroke-opacity:1;filter:url(#filter5421)"
     id="rect1-2-7"
     width="13.687567"
     height="13.591975"
     x="1.6227165"
     y="1.6705122"
     rx="2.8442214"
     ry="2.965905" />
  <rect
     style="fill:none;fill-opacity:1;stroke:{{colors.primary.default.hex}};stroke-width:0.955221;stroke-dasharray:none;stroke-opacity:1"
     id="rect1-2"
     width="13.687567"
     height="13.591975"
     x="1.6227167"
     y="1.6705124"
     rx="2.8442214"
     ry="2.965905" />
  <path
     d="M 8.4664995,4.3248264 A 4.0392068,4.1416731 0 0 0 4.4270443,8.466245 4.0392068,4.1416731 0 0 0 8.4664995,12.608173 4.0392068,4.1416731 0 0 0 12.505955,8.466245 4.0392068,4.1416731 0 0 0 8.4664995,4.3248264 Z m 0,0.5268863 A 3.5254552,3.6148891 0 0 1 10.086132,5.2591801 L 9.5533766,6.1930246 A 2.4711479,2.5338357 0 0 0 8.4664995,5.9323325 2.4711479,2.5338357 0 0 0 7.3946526,6.1865672 L 6.8405314,5.2606706 A 3.5254552,3.6148891 0 0 1 8.4664755,4.8516994 Z m 0,1.5806313 A 1.983606,2.0339262 0 0 1 10.450056,8.4662197 1.983606,2.0339262 0 0 1 8.4664995,10.500094 1.983606,2.0339262 0 0 1 6.4829429,8.4662197 1.983606,2.0339262 0 0 1 8.4664995,6.432344 Z m 3.1242435,0.3631965 a 3.5254552,3.6148891 0 0 1 0.40079,1.6706792 3.5254552,3.6148891 0 0 1 -0.399822,1.6661953 L 10.682412,9.5841577 a 2.4711479,2.5338357 0 0 0 0.255211,-1.117938 2.4711479,2.5338357 0 0 0 -0.26249,-1.1293764 l 0.915584,-0.5413028 z m -6.2601622,0.027361 0.918516,0.5278794 A 2.4711479,2.5338357 0 0 0 5.9953266,8.4662227 2.4711479,2.5338357 0 0 0 6.2563764,9.5936119 L 5.3388283,10.131425 A 3.5254552,3.6148891 0 0 1 4.9409447,8.4662227 3.5254552,3.6148891 0 0 1 5.3305808,6.8229015 Z m 2.047601,3.9164895 a 2.4711479,2.5338357 0 0 0 1.0883427,0.260692 2.4711479,2.5338357 0 0 0 1.069412,-0.253237 l 0.5628425,0.921412 A 3.5254552,3.6148891 0 0 1 8.4665245,12.081203 3.5254552,3.6148891 0 0 1 6.8231169,11.662297 L 7.378207,10.739406 Z"
     fill="url(#linearGradient898)"
     stroke-width="2.23747"
     id="path27"
     style="fill:{{colors.primary.default.hex}};fill-opacity:1;stroke:none;stroke-width:0.130312;stroke-dasharray:none;stroke-opacity:0.6" />
</svg>
