<?xml version="1.0" encoding="UTF-8" standalone="no"?>
<svg
   width="64"
   height="64"
   version="1.1"
   viewBox="0 0 16.933 16.933"
   id="svg7"
   sodipodi:docname="abcd.svg"
   inkscape:version="1.4.3 (0d15f75042, 2025-12-25)"
   xmlns:inkscape="http://www.inkscape.org/namespaces/inkscape"
   xmlns:sodipodi="http://sodipodi.sourceforge.net/DTD/sodipodi-0.dtd"
   xmlns="http://www.w3.org/2000/svg"
   xmlns:svg="http://www.w3.org/2000/svg"
   xmlns:rdf="http://www.w3.org/1999/02/22-rdf-syntax-ns#"
   xmlns:cc="http://creativecommons.org/ns#"
   xmlns:dc="http://purl.org/dc/elements/1.1/">
  <sodipodi:namedview
     id="namedview7"
     pagecolor="#9c4444"
     bordercolor="#000000"
     borderopacity="0.25"
     inkscape:showpageshadow="2"
     inkscape:pageopacity="0.0"
     inkscape:pagecheckerboard="0"
     inkscape:deskcolor="#d1d1d1"
     inkscape:zoom="4.3531261"
     inkscape:cx="43.417074"
     inkscape:cy="20.674797"
     inkscape:window-width="1226"
     inkscape:window-height="669"
     inkscape:window-x="146"
     inkscape:window-y="136"
     inkscape:window-maximized="0"
     inkscape:current-layer="svg7"
     showgrid="false" />
  <defs
     id="defs2">
    <filter
       style="color-interpolation-filters:sRGB;"
       inkscape:label="Blur"
       id="filter5421"
       x="-0.12256455"
       y="-0.12342654"
       width="1.2451291"
       height="1.2468531">
      <feGaussianBlur
         stdDeviation="0.5 0.5"
         result="blur"
         id="feGaussianBlur5419" />
    </filter>
  </defs>
  <metadata
     id="metadata2">
    <rdf:RDF>
      <cc:Work
         rdf:about="">
        <dc:format>image/svg+xml</dc:format>
        <dc:type
           rdf:resource="http://purl.org/dc/dcmitype/StillImage" />
      </cc:Work>
    </rdf:RDF>
  </metadata>
  <rect
     style="opacity:0.3;fill:none;fill-opacity:0.996424;stroke:#000000;stroke-width:0.955221;stroke-dasharray:none;stroke-opacity:1;filter:url(#filter5421)"
     id="rect1-2-7"
     width="13.687567"
     height="13.591975"
     x="1.6227165"
     y="1.6705122"
     rx="2.8442214"
     ry="2.965905" />
  <rect
     style="fill:none;fill-opacity:1;stroke:{{colors.primary.default.hex}};stroke-width:0.955221;stroke-dasharray:none;stroke-opacity:1"
     id="rect1-2"
     width="13.687567"
     height="13.591975"
     x="1.6227167"
     y="1.6705124"
     rx="2.8442214"
     ry="2.965905" />
  <path
     style="fill:{{colors.primary.default.hex}};fill-opacity:1;stroke-width:0.0733911"
     d="m 11.923224,12.549889 c -0.13051,-0.03064 -0.137905,-0.03739 -1.165301,-1.064012 -0.538508,-0.538103 -0.9788062,-0.984863 -0.9784404,-0.992803 3.678e-4,-0.008 0.03241,-0.03755 0.071212,-0.06581 0.1706774,-0.124309 0.4188324,-0.372329 0.5563514,-0.5560507 0.03229,-0.043141 0.06404,-0.078679 0.07055,-0.078974 0.0065,-2.494e-4 0.456478,0.4446547 0.999928,0.9887777 0.671089,0.67192 0.996005,1.00521 1.012759,1.03886 0.05724,0.114958 0.07343,0.250447 0.0434,0.363203 -0.07072,0.265595 -0.34348,0.429492 -0.610465,0.366814 z M 7.7062499,10.841652 C 7.2496876,10.796181 6.9385271,10.710128 6.5793716,10.530008 6.4252493,10.452715 6.1895176,10.301201 6.0613392,10.197049 5.9441075,10.10179 5.7279321,9.8849595 5.6279482,9.7623424 5.3055516,9.3669669 5.0835987,8.8649095 5.0049977,8.3532317 4.9832627,8.2117531 4.9683689,7.8004264 4.9812453,7.6973633 l 0.0081,-0.064852 0.081193,0.052523 c 0.1196015,0.07737 0.29375,0.1613473 0.4369091,0.2106848 l 0.1262322,0.043503 1.837e-4,0.083707 C 5.634078,8.1232322 5.6601783,8.3145615 5.6914513,8.4457972 5.9016245,9.327741 6.6186693,10.000172 7.5158411,10.156676 8.4265872,10.315547 9.3478577,9.8996703 9.8403777,9.1073446 10.09477,8.6981005 10.214379,8.1806676 10.165737,7.6998257 10.09261,6.9768164 9.6894184,6.3387409 9.0688317,5.9638891 8.8498433,5.8316133 8.5674972,5.7270313 8.3023982,5.6799986 L 8.1470427,5.6524349 8.1340857,5.5878497 C 8.101528,5.425587 8.038634,5.2433601 7.9628595,5.0917255 L 7.9115139,4.9889782 h 0.074406 c 0.2227482,0 0.5820423,0.06262 0.832861,0.1451556 0.3025385,0.099555 0.5767762,0.2426671 0.842616,0.4397227 0.1640772,0.1216236 0.4536071,0.4087422 0.5731561,0.5683805 0.557427,0.7443618 0.734596,1.6686713 0.490505,2.5590021 -0.160911,0.5869306 -0.511671,1.1178134 -0.9932061,1.5032399 -0.4135693,0.331026 -0.8870848,0.535044 -1.4261988,0.614493 -0.1232526,0.01816 -0.5011703,0.03246 -0.5993977,0.02268 z M 7.3230157,8.1653495 c -0.00411,-0.00646 -0.011176,-0.046089 -0.015702,-0.08807 C 7.2840869,7.8619307 7.2288768,7.6929503 7.1548338,7.6105962 7.0699185,7.5161502 6.9300242,7.46387 6.6718232,7.4300886 6.5501691,7.4141741 6.548877,7.4036625 6.6670296,7.3911128 6.8643366,7.3701552 7.0491048,7.3101521 7.1318403,7.2401624 7.2110409,7.1731646 7.2742684,6.9996936 7.3033184,6.7696949 c 0.00787,-0.062298 0.01784,-0.1132684 0.022156,-0.1132684 0.00431,0 0.011465,0.033025 0.015889,0.07339 0.024104,0.2200949 0.076542,0.3882697 0.1492955,0.4788011 0.070514,0.087747 0.2588337,0.1570073 0.4974145,0.1829425 0.1031332,0.011207 0.1135761,0.023584 0.027836,0.032977 -0.1412367,0.015476 -0.309743,0.05519 -0.3897316,0.091851 -0.1533371,0.070277 -0.220771,0.1851287 -0.2657493,0.4526193 -0.012729,0.075695 -0.024672,0.1534814 -0.026542,0.1728567 -0.00187,0.019374 -0.00676,0.029943 -0.010872,0.023485 z M 5.9637085,7.584091 C 5.9586812,7.5164972 5.8870066,7.0556123 5.867576,6.9659318 5.7772316,6.5489415 5.6464334,6.3407696 5.3953171,6.2143097 5.222581,6.1273211 5.019481,6.0761826 4.6120763,6.0170964 4.3934941,5.9853957 4.3569933,5.9775028 4.4007098,5.9713897 4.9200624,5.898766 5.0732388,5.8692384 5.2452535,5.8085883 5.3756605,5.7626078 5.4355978,5.7317658 5.5246678,5.6648111 5.7420191,5.5014254 5.8482811,5.2233496 5.9329781,4.5963071 c 0.016521,-0.1223216 0.031857,-0.2242196 0.034078,-0.2264404 0.00223,-0.00223 0.0077,0.029167 0.012179,0.06975 0.035527,0.3218943 0.093278,0.6242665 0.1537404,0.804955 0.1452176,0.4339754 0.4040456,0.5886183 1.1622808,0.6944304 0.090418,0.012618 0.193459,0.026942 0.2289806,0.031832 l 0.064584,0.00889 -0.070456,0.00978 C 7.2017039,6.0334473 7.0890293,6.0513142 6.96708,6.0769172 6.4097526,6.1939277 6.2107266,6.3756196 6.0846238,6.8825137 6.0577293,6.9906242 6.0183153,7.2204682 5.9814339,7.4842783 c -0.00903,0.064584 -0.017008,0.1094993 -0.017727,0.099812 z M 6.8679411,5.2811456 c -7.092e-4,-0.004 -0.00932,-0.053352 -0.019143,-0.1096749 C 6.8130497,4.9664704 6.7525008,4.9100675 6.5261217,4.870886 l -0.08807,-0.015245 0.052842,-0.00912 C 6.776686,4.7972164 6.8178293,4.7557356 6.8620739,4.4722993 l 0.00825,-0.052843 0.015762,0.093941 c 0.03869,0.2305826 0.098851,0.2913374 0.3234435,0.3266362 l 0.097476,0.015318 -0.1096263,0.020254 c -0.2323217,0.042919 -0.2658786,0.080875 -0.318234,0.3599603 -0.00545,0.029063 -0.010494,0.049571 -0.011202,0.045573 z"
     id="path1" />
</svg>
