<?xml version="1.0" encoding="UTF-8" standalone="no"?>
<svg
   width="64"
   height="64"
   version="1.1"
   viewBox="0 0 16.933 16.933"
   id="svg7"
   sodipodi:docname="abcd.svg"
   inkscape:version="1.4.3 (0d15f75042, 2025-12-25)"
   xmlns:inkscape="http://www.inkscape.org/namespaces/inkscape"
   xmlns:sodipodi="http://sodipodi.sourceforge.net/DTD/sodipodi-0.dtd"
   xmlns="http://www.w3.org/2000/svg"
   xmlns:svg="http://www.w3.org/2000/svg"
   xmlns:rdf="http://www.w3.org/1999/02/22-rdf-syntax-ns#"
   xmlns:cc="http://creativecommons.org/ns#"
   xmlns:dc="http://purl.org/dc/elements/1.1/">
  <sodipodi:namedview
     id="namedview7"
     pagecolor="#9c4444"
     bordercolor="#000000"
     borderopacity="0.25"
     inkscape:showpageshadow="2"
     inkscape:pageopacity="0.0"
     inkscape:pagecheckerboard="0"
     inkscape:deskcolor="#d1d1d1"
     inkscape:zoom="4.3531261"
     inkscape:cx="43.417074"
     inkscape:cy="20.674797"
     inkscape:window-width="1226"
     inkscape:window-height="669"
     inkscape:window-x="146"
     inkscape:window-y="136"
     inkscape:window-maximized="0"
     inkscape:current-layer="svg7"
     showgrid="false" />
  <defs
     id="defs2">
    <filter
       style="color-interpolation-filters:sRGB;"
       inkscape:label="Blur"
       id="filter5421"
       x="-0.12256455"
       y="-0.12342654"
       width="1.2451291"
       height="1.2468531">
      <feGaussianBlur
         stdDeviation="0.5 0.5"
         result="blur"
         id="feGaussianBlur5419" />
    </filter>
  </defs>
  <metadata
     id="metadata2">
    <rdf:RDF>
      <cc:Work
         rdf:about="">
        <dc:format>image/svg+xml</dc:format>
        <dc:type
           rdf:resource="http://purl.org/dc/dcmitype/StillImage" />
      </cc:Work>
    </rdf:RDF>
  </metadata>
  <rect
     style="opacity:0.3;fill:none;fill-opacity:0.996424;stroke:#000000;stroke-width:0.955221;stroke-dasharray:none;stroke-opacity:1;filter:url(#filter5421)"
     id="rect1-2-7"
     width="13.687567"
     height="13.591975"
     x="1.6227165"
     y="1.6705122"
     rx="2.8442214"
     ry="2.965905" />
  <rect
     style="fill:none;fill-opacity:1;stroke:{{colors.primary.default.hex}};stroke-width:0.955221;stroke-dasharray:none;stroke-opacity:1"
     id="rect1-2"
     width="13.687567"
     height="13.591975"
     x="1.6227167"
     y="1.6705124"
     rx="2.8442214"
     ry="2.965905" />
  <path
     id="path90"
     style="fill:{{colors.primary.default.hex}};fill-opacity:1;stroke:none;stroke-width:0.130312;stroke-dasharray:none;stroke-opacity:0.6"
     d="M 8.483213,4.3670068 C 8.0467541,4.3667179 7.8776307,4.3826272 7.551812,4.4555571 6.6406787,4.6595019 5.9448516,5.132375 5.6608684,5.7400861 5.4788637,6.1295662 5.4823191,6.5265821 5.6717189,6.9178442 6.0267335,7.6512326 6.9761567,8.1662591 8.1594106,8.2676004 8.3071089,8.2802445 8.8687671,8.2628262 9.0301191,8.2406337 10.288354,8.0676082 11.219737,7.4029415 11.386933,6.5589033 11.418499,6.3995485 11.413277,6.1779741 11.374052,6.0122958 11.203956,5.293876 10.427798,4.6834509 9.3946154,4.4555561 9.055694,4.3807996 8.917689,4.3673423 8.4832193,4.3670061 Z m 2.718252,3.5759089 -0.05084,0.068872 c -0.0913,0.1236782 -0.290837,0.3149291 -0.440793,0.422347 C 9.7031171,9.1552752 7.9709657,9.2788638 6.7261993,8.7183703 6.3432994,8.5459585 6.0157498,8.3039489 5.8093779,8.0405766 5.7227223,7.9299878 5.7346281,7.9271706 5.6588341,8.0733728 5.554535,8.2745643 5.5066397,8.5231326 5.5323644,8.7285741 c 0.019674,0.1570702 0.078861,0.336485 0.1586805,0.4810153 0.080368,0.1455145 0.3261348,0.4171863 0.4838409,0.5349462 0.4863065,0.3631324 1.1589706,0.5984884 1.8967079,0.6635814 0.2142905,0.01891 0.7521668,0.0074 0.9720873,-0.02079 0.6899617,-0.08844 1.290928,-0.314403 1.727854,-0.6500993 0.141124,-0.1084241 0.35323,-0.3334964 0.431288,-0.4576923 0.07639,-0.1215485 0.15424,-0.304125 0.182414,-0.4274479 0.02954,-0.1292879 0.02954,-0.3546423 0,-0.4839303 -0.02403,-0.1051744 -0.107162,-0.30976 -0.15495,-0.3818901 z M 5.744617,10.089992 c -0.022768,7e-6 -0.1168369,0.177474 -0.1620717,0.314847 -0.074979,0.227702 -0.075277,0.459417 -0.0011,0.69747 0.2421333,0.776201 1.2710994,1.3573 2.5846631,1.459809 0.1503302,0.01174 0.7004374,-0.0049 0.8707082,-0.02661 0.5452213,-0.06907 1.0622734,-0.233573 1.4511814,-0.461338 0.285168,-0.167007 0.585031,-0.43862 0.715079,-0.647547 0.07634,-0.122645 0.154133,-0.304768 0.182078,-0.427084 0.02954,-0.129287 0.02954,-0.354643 0,-0.48393 -0.02397,-0.10502 -0.106966,-0.309998 -0.154599,-0.3819 l -0.02847,-0.04301 -0.06509,0.08308 c -0.375297,0.481235 -1.044819,0.831253 -1.8641524,0.974424 -1.3605991,0.237752 -2.7981683,-0.1522 -3.4390955,-0.932877 -0.046406,-0.05652 -0.084087,-0.107923 -0.084087,-0.11406 0,-0.0081 -0.00181,-0.01129 -0.0051,-0.01129 z" />
</svg>
