<?xml version="1.0" encoding="UTF-8" standalone="no"?>
<svg
   width="64"
   height="64"
   version="1.1"
   viewBox="0 0 16.933 16.933"
   id="svg7"
   sodipodi:docname="abcd.svg"
   inkscape:version="1.4.3 (0d15f75042, 2025-12-25)"
   xmlns:inkscape="http://www.inkscape.org/namespaces/inkscape"
   xmlns:sodipodi="http://sodipodi.sourceforge.net/DTD/sodipodi-0.dtd"
   xmlns="http://www.w3.org/2000/svg"
   xmlns:svg="http://www.w3.org/2000/svg"
   xmlns:rdf="http://www.w3.org/1999/02/22-rdf-syntax-ns#"
   xmlns:cc="http://creativecommons.org/ns#"
   xmlns:dc="http://purl.org/dc/elements/1.1/">
  <sodipodi:namedview
     id="namedview7"
     pagecolor="#9c4444"
     bordercolor="#000000"
     borderopacity="0.25"
     inkscape:showpageshadow="2"
     inkscape:pageopacity="0.0"
     inkscape:pagecheckerboard="0"
     inkscape:deskcolor="#d1d1d1"
     inkscape:zoom="4.3531261"
     inkscape:cx="43.417074"
     inkscape:cy="20.674797"
     inkscape:window-width="1226"
     inkscape:window-height="669"
     inkscape:window-x="0"
     inkscape:window-y="161"
     inkscape:window-maximized="0"
     inkscape:current-layer="svg7"
     showgrid="false" />
  <defs
     id="defs2">
    <filter
       style="color-interpolation-filters:sRGB;"
       inkscape:label="Blur"
       id="filter5421"
       x="-0.12256455"
       y="-0.12342654"
       width="1.2451291"
       height="1.2468531">
      <feGaussianBlur
         stdDeviation="0.5 0.5"
         result="blur"
         id="feGaussianBlur5419" />
    </filter>
  </defs>
  <metadata
     id="metadata2">
    <rdf:RDF>
      <cc:Work
         rdf:about="">
        <dc:format>image/svg+xml</dc:format>
        <dc:type
           rdf:resource="http://purl.org/dc/dcmitype/StillImage" />
      </cc:Work>
    </rdf:RDF>
  </metadata>
  <rect
     style="opacity:0.3;fill:none;fill-opacity:0.996424;stroke:#000000;stroke-width:0.955221;stroke-dasharray:none;stroke-opacity:1;filter:url(#filter5421)"
     id="rect1-2-7"
     width="13.687567"
     height="13.591975"
     x="1.6227165"
     y="1.6705122"
     rx="2.8442214"
     ry="2.965905" />
  <rect
     style="fill:none;fill-opacity:1;stroke:{{colors.primary.default.hex}};stroke-width:0.955221;stroke-dasharray:none;stroke-opacity:1"
     id="rect1-2"
     width="13.687567"
     height="13.591975"
     x="1.6227167"
     y="1.6705124"
     rx="2.8442214"
     ry="2.965905" />
  <path
     style="fill:{{colors.primary.default.hex}};fill-opacity:1;stroke:none;stroke-width:0.13133;stroke-dasharray:none;stroke-opacity:0.6"
     d="m 6.9683089,4.4474673 c -0.1982806,3.5e-6 -0.4028279,0.018494 -0.612119,0.054949 -0.2092908,0.034631 -0.4247183,0.087482 -0.647228,0.1585623 v 0.4647009 c 0.1850603,-0.08384 0.3780549,-0.1472537 0.5785366,-0.1891776 0.2004824,-0.041921 0.4067263,-0.062796 0.6182248,-0.062798 0.3326635,2.4e-6 0.5903049,0.06395 0.773163,0.1915316 0.185057,0.1257664 0.2770528,0.3313459 0.2770555,0.5628222 v 0.051809 H 7.1041655 c -0.5529737,2.4e-6 -0.9703973,0.08485 -1.250188,0.2598243 -0.277589,0.1749769 -0.4159685,0.4075172 -0.4159653,0.7519986 -3.2e-6,0.2952704 0.1110235,0.5320278 0.3335353,0.7088256 0.2247142,0.1749756 0.5270337,0.2621793 0.9059669,0.2621793 0.2996175,0 0.5530949,-0.043603 0.7601878,-0.1310895 C 7.6447883,7.4422944 7.8171454,7.304623 7.9559418,7.1187121 V 7.6626949 H 8.5642454 V 5.9977782 C 8.564239,5.5311797 8.4324912,5.0217251 8.168123,4.792068 7.9037523,4.5624155 7.5036558,4.4474708 6.9683089,4.4474673 Z m 2.3774948,0.803807 V 9.6722107 H 10.51814 V 9.1392175 c 0.167401,0.4151346 0.394176,0.4703461 0.776216,0.5329932 0.343701,0 0.820921,-0.1518993 1.041756,-0.4568509 0.220829,-0.3068104 0.331244,-0.7288185 0.331247,-1.2104194 -3e-6,-0.4815984 -0.110418,-0.7947857 -0.331247,-1.0997401 -0.220835,-0.3068092 -0.698055,-0.4599876 -1.041756,-0.4599908 -0.438894,0.00656 -0.62321,0.2267884 -0.776216,0.5322084 V 5.2512743 Z M 7.3835118,5.9483251 h 0.6594403 v 0.149929 C 8.0429484,6.5388109 7.9314503,6.7318313 7.7078889,6.9986118 7.4867272,7.2629444 7.1926136,7.3950206 6.8248195,7.3950195 6.5579842,7.3950206 6.3460565,7.3249434 6.1898035,7.185434 6.035952,7.0434781 5.9593046,6.8530512 5.9593046,6.6131922 c 0,-0.3010441 0.1031377,-0.3532192 0.3098763,-0.4780455 0.2067319,-0.1248212 0.5782569,-0.186819 1.1143309,-0.1868216 z m 3.7230862,1.3124661 c 0.189605,2.8e-6 0.33383,0.068412 0.432758,0.2056605 0.100571,0.1372518 0.15112,0.336718 0.151122,0.5981456 -2e-6,0.2614295 -0.05055,0.4608959 -0.151122,0.5981454 -0.09893,0.1372503 -0.243153,0.2056616 -0.432758,0.205661 -0.189606,6e-7 -0.335116,-0.068409 -0.437334,-0.205661 C 10.568682,8.5238601 10.518138,8.3243926 10.51814,8.0645973 10.518138,7.8048034 10.56868,7.606059 10.669264,7.4688068 10.771489,7.3299259 10.916992,7.260794 11.106598,7.2607912 Z M 6.7133869,8.4665006 C 6.1234711,8.4665037 5.6089873,8.6495194 5.1716411,9.0151927 4.7368302,9.3784832 4.4548852,9.8649843 4.3252071,10.474446 4.1980697,11.08152 4.274479,11.568773 4.5541794,11.93684 c 0.2797002,0.365677 0.714462,0.548693 1.3043774,0.548693 0.447517,0 0.8351619,-0.105983 1.1631784,-0.318699 0.3280066,-0.212714 0.5852489,-0.52309 0.7708736,-0.929402 H 7.2278107 C 7.0981272,11.536189 6.9269726,11.760398 6.7133869,11.90858 6.502338,12.056764 6.2450963,12.130728 5.9425137,12.130728 5.5611023,12.130728 5.302585,11.991941 5.167825,11.714694 5.0356023,11.437447 5.0287302,11.024156 5.1456854,10.474446 5.2626483,9.9247367 5.4465412,9.5121963 5.6982714,9.2373385 5.952543,8.9600969 6.2696356,8.821309 6.648506,8.8213063 6.981599,8.821309 7.2202491,8.8983427 7.3651888,9.0513011 7.5126643,9.2042682 7.577609,9.4482877 7.5598152,9.7828914 H 7.9673851 L 8.1734615,8.8071768 C 7.9420794,8.6924575 7.7046971,8.6078218 7.4605988,8.5528471 7.219039,8.4954907 6.9701993,8.4665037 6.7133859,8.4665006 Z"
     id="path8-2" />
</svg>
