<?xml version="1.0" encoding="UTF-8" standalone="no"?>
<svg
   width="64"
   height="64"
   version="1.1"
   viewBox="0 0 16.933 16.933"
   id="svg7"
   sodipodi:docname="accessories-text-editor.svg"
   inkscape:version="1.4.3 (0d15f75042, 2025-12-25)"
   xmlns:inkscape="http://www.inkscape.org/namespaces/inkscape"
   xmlns:sodipodi="http://sodipodi.sourceforge.net/DTD/sodipodi-0.dtd"
   xmlns="http://www.w3.org/2000/svg"
   xmlns:svg="http://www.w3.org/2000/svg"
   xmlns:rdf="http://www.w3.org/1999/02/22-rdf-syntax-ns#"
   xmlns:cc="http://creativecommons.org/ns#"
   xmlns:dc="http://purl.org/dc/elements/1.1/">
  <sodipodi:namedview
     id="namedview7"
     pagecolor="#9c4444"
     bordercolor="#000000"
     borderopacity="0.25"
     inkscape:showpageshadow="2"
     inkscape:pageopacity="0.0"
     inkscape:pagecheckerboard="0"
     inkscape:deskcolor="#d1d1d1"
     inkscape:zoom="4.3531261"
     inkscape:cx="43.417074"
     inkscape:cy="20.674797"
     inkscape:window-width="1226"
     inkscape:window-height="669"
     inkscape:window-x="474"
     inkscape:window-y="225"
     inkscape:window-maximized="0"
     inkscape:current-layer="svg7"
     showgrid="false" />
  <defs
     id="defs2">
    <filter
       style="color-interpolation-filters:sRGB;"
       inkscape:label="Blur"
       id="filter5421"
       x="-0.12256455"
       y="-0.12342654"
       width="1.2451291"
       height="1.2468531">
      <feGaussianBlur
         stdDeviation="0.5 0.5"
         result="blur"
         id="feGaussianBlur5419" />
    </filter>
  </defs>
  <metadata
     id="metadata2">
    <rdf:RDF>
      <cc:Work
         rdf:about="">
        <dc:format>image/svg+xml</dc:format>
        <dc:type
           rdf:resource="http://purl.org/dc/dcmitype/StillImage" />
      </cc:Work>
    </rdf:RDF>
  </metadata>
  <rect
     style="opacity:0.3;fill:none;fill-opacity:0.996424;stroke:#000000;stroke-width:0.955221;stroke-dasharray:none;stroke-opacity:1;filter:url(#filter5421)"
     id="rect1-2-7"
     width="13.687567"
     height="13.591975"
     x="1.6227165"
     y="1.6705122"
     rx="2.8442214"
     ry="2.965905" />
  <rect
     style="fill:none;fill-opacity:1;stroke:{{colors.primary.default.hex}};stroke-width:0.955221;stroke-dasharray:none;stroke-opacity:1"
     id="rect1-2"
     width="13.687567"
     height="13.591975"
     x="1.6227167"
     y="1.6705124"
     rx="2.8442214"
     ry="2.965905" />
  <path
     id="path40"
     style="fill:{{colors.primary.default.hex}};fill-opacity:1;stroke:none;stroke-width:0.124106;stroke-dasharray:none;stroke-opacity:0.6"
     d="M 8.5405061,4.6874876 C 7.8274096,4.6773595 7.0989068,4.8273486 6.4271677,5.1584093 4.2642024,6.2244071 3.7126494,8.7102199 5.2720379,10.364941 l 0.2085351,0.221206 -0.1335684,0.667315 c -0.07339,0.367132 -0.1339756,0.706691 -0.1346242,0.754424 -7.091e-4,0.05195 0.029881,0.117522 0.075496,0.163134 0.041915,0.04191 0.1080979,0.07549 0.1472952,0.07497 0.039197,-5.26e-4 0.3986176,-0.179501 0.7987714,-0.398066 l 0.7274993,-0.397536 0.2476034,0.07232 c 0.8488424,0.246781 1.9544823,0.212849 2.8054673,-0.08604 0.835839,-0.293584 1.576204,-0.84627 2.012502,-1.5019868 0.203163,-0.305334 0.326994,-0.5699307 0.439244,-0.9386748 0.07494,-0.2461767 0.08322,-0.3226284 0.08552,-0.785046 0.003,-0.6110678 -0.04967,-0.8531927 -0.293004,-1.3546962 C 11.6041,5.5070617 10.10932,4.7097656 8.5405061,4.6874876 Z m 0.9867178,1.7839054 0.9080551,0.00845 c 0.884689,0.00803 0.908056,0.00972 0.908056,0.070216 0,0.052017 -0.02796,0.065487 -0.170525,0.082886 -0.129969,0.015864 -0.186444,0.039909 -0.240213,0.10242 l -0.07075,0.081831 V 7.9934398 9.170216 l 0.07075,0.081831 c 0.05376,0.062512 0.110244,0.08656 0.240213,0.1024205 0.142576,0.017398 0.170525,0.030868 0.170525,0.082886 0,0.060491 -0.02337,0.062198 -0.908056,0.070216 l -0.9080551,0.00845 v -0.078135 c 0,-0.064445 0.014539,-0.077992 0.084998,-0.078135 0.1430717,-3.233e-4 0.3157779,-0.061531 0.3489681,-0.123546 0.041752,-0.07799 0.042731,-2.4055534 9.5e-4,-2.4834242 -0.036414,-0.068044 -0.1876901,-0.1251209 -0.3310178,-0.1251209 -0.090435,0 -0.1040036,-0.010251 -0.1040036,-0.078136 z m -3.9431747,0.00107 h 0.8695154 0.8689871 v 0.077606 c 0,0.068215 -0.013482,0.077606 -0.1103392,0.077606 -0.1554432,0 -0.2805954,0.074192 -0.3209867,0.1900578 -0.019205,0.055106 -0.034316,0.3022392 -0.034316,0.5596152 v 0.4609039 h 0.605546 0.6055457 V 7.3277345 c 0,-0.4885501 -0.0032,-0.5141849 -0.071799,-0.593931 C 7.940564,6.6691208 7.8884749,6.6470992 7.7633808,6.6350785 7.6188198,6.6211865 7.6018315,6.6119303 7.6018315,6.5458571 V 6.472473 H 8.4871848 9.37201 v 0.077605 c 0,0.068215 -0.013485,0.077606 -0.1103389,0.077606 -0.1554427,0 -0.2805957,0.074192 -0.3209874,0.1900578 -0.022646,0.064951 -0.034845,0.468968 -0.034845,1.1815269 0,1.23714 0.00569,1.2712031 0.2074797,1.3272382 0.065399,0.018157 0.1500535,0.033166 0.1884746,0.03326 0.05377,1.34e-4 0.070216,0.017863 0.070216,0.077606 v 0.077606 H 8.4871848 7.6018315 v -0.073383 c 0,-0.065077 0.01863,-0.076491 0.1583811,-0.095029 0.1059066,-0.014048 0.1827422,-0.045478 0.2328214,-0.095558 0.07346,-0.073455 0.074968,-0.084611 0.074968,-0.6351098 V 8.0557446 H 7.4624554 6.8569099 v 0.4888712 c 2.454e-4,0.6992277 0.026179,0.763136 0.3246822,0.8040505 0.1220534,0.016729 0.1409596,0.029366 0.1409596,0.092918 v 0.073384 H 6.4535646 5.5840492 v -0.073384 c 0,-0.064798 0.018382,-0.076032 0.1536301,-0.093973 0.1139027,-0.015111 0.1703134,-0.041363 0.2175108,-0.1013642 0.061616,-0.078339 0.063354,-0.118592 0.063354,-1.2432961 0,-0.7730901 -0.010948,-1.1831199 -0.033261,-1.2248179 C 5.9468054,6.7062348 5.778231,6.62767 5.6627124,6.62767 c -0.063158,0 -0.078663,-0.015248 -0.078663,-0.077606 z" />
</svg>
