<?xml version="1.0" encoding="UTF-8" standalone="no"?>
<svg
   width="64"
   height="64"
   version="1.1"
   viewBox="0 0 16.933 16.933"
   id="svg7"
   sodipodi:docname="abcd.svg"
   inkscape:version="1.4.3 (0d15f75042, 2025-12-25)"
   xmlns:inkscape="http://www.inkscape.org/namespaces/inkscape"
   xmlns:sodipodi="http://sodipodi.sourceforge.net/DTD/sodipodi-0.dtd"
   xmlns="http://www.w3.org/2000/svg"
   xmlns:svg="http://www.w3.org/2000/svg"
   xmlns:rdf="http://www.w3.org/1999/02/22-rdf-syntax-ns#"
   xmlns:cc="http://creativecommons.org/ns#"
   xmlns:dc="http://purl.org/dc/elements/1.1/">
  <sodipodi:namedview
     id="namedview7"
     pagecolor="#9c4444"
     bordercolor="#000000"
     borderopacity="0.25"
     inkscape:showpageshadow="2"
     inkscape:pageopacity="0.0"
     inkscape:pagecheckerboard="0"
     inkscape:deskcolor="#d1d1d1"
     inkscape:zoom="4.3531261"
     inkscape:cx="33.309396"
     inkscape:cy="31.241916"
     inkscape:window-width="1226"
     inkscape:window-height="669"
     inkscape:window-x="100"
     inkscape:window-y="206"
     inkscape:window-maximized="0"
     inkscape:current-layer="svg7"
     showgrid="false" />
  <defs
     id="defs2">
    <filter
       style="color-interpolation-filters:sRGB;"
       inkscape:label="Blur"
       id="filter5421"
       x="-0.12256455"
       y="-0.12342654"
       width="1.2451291"
       height="1.2468531">
      <feGaussianBlur
         stdDeviation="0.5 0.5"
         result="blur"
         id="feGaussianBlur5419" />
    </filter>
  </defs>
  <metadata
     id="metadata2">
    <rdf:RDF>
      <cc:Work
         rdf:about="">
        <dc:format>image/svg+xml</dc:format>
        <dc:type
           rdf:resource="http://purl.org/dc/dcmitype/StillImage" />
      </cc:Work>
    </rdf:RDF>
  </metadata>
  <rect
     style="opacity:0.3;fill:none;fill-opacity:0.996424;stroke:#000000;stroke-width:0.955221;stroke-dasharray:none;stroke-opacity:1;filter:url(#filter5421)"
     id="rect1-2-7"
     width="13.687567"
     height="13.591975"
     x="1.6227165"
     y="1.6705122"
     rx="2.8442214"
     ry="2.965905" />
  <rect
     style="fill:none;fill-opacity:1;stroke:{{colors.primary.default.hex}};stroke-width:0.955221;stroke-dasharray:none;stroke-opacity:1"
     id="rect1-2"
     width="13.687567"
     height="13.591975"
     x="1.6227167"
     y="1.6705124"
     rx="2.8442214"
     ry="2.965905" />
  <path
     id="path7-62"
     style="fill:{{colors.primary.default.hex}};fill-opacity:1;stroke:none;stroke-width:0.259276;stroke-dasharray:none;stroke-opacity:0.3"
     d="M 8.4930067,4.3196968 C 7.616818,4.3131446 6.7391877,4.6535342 6.050663,5.3421087 5.0464137,6.3464302 4.6829838,7.8626675 5.1194017,9.2276789 c 0.2382627,0.7452278 0.77873,1.5071041 1.3419474,1.8908811 0.094135,0.06416 0.1711618,0.128834 0.1711618,0.143818 0,0.06428 0.2221092,0.461656 0.3463747,0.619824 0.2910096,0.370412 0.7750871,0.650974 1.2472509,0.723641 0.1463699,0.02252 0.5539929,-0.0081 0.7281966,-0.0547 0.5347979,-0.142997 0.9878674,-0.531705 1.2543409,-1.076597 0.105362,-0.215456 0.142913,-0.26114 0.340804,-0.412712 0.572369,-0.438397 1.012491,-1.0659829 1.249279,-1.7820051 C 12.250883,7.9126517 11.909201,6.386197 10.925731,5.3785704 10.243664,4.679751 9.3691964,4.3262442 8.4930067,4.3196968 Z m 2.2504213,3.7245365 c 0.140739,-0.00596 0.276535,5.254e-4 0.371187,0.020761 0.08559,0.018275 0.09037,0.027381 0.114951,0.2268654 0.03283,0.2665641 -0.01328,0.6576788 -0.110899,0.9383506 -0.230811,0.6636956 -0.802822,1.1719187 -1.458419,1.2958637 -0.3418937,0.06464 -0.7167386,0.04468 -0.7600985,-0.03999 -0.046556,-0.09093 -0.063289,-0.415471 -0.033423,-0.6517258 0.1088765,-0.8612383 0.6800026,-1.5331876 1.4766475,-1.7369357 0.113414,-0.029006 0.259314,-0.04722 0.400052,-0.053172 z m -4.4937521,0.00153 c 0.4710005,0.016784 0.8514879,0.1927176 1.2204126,0.5580486 0.2078565,0.2058311 0.2795743,0.3016931 0.37929,0.5069025 0.1958299,0.4029999 0.2668225,0.7675173 0.228891,1.1723056 -0.015705,0.167551 -0.032936,0.227489 -0.070391,0.242056 -0.027387,0.01062 -0.1636014,0.02461 -0.3028238,0.03089 -0.9197619,0.0415 -1.7432699,-0.6132268 -1.952153,-1.5521125 -0.047863,-0.215131 -0.054535,-0.8748872 -0.00911,-0.9201208 0.010774,-0.01073 0.1452537,-0.026854 0.2982671,-0.035445 0.071212,-0.004 0.1403366,-0.00494 0.2076225,-0.00252 z" />
</svg>
