<?xml version="1.0" encoding="UTF-8" standalone="no"?>
<svg
   width="64"
   height="64"
   version="1.1"
   viewBox="0 0 16.933 16.933"
   id="svg7"
   sodipodi:docname="abcd.svg"
   inkscape:version="1.4.3 (0d15f75042, 2025-12-25)"
   xmlns:inkscape="http://www.inkscape.org/namespaces/inkscape"
   xmlns:sodipodi="http://sodipodi.sourceforge.net/DTD/sodipodi-0.dtd"
   xmlns="http://www.w3.org/2000/svg"
   xmlns:svg="http://www.w3.org/2000/svg"
   xmlns:rdf="http://www.w3.org/1999/02/22-rdf-syntax-ns#"
   xmlns:cc="http://creativecommons.org/ns#"
   xmlns:dc="http://purl.org/dc/elements/1.1/">
  <sodipodi:namedview
     id="namedview7"
     pagecolor="#9c4444"
     bordercolor="#000000"
     borderopacity="0.25"
     inkscape:showpageshadow="2"
     inkscape:pageopacity="0.0"
     inkscape:pagecheckerboard="0"
     inkscape:deskcolor="#d1d1d1"
     inkscape:zoom="4.3531261"
     inkscape:cx="39.971275"
     inkscape:cy="24.809757"
     inkscape:window-width="1226"
     inkscape:window-height="669"
     inkscape:window-x="146"
     inkscape:window-y="136"
     inkscape:window-maximized="0"
     inkscape:current-layer="svg7"
     showgrid="false" />
  <defs
     id="defs2">
    <filter
       style="color-interpolation-filters:sRGB;"
       inkscape:label="Blur"
       id="filter5421"
       x="-0.12256455"
       y="-0.12342654"
       width="1.2451291"
       height="1.2468531">
      <feGaussianBlur
         stdDeviation="0.5 0.5"
         result="blur"
         id="feGaussianBlur5419" />
    </filter>
  </defs>
  <metadata
     id="metadata2">
    <rdf:RDF>
      <cc:Work
         rdf:about="">
        <dc:format>image/svg+xml</dc:format>
        <dc:type
           rdf:resource="http://purl.org/dc/dcmitype/StillImage" />
      </cc:Work>
    </rdf:RDF>
  </metadata>
  <rect
     style="opacity:0.3;fill:none;fill-opacity:0.996424;stroke:#000000;stroke-width:0.955221;stroke-dasharray:none;stroke-opacity:1;filter:url(#filter5421)"
     id="rect1-2-7"
     width="13.687567"
     height="13.591975"
     x="1.6227165"
     y="1.6705122"
     rx="2.8442214"
     ry="2.965905" />
  <rect
     style="fill:none;fill-opacity:1;stroke:{{colors.primary.default.hex}};stroke-width:0.955221;stroke-dasharray:none;stroke-opacity:1"
     id="rect1-2"
     width="13.687567"
     height="13.591975"
     x="1.6227167"
     y="1.6705124"
     rx="2.8442214"
     ry="2.965905" />
  <path
     id="path30"
     style="fill:{{colors.primary.default.hex}};fill-opacity:1;stroke:none;stroke-width:0.130312;stroke-dasharray:none;stroke-opacity:0.6"
     d="m 8.4970102,4.3932269 c -0.9353637,0 -1.606235,0.011859 -1.6660615,0.029016 -0.1229808,0.03527 -0.2505563,0.1525209 -0.3344341,0.3079641 -0.060398,0.111932 -0.063323,0.1591281 -0.071773,1.0475877 l -0.00916,0.9305094 -0.7676202,5.254e-4 C 5.1782956,6.708929 4.8349735,6.7210903 4.7632634,6.7408984 4.2898457,6.8716852 4.1926547,7.7072837 4.612081,8.0404568 l 0.1124961,0.089081 0.8470289,0.00864 0.8470291,0.00864 v 0.7421685 c 0,0.7874865 0.015127,0.8961542 0.1481284,1.066422 0.033802,0.043272 0.1102933,0.1086747 0.1695076,0.1450737 l 0.1074061,0.06618 1.6579163,-0.0077 1.6579175,-0.0077 0.104351,-0.0794 c 0.0575,-0.04387 0.139258,-0.1489373 0.181215,-0.2331362 l 0.07635,-0.1532185 V 8.9149644 8.1442903 h 0.803761 c 0.49677,0 0.835251,-0.011794 0.886225,-0.031051 0.111447,-0.042108 0.235725,-0.1640348 0.312037,-0.305928 0.05117,-0.095133 0.06312,-0.1667065 0.06312,-0.3807558 0,-0.2839757 -0.04963,-0.4274211 -0.19496,-0.5629895 C 12.236975,6.7193191 12.160873,6.7083108 11.313486,6.7083108 H 10.521432 V 5.8017211 c 0,-0.5646947 -0.01177,-0.9371528 -0.03105,-0.9885403 -0.0582,-0.1551559 -0.180659,-0.3002256 -0.30389,-0.359882 C 10.0673,4.3955911 10.012129,4.3932332 8.4970141,4.3932332 Z m 0.00713,0.3298523 0.9859949,0.00713 0.112496,0.091116 c 0.061833,0.050064 0.1454277,0.1552446 0.1857916,0.2336415 l 0.073301,0.1425284 0.00967,1.3194113 c 0.0064,0.896574 -6.618e-4,1.3677597 -0.022912,1.46957 -0.042542,0.194892 -0.1592043,0.3712182 -0.29574,0.4479553 C 9.4481062,8.4932302 9.4037897,8.49613 8.4659585,8.4960251 7.5551318,8.4959225 7.4820449,8.4916964 7.3964827,8.4395221 7.2880327,8.3733925 7.1749489,8.2288124 7.1200785,8.0857451 7.0693936,7.9535918 7.0435551,5.6048349 7.0895366,5.3094851 7.1269013,5.0694819 7.2437968,4.8723273 7.4015731,4.782128 7.5167604,4.7162778 7.5262235,4.715684 8.5041358,4.7230794 Z m -0.039195,0.6052394 c -0.075985,0.00173 -0.1493661,0.021924 -0.1695076,0.059556 -0.019482,0.036395 -0.030542,0.4813449 -0.030542,1.2435648 v 1.1870624 l 0.065157,0.045814 c 0.093298,0.065347 0.237094,0.057521 0.3038918,-0.016288 0.052948,-0.058507 0.055994,-0.1220407 0.055994,-1.2405104 0,-0.9563925 -0.0076,-1.1884833 -0.040214,-1.2277856 -0.030272,-0.036465 -0.1088027,-0.053175 -0.1847882,-0.051411 z m -3.716445,5.3947204 v 0.908111 0.908623 h 0.146601 0.146601 V 11.63115 10.723039 H 4.8951008 Z m 0.9376365,0 v 0.76202 0.761513 h 0.1466008 0.1466013 v -0.761513 -0.76202 H 5.8327375 Z m 0.908622,0 v 0.61542 0.615418 h 0.1465962 0.1460923 v -0.615418 -0.61542 H 6.7413593 Z m 0.9376365,0 v 0.468817 0.468819 H 7.6642389 7.7960785 V 11.191856 10.723039 H 7.6642342 Z m 0.9081129,0 v 0.908111 0.908623 H 8.5871093 8.7337101 V 11.63115 10.723039 H 8.5871093 Z m 0.9381457,0 v 0.468817 0.468819 H 9.5104974 9.6423366 V 11.191856 10.723039 H 9.5104927 Z m 0.9081142,0 v 0.61542 0.615418 h 0.1466 0.146601 v -0.615418 -0.61542 h -0.146601 z m 0.703481,0 v 0.76202 0.761513 h 0.13184 0.131839 v -0.761513 -0.76202 h -0.131839 z m 0.908113,0 v 0.908111 0.908623 h 0.146601 0.146602 V 11.63115 10.723039 h -0.146602 z" />
</svg>
