<?xml version="1.0" encoding="UTF-8" standalone="no"?>
<svg
   width="64"
   height="64"
   version="1.1"
   viewBox="0 0 16.933 16.933"
   id="svg7"
   sodipodi:docname="accessories-text-editor.svg"
   inkscape:version="1.4.3 (0d15f75042, 2025-12-25)"
   xmlns:inkscape="http://www.inkscape.org/namespaces/inkscape"
   xmlns:sodipodi="http://sodipodi.sourceforge.net/DTD/sodipodi-0.dtd"
   xmlns="http://www.w3.org/2000/svg"
   xmlns:svg="http://www.w3.org/2000/svg"
   xmlns:rdf="http://www.w3.org/1999/02/22-rdf-syntax-ns#"
   xmlns:cc="http://creativecommons.org/ns#"
   xmlns:dc="http://purl.org/dc/elements/1.1/">
  <sodipodi:namedview
     id="namedview7"
     pagecolor="#9c4444"
     bordercolor="#000000"
     borderopacity="0.25"
     inkscape:showpageshadow="2"
     inkscape:pageopacity="0.0"
     inkscape:pagecheckerboard="0"
     inkscape:deskcolor="#d1d1d1"
     inkscape:zoom="4.3531261"
     inkscape:cx="36.984915"
     inkscape:cy="29.863596"
     inkscape:window-width="1226"
     inkscape:window-height="669"
     inkscape:window-x="0"
     inkscape:window-y="133"
     inkscape:window-maximized="0"
     inkscape:current-layer="svg7"
     showgrid="false" />
  <defs
     id="defs2">
    <filter
       style="color-interpolation-filters:sRGB;"
       inkscape:label="Blur"
       id="filter5421"
       x="-0.12256455"
       y="-0.12342654"
       width="1.2451291"
       height="1.2468531">
      <feGaussianBlur
         stdDeviation="0.5 0.5"
         result="blur"
         id="feGaussianBlur5419" />
    </filter>
  </defs>
  <metadata
     id="metadata2">
    <rdf:RDF>
      <cc:Work
         rdf:about="">
        <dc:format>image/svg+xml</dc:format>
        <dc:type
           rdf:resource="http://purl.org/dc/dcmitype/StillImage" />
      </cc:Work>
    </rdf:RDF>
  </metadata>
  <rect
     style="opacity:0.3;fill:none;fill-opacity:0.996424;stroke:#000000;stroke-width:0.955221;stroke-dasharray:none;stroke-opacity:1;filter:url(#filter5421)"
     id="rect1-2-7"
     width="13.687567"
     height="13.591975"
     x="1.6227165"
     y="1.6705122"
     rx="2.8442214"
     ry="2.965905" />
  <rect
     style="fill:none;fill-opacity:1;stroke:{{colors.primary.default.hex}};stroke-width:0.955221;stroke-dasharray:none;stroke-opacity:1"
     id="rect1-2"
     width="13.687567"
     height="13.591975"
     x="1.6227167"
     y="1.6705124"
     rx="2.8442214"
     ry="2.965905" />
  <path
     style="fill:{{colors.primary.default.hex}};fill-opacity:1;stroke:none;stroke-width:0.13133;stroke-dasharray:none;stroke-opacity:0.6"
     d="M 8.2438097,12.579077 C 7.8570646,12.549487 7.5314918,12.489094 7.2173844,12.388675 7.0158624,12.324249 6.6971008,12.193777 6.5726604,12.124786 6.3758233,12.015655 6.3143159,11.97854 6.1633853,11.877831 5.5232175,11.450672 5.0015376,10.82342 4.6902002,10.106513 4.4579408,9.5716986 4.354084,9.0645521 4.354084,8.4652122 c 0,-0.4712478 0.060753,-0.8647301 0.197384,-1.2784007 0.4565534,-1.3822779 1.5965742,-2.4204138 3.0077869,-2.7389767 0.5739929,-0.1295711 1.2404951,-0.1295711 1.8144887,0 1.2769764,0.2882606 2.3473174,1.1746876 2.8690564,2.3760757 0.232258,0.5348149 0.336116,1.0419617 0.336116,1.6413017 0,0.4712474 -0.06074,0.8647299 -0.197384,1.2784007 -0.498371,1.5088871 -1.810541,2.5999341 -3.3706816,2.8026551 -0.1967536,0.02557 -0.6232638,0.04381 -0.7670407,0.0328 z m 0.6928108,-0.288538 c 0.7656191,-0.09038 1.4625475,-0.405308 2.0873495,-0.943244 l 0.07244,-0.06236 -0.873638,-0.873755 C 9.7422624,9.9306124 9.3437626,9.5374218 9.337209,9.5374218 c -0.00656,0 -0.062252,0.032545 -0.123774,0.072321 -0.2448189,0.1582804 -0.4413412,0.2147947 -0.7469363,0.2147947 -0.3055944,0 -0.502117,-0.056512 -0.7469353,-0.2147947 -0.061523,-0.039776 -0.1172206,-0.072321 -0.123774,-0.072321 -0.00656,0 -0.4050534,0.3931906 -0.8855549,0.8737552 l -0.8736389,0.873755 0.072434,0.06236 c 0.4332902,0.373048 0.8493207,0.612568 1.3537854,0.779414 0.2996128,0.0991 0.5824549,0.152997 0.9892425,0.188538 0.1116832,0.0097 0.516316,-0.0048 0.6845632,-0.02471 z M 8.124123,11.21166 C 7.9404565,10.844193 7.7901838,10.539851 7.7901838,10.535343 c 0,-0.0045 0.3043419,-0.0082 0.6763149,-0.0082 0.3719737,0 0.676316,0.0037 0.676316,0.0082 0,0.01632 -0.6681029,1.344436 -0.676316,1.344436 -0.00464,0 -0.1587095,-0.300654 -0.3423757,-0.668119 z M 6.5303472,10.211667 7.4067911,9.3353372 7.3342846,9.2316159 C 7.2480439,9.1082469 7.1919088,8.9859185 7.1427399,8.8142016 c -0.051693,-0.1805334 -0.051693,-0.5174452 0,-0.6979791 0.049169,-0.171717 0.105304,-0.2940452 0.1915447,-0.4174143 L 7.4067911,7.5950874 6.5266641,6.7150752 C 5.9926311,6.181112 5.6409588,5.8413758 5.6323517,5.8511173 5.0616808,6.4970034 4.7396741,7.1966363 4.6379948,8.011586 c -0.026454,0.2120361 -0.026454,0.6952161 0,0.9072523 0.081443,0.6527596 0.3182086,1.2629717 0.6911065,1.7811827 0.1073321,0.149157 0.3014002,0.386693 0.3166108,0.387525 0.0045,2.53e-4 0.4025903,-0.393898 0.8846351,-0.875879 z M 5.7158758,8.8066604 C 5.3507064,8.6235048 5.0519316,8.4698534 5.0519316,8.4652125 c 0,-0.00821 1.32811,-0.6763159 1.3444364,-0.6763159 0.00451,0 0.00819,0.3043419 0.00819,0.6763156 0,0.3719733 -0.00557,0.6758971 -0.012369,0.6753867 -0.0068,-4.99e-4 -0.311145,-0.1507828 -0.6763132,-0.3339385 z m 5.6922312,2.1454636 c 0.488778,-0.576861 0.791884,-1.2717534 0.886898,-2.0332857 0.01131,-0.090725 0.02059,-0.2948575 0.02059,-0.4536261 0,-0.4406879 -0.05788,-0.8115195 -0.188173,-1.2054514 -0.171052,-0.5171872 -0.432099,-0.9619605 -0.826765,-1.4086435 -0.0086,-0.00974 -0.36028,0.3299947 -0.894311,0.8639579 l -0.8801306,0.8800122 0.072505,0.1037208 c 0.086241,0.1233691 0.1423761,0.2456973 0.1915452,0.4174143 0.051992,0.1815921 0.051714,0.5173479 -6.041e-4,0.7001538 -0.047435,0.1657683 -0.1147784,0.3104522 -0.197418,0.4241238 l -0.065958,0.090725 0.8763065,0.8784009 c 0.481965,0.483119 0.881043,0.876537 0.886839,0.87426 0.0059,-0.0022 0.0592,-0.06156 0.118674,-0.131762 z M 10.528438,8.4652122 c 0,-0.3719737 0.0037,-0.6763156 0.0082,-0.6763156 0.01632,0 1.344435,0.668103 1.344435,0.6763156 0,0.00822 -1.328109,0.6763153 -1.344435,0.6763153 -0.0046,0 -0.0082,-0.304342 -0.0082,-0.6763153 z M 8.8046566,9.5134836 C 9.1504925,9.3975933 9.417988,9.1247374 9.5250784,8.7786262 c 0.054355,-0.1756677 0.054355,-0.4511605 0,-0.6268285 C 9.4182416,7.8065068 9.1540838,7.5365055 8.8046566,7.4154411 8.6877976,7.3749532 8.649092,7.3697196 8.4664987,7.3697196 c -0.1825926,0 -0.2212977,0.00523 -0.3381572,0.045722 -0.3494269,0.121065 -0.6135847,0.3910663 -0.7204212,0.7363572 -0.054355,0.175668 -0.054355,0.4511604 0,0.6268284 0.1200093,0.3878666 0.4325575,0.6752058 0.8358894,0.7684713 0.1529488,0.035369 0.3990023,0.020616 0.5608469,-0.033617 z M 7.7195634,7.3206853 C 7.9643817,7.162405 8.1609043,7.1058914 8.4664987,7.1058914 c 0.3055951,0 0.5021174,0.056514 0.7469363,0.2147939 0.061523,0.039777 0.1172204,0.07232 0.123774,0.07232 0.00656,0 0.4050534,-0.3931901 0.885555,-0.8737556 l 0.873639,-0.8737552 -0.07244,-0.062365 C 10.59068,5.2100803 10.174649,4.9705597 9.6701833,4.8037162 9.2780716,4.674032 8.9065182,4.6161264 8.4664987,4.6161264 c -0.9659249,0 -1.8010899,0.3157837 -2.5574689,0.967003 l -0.072434,0.062365 0.873639,0.8737557 c 0.4805011,0.4805649 0.8790009,0.873755 0.8855546,0.873755 0.00655,0 0.062252,-0.032542 0.123774,-0.07232 z m 0.070621,-0.9256044 c 0,-0.016325 0.6681026,-1.3444362 0.6763149,-1.3444362 0.00822,0 0.6763162,1.3281104 0.6763162,1.3444362 0,0.00451 -0.3043421,0.00819 -0.6763162,0.00819 -0.3719729,0 -0.6763149,-0.0037 -0.6763149,-0.00819 z"
     id="path1" />
</svg>
