<?xml version="1.0" encoding="UTF-8" standalone="no"?>
<svg
   width="64"
   height="64"
   version="1.1"
   viewBox="0 0 16.933 16.933"
   id="svg7"
   sodipodi:docname="abcd.svg"
   inkscape:version="1.4.3 (0d15f75042, 2025-12-25)"
   xmlns:inkscape="http://www.inkscape.org/namespaces/inkscape"
   xmlns:sodipodi="http://sodipodi.sourceforge.net/DTD/sodipodi-0.dtd"
   xmlns="http://www.w3.org/2000/svg"
   xmlns:svg="http://www.w3.org/2000/svg"
   xmlns:rdf="http://www.w3.org/1999/02/22-rdf-syntax-ns#"
   xmlns:cc="http://creativecommons.org/ns#"
   xmlns:dc="http://purl.org/dc/elements/1.1/">
  <sodipodi:namedview
     id="namedview7"
     pagecolor="#9c4444"
     bordercolor="#000000"
     borderopacity="0.25"
     inkscape:showpageshadow="2"
     inkscape:pageopacity="0.0"
     inkscape:pagecheckerboard="0"
     inkscape:deskcolor="#d1d1d1"
     inkscape:zoom="4.3531261"
     inkscape:cx="39.971275"
     inkscape:cy="24.809757"
     inkscape:window-width="1226"
     inkscape:window-height="669"
     inkscape:window-x="146"
     inkscape:window-y="136"
     inkscape:window-maximized="0"
     inkscape:current-layer="svg7"
     showgrid="false" />
  <defs
     id="defs2">
    <filter
       style="color-interpolation-filters:sRGB;"
       inkscape:label="Blur"
       id="filter5421"
       x="-0.12256455"
       y="-0.12342654"
       width="1.2451291"
       height="1.2468531">
      <feGaussianBlur
         stdDeviation="0.5 0.5"
         result="blur"
         id="feGaussianBlur5419" />
    </filter>
  </defs>
  <metadata
     id="metadata2">
    <rdf:RDF>
      <cc:Work
         rdf:about="">
        <dc:format>image/svg+xml</dc:format>
        <dc:type
           rdf:resource="http://purl.org/dc/dcmitype/StillImage" />
      </cc:Work>
    </rdf:RDF>
  </metadata>
  <rect
     style="opacity:0.3;fill:none;fill-opacity:0.996424;stroke:#000000;stroke-width:0.955221;stroke-dasharray:none;stroke-opacity:1;filter:url(#filter5421)"
     id="rect1-2-7"
     width="13.687567"
     height="13.591975"
     x="1.6227165"
     y="1.6705122"
     rx="2.8442214"
     ry="2.965905" />
  <rect
     style="fill:none;fill-opacity:1;stroke:{{colors.primary.default.hex}};stroke-width:0.955221;stroke-dasharray:none;stroke-opacity:1"
     id="rect1-2"
     width="13.687567"
     height="13.591975"
     x="1.6227167"
     y="1.6705124"
     rx="2.8442214"
     ry="2.965905" />
  <g
     id="g1"
     transform="matrix(0.16285296,0,0,0.16285296,3.2535598,3.2535613)"
     style="fill:{{colors.primary.default.hex}};fill-opacity:1;stroke:none;stroke-width:0.762079;stroke-dasharray:none;stroke-opacity:0.6">
    <g
       id="g1590"
       style="fill:{{colors.primary.default.hex}};fill-opacity:1;stroke:none;stroke-width:0.762079;stroke-dasharray:none;stroke-opacity:0.6">
      <path
         style="baseline-shift:baseline;display:inline;overflow:visible;opacity:1;fill:{{colors.primary.default.hex}};fill-opacity:1;stroke:none;stroke-width:0.762079;stroke-linecap:round;stroke-linejoin:round;stroke-dasharray:none;stroke-opacity:0.6;enable-background:accumulate;stop-color:#000000;stop-opacity:1"
         d="m 16.326172,21.451172 -8.7890626,8.789062 a 2,2 0 0 0 0,2.828125 2,2 0 0 0 2.8281246,0 l 7.375,-7.373047 3.029297,3.029297 -7.373047,7.375 a 2.0002,2.0002 0 0 0 0,2.828125 l 5.859375,5.859375 a 2,2 0 0 0 2.828125,0 2,2 0 0 0 0,-2.828125 l -4.445312,-4.445312 7.375,-7.375 a 2.0002,2.0002 0 0 0 0,-2.828125 l -5.859375,-5.859375 a 2.0002,2.0002 0 0 0 -2.828125,0 z"
         id="path4" />
      <path
         style="baseline-shift:baseline;display:inline;overflow:visible;opacity:1;fill:{{colors.primary.default.hex}};fill-opacity:1;stroke:none;stroke-width:0.762079;stroke-linecap:round;stroke-linejoin:round;stroke-dasharray:none;stroke-opacity:0.6;enable-background:accumulate;stop-color:#000000;stop-opacity:1"
         d="m 30.484375,7.2929687 -8.789063,8.7890623 a 2.0002,2.0002 0 0 0 0,2.828125 l 5.859375,5.859375 a 2.0002,2.0002 0 0 0 2.828125,0 l 7.375,-7.375 3.029297,3.03125 -3.955078,3.955078 a 2,2 0 0 0 0,2.828125 2,2 0 0 0 2.828125,0 l 5.371094,-5.36914 a 2.0002,2.0002 0 0 0 0,-2.828125 l -5.859375,-5.859375 a 2.0002,2.0002 0 0 0 -2.828125,0 l -7.375,7.373047 -3.029297,-3.029297 7.373047,-7.375 a 2,2 0 0 0 0,-2.8281253 2,2 0 0 0 -2.828125,0 z"
         id="path5" />
      <path
         style="baseline-shift:baseline;display:inline;overflow:visible;opacity:1;fill:{{colors.primary.default.hex}};fill-opacity:1;stroke:none;stroke-width:0.762079;stroke-linecap:round;stroke-linejoin:round;stroke-dasharray:none;stroke-opacity:0.6;enable-background:accumulate;stop-color:#000000;stop-opacity:1"
         d="m 32.947266,28.265625 -8.789063,8.789062 a 2,2 0 0 0 0,2.828125 2,2 0 0 0 2.828125,0 l 7.375,-7.373046 3.029297,3.029296 -7.373047,7.375 a 2.0002,2.0002 0 0 0 -0.0059,2.822266 l 5.83789,5.880859 a 2.0002,2.0002 0 0 0 2.833985,0.0039 l 8.789062,-8.78711 a 2,2 0 0 0 0,-2.828125 2,2 0 0 0 -2.830078,0 l -7.369141,7.369141 -3.019531,-3.041016 7.38086,-7.380859 a 2.0002,2.0002 0 0 0 0,-2.828125 L 35.77535,28.265618 a 2.0002,2.0002 0 0 0 -2.828125,0 z"
         id="path6" />
    </g>
    <path
       style="fill:{{colors.primary.default.hex}};fill-opacity:1;stroke:none;stroke-width:0.762079;stroke-dasharray:none;stroke-opacity:0.6"
       d="m 23.110417,45.813568 c -1.081938,1.08194 -0.9956,2.910319 0.194534,4.100452 l 6.44629,6.446291 c 1.190134,1.190133 3.018512,1.276472 4.100451,0.194533 L 35.87331,54.533226 C 35.676167,54.416743 35.486159,54.283391 35.316413,54.113645 L 25.063376,43.860609 Z M 40.68705,28.236935 50.940086,38.489972 c 0.169746,0.169745 0.303098,0.359753 0.419584,0.556896 l 4.951053,-4.951055 c 1.081941,-1.081939 0.995601,-2.910318 -0.194533,-4.100452 l -6.44629,-6.44629 c -1.190134,-1.190134 -3.018513,-1.276473 -4.100452,-0.194534 z"
       id="path7" />
  </g>
</svg>
