<?xml version="1.0" encoding="UTF-8" standalone="no"?>
<svg
   width="64"
   height="64"
   version="1.1"
   viewBox="0 0 16.933 16.933"
   id="svg7"
   sodipodi:docname="com.github.dail8859.NotepadNext.svg"
   inkscape:version="1.4.3 (0d15f75042, 2025-12-25)"
   xmlns:inkscape="http://www.inkscape.org/namespaces/inkscape"
   xmlns:sodipodi="http://sodipodi.sourceforge.net/DTD/sodipodi-0.dtd"
   xmlns="http://www.w3.org/2000/svg"
   xmlns:svg="http://www.w3.org/2000/svg"
   xmlns:rdf="http://www.w3.org/1999/02/22-rdf-syntax-ns#"
   xmlns:cc="http://creativecommons.org/ns#"
   xmlns:dc="http://purl.org/dc/elements/1.1/">
  <sodipodi:namedview
     id="namedview7"
     pagecolor="#9c4444"
     bordercolor="#000000"
     borderopacity="0.25"
     inkscape:showpageshadow="2"
     inkscape:pageopacity="0.0"
     inkscape:pagecheckerboard="0"
     inkscape:deskcolor="#d1d1d1"
     inkscape:zoom="4.3531261"
     inkscape:cx="43.417074"
     inkscape:cy="19.526198"
     inkscape:window-width="1226"
     inkscape:window-height="669"
     inkscape:window-x="179"
     inkscape:window-y="207"
     inkscape:window-maximized="0"
     inkscape:current-layer="svg7"
     showgrid="false" />
  <defs
     id="defs2">
    <filter
       style="color-interpolation-filters:sRGB;"
       inkscape:label="Blur"
       id="filter5421"
       x="-0.12256455"
       y="-0.12342654"
       width="1.2451291"
       height="1.2468531">
      <feGaussianBlur
         stdDeviation="0.5 0.5"
         result="blur"
         id="feGaussianBlur5419" />
    </filter>
    <filter
       style="color-interpolation-filters:sRGB"
       inkscape:label="Blur"
       id="filter5421-3"
       x="-0.12256455"
       y="-0.12342654"
       width="1.2451291"
       height="1.2468531">
      <feGaussianBlur
         stdDeviation="0.5 0.5"
         result="blur"
         id="feGaussianBlur5419-6" />
    </filter>
  </defs>
  <metadata
     id="metadata2">
    <rdf:RDF>
      <cc:Work
         rdf:about="">
        <dc:format>image/svg+xml</dc:format>
        <dc:type
           rdf:resource="http://purl.org/dc/dcmitype/StillImage" />
      </cc:Work>
    </rdf:RDF>
  </metadata>
  <rect
     style="opacity:0.3;fill:none;fill-opacity:0.996424;stroke:#000000;stroke-width:0.955221;stroke-dasharray:none;stroke-opacity:1;filter:url(#filter5421)"
     id="rect1-2-7"
     width="13.687567"
     height="13.591975"
     x="1.6227165"
     y="1.6705122"
     rx="2.8442214"
     ry="2.965905" />
  <rect
     style="fill:none;fill-opacity:1;stroke:{{colors.primary.default.hex}};stroke-width:0.955221;stroke-dasharray:none;stroke-opacity:1"
     id="rect1-2"
     width="13.687567"
     height="13.591975"
     x="1.6227167"
     y="1.6705124"
     rx="2.8442214"
     ry="2.965905" />
  <path
     id="path102"
     style="fill:{{colors.primary.default.hex}};fill-opacity:1;stroke:none;stroke-width:0.135428;stroke-dasharray:none;stroke-dashoffset:2.2;stroke-opacity:0.6"
     d="m 7.2356643,4.1921925 c -2.0177019,0 -1.9483189,-0.00659 -2.0659452,0.1925467 -0.047536,0.080482 -0.052069,0.4408956 -0.052069,4.0640879 0,4.3902769 -0.014098,4.0985559 0.2006821,4.2295159 0.099386,0.06058 0.1834388,0.06226 3.1420365,0.06238 3.3120873,1.29e-4 3.1407983,0.0095 3.2890203,-0.178988 0.06639,-0.08439 0.06615,-0.09419 0.06615,-2.8556547 V 6.9355776 H 10.611463 C 9.2614211,6.9355217 9.2383099,6.9317708 9.1285806,6.7121141 9.0784421,6.6117538 9.0727634,6.4787492 9.0727113,5.3962891 V 4.1921925 Z m 2.2199819,0.048815 v 1.029989 c 0,1.1242637 0.00576,1.167443 0.1833256,1.2637572 0.07189,0.039004 0.2669358,0.047757 1.1037522,0.048814 l 1.01643,0.00111 L 11.215684,6.01843 C 10.916584,5.7069949 10.398162,5.1794405 10.063659,4.8462931 Z M 6.6168019,8.3072649 H 8.4663353 10.316411 V 8.5464565 8.7856479 H 8.4663353 6.6168019 V 8.5464565 Z m 0,0.8927649 H 8.4663353 10.316411 V 9.4554936 9.7104155 H 8.4663353 6.6168019 V 9.4554922 Z m 0,0.9253102 h 1.8495334 1.8500757 v 0.254918 0.255467 H 8.4663353 6.6168019 v -0.255467 z m 0,0.924764 h 1.1639587 1.164502 v 0.255464 0.254918 H 7.7807606 6.6168019 v -0.254918 z" />
  <rect
     style="opacity:0.3;fill:none;fill-opacity:0.996424;stroke:#000000;stroke-width:0.955221;stroke-dasharray:none;stroke-opacity:1;filter:url(#filter5421-3)"
     id="rect1-2-7-5"
     width="13.687567"
     height="13.591975"
     x="1.6227165"
     y="1.6705122"
     rx="2.8442214"
     ry="2.965905"
     transform="matrix(0.43046721,0,0,0.43046721,9.5627021,9.5627021)" />
  <rect
     style="fill:none;fill-opacity:1;stroke:{{colors.primary.default.hex}};stroke-width:0.411191;stroke-dasharray:none;stroke-opacity:1"
     id="rect1-2-3"
     width="5.8920484"
     height="5.8508992"
     x="10.261228"
     y="10.281802"
     rx="1.224344"
     ry="1.2767248" />
  <path
     d="m 13.245552,11.707846 c -0.810495,0 -1.471831,0.633419 -1.521055,1.431581 h -0.4749 l 0.76397,1.142513 0.763967,-1.142513 h -0.543725 c 0.04691,-0.517847 0.481507,-0.922269 1.011743,-0.922269 0.196126,0 0.381738,0.05545 0.536844,0.151417 l 0.261538,-0.433604 c -0.232192,-0.142773 -0.506008,-0.227125 -0.798382,-0.227125 z m 1.204456,0.440486 -0.763969,1.142512 h 0.543725 c -0.04691,0.517848 -0.481507,0.922269 -1.011742,0.922269 -0.196127,0 -0.381737,-0.05545 -0.536844,-0.151418 L 12.41964,14.4953 c 0.232191,0.142772 0.506009,0.227126 0.798382,0.227126 0.810495,0 1.471831,-0.63342 1.521055,-1.431582 h 0.4749 z"
     style="clip-rule:evenodd;fill:{{colors.primary.default.hex}};fill-opacity:1;fill-rule:evenodd;stroke:none;stroke-width:0.111083;stroke-linejoin:round;stroke-miterlimit:1.41421;stroke-dasharray:none;stroke-opacity:0.6"
     id="path2-3" />
</svg>
