<?xml version="1.0" encoding="UTF-8" standalone="no"?>
<svg
   width="64"
   height="64"
   version="1.1"
   viewBox="0 0 16.933 16.933"
   id="svg7"
   sodipodi:docname="abcd.svg"
   inkscape:version="1.4.3 (0d15f75042, 2025-12-25)"
   xmlns:inkscape="http://www.inkscape.org/namespaces/inkscape"
   xmlns:sodipodi="http://sodipodi.sourceforge.net/DTD/sodipodi-0.dtd"
   xmlns="http://www.w3.org/2000/svg"
   xmlns:svg="http://www.w3.org/2000/svg"
   xmlns:rdf="http://www.w3.org/1999/02/22-rdf-syntax-ns#"
   xmlns:cc="http://creativecommons.org/ns#"
   xmlns:dc="http://purl.org/dc/elements/1.1/">
  <sodipodi:namedview
     id="namedview7"
     pagecolor="#9c4444"
     bordercolor="#000000"
     borderopacity="0.25"
     inkscape:showpageshadow="2"
     inkscape:pageopacity="0.0"
     inkscape:pagecheckerboard="0"
     inkscape:deskcolor="#d1d1d1"
     inkscape:zoom="4.3531261"
     inkscape:cx="39.282115"
     inkscape:cy="25.498917"
     inkscape:window-width="1226"
     inkscape:window-height="669"
     inkscape:window-x="50"
     inkscape:window-y="194"
     inkscape:window-maximized="0"
     inkscape:current-layer="svg7"
     showgrid="false" />
  <defs
     id="defs2">
    <filter
       style="color-interpolation-filters:sRGB;"
       inkscape:label="Blur"
       id="filter5421"
       x="-0.12256455"
       y="-0.12342654"
       width="1.2451291"
       height="1.2468531">
      <feGaussianBlur
         stdDeviation="0.5 0.5"
         result="blur"
         id="feGaussianBlur5419" />
    </filter>
  </defs>
  <metadata
     id="metadata2">
    <rdf:RDF>
      <cc:Work
         rdf:about="">
        <dc:format>image/svg+xml</dc:format>
        <dc:type
           rdf:resource="http://purl.org/dc/dcmitype/StillImage" />
      </cc:Work>
    </rdf:RDF>
  </metadata>
  <rect
     style="opacity:0.3;fill:none;fill-opacity:0.996424;stroke:#000000;stroke-width:0.955221;stroke-dasharray:none;stroke-opacity:1;filter:url(#filter5421)"
     id="rect1-2-7"
     width="13.687567"
     height="13.591975"
     x="1.6227165"
     y="1.6705122"
     rx="2.8442214"
     ry="2.965905" />
  <rect
     style="fill:none;fill-opacity:1;stroke:{{colors.primary.default.hex}};stroke-width:0.955221;stroke-dasharray:none;stroke-opacity:1"
     id="rect1-2"
     width="13.687567"
     height="13.591975"
     x="1.6227167"
     y="1.6705124"
     rx="2.8442214"
     ry="2.965905" />
  <path
     style="fill:{{colors.primary.default.hex}};fill-opacity:1;stroke-width:0.0202565"
     d="M 9.1391175,11.641755 C 8.0727273,11.587025 7.0547796,11.221844 6.2222098,10.595341 5.9522177,10.392172 5.6943637,10.153875 5.4897424,9.9184307 5.4683488,9.8938195 5.4407973,9.8623052 5.4285093,9.8484053 5.3554614,9.7657654 5.1935205,9.5507325 5.1056014,9.4196329 4.7735462,8.9244916 4.5440802,8.3870859 4.423752,7.8227477 4.3858812,7.6451365 4.36455,7.5013832 4.337936,7.2444396 4.3263501,7.1325449 4.3264657,6.636214 4.3381598,6.5184546 4.3731179,6.1650073 4.4153463,5.9400338 4.5138567,5.5824263 c 0.021512,-0.07809 0.040607,-0.1434769 0.042435,-0.1453046 0.00181,-0.00181 0.00356,0.00372 0.00386,0.012342 2.373e-4,0.00862 0.00162,0.022957 0.00291,0.03187 0.00129,0.00892 0.00711,0.065792 0.012896,0.126399 0.046848,0.4901641 0.1217125,0.8560114 0.2617952,1.2793491 0.1274153,0.3850521 0.3141187,0.786637 0.5302353,1.1404975 0.099773,0.163364 0.2942692,0.439148 0.4191225,0.5942897 0.362227,0.4501022 0.8097157,0.8627722 1.2843031,1.1843725 0.5165395,0.3500275 1.0497024,0.6076865 1.6449677,0.7949525 0.1424256,0.0448 0.3958738,0.115844 0.4649294,0.130312 0.019608,0.0042 0.083779,0.01758 0.1426038,0.02996 0.5109485,0.107484 1.1142963,0.1578 1.5880923,0.132437 0.553912,-0.02965 0.928274,-0.08818 1.467753,-0.229469 0.103156,-0.02702 0.189204,-0.04732 0.19122,-0.04511 0.002,0.0022 7.36e-4,0.0051 -0.0028,0.0065 -0.0036,0.0013 -0.07648,0.04853 -0.162049,0.104822 -0.249501,0.164166 -0.404197,0.254367 -0.625515,0.364729 -0.516576,0.257592 -1.080309,0.428949 -1.662637,0.505387 -0.2386116,0.03132 -0.3657514,0.03936 -0.6546829,0.04139 -0.1533002,0.001 -0.2991454,8.66e-4 -0.3241006,-4.99e-4 z m 1.4002005,-0.8879 c 0.01693,-0.0381 0.04963,-0.1461 0.05638,-0.186241 0.01299,-0.07741 0.0092,-0.217803 -0.0078,-0.288616 -0.01809,-0.07559 -0.04894,-0.154887 -0.08377,-0.215293 -0.01483,-0.02574 -0.02264,-0.04484 -0.0175,-0.04286 0.08115,0.03114 0.460911,0.141196 0.652086,0.188977 0.405572,0.101364 0.772501,0.164004 1.298023,0.22159 0.0918,0.01006 0.166912,0.02011 0.166912,0.02232 0,0.0048 -0.228264,0.07259 -0.369475,0.109695 -0.183937,0.04834 -0.495552,0.111739 -0.651441,0.132541 -0.04521,0.0061 -0.07169,0.0098 -0.116677,0.01644 -0.02139,0.0031 -0.06952,0.0089 -0.106953,0.01277 -0.03744,0.0039 -0.08119,0.0084 -0.09723,0.01 -0.131663,0.01357 -0.317044,0.02345 -0.505062,0.02692 -0.2179,0.0041 -0.222968,0.0039 -0.217597,-0.0083 z m -0.275572,-2.63e-4 c -0.0054,-9.5e-4 -0.05493,-0.0049 -0.110193,-0.0087 -0.05526,-0.0038 -0.107764,-0.0081 -0.116678,-0.0096 -0.0089,-0.0015 -0.048288,-0.006 -0.087504,-0.01 -0.070413,-0.0072 -0.1693538,-0.0208 -0.3273417,-0.04499 -0.087341,-0.01339 -0.3254553,-0.05804 -0.3291554,-0.06173 -0.00124,-0.0012 0.011271,-0.02201 0.0278,-0.04615 0.06161,-0.08998 0.1044108,-0.195843 0.1230381,-0.304291 0.01241,-0.07228 0.014081,-0.176272 0.00368,-0.229308 C 9.436021,9.980863 9.437143,9.977386 9.476995,9.9473 c 0.2528645,-0.1909134 0.614044,-0.1596498 0.828181,0.071687 0.178702,0.193053 0.217105,0.471039 0.09764,0.706784 l -0.01631,0.03219 -0.05653,-0.0012 c -0.03109,-7.08e-4 -0.0609,-0.0022 -0.06624,-0.0031 z M 9.1196712,10.578163 C 8.9289478,10.533629 8.5794089,10.420747 8.326806,10.322113 l -0.1187353,-0.04636 0.058623,-0.05434 C 8.3916011,10.105638 8.4727153,9.9601941 8.503772,9.7963112 8.5169367,9.7268322 8.5212362,9.6518187 8.5150713,9.5989695 l -0.00549,-0.047064 0.023988,-0.00645 c 0.065942,-0.017758 0.16173,-0.025822 0.2240825,-0.01887 0.3095708,0.03452 0.5362474,0.2666918 0.5628181,0.5764625 0.00867,0.101116 -0.019524,0.230477 -0.072077,0.330689 -0.027165,0.0518 -0.100651,0.14989 -0.1110489,0.148229 -0.00257,-4.46e-4 -0.010537,-0.0022 -0.017672,-0.0038 z M 7.9529082,10.159514 C 7.8640191,10.11643 7.7268945,10.045854 7.6288076,9.9927031 7.5028966,9.9244751 7.1134869,9.6826933 7.1134869,9.6727451 c 0,-0.00161 0.021146,-0.010863 0.046996,-0.020622 C 7.359325,9.5770721 7.5181833,9.4367971 7.6080005,9.256957 7.6317525,9.209398 7.6610245,9.1207444 7.6682075,9.0746116 l 0.0042,-0.026937 0.049505,-0.00425 c 0.055335,-0.00474 0.1407187,0.00339 0.2018586,0.019235 0.1852691,0.048008 0.3555231,0.2026695 0.4203631,0.3818629 0.087196,0.240979 0.022381,0.505719 -0.1661191,0.6785335 -0.037,0.03392 -0.1090753,0.08353 -0.1213895,0.08355 -0.00355,7e-6 -0.050235,-0.0212 -0.1037122,-0.04711 z M 6.8618215,9.4888585 C 6.6912863,9.3549082 6.6399864,9.3116534 6.4976957,9.181839 6.3552337,9.0518675 6.3182709,9.0158907 6.3231542,9.0119555 c 0.00153,-0.00123 0.03,-0.011601 0.063284,-0.023064 C 6.5885584,8.9193185 6.7726263,8.7574748 6.854168,8.577637 6.878824,8.523266 6.903459,8.4385396 6.909174,8.3884698 c 0.00768,-0.067161 0.00431,-0.063891 0.060812,-0.0593 0.1367725,0.011111 0.2748162,0.070671 0.374074,0.1613876 0.1405493,0.1284537 0.2180812,0.3324799 0.1970851,0.5186309 -0.00826,0.0732 -0.014126,0.097179 -0.039987,0.1634291 -0.075896,0.1944092 -0.2474109,0.338932 -0.4545352,0.3830035 -0.079659,0.016954 -0.077001,0.017906 -0.1848014,-0.066762 z M 6.1831791,8.8763101 C 6.1735578,8.8647241 6.1535962,8.8421178 6.1388239,8.8260747 5.9577934,8.629467 5.768424,8.3889116 5.6096164,8.1538205 l -0.077895,-0.1153106 0.082723,-0.00436 c 0.1558855,-0.00823 0.2730138,-0.047985 0.4012355,-0.1361931 0.073844,-0.050799 0.1368421,-0.1168844 0.211753,-0.2221281 0.00883,-0.012395 0.010098,-0.012429 0.061789,-0.00129 0.1200357,0.025793 0.2313166,0.086573 0.3129202,0.1709081 0.076751,0.079319 0.1193745,0.1486099 0.1506807,0.2449534 0.1096332,0.3373916 -0.092122,0.7044001 -0.4350484,0.7913915 -0.087227,0.022126 -0.1125445,0.021102 -0.1345948,-0.00544 z M 5.5189121,7.8984528 c -0.071389,-0.00806 -0.076215,-0.010052 -0.0944,-0.038854 C 5.3756214,7.7821528 5.2216778,7.4856549 5.1758034,7.380583 5.1672432,7.3609782 5.1502755,7.3230548 5.1381038,7.2963161 5.0994526,7.2114248 5.0262787,7.0253182 5.0262787,7.0119059 c 0,-0.020531 0.072562,-0.1230695 0.121218,-0.1712973 0.108975,-0.1080178 0.2475825,-0.1688523 0.4045623,-0.177561 0.1367673,-0.00759 0.2892849,0.036655 0.3714217,0.1077439 0.016448,0.014239 0.048096,0.038914 0.070329,0.054841 0.1090534,0.078118 0.1859579,0.2267386 0.2058438,0.3978003 0.012515,0.1076495 -0.01054,0.2302081 -0.063064,0.3351349 -0.076817,0.1534776 -0.2164828,0.2700085 -0.3806213,0.3175738 -0.042384,0.012284 -0.1819945,0.03361 -0.1875074,0.028645 -5.254e-4,-4.991e-4 -0.022812,-0.00332 -0.049549,-0.00633 z M 4.9531557,6.813261 C 4.8030842,6.3443602 4.7182371,5.8646688 4.6992248,5.377624 l -0.00341,-0.087507 0.015987,0.019445 c 0.00879,0.010698 0.07813,0.1025774 0.1540807,0.2041831 0.3077524,0.411708 0.5286518,0.6887876 0.7649603,0.9595115 l 0.048243,0.05527 -0.088187,-1.154e-4 c -0.09364,-1.151e-4 -0.1469635,0.00751 -0.2307999,0.033126 -0.1377553,0.042082 -0.2745064,0.1350804 -0.3701596,0.251726 l -0.026462,0.03227 z"
     id="path1-5" />
</svg>
