<?xml version="1.0" encoding="UTF-8" standalone="no"?>
<svg
   width="64"
   height="64"
   version="1.1"
   viewBox="0 0 16.933 16.933"
   id="svg7"
   sodipodi:docname="accessories-text-editor.svg"
   inkscape:version="1.4.3 (0d15f75042, 2025-12-25)"
   xmlns:inkscape="http://www.inkscape.org/namespaces/inkscape"
   xmlns:sodipodi="http://sodipodi.sourceforge.net/DTD/sodipodi-0.dtd"
   xmlns="http://www.w3.org/2000/svg"
   xmlns:svg="http://www.w3.org/2000/svg"
   xmlns:rdf="http://www.w3.org/1999/02/22-rdf-syntax-ns#"
   xmlns:cc="http://creativecommons.org/ns#"
   xmlns:dc="http://purl.org/dc/elements/1.1/">
  <sodipodi:namedview
     id="namedview7"
     pagecolor="#9c4444"
     bordercolor="#000000"
     borderopacity="0.25"
     inkscape:showpageshadow="2"
     inkscape:pageopacity="0.0"
     inkscape:pagecheckerboard="0"
     inkscape:deskcolor="#d1d1d1"
     inkscape:zoom="4.3531261"
     inkscape:cx="43.417074"
     inkscape:cy="20.674797"
     inkscape:window-width="1226"
     inkscape:window-height="669"
     inkscape:window-x="474"
     inkscape:window-y="225"
     inkscape:window-maximized="0"
     inkscape:current-layer="svg7"
     showgrid="false" />
  <defs
     id="defs2">
    <filter
       style="color-interpolation-filters:sRGB;"
       inkscape:label="Blur"
       id="filter5421"
       x="-0.12256455"
       y="-0.12342654"
       width="1.2451291"
       height="1.2468531">
      <feGaussianBlur
         stdDeviation="0.5 0.5"
         result="blur"
         id="feGaussianBlur5419" />
    </filter>
  </defs>
  <metadata
     id="metadata2">
    <rdf:RDF>
      <cc:Work
         rdf:about="">
        <dc:format>image/svg+xml</dc:format>
        <dc:type
           rdf:resource="http://purl.org/dc/dcmitype/StillImage" />
      </cc:Work>
    </rdf:RDF>
  </metadata>
  <rect
     style="opacity:0.3;fill:none;fill-opacity:0.996424;stroke:#000000;stroke-width:0.955221;stroke-dasharray:none;stroke-opacity:1;filter:url(#filter5421)"
     id="rect1-2-7"
     width="13.687567"
     height="13.591975"
     x="1.6227165"
     y="1.6705122"
     rx="2.8442214"
     ry="2.965905" />
  <rect
     style="fill:none;fill-opacity:1;stroke:{{colors.primary.default.hex}};stroke-width:0.955221;stroke-dasharray:none;stroke-opacity:1"
     id="rect1-2"
     width="13.687567"
     height="13.591975"
     x="1.6227167"
     y="1.6705124"
     rx="2.8442214"
     ry="2.965905" />
  <path
     style="fill:{{colors.primary.default.hex}};fill-opacity:1;stroke:none;stroke-width:0.129302;stroke-dasharray:none;stroke-opacity:0.6"
     d="M 5.2747483,12.467122 C 5.1020401,12.397256 4.9567884,12.172077 4.9269297,11.927907 4.9113724,11.800772 4.9049872,10.945331 4.9127198,10.026923 4.9255613,8.5023483 4.9336906,8.346912 5.0062549,8.2400375 5.1243825,8.0660473 5.3376474,7.9835805 5.6694665,7.9835805 H 5.959441 L 5.9599663,7.0937367 C 5.9606229,5.9028513 6.0525105,5.5732223 6.5165614,5.0962048 6.9435214,4.6573139 7.6162329,4.425733 8.4641892,4.425733 c 0.7948316,0 1.4115822,0.194611 1.8252918,0.5759557 0.289041,0.266428 0.438737,0.5011938 0.574192,0.9004808 0.107002,0.3154174 0.119188,0.4216156 0.139252,1.2135387 l 0.022,0.8678723 0.290599,1.645e-4 c 0.213904,1.204e-4 0.328981,0.023566 0.436052,0.088848 0.267112,0.162852 0.271999,0.2019862 0.271999,2.176978 0,1.976372 -0.004,2.007708 -0.282111,2.177263 -0.129178,0.07877 -0.277563,0.08241 -3.2552905,0.07991 -1.715973,-0.0014 -3.1611102,-0.01928 -3.2114183,-0.03962 z M 10.002194,7.1942567 c 0,-0.6893574 -0.011457,-0.8199608 -0.090509,-1.0312329 C 9.8008172,5.8667064 9.5229877,5.606019 9.1967428,5.4921943 8.9226858,5.3965763 8.1030836,5.3824395 7.8201058,5.4684445 7.4904319,5.5686459 7.2269391,5.7826431 7.0809789,6.0687313 6.9491633,6.3270968 6.9480546,6.3352943 6.9337528,7.1563178 l -0.01441,0.827258 h 1.5414258 1.5414234 z"
     id="path53" />
</svg>
