<?xml version="1.0" encoding="UTF-8" standalone="no"?>
<svg
   width="64"
   height="64"
   version="1.1"
   viewBox="0 0 16.933 16.933"
   id="svg7"
   sodipodi:docname="abcd.svg"
   inkscape:version="1.4.3 (0d15f75042, 2025-12-25)"
   xmlns:inkscape="http://www.inkscape.org/namespaces/inkscape"
   xmlns:sodipodi="http://sodipodi.sourceforge.net/DTD/sodipodi-0.dtd"
   xmlns="http://www.w3.org/2000/svg"
   xmlns:svg="http://www.w3.org/2000/svg"
   xmlns:rdf="http://www.w3.org/1999/02/22-rdf-syntax-ns#"
   xmlns:cc="http://creativecommons.org/ns#"
   xmlns:dc="http://purl.org/dc/elements/1.1/">
  <sodipodi:namedview
     id="namedview7"
     pagecolor="#9c4444"
     bordercolor="#000000"
     borderopacity="0.25"
     inkscape:showpageshadow="2"
     inkscape:pageopacity="0.0"
     inkscape:pagecheckerboard="0"
     inkscape:deskcolor="#d1d1d1"
     inkscape:zoom="4.3531261"
     inkscape:cx="43.417074"
     inkscape:cy="20.674797"
     inkscape:window-width="1226"
     inkscape:window-height="669"
     inkscape:window-x="474"
     inkscape:window-y="225"
     inkscape:window-maximized="0"
     inkscape:current-layer="svg7"
     showgrid="false" />
  <defs
     id="defs2">
    <filter
       style="color-interpolation-filters:sRGB;"
       inkscape:label="Blur"
       id="filter5421"
       x="-0.12256455"
       y="-0.12342654"
       width="1.2451291"
       height="1.2468531">
      <feGaussianBlur
         stdDeviation="0.5 0.5"
         result="blur"
         id="feGaussianBlur5419" />
    </filter>
  </defs>
  <metadata
     id="metadata2">
    <rdf:RDF>
      <cc:Work
         rdf:about="">
        <dc:format>image/svg+xml</dc:format>
        <dc:type
           rdf:resource="http://purl.org/dc/dcmitype/StillImage" />
      </cc:Work>
    </rdf:RDF>
  </metadata>
  <rect
     style="opacity:0.3;fill:none;fill-opacity:0.996424;stroke:#000000;stroke-width:0.955221;stroke-dasharray:none;stroke-opacity:1;filter:url(#filter5421)"
     id="rect1-2-7"
     width="13.687567"
     height="13.591975"
     x="1.6227165"
     y="1.6705122"
     rx="2.8442214"
     ry="2.965905" />
  <rect
     style="fill:none;fill-opacity:1;stroke:{{colors.primary.default.hex}};stroke-width:0.955221;stroke-dasharray:none;stroke-opacity:1"
     id="rect1-2"
     width="13.687567"
     height="13.591975"
     x="1.6227167"
     y="1.6705124"
     rx="2.8442214"
     ry="2.965905" />
  <path
     style="fill:{{colors.primary.default.hex}};fill-opacity:1;stroke:none;stroke-width:0.131072;stroke-dasharray:none;stroke-opacity:0.6"
     d="M 8.0859432,12.469077 C 7.2488933,12.384031 6.4918038,12.063699 5.8555919,11.525394 5.7955209,11.474567 5.6668838,11.350843 5.5697315,11.25045 4.6932425,10.344737 4.3025518,9.0781565 4.5071907,7.8058068 4.5875968,7.3058808 4.7667132,6.8201066 5.0362416,6.37099 5.3228281,5.8934486 5.8042542,5.3993562 6.2853951,5.0889674 6.8358766,4.7338471 7.4576754,4.5234697 8.1333789,4.4637258 c 0.213785,-0.018909 0.6946904,-0.00824 0.9024077,0.020006 0.7689473,0.1045665 1.4425384,0.3728793 2.0174524,0.8036175 0.68222,0.5111349 1.156715,1.2069427 1.340635,1.9659391 0.07114,0.2935339 0.08498,0.4145773 0.08525,0.7452578 2.32e-4,0.2657845 -0.0031,0.3196595 -0.02965,0.4497237 -0.171118,0.8460121 -0.732447,1.4985978 -1.513731,1.7598171 -0.285006,0.0953 -0.381745,0.105777 -1.0326481,0.111932 -0.5619746,0.0053 -0.5735859,0.0059 -0.6762188,0.03686 -0.2455208,0.07398 -0.4087871,0.255749 -0.4415671,0.491604 -0.023446,0.168678 0.033578,0.33876 0.1796331,0.535836 0.09833,0.132679 0.1059111,0.156053 0.1126891,0.347528 0.00453,0.128103 9.72e-4,0.187201 -0.014964,0.250564 -0.052264,0.20734 -0.1732952,0.361534 -0.3499989,0.445908 l -0.1009218,0.04819 -0.2055881,0.0021 c -0.1130741,0.0012 -0.2571769,-0.0031 -0.3202285,-0.0095 z M 5.822934,8.4542941 C 6.0235566,8.4020388 6.1905295,8.2544531 6.2678419,8.0610423 6.3098743,7.9558929 6.3158245,7.7936143 6.2817637,7.6814643 6.1638852,7.2933756 5.7281492,7.111159 5.3844456,7.3062222 5.2283271,7.3948254 5.0991043,7.57941 5.0686248,7.757348 4.9977786,8.1709454 5.4184719,8.5596446 5.8229392,8.4542941 Z m 5.238071,0.00675 c 0.112326,-0.020955 0.226801,-0.084792 0.320657,-0.1787992 0.197931,-0.1982472 0.24298,-0.4574014 0.122047,-0.7020897 -0.157697,-0.3190787 -0.526335,-0.4425971 -0.842127,-0.2821706 -0.106428,0.054064 -0.222617,0.1777478 -0.279492,0.2975109 -0.04183,0.088078 -0.04821,0.1145223 -0.05276,0.2186881 -0.004,0.094495 2.57e-4,0.1365372 0.02189,0.2075785 0.0927,0.3051766 0.402162,0.4967017 0.709803,0.4392867 z M 7.3983841,6.5903474 C 7.6255429,6.5237061 7.805707,6.3213274 7.8478601,6.0854534 7.9055315,5.7627478 7.6612469,5.4316329 7.3236208,5.3748736 7.029508,5.3254297 6.7177975,5.5278786 6.6313373,5.824497 c -0.042732,0.1465944 -0.016492,0.3479798 0.062015,0.4760299 0.040613,0.066239 0.1352792,0.1652737 0.2016614,0.2109647 0.134507,0.092579 0.3444731,0.1254729 0.5033704,0.078856 z m 2.2627162,-0.040163 c 0.1393423,-0.069047 0.2363941,-0.1676433 0.302932,-0.307754 0.041571,-0.087555 0.04797,-0.1141593 0.052533,-0.2182059 0.004,-0.094496 -2.56e-4,-0.1365375 -0.021888,-0.2075785 C 9.9053658,5.522593 9.5995641,5.3253304 9.3100052,5.3749842 8.9729499,5.432783 8.7294021,5.7577072 8.7825814,6.0786364 c 0.029358,0.1771652 0.1540463,0.3611203 0.3045697,0.4493329 0.1081219,0.063362 0.1921064,0.08323 0.3355976,0.079388 0.123476,-0.00329 0.1354172,-0.00617 0.2383417,-0.057173 z"
     id="path7" />
</svg>
