<?xml version="1.0" encoding="UTF-8" standalone="no"?>
<svg
   width="64"
   height="64"
   version="1.1"
   viewBox="0 0 16.933 16.933"
   id="svg7"
   sodipodi:docname="accessories-text-editor.svg"
   inkscape:version="1.4.3 (0d15f75042, 2025-12-25)"
   xmlns:inkscape="http://www.inkscape.org/namespaces/inkscape"
   xmlns:sodipodi="http://sodipodi.sourceforge.net/DTD/sodipodi-0.dtd"
   xmlns="http://www.w3.org/2000/svg"
   xmlns:svg="http://www.w3.org/2000/svg"
   xmlns:rdf="http://www.w3.org/1999/02/22-rdf-syntax-ns#"
   xmlns:cc="http://creativecommons.org/ns#"
   xmlns:dc="http://purl.org/dc/elements/1.1/">
  <sodipodi:namedview
     id="namedview7"
     pagecolor="#9c4444"
     bordercolor="#000000"
     borderopacity="0.25"
     inkscape:showpageshadow="2"
     inkscape:pageopacity="0.0"
     inkscape:pagecheckerboard="0"
     inkscape:deskcolor="#d1d1d1"
     inkscape:zoom="4.3531261"
     inkscape:cx="36.984915"
     inkscape:cy="29.863596"
     inkscape:window-width="1226"
     inkscape:window-height="669"
     inkscape:window-x="0"
     inkscape:window-y="133"
     inkscape:window-maximized="0"
     inkscape:current-layer="svg7"
     showgrid="false" />
  <defs
     id="defs2">
    <filter
       style="color-interpolation-filters:sRGB;"
       inkscape:label="Blur"
       id="filter5421"
       x="-0.12256455"
       y="-0.12342654"
       width="1.2451291"
       height="1.2468531">
      <feGaussianBlur
         stdDeviation="0.5 0.5"
         result="blur"
         id="feGaussianBlur5419" />
    </filter>
  </defs>
  <metadata
     id="metadata2">
    <rdf:RDF>
      <cc:Work
         rdf:about="">
        <dc:format>image/svg+xml</dc:format>
        <dc:type
           rdf:resource="http://purl.org/dc/dcmitype/StillImage" />
      </cc:Work>
    </rdf:RDF>
  </metadata>
  <rect
     style="opacity:0.3;fill:none;fill-opacity:0.996424;stroke:#000000;stroke-width:0.955221;stroke-dasharray:none;stroke-opacity:1;filter:url(#filter5421)"
     id="rect1-2-7"
     width="13.687567"
     height="13.591975"
     x="1.6227165"
     y="1.6705122"
     rx="2.8442214"
     ry="2.965905" />
  <rect
     style="fill:none;fill-opacity:1;stroke:{{colors.primary.default.hex}};stroke-width:0.955221;stroke-dasharray:none;stroke-opacity:1"
     id="rect1-2"
     width="13.687567"
     height="13.591975"
     x="1.6227167"
     y="1.6705124"
     rx="2.8442214"
     ry="2.965905" />
  <path
     id="path11"
     style="fill:{{colors.primary.default.hex}};fill-opacity:1;stroke:none;stroke-width:0.13133;stroke-dasharray:none;stroke-dashoffset:2.2;stroke-opacity:0.6"
     d="m 8.4796565,4.3310159 c -0.1196805,3.94e-4 -0.2379765,0.022439 -0.3213482,0.066486 -0.179102,0.094622 -0.347571,0.2645652 -0.431234,0.4349277 -0.063389,0.1290788 -0.075245,0.1872468 -0.074795,0.3702891 4.202e-4,0.1814523 0.012348,0.2397983 0.072027,0.3532057 0.089515,0.1701125 0.2401489,0.3215076 0.3933739,0.3956829 l 0.1177353,0.057252 V 6.2369421 6.4654869 H 7.6518159 7.0682186 V 6.723581 6.9812134 h 0.5835973 0.5835976 v 1.12518 c 0,0.7309942 -0.00981,1.1516974 -0.028627,1.2013614 C 8.1343105,9.4990427 7.9229545,9.6253149 7.6790556,9.6226388 7.4845352,9.6205113 6.9181919,9.5078851 6.6023555,9.4088686 6.3351878,9.3251096 5.9881678,9.1517452 5.8996373,9.0575097 l -0.062792,-0.066948 h 0.247475 0.2479369 L 5.9139503,8.5953411 C 5.6839256,8.3780563 5.4863061,8.1980268 5.474867,8.1950409 5.4143575,8.1792446 5.3010076,8.6764185 5.262482,9.1263037 L 5.2449389,9.3299167 5.3820656,9.1960216 C 5.45743,9.122255 5.5229317,9.0671023 5.5275035,9.0736691 c 0.00458,0.00657 0.026111,0.047838 0.048019,0.091418 0.021905,0.043581 0.1001701,0.1271058 0.1740635,0.185606 0.2333444,0.1847358 0.5335143,0.3173279 1.3449523,0.5956011 0.2610327,0.089518 0.5351342,0.1934278 0.6089915,0.2308548 0.073857,0.03743 0.275924,0.194965 0.4487789,0.349974 0.1728559,0.155007 0.3207842,0.281883 0.3287355,0.282102 0.00795,2.19e-4 0.1606364,-0.128471 0.3393545,-0.286257 C 8.999117,10.365181 9.1878221,10.213911 9.2400899,10.186846 9.2923579,10.159771 9.6041096,10.043172 9.9326502,9.9278267 10.857226,9.603228 11.35168,9.3370873 11.401801,9.137385 c 0.009,-0.036026 0.02371,-0.065101 0.03277,-0.065101 0.009,0 0.07536,0.05752 0.146822,0.1278928 L 11.711138,9.32807 V 9.203409 c 0,-0.1615987 -0.06374,-0.5194752 -0.144513,-0.8102958 l -0.06418,-0.2308533 -0.404917,0.4076874 -0.404456,0.4072253 0.230391,0.01339 0.230854,0.01385 -0.170369,0.1168119 C 10.67181,9.3353354 10.246015,9.478625 9.5992967,9.587548 9.3270767,9.6333974 9.2444163,9.6382446 9.1509796,9.6134043 8.9935388,9.5715468 8.8644624,9.4874473 8.8033142,9.3871679 8.754996,9.3079286 8.7516986,9.2329916 8.751603,8.1419444 V 6.981214 H 9.321811 9.8920195 V 6.723581 6.4654869 H 9.3218104 8.7516024 V 6.2374035 6.0088587 L 8.8988872,5.9257518 C 9.2725538,5.714867 9.4307428,5.213418 9.2442437,4.8301213 9.1660761,4.6694708 8.9725401,4.4763076 8.8088539,4.3956544 8.7205629,4.3521519 8.5993382,4.3306372 8.4796565,4.3310159 Z M 8.468113,4.89753 c 0.1630248,-0.010288 0.3107288,0.1159936 0.3107288,0.2964159 0,0.088031 -0.017947,0.1273718 -0.092342,0.201766 -0.074394,0.074394 -0.1137344,0.092342 -0.201766,0.092342 -0.3127531,0 -0.4117441,-0.4262535 -0.1302013,-0.5605124 0.037664,-0.017961 0.075958,-0.027636 0.1135805,-0.030012 z m 2.469209,6.480058 c -0.359026,0 -0.718301,0.01189 -0.741501,0.03508 -0.0232,0.02319 -0.03231,0.190762 -0.03231,0.582211 0,0.495012 0.0047,0.552681 0.04756,0.577596 0.06453,0.03759 1.377437,0.03885 1.447451,0.0014 0.04927,-0.02637 0.05263,-0.06232 0.05263,-0.578519 0,-0.391757 -0.0096,-0.559477 -0.03277,-0.582675 -0.0232,-0.0232 -0.382013,-0.03508 -0.741038,-0.03508 z m -4.9181027,0.0023 c -0.6112178,0 -0.7182709,0.0064 -0.7548909,0.04294 -0.035852,0.03585 -0.042477,0.126392 -0.042477,0.568361 0,0.51276 0.00116,0.527155 0.060022,0.568361 0.050702,0.03552 0.1686407,0.04248 0.7378075,0.04248 0.5922369,0 0.6837776,-0.006 0.7271884,-0.04525 0.044893,-0.04062 0.049864,-0.09578 0.049864,-0.578057 0,-0.378668 -0.00965,-0.542922 -0.032782,-0.566051 -0.023684,-0.02369 -0.2270312,-0.03278 -0.7447321,-0.03278 z m 2.4484318,0 c -0.5159357,0 -0.7187441,0.0091 -0.7424245,0.03277 -0.02314,0.02314 -0.032782,0.187929 -0.032782,0.568361 0,0.450771 0.00703,0.542151 0.042938,0.578056 0.03655,0.03656 0.1417213,0.04294 0.7331905,0.04294 0.6542365,0 0.6932763,-0.003 0.7447332,-0.05448 0.050428,-0.05043 0.054019,-0.09068 0.054019,-0.561436 0,-0.433632 -0.00636,-0.513885 -0.044786,-0.556357 -0.041349,-0.0457 -0.1016405,-0.04987 -0.7548894,-0.04987 z" />
</svg>
