<?xml version="1.0" encoding="UTF-8" standalone="no"?>
<svg
   width="64"
   height="64"
   version="1.1"
   viewBox="0 0 16.933 16.933"
   id="svg7"
   sodipodi:docname="abcd.svg"
   inkscape:version="1.4.3 (0d15f75042, 2025-12-25)"
   xmlns:inkscape="http://www.inkscape.org/namespaces/inkscape"
   xmlns:sodipodi="http://sodipodi.sourceforge.net/DTD/sodipodi-0.dtd"
   xmlns="http://www.w3.org/2000/svg"
   xmlns:svg="http://www.w3.org/2000/svg"
   xmlns:rdf="http://www.w3.org/1999/02/22-rdf-syntax-ns#"
   xmlns:cc="http://creativecommons.org/ns#"
   xmlns:dc="http://purl.org/dc/elements/1.1/">
  <sodipodi:namedview
     id="namedview7"
     pagecolor="#9c4444"
     bordercolor="#000000"
     borderopacity="0.25"
     inkscape:showpageshadow="2"
     inkscape:pageopacity="0.0"
     inkscape:pagecheckerboard="0"
     inkscape:deskcolor="#d1d1d1"
     inkscape:zoom="4.3531261"
     inkscape:cx="35.836315"
     inkscape:cy="31.471636"
     inkscape:window-width="1226"
     inkscape:window-height="669"
     inkscape:window-x="0"
     inkscape:window-y="133"
     inkscape:window-maximized="0"
     inkscape:current-layer="svg7"
     showgrid="false" />
  <defs
     id="defs2">
    <filter
       style="color-interpolation-filters:sRGB;"
       inkscape:label="Blur"
       id="filter5421"
       x="-0.12256455"
       y="-0.12342654"
       width="1.2451291"
       height="1.2468531">
      <feGaussianBlur
         stdDeviation="0.5 0.5"
         result="blur"
         id="feGaussianBlur5419" />
    </filter>
  </defs>
  <metadata
     id="metadata2">
    <rdf:RDF>
      <cc:Work
         rdf:about="">
        <dc:format>image/svg+xml</dc:format>
        <dc:type
           rdf:resource="http://purl.org/dc/dcmitype/StillImage" />
      </cc:Work>
    </rdf:RDF>
  </metadata>
  <rect
     style="opacity:0.3;fill:none;fill-opacity:0.996424;stroke:#000000;stroke-width:0.955221;stroke-dasharray:none;stroke-opacity:1;filter:url(#filter5421)"
     id="rect1-2-7"
     width="13.687567"
     height="13.591975"
     x="1.6227165"
     y="1.6705122"
     rx="2.8442214"
     ry="2.965905" />
  <rect
     style="fill:none;fill-opacity:1;stroke:{{colors.primary.default.hex}};stroke-width:0.955221;stroke-dasharray:none;stroke-opacity:1"
     id="rect1-2"
     width="13.687567"
     height="13.591975"
     x="1.6227167"
     y="1.6705124"
     rx="2.8442214"
     ry="2.965905" />
  <g
     fill-rule="nonzero"
     id="g8"
     transform="matrix(0.22707907,0,0,0.22707907,3.0379476,3.0784812)"
     style="fill:{{colors.primary.default.hex}};fill-opacity:1;stroke:none;stroke-width:0.578345;stroke-dasharray:none;stroke-opacity:0.6">
    <path
       d="M 32.813,25.313 H 15.187 c -0.621,0 -1.125,0.503 -1.125,1.125 v 12.205 c 0,0.621 0.504,1.125 1.125,1.125 h 17.626 c 0.621,0 1.124,-0.504 1.124,-1.125 V 26.437 c 0,-0.621 -0.503,-1.125 -1.125,-1.125 z"
       fill="#ededed"
       id="path3-3-3"
       style="fill:{{colors.primary.default.hex}};fill-opacity:1;stroke:none;stroke-width:0.578345;stroke-dasharray:none;stroke-opacity:0.6" />
    <path
       d="m 14.063,26.438 c -0.001,-0.622 0.503,-1.125 1.124,-1.125 h 17.626 c 0.621,0 1.124,0.503 1.124,1.125 v 2.444 H 14.062 v -2.444 z"
       fill="#ffa700"
       id="path4"
       style="fill:{{colors.primary.default.hex}};fill-opacity:1;stroke:none;stroke-width:0.578345;stroke-dasharray:none;stroke-opacity:0.6" />
    <path
       d="M 24.75,7.688 H 7.125 C 6.504,7.688 6,8.191 6,8.813 V 21 c 0,0.621 0.504,1.125 1.125,1.125 H 24.75 c 0.621,0 1.125,-0.504 1.125,-1.125 V 8.812 c 0,-0.621 -0.504,-1.124 -1.125,-1.124 z"
       fill="#ededed"
       id="path5"
       style="fill:{{colors.primary.default.hex}};fill-opacity:1;stroke:none;stroke-width:0.578345;stroke-dasharray:none;stroke-opacity:0.6" />
    <path
       d="M 6,8.813 C 6,8.191 6.504,7.687 7.125,7.687 H 24.75 c 0.621,0 1.125,0.504 1.125,1.125 v 2.457 H 6 V 8.812 Z"
       fill="#ffa700"
       id="path6"
       style="fill:{{colors.primary.default.hex}};fill-opacity:1;stroke:none;stroke-width:0.578345;stroke-dasharray:none;stroke-opacity:0.6" />
    <path
       d="M 41.063,10.5 H 30 c -0.414,0 -0.75,0.336 -0.75,0.75 v 7.5 c 0,0.414 0.336,0.75 0.75,0.75 h 11.063 c 0.414,0 0.749,-0.336 0.749,-0.75 v -7.5 c 0,-0.414 -0.335,-0.75 -0.75,-0.75 z"
       fill="#ededed"
       id="path7"
       style="fill:{{colors.primary.default.hex}};fill-opacity:1;stroke:none;stroke-width:0.578345;stroke-dasharray:none;stroke-opacity:0.6" />
    <path
       d="m 29.25,11.25 c 0,-0.414 0.336,-0.75 0.75,-0.75 h 11.063 c 0.414,0 0.749,0.336 0.749,0.75 v 1.5 H 29.25 Z"
       fill="#ffa700"
       id="path8-3"
       style="fill:{{colors.primary.default.hex}};fill-opacity:1;stroke:none;stroke-width:0.578345;stroke-dasharray:none;stroke-opacity:0.6" />
  </g>
</svg>
