<?xml version="1.0" encoding="UTF-8" standalone="no"?>
<svg
   width="64"
   height="64"
   version="1.1"
   viewBox="0 0 16.933 16.933"
   id="svg7"
   sodipodi:docname="abcd.svg"
   inkscape:version="1.4.3 (0d15f75042, 2025-12-25)"
   xmlns:inkscape="http://www.inkscape.org/namespaces/inkscape"
   xmlns:sodipodi="http://sodipodi.sourceforge.net/DTD/sodipodi-0.dtd"
   xmlns="http://www.w3.org/2000/svg"
   xmlns:svg="http://www.w3.org/2000/svg"
   xmlns:rdf="http://www.w3.org/1999/02/22-rdf-syntax-ns#"
   xmlns:cc="http://creativecommons.org/ns#"
   xmlns:dc="http://purl.org/dc/elements/1.1/">
  <sodipodi:namedview
     id="namedview7"
     pagecolor="#9c4444"
     bordercolor="#000000"
     borderopacity="0.25"
     inkscape:showpageshadow="2"
     inkscape:pageopacity="0.0"
     inkscape:pagecheckerboard="0"
     inkscape:deskcolor="#d1d1d1"
     inkscape:zoom="4.3531261"
     inkscape:cx="37.674075"
     inkscape:cy="26.188077"
     inkscape:window-width="1226"
     inkscape:window-height="669"
     inkscape:window-x="146"
     inkscape:window-y="136"
     inkscape:window-maximized="0"
     inkscape:current-layer="svg7"
     showgrid="false" />
  <defs
     id="defs2">
    <filter
       style="color-interpolation-filters:sRGB;"
       inkscape:label="Blur"
       id="filter5421"
       x="-0.12256455"
       y="-0.12342654"
       width="1.2451291"
       height="1.2468531">
      <feGaussianBlur
         stdDeviation="0.5 0.5"
         result="blur"
         id="feGaussianBlur5419" />
    </filter>
  </defs>
  <metadata
     id="metadata2">
    <rdf:RDF>
      <cc:Work
         rdf:about="">
        <dc:format>image/svg+xml</dc:format>
        <dc:type
           rdf:resource="http://purl.org/dc/dcmitype/StillImage" />
      </cc:Work>
    </rdf:RDF>
  </metadata>
  <rect
     style="opacity:0.3;fill:none;fill-opacity:0.996424;stroke:#000000;stroke-width:0.955221;stroke-dasharray:none;stroke-opacity:1;filter:url(#filter5421)"
     id="rect1-2-7"
     width="13.687567"
     height="13.591975"
     x="1.6227165"
     y="1.6705122"
     rx="2.8442214"
     ry="2.965905" />
  <rect
     style="fill:none;fill-opacity:1;stroke:{{colors.primary.default.hex}};stroke-width:0.955221;stroke-dasharray:none;stroke-opacity:1"
     id="rect1-2"
     width="13.687567"
     height="13.591975"
     x="1.6227167"
     y="1.6705124"
     rx="2.8442214"
     ry="2.965905" />
  <path
     id="path17-3"
     style="fill:{{colors.primary.default.hex}};fill-opacity:1;stroke:none;stroke-width:0.124763;stroke-dasharray:none;stroke-opacity:0.6"
     d="m 8.2120421,5.1654903 c -2.9239994,0 -3.057501,0.00134 -3.1473442,0.031507 C 4.88137,5.2585665 4.7849581,5.3173817 4.6546982,5.4469506 4.5072466,5.5936194 4.430006,5.7310743 4.3910982,5.916052 c -0.037126,0.1765046 -0.037684,4.461232 -6.042e-4,4.636228 0.079919,0.37716 0.39821,0.679842 0.7824711,0.744041 0.048348,0.0081 0.9907327,0.01566 2.094149,0.01676 l 2.0062471,0.002 -0.073049,-0.140711 C 9.0817279,10.945798 9.0081857,10.689529 8.979964,10.406665 L 8.968436,10.291476 H 7.6555482 6.3425658 l -0.041843,-0.04185 -0.041843,-0.04185 V 9.7494262 9.2909607 l 0.043951,-0.04134 0.04405,-0.04134 1.3121795,-0.00452 1.3120791,-0.00462 V 8.9521104 8.705067 H 8.7501851 C 8.5124752,8.705067 8.4571817,8.691435 8.4271822,8.625598 8.4005132,8.567069 8.4013052,7.7946701 8.428049,7.74439 8.467142,7.670994 8.490376,7.665584 8.7693146,7.665018 L 9.0365301,7.6644928 9.0742584,7.549299 c 0.020719,-0.06333 0.063576,-0.171881 0.095225,-0.2412232 0.031649,-0.069341 0.057496,-0.1283968 0.057496,-0.1312483 0,-0.00284 -0.1657114,-0.00747 -0.3682571,-0.010333 L 8.4904718,7.1612803 8.4493312,7.1134171 C 8.4082294,7.0655919 8.4081937,7.0652295 8.4081937,6.6392963 V 6.2129366 l 0.041843,-0.041843 0.041944,-0.041845 h 0.4430122 0.4430122 l 0.035422,0.044953 c 0.032915,0.041845 0.03532,0.066987 0.03532,0.3650458 V 6.8594437 L 9.5611295,6.742946 C 9.6229608,6.678902 9.7342182,6.5817766 9.8083727,6.5271089 9.9427715,6.4280309 9.9432323,6.4275345 9.9433339,6.3493023 c 1.786e-4,-0.098333 0.028414,-0.1816556 0.069027,-0.2033944 0.0187,-0.010009 0.278294,-0.016658 0.648012,-0.016658 0.55527,0 0.633936,0.00344 0.788893,0.03502 0.17319,0.035294 0.433197,0.1259982 0.537938,0.1876408 0.03103,0.01826 0.05976,0.033213 0.06392,0.033213 0.01799,0 0.0048,-0.3599077 -0.01696,-0.4625783 -0.07168,-0.3382077 -0.317376,-0.6020509 -0.6749,-0.7248563 -0.09062,-0.031127 -0.197964,-0.03221 -3.1472444,-0.03221 z M 5.9075753,6.1292808 h 0.4305694 l 0.041441,0.04395 c 0.04084,0.043438 0.041409,0.048763 0.046759,0.4246499 0.00616,0.4329284 -0.00487,0.5063932 -0.08198,0.5462644 -0.068021,0.035175 -0.8224668,0.036801 -0.885423,0.00187 -0.080278,-0.044488 -0.08585,-0.077203 -0.086495,-0.5016069 -6.304e-4,-0.414672 0.00905,-0.4785995 0.076863,-0.5046225 0.015188,-0.00583 0.2214223,-0.010536 0.4582645,-0.010536 z m 1.5317294,0 c 0.4041284,0 0.4393214,0.00242 0.4766265,0.032611 l 0.040237,0.032612 v 0.4445174 c 0,0.4397665 -3.679e-4,0.4450131 -0.038832,0.4834508 C 7.8792742,7.160567 7.8704182,7.161333 7.4652932,7.164615 7.2380191,7.166485 7.0405687,7.163575 7.0264956,7.158195 7.0124196,7.152795 6.9835856,7.132748 6.9624766,7.113542 6.9245776,7.079063 6.9241456,7.07309 6.9241456,6.6410288 c 0,-0.4353341 1.604e-4,-0.4378199 0.039434,-0.4747205 0.038411,-0.036087 0.051277,-0.037027 0.4757251,-0.037027 z M 11.033674,6.6581862 C 10.643885,6.6579236 10.303853,6.8088666 10.00988,7.1125374 9.7701864,7.3601355 9.623417,7.645174 9.5395743,8.0262566 9.5113205,8.154682 9.5084678,8.263996 9.5084678,9.2082922 c 0,1.1575818 -3.677e-4,1.1524178 0.1199089,1.4890828 0.2004798,0.560918 0.6751193,0.976386 1.2112363,1.060319 0.128708,0.02015 0.376014,0.0081 0.518068,-0.02538 0.149057,-0.03509 0.373759,-0.143164 0.514155,-0.247244 0.353278,-0.261895 0.601128,-0.693159 0.673198,-1.1713 0.01993,-0.132221 0.02519,-0.36366 0.025,-1.105472 -2.22e-4,-0.5296732 -0.0076,-0.9901988 -0.01716,-1.0576121 C 12.483744,7.6645441 12.257584,7.2468977 11.914482,6.9717583 11.650776,6.7602882 11.364593,6.6584089 11.033675,6.6581882 Z m -0.01404,0.9567659 c 0.01471,-7.354e-4 0.02955,-5.779e-4 0.04445,5.778e-4 0.03968,0.00308 0.07966,0.012984 0.117802,0.030304 0.156608,0.071123 0.181639,0.1657475 0.174396,0.6594506 -0.0064,0.4257582 -0.01736,0.469953 -0.137669,0.5495762 -0.04827,0.031938 -0.09413,0.045817 -0.163561,0.049468 -0.110098,0.00579 -0.161381,-0.011218 -0.230284,-0.076561 -0.09433,-0.089466 -0.09663,-0.1025651 -0.09663,-0.5681395 0,-0.4273165 2.89e-4,-0.4305212 0.04244,-0.5024143 0.05054,-0.08626 0.146155,-0.1371043 0.249048,-0.1422869 z m -5.1189773,0.04957 c 0.4241409,0 0.4245978,3.26e-5 0.4724129,0.041141 l 0.047862,0.041141 0.00572,0.3624376 c 0.00673,0.4207024 -0.00136,0.4991461 -0.057496,0.5552957 -0.040473,0.040472 -0.040843,0.040538 -0.4667933,0.040538 -0.4260341,0 -0.4262849,3.9e-6 -0.4741187,-0.041141 L 5.3803729,8.6226923 V 8.1847981 7.7468027 l 0.047863,-0.041141 c 0.047822,-0.041136 0.048204,-0.041141 0.4724126,-0.041141 z m 1.10718,0 H 7.442113 7.8763965 l 0.044149,0.052478 0.04415,0.05248 v 0.4179263 0.4179274 l -0.049869,0.04987 -0.049871,0.049871 H 7.4363921 7.0078294 L 6.9659871,8.6632307 6.9241438,8.6212874 V 8.1847975 7.7482068 l 0.041844,-0.041844 z" />
</svg>
