<?xml version="1.0" encoding="UTF-8" standalone="no"?>
<svg
   width="64"
   height="64"
   version="1.1"
   viewBox="0 0 16.933 16.933"
   id="svg7"
   sodipodi:docname="abcd.svg"
   inkscape:version="1.4.3 (0d15f75042, 2025-12-25)"
   xmlns:inkscape="http://www.inkscape.org/namespaces/inkscape"
   xmlns:sodipodi="http://sodipodi.sourceforge.net/DTD/sodipodi-0.dtd"
   xmlns="http://www.w3.org/2000/svg"
   xmlns:svg="http://www.w3.org/2000/svg"
   xmlns:rdf="http://www.w3.org/1999/02/22-rdf-syntax-ns#"
   xmlns:cc="http://creativecommons.org/ns#"
   xmlns:dc="http://purl.org/dc/elements/1.1/">
  <sodipodi:namedview
     id="namedview7"
     pagecolor="#9c4444"
     bordercolor="#000000"
     borderopacity="0.25"
     inkscape:showpageshadow="2"
     inkscape:pageopacity="0.0"
     inkscape:pagecheckerboard="0"
     inkscape:deskcolor="#d1d1d1"
     inkscape:zoom="4.3531261"
     inkscape:cx="39.971275"
     inkscape:cy="24.809757"
     inkscape:window-width="1226"
     inkscape:window-height="669"
     inkscape:window-x="146"
     inkscape:window-y="136"
     inkscape:window-maximized="0"
     inkscape:current-layer="svg7"
     showgrid="false" />
  <defs
     id="defs2">
    <filter
       style="color-interpolation-filters:sRGB;"
       inkscape:label="Blur"
       id="filter5421"
       x="-0.12256455"
       y="-0.12342654"
       width="1.2451291"
       height="1.2468531">
      <feGaussianBlur
         stdDeviation="0.5 0.5"
         result="blur"
         id="feGaussianBlur5419" />
    </filter>
  </defs>
  <metadata
     id="metadata2">
    <rdf:RDF>
      <cc:Work
         rdf:about="">
        <dc:format>image/svg+xml</dc:format>
        <dc:type
           rdf:resource="http://purl.org/dc/dcmitype/StillImage" />
      </cc:Work>
    </rdf:RDF>
  </metadata>
  <rect
     style="opacity:0.3;fill:none;fill-opacity:0.996424;stroke:#000000;stroke-width:0.955221;stroke-dasharray:none;stroke-opacity:1;filter:url(#filter5421)"
     id="rect1-2-7"
     width="13.687567"
     height="13.591975"
     x="1.6227165"
     y="1.6705122"
     rx="2.8442214"
     ry="2.965905" />
  <rect
     style="fill:none;fill-opacity:1;stroke:{{colors.primary.default.hex}};stroke-width:0.955221;stroke-dasharray:none;stroke-opacity:1"
     id="rect1-2"
     width="13.687567"
     height="13.591975"
     x="1.6227167"
     y="1.6705124"
     rx="2.8442214"
     ry="2.965905" />
  <path
     d="m 10.65339,11.073772 c -0.370399,0 -0.6815456,-0.106761 -0.9331759,-0.32054 C 9.4732822,10.539448 9.349816,10.257015 9.349816,9.9054126 c 0,-0.3797944 0.1472196,-0.6765827 0.4416594,-0.8903636 0.2944406,-0.2184799 0.6577906,-0.3278508 1.0897896,-0.3278508 0.384754,0 0.700596,0.07126 0.947527,0.2137813 V 8.801267 c 0,-0.256329 -0.08797,-0.4607135 -0.263635,-0.6126316 -0.17567,-0.1566161 -0.391803,-0.2351857 -0.64813,-0.2351857 -0.19003,0 -0.363352,0.045158 -0.519967,0.1354734 -0.15218,0.090315 -0.256592,0.2137815 -0.313497,0.3703981 L 9.4850283,8.2029924 C 9.5659474,7.9939094 9.7249127,7.8015318 9.9624479,7.6258609 10.199722,7.4454905 10.513217,7.3551753 10.902671,7.3551753 c 0.446355,0 0.817013,0.1305138 1.111451,0.3918022 0.29444,0.2612884 0.441661,0.6293369 0.441661,1.1041457 v 2.1085798 h -0.626991 v -0.484468 h -0.02844 c -0.261287,0.399111 -0.643429,0.598537 -1.146952,0.598537 z M 9.0650352,10.959703 H 8.3383351 L 7.8468198,9.5778233 H 5.7024802 L 5.2039179,10.959703 H 4.4772173 L 6.4007282,5.8592276 h 0.7407961 z m 1.6951128,-0.484468 c 0.270686,0 0.515268,-0.09971 0.733747,-0.299138 0.22318,-0.2041225 0.334897,-0.4440058 0.334897,-0.7193901 -0.185328,-0.1519175 -0.46306,-0.227877 -0.833457,-0.227877 -0.318193,0 -0.558078,0.06865 -0.719393,0.2064725 -0.161576,0.1378223 -0.242234,0.2991372 -0.242234,0.4844663 0,0.1709743 0.07362,0.3061853 0.220831,0.4058993 0.147219,0.09972 0.315842,0.149567 0.505609,0.149567 z M 6.7854828,6.6642359 H 6.7570303 L 5.9235698,8.9651922 h 1.695373 z"
     fill="#ffffff"
     fill-opacity="0.85"
     fill-rule="nonzero"
     id="path3-3"
     style="fill:{{colors.primary.default.hex}};fill-opacity:1;stroke:none;stroke-width:0.124763;stroke-dasharray:none;stroke-opacity:0.6" />
</svg>
