<?xml version="1.0" encoding="UTF-8" standalone="no"?>
<svg
   width="64"
   height="64"
   version="1.1"
   viewBox="0 0 16.933 16.933"
   id="svg7"
   sodipodi:docname="accessories-text-editor.svg"
   inkscape:version="1.4.3 (0d15f75042, 2025-12-25)"
   xmlns:inkscape="http://www.inkscape.org/namespaces/inkscape"
   xmlns:sodipodi="http://sodipodi.sourceforge.net/DTD/sodipodi-0.dtd"
   xmlns="http://www.w3.org/2000/svg"
   xmlns:svg="http://www.w3.org/2000/svg"
   xmlns:rdf="http://www.w3.org/1999/02/22-rdf-syntax-ns#"
   xmlns:cc="http://creativecommons.org/ns#"
   xmlns:dc="http://purl.org/dc/elements/1.1/">
  <sodipodi:namedview
     id="namedview7"
     pagecolor="#9c4444"
     bordercolor="#000000"
     borderopacity="0.25"
     inkscape:showpageshadow="2"
     inkscape:pageopacity="0.0"
     inkscape:pagecheckerboard="0"
     inkscape:deskcolor="#d1d1d1"
     inkscape:zoom="4.3531261"
     inkscape:cx="36.984915"
     inkscape:cy="29.863596"
     inkscape:window-width="1226"
     inkscape:window-height="669"
     inkscape:window-x="0"
     inkscape:window-y="133"
     inkscape:window-maximized="0"
     inkscape:current-layer="svg7"
     showgrid="false" />
  <defs
     id="defs2">
    <filter
       style="color-interpolation-filters:sRGB;"
       inkscape:label="Blur"
       id="filter5421"
       x="-0.12256455"
       y="-0.12342654"
       width="1.2451291"
       height="1.2468531">
      <feGaussianBlur
         stdDeviation="0.5 0.5"
         result="blur"
         id="feGaussianBlur5419" />
    </filter>
  </defs>
  <metadata
     id="metadata2">
    <rdf:RDF>
      <cc:Work
         rdf:about="">
        <dc:format>image/svg+xml</dc:format>
        <dc:type
           rdf:resource="http://purl.org/dc/dcmitype/StillImage" />
      </cc:Work>
    </rdf:RDF>
  </metadata>
  <rect
     style="opacity:0.3;fill:none;fill-opacity:0.996424;stroke:#000000;stroke-width:0.955221;stroke-dasharray:none;stroke-opacity:1;filter:url(#filter5421)"
     id="rect1-2-7"
     width="13.687567"
     height="13.591975"
     x="1.6227165"
     y="1.6705122"
     rx="2.8442214"
     ry="2.965905" />
  <rect
     style="fill:none;fill-opacity:1;stroke:{{colors.primary.default.hex}};stroke-width:0.955221;stroke-dasharray:none;stroke-opacity:1"
     id="rect1-2"
     width="13.687567"
     height="13.591975"
     x="1.6227167"
     y="1.6705124"
     rx="2.8442214"
     ry="2.965905" />
  <path
     id="path6"
     style="fill:{{colors.primary.default.hex}};fill-opacity:1;stroke:none;stroke-width:0.137896;stroke-dasharray:none;stroke-opacity:0.6"
     d="m 8.4664988,5.1591431 c -1.8620878,0 -3.7241332,0.00643 -3.7674164,0.019406 -0.085153,0.025515 -0.1848863,0.1194265 -0.2278162,0.2144313 l -0.036563,0.08067 V 8.4669761 11.4603 l 0.039975,0.08526 c 0.043204,0.09213 0.1308346,0.176729 0.2141622,0.206885 0.073336,0.02654 7.4567026,0.02943 7.5450736,0.0029 0.08515,-0.02552 0.184883,-0.119426 0.227814,-0.214429 l 0.03656,-0.08067 V 8.4669804 5.4736553 l -0.03656,-0.080673 C 12.4188,5.2979774 12.319066,5.2040635 12.233915,5.1785512 12.190637,5.1655836 10.328584,5.1591458 8.4664988,5.1591458 Z m 0,0.3523258 c 1.6958572,0 3.3917212,0.00515 3.4273072,0.01536 0.08507,0.024395 0.162223,0.0881 0.209131,0.1727489 l 0.04412,0.07959 v 2.5045453 c 0,2.4124899 -10e-4,2.5065099 -0.02848,2.5579969 -0.04912,0.09245 -0.13281,0.167139 -0.21461,0.191431 -0.10945,0.0325 -6.775228,0.03199 -6.8794995,-6.3e-4 -0.077699,-0.02423 -0.1584005,-0.09623 -0.2054492,-0.183258 l -0.033053,-0.06109 V 8.2835905 5.7790463 l 0.044107,-0.079591 C 4.8769753,5.6148053 4.9541273,5.5511043 5.0391981,5.526706 5.0747841,5.516504 6.7706493,5.511343 8.4665066,5.511343 Z m 1.6547222,0.6129304 c -0.2390279,-4.37e-5 -0.521919,4.99e-4 -0.8529634,0.00126 l -1.8554994,0.00477 -0.061266,0.032787 C 7.2699134,6.2069096 7.2083154,6.269771 7.1741614,6.3442259 7.1495137,6.3979503 7.1461573,6.4489605 7.14586,6.7676111 l -6.303e-4,0.3623856 1.1949615,0.00413 1.1950458,0.00424 0.073216,0.036292 c 0.096692,0.048021 0.1936372,0.1442954 0.240304,0.238599 l 0.037726,0.076357 0.00433,0.8742527 0.00433,0.8743475 0.659999,-6.304e-4 c 0.606196,-6.304e-4 0.665037,-0.00257 0.721451,-0.028206 0.07574,-0.034408 0.146267,-0.1032787 0.184517,-0.1802972 0.02777,-0.055906 0.029,-0.112322 0.029,-1.3488409 V 6.38996 L 11.44706,6.316748 c -0.05418,-0.092166 -0.142781,-0.15693 -0.244524,-0.1788582 -0.04231,-0.00911 -0.364497,-0.013424 -1.081588,-0.013558 z M 7.5654736,7.4209596 c -1.8586491,0 -1.8790247,6.304e-4 -1.9291632,0.0309 -0.030604,0.018659 -0.06246,0.057604 -0.080491,0.09837 -0.028943,0.065424 -0.029731,0.1053957 -0.025693,1.3091342 0.00406,1.2037362 0.00508,1.2430712 0.034047,1.2858722 0.016437,0.02427 0.050799,0.0569 0.076358,0.07248 0.044601,0.02719 0.1224901,0.02833 1.9369775,0.02839 h 1.8904457 l 0.064323,-0.05992 0.064316,-0.06001 0.00395,-1.2724832 c 0.00388,-1.2485293 0.00334,-1.2734017 -0.026586,-1.3222364 -0.016755,-0.027384 -0.052921,-0.063445 -0.080297,-0.080136 -0.048953,-0.029849 -0.08068,-0.030364 -1.9281753,-0.030364 z" />
</svg>
