<?xml version="1.0" encoding="UTF-8" standalone="no"?>
<svg
   width="64"
   height="64"
   version="1.1"
   viewBox="0 0 16.933 16.933"
   id="svg7"
   sodipodi:docname="abcd.svg"
   inkscape:version="1.4.3 (0d15f75042, 2025-12-25)"
   xmlns:inkscape="http://www.inkscape.org/namespaces/inkscape"
   xmlns:sodipodi="http://sodipodi.sourceforge.net/DTD/sodipodi-0.dtd"
   xmlns="http://www.w3.org/2000/svg"
   xmlns:svg="http://www.w3.org/2000/svg"
   xmlns:rdf="http://www.w3.org/1999/02/22-rdf-syntax-ns#"
   xmlns:cc="http://creativecommons.org/ns#"
   xmlns:dc="http://purl.org/dc/elements/1.1/">
  <sodipodi:namedview
     id="namedview7"
     pagecolor="#9c4444"
     bordercolor="#000000"
     borderopacity="0.25"
     inkscape:showpageshadow="2"
     inkscape:pageopacity="0.0"
     inkscape:pagecheckerboard="0"
     inkscape:deskcolor="#d1d1d1"
     inkscape:zoom="4.3531261"
     inkscape:cx="35.836315"
     inkscape:cy="31.471636"
     inkscape:window-width="1226"
     inkscape:window-height="669"
     inkscape:window-x="0"
     inkscape:window-y="133"
     inkscape:window-maximized="0"
     inkscape:current-layer="svg7"
     showgrid="false" />
  <defs
     id="defs2">
    <filter
       style="color-interpolation-filters:sRGB;"
       inkscape:label="Blur"
       id="filter5421"
       x="-0.12256455"
       y="-0.12342654"
       width="1.2451291"
       height="1.2468531">
      <feGaussianBlur
         stdDeviation="0.5 0.5"
         result="blur"
         id="feGaussianBlur5419" />
    </filter>
    <clipPath
       id="clip0_2648_607">
      <rect
         width="16"
         height="16"
         fill="#ffffff"
         id="rect1"
         x="0"
         y="0" />
    </clipPath>
  </defs>
  <metadata
     id="metadata2">
    <rdf:RDF>
      <cc:Work
         rdf:about="">
        <dc:format>image/svg+xml</dc:format>
        <dc:type
           rdf:resource="http://purl.org/dc/dcmitype/StillImage" />
      </cc:Work>
    </rdf:RDF>
  </metadata>
  <rect
     style="opacity:0.3;fill:none;fill-opacity:0.996424;stroke:#000000;stroke-width:0.955221;stroke-dasharray:none;stroke-opacity:1;filter:url(#filter5421)"
     id="rect1-2-7"
     width="13.687567"
     height="13.591975"
     x="1.6227165"
     y="1.6705122"
     rx="2.8442214"
     ry="2.965905" />
  <rect
     style="fill:none;fill-opacity:1;stroke:{{colors.primary.default.hex}};stroke-width:0.955221;stroke-dasharray:none;stroke-opacity:1"
     id="rect1-2"
     width="13.687567"
     height="13.591975"
     x="1.6227167"
     y="1.6705124"
     rx="2.8442214"
     ry="2.965905" />
  <g
     clip-path="url(#clip0_2648_607)"
     id="g2"
     transform="matrix(0.51380667,0,0,0.51380667,4.3570743,4.6150052)"
     style="fill:{{colors.primary.default.hex}};fill-opacity:1;stroke:none;stroke-width:0.267104;stroke-dasharray:none;stroke-opacity:0.6">
    <path
       d="M 4.5,2.996 C 3.30653,2.996 2.16193,3.47011 1.31802,4.31402 0.474106,5.15794 0,6.30253 0,7.496 0,8.68948 0.474106,9.83407 1.31802,10.678 2.16193,11.5219 3.30653,11.996 4.5,11.996 5.42944,11.9946 6.33566,11.7055 7.09415,11.1683 7.85264,10.6311 8.42619,9.87229 8.736,8.996 l 2.256,-0.004 v 1 c -3e-4,0.3978 0.1575,0.7795 0.4386,1.061 0.2812,0.2814 0.6626,0.4397 1.0604,0.44 0.3978,3e-4 0.7795,-0.1575 1.061,-0.4386 0.2814,-0.2811 0.4397,-0.6626 0.44,-1.0604 h 0.004 V 8.99 h 1 l 1,-2 v -1 L 8.736,5.996 C 8.42619,5.11971 7.85264,4.36086 7.09415,3.82368 6.33566,3.28651 5.42944,2.99737 4.5,2.996 Z m 0,3 c 0.39782,0 0.77936,0.15804 1.06066,0.43934 C 5.84196,6.71665 6,7.09818 6,7.496 6,7.89383 5.84196,8.27536 5.56066,8.55666 5.27936,8.83797 4.89782,8.996 4.5,8.996 4.10218,8.996 3.72064,8.83797 3.43934,8.55666 3.15804,8.27536 3,7.89383 3,7.496 3,7.09818 3.15804,6.71665 3.43934,6.43534 3.72064,6.15404 4.10218,5.996 4.5,5.996 Z"
       fill="#232323"
       id="path1"
       style="fill:{{colors.primary.default.hex}};fill-opacity:1;stroke:none;stroke-width:0.267104;stroke-dasharray:none;stroke-opacity:0.6" />
  </g>
</svg>
