<?xml version="1.0" encoding="UTF-8" standalone="no"?>
<svg
   width="64"
   height="64"
   version="1.1"
   viewBox="0 0 16.933 16.933"
   id="svg7"
   sodipodi:docname="accessories-text-editor.svg"
   inkscape:version="1.4.3 (0d15f75042, 2025-12-25)"
   xmlns:inkscape="http://www.inkscape.org/namespaces/inkscape"
   xmlns:sodipodi="http://sodipodi.sourceforge.net/DTD/sodipodi-0.dtd"
   xmlns="http://www.w3.org/2000/svg"
   xmlns:svg="http://www.w3.org/2000/svg"
   xmlns:rdf="http://www.w3.org/1999/02/22-rdf-syntax-ns#"
   xmlns:cc="http://creativecommons.org/ns#"
   xmlns:dc="http://purl.org/dc/elements/1.1/">
  <sodipodi:namedview
     id="namedview7"
     pagecolor="#9c4444"
     bordercolor="#000000"
     borderopacity="0.25"
     inkscape:showpageshadow="2"
     inkscape:pageopacity="0.0"
     inkscape:pagecheckerboard="0"
     inkscape:deskcolor="#d1d1d1"
     inkscape:zoom="4.3531261"
     inkscape:cx="36.984915"
     inkscape:cy="29.863596"
     inkscape:window-width="1226"
     inkscape:window-height="669"
     inkscape:window-x="0"
     inkscape:window-y="133"
     inkscape:window-maximized="0"
     inkscape:current-layer="svg7"
     showgrid="false" />
  <defs
     id="defs2">
    <filter
       style="color-interpolation-filters:sRGB;"
       inkscape:label="Blur"
       id="filter5421"
       x="-0.12256455"
       y="-0.12342654"
       width="1.2451291"
       height="1.2468531">
      <feGaussianBlur
         stdDeviation="0.5 0.5"
         result="blur"
         id="feGaussianBlur5419" />
    </filter>
  </defs>
  <metadata
     id="metadata2">
    <rdf:RDF>
      <cc:Work
         rdf:about="">
        <dc:format>image/svg+xml</dc:format>
        <dc:type
           rdf:resource="http://purl.org/dc/dcmitype/StillImage" />
      </cc:Work>
    </rdf:RDF>
  </metadata>
  <rect
     style="opacity:0.3;fill:none;fill-opacity:0.996424;stroke:#000000;stroke-width:0.955221;stroke-dasharray:none;stroke-opacity:1;filter:url(#filter5421)"
     id="rect1-2-7"
     width="13.687567"
     height="13.591975"
     x="1.6227165"
     y="1.6705122"
     rx="2.8442214"
     ry="2.965905" />
  <rect
     style="fill:none;fill-opacity:1;stroke:{{colors.primary.default.hex}};stroke-width:0.955221;stroke-dasharray:none;stroke-opacity:1"
     id="rect1-2"
     width="13.687567"
     height="13.591975"
     x="1.6227167"
     y="1.6705124"
     rx="2.8442214"
     ry="2.965905" />
  <path
     style="fill:{{colors.primary.default.hex}};fill-opacity:1;stroke:none;stroke-width:0.245732;stroke-dasharray:none;stroke-dashoffset:2.2;stroke-opacity:0.3"
     d="M 4.6553529,11.851869 C 4.446288,11.724396 4.4580738,11.939041 4.4671311,8.4238573 c 0.00806,-3.1299447 0.00916,-3.1808828 0.070288,-3.2494239 0.1426524,-0.159971 -0.00449,-0.1542043 3.9347181,-0.1542043 3.4977878,0 3.6778548,0.0027 3.7785948,0.056732 0.05818,0.031201 0.131311,0.1043337 0.162513,0.1625132 0.05388,0.100454 0.05672,0.2637738 0.05662,3.2420328 -1.14e-4,3.0558149 -0.0018,3.1388009 -0.06073,3.2356479 -0.127288,0.20876 0.139433,0.195563 -3.9504696,0.195438 -3.618833,-1.16e-4 -3.7062026,-0.0014 -3.8033151,-0.06073 z M 11.81189,6.8442172 c 0.313857,-0.2077193 0.36303,-0.69895 0.09443,-0.9432729 -0.193782,-0.1762662 0.0036,-0.16663 -3.4145581,-0.16663 -3.139412,0 -3.1431856,7.64e-5 -3.2790684,0.065856 C 4.975625,5.9149326 4.8519047,6.196264 4.9077035,6.4936951 4.934199,6.63492 5.0905251,6.8141489 5.2512441,6.8875627 c 0.1183722,0.054071 0.2785806,0.056488 3.2780232,0.049461 l 3.1535707,-0.0074 z"
     id="path15" />
</svg>
