<?xml version="1.0" encoding="UTF-8" standalone="no"?>
<svg
   width="64"
   height="64"
   version="1.1"
   viewBox="0 0 16.933 16.933"
   id="svg7"
   sodipodi:docname="abcd.svg"
   inkscape:version="1.4.3 (0d15f75042, 2025-12-25)"
   xmlns:inkscape="http://www.inkscape.org/namespaces/inkscape"
   xmlns:sodipodi="http://sodipodi.sourceforge.net/DTD/sodipodi-0.dtd"
   xmlns="http://www.w3.org/2000/svg"
   xmlns:svg="http://www.w3.org/2000/svg"
   xmlns:rdf="http://www.w3.org/1999/02/22-rdf-syntax-ns#"
   xmlns:cc="http://creativecommons.org/ns#"
   xmlns:dc="http://purl.org/dc/elements/1.1/">
  <sodipodi:namedview
     id="namedview7"
     pagecolor="#9c4444"
     bordercolor="#000000"
     borderopacity="0.25"
     inkscape:showpageshadow="2"
     inkscape:pageopacity="0.0"
     inkscape:pagecheckerboard="0"
     inkscape:deskcolor="#d1d1d1"
     inkscape:zoom="4.3531261"
     inkscape:cx="37.674075"
     inkscape:cy="26.188077"
     inkscape:window-width="1226"
     inkscape:window-height="669"
     inkscape:window-x="146"
     inkscape:window-y="136"
     inkscape:window-maximized="0"
     inkscape:current-layer="svg7"
     showgrid="false" />
  <defs
     id="defs2">
    <filter
       style="color-interpolation-filters:sRGB;"
       inkscape:label="Blur"
       id="filter5421"
       x="-0.12256455"
       y="-0.12342654"
       width="1.2451291"
       height="1.2468531">
      <feGaussianBlur
         stdDeviation="0.5 0.5"
         result="blur"
         id="feGaussianBlur5419" />
    </filter>
  </defs>
  <metadata
     id="metadata2">
    <rdf:RDF>
      <cc:Work
         rdf:about="">
        <dc:format>image/svg+xml</dc:format>
        <dc:type
           rdf:resource="http://purl.org/dc/dcmitype/StillImage" />
      </cc:Work>
    </rdf:RDF>
  </metadata>
  <rect
     style="opacity:0.3;fill:none;fill-opacity:0.996424;stroke:#000000;stroke-width:0.955221;stroke-dasharray:none;stroke-opacity:1;filter:url(#filter5421)"
     id="rect1-2-7"
     width="13.687567"
     height="13.591975"
     x="1.6227165"
     y="1.6705122"
     rx="2.8442214"
     ry="2.965905" />
  <rect
     style="fill:none;fill-opacity:1;stroke:{{colors.primary.default.hex}};stroke-width:0.955221;stroke-dasharray:none;stroke-opacity:1"
     id="rect1-2"
     width="13.687567"
     height="13.591975"
     x="1.6227167"
     y="1.6705124"
     rx="2.8442214"
     ry="2.965905" />
  <path
     id="path7250"
     style="fill:{{colors.primary.default.hex}};fill-opacity:1;stroke:none;stroke-width:0.118197;stroke-dasharray:none;stroke-opacity:0.6"
     d="M 8.5414136,5.7410443 C 7.6818292,5.7305693 6.8195991,5.9177505 6.0412873,6.2956499 5.4732184,6.5714678 4.946373,6.9465217 4.513713,7.3831702 L 4.3972202,7.5007027 4.8500246,7.9114418 5.3027599,8.3221821 5.4408049,8.1934234 C 5.5167066,8.122606 5.6049059,8.0422633 5.6368537,8.0149068 6.9605752,6.881443 8.8455903,6.6492639 10.407378,7.4273141 c 0.403215,0.2008739 0.726224,0.42843 1.078928,0.7599412 L 11.630865,8.323083 12.083323,7.9122044 12.535779,7.5012571 12.407162,7.371667 C 11.764382,6.724064 10.965415,6.2471843 10.067048,5.9748612 9.5719582,5.8247844 9.0571644,5.7473289 8.5414136,5.7410443 Z M 8.4660843,7.1662622 C 8.268553,7.1662746 8.0710647,7.1736437 7.9622752,7.188231 7.0342436,7.3127095 6.2387961,7.6945035 5.5639506,8.3393689 5.5032048,8.3974148 5.4550343,8.4492938 5.4568821,8.4546837 c 0.00184,0.0054 0.2058537,0.1934074 0.4533586,0.4178082 L 6.3602044,9.2804592 6.44974,9.193765 C 6.8819147,8.7753255 7.4779093,8.4934494 8.1021918,8.4121335 c 0.1836411,-0.023907 0.5449957,-0.023896 0.7280632,8.09e-5 0.6244114,0.081746 1.1513059,0.325747 1.626326,0.7531493 l 0.121414,0.109216 0.02612,-0.023424 C 10.731998,9.1368724 11.42084,8.5134239 11.448118,8.4872645 l 0.03521,-0.033749 -0.04706,-0.049063 C 11.25243,8.2127635 10.92516,7.9512422 10.665865,7.7887902 10.48069,7.6727759 10.139184,7.5032791 9.9401599,7.4285705 9.6445099,7.3175904 9.3005485,7.2323506 8.9701712,7.1881694 8.8611552,7.1735892 8.6636168,7.1662582 8.4660845,7.1662714 Z m -0.026056,1.4130904 c -0.046691,4.992e-4 -0.093445,0.00213 -0.140194,0.00506 -0.6467,0.04048 -1.2358056,0.2965968 -1.722376,0.7486436 l -0.080458,0.074705 0.4539825,0.4115711 c 0.2496747,0.2263687 0.4557178,0.4118077 0.4578635,0.4120577 0.00213,2.6e-4 0.034114,-0.02557 0.071101,-0.05746 0.5558745,-0.4789562 1.3920935,-0.4863357 1.951896,-0.01719 l 0.090853,0.07615 0.050864,-0.04497 C 9.6015387,10.163193 9.8071761,9.9774968 10.030522,9.7753187 L 10.436621,9.4077565 10.343759,9.320785 C 9.8287637,8.8387229 9.1403736,8.572207 8.4400288,8.5793548 Z m -0.010811,1.419883 c -0.075989,0.00171 -0.1511634,0.00994 -0.2238386,0.025298 -0.2309547,0.04885 -0.4624766,0.164116 -0.6125395,0.305059 l -0.037353,0.03513 0.4558536,0.41379 0.455854,0.413856 0.2692986,-0.244836 c 0.1481045,-0.134637 0.3530862,-0.320069 0.455508,-0.412055 l 0.1862078,-0.167216 -0.055786,-0.05233 C 9.1027685,10.109887 8.7584985,9.99216 8.4292162,9.9992385 Z" />
</svg>
