<?xml version="1.0" encoding="UTF-8" standalone="no"?>
<svg
   width="64"
   height="64"
   version="1.1"
   viewBox="0 0 16.933 16.933"
   id="svg7"
   sodipodi:docname="abcd.svg"
   inkscape:version="1.4.3 (0d15f75042, 2025-12-25)"
   xmlns:inkscape="http://www.inkscape.org/namespaces/inkscape"
   xmlns:sodipodi="http://sodipodi.sourceforge.net/DTD/sodipodi-0.dtd"
   xmlns="http://www.w3.org/2000/svg"
   xmlns:svg="http://www.w3.org/2000/svg"
   xmlns:rdf="http://www.w3.org/1999/02/22-rdf-syntax-ns#"
   xmlns:cc="http://creativecommons.org/ns#"
   xmlns:dc="http://purl.org/dc/elements/1.1/">
  <sodipodi:namedview
     id="namedview7"
     pagecolor="#9c4444"
     bordercolor="#000000"
     borderopacity="0.25"
     inkscape:showpageshadow="2"
     inkscape:pageopacity="0.0"
     inkscape:pagecheckerboard="0"
     inkscape:deskcolor="#d1d1d1"
     inkscape:zoom="4.3531261"
     inkscape:cx="36.984915"
     inkscape:cy="29.633876"
     inkscape:window-width="1226"
     inkscape:window-height="669"
     inkscape:window-x="0"
     inkscape:window-y="133"
     inkscape:window-maximized="0"
     inkscape:current-layer="svg7"
     showgrid="false" />
  <defs
     id="defs2">
    <filter
       style="color-interpolation-filters:sRGB;"
       inkscape:label="Blur"
       id="filter5421"
       x="-0.12256455"
       y="-0.12342654"
       width="1.2451291"
       height="1.2468531">
      <feGaussianBlur
         stdDeviation="0.5 0.5"
         result="blur"
         id="feGaussianBlur5419" />
    </filter>
  </defs>
  <metadata
     id="metadata2">
    <rdf:RDF>
      <cc:Work
         rdf:about="">
        <dc:format>image/svg+xml</dc:format>
        <dc:type
           rdf:resource="http://purl.org/dc/dcmitype/StillImage" />
      </cc:Work>
    </rdf:RDF>
  </metadata>
  <rect
     style="opacity:0.3;fill:none;fill-opacity:0.996424;stroke:#000000;stroke-width:0.955221;stroke-dasharray:none;stroke-opacity:1;filter:url(#filter5421)"
     id="rect1-2-7"
     width="13.687567"
     height="13.591975"
     x="1.6227165"
     y="1.6705122"
     rx="2.8442214"
     ry="2.965905" />
  <rect
     style="fill:none;fill-opacity:1;stroke:{{colors.primary.default.hex}};stroke-width:0.955221;stroke-dasharray:none;stroke-opacity:1"
     id="rect1-2"
     width="13.687567"
     height="13.591975"
     x="1.6227167"
     y="1.6705124"
     rx="2.8442214"
     ry="2.965905" />
  <path
     style="fill:{{colors.primary.default.hex}};fill-opacity:1;stroke:none;stroke-width:0.13133;stroke-dasharray:none;stroke-dashoffset:2.2;stroke-opacity:0.6"
     d="m 5.2289108,11.988303 c -0.091249,-0.03837 -0.1202628,-0.08926 -0.1202628,-0.210976 0,-0.08331 0.209445,-1.094139 0.2545141,-1.228342 0.023887,-0.07112 0.010291,-0.09227 -0.1732568,-0.26947 C 4.274979,9.3962276 4.0033838,8.2146463 4.4685502,7.1412394 4.880122,6.1915047 5.881264,5.4111271 7.1026969,5.087958 7.604769,4.9551182 7.8733497,4.9215254 8.4460751,4.9199339 c 0.8814599,-0.00244 1.5253493,0.1386303 2.2438879,0.4916533 1.305298,0.6413029 2.054555,1.735981 1.994422,2.913887 -0.0743,1.4555536 -1.3415,2.6880078 -3.1569973,3.0704558 -0.2732273,0.05754 -0.4552504,0.07534 -0.896689,0.08752 C 8.0237693,11.50022 7.6481454,11.46358 7.1679108,11.3407 L 6.9122781,11.2753 6.177099,11.636934 c -0.4043505,0.198897 -0.7643525,0.367208 -0.8000057,0.374024 -0.035658,0.0068 -0.1023343,-0.0033 -0.1481825,-0.02266 z M 10.918481,9.8605609 c 0.100206,-0.1002073 0.100246,-0.3435084 6.7e-5,-0.4516014 l -0.06965,-0.075157 H 8.5067634 6.1646319 l -0.073539,0.087391 c -0.052107,0.061924 -0.073538,0.1202733 -0.073538,0.2002364 0,0.1200842 0.060387,0.2658106 0.1201178,0.2898405 0.019854,0.00794 1.0879735,0.015541 2.3735926,0.016768 l 2.3374897,0.00228 z m -0.0133,-1.4618927 c 0.07028,-0.070285 0.08302,-0.1054879 0.08302,-0.2294135 0,-0.123926 -0.01273,-0.1591281 -0.08302,-0.2294142 l -0.08302,-0.083026 H 8.5028823 6.1836156 l -0.083025,0.083026 c -0.070286,0.070286 -0.083024,0.1054882 -0.083024,0.2294142 0,0.1239256 0.012739,0.1591273 0.083024,0.2294135 l 0.083025,0.083025 h 2.3192667 2.3192657 z m 0.01339,-1.4691193 c 0.10017,-0.1080926 0.100139,-0.3513935 -6.8e-5,-0.4516014 l -0.06971,-0.069719 H 8.5207061 c -1.2804358,0 -2.3487572,0.00793 -2.3740454,0.017643 -0.1379664,0.052943 -0.1719049,0.3531674 -0.055556,0.491442 l 0.073537,0.08739 h 2.3421313 2.342131 z"
     id="path52-7" />
</svg>
