<?xml version="1.0" encoding="UTF-8" standalone="no"?>
<svg
   width="64"
   height="64"
   version="1.1"
   viewBox="0 0 16.933 16.933"
   id="svg7"
   sodipodi:docname="abcd.svg"
   inkscape:version="1.4.3 (0d15f75042, 2025-12-25)"
   xmlns:inkscape="http://www.inkscape.org/namespaces/inkscape"
   xmlns:sodipodi="http://sodipodi.sourceforge.net/DTD/sodipodi-0.dtd"
   xmlns="http://www.w3.org/2000/svg"
   xmlns:svg="http://www.w3.org/2000/svg"
   xmlns:rdf="http://www.w3.org/1999/02/22-rdf-syntax-ns#"
   xmlns:cc="http://creativecommons.org/ns#"
   xmlns:dc="http://purl.org/dc/elements/1.1/">
  <sodipodi:namedview
     id="namedview7"
     pagecolor="#9c4444"
     bordercolor="#000000"
     borderopacity="0.25"
     inkscape:showpageshadow="2"
     inkscape:pageopacity="0.0"
     inkscape:pagecheckerboard="0"
     inkscape:deskcolor="#d1d1d1"
     inkscape:zoom="4.3531261"
     inkscape:cx="39.971275"
     inkscape:cy="24.809757"
     inkscape:window-width="1226"
     inkscape:window-height="669"
     inkscape:window-x="146"
     inkscape:window-y="136"
     inkscape:window-maximized="0"
     inkscape:current-layer="svg7"
     showgrid="false" />
  <defs
     id="defs2">
    <filter
       style="color-interpolation-filters:sRGB;"
       inkscape:label="Blur"
       id="filter5421"
       x="-0.12256455"
       y="-0.12342654"
       width="1.2451291"
       height="1.2468531">
      <feGaussianBlur
         stdDeviation="0.5 0.5"
         result="blur"
         id="feGaussianBlur5419" />
    </filter>
  </defs>
  <metadata
     id="metadata2">
    <rdf:RDF>
      <cc:Work
         rdf:about="">
        <dc:format>image/svg+xml</dc:format>
        <dc:type
           rdf:resource="http://purl.org/dc/dcmitype/StillImage" />
      </cc:Work>
    </rdf:RDF>
  </metadata>
  <rect
     style="opacity:0.3;fill:none;fill-opacity:0.996424;stroke:#000000;stroke-width:0.955221;stroke-dasharray:none;stroke-opacity:1;filter:url(#filter5421)"
     id="rect1-2-7"
     width="13.687567"
     height="13.591975"
     x="1.6227165"
     y="1.6705122"
     rx="2.8442214"
     ry="2.965905" />
  <rect
     style="fill:none;fill-opacity:1;stroke:{{colors.primary.default.hex}};stroke-width:0.955221;stroke-dasharray:none;stroke-opacity:1"
     id="rect1-2"
     width="13.687567"
     height="13.591975"
     x="1.6227167"
     y="1.6705124"
     rx="2.8442214"
     ry="2.965905" />
  <path
     id="path7"
     style="fill:{{colors.primary.default.hex}};fill-opacity:1;stroke:none;stroke-width:0.0175354;stroke-dasharray:none;stroke-opacity:1"
     d="M 8.4666222,4.4752338 C 8.3508388,4.47541 8.3155785,4.4812434 8.2546403,4.5102807 8.1956185,4.5384022 7.834416,4.8922121 6.3743603,6.3504095 5.1436284,7.5795753 4.5550998,8.1767011 4.5304886,8.2221823 4.3883092,8.4849286 4.5014444,8.8067879 4.7816009,8.93673 4.8497019,8.968316 4.8853346,8.975135 4.9813341,8.974839 5.2046863,8.9741561 5.0944851,9.069923 6.5962102,7.5709243 7.3317064,6.8367635 7.9383954,6.236082 7.9443221,6.236082 c 0.00591,0 0.010887,0.6689823 0.010887,1.4865983 v 1.486598 L 8.0828072,9.3372163 8.2104048,9.4654944 8.4608366,9.215403 C 8.6777007,8.9988044 8.714994,8.9674334 8.7388293,8.9806233 c 0.015132,0.00838 0.07338,0.062331 0.1296394,0.1197716 l 0.1024186,0.1044595 0.00374,-1.4845562 c 0.00205,-0.8164288 0.0084,-1.4842166 0.014294,-1.4842166 0.00589,0 0.6126149,0.6006814 1.3481117,1.3348422 1.501725,1.4989987 1.391524,1.4032354 1.614875,1.403915 0.096,2.626e-4 0.131632,-0.00654 0.199734,-0.038109 0.27528,-0.1276794 0.38936,-0.4404832 0.257581,-0.7057009 C 12.389996,8.1923313 11.762676,7.554139 10.57454,6.3650405 9.0689991,4.8582837 8.7552087,4.5509143 8.6871139,4.5164054 8.6143478,4.479529 8.5903141,4.4750457 8.4666247,4.4752338 Z M 8.7221577,9.2752884 8.4737678,9.5240189 C 8.33729,9.6606741 8.2210233,9.7706974 8.21517,9.7686665 8.2093179,9.7666177 8.0937743,9.6550227 7.9586134,9.5206167 L 7.7129452,9.2763093 7.4506047,9.5389904 7.1882633,9.8016721 l 0.098335,0.098334 0.098676,0.098336 0.1571993,-0.1568597 c 0.086561,-0.086295 0.1624597,-0.156861 0.1687696,-0.156861 0.00632,0 0.1209245,0.1086335 0.2545154,0.2412462 0.133591,0.1326114 0.2467259,0.2409034 0.2514524,0.2409034 0.00473,0 0.1169812,-0.108292 0.2494107,-0.2409034 0.1324295,-0.1326127 0.2474939,-0.2412462 0.2555355,-0.2412462 0.00804,0 0.1248811,0.1100847 0.2596186,0.2446462 L 9.226764,10.173916 9.485702,9.9146379 9.7449813,9.6553594 9.6466448,9.5570243 9.5479692,9.458349 9.3873674,9.6189521 9.2264235,9.7792144 8.9742905,9.5274217 Z m 6.83e-4,0.7159083 -0.2521323,0.2521343 -0.2524732,0.251793 -0.1313415,-0.131002 -0.1316804,-0.131001 6.83e-4,0.905775 c 5.514e-4,0.81665 0.00301,0.91254 0.025523,0.974506 0.053288,0.146687 0.1727727,0.266309 0.3215459,0.322227 0.050538,0.01899 0.099469,0.02478 0.1854421,0.02109 0.1967096,-0.0084 0.3491333,-0.107808 0.4413175,-0.287859 l 0.041172,-0.08029 0.00408,-0.920064 0.00408,-0.919723 -0.128278,-0.128619 z" />
</svg>
