<?xml version="1.0" encoding="UTF-8" standalone="no"?>
<svg
   width="64"
   height="64"
   version="1.1"
   viewBox="0 0 16.933 16.933"
   id="svg7"
   sodipodi:docname="abcd.svg"
   inkscape:version="1.4.3 (0d15f75042, 2025-12-25)"
   xmlns:inkscape="http://www.inkscape.org/namespaces/inkscape"
   xmlns:sodipodi="http://sodipodi.sourceforge.net/DTD/sodipodi-0.dtd"
   xmlns="http://www.w3.org/2000/svg"
   xmlns:svg="http://www.w3.org/2000/svg"
   xmlns:rdf="http://www.w3.org/1999/02/22-rdf-syntax-ns#"
   xmlns:cc="http://creativecommons.org/ns#"
   xmlns:dc="http://purl.org/dc/elements/1.1/">
  <sodipodi:namedview
     id="namedview7"
     pagecolor="#9c4444"
     bordercolor="#000000"
     borderopacity="0.25"
     inkscape:showpageshadow="2"
     inkscape:pageopacity="0.0"
     inkscape:pagecheckerboard="0"
     inkscape:deskcolor="#d1d1d1"
     inkscape:zoom="4.3531261"
     inkscape:cx="40.200995"
     inkscape:cy="23.431437"
     inkscape:window-width="1226"
     inkscape:window-height="669"
     inkscape:window-x="474"
     inkscape:window-y="225"
     inkscape:window-maximized="0"
     inkscape:current-layer="svg7"
     showgrid="false" />
  <defs
     id="defs2">
    <filter
       style="color-interpolation-filters:sRGB;"
       inkscape:label="Blur"
       id="filter5421"
       x="-0.12256455"
       y="-0.12342654"
       width="1.2451291"
       height="1.2468531">
      <feGaussianBlur
         stdDeviation="0.5 0.5"
         result="blur"
         id="feGaussianBlur5419" />
    </filter>
  </defs>
  <metadata
     id="metadata2">
    <rdf:RDF>
      <cc:Work
         rdf:about="">
        <dc:format>image/svg+xml</dc:format>
        <dc:type
           rdf:resource="http://purl.org/dc/dcmitype/StillImage" />
      </cc:Work>
    </rdf:RDF>
  </metadata>
  <rect
     style="opacity:0.3;fill:none;fill-opacity:0.996424;stroke:#000000;stroke-width:0.955221;stroke-dasharray:none;stroke-opacity:1;filter:url(#filter5421)"
     id="rect1-2-7"
     width="13.687567"
     height="13.591975"
     x="1.6227165"
     y="1.6705122"
     rx="2.8442214"
     ry="2.965905" />
  <rect
     style="fill:none;fill-opacity:1;stroke:{{colors.primary.default.hex}};stroke-width:0.955221;stroke-dasharray:none;stroke-opacity:1"
     id="rect1-2"
     width="13.687567"
     height="13.591975"
     x="1.6227167"
     y="1.6705124"
     rx="2.8442214"
     ry="2.965905" />
  <path
     id="path6-3"
     style="fill:{{colors.primary.default.hex}};fill-opacity:1;stroke:none;stroke-width:0.0116357"
     d="m 5.1935069,4.860197 c -0.1018851,0 -0.2315243,0.033368 -0.3464365,0.089274 C 4.7557864,4.993881 4.7202149,5.01966 4.6428946,5.0974914 4.4520499,5.2895977 4.3782681,5.5330063 4.4390068,5.7704936 c 0.021943,0.085794 0.07118,0.1982346 0.09244,0.2113746 0.00582,0.00359 1.2508053,0.1452507 2.7665953,0.3147591 1.5157905,0.1695085 2.7846749,0.3141484 2.8198719,0.3213822 0.0953,0.019585 0.179911,0.063981 0.253996,0.1330454 0.06401,0.05967 0.06731,0.061019 0.101076,0.046652 0.07221,-0.030717 1.862694,-0.835387 1.887114,-0.8480924 0.02524,-0.01313 0.02494,-0.013758 -0.02332,-0.071706 C 12.229618,5.7492185 12.112976,5.6687486 11.965575,5.6221842 11.861125,5.5891875 12.132751,5.6207289 8.6693901,5.238023 7.2486885,5.0810224 5.8980482,4.9317035 5.6680925,4.9062733 5.4381376,4.8808433 5.2246026,4.860197 5.1935069,4.860197 Z m 7.2676781,1.2339819 c -0.0055,-0.00496 -0.224878,0.087508 -0.487258,0.2056153 -0.262383,0.118106 -0.697094,0.3137502 -0.965876,0.4345575 -0.39985,0.1797178 -0.488041,0.2232769 -0.484952,0.2401726 0.0022,0.011356 0.0068,0.069254 0.01038,0.1284377 0.0071,0.1187258 -0.0051,0.1851988 -0.04951,0.2735784 -0.04498,0.089634 -2.2292848,3.4600966 -2.3997132,3.7028086 -0.08538,0.121592 -0.1720152,0.235906 -0.1923683,0.253997 -0.062153,0.05524 -0.1464686,0.0918 -0.2260617,0.09821 l -0.072859,0.0057 0.030815,0.05384 c 0.1119984,0.194992 0.1467753,0.246651 0.2194387,0.324838 0.1235738,0.132972 0.2443527,0.202236 0.4190068,0.24075 0.1607043,0.03544 0.3430971,0.01173 0.5062633,-0.06624 0.1975148,-0.09438 0.094518,0.04949 1.9778244,-2.7703377 0.926503,-1.3872189 1.695988,-2.5488373 1.710011,-2.5814266 0.03374,-0.078445 0.05833,-0.1971456 0.05846,-0.2833689 1.12e-4,-0.0715 -0.03545,-0.2449904 -0.05356,-0.2611782 z m -7.8122432,0.071706 c -0.01273,0.00236 0.378656,0.7089191 1.3845939,2.4996408 0.7713105,1.3730493 1.415016,2.5138623 1.430382,2.5350633 0.015366,0.02121 0.049506,0.04826 0.075738,0.06018 0.055359,0.02514 0.092583,0.02739 0.1477318,0.009 0.072227,-0.02418 0.1101538,-0.065 0.2617712,-0.279913 0.2009774,-0.284883 2.3866843,-3.6637419 2.4097923,-3.7252723 0.01,-0.026575 0.01876,-0.08516 0.0193,-0.1304535 8.76e-4,-0.070816 -0.0045,-0.093495 -0.03742,-0.1606912 C 10.296421,6.8831868 10.221414,6.8160059 10.132893,6.7870451 10.079556,6.7695993 4.6872221,6.158816 4.6489418,6.1658849 Z" />
</svg>
