<?xml version="1.0" encoding="UTF-8" standalone="no"?>
<svg
   width="64"
   height="64"
   version="1.1"
   viewBox="0 0 16.933 16.933"
   id="svg7"
   sodipodi:docname="abcd.svg"
   inkscape:version="1.4.3 (0d15f75042, 2025-12-25)"
   xmlns:inkscape="http://www.inkscape.org/namespaces/inkscape"
   xmlns:sodipodi="http://sodipodi.sourceforge.net/DTD/sodipodi-0.dtd"
   xmlns="http://www.w3.org/2000/svg"
   xmlns:svg="http://www.w3.org/2000/svg"
   xmlns:rdf="http://www.w3.org/1999/02/22-rdf-syntax-ns#"
   xmlns:cc="http://creativecommons.org/ns#"
   xmlns:dc="http://purl.org/dc/elements/1.1/">
  <sodipodi:namedview
     id="namedview7"
     pagecolor="#9c4444"
     bordercolor="#000000"
     borderopacity="0.25"
     inkscape:showpageshadow="2"
     inkscape:pageopacity="0.0"
     inkscape:pagecheckerboard="0"
     inkscape:deskcolor="#d1d1d1"
     inkscape:zoom="6.15625"
     inkscape:cx="35.573604"
     inkscape:cy="31.025381"
     inkscape:window-width="1226"
     inkscape:window-height="669"
     inkscape:window-x="0"
     inkscape:window-y="133"
     inkscape:window-maximized="0"
     inkscape:current-layer="svg7"
     showgrid="false" />
  <defs
     id="defs2">
    <filter
       style="color-interpolation-filters:sRGB;"
       inkscape:label="Blur"
       id="filter5421"
       x="-0.12256455"
       y="-0.12342654"
       width="1.2451291"
       height="1.2468531">
      <feGaussianBlur
         stdDeviation="0.5 0.5"
         result="blur"
         id="feGaussianBlur5419" />
    </filter>
  </defs>
  <metadata
     id="metadata2">
    <rdf:RDF>
      <cc:Work
         rdf:about="">
        <dc:format>image/svg+xml</dc:format>
        <dc:type
           rdf:resource="http://purl.org/dc/dcmitype/StillImage" />
      </cc:Work>
    </rdf:RDF>
  </metadata>
  <rect
     style="opacity:0.3;fill:none;fill-opacity:0.996424;stroke:#000000;stroke-width:0.955221;stroke-dasharray:none;stroke-opacity:1;filter:url(#filter5421)"
     id="rect1-2-7"
     width="13.687567"
     height="13.591975"
     x="1.6227165"
     y="1.6705122"
     rx="2.8442214"
     ry="2.965905" />
  <rect
     style="fill:none;fill-opacity:1;stroke:{{colors.primary.default.hex}};stroke-width:0.955221;stroke-dasharray:none;stroke-opacity:1"
     id="rect1-2"
     width="13.687567"
     height="13.591975"
     x="1.6227167"
     y="1.6705124"
     rx="2.8442214"
     ry="2.965905" />
  <path
     id="path13"
     style="fill:{{colors.primary.default.hex}};fill-opacity:1;stroke:none;stroke-width:0.137896;stroke-dasharray:none;stroke-opacity:0.6"
     d="m 5.0849952,4.4942091 -3.94e-4,0.216536 -3.939e-4,0.2169256 -0.049372,0.03421 c -0.027196,0.018803 -0.062385,0.054207 -0.078142,0.078529 l -0.028753,0.044318 H 4.7109896 4.4944532 V 5.2798813 5.4746476 H 4.6892193 4.8839855 V 5.6818554 5.88945 H 4.7175983 C 4.4730453,5.8897126 4.4944532,5.8710532 4.4944532,6.0857717 v 0.1807712 h 0.1947661 0.1947662 v 0.2075948 0.2072062 l -0.1663872,3.94e-4 C 4.4725921,6.6820006 4.4944532,6.6618703 4.4944532,6.8838902 v 0.18738 H 4.6892193 4.8839855 V 7.2722474 7.4732339 H 4.6892193 4.4944532 V 7.6683884 7.8631548 H 4.6892193 4.8839855 V 8.0703694 8.2779646 H 4.6892193 4.4944532 v 0.188546 0.1885459 H 4.6892193 4.8839855 V 8.862652 9.0698581 H 4.6892193 4.4944532 v 0.1947668 0.1951539 h 0.1947661 0.1947662 v 0.200985 0.2009871 H 4.6892193 4.4944532 v 0.1951541 0.194766 h 0.1947661 0.1947662 v 0.207207 0.207596 H 4.6969945 4.5100032 l -0.00776,0.03926 c -0.00431,0.0216 -0.00776,0.106439 -0.00776,0.188547 v 0.149281 h 0.194764 0.1947659 v 0.207596 0.207206 H 4.6892187 4.4944526 v 0.194766 0.195156 l 0.2165359,3.94e-4 0.2169261,3.94e-4 0.03421,0.04937 c 0.018803,0.02719 0.054207,0.06237 0.078529,0.07814 l 0.044317,0.02878 v 0.216927 0.216536 H 5.280126 5.4748924 v -0.194814 -0.194766 h 0.2072064 0.207595 v 0.194766 0.194767 H 6.0782403 6.2667862 V 12.244011 12.049244 H 6.474381 6.681588 v 0.194767 0.194765 h 0.194766 0.1951549 v -0.19477 -0.194767 H 7.272495 7.4734815 v 0.194767 0.194764 H 7.6686358 7.863402 v -0.194764 -0.194767 h 0.2072069 0.2075948 v 0.194767 0.194764 h 0.1885461 0.1885459 v -0.194764 -0.194767 h 0.2075949 0.2072069 v 0.194767 0.194764 h 0.1947663 0.1951548 v -0.194763 -0.194766 h 0.2009865 0.2009855 v 0.194766 0.194767 h 0.1951564 0.194764 v -0.194767 -0.194766 h 0.207207 0.207595 v 0.194766 0.194767 h 0.188548 0.188544 v -0.194767 -0.194766 h 0.207596 0.207206 v 0.194766 0.194767 h 0.194767 0.195155 V 12.222235 12.00531 l 0.04433,-0.02878 c 0.02432,-0.01576 0.05973,-0.05095 0.07852,-0.07814 l 0.0342,-0.04938 0.216925,-3.94e-4 0.216537,-3.94e-4 V 11.653111 11.458342 H 12.24428 12.049513 v -0.207199 -0.207596 h 0.194767 0.194764 V 10.855005 10.66646 h -0.194763 -0.194766 v -0.20758 -0.207206 h 0.194766 0.194763 V 10.056903 9.8617482 h -0.19476 -0.194766 V 9.6607607 9.4597763 h 0.194766 0.194765 V 9.264622 9.0698555 H 12.244284 12.049518 V 8.8626487 8.6550539 h 0.194766 0.194765 V 8.4665077 8.277962 H 12.244284 12.049518 V 8.0703669 7.8631606 h 0.194766 0.194765 V 7.6683939 7.4732391 H 12.244284 12.049518 V 7.2722526 7.0712662 h 0.194766 0.194765 V 6.8761115 6.681345 H 12.244284 12.049518 V 6.4741389 6.266544 h 0.194766 0.194765 V 6.0779977 5.8894518 H 12.244284 12.049518 V 5.6818566 5.4746498 h 0.194766 0.194765 V 5.2798827 5.0847274 h -0.216536 -0.216926 l -0.02877,-0.044319 c -0.01575,-0.02432 -0.05095,-0.059722 -0.07814,-0.078529 l -0.04937,-0.03421 -3.94e-4,-0.2169253 -3.94e-4,-0.2165366 H 11.653418 11.458653 V 4.6889748 4.883741 H 11.251439 11.043842 V 4.6889751 4.4942091 h -0.188544 -0.188546 v 0.194766 0.1947662 H 10.45914 10.251936 V 4.6889751 4.4942091 H 10.057171 9.8620159 v 0.194766 0.1947662 H 9.6610293 9.4600433 V 4.6889751 4.4942091 H 9.2648883 9.0701221 v 0.194766 0.1947662 H 8.8629155 8.6553202 V 4.6889751 4.4942091 H 8.4667745 8.278228 v 0.194766 0.1947662 H 8.0706334 7.8634268 V 4.6889751 4.4942091 H 7.6686603 7.473506 v 0.194766 0.1947662 H 7.2725193 7.071533 V 4.6889751 4.4942091 H 6.876378 6.6816117 v 0.194766 0.1947662 H 6.4744054 6.2668103 V 4.6889751 4.4942091 H 6.0782642 5.889718 v 0.194766 0.1947662 H 5.6821227 5.4749165 V 4.6889751 4.4942091 H 5.2801502 Z m 3.3817793,1.1814262 c 0.1244357,0 0.2490299,0.02822 0.3630971,0.08436 0.1274148,0.06271 0.2792727,0.211749 0.343659,0.3370502 0.096773,0.1883271 0.09026,0.1020382 0.097578,1.3027173 l 0.0066,1.0768517 0.1061301,0.076197 C 9.8161841,8.861827 10.063593,9.339042 10.063393,9.8644692 10.063052,10.659804 9.4597347,11.343088 8.6677653,11.445535 7.9185396,11.542452 7.1943917,11.085827 6.9533516,10.364796 6.8503366,10.056648 6.8433554,9.736562 6.9331373,9.4092368 6.9694652,9.2767908 7.0939894,9.0288595 7.1834956,8.9100762 7.2773672,8.7854985 7.4552997,8.6148782 7.5726391,8.5368719 l 0.088636,-0.059091 0.00388,-1.0772406 c 0.00431,-1.2024879 -0.00223,-1.1145154 0.094867,-1.303495 0.064387,-0.1253009 0.2162442,-0.2743407 0.343659,-0.3370497 0.1140683,-0.05614 0.2386622,-0.08436 0.3630982,-0.084359 z m 0,0.4148015 c -0.082659,0 -0.107539,0.00578 -0.1737737,0.038873 -0.089608,0.044778 -0.1559171,0.1182028 -0.1916559,0.212261 -0.023243,0.061198 -0.024102,0.1090317 -0.024102,1.2296318 V 8.737468 L 7.9921069,8.773622 C 7.7207772,8.8892122 7.4831146,9.1320039 7.3697104,9.4092368 7.0891115,10.095205 7.4934516,10.861178 8.2218609,11.023348 c 0.1299216,0.02894 0.4325547,0.01993 0.5582522,-0.01672 C 9.3419427,10.842857 9.7010266,10.322402 9.6474256,9.7493958 9.608199,9.3300603 9.3520449,8.9662439 8.9729354,8.790728 L 8.8566973,8.7366916 V 7.570815 C 8.8565043,6.4508225 8.8554891,6.4027555 8.8322069,6.3415723 8.7964679,6.2475145 8.7301583,6.174089 8.6405508,6.1293116 8.5743158,6.0962145 8.5494333,6.0904362 8.4667771,6.0904362 Z" />
</svg>
