<?xml version="1.0" encoding="UTF-8" standalone="no"?>
<svg
   width="64"
   height="64"
   version="1.1"
   viewBox="0 0 16.933 16.933"
   id="svg7"
   sodipodi:docname="abcd.svg"
   inkscape:version="1.4.3 (0d15f75042, 2025-12-25)"
   xmlns:inkscape="http://www.inkscape.org/namespaces/inkscape"
   xmlns:sodipodi="http://sodipodi.sourceforge.net/DTD/sodipodi-0.dtd"
   xmlns="http://www.w3.org/2000/svg"
   xmlns:svg="http://www.w3.org/2000/svg"
   xmlns:rdf="http://www.w3.org/1999/02/22-rdf-syntax-ns#"
   xmlns:cc="http://creativecommons.org/ns#"
   xmlns:dc="http://purl.org/dc/elements/1.1/">
  <sodipodi:namedview
     id="namedview7"
     pagecolor="#9c4444"
     bordercolor="#000000"
     borderopacity="0.25"
     inkscape:showpageshadow="2"
     inkscape:pageopacity="0.0"
     inkscape:pagecheckerboard="0"
     inkscape:deskcolor="#d1d1d1"
     inkscape:zoom="4.3531261"
     inkscape:cx="40.890155"
     inkscape:cy="25.039477"
     inkscape:window-width="1226"
     inkscape:window-height="669"
     inkscape:window-x="100"
     inkscape:window-y="206"
     inkscape:window-maximized="0"
     inkscape:current-layer="svg7"
     showgrid="false" />
  <defs
     id="defs2">
    <filter
       style="color-interpolation-filters:sRGB;"
       inkscape:label="Blur"
       id="filter5421"
       x="-0.12256455"
       y="-0.12342654"
       width="1.2451291"
       height="1.2468531">
      <feGaussianBlur
         stdDeviation="0.5 0.5"
         result="blur"
         id="feGaussianBlur5419" />
    </filter>
  </defs>
  <metadata
     id="metadata2">
    <rdf:RDF>
      <cc:Work
         rdf:about="">
        <dc:format>image/svg+xml</dc:format>
        <dc:type
           rdf:resource="http://purl.org/dc/dcmitype/StillImage" />
      </cc:Work>
    </rdf:RDF>
  </metadata>
  <rect
     style="opacity:0.3;fill:none;fill-opacity:0.996424;stroke:#000000;stroke-width:0.955221;stroke-dasharray:none;stroke-opacity:1;filter:url(#filter5421)"
     id="rect1-2-7"
     width="13.687567"
     height="13.591975"
     x="1.6227165"
     y="1.6705122"
     rx="2.8442214"
     ry="2.965905" />
  <rect
     style="fill:none;fill-opacity:1;stroke:{{colors.primary.default.hex}};stroke-width:0.955221;stroke-dasharray:none;stroke-opacity:1"
     id="rect1-2"
     width="13.687567"
     height="13.591975"
     x="1.6227167"
     y="1.6705124"
     rx="2.8442214"
     ry="2.965905" />
  <path
     d="m 8.070852,8.3403124 q 0,0.6116145 -0.1686071,1.0744578 Q 7.7369439,9.8743077 7.4195655,10.185074 7.1054936,10.492534 6.6459564,10.647917 6.1897247,10.8033 5.6045588,10.8033 H 4.33174 V 5.969894 h 1.4149777 q 0.5322699,0 0.9587466,0.1520768 0.4297836,0.1520768 0.7339376,0.4529254 0.3041541,0.297542 0.4661488,0.7405496 0.1653013,0.4430065 0.1653013,1.0248666 z m -1.0380914,0.026449 q 0,-0.4033348 -0.082651,-0.6942647 Q 6.8707657,7.3782598 6.7153825,7.1865102 6.5633054,6.9947605 6.3384955,6.9021924 6.1169924,6.8096236 5.8293684,6.8096236 H 5.3566065 v 3.1473339 h 0.376887 q 0.6479805,0 0.9719708,-0.3967228 Q 7.0327606,9.163512 7.0327606,8.3667602 Z M 11.492588,5.9698945 h 1.034783 L 11.019826,10.8033 H 9.9023899 L 8.3981484,5.9698945 H 9.4329343 L 10.252827,8.879195 q 0.01653,0.056201 0.04298,0.1884433 0.02976,0.1322406 0.0595,0.2909298 0.03307,0.1586891 0.06281,0.3173783 0.02976,0.1586893 0.04628,0.267788 0.01653,-0.1090991 0.04628,-0.267788 0.02976,-0.1586892 0.06282,-0.314072 0.03307,-0.1586891 0.06282,-0.2909303 0.03306,-0.1322408 0.04959,-0.1917491 z"
     id="text6"
     style="font-weight:bold;font-size:8.4665px;font-family:'Droid Sans';-inkscape-font-specification:'Droid Sans Bold';text-align:end;letter-spacing:0px;text-anchor:end;fill:{{colors.primary.default.hex}};fill-opacity:1;stroke:none;stroke-width:0.105793;stroke-opacity:0.6"
     aria-label="DV" />
</svg>
