<?xml version="1.0" encoding="UTF-8" standalone="no"?>
<svg
   width="64"
   height="64"
   version="1.1"
   viewBox="0 0 16.933 16.933"
   id="svg7"
   sodipodi:docname="abcd.svg"
   inkscape:version="1.4.3 (0d15f75042, 2025-12-25)"
   xmlns:inkscape="http://www.inkscape.org/namespaces/inkscape"
   xmlns:sodipodi="http://sodipodi.sourceforge.net/DTD/sodipodi-0.dtd"
   xmlns="http://www.w3.org/2000/svg"
   xmlns:svg="http://www.w3.org/2000/svg"
   xmlns:rdf="http://www.w3.org/1999/02/22-rdf-syntax-ns#"
   xmlns:cc="http://creativecommons.org/ns#"
   xmlns:dc="http://purl.org/dc/elements/1.1/">
  <sodipodi:namedview
     id="namedview7"
     pagecolor="#9c4444"
     bordercolor="#000000"
     borderopacity="0.25"
     inkscape:showpageshadow="2"
     inkscape:pageopacity="0.0"
     inkscape:pagecheckerboard="0"
     inkscape:deskcolor="#d1d1d1"
     inkscape:zoom="4.3531261"
     inkscape:cx="39.971275"
     inkscape:cy="24.809757"
     inkscape:window-width="1226"
     inkscape:window-height="669"
     inkscape:window-x="146"
     inkscape:window-y="136"
     inkscape:window-maximized="0"
     inkscape:current-layer="svg7"
     showgrid="false" />
  <defs
     id="defs2">
    <filter
       style="color-interpolation-filters:sRGB;"
       inkscape:label="Blur"
       id="filter5421"
       x="-0.12256455"
       y="-0.12342654"
       width="1.2451291"
       height="1.2468531">
      <feGaussianBlur
         stdDeviation="0.5 0.5"
         result="blur"
         id="feGaussianBlur5419" />
    </filter>
  </defs>
  <metadata
     id="metadata2">
    <rdf:RDF>
      <cc:Work
         rdf:about="">
        <dc:format>image/svg+xml</dc:format>
        <dc:type
           rdf:resource="http://purl.org/dc/dcmitype/StillImage" />
      </cc:Work>
    </rdf:RDF>
  </metadata>
  <rect
     style="opacity:0.3;fill:none;fill-opacity:0.996424;stroke:#000000;stroke-width:0.955221;stroke-dasharray:none;stroke-opacity:1;filter:url(#filter5421)"
     id="rect1-2-7"
     width="13.687567"
     height="13.591975"
     x="1.6227165"
     y="1.6705122"
     rx="2.8442214"
     ry="2.965905" />
  <rect
     style="fill:none;fill-opacity:1;stroke:{{colors.primary.default.hex}};stroke-width:0.955221;stroke-dasharray:none;stroke-opacity:1"
     id="rect1-2"
     width="13.687567"
     height="13.591975"
     x="1.6227167"
     y="1.6705124"
     rx="2.8442214"
     ry="2.965905" />
  <path
     style="fill:{{colors.primary.default.hex}};fill-opacity:1;stroke:none;stroke-width:0.123146;stroke-dasharray:none;stroke-opacity:0.6"
     d="m 8.5753987,12.424265 c -0.5414293,-0.145557 -1.0048576,-0.414417 -1.422978,-0.82555 -1.281905,-1.260482 -1.281905,-3.2258472 0,-4.4863293 C 7.8062897,6.4694437 8.5646255,6.172222 9.4615372,6.207352 9.9237563,6.2254571 9.9437814,6.2214966 9.8596955,6.1286483 9.8109999,6.0748768 9.6026473,5.9465792 9.3966907,5.8435433 7.6218769,4.9556403 5.5849114,6.1908341 5.568555,8.1648832 c -0.00412,0.4968816 0.1127397,0.9759151 0.3274368,1.3422671 0.076093,0.1298439 0.122155,0.2360801 0.1023589,0.2360801 -0.086643,0 -0.7152992,-0.4691264 -0.9700869,-0.723914 C 4.7370945,8.7281466 4.5399759,8.4017971 4.4703218,8.0955885 L 4.4293783,7.9155934 h 0.2433908 c 0.3028586,0 0.4649224,-0.1417991 0.4649224,-0.4067882 0,-0.234839 -0.135327,-0.3596319 -0.4478427,-0.4129829 L 4.4480238,7.05454 4.5677297,6.9348336 C 4.6843174,6.8182467 5.0091408,6.6981006 5.2094372,6.6974788 5.2641282,6.6973086 5.3724352,6.6336096 5.4501193,6.5559248 5.6984112,6.3076329 5.5168344,5.9695071 4.9992338,5.7163032 L 4.7223195,5.5808398 4.9992338,5.611112 C 5.9507673,5.7151324 6.1315104,5.7173459 6.1667893,5.6254086 6.1866568,5.5736326 6.1296841,5.4085755 6.0325123,5.2363967 5.9396788,5.0719043 5.8789767,4.9220678 5.8976188,4.9034256 5.9580217,4.8430208 6.2994756,4.8675194 6.4865338,4.9456768 6.5867675,4.9875576 6.7614873,5.1032235 6.8747994,5.2027127 7.0502954,5.3568 7.0996872,5.3750071 7.2081448,5.3255903 7.3578094,5.2573974 7.519995,4.9418654 7.5604636,4.6401505 7.576226,4.5226246 7.6060019,4.4264678 7.6266292,4.4264678 c 0.091141,0 0.2431314,0.1642384 0.4612726,0.498446 0.2029947,0.3110006 0.2603129,0.3624171 0.4212006,0.3778334 0.260137,0.024926 0.488648,-0.084065 0.5722526,-0.2729408 0.1239766,-0.2800815 0.2100544,-0.1631403 0.2100544,0.2853688 0,0.2106905 0.023666,0.2831023 0.1071251,0.3277681 0.1959617,0.1048754 0.4575221,0.060815 0.8103705,-0.1365089 0.360938,-0.2018467 0.670024,-0.2799337 0.422897,-0.1068397 -0.152813,0.1070347 -0.453035,0.619382 -0.453745,0.7743406 -4.99e-4,0.086384 0.06597,0.1375771 0.27644,0.2132631 0.646593,0.2325121 1.358015,0.862052 1.698319,1.5028458 0.237406,0.4470481 0.350806,0.9207641 0.350806,1.465503 0,0.8943698 -0.279331,1.5546198 -0.939647,2.2210348 -0.454657,0.458858 -0.984813,0.759808 -1.541467,0.87504 -0.4014595,0.08311 -1.0842304,0.0702 -1.4471096,-0.02736 z"
     id="path41" />
</svg>
