<?xml version="1.0" encoding="UTF-8" standalone="no"?>
<svg
   width="64"
   height="64"
   version="1.1"
   viewBox="0 0 16.933 16.933"
   id="svg7"
   sodipodi:docname="abcd.svg"
   inkscape:version="1.4.3 (0d15f75042, 2025-12-25)"
   xmlns:inkscape="http://www.inkscape.org/namespaces/inkscape"
   xmlns:sodipodi="http://sodipodi.sourceforge.net/DTD/sodipodi-0.dtd"
   xmlns="http://www.w3.org/2000/svg"
   xmlns:svg="http://www.w3.org/2000/svg"
   xmlns:rdf="http://www.w3.org/1999/02/22-rdf-syntax-ns#"
   xmlns:cc="http://creativecommons.org/ns#"
   xmlns:dc="http://purl.org/dc/elements/1.1/">
  <sodipodi:namedview
     id="namedview7"
     pagecolor="#9c4444"
     bordercolor="#000000"
     borderopacity="0.25"
     inkscape:showpageshadow="2"
     inkscape:pageopacity="0.0"
     inkscape:pagecheckerboard="0"
     inkscape:deskcolor="#d1d1d1"
     inkscape:zoom="4.3531261"
     inkscape:cx="39.282115"
     inkscape:cy="25.498917"
     inkscape:window-width="1226"
     inkscape:window-height="669"
     inkscape:window-x="50"
     inkscape:window-y="194"
     inkscape:window-maximized="0"
     inkscape:current-layer="svg7"
     showgrid="false" />
  <defs
     id="defs2">
    <filter
       style="color-interpolation-filters:sRGB;"
       inkscape:label="Blur"
       id="filter5421"
       x="-0.12256455"
       y="-0.12342654"
       width="1.2451291"
       height="1.2468531">
      <feGaussianBlur
         stdDeviation="0.5 0.5"
         result="blur"
         id="feGaussianBlur5419" />
    </filter>
  </defs>
  <metadata
     id="metadata2">
    <rdf:RDF>
      <cc:Work
         rdf:about="">
        <dc:format>image/svg+xml</dc:format>
        <dc:type
           rdf:resource="http://purl.org/dc/dcmitype/StillImage" />
      </cc:Work>
    </rdf:RDF>
  </metadata>
  <rect
     style="opacity:0.3;fill:none;fill-opacity:0.996424;stroke:#000000;stroke-width:0.955221;stroke-dasharray:none;stroke-opacity:1;filter:url(#filter5421)"
     id="rect1-2-7"
     width="13.687567"
     height="13.591975"
     x="1.6227165"
     y="1.6705122"
     rx="2.8442214"
     ry="2.965905" />
  <rect
     style="fill:none;fill-opacity:1;stroke:{{colors.primary.default.hex}};stroke-width:0.955221;stroke-dasharray:none;stroke-opacity:1"
     id="rect1-2"
     width="13.687567"
     height="13.591975"
     x="1.6227167"
     y="1.6705124"
     rx="2.8442214"
     ry="2.965905" />
  <path
     style="fill:{{colors.primary.default.hex}};fill-opacity:1;stroke:none;stroke-width:0.123796;stroke-dasharray:none;stroke-opacity:0.6"
     d="M 8.0011793,12.451439 C 6.6347309,12.294429 5.4246601,11.449093 4.8093561,10.221683 4.6579428,9.919645 4.5509176,9.6197613 4.4669316,9.2622157 4.4039439,8.9940622 4.3985345,8.9324734 4.3976923,8.4737638 4.3969189,8.0380543 4.4038632,7.9444981 4.4537585,7.7213297 4.5728729,7.1885693 4.7588575,6.7355685 5.0288807,6.3205125 6.2739842,4.4066481 8.8301037,3.8786336 10.722254,5.1444399 c 1.025498,0.6860353 1.675366,1.7720175 1.79756,3.0038658 0.04854,0.4892722 -0.01633,0.9947436 -0.197801,1.5416122 C 11.719806,11.504613 9.897431,12.669326 8.0011793,12.451439 Z M 9.0522545,11.565633 C 9.7011858,11.442611 10.240487,11.157525 10.722846,10.682522 11.544015,9.8738756 11.863408,8.7264048 11.581364,7.5981457 11.417435,6.9423735 11.051797,6.3589562 10.534607,5.9279184 9.7307511,5.257967 8.7310466,5.0240086 7.6917101,5.2626023 c -0.096785,0.02222 -0.1759723,0.047883 -0.1759723,0.057033 0,0.00915 0.072428,0.058993 0.1609534,0.1107638 0.2045772,0.1196414 0.4591178,0.39057 0.5761036,0.6131952 C 8.7131367,6.9196263 8.2839089,7.9703627 7.3282435,8.306867 7.1236599,8.3789033 6.7501894,8.3948307 6.5113887,8.3417027 6.2068932,8.2739587 5.9580153,8.1347941 5.7317416,7.9057485 5.6206119,7.7932581 5.5045163,7.6470136 5.4602929,7.5638081 5.3859396,7.423914 5.3821477,7.4207209 5.3598892,7.4792644 5.2401911,7.794094 5.203098,8.6239969 5.2904876,9.0320212 c 0.298212,1.3923628 1.3954665,2.3973388 2.8077796,2.5716448 0.2336888,0.02885 0.6991029,0.01028 0.9539873,-0.03801 z"
     id="path6" />
</svg>
