<?xml version="1.0" encoding="UTF-8" standalone="no"?>
<svg
   width="64"
   height="64"
   version="1.1"
   viewBox="0 0 16.933 16.933"
   id="svg7"
   sodipodi:docname="abcd.svg"
   inkscape:version="1.4.3 (0d15f75042, 2025-12-25)"
   xmlns:inkscape="http://www.inkscape.org/namespaces/inkscape"
   xmlns:sodipodi="http://sodipodi.sourceforge.net/DTD/sodipodi-0.dtd"
   xmlns="http://www.w3.org/2000/svg"
   xmlns:svg="http://www.w3.org/2000/svg"
   xmlns:rdf="http://www.w3.org/1999/02/22-rdf-syntax-ns#"
   xmlns:cc="http://creativecommons.org/ns#"
   xmlns:dc="http://purl.org/dc/elements/1.1/">
  <sodipodi:namedview
     id="namedview7"
     pagecolor="#9c4444"
     bordercolor="#000000"
     borderopacity="0.25"
     inkscape:showpageshadow="2"
     inkscape:pageopacity="0.0"
     inkscape:pagecheckerboard="0"
     inkscape:deskcolor="#d1d1d1"
     inkscape:zoom="4.3531261"
     inkscape:cx="32.620236"
     inkscape:cy="33.768836"
     inkscape:window-width="1226"
     inkscape:window-height="669"
     inkscape:window-x="100"
     inkscape:window-y="206"
     inkscape:window-maximized="0"
     inkscape:current-layer="svg7"
     showgrid="false" />
  <defs
     id="defs2">
    <filter
       style="color-interpolation-filters:sRGB;"
       inkscape:label="Blur"
       id="filter5421"
       x="-0.12256455"
       y="-0.12342654"
       width="1.2451291"
       height="1.2468531">
      <feGaussianBlur
         stdDeviation="0.5 0.5"
         result="blur"
         id="feGaussianBlur5419" />
    </filter>
  </defs>
  <metadata
     id="metadata2">
    <rdf:RDF>
      <cc:Work
         rdf:about="">
        <dc:format>image/svg+xml</dc:format>
        <dc:type
           rdf:resource="http://purl.org/dc/dcmitype/StillImage" />
      </cc:Work>
    </rdf:RDF>
  </metadata>
  <rect
     style="opacity:0.3;fill:none;fill-opacity:0.996424;stroke:#000000;stroke-width:0.955221;stroke-dasharray:none;stroke-opacity:1;filter:url(#filter5421)"
     id="rect1-2-7"
     width="13.687567"
     height="13.591975"
     x="1.6227165"
     y="1.6705122"
     rx="2.8442214"
     ry="2.965905" />
  <rect
     style="fill:none;fill-opacity:1;stroke:{{colors.primary.default.hex}};stroke-width:0.955221;stroke-dasharray:none;stroke-opacity:1"
     id="rect1-2"
     width="13.687567"
     height="13.591975"
     x="1.6227167"
     y="1.6705124"
     rx="2.8442214"
     ry="2.965905" />
  <path
     style="fill:{{colors.primary.default.hex}};fill-opacity:1;stroke:none;stroke-width:0.134105;stroke-dasharray:none;stroke-opacity:0.6"
     d="m 10.929805,6.1792326 c -0.01605,-0.1306478 0.08416,-0.3373933 0.07071,-0.6188604 -0.01388,-0.2819258 -0.150532,-0.6747881 -0.711448,-0.9599223 -0.0099,-0.00504 -0.01996,-0.010086 -0.03035,-0.015124 C 9.893865,4.4074603 9.3620131,4.2800206 8.7416644,4.3423653 8.2597005,4.3909571 7.7590827,4.5518612 7.287097,4.8356203 6.8623959,5.0900413 6.4710988,5.4384378 6.1535489,5.8693486 5.9670099,6.1402725 5.8043316,6.4469524 5.6880699,6.7779283 5.6377484,6.9209538 5.5961026,7.0690218 5.5648673,7.2202997 5.5245223,7.4169598 5.5024,7.6319571 5.5110756,7.8588733 5.5340666,8.2187293 5.6355793,8.6120501 5.8624624,8.9659468 5.9696134,9.1337274 6.1027936,9.2859213 6.2567971,9.4129026 6.4099318,9.539884 6.5851912,9.6425686 6.7765015,9.709956 7.0832056,9.8158495 7.3847044,9.8158495 7.6341457,9.775973 7.7664574,9.754889 7.8879248,9.722338 7.9950764,9.686124 8.1273879,9.641656 8.2488552,9.590313 8.3447269,9.5467638 8.5538237,9.4500338 8.7499064,9.3340542 8.9060782,9.2405378 9.0622505,9.1470218 9.2153855,9.0530456 9.3624475,8.9769488 c 0.08763,-0.044008 0.1917435,-0.093058 0.2945577,-0.1301902 0.027326,-0.00963 0.054657,-0.018791 0.08199,-0.026587 0.1023786,-0.029795 0.2034573,-0.043091 0.2932578,-0.033465 0.07678,0.00779 0.141855,0.034382 0.185669,0.066928 0.01866,0.012377 0.03469,0.029798 0.04814,0.048134 0.0117,0.016965 0.01953,0.033006 0.02386,0.041716 0.0047,0.011003 0.0074,0.033464 -9.5e-4,0.066013 -0.0079,0.033006 -0.02474,0.071055 -0.05076,0.1091028 -0.02689,0.038965 -0.06419,0.079305 -0.114525,0.1210215 -0.04949,0.04034 -0.108492,0.079764 -0.177036,0.1178128 C 9.7961474,9.4339901 9.646483,9.4853332 9.4360853,9.5683056 9.2452088,9.6434873 9.0174565,9.7406708 8.8040217,9.8946974 8.6920989,9.9781318 8.5801761,10.08219 8.4838695,10.208255 c -0.095871,0.126063 -0.1791635,0.27826 -0.2255816,0.456583 -0.041646,0.178324 -0.043815,0.37636 0.012148,0.566601 0.028197,0.09673 0.071578,0.188409 0.127107,0.270007 0.056395,0.08253 0.1271067,0.157237 0.2108319,0.21683 0.1487973,0.104519 0.3127778,0.143026 0.4546336,0.147153 h 0.048154 c 0.1201651,-0.0032 0.2346914,-0.02933 0.3392398,-0.06647 0.1093198,-0.0353 0.2082286,-0.08297 0.2932561,-0.125148 0.086763,-0.04356 0.1535691,-0.07884 0.223413,-0.108189 0.063764,-0.0298 0.1192987,-0.04905 0.1696217,-0.05731 0.04773,-0.0079 0.08676,-0.0041 0.11496,0.0041 0.01258,0.0037 0.02385,0.0096 0.03295,0.01558 0.0088,0.0061 0.01473,0.01146 0.01778,0.01422 0.0048,0.0022 0.0091,0.006 0.01216,0.0068 0.0033,0 0.0064,0.002 0.01084,9.5e-4 0.004,-9.5e-4 0,0.01376 -0.01563,0.03298 -0.01822,0.02245 -0.04468,0.04493 -0.08547,0.07839 -0.03947,0.03163 -0.09327,0.07336 -0.14229,0.124689 -0.05424,0.05639 -0.1071516,0.127898 -0.1396872,0.216371 -0.032544,0.0894 -0.037734,0.181074 -0.024287,0.261757 0.015623,0.09396 0.056831,0.170988 0.1045472,0.225541 0.06419,0.07427 0.138821,0.105894 0.193913,0.114602 0.01345,0.002 0.02603,0.0028 0.03773,0.0022 0.09803,-0.0037 0.137519,-0.08297 0.15487,-0.106352 -0.02429,-0.0243 -0.04903,-0.08665 -0.06852,-0.139818 -0.0021,-0.0061 -0.0044,-0.01147 -0.0061,-0.01742 -0.0079,-0.02338 -0.01473,-0.04905 -0.01301,-0.07197 9.5e-4,-0.0165 0.0048,-0.03392 0.01216,-0.04493 0.0061,-0.0096 0.01473,-0.01834 0.02256,-0.02155 0.0079,-0.0038 0.02082,-0.01468 0.04425,-0.0298 0.02906,-0.01834 0.04946,-0.02888 0.101077,-0.05821 0.04035,-0.02245 0.100204,-0.05731 0.157472,-0.104517 0.05727,-0.04721 0.123202,-0.11598 0.170054,-0.211788 0.04165,-0.08573 0.06203,-0.180617 0.06203,-0.274133 4.47e-4,-0.09352 -0.01951,-0.184285 -0.05424,-0.265422 -0.03646,-0.0816 -0.08676,-0.151279 -0.144027,-0.208581 -0.05768,-0.05777 -0.123199,-0.103602 -0.191743,-0.137982 -0.137519,-0.06831 -0.282409,-0.08756 -0.409518,-0.08252 -0.1314442,0.0051 -0.2520441,0.03621 -0.3513863,0.06923 -0.098042,0.03484 -0.1995529,0.08068 -0.2715657,0.111397 -0.082859,0.03529 -0.1466283,0.05959 -0.2069281,0.07426 -0.05683,0.01054 -0.099778,0.0096 -0.1310109,0.0022 -0.00389,-9.5e-4 -0.0078,-0.0019 -0.011712,-0.0032 -0.031668,-0.01054 -0.04902,-0.02888 -0.044249,-0.03806 0.00257,-0.0037 0.00305,-0.0082 0.00389,-0.01605 8.93e-4,-0.0073 0.00176,-0.01558 0.00521,-0.02292 0.00521,-0.01558 0.013881,-0.04264 0.031669,-0.06785 0.013015,-0.02796 0.034703,-0.05959 0.070275,-0.09535 0.036441,-0.03667 0.08416,-0.0738 0.1414222,-0.106811 0.1153936,-0.07334 0.2529116,-0.127897 0.4312082,-0.187034 0.164849,-0.05501 0.3908656,-0.122395 0.5986616,-0.213621 0.111922,-0.04676 0.228183,-0.104061 0.340974,-0.17649 0.115392,-0.0738 0.229486,-0.164572 0.333599,-0.2768826 0.108019,-0.1173547 0.201722,-0.2557978 0.2707,-0.4107417 0.07072,-0.1595312 0.116712,-0.3406055 0.12105,-0.5345153 0.0043,-0.1910946 -0.03256,-0.3717108 -0.09414,-0.53124 C 11.265959,8.2425671 11.173553,8.0940411 11.063364,7.9698098 10.829975,7.7066799 10.534547,7.5636535 10.269057,7.5017676 9.9614855,7.4297963 9.673,7.4563845 9.4513232,7.5058914 9.3897221,7.520104 9.3315909,7.5356894 9.2773651,7.5526502 9.0726062,7.6163693 8.9025529,7.7020931 8.7832545,7.768564 8.5893408,7.8744574 8.3962955,8.0032721 8.2648509,8.0880793 8.1121492,8.186639 7.9754991,8.2719042 7.8384152,8.3374578 7.7772449,8.3672558 7.7104379,8.3938433 7.6410278,8.4121801 7.5855005,8.4263953 7.5312742,8.4360191 7.477915,8.4387665 7.3759696,8.4442614 7.2900748,8.4250163 7.2319437,8.3897156 7.1981076,8.3704678 7.1634026,8.3424993 7.131734,8.3058257 7.100066,8.2686939 7.0731699,8.225603 7.05495,8.179761 7.013304,8.0779928 7.0002897,7.9546793 7.0185097,7.8377827 7.0232839,7.764895 7.0384666,7.6915489 7.0623242,7.6186602 7.0809753,7.5622757 7.1065729,7.5049734 7.1391098,7.4472132 7.21546,7.3115221 7.326081,7.1831653 7.455791,7.0726875 7.6575129,6.8760271 7.893506,6.7339178 8.1329692,6.6417765 8.3993299,6.5390912 8.6544104,6.5037938 8.878256,6.5019598 c 0.2863159,-0.00181 0.5426985,0.049968 0.7435521,0.074721 0.00561,4.728e-4 0.011281,0.00142 0.016916,0.00181 0.317549,0.037132 0.5609149,-0.041257 0.7769559,-0.1503601 0.20953,-0.1054416 0.396935,-0.2480087 0.514064,-0.2489253 z m 0,0"
     id="path11-3" />
</svg>
