<?xml version="1.0" encoding="UTF-8" standalone="no"?>
<svg
   width="64"
   height="64"
   version="1.1"
   viewBox="0 0 16.933 16.933"
   id="svg7"
   sodipodi:docname="accessories-text-editor.svg"
   inkscape:version="1.4.3 (0d15f75042, 2025-12-25)"
   xmlns:inkscape="http://www.inkscape.org/namespaces/inkscape"
   xmlns:sodipodi="http://sodipodi.sourceforge.net/DTD/sodipodi-0.dtd"
   xmlns="http://www.w3.org/2000/svg"
   xmlns:svg="http://www.w3.org/2000/svg"
   xmlns:rdf="http://www.w3.org/1999/02/22-rdf-syntax-ns#"
   xmlns:cc="http://creativecommons.org/ns#"
   xmlns:dc="http://purl.org/dc/elements/1.1/">
  <sodipodi:namedview
     id="namedview7"
     pagecolor="#9c4444"
     bordercolor="#000000"
     borderopacity="0.25"
     inkscape:showpageshadow="2"
     inkscape:pageopacity="0.0"
     inkscape:pagecheckerboard="0"
     inkscape:deskcolor="#d1d1d1"
     inkscape:zoom="6.15625"
     inkscape:cx="39.147208"
     inkscape:cy="26.477157"
     inkscape:window-width="1226"
     inkscape:window-height="669"
     inkscape:window-x="474"
     inkscape:window-y="225"
     inkscape:window-maximized="0"
     inkscape:current-layer="svg7"
     showgrid="false" />
  <defs
     id="defs2">
    <filter
       style="color-interpolation-filters:sRGB;"
       inkscape:label="Blur"
       id="filter5421"
       x="-0.12256455"
       y="-0.12342654"
       width="1.2451291"
       height="1.2468531">
      <feGaussianBlur
         stdDeviation="0.5 0.5"
         result="blur"
         id="feGaussianBlur5419" />
    </filter>
  </defs>
  <metadata
     id="metadata2">
    <rdf:RDF>
      <cc:Work
         rdf:about="">
        <dc:format>image/svg+xml</dc:format>
        <dc:type
           rdf:resource="http://purl.org/dc/dcmitype/StillImage" />
      </cc:Work>
    </rdf:RDF>
  </metadata>
  <rect
     style="opacity:0.3;fill:none;fill-opacity:0.996424;stroke:#000000;stroke-width:0.955221;stroke-dasharray:none;stroke-opacity:1;filter:url(#filter5421)"
     id="rect1-2-7"
     width="13.687567"
     height="13.591975"
     x="1.6227165"
     y="1.6705122"
     rx="2.8442214"
     ry="2.965905" />
  <rect
     style="fill:none;fill-opacity:1;stroke:{{colors.primary.default.hex}};stroke-width:0.955221;stroke-dasharray:none;stroke-opacity:1"
     id="rect1-2"
     width="13.687567"
     height="13.591975"
     x="1.6227167"
     y="1.6705124"
     rx="2.8442214"
     ry="2.965905" />
  <path
     style="fill:{{colors.primary.default.hex}};fill-opacity:1;stroke:none;stroke-width:0.13133;stroke-dasharray:none;stroke-opacity:0.6"
     d="M 7.6795284,12.507366 C 6.8755794,12.312725 5.9492966,11.652669 5.5116425,10.962561 5.3769453,10.750166 5.3372632,10.618686 5.3372632,10.38479 c 0,-0.265398 0.041949,-0.370823 0.3396182,-0.8535173 C 5.8636712,9.2283775 6.1072484,8.8911406 6.2181637,8.7818575 L 6.4198282,8.583161 6.2894577,8.444388 C 5.9613762,8.0951614 5.7879897,7.1453272 5.9251016,6.4484002 6.0233664,5.9489301 6.2328146,5.5561846 6.6140794,5.1564683 7.2913005,4.4464727 8.1850802,4.1908825 9.1764239,4.4237258 10.044335,4.627578 11.1921,5.3750207 11.42506,5.8880732 c 0.06147,0.1353639 0.111911,0.3801024 0.112627,0.5463968 10e-4,0.2617313 -0.04148,0.3721563 -0.325011,0.8424834 l -0.326307,0.5412723 0.237422,0.3387969 c 0.411459,0.5871439 0.586152,1.6281509 0.393851,2.3469724 -0.267324,0.999253 -1.02871,1.733059 -2.0831709,2.007711 -0.4228982,0.110151 -1.2909058,0.108004 -1.7549427,-0.0044 z m 1.9190319,-0.905298 c 0.4424717,-0.16908 0.8319937,-0.521532 1.0363817,-0.937746 0.148589,-0.302586 0.16557,-0.398647 0.16408,-0.9281582 -0.0015,-0.5287665 -0.01918,-0.6255515 -0.168896,-0.9239 C 10.402715,8.3590858 9.9780973,7.9603312 9.2119734,7.4804868 8.462223,7.0108975 8.2949204,6.8316657 8.3970673,6.6074778 8.5290784,6.317745 9.0693935,6.4863736 9.81256,7.0492428 c 0.1712069,0.1296702 0.349797,0.2357645 0.396867,0.2357645 0.08091,0 0.437406,-0.5009246 0.581386,-0.8169272 0.06111,-0.1341124 0.04098,-0.1682162 -0.257238,-0.4360369 C 9.914814,5.476368 8.9245037,5.1033631 8.2711392,5.1798878 7.665017,5.2508792 7.0268939,5.6908101 6.7806449,6.207456 6.7200631,6.3345605 6.663948,6.6210344 6.648668,6.8812155 6.6015625,7.6833017 6.8515013,8.1346836 7.7725006,8.9108222 8.0736229,9.1645821 8.4329555,9.4795629 8.5710178,9.6107796 8.8599997,9.885432 8.8987824,10.087646 8.6814671,10.186661 8.412,10.309438 7.4957381,9.9545343 7.0556063,9.556902 6.9310159,9.444342 6.802427,9.3522477 6.7698535,9.3522477 c -0.093932,0 -0.6647581,0.9078833 -0.6647581,1.0572783 0,0.197556 0.6647959,0.834657 1.0836989,1.038554 0.5209831,0.253582 0.8826582,0.325736 1.5151175,0.302265 0.3912875,-0.01452 0.6620547,-0.05939 0.8946485,-0.148277 z"
     id="path18" />
</svg>
