<?xml version="1.0" encoding="UTF-8" standalone="no"?>
<svg
   width="64"
   height="64"
   version="1.1"
   viewBox="0 0 16.933 16.933"
   id="svg7"
   sodipodi:docname="accessories-text-editor.svg"
   inkscape:version="1.4.3 (0d15f75042, 2025-12-25)"
   xmlns:inkscape="http://www.inkscape.org/namespaces/inkscape"
   xmlns:sodipodi="http://sodipodi.sourceforge.net/DTD/sodipodi-0.dtd"
   xmlns="http://www.w3.org/2000/svg"
   xmlns:svg="http://www.w3.org/2000/svg"
   xmlns:rdf="http://www.w3.org/1999/02/22-rdf-syntax-ns#"
   xmlns:cc="http://creativecommons.org/ns#"
   xmlns:dc="http://purl.org/dc/elements/1.1/">
  <sodipodi:namedview
     id="namedview7"
     pagecolor="#9c4444"
     bordercolor="#000000"
     borderopacity="0.25"
     inkscape:showpageshadow="2"
     inkscape:pageopacity="0.0"
     inkscape:pagecheckerboard="0"
     inkscape:deskcolor="#d1d1d1"
     inkscape:zoom="4.3531261"
     inkscape:cx="43.417074"
     inkscape:cy="20.674797"
     inkscape:window-width="1226"
     inkscape:window-height="669"
     inkscape:window-x="474"
     inkscape:window-y="225"
     inkscape:window-maximized="0"
     inkscape:current-layer="svg7"
     showgrid="false" />
  <defs
     id="defs2">
    <filter
       style="color-interpolation-filters:sRGB;"
       inkscape:label="Blur"
       id="filter5421"
       x="-0.12256455"
       y="-0.12342654"
       width="1.2451291"
       height="1.2468531">
      <feGaussianBlur
         stdDeviation="0.5 0.5"
         result="blur"
         id="feGaussianBlur5419" />
    </filter>
  </defs>
  <metadata
     id="metadata2">
    <rdf:RDF>
      <cc:Work
         rdf:about="">
        <dc:format>image/svg+xml</dc:format>
        <dc:type
           rdf:resource="http://purl.org/dc/dcmitype/StillImage" />
      </cc:Work>
    </rdf:RDF>
  </metadata>
  <rect
     style="opacity:0.3;fill:none;fill-opacity:0.996424;stroke:#000000;stroke-width:0.955221;stroke-dasharray:none;stroke-opacity:1;filter:url(#filter5421)"
     id="rect1-2-7"
     width="13.687567"
     height="13.591975"
     x="1.6227165"
     y="1.6705122"
     rx="2.8442214"
     ry="2.965905" />
  <rect
     style="fill:none;fill-opacity:1;stroke:{{colors.primary.default.hex}};stroke-width:0.955221;stroke-dasharray:none;stroke-opacity:1"
     id="rect1-2"
     width="13.687567"
     height="13.591975"
     x="1.6227167"
     y="1.6705124"
     rx="2.8442214"
     ry="2.965905" />
  <g
     id="Vault"
     transform="matrix(0.44893006,0,0,0.44893003,3.0793395,3.0793395)"
     style="fill:{{colors.primary.default.hex}};fill-opacity:1">
    <g
       id="g3"
       style="fill:{{colors.primary.default.hex}};fill-opacity:1">
      <path
         d="m 15.935,6.06 h -7.87 a 2,2 0 0 0 -2,2 v 6 a 1.993,1.993 0 0 0 2,2 h 7.87 a 2,2 0 0 0 2,-2 v -6 a 2.006,2.006 0 0 0 -2,-2 z m 1,8 a 1,1 0 0 1 -1,1 h -7.87 a 0.99,0.99 0 0 1 -1,-1 v -6 a 1,1 0 0 1 1,-1 h 7.87 a 1,1 0 0 1 1,1 z"
         id="path1"
         style="fill:{{colors.primary.default.hex}};fill-opacity:1" />
      <path
         d="M 18.435,3.06 H 5.565 a 2.507,2.507 0 0 0 -2.5,2.5 v 11 a 2.5,2.5 0 0 0 2.5,2.5 v 0.38 a 1.5,1.5 0 0 0 1.5,1.5 h 1.43 a 1.5,1.5 0 0 0 1.5,-1.5 v -0.38 h 4 v 0.38 a 1.5,1.5 0 0 0 1.5,1.5 h 1.44 a 1.5,1.5 0 0 0 1.5,-1.5 v -0.38 a 2.5,2.5 0 0 0 2.5,-2.5 v -11 a 2.507,2.507 0 0 0 -2.5,-2.5 z m -9.44,16.38 a 0.5,0.5 0 0 1 -0.5,0.5 h -1.43 a 0.5,0.5 0 0 1 -0.5,-0.5 v -0.38 h 2.43 z m 8.44,0 a 0.5,0.5 0 0 1 -0.5,0.5 H 15.5 A 0.508,0.508 0 0 1 15,19.44 v -0.38 h 2.44 z m 2.5,-2.88 a 1.5,1.5 0 0 1 -1.5,1.5 H 5.565 a 1.5,1.5 0 0 1 -1.5,-1.5 v -11 a 1.5,1.5 0 0 1 1.5,-1.5 h 12.87 a 1.5,1.5 0 0 1 1.5,1.5 z"
         id="path2"
         style="fill:{{colors.primary.default.hex}};fill-opacity:1" />
      <path
         d="m 14.265,10.56 h -0.61 A 1.656,1.656 0 0 0 12.5,9.4 V 8.79 A 0.491,0.491 0 0 0 12,8.31 0.5,0.5 0 0 0 11.5,8.79 V 9.4 a 1.656,1.656 0 0 0 -1.16,1.16 H 9.73 a 0.5,0.5 0 0 0 -0.48,0.5 0.491,0.491 0 0 0 0.48,0.5 h 0.61 a 1.656,1.656 0 0 0 1.16,1.16 v 0.62 a 0.489,0.489 0 0 0 0.5,0.47 0.483,0.483 0 0 0 0.5,-0.47 v -0.62 a 1.622,1.622 0 0 0 1.16,-1.16 h 0.61 a 0.485,0.485 0 0 0 0.48,-0.5 0.491,0.491 0 0 0 -0.485,-0.5 z M 12,11.81 A 0.75,0.75 0 1 1 12.75,11.06 0.749,0.749 0 0 1 12,11.81 Z"
         id="path3"
         style="fill:{{colors.primary.default.hex}};fill-opacity:1" />
    </g>
  </g>
</svg>
