<?xml version="1.0" encoding="UTF-8" standalone="no"?>
<svg
   width="64"
   height="64"
   version="1.1"
   viewBox="0 0 16.933 16.933"
   id="svg7"
   sodipodi:docname="abcd.svg"
   inkscape:version="1.4.3 (0d15f75042, 2025-12-25)"
   xmlns:inkscape="http://www.inkscape.org/namespaces/inkscape"
   xmlns:sodipodi="http://sodipodi.sourceforge.net/DTD/sodipodi-0.dtd"
   xmlns="http://www.w3.org/2000/svg"
   xmlns:svg="http://www.w3.org/2000/svg"
   xmlns:rdf="http://www.w3.org/1999/02/22-rdf-syntax-ns#"
   xmlns:cc="http://creativecommons.org/ns#"
   xmlns:dc="http://purl.org/dc/elements/1.1/">
  <sodipodi:namedview
     id="namedview7"
     pagecolor="#9c4444"
     bordercolor="#000000"
     borderopacity="0.25"
     inkscape:showpageshadow="2"
     inkscape:pageopacity="0.0"
     inkscape:pagecheckerboard="0"
     inkscape:deskcolor="#d1d1d1"
     inkscape:zoom="4.3531261"
     inkscape:cx="40.200995"
     inkscape:cy="23.431437"
     inkscape:window-width="1226"
     inkscape:window-height="669"
     inkscape:window-x="474"
     inkscape:window-y="225"
     inkscape:window-maximized="0"
     inkscape:current-layer="svg7"
     showgrid="false" />
  <defs
     id="defs2">
    <filter
       style="color-interpolation-filters:sRGB;"
       inkscape:label="Blur"
       id="filter5421"
       x="-0.12256455"
       y="-0.12342654"
       width="1.2451291"
       height="1.2468531">
      <feGaussianBlur
         stdDeviation="0.5 0.5"
         result="blur"
         id="feGaussianBlur5419" />
    </filter>
  </defs>
  <metadata
     id="metadata2">
    <rdf:RDF>
      <cc:Work
         rdf:about="">
        <dc:format>image/svg+xml</dc:format>
        <dc:type
           rdf:resource="http://purl.org/dc/dcmitype/StillImage" />
      </cc:Work>
    </rdf:RDF>
  </metadata>
  <rect
     style="opacity:0.3;fill:none;fill-opacity:0.996424;stroke:#000000;stroke-width:0.955221;stroke-dasharray:none;stroke-opacity:1;filter:url(#filter5421)"
     id="rect1-2-7"
     width="13.687567"
     height="13.591975"
     x="1.6227165"
     y="1.6705122"
     rx="2.8442214"
     ry="2.965905" />
  <rect
     style="fill:none;fill-opacity:1;stroke:{{colors.primary.default.hex}};stroke-width:0.955221;stroke-dasharray:none;stroke-opacity:1"
     id="rect1-2"
     width="13.687567"
     height="13.591975"
     x="1.6227167"
     y="1.6705124"
     rx="2.8442214"
     ry="2.965905" />
  <path
     style="fill:{{colors.primary.default.hex}};fill-opacity:1;stroke:none;stroke-width:0.129302;stroke-dasharray:none;stroke-opacity:0.6"
     d="M 5.6382741,12.490389 C 5.2053304,12.439964 4.8422114,12.123583 4.7173935,11.688036 4.6909451,11.595746 4.687802,11.43266 4.682608,9.8830226 L 4.6768985,8.179466 h 3.789202 3.7892005 l -0.0054,1.7035566 c -0.0064,1.9000064 0.0014,1.7749144 -0.126797,2.0332754 -0.08701,0.175311 -0.28563,0.373934 -0.460937,0.460941 -0.171223,0.085 -0.289876,0.112236 -0.544738,0.125136 l -0.215282,0.01091 -0.0046,-0.894518 -0.0046,-0.894519 -0.0391,-0.07939 c -0.04993,-0.101338 -0.152216,-0.203604 -0.253536,-0.253517 l -0.07938,-0.03909 -2.0283069,-0.0045 c -2.3306838,-0.0051 -2.128237,-0.01876 -2.3017907,0.155086 -0.1651236,0.1654 -0.159303,0.123838 -0.159303,1.137398 v 0.867789 l -0.1394969,-0.0022 c -0.076725,-0.0013 -0.1907841,-0.0082 -0.2534692,-0.01547 z M 10.245862,9.4894088 c 0.08197,-0.055682 0.114032,-0.1207736 0.113955,-0.2311695 -1.14e-4,-0.166159 -0.10229,-0.267027 -0.270477,-0.267027 -0.1681878,0 -0.2703598,0.1008669 -0.2704748,0.267027 -1.15e-4,0.1702516 0.1022491,0.2739258 0.2704748,0.2739258 0.07226,0 0.107949,-0.00977 0.156526,-0.04276 z m 1.073744,0.00902 c 0.08251,-0.050309 0.122309,-0.1273643 0.122309,-0.2368139 0,-0.1697096 -0.100702,-0.2704141 -0.270413,-0.2704141 -0.169709,0 -0.270412,0.1007048 -0.270412,0.2704141 0,0.1697083 0.100703,0.2704123 0.270412,0.2704123 0.06305,0 0.11075,-0.01084 0.148106,-0.033599 z M 6.301779,12.102294 v -0.405808 h 2.1643201 2.1643219 v 0.405808 0.405812 H 8.4660991 6.301779 Z M 4.6830319,7.4227976 C 4.6928211,6.8814523 4.7017333,6.8238992 4.809407,6.6069498 4.8963654,6.4317394 5.0950019,6.2330671 5.2703463,6.1459296 5.4780827,6.0426928 5.5725804,6.0255111 5.938242,6.0244948 c 0.297291,-8.667e-4 0.3263129,0.00181 0.3889002,0.03541 0.1481805,0.079539 0.2167633,0.1842048 0.2365897,0.36105 0.015379,0.1371372 0.045819,0.2124117 0.1151238,0.2846643 C 6.796326,6.828082 6.572608,6.8173555 9.2100845,6.8269631 l 2.3756785,0.00866 0.100099,0.037927 c 0.142118,0.053847 0.230029,0.1090012 0.321944,0.201996 0.163426,0.1653447 0.223672,0.3221555 0.239818,0.624241 l 0.01112,0.2091435 H 8.4665337 4.6742495 Z M 7.040419,6.5313237 C 6.9209003,6.489446 6.8597681,6.4045895 6.8597681,6.2805693 c 0,-0.086984 0.050069,-0.1724761 0.1268741,-0.216645 C 7.0145089,6.0478941 7.6498287,5.8203114 8.3984649,5.5581757 9.147099,5.2960395 10.193058,4.9298026 10.722815,4.744315 11.77549,4.3757351 11.757213,4.3800955 11.865952,4.4715936 c 0.134773,0.1134032 0.13545,0.3133633 0.0013,0.4088255 -0.02677,0.019048 -0.355962,0.1421732 -0.731558,0.2735973 C 10.760133,5.2854407 10.163687,5.494143 9.810294,5.6178015 7.6346827,6.379066 7.185045,6.5354787 7.1471255,6.5442055 7.1238798,6.5495754 7.0758162,6.5436803 7.0403269,6.531317 Z"
     id="path1-3" />
</svg>
