<?xml version="1.0" encoding="UTF-8" standalone="no"?>
<svg
   width="64"
   height="64"
   version="1.1"
   viewBox="0 0 16.933 16.933"
   id="svg7"
   sodipodi:docname="abcd.svg"
   inkscape:version="1.4.3 (0d15f75042, 2025-12-25)"
   xmlns:inkscape="http://www.inkscape.org/namespaces/inkscape"
   xmlns:sodipodi="http://sodipodi.sourceforge.net/DTD/sodipodi-0.dtd"
   xmlns="http://www.w3.org/2000/svg"
   xmlns:svg="http://www.w3.org/2000/svg"
   xmlns:rdf="http://www.w3.org/1999/02/22-rdf-syntax-ns#"
   xmlns:cc="http://creativecommons.org/ns#"
   xmlns:dc="http://purl.org/dc/elements/1.1/">
  <sodipodi:namedview
     id="namedview7"
     pagecolor="#9c4444"
     bordercolor="#000000"
     borderopacity="0.25"
     inkscape:showpageshadow="2"
     inkscape:pageopacity="0.0"
     inkscape:pagecheckerboard="0"
     inkscape:deskcolor="#d1d1d1"
     inkscape:zoom="6.15625"
     inkscape:cx="35.573604"
     inkscape:cy="31.025381"
     inkscape:window-width="1226"
     inkscape:window-height="669"
     inkscape:window-x="0"
     inkscape:window-y="133"
     inkscape:window-maximized="0"
     inkscape:current-layer="svg7"
     showgrid="false" />
  <defs
     id="defs2">
    <filter
       style="color-interpolation-filters:sRGB;"
       inkscape:label="Blur"
       id="filter5421"
       x="-0.12256455"
       y="-0.12342654"
       width="1.2451291"
       height="1.2468531">
      <feGaussianBlur
         stdDeviation="0.5 0.5"
         result="blur"
         id="feGaussianBlur5419" />
    </filter>
  </defs>
  <metadata
     id="metadata2">
    <rdf:RDF>
      <cc:Work
         rdf:about="">
        <dc:format>image/svg+xml</dc:format>
        <dc:type
           rdf:resource="http://purl.org/dc/dcmitype/StillImage" />
      </cc:Work>
    </rdf:RDF>
  </metadata>
  <rect
     style="opacity:0.3;fill:none;fill-opacity:0.996424;stroke:#000000;stroke-width:0.955221;stroke-dasharray:none;stroke-opacity:1;filter:url(#filter5421)"
     id="rect1-2-7"
     width="13.687567"
     height="13.591975"
     x="1.6227165"
     y="1.6705122"
     rx="2.8442214"
     ry="2.965905" />
  <rect
     style="fill:none;fill-opacity:1;stroke:{{colors.primary.default.hex}};stroke-width:0.955221;stroke-dasharray:none;stroke-opacity:1"
     id="rect1-2"
     width="13.687567"
     height="13.591975"
     x="1.6227167"
     y="1.6705124"
     rx="2.8442214"
     ry="2.965905" />
  <path
     style="fill:{{colors.primary.default.hex}};fill-opacity:1;stroke-width:0.0394594"
     d="m 5.1881854,12.476163 c -0.2738905,-0.09864 -0.394427,-0.183992 -0.5528458,-0.391465 -0.1669382,-0.218634 -0.252914,-0.497561 -0.252914,-0.820524 0,-0.302191 0.052883,-0.459948 0.1480891,-0.441778 0.05688,0.01086 0.072999,0.07176 0.092148,0.348144 0.026224,0.378532 0.08376,0.516643 0.323637,0.77688 0.2334724,0.253287 0.4188107,0.335709 0.8172138,0.363423 0.3026158,0.02105 0.3365722,0.03148 0.3473169,0.106777 0.00941,0.06597 -0.014342,0.08869 -0.1134469,0.108514 -0.2307349,0.04614 -0.6067932,0.02292 -0.8091977,-0.04997 z M 10.135816,11.258901 C 9.2133407,10.351422 8.9520343,10.055342 8.9862547,9.9563498 8.9993063,9.9185817 9.1448257,9.750004 9.309619,9.5817332 L 9.6092444,9.2757867 9.4719279,9.1397792 9.3346109,9.0037721 9.0347107,9.2906913 8.7348106,9.5776113 8.6019186,9.3042383 C 8.3861934,8.8604706 8.0622402,8.5466857 7.563481,8.2983985 L 7.338528,8.1864141 7.5802539,7.955847 7.8219799,7.7252796 7.6808314,7.5841309 7.5396816,7.4429819 7.2917553,7.6887041 C 7.1032429,7.8755416 7.0166459,7.9344278 6.9303998,7.9344278 6.8349408,7.9344278 6.6647569,7.7825294 5.8561862,6.9756382 5.029671,6.1508395 4.8954015,6.000369 4.8954015,5.8989268 c 0,-0.1003506 0.1047412,-0.2220784 0.7028967,-0.8168953 0.5242805,-0.5213537 0.727282,-0.6989723 0.7988579,-0.6989723 0.13882,0 2.0496927,1.9153594 2.049433,2.0542435 -1.216e-4,0.066192 -0.093875,0.1936056 -0.2998108,0.4074639 L 7.8471476,7.1559224 7.9874814,7.2962567 8.1278158,7.4365906 8.3630432,7.2122213 c 0.2499709,-0.2384326 0.371127,-0.3037446 0.5634517,-0.3037446 0.065697,0 0.1645224,-0.035454 0.2196112,-0.078785 0.2191506,-0.1723843 0.5713387,-0.176896 0.7946371,-0.010178 0.1893918,0.1414004 0.2575038,0.2742509 0.2734248,0.5333113 0.0136,0.2212487 0.0031,0.2638776 -0.102833,0.4206735 -0.06489,0.095961 -0.109194,0.1973304 -0.09848,0.2252654 0.03656,0.095304 -0.076808,0.3430703 -0.236031,0.5158115 L 9.6178602,8.6870336 9.748948,8.8222815 9.880036,8.9575295 10.131607,8.722197 c 0.17741,-0.1659575 0.282648,-0.2353333 0.356983,-0.2353333 0.08509,0 0.293908,0.1884991 1.083696,0.9782867 0.740652,0.7406516 0.978287,1.0015506 0.978287,1.0740586 0,0.0715 -0.177872,0.273644 -0.701626,0.797398 -0.572535,0.572535 -0.721798,0.701624 -0.811274,0.701624 -0.08944,0 -0.255585,-0.143562 -0.901857,-0.779328 z m 1.084477,-0.373509 -0.186076,-0.188917 -0.188918,0.186077 -0.188918,0.186076 0.186078,0.188918 0.186076,0.188917 0.188919,-0.186076 0.188916,-0.186077 z m -0.523764,-0.16963 0.174829,-0.17814 -0.186343,-0.186342 -0.186345,-0.186343 -0.186344,0.186343 -0.186343,0.186342 0.17483,0.17814 c 0.09616,0.09798 0.185192,0.178139 0.197857,0.178139 0.01267,0 0.101702,-0.08016 0.197859,-0.178139 z m 1.055037,-0.363342 -0.186345,-0.186343 -0.178285,0.174973 -0.178287,0.174975 0.186577,0.189424 0.186575,0.189423 0.178054,-0.178054 0.178054,-0.178055 z M 10.144093,10.163327 10.318923,9.985188 10.13258,9.7988447 9.9462352,9.6125007 9.7598917,9.7988447 9.5735481,9.985188 9.7483783,10.163327 c 0.096156,0.09798 0.1851915,0.178139 0.1978569,0.178139 0.012673,0 0.1017018,-0.08016 0.1978578,-0.178139 z m 1.09609,0.0089 0.166049,-0.169193 L 11.2173,9.8169727 11.028366,9.6308812 10.853952,9.8085957 10.679536,9.9863128 10.853807,10.16388 c 0.09585,0.09766 0.184633,0.177568 0.197298,0.177568 0.01267,0 0.09775,-0.07613 0.189078,-0.169191 z M 10.687831,9.6197504 10.853963,9.4504749 10.680819,9.2805465 c -0.193953,-0.1903498 -0.228391,-0.187574 -0.434504,0.035021 l -0.114246,0.1233835 0.171786,0.1750386 c 0.09449,0.096271 0.18215,0.1750379 0.194815,0.1750379 0.01267,0 0.09779,-0.076174 0.189161,-0.1692771 z M 7.1318361,7.155098 7.2992312,6.967664 7.1347808,6.7999607 C 7.0443333,6.707724 6.9485817,6.6322576 6.9219987,6.6322576 c -0.02658,0 -0.1145174,0.080771 -0.1954108,0.179491 L 6.5795082,6.9912399 6.751892,7.1668851 c 0.09481,0.096605 0.18142,0.1756457 0.1924661,0.1756457 0.01105,0 0.095412,-0.084345 0.187478,-0.1874328 z M 6.5927257,6.6119574 6.7675552,6.4338185 6.5812118,6.2474755 6.394868,6.0611314 6.2085237,6.2474755 6.0221798,6.4338185 6.19701,6.6119574 c 0.096156,0.097976 0.1851926,0.1781385 0.197858,0.1781385 0.012665,0 0.1017012,-0.080162 0.1978577,-0.1781385 z M 7.6888155,6.6209009 7.8548644,6.4517087 7.6659315,6.2656164 7.4769987,6.0795249 7.302584,6.2572403 7.1281691,6.4349562 7.3024398,6.6125245 c 0.095848,0.097662 0.1846331,0.1775678 0.1972981,0.1775678 0.012671,0 0.09775,-0.076137 0.1890776,-0.1691914 z M 6.0510803,5.7161741 5.8650034,5.5272561 5.676086,5.7133331 5.4871681,5.8994101 5.6732448,6.0883279 5.8593223,6.2772453 6.0482397,6.0911679 6.2371579,5.9050917 Z M 7.1363802,6.0684661 7.3024296,5.8992745 7.1134962,5.7131818 6.9245633,5.5270904 6.7501487,5.7048051 6.5757343,5.8825214 l 0.17427,0.177568 c 0.095849,0.097663 0.1846334,0.1775684 0.1972991,0.1775684 0.012668,0 0.09775,-0.076137 0.1890768,-0.1691917 z M 6.5823521,5.1832005 6.3960077,4.9968569 6.2177228,5.1718313 6.0394369,5.3468051 6.2260122,5.5362294 6.4125879,5.7256529 6.5906416,5.5475992 6.7686959,5.3695441 Z M 5.5859454,11.964033 c -0.3097072,-0.08106 -0.5158986,-0.27406 -0.6115938,-0.572459 -0.052495,-0.163691 -0.030139,-0.522814 0.036707,-0.589661 0.073046,-0.07305 0.1505922,0.05018 0.1686566,0.26801 0.032879,0.396462 0.3444953,0.692084 0.729533,0.692084 0.1700485,0 0.2937462,0.08927 0.2224645,0.160559 -0.05304,0.05304 -0.4006426,0.07945 -0.5457674,0.04147 z m 2.3147952,-0.517401 c -0.3093231,-0.111281 -0.913978,-0.475627 -0.913978,-0.550731 0,-0.01852 0.062742,-0.07068 0.1394266,-0.115931 l 0.1394275,-0.08226 0.2847644,0.194916 c 0.3465593,0.237215 0.4378008,0.259843 0.4547988,0.112788 C 8.0300959,10.78985 7.7481844,10.3552 7.2469374,9.8363584 6.8424181,9.4176407 6.4668744,9.1254196 6.1423489,8.9768468 5.9627956,8.8946448 5.9068934,8.8837927 5.8606566,8.9221658 c -0.031725,0.02633 -0.057684,0.062769 -0.057684,0.080977 0,0.018205 0.095132,0.1728113 0.2114025,0.3435668 L 6.2257776,9.6571741 6.138234,9.8287735 6.0506916,10.000373 5.908201,9.8059164 C 5.6613637,9.4690558 5.4367348,8.9861229 5.4171748,8.7502488 5.4002174,8.5458366 5.4049322,8.5330464 5.5321818,8.4379479 5.7297884,8.2902685 5.9444247,8.2332838 6.2962187,8.2351012 c 0.355996,0.00184 0.6680919,0.081211 1.0238879,0.2603918 0.8225012,0.4142171 1.3677882,1.2716729 1.3746694,2.161647 0.00257,0.333354 -0.055177,0.551692 -0.1957098,0.739869 -0.1152759,0.154358 -0.2712436,0.167295 -0.5983256,0.04962 z M 5.7758387,11.160252 C 5.6638196,11.036475 5.6400669,10.903493 5.703052,10.752749 5.77078,10.590651 5.884364,10.529029 6.0849811,10.545544 l 0.1572952,0.01295 0.2268699,-0.374866 C 6.737749,9.7398046 6.803065,9.7087329 7.0088212,9.9268988 c 0.07468,0.079182 0.1357799,0.1768032 0.1357799,0.2169372 0,0.04932 -0.1260166,0.153083 -0.3889199,0.320223 l -0.3889204,0.247254 0.018846,0.167213 c 0.015912,0.141159 0.00301,0.183049 -0.082801,0.268861 -0.1369845,0.136984 -0.4086375,0.143617 -0.5269684,0.01286 z"
     id="path1880" />
</svg>
