<?xml version="1.0" encoding="UTF-8" standalone="no"?>
<svg
   width="64"
   height="64"
   version="1.1"
   viewBox="0 0 16.933 16.933"
   id="svg7"
   sodipodi:docname="accessories-text-editor.svg"
   inkscape:version="1.4.3 (0d15f75042, 2025-12-25)"
   xmlns:inkscape="http://www.inkscape.org/namespaces/inkscape"
   xmlns:sodipodi="http://sodipodi.sourceforge.net/DTD/sodipodi-0.dtd"
   xmlns="http://www.w3.org/2000/svg"
   xmlns:svg="http://www.w3.org/2000/svg"
   xmlns:rdf="http://www.w3.org/1999/02/22-rdf-syntax-ns#"
   xmlns:cc="http://creativecommons.org/ns#"
   xmlns:dc="http://purl.org/dc/elements/1.1/">
  <sodipodi:namedview
     id="namedview7"
     pagecolor="#9c4444"
     bordercolor="#000000"
     borderopacity="0.25"
     inkscape:showpageshadow="2"
     inkscape:pageopacity="0.0"
     inkscape:pagecheckerboard="0"
     inkscape:deskcolor="#d1d1d1"
     inkscape:zoom="4.3531261"
     inkscape:cx="39.282115"
     inkscape:cy="26.417797"
     inkscape:window-width="1226"
     inkscape:window-height="669"
     inkscape:window-x="474"
     inkscape:window-y="225"
     inkscape:window-maximized="0"
     inkscape:current-layer="svg7"
     showgrid="false" />
  <defs
     id="defs2">
    <filter
       style="color-interpolation-filters:sRGB;"
       inkscape:label="Blur"
       id="filter5421"
       x="-0.12256455"
       y="-0.12342654"
       width="1.2451291"
       height="1.2468531">
      <feGaussianBlur
         stdDeviation="0.5 0.5"
         result="blur"
         id="feGaussianBlur5419" />
    </filter>
  </defs>
  <metadata
     id="metadata2">
    <rdf:RDF>
      <cc:Work
         rdf:about="">
        <dc:format>image/svg+xml</dc:format>
        <dc:type
           rdf:resource="http://purl.org/dc/dcmitype/StillImage" />
      </cc:Work>
    </rdf:RDF>
  </metadata>
  <rect
     style="opacity:0.3;fill:none;fill-opacity:0.996424;stroke:#000000;stroke-width:0.955221;stroke-dasharray:none;stroke-opacity:1;filter:url(#filter5421)"
     id="rect1-2-7"
     width="13.687567"
     height="13.591975"
     x="1.6227165"
     y="1.6705122"
     rx="2.8442214"
     ry="2.965905" />
  <rect
     style="fill:none;fill-opacity:1;stroke:{{colors.primary.default.hex}};stroke-width:0.955221;stroke-dasharray:none;stroke-opacity:1"
     id="rect1-2"
     width="13.687567"
     height="13.591975"
     x="1.6227167"
     y="1.6705124"
     rx="2.8442214"
     ry="2.965905" />
  <path
     style="fill:{{colors.primary.default.hex}};fill-opacity:1;stroke:none;stroke-width:0.349258;stroke-dasharray:none;stroke-opacity:0.3"
     d="m 8.4671742,4.3956547 c -1.7402059,0 -3.150835,0.5690209 -3.150835,1.2715031 v 1.0437899 c 0,0.7025712 1.4106291,1.2715028 3.150835,1.2715028 1.7401238,0 3.1508368,-0.5690208 3.1508368,-1.2715028 V 5.6671578 c 0,-0.7024822 -1.410713,-1.2715031 -3.1508368,-1.2715031 z m -3.150835,2.7694462 c -0.0057,0.031435 0,1.8210684 0,1.8210684 0,0.7026613 1.4106291,1.2715057 3.150835,1.2715057 1.7401238,0 3.1508368,-0.5690215 3.1508368,-1.2715057 0,0 0.0037,-1.7897286 -0.0021,-1.8210684 -0.119942,0.6584992 -1.48752,1.177365 -3.1488946,1.177365 -1.6614509,0 -3.0310547,-0.5189546 -3.1508326,-1.177365 z m -6.303e-4,2.2796747 6.303e-4,1.8210674 c 0,0.70257 1.4106291,1.271502 3.150835,1.271502 1.7401238,0 3.1508368,-0.569109 3.1508368,-1.271502 l -0.0028,-1.8210674 c -0.1197,0.6580534 -1.486789,1.1773654 -3.1482442,1.1773654 -1.6614522,0 -3.0317034,-0.519399 -3.1514819,-1.1773654 z"
     id="path10" />
</svg>
