<?xml version="1.0" encoding="UTF-8" standalone="no"?>
<svg
   width="64"
   height="64"
   version="1.1"
   viewBox="0 0 16.933 16.933"
   id="svg7"
   sodipodi:docname="com.warlordsoftwares.formatlab.svg"
   inkscape:version="1.4.3 (0d15f75042, 2025-12-25)"
   xmlns:inkscape="http://www.inkscape.org/namespaces/inkscape"
   xmlns:sodipodi="http://sodipodi.sourceforge.net/DTD/sodipodi-0.dtd"
   xmlns="http://www.w3.org/2000/svg"
   xmlns:svg="http://www.w3.org/2000/svg"
   xmlns:rdf="http://www.w3.org/1999/02/22-rdf-syntax-ns#"
   xmlns:cc="http://creativecommons.org/ns#"
   xmlns:dc="http://purl.org/dc/elements/1.1/">
  <sodipodi:namedview
     id="namedview7"
     pagecolor="#9c4444"
     bordercolor="#000000"
     borderopacity="0.25"
     inkscape:showpageshadow="2"
     inkscape:pageopacity="0.0"
     inkscape:pagecheckerboard="0"
     inkscape:deskcolor="#d1d1d1"
     inkscape:zoom="4.3531261"
     inkscape:cx="42.957635"
     inkscape:cy="45.254834"
     inkscape:window-width="1226"
     inkscape:window-height="669"
     inkscape:window-x="314"
     inkscape:window-y="198"
     inkscape:window-maximized="0"
     inkscape:current-layer="svg7"
     showgrid="false" />
  <defs
     id="defs2">
    <filter
       style="color-interpolation-filters:sRGB;"
       inkscape:label="Blur"
       id="filter5421"
       x="-0.12256455"
       y="-0.12342654"
       width="1.2451291"
       height="1.2468531">
      <feGaussianBlur
         stdDeviation="0.5 0.5"
         result="blur"
         id="feGaussianBlur5419" />
    </filter>
    <filter
       style="color-interpolation-filters:sRGB"
       inkscape:label="Blur"
       id="filter5421-3"
       x="-0.12256455"
       y="-0.12342654"
       width="1.2451291"
       height="1.2468531">
      <feGaussianBlur
         stdDeviation="0.5 0.5"
         result="blur"
         id="feGaussianBlur5419-6" />
    </filter>
  </defs>
  <metadata
     id="metadata2">
    <rdf:RDF>
      <cc:Work
         rdf:about="">
        <dc:format>image/svg+xml</dc:format>
        <dc:type
           rdf:resource="http://purl.org/dc/dcmitype/StillImage" />
      </cc:Work>
    </rdf:RDF>
  </metadata>
  <rect
     style="opacity:0.3;fill:none;fill-opacity:0.996424;stroke:#000000;stroke-width:0.955221;stroke-dasharray:none;stroke-opacity:1;filter:url(#filter5421)"
     id="rect1-2-7"
     width="13.687567"
     height="13.591975"
     x="1.6227165"
     y="1.6705122"
     rx="2.8442214"
     ry="2.965905" />
  <rect
     style="fill:none;fill-opacity:1;stroke:{{colors.primary.default.hex}};stroke-width:0.955221;stroke-dasharray:none;stroke-opacity:1"
     id="rect1-2"
     width="13.687567"
     height="13.591975"
     x="1.6227167"
     y="1.6705124"
     rx="2.8442214"
     ry="2.965905" />
  <path
     style="fill:{{colors.primary.default.hex}};fill-opacity:1;stroke:none;stroke-width:0.13343;stroke-dasharray:none;stroke-dashoffset:2.2;stroke-opacity:0.6"
     d="M 7.9731539,12.528662 C 7.4537685,12.468268 6.8894704,12.276251 6.4258478,12.002149 5.4396969,11.419119 4.7180051,10.40782 4.4403885,9.2199463 4.3820222,8.9702069 4.3736519,8.8770562 4.3738737,8.479743 4.3740809,8.1093225 4.3848303,7.9747773 4.4319973,7.7525245 4.5668215,7.1171819 4.8236443,6.5376097 5.1858286,6.0513546 5.8463117,5.1646165 6.7498434,4.606865 7.8221814,4.4239307 c 0.4078779,-0.069583 1.0586115,-0.05747 1.4524491,0.027035 0.8302715,0.1781516 1.4960455,0.5437322 2.1081675,1.1576068 0.488682,0.4900825 0.772534,0.9383152 0.971355,1.5338649 0.13129,0.3932676 0.183601,0.6861927 0.201715,1.1295263 0.04054,0.991821 -0.298065,1.9891323 -0.945625,2.7853363 -0.761494,0.936285 -1.9814574,1.511395 -3.174879,1.496688 -0.1503631,-0.002 -0.3583584,-0.01325 -0.4622101,-0.02534 z m 0.1536262,-0.429679 c 0.085196,-0.07619 0.078371,-0.27109 -0.033047,-0.944118 C 7.9344964,10.193007 7.7008803,9.7515908 7.351639,9.7526826 6.9757679,9.7538351 6.2522671,10.138751 5.8705368,10.540613 c -0.191022,0.201098 -0.2334302,0.281092 -0.2018188,0.380692 0.032524,0.102475 0.3562777,0.415869 0.5936106,0.574619 0.4285489,0.286653 1.0938778,0.582131 1.4493943,0.643687 0.1691392,0.02929 0.357495,0.01083 0.4150572,-0.04063 z m 1.2558828,-0.0028 c 0.6804411,-0.179841 1.5191651,-0.681129 1.8095231,-1.081532 0.124291,-0.171398 0.0992,-0.234545 -0.22352,-0.562534 C 10.492004,9.9676378 9.7689621,9.6518554 9.4298053,9.7799966 9.1352076,9.8913025 8.953623,10.353352 8.8111171,11.354256 c -0.061879,0.434628 -0.063027,0.665689 -0.00364,0.731373 0.079906,0.08836 0.2675964,0.09178 0.5751783,0.01049 z M 5.5488124,10.009244 C 6.0371396,9.4166051 6.2286151,9.0687144 6.2476741,8.739484 6.2621772,8.4889913 6.2300382,8.3877046 6.0848454,8.2262093 5.9036851,8.0247144 5.5754278,7.8866713 5.2271328,7.8655117 4.9584064,7.849188 4.8648247,7.892767 4.7726217,8.0771713 c -0.056713,0.1134272 -0.064476,0.1610831 -0.06133,0.3765945 0.00352,0.2407369 0.045532,0.5167887 0.1278589,0.8400016 0.044685,0.1754227 0.287329,0.9754006 0.32784,1.0808516 l 0.025357,0.06602 0.056349,-0.06778 c 0.030992,-0.0373 0.1660418,-0.200907 0.3001121,-0.363616 z m 6.1910246,0.243088 c 0.300299,-0.3351662 0.607944,-1.8738237 0.45016,-2.2514527 -0.07018,-0.1679895 -0.262525,-0.2065988 -0.65586,-0.1316568 -0.787625,0.1500638 -1.002192,0.7237099 -0.578088,1.54551 0.138524,0.2684217 0.313846,0.5147354 0.526256,0.7393575 0.144466,0.15277 0.192319,0.171023 0.257532,0.09824 z M 8.9930826,9.5702001 C 9.5830583,9.3833514 10.037859,9.0171114 10.266595,8.5446682 c 0.255069,-0.5268283 0.255073,-1.1023601 7e-6,-1.662064 C 10.086711,6.4878614 9.8347566,6.1871757 9.510755,5.9805705 9.1365694,5.7419638 8.8142669,5.6608295 8.3195151,5.6806934 7.8267526,5.7004823 7.5759264,5.8124055 7.144335,6.2051042 6.7150017,6.5957482 6.4608058,7.1375076 6.4608058,7.6618894 c 0,0.8564433 0.7274713,1.7374873 1.6102679,1.9502052 0.2154406,0.051911 0.6945539,0.030139 0.9220089,-0.041898 z M 5.3785906,7.0915317 C 5.7413544,7.0161839 6.0728672,6.868693 6.1968482,6.7274863 6.3674353,6.5331975 6.3981705,6.1399144 6.2661041,5.8412883 6.1972741,5.6856507 6.170661,5.6637277 6.0786049,5.6868317 5.9957538,5.7076265 5.6136453,6.0900892 5.4288896,6.337149 5.3251279,6.475903 5.0401898,6.9758899 4.9583773,7.162767 c -0.00497,0.01135 0.018406,0.014331 0.051943,0.00663 0.033539,-0.00771 0.1992595,-0.042746 0.3682682,-0.077848 z m 6.5343014,-0.0021 C 11.974956,7.0289997 11.908572,6.8780301 11.651077,6.4937075 11.37269,6.0782611 11.058863,5.7084686 10.964604,5.684811 10.821013,5.648773 10.609409,5.9770187 10.576175,6.2873606 c -0.02224,0.2076584 -0.0058,0.271463 0.09898,0.3912439 0.277086,0.3158797 1.066264,0.5778244 1.237744,0.4108339 z M 7.6152249,5.4504357 C 7.7695164,5.3978627 8.0624995,5.1296128 8.1515995,4.9593411 L 8.21392,4.8402439 8.1493239,4.7873474 C 8.0710242,4.723229 7.934236,4.7329778 7.5263722,4.8317373 7.036426,4.9503709 6.7570031,5.100547 6.7768241,5.2345807 c 0.028007,0.1893996 0.5338377,0.3196302 0.8384008,0.215855 z m 2.1730835,0.00555 C 10.223369,5.3239431 10.260118,5.1550883 9.8899526,4.988968 9.6944326,4.9012233 9.1958433,4.7701031 8.9794293,4.7495155 c -0.1375152,-0.013084 -0.1760046,-0.00826 -0.204046,0.02552 -0.029343,0.035359 -0.024635,0.058588 0.031237,0.1539186 0.080226,0.1368937 0.4334269,0.4773224 0.5460871,0.5263378 0.1061949,0.046204 0.284728,0.046488 0.4356008,7.072e-4 z"
     id="path3-3" />
  <rect
     style="opacity:0.3;fill:none;fill-opacity:0.996424;stroke:#000000;stroke-width:0.955221;stroke-dasharray:none;stroke-opacity:1;filter:url(#filter5421-3)"
     id="rect1-2-7-5"
     width="13.687567"
     height="13.591975"
     x="1.6227165"
     y="1.6705122"
     rx="2.8442214"
     ry="2.965905"
     transform="matrix(0.43046721,0,0,0.43046721,9.5627021,9.5627021)" />
  <rect
     style="fill:none;fill-opacity:1;stroke:{{colors.primary.default.hex}};stroke-width:0.411191;stroke-dasharray:none;stroke-opacity:1"
     id="rect1-2-3"
     width="5.8920484"
     height="5.8508992"
     x="10.261228"
     y="10.281802"
     rx="1.224344"
     ry="1.2767248" />
  <path
     id="path1"
     style="fill:{{colors.primary.default.hex}};fill-opacity:1;stroke:none;stroke-width:0.0587368;stroke-dasharray:none;stroke-dashoffset:2.2;stroke-opacity:0.6"
     d="m 14.168922,11.656658 c -0.06055,-2.6e-5 -0.125364,0.02435 -0.206481,0.07188 -0.193027,0.1131 -0.445472,0.166438 -0.792145,0.166438 -0.346641,0 -0.607506,-0.05448 -0.799384,-0.16692 -0.153862,-0.09017 -0.245719,-0.09136 -0.374847,-0.0043 -0.331514,0.223407 -0.581361,0.939687 -0.654655,1.875683 -0.04395,0.561277 -0.0029,0.857184 0.142315,1.023712 0.07004,0.08029 0.241969,0.06668 0.397039,-0.03184 0.13145,-0.08351 0.288072,-0.267793 0.475192,-0.559138 0.16909,-0.263274 0.373614,-0.349984 0.825918,-0.350725 0.451405,-6.81e-4 0.628801,0.08471 0.837013,0.404757 0.349331,0.536972 0.672221,0.723915 0.861617,0.498829 0.104925,-0.124694 0.12413,-0.24517 0.119159,-0.746797 -0.0091,-0.911235 -0.247248,-1.740202 -0.590491,-2.056592 -0.09141,-0.08427 -0.162394,-0.124918 -0.24025,-0.124951 z M 12.207851,12.1936 h 0.209374 0.209373 v 0.179464 0.179463 h 0.179465 0.179462 v 0.22433 0.224328 h -0.179462 -0.179465 v 0.194419 0.194419 h -0.189593 c -0.104158,0 -0.197928,-0.0093 -0.208892,-0.02026 -0.01096,-0.01096 -0.02025,-0.098 -0.02025,-0.193935 v -0.174644 h -0.179466 -0.179465 v -0.224328 -0.224329 h 0.179465 0.179463 v -0.179465 z m 1.706832,0 c 0.188883,0 0.269773,0.209278 0.133633,0.345419 -0.08658,0.08657 -0.165598,0.09337 -0.250863,0.02123 -0.147895,-0.125144 -0.0707,-0.366645 0.11723,-0.366645 z m -0.363268,0.383531 c 0.04717,3.2e-5 0.09465,0.01883 0.132184,0.0603 0.05851,0.06466 0.06483,0.212666 0.01207,0.281737 -0.103261,0.135182 -0.351207,0.04823 -0.351207,-0.123018 0,-0.12997 0.103198,-0.219094 0.206961,-0.219022 z m 0.741493,0.0073 c 0.05436,9.9e-4 0.10714,0.019 0.137972,0.05306 0.05851,0.06466 0.06482,0.212666 0.01206,0.281738 -0.109832,0.143783 -0.351209,0.04755 -0.351209,-0.139905 0,-0.05682 0.02277,-0.118403 0.05451,-0.14714 0.03629,-0.03285 0.0923,-0.04875 0.14666,-0.04775 z m -0.365199,0.386906 c 0.167454,0 0.248932,0.177621 0.147622,0.322262 -0.03463,0.04945 -0.07687,0.06657 -0.164026,0.06657 -0.100342,0 -0.123628,-0.01306 -0.164024,-0.09118 -0.07966,-0.154035 0.0073,-0.297659 0.180428,-0.297659 z" />
</svg>
