<?xml version="1.0" encoding="UTF-8" standalone="no"?>
<svg
   width="64"
   height="64"
   version="1.1"
   viewBox="0 0 16.933 16.933"
   id="svg7"
   sodipodi:docname="steam_icon_1076200.svg"
   inkscape:version="1.4.3 (0d15f75042, 2025-12-25)"
   xmlns:inkscape="http://www.inkscape.org/namespaces/inkscape"
   xmlns:sodipodi="http://sodipodi.sourceforge.net/DTD/sodipodi-0.dtd"
   xmlns="http://www.w3.org/2000/svg"
   xmlns:svg="http://www.w3.org/2000/svg"
   xmlns:rdf="http://www.w3.org/1999/02/22-rdf-syntax-ns#"
   xmlns:cc="http://creativecommons.org/ns#"
   xmlns:dc="http://purl.org/dc/elements/1.1/">
  <sodipodi:namedview
     id="namedview7"
     pagecolor="#9c4444"
     bordercolor="#000000"
     borderopacity="0.25"
     inkscape:showpageshadow="2"
     inkscape:pageopacity="0.0"
     inkscape:pagecheckerboard="0"
     inkscape:deskcolor="#d1d1d1"
     inkscape:zoom="4.3531261"
     inkscape:cx="42.957635"
     inkscape:cy="45.025114"
     inkscape:window-width="1226"
     inkscape:window-height="669"
     inkscape:window-x="314"
     inkscape:window-y="198"
     inkscape:window-maximized="0"
     inkscape:current-layer="svg7"
     showgrid="false" />
  <defs
     id="defs2">
    <filter
       style="color-interpolation-filters:sRGB;"
       inkscape:label="Blur"
       id="filter5421"
       x="-0.12256455"
       y="-0.12342654"
       width="1.2451291"
       height="1.2468531">
      <feGaussianBlur
         stdDeviation="0.5 0.5"
         result="blur"
         id="feGaussianBlur5419" />
    </filter>
    <filter
       style="color-interpolation-filters:sRGB"
       inkscape:label="Blur"
       id="filter5421-3"
       x="-0.12256455"
       y="-0.12342654"
       width="1.2451291"
       height="1.2468531">
      <feGaussianBlur
         stdDeviation="0.5 0.5"
         result="blur"
         id="feGaussianBlur5419-6" />
    </filter>
  </defs>
  <metadata
     id="metadata2">
    <rdf:RDF>
      <cc:Work
         rdf:about="">
        <dc:format>image/svg+xml</dc:format>
        <dc:type
           rdf:resource="http://purl.org/dc/dcmitype/StillImage" />
      </cc:Work>
    </rdf:RDF>
  </metadata>
  <rect
     style="opacity:0.3;fill:none;fill-opacity:0.996424;stroke:#000000;stroke-width:0.955221;stroke-dasharray:none;stroke-opacity:1;filter:url(#filter5421)"
     id="rect1-2-7"
     width="13.687567"
     height="13.591975"
     x="1.6227165"
     y="1.6705122"
     rx="2.8442214"
     ry="2.965905" />
  <rect
     style="fill:none;fill-opacity:1;stroke:{{colors.primary.default.hex}};stroke-width:0.955221;stroke-dasharray:none;stroke-opacity:1"
     id="rect1-2"
     width="13.687567"
     height="13.591975"
     x="1.6227167"
     y="1.6705124"
     rx="2.8442214"
     ry="2.965905" />
  <path
     style="fill:{{colors.primary.default.hex}};stroke-width:0.0234492;fill-opacity:1"
     d="M 11.358592,12.402409 C 10.815294,12.261321 10.564078,12.156664 10.139224,11.894407 9.8532204,11.717862 9.8148408,11.687247 9.4954941,11.380912 9.2258859,11.122288 9.0587753,10.916805 8.6889801,10.3892 8.2321005,9.7373475 7.6816085,9.2761164 6.8563077,8.8536894 6.71014,8.7788737 6.5835131,8.7102279 6.5749151,8.7011432 6.566317,8.6920577 6.4959686,8.6446252 6.4185857,8.5957365 6.2465155,8.4870265 5.7620028,7.9991994 5.7620028,7.9346622 c 0,-0.025703 -0.012326,-0.046732 -0.027392,-0.046732 -0.042499,0 -0.2385404,-0.3946901 -0.3333306,-0.6710958 C 5.2900253,6.8924224 5.1972302,6.324638 5.2554638,6.324638 c 0.017202,0 0.1396328,0.1653182 0.2720675,0.3673738 0.1383886,0.2111394 0.349143,0.4781683 0.4955741,0.6278984 0.2487883,0.2543935 0.6028357,0.5367549 0.6730272,0.5367549 0.019312,0 0.035112,0.011959 0.035112,0.026575 0,0.044345 0.3890209,0.195122 0.6637546,0.2572586 C 7.943165,8.2644785 8.2687303,8.1970909 8.678831,7.874764 8.8175821,7.7657093 9.1272978,7.314168 9.1540049,7.1819973 9.232019,6.7959124 9.2271471,6.6733066 9.1214159,6.3618831 9.0374157,6.1144648 8.9178215,5.9257609 8.7337347,5.7501722 8.4450281,5.4747926 8.1342041,5.3553963 7.7060165,5.3553963 H 7.4745581 l 0.1498687,0.101614 C 7.9023778,5.6454669 7.9023901,5.645529 7.9126815,6.9142289 L 7.9216455,8.0197066 7.662551,7.9986097 C 7.5200528,7.9870059 7.3371356,7.9563937 7.2560721,7.9305824 7.0941787,7.8790342 6.724776,7.7066729 6.6999785,7.6711122 6.6913805,7.6587822 6.6315461,7.6132629 6.567013,7.5699583 6.4241751,7.4741069 6.0828357,7.1493067 5.9337954,6.9674231 L 5.8245345,6.8340843 V 6.3491346 c 0,-0.2667222 -0.015394,-0.5607356 -0.034207,-0.6533628 C 5.7715132,5.6031445 5.7517547,5.4966797 5.74642,5.4591833 5.7273947,5.325464 5.5297088,5.0049397 5.3890907,4.8798159 5.2317773,4.7398361 4.9526968,4.5971994 4.8361297,4.5971994 c -0.052914,0 -0.074634,-0.01758 -0.074634,-0.060403 0,-0.05917 0.038466,-0.060137 1.8837678,-0.047348 2.0320791,0.014082 1.9850897,0.010508 2.5403513,0.1932728 0.1375691,0.045282 0.2817833,0.1029249 0.3204756,0.128097 0.03869,0.025171 0.070348,0.038766 0.070348,0.030208 0,-0.00856 0.082854,0.036843 0.1841176,0.1008933 0.2113409,0.1336697 0.628796,0.4996811 0.628796,0.5513084 0,0.019097 0.02788,0.052135 0.06196,0.073416 0.07309,0.045641 0.177887,0.2454084 0.29925,0.5704 0.0787,0.2107639 0.0878,0.275626 0.08986,0.6409501 0.0028,0.5030415 -0.06419,0.7309975 -0.33274,1.1317717 -0.225122,0.3359597 -0.7367683,0.7380897 -1.1311038,0.8889929 -0.09643,0.036902 -0.175326,0.083891 -0.175326,0.1044203 0,0.1305352 0.7554904,0.5167803 1.0108158,0.5167803 0.109761,0 0.197824,0.1194261 0.219022,0.2970265 0.05528,0.4631543 0.288047,0.9690453 0.814425,1.7700393 0.24926,0.379298 0.59314,0.727251 0.859758,0.869943 0.03642,0.01949 0.06623,0.04903 0.06623,0.06561 0,0.04618 -0.61628,0.0309 -0.812912,-0.02017 z m -6.5970966,-1.13534 c 0,-0.01586 0.052761,-0.0452 0.1172467,-0.06518 0.4300548,-0.133278 0.6722991,-0.345077 0.822237,-0.718896 0.1003953,-0.250303 0.1002477,-0.248741 0.1146732,-1.2115521 0.00858,-0.5726814 0.024482,-0.8832605 0.045223,-0.8832605 0.017593,0 0.1169238,0.076862 0.2207333,0.1708041 0.1870987,0.1693148 0.443271,0.3352885 0.7746994,0.5019276 0.2243917,0.1128218 0.7297474,0.4496975 0.9002928,0.6001442 0.1205895,0.1063786 0.141761,0.1471418 0.20767,0.3998477 0.1385983,0.531409 0.241295,0.746002 0.4311378,0.900903 0.1446257,0.118006 0.48947,0.271567 0.6098468,0.271567 0.041784,0 0.066116,0.01374 0.055296,0.03127 -0.025293,0.04092 -4.2990558,0.04333 -4.2990562,0.0024 z"
     id="path1-5" />
  <rect
     style="opacity:0.3;fill:none;fill-opacity:0.996424;stroke:#000000;stroke-width:0.955221;stroke-dasharray:none;stroke-opacity:1;filter:url(#filter5421-3)"
     id="rect1-2-7-5"
     width="13.687567"
     height="13.591975"
     x="1.6227165"
     y="1.6705122"
     rx="2.8442214"
     ry="2.965905"
     transform="matrix(0.43046721,0,0,0.43046721,9.5627021,9.5627021)" />
  <rect
     style="fill:none;fill-opacity:1;stroke:{{colors.primary.default.hex}};stroke-width:0.411191;stroke-dasharray:none;stroke-opacity:1"
     id="rect1-2-3"
     width="5.8920484"
     height="5.8508992"
     x="10.261228"
     y="10.281802"
     rx="1.224344"
     ry="1.2767248" />
  <path
     id="path1"
     style="fill:{{colors.primary.default.hex}};fill-opacity:1;stroke:none;stroke-width:0.0587368;stroke-dasharray:none;stroke-dashoffset:2.2;stroke-opacity:0.6"
     d="m 14.168922,11.656658 c -0.06055,-2.6e-5 -0.125364,0.02435 -0.206481,0.07188 -0.193027,0.1131 -0.445472,0.166438 -0.792145,0.166438 -0.346641,0 -0.607506,-0.05448 -0.799384,-0.16692 -0.153862,-0.09017 -0.245719,-0.09136 -0.374847,-0.0043 -0.331514,0.223407 -0.581361,0.939687 -0.654655,1.875683 -0.04395,0.561277 -0.0029,0.857184 0.142315,1.023712 0.07004,0.08029 0.241969,0.06668 0.397039,-0.03184 0.13145,-0.08351 0.288072,-0.267793 0.475192,-0.559138 0.16909,-0.263274 0.373614,-0.349984 0.825918,-0.350725 0.451405,-6.81e-4 0.628801,0.08471 0.837013,0.404757 0.349331,0.536972 0.672221,0.723915 0.861617,0.498829 0.104925,-0.124694 0.12413,-0.24517 0.119159,-0.746797 -0.0091,-0.911235 -0.247248,-1.740202 -0.590491,-2.056592 -0.09141,-0.08427 -0.162394,-0.124918 -0.24025,-0.124951 z M 12.207851,12.1936 h 0.209374 0.209373 v 0.179464 0.179463 h 0.179465 0.179462 v 0.22433 0.224328 h -0.179462 -0.179465 v 0.194419 0.194419 h -0.189593 c -0.104158,0 -0.197928,-0.0093 -0.208892,-0.02026 -0.01096,-0.01096 -0.02025,-0.098 -0.02025,-0.193935 v -0.174644 h -0.179466 -0.179465 v -0.224328 -0.224329 h 0.179465 0.179463 v -0.179465 z m 1.706832,0 c 0.188883,0 0.269773,0.209278 0.133633,0.345419 -0.08658,0.08657 -0.165598,0.09337 -0.250863,0.02123 -0.147895,-0.125144 -0.0707,-0.366645 0.11723,-0.366645 z m -0.363268,0.383531 c 0.04717,3.2e-5 0.09465,0.01883 0.132184,0.0603 0.05851,0.06466 0.06483,0.212666 0.01207,0.281737 -0.103261,0.135182 -0.351207,0.04823 -0.351207,-0.123018 0,-0.12997 0.103198,-0.219094 0.206961,-0.219022 z m 0.741493,0.0073 c 0.05436,9.9e-4 0.10714,0.019 0.137972,0.05306 0.05851,0.06466 0.06482,0.212666 0.01206,0.281738 -0.109832,0.143783 -0.351209,0.04755 -0.351209,-0.139905 0,-0.05682 0.02277,-0.118403 0.05451,-0.14714 0.03629,-0.03285 0.0923,-0.04875 0.14666,-0.04775 z m -0.365199,0.386906 c 0.167454,0 0.248932,0.177621 0.147622,0.322262 -0.03463,0.04945 -0.07687,0.06657 -0.164026,0.06657 -0.100342,0 -0.123628,-0.01306 -0.164024,-0.09118 -0.07966,-0.154035 0.0073,-0.297659 0.180428,-0.297659 z" />
</svg>
