<?xml version="1.0" encoding="UTF-8" standalone="no"?>
<svg
   width="64"
   height="64"
   version="1.1"
   viewBox="0 0 16.933 16.933"
   id="svg7"
   sodipodi:docname="abcd.svg"
   inkscape:version="1.4.3 (0d15f75042, 2025-12-25)"
   xmlns:inkscape="http://www.inkscape.org/namespaces/inkscape"
   xmlns:sodipodi="http://sodipodi.sourceforge.net/DTD/sodipodi-0.dtd"
   xmlns="http://www.w3.org/2000/svg"
   xmlns:svg="http://www.w3.org/2000/svg"
   xmlns:rdf="http://www.w3.org/1999/02/22-rdf-syntax-ns#"
   xmlns:cc="http://creativecommons.org/ns#"
   xmlns:dc="http://purl.org/dc/elements/1.1/">
  <sodipodi:namedview
     id="namedview7"
     pagecolor="#9c4444"
     bordercolor="#000000"
     borderopacity="0.25"
     inkscape:showpageshadow="2"
     inkscape:pageopacity="0.0"
     inkscape:pagecheckerboard="0"
     inkscape:deskcolor="#d1d1d1"
     inkscape:zoom="4.3531261"
     inkscape:cx="43.187354"
     inkscape:cy="45.254834"
     inkscape:window-width="1226"
     inkscape:window-height="669"
     inkscape:window-x="109"
     inkscape:window-y="119"
     inkscape:window-maximized="0"
     inkscape:current-layer="svg7"
     showgrid="false" />
  <defs
     id="defs2">
    <filter
       style="color-interpolation-filters:sRGB;"
       inkscape:label="Blur"
       id="filter5421"
       x="-0.12256455"
       y="-0.12342654"
       width="1.2451291"
       height="1.2468531">
      <feGaussianBlur
         stdDeviation="0.5 0.5"
         result="blur"
         id="feGaussianBlur5419" />
    </filter>
    <filter
       style="color-interpolation-filters:sRGB"
       inkscape:label="Blur"
       id="filter5421-3"
       x="-0.12256455"
       y="-0.12342654"
       width="1.2451291"
       height="1.2468531">
      <feGaussianBlur
         stdDeviation="0.5 0.5"
         result="blur"
         id="feGaussianBlur5419-6" />
    </filter>
  </defs>
  <metadata
     id="metadata2">
    <rdf:RDF>
      <cc:Work
         rdf:about="">
        <dc:format>image/svg+xml</dc:format>
        <dc:type
           rdf:resource="http://purl.org/dc/dcmitype/StillImage" />
      </cc:Work>
    </rdf:RDF>
  </metadata>
  <rect
     style="opacity:0.3;fill:none;fill-opacity:0.996424;stroke:#000000;stroke-width:0.955221;stroke-dasharray:none;stroke-opacity:1;filter:url(#filter5421)"
     id="rect1-2-7"
     width="13.687567"
     height="13.591975"
     x="1.6227165"
     y="1.6705122"
     rx="2.8442214"
     ry="2.965905" />
  <rect
     style="fill:none;fill-opacity:1;stroke:{{colors.primary.default.hex}};stroke-width:0.955221;stroke-dasharray:none;stroke-opacity:1"
     id="rect1-2"
     width="13.687567"
     height="13.591975"
     x="1.6227167"
     y="1.6705124"
     rx="2.8442214"
     ry="2.965905" />
  <path
     style="fill:{{colors.primary.default.hex}};fill-opacity:1;stroke:none;stroke-width:0.10325;stroke-dasharray:none;stroke-opacity:0.6"
     d="m 4.5142886,12.375016 c 0.00357,-0.02722 0.031609,-0.26633 0.062228,-0.531343 0.045823,-0.396685 0.059028,-0.480789 0.074686,-0.475879 0.056537,0.01773 0.1890754,0.01433 0.2531718,-0.0066 0.1147549,-0.03727 0.2732103,-0.125624 0.3404937,-0.189875 0.034799,-0.03322 0.2372281,-0.277251 0.4498496,-0.542264 0.3016953,-0.376036 0.6051867,-0.7535793 0.6682256,-0.8312702 0.013141,-0.01619 0.1285512,0.063162 0.1612357,0.1108721 0.049895,0.072846 0.092247,0.1943761 0.1036112,0.2973991 l 0.00945,0.08523 0.1115033,0.0173 c 0.1131049,0.01752 0.2248571,0.05997 0.2872674,0.109048 0.046374,0.03648 0.096267,0.105783 0.096267,0.133719 0,0.01418 -0.2577695,0.230532 -0.6831571,0.57338 -0.4432759,0.357265 -0.6987553,0.572024 -0.7275783,0.611614 -0.120567,0.165581 -0.194165,0.393062 -0.1638793,0.50653 0.00815,0.03071 0.013802,0.05701 0.012418,0.05838 -0.0021,0.0022 -1.0390251,0.123146 -1.0557233,0.123146 -0.00357,0 -0.00357,-0.02228 -2.15e-5,-0.04951 z M 7.344421,11.166372 C 7.328108,11.123422 7.303845,10.90297 7.303845,10.797477 c 0,-0.291545 -0.1784818,-0.509398 -0.4792265,-0.584941 l -0.085855,-0.02158 -0.021604,-0.08599 C 6.6780337,9.9492013 6.5897103,9.8085852 6.4819745,9.7305417 6.3878577,9.6623589 6.2985061,9.6382758 6.0909048,9.6251182 5.9861831,9.6185672 5.8718101,9.6092424 5.8367476,9.6046037 5.7146096,9.5883926 5.7123517,9.5988306 5.9087549,9.2692642 6.0060271,9.106006 6.181401,8.811313 6.2984759,8.6143912 6.472784,8.3211977 6.5185382,8.2533696 6.5510903,8.2398858 c 0.028237,-0.011687 0.075777,-0.013765 0.1639984,-0.00715 0.152814,0.011454 0.1795835,0.032036 0.194243,0.1493134 0.025648,0.2051929 0.022382,0.2197731 -0.100539,0.4487428 -0.061727,0.1149587 -0.1122087,0.2193977 -0.1122087,0.2320857 0,0.038794 0.034317,0.091234 0.1048154,0.1601139 L 6.8686824,9.2887336 9.1653456,6.9920011 11.46201,4.695267 11.940636,4.60104 c 0.263244,-0.051826 0.479547,-0.093406 0.480672,-0.092408 0.0012,0.00104 -0.03961,0.2156775 -0.09051,0.477058 l -0.09258,0.4752382 -2.2986111,2.3000489 -2.298611,2.3000479 0.065755,0.06727 c 0.078796,0.08063 0.1300654,0.109806 0.1764855,0.100413 0.018972,-0.0037 0.1225509,-0.05492 0.2302014,-0.113491 0.2145116,-0.1167386 0.219011,-0.1177529 0.4218536,-0.09521 0.1325982,0.01474 0.1526529,0.03942 0.1632576,0.200839 0.00644,0.09922 0.00393,0.133582 -0.012059,0.164547 -0.015925,0.03072 -0.1588142,0.12155 -0.6637805,0.42197 -0.3539175,0.210558 -0.6485283,0.384802 -0.6546902,0.387205 -0.00618,0.0023 -0.01678,-0.01027 -0.023602,-0.02821 z m 4.750873,-6.3369952 c -0.0033,-0.00306 -0.127829,0.00582 -0.276671,0.019792 l -0.270625,0.0254 L 9.3402261,7.0817894 7.132452,9.2890095 7.2609264,9.4179669 7.3894003,9.546924 9.7453699,7.1909544 C 11.041153,5.8951701 12.098616,4.8324618 12.095294,4.8293768 Z"
     id="path1-7" />
  <rect
     style="opacity:0.3;fill:none;fill-opacity:0.996424;stroke:#000000;stroke-width:0.955221;stroke-dasharray:none;stroke-opacity:1;filter:url(#filter5421-3)"
     id="rect1-2-7-5"
     width="13.687567"
     height="13.591975"
     x="1.6227165"
     y="1.6705122"
     rx="2.8442214"
     ry="2.965905"
     transform="matrix(0.43046721,0,0,0.43046721,9.5627021,9.5627021)" />
  <rect
     style="fill:none;fill-opacity:1;stroke:{{colors.primary.default.hex}};stroke-width:0.411191;stroke-dasharray:none;stroke-opacity:1"
     id="rect1-2-3"
     width="5.8920484"
     height="5.8508992"
     x="10.261228"
     y="10.281802"
     rx="1.224344"
     ry="1.2767248" />
  <path
     id="path1"
     style="fill:{{colors.primary.default.hex}};fill-opacity:1;stroke:none;stroke-width:0.0587368;stroke-dasharray:none;stroke-dashoffset:2.2;stroke-opacity:0.6"
     d="m 14.168922,11.656658 c -0.06055,-2.6e-5 -0.125364,0.02435 -0.206481,0.07188 -0.193027,0.1131 -0.445472,0.166438 -0.792145,0.166438 -0.346641,0 -0.607506,-0.05448 -0.799384,-0.16692 -0.153862,-0.09017 -0.245719,-0.09136 -0.374847,-0.0043 -0.331514,0.223407 -0.581361,0.939687 -0.654655,1.875683 -0.04395,0.561277 -0.0029,0.857184 0.142315,1.023712 0.07004,0.08029 0.241969,0.06668 0.397039,-0.03184 0.13145,-0.08351 0.288072,-0.267793 0.475192,-0.559138 0.16909,-0.263274 0.373614,-0.349984 0.825918,-0.350725 0.451405,-6.81e-4 0.628801,0.08471 0.837013,0.404757 0.349331,0.536972 0.672221,0.723915 0.861617,0.498829 0.104925,-0.124694 0.12413,-0.24517 0.119159,-0.746797 -0.0091,-0.911235 -0.247248,-1.740202 -0.590491,-2.056592 -0.09141,-0.08427 -0.162394,-0.124918 -0.24025,-0.124951 z M 12.207851,12.1936 h 0.209374 0.209373 v 0.179464 0.179463 h 0.179465 0.179462 v 0.22433 0.224328 h -0.179462 -0.179465 v 0.194419 0.194419 h -0.189593 c -0.104158,0 -0.197928,-0.0093 -0.208892,-0.02026 -0.01096,-0.01096 -0.02025,-0.098 -0.02025,-0.193935 v -0.174644 h -0.179466 -0.179465 v -0.224328 -0.224329 h 0.179465 0.179463 v -0.179465 z m 1.706832,0 c 0.188883,0 0.269773,0.209278 0.133633,0.345419 -0.08658,0.08657 -0.165598,0.09337 -0.250863,0.02123 -0.147895,-0.125144 -0.0707,-0.366645 0.11723,-0.366645 z m -0.363268,0.383531 c 0.04717,3.2e-5 0.09465,0.01883 0.132184,0.0603 0.05851,0.06466 0.06483,0.212666 0.01207,0.281737 -0.103261,0.135182 -0.351207,0.04823 -0.351207,-0.123018 0,-0.12997 0.103198,-0.219094 0.206961,-0.219022 z m 0.741493,0.0073 c 0.05436,9.9e-4 0.10714,0.019 0.137972,0.05306 0.05851,0.06466 0.06482,0.212666 0.01206,0.281738 -0.109832,0.143783 -0.351209,0.04755 -0.351209,-0.139905 0,-0.05682 0.02277,-0.118403 0.05451,-0.14714 0.03629,-0.03285 0.0923,-0.04875 0.14666,-0.04775 z m -0.365199,0.386906 c 0.167454,0 0.248932,0.177621 0.147622,0.322262 -0.03463,0.04945 -0.07687,0.06657 -0.164026,0.06657 -0.100342,0 -0.123628,-0.01306 -0.164024,-0.09118 -0.07966,-0.154035 0.0073,-0.297659 0.180428,-0.297659 z" />
</svg>
