<?xml version="1.0" encoding="UTF-8" standalone="no"?>
<svg
   width="64"
   height="64"
   version="1.1"
   viewBox="0 0 16.933 16.933"
   id="svg7"
   sodipodi:docname="steam_icon_368260.svg"
   inkscape:version="1.4.3 (0d15f75042, 2025-12-25)"
   xmlns:inkscape="http://www.inkscape.org/namespaces/inkscape"
   xmlns:sodipodi="http://sodipodi.sourceforge.net/DTD/sodipodi-0.dtd"
   xmlns="http://www.w3.org/2000/svg"
   xmlns:svg="http://www.w3.org/2000/svg"
   xmlns:rdf="http://www.w3.org/1999/02/22-rdf-syntax-ns#"
   xmlns:cc="http://creativecommons.org/ns#"
   xmlns:dc="http://purl.org/dc/elements/1.1/">
  <sodipodi:namedview
     id="namedview7"
     pagecolor="#9c4444"
     bordercolor="#000000"
     borderopacity="0.25"
     inkscape:showpageshadow="2"
     inkscape:pageopacity="0.0"
     inkscape:pagecheckerboard="0"
     inkscape:deskcolor="#d1d1d1"
     inkscape:zoom="4.3531261"
     inkscape:cx="42.957635"
     inkscape:cy="45.025114"
     inkscape:window-width="1226"
     inkscape:window-height="669"
     inkscape:window-x="30"
     inkscape:window-y="150"
     inkscape:window-maximized="0"
     inkscape:current-layer="svg7"
     showgrid="false" />
  <defs
     id="defs2">
    <filter
       style="color-interpolation-filters:sRGB;"
       inkscape:label="Blur"
       id="filter5421"
       x="-0.12256455"
       y="-0.12342654"
       width="1.2451291"
       height="1.2468531">
      <feGaussianBlur
         stdDeviation="0.5 0.5"
         result="blur"
         id="feGaussianBlur5419" />
    </filter>
    <filter
       style="color-interpolation-filters:sRGB"
       inkscape:label="Blur"
       id="filter5421-3"
       x="-0.12256455"
       y="-0.12342654"
       width="1.2451291"
       height="1.2468531">
      <feGaussianBlur
         stdDeviation="0.5 0.5"
         result="blur"
         id="feGaussianBlur5419-6" />
    </filter>
  </defs>
  <metadata
     id="metadata2">
    <rdf:RDF>
      <cc:Work
         rdf:about="">
        <dc:format>image/svg+xml</dc:format>
        <dc:type
           rdf:resource="http://purl.org/dc/dcmitype/StillImage" />
      </cc:Work>
    </rdf:RDF>
  </metadata>
  <rect
     style="opacity:0.3;fill:none;fill-opacity:0.996424;stroke:#000000;stroke-width:0.955221;stroke-dasharray:none;stroke-opacity:1;filter:url(#filter5421)"
     id="rect1-2-7"
     width="13.687567"
     height="13.591975"
     x="1.6227165"
     y="1.6705122"
     rx="2.8442214"
     ry="2.965905" />
  <rect
     style="fill:none;fill-opacity:1;stroke:{{colors.primary.default.hex}};stroke-width:0.955221;stroke-dasharray:none;stroke-opacity:1"
     id="rect1-2"
     width="13.687567"
     height="13.591975"
     x="1.6227167"
     y="1.6705124"
     rx="2.8442214"
     ry="2.965905" />
  <path
     style="fill:{{colors.primary.default.hex}};fill-opacity:1;stroke:none;stroke-width:0.102133;stroke-dasharray:none;stroke-opacity:0.6"
     d="M 8.2600572,12.561663 C 8.099176,12.487783 8.0631507,12.433496 7.9724847,12.128301 7.8533342,11.727228 7.7546407,11.528732 7.5281466,11.234631 7.2854358,10.919479 6.8130725,10.443764 6.5575384,10.257139 c -0.1021541,-0.0746 -0.1819916,-0.13939 -0.1774178,-0.143965 0.00458,-0.0048 0.091258,0.0018 0.192629,0.01387 0.101372,0.01222 0.1840541,0.0151 0.1837397,0.0065 -3.666e-4,-0.0086 -0.071672,-0.06153 -0.1585735,-0.117485 C 6.4140861,9.8976769 6.1618314,9.680536 6.1222383,9.6065542 c -0.024124,-0.045074 -0.00836,-0.042554 0.1300305,0.0208 0.086619,0.039645 0.2201167,0.07751 0.2966661,0.084124 L 6.6881169,9.7235607 6.564016,9.642693 C 6.3967979,9.5336637 6.137176,9.2480456 6.051295,9.0785672 5.9434488,8.8657438 5.7632409,7.9306788 5.7652533,7.594353 c 6.548e-4,-0.1131804 0.011373,-0.093117 0.1215266,0.227973 0.2365693,0.6895757 0.4140404,0.9682264 0.6598925,1.0361101 0.1031946,0.028494 0.2103891,0.015239 0.2103891,-0.02601 0,-0.013243 -0.091109,-0.2817166 -0.2024654,-0.5966031 C 6.2591377,7.4003371 6.2226935,7.2528749 6.2222621,6.8911186 6.221843,6.5320698 6.2530779,6.4272534 6.4688772,6.0637815 6.737461,5.6114031 6.7433365,5.5918818 6.742795,5.1537101 6.7424021,4.8358311 6.73127,4.7292115 6.679822,4.5502185 6.6454491,4.4306477 6.6225346,4.3276074 6.6289014,4.3212412 c 0.017039,-0.017041 0.1749424,0.4303745 0.2694603,0.7635246 0.1208039,0.4258035 0.1275487,0.5846061 0.041137,0.968547 -0.1222768,0.5432967 -0.092129,0.9080081 0.1080072,1.3066307 0.098122,0.1954332 0.4296862,0.6256128 0.4452146,0.5776315 0.00465,-0.014341 0.039048,-0.192046 0.07646,-0.3949007 0.037413,-0.2028548 0.073357,-0.3741639 0.07988,-0.3806857 0.00652,-0.00653 0.059795,0.1095736 0.1183827,0.2579924 0.058775,0.1488951 0.1097048,0.2453635 0.1136223,0.215219 0.00391,-0.030049 0.036935,-0.381369 0.073403,-0.7807126 0.036466,-0.3993442 0.071197,-0.7309735 0.077179,-0.7369558 0.00597,-0.00598 0.1032559,0.292723 0.2161653,0.6637887 0.1129104,0.3710651 0.2114962,0.6745862 0.2190796,0.6744923 0.0076,-9.54e-5 0.1062029,-0.30366 0.2191539,-0.6745901 0.1129502,-0.3709284 0.2102256,-0.6695553 0.2161667,-0.6636139 0.010566,0.010566 0.1428095,1.3830861 0.1434769,1.4891568 5.238e-4,0.084974 0.039312,0.020915 0.1375331,-0.2272053 0.049766,-0.1257212 0.095634,-0.2234377 0.1019228,-0.2171484 0.011845,0.011845 0.1469726,0.7218978 0.1469726,0.7722967 0,0.05684 0.1739716,-0.1389658 0.3294805,-0.3708307 C 9.9745054,7.2464293 10.041174,7.0488315 10.058376,6.6842845 10.070056,6.4366162 10.061176,6.346831 9.997113,6.0637818 9.907599,5.668486 9.913638,5.5140518 10.035426,5.0847658 c 0.09451,-0.3331501 0.252416,-0.780567 0.269461,-0.7635246 0.0065,0.00635 -0.01655,0.1094065 -0.05092,0.2289773 -0.05144,0.1789933 -0.06259,0.2856126 -0.06297,0.6034921 -6.29e-4,0.4381712 0.0054,0.4576927 0.273917,0.9100712 0.216084,0.3639544 0.247122,0.4682535 0.246189,0.8273368 -9.9e-4,0.3682947 -0.0402,0.5283553 -0.327865,1.3366376 -0.11358,0.3191528 -0.206507,0.5911842 -0.206507,0.6045139 0,0.041392 0.107038,0.054705 0.210389,0.026169 0.246195,-0.067977 0.422549,-0.3450295 0.657748,-1.0333118 0.111176,-0.3253436 0.121393,-0.3445448 0.122836,-0.2307702 0.0041,0.3289013 -0.176678,1.2700391 -0.285206,1.4842139 -0.08577,0.1692691 -0.345277,0.4548654 -0.512728,0.5642924 l -0.124101,0.081097 0.154786,-0.014458 c 0.08684,-0.00815 0.21771,-0.046347 0.298138,-0.087097 0.129037,-0.065389 0.140458,-0.067243 0.114425,-0.018597 -0.04091,0.076394 -0.290579,0.2921038 -0.477147,0.4122106 -0.08691,0.05594 -0.158259,0.108806 -0.158572,0.11747 -3.92e-4,0.0086 0.08238,0.0058 0.183738,-0.0065 0.101374,-0.0122 0.188056,-0.01846 0.192628,-0.01388 0.0046,0.0048 -0.07526,0.06935 -0.177416,0.143966 -0.255534,0.186625 -0.727897,0.662342 -0.970608,0.977494 -0.2264936,0.294097 -0.3251881,0.492595 -0.4443385,0.89367 -0.044959,0.151337 -0.103235,0.299359 -0.1295023,0.328931 -0.068348,0.07697 -0.252185,0.155085 -0.3649045,0.155085 -0.053088,0 -0.1461627,-0.02278 -0.2068341,-0.05065 z m -0.00357,-0.925536 c 0.041803,-0.06381 0.040362,-0.07178 -0.027524,-0.152466 -0.056635,-0.0673 -0.079651,-0.07849 -0.10989,-0.0534 -0.049323,0.04092 -0.048325,0.09099 0.00382,0.191829 0.05116,0.09893 0.076234,0.101562 0.1335879,0.01404 z m 0.5544419,-0.01403 c 0.05065,-0.09794 0.052933,-0.144945 0.00918,-0.188705 -0.025481,-0.02549 -0.047245,-0.01943 -0.096522,0.02686 -0.070052,0.0658 -0.078111,0.109441 -0.035074,0.189859 0.039809,0.07439 0.073448,0.06669 0.1224228,-0.02803 z M 7.9756071,9.9710053 C 8.0159424,9.9547423 8.0077344,9.9303883 7.9135107,9.7867938 7.7451178,9.5301703 7.3161897,9.1219539 7.2668155,9.1713271 7.2454099,9.1927327 7.3344226,9.4448034 7.4202332,9.6058025 7.5243604,9.8011644 7.6259074,9.9027772 7.7674426,9.953233 7.886901,9.995812 7.9093329,9.997738 7.9756073,9.971008 Z m 1.1608048,-0.00648 c 0.1471793,-0.040986 0.2857679,-0.173371 0.3829999,-0.365988 0.065081,-0.128922 0.1584879,-0.376281 0.1606114,-0.4253237 1.634e-4,-0.00378 -0.017571,-0.0069 -0.039415,-0.0069 -0.059304,0 -0.5188343,0.4601876 -0.6330253,0.6339282 -0.088576,0.1347683 -0.094174,0.1534064 -0.051188,0.1704227 0.066075,0.026163 0.062912,0.026271 0.1800148,-0.00639 z"
     id="path1-0" />
  <rect
     style="opacity:0.3;fill:none;fill-opacity:0.996424;stroke:#000000;stroke-width:0.955221;stroke-dasharray:none;stroke-opacity:1;filter:url(#filter5421-3)"
     id="rect1-2-7-5"
     width="13.687567"
     height="13.591975"
     x="1.6227165"
     y="1.6705122"
     rx="2.8442214"
     ry="2.965905"
     transform="matrix(0.43046721,0,0,0.43046721,9.5627021,9.5627021)" />
  <rect
     style="fill:none;fill-opacity:1;stroke:{{colors.primary.default.hex}};stroke-width:0.411191;stroke-dasharray:none;stroke-opacity:1"
     id="rect1-2-3"
     width="5.8920484"
     height="5.8508992"
     x="10.261228"
     y="10.281802"
     rx="1.224344"
     ry="1.2767248" />
  <path
     id="path1"
     style="fill:{{colors.primary.default.hex}};fill-opacity:1;stroke:none;stroke-width:0.0587368;stroke-dasharray:none;stroke-dashoffset:2.2;stroke-opacity:0.6"
     d="m 14.168922,11.656658 c -0.06055,-2.6e-5 -0.125364,0.02435 -0.206481,0.07188 -0.193027,0.1131 -0.445472,0.166438 -0.792145,0.166438 -0.346641,0 -0.607506,-0.05448 -0.799384,-0.16692 -0.153862,-0.09017 -0.245719,-0.09136 -0.374847,-0.0043 -0.331514,0.223407 -0.581361,0.939687 -0.654655,1.875683 -0.04395,0.561277 -0.0029,0.857184 0.142315,1.023712 0.07004,0.08029 0.241969,0.06668 0.397039,-0.03184 0.13145,-0.08351 0.288072,-0.267793 0.475192,-0.559138 0.16909,-0.263274 0.373614,-0.349984 0.825918,-0.350725 0.451405,-6.81e-4 0.628801,0.08471 0.837013,0.404757 0.349331,0.536972 0.672221,0.723915 0.861617,0.498829 0.104925,-0.124694 0.12413,-0.24517 0.119159,-0.746797 -0.0091,-0.911235 -0.247248,-1.740202 -0.590491,-2.056592 -0.09141,-0.08427 -0.162394,-0.124918 -0.24025,-0.124951 z M 12.207851,12.1936 h 0.209374 0.209373 v 0.179464 0.179463 h 0.179465 0.179462 v 0.22433 0.224328 h -0.179462 -0.179465 v 0.194419 0.194419 h -0.189593 c -0.104158,0 -0.197928,-0.0093 -0.208892,-0.02026 -0.01096,-0.01096 -0.02025,-0.098 -0.02025,-0.193935 v -0.174644 h -0.179466 -0.179465 v -0.224328 -0.224329 h 0.179465 0.179463 v -0.179465 z m 1.706832,0 c 0.188883,0 0.269773,0.209278 0.133633,0.345419 -0.08658,0.08657 -0.165598,0.09337 -0.250863,0.02123 -0.147895,-0.125144 -0.0707,-0.366645 0.11723,-0.366645 z m -0.363268,0.383531 c 0.04717,3.2e-5 0.09465,0.01883 0.132184,0.0603 0.05851,0.06466 0.06483,0.212666 0.01207,0.281737 -0.103261,0.135182 -0.351207,0.04823 -0.351207,-0.123018 0,-0.12997 0.103198,-0.219094 0.206961,-0.219022 z m 0.741493,0.0073 c 0.05436,9.9e-4 0.10714,0.019 0.137972,0.05306 0.05851,0.06466 0.06482,0.212666 0.01206,0.281738 -0.109832,0.143783 -0.351209,0.04755 -0.351209,-0.139905 0,-0.05682 0.02277,-0.118403 0.05451,-0.14714 0.03629,-0.03285 0.0923,-0.04875 0.14666,-0.04775 z m -0.365199,0.386906 c 0.167454,0 0.248932,0.177621 0.147622,0.322262 -0.03463,0.04945 -0.07687,0.06657 -0.164026,0.06657 -0.100342,0 -0.123628,-0.01306 -0.164024,-0.09118 -0.07966,-0.154035 0.0073,-0.297659 0.180428,-0.297659 z" />
</svg>
