<?xml version="1.0" encoding="UTF-8" standalone="no"?>
<svg
   width="64"
   height="64"
   version="1.1"
   viewBox="0 0 16.933 16.933"
   id="svg7"
   sodipodi:docname="steam_icon_368260.svg"
   inkscape:version="1.4.3 (0d15f75042, 2025-12-25)"
   xmlns:inkscape="http://www.inkscape.org/namespaces/inkscape"
   xmlns:sodipodi="http://sodipodi.sourceforge.net/DTD/sodipodi-0.dtd"
   xmlns="http://www.w3.org/2000/svg"
   xmlns:svg="http://www.w3.org/2000/svg"
   xmlns:rdf="http://www.w3.org/1999/02/22-rdf-syntax-ns#"
   xmlns:cc="http://creativecommons.org/ns#"
   xmlns:dc="http://purl.org/dc/elements/1.1/">
  <sodipodi:namedview
     id="namedview7"
     pagecolor="#9c4444"
     bordercolor="#000000"
     borderopacity="0.25"
     inkscape:showpageshadow="2"
     inkscape:pageopacity="0.0"
     inkscape:pagecheckerboard="0"
     inkscape:deskcolor="#d1d1d1"
     inkscape:zoom="4.3531261"
     inkscape:cx="42.957635"
     inkscape:cy="45.025114"
     inkscape:window-width="1226"
     inkscape:window-height="669"
     inkscape:window-x="30"
     inkscape:window-y="150"
     inkscape:window-maximized="0"
     inkscape:current-layer="svg7"
     showgrid="false" />
  <defs
     id="defs2">
    <filter
       style="color-interpolation-filters:sRGB;"
       inkscape:label="Blur"
       id="filter5421"
       x="-0.12256455"
       y="-0.12342654"
       width="1.2451291"
       height="1.2468531">
      <feGaussianBlur
         stdDeviation="0.5 0.5"
         result="blur"
         id="feGaussianBlur5419" />
    </filter>
    <filter
       style="color-interpolation-filters:sRGB"
       inkscape:label="Blur"
       id="filter5421-3"
       x="-0.12256455"
       y="-0.12342654"
       width="1.2451291"
       height="1.2468531">
      <feGaussianBlur
         stdDeviation="0.5 0.5"
         result="blur"
         id="feGaussianBlur5419-6" />
    </filter>
  </defs>
  <metadata
     id="metadata2">
    <rdf:RDF>
      <cc:Work
         rdf:about="">
        <dc:format>image/svg+xml</dc:format>
        <dc:type
           rdf:resource="http://purl.org/dc/dcmitype/StillImage" />
      </cc:Work>
    </rdf:RDF>
  </metadata>
  <rect
     style="opacity:0.3;fill:none;fill-opacity:0.996424;stroke:#000000;stroke-width:0.955221;stroke-dasharray:none;stroke-opacity:1;filter:url(#filter5421)"
     id="rect1-2-7"
     width="13.687567"
     height="13.591975"
     x="1.6227165"
     y="1.6705122"
     rx="2.8442214"
     ry="2.965905" />
  <rect
     style="fill:none;fill-opacity:1;stroke:{{colors.primary.default.hex}};stroke-width:0.955221;stroke-dasharray:none;stroke-opacity:1"
     id="rect1-2"
     width="13.687567"
     height="13.591975"
     x="1.6227167"
     y="1.6705124"
     rx="2.8442214"
     ry="2.965905" />
  <path
     style="fill:{{colors.primary.default.hex}};fill-opacity:1;stroke-width:0.0016704"
     d="m 8.495177,12.592754 c -0.049063,-0.10761 -0.1568286,-0.342286 -0.1575701,-0.343133 -5.501e-4,-6.03e-4 -0.013018,-0.002 -0.027717,-0.003 C 7.414958,12.184787 6.639708,11.833319 6.1175063,11.252698 5.9243166,11.037897 5.7665135,10.791046 5.6498018,10.521072 5.5245122,10.231255 5.4490144,9.9143989 5.4269204,9.585658 5.4221925,9.5152954 5.4206026,9.4646586 5.4203616,9.3768605 5.4201043,9.2872154 5.4207807,9.271768 5.4277324,9.2014706 5.4529617,8.9466583 5.5357748,8.6991155 5.6737512,8.4660856 l 0.018542,-0.03132 h 0.1442875 0.1442892 l -0.00375,0.00626 C 5.8971112,8.5746874 5.8426995,8.7029518 5.803566,8.8501383 5.7474347,9.0612584 5.7280522,9.3103165 5.7476272,9.568954 c 0.035694,0.471619 0.2056184,0.92255 0.4906548,1.302062 0.2790449,0.371534 0.6568079,0.664711 1.1002759,0.853909 0.1470519,0.06274 0.3123664,0.116813 0.4709397,0.154048 0.1109278,0.02605 0.2120368,0.04408 0.3233267,0.05766 0.064571,0.0079 0.06431,0.0078 0.06431,0.0068 0,-0.0031 -0.9449417,-2.0628721 -0.9572436,-2.0866609 -0.00818,-0.015824 -0.023621,-0.044761 -0.034313,-0.06431 C 7.0129755,9.4402224 6.8329777,9.2149965 6.6729114,9.1259063 6.6393279,9.1072124 6.598125,9.0924497 6.5667522,9.0878633 c -0.020727,-0.00303 -0.058777,-0.00136 -0.075911,0.00331 -0.022696,0.0062 -0.048795,0.01976 -0.062168,0.032315 -0.00612,0.00574 -0.00548,0.00656 -0.010333,-0.013045 -0.00684,-0.027634 -0.00926,-0.050203 -0.00922,-0.086025 7.23e-5,-0.059317 0.00944,-0.1018584 0.033422,-0.1517861 0.042476,-0.08845 0.1154729,-0.1485188 0.2036425,-0.1675794 0.019645,-0.00425 0.066299,-0.0059 0.088309,-0.00313 0.00877,0.0011 0.024323,0.0042 0.034583,0.0069 0.024816,0.00652 0.04686,0.015902 0.071343,0.030397 l 0.00548,0.00325 -0.00432,-0.00977 c -0.020107,-0.04551 -0.063455,-0.09289 -0.1103043,-0.1205749 -0.02185,-0.012913 -0.053005,-0.022002 -0.07542,-0.022002 h -0.01134 L 6.3171999,7.8614176 C 6.1371751,7.4606294 5.9817297,7.1154243 5.971764,7.0942942 5.9333726,7.0128933 5.8824763,6.9158523 5.8377209,6.8387253 5.654724,6.5233684 5.4437679,6.2903935 5.2213548,6.1580278 5.1227085,6.0993199 5.015092,6.0601118 4.943156,6.0566713 4.9312589,6.056095 4.92152,6.0549973 4.92152,6.0542323 c 0,-7.596e-4 0.02492,-0.029229 0.055378,-0.063217 l 0.055379,-0.061795 h 1.3945134 c 0.7669814,0 1.3945123,3.929e-4 1.3945123,8.381e-4 0,4.715e-4 -0.024485,0.036547 -0.05441,0.080178 l -0.054413,0.079337 h -0.017835 c -0.037094,6.45e-5 -0.097357,0.00618 -0.1391264,0.014249 -0.1115876,0.021533 -0.2079468,0.063326 -0.2871161,0.1245198 -0.020963,0.016198 -0.060503,0.054999 -0.077329,0.075871 -0.04983,0.061816 -0.079846,0.1303601 -0.092527,0.2113026 -0.00431,0.027535 -0.0043,0.1066073 4.09e-5,0.1386416 0.010281,0.07624 0.033832,0.1586478 0.068744,0.2405352 0.0049,0.011483 0.2819194,0.6255994 0.6156084,1.3647008 0.333669,0.7391023 0.6080222,1.3468912 0.6096543,1.3506418 l 0.00296,0.00682 -0.012766,0.00845 c -0.029435,0.019505 -0.075455,0.063834 -0.1082429,0.1042871 -0.1681817,0.2074962 -0.2370417,0.5057767 -0.197568,0.8558057 0.025533,0.226426 0.097714,0.481758 0.2115484,0.748332 0.013178,0.03086 0.2352862,0.524289 0.2402294,0.533685 l 0.00222,0.0041 0.00162,-0.0041 C 8.5335416,11.865168 8.9440689,10.90148 9.4449735,9.7259909 9.9458861,8.5505021 10.356075,7.587082 10.356516,7.5850573 10.3589,7.574098 10.267452,7.4191755 10.207834,7.3331702 10.130373,7.2214228 10.060355,7.1374573 9.9653522,7.0423819 9.9121397,6.989129 9.8830913,6.9622426 9.8383016,6.9247871 9.5551955,6.6880372 9.2181349,6.5475542 8.8544479,6.5147297 c -0.10304,-0.0093 -0.2220642,-0.00991 -0.3279205,-0.00168 -0.1870718,0.01454 -0.3780152,0.056872 -0.5575112,0.1235938 l -0.024658,0.00917 h -0.074882 c -0.041185,0 -0.074883,-4.191e-4 -0.074883,-9.45e-4 0,-4.976e-4 0.3124164,-0.3814185 0.694259,-0.8464657 L 9.1831077,4.9528742 8.7882642,4.9523504 C 8.3536566,4.9518003 8.3305858,4.9521631 8.220537,4.9613189 7.7954714,4.9967042 7.3884479,5.1364417 7.0502448,5.3630993 6.9543757,5.427349 6.8527525,5.5085094 6.801809,5.5615094 L 6.790378,5.5734014 H 6.712872 c -0.058286,0 -0.077516,-4.977e-4 -0.077516,-0.00196 0,-0.00107 0.1451946,-0.2814532 0.3226543,-0.6230517 L 7.2806659,4.3272972 h 0.053599 0.053598 l 1.365e-4,0.019624 c 4.714e-4,0.072923 0.048485,0.1595317 0.1170327,0.2110525 0.073123,0.05496 0.1840412,0.089927 0.3355175,0.1057699 0.085841,0.00897 -0.030858,0.00831 1.5354974,0.00885 0.792157,3.405e-4 1.440286,9.18e-4 1.440286,0.00147 0,4.977e-4 -0.324327,0.3715872 -0.720727,0.8246337 -0.3963971,0.4530494 -0.7205559,0.8238906 -0.720349,0.8240934 2.085e-4,2.084e-4 0.015784,0.00233 0.034619,0.00473 0.3646897,0.046511 0.712207,0.1695388 1.030624,0.3648607 0.04006,0.024572 0.117319,0.075708 0.152222,0.1007497 l 0.02444,0.017531 0.0011,-0.0085 c 0.0017,-0.01388 0.0012,-0.089306 -6.82e-4,-0.1123955 C 10.6054,6.5423913 10.55135,6.4154511 10.453014,6.3033969 10.356534,6.1934506 10.21586,6.1080119 10.071004,6.0713759 l -0.02462,-0.00623 0.06138,-0.067958 0.06138,-0.067955 0.921811,-1.2e-6 c 0.871495,-6e-7 0.92175,1.689e-4 0.920708,0.00289 -0.0021,0.00537 -0.09155,0.1482809 -0.09417,0.1503811 -0.0014,0.00115 -0.0048,0.0021 -0.0075,0.0021 -0.01472,0 -0.06704,0.013749 -0.103089,0.02709 -0.206658,0.076488 -0.413873,0.2629156 -0.579682,0.5215269 -0.05555,0.086635 -0.114452,0.1945812 -0.15912,0.2915868 -0.02277,0.049443 -2.2578883,4.9975705 -2.2624074,5.0085305 -0.00455,0.01106 -0.1353594,0.300516 -0.1464818,0.324159 -0.00389,0.0083 -0.040753,0.08964 -0.081919,0.180821 -0.041165,0.09118 -0.075311,0.165779 -0.075878,0.165775 -5.499e-4,0 -0.00334,-0.005 -0.00616,-0.01127 z m 0.3739288,-0.352443 c 9.45e-4,-0.0031 0.1594435,-0.352984 0.1603357,-0.353875 3.404e-4,-2.58e-4 0.012876,-0.0044 0.027977,-0.0091 0.2305806,-0.07226 0.4512626,-0.194153 0.6497457,-0.358868 0.052519,-0.04359 0.088416,-0.07664 0.148762,-0.137008 0.060939,-0.06095 0.094772,-0.09779 0.14355,-0.156296 0.3754078,-0.450251 0.6133398,-1.06923 0.6764368,-1.759747 0.01161,-0.1270956 0.01675,-0.2439816 0.01676,-0.3816815 1.36e-4,-0.2017343 -0.01277,-0.375906 -0.04178,-0.5687649 -0.0062,-0.041379 -0.02251,-0.1359086 -0.0264,-0.1532113 -0.0015,-0.0067 0.0031,-0.017141 0.241897,-0.5457327 0.133889,-0.2963976 0.243837,-0.5393092 0.244331,-0.5398019 0.0012,-0.00113 0.03428,0.039555 0.0685,0.084013 0.151906,0.1973598 0.280954,0.421282 0.376196,0.6527739 0.166361,0.4043497 0.237938,0.8375963 0.212911,1.2887085 -0.03954,0.7126509 -0.310184,1.3724639 -0.779033,1.8992229 -0.07977,0.08961 -0.180209,0.189087 -0.272385,0.269747 -0.253373,0.221712 -0.544014,0.402322 -0.8594117,0.534051 -0.2941423,0.122854 -0.6067583,0.201321 -0.933317,0.234266 -0.051579,0.0052 -0.056251,0.0053 -0.055076,0.0013 z"
     id="path1-3" />
  <rect
     style="opacity:0.3;fill:none;fill-opacity:0.996424;stroke:#000000;stroke-width:0.955221;stroke-dasharray:none;stroke-opacity:1;filter:url(#filter5421-3)"
     id="rect1-2-7-5"
     width="13.687567"
     height="13.591975"
     x="1.6227165"
     y="1.6705122"
     rx="2.8442214"
     ry="2.965905"
     transform="matrix(0.43046721,0,0,0.43046721,9.5627021,9.5627021)" />
  <rect
     style="fill:none;fill-opacity:1;stroke:{{colors.primary.default.hex}};stroke-width:0.411191;stroke-dasharray:none;stroke-opacity:1"
     id="rect1-2-3"
     width="5.8920484"
     height="5.8508992"
     x="10.261228"
     y="10.281802"
     rx="1.224344"
     ry="1.2767248" />
  <path
     id="path1"
     style="fill:{{colors.primary.default.hex}};fill-opacity:1;stroke:none;stroke-width:0.0587368;stroke-dasharray:none;stroke-dashoffset:2.2;stroke-opacity:0.6"
     d="m 14.168922,11.656658 c -0.06055,-2.6e-5 -0.125364,0.02435 -0.206481,0.07188 -0.193027,0.1131 -0.445472,0.166438 -0.792145,0.166438 -0.346641,0 -0.607506,-0.05448 -0.799384,-0.16692 -0.153862,-0.09017 -0.245719,-0.09136 -0.374847,-0.0043 -0.331514,0.223407 -0.581361,0.939687 -0.654655,1.875683 -0.04395,0.561277 -0.0029,0.857184 0.142315,1.023712 0.07004,0.08029 0.241969,0.06668 0.397039,-0.03184 0.13145,-0.08351 0.288072,-0.267793 0.475192,-0.559138 0.16909,-0.263274 0.373614,-0.349984 0.825918,-0.350725 0.451405,-6.81e-4 0.628801,0.08471 0.837013,0.404757 0.349331,0.536972 0.672221,0.723915 0.861617,0.498829 0.104925,-0.124694 0.12413,-0.24517 0.119159,-0.746797 -0.0091,-0.911235 -0.247248,-1.740202 -0.590491,-2.056592 -0.09141,-0.08427 -0.162394,-0.124918 -0.24025,-0.124951 z M 12.207851,12.1936 h 0.209374 0.209373 v 0.179464 0.179463 h 0.179465 0.179462 v 0.22433 0.224328 h -0.179462 -0.179465 v 0.194419 0.194419 h -0.189593 c -0.104158,0 -0.197928,-0.0093 -0.208892,-0.02026 -0.01096,-0.01096 -0.02025,-0.098 -0.02025,-0.193935 v -0.174644 h -0.179466 -0.179465 v -0.224328 -0.224329 h 0.179465 0.179463 v -0.179465 z m 1.706832,0 c 0.188883,0 0.269773,0.209278 0.133633,0.345419 -0.08658,0.08657 -0.165598,0.09337 -0.250863,0.02123 -0.147895,-0.125144 -0.0707,-0.366645 0.11723,-0.366645 z m -0.363268,0.383531 c 0.04717,3.2e-5 0.09465,0.01883 0.132184,0.0603 0.05851,0.06466 0.06483,0.212666 0.01207,0.281737 -0.103261,0.135182 -0.351207,0.04823 -0.351207,-0.123018 0,-0.12997 0.103198,-0.219094 0.206961,-0.219022 z m 0.741493,0.0073 c 0.05436,9.9e-4 0.10714,0.019 0.137972,0.05306 0.05851,0.06466 0.06482,0.212666 0.01206,0.281738 -0.109832,0.143783 -0.351209,0.04755 -0.351209,-0.139905 0,-0.05682 0.02277,-0.118403 0.05451,-0.14714 0.03629,-0.03285 0.0923,-0.04875 0.14666,-0.04775 z m -0.365199,0.386906 c 0.167454,0 0.248932,0.177621 0.147622,0.322262 -0.03463,0.04945 -0.07687,0.06657 -0.164026,0.06657 -0.100342,0 -0.123628,-0.01306 -0.164024,-0.09118 -0.07966,-0.154035 0.0073,-0.297659 0.180428,-0.297659 z" />
</svg>
