<?xml version="1.0" encoding="UTF-8" standalone="no"?>
<svg
   width="64"
   height="64"
   version="1.1"
   viewBox="0 0 16.933 16.933"
   id="svg7"
   sodipodi:docname="steam_icon_1184370.svg"
   inkscape:version="1.4.3 (0d15f75042, 2025-12-25)"
   xmlns:inkscape="http://www.inkscape.org/namespaces/inkscape"
   xmlns:sodipodi="http://sodipodi.sourceforge.net/DTD/sodipodi-0.dtd"
   xmlns="http://www.w3.org/2000/svg"
   xmlns:svg="http://www.w3.org/2000/svg"
   xmlns:rdf="http://www.w3.org/1999/02/22-rdf-syntax-ns#"
   xmlns:cc="http://creativecommons.org/ns#"
   xmlns:dc="http://purl.org/dc/elements/1.1/">
  <sodipodi:namedview
     id="namedview7"
     pagecolor="#9c4444"
     bordercolor="#000000"
     borderopacity="0.25"
     inkscape:showpageshadow="2"
     inkscape:pageopacity="0.0"
     inkscape:pagecheckerboard="0"
     inkscape:deskcolor="#d1d1d1"
     inkscape:zoom="4.3531261"
     inkscape:cx="42.957635"
     inkscape:cy="45.025114"
     inkscape:window-width="1226"
     inkscape:window-height="669"
     inkscape:window-x="314"
     inkscape:window-y="198"
     inkscape:window-maximized="0"
     inkscape:current-layer="svg7"
     showgrid="false" />
  <defs
     id="defs2">
    <filter
       style="color-interpolation-filters:sRGB;"
       inkscape:label="Blur"
       id="filter5421"
       x="-0.12256455"
       y="-0.12342654"
       width="1.2451291"
       height="1.2468531">
      <feGaussianBlur
         stdDeviation="0.5 0.5"
         result="blur"
         id="feGaussianBlur5419" />
    </filter>
    <filter
       style="color-interpolation-filters:sRGB"
       inkscape:label="Blur"
       id="filter5421-3"
       x="-0.12256455"
       y="-0.12342654"
       width="1.2451291"
       height="1.2468531">
      <feGaussianBlur
         stdDeviation="0.5 0.5"
         result="blur"
         id="feGaussianBlur5419-6" />
    </filter>
  </defs>
  <metadata
     id="metadata2">
    <rdf:RDF>
      <cc:Work
         rdf:about="">
        <dc:format>image/svg+xml</dc:format>
        <dc:type
           rdf:resource="http://purl.org/dc/dcmitype/StillImage" />
      </cc:Work>
    </rdf:RDF>
  </metadata>
  <rect
     style="opacity:0.3;fill:none;fill-opacity:0.996424;stroke:#000000;stroke-width:0.955221;stroke-dasharray:none;stroke-opacity:1;filter:url(#filter5421)"
     id="rect1-2-7"
     width="13.687567"
     height="13.591975"
     x="1.6227165"
     y="1.6705122"
     rx="2.8442214"
     ry="2.965905" />
  <rect
     style="fill:none;fill-opacity:1;stroke:{{colors.primary.default.hex}};stroke-width:0.955221;stroke-dasharray:none;stroke-opacity:1"
     id="rect1-2"
     width="13.687567"
     height="13.591975"
     x="1.6227167"
     y="1.6705124"
     rx="2.8442214"
     ry="2.965905" />
  <path
     style="fill:{{colors.primary.default.hex}};fill-opacity:1;stroke-width:0.0179492"
     d="M 9.0929301,12.540683 C 9.046454,12.49421 8.5446659,11.071424 8.5533216,11.010664 c 0.00874,-0.06129 0.094152,-0.08194 0.135072,-0.03262 0.030998,0.03736 0.5065197,1.475016 0.5065197,1.531384 0,0.04978 -0.063886,0.06935 -0.1019832,0.03126 z M 7.6966253,11.563141 C 7.472553,11.28343 7.2809056,11.040642 7.2707422,11.023612 c -0.021145,-0.03543 0.024274,-0.100663 0.070085,-0.100663 0.03875,0 0.8489223,1.060563 0.8489223,1.111288 0,0.11217 -0.1102668,0.0068 -0.4931251,-0.471094 z m 1.49067,0.15556 c -0.025269,-0.04344 -0.2556397,-0.80418 -0.2556397,-0.844191 0,-0.05393 0.04347,-0.08519 0.074848,-0.05381 0.021353,0.02136 0.2602082,0.840302 0.2602082,0.892158 0,0.02766 -0.063987,0.03237 -0.079416,0.0058 z M 7.1486885,10.761607 C 7.038784,10.741737 6.9773176,10.680494 6.7232769,10.337766 6.5764523,10.139684 6.3923534,9.8968424 6.3141689,9.7981231 6.0515921,9.4665758 6.0333426,9.358582 6.1756885,8.9786612 6.409753,8.3539439 6.4259949,8.2969802 6.4124984,8.1481337 l -0.012743,-0.140519 0.111209,-0.00932 c 0.061165,-0.00514 0.1148629,-5.501e-4 0.1193287,0.010174 0.027883,0.067007 0.08848,0.09452 0.1769994,0.080366 0.1586037,-0.025363 0.2686438,-0.08946 0.2769643,-0.1613334 0.00638,-0.055111 0.032816,-0.073896 0.1973347,-0.1402126 l 0.1899679,-0.076576 0.069097,0.073969 c 0.065285,0.069888 0.1628551,0.1228936 0.2258494,0.1226951 0.015597,-5.39e-5 -0.0048,-0.020316 -0.045356,-0.04504 C 7.6451694,7.8159958 7.5842931,7.7119677 7.5568664,7.5815918 7.5436265,7.5186551 7.5734589,7.4446186 7.7480149,7.1071994 7.9438691,6.7286113 7.9525098,6.7055875 7.9107564,6.6735728 7.8865043,6.6549781 7.7868858,6.5839348 7.6893816,6.5157001 L 7.5121018,6.3916372 7.5282793,6.5332871 c 0.0089,0.077908 0.038676,0.2323373 0.066173,0.3431767 l 0.049995,0.2015269 -0.104285,0.2096404 -0.1042849,0.2096402 -0.1729646,0.073465 c -0.2052975,0.087198 -0.2144474,0.087998 -0.266817,0.023323 l -0.040601,-0.05014 -0.1905932,0.057813 c -0.1688634,0.051222 -0.1914293,0.064839 -0.1979235,0.1194228 -0.00633,0.053146 -0.022239,0.063844 -0.1158724,0.077885 -0.059699,0.00895 -0.113249,0.011571 -0.1190012,0.00582 C 6.3263505,7.7991038 6.2786242,7.6890705 6.2260433,7.5603363 6.1734622,7.4316019 6.0875794,7.2443399 6.035193,7.1441988 5.9237978,6.9312576 5.3757655,6.2616734 4.8020253,5.6375176 4.1696534,4.9495786 4.0813035,4.829175 4.1072771,4.6907202 4.1312404,4.5629967 4.2260086,4.4851536 4.3578365,4.4849143 c 0.1099343,-1.928e-4 0.1115107,9.639e-4 0.3615095,0.2692396 0.9664041,1.0370165 1.1088062,1.149274 1.4578907,1.149274 0.2445431,0 0.434815,-0.083625 0.6187172,-0.2719256 l 0.1259159,-0.1289277 0.1895715,-0.00861 c 0.1304273,-0.00592 0.2256982,0.00339 0.3053664,0.029851 0.2029511,0.067409 1.0824402,0.782572 1.1695534,0.9510302 0.058973,0.1140416 0.042266,0.2417459 -0.056538,0.4321398 C 8.4170426,7.1243139 8.0618781,7.682725 7.9837099,7.7656192 l -0.058078,0.061589 0.047714,0.1179045 c 0.057461,0.1419936 0.5996567,1.5380489 0.7810237,2.0109991 0.1587732,0.4140282 0.1657583,0.5044982 0.048049,0.6222062 -0.068241,0.06825 -0.098613,0.08136 -0.188232,0.08136 -0.071411,0 -0.1275051,-0.01623 -0.1690873,-0.04894 C 8.405034,10.579226 8.2114355,10.222142 7.9014565,9.6080133 7.6366764,9.0834338 7.3989506,8.631597 7.373177,8.6039321 7.347404,8.5762681 7.311848,8.5536331 7.294164,8.5536331 c -0.017682,0 -0.1296277,0.1728953 -0.2487656,0.3842113 L 6.8287844,9.3220558 7.062048,9.7096659 c 0.3395469,0.5642201 0.4097266,0.6957711 0.4097266,0.7680341 0,0.07233 -0.050353,0.182261 -0.1037988,0.226619 -0.046475,0.03858 -0.1595004,0.06809 -0.2192894,0.05729 z M 9.6104249,9.2236972 C 9.3530376,9.1860075 9.018267,9.0508672 8.6780916,8.8473332 L 8.527215,8.7570604 8.3578278,8.3171415 8.1884409,7.8772222 8.3771702,7.5872014 C 8.7535861,7.0087624 8.8403014,6.8324165 8.8434134,6.6390379 8.8478991,6.3602625 8.6771878,6.1575552 8.0159386,5.6564783 7.8084584,5.4992552 7.6508682,5.3706181 7.6657385,5.3706181 c 0.02352,0 1.4825766,0.4876267 3.7484885,1.2527704 1.024188,0.3458431 1.296731,0.4719962 1.383906,0.6405741 0.0976,0.1887248 -0.0027,0.263975 -0.712293,0.5340368 l -0.232263,0.088404 0.108624,0.1040791 c 0.09237,0.088502 0.104842,0.1111378 0.08339,0.1512442 -0.05336,0.099712 -0.326887,0.1635012 -1.047017,0.2441795 -0.594885,0.066647 -0.863999,0.1388528 -1.0078975,0.2704299 -0.073899,0.067571 -0.068182,0.1688734 0.018381,0.3259234 0.03925,0.071208 0.07137,0.1495544 0.07137,0.1741026 0,0.084867 -0.1770479,0.1102328 -0.4699947,0.067335 z M 6.0358289,5.5873915 C 5.6381021,5.507088 5.4202032,5.0628294 5.6028978,4.7047174 5.7120107,4.4908401 5.9925162,4.342759 6.2230568,4.3773298 6.5289902,4.4232077 6.7520852,4.6687879 6.7532771,4.9609894 6.7540472,5.1472262 6.7108713,5.2642238 6.5930562,5.3952632 6.4517387,5.5524423 6.2342081,5.6274453 6.0358289,5.5873915 Z"
     id="path1-4" />
  <rect
     style="opacity:0.3;fill:none;fill-opacity:0.996424;stroke:#000000;stroke-width:0.955221;stroke-dasharray:none;stroke-opacity:1;filter:url(#filter5421-3)"
     id="rect1-2-7-5"
     width="13.687567"
     height="13.591975"
     x="1.6227165"
     y="1.6705122"
     rx="2.8442214"
     ry="2.965905"
     transform="matrix(0.43046721,0,0,0.43046721,9.5627021,9.5627021)" />
  <rect
     style="fill:none;fill-opacity:1;stroke:{{colors.primary.default.hex}};stroke-width:0.411191;stroke-dasharray:none;stroke-opacity:1"
     id="rect1-2-3"
     width="5.8920484"
     height="5.8508992"
     x="10.261228"
     y="10.281802"
     rx="1.224344"
     ry="1.2767248" />
  <path
     id="path1"
     style="fill:{{colors.primary.default.hex}};fill-opacity:1;stroke:none;stroke-width:0.0587368;stroke-dasharray:none;stroke-dashoffset:2.2;stroke-opacity:0.6"
     d="m 14.168922,11.656658 c -0.06055,-2.6e-5 -0.125364,0.02435 -0.206481,0.07188 -0.193027,0.1131 -0.445472,0.166438 -0.792145,0.166438 -0.346641,0 -0.607506,-0.05448 -0.799384,-0.16692 -0.153862,-0.09017 -0.245719,-0.09136 -0.374847,-0.0043 -0.331514,0.223407 -0.581361,0.939687 -0.654655,1.875683 -0.04395,0.561277 -0.0029,0.857184 0.142315,1.023712 0.07004,0.08029 0.241969,0.06668 0.397039,-0.03184 0.13145,-0.08351 0.288072,-0.267793 0.475192,-0.559138 0.16909,-0.263274 0.373614,-0.349984 0.825918,-0.350725 0.451405,-6.81e-4 0.628801,0.08471 0.837013,0.404757 0.349331,0.536972 0.672221,0.723915 0.861617,0.498829 0.104925,-0.124694 0.12413,-0.24517 0.119159,-0.746797 -0.0091,-0.911235 -0.247248,-1.740202 -0.590491,-2.056592 -0.09141,-0.08427 -0.162394,-0.124918 -0.24025,-0.124951 z M 12.207851,12.1936 h 0.209374 0.209373 v 0.179464 0.179463 h 0.179465 0.179462 v 0.22433 0.224328 h -0.179462 -0.179465 v 0.194419 0.194419 h -0.189593 c -0.104158,0 -0.197928,-0.0093 -0.208892,-0.02026 -0.01096,-0.01096 -0.02025,-0.098 -0.02025,-0.193935 v -0.174644 h -0.179466 -0.179465 v -0.224328 -0.224329 h 0.179465 0.179463 v -0.179465 z m 1.706832,0 c 0.188883,0 0.269773,0.209278 0.133633,0.345419 -0.08658,0.08657 -0.165598,0.09337 -0.250863,0.02123 -0.147895,-0.125144 -0.0707,-0.366645 0.11723,-0.366645 z m -0.363268,0.383531 c 0.04717,3.2e-5 0.09465,0.01883 0.132184,0.0603 0.05851,0.06466 0.06483,0.212666 0.01207,0.281737 -0.103261,0.135182 -0.351207,0.04823 -0.351207,-0.123018 0,-0.12997 0.103198,-0.219094 0.206961,-0.219022 z m 0.741493,0.0073 c 0.05436,9.9e-4 0.10714,0.019 0.137972,0.05306 0.05851,0.06466 0.06482,0.212666 0.01206,0.281738 -0.109832,0.143783 -0.351209,0.04755 -0.351209,-0.139905 0,-0.05682 0.02277,-0.118403 0.05451,-0.14714 0.03629,-0.03285 0.0923,-0.04875 0.14666,-0.04775 z m -0.365199,0.386906 c 0.167454,0 0.248932,0.177621 0.147622,0.322262 -0.03463,0.04945 -0.07687,0.06657 -0.164026,0.06657 -0.100342,0 -0.123628,-0.01306 -0.164024,-0.09118 -0.07966,-0.154035 0.0073,-0.297659 0.180428,-0.297659 z" />
</svg>
