<?xml version="1.0" encoding="UTF-8" standalone="no"?>
<svg
   width="64"
   height="64"
   version="1.1"
   viewBox="0 0 16.933 16.933"
   id="svg7"
   sodipodi:docname="steam_icon_200510.svg"
   inkscape:version="1.4.3 (0d15f75042, 2025-12-25)"
   xmlns:inkscape="http://www.inkscape.org/namespaces/inkscape"
   xmlns:sodipodi="http://sodipodi.sourceforge.net/DTD/sodipodi-0.dtd"
   xmlns="http://www.w3.org/2000/svg"
   xmlns:svg="http://www.w3.org/2000/svg"
   xmlns:rdf="http://www.w3.org/1999/02/22-rdf-syntax-ns#"
   xmlns:cc="http://creativecommons.org/ns#"
   xmlns:dc="http://purl.org/dc/elements/1.1/">
  <sodipodi:namedview
     id="namedview7"
     pagecolor="#9c4444"
     bordercolor="#000000"
     borderopacity="0.25"
     inkscape:showpageshadow="2"
     inkscape:pageopacity="0.0"
     inkscape:pagecheckerboard="0"
     inkscape:deskcolor="#d1d1d1"
     inkscape:zoom="4.3531261"
     inkscape:cx="43.187354"
     inkscape:cy="45.254834"
     inkscape:window-width="1226"
     inkscape:window-height="669"
     inkscape:window-x="314"
     inkscape:window-y="198"
     inkscape:window-maximized="0"
     inkscape:current-layer="svg7"
     showgrid="false" />
  <defs
     id="defs2">
    <filter
       style="color-interpolation-filters:sRGB;"
       inkscape:label="Blur"
       id="filter5421"
       x="-0.12256455"
       y="-0.12342654"
       width="1.2451291"
       height="1.2468531">
      <feGaussianBlur
         stdDeviation="0.5 0.5"
         result="blur"
         id="feGaussianBlur5419" />
    </filter>
    <filter
       style="color-interpolation-filters:sRGB"
       inkscape:label="Blur"
       id="filter5421-3"
       x="-0.12256455"
       y="-0.12342654"
       width="1.2451291"
       height="1.2468531">
      <feGaussianBlur
         stdDeviation="0.5 0.5"
         result="blur"
         id="feGaussianBlur5419-6" />
    </filter>
  </defs>
  <metadata
     id="metadata2">
    <rdf:RDF>
      <cc:Work
         rdf:about="">
        <dc:format>image/svg+xml</dc:format>
        <dc:type
           rdf:resource="http://purl.org/dc/dcmitype/StillImage" />
      </cc:Work>
    </rdf:RDF>
  </metadata>
  <rect
     style="opacity:0.3;fill:none;fill-opacity:0.996424;stroke:#000000;stroke-width:0.955221;stroke-dasharray:none;stroke-opacity:1;filter:url(#filter5421)"
     id="rect1-2-7"
     width="13.687567"
     height="13.591975"
     x="1.6227165"
     y="1.6705122"
     rx="2.8442214"
     ry="2.965905" />
  <rect
     style="fill:none;fill-opacity:1;stroke:{{colors.primary.default.hex}};stroke-width:0.955221;stroke-dasharray:none;stroke-opacity:1"
     id="rect1-2"
     width="13.687567"
     height="13.591975"
     x="1.6227167"
     y="1.6705124"
     rx="2.8442214"
     ry="2.965905" />
  <path
     style="fill:{{colors.primary.default.hex}};fill-opacity:1;stroke-width:0.0291526"
     d="M 7.7438429,12.486151 C 7.5906502,12.458354 7.345773,12.396262 7.1996717,12.348171 6.8387092,12.229349 6.2926881,11.957709 6.2926881,11.896954 c 0,-0.02721 0.050527,-0.135171 0.112282,-0.239908 L 6.5172523,11.466617 6.2827001,11.29581 C 4.994817,10.35795 4.5322555,8.3795382 5.2569355,6.9085368 5.5163408,6.3819791 5.9421545,5.8673727 6.3514868,5.5857452 L 6.523785,5.4672007 6.4043948,5.2731664 C 6.3387114,5.1664174 6.2953246,5.0522383 6.3079463,5.0193472 6.3439289,4.925578 7.0299257,4.6200577 7.4354834,4.5171793 8.1475862,4.3365402 8.9017489,4.350805 9.622972,4.5585557 c 0.382425,0.1101598 0.977705,0.382285 1.007796,0.4607046 0.01075,0.027997 -0.03321,0.1403753 -0.09769,0.2497265 l -0.117228,0.1988207 0.171858,0.1182412 c 0.464591,0.3196472 0.974696,0.9752023 1.186795,1.5251962 0.201303,0.5219955 0.248145,0.7774726 0.244172,1.3317407 -0.0056,0.7777951 -0.162434,1.3440067 -0.540953,1.9526144 -0.19967,0.321043 -0.63453,0.785305 -0.900325,0.961201 l -0.160789,0.106404 0.114728,0.203286 c 0.06309,0.111809 0.114728,0.219899 0.114728,0.240207 0,0.04984 -0.538109,0.314145 -0.8745597,0.429566 -0.5845074,0.200517 -1.4116496,0.261661 -2.0276564,0.149887 z m 1.6618635,-0.421927 c 0.183622,-0.05477 0.4244655,-0.139843 0.5352107,-0.189037 L 10.14227,11.785754 9.3299793,10.37369 C 8.8832202,9.5970495 8.5024449,8.9463762 8.4838137,8.9277444 8.4645595,8.9084898 8.097632,9.5060569 7.6336816,10.312246 7.1847403,11.092351 6.8124768,11.744751 6.806429,11.762022 c -0.01409,0.04025 0.3716606,0.212126 0.6652006,0.296398 0.3884634,0.111523 0.5735111,0.131508 1.0949177,0.118251 0.403086,-0.01023 0.5728375,-0.033 0.8391591,-0.112447 z M 7.4587814,9.8228485 C 7.8707968,9.10668 8.2084274,8.5026886 8.2090721,8.4806454 8.2100103,8.4484508 6.7472333,5.8765875 6.6980652,5.8239898 6.6904842,5.8158768 6.5735121,5.8991149 6.438129,6.008957 5.5961714,6.6920749 5.132636,7.8350964 5.2786122,8.8681834 c 0.090928,0.643504 0.3877616,1.2793156 0.8111827,1.7375356 0.2051218,0.221979 0.5899409,0.556028 0.6108869,0.53029 0.00495,-0.006 0.3460849,-0.59699 0.7580996,-1.3131605 z M 10.743233,10.695518 C 11.967984,9.4522198 11.959441,7.4952677 10.723798,6.2426645 10.20306,5.7147795 10.338332,5.6238145 9.5174114,7.0539183 9.1279494,7.7323926 8.7831076,8.3329175 8.7510964,8.3884176 8.6892129,8.4957121 8.7167111,8.5478671 9.994157,10.746068 l 0.231571,0.398484 0.122709,-0.08641 c 0.0675,-0.04754 0.245149,-0.210705 0.394796,-0.362619 z M 9.3205791,6.5966894 10.137681,5.177957 9.9736151,5.0944857 C 9.322456,4.7632018 8.4011297,4.6704308 7.6531167,4.8608279 7.2463777,4.9643583 6.8174248,5.1317501 6.8174248,5.1869425 c 0,0.070054 1.6331502,2.8792931 1.6592834,2.8541917 0.014723,-0.014142 0.3944652,-0.664142 0.8438709,-1.4444448 z"
     id="path1-6" />
  <rect
     style="opacity:0.3;fill:none;fill-opacity:0.996424;stroke:#000000;stroke-width:0.955221;stroke-dasharray:none;stroke-opacity:1;filter:url(#filter5421-3)"
     id="rect1-2-7-5"
     width="13.687567"
     height="13.591975"
     x="1.6227165"
     y="1.6705122"
     rx="2.8442214"
     ry="2.965905"
     transform="matrix(0.43046721,0,0,0.43046721,9.5627021,9.5627021)" />
  <rect
     style="fill:none;fill-opacity:1;stroke:{{colors.primary.default.hex}};stroke-width:0.411191;stroke-dasharray:none;stroke-opacity:1"
     id="rect1-2-3"
     width="5.8920484"
     height="5.8508992"
     x="10.261228"
     y="10.281802"
     rx="1.224344"
     ry="1.2767248" />
  <path
     id="path1"
     style="fill:{{colors.primary.default.hex}};fill-opacity:1;stroke:none;stroke-width:0.0587368;stroke-dasharray:none;stroke-dashoffset:2.2;stroke-opacity:0.6"
     d="m 14.168922,11.656658 c -0.06055,-2.6e-5 -0.125364,0.02435 -0.206481,0.07188 -0.193027,0.1131 -0.445472,0.166438 -0.792145,0.166438 -0.346641,0 -0.607506,-0.05448 -0.799384,-0.16692 -0.153862,-0.09017 -0.245719,-0.09136 -0.374847,-0.0043 -0.331514,0.223407 -0.581361,0.939687 -0.654655,1.875683 -0.04395,0.561277 -0.0029,0.857184 0.142315,1.023712 0.07004,0.08029 0.241969,0.06668 0.397039,-0.03184 0.13145,-0.08351 0.288072,-0.267793 0.475192,-0.559138 0.16909,-0.263274 0.373614,-0.349984 0.825918,-0.350725 0.451405,-6.81e-4 0.628801,0.08471 0.837013,0.404757 0.349331,0.536972 0.672221,0.723915 0.861617,0.498829 0.104925,-0.124694 0.12413,-0.24517 0.119159,-0.746797 -0.0091,-0.911235 -0.247248,-1.740202 -0.590491,-2.056592 -0.09141,-0.08427 -0.162394,-0.124918 -0.24025,-0.124951 z M 12.207851,12.1936 h 0.209374 0.209373 v 0.179464 0.179463 h 0.179465 0.179462 v 0.22433 0.224328 h -0.179462 -0.179465 v 0.194419 0.194419 h -0.189593 c -0.104158,0 -0.197928,-0.0093 -0.208892,-0.02026 -0.01096,-0.01096 -0.02025,-0.098 -0.02025,-0.193935 v -0.174644 h -0.179466 -0.179465 v -0.224328 -0.224329 h 0.179465 0.179463 v -0.179465 z m 1.706832,0 c 0.188883,0 0.269773,0.209278 0.133633,0.345419 -0.08658,0.08657 -0.165598,0.09337 -0.250863,0.02123 -0.147895,-0.125144 -0.0707,-0.366645 0.11723,-0.366645 z m -0.363268,0.383531 c 0.04717,3.2e-5 0.09465,0.01883 0.132184,0.0603 0.05851,0.06466 0.06483,0.212666 0.01207,0.281737 -0.103261,0.135182 -0.351207,0.04823 -0.351207,-0.123018 0,-0.12997 0.103198,-0.219094 0.206961,-0.219022 z m 0.741493,0.0073 c 0.05436,9.9e-4 0.10714,0.019 0.137972,0.05306 0.05851,0.06466 0.06482,0.212666 0.01206,0.281738 -0.109832,0.143783 -0.351209,0.04755 -0.351209,-0.139905 0,-0.05682 0.02277,-0.118403 0.05451,-0.14714 0.03629,-0.03285 0.0923,-0.04875 0.14666,-0.04775 z m -0.365199,0.386906 c 0.167454,0 0.248932,0.177621 0.147622,0.322262 -0.03463,0.04945 -0.07687,0.06657 -0.164026,0.06657 -0.100342,0 -0.123628,-0.01306 -0.164024,-0.09118 -0.07966,-0.154035 0.0073,-0.297659 0.180428,-0.297659 z" />
</svg>
