<?xml version="1.0" encoding="UTF-8" standalone="no"?>
<svg
   width="64"
   height="64"
   version="1.1"
   viewBox="0 0 16.933 16.933"
   id="svg7"
   sodipodi:docname="steam_icon_1184370.svg"
   inkscape:version="1.4.3 (0d15f75042, 2025-12-25)"
   xmlns:inkscape="http://www.inkscape.org/namespaces/inkscape"
   xmlns:sodipodi="http://sodipodi.sourceforge.net/DTD/sodipodi-0.dtd"
   xmlns="http://www.w3.org/2000/svg"
   xmlns:svg="http://www.w3.org/2000/svg"
   xmlns:rdf="http://www.w3.org/1999/02/22-rdf-syntax-ns#"
   xmlns:cc="http://creativecommons.org/ns#"
   xmlns:dc="http://purl.org/dc/elements/1.1/">
  <sodipodi:namedview
     id="namedview7"
     pagecolor="#9c4444"
     bordercolor="#000000"
     borderopacity="0.25"
     inkscape:showpageshadow="2"
     inkscape:pageopacity="0.0"
     inkscape:pagecheckerboard="0"
     inkscape:deskcolor="#d1d1d1"
     inkscape:zoom="4.3531261"
     inkscape:cx="42.957635"
     inkscape:cy="45.025114"
     inkscape:window-width="1226"
     inkscape:window-height="669"
     inkscape:window-x="314"
     inkscape:window-y="198"
     inkscape:window-maximized="0"
     inkscape:current-layer="svg7"
     showgrid="false" />
  <defs
     id="defs2">
    <filter
       style="color-interpolation-filters:sRGB;"
       inkscape:label="Blur"
       id="filter5421"
       x="-0.12256455"
       y="-0.12342654"
       width="1.2451291"
       height="1.2468531">
      <feGaussianBlur
         stdDeviation="0.5 0.5"
         result="blur"
         id="feGaussianBlur5419" />
    </filter>
    <filter
       style="color-interpolation-filters:sRGB"
       inkscape:label="Blur"
       id="filter5421-3"
       x="-0.12256455"
       y="-0.12342654"
       width="1.2451291"
       height="1.2468531">
      <feGaussianBlur
         stdDeviation="0.5 0.5"
         result="blur"
         id="feGaussianBlur5419-6" />
    </filter>
  </defs>
  <metadata
     id="metadata2">
    <rdf:RDF>
      <cc:Work
         rdf:about="">
        <dc:format>image/svg+xml</dc:format>
        <dc:type
           rdf:resource="http://purl.org/dc/dcmitype/StillImage" />
      </cc:Work>
    </rdf:RDF>
  </metadata>
  <rect
     style="opacity:0.3;fill:none;fill-opacity:0.996424;stroke:#000000;stroke-width:0.955221;stroke-dasharray:none;stroke-opacity:1;filter:url(#filter5421)"
     id="rect1-2-7"
     width="13.687567"
     height="13.591975"
     x="1.6227165"
     y="1.6705122"
     rx="2.8442214"
     ry="2.965905" />
  <rect
     style="fill:none;fill-opacity:1;stroke:{{colors.primary.default.hex}};stroke-width:0.955221;stroke-dasharray:none;stroke-opacity:1"
     id="rect1-2"
     width="13.687567"
     height="13.591975"
     x="1.6227167"
     y="1.6705124"
     rx="2.8442214"
     ry="2.965905" />
  <path
     style="fill:{{colors.primary.default.hex}};fill-opacity:1;stroke:none;stroke-width:0.12836;stroke-dasharray:none;stroke-opacity:0.6"
     d="m 7.5664784,12.318908 -0.482521,-0.661454 0.013679,-0.731518 0.013682,-0.731519 0.4811817,-0.01411 0.4811817,-0.01411 v 1.408315 c 0,0.774575 -0.00555,1.407768 -0.01234,1.407095 -0.00679,-6.4e-4 -0.2294731,-0.298871 -0.4948597,-0.662672 z M 8.813955,11.586141 v -1.4164 h 0.4935196 0.4935195 v 0.747339 0.747337 L 9.3488098,12.286594 C 9.1001077,12.628793 8.8780243,12.92987 8.85529,12.955659 8.8325543,12.981457 8.8139539,12.365165 8.813955,11.586141 Z M 5.8528384,9.4175098 C 5.7385701,9.3576111 5.7284004,9.322862 5.7151248,8.9469821 L 5.7007913,8.5411293 h 0.2535185 0.2535191 l -0.017095,0.2467903 -0.017095,0.2467901 0.1850697,-3.06e-5 c 0.1849726,-3e-5 0.1850692,-4.365e-4 0.1850692,-0.2108654 0,-0.1989464 -0.023652,-0.2343689 -0.4194919,-0.6281467 L 5.7047864,7.7783535 V 7.3736354 c 0,-0.5474487 0.014747,-0.5598242 0.6669784,-0.5598242 0.6255311,0 0.6655244,0.033283 0.6655244,0.5538525 V 7.702146 H 6.7905233 6.5437629 V 7.4553871 7.2086271 H 6.3554641 6.1671653 l 0.010166,0.2096364 c 0.0094,0.1939286 0.041083,0.2389673 0.4227239,0.6010812 l 0.4125536,0.3914442 0.01587,0.4229727 C 7.05065,9.4248567 7.0270237,9.4501903 6.436754,9.4681603 6.1278117,9.4775695 5.9356061,9.4608698 5.852839,9.4175078 Z M 7.3827488,8.1463129 V 6.8138112 H 7.6048322 7.8269159 V 8.1463129 9.4788163 H 7.6048322 7.3827488 Z m 0.7896309,0 V 6.8138112 H 8.3887722 8.605165 l 0.2493628,0.6292372 0.2493633,0.6292377 0.00308,-0.6292377 0.00308,-0.6292372 H 9.3321259 9.5542105 V 8.1463129 9.4788163 H 9.3627408 9.17125 L 8.9204945,8.8249016 8.6697374,8.1709895 8.6678457,8.8249016 8.6659248,9.4788163 H 8.419175 8.1724161 Z m 1.9247243,1.300538 C 9.9459041,9.3881501 9.8996984,9.2605789 9.8996984,8.9018364 V 8.5411293 h 0.2467606 0.246759 v 0.246758 0.2467618 h 0.185426 0.185424 L 10.746361,8.8120506 C 10.730038,8.6067827 10.696391,8.5576872 10.314178,8.1814482 L 9.8996998,7.7734411 V 7.4033109 c 0,-0.5608649 0.032343,-0.5894997 0.6655252,-0.5894997 0.644635,0 0.666977,0.01748 0.666977,0.5217209 V 7.702146 h -0.253037 -0.253039 l 0.02371,-0.2467589 0.02372,-0.24676 H 10.58339 10.393227 v 0.2150753 c 0,0.2062528 0.01721,0.2311526 0.419491,0.6070596 l 0.419491,0.3919876 v 0.4479616 c 0,0.3561937 -0.01672,0.461838 -0.08149,0.5156968 -0.08415,0.069926 -0.907497,0.1171606 -1.053598,0.060442 z M 7.0866375,5.0371419 V 3.9513988 H 7.5801562 8.073676 V 5.0371419 6.1228843 H 7.5801562 7.0866375 Z m 1.7273175,0 V 3.9513988 H 9.3074746 9.8009941 V 5.0371419 6.1228843 H 9.3074746 8.813955 Z"
     id="path1-9"
     sodipodi:nodetypes="ccccccscccscccccssscscccccssscssscccccccsscssccccccccccccccccccccccccccccccccssccccccccccssscccccccsscscsscccccccccccccccccc" />
  <rect
     style="opacity:0.3;fill:none;fill-opacity:0.996424;stroke:#000000;stroke-width:0.955221;stroke-dasharray:none;stroke-opacity:1;filter:url(#filter5421-3)"
     id="rect1-2-7-5"
     width="13.687567"
     height="13.591975"
     x="1.6227165"
     y="1.6705122"
     rx="2.8442214"
     ry="2.965905"
     transform="matrix(0.43046721,0,0,0.43046721,9.5627021,9.5627021)" />
  <rect
     style="fill:none;fill-opacity:1;stroke:{{colors.primary.default.hex}};stroke-width:0.411191;stroke-dasharray:none;stroke-opacity:1"
     id="rect1-2-3"
     width="5.8920484"
     height="5.8508992"
     x="10.261228"
     y="10.281802"
     rx="1.224344"
     ry="1.2767248" />
  <path
     id="path1"
     style="fill:{{colors.primary.default.hex}};fill-opacity:1;stroke:none;stroke-width:0.0587368;stroke-dasharray:none;stroke-dashoffset:2.2;stroke-opacity:0.6"
     d="m 14.168922,11.656658 c -0.06055,-2.6e-5 -0.125364,0.02435 -0.206481,0.07188 -0.193027,0.1131 -0.445472,0.166438 -0.792145,0.166438 -0.346641,0 -0.607506,-0.05448 -0.799384,-0.16692 -0.153862,-0.09017 -0.245719,-0.09136 -0.374847,-0.0043 -0.331514,0.223407 -0.581361,0.939687 -0.654655,1.875683 -0.04395,0.561277 -0.0029,0.857184 0.142315,1.023712 0.07004,0.08029 0.241969,0.06668 0.397039,-0.03184 0.13145,-0.08351 0.288072,-0.267793 0.475192,-0.559138 0.16909,-0.263274 0.373614,-0.349984 0.825918,-0.350725 0.451405,-6.81e-4 0.628801,0.08471 0.837013,0.404757 0.349331,0.536972 0.672221,0.723915 0.861617,0.498829 0.104925,-0.124694 0.12413,-0.24517 0.119159,-0.746797 -0.0091,-0.911235 -0.247248,-1.740202 -0.590491,-2.056592 -0.09141,-0.08427 -0.162394,-0.124918 -0.24025,-0.124951 z M 12.207851,12.1936 h 0.209374 0.209373 v 0.179464 0.179463 h 0.179465 0.179462 v 0.22433 0.224328 h -0.179462 -0.179465 v 0.194419 0.194419 h -0.189593 c -0.104158,0 -0.197928,-0.0093 -0.208892,-0.02026 -0.01096,-0.01096 -0.02025,-0.098 -0.02025,-0.193935 v -0.174644 h -0.179466 -0.179465 v -0.224328 -0.224329 h 0.179465 0.179463 v -0.179465 z m 1.706832,0 c 0.188883,0 0.269773,0.209278 0.133633,0.345419 -0.08658,0.08657 -0.165598,0.09337 -0.250863,0.02123 -0.147895,-0.125144 -0.0707,-0.366645 0.11723,-0.366645 z m -0.363268,0.383531 c 0.04717,3.2e-5 0.09465,0.01883 0.132184,0.0603 0.05851,0.06466 0.06483,0.212666 0.01207,0.281737 -0.103261,0.135182 -0.351207,0.04823 -0.351207,-0.123018 0,-0.12997 0.103198,-0.219094 0.206961,-0.219022 z m 0.741493,0.0073 c 0.05436,9.9e-4 0.10714,0.019 0.137972,0.05306 0.05851,0.06466 0.06482,0.212666 0.01206,0.281738 -0.109832,0.143783 -0.351209,0.04755 -0.351209,-0.139905 0,-0.05682 0.02277,-0.118403 0.05451,-0.14714 0.03629,-0.03285 0.0923,-0.04875 0.14666,-0.04775 z m -0.365199,0.386906 c 0.167454,0 0.248932,0.177621 0.147622,0.322262 -0.03463,0.04945 -0.07687,0.06657 -0.164026,0.06657 -0.100342,0 -0.123628,-0.01306 -0.164024,-0.09118 -0.07966,-0.154035 0.0073,-0.297659 0.180428,-0.297659 z" />
</svg>
