<?xml version="1.0" encoding="UTF-8" standalone="no"?>
<svg
   width="64"
   height="64"
   version="1.1"
   viewBox="0 0 16.933 16.933"
   id="svg7"
   sodipodi:docname="steam_icon_1184370.svg"
   inkscape:version="1.4.3 (0d15f75042, 2025-12-25)"
   xmlns:inkscape="http://www.inkscape.org/namespaces/inkscape"
   xmlns:sodipodi="http://sodipodi.sourceforge.net/DTD/sodipodi-0.dtd"
   xmlns="http://www.w3.org/2000/svg"
   xmlns:svg="http://www.w3.org/2000/svg"
   xmlns:rdf="http://www.w3.org/1999/02/22-rdf-syntax-ns#"
   xmlns:cc="http://creativecommons.org/ns#"
   xmlns:dc="http://purl.org/dc/elements/1.1/">
  <sodipodi:namedview
     id="namedview7"
     pagecolor="#9c4444"
     bordercolor="#000000"
     borderopacity="0.25"
     inkscape:showpageshadow="2"
     inkscape:pageopacity="0.0"
     inkscape:pagecheckerboard="0"
     inkscape:deskcolor="#d1d1d1"
     inkscape:zoom="4.3531261"
     inkscape:cx="42.957635"
     inkscape:cy="45.025114"
     inkscape:window-width="1226"
     inkscape:window-height="669"
     inkscape:window-x="314"
     inkscape:window-y="198"
     inkscape:window-maximized="0"
     inkscape:current-layer="svg7"
     showgrid="false" />
  <defs
     id="defs2">
    <filter
       style="color-interpolation-filters:sRGB;"
       inkscape:label="Blur"
       id="filter5421"
       x="-0.12256455"
       y="-0.12342654"
       width="1.2451291"
       height="1.2468531">
      <feGaussianBlur
         stdDeviation="0.5 0.5"
         result="blur"
         id="feGaussianBlur5419" />
    </filter>
    <filter
       style="color-interpolation-filters:sRGB"
       inkscape:label="Blur"
       id="filter5421-3"
       x="-0.12256455"
       y="-0.12342654"
       width="1.2451291"
       height="1.2468531">
      <feGaussianBlur
         stdDeviation="0.5 0.5"
         result="blur"
         id="feGaussianBlur5419-6" />
    </filter>
  </defs>
  <metadata
     id="metadata2">
    <rdf:RDF>
      <cc:Work
         rdf:about="">
        <dc:format>image/svg+xml</dc:format>
        <dc:type
           rdf:resource="http://purl.org/dc/dcmitype/StillImage" />
      </cc:Work>
    </rdf:RDF>
  </metadata>
  <rect
     style="opacity:0.3;fill:none;fill-opacity:0.996424;stroke:#000000;stroke-width:0.955221;stroke-dasharray:none;stroke-opacity:1;filter:url(#filter5421)"
     id="rect1-2-7"
     width="13.687567"
     height="13.591975"
     x="1.6227165"
     y="1.6705122"
     rx="2.8442214"
     ry="2.965905" />
  <rect
     style="fill:none;fill-opacity:1;stroke:{{colors.primary.default.hex}};stroke-width:0.955221;stroke-dasharray:none;stroke-opacity:1"
     id="rect1-2"
     width="13.687567"
     height="13.591975"
     x="1.6227167"
     y="1.6705124"
     rx="2.8442214"
     ry="2.965905" />
  <path
     style="fill:{{colors.primary.default.hex}};fill-opacity:1;stroke-width:0.0131214"
     d="M 7.8092938,11.356798 C 7.0678573,11.313611 6.3407176,11.209489 5.960506,11.092054 5.7633612,11.031164 5.6048957,10.846272 5.6048957,10.677143 c 0,-0.06362 0.010395,-0.08406 0.076234,-0.149898 0.041929,-0.04194 0.1049107,-0.0866 0.139962,-0.09928 l 0.063729,-0.02305 V 10.122381 9.8398391 L 5.8006568,9.7875206 C 5.6708773,9.7068457 5.6225446,9.5678298 5.6833751,9.4501955 5.7131384,9.3926408 5.7941994,9.3579005 6.1140095,9.2656415 7.1198923,8.9754646 8.6936382,8.9047474 9.9770949,9.0920519 c 0.3901291,0.056934 0.8560791,0.1686737 1.1259231,0.2700066 0.07255,0.027247 0.108138,0.05197 0.126841,0.088137 0.06083,0.1176343 0.0125,0.2566502 -0.117283,0.3373257 l -0.08416,0.052317 v 0.2756378 0.275639 l 0.0935,0.05278 c 0.133066,0.0751 0.186423,0.144157 0.186423,0.241282 0,0.126105 -0.08403,0.25609 -0.224301,0.346975 -0.178473,0.115637 -0.780225,0.236369 -1.490231,0.298992 -0.3603905,0.03178 -1.4181757,0.047 -1.7845125,0.02566 z m 1.9069794,-0.18265 c 0.5139998,-0.05289 1.1227668,-0.170908 1.0607018,-0.205641 -0.04407,-0.02465 -0.32999,-0.09425 -0.518393,-0.126154 -0.8490852,-0.143823 -2.5775184,-0.152447 -3.4990013,-0.01746 -0.2555724,0.03744 -0.5713031,0.11299 -0.5407643,0.129397 0.042132,0.02264 0.3990079,0.101251 0.62824,0.138391 0.2663539,0.04316 0.6483087,0.0856 0.9534901,0.105965 0.3598085,0.02401 1.5981773,0.0082 1.9157267,-0.02451 z M 8.592365,10.062143 C 8.8305787,9.9169017 8.7100548,9.5489343 8.4341294,9.5790399 8.3334653,9.5900248 8.2609759,9.6379205 8.2225885,9.7188162 c -0.085708,0.1806175 0.036523,0.3780908 0.2340289,0.3780908 0.047765,0 0.1011528,-0.01367 0.1357476,-0.03477 z M 7.5455233,9.9817643 c 0.074871,-0.063 0.076006,-0.1626574 0.00268,-0.2359763 C 7.4657422,9.6633304 7.3295993,9.6905632 7.284909,9.7984549 7.2172239,9.9618626 7.4089184,10.0967 7.5455124,9.9817646 Z m 2.0518194,-0.00805 C 9.6442477,9.9268063 9.6495137,9.9117453 9.6410567,9.8486805 9.6357767,9.8092435 9.6162547,9.7617915 9.5976957,9.743233 9.5791367,9.724674 9.5316867,9.705162 9.4922485,9.699872 9.4291845,9.691412 9.4141175,9.696692 9.3672141,9.743585 c -0.072843,0.072844 -0.073672,0.1608372 -0.00218,0.2323197 0.071482,0.07148 0.1594764,0.070655 0.2323199,-0.00218 z M 5.5492611,9.2422363 C 5.4927578,9.1379984 4.6324578,7.4913051 4.3231848,6.8954127 4.2557648,6.7655107 4.1769889,6.6159271 4.1481278,6.5630035 4.1093298,6.4918595 4.1042388,6.4738985 4.1285958,6.4940935 4.26179,6.6045224 4.5369138,6.838969 4.6636225,6.9500151 4.8599438,7.1220702 5.0410013,7.2170535 5.443552,7.3591674 5.459771,7.3648874 5.454095,7.3851614 5.422867,7.4330294 5.311706,7.6034015 5.2622233,7.9155471 5.3142645,8.1181104 5.3611255,8.3005092 5.4400982,8.4447039 5.5602389,8.5672343 5.749415,8.7601713 5.9401964,8.8052519 6.1415827,8.7046044 6.2314697,8.6596814 6.2496363,8.6413364 6.2958125,8.5488707 L 6.3481548,8.4440578 6.3448381,8.1534353 C 6.3410065,7.8184248 6.3246298,7.7551279 6.194832,7.5737879 6.100614,7.4421545 5.8468269,7.1989094 5.7119909,7.1110023 5.7083448,7.1086304 5.756171,7.0518078 5.8182671,6.984738 5.9463486,6.846398 6.0288166,6.7038727 6.0681423,6.5528909 6.1008486,6.4273231 6.1374293,5.8981133 6.124282,5.7407284 6.1131565,5.6075723 6.1087052,5.6005947 6.2526954,5.9419231 6.4877947,6.4992249 6.7535052,6.7783133 7.1118599,6.8443427 l 0.1158645,0.02135 -0.059295,0.097964 c -0.1266565,0.2092511 -0.2163991,0.5204904 -0.2163991,0.750497 0,0.1427809 0.049427,0.3490335 0.1143436,0.4771404 0.055571,0.1096658 0.1993721,0.2577115 0.2967935,0.3055558 0.051852,0.025464 0.1062397,0.034368 0.2099429,0.034368 0.1204857,0 0.1511207,-0.00655 0.2201535,-0.047144 C 7.950087,8.3918799 8.0552738,8.2357506 8.114638,8.007059 8.146462,7.8844597 8.149841,7.6795202 8.121948,7.5636063 8.0796821,7.3879489 7.9259125,7.1036145 7.7419194,6.8608942 7.7019976,6.8082299 7.6693347,6.760543 7.6693347,6.7549232 c 0,-0.00562 0.049819,-0.046799 0.1107112,-0.091508 0.1681265,-0.1234464 0.3511976,-0.299717 0.4218863,-0.4062142 0.090655,-0.1365773 0.1496061,-0.3037126 0.226907,-0.6433118 0.013569,-0.059611 0.062771,-0.064797 0.062771,-0.00662 0,0.08922 0.090431,0.3941696 0.15631,0.5270999 0.087168,0.1758885 0.1837476,0.2857135 0.4091654,0.465276 0.09794,0.078016 0.1803822,0.1479843 0.1832068,0.1554857 0.00282,0.00749 -0.041224,0.075592 -0.097886,0.1513136 C 8.9091488,7.2181653 8.7870666,7.4881773 8.7756134,7.7176902 8.7540051,8.1506707 8.9859271,8.5100046 9.3034357,8.5354913 9.4726093,8.5490714 9.5779001,8.5072691 9.7075279,8.3750608 10.023467,8.0528323 10.048165,7.5439415 9.7735986,7.0137056 9.737418,6.9438337 9.7054416,6.8817075 9.70254,6.8756459 9.69964,6.8695759 9.734692,6.8590109 9.780436,6.8521519 9.9903789,6.8206689 10.189286,6.6986246 10.351842,6.501549 10.458523,6.3722164 10.621738,6.0658916 10.724308,5.802498 l 0.06792,-0.1744184 0.01063,0.3931087 c 0.01029,0.3821834 0.02709,0.5162427 0.08059,0.6442606 0.04082,0.097696 0.131081,0.2298253 0.233151,0.3412978 l 0.09392,0.102585 -0.05157,0.037377 c -0.217406,0.1575944 -0.431343,0.3897067 -0.526271,0.5709817 l -0.05039,0.096224 v 0.3411562 c 0,0.3406263 1.3e-4,0.3412837 0.04809,0.4229605 0.09814,0.1669552 0.341725,0.2243722 0.544635,0.1283813 0.245383,-0.1160852 0.447479,-0.4689569 0.448034,-0.7822924 3.31e-4,-0.1846638 -0.03785,-0.319873 -0.153336,-0.5429622 -0.0072,-0.014135 -0.0057,-0.014892 0.258515,-0.1183336 0.239105,-0.093624 0.385496,-0.1865226 0.62108,-0.3941351 0.105847,-0.093278 0.254882,-0.2212988 0.331188,-0.2844905 l 0.13874,-0.1148936 -0.114381,0.2174284 c -0.06292,0.1195857 -0.400182,0.7645917 -0.749494,1.4333465 -0.349312,0.6687547 -0.637198,1.2186038 -0.639744,1.2218869 -0.0026,0.0033 -0.05443,-0.021874 -0.115299,-0.055899 C 10.911593,9.1246575 10.394291,9.0092597 9.6550413,8.9413531 9.3260041,8.9111273 8.0072146,8.8995638 7.5871558,8.9232225 6.6421536,8.9764429 5.9184434,9.124869 5.6663265,9.3171681 l -0.054087,0.041253 z"
     id="path1-6" />
  <rect
     style="opacity:0.3;fill:none;fill-opacity:0.996424;stroke:#000000;stroke-width:0.955221;stroke-dasharray:none;stroke-opacity:1;filter:url(#filter5421-3)"
     id="rect1-2-7-5"
     width="13.687567"
     height="13.591975"
     x="1.6227165"
     y="1.6705122"
     rx="2.8442214"
     ry="2.965905"
     transform="matrix(0.43046721,0,0,0.43046721,9.5627021,9.5627021)" />
  <rect
     style="fill:none;fill-opacity:1;stroke:{{colors.primary.default.hex}};stroke-width:0.411191;stroke-dasharray:none;stroke-opacity:1"
     id="rect1-2-3"
     width="5.8920484"
     height="5.8508992"
     x="10.261228"
     y="10.281802"
     rx="1.224344"
     ry="1.2767248" />
  <path
     id="path1"
     style="fill:{{colors.primary.default.hex}};fill-opacity:1;stroke:none;stroke-width:0.0587368;stroke-dasharray:none;stroke-dashoffset:2.2;stroke-opacity:0.6"
     d="m 14.168922,11.656658 c -0.06055,-2.6e-5 -0.125364,0.02435 -0.206481,0.07188 -0.193027,0.1131 -0.445472,0.166438 -0.792145,0.166438 -0.346641,0 -0.607506,-0.05448 -0.799384,-0.16692 -0.153862,-0.09017 -0.245719,-0.09136 -0.374847,-0.0043 -0.331514,0.223407 -0.581361,0.939687 -0.654655,1.875683 -0.04395,0.561277 -0.0029,0.857184 0.142315,1.023712 0.07004,0.08029 0.241969,0.06668 0.397039,-0.03184 0.13145,-0.08351 0.288072,-0.267793 0.475192,-0.559138 0.16909,-0.263274 0.373614,-0.349984 0.825918,-0.350725 0.451405,-6.81e-4 0.628801,0.08471 0.837013,0.404757 0.349331,0.536972 0.672221,0.723915 0.861617,0.498829 0.104925,-0.124694 0.12413,-0.24517 0.119159,-0.746797 -0.0091,-0.911235 -0.247248,-1.740202 -0.590491,-2.056592 -0.09141,-0.08427 -0.162394,-0.124918 -0.24025,-0.124951 z M 12.207851,12.1936 h 0.209374 0.209373 v 0.179464 0.179463 h 0.179465 0.179462 v 0.22433 0.224328 h -0.179462 -0.179465 v 0.194419 0.194419 h -0.189593 c -0.104158,0 -0.197928,-0.0093 -0.208892,-0.02026 -0.01096,-0.01096 -0.02025,-0.098 -0.02025,-0.193935 v -0.174644 h -0.179466 -0.179465 v -0.224328 -0.224329 h 0.179465 0.179463 v -0.179465 z m 1.706832,0 c 0.188883,0 0.269773,0.209278 0.133633,0.345419 -0.08658,0.08657 -0.165598,0.09337 -0.250863,0.02123 -0.147895,-0.125144 -0.0707,-0.366645 0.11723,-0.366645 z m -0.363268,0.383531 c 0.04717,3.2e-5 0.09465,0.01883 0.132184,0.0603 0.05851,0.06466 0.06483,0.212666 0.01207,0.281737 -0.103261,0.135182 -0.351207,0.04823 -0.351207,-0.123018 0,-0.12997 0.103198,-0.219094 0.206961,-0.219022 z m 0.741493,0.0073 c 0.05436,9.9e-4 0.10714,0.019 0.137972,0.05306 0.05851,0.06466 0.06482,0.212666 0.01206,0.281738 -0.109832,0.143783 -0.351209,0.04755 -0.351209,-0.139905 0,-0.05682 0.02277,-0.118403 0.05451,-0.14714 0.03629,-0.03285 0.0923,-0.04875 0.14666,-0.04775 z m -0.365199,0.386906 c 0.167454,0 0.248932,0.177621 0.147622,0.322262 -0.03463,0.04945 -0.07687,0.06657 -0.164026,0.06657 -0.100342,0 -0.123628,-0.01306 -0.164024,-0.09118 -0.07966,-0.154035 0.0073,-0.297659 0.180428,-0.297659 z" />
</svg>
