<?xml version="1.0" encoding="UTF-8" standalone="no"?>
<svg
   width="64"
   height="64"
   version="1.1"
   viewBox="0 0 16.933 16.933"
   id="svg7"
   sodipodi:docname="steam_icon_368260.svg"
   inkscape:version="1.4.3 (0d15f75042, 2025-12-25)"
   xmlns:inkscape="http://www.inkscape.org/namespaces/inkscape"
   xmlns:sodipodi="http://sodipodi.sourceforge.net/DTD/sodipodi-0.dtd"
   xmlns="http://www.w3.org/2000/svg"
   xmlns:svg="http://www.w3.org/2000/svg"
   xmlns:rdf="http://www.w3.org/1999/02/22-rdf-syntax-ns#"
   xmlns:cc="http://creativecommons.org/ns#"
   xmlns:dc="http://purl.org/dc/elements/1.1/">
  <sodipodi:namedview
     id="namedview7"
     pagecolor="#9c4444"
     bordercolor="#000000"
     borderopacity="0.25"
     inkscape:showpageshadow="2"
     inkscape:pageopacity="0.0"
     inkscape:pagecheckerboard="0"
     inkscape:deskcolor="#d1d1d1"
     inkscape:zoom="4.3531261"
     inkscape:cx="42.957635"
     inkscape:cy="45.025114"
     inkscape:window-width="1226"
     inkscape:window-height="669"
     inkscape:window-x="30"
     inkscape:window-y="150"
     inkscape:window-maximized="0"
     inkscape:current-layer="svg7"
     showgrid="false" />
  <defs
     id="defs2">
    <filter
       style="color-interpolation-filters:sRGB;"
       inkscape:label="Blur"
       id="filter5421"
       x="-0.12256455"
       y="-0.12342654"
       width="1.2451291"
       height="1.2468531">
      <feGaussianBlur
         stdDeviation="0.5 0.5"
         result="blur"
         id="feGaussianBlur5419" />
    </filter>
    <filter
       style="color-interpolation-filters:sRGB"
       inkscape:label="Blur"
       id="filter5421-3"
       x="-0.12256455"
       y="-0.12342654"
       width="1.2451291"
       height="1.2468531">
      <feGaussianBlur
         stdDeviation="0.5 0.5"
         result="blur"
         id="feGaussianBlur5419-6" />
    </filter>
  </defs>
  <metadata
     id="metadata2">
    <rdf:RDF>
      <cc:Work
         rdf:about="">
        <dc:format>image/svg+xml</dc:format>
        <dc:type
           rdf:resource="http://purl.org/dc/dcmitype/StillImage" />
      </cc:Work>
    </rdf:RDF>
  </metadata>
  <rect
     style="opacity:0.3;fill:none;fill-opacity:0.996424;stroke:#000000;stroke-width:0.955221;stroke-dasharray:none;stroke-opacity:1;filter:url(#filter5421)"
     id="rect1-2-7"
     width="13.687567"
     height="13.591975"
     x="1.6227165"
     y="1.6705122"
     rx="2.8442214"
     ry="2.965905" />
  <rect
     style="fill:none;fill-opacity:1;stroke:{{colors.primary.default.hex}};stroke-width:0.955221;stroke-dasharray:none;stroke-opacity:1"
     id="rect1-2"
     width="13.687567"
     height="13.591975"
     x="1.6227167"
     y="1.6705124"
     rx="2.8442214"
     ry="2.965905" />
  <path
     style="fill:{{colors.primary.default.hex}};fill-opacity:1;stroke-width:0.0153976"
     d="M 8.1784494,12.327772 C 6.4765785,11.299254 5.8011896,10.667627 5.4413875,9.7680575 5.3304948,9.4908063 5.2120611,9.023277 5.1761547,8.7210225 5.1711255,8.6786796 5.1605199,8.5989965 5.1525859,8.5439509 5.0940768,8.1379985 5.060238,7.3292493 5.0561615,6.2394206 l -0.00304,-0.8129059 0.1539757,-0.043915 c 0.084685,-0.02415 0.1851547,-0.053086 0.2232633,-0.064293 0.1788201,-0.052591 1.292316,-0.3768966 1.6398434,-0.4776054 0.270389,-0.078355 0.8248304,-0.2396482 1.1582431,-0.3369467 0.2630416,-0.076763 0.2118205,-0.078067 0.5200955,0.013233 0.1732643,0.051317 0.6501524,0.1900783 0.9546506,0.2777798 0.1270293,0.036587 0.3175749,0.09223 0.4234329,0.1236497 0.105857,0.03142 0.213258,0.062487 0.238663,0.069037 0.0254,0.00653 0.106822,0.029939 0.180924,0.051972 0.221225,0.065782 0.391186,0.1155873 0.63515,0.1861281 0.12703,0.03673 0.334897,0.096983 0.461928,0.1338964 l 0.230965,0.067116 0.005,0.4077202 c 0.0053,0.4433729 -0.0212,1.6782965 -0.04344,2.0244681 -0.06665,1.0367439 -0.198577,1.6476544 -0.470722,2.1796981 -0.271312,0.530407 -0.657279,0.947181 -1.364123,1.472999 -0.3505517,0.260771 -1.4770506,0.97428 -1.5382121,0.97428 -0.012547,0 -0.1404269,-0.07108 -0.2841851,-0.157963 z m 0.4629617,-0.475636 c 0.084328,-0.05207 0.2156845,-0.133113 0.2919029,-0.180084 0.5623968,-0.346587 1.0411873,-0.700934 1.354989,-1.002816 0.419852,-0.403902 0.62178,-0.6917188 0.788882,-1.1244423 0.117093,-0.3032181 0.223235,-0.8104352 0.257768,-1.2318087 0.0052,-0.063519 0.01602,-0.177841 0.02406,-0.2540587 0.02791,-0.2650844 0.06103,-1.208172 0.06103,-1.7374459 0,-0.491571 -0.002,-0.5337123 -0.02695,-0.5468364 -0.01482,-0.00781 -0.0997,-0.035214 -0.188624,-0.06087 C 10.725543,5.5755824 10.17489,5.4152613 9.8956721,5.3327182 9.7898094,5.301425 9.6824117,5.2706193 9.6570061,5.2642623 9.6316013,5.2579078 9.5242009,5.2271001 9.4183428,5.1958063 9.3124818,5.1645124 9.1461875,5.115765 9.0487984,5.087478 8.951409,5.059192 8.7870871,5.0111785 8.6836414,4.9807818 8.5801957,4.9503855 8.4812162,4.9255158 8.46369,4.9255158 c -0.017526,0 -0.1165065,0.024871 -0.2199527,0.055264 -0.1034462,0.030396 -0.2677655,0.078431 -0.3651572,0.1067444 -0.09739,0.028312 -0.2394316,0.069799 -0.3156497,0.092195 C 7.4867122,5.2021119 7.3204177,5.2506054 7.1933886,5.2874789 7.0663588,5.3243537 6.9000636,5.3727826 6.8238468,5.3950998 6.7476276,5.4174164 6.5536181,5.4738167 6.3927127,5.5204342 6.2318082,5.5670516 6.017012,5.6295525 5.9153874,5.6593244 5.8137637,5.6890976 5.6925618,5.723904 5.6460505,5.736675 5.486364,5.7805188 5.5017208,5.6919621 5.5120562,6.5093317 c 0.028095,2.2220625 0.1827981,3.0143418 0.7280113,3.7283553 0.2020158,0.264562 0.5909411,0.624941 1.0072121,0.933293 0.3142114,0.232752 1.1644818,0.774476 1.2170616,0.775415 0.013057,3.93e-4 0.092744,-0.0422 0.1770726,-0.09426 z M 8.294313,11.286793 C 7.455115,10.774106 6.8230063,10.246983 6.5369856,9.8213386 6.165585,9.2686373 6.0350999,8.5125057 6.0052396,6.7399765 L 5.9952106,6.1447153 6.0476826,6.1294263 C 6.0765456,6.1210163 6.1867675,6.0887533 6.292625,6.0577223 6.398485,6.0266903 6.6167456,5.9630653 6.7776504,5.9163365 6.9385557,5.8696065 7.1533515,5.806991 7.254976,5.777192 7.3566008,5.747392 7.4709266,5.714014 7.5090354,5.70302 7.6072514,5.674685 7.8415437,5.606886 7.9324695,5.5804894 c 0.042338,-0.012292 0.1566709,-0.046037 0.254061,-0.074988 0.097389,-0.028951 0.1995886,-0.057516 0.227114,-0.063479 l 0.050043,-0.010841 v 2.9729585 c 0,1.6351291 -0.00518,2.9727471 -0.011554,2.9724861 -0.00634,-3.94e-4 -0.077374,-0.04069 -0.1578253,-0.08985 z"
     id="path1-1-0" />
  <rect
     style="opacity:0.3;fill:none;fill-opacity:0.996424;stroke:#000000;stroke-width:0.955221;stroke-dasharray:none;stroke-opacity:1;filter:url(#filter5421-3)"
     id="rect1-2-7-5"
     width="13.687567"
     height="13.591975"
     x="1.6227165"
     y="1.6705122"
     rx="2.8442214"
     ry="2.965905"
     transform="matrix(0.43046721,0,0,0.43046721,9.5627021,9.5627021)" />
  <rect
     style="fill:none;fill-opacity:1;stroke:{{colors.primary.default.hex}};stroke-width:0.411191;stroke-dasharray:none;stroke-opacity:1"
     id="rect1-2-3"
     width="5.8920484"
     height="5.8508992"
     x="10.261228"
     y="10.281802"
     rx="1.224344"
     ry="1.2767248" />
  <path
     id="path1"
     style="fill:{{colors.primary.default.hex}};fill-opacity:1;stroke:none;stroke-width:0.0587368;stroke-dasharray:none;stroke-dashoffset:2.2;stroke-opacity:0.6"
     d="m 14.168922,11.656658 c -0.06055,-2.6e-5 -0.125364,0.02435 -0.206481,0.07188 -0.193027,0.1131 -0.445472,0.166438 -0.792145,0.166438 -0.346641,0 -0.607506,-0.05448 -0.799384,-0.16692 -0.153862,-0.09017 -0.245719,-0.09136 -0.374847,-0.0043 -0.331514,0.223407 -0.581361,0.939687 -0.654655,1.875683 -0.04395,0.561277 -0.0029,0.857184 0.142315,1.023712 0.07004,0.08029 0.241969,0.06668 0.397039,-0.03184 0.13145,-0.08351 0.288072,-0.267793 0.475192,-0.559138 0.16909,-0.263274 0.373614,-0.349984 0.825918,-0.350725 0.451405,-6.81e-4 0.628801,0.08471 0.837013,0.404757 0.349331,0.536972 0.672221,0.723915 0.861617,0.498829 0.104925,-0.124694 0.12413,-0.24517 0.119159,-0.746797 -0.0091,-0.911235 -0.247248,-1.740202 -0.590491,-2.056592 -0.09141,-0.08427 -0.162394,-0.124918 -0.24025,-0.124951 z M 12.207851,12.1936 h 0.209374 0.209373 v 0.179464 0.179463 h 0.179465 0.179462 v 0.22433 0.224328 h -0.179462 -0.179465 v 0.194419 0.194419 h -0.189593 c -0.104158,0 -0.197928,-0.0093 -0.208892,-0.02026 -0.01096,-0.01096 -0.02025,-0.098 -0.02025,-0.193935 v -0.174644 h -0.179466 -0.179465 v -0.224328 -0.224329 h 0.179465 0.179463 v -0.179465 z m 1.706832,0 c 0.188883,0 0.269773,0.209278 0.133633,0.345419 -0.08658,0.08657 -0.165598,0.09337 -0.250863,0.02123 -0.147895,-0.125144 -0.0707,-0.366645 0.11723,-0.366645 z m -0.363268,0.383531 c 0.04717,3.2e-5 0.09465,0.01883 0.132184,0.0603 0.05851,0.06466 0.06483,0.212666 0.01207,0.281737 -0.103261,0.135182 -0.351207,0.04823 -0.351207,-0.123018 0,-0.12997 0.103198,-0.219094 0.206961,-0.219022 z m 0.741493,0.0073 c 0.05436,9.9e-4 0.10714,0.019 0.137972,0.05306 0.05851,0.06466 0.06482,0.212666 0.01206,0.281738 -0.109832,0.143783 -0.351209,0.04755 -0.351209,-0.139905 0,-0.05682 0.02277,-0.118403 0.05451,-0.14714 0.03629,-0.03285 0.0923,-0.04875 0.14666,-0.04775 z m -0.365199,0.386906 c 0.167454,0 0.248932,0.177621 0.147622,0.322262 -0.03463,0.04945 -0.07687,0.06657 -0.164026,0.06657 -0.100342,0 -0.123628,-0.01306 -0.164024,-0.09118 -0.07966,-0.154035 0.0073,-0.297659 0.180428,-0.297659 z" />
</svg>
