<?xml version="1.0" encoding="UTF-8" standalone="no"?>
<svg
   width="64"
   height="64"
   version="1.1"
   viewBox="0 0 16.933 16.933"
   id="svg7"
   sodipodi:docname="abcd.svg"
   inkscape:version="1.4.3 (0d15f75042, 2025-12-25)"
   xmlns:inkscape="http://www.inkscape.org/namespaces/inkscape"
   xmlns:sodipodi="http://sodipodi.sourceforge.net/DTD/sodipodi-0.dtd"
   xmlns="http://www.w3.org/2000/svg"
   xmlns:svg="http://www.w3.org/2000/svg"
   xmlns:rdf="http://www.w3.org/1999/02/22-rdf-syntax-ns#"
   xmlns:cc="http://creativecommons.org/ns#"
   xmlns:dc="http://purl.org/dc/elements/1.1/">
  <sodipodi:namedview
     id="namedview7"
     pagecolor="#9c4444"
     bordercolor="#000000"
     borderopacity="0.25"
     inkscape:showpageshadow="2"
     inkscape:pageopacity="0.0"
     inkscape:pagecheckerboard="0"
     inkscape:deskcolor="#d1d1d1"
     inkscape:zoom="4.3531261"
     inkscape:cx="43.187354"
     inkscape:cy="45.254834"
     inkscape:window-width="1226"
     inkscape:window-height="669"
     inkscape:window-x="109"
     inkscape:window-y="119"
     inkscape:window-maximized="0"
     inkscape:current-layer="svg7"
     showgrid="false" />
  <defs
     id="defs2">
    <filter
       style="color-interpolation-filters:sRGB;"
       inkscape:label="Blur"
       id="filter5421"
       x="-0.12256455"
       y="-0.12342654"
       width="1.2451291"
       height="1.2468531">
      <feGaussianBlur
         stdDeviation="0.5 0.5"
         result="blur"
         id="feGaussianBlur5419" />
    </filter>
    <filter
       style="color-interpolation-filters:sRGB"
       inkscape:label="Blur"
       id="filter5421-3"
       x="-0.12256455"
       y="-0.12342654"
       width="1.2451291"
       height="1.2468531">
      <feGaussianBlur
         stdDeviation="0.5 0.5"
         result="blur"
         id="feGaussianBlur5419-6" />
    </filter>
  </defs>
  <metadata
     id="metadata2">
    <rdf:RDF>
      <cc:Work
         rdf:about="">
        <dc:format>image/svg+xml</dc:format>
        <dc:type
           rdf:resource="http://purl.org/dc/dcmitype/StillImage" />
      </cc:Work>
    </rdf:RDF>
  </metadata>
  <rect
     style="opacity:0.3;fill:none;fill-opacity:0.996424;stroke:#000000;stroke-width:0.955221;stroke-dasharray:none;stroke-opacity:1;filter:url(#filter5421)"
     id="rect1-2-7"
     width="13.687567"
     height="13.591975"
     x="1.6227165"
     y="1.6705122"
     rx="2.8442214"
     ry="2.965905" />
  <rect
     style="fill:none;fill-opacity:1;stroke:{{colors.primary.default.hex}};stroke-width:0.955221;stroke-dasharray:none;stroke-opacity:1"
     id="rect1-2"
     width="13.687567"
     height="13.591975"
     x="1.6227167"
     y="1.6705124"
     rx="2.8442214"
     ry="2.965905" />
  <g
     id="g10"
     transform="matrix(0.2450508,0,0,0.2450508,0.60794064,0.63462014)"
     style="fill:{{colors.primary.default.hex}};fill-opacity:1">
    <path
       style="fill:{{colors.primary.default.hex}};fill-opacity:1;stroke-width:0.187174"
       d="m 38.530503,47.046168 c -0.05131,-0.424335 0.05561,-0.960216 0.437856,-2.19442 0.362115,-1.169233 0.457698,-1.762652 0.4049,-2.513782 -0.116816,-1.661842 -1.234447,-4.173815 -2.799761,-6.292704 -1.196537,-1.619691 -3.012863,-3.273738 -4.262364,-3.881541 -0.987984,-0.480592 -1.271111,-0.528217 -3.067144,-0.515928 -0.930929,0.0063 -1.580819,0.03446 -1.616215,0.06986 -0.0372,0.0372 -0.07593,1.789281 -0.104236,4.714055 -0.02476,2.56017 -0.06214,5.556354 -0.08303,6.658183 l -0.038,2.003333 -0.167886,0.167887 c -0.155451,0.155451 -0.202602,0.167835 -0.636684,0.167297 -0.56068,-0.0017 -0.749676,-0.0782 -1.914089,-0.784979 -0.582904,-0.353804 -0.807614,-0.523796 -0.860184,-0.650712 -0.05494,-0.132633 -0.05505,-1.807711 -5.27e-4,-7.348845 0.03886,-3.947382 0.07497,-8.268653 0.08024,-9.602828 0.01105,-2.796858 0.02466,-2.715257 -0.591311,-3.543939 -0.52084,-0.700695 -0.670755,-1.245326 -0.812484,-2.951691 -0.06503,-0.782965 -0.06208,-0.893164 0.03043,-1.135398 0.121228,-0.317431 0.321955,-0.58966 0.399462,-0.541758 0.0303,0.01873 0.0551,0.14809 0.0551,0.287465 0,0.390956 0.164021,0.937513 0.376519,1.254665 0.376266,0.561568 0.966329,0.821058 1.865463,0.820363 0.650072,-5.85e-4 0.927739,-0.06363 3.445029,-0.78331 1.039381,-0.297152 2.361462,-0.66663 2.937957,-0.821062 1.034469,-0.277114 1.060311,-0.280792 1.976554,-0.281194 0.7919,-3.45e-4 0.998516,0.01987 1.405445,0.137546 0.762956,0.220626 1.135454,0.449326 1.769471,1.086397 1.274106,1.280239 2.16595,3.153277 2.168979,4.555256 0.0019,0.882473 -0.333107,2.197124 -0.794734,3.118671 -0.396006,0.790546 -0.578316,0.998248 -1.83937,2.095546 -0.33793,0.294046 -0.620935,0.5467 -0.628904,0.561452 -0.0079,0.01476 0.295472,0.289959 0.674311,0.61157 2.532115,2.149598 3.991508,4.278539 4.556577,6.64706 0.619943,2.598537 0.287781,4.473599 -1.203262,6.792457 -0.567224,0.882131 -0.826996,1.395575 -0.98804,1.952849 l -0.136287,0.471615 z M 29.894486,30.208225 c 0.952564,-0.147389 1.984581,-0.669387 2.570134,-1.299986 0.636118,-0.685053 1.811302,-2.727693 2.499627,-4.344715 0.231455,-0.543735 0.249761,-0.625034 0.229791,-1.020494 -0.02043,-0.404468 -0.05491,-0.49597 -0.587473,-1.558805 -0.618808,-1.234951 -0.719979,-1.351379 -1.174652,-1.351795 -0.374126,-3.45e-4 -1.500121,0.217991 -2.002005,0.388195 -0.984438,0.333854 -2.197677,1.019911 -3.461317,1.957289 l -0.57065,0.423315 0.03932,2.972893 c 0.04492,3.396045 0.07123,3.88164 0.21269,3.925886 0.152025,0.04755 1.772228,-0.0187 2.244538,-0.09178 z m 3.777232,-0.512405 c 1.071341,-0.265793 1.732915,-0.971101 1.926004,-2.053326 0.08646,-0.484594 0.104176,-1.279407 0.03257,-1.461484 -0.03484,-0.08858 -0.327698,0.26748 -1.433285,1.742576 -0.764227,1.019648 -1.389504,1.869036 -1.389504,1.887525 0,0.04783 0.44719,-0.01184 0.864209,-0.115291 z"
       id="path1-5" />
    <path
       style="fill:{{colors.primary.default.hex}};fill-opacity:1;stroke-width:0.168457"
       d="m 29.749421,48.471998 c -1.338026,-0.116932 -2.975463,-0.483563 -4.190814,-0.938354 -1.47898,-0.553432 -3.137286,-1.483991 -4.461106,-2.503353 -0.747054,-0.575238 -2.310458,-2.165304 -2.888881,-2.938135 -0.756967,-1.011391 -1.454472,-2.201696 -1.841065,-3.141827 -0.219115,-0.532833 0.06611,-0.151306 0.676337,0.904732 1.085272,1.878095 2.456321,3.418282 4.188373,4.705026 2.187217,1.624903 4.687144,2.608308 7.445506,2.928884 1.013429,0.117783 3.081972,0.0782 4.090388,-0.07827 2.300375,-0.356932 4.254533,-1.067628 5.821855,-2.117304 1.139179,-0.762931 2.789379,-2.265888 3.603637,-3.282105 2.954658,-3.687472 4.048012,-8.717751 2.964313,-13.638224 -0.427788,-1.942339 -1.556867,-4.352597 -2.815626,-6.010525 -0.576472,-0.759278 -2.425216,-2.474247 -3.580994,-3.321871 -1.574094,-1.154415 -3.846658,-2.056556 -6.316621,-2.507514 -0.830136,-0.151564 -2.824631,-0.138284 -3.773425,0.02513 -1.600283,0.275615 -3.079863,0.740176 -4.173356,1.31036 -0.471573,0.245894 -0.856241,0.406704 -1.105074,0.461975 -0.736028,0.163487 -1.007786,0.398741 -1.422722,1.231624 -0.174766,0.350795 -0.345606,0.610216 -0.484484,0.735684 -0.238711,0.215661 -0.251654,0.221004 -0.815339,0.336557 -0.863564,0.177032 -1.229967,0.662479 -1.177403,1.559942 0.02793,0.476901 -0.0236,0.707372 -0.176444,0.789175 -0.156151,0.08357 -0.262389,0.06269 -0.40462,-0.07955 -0.18313,-0.183129 -0.169119,-0.395157 0.05636,-0.852843 0.215534,-0.437504 0.236207,-0.578117 0.085,-0.578117 -0.163791,0 -0.418688,0.250067 -0.598198,0.586859 -0.09076,0.170279 -0.321825,0.48779 -0.513485,0.705581 -0.586859,0.666876 -0.752092,1.156581 -0.594913,1.763155 0.120497,0.46501 0.109981,0.644119 -0.04704,0.801136 -0.268686,0.268688 -0.784845,0.09579 -0.783392,-0.262416 0.0034,-0.849584 1.387152,-3.064981 2.879501,-4.610267 3.84393,-3.980287 9.191736,-5.748547 14.615795,-4.832738 2.401704,0.405508 4.506833,1.2302 6.473276,2.535924 4.088726,2.714927 6.686659,6.961106 7.273711,11.888463 0.102111,0.857089 0.115349,2.662888 0.02588,3.526208 -0.592441,5.714561 -3.856902,10.548262 -8.843912,13.095203 -2.798229,1.429103 -6.084312,2.073294 -9.190981,1.801798 z"
       id="path1-7" />
  </g>
  <rect
     style="opacity:0.3;fill:none;fill-opacity:0.996424;stroke:#000000;stroke-width:0.955221;stroke-dasharray:none;stroke-opacity:1;filter:url(#filter5421-3)"
     id="rect1-2-7-5"
     width="13.687567"
     height="13.591975"
     x="1.6227165"
     y="1.6705122"
     rx="2.8442214"
     ry="2.965905"
     transform="matrix(0.43046721,0,0,0.43046721,9.5627021,9.5627021)" />
  <rect
     style="fill:none;fill-opacity:1;stroke:{{colors.primary.default.hex}};stroke-width:0.411191;stroke-dasharray:none;stroke-opacity:1"
     id="rect1-2-3"
     width="5.8920484"
     height="5.8508992"
     x="10.261228"
     y="10.281802"
     rx="1.224344"
     ry="1.2767248" />
  <path
     id="path1"
     style="fill:{{colors.primary.default.hex}};fill-opacity:1;stroke:none;stroke-width:0.0587368;stroke-dasharray:none;stroke-dashoffset:2.2;stroke-opacity:0.6"
     d="m 14.168922,11.656658 c -0.06055,-2.6e-5 -0.125364,0.02435 -0.206481,0.07188 -0.193027,0.1131 -0.445472,0.166438 -0.792145,0.166438 -0.346641,0 -0.607506,-0.05448 -0.799384,-0.16692 -0.153862,-0.09017 -0.245719,-0.09136 -0.374847,-0.0043 -0.331514,0.223407 -0.581361,0.939687 -0.654655,1.875683 -0.04395,0.561277 -0.0029,0.857184 0.142315,1.023712 0.07004,0.08029 0.241969,0.06668 0.397039,-0.03184 0.13145,-0.08351 0.288072,-0.267793 0.475192,-0.559138 0.16909,-0.263274 0.373614,-0.349984 0.825918,-0.350725 0.451405,-6.81e-4 0.628801,0.08471 0.837013,0.404757 0.349331,0.536972 0.672221,0.723915 0.861617,0.498829 0.104925,-0.124694 0.12413,-0.24517 0.119159,-0.746797 -0.0091,-0.911235 -0.247248,-1.740202 -0.590491,-2.056592 -0.09141,-0.08427 -0.162394,-0.124918 -0.24025,-0.124951 z M 12.207851,12.1936 h 0.209374 0.209373 v 0.179464 0.179463 h 0.179465 0.179462 v 0.22433 0.224328 h -0.179462 -0.179465 v 0.194419 0.194419 h -0.189593 c -0.104158,0 -0.197928,-0.0093 -0.208892,-0.02026 -0.01096,-0.01096 -0.02025,-0.098 -0.02025,-0.193935 v -0.174644 h -0.179466 -0.179465 v -0.224328 -0.224329 h 0.179465 0.179463 v -0.179465 z m 1.706832,0 c 0.188883,0 0.269773,0.209278 0.133633,0.345419 -0.08658,0.08657 -0.165598,0.09337 -0.250863,0.02123 -0.147895,-0.125144 -0.0707,-0.366645 0.11723,-0.366645 z m -0.363268,0.383531 c 0.04717,3.2e-5 0.09465,0.01883 0.132184,0.0603 0.05851,0.06466 0.06483,0.212666 0.01207,0.281737 -0.103261,0.135182 -0.351207,0.04823 -0.351207,-0.123018 0,-0.12997 0.103198,-0.219094 0.206961,-0.219022 z m 0.741493,0.0073 c 0.05436,9.9e-4 0.10714,0.019 0.137972,0.05306 0.05851,0.06466 0.06482,0.212666 0.01206,0.281738 -0.109832,0.143783 -0.351209,0.04755 -0.351209,-0.139905 0,-0.05682 0.02277,-0.118403 0.05451,-0.14714 0.03629,-0.03285 0.0923,-0.04875 0.14666,-0.04775 z m -0.365199,0.386906 c 0.167454,0 0.248932,0.177621 0.147622,0.322262 -0.03463,0.04945 -0.07687,0.06657 -0.164026,0.06657 -0.100342,0 -0.123628,-0.01306 -0.164024,-0.09118 -0.07966,-0.154035 0.0073,-0.297659 0.180428,-0.297659 z" />
</svg>
