<?xml version="1.0" encoding="UTF-8" standalone="no"?>
<svg
   width="64"
   height="64"
   version="1.1"
   viewBox="0 0 16.933 16.933"
   id="svg7"
   sodipodi:docname="abcd.svg"
   inkscape:version="1.4.3 (0d15f75042, 2025-12-25)"
   xmlns:inkscape="http://www.inkscape.org/namespaces/inkscape"
   xmlns:sodipodi="http://sodipodi.sourceforge.net/DTD/sodipodi-0.dtd"
   xmlns="http://www.w3.org/2000/svg"
   xmlns:svg="http://www.w3.org/2000/svg"
   xmlns:rdf="http://www.w3.org/1999/02/22-rdf-syntax-ns#"
   xmlns:cc="http://creativecommons.org/ns#"
   xmlns:dc="http://purl.org/dc/elements/1.1/">
  <sodipodi:namedview
     id="namedview7"
     pagecolor="#9c4444"
     bordercolor="#000000"
     borderopacity="0.25"
     inkscape:showpageshadow="2"
     inkscape:pageopacity="0.0"
     inkscape:pagecheckerboard="0"
     inkscape:deskcolor="#d1d1d1"
     inkscape:zoom="4.3531261"
     inkscape:cx="43.072494"
     inkscape:cy="45.254834"
     inkscape:window-width="1226"
     inkscape:window-height="669"
     inkscape:window-x="109"
     inkscape:window-y="119"
     inkscape:window-maximized="0"
     inkscape:current-layer="svg7"
     showgrid="false" />
  <defs
     id="defs2">
    <filter
       style="color-interpolation-filters:sRGB;"
       inkscape:label="Blur"
       id="filter5421"
       x="-0.12256455"
       y="-0.12342654"
       width="1.2451291"
       height="1.2468531">
      <feGaussianBlur
         stdDeviation="0.5 0.5"
         result="blur"
         id="feGaussianBlur5419" />
    </filter>
    <filter
       style="color-interpolation-filters:sRGB"
       inkscape:label="Blur"
       id="filter5421-3"
       x="-0.12256455"
       y="-0.12342654"
       width="1.2451291"
       height="1.2468531">
      <feGaussianBlur
         stdDeviation="0.5 0.5"
         result="blur"
         id="feGaussianBlur5419-6" />
    </filter>
  </defs>
  <metadata
     id="metadata2">
    <rdf:RDF>
      <cc:Work
         rdf:about="">
        <dc:format>image/svg+xml</dc:format>
        <dc:type
           rdf:resource="http://purl.org/dc/dcmitype/StillImage" />
      </cc:Work>
    </rdf:RDF>
  </metadata>
  <rect
     style="opacity:0.3;fill:none;fill-opacity:0.996424;stroke:#000000;stroke-width:0.955221;stroke-dasharray:none;stroke-opacity:1;filter:url(#filter5421)"
     id="rect1-2-7"
     width="13.687567"
     height="13.591975"
     x="1.6227165"
     y="1.6705122"
     rx="2.8442214"
     ry="2.965905" />
  <rect
     style="fill:none;fill-opacity:1;stroke:{{colors.primary.default.hex}};stroke-width:0.955221;stroke-dasharray:none;stroke-opacity:1"
     id="rect1-2"
     width="13.687567"
     height="13.591975"
     x="1.6227167"
     y="1.6705124"
     rx="2.8442214"
     ry="2.965905" />
  <path
     d="m 6.694878,4.6149687 q -0.025672,0 -0.025672,-0.034236 h 0.017119 v 0.017119 l 0.017119,-0.00856 0.00856,0.017119 z m 0.1027075,0.017116 h -0.025672 q -0.017119,0 -0.025672,-0.051354 h 0.00856 q 0.042795,0.017119 0.042795,0.051354 z M 6.609289,4.6492032 H 6.59217 q 0,-0.042796 0.017119,-0.042796 h 0.017119 q 0,0.042796 -0.017119,0.042796 z M 6.5237,4.6577632 Q 6.472346,4.6492032 6.472346,4.6149672 H 6.506581 Q 6.5237,4.6235272 6.5237,4.6577632 Z M 6.429552,4.6748792 H 6.40388 q 0,-0.042794 0.025672,-0.042794 0.025672,0 0.025672,0.017119 z M 6.2840493,4.7347879 6.27549,4.7176691 q 0.00856,-0.042795 0.034237,-0.077031 0.034236,0.017119 0.07703,0.017119 0,0.025672 -0.07703,0.034235 0,-0.00856 -0.00856,-0.00856 0,0.051353 -0.017119,0.051353 z m 0.5648903,-0.051353 h -0.025672 v -0.017119 h 0.025672 z m -0.7018334,0.06847 q -0.017119,0 -0.017119,-0.017119 0,-0.042796 0.059912,-0.042796 0.025672,0 0.025672,0.017119 -0.025672,0.042794 -0.068472,0.042794 z m -0.1112657,0.077032 -0.042795,-0.025672 v 0.017119 q -0.034235,0 -0.034235,-0.017119 h 0.025672 l -0.00856,-0.00856 q -0.034237,0.017119 -0.077031,0.017119 l -0.00856,-0.017119 q 0.1711783,-0.085589 0.1968553,-0.085589 0.034235,0.00856 0.034235,0.025672 0,0.025672 -0.085589,0.068472 z M 5.7533959,12.309446 h -0.025672 l 0.00856,-0.02568 -0.1797377,0.0085 q -0.025672,0 -0.025672,-0.03424 l -0.068473,0.01712 -0.00856,-0.01712 0.00856,-0.01712 -0.08559,0.0085 -0.025672,-0.01712 q 0,0.03424 -0.017116,0.03424 -0.068471,0 -0.1369429,-0.05135 l -0.025672,0.01712 q -0.059915,-0.03424 -0.3680377,-0.136941 -0.034236,-0.04279 -0.034236,-0.06848 h -0.051354 q -0.017119,0 -0.017119,-0.03424 h 0.051353 v -0.0085 q -0.025672,0 -0.025672,-0.01712 l -0.059912,0.01712 q -0.1540811,-0.05987 -0.2054344,-0.05987 l 0.00856,0.01712 -0.034236,0.06848 0.034236,-0.0085 -0.00856,0.02569 q 0.025672,0 0.025672,-0.02569 h 0.025672 q 0,0.04279 -0.034237,0.05991 -0.025672,-0.01712 -0.051353,-0.01712 0,0.02569 -0.017119,0.02569 -0.034237,-0.01712 -0.034237,-0.02569 0.017116,-0.02568 0.017116,-0.05135 h -0.00856 q -0.051354,0.07703 -0.094148,0.07703 v -0.07703 q -0.017119,0 -0.017119,-0.0085 -0.051353,0.01712 -0.051353,0.05135 h -0.017119 l 0.00856,-0.03424 -0.00856,-0.03424 q 0,-0.01712 0.00856,-0.02569 h -0.00856 l -0.042794,0.04279 q -0.034236,0 -0.059912,-0.06848 l -0.034236,0.0085 0.017119,0.05991 h -0.00856 q -0.094148,-0.05991 -0.094148,-0.136943 l 0.00856,-0.02568 0.042795,0.0085 q 0.017119,-0.03424 0.025672,-0.03424 0.034236,0.04279 0.059912,0.04279 0.034235,0.05991 0.051354,0.05991 v -0.02568 q -0.034223,-0.02569 -0.034223,-0.05992 l 0.059912,-0.0085 q 0,-0.01712 0.059912,-0.03424 l 0.034236,0.01712 q 0.017119,-0.03424 0.059912,-0.08559 h -0.00856 l -0.042795,0.03424 h -0.025672 q 0,-0.0085 0.042795,-0.03424 l -0.00856,-0.04279 q 0.017119,-0.02569 0.017119,-0.04279 h -0.025672 v -0.0085 q 0.034237,-0.03424 0.034237,-0.06848 -0.034237,-0.01712 -0.034237,-0.03424 0.059912,-0.05991 0.059912,-0.08559 -0.017119,0 -0.017119,-0.01712 l 0.034236,-0.02568 0.00856,0.01712 -0.017119,0.02569 q 0.017119,0 0.025672,-0.01712 0.00856,-0.02568 -0.00856,-0.04279 0.068472,-0.03424 0.068472,-0.05991 0,-0.02568 0.077031,-0.05135 l -0.00856,-0.04279 q 0,-0.0085 0.051354,-0.04279 v -0.0085 l -0.059913,0.04279 -0.00856,-0.0085 0.07703,-0.08559 h 0.051354 q 0,-0.04279 0.068472,-0.05135 l 0.00856,0.02568 -0.00856,0.01712 q 0,0.0085 0.00856,0.0085 0,-0.03424 0.034236,-0.03424 0.1882962,0.136943 0.1882962,0.188295 0.1112662,0.05135 0.1968558,0.128385 0.08559,0.01712 0.2738864,0.111269 l 0.034235,-0.0085 q 0.034236,0.0085 0.034236,0.03424 0.017119,0 0.017119,-0.01712 l 0.1626192,0.04279 0.042795,-0.02569 q 0.034236,0.02569 0.1198256,0.02569 0.077031,0 0.2824449,-0.03424 l 0.042795,0.02569 h 0.017119 v -0.0085 h -0.025669 q 0,-0.02569 0.017119,-0.02569 0.042794,0 0.042794,0.04279 h 0.00856 l -0.00856,-0.05135 q 0.025672,0 0.025672,0.02568 h 0.00856 q 0,-0.04279 0.08559,-0.05991 0.017119,0.03424 0.034236,0.03424 0.068472,0 0.1283836,-0.05135 -0.00856,-0.01712 -0.00856,-0.04279 0.00856,-0.03424 0.085589,-0.03424 0,-0.04279 0.042794,-0.04279 l 0.059913,0.0085 0.094148,-0.02569 -0.00856,-0.01712 0.017119,-0.0085 q 0.00856,0 0.00856,0.0085 0.051353,0 0.094148,-0.05991 l 0.025672,0.0085 q 0.034236,-0.0085 0.034236,-0.02567 v -0.04279 h 0.00856 q 0.034236,0.01712 0.034236,0.04279 h 0.017119 l -0.025672,-0.03424 q 0.017119,0 0.017119,-0.01712 l -0.00856,-0.03424 0.025672,0.0085 q 0,-0.06848 0.1198238,-0.07703 0,-0.03424 0.034237,-0.04279 0,-0.03424 0.00856,-0.05135 l 0.017119,0.0085 q 0.017119,0 0.017119,-0.01712 l -0.00856,-0.03424 0.025672,-0.01712 0.017119,0.0085 Q 7.3539133,10.768765 7.4138259,10.72597 v -0.03424 h 0.025672 q 0,0.01712 0.068472,0.06848 -0.034237,0 -0.042795,0.0085 l -0.00856,-0.02569 q -0.017116,0 -0.017116,0.01712 l 0.00856,0.02569 -0.059912,0.09415 h 0.00856 l 0.059912,-0.05135 h 0.017119 q 0,0.03424 -0.1027071,0.111269 l 0.00856,0.03424 q -0.068474,0.06852 -0.068474,0.102754 l 0.025672,0.0085 q 0,-0.02569 0.1540614,-0.196855 l 0.025672,0.0085 q 0.042794,-0.03424 0.094148,-0.128384 l 0.025672,-0.0085 -0.00856,-0.01711 q 0,-0.01712 0.017119,-0.01712 l 0.025672,0.0085 q 0.051353,-0.04279 0.1027068,-0.08559 0.051353,-0.05135 0.077031,-0.16262 l -0.00856,-0.0085 q 0,0.08559 -0.1283847,0.188297 l -0.00856,-0.02569 q 0.034236,-0.05991 0.085589,-0.05991 v -0.01712 h -0.025672 v -0.06847 l 0.025672,-0.02568 q -0.017119,-0.0085 -0.017119,-0.03424 0.051354,0 0.094148,-0.07703 0.025672,0 0.025672,-0.03424 -0.017119,0 -0.025672,-0.02568 v -0.0085 q 0.034236,-0.05991 0.051353,-0.05991 l -0.00855,-0.02568 q 0.034237,-0.05135 0.034237,-0.102709 0.042795,0 0.042795,-0.03424 l -0.00856,-0.05135 q 0.00855,-0.03423 0.034233,-0.03423 v -0.00854 q -0.068471,0 -0.068471,-0.025678 0.034236,-0.00854 0.034236,-0.051352 l -0.017119,-0.00856 q 0,-0.00856 0.034236,-0.051352 l -0.025672,-0.00856 0.00856,-0.017116 -0.00856,-0.034237 0.051354,-0.025672 -0.00856,-0.025672 0.042795,-0.00856 v 0.017116 h -0.025666 q 0.00856,0.00856 0.00856,0.025672 h -0.017116 v 0.00856 q 0.042794,0 0.059913,-0.00856 l 0.034236,0.00856 q 0,0.1198253 -0.042795,0.1198253 h -0.025672 v 0.00856 q 0.042794,0 0.042794,0.034237 -0.00856,0.042794 -0.059912,0.042794 l 0.00856,0.017116 q 0,0.059909 -0.077032,0.1711797 -0.00856,0.111269 -0.034235,0.111269 0,-0.0085 -0.00856,-0.0085 l 0.00856,0.05135 -0.025672,0.102709 q 0,0.0085 0.00856,0.0085 0.059913,-0.145503 0.085589,-0.145503 l -0.051353,0.154061 h 0.00856 q 0.042795,-0.04279 0.111266,-0.188295 l -0.00856,-0.06847 q 0,-0.06848 0.059913,-0.09415 0.017119,-0.03424 0.017119,-0.119826 l -0.01713,-0.025824 q 0,-0.051352 0.042794,-0.1369432 l -0.00856,-0.042794 0.00856,-0.042794 -0.059912,0.00856 v -0.016988 h -0.111261 v -0.025672 h 0.017119 L 7.9872912,9.6562245 V 9.604871 q 0,-0.017119 0.025672,-0.017119 V 9.5449612 Q 7.9615962,9.3823289 7.9615962,9.3309744 h -0.025672 q 0,-0.077031 0.042795,-0.1027072 l 0.025672,0.034236 q 0,0.025672 -0.025672,0.025672 v 0.00856 l 0.051353,-0.00856 q 0,-0.025672 -0.017119,-0.042795 0,-0.017116 0.017119,-0.017116 0.025672,0 0.025672,0.034236 0.025672,0 0.034237,-0.1027068 l -0.017119,0.017119 q -0.025672,0 -0.08559,-0.1711783 L 7.8588888,8.8431149 q 0,-0.042794 0.017119,-0.042794 0.1369432,0.1797374 0.1626198,0.196855 h 0.00856 l -0.00856,-0.025672 0.00856,-0.025672 -0.025672,0.017119 -0.00856,-0.017119 v -0.034235 q 0,-0.017116 0.025672,-0.017116 0.051353,0.077031 0.059913,0.077031 0.00856,0 0.00856,-0.00856 -0.042796,-0.094148 -0.077031,-0.094148 l -0.034236,0.017116 -0.00856,-0.017116 q 0,-0.025672 0.025672,-0.025672 v -0.00856 h -0.017119 l -0.042795,0.017119 Q 7.8417738,8.714732 7.7733026,8.6719381 q 0,-0.00856 0.034236,-0.025672 0.034236,0 0.034236,0.034235 h 0.00856 Q 7.8417747,8.6205889 7.6962701,8.5435578 h -0.051354 l 0.017119,0.025672 q 0,0.017116 -0.017119,0.017116 -0.068471,-0.034236 -0.085589,-0.034236 v 0.00856 q 0.1369435,0.08559 0.1369435,0.1027069 -0.034237,0.08559 -0.068472,0.08559 0,-0.051354 -0.2567682,-0.154061 l -0.051353,0.059912 0.017119,0.00856 q -0.017119,0.00856 -0.042795,0.00856 -0.1711786,-0.042796 -0.1711786,-0.094148 l -0.051354,0.034236 -0.00856,-0.017116 q 0.034236,-0.034236 0.068472,-0.034236 0.025672,0 0.025672,0.034236 l 0.017119,-0.00856 q 0.034235,0 0.094148,0.034236 0.00856,-0.017119 0.017119,-0.017119 l 0.051354,0.00856 0.017119,-0.025672 -0.068472,-0.00856 -0.059912,0.00856 q -0.00856,-0.059912 -0.034236,-0.059912 -0.068471,0 -0.1027066,0.017116 -0.2139757,-0.042794 -0.2738875,-0.042794 l -0.025672,0.00856 v 0.017119 l 0.025672,-0.017119 q 0,0.042795 -0.068472,0.051354 h -0.00856 l -0.042795,-0.025672 -0.00856,0.034236 h -0.042793 q -0.025672,0.025672 -0.051354,0.025672 l 0.00856,0.017116 q 0,0.034235 -0.1027072,0.059912 l -0.2824446,0.1369431 -0.00856,-0.00856 -0.017119,0.00856 -0.034236,-0.017116 q 0,0.025672 -0.025672,0.025672 -0.017119,0 -0.017119,-0.017119 0.017119,-0.025672 0.017119,-0.042795 -0.00856,0 -0.059913,0.08559 -0.094148,0.042794 -0.094148,0.077031 0.034235,0.034237 0.034235,0.068472 l 0.025672,-0.017116 q 0,0.00856 0.00856,0.00856 l -0.00856,-0.034236 q 0.017119,0 0.042795,0.034235 l -0.034236,0.042796 0.017119,0.025672 -0.025672,0.017116 q -0.025672,0 -0.025672,-0.042794 h -0.017119 q 0,0.034237 0.025672,0.059912 v 0.051341 h -0.00856 q -0.042792,-0.034236 -0.068469,-0.034236 l 0.00856,0.085589 -0.068471,-0.059912 v 0.00856 q 0.025672,0.034236 0.025672,0.068472 l -0.025672,0.00856 q -0.00856,-0.00856 -0.042795,-0.00856 l -0.00856,0.025672 0.051353,0.00856 q 0,0.025672 -0.085589,0.042795 -0.051354,-0.025672 -0.059912,-0.042795 0,-0.025672 0.017119,-0.025672 -0.017116,-0.034237 -0.017116,-0.051355 l 0.017116,-0.00856 0.025672,0.00856 q 0,-0.025672 0.068471,-0.025672 v -0.00856 q -0.051353,0 -0.077031,-0.017119 l 0.00856,-0.034237 -0.00856,-0.051354 q 0.00856,-0.034236 0.034236,-0.034236 l -0.017119,-0.042794 -0.025672,0.017119 q -0.017119,0 -0.017119,-0.025672 h -0.00856 l 0.00856,0.025672 q 0,0.051354 -0.07703,0.1027071 v 0.00856 l 0.059912,-0.00856 q 0,0.017119 -0.1112662,0.111266 l -0.00856,-0.01711 q 0,0.025672 -0.017119,0.025672 -0.00856,-0.042795 -0.051354,-0.077031 v -0.042795 q 0,-0.017116 0.025672,-0.017116 -0.042795,-0.068471 -0.042795,-0.085589 h -0.034233 l 0.00856,0.042795 q -0.034236,0 -0.034236,-0.025672 h -0.025672 q -0.051354,0 -0.051354,-0.042794 h 0.017119 Q 5.385365,8.9030209 5.385365,8.8687849 l 0.025672,-0.00856 q 0,-0.017116 -0.017119,-0.017116 0,0.00856 -0.00856,0.00856 -0.025672,-0.034237 -0.025672,-0.042795 -0.00856,0 -0.00856,0.00856 0.017119,0.025672 0.017119,0.051354 H 5.351126 l -0.017119,-0.051354 -0.017119,0.00856 q -0.017119,-0.025672 -0.017119,-0.059912 0.017119,0 0.034235,0.017116 v -0.00856 Q 5.316891,8.7232809 5.23986,8.6291319 H 5.222741 q 0,0.051354 -0.025672,0.051354 Q 5.162833,8.6633699 5.162833,8.6291319 L 5.137161,8.6462509 Q 5.120042,8.6205789 5.120042,8.5435446 5.205632,8.3295715 5.239867,8.3295715 q 0.1112662,-0.059913 0.1283844,-0.08559 0,0.00856 0.00856,0.00856 0,-0.025672 0.1455022,-0.077031 l 0.00856,-0.017119 0.042795,0.00856 q 0.085589,-0.034237 0.1882967,-0.051353 0,-0.034236 0.025672,-0.034236 l 0.034236,0.025672 q 0.1027071,-0.042794 0.1027071,-0.059913 0.00856,-0.025672 0.017119,-0.025672 h 0.094148 q 0,-0.025672 0.017119,-0.025672 0.025672,0.017119 0.051354,0.017119 l 0.034236,-0.025672 0.017119,0.00856 q 0,-0.025672 0.1198247,-0.059913 0,-0.00856 0.077032,-0.034236 0,-0.042794 0.094148,-0.051354 L 6.686325,7.6705346 q 0.017119,0 0.051354,-0.034237 l 0.034236,0.00856 -0.017119,-0.025672 0.017119,-0.00856 q 0.00856,0.017119 0.017119,0.017119 0.025672,-0.077031 0.059912,-0.077031 0.017116,0.017119 0.042795,0.017119 0.08559,-0.051354 0.08559,-0.094148 -0.017116,0 -0.025672,-0.025672 0.00856,-0.051354 0.068472,-0.051354 l -0.00856,-0.017119 q 0,-0.042794 0.094148,-0.059912 0,-0.017116 0.059913,-0.042795 l -0.00856,-0.025672 q 0.085589,-0.034236 0.085589,-0.077031 0.042795,-0.00856 0.042795,-0.051353 l -0.017119,-0.025672 0.051354,0.00856 -0.00856,-0.017119 0.00856,-0.017119 q -0.00856,0 -0.025672,-0.025672 0.017116,0 0.068473,-0.077031 0.051353,0 0.059912,-0.068471 h 0.017119 l -0.00857,-0.051347 q 0.034235,0 0.034235,-0.017119 -0.025672,0 -0.025672,-0.025672 0.034235,-0.00856 0.1369423,-0.2054155 0.00856,0 0.00856,-0.00856 l -0.00856,-0.034235 0.017119,-0.00856 q 0,0.00856 0.025672,0.025672 h 0.00856 q -0.025672,-0.034249 -0.025672,-0.059926 l 0.00856,-0.034237 -0.00856,-0.025672 0.017119,-0.00856 -0.00856,-0.025672 q 0,-0.068472 0.059912,-0.068472 l -0.00856,-0.017119 q 0,-0.00856 0.051354,-0.042794 h 0.051354 v 0.025672 h -0.051352 l 0.00856,0.017119 -0.00856,0.017116 q 0.017116,0 0.025672,0.034236 0,0.025672 -0.034236,0.025672 0,0.1711786 -0.059912,0.1711786 v 0.00856 q 0.034237,0 0.034237,0.025672 h -0.051363 v -0.017119 h -0.00856 v 0.025672 q 0.017116,0 0.017116,0.017119 l -0.025672,0.094151 h 0.017119 q 0.017119,-0.059913 0.042795,-0.059913 -0.017119,0.1112657 -0.059912,0.1112657 l 0.017119,0.025672 -0.017119,0.085589 q 0,0.025672 0.017119,0.025672 0.042795,-0.1968552 0.1112668,-0.1968552 0.034236,-0.1283838 0.068471,-0.1283838 l -0.017119,-0.025672 q 0.042795,0 0.1198248,-0.1198256 l 0.00856,-0.1711789 h -0.00856 q 0,0.1369429 -0.051353,0.1968552 0,0.017119 -0.017119,0.017119 l -0.00856,-0.025672 q 0.00856,-0.077031 0.051353,-0.077031 v -0.017119 q -0.034235,0 -0.034235,-0.068472 l 0.017119,-0.034235 q -0.025672,0 -0.025672,-0.017119 0,-0.025672 0.034236,-0.025672 v -0.068471 q 0,-0.017116 0.025672,-0.017116 v -0.042815 l -0.034235,-0.034237 0.00856,-0.1198244 q -0.017119,0 -0.017119,-0.017119 l 0.00856,-0.077031 q -0.034237,-0.059912 -0.034237,-0.08559 0.025672,0 0.025672,-0.017116 0,-0.017119 -0.08559,-0.1369426 0,-0.051354 0.025672,-0.051354 0.059912,0 0.094148,0.3166817 l 0.034236,0.1283838 -0.017119,0.00856 q 0,-0.00856 -0.00856,-0.00856 v 0.017119 q 0.042796,0.051353 0.042796,0.1797374 h 0.00856 l 0.00856,-0.1968556 q 0.025672,-0.00856 0.025672,0.017119 v 0.1968552 h 0.00856 q 0.025672,-0.077031 0.034236,-0.2139734 0,-0.042794 -0.068471,-0.2310907 l -0.00856,-0.051354 0.017119,-0.034235 q 0,-0.1112662 -0.2139734,-0.3081224 Q 7.696257,5.2740219 7.6192271,5.2055504 l -0.017119,0.00856 q -0.094148,-0.077033 -0.1369434,-0.077033 0,0.042795 -0.017119,0.042795 -0.017119,0 -0.017119,-0.025672 h -0.00856 q -0.077033,0.094148 -0.085592,0.094148 h -0.034235 v -0.025672 q -0.1027072,0 -0.1369432,-0.051353 L 7.1142474,5.16276 q -0.059913,0 -0.1540616,0.017119 -0.025672,0 -0.068472,-0.017119 v 0.017119 q -0.059912,0 -0.08559,-0.051354 0.00856,-0.025672 0.051354,-0.025672 l 0.00856,0.034236 0.017119,-0.042795 -0.017119,-0.025672 -0.017119,0.017119 q -0.025672,0 -0.025672,-0.025672 0,-0.017116 0.042795,-0.017116 -0.017119,-0.025672 -0.068471,-0.059912 l -0.00856,0.00856 0.00856,0.025672 Q 6.7718988,5.034392 6.7462178,5.034392 H 6.6092765 q -0.1112666,0.025672 -0.145502,0.025672 -0.034236,0 -0.034236,-0.017119 0.017119,-0.017119 0.2139734,-0.059913 V 4.965919 q -0.025672,0 -0.025672,-0.017119 h -0.00856 q 0,0.034237 -0.017119,0.034237 -0.017119,0 -0.034236,-0.034237 0,-0.00856 0.085591,-0.034236 v -0.00856 h -0.051355 q -0.059912,0 -0.059912,0.068472 h -0.00856 Q 6.5065699,4.957357 6.5065699,4.94024 h -0.00856 q 0,0.059912 -0.059913,0.059912 Q 6.3353897,5.008712 6.301154,5.034388 H 6.284035 L 6.275475,5.000152 6.309712,4.983033 V 4.974473 H 6.284031 Q 6.1385288,5.000145 6.1385288,5.051503 l 0.017116,-0.00856 0.00856,0.00856 0.017119,-0.00856 q 0.017119,0.00856 0.017119,0.042794 L 6.172777,5.0600732 q -0.068472,0.051354 -0.068472,0.068472 0.1027074,-0.034235 0.1283841,-0.034235 0.017119,0 0.051354,0.059912 l -0.00856,0.042795 -0.017119,-0.00856 q -0.025672,0 -0.2225327,0.068472 0,0.042795 0.042794,0.094148 -0.085588,0.051355 -0.179736,0.051355 l -0.025672,-0.00856 q 0,0.034236 -0.025672,0.034236 0,-0.059912 0.025672,-0.059912 l 0.034236,0.00856 q 0,-0.034235 0.094148,-0.034235 l -0.00856,-0.017119 q 0,-0.017119 0.034236,-0.017119 v -0.042798 q -0.017119,0 -0.085589,0.068472 l -0.05135,-0.025672 q -0.1112666,0.1027069 -0.1369429,0.1027069 -0.08559,0.034236 -0.1283838,0.059912 l 0.017119,0.034237 q -0.017119,0.042794 -0.042795,0.059913 -0.00856,0 -0.00856,-0.00856 l 0.00856,-0.034236 -0.051354,-0.025672 q -0.00856,0.051354 -0.042794,0.051354 v 0.017119 l 0.034235,-0.00856 v 0.017119 h -0.017119 v 0.00856 q 0.034236,0 0.034236,0.017119 l -0.08559,0.042795 0.00856,-0.051354 h -0.00856 q -0.051354,0.042794 -0.059912,0.042794 0,0.00856 0.042795,0.025672 -0.042795,0.051353 -0.042795,0.059913 h -0.017119 l 0.00856,-0.042795 q -0.042795,0 -0.068472,0.068472 l 0.025672,0.00856 q 0,0.059912 -0.085589,0.094148 l -0.00856,0.051354 H 5.248411 v -0.025672 q -0.017119,0 -0.025672,0.042795 l 0.00856,0.025672 -0.017119,0.00856 -0.00856,-0.00856 q 0,0.017116 -0.068471,0.1198251 H 5.077236 q 0,0.025672 -0.034235,0.1027068 L 5.068673,6.189855 5.025878,6.30968 H 5.008759 v 0.025672 h 0.00856 V 6.318236 h 0.017119 q 0.042794,0.059912 0.042794,0.08559 L 5.05156,6.4894153 q 0.042795,-0.034236 0.059912,-0.034236 0,0.1027071 -0.025672,0.1027071 l 0.00856,0.017119 q 0,0.00856 -0.025672,0.025672 -0.017119,0 -0.051353,-0.085589 -0.017119,0 -0.025672,0.017119 l 0.00856,0.017119 q -0.017119,0 -0.077031,-0.042796 -0.034235,-0.017119 -0.068471,-0.017119 l -0.017119,0.034236 q 0.034236,0.059913 0.034236,0.077031 l 0.059912,-0.00856 q 0.00856,0.017119 0.00856,0.042795 H 4.923191 l 0.085589,0.094148 -0.017119,0.00856 -0.042794,-0.00856 q 0,0.017119 -0.042795,0.042795 H 4.871836 q -0.00856,0 -0.025672,-0.025672 v -0.00856 h 0.051354 q 0,-0.017119 -0.051353,-0.017119 -0.017116,0 -0.017116,0.034236 l 0.042795,0.034235 -0.042795,0.1711789 q 0.042795,0.051353 0.051354,0.1112659 0.025672,0.017119 0.068472,0.017119 0.034235,-0.025672 0.077032,-0.025672 h 0.1112578 q 0.017119,0 0.017119,0.017119 l -0.00856,0.042795 0.1283847,-0.042795 q 0,0.00856 0.00856,0.00856 Q 5.1713968,7.2511635 4.9745407,7.2511635 4.4010925,7.2169275 4.2555908,6.9002472 q 0,-0.017119 -0.2567685,-0.5477721 Q 4.2983847,6.1299432 4.2983847,6.0957069 4.3155035,5.993 4.3754159,5.993 V 5.975887 h -0.025672 q 0,-0.034236 0.077031,-0.1198256 l -0.00856,-0.034236 q 0.00856,0 0.077031,-0.051354 l -0.00856,-0.017119 q 0.1369389,-0.1198253 0.1369389,-0.1626192 0.042795,0 0.042795,-0.017119 0,-0.017119 0.034235,-0.059913 -0.017119,-0.017119 -0.017119,-0.025672 0.059912,-0.051353 0.085589,-0.085589 h 0.042795 l -0.00856,-0.034237 0.017119,-0.00856 q 0,0.017116 0.017119,0.017116 l -0.00856,-0.059912 0.051354,-0.042795 0.00856,0.025672 0.034236,-0.034236 0.017119,0.00856 q 0.034236,-0.017119 0.059913,-0.017119 0,-0.017119 -0.00856,-0.025672 l 0.017119,-0.00856 q 0.025672,0.051354 0.034235,0.051354 l 0.00856,-0.017119 -0.017119,-0.025672 0.00856,-0.034236 0.051355,0.00856 0.025672,-0.00856 q 0,0.017119 0.017119,0.017119 0.00856,-0.034236 0.025672,-0.034236 l 0.025672,0.017119 -0.00856,-0.042794 q 0.017119,-0.00856 0.085589,-0.017119 v -0.00856 h -0.017119 v -0.00856 Q 5.5051833,4.9317034 5.5394196,4.9317034 5.7020392,4.8717913 5.7961875,4.8289959 h 0.00856 v 0.017119 q -0.051354,0.051353 -0.2995624,0.1797373 -0.017116,0.025672 -0.042795,0.042795 v 0.017119 q 0.034236,0 0.068472,0.059912 0,-0.034236 0.017119,-0.034236 0.00856,0 0.034236,0.042795 -0.017119,0 -0.017119,0.017119 h 0.017119 q 0.1112703,-0.068465 0.1455057,-0.068465 l 0.00856,0.00856 q 0,-0.017119 0.025672,-0.025672 0.025672,-0.00856 0.034237,0 0,-0.042795 0.051353,-0.042795 v -0.042794 q -0.034235,0 -0.034235,-0.017119 0,-0.017119 0.025672,-0.017119 l 0.051353,0.034235 q 0.017116,-0.017119 0.017116,-0.034235 l -0.034236,0.00856 q 0,-0.042795 0.017119,-0.042795 0,0.017119 0.051354,0.042795 v -0.00856 q -0.017119,0 -0.034237,-0.068472 0.034237,0 0.051353,0.085589 h 0.017119 l 0.042794,-0.077031 h 0.042795 l -0.00856,0.042794 q 0.094148,0 0.1283841,-0.034236 h 0.042795 l 0.00856,-0.034236 q -0.00856,0 -0.00856,-0.00856 l 0.042795,0.017119 q 0.051353,0 0.1711783,-0.034236 0.025672,0 0.059912,0.017119 0,-0.025672 0.025672,-0.025672 l 0.034237,0.017119 q 0.00856,0 0.00856,-0.00856 -0.034237,0 -0.034237,-0.034236 h 0.042795 q 0.042795,0.042794 0.059912,0.042794 0,-0.017119 0.017119,-0.017119 l 0.017119,0.00856 q 0.00856,-0.034236 0.042795,-0.034236 v 0.025672 h 0.00856 q 0,-0.017116 0.00856,-0.017116 l 0.059913,0.00856 q 0.017119,-0.025672 0.017119,-0.077031 l -0.017119,0.00856 q 0,-0.00856 -0.00856,-0.025672 0,-0.025672 0.051354,-0.025672 0.034235,0.00856 0.034235,0.025672 l -0.00856,0.059912 0.00856,0.00856 q 0.017119,-0.077031 0.042796,-0.077031 h 0.08559 l 0.025672,-0.017119 q 0.059912,0.034237 0.059912,0.119825 l 0.017119,-0.00856 -0.00856,-0.017119 v -0.068477 q 0,-0.017119 0.025672,-0.017119 0.094148,0.042795 0.1198253,0.042795 0.00856,-0.017119 0.017116,-0.017119 0.042795,0.034236 0.1626198,0.068472 l 0.068471,-0.00856 q 0.1626201,0.025672 0.385152,0.231091 l -0.017119,0.00856 -0.08559,-0.00856 q 0.094148,0.068471 0.1369432,0.1882971 l 0.017119,0.00856 0.00856,-0.00856 q -0.017122,-0.034247 -0.051359,-0.077042 h 0.034236 Q 7.850323,5.0942938 7.8332045,5.0942938 v -0.025672 q 0.077031,0 0.1455014,0.1112657 0.051353,0 0.068472,0.077031 l -0.017116,0.00855 q 0.1797374,0.2310913 0.1797374,0.3081212 0.08559,0.2139737 0.1198253,0.5820079 -0.025672,0 -0.059913,0.068472 -0.025672,0 -0.042795,-0.00856 0.00856,0.025672 0.025672,0.042795 l -0.042795,0.051354 0.017119,0.034236 q -0.00856,0.00856 -0.042794,0.00856 v 0.00856 q -0.025674,0.3166802 -0.085592,0.3166802 l 0.00856,0.017119 -0.042794,0.1198253 q 0.00856,0 0.00856,0.00856 l -0.034236,0.00856 0.00856,0.017119 q 0,0.025672 -0.025672,0.025672 v 0.00856 q 0.034236,0 0.034236,0.025672 -0.017119,0 -0.017119,0.017119 0.025672,0 0.025672,0.017119 0,0.051354 -0.042794,0.1027069 0.034235,0 0.034235,0.025672 -0.042795,0.1283838 -0.068471,0.1283838 l 0.00856,0.025672 q -0.025672,0 -0.051353,0.077031 -0.034236,0 -0.077031,0.094148 -0.068472,0.042794 -0.068472,0.059913 -0.034235,0.1198251 -0.094148,0.1198251 l 0.00856,0.017119 q 0,0.017119 -0.017119,0.017119 -0.00856,0 -0.085589,-0.059913 h -0.00856 q 0.085589,0.068471 0.085589,0.08559 -0.00856,0.034237 -0.025672,0.034237 -0.017116,0 -0.034237,-0.017119 -0.025672,0.042795 -0.034236,0.1112662 -0.017119,0.025672 -0.034237,0.025672 l 0.00856,0.034235 -0.017119,0.00856 -0.059913,-0.042794 q 0.00856,0 0.034236,0.042794 v 0.017119 l -0.025672,0.042795 q 0.00856,0 0.025672,0.025672 -0.08559,0.017116 -0.08559,0.051354 l 0.042795,-0.00856 q 0,0.00856 -0.077031,0.07703 l -0.042795,-0.00856 0.00856,0.051354 q 0.1882962,0.068471 0.1882962,0.085589 l -0.308123,-0.051349 v 0.017119 H 7.234073 V 8.1070291 H 7.191279 q 0.00856,0.017119 0.017116,0.017119 l -0.00856,0.042794 h -0.00856 q 0,0.034236 0.034236,0.042795 l 0.051352,-0.00855 q 0.00856,-0.017119 0.017119,-0.017119 0.00856,0.00856 0.00856,0.025672 0,0.017119 -0.017119,0.025672 h 0.025672 q 0.034237,-0.025672 0.059913,-0.025672 0,0.00856 0.00856,0.00856 l -0.00856,0.034236 0.034236,0.059912 q -0.034236,0 -0.231091,-0.1112654 H 7.148481 l 0.00856,0.034236 -0.00856,0.00856 -0.025672,-0.00856 q 0,0.017119 0.119825,0.042794 0.00856,0.017119 0.017119,0.017119 l 0.042795,-0.00856 q 0.017119,0.017119 0.017119,0.042795 0.025672,-0.017119 0.042794,-0.017119 l 0.068473,0.017119 q 0,-0.017119 0.025672,-0.017119 L 7.430931,8.2782117 v -0.00856 h 0.025672 q 0.00856,0 0.034235,0.034235 v 0.025672 l 0.034237,0.00856 q 0,-0.017119 0.017119,-0.017119 0.017119,0 0.017119,0.025672 h 0.00856 q 0.00856,-0.068472 0.034236,-0.068472 l 0.00856,0.025672 -0.042794,0.077031 0.1027069,-0.00856 q 0.042795,0.017119 0.042795,0.034236 0,0.017116 -0.017119,0.017116 l -0.025672,-0.00856 v 0.00856 q 0.051353,0.051353 0.1540607,0.1027072 l 0.017119,0.025672 q 0.034236,0 0.034236,-0.025672 h 0.017119 v 0.042794 q 0,0.00856 0.1626192,0.1882968 v 0.034236 l -0.00856,0.017116 0.042795,-0.00856 q 0.00856,0 0.00856,0.094148 h 0.00856 q 0,-0.07703 0.017116,-0.07703 0.017119,0.017119 0.017119,0.042794 0.00856,0.025672 -0.00856,0.042795 l 0.00856,0.025672 q -0.00856,0 -0.00856,0.00856 0.025672,0 0.025672,0.042794 l 0.042794,-0.00856 0.00856,0.017119 q 0,0.025672 -0.025672,0.025672 v 0.00856 q 0.034235,0 0.034235,0.017116 0,0.025672 -0.00856,0.025672 0.017119,0.034235 0.034236,0.034235 0.059912,0 0.059912,-0.017116 l -0.00856,-0.025672 q 0.00856,-0.00856 0.034235,0 0.025672,0.00856 0.025672,0.051354 0,0.034236 -0.077031,0.042795 v 0.00856 q 0.094148,0 0.094148,0.042794 0.00856,0.042795 0.042795,0.077031 -0.00856,0.034237 -0.085591,0.094148 h 0.00856 q 0.059912,-0.034235 0.08559,-0.034235 0,0.00856 0.00856,0.00856 -0.017119,0.059912 -0.017119,0.1027069 0,0.017116 0.017119,0.017116 l -0.00856,0.1198239 q 0.042794,0 0.042794,0.1112659 -0.00856,0.1027075 -0.025672,0.1027075 L 8.38952,9.7674364 Q 8.38096,9.8273454 8.338166,9.8701435 l 0.017119,0.00856 q 0.017119,-0.017116 0.017119,-0.042795 l 0.025672,0.00856 q 0,-0.051352 0.017119,-0.051352 0.025672,0.034238 0.025672,0.051352 l -0.00856,0.025669 q 0.017119,0 0.017119,0.025669 0,0.017116 -0.017119,0.017116 -0.017119,0 -0.025672,-0.00854 0,0.068475 0.017119,0.1198245 -0.042795,0.08559 -0.068472,0.256769 -0.034237,0.06847 -0.051354,0.162619 -0.017119,0 -0.08559,0.04279 H 8.19266 q 0,0.04279 -0.051354,0.07703 0.017119,0 0.017119,0.03424 H 8.1070743 Q 8.0043666,10.8801 7.927336,10.8801 l 0.00856,0.02569 -0.08559,0.111269 0.00856,0.01712 q 0,0.01712 -0.051353,0.01712 l 0.00856,0.01712 q 0,0.02568 -0.051354,0.02568 v 0.0085 q 0.042794,0 0.042794,0.01712 0,0.01712 -0.034236,0.01712 0.025672,0.01712 0.025672,0.03424 -0.051353,0.09415 -0.08559,0.09415 l -0.042795,-0.0085 -0.025672,0.04279 h 0.034237 v -0.02569 q 0.042794,0 0.042794,0.03424 -0.08559,0.15406 -0.1455014,0.162619 l 0.017116,0.02568 q -0.077032,0.0085 -0.077032,0.05991 -0.034236,0 -0.1540605,0.09415 l -0.068472,0.01712 q 0,-0.0085 -0.00856,-0.0085 0,0.06848 -0.119825,0.119826 0,-0.0085 -0.00856,-0.0085 0,0.03424 -0.017119,0.03424 -0.00856,0 -0.08559,-0.102709 v 0.0085 q 0.059913,0.08559 0.059913,0.111268 0,0.01712 -0.025672,0.02569 -0.034237,0 -0.034237,-0.02569 -0.077031,0.04279 -0.077031,0.111269 l -0.034234,-0.0085 q 0,0.03424 -0.017119,0.03424 l -0.017119,-0.0085 q 0,0.03424 -0.017119,0.03424 -0.051353,-0.05135 -0.051353,-0.07703 -0.00856,0 -0.00856,0.0085 0.017119,0.02568 0.017119,0.06848 -0.051353,0.02569 -0.051353,0.04279 l 0.00856,0.03424 -0.042795,-0.0085 q -0.059912,0 -0.068471,0.02569 l 0.017119,0.0085 0.025672,-0.0085 v 0.0085 q -0.068472,0.05135 -0.1369435,0.05135 l -0.00856,-0.02568 h -0.00856 q -0.00856,0.05991 -0.077031,0.05991 -0.025672,0 -0.025672,-0.04279 -0.068471,0.04279 -0.1027063,0.04279 0,-0.01712 0.025672,-0.01712 v -0.0085 q -0.017119,0 -0.051353,-0.02569 h -0.00856 l 0.017116,0.02569 q -0.00856,0 -0.025672,0.02568 0.00856,0 0.00856,0.0085 l -0.017119,0.0085 q 0,-0.0085 -0.00856,-0.0085 0,0.02569 -0.017116,0.02569 h -0.03424 q -0.017119,0 -0.017119,-0.02569 -0.017119,0 -0.017119,0.02569 l 0.00856,0.02568 q -0.025672,0 -0.042795,-0.01712 0,0.03424 -0.017119,0.03424 l -0.00856,-0.02568 h -0.025672 q 0,0.05991 -0.1283838,0.05991 -0.017119,-0.05135 -0.077031,-0.05135 l 0.017116,0.02569 Q 5.8560769,12.275264 5.8304,12.292386 l -0.085589,-0.0085 z M 6.6264071,4.7861406 h -0.025672 q 0,-0.034236 0.017119,-0.034236 z m 0.059912,0 -0.00856,-0.017119 q 0,-0.017116 0.017119,-0.017116 l 0.00856,0.017116 q 0,0.017119 -0.017119,0.017119 z M 6.207019,4.8032596 q -0.017119,0 -0.017119,-0.017119 l 0.025672,-0.017119 0.00856,0.017119 q 0,0.017119 -0.017119,0.017119 z m 0.2396506,0.017119 h -0.034235 q 0.00856,-0.034236 0.059912,-0.034236 0.025672,0 0.025672,0.017119 -0.034236,0.017119 -0.051354,0.017119 z m 0.3337985,0 q -0.025672,0 -0.025672,-0.017116 0.00856,-0.017119 0.017119,-0.017119 z M 5.873221,4.8631729 q -0.017119,0 -0.017119,-0.017119 l -0.017119,0.00856 q -0.017119,0 -0.017119,-0.051354 h 0.017119 q 0.017119,0 0.017119,0.025672 l 0.017119,-0.00856 q 0.017116,0 0.017116,0.017119 0,0.025672 -0.017116,0.025672 z m 0.4193871,-0.00856 q -0.034236,0 -0.034236,-0.017119 l 0.042796,-0.025672 q 0.017119,0 0.017119,0.017119 0,0.00856 -0.025675,0.025672 z M 6.3953153,4.8374948 H 6.369643 v -0.025672 h 0.00856 q 0.017119,0 0.017119,0.025672 z m -0.265327,0.059912 -0.017119,-0.025672 0.017119,-0.00856 h 0.034236 q 0.017116,0 0.017116,0.025672 z m -0.6419202,0.017119 q 0,-0.042795 0.017119,-0.042795 h 0.017116 v 0.00856 q -0.017116,0.034236 -0.034236,0.034236 z m -0.059912,0.034236 q -0.025672,0 -0.025672,-0.017119 l 0.068471,-0.042794 q 0,0.042794 -0.042794,0.059912 z m 0.3594757,0.042795 h -0.025672 q 0,-0.017119 0.017119,-0.025672 h 0.00856 z m -0.1198251,0.094148 h -0.042795 v -0.025672 q 0.059913,0 0.059913,-0.051354 l 0.042794,0.034235 q 0,-0.051354 0.017119,-0.051354 l 0.034237,0.025672 h 0.042795 q 0,0.025672 -0.042795,0.042795 l -0.025672,-0.00856 z m -0.034236,-0.059913 h -0.00856 q 0,-0.017119 0.017116,-0.025672 h 0.00856 q 0,0.025672 -0.017119,0.025672 z m 0.5820079,0.025672 v -0.00855 q 0.025672,-0.042795 0.034236,-0.042795 0.017119,0.00856 0.017119,0.017119 0,0.034236 -0.051353,0.034236 z m 0.068472,0.068472 q -0.017119,0 -0.017119,-0.025672 0,-0.034237 0.017119,-0.034237 0.017116,0.00856 0.017116,0.034237 0,0.025672 -0.017116,0.025672 z m 0.3166797,0 q -0.00856,-0.00856 -0.00856,-0.025672 0,-0.025672 0.051354,-0.034237 h 0.051354 q 0.017119,0.00856 0.017119,0.025672 z m -0.9928357,0.00856 -0.00856,-0.025672 h 0.00856 q 0.017119,0 0.017119,0.017119 z M 6.3781987,5.239762 q -0.059912,0 -0.059912,-0.017119 0,-0.017119 0.025672,-0.025672 l 0.025672,0.017119 q 0,-0.017119 0.034236,-0.017119 0,-0.025672 -0.034236,-0.042794 l -0.017119,0.00856 q 0,-0.00856 -0.00856,-0.025672 0,-0.025672 0.051353,-0.025672 0.017119,0 0.017119,0.077031 l 0.042794,-0.017119 0.025672,0.00856 v 0.017116 q -0.025672,0 -0.1027069,0.042795 z M 6.5750542,5.21409 q -0.017119,0 -0.017119,-0.017119 0,-0.034235 0.068473,-0.042794 0,-0.025672 0.1112659,-0.042795 0.034236,0.00856 0.034236,0.025672 0,0.017119 -0.1198251,0.051354 0,-0.00856 -0.00856,-0.00856 0,0.00856 -0.068472,0.034235 z M 6.326845,5.1627356 H 6.301173 q 0,-0.034237 0.017119,-0.034237 z m -1.2410459,0.017119 q -0.042795,0 -0.042795,-0.025672 l 0.085589,-0.00856 v 0.017119 q 0,0.017119 -0.042794,0.017119 z m 1.1554566,0.1198253 q -0.017119,0 -0.034237,-0.025672 0,-0.025672 0.059913,-0.034237 l -0.017119,-0.025672 0.017119,-0.00856 q 0.017119,0.017119 0.017119,0.034237 l 0.025672,-0.00856 v 0.017119 q -0.00856,0 -0.068472,0.051354 z M 7.413829,5.2568834 H 7.39671 v -0.00856 q 0.00856,-0.034236 0.025672,-0.034236 h 0.017119 v 0.00856 q -0.017119,0.034236 -0.025675,0.034236 z m 0.273887,0.3166811 -0.00856,-0.017116 0.00856,-0.034236 q 0,-0.034237 -0.077031,-0.077032 -0.034236,-0.059912 -0.034236,-0.094148 -0.017119,0 -0.017119,0.025672 H 7.542211 L 7.456625,5.3253475 q 0,-0.025672 0.094149,-0.1027069 h 0.017119 l 0.1540602,0.1540608 -0.034236,0.034236 0.025672,0.017119 0.025672,-0.00856 q 0.034236,0 0.077031,0.094148 -0.068471,0.059912 -0.1283841,0.059912 z M 6.9773234,5.2654509 h -0.051354 v -0.017119 h 0.051354 z m 0.1455023,0.00856 h -0.017116 q -0.017119,0 -0.017119,-0.025672 l 0.034235,0.00856 z m 0.3337978,0.017119 -0.00856,-0.017119 q 0,-0.025672 0.017119,-0.025672 0.017119,0 0.017119,0.017119 0,0.00856 -0.025672,0.025672 z m -0.7189501,-0.01712 h -0.025672 v -0.017116 h 0.025672 z M 7.294004,5.3082457 Q 7.1656202,5.2825705 7.1656202,5.26545 l 0.025672,-0.00856 0.1027077,0.034236 z m 0.830217,0.051354 q -0.00856,0 -0.042795,-0.051354 v -0.00856 h 0.00856 q 0.034236,0.017119 0.034236,0.059913 z m -1.0698676,0.00856 -0.051353,-0.00856 v -0.017119 l 0.051353,0.00856 z m -1.2324866,0.059914 h -0.034236 q 0,-0.025672 0.025672,-0.025672 0.025672,0.00856 0.025672,0.017119 z m 1.4806957,0.025672 -0.00856,-0.034236 h 0.025672 q 0,0.034236 -0.017116,0.034236 z m -1.3095171,0.017116 q -0.034235,0 -0.034235,-0.017116 l 0.034235,-0.00856 q 0.017119,0.00856 0.017119,0.017119 z m 1.4036663,0.034237 q -0.017119,-0.00856 -0.017119,-0.03424 h 0.017119 q 0.017119,0.00856 0.017119,0.017119 0,0.017119 -0.017119,0.017119 z m 0.068471,0.051354 q -0.017119,0 -0.025672,-0.034236 0,-0.017119 0.017119,-0.017119 0.025672,0.00856 0.025672,0.025672 0,0.025672 -0.017119,0.025672 z M 7.696274,5.6677178 H 7.679155 q 0,-0.017119 -0.051354,-0.094149 v -0.017113 q 0.025672,0 0.068471,0.1112665 z m 0.2225322,0.085589 h -0.017119 q -0.017119,-0.068472 -0.017119,-0.094148 0.017119,-0.017119 0.017119,-0.094148 0.017119,0 0.042795,0.094148 L 7.9102461,5.693391 Z M 7.8075404,5.7276305 q -0.034236,0 -0.077031,-0.1112662 l 0.017119,-0.00856 q 0.059913,0.085589 0.059913,0.1198253 z m -3.3294261,-0.00856 -0.00856,-0.017119 0.025672,-0.017119 0.00856,0.017119 z m 3.1582472,0.07703 h -0.017119 l -0.00856,-0.051353 h 0.017119 z m 0.077031,0.4365059 q -0.00856,-0.00856 -0.034236,-0.00856 0,-0.025672 0.017116,-0.051354 -0.025672,-0.034236 -0.025672,-0.1027066 l 0.00856,-0.051354 h 0.025672 l 0.00856,0.059913 0.034236,-0.00856 q 0,0.025672 -0.025672,0.051353 0.00856,0 0.00856,0.00856 l -0.017119,0.00856 q 0,-0.00856 -0.00856,-0.00856 v 0.017119 q 0.025672,0 0.042794,0.034236 -0.017119,0 -0.034236,0.051354 z M 8.278281,6.3524337 q -0.034236,0 -0.034236,-0.017119 0,-0.059913 0.068472,-0.1283835 h 0.00856 q 0,0.145501 -0.042794,0.145501 z M 7.7647453,6.2839617 q -0.025672,0 -0.042796,-0.025672 0.017119,-0.034237 0.025672,-0.034237 l 0.017119,0.025672 q 0,0.00856 -0.00856,0.00856 z m -2.6789471,0.051353 q -0.034236,0 -0.034236,-0.025672 h 0.017119 q 0.017119,0.00856 0.017119,0.025672 z m 3.1924829,0.08559 q -0.059912,0 -0.068471,-0.025672 0,-0.017119 0.034236,-0.034236 0.017119,0 0.034235,0.025672 z m -0.077031,0.1968549 -0.00856,-0.025672 0.017119,-0.094148 -0.00856,-0.068473 h 0.017116 q 0.034236,0 0.034236,0.042795 -0.017119,0.1283838 -0.051353,0.1455025 z m -0.111266,0.3851523 h -0.017119 l 0.00856,-0.034236 -0.00856,-0.085589 q 0,-0.025672 0.042795,-0.1112662 l 0.025672,0.00856 v -0.025672 q -0.025672,0 -0.025672,-0.034236 0.025672,0 0.042795,-0.059912 0.034236,-0.017116 0.059913,-0.017116 l 0.00856,0.025672 -0.017119,0.042795 h -0.017119 q -0.017119,-0.017119 -0.034237,-0.017119 0.017119,0.025672 0.017119,0.051353 -0.034235,0.068472 -0.059912,0.1968562 -0.017119,0 -0.025672,0.059912 z M 4.9488547,6.9344404 q -0.051353,0 -0.068471,-0.051354 0.025672,-0.085589 0.051354,-0.085589 0.017119,0 0.017119,0.025672 l -0.017119,0.042795 q 0.059912,0 0.059912,0.017119 0,0.017119 -0.042795,0.051353 z m 2.3708262,0.025672 q 0,-0.034236 0.042794,-0.051354 0.00856,0 0.025672,0.025672 0,0.017119 -0.068471,0.025672 z m -0.042795,0.059912 q 0,-0.025672 0.017116,-0.025672 l 0.00856,0.017119 z m 0.7275089,0.042795 0.00856,-0.034236 q -0.034236,0 -0.034236,0.017119 V 7.062821 Z M 6.9088517,7.5335606 H 6.891733 q 0,-0.042794 0.017119,-0.042794 0.017116,0 0.017116,0.017119 0,0.025672 -0.017116,0.025672 z m 0.6932738,0.128385 q 0,-0.034236 0.034236,-0.042795 v -0.00856 h -0.025672 q -0.017119,0.025672 -0.017119,0.042795 0,0.00856 0.00856,0.00856 z m 0.017119,0.051354 q 0,-0.034236 0.017119,-0.034236 l 0.00856,0.017119 q -0.017119,0.017119 -0.025672,0.017119 z M 5.6506888,8.115569 H 5.6250168 V 8.09845 h 0.025672 z M 7.2597689,8.175481 7.2255339,8.166921 V 8.149802 h 0.017119 q 0.017119,0.00856 0.017119,0.025672 z m 0.3166802,0.025672 q 0,-0.025672 0.034237,-0.051354 0.017119,0.00856 0.017119,0.017119 0,0.034236 -0.051354,0.034237 z m 0.042796,0.034237 q -0.017116,0 -0.017116,-0.034237 h 0.025672 q 0.017119,0.00856 0.017119,0.017116 -0.017119,0.017119 -0.025672,0.017119 z m 0.2995616,0.1369426 q -0.034235,0 -0.1198245,-0.042795 l -0.034236,0.00856 q 0,-0.059913 -0.017119,-0.059913 l 0.00856,0.017119 -0.017119,0.00856 -0.017119,-0.025672 0.00856,-0.025672 q -0.059913,-0.017119 -0.059913,-0.034236 0.00856,-0.017119 0.017119,-0.017119 0.2482088,0.1027074 0.2482088,0.1455025 0,0.017119 -0.017119,0.025672 z M 7.4052714,8.2439511 h -0.00856 q 0,-0.017119 0.017119,-0.025672 h 0.00856 q 0,0.025672 -0.017116,0.025672 z m 0.119825,0.077031 q -0.017119,0 -0.017119,-0.017119 L 7.53365,8.286745 q 0.017119,0 0.017119,0.017119 z m 0.4878595,0.1198268 q -0.08559,-0.025672 -0.08559,-0.051353 0,-0.017119 0.025672,-0.025672 h 0.017119 q 0.042794,0.017119 0.059912,0.059912 0,0.017119 -0.017119,0.017119 z m -0.2567682,-0.00856 q -0.025672,0 -0.025672,-0.017116 l 0.017119,-0.00856 z m 0.077032,0.068471 -0.042795,-0.051354 v -0.017116 h 0.017119 q 0.042795,0.025672 0.042795,0.059913 z M 7.970162,8.4836026 H 7.927367 v -0.017116 h 0.025672 q 0.017119,0 0.017119,0.017116 z m 0.1198247,0.042795 q -0.034235,0 -0.034235,-0.017119 0.025672,-0.017116 0.051353,-0.017116 h 0.00856 q 0,0.017116 -0.025672,0.034237 z m 0.08559,0.068472 -0.068472,-0.068472 0.034236,-0.025672 h 0.017119 q 0,0.051353 0.034236,0.085589 z m -1.1041028,-0.00856 q -0.051353,0 -0.059912,-0.034236 l 0.025672,-0.00856 q 0.00856,0 0.034236,0.034236 z m 0.9072464,0.017122 q -0.034235,-0.00856 -0.051353,-0.042795 l 0.017119,-0.00856 q 0.051354,0.017116 0.051354,0.034236 0,0.017119 -0.017119,0.017119 z m -1.1297791,-0.00856 q -0.025672,0 -0.025672,-0.017116 h 0.025672 z m 0.8216584,0.017119 -0.00856,-0.017119 0.025672,-0.00856 q 0,0.025672 -0.017119,0.025672 z m 0.5563301,0.034235 q -0.017119,0 -0.034236,-0.025672 0.00856,-0.017119 0.025672,-0.017119 0.017119,0 0.034236,0.025672 0,0.017119 -0.025672,0.017119 z m -0.4536229,0 q -0.051354,0 -0.059913,-0.034235 h 0.042795 q 0.017116,0.00856 0.017116,0.034235 z M 7.4309489,8.671904 q -0.025672,0 -0.025672,-0.017116 l 0.017119,-0.00856 z m 0.6162442,0 h -0.025672 q 0,-0.017116 0.017119,-0.025672 h 0.00856 z M 7.7219517,8.723258 q -0.025672,0 -0.025672,-0.025672 0,-0.025672 0.042795,-0.034236 l 0.00856,0.017116 q 0,0.042795 -0.025672,0.042795 z M 8.2868423,8.740374 Q 8.26117,8.7318146 8.26117,8.6633438 h 0.017119 q 0.025672,0.00856 0.025672,0.059913 0,0.017116 -0.017119,0.017119 z M 7.157062,8.7061331 q -0.034235,0 -0.034235,-0.017119 l 0.00856,-0.017116 q 0.042795,0.017116 0.042795,0.025672 z m 0.9586014,0.059913 q -0.017119,0 -0.051354,-0.068471 v -0.017119 h 0.00856 q 0.017119,0 0.059912,0.068472 0,0.017116 -0.017119,0.017116 z M 7.2255343,8.7318097 q -0.025672,0 -0.025672,-0.025672 l 0.017119,-0.00856 z m -0.6419208,0.00856 q -0.025672,0 -0.025672,-0.017116 L 6.57506,8.7061374 Z m 0.9842774,0.051355 q -0.077031,-0.025672 -0.077031,-0.034237 0,-0.025672 0.025672,-0.034236 l 0.068472,0.034236 v -0.017119 h 0.017119 v 0.025672 q 0,0.025672 -0.034237,0.025672 z m 0.1198259,-0.025672 -0.00856,-0.017116 0.017116,-0.00856 0.00856,0.017116 z M 7.5850094,8.800287 q 0,-0.017116 0.025672,-0.025672 l 0.00856,0.017119 z m 0.1797377,0.1198273 -0.1283844,-0.08559 0.00856,-0.017116 h -0.025672 q 0,-0.017116 0.034236,-0.025672 0.017119,0 0.017119,0.017116 l -0.00856,0.025672 q 0.034236,0 0.059912,0.025672 l 0.00856,-0.051354 q -0.017119,0 -0.017119,-0.017119 0.00856,-0.017116 0.017119,-0.017116 h 0.00856 q 0.059913,0.025672 0.059913,0.042794 0,0.017119 -0.068472,0.051354 0.034237,0.00856 0.034237,0.025672 z M 6.4894628,8.8687549 h -0.00856 q -0.025672,-0.042794 -0.07703,-0.042794 v -0.025672 q 0.051354,0 0.085589,0.051354 z M 8.346752,8.8430826 q -0.017119,0 -0.017119,-0.025672 0,-0.017119 0.017119,-0.017119 0.017119,0 0.017119,0.017119 0,0.025672 -0.017119,0.025672 z M 6.2241358,8.9800229 q -0.00856,0 -0.025672,-0.025672 l 0.034237,-0.034236 -0.017116,-0.042794 0.017116,-0.00856 0.017119,0.00856 q 0,-0.025672 0.017119,-0.025672 h 0.017119 l -0.00856,0.034237 q 0.017119,0 0.017119,0.017116 -0.051353,0.00856 -0.051353,0.068472 z M 5.4195966,8.9029956 v -0.034236 h -0.00856 v 0.034236 z M 8.20981,8.8944362 q -0.017119,0 -0.017119,-0.017116 l 0.017119,-0.00856 q 0.017119,0 0.017119,0.017116 z m 0.2054135,0.025672 q -0.025672,0 -0.025672,-0.025672 0,-0.025672 0.017119,-0.025672 l 0.017116,0.00856 q -0.00856,0.017116 -0.00856,0.042795 z m -2.0284673,0 q -0.017119,0 -0.034236,-0.025672 v -0.00856 h 0.051353 q 0,0.034236 -0.017119,0.034236 z m -0.2824454,0.042795 -0.025672,-0.042795 0.017119,-0.00856 0.025672,0.042795 z m 2.1654116,0.00856 q -0.042794,0 -0.042794,-0.017116 l 0.042794,-0.00856 z m 0.1626195,0.051353 q -0.017119,0 -0.017119,-0.017116 0.00856,-0.051353 0.025672,-0.051353 h 0.00856 l -0.00856,0.025672 0.00856,0.034237 z M 6.1556652,8.9971437 q -0.017119,0 -0.017119,-0.025672 h 0.017119 z M 7.9701597,9.1084099 Q 7.9016873,9.0228177 7.9016873,8.9971408 l 0.017119,-0.00856 q 0.068472,0.042795 0.068472,0.1112662 z m -0.00856,0.094148 q -0.025672,0 -0.1027075,-0.1027077 0.017119,0 0.017119,-0.017116 -0.034237,0 -0.068472,-0.059912 -0.00856,-0.025672 0.017119,-0.025672 h 0.00856 q 0.042796,0.051351 0.059913,0.051351 0.068472,0.085589 0.068472,0.1540602 z M 8.2526068,9.0827327 8.2269345,9.0570604 q 0.00856,-0.017116 0.025672,-0.017116 0.00856,0 0.025672,0.025672 z m 0.1540608,0.00856 h -0.017119 v -0.025672 h 0.017119 z m -0.650479,0.00856 q -0.025672,0 -0.025672,-0.025672 h 0.00856 q 0.017119,0.00856 0.017119,0.025672 z M 7.82466,9.219677 q -0.017119,0 -0.017119,-0.025672 H 7.82466 Z M 7.893131,9.4507677 H 7.876012 V 9.3994097 H 7.893131 Z M 7.8161,9.5534749 H 7.798984 V 9.5106799 H 7.8161 Z m 0.1027074,0.025672 h -0.017119 v -0.034231 h 0.017119 z m 0.017119,0.1283844 q -0.025672,0 -0.025672,-0.017119 v -0.077031 h 0.025672 z m -0.1369423,0.068473 -0.00856,-0.017116 0.017119,-0.00856 h 0.00856 q 0,0.025672 -0.017119,0.025676 z m -0.00856,0.059909 -0.017119,-0.017116 0.034235,-0.00856 q 0,0.025669 -0.017119,0.025669 z m 0.025672,0.042794 h -0.042795 q 0,-0.025669 0.025672,-0.025669 h 0.017119 z m 0.077031,0.1198239 h -0.017116 q 0.00856,-0.059909 0.025672,-0.059909 h 0.00856 q -0.017119,0.042795 -0.017119,0.059909 z m 0.530654,-0.034237 q 0,-0.025678 0.017116,-0.025678 l 0.00856,0.017116 z m -0.4707379,0.094148 h -0.017119 v -0.05135 q 0,-0.017116 0.017119,-0.017116 h 0.00856 z m 0.085589,0.05991 h -0.017119 q 0,-0.06848 0.068471,-0.08559 0,-0.0085 0.025672,-0.02568 h 0.00856 q 0,0.07703 -0.077031,0.07703 z M 7.7647439,10.058442 H 7.747628 q 0,-0.03424 0.017116,-0.03424 z m -0.1112663,0.342356 q -0.034235,-0.0085 -0.034235,-0.02568 l 0.034235,-0.01712 q 0,-0.09415 0.042795,-0.128383 h 0.017119 l -0.00856,0.05135 0.034235,-0.0085 v 0.01712 q -0.025672,0.03424 -0.059913,0.03424 0.025672,0.02568 0.025672,0.05135 -0.025672,0 -0.051354,0.02568 z m 0.042795,0.05991 q -0.017116,0 -0.034237,-0.02568 0,-0.01712 0.025672,-0.03424 0.017119,0.0085 0.017119,0.01712 z m -0.1968544,0.265325 q -0.034237,0 -0.042795,-0.02568 v -0.05135 q 0,-0.01712 0.025672,-0.02568 l -0.00856,-0.01712 q 0.034238,-0.09415 0.059915,-0.10271 l 0.051354,0.0085 q 0.00856,0 0.00856,-0.0085 -0.025672,0 -0.025672,-0.02568 l 0.1027069,-0.01712 q 0.017119,0.0085 0.017119,0.02568 l -0.059912,-0.0085 0.00856,0.01712 -0.00856,0.01712 q 0.00856,0.01712 0.00856,0.04279 -0.059912,0.03424 -0.077031,0.119825 z m 0.701833,-0.119823 q -0.034236,-0.0085 -0.034236,-0.03424 0,-0.03424 0.119825,-0.09415 v 0.0085 q -0.017119,0.06847 -0.08559,0.119825 z m -0.025672,0.05135 q -0.025672,0 -0.051353,-0.03424 l 0.025672,-0.01712 h 0.025672 q 0.017119,0 0.017119,0.02568 0,0.02569 -0.017119,0.02569 z m -0.1112659,0.171178 -0.00856,-0.02569 q 0.051354,-0.06848 0.059912,-0.145501 0.025672,0 0.034236,0.02568 -0.051354,0.136943 -0.085589,0.145501 z m -0.2738861,0.410829 v -0.0085 l 0.077028,-0.188299 q 0.025672,-0.0085 0.051354,-0.05135 l 0.017119,0.0085 q 0.017119,0 0.017119,-0.03424 -0.025672,0 -0.025672,-0.01712 0.077031,-0.09415 0.1455022,-0.09415 l 0.00856,0.01712 q -0.034236,0.05991 -0.068472,0.05991 0,-0.02569 -0.017119,-0.02569 0,0.08559 -0.068472,0.136942 0,0.04279 -0.1369423,0.196856 z M 7.0115638,11.051282 v -0.0085 q 0.017119,-0.03424 0.051354,-0.03424 l 0.017119,0.03424 z m -0.051353,0.05135 -0.00856,-0.01712 0.017119,-0.0085 h 0.00856 q 0,0.02568 -0.017119,0.02568 z M 6.378203,11.479226 q -0.025672,0 -0.025672,-0.01712 0,-0.01711 0.034236,-0.03424 0.017119,0.0085 0.017119,0.02569 0,0.0085 -0.025672,0.02568 z m 0.6932735,0.316681 q 0,-0.01712 -0.025672,-0.01712 0,0.01712 0.025672,0.01712 z m -0.051354,0.08559 h -0.00856 q 0,-0.01712 0.017116,-0.02569 h 0.00856 q 0,0.02569 -0.017119,0.02569 z m -2.4649726,0.196857 h -0.00856 l 0.00856,-0.05135 h 0.017119 q 0,0.05135 -0.017119,0.05135 z m 0.00856,0.05991 H 4.546591 v -0.02568 h 0.017116 z m 0.2139737,0.06848 h -0.00856 q -0.042795,-0.02569 -0.059913,-0.02569 -0.042795,0.02569 -0.068471,0.02569 l -0.00856,-0.01712 v -0.03424 l 0.034238,0.01712 q 0,-0.01712 0.017119,-0.01712 l 0.00856,0.0085 0.042794,-0.03424 h 0.017119 v 0.02569 l 0.042794,-0.0085 q 0.017119,0.01712 0.017119,0.03424 h -0.034236 z m 0.2139731,0.145502 -0.00856,-0.03424 0.017119,-0.03424 q -0.00856,0 -0.034236,-0.03424 l 0.017119,-0.0085 q 0.034236,0.01712 0.034236,0.06848 0,0.02569 -0.025672,0.04279 z m -0.1198259,-0.04279 q -0.034236,-0.0085 -0.034236,-0.02568 v -0.03424 h 0.00856 q 0.051353,0.03424 0.051353,0.04279 0,0.01712 -0.025672,0.01712 z m 0.3509166,0.01712 -0.00856,-0.01712 q 0,-0.01712 0.017119,-0.01712 l 0.00856,0.01712 q 0,0.01712 -0.017119,0.01712 z M 11.17976,4.6149626 q -0.02569,0 -0.02569,-0.034236 h 0.01712 v 0.017119 l 0.01712,-0.00856 0.0085,0.017119 z m 0.102709,0.017119 h -0.02569 q -0.01712,0 -0.02568,-0.051354 h 0.0085 q 0.04279,0.017116 0.04279,0.051354 z M 11.094173,4.6492 h -0.01712 q 0,-0.042794 0.01712,-0.042794 h 0.01712 q 0,0.042794 -0.01712,0.042794 z m -0.08559,0.00856 q -0.05135,-0.00856 -0.05135,-0.0428 h 0.03424 q 0.01712,0.00856 0.01712,0.042794 z m -0.09415,0.017119 h -0.02569 q 0,-0.042794 0.02569,-0.042794 0.02568,0 0.02568,0.017119 z m -0.145501,0.059913 -0.0085,-0.017119 q 0.0085,-0.042795 0.03424,-0.077031 0.03424,0.017119 0.07703,0.017119 0,0.025672 -0.07703,0.034236 0,-0.00856 -0.0085,-0.00856 0,0.051353 -0.01712,0.051353 z m 0.56489,-0.051354 h -0.02568 V 4.666322 h 0.02568 z M 10.631989,4.75191 q -0.01712,0 -0.01712,-0.017119 0,-0.042795 0.05991,-0.042795 0.02569,0 0.02569,0.017119 -0.02569,0.042794 -0.06848,0.042795 z M 10.52072,4.828941 10.47793,4.803269 v 0.017116 q -0.03424,0 -0.03424,-0.017116 h 0.02569 l -0.0085,-0.00856 q -0.03424,0.017119 -0.07703,0.017119 l -0.0085,-0.017119 q 0.17118,-0.08559 0.196855,-0.08559 0.03424,0.00856 0.03424,0.025672 0,0.025672 -0.08559,0.068472 z m -0.282447,7.480508 h -0.02569 l 0.0085,-0.02568 -0.179737,0.0085 q -0.02568,0 -0.02568,-0.03424 l -0.068475,0.01712 -0.00854,-0.01712 0.00854,-0.01712 -0.085588,0.0085 -0.025669,-0.01712 q 0,0.03424 -0.017116,0.03424 -0.068472,0 -0.1369426,-0.05135 l -0.025672,0.01712 q -0.059917,-0.03424 -0.3680391,-0.136946 -0.034236,-0.04279 -0.034236,-0.06848 h -0.051355 q -0.017116,0 -0.017116,-0.03424 h 0.051354 v -0.0085 q -0.025672,0 -0.025672,-0.01712 l -0.059913,0.01712 q -0.154032,-0.05988 -0.2053861,-0.05988 l 0.00856,0.01712 -0.034236,0.06848 0.034236,-0.0085 -0.00856,0.02568 q 0.025672,0 0.025672,-0.02568 h 0.025672 q 0,0.04279 -0.034237,0.05991 -0.025672,-0.01711 -0.051353,-0.01711 0,0.02568 -0.017116,0.02568 -0.034236,-0.01712 -0.034236,-0.02568 0.017119,-0.02569 0.017119,-0.05135 h -0.00856 q -0.051354,0.07703 -0.094149,0.07703 v -0.07703 q -0.017119,0 -0.017119,-0.0085 -0.051353,0.01712 -0.051353,0.05135 H 8.689115 l 0.00856,-0.03424 -0.00856,-0.03424 q 0,-0.01712 0.00856,-0.02568 h -0.00856 l -0.042795,0.04279 q -0.034236,0 -0.059913,-0.06848 l -0.034235,0.0085 0.017116,0.05991 H 8.560728 Q 8.466577,11.924303 8.466577,11.847266 l 0.00856,-0.02569 0.042794,0.0085 q 0.017119,-0.03424 0.025672,-0.03424 0.034237,0.04279 0.059912,0.04279 0.034236,0.05991 0.051354,0.05991 v -0.02569 q -0.034234,-0.02568 -0.034234,-0.05991 l 0.059913,-0.0085 q 0,-0.01712 0.059912,-0.03424 l 0.034236,0.01711 q 0.017116,-0.03424 0.059912,-0.08559 h -0.00856 l -0.042794,0.03424 H 8.757582 q 0,-0.0085 0.042795,-0.03424 l -0.00856,-0.04279 q 0.017116,-0.02569 0.017116,-0.0428 H 8.783261 v -0.0085 q 0.034236,-0.03424 0.034236,-0.06848 -0.034236,-0.01712 -0.034236,-0.03424 0.059913,-0.05991 0.059913,-0.08559 -0.017119,0 -0.017119,-0.01712 l 0.034236,-0.02569 0.00856,0.01712 -0.017116,0.02568 q 0.017116,0 0.025672,-0.01712 0.00856,-0.02569 -0.00856,-0.04279 0.068472,-0.03424 0.068472,-0.05991 0,-0.02569 0.077031,-0.05135 l -0.00856,-0.04279 q 0,-0.0085 0.051354,-0.04279 v -0.0085 l -0.059913,0.04279 -0.00856,-0.0085 0.077031,-0.08559 h 0.051356 q 0,-0.04279 0.068471,-0.05135 l 0.00856,0.02569 -0.00856,0.01712 q 0,0.0085 0.00856,0.0085 0,-0.03424 0.034237,-0.03424 0.1882968,0.136943 0.1882968,0.188297 0.1112662,0.05135 0.1968552,0.128385 0.08559,0.01712 0.2738855,0.111268 l 0.034238,-0.0085 q 0.034237,0.0085 0.034237,0.03424 0.017116,0 0.017116,-0.01712 l 0.1626185,0.0428 0.04279,-0.02568 q 0.03424,0.02568 0.119824,0.02568 0.07703,0 0.282447,-0.03424 l 0.04279,0.02568 h 0.01712 v -0.0085 h -0.02568 q 0,-0.02569 0.01712,-0.02569 0.04279,0 0.04279,0.04279 h 0.0085 l -0.0085,-0.05135 q 0.02569,0 0.02569,0.02569 h 0.0085 q 0,-0.04279 0.08559,-0.05991 0.01712,0.03424 0.03424,0.03424 0.06848,0 0.128384,-0.05135 -0.0085,-0.01712 -0.0085,-0.04279 0.0085,-0.03424 0.08559,-0.03424 0,-0.04279 0.04279,-0.04279 l 0.05991,0.0085 0.09415,-0.02568 -0.0085,-0.01712 0.01712,-0.0085 q 0.0085,0 0.0085,0.0085 0.05135,0 0.09415,-0.05991 l 0.02568,0.0085 q 0.03424,-0.0085 0.03424,-0.02569 v -0.04279 h 0.0085 q 0.03424,0.01712 0.03424,0.04279 h 0.01712 l -0.02568,-0.03424 q 0.01712,0 0.01712,-0.01712 l -0.0085,-0.03424 0.02569,0.0085 q 0,-0.06848 0.119824,-0.07703 0,-0.03424 0.03424,-0.04279 0,-0.03424 0.0085,-0.05135 l 0.01712,0.0085 q 0.01712,0 0.01712,-0.01712 l -0.0085,-0.03424 0.02569,-0.01712 0.01712,0.0085 Q 11.838854,10.768734 11.89877,10.72594 V 10.6917 h 0.02569 q 0,0.01712 0.06848,0.06848 -0.03424,0 -0.04279,0.0085 L 11.94165,10.743 q -0.01712,0 -0.01712,0.01712 l 0.0085,0.02568 -0.05991,0.09415 h 0.0085 l 0.05991,-0.05135 h 0.01712 q 0,0.03424 -0.102711,0.111269 l 0.0085,0.03424 q -0.06848,0.06848 -0.06848,0.102709 l 0.02569,0.0085 q 0,-0.02569 0.15406,-0.196855 l 0.02569,0.0085 q 0.04279,-0.03424 0.09415,-0.128384 l 0.02569,-0.0085 -0.0085,-0.01712 q 0,-0.01712 0.01712,-0.01712 l 0.02569,0.0085 q 0.05135,-0.04279 0.10271,-0.08559 0.05135,-0.05135 0.07703,-0.162619 l -0.0085,-0.0085 q 0,0.08559 -0.128386,0.188296 l -0.0085,-0.02569 q 0.03424,-0.05991 0.0856,-0.05991 v -0.01712 h -0.02569 v -0.06848 l 0.02569,-0.02568 q -0.01712,-0.0085 -0.01712,-0.03424 0.05135,0 0.09415,-0.07703 0.02569,0 0.02569,-0.03424 -0.01712,0 -0.02569,-0.02568 v -0.0085 q 0.03424,-0.05991 0.05135,-0.05991 l -0.0085,-0.02568 q 0.03424,-0.05135 0.03424,-0.102709 0.04279,0 0.04279,-0.03424 l -0.0085,-0.05135 q 0.0085,-0.034237 0.03424,-0.034237 V 9.97269 q -0.06848,0 -0.06848,-0.025678 0.03424,-0.00854 0.03424,-0.051352 L 12.446793,9.8871 q 0,-0.00856 0.03424,-0.051352 l -0.02569,-0.00856 0.0085,-0.017116 -0.0085,-0.034237 0.05135,-0.025672 -0.0085,-0.025672 0.04279,-0.00856 V 9.73305 h -0.02569 q 0.0085,0.00856 0.0085,0.025672 h -0.01712 v 0.00856 q 0.04279,0 0.05991,-0.00856 l 0.03424,0.00856 q 0,0.1198259 -0.04279,0.1198259 h -0.02569 v 0.00856 q 0.04279,0 0.04279,0.034237 -0.0085,0.042795 -0.05991,0.042795 l 0.0085,0.017116 q 0,0.059909 -0.07703,0.1711791 -0.0085,0.111268 -0.03424,0.111268 0,-0.0085 -0.0085,-0.0085 l 0.0085,0.05135 -0.02568,0.10271 q 0,0.0085 0.0085,0.0085 0.05991,-0.145503 0.08559,-0.145503 l -0.05135,0.15406 h 0.0085 q 0.04279,-0.04279 0.111269,-0.188296 l -0.0085,-0.06847 q 0,-0.06848 0.05991,-0.09415 0.01712,-0.03424 0.01712,-0.1198247 l -0.01712,-0.025678 q 0,-0.051352 0.04279,-0.1369429 l -0.0085,-0.042795 0.0085,-0.042795 -0.05991,0.00856 V 9.707369 H 12.472303 V 9.681697 h 0.01712 L 12.472303,9.656025 V 9.604708 q 0,-0.017116 0.02568,-0.017116 V 9.544795 q -0.05136,-0.1626195 -0.05136,-0.2139737 h -0.02569 q 0,-0.077031 0.04279,-0.1027069 l 0.02569,0.034235 q 0,0.025672 -0.02569,0.025672 v 0.00856 l 0.05135,-0.00856 q 0,-0.025672 -0.01712,-0.042795 0,-0.017116 0.01712,-0.017116 0.02568,0 0.02568,0.034236 0.02569,0 0.03424,-0.1027071 l -0.01712,0.017116 q -0.02569,0 -0.08559,-0.1711786 l -0.12837,-0.1626035 q 0,-0.042795 0.01712,-0.042795 0.136942,0.1797385 0.16262,0.1968561 h 0.0085 l -0.0085,-0.025672 0.0085,-0.025672 -0.02569,0.017116 -0.0085,-0.017116 v -0.034235 q 0,-0.017119 0.02569,-0.017119 0.05135,0.077031 0.05991,0.077031 0.0085,0 0.0085,-0.00856 -0.04279,-0.094148 -0.07703,-0.094148 l -0.03424,0.017116 -0.0085,-0.017116 q 0,-0.025672 0.02568,-0.025672 v -0.00856 h -0.01712 l -0.04279,0.017116 q -0.111257,-0.1369595 -0.179731,-0.179754 0,-0.00856 0.03424,-0.025672 0.03424,0 0.03424,0.034235 h 0.0085 q -0.0085,-0.059912 -0.15406,-0.1369426 h -0.05135 l 0.01712,0.025672 q 0,0.017116 -0.01712,0.017116 -0.06848,-0.034237 -0.08559,-0.034237 v 0.00856 q 0.136943,0.085591 0.136943,0.1027077 -0.03424,0.085589 -0.06848,0.085589 0,-0.051354 -0.256768,-0.1540607 l -0.05135,0.059913 0.01712,0.00856 q -0.01712,0.00856 -0.04279,0.00856 -0.17118,-0.042795 -0.17118,-0.094148 l -0.05135,0.034237 -0.0085,-0.017119 q 0.03424,-0.034237 0.06848,-0.034237 0.02569,0 0.02569,0.034237 l 0.01712,-0.00856 q 0.03424,0 0.09415,0.034237 0.0085,-0.017119 0.01712,-0.017119 l 0.05135,0.00856 0.01712,-0.025672 -0.06848,-0.00856 -0.05991,0.00856 q -0.0085,-0.059913 -0.03424,-0.059913 -0.06848,0 -0.102709,0.017116 -0.213972,-0.042795 -0.273885,-0.042795 l -0.02569,0.00856 v 0.017119 l 0.02569,-0.017119 q 0,0.042795 -0.06848,0.051354 h -0.0085 l -0.04279,-0.025672 -0.0085,0.034235 h -0.04279 q -0.02569,0.025672 -0.05135,0.025672 l 0.0085,0.017116 q 0,0.034236 -0.102709,0.059913 l -0.282446,0.1369432 -0.0085,-0.00856 -0.01712,0.00856 -0.03424,-0.017119 q 0,0.025672 -0.02568,0.025672 -0.01712,0 -0.01712,-0.017116 0.01712,-0.025672 0.01712,-0.042795 -0.0085,0 -0.05991,0.08559 -0.09415,0.042795 -0.09415,0.077031 0.03424,0.034237 0.03424,0.068472 l 0.02569,-0.017116 q 0,0.00856 0.0085,0.00856 l -0.0085,-0.034236 q 0.01712,0 0.04279,0.034236 l -0.03424,0.042795 0.01712,0.025672 -0.02569,0.017116 q -0.02569,0 -0.02569,-0.042795 h -0.01712 q 0,0.034235 0.02569,0.059912 v 0.051354 h -0.0085 q -0.04279,-0.034236 -0.06848,-0.034236 l 0.0085,0.085589 -0.06848,-0.059913 v 0.00856 q 0.02568,0.034236 0.02568,0.068472 l -0.02568,0.00856 q -0.0085,-0.00856 -0.04279,-0.00856 l -0.0085,0.025672 0.05135,0.00856 q 0,0.025672 -0.08559,0.042794 -0.05135,-0.025672 -0.05991,-0.042794 0,-0.025672 0.01712,-0.025672 -0.01712,-0.034237 -0.01712,-0.051353 l 0.01712,-0.00856 0.02568,0.00856 q 0,-0.025672 0.06848,-0.025672 v -0.00856 q -0.05135,0 -0.07703,-0.017116 l 0.0085,-0.034236 -0.0085,-0.051353 q 0.0085,-0.034236 0.03424,-0.034236 l -0.01712,-0.042795 -0.02569,0.017116 q -0.01712,0 -0.01712,-0.025672 h -0.0085 l 0.0085,0.025672 q 0,0.051353 -0.07703,0.1027065 v 0.00856 l 0.05991,-0.00856 q 0,0.017119 -0.111266,0.1112663 l -0.0085,-0.017116 q 0,0.025672 -0.01712,0.025672 -0.0085,-0.042794 -0.05135,-0.077031 V 9.065614 q 0,-0.017119 0.02568,-0.017119 -0.04279,-0.068471 -0.04279,-0.085589 H 9.973347 L 9.981887,9.0057 q -0.034238,0 -0.034238,-0.025672 H 9.921971 q -0.051352,0 -0.051352,-0.042795 H 9.887735 Q 9.870532,8.902991 9.870532,8.868755 l 0.025669,-0.00856 q 0,-0.017119 -0.017116,-0.017119 0,0.00856 -0.00856,0.00856 Q 9.844856,8.8174 9.844856,8.808842 q -0.00856,0 -0.00856,0.00856 0.017116,0.025672 0.017116,0.051353 H 9.83629 L 9.819174,8.817402 9.802058,8.825962 Q 9.784942,8.80029 9.784942,8.76605 q 0.017116,0 0.034237,0.017119 V 8.774609 Q 9.8017874,8.7232538 9.7247568,8.6291049 h -0.017119 q 0,0.051354 -0.025672,0.051354 -0.034237,-0.017119 -0.034237,-0.051354 l -0.025672,0.017119 Q 9.6049411,8.6205513 9.6049411,8.5435167 9.6905296,8.3295433 9.7247664,8.3295433 9.836033,8.269631 9.8531511,8.243954 q 0,0.00856 0.00856,0.00856 0,-0.025672 0.1455019,-0.077031 l 0.0085,-0.017116 0.04279,0.00856 q 0.08559,-0.034237 0.188298,-0.051354 0,-0.034236 0.02569,-0.034236 l 0.03424,0.025672 Q 10.40944,8.064215 10.40944,8.047097 10.41794,8.021425 10.42656,8.021425 h 0.09415 q 0,-0.025672 0.01712,-0.025672 0.02568,0.017119 0.05135,0.017119 L 10.62342,7.9872 10.64054,7.99576 q 0,-0.025672 0.119826,-0.059912 0,-0.00856 0.07703,-0.034237 0,-0.042795 0.09415,-0.051354 l 0.239651,-0.179738 q 0.01712,0 0.05135,-0.034237 l 0.03424,0.00856 -0.01712,-0.025672 0.01712,-0.00856 q 0.0085,0.017116 0.01712,0.017116 0.02569,-0.077031 0.05991,-0.077031 0.01712,0.017119 0.04279,0.017119 0.08559,-0.051353 0.08559,-0.094148 -0.01712,0 -0.02568,-0.025672 0.0085,-0.051353 0.06848,-0.051353 l -0.0085,-0.017119 q 0,-0.042795 0.09415,-0.059912 0,-0.017119 0.05991,-0.042795 l -0.0085,-0.025672 q 0.08559,-0.034236 0.08559,-0.077032 0.04279,-0.00856 0.04279,-0.051353 l -0.01711,-0.025672 0.05135,0.00856 -0.0085,-0.017116 0.0085,-0.017119 q -0.0085,0 -0.02569,-0.025672 0.01711,0 0.06848,-0.077031 0.05135,0 0.05991,-0.068472 h 0.01712 l -0.0085,-0.051354 q 0.03424,0 0.03424,-0.017119 -0.02569,0 -0.02569,-0.025672 0.03424,-0.00856 0.136943,-0.2054143 0.0085,0 0.0085,-0.00856 l -0.0085,-0.034236 0.01712,-0.00856 q 0,0.00856 0.02569,0.025672 h 0.0085 q -0.02569,-0.034247 -0.02569,-0.059924 l 0.0085,-0.034236 -0.0085,-0.025672 0.01712,-0.00856 -0.0085,-0.025672 q 0,-0.068472 0.05991,-0.068472 l -0.0085,-0.017119 q 0,-0.00856 0.05135,-0.042794 h 0.05135 v 0.025672 h -0.05135 l 0.0085,0.017119 -0.0085,0.017119 q 0.01712,0 0.02568,0.034237 0,0.025672 -0.03424,0.025672 0,0.1711786 -0.05991,0.1711786 v 0.00856 q 0.03424,0 0.03424,0.025672 h -0.05135 v -0.017119 h -0.0085 v 0.025672 q 0.01712,0 0.01712,0.017119 l -0.02569,0.094148 h 0.01712 q 0.01712,-0.059913 0.04279,-0.059913 -0.01712,0.1112662 -0.05991,0.1112662 l 0.01712,0.025672 -0.01712,0.085589 q 0,0.025672 0.01712,0.025672 0.04279,-0.1968555 0.111268,-0.1968555 0.03424,-0.1283841 0.06848,-0.1283841 l -0.01712,-0.025672 q 0.04279,0 0.119826,-0.1198259 l 0.0085,-0.171178 h -0.0085 q 0,0.1369428 -0.05135,0.1968555 0,0.017116 -0.01712,0.017116 l -0.0085,-0.025672 q 0.0085,-0.077031 0.05135,-0.077031 v -0.017119 q -0.03424,0 -0.03424,-0.068471 l 0.01712,-0.034236 q -0.02569,0 -0.02569,-0.017119 0,-0.025672 0.03424,-0.025672 v -0.068472 q 0,-0.017119 0.02569,-0.017119 v -0.042799 l -0.03424,-0.034237 0.0085,-0.1198245 q -0.01712,0 -0.01712,-0.017119 l 0.0085,-0.077031 q -0.03424,-0.059913 -0.03424,-0.08559 0.02569,0 0.02569,-0.017116 0,-0.017119 -0.08559,-0.1369426 0,-0.051353 0.02568,-0.051353 0.05991,0 0.09415,0.31668 l 0.03424,0.1283841 -0.01712,0.00856 q 0,-0.00856 -0.0085,-0.00856 v 0.017119 q 0.04279,0.051354 0.04279,0.1797377 h 0.0085 l 0.0085,-0.1968555 q 0.02568,-0.00856 0.02568,0.017116 v 0.196855 h 0.0085 q 0.02569,-0.077031 0.03424,-0.2139731 0,-0.042794 -0.06848,-0.231091 l -0.0085,-0.051354 0.01712,-0.034236 q 0,-0.1112657 -0.213972,-0.3081215 -0.05991,-0.1112671 -0.136944,-0.1797386 l -0.01712,0.00856 q -0.09415,-0.077031 -0.136945,-0.077031 0,0.042796 -0.01712,0.042796 -0.01711,0 -0.01711,-0.025672 h -0.0085 q -0.07703,0.094148 -0.08559,0.094148 h -0.03424 V 5.22265 q -0.102709,0 -0.136944,-0.051354 l -0.05135,-0.00856 q -0.05991,0 -0.154061,0.017116 -0.02568,0 -0.06848,-0.017116 v 0.017116 q -0.05991,0 -0.08559,-0.051353 0.0085,-0.025672 0.05135,-0.025672 l 0.0085,0.034236 0.01712,-0.042794 -0.01712,-0.025672 -0.01712,0.017116 q -0.02568,0 -0.02568,-0.025672 0,-0.017119 0.04279,-0.017119 -0.01712,-0.025672 -0.06848,-0.059912 l -0.0085,0.00856 0.0085,0.025672 q -0.02569,0.017116 -0.05135,0.017116 h -0.136943 q -0.111268,0.025672 -0.145501,0.025672 -0.03424,0 -0.03424,-0.017119 0.01712,-0.017119 0.213973,-0.059912 V 4.96588 q -0.02569,0 -0.02569,-0.017119 h -0.0085 q 0,0.034237 -0.01712,0.034237 -0.01712,0 -0.03424,-0.034237 0,-0.00856 0.08559,-0.034236 v -0.00856 h -0.05135 q -0.05991,0 -0.05991,0.068473 h -0.0085 q -0.01712,-0.017119 -0.01712,-0.034237 h -0.0085 q 0,0.059912 -0.05991,0.059912 -0.102708,0.00856 -0.136941,0.034236 h -0.01712 l -0.0085,-0.034236 0.03424,-0.017119 v -0.00856 h -0.02569 q -0.145504,0.025672 -0.145504,0.077031 l 0.01712,-0.00856 0.0085,0.00856 0.01712,-0.00856 q 0.01712,0.00856 0.01712,0.042795 l -0.02569,-0.025672 q -0.06848,0.051354 -0.06848,0.068472 0.102709,-0.034236 0.128384,-0.034236 0.01712,0 0.05135,0.059913 l -0.0085,0.042794 -0.01712,-0.00856 q -0.02569,0 -0.222532,0.068471 0,0.042794 0.04279,0.094148 -0.08559,0.051354 -0.179738,0.051354 l -0.02567,-0.00856 q 0,0.034236 -0.02568,0.034236 0,-0.059912 0.02568,-0.059912 l 0.03424,0.00856 q 0,-0.034236 0.09415,-0.034236 l -0.0085,-0.017119 q 0,-0.017119 0.03424,-0.017119 V 5.265438 q -0.01712,0 -0.08559,0.068471 l -0.05135,-0.025672 q -0.111268,0.1027074 -0.13694,0.1027074 -0.08559,0.034236 -0.128384,0.059912 l 0.01712,0.034237 q -0.01712,0.042794 -0.04279,0.059912 -0.0085,0 -0.0085,-0.00856 l 0.0085,-0.034236 -0.05135,-0.025672 q -0.0087,0.051358 -0.04299,0.051358 v 0.017119 l 0.034239,-0.00856 v 0.017119 h -0.01712 v 0.00856 q 0.03424,0 0.03424,0.017119 l -0.08559,0.042794 0.00854,-0.051353 h -0.00854 q -0.051352,0.042795 -0.059909,0.042795 0,0.00856 0.042794,0.025672 -0.042794,0.051354 -0.042794,0.059913 H 9.879036 l 0.00856,-0.042795 q -0.042794,0 -0.068475,0.068472 l 0.025669,0.00856 q 0,0.059912 -0.08559,0.094148 L 9.75064,5.8988124 H 9.733524 v -0.025672 q -0.017119,0 -0.025672,0.042794 l 0.00856,0.025672 -0.017119,0.00856 -0.00856,-0.00856 q 0,0.017119 -0.068473,0.119825 H 9.562045 q 0,0.025672 -0.034235,0.1027072 L 9.553482,6.1898106 9.510687,6.3096357 H 9.493562 v 0.025672 h 0.00856 v -0.017119 h 0.017116 q 0.042795,0.059913 0.042795,0.08559 L 9.53636,6.489383 q 0.042795,-0.034235 0.059912,-0.034235 0,0.1027066 -0.025672,0.1027066 l 0.00856,0.017119 q 0,0.00856 -0.025672,0.025672 -0.017119,0 -0.051354,-0.08559 -0.017119,0 -0.025672,0.017119 l 0.00856,0.017119 q -0.017116,0 -0.077031,-0.042795 -0.034237,-0.017119 -0.068472,-0.017119 l -0.017116,0.034237 q 0.034236,0.059912 0.034236,0.077031 l 0.059912,-0.00856 q 0.00856,0.017119 0.00856,0.042794 H 9.407995 l 0.085589,0.094148 -0.017119,0.00856 -0.042795,-0.00856 q 0,0.017119 -0.042794,0.042795 h -0.03426 q -0.00856,0 -0.025672,-0.025672 v -0.00856 h 0.051354 q 0,-0.017119 -0.051354,-0.017119 -0.017116,0 -0.017116,0.034236 l 0.042795,0.034235 -0.042795,0.1711789 q 0.042795,0.051353 0.051353,0.1112662 0.025672,0.017119 0.068473,0.017119 0.034235,-0.025672 0.07703,-0.025672 h 0.1112663 q 0.017119,0 0.017119,0.017119 l -0.00856,0.042794 0.1283844,-0.042794 q 0,0.00856 0.00856,0.00856 -0.1108917,0.162621 -0.3077472,0.162621 -0.5734491,-0.034236 -0.7189508,-0.3509171 0,-0.017119 -0.2567682,-0.5477719 0.2995579,-0.222536 0.2995579,-0.256772 0.017119,-0.1027072 0.077031,-0.1027072 v -0.01711 H 8.834904 q 0,-0.034236 0.07703,-0.119825 l -0.00856,-0.034236 q 0.00856,0 0.077032,-0.051354 l -0.00856,-0.017119 q 0.1369434,-0.119825 0.1369434,-0.1626195 0.042794,0 0.042794,-0.017119 0,-0.017119 0.034237,-0.059912 -0.017119,-0.017119 -0.017119,-0.025672 0.059912,-0.051354 0.085589,-0.085589 h 0.0428 L 9.28853,5.368176 9.305646,5.359616 q 0,0.017119 0.017119,0.017119 L 9.314205,5.316823 9.365558,5.274028 9.374118,5.2997 9.408355,5.265464 9.425474,5.274024 Q 9.45971,5.256905 9.485387,5.256905 q 0,-0.017119 -0.00856,-0.025672 L 9.493943,5.222673 Q 9.519615,5.274026 9.52818,5.274026 L 9.53674,5.256907 9.519624,5.231235 9.528184,5.197 9.579538,5.20556 9.60521,5.197 q 0,0.017119 0.017116,0.017119 0.00856,-0.034236 0.025672,-0.034236 L 9.67367,5.197002 9.66511,5.154208 Q 9.682226,5.145648 9.7507,5.137089 V 5.128529 H 9.733584 v -0.00856 q 0.2567591,-0.1882985 0.290995,-0.1882985 0.16262,-0.059912 0.256768,-0.1027072 h 0.0085 v 0.017119 q -0.05135,0.051354 -0.2995627,0.1797374 -0.017116,0.025672 -0.042794,0.042796 v 0.017116 q 0.034237,0 0.068474,0.059912 0,-0.034235 0.01712,-0.034235 0.0085,0 0.03424,0.042794 -0.01712,0 -0.01712,0.017119 h 0.01712 q 0.111268,-0.068473 0.145502,-0.068473 l 0.0085,0.00856 q 0,-0.017119 0.02569,-0.025672 0.02568,-0.00856 0.03424,0 0,-0.042795 0.05135,-0.042795 v -0.042793 q -0.03424,0 -0.03424,-0.017119 0,-0.017119 0.02569,-0.017119 l 0.05135,0.034235 q 0.01712,-0.017116 0.01712,-0.034235 l -0.03424,0.00856 q 0,-0.042795 0.01712,-0.042795 0,0.017119 0.05135,0.042795 v -0.00856 q -0.01712,0 -0.03424,-0.068472 0.03424,0 0.05135,0.085589 h 0.01712 l 0.04279,-0.077031 h 0.04279 l -0.0085,0.042795 q 0.09415,0 0.128385,-0.034236 h 0.04279 l 0.0085,-0.034236 q -0.0085,0 -0.0085,-0.00856 l 0.04279,0.017119 q 0.05135,0 0.171179,-0.034237 0.02568,0 0.05991,0.017116 0,-0.025672 0.02569,-0.025672 l 0.03424,0.017119 q 0.0085,0 0.0085,-0.00856 -0.03424,0 -0.03424,-0.034236 h 0.04279 q 0.04279,0.042794 0.05991,0.042794 0,-0.017119 0.01712,-0.017119 l 0.01712,0.00856 q 0.0085,-0.034235 0.04279,-0.034235 v 0.025672 h 0.0085 q 0,-0.017119 0.0085,-0.017119 l 0.05991,0.00856 q 0.01712,-0.025672 0.01712,-0.077032 l -0.01712,0.00856 q 0,-0.00856 -0.0085,-0.025672 0,-0.025672 0.05135,-0.025672 0.03424,0.00856 0.03424,0.025672 l -0.0085,0.059912 0.0085,0.00856 q 0.01712,-0.077031 0.04279,-0.077031 h 0.08559 l 0.02568,-0.017119 q 0.05991,0.034236 0.05991,0.1198251 l 0.01712,-0.00856 -0.0085,-0.017119 v -0.068476 q 0,-0.017119 0.02569,-0.017119 0.09415,0.042794 0.119824,0.042794 0.0085,-0.017119 0.01712,-0.017119 0.04279,0.034236 0.16262,0.068472 l 0.06848,-0.00856 q 0.162619,0.025672 0.385152,0.2310906 l -0.01712,0.00856 -0.08559,-0.00856 q 0.09415,0.068472 0.136943,0.1882965 l 0.01712,0.00856 0.0085,-0.00856 q -0.01712,-0.034247 -0.05135,-0.077041 h 0.03424 q -0.0599,-0.059931 -0.07703,-0.059931 v -0.025669 q 0.07703,0 0.145502,0.111266 0.05135,0 0.06848,0.077031 l -0.01712,0.00856 q 0.179739,0.2310915 0.179739,0.3081218 0.08559,0.2139734 0.119824,0.5820072 -0.02569,0 -0.05991,0.068472 -0.02568,0 -0.04279,-0.00856 0.0085,0.025672 0.02568,0.042795 l -0.04279,0.051354 0.01712,0.034236 q -0.0085,0.00856 -0.04279,0.00856 v 0.00856 q -0.02569,0.3166806 -0.08559,0.3166806 l 0.0085,0.017116 -0.04279,0.119825 q 0.0085,0 0.0085,0.00856 l -0.03424,0.00856 0.0085,0.017119 q 0,0.025672 -0.02568,0.025672 v 0.00856 q 0.03424,0 0.03424,0.025672 -0.01712,0 -0.01712,0.017119 0.02568,0 0.02568,0.017119 0,0.051354 -0.04279,0.1027075 0.03424,0 0.03424,0.025672 -0.04279,0.1283838 -0.06848,0.1283838 l 0.0085,0.025672 q -0.02568,0 -0.05135,0.077031 -0.03424,0 -0.07703,0.094148 -0.06848,0.042794 -0.06848,0.059912 -0.03424,0.1198253 -0.09415,0.1198253 l 0.0085,0.017116 q 0,0.017119 -0.01712,0.017119 -0.0085,0 -0.08559,-0.059914 h -0.0085 q 0.08559,0.068472 0.08559,0.08559 -0.0085,0.034237 -0.02568,0.034237 -0.01712,0 -0.03424,-0.017119 -0.02568,0.042795 -0.03424,0.1112668 -0.01712,0.025672 -0.03424,0.025672 l 0.0085,0.034235 -0.01712,0.00856 -0.05991,-0.042795 q 0.0085,0 0.03424,0.042795 v 0.017116 l -0.02568,0.042795 q 0.0085,0 0.02568,0.025672 -0.08559,0.017119 -0.08559,0.051353 l 0.04279,-0.00856 q 0,0.00856 -0.07703,0.07703 l -0.04279,-0.00856 0.0085,0.051353 q 0.188297,0.068472 0.188297,0.085589 l -0.308118,-0.051341 v 0.017119 h -0.01712 V 8.106991 h -0.04279 q 0.0085,0.017116 0.01712,0.017116 l -0.0085,0.042795 h -0.0085 q 0,0.034235 0.03424,0.042794 l 0.05135,-0.00855 q 0.0085,-0.017119 0.01712,-0.017119 0.0085,0.00856 0.0085,0.025672 0,0.017119 -0.01711,0.025672 h 0.02568 q 0.03424,-0.025672 0.05991,-0.025672 0,0.00856 0.0085,0.00856 l -0.0085,0.034235 0.03424,0.059913 q -0.03424,0 -0.231091,-0.1112662 h -0.02569 l 0.0085,0.034236 -0.0085,0.00856 -0.02569,-0.00856 q 0,0.017119 0.119825,0.042795 0.0085,0.017119 0.01712,0.017119 l 0.04279,-0.00856 q 0.01712,0.017119 0.01712,0.042795 0.02568,-0.017119 0.04279,-0.017119 l 0.06848,0.017119 q 0,-0.017119 0.02569,-0.017119 l -0.02569,-0.034236 v -0.00856 h 0.02569 q 0.0085,0 0.03424,0.034236 v 0.025672 l 0.03424,0.00856 q 0,-0.017119 0.01712,-0.017119 0.01712,0 0.01712,0.025672 h 0.0085 q 0.0085,-0.068472 0.03424,-0.068472 l 0.0085,0.025672 -0.04279,0.077031 0.102708,-0.00856 q 0.04279,0.017119 0.04279,0.034236 0,0.017119 -0.01712,0.017119 l -0.02569,-0.00856 v 0.00856 q 0.05135,0.051354 0.154062,0.1027075 l 0.01712,0.025672 q 0.03424,0 0.03424,-0.025672 h 0.01712 v 0.042795 q 0,0.00856 0.16262,0.1882967 v 0.034236 l -0.0085,0.017119 0.04279,-0.00856 q 0.0085,0 0.0085,0.094148 h 0.0085 q 0,-0.077031 0.01712,-0.077031 0.01712,0.017116 0.01712,0.042795 0.0085,0.025672 -0.0085,0.042794 l 0.0085,0.025672 q -0.0085,0 -0.0085,0.00856 0.02568,0 0.02568,0.042795 l 0.04279,-0.00856 0.0085,0.017116 q 0,0.025672 -0.02568,0.025672 v 0.00856 q 0.03424,0 0.03424,0.017116 0,0.025672 -0.0085,0.025672 0.01712,0.034236 0.03424,0.034236 0.05991,0 0.05991,-0.017116 l -0.0085,-0.025672 q 0.0085,-0.00856 0.03424,0 0.02568,0.00856 0.02568,0.051353 0,0.034235 -0.07703,0.042794 v 0.00856 q 0.09415,0 0.09415,0.042794 0.0085,0.042794 0.04279,0.077031 -0.0085,0.034237 -0.08559,0.094148 h 0.0085 q 0.05991,-0.034234 0.08559,-0.034234 0,0.00856 0.0085,0.00856 -0.01712,0.059913 -0.01712,0.1027075 0,0.017119 0.01712,0.017119 l -0.0085,0.119825 q 0.04279,0 0.04279,0.1112663 -0.0085,0.1027066 -0.02568,0.1027066 l -0.05136,-0.034237 q -0.0085,0.059909 -0.05135,0.1027071 l 0.01712,0.00856 q 0.01712,-0.017116 0.01712,-0.042794 l 0.02569,0.00856 q 0,-0.051353 0.01712,-0.051353 0.02569,0.034238 0.02569,0.051353 l -0.0085,0.025669 q 0.01712,0 0.01712,0.025669 0,0.017116 -0.01712,0.017116 -0.01712,0 -0.02569,-0.00854 0,0.068474 0.01712,0.1198235 -0.04279,0.08559 -0.06848,0.256768 -0.03424,0.06847 -0.05135,0.162619 -0.01712,0 -0.08559,0.04279 h -0.02568 q 0,0.04279 -0.05135,0.07703 0.01712,0 0.01712,0.03424 h -0.05135 q -0.102708,0.282446 -0.179736,0.282446 l 0.0085,0.02569 -0.08559,0.111267 0.0085,0.01712 q 0,0.01712 -0.05135,0.01712 l 0.0085,0.01711 q 0,0.02568 -0.05135,0.02568 v 0.0085 q 0.04279,0 0.04279,0.01712 0,0.01712 -0.03424,0.01712 0.02569,0.01712 0.02569,0.03424 -0.05135,0.09415 -0.08559,0.09415 l -0.04279,-0.0085 -0.02568,0.04279 h 0.03424 v -0.02569 q 0.04279,0 0.04279,0.03424 -0.08559,0.154062 -0.145502,0.162621 l 0.01712,0.02569 q -0.07703,0.0085 -0.07703,0.05991 -0.03424,0 -0.154061,0.09415 l -0.06848,0.01712 q 0,-0.0085 -0.0085,-0.0085 0,0.06848 -0.119826,0.119825 0,-0.0085 -0.0085,-0.0085 0,0.03424 -0.01712,0.03424 -0.0085,0 -0.08559,-0.10271 v 0.0085 q 0.05991,0.08559 0.05991,0.111269 0,0.01712 -0.02568,0.02569 -0.03424,0 -0.03424,-0.02569 -0.07703,0.0428 -0.07703,0.111268 l -0.03424,-0.0085 q 0,0.03424 -0.01712,0.03424 l -0.01712,-0.0085 q 0,0.03424 -0.01712,0.03424 -0.05135,-0.05135 -0.05135,-0.07703 -0.0085,0 -0.0085,0.0085 0.01712,0.02568 0.01712,0.06848 -0.05135,0.02569 -0.05135,0.04279 l 0.0085,0.03424 -0.04279,-0.0085 q -0.05991,0 -0.06848,0.02569 l 0.01712,0.0085 0.02569,-0.0085 v 0.0085 q -0.06848,0.05136 -0.136935,0.05136 l -0.0085,-0.02569 h -0.0085 q -0.0085,0.05991 -0.07703,0.05991 -0.02568,0 -0.02568,-0.04279 -0.06848,0.04279 -0.102709,0.04279 0,-0.01712 0.02569,-0.01712 v -0.0085 q -0.01712,0 -0.05135,-0.02569 h -0.0085 l 0.01711,0.02569 q -0.0085,0 -0.02568,0.02569 0.0085,0 0.0085,0.0085 l -0.01711,0.0085 q 0,-0.0085 -0.0085,-0.0085 0,0.02569 -0.01712,0.02569 h -0.03424 q -0.01712,0 -0.01712,-0.02569 -0.01712,0 -0.01712,0.02569 l 0.0085,0.02569 q -0.02568,0 -0.04279,-0.01712 0,0.03424 -0.01712,0.03424 l -0.0085,-0.02569 h -0.02568 q 0,0.05991 -0.128385,0.05991 -0.01712,-0.05135 -0.07703,-0.05135 l 0.01712,0.02568 q -0.102709,0.01712 -0.128385,0.03424 l -0.08559,-0.0085 z m 0.873012,-7.5233042 h -0.02568 q 0,-0.034236 0.01712,-0.034236 z m 0.05991,0 -0.0085,-0.017119 q 0,-0.017119 0.01712,-0.017119 l 0.0085,0.017119 q 0,0.017119 -0.01712,0.017119 z m -0.479299,0.017119 q -0.01712,0 -0.01712,-0.017119 l 0.02569,-0.017119 0.0085,0.017119 q 0,0.017119 -0.01712,0.017119 z m 0.239648,0.017119 h -0.03424 q 0.0085,-0.034236 0.05991,-0.034236 0.02569,0 0.02569,0.017119 -0.03424,0.017119 -0.05135,0.017119 z m 0.333799,0 q -0.02569,0 -0.02569,-0.017119 0.0085,-0.017119 0.01712,-0.017119 z m -0.907248,0.042795 q -0.01712,0 -0.01712,-0.017119 l -0.01712,0.00856 q -0.01712,0 -0.01712,-0.051354 h 0.01712 q 0.01712,0 0.01712,0.025672 l 0.01712,-0.00856 q 0.01712,0 0.01712,0.017116 0,0.025672 -0.01712,0.025672 z m 0.419391,-0.00856 q -0.03424,0 -0.03424,-0.017116 l 0.04279,-0.025672 q 0.01712,0 0.01712,0.017119 0,0.00856 -0.02569,0.025672 z M 10.8802,4.837498 H 10.85453 V 4.81182 h 0.0085 q 0.01712,0 0.01712,0.025672 z m -0.265327,0.059912 -0.01712,-0.025672 0.01712,-0.00856 h 0.03424 q 0.01712,0 0.01712,0.025672 z M 9.9729523,4.914526 q 0,-0.042795 0.017116,-0.042795 h 0.017116 v 0.00856 q -0.017116,0.034238 -0.034237,0.034238 z m -0.059909,0.034237 q -0.025678,0 -0.025678,-0.017119 l 0.068474,-0.042795 q 0,0.042795 -0.042795,0.059912 z M 10.27252,4.991559 h -0.02569 q 0,-0.017116 0.01712,-0.025672 h 0.0085 z m -0.119828,0.094146 h -0.04279 V 5.060033 q 0.05991,0 0.05991,-0.051353 l 0.04279,0.034236 q 0,-0.051355 0.01712,-0.051355 l 0.03424,0.025672 h 0.04279 q 0,0.025672 -0.04279,0.042795 l -0.02569,-0.00856 z m -0.03424,-0.059912 h -0.0085 q 0,-0.017119 0.01712,-0.025672 h 0.0085 q 0,0.025672 -0.01712,0.025672 z m 0.582006,0.025672 v -0.00856 q 0.02568,-0.042795 0.03424,-0.042795 0.01712,0.00856 0.01712,0.017119 0,0.034236 -0.05135,0.034237 z m 0.06848,0.068472 q -0.01712,0 -0.01712,-0.025672 0,-0.034236 0.01712,-0.034236 0.01712,0.00856 0.01712,0.034236 0,0.025672 -0.01712,0.025672 z m 0.316679,0 q -0.0085,-0.00856 -0.0085,-0.025672 0,-0.025672 0.05135,-0.034236 h 0.05135 q 0.01712,0.00856 0.01712,0.025672 z m -0.992834,0.00856 -0.0085,-0.025672 h 0.0085 q 0.01712,0 0.01712,0.017119 z m 0.770305,0.1112665 q -0.05991,0 -0.05991,-0.017119 0,-0.017119 0.02568,-0.025672 l 0.02569,0.017119 q 0,-0.017119 0.03424,-0.017119 0,-0.025672 -0.03424,-0.042794 l -0.01712,0.00856 q 0,-0.00856 -0.0085,-0.025672 0,-0.025672 0.05135,-0.025672 0.01712,0 0.01712,0.077031 l 0.04279,-0.017119 0.02569,0.00856 v 0.017119 q -0.02569,0 -0.102709,0.042794 z m 0.196855,-0.025672 q -0.01712,0 -0.01712,-0.017119 0,-0.034235 0.06848,-0.042794 0,-0.025672 0.111269,-0.042796 0.03424,0.00856 0.03424,0.025672 0,0.017119 -0.119826,0.051354 0,-0.00856 -0.0085,-0.00856 0,0.00856 -0.06848,0.034235 z m -0.24821,-0.051363 h -0.02569 q 0,-0.034237 0.01712,-0.034237 z m -1.2410452,0.017119 q -0.042795,0 -0.042795,-0.025672 l 0.08559,-0.00856 v 0.017119 q 0,0.017119 -0.042795,0.017119 z m 1.1554552,0.119825 q -0.01712,0 -0.03424,-0.025672 0,-0.025672 0.05991,-0.034236 l -0.01712,-0.025672 0.01712,-0.00856 q 0.01712,0.017119 0.01712,0.034236 l 0.02569,-0.00856 v 0.017119 q -0.0085,0 -0.06848,0.051353 z m 1.172575,-0.042794 h -0.01712 v -0.00856 q 0.0085,-0.034237 0.02568,-0.034237 h 0.01712 v 0.00856 q -0.01712,0.034237 -0.02568,0.034237 z m 0.273885,0.3166803 -0.0085,-0.017116 0.0085,-0.034235 q 0,-0.034236 -0.07703,-0.077031 -0.03424,-0.059913 -0.03424,-0.094148 -0.01712,0 -0.01712,0.025672 h -0.01712 l -0.08559,-0.051346 q 0,-0.025672 0.09415,-0.1027072 h 0.01712 l 0.154061,0.1540611 -0.03424,0.034236 0.02568,0.017119 0.02569,-0.00856 q 0.03424,0 0.07703,0.094148 -0.06848,0.059913 -0.128383,0.059913 z M 11.462208,5.2654392 h -0.05135 v -0.017119 h 0.05135 z m 0.1455,0.00856 h -0.01712 q -0.01712,0 -0.01712,-0.025672 l 0.03424,0.00856 z m 0.333799,0.017119 -0.0085,-0.017119 q 0,-0.025672 0.01712,-0.025672 0.01712,0 0.01712,0.017119 0,0.00856 -0.02568,0.025672 z m -0.718951,-0.017119 h -0.02568 v -0.017119 h 0.02568 z m 0.55633,0.034236 q -0.128382,-0.025672 -0.128382,-0.042793 l 0.02568,-0.00856 0.102709,0.034235 z m 0.830218,0.051354 q -0.0085,0 -0.04279,-0.051354 v -0.00856 h 0.0085 q 0.03424,0.017119 0.03424,0.059912 z m -1.069866,0.00856 -0.05135,-0.00856 v -0.017116 l 0.05135,0.00856 z m -1.232487,0.059912 h -0.03424 q 0,-0.025672 0.02568,-0.025672 0.02569,0.00856 0.02569,0.017119 z m 1.480697,0.025675 -0.0085,-0.034236 h 0.02569 q 0,0.034236 -0.01712,0.034236 z m -1.309516,0.017119 q -0.03424,0 -0.03424,-0.017119 l 0.03424,-0.00856 q 0.01712,0.00856 0.01712,0.017119 z m 1.403663,0.034237 q -0.01712,-0.00856 -0.01712,-0.034237 h 0.01712 q 0.01712,0.00856 0.01712,0.017119 0,0.017116 -0.01712,0.017116 z m 0.06848,0.051353 q -0.01712,0 -0.02569,-0.034236 0,-0.017119 0.01712,-0.017119 0.02569,0.00856 0.02569,0.025672 0,0.025672 -0.01712,0.025672 z m 0.231092,0.1112666 h -0.01712 q 0,-0.017119 -0.05135,-0.094148 v -0.017119 q 0.02569,0 0.06848,0.1112653 z m 0.222532,0.085589 h -0.01712 q -0.01712,-0.068472 -0.01712,-0.094148 0.01712,-0.017119 0.01712,-0.094149 0.01712,0 0.04279,0.094149 l -0.03424,0.034237 z M 12.29243,5.7276241 q -0.03424,0 -0.07703,-0.111266 l 0.01712,-0.00856 q 0.05991,0.08559 0.05991,0.1198247 z m -3.3294263,-0.00856 -0.00856,-0.017119 0.025672,-0.017119 0.00856,0.017119 z m 3.1582463,0.077031 h -0.01712 l -0.0085,-0.051354 h 0.01712 z m 0.07703,0.4365056 q -0.0085,-0.00856 -0.03424,-0.00856 0,-0.025672 0.01712,-0.051354 -0.02568,-0.034236 -0.02568,-0.1027069 l 0.0085,-0.051354 h 0.02568 l 0.0085,0.059912 0.03424,-0.00856 q 0,0.025672 -0.02568,0.051354 0.0085,0 0.0085,0.00856 l -0.01712,0.00856 q 0,-0.00856 -0.0085,-0.00856 v 0.017119 q 0.02568,0 0.04279,0.034235 -0.01712,0 -0.03424,0.051354 z m 0.564889,0.1198253 q -0.03424,0 -0.03424,-0.017119 0,-0.059912 0.06848,-0.1283844 h 0.0085 q 0,0.1455023 -0.04279,0.1455023 z M 12.249633,6.283954 q -0.02568,0 -0.04279,-0.025672 0.01712,-0.034236 0.02569,-0.034236 l 0.01712,0.025672 q 0,0.00856 -0.0085,0.00856 z M 9.5706813,6.335308 q -0.034236,0 -0.034236,-0.025672 h 0.017116 q 0.017119,0.00856 0.017119,0.025672 z m 3.1924827,0.085589 q -0.05991,0 -0.06848,-0.025672 0,-0.017119 0.03424,-0.034236 0.01712,0 0.03424,0.025672 z m -0.07703,0.1968558 -0.0085,-0.025672 0.01712,-0.094149 -0.0085,-0.068472 h 0.01712 q 0.03424,0 0.03424,0.042795 -0.01712,0.1283838 -0.05135,0.1455019 z M 12.574861,7.002906 h -0.01712 l 0.0085,-0.034236 -0.0085,-0.085589 q 0,-0.025672 0.04279,-0.111266 l 0.02569,0.00856 V 6.754703 q -0.02569,0 -0.02569,-0.034236 0.02569,0 0.0428,-0.059913 0.03424,-0.017119 0.05991,-0.017119 l 0.0085,0.025672 -0.01712,0.042795 h -0.01712 q -0.01712,-0.017119 -0.03424,-0.017119 0.01712,0.025672 0.01712,0.051354 -0.03424,0.068471 -0.05991,0.1968553 -0.01712,0 -0.02568,0.059913 z M 9.4337388,6.934436 q -0.051354,0 -0.068471,-0.051353 0.025672,-0.085589 0.051353,-0.085589 0.017116,0 0.017116,0.025672 l -0.017116,0.042795 q 0.059912,0 0.059912,0.017119 0,0.017119 -0.042794,0.051354 z m 2.3708252,0.025672 q 0,-0.034236 0.04279,-0.051353 0.0085,0 0.02569,0.025672 0,0.017119 -0.06848,0.025672 z m -0.04279,0.059913 q 0,-0.025672 0.01712,-0.025672 l 0.0085,0.017119 z m 0.72751,0.042794 0.0085,-0.034235 q -0.03424,0 -0.03424,0.017116 v 0.017119 z m -1.095545,0.4707419 h -0.01712 q 0,-0.042795 0.01712,-0.042795 0.01712,0 0.01712,0.017119 0,0.025672 -0.01712,0.025672 z m 0.693275,0.1283841 q 0,-0.034236 0.03424,-0.042795 v -0.00856 h -0.02568 q -0.01712,0.025672 -0.01712,0.042795 0,0.00856 0.0085,0.00856 z m 0.01712,0.051353 q 0,-0.034235 0.01712,-0.034235 l 0.0085,0.017119 q -0.01712,0.017119 -0.02568,0.017119 z m -1.968561,0.4022722 h -0.02567 v -0.017119 h 0.02567 z m 1.60908,0.059912 -0.03424,-0.00856 v -0.017116 h 0.01712 q 0.01712,0.00856 0.01712,0.025676 z m 0.31668,0.025672 q 0,-0.025672 0.03424,-0.051353 0.01712,0.00856 0.01712,0.017119 0,0.034236 -0.05135,0.034236 z m 0.04279,0.034236 q -0.01712,0 -0.01712,-0.034236 h 0.02569 q 0.01712,0.00856 0.01712,0.017119 -0.01712,0.017116 -0.02569,0.017119 z m 0.299562,0.1369425 q -0.03424,0 -0.119825,-0.042795 l -0.03424,0.00856 q 0,-0.059912 -0.01712,-0.059912 l 0.0085,0.017119 -0.01712,0.00856 -0.01712,-0.025672 0.0085,-0.025672 q -0.05991,-0.017119 -0.05991,-0.034236 0.0085,-0.017119 0.01712,-0.017119 0.248209,0.1027072 0.248209,0.1455023 0,0.017119 -0.01712,0.025672 z M 11.89015,8.2439467 h -0.0085 q 0,-0.017119 0.01712,-0.025672 h 0.0085 q 0,0.025672 -0.01712,0.025672 z m 0.119826,0.077031 q -0.01712,0 -0.01712,-0.017119 l 0.02568,-0.017116 q 0.01712,0 0.01712,0.017116 z m 0.48786,0.1198254 q -0.08559,-0.025672 -0.08559,-0.051353 0,-0.017119 0.02569,-0.025672 h 0.01712 q 0.04279,0.017119 0.05991,0.059912 0,0.017119 -0.01712,0.017119 z m -0.256767,-0.00856 q -0.02568,0 -0.02568,-0.017119 l 0.01712,-0.00856 z m 0.07703,0.068471 -0.04279,-0.051353 v -0.017119 h 0.01712 q 0.04279,0.025672 0.04279,0.059912 z m 0.136944,-0.017116 h -0.04279 V 8.466483 h 0.02569 q 0.01712,0 0.01712,0.017116 z m 0.119826,0.042795 q -0.03424,0 -0.03424,-0.017119 0.02569,-0.017116 0.05135,-0.017116 h 0.0085 q 0,0.017116 -0.02569,0.034237 z m 0.08559,0.068471 -0.06848,-0.068471 0.03424,-0.025672 h 0.01712 q 0,0.051354 0.03424,0.085589 z m -1.104097,-0.00856 q -0.05135,0 -0.05991,-0.034237 l 0.02569,-0.00856 q 0.0085,0 0.03424,0.034236 z m 0.907246,0.017119 q -0.03424,-0.00856 -0.05135,-0.042795 l 0.01712,-0.00856 q 0.05135,0.017119 0.05135,0.034236 0,0.017119 -0.01712,0.017119 z m -1.129781,-0.00856 q -0.02569,0 -0.02569,-0.017119 h 0.02569 z m 0.82166,0.017116 -0.0085,-0.017116 0.02569,-0.00856 q 0,0.025672 -0.01712,0.025672 z m 0.556329,0.034236 q -0.01711,0 -0.03424,-0.025672 0.0085,-0.017119 0.02568,-0.017119 0.01712,0 0.03424,0.025672 0,0.017119 -0.02569,0.017119 z m -0.453622,0 q -0.05135,0 -0.05991,-0.034236 h 0.04279 q 0.01712,0.00856 0.01712,0.034236 z m -0.342358,0.025678 q -0.02569,0 -0.02569,-0.017116 l 0.01712,-0.00856 z m 0.616242,0 h -0.02568 q 0,-0.017116 0.01712,-0.025672 h 0.0085 z m -0.325239,0.051354 q -0.02568,0 -0.02568,-0.025672 0,-0.025672 0.04279,-0.034236 l 0.0085,0.017119 q 0,0.042794 -0.02569,0.042794 z m 0.56489,0.017116 q -0.02569,-0.00856 -0.02569,-0.07703 h 0.01712 q 0.02569,0.00856 0.02569,0.059912 0,0.017116 -0.01712,0.017118 z m -1.12978,-0.034236 q -0.03424,0 -0.03424,-0.017119 l 0.0085,-0.017116 q 0.04279,0.017116 0.04279,0.025672 z m 0.958601,0.059912 q -0.01712,0 -0.05135,-0.068472 v -0.017122 h 0.0085 q 0.01711,0 0.05991,0.068471 0,0.017116 -0.01712,0.017116 z m -0.890129,-0.034234 q -0.02569,0 -0.02569,-0.025672 l 0.01712,-0.00856 z m -0.64192,0.00856 q -0.02569,0 -0.02569,-0.017119 l 0.01712,-0.017116 z m 0.984278,0.051353 q -0.07703,-0.025672 -0.07703,-0.034237 0,-0.025672 0.02569,-0.034237 l 0.06848,0.034237 v -0.017116 h 0.01712 v 0.025672 q 0,0.025672 -0.03424,0.025672 z m 0.119824,-0.025672 -0.0085,-0.017116 0.01712,-0.00856 0.0085,0.017116 z m -0.102708,0.034236 q 0,-0.017119 0.02568,-0.025672 l 0.0085,0.017116 z m 0.179737,0.119825 -0.128383,-0.085589 0.0085,-0.017119 h -0.02569 q 0,-0.017116 0.03424,-0.025672 0.01712,0 0.01712,0.017119 l -0.0085,0.025672 q 0.03424,0 0.05991,0.025672 l 0.0085,-0.051354 q -0.01712,0 -0.01712,-0.017119 0.0085,-0.017116 0.01712,-0.017116 h 0.0085 q 0.05991,0.025672 0.05991,0.042795 0,0.017119 -0.06848,0.051354 0.03424,0.00856 0.03424,0.025672 z m -1.27528,-0.051354 h -0.0085 q -0.02569,-0.042794 -0.07703,-0.042794 v -0.025672 q 0.05135,0 0.08559,0.051353 z m 1.857288,-0.025672 q -0.01712,0 -0.01712,-0.025672 0,-0.017119 0.01712,-0.017119 0.01712,0 0.01712,0.017119 0,0.025672 -0.01712,0.025672 z m -2.122617,0.1369437 q -0.0085,0 -0.02569,-0.025672 l 0.03424,-0.034236 -0.01712,-0.042794 0.01712,-0.00856 0.01712,0.00856 q 0,-0.025672 0.01712,-0.025672 h 0.01712 l -0.0085,0.034237 q 0.01712,0 0.01712,0.017116 -0.05135,0.00856 -0.05135,0.068472 z M 9.904482,8.9029941 v -0.034236 h -0.00854 v 0.034236 z m 2.790213,-0.00856 q -0.01712,0 -0.01712,-0.017116 l 0.01712,-0.00856 q 0.01712,0 0.01712,0.017119 z m 0.205414,0.025672 q -0.02568,0 -0.02568,-0.025672 0,-0.025672 0.01712,-0.025672 l 0.01712,0.00856 q -0.0085,0.017119 -0.0085,0.042795 z m -2.028467,0 q -0.01712,0 -0.03424,-0.025672 v -0.00856 h 0.05135 q 0,0.034236 -0.01712,0.034236 z m -0.282445,0.042795 -0.02569,-0.042795 0.01712,-0.00856 0.02569,0.042795 z m 2.16541,0.00856 q -0.04279,0 -0.04279,-0.017116 l 0.04279,-0.00856 z m 0.162621,0.051353 q -0.01712,0 -0.01712,-0.017116 0.0085,-0.051353 0.02569,-0.051353 h 0.0085 l -0.0085,0.025672 0.0085,0.034237 z m -2.276677,-0.025672 q -0.01712,0 -0.01712,-0.025672 h 0.01712 z m 1.814495,0.111266 q -0.06848,-0.085584 -0.06848,-0.1112604 l 0.01712,-0.00856 q 0.06848,0.042794 0.06848,0.1112659 z m -0.0085,0.094148 q -0.02569,0 -0.10271,-0.1027066 0.01712,0 0.01712,-0.017116 -0.03424,0 -0.06848,-0.059913 -0.0085,-0.025672 0.01712,-0.025672 h 0.0085 q 0.0428,0.051354 0.05991,0.051354 0.06848,0.08559 0.06848,0.1540605 z M 12.73755,9.0827304 12.71186,9.0570584 q 0.0085,-0.017119 0.02569,-0.017119 0.0085,0 0.02568,0.025672 z m 0.15406,0.00856 H 12.87449 V 9.065618 h 0.01712 z m -0.65048,0.00856 q -0.02569,0 -0.02569,-0.025672 h 0.0085 q 0.01712,0.00856 0.01712,0.025672 z m 0.06848,0.1198256 q -0.01712,0 -0.01712,-0.025672 h 0.01712 z m 0.06848,0.2310907 h -0.01712 v -0.051353 h 0.01712 z m -0.07703,0.1027071 h -0.01712 v -0.042794 h 0.01712 z m 0.102709,0.025672 h -0.01712 v -0.034228 h 0.01712 z m 0.01712,0.1283844 q -0.02569,0 -0.02569,-0.017119 v -0.077032 h 0.02569 z m -0.136943,0.068472 -0.0085,-0.017119 0.01712,-0.00856 h 0.0085 q 0,0.025672 -0.01712,0.025675 z m -0.0085,0.059909 -0.01712,-0.017116 0.03424,-0.00856 q 0,0.025669 -0.01712,0.025678 z m 0.02569,0.042795 h -0.04279 q 0,-0.025669 0.02568,-0.025669 h 0.01712 z m 0.07703,0.1198265 h -0.01712 q 0.0085,-0.05991 0.02569,-0.05991 h 0.0085 q -0.01712,0.042795 -0.01712,0.059909 z m 0.530729,-0.034237 q 0,-0.025678 0.01712,-0.025678 l 0.0085,0.017116 z m -0.470744,0.09415 h -0.01712 v -0.05135 q 0,-0.017116 0.01712,-0.017116 h 0.0085 z m 0.08559,0.05991 h -0.01712 q 0,-0.06847 0.06848,-0.08559 0,-0.0085 0.02569,-0.02568 h 0.0085 q 0,0.07703 -0.07703,0.07703 z m -0.273886,-0.05991 h -0.01712 q 0,-0.03424 0.01712,-0.03424 z m -0.111274,0.342357 q -0.03424,-0.0085 -0.03424,-0.02568 l 0.03424,-0.01712 q 0,-0.09415 0.04279,-0.128383 h 0.01711 l -0.0085,0.05135 0.03424,-0.0085 v 0.01712 q -0.02569,0.03424 -0.05991,0.03424 0.02568,0.02568 0.02568,0.05135 -0.02568,0 -0.05135,0.02568 z m 0.04279,0.05991 q -0.01712,0 -0.03424,-0.02568 0,-0.01712 0.02568,-0.03424 0.01712,0.0085 0.01712,0.01712 z m -0.196857,0.265328 q -0.03424,0 -0.04279,-0.02568 v -0.05135 q 0,-0.01712 0.02569,-0.02569 l -0.0085,-0.01712 q 0.03424,-0.09415 0.05991,-0.102708 l 0.05135,0.0085 q 0.0085,0 0.0085,-0.0085 -0.02569,0 -0.02569,-0.02568 l 0.10271,-0.01711 q 0.01712,0.0085 0.01712,0.02568 l -0.05991,-0.0085 0.0085,0.01712 -0.0085,0.01711 q 0.0085,0.01712 0.0085,0.04279 -0.05991,0.03424 -0.07703,0.119826 z m 0.701747,-0.119823 q -0.03424,-0.0085 -0.03424,-0.03424 0,-0.03424 0.119825,-0.09415 v 0.0085 q -0.01712,0.06847 -0.08559,0.119826 z m -0.02569,0.05135 q -0.02568,0 -0.05135,-0.03424 l 0.02568,-0.01712 h 0.02569 q 0.01712,0 0.01712,0.02569 0,0.02569 -0.01712,0.02569 z m -0.111268,0.171179 -0.0085,-0.02568 q 0.05135,-0.06848 0.05991,-0.145502 0.02568,0 0.03424,0.02569 -0.05135,0.136942 -0.08559,0.145501 z m -0.273886,0.410829 v -0.0085 l 0.07703,-0.188295 q 0.02569,-0.0085 0.05135,-0.05135 l 0.01712,0.0085 q 0.01712,0 0.01712,-0.03424 -0.02569,0 -0.02569,-0.01712 0.07703,-0.09415 0.145502,-0.09415 l 0.0085,0.01712 q -0.03424,0.05991 -0.06848,0.05991 0,-0.02569 -0.01712,-0.02569 0,0.08559 -0.06848,0.136943 0,0.04279 -0.136943,0.196855 z M 11.49651,11.051283 v -0.0085 q 0.01712,-0.03424 0.05135,-0.03424 l 0.01712,0.03424 z m -0.05135,0.05135 -0.0085,-0.01712 0.01712,-0.0085 h 0.0085 q 0,0.02569 -0.01712,0.02569 z m -0.582007,0.376593 q -0.02569,0 -0.02569,-0.01712 0,-0.01712 0.03424,-0.03424 0.01712,0.0085 0.01712,0.02568 0,0.0085 -0.02569,0.02569 z m 0.693271,0.316682 q 0,-0.01712 -0.02569,-0.01712 0,0.01712 0.02569,0.01712 z m -0.05135,0.08559 h -0.0085 q 0,-0.01712 0.01712,-0.02568 h 0.0085 q 0,0.02568 -0.01712,0.02568 z m -2.4649726,0.196854 h -0.00856 l 0.00856,-0.05135 h 0.017119 q 0,0.05135 -0.017119,0.05135 z m 0.00856,0.05991 h -0.017116 v -0.02568 h 0.017116 z m 0.2139734,0.06848 h -0.00856 q -0.042795,-0.02569 -0.059912,-0.02569 -0.042795,0.02569 -0.068472,0.02569 l -0.00856,-0.01712 v -0.03424 l 0.034237,0.01712 q 0,-0.01712 0.017116,-0.01712 l 0.00856,0.0085 0.042795,-0.03424 h 0.017119 v 0.02569 l 0.042795,-0.0085 q 0.017116,0.01712 0.017116,0.03424 h -0.034235 z m 0.2139728,0.145502 -0.00856,-0.03424 0.017116,-0.03424 q -0.00856,0 -0.034236,-0.03424 l 0.017116,-0.0085 q 0.034235,0.01712 0.034235,0.06848 0,0.02568 -0.025672,0.04279 z m -0.1198274,-0.0428 q -0.034237,-0.0085 -0.034237,-0.02569 v -0.03424 h 0.00856 q 0.051354,0.03424 0.051354,0.04279 0,0.01711 -0.025675,0.01711 z m 0.3509157,0.01712 -0.00856,-0.01712 q 0,-0.01712 0.017119,-0.01712 l 0.00856,0.01712 q 0,0.01712 -0.017116,0.01712 z"
     id="text1"
     style="font-size:29.0909px;font-family:'Dark SIlence';-inkscape-font-specification:'Dark SIlence';fill:{{colors.primary.default.hex}};fill-opacity:1;stroke-width:0.133733;stroke-opacity:0.6"
     aria-label="33" />
  <rect
     style="opacity:0.3;fill:none;fill-opacity:0.996424;stroke:#000000;stroke-width:0.955221;stroke-dasharray:none;stroke-opacity:1;filter:url(#filter5421-3)"
     id="rect1-2-7-5"
     width="13.687567"
     height="13.591975"
     x="1.6227165"
     y="1.6705122"
     rx="2.8442214"
     ry="2.965905"
     transform="matrix(0.43046721,0,0,0.43046721,9.5627021,9.5627021)" />
  <rect
     style="fill:none;fill-opacity:1;stroke:{{colors.primary.default.hex}};stroke-width:0.411191;stroke-dasharray:none;stroke-opacity:1"
     id="rect1-2-3"
     width="5.8920484"
     height="5.8508992"
     x="10.261228"
     y="10.281802"
     rx="1.224344"
     ry="1.2767248" />
  <path
     id="path1"
     style="fill:{{colors.primary.default.hex}};fill-opacity:1;stroke:none;stroke-width:0.0587368;stroke-dasharray:none;stroke-dashoffset:2.2;stroke-opacity:0.6"
     d="m 14.168922,11.656658 c -0.06055,-2.6e-5 -0.125364,0.02435 -0.206481,0.07188 -0.193027,0.1131 -0.445472,0.166438 -0.792145,0.166438 -0.346641,0 -0.607506,-0.05448 -0.799384,-0.16692 -0.153862,-0.09017 -0.245719,-0.09136 -0.374847,-0.0043 -0.331514,0.223407 -0.581361,0.939687 -0.654655,1.875683 -0.04395,0.561277 -0.0029,0.857184 0.142315,1.023712 0.07004,0.08029 0.241969,0.06668 0.397039,-0.03184 0.13145,-0.08351 0.288072,-0.267793 0.475192,-0.559138 0.16909,-0.263274 0.373614,-0.349984 0.825918,-0.350725 0.451405,-6.81e-4 0.628801,0.08471 0.837013,0.404757 0.349331,0.536972 0.672221,0.723915 0.861617,0.498829 0.104925,-0.124694 0.12413,-0.24517 0.119159,-0.746797 -0.0091,-0.911235 -0.247248,-1.740202 -0.590491,-2.056592 -0.09141,-0.08427 -0.162394,-0.124918 -0.24025,-0.124951 z M 12.207851,12.1936 h 0.209374 0.209373 v 0.179464 0.179463 h 0.179465 0.179462 v 0.22433 0.224328 h -0.179462 -0.179465 v 0.194419 0.194419 h -0.189593 c -0.104158,0 -0.197928,-0.0093 -0.208892,-0.02026 -0.01096,-0.01096 -0.02025,-0.098 -0.02025,-0.193935 v -0.174644 h -0.179466 -0.179465 v -0.224328 -0.224329 h 0.179465 0.179463 v -0.179465 z m 1.706832,0 c 0.188883,0 0.269773,0.209278 0.133633,0.345419 -0.08658,0.08657 -0.165598,0.09337 -0.250863,0.02123 -0.147895,-0.125144 -0.0707,-0.366645 0.11723,-0.366645 z m -0.363268,0.383531 c 0.04717,3.2e-5 0.09465,0.01883 0.132184,0.0603 0.05851,0.06466 0.06483,0.212666 0.01207,0.281737 -0.103261,0.135182 -0.351207,0.04823 -0.351207,-0.123018 0,-0.12997 0.103198,-0.219094 0.206961,-0.219022 z m 0.741493,0.0073 c 0.05436,9.9e-4 0.10714,0.019 0.137972,0.05306 0.05851,0.06466 0.06482,0.212666 0.01206,0.281738 -0.109832,0.143783 -0.351209,0.04755 -0.351209,-0.139905 0,-0.05682 0.02277,-0.118403 0.05451,-0.14714 0.03629,-0.03285 0.0923,-0.04875 0.14666,-0.04775 z m -0.365199,0.386906 c 0.167454,0 0.248932,0.177621 0.147622,0.322262 -0.03463,0.04945 -0.07687,0.06657 -0.164026,0.06657 -0.100342,0 -0.123628,-0.01306 -0.164024,-0.09118 -0.07966,-0.154035 0.0073,-0.297659 0.180428,-0.297659 z" />
</svg>
