<?xml version="1.0" encoding="UTF-8" standalone="no"?>
<svg
   width="64"
   height="64"
   version="1.1"
   viewBox="0 0 16.933 16.933"
   id="svg7"
   sodipodi:docname="abcd.svg"
   inkscape:version="1.4.3 (0d15f75042, 2025-12-25)"
   xmlns:inkscape="http://www.inkscape.org/namespaces/inkscape"
   xmlns:sodipodi="http://sodipodi.sourceforge.net/DTD/sodipodi-0.dtd"
   xmlns="http://www.w3.org/2000/svg"
   xmlns:svg="http://www.w3.org/2000/svg"
   xmlns:rdf="http://www.w3.org/1999/02/22-rdf-syntax-ns#"
   xmlns:cc="http://creativecommons.org/ns#"
   xmlns:dc="http://purl.org/dc/elements/1.1/">
  <sodipodi:namedview
     id="namedview7"
     pagecolor="#9c4444"
     bordercolor="#000000"
     borderopacity="0.25"
     inkscape:showpageshadow="2"
     inkscape:pageopacity="0.0"
     inkscape:pagecheckerboard="0"
     inkscape:deskcolor="#d1d1d1"
     inkscape:zoom="4.3531261"
     inkscape:cx="43.187354"
     inkscape:cy="45.254834"
     inkscape:window-width="1226"
     inkscape:window-height="669"
     inkscape:window-x="109"
     inkscape:window-y="119"
     inkscape:window-maximized="0"
     inkscape:current-layer="svg7"
     showgrid="false" />
  <defs
     id="defs2">
    <filter
       style="color-interpolation-filters:sRGB;"
       inkscape:label="Blur"
       id="filter5421"
       x="-0.12256455"
       y="-0.12342654"
       width="1.2451291"
       height="1.2468531">
      <feGaussianBlur
         stdDeviation="0.5 0.5"
         result="blur"
         id="feGaussianBlur5419" />
    </filter>
    <filter
       style="color-interpolation-filters:sRGB"
       inkscape:label="Blur"
       id="filter5421-3"
       x="-0.12256455"
       y="-0.12342654"
       width="1.2451291"
       height="1.2468531">
      <feGaussianBlur
         stdDeviation="0.5 0.5"
         result="blur"
         id="feGaussianBlur5419-6" />
    </filter>
  </defs>
  <metadata
     id="metadata2">
    <rdf:RDF>
      <cc:Work
         rdf:about="">
        <dc:format>image/svg+xml</dc:format>
        <dc:type
           rdf:resource="http://purl.org/dc/dcmitype/StillImage" />
      </cc:Work>
    </rdf:RDF>
  </metadata>
  <rect
     style="opacity:0.3;fill:none;fill-opacity:0.996424;stroke:#000000;stroke-width:0.955221;stroke-dasharray:none;stroke-opacity:1;filter:url(#filter5421)"
     id="rect1-2-7"
     width="13.687567"
     height="13.591975"
     x="1.6227165"
     y="1.6705122"
     rx="2.8442214"
     ry="2.965905" />
  <rect
     style="fill:none;fill-opacity:1;stroke:{{colors.primary.default.hex}};stroke-width:0.955221;stroke-dasharray:none;stroke-opacity:1"
     id="rect1-2"
     width="13.687567"
     height="13.591975"
     x="1.6227167"
     y="1.6705124"
     rx="2.8442214"
     ry="2.965905" />
  <path
     style="fill:{{colors.primary.default.hex}};fill-opacity:1;stroke-width:0.0290711"
     d="M 8.2289721,12.486002 C 7.8673075,12.447995 7.577789,12.377439 7.2599294,12.249842 6.756882,12.047906 6.405034,11.789266 6.0103465,11.331284 5.6132299,10.870482 5.4000632,10.471389 5.1880408,9.7917544 5.1554313,9.6872239 5.1089111,9.4216279 5.0807253,9.1790607 5.031389,8.7544711 5.077019,8.1368776 5.1886807,7.7180027 5.2472938,7.4981223 5.261088,7.4523171 5.3170858,7.2916234 5.4117824,7.0198747 5.4219341,6.9955144 5.5631618,6.7011137 5.7830699,6.2426962 6.0475964,5.8715538 6.4319394,5.4821809 6.9805222,4.9264186 7.5157603,4.6050962 8.1223772,4.4673518 8.234013,4.442002 8.3599046,4.4344057 8.6650416,4.4346043 c 0.444188,2.38e-4 0.6517773,0.03251 0.9568153,0.1485103 0.3414268,0.1298381 0.7746261,0.409268 0.9681741,0.6245096 0.01944,0.021625 0.08973,0.096008 0.156191,0.1652945 0.117702,0.1227111 0.340712,0.4118485 0.399999,0.5186103 0.01623,0.029218 0.06193,0.1079618 0.101569,0.1749845 0.29682,0.5019017 0.516674,1.1800196 0.598264,1.8452968 0.04693,0.3826851 0.02895,0.959471 -0.04319,1.3857322 -0.03451,0.2038391 -0.158192,0.7096225 -0.201434,0.8236865 -0.01414,0.0373 -0.04542,0.120162 -0.06952,0.184118 -0.05842,0.155085 -0.198585,0.451046 -0.273177,0.57681 -0.03312,0.05584 -0.0773,0.132045 -0.0982,0.169353 -0.118844,0.212211 -0.453616,0.600842 -0.675773,0.784494 -0.272059,0.224907 -0.6686018,0.446368 -0.9378871,0.523793 -0.063957,0.01839 -0.1372665,0.04159 -0.1629102,0.05155 -0.1727153,0.06712 -0.8253053,0.109298 -1.1549883,0.07465 z M 8.9790262,12.11607 c 0.1682038,-0.03401 0.3464461,-0.09163 0.4224877,-0.136571 0.015989,-0.0095 0.049469,-0.02597 0.0744,-0.03669 0.064786,-0.02788 0.2916481,-0.177377 0.3700038,-0.243815 0.1300053,-0.110234 0.3148743,-0.310866 0.4478613,-0.48605 0.0742,-0.09775 0.13492,-0.182616 0.13492,-0.188587 0,-0.0059 0.02935,-0.05682 0.06521,-0.112983 0.124085,-0.194328 0.24118,-0.448244 0.41354,-0.896741 0.01639,-0.042633 0.03743,-0.094966 0.04677,-0.1162841 0.01975,-0.045099 0.110459,-0.3862444 0.136547,-0.5135933 0.101192,-0.4939478 0.125661,-0.851431 0.09626,-1.4063525 -0.01292,-0.24393 -0.03112,-0.4786214 -0.04044,-0.5215361 -0.0093,-0.042915 -0.02693,-0.1386314 -0.03914,-0.2127025 -0.0122,-0.074072 -0.052,-0.2441392 -0.08843,-0.3779272 C 10.765931,5.9367236 10.2815,5.2942832 9.6034672,4.9889486 9.4239243,4.9080961 9.3623579,4.9101927 9.1760331,5.003499 9.0234091,5.0799319 8.7513279,5.3066728 8.6994626,5.4006526 8.6858631,5.4253005 8.633593,5.4963845 8.5833121,5.558618 8.4851578,5.6801067 8.4089838,5.8145579 8.3591159,5.9543404 c -0.039961,0.1120125 -0.044539,0.5135069 -0.00732,0.6414834 0.035239,0.1211554 0.1491464,0.2651349 0.2571191,0.3250025 0.087078,0.048281 0.090504,0.048646 0.1417347,0.015079 0.028876,-0.018919 0.069318,-0.073632 0.089871,-0.1215825 0.020554,-0.04795 0.050585,-0.100397 0.066736,-0.1165475 0.016148,-0.01615 0.038229,-0.045928 0.049063,-0.066172 0.034729,-0.06489 0.08732,-0.080279 0.1369655,-0.040077 0.043031,0.034844 0.045283,0.034837 0.082978,-2.619e-4 0.021308,-0.019854 0.043643,-0.035821 0.049627,-0.035482 0.025203,0.00144 0.071157,0.051588 0.093486,0.1020456 C 9.3965771,6.8322576 9.2790245,7.045102 9.042972,7.1583149 8.9331728,7.2109753 8.9125588,7.2140865 8.673408,7.2141009 8.3913878,7.2141182 8.2775189,7.1901629 8.103,7.094101 7.9606277,7.0157342 7.8503919,6.8932482 7.7677926,6.7216432 7.594661,6.3619535 7.5946613,6.0756509 7.7677941,5.6372244 7.8062537,5.539833 7.8460984,5.4493066 7.8563373,5.4360559 7.8665789,5.4228048 7.9002675,5.358439 7.9312054,5.2930202 7.983579,5.1822804 8.0857085,5.0329991 8.1315705,5.0001536 8.1765479,4.9679415 8.1131488,4.9888303 8.0098537,5.0402665 7.6787972,5.2051007 7.428959,5.4267222 7.1266624,5.8237108 c -0.038626,0.050725 -0.070229,0.096343 -0.070229,0.1013738 0,0.00503 -0.029017,0.055103 -0.064482,0.1112718 C 6.8032137,6.3352715 6.5711765,7.0067128 6.487822,7.4951412 6.398472,8.0187088 6.389792,8.1259185 6.389755,8.7064447 c -3.9e-5,0.7600704 0.04788,1.1337161 0.2125115,1.6567423 0.04258,0.135276 0.164706,0.420614 0.1957237,0.457297 0.014228,0.01682 0.025874,0.03632 0.025874,0.04332 0,0.01373 0.117072,0.210507 0.1347488,0.22649 0.0059,0.0053 0.036856,0.04838 0.068805,0.09567 0.166221,0.24604 0.6168862,0.613588 0.9242241,0.753766 0.3689623,0.168285 0.74668,0.233124 1.0273885,0.176361 z"
     id="path1-7" />
  <rect
     style="opacity:0.3;fill:none;fill-opacity:0.996424;stroke:#000000;stroke-width:0.955221;stroke-dasharray:none;stroke-opacity:1;filter:url(#filter5421-3)"
     id="rect1-2-7-5"
     width="13.687567"
     height="13.591975"
     x="1.6227165"
     y="1.6705122"
     rx="2.8442214"
     ry="2.965905"
     transform="matrix(0.43046721,0,0,0.43046721,9.5627021,9.5627021)" />
  <rect
     style="fill:none;fill-opacity:1;stroke:{{colors.primary.default.hex}};stroke-width:0.411191;stroke-dasharray:none;stroke-opacity:1"
     id="rect1-2-3"
     width="5.8920484"
     height="5.8508992"
     x="10.261228"
     y="10.281802"
     rx="1.224344"
     ry="1.2767248" />
  <path
     id="path1"
     style="fill:{{colors.primary.default.hex}};fill-opacity:1;stroke:none;stroke-width:0.0587368;stroke-dasharray:none;stroke-dashoffset:2.2;stroke-opacity:0.6"
     d="m 14.168922,11.656658 c -0.06055,-2.6e-5 -0.125364,0.02435 -0.206481,0.07188 -0.193027,0.1131 -0.445472,0.166438 -0.792145,0.166438 -0.346641,0 -0.607506,-0.05448 -0.799384,-0.16692 -0.153862,-0.09017 -0.245719,-0.09136 -0.374847,-0.0043 -0.331514,0.223407 -0.581361,0.939687 -0.654655,1.875683 -0.04395,0.561277 -0.0029,0.857184 0.142315,1.023712 0.07004,0.08029 0.241969,0.06668 0.397039,-0.03184 0.13145,-0.08351 0.288072,-0.267793 0.475192,-0.559138 0.16909,-0.263274 0.373614,-0.349984 0.825918,-0.350725 0.451405,-6.81e-4 0.628801,0.08471 0.837013,0.404757 0.349331,0.536972 0.672221,0.723915 0.861617,0.498829 0.104925,-0.124694 0.12413,-0.24517 0.119159,-0.746797 -0.0091,-0.911235 -0.247248,-1.740202 -0.590491,-2.056592 -0.09141,-0.08427 -0.162394,-0.124918 -0.24025,-0.124951 z M 12.207851,12.1936 h 0.209374 0.209373 v 0.179464 0.179463 h 0.179465 0.179462 v 0.22433 0.224328 h -0.179462 -0.179465 v 0.194419 0.194419 h -0.189593 c -0.104158,0 -0.197928,-0.0093 -0.208892,-0.02026 -0.01096,-0.01096 -0.02025,-0.098 -0.02025,-0.193935 v -0.174644 h -0.179466 -0.179465 v -0.224328 -0.224329 h 0.179465 0.179463 v -0.179465 z m 1.706832,0 c 0.188883,0 0.269773,0.209278 0.133633,0.345419 -0.08658,0.08657 -0.165598,0.09337 -0.250863,0.02123 -0.147895,-0.125144 -0.0707,-0.366645 0.11723,-0.366645 z m -0.363268,0.383531 c 0.04717,3.2e-5 0.09465,0.01883 0.132184,0.0603 0.05851,0.06466 0.06483,0.212666 0.01207,0.281737 -0.103261,0.135182 -0.351207,0.04823 -0.351207,-0.123018 0,-0.12997 0.103198,-0.219094 0.206961,-0.219022 z m 0.741493,0.0073 c 0.05436,9.9e-4 0.10714,0.019 0.137972,0.05306 0.05851,0.06466 0.06482,0.212666 0.01206,0.281738 -0.109832,0.143783 -0.351209,0.04755 -0.351209,-0.139905 0,-0.05682 0.02277,-0.118403 0.05451,-0.14714 0.03629,-0.03285 0.0923,-0.04875 0.14666,-0.04775 z m -0.365199,0.386906 c 0.167454,0 0.248932,0.177621 0.147622,0.322262 -0.03463,0.04945 -0.07687,0.06657 -0.164026,0.06657 -0.100342,0 -0.123628,-0.01306 -0.164024,-0.09118 -0.07966,-0.154035 0.0073,-0.297659 0.180428,-0.297659 z" />
</svg>
