<?xml version="1.0" encoding="UTF-8" standalone="no"?>
<svg
   width="64"
   height="64"
   version="1.1"
   viewBox="0 0 16.933 16.933"
   id="svg7"
   sodipodi:docname="abcd.svg"
   inkscape:version="1.4.3 (0d15f75042, 2025-12-25)"
   xmlns:inkscape="http://www.inkscape.org/namespaces/inkscape"
   xmlns:sodipodi="http://sodipodi.sourceforge.net/DTD/sodipodi-0.dtd"
   xmlns="http://www.w3.org/2000/svg"
   xmlns:svg="http://www.w3.org/2000/svg"
   xmlns:rdf="http://www.w3.org/1999/02/22-rdf-syntax-ns#"
   xmlns:cc="http://creativecommons.org/ns#"
   xmlns:dc="http://purl.org/dc/elements/1.1/">
  <sodipodi:namedview
     id="namedview7"
     pagecolor="#9c4444"
     bordercolor="#000000"
     borderopacity="0.25"
     inkscape:showpageshadow="2"
     inkscape:pageopacity="0.0"
     inkscape:pagecheckerboard="0"
     inkscape:deskcolor="#d1d1d1"
     inkscape:zoom="4.3531261"
     inkscape:cx="43.187354"
     inkscape:cy="45.254834"
     inkscape:window-width="1226"
     inkscape:window-height="669"
     inkscape:window-x="109"
     inkscape:window-y="119"
     inkscape:window-maximized="0"
     inkscape:current-layer="svg7"
     showgrid="false" />
  <defs
     id="defs2">
    <filter
       style="color-interpolation-filters:sRGB;"
       inkscape:label="Blur"
       id="filter5421"
       x="-0.12256455"
       y="-0.12342654"
       width="1.2451291"
       height="1.2468531">
      <feGaussianBlur
         stdDeviation="0.5 0.5"
         result="blur"
         id="feGaussianBlur5419" />
    </filter>
    <filter
       style="color-interpolation-filters:sRGB"
       inkscape:label="Blur"
       id="filter5421-3"
       x="-0.12256455"
       y="-0.12342654"
       width="1.2451291"
       height="1.2468531">
      <feGaussianBlur
         stdDeviation="0.5 0.5"
         result="blur"
         id="feGaussianBlur5419-6" />
    </filter>
  </defs>
  <metadata
     id="metadata2">
    <rdf:RDF>
      <cc:Work
         rdf:about="">
        <dc:format>image/svg+xml</dc:format>
        <dc:type
           rdf:resource="http://purl.org/dc/dcmitype/StillImage" />
      </cc:Work>
    </rdf:RDF>
  </metadata>
  <rect
     style="opacity:0.3;fill:none;fill-opacity:0.996424;stroke:#000000;stroke-width:0.955221;stroke-dasharray:none;stroke-opacity:1;filter:url(#filter5421)"
     id="rect1-2-7"
     width="13.687567"
     height="13.591975"
     x="1.6227165"
     y="1.6705122"
     rx="2.8442214"
     ry="2.965905" />
  <rect
     style="fill:none;fill-opacity:1;stroke:{{colors.primary.default.hex}};stroke-width:0.955221;stroke-dasharray:none;stroke-opacity:1"
     id="rect1-2"
     width="13.687567"
     height="13.591975"
     x="1.6227167"
     y="1.6705124"
     rx="2.8442214"
     ry="2.965905" />
  <path
     style="fill:{{colors.primary.default.hex}};fill-opacity:1;stroke:none;stroke-width:0.1213;stroke-dasharray:none;stroke-opacity:0.6"
     d="M 7.7160842,12.504148 7.8305459,12.382309 7.5353427,12.322351 C 6.8687987,12.186979 6.224787,11.82242 5.6271436,11.242168 5.4315139,11.052232 5.226753,10.900626 5.1401744,10.881609 4.9345442,10.836437 4.9521895,10.75573 5.1676935,10.75573 c 0.097305,0 0.1769167,-0.01093 0.1769167,-0.02426 0,-0.01333 -0.089068,-0.141925 -0.1979296,-0.285759 C 4.6578723,9.7998823 4.4356922,9.0874301 4.4329663,8.1570743 4.4316566,7.7227594 4.4102802,7.509395 4.358936,7.4195853 4.275383,7.2734238 4.2660118,7.2173966 4.3251193,7.2173966 c 0.023099,0 0.072439,0.056866 0.1096367,0.1263671 0.037198,0.069504 0.081983,0.1263711 0.099522,0.1263711 0.017542,0 0.059131,-0.1318725 0.092422,-0.2930489 C 4.749644,6.5818478 5.1374933,5.9312723 5.7418362,5.3065628 5.884452,5.1591436 6.0151102,4.9828604 6.0321863,4.9148213 c 0.017068,-0.068035 0.049738,-0.1237022 0.072586,-0.1237022 0.022846,0 0.020383,0.073774 -0.00549,0.1639444 -0.081741,0.2850231 -0.0597,0.3045363 0.1678112,0.1485675 C 6.6116765,4.8674105 6.9760959,4.7001798 7.4379193,4.5663473 7.6750027,4.4976456 7.935607,4.4069787 8.0170402,4.3648679 c 0.1409293,-0.07288 0.146794,-0.071723 0.1217655,0.023999 -0.014469,0.055305 -0.046296,0.112913 -0.070742,0.12802 -0.12165,0.075182 -0.00763,0.096813 0.3472962,0.06588 0.7001323,-0.061014 1.1181422,0.021953 1.8070711,0.3585958 0.598746,0.2925939 1.181542,0.7145198 1.357153,0.9825326 0.05078,0.077507 0.151304,0.1390675 0.260541,0.1595574 0.260754,0.04892 0.285687,0.1391896 0.03175,0.1149752 -0.114867,-0.010957 -0.208844,-0.015433 -0.208844,-0.00993 0,0.00549 0.114058,0.193871 0.253466,0.4186424 0.170942,0.275614 0.296433,0.5608114 0.385431,0.8759466 0.08444,0.2990047 0.178596,0.5173282 0.261463,0.6062778 0.137816,0.1479308 0.09435,0.1885711 -0.0693,0.064793 -0.05398,-0.04082 -0.11518,-0.074939 -0.136031,-0.075821 -0.02085,-7.596e-4 -0.03831,0.2201697 -0.03878,0.4912303 -0.0018,1.0019874 -0.296208,1.756126 -1.008052,2.582029 -0.223595,0.259423 -0.420346,0.526693 -0.43722,0.593934 -0.03434,0.136808 -0.120822,0.166497 -0.120822,0.04146 0,-0.06811 -0.02578,-0.06358 -0.164278,0.02877 -0.6245834,0.416584 -1.4183917,0.658567 -2.160396,0.658567 -0.2484368,0 -0.4791395,0.02966 -0.5896003,0.07581 -0.2431921,0.101612 -0.2567466,0.09653 -0.1228258,-0.04603 z M 9.0092989,11.387609 C 9.4414516,11.297188 10.090581,10.981515 10.405523,10.708623 10.729606,10.427812 11.084364,9.8893379 11.241082,9.4403588 11.78619,7.8786971 10.940349,6.139636 9.3892915,5.6330568 8.8553068,5.4586568 8.4853517,5.4289989 7.974483,5.5196401 6.8907259,5.7119254 6.0115408,6.4817986 5.6649734,7.5420056 5.5528289,7.8850778 5.5312061,8.0432705 5.529705,8.531647 5.528105,9.035508 5.545151,9.1583341 5.6572988,9.4537073 5.9442795,10.209571 6.4292443,10.771626 7.0974075,11.122734 7.721738,11.45081 8.3146443,11.532951 9.0092989,11.387609 Z M 7.6445187,10.785396 C 7.4777115,10.747042 7.2616213,10.694941 7.1643177,10.669607 L 6.9874012,10.623551 6.9428522,10.212649 C 6.8909249,9.7337043 6.9133977,9.6436895 7.0849175,9.6436895 c 0.1357836,0 0.1575332,0.019184 0.3790345,0.3344883 C 7.7594884,10.398854 8.3642229,10.539677 8.8549924,10.302099 9.1213627,10.173146 9.2283092,10.038227 9.2705672,9.7778224 9.3296361,9.4138216 9.041137,9.0946295 8.0553732,8.4333436 7.293368,7.9221656 7.0627997,7.6311027 7.0637162,7.1815142 7.064764,6.683104 7.4235243,6.1987846 7.9160655,6.0309585 8.228323,5.9245624 8.8650173,5.9351927 9.4111599,6.0559047 c 0.248825,0.055008 0.4681168,0.1170685 0.4873138,0.1379155 0.019197,0.020855 0.050805,0.236929 0.070245,0.4801899 l 0.035334,0.4422884 -0.1940909,-0.00266 C 9.6351037,7.110992 9.6008411,7.0873641 9.4642272,6.8735338 9.0798666,6.2719195 8.1713791,6.1819046 7.8941693,6.7179723 7.7245896,7.0459021 7.9283274,7.3503007 8.6350227,7.8248771 9.8110481,8.6146259 10.071337,8.9338861 10.036846,9.5443024 10.021761,9.8113599 9.9854839,9.9356231 9.865855,10.129984 9.7025463,10.395331 9.3461038,10.667609 9.0435371,10.758139 8.7422434,10.848292 7.9823389,10.863125 7.64452,10.785474 Z"
     id="path2363" />
  <rect
     style="opacity:0.3;fill:none;fill-opacity:0.996424;stroke:#000000;stroke-width:0.955221;stroke-dasharray:none;stroke-opacity:1;filter:url(#filter5421-3)"
     id="rect1-2-7-5"
     width="13.687567"
     height="13.591975"
     x="1.6227165"
     y="1.6705122"
     rx="2.8442214"
     ry="2.965905"
     transform="matrix(0.43046721,0,0,0.43046721,9.5627021,9.5627021)" />
  <rect
     style="fill:none;fill-opacity:1;stroke:{{colors.primary.default.hex}};stroke-width:0.411191;stroke-dasharray:none;stroke-opacity:1"
     id="rect1-2-3"
     width="5.8920484"
     height="5.8508992"
     x="10.261228"
     y="10.281802"
     rx="1.224344"
     ry="1.2767248" />
  <path
     id="path1"
     style="fill:{{colors.primary.default.hex}};fill-opacity:1;stroke:none;stroke-width:0.0587368;stroke-dasharray:none;stroke-dashoffset:2.2;stroke-opacity:0.6"
     d="m 14.168922,11.656658 c -0.06055,-2.6e-5 -0.125364,0.02435 -0.206481,0.07188 -0.193027,0.1131 -0.445472,0.166438 -0.792145,0.166438 -0.346641,0 -0.607506,-0.05448 -0.799384,-0.16692 -0.153862,-0.09017 -0.245719,-0.09136 -0.374847,-0.0043 -0.331514,0.223407 -0.581361,0.939687 -0.654655,1.875683 -0.04395,0.561277 -0.0029,0.857184 0.142315,1.023712 0.07004,0.08029 0.241969,0.06668 0.397039,-0.03184 0.13145,-0.08351 0.288072,-0.267793 0.475192,-0.559138 0.16909,-0.263274 0.373614,-0.349984 0.825918,-0.350725 0.451405,-6.81e-4 0.628801,0.08471 0.837013,0.404757 0.349331,0.536972 0.672221,0.723915 0.861617,0.498829 0.104925,-0.124694 0.12413,-0.24517 0.119159,-0.746797 -0.0091,-0.911235 -0.247248,-1.740202 -0.590491,-2.056592 -0.09141,-0.08427 -0.162394,-0.124918 -0.24025,-0.124951 z M 12.207851,12.1936 h 0.209374 0.209373 v 0.179464 0.179463 h 0.179465 0.179462 v 0.22433 0.224328 h -0.179462 -0.179465 v 0.194419 0.194419 h -0.189593 c -0.104158,0 -0.197928,-0.0093 -0.208892,-0.02026 -0.01096,-0.01096 -0.02025,-0.098 -0.02025,-0.193935 v -0.174644 h -0.179466 -0.179465 v -0.224328 -0.224329 h 0.179465 0.179463 v -0.179465 z m 1.706832,0 c 0.188883,0 0.269773,0.209278 0.133633,0.345419 -0.08658,0.08657 -0.165598,0.09337 -0.250863,0.02123 -0.147895,-0.125144 -0.0707,-0.366645 0.11723,-0.366645 z m -0.363268,0.383531 c 0.04717,3.2e-5 0.09465,0.01883 0.132184,0.0603 0.05851,0.06466 0.06483,0.212666 0.01207,0.281737 -0.103261,0.135182 -0.351207,0.04823 -0.351207,-0.123018 0,-0.12997 0.103198,-0.219094 0.206961,-0.219022 z m 0.741493,0.0073 c 0.05436,9.9e-4 0.10714,0.019 0.137972,0.05306 0.05851,0.06466 0.06482,0.212666 0.01206,0.281738 -0.109832,0.143783 -0.351209,0.04755 -0.351209,-0.139905 0,-0.05682 0.02277,-0.118403 0.05451,-0.14714 0.03629,-0.03285 0.0923,-0.04875 0.14666,-0.04775 z m -0.365199,0.386906 c 0.167454,0 0.248932,0.177621 0.147622,0.322262 -0.03463,0.04945 -0.07687,0.06657 -0.164026,0.06657 -0.100342,0 -0.123628,-0.01306 -0.164024,-0.09118 -0.07966,-0.154035 0.0073,-0.297659 0.180428,-0.297659 z" />
</svg>
