<?xml version="1.0" encoding="UTF-8" standalone="no"?>
<svg
   width="64"
   height="64"
   version="1.1"
   viewBox="0 0 16.933 16.933"
   id="svg7"
   sodipodi:docname="abcd.svg"
   inkscape:version="1.4.3 (0d15f75042, 2025-12-25)"
   xmlns:inkscape="http://www.inkscape.org/namespaces/inkscape"
   xmlns:sodipodi="http://sodipodi.sourceforge.net/DTD/sodipodi-0.dtd"
   xmlns="http://www.w3.org/2000/svg"
   xmlns:svg="http://www.w3.org/2000/svg"
   xmlns:rdf="http://www.w3.org/1999/02/22-rdf-syntax-ns#"
   xmlns:cc="http://creativecommons.org/ns#"
   xmlns:dc="http://purl.org/dc/elements/1.1/">
  <sodipodi:namedview
     id="namedview7"
     pagecolor="#9c4444"
     bordercolor="#000000"
     borderopacity="0.25"
     inkscape:showpageshadow="2"
     inkscape:pageopacity="0.0"
     inkscape:pagecheckerboard="0"
     inkscape:deskcolor="#d1d1d1"
     inkscape:zoom="4.3531261"
     inkscape:cx="43.072494"
     inkscape:cy="45.254834"
     inkscape:window-width="1226"
     inkscape:window-height="669"
     inkscape:window-x="109"
     inkscape:window-y="119"
     inkscape:window-maximized="0"
     inkscape:current-layer="svg7"
     showgrid="false" />
  <defs
     id="defs2">
    <filter
       style="color-interpolation-filters:sRGB;"
       inkscape:label="Blur"
       id="filter5421"
       x="-0.12256455"
       y="-0.12342654"
       width="1.2451291"
       height="1.2468531">
      <feGaussianBlur
         stdDeviation="0.5 0.5"
         result="blur"
         id="feGaussianBlur5419" />
    </filter>
    <filter
       style="color-interpolation-filters:sRGB"
       inkscape:label="Blur"
       id="filter5421-3"
       x="-0.12256455"
       y="-0.12342654"
       width="1.2451291"
       height="1.2468531">
      <feGaussianBlur
         stdDeviation="0.5 0.5"
         result="blur"
         id="feGaussianBlur5419-6" />
    </filter>
  </defs>
  <metadata
     id="metadata2">
    <rdf:RDF>
      <cc:Work
         rdf:about="">
        <dc:format>image/svg+xml</dc:format>
        <dc:type
           rdf:resource="http://purl.org/dc/dcmitype/StillImage" />
      </cc:Work>
    </rdf:RDF>
  </metadata>
  <rect
     style="opacity:0.3;fill:none;fill-opacity:0.996424;stroke:#000000;stroke-width:0.955221;stroke-dasharray:none;stroke-opacity:1;filter:url(#filter5421)"
     id="rect1-2-7"
     width="13.687567"
     height="13.591975"
     x="1.6227165"
     y="1.6705122"
     rx="2.8442214"
     ry="2.965905" />
  <rect
     style="fill:none;fill-opacity:1;stroke:{{colors.primary.default.hex}};stroke-width:0.955221;stroke-dasharray:none;stroke-opacity:1"
     id="rect1-2"
     width="13.687567"
     height="13.591975"
     x="1.6227167"
     y="1.6705124"
     rx="2.8442214"
     ry="2.965905" />
  <path
     style="fill:{{colors.primary.default.hex}};fill-opacity:1;stroke:none;stroke-width:0.118795;stroke-dasharray:none;stroke-opacity:0.6"
     d="M 8.7105356,11.897632 C 8.5925518,11.754735 8.5796911,11.670622 8.6711131,11.639815 9.092278,11.497889 9.216114,11.292763 9.1006721,10.928276 9.036892,10.726899 8.8606117,9.8591766 8.7089397,9.0000024 8.4496695,7.5313261 8.4113956,7.4240801 8.0692104,7.2074244 7.7264483,6.990402 7.7190715,6.9695819 7.9425707,6.849969 8.2364505,6.6926894 9.9346099,6.2604977 10.680103,6.1532495 c 1.096774,-0.1577829 1.625353,0.7631628 0.855216,1.4900485 -0.425284,0.4013997 -0.46408,0.53354 -0.131078,0.4464588 0.309415,-0.080913 0.932163,0.292901 1.099391,0.6599298 0.07265,0.159423 0.167195,0.5095164 0.210126,0.7779858 0.07096,0.4437878 0.04045,0.5226596 -0.335914,0.8682786 -0.227683,0.20908 -1.02007,0.653501 -1.760861,0.9876 -1.7062196,0.769508 -1.6974968,0.767156 -1.9064474,0.514081 z m 2.5977304,-1.530843 c 0.643787,-0.324711 0.839278,-0.5641189 0.839278,-1.0278295 0,-0.8706328 -0.123098,-0.9227608 -1.413563,-0.5986064 -0.8357896,0.2099433 -0.8516135,0.2309904 -0.6792,0.9034501 0.06043,0.2357058 0.144612,0.5832128 0.187064,0.7722368 0.08591,0.382493 0.222977,0.376162 1.066421,-0.04926 z m -0.79791,-2.6833013 c 0.357662,-0.2700376 0.708984,-0.6006385 0.780715,-0.7346689 0.116671,-0.2180028 0.09187,-0.2436917 -0.235196,-0.2436917 -0.201088,0 -0.647658,0.060487 -0.992373,0.1344152 C 9.5563343,6.9483107 9.4520373,7.0125597 9.5168902,7.176266 9.5609712,7.287535 9.627109,7.5576499 9.6638629,7.77652 c 0.036753,0.2188698 0.095935,0.397945 0.1315127,0.397945 0.035578,0 0.3573194,-0.2209399 0.7149804,-0.4909773 z M 6.9206563,10.841908 C 6.7946406,10.678437 6.1413034,7.7855143 6.14541,7.4091845 6.1484264,7.1352985 6.038417,7.1422054 5.6579688,7.4397957 5.2300194,7.7745429 4.1886308,7.7363753 4.1886308,7.3859438 4.1886308,6.966017 6.3888491,5.598862 7.9520036,5.047488 8.5612012,4.8326047 8.6148702,4.8317897 9.0327698,5.0310703 9.2746252,5.1464029 9.4523445,5.3012501 9.4277028,5.3751767 9.4030626,5.4491019 8.949659,5.6675374 8.4201437,5.860588 7.890629,6.0536394 7.3277137,6.2965565 7.1692222,6.4004037 6.9054229,6.5732519 6.8960014,6.6122381 7.0578107,6.8614501 7.3196351,7.264703 8.1864544,10.70703 8.0584156,10.835068 c -0.1537608,0.15376 -1.0204858,0.15897 -1.1377593,0.0068 z"
     id="path1-9" />
  <rect
     style="opacity:0.3;fill:none;fill-opacity:0.996424;stroke:#000000;stroke-width:0.955221;stroke-dasharray:none;stroke-opacity:1;filter:url(#filter5421-3)"
     id="rect1-2-7-5"
     width="13.687567"
     height="13.591975"
     x="1.6227165"
     y="1.6705122"
     rx="2.8442214"
     ry="2.965905"
     transform="matrix(0.43046721,0,0,0.43046721,9.5627021,9.5627021)" />
  <rect
     style="fill:none;fill-opacity:1;stroke:{{colors.primary.default.hex}};stroke-width:0.411191;stroke-dasharray:none;stroke-opacity:1"
     id="rect1-2-3"
     width="5.8920484"
     height="5.8508992"
     x="10.261228"
     y="10.281802"
     rx="1.224344"
     ry="1.2767248" />
  <path
     id="path1"
     style="fill:{{colors.primary.default.hex}};fill-opacity:1;stroke:none;stroke-width:0.0587368;stroke-dasharray:none;stroke-dashoffset:2.2;stroke-opacity:0.6"
     d="m 14.168922,11.656658 c -0.06055,-2.6e-5 -0.125364,0.02435 -0.206481,0.07188 -0.193027,0.1131 -0.445472,0.166438 -0.792145,0.166438 -0.346641,0 -0.607506,-0.05448 -0.799384,-0.16692 -0.153862,-0.09017 -0.245719,-0.09136 -0.374847,-0.0043 -0.331514,0.223407 -0.581361,0.939687 -0.654655,1.875683 -0.04395,0.561277 -0.0029,0.857184 0.142315,1.023712 0.07004,0.08029 0.241969,0.06668 0.397039,-0.03184 0.13145,-0.08351 0.288072,-0.267793 0.475192,-0.559138 0.16909,-0.263274 0.373614,-0.349984 0.825918,-0.350725 0.451405,-6.81e-4 0.628801,0.08471 0.837013,0.404757 0.349331,0.536972 0.672221,0.723915 0.861617,0.498829 0.104925,-0.124694 0.12413,-0.24517 0.119159,-0.746797 -0.0091,-0.911235 -0.247248,-1.740202 -0.590491,-2.056592 -0.09141,-0.08427 -0.162394,-0.124918 -0.24025,-0.124951 z M 12.207851,12.1936 h 0.209374 0.209373 v 0.179464 0.179463 h 0.179465 0.179462 v 0.22433 0.224328 h -0.179462 -0.179465 v 0.194419 0.194419 h -0.189593 c -0.104158,0 -0.197928,-0.0093 -0.208892,-0.02026 -0.01096,-0.01096 -0.02025,-0.098 -0.02025,-0.193935 v -0.174644 h -0.179466 -0.179465 v -0.224328 -0.224329 h 0.179465 0.179463 v -0.179465 z m 1.706832,0 c 0.188883,0 0.269773,0.209278 0.133633,0.345419 -0.08658,0.08657 -0.165598,0.09337 -0.250863,0.02123 -0.147895,-0.125144 -0.0707,-0.366645 0.11723,-0.366645 z m -0.363268,0.383531 c 0.04717,3.2e-5 0.09465,0.01883 0.132184,0.0603 0.05851,0.06466 0.06483,0.212666 0.01207,0.281737 -0.103261,0.135182 -0.351207,0.04823 -0.351207,-0.123018 0,-0.12997 0.103198,-0.219094 0.206961,-0.219022 z m 0.741493,0.0073 c 0.05436,9.9e-4 0.10714,0.019 0.137972,0.05306 0.05851,0.06466 0.06482,0.212666 0.01206,0.281738 -0.109832,0.143783 -0.351209,0.04755 -0.351209,-0.139905 0,-0.05682 0.02277,-0.118403 0.05451,-0.14714 0.03629,-0.03285 0.0923,-0.04875 0.14666,-0.04775 z m -0.365199,0.386906 c 0.167454,0 0.248932,0.177621 0.147622,0.322262 -0.03463,0.04945 -0.07687,0.06657 -0.164026,0.06657 -0.100342,0 -0.123628,-0.01306 -0.164024,-0.09118 -0.07966,-0.154035 0.0073,-0.297659 0.180428,-0.297659 z" />
</svg>
