<?xml version="1.0" encoding="UTF-8" standalone="no"?>
<svg
   width="64"
   height="64"
   version="1.1"
   viewBox="0 0 16.933 16.933"
   id="svg7"
   sodipodi:docname="abcd.svg"
   inkscape:version="1.4.3 (0d15f75042, 2025-12-25)"
   xmlns:inkscape="http://www.inkscape.org/namespaces/inkscape"
   xmlns:sodipodi="http://sodipodi.sourceforge.net/DTD/sodipodi-0.dtd"
   xmlns="http://www.w3.org/2000/svg"
   xmlns:svg="http://www.w3.org/2000/svg"
   xmlns:rdf="http://www.w3.org/1999/02/22-rdf-syntax-ns#"
   xmlns:cc="http://creativecommons.org/ns#"
   xmlns:dc="http://purl.org/dc/elements/1.1/">
  <sodipodi:namedview
     id="namedview7"
     pagecolor="#9c4444"
     bordercolor="#000000"
     borderopacity="0.25"
     inkscape:showpageshadow="2"
     inkscape:pageopacity="0.0"
     inkscape:pagecheckerboard="0"
     inkscape:deskcolor="#d1d1d1"
     inkscape:zoom="4.3531261"
     inkscape:cx="43.072494"
     inkscape:cy="45.254834"
     inkscape:window-width="1226"
     inkscape:window-height="669"
     inkscape:window-x="109"
     inkscape:window-y="119"
     inkscape:window-maximized="0"
     inkscape:current-layer="svg7"
     showgrid="false" />
  <defs
     id="defs2">
    <filter
       style="color-interpolation-filters:sRGB;"
       inkscape:label="Blur"
       id="filter5421"
       x="-0.12256455"
       y="-0.12342654"
       width="1.2451291"
       height="1.2468531">
      <feGaussianBlur
         stdDeviation="0.5 0.5"
         result="blur"
         id="feGaussianBlur5419" />
    </filter>
    <filter
       style="color-interpolation-filters:sRGB"
       inkscape:label="Blur"
       id="filter5421-3"
       x="-0.12256455"
       y="-0.12342654"
       width="1.2451291"
       height="1.2468531">
      <feGaussianBlur
         stdDeviation="0.5 0.5"
         result="blur"
         id="feGaussianBlur5419-6" />
    </filter>
  </defs>
  <metadata
     id="metadata2">
    <rdf:RDF>
      <cc:Work
         rdf:about="">
        <dc:format>image/svg+xml</dc:format>
        <dc:type
           rdf:resource="http://purl.org/dc/dcmitype/StillImage" />
      </cc:Work>
    </rdf:RDF>
  </metadata>
  <rect
     style="opacity:0.3;fill:none;fill-opacity:0.996424;stroke:#000000;stroke-width:0.955221;stroke-dasharray:none;stroke-opacity:1;filter:url(#filter5421)"
     id="rect1-2-7"
     width="13.687567"
     height="13.591975"
     x="1.6227165"
     y="1.6705122"
     rx="2.8442214"
     ry="2.965905" />
  <rect
     style="fill:none;fill-opacity:1;stroke:{{colors.primary.default.hex}};stroke-width:0.955221;stroke-dasharray:none;stroke-opacity:1"
     id="rect1-2"
     width="13.687567"
     height="13.591975"
     x="1.6227167"
     y="1.6705124"
     rx="2.8442214"
     ry="2.965905" />
  <path
     style="fill:{{colors.primary.default.hex}};stroke-width:0.13568;fill-opacity:1"
     d="M 8.2474808,12.186387 C 8.1819539,12.018484 8.0596983,11.624951 7.9758011,11.31187 7.8816805,10.960636 7.5701208,10.465656 7.1622799,10.019414 6.5068177,9.3022333 6.5030446,9.2928257 6.710352,8.8926544 7.0190466,8.296772 7.1312005,8.2749947 7.8517135,8.6710326 L 8.5081181,9.0318324 9.1865876,8.6587129 C 9.5597459,8.4534973 9.8940953,8.2855937 9.929585,8.2855937 c 0.035487,0 0.181374,0.2277565 0.324185,0.5061256 l 0.259659,0.5061254 -0.6602279,0.7223923 c -0.4071897,0.445533 -0.7186883,0.94056 -0.8127666,1.291633 -0.2292423,0.855471 -0.3755761,1.179797 -0.5323164,1.179797 -0.077823,0 -0.1951103,-0.137374 -0.2606373,-0.30528 z M 5.02542,8.8984452 C 5.2991786,8.5399145 5.5231625,8.1637674 5.5231625,8.0625628 c 0,-0.1118645 0.1516643,-0.1840083 0.3868314,-0.1840083 0.2127574,0 0.6792293,-0.1554699 1.0366048,-0.345488 C 7.980244,6.983472 8.1525583,7.1658756 7.3247764,7.933388 6.9351217,8.294672 6.5845601,8.6903141 6.5457503,8.8125924 6.5048813,8.9413597 6.203504,9.1033297 5.8295752,9.1974897 5.4744884,9.2869047 5.0362989,9.4028703 4.8558204,9.4551908 4.547735,9.544504 4.5581019,9.5104729 5.02542,8.8984452 Z M 6.2916751,8.6156733 C 6.4047592,8.3209816 6.1176753,8.0438485 5.912186,8.2493378 5.7385115,8.4230126 5.8461026,8.8283129 6.0658816,8.8283129 c 0.079307,0 0.1809154,-0.095688 0.2257935,-0.2126396 z M 11.647096,9.2978818 C 11.396001,9.1888664 11.049043,9.0996724 10.87608,9.0996724 c -0.184489,0 -0.346747,-0.1016649 -0.392542,-0.2459545 C 10.440603,8.7184427 10.09085,8.3063152 9.7063077,7.9378793 8.8907235,7.1564549 9.0576527,6.9804831 10.092116,7.5311701 c 0.358908,0.1910617 0.820949,0.3473844 1.026758,0.3473844 0.233219,0 0.374199,0.072761 0.374199,0.1931272 0,0.1062198 0.213292,0.472555 0.473983,0.8140786 0.498302,0.6528099 0.431779,0.7384945 -0.31996,0.4121215 z M 11.176148,8.6156733 c 0.113083,-0.2946917 -0.174001,-0.5718248 -0.379489,-0.3663355 -0.173675,0.1736748 -0.06609,0.5789751 0.153694,0.5789751 0.07931,0 0.180917,-0.095688 0.225795,-0.2126396 z M 5.5231625,7.467157 c 0,-0.4318573 0.3379467,-1.1174563 0.7282175,-1.4773485 0.4097617,-0.3778656 0.5897826,-0.3096372 0.3525583,0.1336204 -0.096222,0.1797932 -0.1300994,0.5384426 -0.083189,0.8806946 0.085349,0.6226849 -0.019831,0.7387511 -0.6694841,0.7387511 -0.2393781,0 -0.3281027,-0.074559 -0.3281027,-0.2757176 z m 5.0580365,0.1871808 c -0.112526,-0.045594 -0.140135,-0.2531663 -0.0861,-0.647355 0.04728,-0.3449705 0.01372,-0.7032261 -0.0828,-0.8835539 -0.237224,-0.4432576 -0.0572,-0.511486 0.352557,-0.1336204 0.390271,0.3598922 0.728218,1.0454912 0.728218,1.4773485 0,0.2129261 -0.08497,0.2732782 -0.37312,0.2650059 C 10.91474,7.7262729 10.6723,7.6912499 10.5812,7.6543379 Z M 7.8533702,6.0720524 C 7.2679017,5.4488501 7.6582835,4.4413326 8.4852236,4.4413326 c 0.9032821,0 1.3155322,1.0326047 0.6586287,1.6497335 C 8.7364587,6.4737924 8.2236876,6.4662373 7.8533702,6.0720524 Z"
     id="path293" />
  <rect
     style="opacity:0.3;fill:none;fill-opacity:0.996424;stroke:#000000;stroke-width:0.955221;stroke-dasharray:none;stroke-opacity:1;filter:url(#filter5421-3)"
     id="rect1-2-7-5"
     width="13.687567"
     height="13.591975"
     x="1.6227165"
     y="1.6705122"
     rx="2.8442214"
     ry="2.965905"
     transform="matrix(0.43046721,0,0,0.43046721,9.5627021,9.5627021)" />
  <rect
     style="fill:none;fill-opacity:1;stroke:{{colors.primary.default.hex}};stroke-width:0.411191;stroke-dasharray:none;stroke-opacity:1"
     id="rect1-2-3"
     width="5.8920484"
     height="5.8508992"
     x="10.261228"
     y="10.281802"
     rx="1.224344"
     ry="1.2767248" />
  <path
     id="path1"
     style="fill:{{colors.primary.default.hex}};fill-opacity:1;stroke:none;stroke-width:0.0587368;stroke-dasharray:none;stroke-dashoffset:2.2;stroke-opacity:0.6"
     d="m 14.168922,11.656658 c -0.06055,-2.6e-5 -0.125364,0.02435 -0.206481,0.07188 -0.193027,0.1131 -0.445472,0.166438 -0.792145,0.166438 -0.346641,0 -0.607506,-0.05448 -0.799384,-0.16692 -0.153862,-0.09017 -0.245719,-0.09136 -0.374847,-0.0043 -0.331514,0.223407 -0.581361,0.939687 -0.654655,1.875683 -0.04395,0.561277 -0.0029,0.857184 0.142315,1.023712 0.07004,0.08029 0.241969,0.06668 0.397039,-0.03184 0.13145,-0.08351 0.288072,-0.267793 0.475192,-0.559138 0.16909,-0.263274 0.373614,-0.349984 0.825918,-0.350725 0.451405,-6.81e-4 0.628801,0.08471 0.837013,0.404757 0.349331,0.536972 0.672221,0.723915 0.861617,0.498829 0.104925,-0.124694 0.12413,-0.24517 0.119159,-0.746797 -0.0091,-0.911235 -0.247248,-1.740202 -0.590491,-2.056592 -0.09141,-0.08427 -0.162394,-0.124918 -0.24025,-0.124951 z M 12.207851,12.1936 h 0.209374 0.209373 v 0.179464 0.179463 h 0.179465 0.179462 v 0.22433 0.224328 h -0.179462 -0.179465 v 0.194419 0.194419 h -0.189593 c -0.104158,0 -0.197928,-0.0093 -0.208892,-0.02026 -0.01096,-0.01096 -0.02025,-0.098 -0.02025,-0.193935 v -0.174644 h -0.179466 -0.179465 v -0.224328 -0.224329 h 0.179465 0.179463 v -0.179465 z m 1.706832,0 c 0.188883,0 0.269773,0.209278 0.133633,0.345419 -0.08658,0.08657 -0.165598,0.09337 -0.250863,0.02123 -0.147895,-0.125144 -0.0707,-0.366645 0.11723,-0.366645 z m -0.363268,0.383531 c 0.04717,3.2e-5 0.09465,0.01883 0.132184,0.0603 0.05851,0.06466 0.06483,0.212666 0.01207,0.281737 -0.103261,0.135182 -0.351207,0.04823 -0.351207,-0.123018 0,-0.12997 0.103198,-0.219094 0.206961,-0.219022 z m 0.741493,0.0073 c 0.05436,9.9e-4 0.10714,0.019 0.137972,0.05306 0.05851,0.06466 0.06482,0.212666 0.01206,0.281738 -0.109832,0.143783 -0.351209,0.04755 -0.351209,-0.139905 0,-0.05682 0.02277,-0.118403 0.05451,-0.14714 0.03629,-0.03285 0.0923,-0.04875 0.14666,-0.04775 z m -0.365199,0.386906 c 0.167454,0 0.248932,0.177621 0.147622,0.322262 -0.03463,0.04945 -0.07687,0.06657 -0.164026,0.06657 -0.100342,0 -0.123628,-0.01306 -0.164024,-0.09118 -0.07966,-0.154035 0.0073,-0.297659 0.180428,-0.297659 z" />
</svg>
