<?xml version="1.0" encoding="UTF-8" standalone="no"?>
<svg
   width="64"
   height="64"
   version="1.1"
   viewBox="0 0 16.933 16.933"
   id="svg7"
   sodipodi:docname="steam_icon_1184370.svg"
   inkscape:version="1.4.3 (0d15f75042, 2025-12-25)"
   xmlns:inkscape="http://www.inkscape.org/namespaces/inkscape"
   xmlns:sodipodi="http://sodipodi.sourceforge.net/DTD/sodipodi-0.dtd"
   xmlns="http://www.w3.org/2000/svg"
   xmlns:svg="http://www.w3.org/2000/svg"
   xmlns:rdf="http://www.w3.org/1999/02/22-rdf-syntax-ns#"
   xmlns:cc="http://creativecommons.org/ns#"
   xmlns:dc="http://purl.org/dc/elements/1.1/">
  <sodipodi:namedview
     id="namedview7"
     pagecolor="#9c4444"
     bordercolor="#000000"
     borderopacity="0.25"
     inkscape:showpageshadow="2"
     inkscape:pageopacity="0.0"
     inkscape:pagecheckerboard="0"
     inkscape:deskcolor="#d1d1d1"
     inkscape:zoom="4.3531261"
     inkscape:cx="42.957635"
     inkscape:cy="45.025114"
     inkscape:window-width="1226"
     inkscape:window-height="669"
     inkscape:window-x="314"
     inkscape:window-y="198"
     inkscape:window-maximized="0"
     inkscape:current-layer="svg7"
     showgrid="false" />
  <defs
     id="defs2">
    <filter
       style="color-interpolation-filters:sRGB;"
       inkscape:label="Blur"
       id="filter5421"
       x="-0.12256455"
       y="-0.12342654"
       width="1.2451291"
       height="1.2468531">
      <feGaussianBlur
         stdDeviation="0.5 0.5"
         result="blur"
         id="feGaussianBlur5419" />
    </filter>
    <filter
       style="color-interpolation-filters:sRGB"
       inkscape:label="Blur"
       id="filter5421-3"
       x="-0.12256455"
       y="-0.12342654"
       width="1.2451291"
       height="1.2468531">
      <feGaussianBlur
         stdDeviation="0.5 0.5"
         result="blur"
         id="feGaussianBlur5419-6" />
    </filter>
  </defs>
  <metadata
     id="metadata2">
    <rdf:RDF>
      <cc:Work
         rdf:about="">
        <dc:format>image/svg+xml</dc:format>
        <dc:type
           rdf:resource="http://purl.org/dc/dcmitype/StillImage" />
      </cc:Work>
    </rdf:RDF>
  </metadata>
  <rect
     style="opacity:0.3;fill:none;fill-opacity:0.996424;stroke:#000000;stroke-width:0.955221;stroke-dasharray:none;stroke-opacity:1;filter:url(#filter5421)"
     id="rect1-2-7"
     width="13.687567"
     height="13.591975"
     x="1.6227165"
     y="1.6705122"
     rx="2.8442214"
     ry="2.965905" />
  <rect
     style="fill:none;fill-opacity:1;stroke:{{colors.primary.default.hex}};stroke-width:0.955221;stroke-dasharray:none;stroke-opacity:1"
     id="rect1-2"
     width="13.687567"
     height="13.591975"
     x="1.6227167"
     y="1.6705124"
     rx="2.8442214"
     ry="2.965905" />
  <path
     style="fill:{{colors.primary.default.hex}};fill-opacity:1;stroke:none;stroke-width:0.126378;stroke-dasharray:none;stroke-opacity:0.6"
     d="m 9.3419776,12.51879 c 0,-0.01165 -0.00953,-0.02119 -0.02118,-0.02119 -0.011648,0 -0.02118,-0.0088 -0.02118,-0.01966 0,-0.01082 -0.011117,-0.024 -0.024708,-0.02923 -0.023538,-0.0091 -0.023538,-0.0104 0,-0.02777 0.013586,-0.01 0.024708,-0.03178 0.024708,-0.04842 0,-0.01744 0.00896,-0.03019 0.02118,-0.03019 0.014118,0 0.02118,-0.01411 0.02118,-0.04234 0,-0.02824 0.00707,-0.04234 0.021182,-0.04234 0.011648,0 0.02118,-0.0096 0.02118,-0.02116 0,-0.01166 0.00953,-0.02115 0.02118,-0.02115 0.014121,0 0.021182,-0.0141 0.021182,-0.04234 0,-0.02825 0.00706,-0.04234 0.02118,-0.04234 0.011648,0 0.02118,-0.0096 0.02118,-0.0212 0,-0.01165 0.00591,-0.02119 0.013167,-0.02119 0.00725,0 0.017266,-0.01291 0.022272,-0.02868 0.00499,-0.01578 0.024646,-0.04547 0.043649,-0.06598 0.018993,-0.0205 0.038254,-0.05207 0.04279,-0.07014 0.00455,-0.01807 0.013172,-0.03288 0.019184,-0.03288 0.00601,0 0.01443,-0.01335 0.018697,-0.02965 0.00427,-0.01633 0.014527,-0.02548 0.022822,-0.02034 0.00942,0.0058 0.015074,-0.007 0.015074,-0.03386 0,-0.02897 0.00695,-0.04317 0.02118,-0.04317 0.01318,0 0.02118,-0.01334 0.02118,-0.0353 0,-0.02199 0.008,-0.0353 0.021182,-0.0353 0.014118,0 0.021162,-0.01412 0.021162,-0.04235 0,-0.0254 0.00678,-0.04091 0.016863,-0.03882 0.00928,0.002 0.02123,-0.01553 0.026565,-0.03885 0.00535,-0.02328 0.010553,-0.036 0.011593,-0.02824 0.00383,0.02847 0.02927,-0.02945 0.029476,-0.06706 1.511e-4,-0.02501 0.00781,-0.03884 0.021398,-0.03884 0.015228,0 0.021177,-0.01556 0.021177,-0.05528 0,-0.03041 0.00666,-0.05752 0.014796,-0.06025 0.00819,-0.0027 0.018567,-0.04138 0.023157,-0.08587 0.00459,-0.04451 0.013041,-0.08096 0.018765,-0.08096 0.00585,0 0.013401,-0.03622 0.017082,-0.08046 0.0036,-0.04426 0.013968,-0.0829 0.022923,-0.08589 0.00891,-0.003 0.016245,-0.0305 0.016245,-0.06115 0,-0.03651 0.00738,-0.05855 0.021159,-0.06388 0.01381,-0.0053 0.02116,-0.02724 0.02116,-0.0631 0,-0.03945 0.0059,-0.05495 0.0212,-0.05495 0.01528,0 0.02119,-0.01569 0.02119,-0.05648 0,-0.0408 0.0058,-0.05648 0.02116,-0.05648 0.01569,0 0.02119,-0.01646 0.02119,-0.06354 0,-0.04707 0.0054,-0.06353 0.02118,-0.06353 0.01564,0 0.0212,-0.01633 0.0212,-0.06235 0,-0.03667 0.0072,-0.06529 0.01765,-0.06947 0.01212,-0.0049 0.01101,-0.0075 -0.0036,-0.0085 -0.01882,-0.0012 -0.01882,-0.0029 0,-0.01478 0.0268,-0.017 0.02916,-0.230859 0.0029,-0.257176 -0.02336,-0.02337 -0.02278,-0.2047018 6.8e-4,-0.2125093 C 10.192,9.8776147 10.19725,9.7740344 10.2008,9.4442407 10.2047,9.081889 10.202,9.0046 10.18408,8.9653768 c -0.01183,-0.025939 -0.02341,-0.099775 -0.026,-0.165687 -0.0031,-0.078208 -0.01066,-0.1208911 -0.02211,-0.1247132 -0.0131,-0.00437 -0.01744,-0.080824 -0.01744,-0.3081839 0,-0.2593628 -0.003,-0.3023721 -0.02119,-0.3023721 -0.01726,0 -0.02116,-0.023527 -0.02116,-0.1270673 0,-0.1035361 -0.0039,-0.127067 -0.0212,-0.127067 -0.0174,0 -0.02116,-0.02497 -0.02116,-0.1400086 0,-0.099461 -0.005,-0.1417122 -0.01765,-0.1458877 C 10.00423,7.52041 9.996892,7.47559 9.993517,7.3855549 9.990727,7.3124279 9.982321,7.248751 9.974806,7.2440461 9.967426,7.2393261 9.957571,7.2091641 9.953278,7.1769821 9.949048,7.1448031 9.940732,7.1184731 9.934981,7.1184731 c -0.00585,0 -0.014526,-0.025415 -0.019476,-0.056475 -0.00495,-0.031061 -0.0153,-0.056474 -0.022995,-0.056474 -0.00765,0 -0.013959,-0.015359 -0.013959,-0.034142 0,-0.046229 -0.014319,-0.08035 -0.029718,-0.070834 -0.00694,0.0043 -0.012727,-0.013215 -0.01283,-0.038905 C 9.8357411,6.7986051 9.821631,6.749994 9.806351,6.7594417 c -0.00687,0.00427 -0.012505,-0.014867 -0.012505,-0.042513 0,-0.035252 -0.00638,-0.050249 -0.021174,-0.050249 -0.015287,0 -0.021162,-0.015687 -0.021162,-0.056473 0,-0.040786 -0.0059,-0.056474 -0.021182,-0.056474 -0.014118,0 -0.021182,-0.014118 -0.021182,-0.042356 0,-0.028243 -0.00709,-0.042356 -0.021182,-0.042356 -0.015355,0 -0.021182,-0.015802 -0.021182,-0.057484 0,-0.03227 -0.00928,-0.066772 -0.02118,-0.078659 -0.011661,-0.011677 -0.021191,-0.039287 -0.021191,-0.061383 0,-0.022091 -0.00675,-0.042426 -0.015027,-0.045181 -0.00828,-0.00275 -0.018636,-0.031875 -0.02304,-0.06471 -0.0044,-0.032835 -0.012838,-0.059699 -0.018733,-0.059699 -0.0059,0 -0.014713,-0.015886 -0.019585,-0.035298 -0.00489,-0.019412 -0.015085,-0.035298 -0.022707,-0.035298 -0.00762,0 -0.013854,-0.016086 -0.013854,-0.03574 0,-0.019658 -0.00953,-0.039397 -0.02118,-0.043867 -0.011622,-0.0044 -0.021156,-0.023475 -0.021156,-0.042302 0,-0.018825 -0.00953,-0.037886 -0.021182,-0.042356 -0.011651,-0.00446 -0.02118,-0.02353 -0.02118,-0.042355 0,-0.018831 -0.00953,-0.037886 -0.02118,-0.042355 -0.011648,-0.00447 -0.021182,-0.023331 -0.021182,-0.041912 0,-0.020619 -0.00824,-0.033787 -0.02118,-0.033787 -0.011648,0 -0.02118,-0.00998 -0.02118,-0.022183 0,-0.012203 -0.00953,-0.031717 -0.021182,-0.043365 -0.011648,-0.011651 -0.02118,-0.03343 -0.02118,-0.048405 0,-0.014975 -0.0059,-0.02723 -0.013167,-0.02723 -0.00725,0 -0.017516,-0.013696 -0.022828,-0.030441 C 9.258358,5.5182627 9.239884,5.4912647 9.222584,5.4750057 9.205291,5.4587467 9.186849,5.4279737 9.181611,5.4066167 9.176351,5.3852637 9.165853,5.3677897 9.158236,5.3677897 c -0.00762,0 -0.013854,-0.00953 -0.013854,-0.021182 0,-0.011648 -0.00953,-0.021182 -0.02118,-0.021182 -0.011648,0 -0.021182,-0.00953 -0.021182,-0.02118 0,-0.011648 -0.00953,-0.021174 -0.021182,-0.021174 -0.011648,0 -0.02118,-0.00637 -0.02118,-0.014121 0,-0.00777 -0.00973,-0.014118 -0.021625,-0.014118 -0.011892,0 -0.025279,-0.00953 -0.029746,-0.021174 -0.00447,-0.011648 -0.022874,-0.02118 -0.040904,-0.02118 -0.018023,0 -0.041366,-0.00859 -0.051862,-0.019082 C 8.905011,5.1829297 8.861934,5.1710187 8.819789,5.1669687 8.777644,5.1629287 8.740775,5.1524497 8.737858,5.1436957 8.734498,5.1335927 8.689701,5.1277867 8.6152349,5.1277867 c -0.091262,0 -0.1191266,0.00473 -0.1254475,0.021182 -0.00537,0.013984 -0.027475,0.021182 -0.065047,0.021182 -0.031307,0 -0.056917,0.00629 -0.056917,0.013955 0,0.00767 -0.025023,0.017951 -0.055602,0.022846 -0.03058,0.0049 -0.058973,0.017678 -0.063089,0.028402 -0.00411,0.010734 -0.01453,0.019511 -0.023139,0.019511 -0.020088,0 -0.098187,0.077743 -0.098187,0.097744 0,0.00836 -0.00953,0.015203 -0.02118,0.015203 -0.011648,0 -0.021182,0.012251 -0.021182,0.027228 0,0.014975 -0.00922,0.036446 -0.020483,0.04771 -0.011263,0.011263 -0.024646,0.037087 -0.029746,0.057387 -0.00508,0.020302 -0.014941,0.033397 -0.021882,0.029106 -0.00694,-0.00428 -0.012609,0.00528 -0.012609,0.021277 0,0.016429 -0.00922,0.029073 -0.02118,0.029073 -0.011648,0 -0.021182,0.00953 -0.021182,0.021182 0,0.011648 -0.00953,0.02118 -0.021182,0.02118 -0.011648,0 -0.02118,0.00953 -0.02118,0.021182 0,0.011648 -0.00624,0.021182 -0.013854,0.021182 -0.00761,0 -0.017835,0.015889 -0.022712,0.035298 -0.00489,0.019412 -0.017704,0.035298 -0.028508,0.035298 -0.010804,0 -0.019648,0.00953 -0.019648,0.02118 0,0.011648 -0.00953,0.021182 -0.02118,0.021182 -0.011648,0 -0.021182,0.00723 -0.021182,0.01603 0,0.00884 -0.015143,0.030061 -0.033646,0.04721 -0.0185,0.017149 -0.037993,0.044879 -0.043306,0.061624 -0.00534,0.016748 -0.015588,0.030443 -0.02283,0.030443 -0.00725,0 -0.013164,0.00973 -0.013164,0.021617 0,0.011892 -0.00953,0.025282 -0.021182,0.029746 -0.012073,0.00463 -0.02118,0.025688 -0.02118,0.04897 0,0.026889 -0.00725,0.040845 -0.021182,0.040845 -0.015295,0 -0.021182,0.015687 -0.021182,0.056474 0,0.040786 -0.0059,0.056474 -0.021182,0.056474 -0.014118,0 -0.02118,0.014121 -0.02118,0.042356 0,0.028239 -0.00706,0.042355 -0.021182,0.042355 -0.011648,0 -0.020434,0.00476 -0.019508,0.010588 0.00541,0.034215 -0.0044,0.060004 -0.022851,0.060004 -0.011648,0 -0.02118,0.00953 -0.02118,0.021182 0,0.011648 -0.00637,0.021182 -0.014121,0.021182 -0.00778,0 -0.014121,0.00953 -0.014121,0.021182 0,0.011648 -0.00903,0.02118 -0.020059,0.02118 -0.011032,0 -0.024247,0.019061 -0.029358,0.042355 -0.00512,0.023294 -0.015152,0.042356 -0.022296,0.042356 -0.00715,0 -0.012997,0.016085 -0.012997,0.035741 0,0.019658 -0.00953,0.039397 -0.02118,0.043868 -0.013117,0.00502 -0.021182,0.026521 -0.021182,0.056475 0,0.029949 -0.00804,0.05144 -0.021182,0.056471 -0.012876,0.00492 -0.021182,0.026301 -0.021182,0.054521 0,0.028211 -0.00829,0.049578 -0.02118,0.054521 -0.013296,0.00509 -0.021182,0.026691 -0.021182,0.057984 0,0.034906 -0.00634,0.049857 -0.021182,0.049857 -0.015203,0 -0.021182,0.01552 -0.021182,0.054962 0,0.035832 -0.00739,0.057792 -0.02118,0.063089 -0.015237,0.00584 -0.021182,0.029695 -0.021182,0.085046 0,0.045464 -0.00667,0.079136 -0.016248,0.082337 -0.00895,0.00301 -0.019255,0.04163 -0.022927,0.085888 -0.00368,0.044259 -0.011782,0.08047 -0.018023,0.08047 -0.00624,0 -0.015721,0.034943 -0.021059,0.077651 -0.00534,0.042709 -0.015326,0.077654 -0.022193,0.077654 -0.00686,0 -0.012489,0.018605 -0.012489,0.041347 0,0.022741 -0.00862,0.049979 -0.019179,0.060529 -0.010553,0.010553 -0.022238,0.056061 -0.025976,0.1011376 -0.00374,0.045075 -0.01489,0.086957 -0.024771,0.093068 -0.01432,0.00885 -0.014068,0.012665 0.00126,0.018765 0.01366,0.00544 0.014131,0.00797 0.0016,0.00877 -0.025824,0.00167 -0.025824,1.4220197 0,1.4305969 0.012824,0.00427 0.018906,0.065281 0.022244,0.223371 0.00248,0.1196302 0.010433,0.2211195 0.017575,0.2255313 0.00714,0.00446 0.017157,0.048958 0.022267,0.099003 0.00508,0.050035 0.014029,0.094165 0.019836,0.098041 0.00581,0.00387 0.014564,0.032481 0.019464,0.063531 0.0049,0.03106 0.015074,0.058591 0.022597,0.061164 0.00752,0.0027 0.013681,0.02202 0.013681,0.04319 0,0.02115 0.00932,0.05082 0.020732,0.06589 0.011402,0.01507 0.020931,0.04171 0.02118,0.05917 2.557e-4,0.01862 0.00922,0.03177 0.021628,0.03177 0.014118,0 0.021182,0.01412 0.021182,0.04235 0,0.02824 0.00706,0.04235 0.02118,0.04235 0.014124,0 0.021182,0.01412 0.021182,0.04235 0,0.02824 0.00706,0.04234 0.021182,0.04234 0.011648,0 0.021182,0.0095 0.021182,0.02116 0,0.01165 0.00584,0.0212 0.012997,0.0212 0.00715,0 0.01718,0.01907 0.022296,0.04235 0.0051,0.02328 0.016978,0.04234 0.026353,0.04234 0.00938,0 0.018092,0.01387 0.019373,0.03083 0.00126,0.01698 0.012159,0.03632 0.024181,0.04307 0.012023,0.0068 0.021853,0.02779 0.021853,0.04684 0,0.01904 0.00637,0.03461 0.014124,0.03461 0.00778,0 0.014124,0.0095 0.014124,0.02115 0,0.01166 0.00953,0.02116 0.021182,0.02116 0.013243,0 0.02118,0.0134 0.02118,0.03573 0,0.01966 0.00953,0.03938 0.021182,0.04385 0.011648,0.0046 0.021182,0.02353 0.021182,0.04235 0,0.01884 0.00953,0.0379 0.021182,0.04234 0.011648,0.0045 0.02118,0.02334 0.02118,0.0419 0,0.02064 0.00823,0.03379 0.021182,0.03379 0.014118,0 0.021182,0.01411 0.021182,0.04234 0,0.02822 0.00706,0.04234 0.021182,0.04234 0.014118,0 0.02118,0.01411 0.02118,0.04234 0,0.02825 0.00706,0.04234 0.021182,0.04234 0.014121,0 0.02118,0.01412 0.02118,0.04235 0,0.02825 0.00707,0.04234 0.021182,0.04234 0.013172,0 0.02118,0.01333 0.02118,0.0353 0,0.01941 0.00565,0.03529 0.012594,0.03529 0.00694,0 0.016889,0.01714 0.022154,0.03811 0.00526,0.02096 0.025012,0.05243 0.043887,0.06992 0.018875,0.0175 0.034322,0.03844 0.034322,0.04659 0,0.0081 0.00953,0.0148 0.021182,0.0148 0.012929,0 0.021182,0.01316 0.021182,0.03379 0,0.01858 0.00953,0.03742 0.021182,0.0419 0.011648,0.0045 0.02118,0.01784 0.02118,0.02974 0,0.01188 0.00953,0.0216 0.021182,0.0216 0.013175,0 0.02118,0.01333 0.02118,0.03529 0,0.02197 0.00801,0.0353 0.021182,0.0353 0.014118,0 0.02118,0.01413 0.02118,0.04235 0,0.02825 -0.00706,0.04234 -0.02118,0.04234 -0.011648,0 -0.021182,0.0096 -0.021182,0.02116 0,0.01165 -0.00953,0.02119 -0.02118,0.02119 -0.011648,0 -0.021182,0.0095 -0.021182,0.02115 0,0.01528 -0.015687,0.02116 -0.056475,0.02116 -0.040786,0 -0.056471,-0.0059 -0.056471,-0.02116 0,-0.01396 -0.013951,-0.02115 -0.040845,-0.02115 -0.02328,0 -0.044339,-0.0091 -0.048971,-0.02119 -0.00447,-0.01166 -0.017861,-0.02116 -0.029746,-0.02116 -0.011894,0 -0.021623,-0.0061 -0.021623,-0.01384 0,-0.0076 -0.015886,-0.01784 -0.035298,-0.02272 -0.019412,-0.005 -0.035298,-0.01769 -0.035298,-0.02848 0,-0.01081 -0.00953,-0.01966 -0.021182,-0.01966 -0.011648,0 -0.02118,-0.0095 -0.02118,-0.02119 0,-0.01166 -0.00624,-0.02115 -0.013851,-0.02115 -0.00762,0 -0.017835,-0.01588 -0.022707,-0.0353 -0.00486,-0.0194 -0.017698,-0.0353 -0.028505,-0.0353 -0.010804,0 -0.019653,-0.0073 -0.019653,-0.01602 0,-0.0088 -0.015889,-0.03077 -0.035297,-0.04874 -0.019415,-0.01799 -0.035298,-0.03937 -0.035298,-0.04751 0,-0.0081 -0.00953,-0.0148 -0.021182,-0.0148 -0.011648,0 -0.021182,-0.0096 -0.021182,-0.02116 0,-0.01166 -0.00953,-0.0212 -0.02118,-0.0212 -0.011648,0 -0.021182,-0.0095 -0.021182,-0.02115 0,-0.01165 -0.00953,-0.02119 -0.021182,-0.02119 -0.011963,0 -0.02118,-0.01264 -0.02118,-0.02906 0,-0.01598 -0.00617,-0.02525 -0.013704,-0.02062 -0.00753,0.0046 -0.017759,-0.0077 -0.022712,-0.02739 -0.00496,-0.01972 -0.01784,-0.03588 -0.028652,-0.03588 -0.010804,0 -0.019648,-0.0096 -0.019648,-0.0212 0,-0.01166 -0.00953,-0.02115 -0.02118,-0.02115 -0.011648,0 -0.021182,-0.0096 -0.021182,-0.02116 0,-0.01166 -0.00953,-0.02116 -0.021182,-0.02116 -0.011648,0 -0.021182,-0.0096 -0.021182,-0.0212 0,-0.01165 -0.00953,-0.02115 -0.02118,-0.02115 -0.011648,0 -0.021182,-0.0096 -0.021182,-0.02119 0,-0.01166 -0.00953,-0.02115 -0.02118,-0.02115 -0.011648,0 -0.019588,-0.0054 -0.017652,-0.01205 0.00191,-0.0065 -0.023472,-0.0384 -0.056474,-0.07057 -0.033005,-0.03222 -0.060008,-0.06491 -0.060008,-0.07267 0,-0.0077 -0.00953,-0.01414 -0.021182,-0.01414 -0.011648,0 -0.021182,-0.0096 -0.021182,-0.02115 0,-0.01165 -0.00953,-0.02116 -0.021182,-0.02116 -0.011648,0 -0.02118,-0.0096 -0.02118,-0.02115 0,-0.01165 -0.0074,-0.02118 -0.016473,-0.02118 -0.00906,0 -0.0124,-0.0041 -0.00743,-0.009 0.00498,-0.005 -0.022558,-0.03919 -0.061178,-0.07603 -0.038624,-0.03686 -0.070224,-0.07405 -0.070224,-0.08273 0,-0.0086 -0.00953,-0.01576 -0.02118,-0.01576 -0.011648,0 -0.021182,-0.0088 -0.021182,-0.01966 0,-0.01082 -0.00953,-0.02334 -0.02118,-0.02779 -0.011648,-0.0045 -0.021182,-0.01719 -0.021182,-0.02825 0,-0.01106 -0.00953,-0.02376 -0.021182,-0.02825 -0.011648,-0.0046 -0.021182,-0.02103 -0.021182,-0.03679 0,-0.01607 -0.0093,-0.02869 -0.02118,-0.02869 -0.014124,0 -0.021182,-0.01412 -0.021182,-0.04235 0,-0.02825 -0.00706,-0.04234 -0.021182,-0.04234 -0.0152,0 -0.021182,-0.01552 -0.021182,-0.05495 0,-0.03582 -0.00739,-0.05781 -0.02118,-0.06309 -0.012379,-0.0049 -0.021182,-0.02591 -0.021182,-0.05094 0,-0.02353 -0.00554,-0.04279 -0.012314,-0.04279 -0.00677,0 -0.016381,-0.02541 -0.021343,-0.05647 -0.00497,-0.03106 -0.015313,-0.05647 -0.02298,-0.05647 -0.00766,0 -0.013951,-0.0186 -0.013951,-0.04134 0,-0.022742 -0.00902,-0.050355 -0.020032,-0.061371 C 6.303574,9.9414225 6.292458,9.9139545 6.289883,9.8914185 6.287193,9.8679555 6.277672,9.8519535 6.267556,9.8539695 6.256177,9.8560395 6.249904,9.8402835 6.249904,9.8090935 c 0,-0.02662 -0.00953,-0.057946 -0.02118,-0.069581 -0.011648,-0.011651 -0.021182,-0.037506 -0.021182,-0.05749 0,-0.022859 -0.00787,-0.036303 -0.021182,-0.036303 -0.0152,0 -0.02118,-0.015522 -0.02118,-0.054958 0,-0.035833 -0.00739,-0.057791 -0.021182,-0.063089 -0.013846,-0.00533 -0.021182,-0.027308 -0.021182,-0.063535 0,-0.036225 -0.00734,-0.05822 -0.02118,-0.063534 -0.01388,-0.00534 -0.021182,-0.027341 -0.021182,-0.063868 0,-0.030657 -0.00732,-0.058179 -0.016248,-0.061159 -0.00895,-0.00301 -0.01926,-0.041612 -0.022932,-0.085873 -0.00368,-0.044259 -0.012237,-0.080469 -0.019045,-0.080469 -0.0068,0 -0.012424,-0.027 -0.012489,-0.060003 -1.804e-4,-0.092 -0.016578,-0.2083499 -0.028338,-0.201084 -0.00579,0.00358 -0.013348,-0.032753 -0.016821,-0.080727 -0.00354,-0.048931 -0.013576,-0.089645 -0.022864,-0.09274 -0.00926,-0.00309 -0.016547,-0.032505 -0.016547,-0.066865 0,-0.035708 -0.00885,-0.0702 -0.021172,-0.082528 -0.014823,-0.014867 -0.02117,-0.051135 -0.02117,-0.1210559 0,-0.079332 -0.00437,-0.099838 -0.021172,-0.099838 -0.016274,0 -0.021182,-0.018089 -0.021182,-0.078096 0,-0.056396 -0.0059,-0.080355 -0.02118,-0.086221 -0.017937,-0.00695 -0.021203,-0.05479 -0.021203,-0.3102419 0,-0.2781605 0.00191,-0.3020551 0.024708,-0.3022542 0.021114,-1.87e-4 0.021625,-0.00218 0.00354,-0.013906 C 5.812221,7.5045545 5.811044,7.4999175 5.822799,7.4997685 5.836291,7.4996033 5.840453,7.4366755 5.840453,7.2328097 5.840453,7.019859 5.844343,6.96457 5.859812,6.9586388 5.874114,6.9531588 5.879842,6.9154218 5.88172,6.8141973 5.88356,6.7161823 5.8901,6.6713677 5.904712,6.6567448 5.91823,6.6432268 5.92515,6.6061598 5.92515,6.5472707 c 0,-0.056525 0.00681,-0.094682 0.018636,-0.1045019 0.010257,-0.0085 0.020158,-0.048853 0.02202,-0.089659 0.00184,-0.040806 0.00984,-0.07818 0.017727,-0.083056 0.00788,-0.00489 0.017882,-0.035195 0.022196,-0.067373 0.00431,-0.03218 0.012531,-0.05851 0.018251,-0.05851 0.00572,0 0.013932,-0.026326 0.018254,-0.05851 0.00431,-0.032179 0.013762,-0.06236 0.021001,-0.067064 0.00725,-0.00472 0.017534,-0.03238 0.022883,-0.061497 0.00535,-0.029119 0.015799,-0.052948 0.023217,-0.052948 0.00743,0 0.013566,-0.033352 0.013673,-0.07412 2.313e-4,-0.08776 0.012261,-0.1403517 0.029651,-0.1296049 0.00687,0.00427 0.012513,-0.011174 0.012513,-0.034279 0,-0.023105 -0.00766,-0.04457 -0.017042,-0.047696 C 6.1376474,5.6150069 6.1288337,5.5735304 6.125321,5.5114358 6.121118,5.4371471 6.1143563,5.41005 6.1000076,5.41005 c -0.012352,0 -0.019588,-0.015653 -0.019588,-0.042355 0,-0.023294 -0.00624,-0.042356 -0.013851,-0.042356 -0.00762,0 -0.017835,-0.015889 -0.022707,-0.035298 -0.00489,-0.019412 -0.014519,-0.035297 -0.021447,-0.035297 -0.00694,0 -0.012594,-0.00973 -0.012594,-0.02162 0,-0.011894 -0.00895,-0.025056 -0.019907,-0.029261 C 5.9789626,5.199663 5.9661426,5.180802 5.9614056,5.161949 5.9566856,5.1431 5.9465676,5.127675 5.9389526,5.127675 c -0.00762,0 -0.013854,-0.00953 -0.013854,-0.021182 0,-0.011648 -0.00953,-0.021182 -0.02118,-0.021182 -0.011648,0 -0.021174,-0.00953 -0.021174,-0.021182 0,-0.011648 -0.00953,-0.02118 -0.021182,-0.02118 -0.011648,0 -0.021182,-0.00953 -0.021182,-0.021182 0,-0.011648 -0.00953,-0.021182 -0.02118,-0.021182 -0.011648,0 -0.021174,-0.00953 -0.021174,-0.021177 0,-0.011648 -0.00717,-0.02118 -0.01598,-0.02118 -0.013843,0 -0.060084,-0.045178 -0.1216743,-0.1188767 -0.025737,-0.0308 -0.023105,-0.1211392 0.00354,-0.1211392 0.011648,0 0.019697,-0.00477 0.017903,-0.010588 -0.00502,-0.01625 0.049583,-0.074121 0.069948,-0.074121 0.00992,0 0.018037,-0.00566 0.018037,-0.012594 0,-0.00694 0.015889,-0.01657 0.035297,-0.021447 0.019415,-0.00489 0.035298,-0.015088 0.035298,-0.022707 0,-0.00761 0.016088,-0.013851 0.035739,-0.013851 0.019658,0 0.039397,-0.00953 0.043867,-0.021182 0.00503,-0.01312 0.026518,-0.02118 0.056474,-0.02118 0.029949,0 0.051442,-0.00804 0.056475,-0.021182 0.00465,-0.012143 0.025737,-0.02118 0.049415,-0.02118 0.023681,0 0.044756,-0.00904 0.049415,-0.021182 0.00707,-0.01844 0.101641,-0.021182 0.7325444,-0.021182 0.5669847,0 0.7256969,0.00383 0.7303014,0.017654 0.00409,0.012237 0.041961,0.017654 0.1235375,0.017654 0.081574,0 0.1194584,-0.00541 0.123537,-0.017654 0.00455,-0.013658 0.1143701,-0.017654 0.4855705,-0.017654 0.2814494,0 0.4764349,0.00526 0.4718169,0.012738 -0.00431,0.007 0.030758,0.017222 0.077979,0.022696 0.097616,0.011334 0.2670725,-0.00289 0.2670725,-0.02244 0,-0.00757 0.1572154,-0.013081 0.3776713,-0.013186 0.3735579,-1.873e-4 0.4482021,-0.00532 0.4331541,-0.029652 -0.00441,-0.00705 0.082314,-0.012518 0.1986531,-0.012518 0.114921,0 0.202989,0.00549 0.198721,0.012398 -0.01458,0.023582 0.08167,0.029955 0.452497,0.029955 0.321589,0 0.372376,0.00289 0.372376,0.02118 0,0.011648 0.0096,0.021174 0.02116,0.021174 0.01166,0 0.02116,0.00953 0.02116,0.021182 0,0.011648 0.0096,0.021174 0.0212,0.021174 0.014,0 0.02116,0.01401 0.02116,0.041347 0,0.022738 -0.0095,0.050879 -0.02116,0.062524 -0.01165,0.011648 -0.0212,0.02798 -0.0212,0.036304 0,0.00832 -0.0095,0.015126 -0.02116,0.015126 -0.01165,0 -0.02116,0.00953 -0.02116,0.021182 0,0.01165 -0.0095,0.021182 -0.0212,0.021182 -0.01165,0 -0.02116,0.00953 -0.02116,0.021182 0,0.011648 -0.0095,0.02118 -0.0212,0.02118 -0.01165,0 -0.02118,0.00953 -0.02118,0.021182 0,0.011648 -0.0096,0.021182 -0.0212,0.021182 -0.01165,0 -0.02118,0.00953 -0.02118,0.021182 0,0.011648 -0.0096,0.02118 -0.02116,0.02118 -0.01166,0 -0.02116,0.00724 -0.02116,0.016025 0,0.00882 -0.01515,0.030061 -0.03365,0.047212 -0.0185,0.017149 -0.038,0.04488 -0.04331,0.061624 -0.0053,0.016745 -0.0156,0.030443 -0.02284,0.030443 -0.0073,0 -0.01316,0.00953 -0.01316,0.021182 0,0.011648 -0.0096,0.021182 -0.02116,0.021182 -0.01166,0 -0.02118,0.00973 -0.02118,0.02162 0,0.011894 -0.0095,0.025282 -0.02116,0.029746 -0.01166,0.00447 -0.0212,0.023332 -0.0212,0.041912 0,0.020616 -0.0084,0.033786 -0.0212,0.033786 -0.01291,0 -0.02116,0.01317 -0.02116,0.033789 0,0.018581 -0.0095,0.037442 -0.0212,0.041914 -0.01398,0.00536 -0.02116,0.027475 -0.02116,0.065045 0,0.031306 -0.0064,0.056917 -0.01413,0.056917 -0.0077,0 -0.01412,0.00953 -0.01412,0.021182 0,0.011648 0.0065,0.021182 0.01412,0.021182 0.0077,0 0.01413,0.028589 0.01413,0.063533 0,0.047063 0.0054,0.063534 0.02116,0.063534 0.01325,0 0.0212,0.013382 0.0212,0.03574 0,0.019655 0.0096,0.039397 0.02116,0.043868 0.01166,0.00447 0.0212,0.023331 0.0212,0.041914 0,0.020616 0.0084,0.033785 0.0212,0.033785 0.01165,0 0.02116,0.00998 0.02116,0.022196 0,0.0122 0.0096,0.031717 0.02118,0.043365 0.01165,0.011648 0.02116,0.037062 0.02116,0.056474 0,0.019412 0.0095,0.044825 0.02119,0.056472 0.01165,0.011648 0.02116,0.042961 0.02116,0.069584 0,0.026623 0.0059,0.048404 0.01309,0.048404 0.0071,0 0.01747,0.034943 0.02281,0.077652 0.0054,0.042709 0.01533,0.077652 0.02219,0.077652 0.007,0 0.01248,0.018605 0.01248,0.041348 0,0.022741 0.0095,0.05088 0.0212,0.062524 0.01254,0.012549 0.0212,0.047063 0.0212,0.084712 0,0.03765 0.0086,0.072161 0.0212,0.084714 0.01587,0.015871 0.02116,0.055016 0.02116,0.1563123 0,0.1107075 0.0039,0.1351356 0.02116,0.1351356 0.01694,0 0.0212,0.021182 0.0212,0.1058885 0,0.068002 0.0057,0.1058891 0.01564,0.1058891 0.0086,0 0.01184,0.00985 0.0073,0.021902 -0.0049,0.012559 -0.0024,0.01823 0.0055,0.013279 0.0086,-0.00535 0.01397,0.026837 0.01397,0.084811 0,0.051388 0.0056,0.089956 0.01253,0.085702 0.01731,-0.0107 0.02942,0.041741 0.02965,0.1284285 1.36e-4,0.045664 0.0068,0.075142 0.01785,0.078818 0.01315,0.00437 0.01885,0.080275 0.02243,0.2977242 0.0029,0.1706897 0.0101,0.2885507 0.01764,0.2839011 0.0074,-0.00463 0.01287,0.065958 0.01287,0.1685325 0,0.1024252 -0.0059,0.1801429 -0.01412,0.1852071 -0.0084,0.00515 -0.01412,0.089285 -0.01412,0.2047195 0,0.1154325 0.0059,0.1995794 0.01412,0.2047193 0.0082,0.00512 0.01412,0.087488 0.01412,0.1993261 0,0.1234711 -0.005,0.1875267 -0.01412,0.1818745 -0.009,-0.0055 -0.01412,0.027752 -0.01412,0.089928 0,0.068866 -0.0065,0.10505 -0.02116,0.119833 -0.01188,0.011892 -0.0212,0.046389 -0.0212,0.078663 0,0.041684 -0.0059,0.057481 -0.02116,0.057481 -0.01629,0 -0.0212,0.018089 -0.0212,0.078096 0,0.056394 -0.0059,0.080354 -0.02119,0.086221 -0.01724,0.00658 -0.0212,0.040425 -0.0212,0.1815864 0,0.1411625 -0.0039,0.1749746 -0.02116,0.1815887 -0.016,0.00603 -0.0212,0.03204 -0.0212,0.1062235 0,0.0606 -0.0061,0.100135 -0.01602,0.103436 -0.0103,0.0032 -0.01861,0.0684 -0.02325,0.18073 -0.005,0.120429 -0.01322,0.18138 -0.02633,0.194505 -0.01051,0.01052 -0.01912,0.04091 -0.01912,0.06753 0,0.02663 -0.0062,0.04841 -0.01396,0.04841 -0.0077,0 -0.01802,0.0254 -0.02298,0.05648 -0.005,0.03106 -0.01458,0.05648 -0.02133,0.05648 -0.0067,0 -0.0123,0.0095 -0.0123,0.02116 0,0.01165 -0.0096,0.02115 -0.02116,0.02115 -0.01166,0 -0.02116,0.01223 -0.02116,0.02722 0,0.01499 -0.0086,0.03591 -0.01931,0.04653 -0.01062,0.01062 -0.02377,0.03332 -0.02919,0.05044 -0.0054,0.01712 -0.01582,0.03109 -0.02305,0.03109 -0.0073,0 -0.01315,0.01905 -0.01315,0.04234 0,0.02825 -0.007,0.04234 -0.02116,0.04234 -0.01412,0 -0.02116,0.01412 -0.02116,0.04234 0,0.02825 -0.007,0.04234 -0.02116,0.04234 -0.01412,0 -0.02116,0.01414 -0.02116,0.04234 0,0.02328 -0.0061,0.04234 -0.01384,0.04234 -0.0076,0 -0.01822,0.0174 -0.02356,0.03868 -0.0053,0.02129 -0.01816,0.04712 -0.02848,0.05749 -0.01031,0.0103 -0.0188,0.02787 -0.0188,0.03896 0,0.01111 -0.0096,0.02018 -0.02119,0.02018 -0.01166,0 -0.02116,0.0096 -0.02116,0.02118 0,0.01165 -0.0065,0.02115 -0.01412,0.02115 -0.0078,0 -0.01414,0.0095 -0.01414,0.02119 0,0.01166 -0.0096,0.02115 -0.0212,0.02115 -0.01166,0 -0.02116,0.0096 -0.02116,0.02119 0,0.01166 -0.0096,0.02116 -0.02118,0.02116 -0.01165,0 -0.02119,0.0096 -0.02119,0.02115 0,0.01166 -0.0095,0.02116 -0.02118,0.02116 -0.01316,0 -0.02116,0.01334 -0.02116,0.03529 0,0.02196 -0.008,0.0353 -0.02116,0.0353 -0.01176,0 -0.02119,0.01255 -0.02119,0.02825 0,0.01569 -0.0094,0.02824 -0.02116,0.02824 -0.01316,0 -0.02119,0.01334 -0.02119,0.03529 0,0.02197 -0.008,0.0353 -0.0212,0.0353 -0.01166,0 -0.02116,0.0067 -0.02116,0.0148 0,0.008 -0.01589,0.02952 -0.0353,0.0475 -0.0194,0.018 -0.0353,0.03993 -0.0353,0.04874 0,0.0088 -0.0096,0.01603 -0.0212,0.01603 -0.01165,0 -0.02119,0.0096 -0.02119,0.02116 0,0.01165 -0.0095,0.02115 -0.02116,0.02115 -0.01166,0 -0.02119,0.0096 -0.02119,0.02119 0,0.01165 -0.0096,0.02115 -0.02116,0.02115 -0.01165,0 -0.02116,0.0095 -0.02116,0.02116 0,0.01165 -0.0071,0.02118 -0.01604,0.02118 -0.0088,0 -0.03076,0.01588 -0.04874,0.0353 -0.01799,0.0194 -0.03937,0.03529 -0.0475,0.03529 -0.00819,0 -0.014796,0.0095 -0.014796,0.02115 0,0.01165 -0.00955,0.02119 -0.021177,0.02119 -0.011655,0 -0.021159,0.0095 -0.021159,0.02116 0,0.01165 -0.00953,0.02116 -0.021186,0.02116 -0.011655,0 -0.021177,0.0095 -0.021177,0.02116 0,0.01316 -0.013338,0.0212 -0.035298,0.0212 -0.02196,0 -0.035296,0.008 -0.035296,0.02115 0,0.01166 -0.00953,0.0212 -0.021162,0.0212 -0.011645,0 -0.021162,0.0095 -0.021162,0.02115 0,0.01165 -0.00953,0.02116 -0.021177,0.02116 -0.011645,0 -0.021182,0.0095 -0.021182,0.02116 0,0.01165 -0.00953,0.02116 -0.021182,0.02116 -0.011645,0 -0.021182,0.0061 -0.021182,0.01411 0,0.0077 -0.00959,0.01412 -0.021318,0.01412 -0.011724,0 -0.032196,0.01273 -0.045494,0.02825 -0.013296,0.01553 -0.02998,0.02825 -0.037068,0.02825 -0.0071,0 -0.027613,0.01588 -0.045605,0.03529 -0.017956,0.01941 -0.045684,0.03529 -0.061583,0.03529 -0.016287,0 -0.028913,0.0093 -0.028913,0.02115 0,0.01412 -0.014121,0.02116 -0.042355,0.02116 -0.028243,0 -0.042356,0.007 -0.042356,0.02115 0,0.01165 -0.00953,0.02116 -0.02118,0.02116 -0.011648,0 -0.02118,-0.0096 -0.02118,-0.02116 z M 8.6148715,8.6856022 c -0.00481,-0.00778 -0.033764,-0.014121 -0.064368,-0.014121 -0.040046,0 -0.055642,-0.0059 -0.055642,-0.021182 0,-0.011648 -0.00953,-0.02118 -0.021182,-0.02118 -0.011651,0 -0.02118,-0.00953 -0.02118,-0.02118 0,-0.011648 -0.00953,-0.021182 -0.021182,-0.021182 -0.011648,0 -0.021182,-0.00953 -0.021182,-0.02118 0,-0.011651 -0.00953,-0.02118 -0.021182,-0.02118 -0.013172,0 -0.02118,-0.013333 -0.02118,-0.035297 0,-0.02196 -0.008,-0.035298 -0.021182,-0.035298 -0.011768,0 -0.021182,-0.01255 -0.021182,-0.028237 0,-0.015529 -0.0059,-0.028243 -0.013164,-0.028243 -0.00724,0 -0.017609,-0.013998 -0.023039,-0.031109 -0.00543,-0.01711 -0.018563,-0.039799 -0.029185,-0.050422 -0.010622,-0.010622 -0.019318,-0.031567 -0.019318,-0.046544 0,-0.014975 -0.00953,-0.027228 -0.021182,-0.027228 -0.013175,0 -0.021182,-0.013335 -0.021182,-0.035298 0,-0.019412 -0.00624,-0.035297 -0.013854,-0.035297 -0.00761,0 -0.01813,-0.017465 -0.023351,-0.038826 -0.00524,-0.021352 -0.016467,-0.043374 -0.024978,-0.048934 -0.019364,-0.012654 -0.016929,-0.5616206 0.00254,-0.5742913 0.00724,-0.00473 0.016596,-0.039543 0.02075,-0.077389 0.00418,-0.037847 0.014102,-0.072851 0.022102,-0.077794 0.00799,-0.00492 0.018906,-0.026389 0.02425,-0.047669 0.00534,-0.021277 0.015381,-0.038685 0.022293,-0.038685 0.00694,0 0.012594,-0.00953 0.012594,-0.02118 0,-0.011651 0.00953,-0.021182 0.021182,-0.021182 0.011648,0 0.021182,-0.00953 0.021182,-0.021182 0,-0.012928 0.013167,-0.021182 0.033787,-0.021182 0.018584,0 0.037442,-0.00953 0.041911,-0.02118 0.00447,-0.011648 0.015134,-0.021182 0.023694,-0.021182 0.00856,0 0.025101,-0.00953 0.036747,-0.021182 0.013629,-0.013623 0.048519,-0.02118 0.097821,-0.02118 0.05179,0 0.076714,-0.00572 0.076858,-0.017652 1.566e-4,-0.012929 0.00347,-0.012496 0.012413,0.00162 0.010291,0.016245 0.013563,0.016245 0.02096,0 0.00679,-0.014901 0.010626,-0.01526 0.017002,-0.00162 0.00476,0.010218 0.034511,0.017652 0.070593,0.017652 0.049894,0 0.062401,0.00492 0.062576,0.024705 1.844e-4,0.021114 0.00218,0.021625 0.013906,0.00354 0.00913,-0.014118 0.013757,-0.015295 0.013906,-0.00354 1.126e-4,0.00971 0.00994,0.017652 0.021835,0.017652 0.011892,0 0.025279,0.00953 0.029746,0.021182 0.00447,0.011648 0.020357,0.021182 0.035298,0.021182 0.014944,0 0.03083,0.00953 0.035298,0.02118 0.00447,0.011648 0.016978,0.021182 0.027798,0.021182 0.010818,0 0.019671,0.00953 0.019671,0.021182 0,0.011648 0.00953,0.021182 0.02118,0.021182 0.013172,0 0.021182,0.013333 0.021182,0.035298 0,0.02196 0.008,0.035298 0.02118,0.035298 0.011651,0 0.02118,0.00885 0.02118,0.019669 0,0.010818 0.00953,0.023325 0.021182,0.027792 0.011651,0.00446 0.02118,0.017861 0.02118,0.029746 0,0.011892 0.00624,0.021617 0.013856,0.021617 0.00762,0 0.017837,0.015889 0.022712,0.035298 0.00486,0.019415 0.01383,0.035298 0.019914,0.035298 0.00608,0 0.015425,0.017402 0.02076,0.038686 0.00534,0.021277 0.014755,0.041926 0.020923,0.045884 0.00618,0.00396 0.015043,0.038917 0.019729,0.077683 0.00468,0.038766 0.015016,0.07265 0.022969,0.0753 0.019205,0.00639 0.019205,0.2526642 0,0.2590632 -0.00796,0.00266 -0.018256,0.036531 -0.022911,0.075299 -0.00464,0.038766 -0.014029,0.072601 -0.020839,0.075187 -0.00682,0.00262 -0.012389,0.019799 -0.012389,0.038246 0,0.044123 -0.044623,0.1327402 -0.067064,0.1331821 -0.00971,1.927e-4 -0.017652,0.016234 -0.017652,0.035645 0,0.02196 -0.008,0.035298 -0.02118,0.035298 -0.011651,0 -0.02118,0.00953 -0.02118,0.021182 0,0.011648 -0.00953,0.021182 -0.021182,0.021182 -0.011651,0 -0.02118,0.00953 -0.02118,0.021182 0,0.011651 -0.00953,0.02118 -0.021182,0.02118 -0.011651,0 -0.02118,0.00953 -0.02118,0.02118 0,0.011648 -0.00885,0.021182 -0.019671,0.021182 -0.010818,0 -0.023325,0.00953 -0.027795,0.02118 -0.00446,0.011648 -0.021033,0.02118 -0.036806,0.02118 -0.01608,0 -0.028685,0.0093 -0.028685,0.02118 0,0.014121 -0.014118,0.021182 -0.042356,0.021182 -0.02824,0 -0.042355,0.00706 -0.042355,0.02118 0,0.016035 -0.017353,0.021182 -0.071427,0.021182 -0.044021,0 -0.068078,0.00542 -0.062699,0.014118 0.0048,0.00778 0.00236,0.014118 -0.00538,0.014118 -0.00778,0 -0.01804,-0.00637 -0.022846,-0.014118 z"
     id="path1-6" />
  <rect
     style="opacity:0.3;fill:none;fill-opacity:0.996424;stroke:#000000;stroke-width:0.955221;stroke-dasharray:none;stroke-opacity:1;filter:url(#filter5421-3)"
     id="rect1-2-7-5"
     width="13.687567"
     height="13.591975"
     x="1.6227165"
     y="1.6705122"
     rx="2.8442214"
     ry="2.965905"
     transform="matrix(0.43046721,0,0,0.43046721,9.5627021,9.5627021)" />
  <rect
     style="fill:none;fill-opacity:1;stroke:{{colors.primary.default.hex}};stroke-width:0.411191;stroke-dasharray:none;stroke-opacity:1"
     id="rect1-2-3"
     width="5.8920484"
     height="5.8508992"
     x="10.261228"
     y="10.281802"
     rx="1.224344"
     ry="1.2767248" />
  <path
     id="path1"
     style="fill:{{colors.primary.default.hex}};fill-opacity:1;stroke:none;stroke-width:0.0587368;stroke-dasharray:none;stroke-dashoffset:2.2;stroke-opacity:0.6"
     d="m 14.168922,11.656658 c -0.06055,-2.6e-5 -0.125364,0.02435 -0.206481,0.07188 -0.193027,0.1131 -0.445472,0.166438 -0.792145,0.166438 -0.346641,0 -0.607506,-0.05448 -0.799384,-0.16692 -0.153862,-0.09017 -0.245719,-0.09136 -0.374847,-0.0043 -0.331514,0.223407 -0.581361,0.939687 -0.654655,1.875683 -0.04395,0.561277 -0.0029,0.857184 0.142315,1.023712 0.07004,0.08029 0.241969,0.06668 0.397039,-0.03184 0.13145,-0.08351 0.288072,-0.267793 0.475192,-0.559138 0.16909,-0.263274 0.373614,-0.349984 0.825918,-0.350725 0.451405,-6.81e-4 0.628801,0.08471 0.837013,0.404757 0.349331,0.536972 0.672221,0.723915 0.861617,0.498829 0.104925,-0.124694 0.12413,-0.24517 0.119159,-0.746797 -0.0091,-0.911235 -0.247248,-1.740202 -0.590491,-2.056592 -0.09141,-0.08427 -0.162394,-0.124918 -0.24025,-0.124951 z M 12.207851,12.1936 h 0.209374 0.209373 v 0.179464 0.179463 h 0.179465 0.179462 v 0.22433 0.224328 h -0.179462 -0.179465 v 0.194419 0.194419 h -0.189593 c -0.104158,0 -0.197928,-0.0093 -0.208892,-0.02026 -0.01096,-0.01096 -0.02025,-0.098 -0.02025,-0.193935 v -0.174644 h -0.179466 -0.179465 v -0.224328 -0.224329 h 0.179465 0.179463 v -0.179465 z m 1.706832,0 c 0.188883,0 0.269773,0.209278 0.133633,0.345419 -0.08658,0.08657 -0.165598,0.09337 -0.250863,0.02123 -0.147895,-0.125144 -0.0707,-0.366645 0.11723,-0.366645 z m -0.363268,0.383531 c 0.04717,3.2e-5 0.09465,0.01883 0.132184,0.0603 0.05851,0.06466 0.06483,0.212666 0.01207,0.281737 -0.103261,0.135182 -0.351207,0.04823 -0.351207,-0.123018 0,-0.12997 0.103198,-0.219094 0.206961,-0.219022 z m 0.741493,0.0073 c 0.05436,9.9e-4 0.10714,0.019 0.137972,0.05306 0.05851,0.06466 0.06482,0.212666 0.01206,0.281738 -0.109832,0.143783 -0.351209,0.04755 -0.351209,-0.139905 0,-0.05682 0.02277,-0.118403 0.05451,-0.14714 0.03629,-0.03285 0.0923,-0.04875 0.14666,-0.04775 z m -0.365199,0.386906 c 0.167454,0 0.248932,0.177621 0.147622,0.322262 -0.03463,0.04945 -0.07687,0.06657 -0.164026,0.06657 -0.100342,0 -0.123628,-0.01306 -0.164024,-0.09118 -0.07966,-0.154035 0.0073,-0.297659 0.180428,-0.297659 z" />
</svg>
