<?xml version="1.0" encoding="UTF-8" standalone="no"?>
<svg
   width="64"
   height="64"
   version="1.1"
   viewBox="0 0 16.933 16.933"
   id="svg7"
   sodipodi:docname="com.warlordsoftwares.formatlab.svg"
   inkscape:version="1.4.3 (0d15f75042, 2025-12-25)"
   xmlns:inkscape="http://www.inkscape.org/namespaces/inkscape"
   xmlns:sodipodi="http://sodipodi.sourceforge.net/DTD/sodipodi-0.dtd"
   xmlns="http://www.w3.org/2000/svg"
   xmlns:svg="http://www.w3.org/2000/svg"
   xmlns:rdf="http://www.w3.org/1999/02/22-rdf-syntax-ns#"
   xmlns:cc="http://creativecommons.org/ns#"
   xmlns:dc="http://purl.org/dc/elements/1.1/">
  <sodipodi:namedview
     id="namedview7"
     pagecolor="#9c4444"
     bordercolor="#000000"
     borderopacity="0.25"
     inkscape:showpageshadow="2"
     inkscape:pageopacity="0.0"
     inkscape:pagecheckerboard="0"
     inkscape:deskcolor="#d1d1d1"
     inkscape:zoom="4.3531261"
     inkscape:cx="42.957635"
     inkscape:cy="45.254834"
     inkscape:window-width="1226"
     inkscape:window-height="669"
     inkscape:window-x="314"
     inkscape:window-y="198"
     inkscape:window-maximized="0"
     inkscape:current-layer="svg7"
     showgrid="false" />
  <defs
     id="defs2">
    <filter
       style="color-interpolation-filters:sRGB;"
       inkscape:label="Blur"
       id="filter5421"
       x="-0.12256455"
       y="-0.12342654"
       width="1.2451291"
       height="1.2468531">
      <feGaussianBlur
         stdDeviation="0.5 0.5"
         result="blur"
         id="feGaussianBlur5419" />
    </filter>
    <filter
       style="color-interpolation-filters:sRGB"
       inkscape:label="Blur"
       id="filter5421-3"
       x="-0.12256455"
       y="-0.12342654"
       width="1.2451291"
       height="1.2468531">
      <feGaussianBlur
         stdDeviation="0.5 0.5"
         result="blur"
         id="feGaussianBlur5419-6" />
    </filter>
  </defs>
  <metadata
     id="metadata2">
    <rdf:RDF>
      <cc:Work
         rdf:about="">
        <dc:format>image/svg+xml</dc:format>
        <dc:type
           rdf:resource="http://purl.org/dc/dcmitype/StillImage" />
      </cc:Work>
    </rdf:RDF>
  </metadata>
  <rect
     style="opacity:0.3;fill:none;fill-opacity:0.996424;stroke:#000000;stroke-width:0.955221;stroke-dasharray:none;stroke-opacity:1;filter:url(#filter5421)"
     id="rect1-2-7"
     width="13.687567"
     height="13.591975"
     x="1.6227165"
     y="1.6705122"
     rx="2.8442214"
     ry="2.965905" />
  <rect
     style="fill:none;fill-opacity:1;stroke:{{colors.primary.default.hex}};stroke-width:0.955221;stroke-dasharray:none;stroke-opacity:1"
     id="rect1-2"
     width="13.687567"
     height="13.591975"
     x="1.6227167"
     y="1.6705124"
     rx="2.8442214"
     ry="2.965905" />
  <path
     fill="#000000"
     d="M 6.9635933,5.8602762 C 6.930868,5.6084857 6.4735069,5.3312384 6.2490515,5.3312384 c -0.044167,0 -0.079293,0.010644 -0.1003852,0.034325 -0.3792502,0.424027 0.2473562,1.4130515 0.2473562,1.4130515 0,0 0.621581,-0.5005375 0.5675708,-0.9183387 z m 2.2402379,1.0524417 c 0,0 0.5966977,-0.9422316 0.2355143,-1.3451999 -0.020086,-0.022467 -0.053609,-0.032692 -0.095569,-0.032692 -0.2140217,0 -0.6495082,0.2640146 -0.6806338,0.5039284 -0.051593,0.3961176 0.540688,0.8739631 0.5406885,0.8739635 z M 8.2696337,6.0371552 C 8.2385083,5.7972243 7.8028307,5.5332273 7.5890353,5.5332273 c -0.041976,0 -0.07552,0.010227 -0.095587,0.032691 -0.3613746,0.4037681 0.2355142,1.3452003 0.2355142,1.3452003 0,0 0.5922636,-0.4762281 0.5406884,-0.8739629 z M 5.0257478,5.0391064 a 0.28771558,0.28771558 0 0 0 -0.028935,0.0014 C 3.4709427,5.19591 5.194576,10.014685 5.7019301,10.335127 c 0,0 -0.2953321,-2.6367731 0.048601,-4.2469785 C 5.8763916,5.495072 5.3330954,5.0391194 5.025713,5.0391194 Z m 6.9102162,0.0014 a 0.2863071,0.28630708 0 0 0 -0.02892,-0.0014 c -0.307401,0 -0.851498,0.455552 -0.724803,1.0490329 0.343916,1.6102054 0.04858,4.2469787 0.04858,4.2469787 0.508154,-0.320234 2.231195,-5.1390083 0.705116,-5.2946031 z m -1.252222,0.2907294 c -0.224664,0 -0.68265,0.2772649 -0.714576,0.529038 -0.054011,0.4168105 0.56778,0.9185304 0.56778,0.9185304 0,0 0.626415,-0.9892156 0.247356,-1.4130166 -0.02128,-0.0239 -0.05641,-0.034544 -0.10058,-0.034544 z M 8.1049792,11.399586 c -0.035334,-0.197712 -0.4451193,-0.61475 -0.4451193,-0.61475 0,0 -0.3571666,0.416811 -0.3533412,0.586475 0,0.03733 -0.020085,0.401541 0.0353,0.452108 0.05001,0.04599 0.2232726,0.0703 0.3933356,0.0703 0.1646371,0 0.3260403,-0.02269 0.3698256,-0.07029 0.040168,-0.04294 0.00582,-0.395299 0,-0.423816 z M 7.0609538,10.976167 C 6.8511573,10.616392 6.7278708,10.089164 6.659411,9.6940359 6.6056098,9.3816279 6.586552,9.1519563 6.586552,9.1519563 6.3235107,9.3573186 5.8163655,11.545963 6.6307191,11.545963 a 0.5220127,0.5220127 0 0 0 0.086109,-0.0075 c 0.080337,-0.01325 0.1818874,-0.07469 0.2610063,-0.160602 0.1032034,-0.11181 0.1644286,-0.26379 0.083118,-0.401735 z M 10.344834,9.1515545 c 0,0 -0.01749,0.2091876 -0.06568,0.49972 -0.06625,0.3993345 -0.19093,0.9518655 -0.4083761,1.3250995 -0.065452,0.112435 -0.037143,0.233305 0.030326,0.334492 0.080302,0.119286 0.2140211,0.211013 0.3136081,0.227479 a 0.5238211,0.5238211 0 0 0 0.08613,0.0075 c 0.815743,-7.98e-4 0.307382,-2.1894269 0.04457,-2.3950325 z M 9.6248326,11.372108 c 0.00382,-0.169661 -0.3533413,-0.586456 -0.3533413,-0.586456 0,0 -0.409194,0.416203 -0.4437281,0.613947 -0.00441,0.02512 -0.044568,0.37546 0,0.424046 0.044585,0.04858 0.2053966,0.07025 0.3698258,0.07025 0.1700627,0 0.3433246,-0.02428 0.393335,-0.07025 C 9.667209,11.752555 9.625041,11.38395 9.62544,11.3715 Z m -2.4992272,0.09557 0.00422,0.002 v -0.0077 z"
     class="cls-2"
     id="path1-3-0"
     style="fill:{{colors.primary.default.hex}};fill-opacity:1;stroke-width:0.0173888" />
  <rect
     style="opacity:0.3;fill:none;fill-opacity:0.996424;stroke:#000000;stroke-width:0.955221;stroke-dasharray:none;stroke-opacity:1;filter:url(#filter5421-3)"
     id="rect1-2-7-5"
     width="13.687567"
     height="13.591975"
     x="1.6227165"
     y="1.6705122"
     rx="2.8442214"
     ry="2.965905"
     transform="matrix(0.43046721,0,0,0.43046721,9.5627021,9.5627021)" />
  <rect
     style="fill:none;fill-opacity:1;stroke:{{colors.primary.default.hex}};stroke-width:0.411191;stroke-dasharray:none;stroke-opacity:1"
     id="rect1-2-3"
     width="5.8920484"
     height="5.8508992"
     x="10.261228"
     y="10.281802"
     rx="1.224344"
     ry="1.2767248" />
  <path
     id="path1"
     style="fill:{{colors.primary.default.hex}};fill-opacity:1;stroke:none;stroke-width:0.0587368;stroke-dasharray:none;stroke-dashoffset:2.2;stroke-opacity:0.6"
     d="m 14.168922,11.656658 c -0.06055,-2.6e-5 -0.125364,0.02435 -0.206481,0.07188 -0.193027,0.1131 -0.445472,0.166438 -0.792145,0.166438 -0.346641,0 -0.607506,-0.05448 -0.799384,-0.16692 -0.153862,-0.09017 -0.245719,-0.09136 -0.374847,-0.0043 -0.331514,0.223407 -0.581361,0.939687 -0.654655,1.875683 -0.04395,0.561277 -0.0029,0.857184 0.142315,1.023712 0.07004,0.08029 0.241969,0.06668 0.397039,-0.03184 0.13145,-0.08351 0.288072,-0.267793 0.475192,-0.559138 0.16909,-0.263274 0.373614,-0.349984 0.825918,-0.350725 0.451405,-6.81e-4 0.628801,0.08471 0.837013,0.404757 0.349331,0.536972 0.672221,0.723915 0.861617,0.498829 0.104925,-0.124694 0.12413,-0.24517 0.119159,-0.746797 -0.0091,-0.911235 -0.247248,-1.740202 -0.590491,-2.056592 -0.09141,-0.08427 -0.162394,-0.124918 -0.24025,-0.124951 z M 12.207851,12.1936 h 0.209374 0.209373 v 0.179464 0.179463 h 0.179465 0.179462 v 0.22433 0.224328 h -0.179462 -0.179465 v 0.194419 0.194419 h -0.189593 c -0.104158,0 -0.197928,-0.0093 -0.208892,-0.02026 -0.01096,-0.01096 -0.02025,-0.098 -0.02025,-0.193935 v -0.174644 h -0.179466 -0.179465 v -0.224328 -0.224329 h 0.179465 0.179463 v -0.179465 z m 1.706832,0 c 0.188883,0 0.269773,0.209278 0.133633,0.345419 -0.08658,0.08657 -0.165598,0.09337 -0.250863,0.02123 -0.147895,-0.125144 -0.0707,-0.366645 0.11723,-0.366645 z m -0.363268,0.383531 c 0.04717,3.2e-5 0.09465,0.01883 0.132184,0.0603 0.05851,0.06466 0.06483,0.212666 0.01207,0.281737 -0.103261,0.135182 -0.351207,0.04823 -0.351207,-0.123018 0,-0.12997 0.103198,-0.219094 0.206961,-0.219022 z m 0.741493,0.0073 c 0.05436,9.9e-4 0.10714,0.019 0.137972,0.05306 0.05851,0.06466 0.06482,0.212666 0.01206,0.281738 -0.109832,0.143783 -0.351209,0.04755 -0.351209,-0.139905 0,-0.05682 0.02277,-0.118403 0.05451,-0.14714 0.03629,-0.03285 0.0923,-0.04875 0.14666,-0.04775 z m -0.365199,0.386906 c 0.167454,0 0.248932,0.177621 0.147622,0.322262 -0.03463,0.04945 -0.07687,0.06657 -0.164026,0.06657 -0.100342,0 -0.123628,-0.01306 -0.164024,-0.09118 -0.07966,-0.154035 0.0073,-0.297659 0.180428,-0.297659 z" />
</svg>
