<?xml version="1.0" encoding="UTF-8" standalone="no"?>
<svg
   width="64"
   height="64"
   version="1.1"
   viewBox="0 0 16.933 16.933"
   id="svg7"
   sodipodi:docname="abcd.svg"
   inkscape:version="1.4.3 (0d15f75042, 2025-12-25)"
   xmlns:inkscape="http://www.inkscape.org/namespaces/inkscape"
   xmlns:sodipodi="http://sodipodi.sourceforge.net/DTD/sodipodi-0.dtd"
   xmlns="http://www.w3.org/2000/svg"
   xmlns:svg="http://www.w3.org/2000/svg"
   xmlns:rdf="http://www.w3.org/1999/02/22-rdf-syntax-ns#"
   xmlns:cc="http://creativecommons.org/ns#"
   xmlns:dc="http://purl.org/dc/elements/1.1/">
  <sodipodi:namedview
     id="namedview7"
     pagecolor="#9c4444"
     bordercolor="#000000"
     borderopacity="0.25"
     inkscape:showpageshadow="2"
     inkscape:pageopacity="0.0"
     inkscape:pagecheckerboard="0"
     inkscape:deskcolor="#d1d1d1"
     inkscape:zoom="4.3531261"
     inkscape:cx="43.072494"
     inkscape:cy="45.254834"
     inkscape:window-width="1226"
     inkscape:window-height="669"
     inkscape:window-x="109"
     inkscape:window-y="119"
     inkscape:window-maximized="0"
     inkscape:current-layer="svg7"
     showgrid="false" />
  <defs
     id="defs2">
    <filter
       style="color-interpolation-filters:sRGB;"
       inkscape:label="Blur"
       id="filter5421"
       x="-0.12256455"
       y="-0.12342654"
       width="1.2451291"
       height="1.2468531">
      <feGaussianBlur
         stdDeviation="0.5 0.5"
         result="blur"
         id="feGaussianBlur5419" />
    </filter>
    <filter
       style="color-interpolation-filters:sRGB"
       inkscape:label="Blur"
       id="filter5421-3"
       x="-0.12256455"
       y="-0.12342654"
       width="1.2451291"
       height="1.2468531">
      <feGaussianBlur
         stdDeviation="0.5 0.5"
         result="blur"
         id="feGaussianBlur5419-6" />
    </filter>
  </defs>
  <metadata
     id="metadata2">
    <rdf:RDF>
      <cc:Work
         rdf:about="">
        <dc:format>image/svg+xml</dc:format>
        <dc:type
           rdf:resource="http://purl.org/dc/dcmitype/StillImage" />
      </cc:Work>
    </rdf:RDF>
  </metadata>
  <rect
     style="opacity:0.3;fill:none;fill-opacity:0.996424;stroke:#000000;stroke-width:0.955221;stroke-dasharray:none;stroke-opacity:1;filter:url(#filter5421)"
     id="rect1-2-7"
     width="13.687567"
     height="13.591975"
     x="1.6227165"
     y="1.6705122"
     rx="2.8442214"
     ry="2.965905" />
  <rect
     style="fill:none;fill-opacity:1;stroke:{{colors.primary.default.hex}};stroke-width:0.955221;stroke-dasharray:none;stroke-opacity:1"
     id="rect1-2"
     width="13.687567"
     height="13.591975"
     x="1.6227167"
     y="1.6705124"
     rx="2.8442214"
     ry="2.965905" />
  <path
     style="fill:{{colors.primary.default.hex}};fill-opacity:1;stroke:none;stroke-width:0.12036;stroke-dasharray:none;stroke-opacity:0.6"
     d="m 7.3726446,12.197376 c -0.027252,-0.664547 -0.028685,-0.654722 0.093699,-0.644094 l 0.055991,0.0048 -0.00451,0.483153 c -0.00472,0.506027 -0.00935,0.534019 -0.088203,0.534019 -0.040987,0 -0.041663,-0.0045 -0.056978,-0.377939 z m 0.6176165,0.311284 c -0.036246,-0.03623 -0.036429,-0.06206 -0.00167,-0.234633 0.015206,-0.07553 0.039299,-0.25258 0.05354,-0.393469 0.029967,-0.296492 0.052991,-0.350413 0.1496459,-0.350413 0.1140224,0 0.1503563,0.100128 0.1049767,0.289288 -0.00985,0.04108 -0.039747,0.196111 -0.066435,0.344557 -0.057471,0.319641 -0.080222,0.374 -0.156539,0.374 -0.029797,0 -0.067376,-0.01319 -0.083507,-0.02932 z m 1.4709084,0.0153 c -0.011837,-0.0079 -0.029976,-0.126915 -0.041951,-0.275266 -0.011596,-0.143709 -0.029509,-0.290632 -0.039798,-0.326491 -0.027049,-0.09428 -0.022969,-0.252417 0.00846,-0.327636 0.031328,-0.07497 0.09302,-0.105718 0.1552528,-0.07736 0.053359,0.02431 0.068902,0.08451 0.050659,0.196235 -0.021809,0.133559 -0.026702,0.194005 -0.041798,0.516387 -0.011389,0.243189 -0.019152,0.299309 -0.041972,0.303262 -0.015399,0.0026 -0.037383,-0.0015 -0.048856,-0.0091 z M 7.7194708,12.46449 c -0.040189,-0.04019 -0.04076,-0.05107 -0.04711,-0.899658 -7.858e-4,-0.113766 0.031423,-0.146891 0.1146129,-0.117633 0.08196,0.02883 0.089458,0.08196 0.063533,0.450263 -0.044573,0.633237 -0.048375,0.649691 -0.1310359,0.567028 z m 1.0555908,-0.0058 c -0.036888,-0.05824 -0.1263939,-0.537515 -0.1289397,-0.690442 -0.00239,-0.144231 0.041292,-0.228746 0.118256,-0.228746 0.037002,0 0.048614,0.01681 0.077399,0.11198 0.018621,0.06158 0.037882,0.153975 0.04279,0.205302 0.00491,0.05132 0.023244,0.20009 0.040754,0.330588 0.030697,0.22885 0.030606,0.238624 -0.00257,0.275293 -0.045601,0.05039 -0.1144184,0.04853 -0.1476809,-0.004 z m 0.3519595,0.02269 c -0.00655,-0.01065 -0.019967,-0.172308 -0.029794,-0.359294 -0.00983,-0.186988 -0.022576,-0.384309 -0.028335,-0.438495 -0.013246,-0.124635 0.01207,-0.161319 0.101318,-0.146833 0.1209002,0.01964 0.1403515,0.07702 0.090075,0.265828 -0.01816,0.0682 -0.022665,0.169196 -0.01592,0.35676 0.00895,0.248793 0.00745,0.263583 -0.030439,0.301475 -0.043945,0.04395 -0.068808,0.04983 -0.086903,0.02055 z m 0.5991493,-0.09735 c -0.00471,-0.0231 -0.013883,-0.07979 -0.020417,-0.125981 -0.00653,-0.0462 -0.019042,-0.12598 -0.027789,-0.177306 -0.00875,-0.05131 -0.016493,-0.160508 -0.017198,-0.242627 -9.99e-4,-0.11809 0.00645,-0.162124 0.036077,-0.210595 0.038242,-0.06271 0.084782,-0.09328 0.1074859,-0.07058 0.014477,0.01448 0.00962,0.483391 -0.00744,0.715099 -0.00827,0.111988 -0.018267,0.153976 -0.03676,0.153976 -0.013984,0 -0.02927,-0.0189 -0.033958,-0.04199 z M 7.1253511,11.982991 c 0.00451,-0.346314 0.00837,-0.38767 0.036626,-0.393099 0.088322,-0.01698 0.1289861,0.245961 0.083922,0.542628 -0.027755,0.1827 -0.050713,0.2375 -0.099504,0.2375 -0.021665,0 -0.025234,-0.06561 -0.021046,-0.387029 z M 8.3825263,11.4354 c -0.026573,-0.03158 -0.048585,-0.07149 -0.048913,-0.08866 -0.00129,-0.06907 -0.089668,-0.133883 -0.182532,-0.133883 -0.076342,0 -0.1004469,0.03613 -0.085684,0.128461 0.025465,0.159228 -0.062917,0.173514 -0.2444437,0.03951 -0.069529,-0.05131 -0.1376724,-0.09332 -0.1514302,-0.09332 -0.030146,0 -0.072998,0.06489 -0.089333,0.135313 -0.00654,0.02822 -0.019585,0.05131 -0.028966,0.05131 -0.00938,0 -0.047351,-0.03695 -0.084375,-0.08215 -0.037024,-0.04519 -0.087908,-0.08732 -0.1130746,-0.09363 -0.052519,-0.01318 -0.155027,0.02445 -0.1937359,0.07112 -0.037373,0.04506 -0.056998,0.0067 -0.057354,-0.111855 -4.19e-4,-0.139617 0.026175,-0.196356 0.1197861,-0.25558 0.095463,-0.0604 0.2096664,-0.181033 0.2353724,-0.248647 0.073586,-0.193545 -0.0998,-0.503847 -0.3180718,-0.569244 -0.2379886,-0.0713 -0.7003851,0.158537 -0.8259738,0.410563 l -0.044978,0.09025 -0.067162,-0.03445 C 6.0935763,10.595076 5.9085748,10.411774 5.812458,10.264904 5.7185308,10.121374 5.6330369,9.9201587 5.5818475,9.7221386 5.5521894,9.6074151 5.5523897,9.6017957 5.5874319,9.5634974 5.6974772,9.4432116 5.7488281,9.2410202 5.7345077,8.9843944 5.7218511,8.7575523 5.6740398,8.6064004 5.562195,8.4396099 L 5.4826723,8.3210201 5.6623676,8.1945193 C 5.9004701,8.0269022 6.2322983,7.6982228 6.3553586,7.5081062 6.4849918,7.3078356 6.4997262,7.2934728 6.575553,7.2934728 c 0.052498,0 0.085576,0.019417 0.1765409,0.1036362 0.3794941,0.3513435 0.7618899,0.5260212 1.2834994,0.5862986 0.097519,0.011264 0.1916503,0.024873 0.2091833,0.030228 0.048245,0.014744 0.1827557,0.193269 0.1827557,0.2425621 0,0.070873 -0.187214,0.4165104 -0.2788966,0.5149007 C 8.0459391,8.8813104 7.969338,8.9087418 7.8885782,8.8642271 7.8576508,8.847178 7.7642717,8.7744417 7.6810699,8.7025856 7.2849779,8.3605082 6.882137,8.1926099 6.5051658,8.2124871 c -0.1610627,0.00849 -0.3346806,0.066779 -0.414749,0.1392395 -0.01838,0.016628 -0.037192,0.026456 -0.041813,0.021835 -0.00749,-0.0075 0.083864,-0.084469 0.1859369,-0.1566462 0.03495,-0.024713 0.032872,-0.026433 -0.032662,-0.026989 -0.038494,-3.93e-4 -0.069989,-0.00577 -0.069989,-0.012091 0,-0.00634 0.029806,-0.052105 0.06624,-0.1017346 0.076323,-0.1039719 0.1987,-0.1990478 0.344886,-0.2679465 L 6.6451444,7.7600197 6.5704903,7.770502 C 6.3855894,7.7964598 6.114129,7.9826239 6.0280151,8.1425276 c -0.019393,0.03601 -0.049459,0.06547 -0.066815,0.06547 -0.079106,0 -0.085334,0.013523 -0.060882,0.1321813 0.040695,0.1974802 0.050107,0.5359206 0.026375,0.948494 l -0.022882,0.3979362 0.040565,0.039912 0.040564,0.039905 -0.010796,-0.046665 C 5.9671441,9.6895031 5.9993921,9.5648244 6.0658751,9.365144 6.1222641,9.1957699 6.1685675,9.0781893 6.168771,9.1038512 6.1689832,9.1295152 6.156508,9.276017 6.141065,9.4294125 6.125629,9.5828087 6.119343,9.7137434 6.12711,9.72038 6.13486,9.72699 6.174824,9.752385 6.215884,9.776767 L 6.290541,9.821084 6.242863,9.756418 6.195185,9.691753 6.283216,9.3371409 C 6.331632,9.1421058 6.371986,9.0040536 6.372888,9.0303583 6.3737524,9.0566653 6.361475,9.2150883 6.345528,9.382412 6.329576,9.5497348 6.319082,9.6887898 6.322196,9.691423 6.325306,9.694063 6.398033,9.739911 6.4837937,9.793318 6.6663673,9.9070205 6.7875171,9.934979 7.0184214,9.9166865 7.2998408,9.8944025 7.5763321,9.790981 7.8207289,9.6165812 7.9460185,9.527177 7.9763751,9.4790198 7.8639361,9.5480372 7.7899741,9.5934413 7.4749057,9.7252078 7.4647059,9.7150071 c -0.00856,-0.00856 0.3847535,-0.2968307 0.5399344,-0.395702 0.059963,-0.038206 0.1365962,-0.080985 0.1702944,-0.095065 0.057486,-0.024019 0.0648,-0.038042 0.1183926,-0.2269651 l 0.057121,-0.201365 0.00118,0.110427 c 6.549e-4,0.060736 0.00544,0.1062021 0.010608,0.1010378 0.00517,-0.00517 0.025858,-0.084252 0.045982,-0.17575 L 8.444809,8.6652634 8.434072,8.9125585 c -0.01009,0.2325598 -0.00866,0.2472969 0.024006,0.2473199 0.032182,1.41e-5 0.034485,-0.016834 0.031257,-0.2286313 l -0.0035,-0.2286559 0.031481,0.143327 C 8.558398,9.0329593 8.583424,9.053871 8.569143,8.8892292 L 8.557812,8.7585828 8.619556,8.9716892 8.6813,9.1847947 l 0.1161013,0.06155 c 0.063855,0.033854 0.1558235,0.088628 0.204373,0.1217217 0.09829,0.067002 0.432434,0.3114009 0.4615475,0.3375847 0.027587,0.024808 -0.1671597,-0.05207 -0.316973,-0.1251278 -0.071686,-0.034961 -0.1331459,-0.060755 -0.1365778,-0.057319 -0.012636,0.012636 0.2336979,0.1756039 0.3641258,0.2408921 0.2190797,0.1096665 0.3902386,0.1493205 0.6493402,0.1504401 0.240714,0.00108 0.274665,-0.00927 0.501036,-0.152172 l 0.07346,-0.046376 -0.01222,-0.1987428 c -0.0067,-0.1093088 -0.01619,-0.2617335 -0.02105,-0.3387215 -0.007,-0.111046 0.0051,-0.066683 0.05848,0.2146331 0.03702,0.1950354 0.06993,0.3575282 0.07313,0.361096 0.0031,0.00365 0.0316,-0.00873 0.06311,-0.027357 0.06736,-0.039784 0.0674,-0.040391 0.02929,-0.3617385 -0.01521,-0.1283126 -0.02697,-0.2416948 -0.02614,-0.2519599 9e-4,-0.010268 0.03803,0.1238936 0.08265,0.2981291 0.05956,0.2326069 0.07576,0.3232431 0.06097,0.3410644 -0.04079,0.049141 0.002,0.043042 0.0598,-0.0085 l 0.05953,-0.053182 -0.02237,-0.3914066 c -0.02363,-0.4132969 -0.01287,-0.7966291 0.02723,-0.9690542 0.02557,-0.1099891 0.01916,-0.1211741 -0.07053,-0.1231121 -0.02673,-5.763e-4 -0.06265,-0.032231 -0.105791,-0.093254 -0.110103,-0.1557049 -0.308458,-0.2798207 -0.520255,-0.3255337 -0.04162,-0.00898 -0.05896,-0.00708 -0.05111,0.00563 0.0066,0.010571 0.03704,0.02475 0.06781,0.031505 0.08842,0.019418 0.275902,0.154999 0.35844,0.2592057 l 0.07551,0.095328 -0.0725,0.00933 -0.07251,0.00933 0.06533,0.040687 c 0.03593,0.022377 0.09051,0.067612 0.121315,0.100523 l 0.05599,0.059837 -0.0824,-0.05873 C 10.691702,8.2642026 10.505843,8.208 10.359662,8.208 c -0.06432,0 -0.198843,0.020774 -0.298926,0.046162 C 9.7487867,8.333276 9.5428751,8.4522297 9.1633005,8.7725716 9.0548158,8.8641266 9.0251797,8.8798882 8.9615079,8.8798882 c -0.06558,0 -0.086109,-0.011884 -0.1692282,-0.097985 C 8.6915269,8.6775362 8.5021582,8.3343993 8.5021582,8.2561955 c 0,-0.049458 0.1347309,-0.2280472 0.182756,-0.2422479 0.017531,-0.00517 0.1326619,-0.022335 0.2558426,-0.038114 0.5091255,-0.065218 0.8659169,-0.2308862 1.2292652,-0.5707811 0.09829,-0.091948 0.130668,-0.1115817 0.183999,-0.1115817 0.07595,0 0.09063,0.014304 0.220311,0.2146332 0.123287,0.1904677 0.455012,0.5188806 0.6942,0.6872703 l 0.180907,0.1273587 -0.07694,0.1127228 c -0.115118,0.1686454 -0.165921,0.3254884 -0.177807,0.5489361 -0.01367,0.2569239 0.03787,0.4592093 0.14757,0.579102 0.03503,0.0383 0.03524,0.043923 0.0056,0.158643 -0.05119,0.1980183 -0.136681,0.3992351 -0.23061,0.5427621 -0.09784,0.149506 -0.282095,0.330914 -0.394192,0.388102 l -0.07185,0.03666 -0.02291,-0.06969 c -0.05605,-0.170385 -0.381785,-0.39446 -0.6369483,-0.438165 -0.1580539,-0.02709 -0.2501786,-0.0014 -0.3609176,0.100706 -0.1451398,0.133784 -0.2115006,0.331618 -0.158233,0.471721 0.025761,0.06775 0.1609941,0.209389 0.2450128,0.256612 0.043232,0.0243 0.078869,0.06194 0.09067,0.09581 0.021429,0.06146 0.025366,0.20353 0.00744,0.270267 -0.011061,0.04131 -0.012289,0.04156 -0.036427,0.007 -0.035781,-0.05108 -0.1501127,-0.100926 -0.1993871,-0.08693 -0.022828,0.0065 -0.075991,0.05023 -0.118132,0.09719 -0.042141,0.04697 -0.085282,0.08005 -0.095868,0.0735 -0.010588,-0.0065 -0.024624,-0.04054 -0.03119,-0.07555 -0.014223,-0.07582 -0.051924,-0.112016 -0.1005985,-0.09657 -0.019488,0.0061 -0.0839,0.04888 -0.1431193,0.09486 -0.1205389,0.0936 -0.1818138,0.104714 -0.2238233,0.0406 -0.022992,-0.0351 -0.024142,-0.0537 -0.00624,-0.101155 0.028751,-0.07617 -0.00316,-0.117127 -0.09127,-0.117127 -0.095633,0 -0.133124,0.02871 -0.182088,0.139423 -0.040118,0.09072 -0.089085,0.140535 -0.1381293,0.140535 -0.010027,0 -0.039975,-0.02584 -0.06655,-0.05743 z m -0.04913,-0.903342 c 0.029509,-0.01526 0.068692,-0.06089 0.087727,-0.10217 0.01892,-0.04102 0.038598,-0.07459 0.043731,-0.07459 0.00512,0 0.024808,0.03356 0.043733,0.07459 0.039443,0.08554 0.1108335,0.129747 0.2094982,0.129747 0.054623,0 0.083079,-0.01463 0.1409049,-0.07245 0.06932,-0.06931 0.072461,-0.07771 0.072461,-0.193881 0,-0.16013 -0.07075,-0.4029056 -0.1861753,-0.6388504 C 8.6178768,9.3940163 8.517049,9.2969642 8.4932051,9.4118064 8.461499,9.5645214 8.4596901,9.5663251 8.4417312,9.4631294 8.4212245,9.3452798 8.3955046,9.3393641 8.3171163,9.4344626 8.1661894,9.6175627 8.0182235,10.000283 8.0031166,10.246636 l -0.00999,0.162937 0.075026,0.07502 c 0.060314,0.06032 0.088448,0.07502 0.1434726,0.07502 0.037644,0 0.092443,-0.0124 0.1217724,-0.02758 z M 7.6815642,8.8339404 C 7.5962445,8.7311368 7.087214,8.4664111 6.7771768,8.3636064 6.6027058,8.3057537 6.596549,8.3021128 6.6917973,8.3131207 c 0.3782343,0.043712 0.7551253,0.229501 0.969909,0.4781185 0.033256,0.038495 0.056422,0.069989 0.051484,0.069989 -0.00493,0 -0.019171,-0.01228 -0.031628,-0.027285 z M 9.2660239,8.7959045 C 9.4854257,8.534139 9.8329167,8.3627975 10.247242,8.3120819 c 0.07861,-0.00962 0.06367,-0.00158 -0.09471,0.051225 -0.3129096,0.1042548 -0.7397234,0.3250796 -0.9031105,0.4672509 -0.029731,0.025869 -0.023864,0.013633 0.016607,-0.034654 z M 5.3806397,8.0169056 C 5.3868187,7.7866105 5.4207709,7.4109265 5.4512483,7.2356699 5.515746,6.8647834 5.8039577,6.3187602 6.1318562,5.9462487 6.1854428,5.885372 6.2256919,5.8319671 6.2212974,5.8275731 6.2051781,5.8114565 5.8419958,6.1873559 5.736605,6.3292396 5.6768524,6.4096832 5.6279641,6.4712939 5.6279641,6.4661532 c 0,-0.03204 0.1416396,-0.3709624 0.2201573,-0.5268011 0.4297272,-0.85291 1.1237039,-1.3716764 2.0447399,-1.5285003 0.1011392,-0.01722 0.1859309,-0.028676 0.1884264,-0.025452 0.07483,0.096633 0.3709451,0.5341138 0.3710195,0.5481448 6.7e-5,0.010839 -0.048256,0.105111 -0.1073632,0.2095024 l -0.1074677,0.1898033 0.09124,0.2349127 0.091239,0.2349127 -0.035559,0.2368107 -0.035557,0.2368117 0.069746,0.1453484 c 0.038359,0.079943 0.07329,0.1418046 0.07762,0.1374738 0.00433,-0.00433 -0.00986,-0.077309 -0.031522,-0.162174 L 8.4252876,6.2426464 8.4743339,6.0125975 8.5233805,5.7825491 8.4470288,5.574206 C 8.3590069,5.3340195 8.3459156,5.3882422 8.562933,5.0941726 8.6336726,4.9983158 8.6869543,4.9101302 8.6813359,4.8982026 8.6757174,4.8862742 8.5906201,4.7597978 8.4922302,4.6171398 L 8.313339,4.3577639 8.5897319,4.3684955 c 0.4648405,0.018052 0.843332,0.106409 1.2121875,0.2829891 0.5793976,0.2773714 0.9930506,0.6993009 1.2937946,1.3196851 0.09614,0.1983098 0.223584,0.5066303 0.198999,0.4814151 -0.0045,-0.00457 -0.04805,-0.062905 -0.0969,-0.1296277 -0.100311,-0.13705 -0.316153,-0.3663467 -0.427809,-0.4544727 -0.06259,-0.049396 -0.05323,-0.033453 0.05851,0.099861 0.188512,0.2248644 0.329088,0.4412565 0.454678,0.6998916 0.144538,0.2976578 0.177175,0.4027189 0.214528,0.6905584 0.02975,0.2291277 0.06662,0.8117805 0.05251,0.8293117 C 11.54163,8.1988281 11.34202,8.0592895 11.188799,7.9354097 10.987955,7.773023 10.713155,7.4762163 10.600419,7.299902 10.542365,7.2091126 10.47806,7.1107378 10.457513,7.0812914 l -0.03736,-0.053538 0.05352,-0.045481 c 0.0924,-0.07852 0.312731,-0.1755753 0.424849,-0.1871472 0.129331,-0.013351 0.137732,-0.0429 0.0122,-0.0429 -0.274145,0 -0.443574,0.087009 -0.71768,0.3685599 C 10.080639,7.23624 9.9292693,7.3715186 9.8566627,7.4214037 9.6572522,7.5584134 9.618125,7.5737116 9.7194237,7.4750644 9.7678734,7.4278846 9.8381835,7.3413326 9.8756725,7.2827287 9.9404545,7.1814618 10.061367,6.886747 10.044895,6.8702733 c -0.0043,-0.00427 -0.03098,0.031873 -0.059346,0.080304 C 9.9132214,7.0739694 9.6592645,7.3344872 9.4820266,7.46709 9.2727772,7.6236419 8.9897576,7.7586008 8.8266274,7.7796195 8.6580333,7.8013442 8.2668062,7.8008177 8.0960845,7.7786242 7.8570733,7.74758 7.5092337,7.5546398 7.2356878,7.3013796 7.0966282,7.172632 6.9525536,6.9990483 6.9133678,6.9130454 c -0.045338,-0.099506 -0.049923,-0.044593 -0.00685,0.082044 0.062898,0.1849287 0.1334343,0.307172 0.2518717,0.4365081 l 0.102651,0.1120901 -0.074655,-0.044655 C 7.0451302,7.4145416 6.906009,7.2969212 6.7192539,7.1040968 6.519395,6.8977431 6.4144382,6.8278355 6.233882,6.7808065 6.115203,6.749894 5.9265829,6.7421873 5.9265829,6.7682495 c 0,0.00883 0.047067,0.020912 0.1045967,0.026848 0.1152787,0.011897 0.338541,0.111414 0.4228075,0.1884609 l 0.051478,0.047067 -0.053612,0.080086 C 6.4223684,7.1547587 6.3617363,7.2495868 6.3171165,7.3214427 6.2112992,7.4918521 5.799947,7.9042946 5.583719,8.0567851 5.4926616,8.1210015 5.4086746,8.1771842 5.3970809,8.1816367 c -0.014927,0.00573 -0.019729,-0.04236 -0.016444,-0.1647575 z"
     id="path482" />
  <rect
     style="opacity:0.3;fill:none;fill-opacity:0.996424;stroke:#000000;stroke-width:0.955221;stroke-dasharray:none;stroke-opacity:1;filter:url(#filter5421-3)"
     id="rect1-2-7-5"
     width="13.687567"
     height="13.591975"
     x="1.6227165"
     y="1.6705122"
     rx="2.8442214"
     ry="2.965905"
     transform="matrix(0.43046721,0,0,0.43046721,9.5627021,9.5627021)" />
  <rect
     style="fill:none;fill-opacity:1;stroke:{{colors.primary.default.hex}};stroke-width:0.411191;stroke-dasharray:none;stroke-opacity:1"
     id="rect1-2-3"
     width="5.8920484"
     height="5.8508992"
     x="10.261228"
     y="10.281802"
     rx="1.224344"
     ry="1.2767248" />
  <path
     id="path1"
     style="fill:{{colors.primary.default.hex}};fill-opacity:1;stroke:none;stroke-width:0.0587368;stroke-dasharray:none;stroke-dashoffset:2.2;stroke-opacity:0.6"
     d="m 14.168922,11.656658 c -0.06055,-2.6e-5 -0.125364,0.02435 -0.206481,0.07188 -0.193027,0.1131 -0.445472,0.166438 -0.792145,0.166438 -0.346641,0 -0.607506,-0.05448 -0.799384,-0.16692 -0.153862,-0.09017 -0.245719,-0.09136 -0.374847,-0.0043 -0.331514,0.223407 -0.581361,0.939687 -0.654655,1.875683 -0.04395,0.561277 -0.0029,0.857184 0.142315,1.023712 0.07004,0.08029 0.241969,0.06668 0.397039,-0.03184 0.13145,-0.08351 0.288072,-0.267793 0.475192,-0.559138 0.16909,-0.263274 0.373614,-0.349984 0.825918,-0.350725 0.451405,-6.81e-4 0.628801,0.08471 0.837013,0.404757 0.349331,0.536972 0.672221,0.723915 0.861617,0.498829 0.104925,-0.124694 0.12413,-0.24517 0.119159,-0.746797 -0.0091,-0.911235 -0.247248,-1.740202 -0.590491,-2.056592 -0.09141,-0.08427 -0.162394,-0.124918 -0.24025,-0.124951 z M 12.207851,12.1936 h 0.209374 0.209373 v 0.179464 0.179463 h 0.179465 0.179462 v 0.22433 0.224328 h -0.179462 -0.179465 v 0.194419 0.194419 h -0.189593 c -0.104158,0 -0.197928,-0.0093 -0.208892,-0.02026 -0.01096,-0.01096 -0.02025,-0.098 -0.02025,-0.193935 v -0.174644 h -0.179466 -0.179465 v -0.224328 -0.224329 h 0.179465 0.179463 v -0.179465 z m 1.706832,0 c 0.188883,0 0.269773,0.209278 0.133633,0.345419 -0.08658,0.08657 -0.165598,0.09337 -0.250863,0.02123 -0.147895,-0.125144 -0.0707,-0.366645 0.11723,-0.366645 z m -0.363268,0.383531 c 0.04717,3.2e-5 0.09465,0.01883 0.132184,0.0603 0.05851,0.06466 0.06483,0.212666 0.01207,0.281737 -0.103261,0.135182 -0.351207,0.04823 -0.351207,-0.123018 0,-0.12997 0.103198,-0.219094 0.206961,-0.219022 z m 0.741493,0.0073 c 0.05436,9.9e-4 0.10714,0.019 0.137972,0.05306 0.05851,0.06466 0.06482,0.212666 0.01206,0.281738 -0.109832,0.143783 -0.351209,0.04755 -0.351209,-0.139905 0,-0.05682 0.02277,-0.118403 0.05451,-0.14714 0.03629,-0.03285 0.0923,-0.04875 0.14666,-0.04775 z m -0.365199,0.386906 c 0.167454,0 0.248932,0.177621 0.147622,0.322262 -0.03463,0.04945 -0.07687,0.06657 -0.164026,0.06657 -0.100342,0 -0.123628,-0.01306 -0.164024,-0.09118 -0.07966,-0.154035 0.0073,-0.297659 0.180428,-0.297659 z" />
</svg>
