<?xml version="1.0" encoding="UTF-8" standalone="no"?>
<svg
   width="64"
   height="64"
   version="1.1"
   viewBox="0 0 16.933 16.933"
   id="svg7"
   sodipodi:docname="com.warlordsoftwares.formatlab.svg"
   inkscape:version="1.4.3 (0d15f75042, 2025-12-25)"
   xmlns:inkscape="http://www.inkscape.org/namespaces/inkscape"
   xmlns:sodipodi="http://sodipodi.sourceforge.net/DTD/sodipodi-0.dtd"
   xmlns="http://www.w3.org/2000/svg"
   xmlns:svg="http://www.w3.org/2000/svg"
   xmlns:rdf="http://www.w3.org/1999/02/22-rdf-syntax-ns#"
   xmlns:cc="http://creativecommons.org/ns#"
   xmlns:dc="http://purl.org/dc/elements/1.1/">
  <sodipodi:namedview
     id="namedview7"
     pagecolor="#9c4444"
     bordercolor="#000000"
     borderopacity="0.25"
     inkscape:showpageshadow="2"
     inkscape:pageopacity="0.0"
     inkscape:pagecheckerboard="0"
     inkscape:deskcolor="#d1d1d1"
     inkscape:zoom="4.3531261"
     inkscape:cx="42.957635"
     inkscape:cy="45.254834"
     inkscape:window-width="1226"
     inkscape:window-height="669"
     inkscape:window-x="314"
     inkscape:window-y="198"
     inkscape:window-maximized="0"
     inkscape:current-layer="svg7"
     showgrid="false" />
  <defs
     id="defs2">
    <filter
       style="color-interpolation-filters:sRGB;"
       inkscape:label="Blur"
       id="filter5421"
       x="-0.12256455"
       y="-0.12342654"
       width="1.2451291"
       height="1.2468531">
      <feGaussianBlur
         stdDeviation="0.5 0.5"
         result="blur"
         id="feGaussianBlur5419" />
    </filter>
    <filter
       style="color-interpolation-filters:sRGB"
       inkscape:label="Blur"
       id="filter5421-3"
       x="-0.12256455"
       y="-0.12342654"
       width="1.2451291"
       height="1.2468531">
      <feGaussianBlur
         stdDeviation="0.5 0.5"
         result="blur"
         id="feGaussianBlur5419-6" />
    </filter>
  </defs>
  <metadata
     id="metadata2">
    <rdf:RDF>
      <cc:Work
         rdf:about="">
        <dc:format>image/svg+xml</dc:format>
        <dc:type
           rdf:resource="http://purl.org/dc/dcmitype/StillImage" />
      </cc:Work>
    </rdf:RDF>
  </metadata>
  <rect
     style="opacity:0.3;fill:none;fill-opacity:0.996424;stroke:#000000;stroke-width:0.955221;stroke-dasharray:none;stroke-opacity:1;filter:url(#filter5421)"
     id="rect1-2-7"
     width="13.687567"
     height="13.591975"
     x="1.6227165"
     y="1.6705122"
     rx="2.8442214"
     ry="2.965905" />
  <rect
     style="fill:none;fill-opacity:1;stroke:{{colors.primary.default.hex}};stroke-width:0.955221;stroke-dasharray:none;stroke-opacity:1"
     id="rect1-2"
     width="13.687567"
     height="13.591975"
     x="1.6227167"
     y="1.6705124"
     rx="2.8442214"
     ry="2.965905" />
  <path
     style="fill:{{colors.primary.default.hex}};fill-opacity:1;stroke:none;stroke-width:0.127365;stroke-dasharray:none;stroke-dashoffset:2.2;stroke-opacity:0.6"
     d="m 6.2274367,12.572606 c 0,-0.01124 0.044272,-0.11002 0.098386,-0.219533 0.056815,-0.114984 0.1089557,-0.27221 0.1234031,-0.372114 0.031139,-0.215324 0.033549,-2.0331095 0.00277,-2.0816375 C 6.4251757,9.8570458 6.1355024,9.9530902 5.8349177,10.103902 5.6215092,10.210983 5.6199824,10.209201 5.6910752,9.9362629 5.7831702,9.5826977 6.0251534,9.2330639 6.3131014,9.0375224 L 6.4753607,8.9273341 V 7.5798964 c 0,-0.8864157 -0.00994,-1.36926 -0.02906,-1.4112168 C 6.3730242,6.0078547 6.0749358,5.8859038 5.8211401,5.9129182 5.6808096,5.9278561 5.6489759,5.9238695 5.6489759,5.8913716 c 0,-0.045851 0.4134584,-0.5044125 1.0109023,-1.1211776 L 7.073204,4.3435018 7.2320848,4.4489935 c 0.2423985,0.1609432 0.3974481,0.317019 0.4826934,0.4858886 0.1051121,0.2082276 0.1318795,0.320238 0.1640021,0.6863015 0.02734,0.3115976 0.042059,0.370945 0.078683,0.3173639 0.010537,-0.015422 0.099734,-0.089006 0.1982116,-0.1635273 C 8.3252748,5.6466765 8.6263945,5.4097016 9.4778892,4.7344627 9.6824182,4.5722695 9.8628628,4.4395207 9.878881,4.4394659 c 0.016011,-5.5e-5 0.086283,0.077373 0.15617,0.1720636 0.17992,0.2438116 0.445452,0.5035422 0.582717,0.5699923 0.139737,0.067644 0.371617,0.074925 0.536256,0.016832 0.06209,-0.021916 0.118394,-0.031011 0.125068,-0.020209 0.02245,0.036317 -0.03575,0.2777288 -0.09491,0.393681 -0.07488,0.1467942 -0.272246,0.3581751 -0.397272,0.4255077 l -0.09699,0.052232 5.24e-4,1.7635743 5.24e-4,1.7635755 0.08214,0.1490175 c 0.04519,0.081957 0.08214,0.154428 0.08214,0.1610412 0,0.00648 -0.127275,0.00333 -0.282839,-0.00729 -0.6125256,-0.041762 -1.245709,0.156925 -1.9424572,0.609493 -0.1255116,0.08151 -0.2356958,0.148229 -0.2448541,0.148229 -0.00915,0 -0.1171943,-0.09606 -0.2400806,-0.213483 l -0.2234346,-0.213484 -0.00745,0.59203 c -0.00817,0.648733 0.00874,0.783058 0.1311368,1.041866 l 0.080573,0.170374 h -0.253751 c -0.3723683,0 -0.8676776,0.160409 -1.3729367,0.444635 -0.2438155,0.137138 -0.2716797,0.148772 -0.2716797,0.113402 z M 9.2337794,9.3602917 c 0.01049,-0.616635 0.00841,-2.0616124 -0.00383,-2.646671 L 9.2161985,6.054211 9.1200759,6.0293562 C 9.0672083,6.0156834 8.9679618,5.9634011 8.8995285,5.9131667 8.7812703,5.8263565 8.7722672,5.8240919 8.7178656,5.8674577 c -0.03148,0.025096 -0.098441,0.076618 -0.1488003,0.1144932 -0.05036,0.037876 -0.1050956,0.081261 -0.1216335,0.096412 -0.016539,0.015145 -0.1449424,0.1196302 -0.2853416,0.2321781 l -0.25527,0.204632 0.015488,1.0349435 c 0.00853,0.5692196 0.021476,1.0848946 0.028791,1.1459461 0.013154,0.1097803 0.015572,0.1118666 0.2189875,0.1895329 0.2725773,0.1040694 0.5624538,0.299204 0.795138,0.5352585 0.1109976,0.1126058 0.2053288,0.1865461 0.2272554,0.1781318 0.026912,-0.01033 0.038564,-0.077677 0.041304,-0.2386945 z"
     id="path1-7-3" />
  <rect
     style="opacity:0.3;fill:none;fill-opacity:0.996424;stroke:#000000;stroke-width:0.955221;stroke-dasharray:none;stroke-opacity:1;filter:url(#filter5421-3)"
     id="rect1-2-7-5"
     width="13.687567"
     height="13.591975"
     x="1.6227165"
     y="1.6705122"
     rx="2.8442214"
     ry="2.965905"
     transform="matrix(0.43046721,0,0,0.43046721,9.5627021,9.5627021)" />
  <rect
     style="fill:none;fill-opacity:1;stroke:{{colors.primary.default.hex}};stroke-width:0.411191;stroke-dasharray:none;stroke-opacity:1"
     id="rect1-2-3"
     width="5.8920484"
     height="5.8508992"
     x="10.261228"
     y="10.281802"
     rx="1.224344"
     ry="1.2767248" />
  <path
     id="path1"
     style="fill:{{colors.primary.default.hex}};fill-opacity:1;stroke:none;stroke-width:0.0587368;stroke-dasharray:none;stroke-dashoffset:2.2;stroke-opacity:0.6"
     d="m 14.168922,11.656658 c -0.06055,-2.6e-5 -0.125364,0.02435 -0.206481,0.07188 -0.193027,0.1131 -0.445472,0.166438 -0.792145,0.166438 -0.346641,0 -0.607506,-0.05448 -0.799384,-0.16692 -0.153862,-0.09017 -0.245719,-0.09136 -0.374847,-0.0043 -0.331514,0.223407 -0.581361,0.939687 -0.654655,1.875683 -0.04395,0.561277 -0.0029,0.857184 0.142315,1.023712 0.07004,0.08029 0.241969,0.06668 0.397039,-0.03184 0.13145,-0.08351 0.288072,-0.267793 0.475192,-0.559138 0.16909,-0.263274 0.373614,-0.349984 0.825918,-0.350725 0.451405,-6.81e-4 0.628801,0.08471 0.837013,0.404757 0.349331,0.536972 0.672221,0.723915 0.861617,0.498829 0.104925,-0.124694 0.12413,-0.24517 0.119159,-0.746797 -0.0091,-0.911235 -0.247248,-1.740202 -0.590491,-2.056592 -0.09141,-0.08427 -0.162394,-0.124918 -0.24025,-0.124951 z M 12.207851,12.1936 h 0.209374 0.209373 v 0.179464 0.179463 h 0.179465 0.179462 v 0.22433 0.224328 h -0.179462 -0.179465 v 0.194419 0.194419 h -0.189593 c -0.104158,0 -0.197928,-0.0093 -0.208892,-0.02026 -0.01096,-0.01096 -0.02025,-0.098 -0.02025,-0.193935 v -0.174644 h -0.179466 -0.179465 v -0.224328 -0.224329 h 0.179465 0.179463 v -0.179465 z m 1.706832,0 c 0.188883,0 0.269773,0.209278 0.133633,0.345419 -0.08658,0.08657 -0.165598,0.09337 -0.250863,0.02123 -0.147895,-0.125144 -0.0707,-0.366645 0.11723,-0.366645 z m -0.363268,0.383531 c 0.04717,3.2e-5 0.09465,0.01883 0.132184,0.0603 0.05851,0.06466 0.06483,0.212666 0.01207,0.281737 -0.103261,0.135182 -0.351207,0.04823 -0.351207,-0.123018 0,-0.12997 0.103198,-0.219094 0.206961,-0.219022 z m 0.741493,0.0073 c 0.05436,9.9e-4 0.10714,0.019 0.137972,0.05306 0.05851,0.06466 0.06482,0.212666 0.01206,0.281738 -0.109832,0.143783 -0.351209,0.04755 -0.351209,-0.139905 0,-0.05682 0.02277,-0.118403 0.05451,-0.14714 0.03629,-0.03285 0.0923,-0.04875 0.14666,-0.04775 z m -0.365199,0.386906 c 0.167454,0 0.248932,0.177621 0.147622,0.322262 -0.03463,0.04945 -0.07687,0.06657 -0.164026,0.06657 -0.100342,0 -0.123628,-0.01306 -0.164024,-0.09118 -0.07966,-0.154035 0.0073,-0.297659 0.180428,-0.297659 z" />
</svg>
