<?xml version="1.0" encoding="UTF-8" standalone="no"?>
<svg
   width="64"
   height="64"
   version="1.1"
   viewBox="0 0 16.933 16.933"
   id="svg7"
   sodipodi:docname="steam_icon_368260.svg"
   inkscape:version="1.4.3 (0d15f75042, 2025-12-25)"
   xmlns:inkscape="http://www.inkscape.org/namespaces/inkscape"
   xmlns:sodipodi="http://sodipodi.sourceforge.net/DTD/sodipodi-0.dtd"
   xmlns="http://www.w3.org/2000/svg"
   xmlns:svg="http://www.w3.org/2000/svg"
   xmlns:rdf="http://www.w3.org/1999/02/22-rdf-syntax-ns#"
   xmlns:cc="http://creativecommons.org/ns#"
   xmlns:dc="http://purl.org/dc/elements/1.1/">
  <sodipodi:namedview
     id="namedview7"
     pagecolor="#9c4444"
     bordercolor="#000000"
     borderopacity="0.25"
     inkscape:showpageshadow="2"
     inkscape:pageopacity="0.0"
     inkscape:pagecheckerboard="0"
     inkscape:deskcolor="#d1d1d1"
     inkscape:zoom="4.3531261"
     inkscape:cx="42.957635"
     inkscape:cy="45.025114"
     inkscape:window-width="1226"
     inkscape:window-height="669"
     inkscape:window-x="30"
     inkscape:window-y="150"
     inkscape:window-maximized="0"
     inkscape:current-layer="svg7"
     showgrid="false" />
  <defs
     id="defs2">
    <filter
       style="color-interpolation-filters:sRGB;"
       inkscape:label="Blur"
       id="filter5421"
       x="-0.12256455"
       y="-0.12342654"
       width="1.2451291"
       height="1.2468531">
      <feGaussianBlur
         stdDeviation="0.5 0.5"
         result="blur"
         id="feGaussianBlur5419" />
    </filter>
    <filter
       style="color-interpolation-filters:sRGB"
       inkscape:label="Blur"
       id="filter5421-3"
       x="-0.12256455"
       y="-0.12342654"
       width="1.2451291"
       height="1.2468531">
      <feGaussianBlur
         stdDeviation="0.5 0.5"
         result="blur"
         id="feGaussianBlur5419-6" />
    </filter>
  </defs>
  <metadata
     id="metadata2">
    <rdf:RDF>
      <cc:Work
         rdf:about="">
        <dc:format>image/svg+xml</dc:format>
        <dc:type
           rdf:resource="http://purl.org/dc/dcmitype/StillImage" />
      </cc:Work>
    </rdf:RDF>
  </metadata>
  <rect
     style="opacity:0.3;fill:none;fill-opacity:0.996424;stroke:#000000;stroke-width:0.955221;stroke-dasharray:none;stroke-opacity:1;filter:url(#filter5421)"
     id="rect1-2-7"
     width="13.687567"
     height="13.591975"
     x="1.6227165"
     y="1.6705122"
     rx="2.8442214"
     ry="2.965905" />
  <rect
     style="fill:none;fill-opacity:1;stroke:{{colors.primary.default.hex}};stroke-width:0.955221;stroke-dasharray:none;stroke-opacity:1"
     id="rect1-2"
     width="13.687567"
     height="13.591975"
     x="1.6227167"
     y="1.6705124"
     rx="2.8442214"
     ry="2.965905" />
  <path
     id="path7"
     style="fill:{{colors.primary.default.hex}};fill-opacity:1;stroke:none;stroke-width:0.120087;stroke-dasharray:none;stroke-dashoffset:2.2;stroke-opacity:0.6"
     d="M 8.4773491,5.2416995 C 8.0718451,5.2393421 7.6632657,5.3488042 7.3138989,5.5665556 7.0932609,5.7040727 6.680164,6.1036264 6.5089713,6.3452495 6.2874271,6.6579376 6.092173,7.0982919 5.9899872,7.5152581 5.8258321,8.1850977 5.8720136,9.1550696 6.0953581,9.7201739 c 0.020957,0.053031 0.053831,0.096626 0.07258,0.096626 0.056582,0 0.6202852,-0.2044453 0.9627645,-0.3489046 C 8.0454452,9.0820544 9.0305554,8.5439285 9.8690304,7.9717184 10.151697,7.778816 10.825682,7.2787939 10.844912,7.2476777 10.850492,7.2386066 10.811189,7.1247358 10.757459,6.9945251 10.470459,6.2987736 9.9742764,5.7391022 9.3889586,5.4515665 9.1065926,5.3128527 8.7927408,5.2435443 8.4773491,5.2416995 Z m 3.5760479,0.6418427 c -0.120751,6.024e-4 -0.26308,0.013843 -0.395252,0.038913 -0.244825,0.046444 -0.839883,0.2463933 -0.924726,0.310866 -0.0053,0.00415 0.0321,0.078089 0.08352,0.1643954 0.05142,0.086305 0.09357,0.1734911 0.09357,0.1936903 0,0.04226 0.04776,0.045197 0.192816,0.011803 0.360046,-0.082881 0.887126,-0.1350513 0.887126,-0.087882 0,0.043437 -0.2868,0.3659569 -0.569263,0.640094 C 9.9470496,8.5860881 7.137626,10.0957 5.4351562,10.372075 5.1860191,10.41253 4.954981,10.418722 4.9345358,10.385647 4.9167059,10.356784 5.272411,9.9343065 5.5177911,9.6926416 L 5.7088528,9.5041895 5.6747506,9.3581573 c -0.01888,-0.080231 -0.034759,-0.1775375 -0.034976,-0.2164277 -2.426e-4,-0.038891 -0.00731,-0.07083 -0.015737,-0.07083 -0.029727,0 -0.5510713,0.4410681 -0.7380331,0.6243558 C 4.5014009,10.072298 4.344817,10.327044 4.342536,10.579322 c -0.00121,0.134753 0.00834,0.168833 0.06296,0.227354 0.082087,0.08794 0.1854445,0.142358 0.347155,0.182321 0.172757,0.04268 0.3356071,0.04244 0.6427178,-0.0013 1.245645,-0.177634 3.1087417,-1.0052279 4.7823432,-2.1241274 1.53274,-1.0247265 2.556392,-2.1606787 2.396419,-2.6596284 -0.02921,-0.091093 -0.156595,-0.2337816 -0.254462,-0.2850541 -0.04614,-0.024174 -0.14552,-0.036023 -0.266269,-0.035416 z m -1.037533,2.8275209 c -0.0085,1.024e-4 -0.17435,0.1130772 -0.368578,0.2509655 -1.0659491,0.7567613 -2.4375359,1.5065834 -3.4886018,1.9071684 -0.1332509,0.05078 -0.2465482,0.105671 -0.25184,0.121549 -0.012646,0.03794 0.3690907,0.324624 0.5618305,0.421918 0.083183,0.04199 0.2524207,0.111144 0.3760125,0.153902 0.2218826,0.07676 0.2299302,0.0778 0.6488389,0.06688 0.3501139,-0.0091 0.4536388,-0.02093 0.5915627,-0.06778 0.9995542,-0.339505 1.7376792,-1.345206 1.9115392,-2.6040994 0.01905,-0.1378827 0.02766,-0.2506315 0.01925,-0.2505286 z" />
  <rect
     style="opacity:0.3;fill:none;fill-opacity:0.996424;stroke:#000000;stroke-width:0.955221;stroke-dasharray:none;stroke-opacity:1;filter:url(#filter5421-3)"
     id="rect1-2-7-5"
     width="13.687567"
     height="13.591975"
     x="1.6227165"
     y="1.6705122"
     rx="2.8442214"
     ry="2.965905"
     transform="matrix(0.43046721,0,0,0.43046721,9.5627021,9.5627021)" />
  <rect
     style="fill:none;fill-opacity:1;stroke:{{colors.primary.default.hex}};stroke-width:0.411191;stroke-dasharray:none;stroke-opacity:1"
     id="rect1-2-3"
     width="5.8920484"
     height="5.8508992"
     x="10.261228"
     y="10.281802"
     rx="1.224344"
     ry="1.2767248" />
  <path
     id="path1"
     style="fill:{{colors.primary.default.hex}};fill-opacity:1;stroke:none;stroke-width:0.0587368;stroke-dasharray:none;stroke-dashoffset:2.2;stroke-opacity:0.6"
     d="m 14.168922,11.656658 c -0.06055,-2.6e-5 -0.125364,0.02435 -0.206481,0.07188 -0.193027,0.1131 -0.445472,0.166438 -0.792145,0.166438 -0.346641,0 -0.607506,-0.05448 -0.799384,-0.16692 -0.153862,-0.09017 -0.245719,-0.09136 -0.374847,-0.0043 -0.331514,0.223407 -0.581361,0.939687 -0.654655,1.875683 -0.04395,0.561277 -0.0029,0.857184 0.142315,1.023712 0.07004,0.08029 0.241969,0.06668 0.397039,-0.03184 0.13145,-0.08351 0.288072,-0.267793 0.475192,-0.559138 0.16909,-0.263274 0.373614,-0.349984 0.825918,-0.350725 0.451405,-6.81e-4 0.628801,0.08471 0.837013,0.404757 0.349331,0.536972 0.672221,0.723915 0.861617,0.498829 0.104925,-0.124694 0.12413,-0.24517 0.119159,-0.746797 -0.0091,-0.911235 -0.247248,-1.740202 -0.590491,-2.056592 -0.09141,-0.08427 -0.162394,-0.124918 -0.24025,-0.124951 z M 12.207851,12.1936 h 0.209374 0.209373 v 0.179464 0.179463 h 0.179465 0.179462 v 0.22433 0.224328 h -0.179462 -0.179465 v 0.194419 0.194419 h -0.189593 c -0.104158,0 -0.197928,-0.0093 -0.208892,-0.02026 -0.01096,-0.01096 -0.02025,-0.098 -0.02025,-0.193935 v -0.174644 h -0.179466 -0.179465 v -0.224328 -0.224329 h 0.179465 0.179463 v -0.179465 z m 1.706832,0 c 0.188883,0 0.269773,0.209278 0.133633,0.345419 -0.08658,0.08657 -0.165598,0.09337 -0.250863,0.02123 -0.147895,-0.125144 -0.0707,-0.366645 0.11723,-0.366645 z m -0.363268,0.383531 c 0.04717,3.2e-5 0.09465,0.01883 0.132184,0.0603 0.05851,0.06466 0.06483,0.212666 0.01207,0.281737 -0.103261,0.135182 -0.351207,0.04823 -0.351207,-0.123018 0,-0.12997 0.103198,-0.219094 0.206961,-0.219022 z m 0.741493,0.0073 c 0.05436,9.9e-4 0.10714,0.019 0.137972,0.05306 0.05851,0.06466 0.06482,0.212666 0.01206,0.281738 -0.109832,0.143783 -0.351209,0.04755 -0.351209,-0.139905 0,-0.05682 0.02277,-0.118403 0.05451,-0.14714 0.03629,-0.03285 0.0923,-0.04875 0.14666,-0.04775 z m -0.365199,0.386906 c 0.167454,0 0.248932,0.177621 0.147622,0.322262 -0.03463,0.04945 -0.07687,0.06657 -0.164026,0.06657 -0.100342,0 -0.123628,-0.01306 -0.164024,-0.09118 -0.07966,-0.154035 0.0073,-0.297659 0.180428,-0.297659 z" />
</svg>
