<?xml version="1.0" encoding="UTF-8" standalone="no"?>
<svg
   width="64"
   height="64"
   version="1.1"
   viewBox="0 0 16.933 16.933"
   id="svg7"
   sodipodi:docname="abcd.svg"
   inkscape:version="1.4.3 (0d15f75042, 2025-12-25)"
   xmlns:inkscape="http://www.inkscape.org/namespaces/inkscape"
   xmlns:sodipodi="http://sodipodi.sourceforge.net/DTD/sodipodi-0.dtd"
   xmlns="http://www.w3.org/2000/svg"
   xmlns:svg="http://www.w3.org/2000/svg"
   xmlns:rdf="http://www.w3.org/1999/02/22-rdf-syntax-ns#"
   xmlns:cc="http://creativecommons.org/ns#"
   xmlns:dc="http://purl.org/dc/elements/1.1/">
  <sodipodi:namedview
     id="namedview7"
     pagecolor="#9c4444"
     bordercolor="#000000"
     borderopacity="0.25"
     inkscape:showpageshadow="2"
     inkscape:pageopacity="0.0"
     inkscape:pagecheckerboard="0"
     inkscape:deskcolor="#d1d1d1"
     inkscape:zoom="4.3531261"
     inkscape:cx="43.072494"
     inkscape:cy="45.254834"
     inkscape:window-width="1226"
     inkscape:window-height="669"
     inkscape:window-x="109"
     inkscape:window-y="119"
     inkscape:window-maximized="0"
     inkscape:current-layer="svg7"
     showgrid="false" />
  <defs
     id="defs2">
    <filter
       style="color-interpolation-filters:sRGB;"
       inkscape:label="Blur"
       id="filter5421"
       x="-0.12256455"
       y="-0.12342654"
       width="1.2451291"
       height="1.2468531">
      <feGaussianBlur
         stdDeviation="0.5 0.5"
         result="blur"
         id="feGaussianBlur5419" />
    </filter>
    <filter
       style="color-interpolation-filters:sRGB"
       inkscape:label="Blur"
       id="filter5421-3"
       x="-0.12256455"
       y="-0.12342654"
       width="1.2451291"
       height="1.2468531">
      <feGaussianBlur
         stdDeviation="0.5 0.5"
         result="blur"
         id="feGaussianBlur5419-6" />
    </filter>
  </defs>
  <metadata
     id="metadata2">
    <rdf:RDF>
      <cc:Work
         rdf:about="">
        <dc:format>image/svg+xml</dc:format>
        <dc:type
           rdf:resource="http://purl.org/dc/dcmitype/StillImage" />
      </cc:Work>
    </rdf:RDF>
  </metadata>
  <rect
     style="opacity:0.3;fill:none;fill-opacity:0.996424;stroke:#000000;stroke-width:0.955221;stroke-dasharray:none;stroke-opacity:1;filter:url(#filter5421)"
     id="rect1-2-7"
     width="13.687567"
     height="13.591975"
     x="1.6227165"
     y="1.6705122"
     rx="2.8442214"
     ry="2.965905" />
  <rect
     style="fill:none;fill-opacity:1;stroke:{{colors.primary.default.hex}};stroke-width:0.955221;stroke-dasharray:none;stroke-opacity:1"
     id="rect1-2"
     width="13.687567"
     height="13.591975"
     x="1.6227167"
     y="1.6705124"
     rx="2.8442214"
     ry="2.965905" />
  <path
     style="fill:{{colors.primary.default.hex}};fill-opacity:1;stroke:none;stroke-width:0.141517;stroke-dasharray:none;stroke-opacity:0.6"
     d="m 4.3270858,11.557955 c -0.087922,-0.138182 -0.043254,-0.19532 0.091856,-0.117493 l 0.039491,0.02278 0.1059465,-0.105946 0.1059374,-0.105938 0.5054607,0.505461 0.5054605,0.505461 -0.1059373,0.105937 -0.1059388,0.105939 0.022768,0.0395 c 0.064361,0.111751 0.039857,0.163884 -0.058852,0.125213 C 5.3907708,12.622209 5.3586298,12.591739 4.863349,12.098554 4.574655,11.811089 4.3333932,11.567768 4.3271156,11.55793 Z m 0.5214934,-0.284512 c -1.41e-5,-0.01218 0.2375914,-0.250899 0.2436279,-0.244863 0.00243,0.0024 0.00715,0.02073 0.010491,0.0408 0.00959,0.05698 0.073758,0.225915 0.124648,0.328123 0.092367,0.185535 0.2439045,0.413448 0.4007647,0.602831 0.04052,0.04901 0.050492,0.06671 0.042099,0.07511 -0.00961,0.0096 -0.061781,-0.03932 -0.4163426,-0.390561 -0.2228884,-0.220909 -0.4053685,-0.405987 -0.405357,-0.411438 z m 0.8581983,0.567713 C 5.4292349,11.485922 5.2794712,11.161523 5.2752606,10.906464 l -0.00112,-0.06847 0.1412913,-0.141292 c 0.077712,-0.07771 0.1440928,-0.138492 0.1475647,-0.13502 0.00344,0.0034 0.021061,0.05394 0.039133,0.112205 0.07414,0.238984 0.2334885,0.518846 0.445515,0.78245 0.03771,0.0469 0.077734,0.09765 0.088955,0.112756 l 0.020259,0.02761 L 5.9776728,11.7719 C 5.824855,11.921296 5.7967255,11.945692 5.786324,11.937352 5.779504,11.932052 5.743763,11.888712 5.706663,11.841202 Z M 6.161882,11.342104 c -0.1967612,-0.25755 -0.3254718,-0.493385 -0.3795232,-0.695407 -0.024841,-0.09284 -0.044193,-0.250886 -0.033626,-0.274611 0.010288,-0.02313 0.2848361,-0.2954 0.2884133,-0.286108 0.00163,0.0044 0.022167,0.06468 0.045494,0.133981 0.04881,0.145076 0.1315819,0.315077 0.2254707,0.463062 0.056796,0.08954 0.1031158,0.153377 0.2833325,0.390615 l 0.034775,0.04581 -0.175673,0.179618 -0.1756495,0.179638 -0.023088,-0.02479 c -0.012734,-0.0136 -0.053251,-0.06386 -0.089814,-0.111904 z M 6.6228911,10.85179 C 6.3809992,10.532706 6.2464618,10.2423 6.2245061,9.9918396 l -0.00781,-0.089073 0.1459822,-0.1500127 c 0.080289,-0.082509 0.1472564,-0.1487413 0.1487414,-0.1472564 0.00152,0.00152 0.017477,0.049976 0.035478,0.1076739 0.079903,0.2562092 0.2121865,0.4915456 0.441091,0.7847356 l 0.113867,0.145829 -0.1754105,0.179398 -0.1754332,0.179379 -0.034006,-0.03584 C 6.698292,10.946973 6.655854,10.895343 6.622924,10.851717 Z M 7.136327,10.426261 C 6.9685116,10.215235 6.8246117,9.9719979 6.7594994,9.7892796 6.7209358,9.6810631 6.6931225,9.539044 6.6966947,9.4686063 l 0.00284,-0.05601 0.1428285,-0.1428285 C 6.9209182,9.1912138 6.9864483,9.1282 6.9879403,9.129692 c 0.0015,0.0015 0.010239,0.032856 0.019373,0.069612 0.057305,0.2307739 0.2557297,0.5831648 0.4885995,0.867715 l 0.082242,0.1005 -0.1731497,0.177095 c -0.095163,0.09747 -0.1778464,0.176735 -0.1836067,0.176281 -0.00583,-3.11e-4 -0.044034,-0.04305 -0.085206,-0.09454 z M 7.6194803,9.9650792 C 7.3277726,9.5907557 7.1798036,9.2771821 7.1725783,9.0180176 l -0.00213,-0.076338 0.1417849,-0.141785 c 0.077982,-0.077982 0.1439836,-0.1395853 0.1467696,-0.1367993 0.00279,0.00279 0.020331,0.052731 0.039096,0.1110796 0.080466,0.2502776 0.2132957,0.4883773 0.4174632,0.7483095 0.046076,0.058677 0.096094,0.1225062 0.1111285,0.1418622 l 0.027347,0.035181 -0.1791487,0.175203 c -0.20548,0.2010844 -0.177007,0.1909544 -0.2554157,0.09034 z M 8.0552801,9.4413721 C 7.7951292,9.1005967 7.6544247,8.7906571 7.6447184,8.5370044 l -0.00256,-0.067027 0.1440129,-0.1440128 c 0.079207,-0.079207 0.1449383,-0.1430857 0.1461898,-0.1418341 0.00115,0.00115 0.020782,0.059055 0.043554,0.1285961 0.08046,0.2457409 0.2300223,0.5056626 0.4518703,0.7852941 0.049853,0.06285 0.091616,0.1183317 0.09279,0.123313 0.00115,0.00499 -0.076779,0.087979 -0.1732377,0.1844384 L 8.1719566,9.5811518 8.1453755,9.5528009 C 8.13076,9.5371976 8.0902414,9.4870643 8.0553493,9.4413762 Z M 8.5168832,8.9504642 C 8.2676942,8.6231638 8.1247039,8.3018613 8.1194844,8.0574957 l -0.00135,-0.063495 0.092825,-0.092825 0.092825,-0.092825 0.4102283,0.4102283 0.4102292,0.4102292 -0.238079,0.2380789 -0.23808,0.2380801 -0.033952,-0.035635 C 8.5954866,9.0496996 8.5516937,8.9962427 8.5168667,8.950488 Z M 8.1772251,7.4674661 c 0.00459,-0.072157 0.033294,-0.1631476 0.06278,-0.1990503 l 0.019796,-0.024152 0.7142376,0.7142376 0.7142383,0.7142381 -0.02415,0.019796 c -0.03591,0.029479 -0.1268967,0.058181 -0.1990501,0.062781 l -0.063758,0.00406 -0.61406,-0.61406 -0.6141002,-0.6141002 z m -0.3898972,-0.9887015 0.098894,-0.098894 1.3332438,1.3332439 1.3332433,1.3332433 -0.09889,0.098894 -0.09889,0.098895 -1.3332412,-1.333241 -1.333243,-1.333243 z M 7.627353,6.3877345 C 7.6119821,6.2911945 7.5662658,5.9918535 7.5175146,5.6685244 L 7.5094146,5.6148074 8.1759852,4.9481346 8.8425549,4.28146 9.2832935,4.348597 c 0.2424054,0.036925 0.4445105,0.068712 0.4491225,0.070637 0.0046,0.00196 -0.03232,0.044224 -0.08207,0.093982 L 9.5598705,4.6036864 9.2309446,4.4561653 C 9.0500406,4.3750341 8.9020275,4.3106033 8.9020288,4.3129892 c -8.48e-5,0.00231 0.1315853,0.080244 0.2924056,0.1730304 0.1608257,0.092782 0.2948817,0.1711691 0.297906,0.1741877 0.00304,0.00303 -0.3554747,0.366449 -0.7966536,0.8076278 C 8.2545078,5.9090142 7.8909624,6.2673977 7.8878017,6.2642369 7.8822579,6.2586932 7.8100734,6.1350044 7.6393315,5.8384493 7.5942705,5.7601811 7.5549694,5.6961468 7.5519932,5.696149 c -0.00284,4.24e-5 0.058709,0.1430621 0.137069,0.3179186 l 0.1424712,0.3179167 -0.089869,0.089869 c -0.049429,0.049429 -0.091162,0.088574 -0.092654,0.087082 -0.00156,-0.00156 -0.011289,-0.056077 -0.021655,-0.1211945 z m 2.88115,2.805395 c 0.07896,-0.078958 0.08981,-0.086981 0.109246,-0.081118 0.01188,0.00359 0.129994,0.055257 0.262468,0.1147953 0.29584,0.1329663 0.366042,0.1630942 0.357041,0.1532313 -0.0038,-0.00414 -0.132121,-0.080066 -0.285054,-0.1685608 -0.152938,-0.088495 -0.280663,-0.1635014 -0.283843,-0.1666806 -0.0031,-0.00311 0.355095,-0.3668328 0.796275,-0.8080125 0.441179,-0.4411792 0.804548,-0.7997399 0.807872,-0.7964165 0.003,0.00304 0.07794,0.1307709 0.166284,0.2836785 0.08834,0.1529083 0.164055,0.2797166 0.168254,0.2817983 0.0041,0.00199 -0.05673,-0.1394719 -0.135398,-0.3145652 l -0.142995,-0.3183086 0.0906,-0.090596 c 0.04983,-0.049826 0.09225,-0.086739 0.09423,-0.082072 0.0019,0.00459 0.03381,0.2068105 0.07072,0.4492007 l 0.06711,0.4407064 -0.665477,0.6656593 -0.665476,0.6656581 -0.03114,-0.00372 c -0.07253,-0.00866 -0.86203,-0.1307014 -0.865044,-0.1337151 -0.0016,-0.00163 0.03619,-0.042694 0.0844,-0.090901 z M 8.7469759,5.5191273 9.5491194,4.7169838 10.882363,6.0502277 12.215607,7.3834713 11.413463,8.1856148 10.611319,8.9877589 9.2780756,7.6545153 7.9448318,6.3212715 Z m 0.9596431,-0.9596426 0.09889,-0.098894 1.333243,1.3332438 1.333244,1.3332436 -0.09889,0.098894 -0.0989,0.098895 L 10.940967,5.9916236 9.6077234,4.6583798 Z m 1.113477,0.7032499 0.06227,-0.062267 0.42488,0.42488 0.42488,0.4248799 -0.06227,0.062266 -0.06227,0.062267 -0.42488,-0.4248798 -0.424881,-0.4248803 z"
     id="path1-7" />
  <rect
     style="opacity:0.3;fill:none;fill-opacity:0.996424;stroke:#000000;stroke-width:0.955221;stroke-dasharray:none;stroke-opacity:1;filter:url(#filter5421-3)"
     id="rect1-2-7-5"
     width="13.687567"
     height="13.591975"
     x="1.6227165"
     y="1.6705122"
     rx="2.8442214"
     ry="2.965905"
     transform="matrix(0.43046721,0,0,0.43046721,9.5627021,9.5627021)" />
  <rect
     style="fill:none;fill-opacity:1;stroke:{{colors.primary.default.hex}};stroke-width:0.411191;stroke-dasharray:none;stroke-opacity:1"
     id="rect1-2-3"
     width="5.8920484"
     height="5.8508992"
     x="10.261228"
     y="10.281802"
     rx="1.224344"
     ry="1.2767248" />
  <path
     id="path1"
     style="fill:{{colors.primary.default.hex}};fill-opacity:1;stroke:none;stroke-width:0.0587368;stroke-dasharray:none;stroke-dashoffset:2.2;stroke-opacity:0.6"
     d="m 14.168922,11.656658 c -0.06055,-2.6e-5 -0.125364,0.02435 -0.206481,0.07188 -0.193027,0.1131 -0.445472,0.166438 -0.792145,0.166438 -0.346641,0 -0.607506,-0.05448 -0.799384,-0.16692 -0.153862,-0.09017 -0.245719,-0.09136 -0.374847,-0.0043 -0.331514,0.223407 -0.581361,0.939687 -0.654655,1.875683 -0.04395,0.561277 -0.0029,0.857184 0.142315,1.023712 0.07004,0.08029 0.241969,0.06668 0.397039,-0.03184 0.13145,-0.08351 0.288072,-0.267793 0.475192,-0.559138 0.16909,-0.263274 0.373614,-0.349984 0.825918,-0.350725 0.451405,-6.81e-4 0.628801,0.08471 0.837013,0.404757 0.349331,0.536972 0.672221,0.723915 0.861617,0.498829 0.104925,-0.124694 0.12413,-0.24517 0.119159,-0.746797 -0.0091,-0.911235 -0.247248,-1.740202 -0.590491,-2.056592 -0.09141,-0.08427 -0.162394,-0.124918 -0.24025,-0.124951 z M 12.207851,12.1936 h 0.209374 0.209373 v 0.179464 0.179463 h 0.179465 0.179462 v 0.22433 0.224328 h -0.179462 -0.179465 v 0.194419 0.194419 h -0.189593 c -0.104158,0 -0.197928,-0.0093 -0.208892,-0.02026 -0.01096,-0.01096 -0.02025,-0.098 -0.02025,-0.193935 v -0.174644 h -0.179466 -0.179465 v -0.224328 -0.224329 h 0.179465 0.179463 v -0.179465 z m 1.706832,0 c 0.188883,0 0.269773,0.209278 0.133633,0.345419 -0.08658,0.08657 -0.165598,0.09337 -0.250863,0.02123 -0.147895,-0.125144 -0.0707,-0.366645 0.11723,-0.366645 z m -0.363268,0.383531 c 0.04717,3.2e-5 0.09465,0.01883 0.132184,0.0603 0.05851,0.06466 0.06483,0.212666 0.01207,0.281737 -0.103261,0.135182 -0.351207,0.04823 -0.351207,-0.123018 0,-0.12997 0.103198,-0.219094 0.206961,-0.219022 z m 0.741493,0.0073 c 0.05436,9.9e-4 0.10714,0.019 0.137972,0.05306 0.05851,0.06466 0.06482,0.212666 0.01206,0.281738 -0.109832,0.143783 -0.351209,0.04755 -0.351209,-0.139905 0,-0.05682 0.02277,-0.118403 0.05451,-0.14714 0.03629,-0.03285 0.0923,-0.04875 0.14666,-0.04775 z m -0.365199,0.386906 c 0.167454,0 0.248932,0.177621 0.147622,0.322262 -0.03463,0.04945 -0.07687,0.06657 -0.164026,0.06657 -0.100342,0 -0.123628,-0.01306 -0.164024,-0.09118 -0.07966,-0.154035 0.0073,-0.297659 0.180428,-0.297659 z" />
</svg>
