<?xml version="1.0" encoding="UTF-8" standalone="no"?>
<svg
   width="64"
   height="64"
   version="1.1"
   viewBox="0 0 16.933 16.933"
   id="svg7"
   sodipodi:docname="steam_icon_368260.svg"
   inkscape:version="1.4.3 (0d15f75042, 2025-12-25)"
   xmlns:inkscape="http://www.inkscape.org/namespaces/inkscape"
   xmlns:sodipodi="http://sodipodi.sourceforge.net/DTD/sodipodi-0.dtd"
   xmlns="http://www.w3.org/2000/svg"
   xmlns:svg="http://www.w3.org/2000/svg"
   xmlns:rdf="http://www.w3.org/1999/02/22-rdf-syntax-ns#"
   xmlns:cc="http://creativecommons.org/ns#"
   xmlns:dc="http://purl.org/dc/elements/1.1/">
  <sodipodi:namedview
     id="namedview7"
     pagecolor="#9c4444"
     bordercolor="#000000"
     borderopacity="0.25"
     inkscape:showpageshadow="2"
     inkscape:pageopacity="0.0"
     inkscape:pagecheckerboard="0"
     inkscape:deskcolor="#d1d1d1"
     inkscape:zoom="4.3531261"
     inkscape:cx="42.957635"
     inkscape:cy="45.025114"
     inkscape:window-width="1226"
     inkscape:window-height="669"
     inkscape:window-x="30"
     inkscape:window-y="150"
     inkscape:window-maximized="0"
     inkscape:current-layer="svg7"
     showgrid="false" />
  <defs
     id="defs2">
    <filter
       style="color-interpolation-filters:sRGB;"
       inkscape:label="Blur"
       id="filter5421"
       x="-0.12256455"
       y="-0.12342654"
       width="1.2451291"
       height="1.2468531">
      <feGaussianBlur
         stdDeviation="0.5 0.5"
         result="blur"
         id="feGaussianBlur5419" />
    </filter>
    <filter
       style="color-interpolation-filters:sRGB"
       inkscape:label="Blur"
       id="filter5421-3"
       x="-0.12256455"
       y="-0.12342654"
       width="1.2451291"
       height="1.2468531">
      <feGaussianBlur
         stdDeviation="0.5 0.5"
         result="blur"
         id="feGaussianBlur5419-6" />
    </filter>
  </defs>
  <metadata
     id="metadata2">
    <rdf:RDF>
      <cc:Work
         rdf:about="">
        <dc:format>image/svg+xml</dc:format>
        <dc:type
           rdf:resource="http://purl.org/dc/dcmitype/StillImage" />
      </cc:Work>
    </rdf:RDF>
  </metadata>
  <rect
     style="opacity:0.3;fill:none;fill-opacity:0.996424;stroke:#000000;stroke-width:0.955221;stroke-dasharray:none;stroke-opacity:1;filter:url(#filter5421)"
     id="rect1-2-7"
     width="13.687567"
     height="13.591975"
     x="1.6227165"
     y="1.6705122"
     rx="2.8442214"
     ry="2.965905" />
  <rect
     style="fill:none;fill-opacity:1;stroke:{{colors.primary.default.hex}};stroke-width:0.955221;stroke-dasharray:none;stroke-opacity:1"
     id="rect1-2"
     width="13.687567"
     height="13.591975"
     x="1.6227167"
     y="1.6705124"
     rx="2.8442214"
     ry="2.965905" />
  <path
     style="fill:{{colors.primary.default.hex}};fill-opacity:1;stroke:none;stroke-width:0.127365;stroke-dasharray:none;stroke-opacity:0.6"
     d="m 8.3354965,12.62195 c -0.049513,-0.0264 -0.087132,-0.06312 -0.1146318,-0.111846 -0.038301,-0.06789 -0.041341,-0.09044 -0.047277,-0.350963 L 8.1672361,11.880724 7.9238151,11.701297 7.6803937,11.521871 V 9.8866838 c 0,-1.4054622 -0.00338,-1.6417189 -0.024037,-1.6816702 C 7.6431417,8.1794438 7.4580189,7.86147 7.2449821,7.4983948 6.9526381,7.0001553 6.8613962,6.8320143 6.8729404,6.8128 6.881351,6.7988023 7.1893107,6.2505161 7.5572908,5.5943963 7.9252704,4.9382757 8.2476043,4.3801906 8.2735896,4.3542048 8.393058,4.2347383 8.6048347,4.2593457 8.7028249,4.4040819 8.724298,4.435797 9.0309258,4.9776361 9.384221,5.6081673 c 0.3532967,0.6305304 0.65327,1.1653603 0.666609,1.1885104 0.02361,0.040969 0.01394,0.059666 -0.3629396,0.7019727 C 9.474937,7.8615846 9.2898855,8.179449 9.276665,8.2050138 9.256004,8.2449658 9.252628,8.4812218 9.252628,9.8866838 v 1.6351872 l -0.2434215,0.179426 -0.2434211,0.179427 -0.00682,0.278417 c -0.00605,0.246961 -0.010876,0.286093 -0.042674,0.346368 -0.072257,0.136964 -0.2438858,0.189446 -0.3807949,0.116441 z M 7.9681597,6.958865 C 7.9924877,6.949615 8.0574537,6.904248 8.112529,6.8580514 8.375134,6.6377726 8.58055,6.6383308 8.8291436,6.8600114 8.8799646,6.9053284 8.9412449,6.9498944 8.9653238,6.9590484 9.1212307,7.0183326 9.3123729,6.9056886 9.344255,6.7357447 9.3644815,6.6279238 9.3246888,6.543894 9.195138,6.4208303 8.9770592,6.2136777 8.7488064,6.1177568 8.4747052,6.1180747 8.1893089,6.1184415 7.9450843,6.2218864 7.7268388,6.4349498 7.6146637,6.5444614 7.5995112,6.5665085 7.5897934,6.6343568 7.5750854,6.7370984 7.5900506,6.7941924 7.6511224,6.868288 7.7316774,6.966017 7.855975,7.0015348 7.9681596,6.958883 Z m -2.4791729,4.738837 c -0.029789,-0.01469 -0.074807,-0.05689 -0.1000464,-0.0938 -0.054185,-0.07924 -0.512047,-0.822082 -0.5539088,-0.898669 -0.026507,-0.04851 -0.029256,-0.132946 -0.033577,-1.0314532 -0.00319,-0.6623628 9.691e-4,-0.999815 0.012947,-1.0441781 0.034972,-0.1298815 0.1905665,-0.2297532 0.3200839,-0.2054556 0.065256,0.012243 0.1487847,0.067722 0.1942457,0.1290161 0.032207,0.043422 0.034753,0.07239 0.042449,0.4828212 l 0.00819,0.4366265 0.5720565,-1.0191813 C 6.2660633,7.8928825 6.5276921,7.4345848 6.532831,7.434992 c 0.00513,3.929e-4 0.1364709,0.2189768 0.2918513,0.4857082 l 0.2825108,0.484967 v 1.5519825 1.5519793 l -0.045038,0.009 c -0.178076,0.03593 -1.3624657,0.206345 -1.4320379,0.206048 -0.047831,-2.11e-4 -0.1113395,-0.01238 -0.1411259,-0.02706 z m 5.0165192,-0.08004 c -0.369311,-0.05757 -0.6733168,-0.104841 -0.6755687,-0.105048 -0.00233,-2.33e-4 -0.00418,-0.69935 -0.00418,-1.5536551 V 8.4056672 l 0.2825307,-0.484967 c 0.155381,-0.2667314 0.286714,-0.4853 0.291853,-0.4857082 0.005,-3.928e-4 0.266766,0.4578905 0.581398,1.0184404 l 0.572056,1.0191811 0.0082,-0.4366268 c 0.0077,-0.410432 0.01024,-0.4393984 0.04245,-0.4828204 0.04547,-0.061295 0.12899,-0.1167734 0.194245,-0.1290163 0.129518,-0.024299 0.285112,0.075575 0.320084,0.2054555 0.01194,0.044364 0.01614,0.3818153 0.01294,1.0441778 -0.0042,0.8985077 -0.007,0.9829577 -0.03357,1.0314537 -0.04196,0.07675 -0.499779,0.81951 -0.5541,0.898949 -0.06066,0.0887 -0.132381,0.121311 -0.262942,0.119547 -0.0572,-7.07e-4 -0.406139,-0.04852 -0.775451,-0.106079 z"
     id="path1-3" />
  <rect
     style="opacity:0.3;fill:none;fill-opacity:0.996424;stroke:#000000;stroke-width:0.955221;stroke-dasharray:none;stroke-opacity:1;filter:url(#filter5421-3)"
     id="rect1-2-7-5"
     width="13.687567"
     height="13.591975"
     x="1.6227165"
     y="1.6705122"
     rx="2.8442214"
     ry="2.965905"
     transform="matrix(0.43046721,0,0,0.43046721,9.5627021,9.5627021)" />
  <rect
     style="fill:none;fill-opacity:1;stroke:{{colors.primary.default.hex}};stroke-width:0.411191;stroke-dasharray:none;stroke-opacity:1"
     id="rect1-2-3"
     width="5.8920484"
     height="5.8508992"
     x="10.261228"
     y="10.281802"
     rx="1.224344"
     ry="1.2767248" />
  <path
     id="path1"
     style="fill:{{colors.primary.default.hex}};fill-opacity:1;stroke:none;stroke-width:0.0587368;stroke-dasharray:none;stroke-dashoffset:2.2;stroke-opacity:0.6"
     d="m 14.168922,11.656658 c -0.06055,-2.6e-5 -0.125364,0.02435 -0.206481,0.07188 -0.193027,0.1131 -0.445472,0.166438 -0.792145,0.166438 -0.346641,0 -0.607506,-0.05448 -0.799384,-0.16692 -0.153862,-0.09017 -0.245719,-0.09136 -0.374847,-0.0043 -0.331514,0.223407 -0.581361,0.939687 -0.654655,1.875683 -0.04395,0.561277 -0.0029,0.857184 0.142315,1.023712 0.07004,0.08029 0.241969,0.06668 0.397039,-0.03184 0.13145,-0.08351 0.288072,-0.267793 0.475192,-0.559138 0.16909,-0.263274 0.373614,-0.349984 0.825918,-0.350725 0.451405,-6.81e-4 0.628801,0.08471 0.837013,0.404757 0.349331,0.536972 0.672221,0.723915 0.861617,0.498829 0.104925,-0.124694 0.12413,-0.24517 0.119159,-0.746797 -0.0091,-0.911235 -0.247248,-1.740202 -0.590491,-2.056592 -0.09141,-0.08427 -0.162394,-0.124918 -0.24025,-0.124951 z M 12.207851,12.1936 h 0.209374 0.209373 v 0.179464 0.179463 h 0.179465 0.179462 v 0.22433 0.224328 h -0.179462 -0.179465 v 0.194419 0.194419 h -0.189593 c -0.104158,0 -0.197928,-0.0093 -0.208892,-0.02026 -0.01096,-0.01096 -0.02025,-0.098 -0.02025,-0.193935 v -0.174644 h -0.179466 -0.179465 v -0.224328 -0.224329 h 0.179465 0.179463 v -0.179465 z m 1.706832,0 c 0.188883,0 0.269773,0.209278 0.133633,0.345419 -0.08658,0.08657 -0.165598,0.09337 -0.250863,0.02123 -0.147895,-0.125144 -0.0707,-0.366645 0.11723,-0.366645 z m -0.363268,0.383531 c 0.04717,3.2e-5 0.09465,0.01883 0.132184,0.0603 0.05851,0.06466 0.06483,0.212666 0.01207,0.281737 -0.103261,0.135182 -0.351207,0.04823 -0.351207,-0.123018 0,-0.12997 0.103198,-0.219094 0.206961,-0.219022 z m 0.741493,0.0073 c 0.05436,9.9e-4 0.10714,0.019 0.137972,0.05306 0.05851,0.06466 0.06482,0.212666 0.01206,0.281738 -0.109832,0.143783 -0.351209,0.04755 -0.351209,-0.139905 0,-0.05682 0.02277,-0.118403 0.05451,-0.14714 0.03629,-0.03285 0.0923,-0.04875 0.14666,-0.04775 z m -0.365199,0.386906 c 0.167454,0 0.248932,0.177621 0.147622,0.322262 -0.03463,0.04945 -0.07687,0.06657 -0.164026,0.06657 -0.100342,0 -0.123628,-0.01306 -0.164024,-0.09118 -0.07966,-0.154035 0.0073,-0.297659 0.180428,-0.297659 z" />
</svg>
