<?xml version="1.0" encoding="UTF-8" standalone="no"?>
<svg
   width="64"
   height="64"
   version="1.1"
   viewBox="0 0 16.933 16.933"
   id="svg7"
   sodipodi:docname="abcd.svg"
   inkscape:version="1.4.3 (0d15f75042, 2025-12-25)"
   xmlns:inkscape="http://www.inkscape.org/namespaces/inkscape"
   xmlns:sodipodi="http://sodipodi.sourceforge.net/DTD/sodipodi-0.dtd"
   xmlns="http://www.w3.org/2000/svg"
   xmlns:svg="http://www.w3.org/2000/svg"
   xmlns:rdf="http://www.w3.org/1999/02/22-rdf-syntax-ns#"
   xmlns:cc="http://creativecommons.org/ns#"
   xmlns:dc="http://purl.org/dc/elements/1.1/">
  <sodipodi:namedview
     id="namedview7"
     pagecolor="#9c4444"
     bordercolor="#000000"
     borderopacity="0.25"
     inkscape:showpageshadow="2"
     inkscape:pageopacity="0.0"
     inkscape:pagecheckerboard="0"
     inkscape:deskcolor="#d1d1d1"
     inkscape:zoom="4.3531261"
     inkscape:cx="43.187354"
     inkscape:cy="45.254834"
     inkscape:window-width="1226"
     inkscape:window-height="669"
     inkscape:window-x="109"
     inkscape:window-y="119"
     inkscape:window-maximized="0"
     inkscape:current-layer="svg7"
     showgrid="false" />
  <defs
     id="defs2">
    <filter
       style="color-interpolation-filters:sRGB;"
       inkscape:label="Blur"
       id="filter5421"
       x="-0.12256455"
       y="-0.12342654"
       width="1.2451291"
       height="1.2468531">
      <feGaussianBlur
         stdDeviation="0.5 0.5"
         result="blur"
         id="feGaussianBlur5419" />
    </filter>
    <filter
       style="color-interpolation-filters:sRGB"
       inkscape:label="Blur"
       id="filter5421-3"
       x="-0.12256455"
       y="-0.12342654"
       width="1.2451291"
       height="1.2468531">
      <feGaussianBlur
         stdDeviation="0.5 0.5"
         result="blur"
         id="feGaussianBlur5419-6" />
    </filter>
  </defs>
  <metadata
     id="metadata2">
    <rdf:RDF>
      <cc:Work
         rdf:about="">
        <dc:format>image/svg+xml</dc:format>
        <dc:type
           rdf:resource="http://purl.org/dc/dcmitype/StillImage" />
      </cc:Work>
    </rdf:RDF>
  </metadata>
  <rect
     style="opacity:0.3;fill:none;fill-opacity:0.996424;stroke:#000000;stroke-width:0.955221;stroke-dasharray:none;stroke-opacity:1;filter:url(#filter5421)"
     id="rect1-2-7"
     width="13.687567"
     height="13.591975"
     x="1.6227165"
     y="1.6705122"
     rx="2.8442214"
     ry="2.965905" />
  <rect
     style="fill:none;fill-opacity:1;stroke:{{colors.primary.default.hex}};stroke-width:0.955221;stroke-dasharray:none;stroke-opacity:1"
     id="rect1-2"
     width="13.687567"
     height="13.591975"
     x="1.6227167"
     y="1.6705124"
     rx="2.8442214"
     ry="2.965905" />
  <path
     style="fill:{{colors.primary.default.hex}};fill-opacity:1;stroke-width:0.0133313"
     d="M 7.7241393,12.516 C 7.7130623,12.50266 7.6592053,12.361338 7.6044537,12.201962 7.4094797,11.634417 7.1434732,11.082354 6.9058412,10.752078 c -0.0844,-0.117304 -0.2693498,-0.311063 -0.2969224,-0.311063 -0.052914,0 -0.036395,0.241677 0.030375,0.444376 0.08374,0.25421 0.2925905,0.639359 0.5094207,0.939439 0.1411863,0.195388 0.1759589,0.322585 0.088187,0.322585 -0.049064,0 -0.1219844,-0.08347 -0.238663,-0.273222 -0.137278,-0.223244 -0.2563443,-0.3818 -0.3583719,-0.477236 -0.1107775,-0.103619 -0.1596224,-0.120248 -0.2014588,-0.06858 -0.038925,0.04807 -0.032762,0.06521 0.086165,0.239591 0.05268,0.07725 0.089387,0.146616 0.081574,0.154165 -0.032717,0.03162 -0.121734,-0.01285 -0.2364284,-0.118105 C 6.2012309,11.44941 6.14906,11.435435 5.9371635,11.488179 5.7306778,11.539569 5.4987417,11.554639 5.3527396,11.526119 4.855214,11.428969 4.4553086,10.977309 4.2660771,10.298819 4.1222227,9.783023 4.1321799,9.1407831 4.291019,8.6901383 4.4009721,8.3781862 4.4817705,8.2595138 4.8026488,7.9386743 5.0666282,7.6747284 5.1376221,7.570061 5.1555935,7.4183224 c 0.010826,-0.091398 0.043074,-0.1285321 0.079763,-0.091844 0.031387,0.031388 0.020423,0.2366087 -0.017822,0.3336434 -0.019307,0.048984 -0.087707,0.1758074 -0.1519935,0.2818209 -0.1596176,0.263221 -0.192728,0.3551716 -0.2022223,0.5615966 -0.00892,0.1938008 0.024278,0.3119954 0.1250122,0.4451152 0.031454,0.041571 0.068042,0.090217 0.081302,0.1081047 0.013264,0.017885 0.034949,0.1308483 0.048193,0.2510247 0.04198,0.3808879 0.144873,0.6290733 0.3453895,0.8330961 0.1526911,0.155361 0.2699187,0.214612 0.4454539,0.225146 0.1838383,0.01103 0.2809353,-0.03889 0.3805068,-0.195639 0.045988,-0.0724 0.041481,-0.3568222 -0.00887,-0.5596139 C 6.2350374,9.4284606 6.1452498,9.2237298 6.0675173,9.1255846 5.987504,9.0245578 5.8583763,8.9681755 5.6574405,8.9465262 5.3493533,8.9133316 5.3070349,8.9000605 5.2146202,8.8076455 4.9938317,8.5868581 5.0356377,8.1809924 5.2930082,8.0466388 5.5173402,7.9295325 6.0275,8.2099615 6.2942789,8.5970268 6.449022,8.82154 6.540147,9.0262346 6.7393122,9.5967015 c 0.1523437,0.4363545 0.2115431,0.5852695 0.3196124,0.8039665 0.08216,0.166269 0.2163035,0.342523 0.2606861,0.342523 0.034708,0 0.079544,-0.05891 0.091913,-0.120748 0.014176,-0.07088 0.056036,-0.110405 0.078475,-0.0741 0.024873,0.04025 0.048852,0.2348 0.069369,0.562873 0.02424,0.387582 0.068255,0.61505 0.1901556,0.982669 0.1112825,0.335596 0.1201617,0.431797 0.040709,0.441031 -0.025279,0.0029 -0.055021,-0.0056 -0.066096,-0.01893 z m -2.137455,-1.274614 c 0.1779252,-0.09077 0.2231882,-0.297018 0.1153315,-0.52552 -0.1044563,-0.221298 -0.2758897,-0.335423 -0.5054095,-0.336464 -0.236823,-0.0012 -0.3407758,0.08554 -0.3525386,0.293704 -0.00874,0.154723 0.042428,0.258162 0.1984064,0.401089 0.210569,0.19295 0.3872973,0.247242 0.5442102,0.167191 z m 3.0804905,1.249757 c -0.032208,-0.013 -0.029078,-0.484548 0.00491,-0.747199 0.048592,-0.374989 0.1286368,-0.665416 0.3134783,-1.137394 0.1541327,-0.393562 0.2878412,-0.593528 0.6811776,-1.0187363 0.5761763,-0.6228571 0.7043203,-0.8524332 0.7748133,-1.3881293 0.06548,-0.4976936 0.147244,-0.6517383 0.417853,-0.7873685 0.139814,-0.070074 0.274348,-0.098158 0.611726,-0.1276904 0.398357,-0.034876 0.563352,-0.074425 0.698971,-0.167555 0.05694,-0.039094 0.11045,-0.071082 0.118934,-0.071082 0.06728,0 -0.01317,0.189381 -0.136415,0.3211565 -0.12077,0.1291114 -0.223442,0.1762524 -0.425521,0.1953714 -0.202257,0.019131 -0.242619,0.028477 -0.345897,0.08006 -0.266052,0.1328811 -0.481681,0.4269701 -0.637781,0.8698519 -0.07074,0.2006939 -0.111914,0.2708351 -0.250417,0.4266 -0.284719,0.3202018 -0.334375,0.5137494 -0.154365,0.6016882 0.175411,0.085693 0.550108,-0.088151 0.710356,-0.3295755 0.145034,-0.2185011 0.173536,-0.4334334 0.08441,-0.6365001 -0.06341,-0.1444641 -0.06508,-0.173602 -0.01563,-0.2717776 0.08816,-0.1750395 0.27022,-0.3343124 0.502543,-0.439653 0.193127,-0.087567 0.594049,-0.1987421 0.683123,-0.1894268 0.150186,0.015708 0.319105,0.2156542 0.405139,0.4795612 0.06329,0.1940762 0.0787,0.5232829 0.03469,0.7404283 -0.06711,0.3312218 -0.216794,0.6276894 -0.432193,0.8560216 -0.199741,0.2117371 -0.433533,0.3410414 -1.003776,0.5551574 -0.13964,0.05244 -0.293883,0.115642 -0.342766,0.140464 -0.224104,0.113799 -0.468346,0.340684 -0.760645,0.706602 -0.09762,0.122201 -0.18886,0.228856 -0.202757,0.237004 -0.044802,0.02628 -0.076446,-0.0014 -0.076446,-0.06709 0,-0.132254 0.13538,-0.351844 0.370258,-0.600559 0.178157,-0.188654 0.251866,-0.292073 0.251866,-0.353385 0,-0.101053 -0.07462,-0.08028 -0.311064,0.08662 -0.3815489,0.269307 -0.6636744,0.676423 -0.8263738,1.192478 -0.040385,0.128072 -0.083956,0.234775 -0.098104,0.240203 -0.039179,0.01504 -0.079634,-0.03705 -0.071158,-0.09162 0.00408,-0.02649 0.011968,-0.101107 0.017437,-0.165779 0.024384,-0.28801 0.1310552,-0.553618 0.3204085,-0.797827 0.3014432,-0.388765 0.379187,-0.568882 0.2518466,-0.583462 -0.1361375,-0.01558 -0.4898952,0.341055 -0.6669046,0.672337 -0.1433983,0.268378 -0.2426737,0.610224 -0.3406981,1.17315 -0.052268,0.300173 -0.084968,0.411223 -0.1199608,0.407423 -0.00711,-7.59e-4 -0.022914,-0.0055 -0.035143,-0.01038 z m 2.0642572,-2.458159 c 0.116901,-0.044442 0.295375,-0.2687257 0.295375,-0.3711826 0,-0.057448 -0.01354,-0.065294 -0.09776,-0.05666 -0.117034,0.011981 -0.43549,0.27514 -0.43549,0.3598651 0,0.023265 0.0096,0.051896 0.02131,0.06364 0.02553,0.02554 0.154043,0.02812 0.216547,0.0042 z m 1.058174,-0.1705914 c 0.264467,-0.1206827 0.481451,-0.5016649 0.481451,-0.8453447 0,-0.23634 -0.08215,-0.3596358 -0.239414,-0.3593104 -0.252878,5.762e-4 -0.637219,0.4405413 -0.72107,0.8255319 -0.02953,0.1355924 -0.01597,0.3054359 0.02839,0.3551558 0.08798,0.098654 0.266208,0.1081318 0.45065,0.023974 z M 8.2015026,11.842482 C 8.1449855,11.749546 8.1192846,11.575064 8.0144876,10.572837 7.9487994,9.9446229 7.8935469,9.6558181 7.7985571,9.4441505 7.7163874,9.2610523 7.5881068,9.1959065 7.508647,9.2969239 c -0.033509,0.042603 -0.03684,0.070673 -0.03684,0.3104367 0,0.2380488 -0.00319,0.2653046 -0.032801,0.2811572 C 7.3349892,9.9441864 7.2294897,9.7150672 7.1162354,9.1875423 7.0577043,8.9149116 7.009179,8.8017141 6.874816,8.6243605 6.8086465,8.5370205 6.7785819,8.4809017 6.7785819,8.4447318 c 0,-0.037536 0.042016,-0.1111296 0.1466436,-0.2568648 C 7.0058794,8.075524 7.0896637,7.971825 7.1114125,7.9574242 7.1331581,7.9430205 7.2251469,7.9154798 7.3158247,7.8962069 7.4167627,7.8747651 7.5444141,7.8304988 7.6450179,7.7820688 8.0344261,7.594607 8.2031756,7.2737998 8.1476055,6.8266083 8.0814941,6.2945872 7.7586085,5.9180826 7.3480851,5.8943185 7.1403497,5.8822853 7.0909597,5.8967283 6.9796641,6.0019842 6.5763483,6.383424 6.3940717,7.1748437 6.6483967,7.4403026 6.7398874,7.5357982 6.8217991,7.498319 7.0982901,7.2344183 7.2131462,7.1247944 7.2505729,7.0979068 7.2551593,7.121722 7.2711058,7.2045232 6.8261833,7.8043834 6.6224956,7.9747015 6.4940822,8.0820778 6.4204614,8.1087323 6.3606075,8.0695131 6.2983556,8.0287248 6.1321014,7.7897181 6.0504822,7.6236752 5.6694262,6.8484777 5.8847901,5.775862 6.5502145,5.134767 6.7333257,4.9583507 6.8406734,4.8818192 7.054094,4.7755347 7.3494029,4.6284697 7.6359799,4.5582231 7.9961688,4.544612 8.5194207,4.5248361 9.0622134,4.6824822 9.468073,4.9720972 9.6043711,5.0693576 9.8547821,5.2944277 9.8841338,5.346054 9.927953,5.4231295 9.9098603,5.4577813 9.7003665,5.6980693 9.5867279,5.8284095 9.3940361,6.0610316 9.2721587,6.2150078 9.1502834,6.3689837 9.0430417,6.4949637 9.0338427,6.4949637 c -0.043011,0 -0.029065,-0.061905 0.046056,-0.2043301 0.088918,-0.1685903 0.09093,-0.2029341 0.015891,-0.2711521 -0.030166,-0.027423 -0.066257,-0.039993 -0.1148082,-0.039993 -0.3272755,0 -0.604143,0.5914414 -0.512287,1.0943413 0.043924,0.2404492 0.2114153,0.4667855 0.4297993,0.5807828 0.1035723,0.054064 0.1225411,0.057862 0.2889722,0.057896 0.1653487,4.06e-5 0.1866027,-0.00413 0.2963395,-0.058156 C 9.7497114,7.5234491 9.9238913,7.2232131 9.9243944,6.8949003 9.9245933,6.7483203 9.9003905,6.6735206 9.8098408,6.5412581 9.697848,6.3776808 9.6759059,6.3284784 9.6759059,6.2409485 c 0,-0.1320778 0.086939,-0.2762174 0.2912142,-0.4828115 0.2324249,-0.2350642 0.3271959,-0.2844339 0.6139969,-0.3198553 0.140154,-0.017309 0.216889,-0.035424 0.248655,-0.058697 0.07365,-0.053953 0.152515,-0.1851726 0.176954,-0.2943821 0.01486,-0.066449 0.03154,-0.1011103 0.04858,-0.1011103 0.04195,0 0.0479,0.045108 0.02583,0.1960362 -0.02378,0.1626583 -0.05195,0.2394283 -0.115517,0.3149875 -0.04932,0.058633 -0.08078,0.073427 -0.276205,0.1299318 -0.182776,0.052851 -0.270177,0.1168438 -0.332267,0.243282 -0.06468,0.1317179 -0.06447,0.27728 9e-4,0.5377622 0.125708,0.5019858 0.0076,0.8696914 -0.4587286,1.4288373 C 9.4554403,8.3670811 9.4067958,8.452755 9.3010184,8.8886513 9.1624567,9.4596554 9.0560498,9.840405 9.0256489,9.873999 8.987524,9.916146 8.9534572,9.917118 8.9320783,9.876699 8.9230288,9.859617 8.9124124,9.7056293 8.9084812,9.5345442 c -0.00751,-0.3257068 -0.021838,-0.391049 -0.085845,-0.391049 -0.085989,0 -0.1347019,0.208456 -0.1599189,0.6843373 C 8.6209,10.617112 8.5998436,10.791356 8.5441041,10.809618 8.462988,10.836195 8.4363329,10.43501 8.466966,9.6486768 8.5115691,8.5038051 8.462403,7.8765515 8.3173618,7.7402998 c -0.033824,-0.031774 -0.049138,-0.0359 -0.077369,-0.02079 -0.077273,0.041353 -0.1619011,0.2474289 -0.250698,0.6104579 -0.064738,0.264668 -0.067735,0.3210453 -0.019629,0.3691486 0.049692,0.049692 0.067271,0.045355 0.1442401,-0.035549 0.037202,-0.039109 0.075673,-0.0711 0.085497,-0.0711 0.061698,0 0.075545,0.1867489 0.038223,0.515475 -0.011653,0.1026512 -0.025782,0.4315587 -0.031415,0.730908 -0.010715,0.5701767 0.00303,0.8667527 0.066578,1.4371307 0.035072,0.314771 0.042583,0.4933 0.023718,0.563641 -0.016869,0.06288 -0.057616,0.06415 -0.094847,0.0029 z M 9.6327381,8.9199821 c -0.034456,-0.034461 -0.034974,-0.067435 -0.0028,-0.1744577 0.030097,-0.099975 0.1004726,-0.1968505 0.1768643,-0.2434329 0.063085,-0.03847 0.1643541,-0.045306 0.176082,-0.011884 0.032958,0.093932 -0.2048723,0.4577063 -0.2992499,0.4577063 -0.012643,0 -0.035572,-0.012576 -0.050929,-0.027928 z M 5.0563314,6.9149955 c -0.011805,-0.014233 -0.023066,-0.048555 -0.025027,-0.076289 -0.0028,-0.039641 0.00473,-0.051601 0.035231,-0.05596 0.044932,-0.00638 0.08201,0.048352 0.07342,0.1084462 -0.00665,0.046533 -0.053654,0.059918 -0.083622,0.0238 z m 2.3443751,-0.045495 c 0,-0.034699 0.019972,-0.073236 0.059866,-0.1155379 0.066343,-0.070341 0.1272526,-0.082411 0.1443319,-0.0286 0.022338,0.070381 -0.076404,0.1961965 -0.1539729,0.1961965 -0.043686,0 -0.050227,-0.0068 -0.050225,-0.052059 z M 12.460657,6.7319598 c -0.04505,-0.045059 0.03193,-0.2116919 0.106459,-0.2303965 0.0673,-0.016892 0.08714,0.014627 0.06201,0.098522 -0.02841,0.094885 -0.127717,0.1726123 -0.168454,0.1318743 z M 11.045784,4.613061 c -0.02413,-0.045092 -0.02443,-0.1366096 -6.29e-4,-0.1811658 0.01042,-0.019477 0.03707,-0.034381 0.06149,-0.034381 0.06035,0 0.09607,0.1127862 0.05979,0.1887142 -0.02998,0.062754 -0.09389,0.076959 -0.120714,0.026832 z"
     id="path1-3" />
  <rect
     style="opacity:0.3;fill:none;fill-opacity:0.996424;stroke:#000000;stroke-width:0.955221;stroke-dasharray:none;stroke-opacity:1;filter:url(#filter5421-3)"
     id="rect1-2-7-5"
     width="13.687567"
     height="13.591975"
     x="1.6227165"
     y="1.6705122"
     rx="2.8442214"
     ry="2.965905"
     transform="matrix(0.43046721,0,0,0.43046721,9.5627021,9.5627021)" />
  <rect
     style="fill:none;fill-opacity:1;stroke:{{colors.primary.default.hex}};stroke-width:0.411191;stroke-dasharray:none;stroke-opacity:1"
     id="rect1-2-3"
     width="5.8920484"
     height="5.8508992"
     x="10.261228"
     y="10.281802"
     rx="1.224344"
     ry="1.2767248" />
  <path
     id="path1"
     style="fill:{{colors.primary.default.hex}};fill-opacity:1;stroke:none;stroke-width:0.0587368;stroke-dasharray:none;stroke-dashoffset:2.2;stroke-opacity:0.6"
     d="m 14.168922,11.656658 c -0.06055,-2.6e-5 -0.125364,0.02435 -0.206481,0.07188 -0.193027,0.1131 -0.445472,0.166438 -0.792145,0.166438 -0.346641,0 -0.607506,-0.05448 -0.799384,-0.16692 -0.153862,-0.09017 -0.245719,-0.09136 -0.374847,-0.0043 -0.331514,0.223407 -0.581361,0.939687 -0.654655,1.875683 -0.04395,0.561277 -0.0029,0.857184 0.142315,1.023712 0.07004,0.08029 0.241969,0.06668 0.397039,-0.03184 0.13145,-0.08351 0.288072,-0.267793 0.475192,-0.559138 0.16909,-0.263274 0.373614,-0.349984 0.825918,-0.350725 0.451405,-6.81e-4 0.628801,0.08471 0.837013,0.404757 0.349331,0.536972 0.672221,0.723915 0.861617,0.498829 0.104925,-0.124694 0.12413,-0.24517 0.119159,-0.746797 -0.0091,-0.911235 -0.247248,-1.740202 -0.590491,-2.056592 -0.09141,-0.08427 -0.162394,-0.124918 -0.24025,-0.124951 z M 12.207851,12.1936 h 0.209374 0.209373 v 0.179464 0.179463 h 0.179465 0.179462 v 0.22433 0.224328 h -0.179462 -0.179465 v 0.194419 0.194419 h -0.189593 c -0.104158,0 -0.197928,-0.0093 -0.208892,-0.02026 -0.01096,-0.01096 -0.02025,-0.098 -0.02025,-0.193935 v -0.174644 h -0.179466 -0.179465 v -0.224328 -0.224329 h 0.179465 0.179463 v -0.179465 z m 1.706832,0 c 0.188883,0 0.269773,0.209278 0.133633,0.345419 -0.08658,0.08657 -0.165598,0.09337 -0.250863,0.02123 -0.147895,-0.125144 -0.0707,-0.366645 0.11723,-0.366645 z m -0.363268,0.383531 c 0.04717,3.2e-5 0.09465,0.01883 0.132184,0.0603 0.05851,0.06466 0.06483,0.212666 0.01207,0.281737 -0.103261,0.135182 -0.351207,0.04823 -0.351207,-0.123018 0,-0.12997 0.103198,-0.219094 0.206961,-0.219022 z m 0.741493,0.0073 c 0.05436,9.9e-4 0.10714,0.019 0.137972,0.05306 0.05851,0.06466 0.06482,0.212666 0.01206,0.281738 -0.109832,0.143783 -0.351209,0.04755 -0.351209,-0.139905 0,-0.05682 0.02277,-0.118403 0.05451,-0.14714 0.03629,-0.03285 0.0923,-0.04875 0.14666,-0.04775 z m -0.365199,0.386906 c 0.167454,0 0.248932,0.177621 0.147622,0.322262 -0.03463,0.04945 -0.07687,0.06657 -0.164026,0.06657 -0.100342,0 -0.123628,-0.01306 -0.164024,-0.09118 -0.07966,-0.154035 0.0073,-0.297659 0.180428,-0.297659 z" />
</svg>
