<?xml version="1.0" encoding="UTF-8" standalone="no"?>
<svg
   width="64"
   height="64"
   version="1.1"
   viewBox="0 0 16.933 16.933"
   id="svg7"
   sodipodi:docname="steam_icon_368260.svg"
   inkscape:version="1.4.3 (0d15f75042, 2025-12-25)"
   xmlns:inkscape="http://www.inkscape.org/namespaces/inkscape"
   xmlns:sodipodi="http://sodipodi.sourceforge.net/DTD/sodipodi-0.dtd"
   xmlns="http://www.w3.org/2000/svg"
   xmlns:svg="http://www.w3.org/2000/svg"
   xmlns:rdf="http://www.w3.org/1999/02/22-rdf-syntax-ns#"
   xmlns:cc="http://creativecommons.org/ns#"
   xmlns:dc="http://purl.org/dc/elements/1.1/">
  <sodipodi:namedview
     id="namedview7"
     pagecolor="#9c4444"
     bordercolor="#000000"
     borderopacity="0.25"
     inkscape:showpageshadow="2"
     inkscape:pageopacity="0.0"
     inkscape:pagecheckerboard="0"
     inkscape:deskcolor="#d1d1d1"
     inkscape:zoom="4.3531261"
     inkscape:cx="42.957635"
     inkscape:cy="45.025114"
     inkscape:window-width="1226"
     inkscape:window-height="669"
     inkscape:window-x="30"
     inkscape:window-y="150"
     inkscape:window-maximized="0"
     inkscape:current-layer="svg7"
     showgrid="false" />
  <defs
     id="defs2">
    <filter
       style="color-interpolation-filters:sRGB;"
       inkscape:label="Blur"
       id="filter5421"
       x="-0.12256455"
       y="-0.12342654"
       width="1.2451291"
       height="1.2468531">
      <feGaussianBlur
         stdDeviation="0.5 0.5"
         result="blur"
         id="feGaussianBlur5419" />
    </filter>
    <filter
       style="color-interpolation-filters:sRGB"
       inkscape:label="Blur"
       id="filter5421-3"
       x="-0.12256455"
       y="-0.12342654"
       width="1.2451291"
       height="1.2468531">
      <feGaussianBlur
         stdDeviation="0.5 0.5"
         result="blur"
         id="feGaussianBlur5419-6" />
    </filter>
  </defs>
  <metadata
     id="metadata2">
    <rdf:RDF>
      <cc:Work
         rdf:about="">
        <dc:format>image/svg+xml</dc:format>
        <dc:type
           rdf:resource="http://purl.org/dc/dcmitype/StillImage" />
      </cc:Work>
    </rdf:RDF>
  </metadata>
  <rect
     style="opacity:0.3;fill:none;fill-opacity:0.996424;stroke:#000000;stroke-width:0.955221;stroke-dasharray:none;stroke-opacity:1;filter:url(#filter5421)"
     id="rect1-2-7"
     width="13.687567"
     height="13.591975"
     x="1.6227165"
     y="1.6705122"
     rx="2.8442214"
     ry="2.965905" />
  <rect
     style="fill:none;fill-opacity:1;stroke:{{colors.primary.default.hex}};stroke-width:0.955221;stroke-dasharray:none;stroke-opacity:1"
     id="rect1-2"
     width="13.687567"
     height="13.591975"
     x="1.6227167"
     y="1.6705124"
     rx="2.8442214"
     ry="2.965905" />
  <path
     style="fill:{{colors.primary.default.hex}};fill-opacity:1;stroke:none;stroke-width:0.1213;stroke-dasharray:none;stroke-opacity:0.6"
     d="m 12.230176,11.421444 c 0,-0.04308 0.05665,-0.144529 0.125896,-0.225427 0.258767,-0.30231 0.256615,-0.797208 -0.0048,-1.086479 -0.06976,-0.07722 -0.158353,-0.1503944 -0.19687,-0.1626209 -0.127686,-0.040527 -0.151116,-0.1446741 -0.06528,-0.290154 0.140122,-0.2374878 0.07963,-0.6671744 -0.124765,-0.8863014 -0.09,-0.096484 -0.321401,-0.2245347 -0.40576,-0.2245347 -0.04439,0 -0.05107,-0.031384 -0.03369,-0.1582572 C 11.563327,8.1075703 11.352287,7.7663875 11.064891,7.643927 10.911695,7.57865 10.600795,7.572165 10.489127,7.631933 10.390037,7.684963 10.33005,7.653925 10.220745,7.4930392 9.9500887,7.0945666 9.2297525,7.1547663 9.0596485,7.5900795 9.0201661,7.6911168 8.9535695,7.6934807 8.7991295,7.5993231 8.645617,7.5057252 8.4341108,7.506648 8.2376144,7.6018377 8.0422828,7.6963965 7.9197037,7.8864599 7.9111689,8.1080064 7.9048537,8.2721573 7.9041963,8.2729392 7.7643739,8.2826005 7.5420444,8.2979577 7.4731633,8.3212021 7.3548772,8.4207311 7.2879603,8.4770453 7.2346899,8.5639725 7.220388,8.6402082 7.1941228,8.7802129 7.1180089,8.8372963 6.9575916,8.8372963 c -0.058701,0 -0.1483855,0.032777 -0.1993061,0.072833 C 6.6428576,9.0009238 6.6096685,9.0008317 6.4203886,8.9091336 6.2924812,8.8472164 6.2512067,8.8421876 6.1631044,8.8777502 6.0167094,8.9368508 5.9207277,8.9246801 5.7163726,8.8211146 5.4626932,8.6925624 5.254029,8.4398566 5.1658635,8.1544143 5.0795624,7.8749995 5.0683687,7.3494011 5.14279,7.0711973 5.3034606,6.4706571 5.7077151,6.1062791 6.2133355,6.1062791 c 0.1902593,0 0.4859502,0.091381 0.6090734,0.1882304 0.2775945,0.2183546 0.3140634,0.7569931 0.07082,1.0460642 C 6.744638,7.5171651 6.5263522,7.5799264 6.2125764,7.5362791 6.0675688,7.5161051 5.9366383,7.5066037 5.9216157,7.5151516 c -0.074113,0.042169 -0.014774,0.1641567 0.1247856,0.2565135 0.1364122,0.090272 0.1842872,0.1006515 0.4642662,0.1006515 0.3687682,0 0.5229398,-0.061321 0.7560124,-0.3006423 C 7.4930958,7.3391653 7.5799701,7.0779428 7.5618066,6.6842614 7.5496766,6.421351 7.5281093,6.3311224 7.4295309,6.1308796 7.2882909,5.8439813 7.0622474,5.6322345 6.7735804,5.5164145 6.6020295,5.4475844 6.4985604,5.4338069 6.1492032,5.433272 5.75257,5.4326434 5.7173998,5.4388093 5.4832991,5.5497004 4.9909813,5.7828943 4.6341291,6.2437846 4.4687744,6.8600028 4.3559035,7.2806289 4.3560408,8.053305 4.4693507,8.4532684 c 0.1521819,0.5385782 0.4292821,0.9482621 0.8272376,1.2230365 0.2659026,0.1835984 0.7766725,0.3624261 1.0388938,0.3637301 0.1466898,7.6e-4 0.2589039,0.02093 0.3034486,0.05463 0.1029191,0.07784 0.2864058,0.06559 0.404088,-0.02696 0.082265,-0.06472 0.1446888,-0.079254 0.3193071,-0.074421 0.2143361,0.00585 0.4257508,-0.062505 0.4257508,-0.1378404 0,-0.059406 0.3722948,-0.27744 0.5203373,-0.3047333 0.096993,-0.017934 0.1913049,-0.078692 0.3188736,-0.2055946 0.099602,-0.099079 0.1968672,-0.1801435 0.2161461,-0.1801435 0.019275,0 0.088702,0.032715 0.1542749,0.072687 0.065572,0.03998 0.1806694,0.072748 0.2557714,0.072824 l 0.1365485,1.213e-4 v 0.2014411 c 0,0.3279922 0.1602809,0.6093634 0.4048214,0.7106534 0.1215987,0.05036 0.1228056,0.05585 0.050343,0.229298 -0.1406715,0.336673 -0.017309,0.724778 0.2911612,0.91594 l 0.176268,0.10924 0.958812,0.0113 0.958811,0.0113 z m -0.501888,-0.347021 c -0.120887,-0.08467 -0.189959,-0.245772 -0.189959,-0.443044 0,-0.383032 0.327931,-0.584449 0.558954,-0.343314 0.208599,0.217731 0.201038,0.566667 -0.01624,0.749495 -0.127344,0.107154 -0.236162,0.118525 -0.352755,0.03687 z m -1.501763,-0.04774 c -0.137405,-0.137403 -0.168672,-0.273318 -0.104847,-0.455772 0.07153,-0.204488 0.23698,-0.299587 0.417534,-0.239999 0.16066,0.05302 0.270534,0.220459 0.270721,0.412549 1.15e-4,0.110981 -0.02566,0.165983 -0.123669,0.263993 -0.160535,0.160538 -0.312094,0.166875 -0.459739,0.01922 z M 9.8528887,9.9019657 C 9.6822936,9.7475793 9.6374891,9.5233925 9.7419031,9.3466324 9.8450735,9.1719772 10.009654,9.1257668 10.192239,9.2201851 c 0.271068,0.1401741 0.290014,0.585083 0.03121,0.7329294 -0.104178,0.059525 -0.2742155,0.036036 -0.3705641,-0.051138 z m -3.1730968,0.043263 c -0.031468,-0.031464 -0.057225,-0.071244 -0.057225,-0.088425 0,-0.066571 0.1193461,-0.145653 0.2197969,-0.145653 0.069486,0 0.1191774,0.025824 0.145955,0.075857 0.084191,0.1573089 -0.1760086,0.2907493 -0.3085317,0.1582269 z M 6.0225395,9.8341738 C 5.9066763,9.718313 6.0229324,9.5714028 6.1957579,9.6148377 6.3047556,9.6421947 6.3572442,9.7634181 6.2934029,9.8403411 6.2350359,9.9106621 6.09586,9.9074861 6.0225394,9.8341411 Z M 7.3524963,9.8041912 C 7.2825255,9.7198816 7.3225183,9.5892221 7.4347019,9.5356189 7.6383038,9.4383336 7.8152815,9.6731743 7.634034,9.8001245 7.5326394,9.8711353 7.4095362,9.8729335 7.3524954,9.8041032 Z M 11.2955,9.5896972 C 11.179852,9.4837139 11.160817,9.442189 11.146006,9.2635582 c -0.01588,-0.1915993 -0.0096,-0.2120715 0.09833,-0.3200012 0.09927,-0.099271 0.133423,-0.1123674 0.24558,-0.094166 0.22673,0.036795 0.37613,0.2348446 0.37613,0.4986144 0,0.1175285 -0.02318,0.1734487 -0.106437,0.2566994 C 11.612552,9.7517632 11.467215,9.747062 11.2955,9.5897012 Z M 5.3832831,9.5267541 c -0.053448,-0.09988 0.017563,-0.1873002 0.1401073,-0.1724765 0.1209329,0.014642 0.1823733,0.1130707 0.1185641,0.1899571 -0.067928,0.081849 -0.2106754,0.072197 -0.2586714,-0.017489 z M 8.0234763,9.2730889 C 7.9280795,9.1676767 7.9865895,9.0198304 8.1566652,8.9365438 8.3942049,8.8202207 8.5948849,8.9845911 8.4623269,9.1869003 8.3550234,9.3506664 8.1331225,9.3942456 8.0234763,9.2730925 Z M 6.8258202,9.2885032 C 6.7517565,9.2600744 6.7515318,9.1140173 6.8254536,9.0401044 6.8931651,8.9723929 7.0632158,8.9647154 7.1250829,9.0265783 7.2697356,9.1712294 7.0412892,9.3711759 6.825832,9.2884954 Z M 6.1468081,9.2729002 c -0.083007,-0.044427 -0.092163,-0.1538317 -0.01801,-0.2153707 0.072697,-0.060333 0.2415369,-0.033549 0.2898331,0.045965 0.032559,0.053627 0.023964,0.079232 -0.045872,0.136549 -0.098473,0.080815 -0.1282377,0.085136 -0.2259387,0.032853 z M 5.5642006,9.20007 C 5.4726175,9.1510506 5.4739199,9.0324705 5.5666126,8.9828735 5.7136159,8.9042 5.857457,9.0780079 5.7413954,9.1940673 5.6878886,9.2475723 5.6550485,9.248682 5.5642201,9.2001873 Z M 5.0217191,9.1847364 c -0.049397,-0.059529 -0.021924,-0.1290409 0.05099,-0.1290409 0.065477,0 0.1414537,0.097263 0.1125346,0.1440567 C 5.1517587,9.2539382 5.0731651,9.2467202 5.02172,9.1847332 Z M 9.1376755,8.9660195 C 8.7854849,8.7838956 9.1064018,8.3324424 9.4777572,8.487603 9.6866031,8.5748674 9.7436138,8.7678088 9.5993364,8.8990712 9.4556016,9.0298404 9.3036916,9.05187 9.1376755,8.966025 Z M 7.4673554,8.9027734 c -0.07086,-0.070865 -0.050252,-0.2079492 0.045682,-0.3038819 0.1118663,-0.1118659 0.2523317,-0.1154928 0.327308,-0.00843 0.074417,0.1062461 0.071608,0.145168 -0.018786,0.2600839 -0.082149,0.1044367 -0.2737557,0.1327 -0.3542061,0.05225 z M 5.1362086,8.8095467 c -0.00871,-0.061275 0.0065,-0.081566 0.061584,-0.081566 0.087155,0 0.1285226,0.055082 0.099049,0.131881 -0.031151,0.081165 -0.1470436,0.044855 -0.1606232,-0.050313 z M 4.7871332,8.7905503 c -0.027484,-0.043562 -0.025583,-0.073162 0.00675,-0.1055111 0.060484,-0.060485 0.1736413,0.047657 0.1404298,0.1341921 -0.027041,0.070467 -0.092724,0.057669 -0.1471926,-0.028681 z M 10.674725,8.6307637 C 10.457737,8.5277955 10.34748,8.2565244 10.447017,8.0705339 c 0.04596,-0.08589 0.220822,-0.1800956 0.333934,-0.1799117 0.121942,2.143e-4 0.308289,0.12567 0.373274,0.2513351 0.105998,0.204978 0.06038,0.3963262 -0.117491,0.4928535 -0.129989,0.070537 -0.206628,0.069687 -0.362009,-0.00398 z M 8.3177442,8.2685448 C 8.1430545,8.2015069 8.1875334,7.9701386 8.3939413,7.8721924 8.5529663,7.7967265 8.710489,7.8591037 8.7273723,8.0042249 8.7468784,8.1718698 8.4928955,8.335754 8.3177442,8.2685448 Z M 9.4065129,7.983181 C 9.2841656,7.8608335 9.2919615,7.7360847 9.42917,7.6206325 9.556071,7.513852 9.7059778,7.4996112 9.8607277,7.5796373 c 0.1109304,0.057375 0.1482563,0.121961 0.1482563,0.256573 0,0.2212322 -0.424624,0.3248181 -0.6024698,0.1469715 z"
     id="path1-47" />
  <rect
     style="opacity:0.3;fill:none;fill-opacity:0.996424;stroke:#000000;stroke-width:0.955221;stroke-dasharray:none;stroke-opacity:1;filter:url(#filter5421-3)"
     id="rect1-2-7-5"
     width="13.687567"
     height="13.591975"
     x="1.6227165"
     y="1.6705122"
     rx="2.8442214"
     ry="2.965905"
     transform="matrix(0.43046721,0,0,0.43046721,9.5627021,9.5627021)" />
  <rect
     style="fill:none;fill-opacity:1;stroke:{{colors.primary.default.hex}};stroke-width:0.411191;stroke-dasharray:none;stroke-opacity:1"
     id="rect1-2-3"
     width="5.8920484"
     height="5.8508992"
     x="10.261228"
     y="10.281802"
     rx="1.224344"
     ry="1.2767248" />
  <path
     id="path1"
     style="fill:{{colors.primary.default.hex}};fill-opacity:1;stroke:none;stroke-width:0.0587368;stroke-dasharray:none;stroke-dashoffset:2.2;stroke-opacity:0.6"
     d="m 14.168922,11.656658 c -0.06055,-2.6e-5 -0.125364,0.02435 -0.206481,0.07188 -0.193027,0.1131 -0.445472,0.166438 -0.792145,0.166438 -0.346641,0 -0.607506,-0.05448 -0.799384,-0.16692 -0.153862,-0.09017 -0.245719,-0.09136 -0.374847,-0.0043 -0.331514,0.223407 -0.581361,0.939687 -0.654655,1.875683 -0.04395,0.561277 -0.0029,0.857184 0.142315,1.023712 0.07004,0.08029 0.241969,0.06668 0.397039,-0.03184 0.13145,-0.08351 0.288072,-0.267793 0.475192,-0.559138 0.16909,-0.263274 0.373614,-0.349984 0.825918,-0.350725 0.451405,-6.81e-4 0.628801,0.08471 0.837013,0.404757 0.349331,0.536972 0.672221,0.723915 0.861617,0.498829 0.104925,-0.124694 0.12413,-0.24517 0.119159,-0.746797 -0.0091,-0.911235 -0.247248,-1.740202 -0.590491,-2.056592 -0.09141,-0.08427 -0.162394,-0.124918 -0.24025,-0.124951 z M 12.207851,12.1936 h 0.209374 0.209373 v 0.179464 0.179463 h 0.179465 0.179462 v 0.22433 0.224328 h -0.179462 -0.179465 v 0.194419 0.194419 h -0.189593 c -0.104158,0 -0.197928,-0.0093 -0.208892,-0.02026 -0.01096,-0.01096 -0.02025,-0.098 -0.02025,-0.193935 v -0.174644 h -0.179466 -0.179465 v -0.224328 -0.224329 h 0.179465 0.179463 v -0.179465 z m 1.706832,0 c 0.188883,0 0.269773,0.209278 0.133633,0.345419 -0.08658,0.08657 -0.165598,0.09337 -0.250863,0.02123 -0.147895,-0.125144 -0.0707,-0.366645 0.11723,-0.366645 z m -0.363268,0.383531 c 0.04717,3.2e-5 0.09465,0.01883 0.132184,0.0603 0.05851,0.06466 0.06483,0.212666 0.01207,0.281737 -0.103261,0.135182 -0.351207,0.04823 -0.351207,-0.123018 0,-0.12997 0.103198,-0.219094 0.206961,-0.219022 z m 0.741493,0.0073 c 0.05436,9.9e-4 0.10714,0.019 0.137972,0.05306 0.05851,0.06466 0.06482,0.212666 0.01206,0.281738 -0.109832,0.143783 -0.351209,0.04755 -0.351209,-0.139905 0,-0.05682 0.02277,-0.118403 0.05451,-0.14714 0.03629,-0.03285 0.0923,-0.04875 0.14666,-0.04775 z m -0.365199,0.386906 c 0.167454,0 0.248932,0.177621 0.147622,0.322262 -0.03463,0.04945 -0.07687,0.06657 -0.164026,0.06657 -0.100342,0 -0.123628,-0.01306 -0.164024,-0.09118 -0.07966,-0.154035 0.0073,-0.297659 0.180428,-0.297659 z" />
</svg>
