<?xml version="1.0" encoding="UTF-8" standalone="no"?>
<svg
   width="64"
   height="64"
   version="1.1"
   viewBox="0 0 16.933 16.933"
   id="svg7"
   sodipodi:docname="com.warlordsoftwares.formatlab.svg"
   inkscape:version="1.4.3 (0d15f75042, 2025-12-25)"
   xmlns:inkscape="http://www.inkscape.org/namespaces/inkscape"
   xmlns:sodipodi="http://sodipodi.sourceforge.net/DTD/sodipodi-0.dtd"
   xmlns="http://www.w3.org/2000/svg"
   xmlns:svg="http://www.w3.org/2000/svg"
   xmlns:rdf="http://www.w3.org/1999/02/22-rdf-syntax-ns#"
   xmlns:cc="http://creativecommons.org/ns#"
   xmlns:dc="http://purl.org/dc/elements/1.1/">
  <sodipodi:namedview
     id="namedview7"
     pagecolor="#9c4444"
     bordercolor="#000000"
     borderopacity="0.25"
     inkscape:showpageshadow="2"
     inkscape:pageopacity="0.0"
     inkscape:pagecheckerboard="0"
     inkscape:deskcolor="#d1d1d1"
     inkscape:zoom="4.3531261"
     inkscape:cx="42.957635"
     inkscape:cy="45.254834"
     inkscape:window-width="1226"
     inkscape:window-height="669"
     inkscape:window-x="314"
     inkscape:window-y="198"
     inkscape:window-maximized="0"
     inkscape:current-layer="svg7"
     showgrid="false" />
  <defs
     id="defs2">
    <filter
       style="color-interpolation-filters:sRGB;"
       inkscape:label="Blur"
       id="filter5421"
       x="-0.12256455"
       y="-0.12342654"
       width="1.2451291"
       height="1.2468531">
      <feGaussianBlur
         stdDeviation="0.5 0.5"
         result="blur"
         id="feGaussianBlur5419" />
    </filter>
    <filter
       style="color-interpolation-filters:sRGB"
       inkscape:label="Blur"
       id="filter5421-3"
       x="-0.12256455"
       y="-0.12342654"
       width="1.2451291"
       height="1.2468531">
      <feGaussianBlur
         stdDeviation="0.5 0.5"
         result="blur"
         id="feGaussianBlur5419-6" />
    </filter>
  </defs>
  <metadata
     id="metadata2">
    <rdf:RDF>
      <cc:Work
         rdf:about="">
        <dc:format>image/svg+xml</dc:format>
        <dc:type
           rdf:resource="http://purl.org/dc/dcmitype/StillImage" />
      </cc:Work>
    </rdf:RDF>
  </metadata>
  <rect
     style="opacity:0.3;fill:none;fill-opacity:0.996424;stroke:#000000;stroke-width:0.955221;stroke-dasharray:none;stroke-opacity:1;filter:url(#filter5421)"
     id="rect1-2-7"
     width="13.687567"
     height="13.591975"
     x="1.6227165"
     y="1.6705122"
     rx="2.8442214"
     ry="2.965905" />
  <rect
     style="fill:none;fill-opacity:1;stroke:{{colors.primary.default.hex}};stroke-width:0.955221;stroke-dasharray:none;stroke-opacity:1"
     id="rect1-2"
     width="13.687567"
     height="13.591975"
     x="1.6227167"
     y="1.6705124"
     rx="2.8442214"
     ry="2.965905" />
  <path
     style="fill:{{colors.primary.default.hex}};fill-opacity:1;stroke:none;stroke-width:0.127365;stroke-dasharray:none;stroke-opacity:0.6"
     d="M 6.7945886,12.662496 C 6.4324043,12.532849 6.2542358,12.304253 6.2496981,11.963381 c -0.00221,-0.164404 0.012786,-0.225825 0.080871,-0.331594 0.045955,-0.0714 0.1277165,-0.155348 0.1816897,-0.186558 l 0.098133,-0.05675 -0.040456,0.137875 c -0.076182,0.259638 0.033626,0.442733 0.2808081,0.46822 0.175123,0.01807 0.346866,-0.06928 0.4156793,-0.211384 C 7.3780987,11.55257 7.2825843,11.242865 6.9883961,10.881681 6.8379594,10.69698 6.7574879,10.546572 6.7216977,10.383189 6.6965869,10.268566 6.6990187,9.900555 6.7257297,9.7723964 6.7656832,9.5807346 6.9390462,9.2578962 7.0877927,9.0981662 7.2370949,8.9378417 7.27357,8.8144736 7.1820522,8.7793541 7.1064774,8.7503552 7.0989174,8.754005 7.105271,8.8164496 7.1157605,8.9196163 7.1048585,8.9429473 6.9485391,9.1523697 6.7853238,9.3710024 6.73259,9.4710184 6.6670355,9.686277 c -0.057038,0.1872958 -0.060526,0.556489 -0.00692,0.733396 0.061036,0.201445 0.1291955,0.352093 0.1593034,0.352093 0.013496,0 0.024527,0.01527 0.024527,0.03392 0,0.02137 -0.04503,0.026 -0.1216999,0.01253 C 6.3947497,10.760597 6.1220836,10.547179 5.9803039,10.237491 5.9091559,10.082084 5.8978712,10.018472 5.909124,9.8362379 5.9277269,9.5349701 6.0523929,9.2965178 6.3339249,9.0237179 6.6390638,8.7280436 6.7204039,8.5845841 6.7077888,8.3643401 6.6990003,8.2109422 6.6893595,8.190515 6.621139,8.1808628 6.5024051,8.1640618 6.4588114,8.2313098 6.562804,8.2708488 c 0.048931,0.018603 0.08634,0.057839 0.086237,0.090452 -2.75e-4,0.093908 -0.065585,0.3009978 -0.094896,0.3009978 -0.059998,0 -0.2111442,-0.3762686 -0.2180176,-0.542739 -0.00586,-0.1421605 0.014782,-0.212884 0.127925,-0.4381217 C 6.5844393,7.4417826 6.5989817,7.3879886 6.5990216,7.182184 6.5990774,6.9850163 6.5861474,6.9320052 6.5100966,6.8170832 6.4611638,6.7431398 6.409484,6.6826408 6.3952539,6.6826408 c -0.01423,0 -0.057836,0.029777 -0.096899,0.066172 -0.071597,0.066703 -0.098782,0.2259096 -0.038572,0.2259096 0.017845,0 0.032455,-0.012899 0.032455,-0.028667 0,-0.01577 0.03286,-0.038523 0.073019,-0.050571 0.069132,-0.020738 0.069678,-0.023232 0.010269,-0.046867 -0.045759,-0.018202 -0.051766,-0.031755 -0.022181,-0.050039 0.047795,-0.029539 0.045652,-0.03146 0.1132605,0.1015129 0.087829,0.1727447 0.069129,0.4457977 -0.047346,0.6912467 L 6.3191542,7.8022843 6.2577992,7.6886976 C 6.1191405,7.4320018 6.058852,7.164549 6.0456449,6.7475471 6.0344154,6.3928588 6.0428945,6.3041983 6.1131182,6.0420206 6.2313207,5.600742 6.3845,5.3206165 6.6770318,5.0107639 6.9134332,4.7603666 7.0995687,4.6200372 7.3811744,4.4799061 c 1.4412907,-0.7172079 3.1498726,0.116688 3.4825536,1.6997065 0.01127,0.053548 0.02052,0.2872128 0.02057,0.5192547 1.06e-4,0.3763806 -0.0099,0.4523415 -0.09242,0.70413 -0.136513,0.4164631 -0.150494,0.4269299 -0.265949,0.1990719 -0.07905,-0.1560142 -0.09587,-0.229101 -0.09587,-0.416401 0,-0.2353829 0.07952,-0.4305613 0.156105,-0.3832203 0.02479,0.015323 0.02373,0.025782 -0.0036,0.03488 -0.0567,0.018897 -0.04768,0.061841 0.01782,0.084949 0.03123,0.011018 0.07506,0.028543 0.09737,0.038943 0.07038,0.032804 0.04431,-0.074443 -0.04345,-0.1787285 -0.0462,-0.054919 -0.09613,-0.099851 -0.110943,-0.099851 -0.04644,0 -0.157092,0.20667 -0.190678,0.3561417 -0.04339,0.1930796 -2.24e-4,0.3999687 0.145951,0.6997537 0.105848,0.2170657 0.116814,0.2629664 0.100538,0.4207145 -0.0171,0.1658318 -0.164428,0.5030481 -0.219756,0.5030481 -0.01323,0 -0.04164,-0.07333 -0.06315,-0.1629561 -0.04175,-0.1740834 -0.01253,-0.2589389 0.08924,-0.2589389 0.0387,0 0.04074,-0.00959 0.0099,-0.04675 -0.03996,-0.048145 -0.129279,-0.033477 -0.171482,0.028156 -0.03591,0.052424 -0.0296,0.2058787 0.01459,0.3555893 0.02884,0.097718 0.112179,0.2056408 0.310418,0.4020139 0.187699,0.1859285 0.297319,0.3255791 0.356651,0.4543476 0.09817,0.213083 0.129743,0.5083611 0.07577,0.7087948 -0.07689,0.285552 -0.35938,0.556919 -0.675375,0.648782 -0.219567,0.06383 -0.259223,0.05024 -0.173082,-0.05924 0.100506,-0.127772 0.162895,-0.368128 0.162398,-0.625605 C 10.31459,9.7094424 10.204537,9.3990342 9.960496,9.1050029 9.8741638,9.0009908 9.8296159,8.9153776 9.8296159,8.8534884 c 0,-0.1004094 -0.028261,-0.1174827 -0.090869,-0.05488 -0.066023,0.066035 -0.044529,0.123789 0.1100735,0.2957538 0.3450706,0.3838049 0.4827736,0.9091618 0.3529136,1.3464438 -0.03007,0.101314 -0.128357,0.271897 -0.248432,0.431252 -0.1092598,0.145 -0.2307054,0.342493 -0.269878,0.438874 -0.1323475,0.325634 -0.014404,0.628324 0.2653562,0.68097 0.3152488,0.05931 0.5393728,-0.200417 0.4198268,-0.486537 l -0.04885,-0.11692 0.09284,0.04802 c 0.269776,0.139509 0.363092,0.52173 0.207449,0.849721 -0.124299,0.261936 -0.541538,0.45602 -0.8991731,0.418255 C 9.3267273,12.662811 9.023521,12.459563 8.8559907,12.124678 8.7619417,11.93668 8.755908,11.903177 8.7613877,11.599338 8.7645977,11.420844 8.7948367,11.14337 8.8285677,10.982724 8.934465,10.478395 8.9413,10.434031 8.9327088,10.306779 8.9281067,10.238446 8.9073015,10.130972 8.8864974,10.067942 8.8457988,9.9446624 8.6586444,9.7455631 8.5392906,9.6985807 8.3543853,9.6257948 8.0564999,9.9267802 8.016707,10.226602 7.992612,10.408174 7.995832,10.43469 8.105246,10.955358 8.18952,11.35639 8.197383,11.828955 8.123395,12.046093 7.958945,12.528724 7.2890102,12.839482 6.7945639,12.662492 Z M 7.7850951,9.1646837 c 0,-0.00927 -0.037332,-0.076009 -0.082958,-0.1482882 C 7.5256859,8.7368794 7.5643539,8.5924331 7.9685102,8.0213462 c 0.045716,-0.064596 0.045955,-0.073018 0.00206,-0.073018 -0.057872,0 -0.2425568,0.2471635 -0.3645046,0.487815 -0.059661,0.1177385 -0.082422,0.2081661 -0.07614,0.3025221 0.010427,0.1566369 0.1468525,0.4428919 0.2110753,0.4428919 0.024241,0 0.044074,-0.0076 0.044074,-0.01687 z M 9.3250475,9.0164461 C 9.4420864,8.8014065 9.4437866,8.6490625 9.3315658,8.4327554 9.1745401,8.1300956 8.9534207,7.8630751 8.9534207,7.9761125 c 0,0.015281 0.048974,0.091954 0.1088281,0.1703816 0.2832595,0.3711432 0.3273192,0.5689475 0.1875591,0.8420187 -0.1241324,0.2425341 -0.055437,0.2680359 0.075242,0.02793 z M 7.6385988,8.0543575 c 0.091629,-0.067252 0.2024115,-0.2556557 0.1696126,-0.2884527 -0.012495,-0.012495 -0.048363,-6.6e-4 -0.079711,0.026238 -0.031346,0.026928 -0.0862,0.060046 -0.1218987,0.0736 -0.06415,0.024357 -0.064161,0.024924 -0.00121,0.048344 0.060542,0.022533 0.05974,0.026202 -0.016227,0.074272 -0.043955,0.027812 -0.1127779,0.060375 -0.1529392,0.072361 -0.04016,0.011986 -0.073021,0.037239 -0.073021,0.056117 0,0.048454 0.1798449,0.00767 0.2753976,-0.06248 z m 1.9015657,0.0392 C 9.538978,8.0761565 9.4958387,8.0510195 9.4444517,8.0377034 9.3510511,8.0135009 9.2189593,7.9008454 9.3089689,7.9221552 c 0.023102,0.00547 0.048697,-0.00831 0.056878,-0.030622 0.00832,-0.022693 -0.010217,-0.040565 -0.042068,-0.040565 -0.031318,0 -0.083741,-0.024253 -0.1164907,-0.053888 C 9.1187062,7.7169138 9.0939789,7.7731644 9.162151,7.8997535 9.2417053,8.047474 9.5481725,8.2045981 9.5401655,8.0935564 Z M 7.9067963,7.7190407 c 0.075858,0.00151 0.1379268,-0.00341 0.1379268,-0.010916 0,-0.00751 -0.06207,-0.044184 -0.1379268,-0.08152 C 7.8306486,7.5891291 7.7269458,7.4992153 7.675273,7.4258693 7.5534647,7.2529664 7.4130674,7.1697157 7.2430282,7.1695653 7.1070926,7.169422 6.9413075,7.2236569 6.9413075,7.2682295 c 0,0.05197 0.1643954,0.053952 0.1945516,0.00236 0.023243,-0.039776 0.030887,-0.023554 0.031636,0.067138 0.00231,0.2787377 0.1580343,0.4194737 0.4358361,0.3938648 0.091047,-0.00838 0.2276055,-0.014032 0.3034656,-0.012536 z m 1.7221696,-0.039759 c 0.071794,-0.058058 0.1357859,-0.2088561 0.1357859,-0.3199954 0,-0.07375 0.010248,-0.0952 0.034126,-0.071339 0.039125,0.039117 0.1930509,0.018603 0.1930509,-0.025728 0,-0.077514 -0.3120598,-0.1208547 -0.4603467,-0.063932 -0.080887,0.031051 -0.2397507,0.1766459 -0.3184409,0.2918481 -0.026728,0.039125 -0.1033966,0.095317 -0.170381,0.12487 -0.1497123,0.066053 -0.159138,0.120277 -0.016317,0.093873 0.058009,-0.010726 0.1492849,-0.00597 0.2028338,0.010537 0.1106043,0.034128 0.3358219,0.01151 0.3996944,-0.040138 z M 8.6819272,7.5103315 c 0.060098,-0.039375 0.073792,-0.064766 0.048554,-0.090004 -0.025239,-0.025239 -0.053799,-0.018287 -0.1012483,0.024654 -0.082298,0.074477 -0.2398077,0.077306 -0.3189058,0.00573 -0.073664,-0.066666 -0.1033358,-0.068516 -0.1033358,-0.00644 0,0.1287525 0.3128488,0.1722732 0.4749376,0.066069 z M 6.801442,6.8929019 C 6.763663,6.6600975 6.8489461,6.5550466 7.0868712,6.5413115 c 0.1229253,-0.0071 0.077468,-0.06817 -0.059333,-0.079716 -0.097118,-0.0082 -0.1379699,0.00817 -0.2165518,0.086749 -0.081203,0.081203 -0.096852,0.1226032 -0.096852,0.256207 0,0.1594321 0.015894,0.2026263 0.074562,0.2026263 0.01767,0 0.023221,-0.049737 0.012746,-0.1142759 z m 1.2757346,0.082655 c 0,-0.01739 -0.041293,-0.052973 -0.091762,-0.079072 C 7.8227453,6.8123665 7.6125516,6.5181782 7.5659711,6.3094292 7.526999,6.1347776 7.5600084,5.8548961 7.6430298,5.6559665 7.6895925,5.5444046 7.7208633,5.3975231 7.7353691,5.2222412 7.7499787,5.0456907 7.6284071,4.8003465 7.5263116,4.8003465 c -0.067279,0 -0.1955637,0.1586991 -0.1955637,0.2419258 0,0.099233 0.034649,0.1060606 0.089828,0.017698 0.022297,-0.035698 0.065968,-0.06537 0.097054,-0.065938 0.052689,-9.639e-4 0.052538,-0.00406 -0.00223,-0.045565 -0.033261,-0.02522 -0.044942,-0.053057 -0.026939,-0.064184 0.017487,-0.010812 0.062175,0.018963 0.099303,0.066168 0.095512,0.1214303 0.086726,0.3117757 -0.033957,0.7354762 -0.120584,0.4233676 -0.1151988,0.6121369 0.024802,0.8693682 0.133984,0.2461721 0.4985527,0.5534889 0.4985538,0.420261 z M 9.0590175,6.9131319 C 9.3909166,6.6618343 9.5484288,6.2310356 9.4399379,5.8713095 9.2587661,5.2705937 9.2397119,5.0848881 9.3454574,4.9504546 c 0.037127,-0.047202 0.081814,-0.076975 0.099303,-0.066168 0.018,0.011128 0.00634,0.038965 -0.026942,0.064184 -0.043354,0.03287 -0.046657,0.044801 -0.012613,0.045565 0.025369,5.776e-4 0.071912,0.024367 0.1034292,0.052893 0.05516,0.049921 0.1262998,0.039316 0.1262998,-0.018829 0,-0.057358 -0.1701391,-0.2277485 -0.2274112,-0.2277485 -0.099633,0 -0.2043209,0.2098077 -0.2025569,0.4059483 0.00151,0.1642197 0.019544,0.2407979 0.1335797,0.5662059 0.078223,0.2232075 0.065952,0.5378145 -0.028304,0.7257033 -0.07611,0.151723 -0.3214444,0.4116141 -0.3885571,0.4116141 -0.018245,0 -0.033179,0.021903 -0.033179,0.04868 0,0.068428 0.031164,0.060136 0.1705061,-0.045364 z m 1.1557645,0.023642 c 0.04317,-0.1166747 -0.01306,-0.3256402 -0.110044,-0.4090691 -0.06449,-0.055468 -0.1195029,-0.073066 -0.205881,-0.065851 -0.064828,0.00542 -0.1132691,0.024444 -0.107637,0.042297 0.00571,0.017844 0.032952,0.027758 0.060705,0.022022 0.08222,-0.017005 0.225617,0.057654 0.269999,0.1405772 0.02453,0.045823 0.03412,0.1306663 0.02367,0.2088069 -0.01876,0.1399753 0.02557,0.1791963 0.06923,0.061217 z M 8.3043501,6.4749425 c 0,-0.00713 -0.053038,-0.066017 -0.1178576,-0.1308384 -0.109795,-0.1097957 -0.1164984,-0.1277773 -0.097981,-0.2628726 0.019527,-0.142435 -0.023364,-0.2035468 -0.065601,-0.093479 -0.053367,0.1390724 -0.017186,0.2958326 0.09857,0.4271514 0.053902,0.061145 0.1828698,0.103488 0.1828696,0.060039 z m 0.5140071,-0.068717 c 0.110869,-0.093288 0.1624673,-0.2932524 0.103907,-0.4026724 -0.060634,-0.1132981 -0.089918,-0.075515 -0.073545,0.09489 0.014865,0.1546946 0.00984,0.1674994 -0.1084656,0.2758534 -0.1454618,0.1332376 -0.076027,0.1616241 0.078104,0.031929 z M 5.2419082,9.8466217 C 5.2062338,9.7536552 5.2194327,9.5083113 5.2659567,9.3995719 5.3199941,9.2732802 5.464162,9.1332314 5.5884879,9.0862576 c 0.1237558,-0.046759 0.3785189,-0.041604 0.4706573,0.00951 0.070323,0.039019 0.07157,0.044751 0.019175,0.088097 -0.067164,0.055567 -0.2072158,0.3463492 -0.2076616,0.4311615 -2.337e-4,0.045116 -0.014604,0.054063 -0.057112,0.035626 -0.2034873,-0.088299 -0.4179887,-0.024928 -0.5018672,0.1482577 -0.039146,0.080829 -0.053342,0.090537 -0.069776,0.0477 z m 6.3993478,-0.022514 c -0.02222,-0.1540723 -0.324924,-0.2717388 -0.482343,-0.1874903 -0.05265,0.028182 -0.06536,0.019668 -0.0845,-0.056563 -0.01238,-0.04935 -0.07038,-0.170161 -0.128857,-0.2684561 -0.09638,-0.1619857 -0.101356,-0.1825161 -0.05321,-0.2192853 0.06496,-0.049589 0.327843,-0.053105 0.452389,-0.00604 0.111919,0.042286 0.259958,0.1788516 0.321429,0.2965175 0.05102,0.097657 0.06265,0.4660366 0.01565,0.4950926 -0.01658,0.010248 -0.03483,-0.013942 -0.04057,-0.053768 z"
     id="path1-9-7" />
  <rect
     style="opacity:0.3;fill:none;fill-opacity:0.996424;stroke:#000000;stroke-width:0.955221;stroke-dasharray:none;stroke-opacity:1;filter:url(#filter5421-3)"
     id="rect1-2-7-5"
     width="13.687567"
     height="13.591975"
     x="1.6227165"
     y="1.6705122"
     rx="2.8442214"
     ry="2.965905"
     transform="matrix(0.43046721,0,0,0.43046721,9.5627021,9.5627021)" />
  <rect
     style="fill:none;fill-opacity:1;stroke:{{colors.primary.default.hex}};stroke-width:0.411191;stroke-dasharray:none;stroke-opacity:1"
     id="rect1-2-3"
     width="5.8920484"
     height="5.8508992"
     x="10.261228"
     y="10.281802"
     rx="1.224344"
     ry="1.2767248" />
  <path
     id="path1"
     style="fill:{{colors.primary.default.hex}};fill-opacity:1;stroke:none;stroke-width:0.0587368;stroke-dasharray:none;stroke-dashoffset:2.2;stroke-opacity:0.6"
     d="m 14.168922,11.656658 c -0.06055,-2.6e-5 -0.125364,0.02435 -0.206481,0.07188 -0.193027,0.1131 -0.445472,0.166438 -0.792145,0.166438 -0.346641,0 -0.607506,-0.05448 -0.799384,-0.16692 -0.153862,-0.09017 -0.245719,-0.09136 -0.374847,-0.0043 -0.331514,0.223407 -0.581361,0.939687 -0.654655,1.875683 -0.04395,0.561277 -0.0029,0.857184 0.142315,1.023712 0.07004,0.08029 0.241969,0.06668 0.397039,-0.03184 0.13145,-0.08351 0.288072,-0.267793 0.475192,-0.559138 0.16909,-0.263274 0.373614,-0.349984 0.825918,-0.350725 0.451405,-6.81e-4 0.628801,0.08471 0.837013,0.404757 0.349331,0.536972 0.672221,0.723915 0.861617,0.498829 0.104925,-0.124694 0.12413,-0.24517 0.119159,-0.746797 -0.0091,-0.911235 -0.247248,-1.740202 -0.590491,-2.056592 -0.09141,-0.08427 -0.162394,-0.124918 -0.24025,-0.124951 z M 12.207851,12.1936 h 0.209374 0.209373 v 0.179464 0.179463 h 0.179465 0.179462 v 0.22433 0.224328 h -0.179462 -0.179465 v 0.194419 0.194419 h -0.189593 c -0.104158,0 -0.197928,-0.0093 -0.208892,-0.02026 -0.01096,-0.01096 -0.02025,-0.098 -0.02025,-0.193935 v -0.174644 h -0.179466 -0.179465 v -0.224328 -0.224329 h 0.179465 0.179463 v -0.179465 z m 1.706832,0 c 0.188883,0 0.269773,0.209278 0.133633,0.345419 -0.08658,0.08657 -0.165598,0.09337 -0.250863,0.02123 -0.147895,-0.125144 -0.0707,-0.366645 0.11723,-0.366645 z m -0.363268,0.383531 c 0.04717,3.2e-5 0.09465,0.01883 0.132184,0.0603 0.05851,0.06466 0.06483,0.212666 0.01207,0.281737 -0.103261,0.135182 -0.351207,0.04823 -0.351207,-0.123018 0,-0.12997 0.103198,-0.219094 0.206961,-0.219022 z m 0.741493,0.0073 c 0.05436,9.9e-4 0.10714,0.019 0.137972,0.05306 0.05851,0.06466 0.06482,0.212666 0.01206,0.281738 -0.109832,0.143783 -0.351209,0.04755 -0.351209,-0.139905 0,-0.05682 0.02277,-0.118403 0.05451,-0.14714 0.03629,-0.03285 0.0923,-0.04875 0.14666,-0.04775 z m -0.365199,0.386906 c 0.167454,0 0.248932,0.177621 0.147622,0.322262 -0.03463,0.04945 -0.07687,0.06657 -0.164026,0.06657 -0.100342,0 -0.123628,-0.01306 -0.164024,-0.09118 -0.07966,-0.154035 0.0073,-0.297659 0.180428,-0.297659 z" />
</svg>
