<?xml version="1.0" encoding="UTF-8" standalone="no"?>
<svg
   width="64"
   height="64"
   version="1.1"
   viewBox="0 0 16.933 16.933"
   id="svg7"
   sodipodi:docname="steam_icon_368260.svg"
   inkscape:version="1.4.3 (0d15f75042, 2025-12-25)"
   xmlns:inkscape="http://www.inkscape.org/namespaces/inkscape"
   xmlns:sodipodi="http://sodipodi.sourceforge.net/DTD/sodipodi-0.dtd"
   xmlns="http://www.w3.org/2000/svg"
   xmlns:svg="http://www.w3.org/2000/svg"
   xmlns:rdf="http://www.w3.org/1999/02/22-rdf-syntax-ns#"
   xmlns:cc="http://creativecommons.org/ns#"
   xmlns:dc="http://purl.org/dc/elements/1.1/">
  <sodipodi:namedview
     id="namedview7"
     pagecolor="#9c4444"
     bordercolor="#000000"
     borderopacity="0.25"
     inkscape:showpageshadow="2"
     inkscape:pageopacity="0.0"
     inkscape:pagecheckerboard="0"
     inkscape:deskcolor="#d1d1d1"
     inkscape:zoom="4.3531261"
     inkscape:cx="42.957635"
     inkscape:cy="45.025114"
     inkscape:window-width="1226"
     inkscape:window-height="669"
     inkscape:window-x="30"
     inkscape:window-y="150"
     inkscape:window-maximized="0"
     inkscape:current-layer="svg7"
     showgrid="false" />
  <defs
     id="defs2">
    <filter
       style="color-interpolation-filters:sRGB;"
       inkscape:label="Blur"
       id="filter5421"
       x="-0.12256455"
       y="-0.12342654"
       width="1.2451291"
       height="1.2468531">
      <feGaussianBlur
         stdDeviation="0.5 0.5"
         result="blur"
         id="feGaussianBlur5419" />
    </filter>
    <filter
       style="color-interpolation-filters:sRGB"
       inkscape:label="Blur"
       id="filter5421-3"
       x="-0.12256455"
       y="-0.12342654"
       width="1.2451291"
       height="1.2468531">
      <feGaussianBlur
         stdDeviation="0.5 0.5"
         result="blur"
         id="feGaussianBlur5419-6" />
    </filter>
  </defs>
  <metadata
     id="metadata2">
    <rdf:RDF>
      <cc:Work
         rdf:about="">
        <dc:format>image/svg+xml</dc:format>
        <dc:type
           rdf:resource="http://purl.org/dc/dcmitype/StillImage" />
      </cc:Work>
    </rdf:RDF>
  </metadata>
  <rect
     style="opacity:0.3;fill:none;fill-opacity:0.996424;stroke:#000000;stroke-width:0.955221;stroke-dasharray:none;stroke-opacity:1;filter:url(#filter5421)"
     id="rect1-2-7"
     width="13.687567"
     height="13.591975"
     x="1.6227165"
     y="1.6705122"
     rx="2.8442214"
     ry="2.965905" />
  <rect
     style="fill:none;fill-opacity:1;stroke:{{colors.primary.default.hex}};stroke-width:0.955221;stroke-dasharray:none;stroke-opacity:1"
     id="rect1-2"
     width="13.687567"
     height="13.591975"
     x="1.6227167"
     y="1.6705124"
     rx="2.8442214"
     ry="2.965905" />
  <path
     style="fill:{{colors.primary.default.hex}};fill-opacity:1;stroke:none;stroke-width:0.1213;stroke-dasharray:none;stroke-opacity:0.6"
     d="M 8.5225615,12.349229 C 8.4066517,12.199008 8.2687823,12.037478 8.216184,11.990276 c -0.093229,-0.08366 -0.1020308,-0.08063 -0.3501714,0.120946 -0.1399962,0.113724 -0.279601,0.222052 -0.3102324,0.240728 -0.085619,0.0522 0.017924,-0.279286 0.1551273,-0.496627 0.062879,-0.0996 0.1143223,-0.188964 0.1143223,-0.198577 0,-0.01778 -0.2950244,-0.147456 -0.4310781,-0.189456 C 7.3116928,11.441829 7.1149798,10.842108 7.0970241,10.561427 7.0895451,10.444396 7.0305528,10.324276 6.9094027,10.179341 6.8122164,10.063075 6.7327005,9.9309972 6.7327005,9.8858343 6.7327005,9.686678 7.0963017,9.1540298 7.651308,8.5401434 8.0416443,8.1083982 8.1958465,7.8690483 8.2697764,7.5801681 8.3319434,7.3372505 8.3392306,7.3293592 8.5067568,7.3235417 8.6937298,7.3170458 8.8562209,7.2011865 8.9228976,7.0268193 8.9856657,6.8626728 8.870377,6.638498 8.5412389,6.2847 8.3106928,6.0368784 8.2526447,5.9433335 8.2522641,5.8190081 8.2518188,5.6659513 8.7248621,4.312576 8.7795085,4.3106376 8.7949154,4.3101138 8.766776,4.5180572 8.7169908,4.7727824 8.5451312,5.6520689 8.6064404,5.9632621 9.0974695,6.704006 9.2673515,6.9602814 9.3193641,7.0854845 9.3351807,7.2762152 9.3527773,7.4884836 9.3386251,7.540329 9.2268117,7.6732194 9.1560724,7.7572886 8.9133122,7.9529235 8.6873434,8.1079644 8.0583778,8.5395092 7.482644,9.1146297 7.3061694,9.4876671 7.1651581,9.7857417 7.114857,10.118658 7.2026339,10.17291 7.2259668,10.18733 7.3653433,10.050253 7.5123605,9.8682897 7.6593776,9.6863297 7.9769533,9.3801337 8.2180827,9.1878536 9.6518669,8.0445396 9.8940125,7.4891298 9.3212564,6.6575114 9.1244197,6.3717129 9.1369309,6.2386355 9.3380331,6.4791221 9.648287,6.8501475 10.105294,7.8591829 10.105294,8.1731738 c 0,0.141526 -0.3661791,0.866736 -0.5633193,1.1156487 C 9.4562011,9.3971218 9.200505,9.6063348 8.973763,9.7537383 8.236222,10.233215 8.0654736,10.355403 7.8955667,10.525309 c -0.092021,0.09202 -0.160415,0.188008 -0.1519849,0.213299 0.00843,0.02529 0.1437715,0.137932 0.3007575,0.25031 l 0.2854285,0.20433 0.3533758,-0.262517 C 8.8774992,10.786347 9.147107,10.604935 9.2822704,10.527602 9.6074413,10.341542 9.7166608,10.22264 9.9152903,9.8384637 10.104974,9.4715907 10.2003,9.4022808 10.2003,9.6312333 c 0,0.2329659 -0.178242,0.4988637 -0.4833361,0.7210387 -0.1521764,0.110818 -0.2766858,0.214769 -0.2766858,0.231005 0,0.01624 0.046143,0.05011 0.1025426,0.07528 0.092656,0.04135 0.061059,0.07194 -0.3276975,0.31723 -0.5897385,0.372111 -0.5835855,0.360332 -0.3238796,0.62004 0.2479617,0.247959 0.4060965,0.487971 0.4063532,0.616746 1.428e-4,0.06507 -0.1088617,-0.01 -0.4056483,-0.279471 l -0.4058268,-0.368441 -0.1146504,0.10771 -0.1146511,0.10771 0.1579381,0.195514 c 0.086866,0.107531 0.1821213,0.242168 0.2116788,0.299194 0.077678,0.14986 0.1497354,0.347579 0.1266731,0.347579 -0.010894,0 -0.1146332,-0.122906 -0.2305429,-0.273132 z"
     id="path1-9" />
  <rect
     style="opacity:0.3;fill:none;fill-opacity:0.996424;stroke:#000000;stroke-width:0.955221;stroke-dasharray:none;stroke-opacity:1;filter:url(#filter5421-3)"
     id="rect1-2-7-5"
     width="13.687567"
     height="13.591975"
     x="1.6227165"
     y="1.6705122"
     rx="2.8442214"
     ry="2.965905"
     transform="matrix(0.43046721,0,0,0.43046721,9.5627021,9.5627021)" />
  <rect
     style="fill:none;fill-opacity:1;stroke:{{colors.primary.default.hex}};stroke-width:0.411191;stroke-dasharray:none;stroke-opacity:1"
     id="rect1-2-3"
     width="5.8920484"
     height="5.8508992"
     x="10.261228"
     y="10.281802"
     rx="1.224344"
     ry="1.2767248" />
  <path
     id="path1"
     style="fill:{{colors.primary.default.hex}};fill-opacity:1;stroke:none;stroke-width:0.0587368;stroke-dasharray:none;stroke-dashoffset:2.2;stroke-opacity:0.6"
     d="m 14.168922,11.656658 c -0.06055,-2.6e-5 -0.125364,0.02435 -0.206481,0.07188 -0.193027,0.1131 -0.445472,0.166438 -0.792145,0.166438 -0.346641,0 -0.607506,-0.05448 -0.799384,-0.16692 -0.153862,-0.09017 -0.245719,-0.09136 -0.374847,-0.0043 -0.331514,0.223407 -0.581361,0.939687 -0.654655,1.875683 -0.04395,0.561277 -0.0029,0.857184 0.142315,1.023712 0.07004,0.08029 0.241969,0.06668 0.397039,-0.03184 0.13145,-0.08351 0.288072,-0.267793 0.475192,-0.559138 0.16909,-0.263274 0.373614,-0.349984 0.825918,-0.350725 0.451405,-6.81e-4 0.628801,0.08471 0.837013,0.404757 0.349331,0.536972 0.672221,0.723915 0.861617,0.498829 0.104925,-0.124694 0.12413,-0.24517 0.119159,-0.746797 -0.0091,-0.911235 -0.247248,-1.740202 -0.590491,-2.056592 -0.09141,-0.08427 -0.162394,-0.124918 -0.24025,-0.124951 z M 12.207851,12.1936 h 0.209374 0.209373 v 0.179464 0.179463 h 0.179465 0.179462 v 0.22433 0.224328 h -0.179462 -0.179465 v 0.194419 0.194419 h -0.189593 c -0.104158,0 -0.197928,-0.0093 -0.208892,-0.02026 -0.01096,-0.01096 -0.02025,-0.098 -0.02025,-0.193935 v -0.174644 h -0.179466 -0.179465 v -0.224328 -0.224329 h 0.179465 0.179463 v -0.179465 z m 1.706832,0 c 0.188883,0 0.269773,0.209278 0.133633,0.345419 -0.08658,0.08657 -0.165598,0.09337 -0.250863,0.02123 -0.147895,-0.125144 -0.0707,-0.366645 0.11723,-0.366645 z m -0.363268,0.383531 c 0.04717,3.2e-5 0.09465,0.01883 0.132184,0.0603 0.05851,0.06466 0.06483,0.212666 0.01207,0.281737 -0.103261,0.135182 -0.351207,0.04823 -0.351207,-0.123018 0,-0.12997 0.103198,-0.219094 0.206961,-0.219022 z m 0.741493,0.0073 c 0.05436,9.9e-4 0.10714,0.019 0.137972,0.05306 0.05851,0.06466 0.06482,0.212666 0.01206,0.281738 -0.109832,0.143783 -0.351209,0.04755 -0.351209,-0.139905 0,-0.05682 0.02277,-0.118403 0.05451,-0.14714 0.03629,-0.03285 0.0923,-0.04875 0.14666,-0.04775 z m -0.365199,0.386906 c 0.167454,0 0.248932,0.177621 0.147622,0.322262 -0.03463,0.04945 -0.07687,0.06657 -0.164026,0.06657 -0.100342,0 -0.123628,-0.01306 -0.164024,-0.09118 -0.07966,-0.154035 0.0073,-0.297659 0.180428,-0.297659 z" />
</svg>
