<?xml version="1.0" encoding="UTF-8" standalone="no"?>
<svg
   width="64"
   height="64"
   version="1.1"
   viewBox="0 0 16.933 16.933"
   id="svg7"
   sodipodi:docname="abcd.svg"
   inkscape:version="1.4.3 (0d15f75042, 2025-12-25)"
   xmlns:inkscape="http://www.inkscape.org/namespaces/inkscape"
   xmlns:sodipodi="http://sodipodi.sourceforge.net/DTD/sodipodi-0.dtd"
   xmlns="http://www.w3.org/2000/svg"
   xmlns:svg="http://www.w3.org/2000/svg"
   xmlns:rdf="http://www.w3.org/1999/02/22-rdf-syntax-ns#"
   xmlns:cc="http://creativecommons.org/ns#"
   xmlns:dc="http://purl.org/dc/elements/1.1/">
  <sodipodi:namedview
     id="namedview7"
     pagecolor="#9c4444"
     bordercolor="#000000"
     borderopacity="0.25"
     inkscape:showpageshadow="2"
     inkscape:pageopacity="0.0"
     inkscape:pagecheckerboard="0"
     inkscape:deskcolor="#d1d1d1"
     inkscape:zoom="4.3531261"
     inkscape:cx="43.072494"
     inkscape:cy="45.254834"
     inkscape:window-width="1226"
     inkscape:window-height="669"
     inkscape:window-x="109"
     inkscape:window-y="119"
     inkscape:window-maximized="0"
     inkscape:current-layer="svg7"
     showgrid="false" />
  <defs
     id="defs2">
    <filter
       style="color-interpolation-filters:sRGB;"
       inkscape:label="Blur"
       id="filter5421"
       x="-0.12256455"
       y="-0.12342654"
       width="1.2451291"
       height="1.2468531">
      <feGaussianBlur
         stdDeviation="0.5 0.5"
         result="blur"
         id="feGaussianBlur5419" />
    </filter>
    <filter
       style="color-interpolation-filters:sRGB"
       inkscape:label="Blur"
       id="filter5421-3"
       x="-0.12256455"
       y="-0.12342654"
       width="1.2451291"
       height="1.2468531">
      <feGaussianBlur
         stdDeviation="0.5 0.5"
         result="blur"
         id="feGaussianBlur5419-6" />
    </filter>
  </defs>
  <metadata
     id="metadata2">
    <rdf:RDF>
      <cc:Work
         rdf:about="">
        <dc:format>image/svg+xml</dc:format>
        <dc:type
           rdf:resource="http://purl.org/dc/dcmitype/StillImage" />
      </cc:Work>
    </rdf:RDF>
  </metadata>
  <rect
     style="opacity:0.3;fill:none;fill-opacity:0.996424;stroke:#000000;stroke-width:0.955221;stroke-dasharray:none;stroke-opacity:1;filter:url(#filter5421)"
     id="rect1-2-7"
     width="13.687567"
     height="13.591975"
     x="1.6227165"
     y="1.6705122"
     rx="2.8442214"
     ry="2.965905" />
  <rect
     style="fill:none;fill-opacity:1;stroke:{{colors.primary.default.hex}};stroke-width:0.955221;stroke-dasharray:none;stroke-opacity:1"
     id="rect1-2"
     width="13.687567"
     height="13.591975"
     x="1.6227167"
     y="1.6705124"
     rx="2.8442214"
     ry="2.965905" />
  <path
     d="m 5.0777536,10.692277 c -0.096067,-0.09607 -0.055311,-0.253266 0.058222,-0.366801 0.238712,-0.238712 0.6870249,-0.215423 0.8413133,-0.119355 0.0786,0.04949 0.174668,0.02911 0.1688458,-0.07569 -0.014561,-0.1834024 -0.0524,-0.4192034 -0.0786,-0.6084265 -0.00873,-0.07278 -0.072779,-0.1309986 -0.189221,-0.131002 C 5.5988444,9.3851666 5.1941987,9.5045386 4.8652418,9.8334955 4.4664179,10.232318 4.3208623,11.024144 4.649819,11.3531 c 0.6026018,0.602602 1.8718499,-0.451225 2.1338512,-0.189222 0.096067,0.09607 -0.020378,0.276556 -0.145556,0.401734 -0.2416232,0.241624 -0.7132246,0.270734 -0.8791579,0.163022 -0.078601,-0.04949 -0.1775784,-0.0262 -0.1688455,0.07569 0.011651,0.186312 0.049489,0.422112 0.075689,0.611336 0.011645,0.06987 0.072779,0.131 0.1921331,0.133911 0.279468,0.0059 0.7219584,-0.163021 1.1033151,-0.544378 C 7.3396931,11.626747 7.5347384,10.826189 7.19996,10.491411 6.641025,9.9324738 5.3513986,10.965922 5.0777536,10.692277 Z M 9.9984548,8.2110939 C 9.8645456,8.2227394 9.6258321,8.2402038 9.3463652,8.2518521 9.2997866,8.1645189 9.2910534,7.9927623 9.2619426,7.8996063 9.2328312,7.7948056 9.1309418,7.7918952 9.078542,7.879228 L 8.8514749,8.263494 8.5603628,8.2518484 C 8.6855403,7.9752917 8.6593407,7.4774895 8.4410065,7.2591561 8.1498947,6.9680439 7.7510712,6.9476669 7.4104699,7.2882675 7.0029133,7.6958242 6.9563355,8.353737 7.296936,8.6943387 7.4279371,8.8253394 7.6550041,8.9068501 7.925739,8.9505164 7.6928487,9.2590949 7.7568935,9.7190528 7.9810486,9.943209 8.327472,10.289632 8.7932521,10.173188 9.1396749,9.8267636 9.3521861,9.6142526 9.5414094,9.2736507 9.5268542,8.973806 9.7044327,8.959245 9.8528987,8.944696 9.9460559,8.933048 10.045033,8.921397 10.114899,8.89229 10.126545,8.78167 10.141085,8.6681361 10.149825,8.3857576 10.144005,8.327535 10.135275,8.2664026 10.085775,8.2052675 9.9984494,8.21109 Z M 8.8340074,9.3522532 C 8.7379409,9.44832 8.5254291,9.427942 8.417717,9.3202325 8.3478487,9.2503644 8.3187404,9.1106311 8.3332955,8.9970984 c 0.1863112,0.011645 0.3813567,0.014561 0.5705796,0.00584 0.017471,0.1280893 -0.00292,0.2823793 -0.069869,0.3493353 z M 7.6579147,7.8268258 c 0.075688,-0.07569 0.2940241,-0.00293 0.3813578,0.084422 0.06113,0.061131 0.1106211,0.1863141 0.098977,0.2969349 C 7.9286498,8.173252 7.7598043,8.1150271 7.66956,8.0247817 7.6113397,7.9665619 7.6026087,7.8821346 7.657917,7.8268258 Z M 9.9731657,4.79544 C 9.9061967,4.8624 9.3734754,5.4300636 9.2832304,5.520309 c -0.069869,0.06987 -0.04367,0.4686902 0.017468,0.5298236 0.026199,0.026202 0.049488,0.02038 0.072779,-0.00293 0.084422,-0.084422 0.5967799,-0.6258913 0.6782906,-0.7074028 0.451224,-0.451223 1.179003,-0.2765566 1.63605,0.18049 0.273644,0.2736457 0.340602,0.5851352 0.107711,0.8413141 -0.02911,0.029109 -0.197959,0.2037758 -0.378446,0.3959124 -0.01165,-0.1455561 -0.05823,-0.2852905 -0.160112,-0.3871796 0,0 -0.352269,-0.3580442 -0.666647,-0.6841112 -0.06987,-0.069868 -0.09315,-0.1280917 -0.133911,-0.2270678 -0.03785,-0.1018901 -0.136823,-0.096067 -0.180489,-0.00584 L 9.9818975,6.0559246 c -0.040761,0.087333 -0.00585,0.1746677 0.072774,0.2125114 0.06987,0.03493 0.142644,0.072779 0.224156,0.1542905 0.256179,0.2561787 0.521091,0.5327353 0.652091,0.6637358 0.03202,0.032021 0.05823,0.058221 0.0786,0.090246 l -0.113528,0.1135584 c -0.06987,0.069869 0.02328,0.5007122 0.08442,0.5618459 0.02328,0.023288 0.05241,0.017465 0.07569,-0.00584 0.08151,-0.081508 0.957757,-0.981045 1.03927,-1.0625574 C 12.642661,6.23643 12.555327,5.3863842 12.00804,4.8274493 11.431637,4.251047 10.537923,4.2306692 9.9731648,4.7954282 Z"
     id="text3"
     style="font-size:5.64433px;line-height:0.7;font-family:'Anubis Mythical Serif';-inkscape-font-specification:'Anubis Mythical Serif';letter-spacing:-0.394221px;fill:{{colors.primary.default.hex}};fill-opacity:1;stroke-width:0.231578"
     aria-label="S &amp; D" />
  <rect
     style="opacity:0.3;fill:none;fill-opacity:0.996424;stroke:#000000;stroke-width:0.955221;stroke-dasharray:none;stroke-opacity:1;filter:url(#filter5421-3)"
     id="rect1-2-7-5"
     width="13.687567"
     height="13.591975"
     x="1.6227165"
     y="1.6705122"
     rx="2.8442214"
     ry="2.965905"
     transform="matrix(0.43046721,0,0,0.43046721,9.5627021,9.5627021)" />
  <rect
     style="fill:none;fill-opacity:1;stroke:{{colors.primary.default.hex}};stroke-width:0.411191;stroke-dasharray:none;stroke-opacity:1"
     id="rect1-2-3"
     width="5.8920484"
     height="5.8508992"
     x="10.261228"
     y="10.281802"
     rx="1.224344"
     ry="1.2767248" />
  <path
     id="path1"
     style="fill:{{colors.primary.default.hex}};fill-opacity:1;stroke:none;stroke-width:0.0587368;stroke-dasharray:none;stroke-dashoffset:2.2;stroke-opacity:0.6"
     d="m 14.168922,11.656658 c -0.06055,-2.6e-5 -0.125364,0.02435 -0.206481,0.07188 -0.193027,0.1131 -0.445472,0.166438 -0.792145,0.166438 -0.346641,0 -0.607506,-0.05448 -0.799384,-0.16692 -0.153862,-0.09017 -0.245719,-0.09136 -0.374847,-0.0043 -0.331514,0.223407 -0.581361,0.939687 -0.654655,1.875683 -0.04395,0.561277 -0.0029,0.857184 0.142315,1.023712 0.07004,0.08029 0.241969,0.06668 0.397039,-0.03184 0.13145,-0.08351 0.288072,-0.267793 0.475192,-0.559138 0.16909,-0.263274 0.373614,-0.349984 0.825918,-0.350725 0.451405,-6.81e-4 0.628801,0.08471 0.837013,0.404757 0.349331,0.536972 0.672221,0.723915 0.861617,0.498829 0.104925,-0.124694 0.12413,-0.24517 0.119159,-0.746797 -0.0091,-0.911235 -0.247248,-1.740202 -0.590491,-2.056592 -0.09141,-0.08427 -0.162394,-0.124918 -0.24025,-0.124951 z M 12.207851,12.1936 h 0.209374 0.209373 v 0.179464 0.179463 h 0.179465 0.179462 v 0.22433 0.224328 h -0.179462 -0.179465 v 0.194419 0.194419 h -0.189593 c -0.104158,0 -0.197928,-0.0093 -0.208892,-0.02026 -0.01096,-0.01096 -0.02025,-0.098 -0.02025,-0.193935 v -0.174644 h -0.179466 -0.179465 v -0.224328 -0.224329 h 0.179465 0.179463 v -0.179465 z m 1.706832,0 c 0.188883,0 0.269773,0.209278 0.133633,0.345419 -0.08658,0.08657 -0.165598,0.09337 -0.250863,0.02123 -0.147895,-0.125144 -0.0707,-0.366645 0.11723,-0.366645 z m -0.363268,0.383531 c 0.04717,3.2e-5 0.09465,0.01883 0.132184,0.0603 0.05851,0.06466 0.06483,0.212666 0.01207,0.281737 -0.103261,0.135182 -0.351207,0.04823 -0.351207,-0.123018 0,-0.12997 0.103198,-0.219094 0.206961,-0.219022 z m 0.741493,0.0073 c 0.05436,9.9e-4 0.10714,0.019 0.137972,0.05306 0.05851,0.06466 0.06482,0.212666 0.01206,0.281738 -0.109832,0.143783 -0.351209,0.04755 -0.351209,-0.139905 0,-0.05682 0.02277,-0.118403 0.05451,-0.14714 0.03629,-0.03285 0.0923,-0.04875 0.14666,-0.04775 z m -0.365199,0.386906 c 0.167454,0 0.248932,0.177621 0.147622,0.322262 -0.03463,0.04945 -0.07687,0.06657 -0.164026,0.06657 -0.100342,0 -0.123628,-0.01306 -0.164024,-0.09118 -0.07966,-0.154035 0.0073,-0.297659 0.180428,-0.297659 z" />
</svg>
