<?xml version="1.0" encoding="UTF-8" standalone="no"?>
<svg
   width="64"
   height="64"
   version="1.1"
   viewBox="0 0 16.933 16.933"
   id="svg7"
   sodipodi:docname="abcd.svg"
   inkscape:version="1.4.3 (0d15f75042, 2025-12-25)"
   xmlns:inkscape="http://www.inkscape.org/namespaces/inkscape"
   xmlns:sodipodi="http://sodipodi.sourceforge.net/DTD/sodipodi-0.dtd"
   xmlns="http://www.w3.org/2000/svg"
   xmlns:svg="http://www.w3.org/2000/svg"
   xmlns:rdf="http://www.w3.org/1999/02/22-rdf-syntax-ns#"
   xmlns:cc="http://creativecommons.org/ns#"
   xmlns:dc="http://purl.org/dc/elements/1.1/">
  <sodipodi:namedview
     id="namedview7"
     pagecolor="#9c4444"
     bordercolor="#000000"
     borderopacity="0.25"
     inkscape:showpageshadow="2"
     inkscape:pageopacity="0.0"
     inkscape:pagecheckerboard="0"
     inkscape:deskcolor="#d1d1d1"
     inkscape:zoom="4.3531261"
     inkscape:cx="43.187354"
     inkscape:cy="45.254834"
     inkscape:window-width="1226"
     inkscape:window-height="669"
     inkscape:window-x="109"
     inkscape:window-y="119"
     inkscape:window-maximized="0"
     inkscape:current-layer="svg7"
     showgrid="false" />
  <defs
     id="defs2">
    <filter
       style="color-interpolation-filters:sRGB;"
       inkscape:label="Blur"
       id="filter5421"
       x="-0.12256455"
       y="-0.12342654"
       width="1.2451291"
       height="1.2468531">
      <feGaussianBlur
         stdDeviation="0.5 0.5"
         result="blur"
         id="feGaussianBlur5419" />
    </filter>
    <filter
       style="color-interpolation-filters:sRGB"
       inkscape:label="Blur"
       id="filter5421-3"
       x="-0.12256455"
       y="-0.12342654"
       width="1.2451291"
       height="1.2468531">
      <feGaussianBlur
         stdDeviation="0.5 0.5"
         result="blur"
         id="feGaussianBlur5419-6" />
    </filter>
  </defs>
  <metadata
     id="metadata2">
    <rdf:RDF>
      <cc:Work
         rdf:about="">
        <dc:format>image/svg+xml</dc:format>
        <dc:type
           rdf:resource="http://purl.org/dc/dcmitype/StillImage" />
      </cc:Work>
    </rdf:RDF>
  </metadata>
  <rect
     style="opacity:0.3;fill:none;fill-opacity:0.996424;stroke:#000000;stroke-width:0.955221;stroke-dasharray:none;stroke-opacity:1;filter:url(#filter5421)"
     id="rect1-2-7"
     width="13.687567"
     height="13.591975"
     x="1.6227165"
     y="1.6705122"
     rx="2.8442214"
     ry="2.965905" />
  <rect
     style="fill:none;fill-opacity:1;stroke:{{colors.primary.default.hex}};stroke-width:0.955221;stroke-dasharray:none;stroke-opacity:1"
     id="rect1-2"
     width="13.687567"
     height="13.591975"
     x="1.6227167"
     y="1.6705124"
     rx="2.8442214"
     ry="2.965905" />
  <path
     style="fill:{{colors.primary.default.hex}};fill-opacity:1;stroke:none;stroke-width:0.134778;stroke-dasharray:none;stroke-opacity:0.6"
     d="M 8.0908465,12.372049 C 7.5815054,11.740665 7.1492393,11.066121 6.7998236,10.357429 L 6.4919838,9.7330625 6.5070944,8.7091038 C 6.5214658,7.7353592 6.4350004,6.6142754 6.2701821,5.6372241 6.2470099,5.4998641 6.2367264,5.3782504 6.2473242,5.3669722 c 0.010599,-0.011272 0.064367,0.020303 0.1194801,0.070177 0.055112,0.049877 0.1001574,0.08158 0.1000998,0.070455 C 6.4668491,5.4964805 6.3544347,5.185834 6.2171004,4.8172818 6.0797649,4.4487302 5.975716,4.1388718 5.9858787,4.1287085 c 0.010166,-0.01016 0.2005785,0.1069598 0.4231436,0.2602741 0.2541189,0.1750494 0.4535248,0.3568872 0.5360009,0.4887759 0.072233,0.1155139 0.1185616,0.1706891 0.1029484,0.1226129 -0.045816,-0.1410852 0.074205,-0.1043291 0.4551235,0.1393788 0.353466,0.2261446 0.3542731,0.2271748 0.2838671,0.362132 -0.057131,0.1095107 -0.070614,0.4880806 -0.070635,1.9834646 -1.83e-5,1.179679 0.019683,1.9203864 0.05447,2.0479195 0.081336,0.2981751 0.4244995,0.9790387 0.5752445,1.1413247 l 0.1322162,0.142341 0.1161832,-0.142341 C 8.730804,10.507526 9.0830113,9.809733 9.1579129,9.5582401 9.2412368,9.2784623 9.2710994,7.9296414 9.2214973,6.6861583 9.1962936,6.0543004 9.1674854,5.4926572 9.1574819,5.4380621 9.1436868,5.3627586 9.2169495,5.2865988 9.461007,5.1225456 9.6379493,5.0036065 9.8202641,4.9161115 9.8661521,4.9281112 c 0.053114,0.013885 0.1145735,-0.0309 0.1691119,-0.1232243 0.07458,-0.1262453 0.87109,-0.7139027 0.912077,-0.6729161 0.0083,0.00836 -0.09716,0.3167594 -0.234483,0.685311 -0.137333,0.3685522 -0.249746,0.6791982 -0.249804,0.6903233 -4.9e-5,0.011123 0.04498,-0.020582 0.100101,-0.070454 0.0551,-0.049875 0.110901,-0.079987 0.123977,-0.066911 0.01307,0.013079 -0.0084,0.2133593 -0.04782,0.4450743 -0.16679,0.9815961 -0.235826,1.9935263 -0.19968,2.926942 l 0.03513,0.9072659 -0.258521,0.5412637 c -0.3489085,0.73051 -0.7853728,1.431173 -1.2939458,2.0772 -0.23249,0.295328 -0.4361154,0.536941 -0.4525036,0.53692 -0.016385,-2.3e-5 -0.1869164,-0.194808 -0.3789529,-0.432858 z M 9.9135071,5.0378338 c 0,-0.013734 -0.011234,-0.024974 -0.024968,-0.024974 -0.013737,0 -0.024971,0.011237 -0.024971,0.024974 0,0.013734 0.011234,0.024974 0.024971,0.024974 0.013737,0 0.024968,-0.011237 0.024968,-0.024974 z"
     id="path1-5" />
  <rect
     style="opacity:0.3;fill:none;fill-opacity:0.996424;stroke:#000000;stroke-width:0.955221;stroke-dasharray:none;stroke-opacity:1;filter:url(#filter5421-3)"
     id="rect1-2-7-5"
     width="13.687567"
     height="13.591975"
     x="1.6227165"
     y="1.6705122"
     rx="2.8442214"
     ry="2.965905"
     transform="matrix(0.43046721,0,0,0.43046721,9.5627021,9.5627021)" />
  <rect
     style="fill:none;fill-opacity:1;stroke:{{colors.primary.default.hex}};stroke-width:0.411191;stroke-dasharray:none;stroke-opacity:1"
     id="rect1-2-3"
     width="5.8920484"
     height="5.8508992"
     x="10.261228"
     y="10.281802"
     rx="1.224344"
     ry="1.2767248" />
  <path
     id="path1"
     style="fill:{{colors.primary.default.hex}};fill-opacity:1;stroke:none;stroke-width:0.0587368;stroke-dasharray:none;stroke-dashoffset:2.2;stroke-opacity:0.6"
     d="m 14.168922,11.656658 c -0.06055,-2.6e-5 -0.125364,0.02435 -0.206481,0.07188 -0.193027,0.1131 -0.445472,0.166438 -0.792145,0.166438 -0.346641,0 -0.607506,-0.05448 -0.799384,-0.16692 -0.153862,-0.09017 -0.245719,-0.09136 -0.374847,-0.0043 -0.331514,0.223407 -0.581361,0.939687 -0.654655,1.875683 -0.04395,0.561277 -0.0029,0.857184 0.142315,1.023712 0.07004,0.08029 0.241969,0.06668 0.397039,-0.03184 0.13145,-0.08351 0.288072,-0.267793 0.475192,-0.559138 0.16909,-0.263274 0.373614,-0.349984 0.825918,-0.350725 0.451405,-6.81e-4 0.628801,0.08471 0.837013,0.404757 0.349331,0.536972 0.672221,0.723915 0.861617,0.498829 0.104925,-0.124694 0.12413,-0.24517 0.119159,-0.746797 -0.0091,-0.911235 -0.247248,-1.740202 -0.590491,-2.056592 -0.09141,-0.08427 -0.162394,-0.124918 -0.24025,-0.124951 z M 12.207851,12.1936 h 0.209374 0.209373 v 0.179464 0.179463 h 0.179465 0.179462 v 0.22433 0.224328 h -0.179462 -0.179465 v 0.194419 0.194419 h -0.189593 c -0.104158,0 -0.197928,-0.0093 -0.208892,-0.02026 -0.01096,-0.01096 -0.02025,-0.098 -0.02025,-0.193935 v -0.174644 h -0.179466 -0.179465 v -0.224328 -0.224329 h 0.179465 0.179463 v -0.179465 z m 1.706832,0 c 0.188883,0 0.269773,0.209278 0.133633,0.345419 -0.08658,0.08657 -0.165598,0.09337 -0.250863,0.02123 -0.147895,-0.125144 -0.0707,-0.366645 0.11723,-0.366645 z m -0.363268,0.383531 c 0.04717,3.2e-5 0.09465,0.01883 0.132184,0.0603 0.05851,0.06466 0.06483,0.212666 0.01207,0.281737 -0.103261,0.135182 -0.351207,0.04823 -0.351207,-0.123018 0,-0.12997 0.103198,-0.219094 0.206961,-0.219022 z m 0.741493,0.0073 c 0.05436,9.9e-4 0.10714,0.019 0.137972,0.05306 0.05851,0.06466 0.06482,0.212666 0.01206,0.281738 -0.109832,0.143783 -0.351209,0.04755 -0.351209,-0.139905 0,-0.05682 0.02277,-0.118403 0.05451,-0.14714 0.03629,-0.03285 0.0923,-0.04875 0.14666,-0.04775 z m -0.365199,0.386906 c 0.167454,0 0.248932,0.177621 0.147622,0.322262 -0.03463,0.04945 -0.07687,0.06657 -0.164026,0.06657 -0.100342,0 -0.123628,-0.01306 -0.164024,-0.09118 -0.07966,-0.154035 0.0073,-0.297659 0.180428,-0.297659 z" />
</svg>
