<?xml version="1.0" encoding="UTF-8" standalone="no"?>
<svg
   width="64"
   height="64"
   version="1.1"
   viewBox="0 0 16.933 16.933"
   id="svg7"
   sodipodi:docname="steam_icon_1184370.svg"
   inkscape:version="1.4.3 (0d15f75042, 2025-12-25)"
   xmlns:inkscape="http://www.inkscape.org/namespaces/inkscape"
   xmlns:sodipodi="http://sodipodi.sourceforge.net/DTD/sodipodi-0.dtd"
   xmlns="http://www.w3.org/2000/svg"
   xmlns:svg="http://www.w3.org/2000/svg"
   xmlns:rdf="http://www.w3.org/1999/02/22-rdf-syntax-ns#"
   xmlns:cc="http://creativecommons.org/ns#"
   xmlns:dc="http://purl.org/dc/elements/1.1/">
  <sodipodi:namedview
     id="namedview7"
     pagecolor="#9c4444"
     bordercolor="#000000"
     borderopacity="0.25"
     inkscape:showpageshadow="2"
     inkscape:pageopacity="0.0"
     inkscape:pagecheckerboard="0"
     inkscape:deskcolor="#d1d1d1"
     inkscape:zoom="4.3531261"
     inkscape:cx="42.957635"
     inkscape:cy="45.025114"
     inkscape:window-width="1226"
     inkscape:window-height="669"
     inkscape:window-x="314"
     inkscape:window-y="198"
     inkscape:window-maximized="0"
     inkscape:current-layer="svg7"
     showgrid="false" />
  <defs
     id="defs2">
    <filter
       style="color-interpolation-filters:sRGB;"
       inkscape:label="Blur"
       id="filter5421"
       x="-0.12256455"
       y="-0.12342654"
       width="1.2451291"
       height="1.2468531">
      <feGaussianBlur
         stdDeviation="0.5 0.5"
         result="blur"
         id="feGaussianBlur5419" />
    </filter>
    <filter
       style="color-interpolation-filters:sRGB"
       inkscape:label="Blur"
       id="filter5421-3"
       x="-0.12256455"
       y="-0.12342654"
       width="1.2451291"
       height="1.2468531">
      <feGaussianBlur
         stdDeviation="0.5 0.5"
         result="blur"
         id="feGaussianBlur5419-6" />
    </filter>
  </defs>
  <metadata
     id="metadata2">
    <rdf:RDF>
      <cc:Work
         rdf:about="">
        <dc:format>image/svg+xml</dc:format>
        <dc:type
           rdf:resource="http://purl.org/dc/dcmitype/StillImage" />
      </cc:Work>
    </rdf:RDF>
  </metadata>
  <rect
     style="opacity:0.3;fill:none;fill-opacity:0.996424;stroke:#000000;stroke-width:0.955221;stroke-dasharray:none;stroke-opacity:1;filter:url(#filter5421)"
     id="rect1-2-7"
     width="13.687567"
     height="13.591975"
     x="1.6227165"
     y="1.6705122"
     rx="2.8442214"
     ry="2.965905" />
  <rect
     style="fill:none;fill-opacity:1;stroke:{{colors.primary.default.hex}};stroke-width:0.955221;stroke-dasharray:none;stroke-opacity:1"
     id="rect1-2"
     width="13.687567"
     height="13.591975"
     x="1.6227167"
     y="1.6705124"
     rx="2.8442214"
     ry="2.965905" />
  <path
     d="m 10.624343,4.8616993 c -0.0455,-0.00133 -0.0911,0.0047 -0.133498,0.017914 -0.08265,0.026186 -0.168195,0.07759 -0.209786,0.1536196 -0.08438,0.1542664 -0.09212,0.3611508 -0.03294,0.5267135 0.162358,0.45422 0.631878,0.7345015 0.985355,1.0597751 0.120524,0.1109022 1.256733,0.9148585 0.675589,1.7943906 -0.02199,0.033325 -0.04723,0.064241 -0.07571,0.092985 0.07735,0.111102 0.150627,0.2247314 0.209209,0.3459446 0.02717,-0.020992 0.05331,-0.042249 0.0786,-0.063509 C 12.54777,8.4306278 12.519986,7.7191477 12.345394,7.3607224 12.190409,7.0425466 11.950152,6.7684015 11.701011,6.5169464 11.476176,6.2900158 10.707124,5.849597 10.618567,5.5738317 c -0.04198,-0.1306678 -0.07902,-0.3384598 0.03814,-0.4100506 0.06259,-0.038247 0.226294,0.00666 0.306874,0.113774 0.04654,0.06197 0.122753,0.1540927 0.112118,-0.00202 -0.01146,-0.1677208 -0.199673,-0.3541939 -0.317857,-0.3915653 -0.0424,-0.013397 -0.08798,-0.021326 -0.133499,-0.022531 z m -0.332302,2.2287021 c -0.01426,6.287e-4 -0.01977,0.019527 -0.01791,0.064707 0.01554,0.3761448 -0.266332,0.4836759 -0.308035,0.4458508 -0.047277,-0.042922 -0.064062,-0.017528 -0.057789,0.03405 0.00828,0.06835 0.014553,0.080548 0.075708,0.1876992 0.010233,0.017914 0.016047,0.058111 -0.012717,0.013869 C 9.799903,7.5726826 9.885843,7.3597869 9.942984,7.21515 9.975645,7.1324688 9.937404,7.1245653 9.893277,7.1776362 9.6786641,7.4363074 9.4666281,7.6333159 9.2812518,7.9821318 c -0.026274,0.049452 -0.026988,0.083299 0.042767,0.022532 0.1721479,-0.1499608 0.3059767,-0.030453 0.2502504,0.0901 -0.1476545,0.319373 -0.407374,0.3958305 -0.50048,0.4360335 -0.3485104,0.1504749 -0.3868512,0.1391798 -0.5397778,0.7588751 -0.095195,0.3857643 0.031794,1.3287176 0.1485261,1.8423366 0.011282,0.04965 0.023386,0.0974 0.036404,0.143809 0.101791,-0.09733 0.2042461,-0.20092 0.3357729,-0.250074 -0.03068,-0.141191 -0.057675,-0.315977 -0.076865,-0.537109 C 8.9624637,9.7547505 8.9729442,9.0439554 9.9811188,9.1990008 10.767165,9.3080582 11.265222,9.2386539 11.6149,9.0990933 11.565149,8.9725228 11.504562,8.8508375 11.435178,8.7335184 10.963312,8.8856105 10.332162,8.8283065 10.095557,8.698264 9.67119,8.4650617 10.000961,8.2992802 10.083996,8.3020711 c 0.201904,0.00682 0.288662,0.1673819 0.302832,0.2021358 0.04156,0.1019729 0.06645,0.069192 0.120787,0.016187 0.379957,-0.3707616 0.249438,-1.0693716 -0.165865,-1.402247 -0.02235,-0.017914 -0.0386,-0.028255 -0.04971,-0.027726 z m 0.72529,2.3545971 c -0.158932,0.00538 -0.341349,0.059847 -0.480831,0.22582 -0.232098,0.2761438 -0.324489,0.6167875 -0.365824,0.9228965 0.11659,0.04367 0.237055,0.073 0.360625,0.0872 0.04146,-0.436307 0.154989,-0.7030819 0.309186,-0.8431995 0.156447,-0.1421658 0.315686,-0.1055729 0.348486,-0.088938 0.05356,0.027131 0.08787,0.1377578 0.09073,0.2125298 0.0077,0.2047987 0.152926,0.1174647 0.179735,-0.034659 0.01354,-0.076842 0.03272,-0.3599055 -0.145637,-0.4337217 -0.06333,-0.026183 -0.17286,-0.052048 -0.296474,-0.047915 z m -0.885954,1.6615665 c -0.0044,0.0799 -0.0095,0.147815 -0.01906,0.198096 -0.08078,0.421918 -0.2930894,0.880493 -0.8322059,0.292233 -0.022246,-0.03558 -0.049843,-0.07846 -0.079175,-0.135722 -0.1306812,0.03965 -0.2462096,0.123905 -0.3236352,0.236215 0.080193,0.16426 0.1663574,0.285879 0.2415708,0.358065 0.3682103,0.353393 0.7998393,0.269899 1.0096263,0.1028 0.159161,-0.126773 0.317834,-0.333964 0.37276,-0.987579 -0.125526,-0.0081 -0.249347,-0.02921 -0.36987,-0.06411 z m 1.254665,-5.4051303 c -0.135054,0.00401 -0.286892,0.054976 -0.442107,0.1900052 0.09345,0.081121 0.196299,0.1524331 0.297628,0.2246643 0.08481,-0.055777 0.185964,-0.081882 0.300519,-0.069309 0.319763,0.035123 0.431543,0.2400451 0.479673,0.4608711 0.02656,0.1218524 0.120476,0.2138955 0.120208,-0.013264 -2.12e-4,-0.1731515 -0.0049,-0.3723728 -0.29705,-0.6254665 -0.07644,-0.066241 -0.234868,-0.1647955 -0.432286,-0.1674874 -0.0088,-1.327e-4 -0.01757,-2.619e-4 -0.02658,0 z m -0.701594,0.5007162 c -0.0097,0.015192 -0.01977,0.029667 -0.02947,0.045651 -0.09618,0.158725 -0.174665,0.7637054 0.100561,1.3271762 0.128148,0.2623574 0.319947,0.5749878 0.57214,0.9269355 0.631695,0.8815588 0.582647,1.7642864 -0.07514,2.0918234 0.05681,0.121405 0.09641,0.251447 0.109226,0.384634 0.403109,-0.179521 0.613913,-0.45538 0.716051,-0.751943 0.269007,-0.7810717 -0.07771,-1.4074266 -0.177998,-1.5535676 L 11.248499,7.7239516 C 10.953206,7.2936342 10.893418,6.8054062 10.999418,6.4666659 10.893513,6.3794146 10.786681,6.2932347 10.684448,6.2021509 Z M 9.1893681,9.5836116 c -0.079514,0.00264 -0.080736,0.031933 -0.1017144,0.075659 -0.068848,0.1435572 -0.076073,0.2978496 -0.081486,0.4470074 -0.00534,0.14689 0.03645,0.199998 0.083798,0.222928 0.073983,0.03585 0.3500741,0.305546 0.5657841,0.485706 0.3773032,0.315117 0.8585482,0.352215 1.2095862,0.305516 0.01791,-0.13879 -0.0282,-0.278238 -0.0994,-0.399658 -0.01288,0.0014 -0.0256,0.002 -0.03871,0.0026 C 10.137427,10.75808 9.3728169,10.318808 9.4563676,9.7183921 9.4673816,9.6393011 9.4036006,9.6352571 9.3852846,9.6213721 9.3394829,9.5867068 9.2813713,9.5867068 9.2286692,9.583915 9.2138336,9.5832865 9.2007296,9.5832865 9.1893671,9.5833912 Z M 5.4976142,5.7014347 C 5.3001979,5.704075 5.1417582,5.8026949 5.0653276,5.8689224 4.773213,6.1220158 4.7690606,6.3212366 4.7688552,6.4943883 4.7685933,6.7215658 4.8619277,6.6295215 4.888485,6.5076499 4.9366059,6.2868234 5.0489739,6.0818713 5.3687385,6.0467786 5.9604809,5.9818042 6.1948875,6.9470034 5.6617439,7.7239304 l -0.5276431,0.768697 c 0.091537,0.087606 0.2061275,0.1501473 0.3259479,0.1940508 0.037568,-0.06151 0.078317,-0.123126 0.1225193,-0.1848074 C 5.834761,8.1499222 6.0265591,7.8372926 6.1547092,7.5749357 6.4299317,7.0114647 6.3514511,6.4064838 6.2552673,6.2477596 5.9950017,5.8182557 5.7213511,5.6983636 5.4976142,5.7014148 Z M 4.8873296,8.9009669 c -0.1229371,0.2804297 -0.2486455,0.7628892 -0.054905,1.3254371 0.1209345,0.351136 0.3943651,0.673376 0.9587693,0.84089 0.1506161,0.04472 0.3654837,0.07911 0.5998814,0.06699 -0.00945,-0.138006 -0.012612,-0.27675 -0.023121,-0.41467 -0.062688,0.006 -0.1247948,0.0076 -0.1849337,0.004 C 5.2712646,10.669882 4.9372427,9.9550389 5.2496801,9.1145973 5.1209507,9.0574866 5.0000101,8.9851346 4.8873239,8.9009082 Z m 2.8335433,0.6826447 c -0.011365,-3.93e-4 -0.024467,-2.125e-4 -0.039306,5.238e-4 -0.052707,0.00264 -0.1108166,0.00264 -0.156617,0.037512 -0.018317,0.013869 -0.082093,0.017922 -0.071084,0.097022 0.055348,0.3977086 -0.2614423,0.7245996 -0.653051,0.8899746 0.018429,0.146209 0.027885,0.293338 0.035254,0.440661 0.1454274,-0.05045 0.2881808,-0.125706 0.4184143,-0.234474 C 7.4701948,10.634669 7.7462845,10.364959 7.820267,10.32912 7.867627,10.30621 7.909396,10.25308 7.904065,10.106197 7.8986597,9.9570351 7.8914277,9.8027415 7.8225804,9.6591861 7.801597,9.6154688 7.8003974,9.5859543 7.7208677,9.5835272 Z M 9.5788866,9.2290062 C 9.451769,9.2316432 9.327753,9.2702541 9.2130624,9.4143918 9.1818675,9.4536363 9.1234269,9.5110081 9.2304,9.5235504 9.4998551,9.5551449 9.5786508,9.607641 9.6886902,9.6881432 9.876447,9.8254958 10.071059,9.9577443 10.249852,10.101654 10.299928,9.9651027 10.367981,9.8351805 10.45328,9.7175993 10.365827,9.6417923 10.248926,9.5442274 10.066073,9.3924462 c -0.008,-0.00667 -0.0163,-0.041852 -0.01444,-0.062374 0.0046,-0.05198 -0.01908,-0.072168 -0.088425,-0.07161 C 9.8359587,9.2597726 9.7060052,9.2262753 9.5788873,9.229008 Z M 10.754375,10.00232 c -0.07919,0.13334 -0.121928,0.283596 -0.151991,0.435465 0.0076,0.0089 0.01518,0.01806 0.02254,0.02713 0.20622,0.255136 0.468283,0.615235 0.08784,0.990467 -0.06976,0.06881 -0.151301,0.0971 -0.235215,0.09933 -10e-6,4e-5 -5.23e-4,-3.3e-5 -5.23e-4,0 -0.02971,0.127743 -0.07043,0.25218 -0.128878,0.368469 0.291837,0.07649 0.570986,0.03639 0.779038,-0.266245 0.289851,-0.421604 0.328859,-0.945051 -0.308032,-1.589371 -0.02613,-0.02645 -0.04304,-0.04338 -0.06473,-0.06523 z m -1.5066366,1.026275 c -0.2710482,6.54e-4 -0.4072229,0.192979 -0.5363099,0.305518 -0.185094,0.161366 -0.2303656,0.494001 -0.134079,0.761189 0.032476,0.09011 0.1034863,0.32999 0.3213252,0.359224 0.1826939,0.02453 0.2737675,0.0095 0.1225184,-0.09182 -0.1019444,-0.06829 -0.151288,-0.150481 -0.1964935,-0.218893 -0.135862,-0.205593 -0.00613,-0.486315 0.1375459,-0.596013 0.4401636,-0.335934 0.6503172,0.02792 0.9200479,0.17731 0.00792,0.0046 0.015804,0.0084 0.023706,0.01272 0.076194,-0.09892 0.1213046,-0.217208 0.1490996,-0.340165 -0.007,-0.0053 -0.01413,-0.01001 -0.0208,-0.01501 -0.3524275,-0.26558 -0.601106,-0.35457 -0.7865604,-0.354023 z M 7.3452252,9.2290062 c -0.1271178,-0.00264 -0.2576478,0.030451 -0.384896,0.029457 -0.069331,-5.238e-4 -0.09312,0.019658 -0.088421,0.07161 0.00186,0.020528 -0.0064,0.055715 -0.014443,0.062374 -0.4984927,0.4137781 -0.51139,0.4306798 -0.7530292,0.6751338 -0.1787098,0.180795 -0.3043854,0.35183 -0.3860515,0.514006 0.1327285,0.05764 0.2755156,0.08863 0.4201476,0.102226 0.048938,-0.07905 0.1064134,-0.152481 0.1600836,-0.218889 C 6.5473678,10.157167 6.9022434,9.9314535 7.2348453,9.6881446 7.3448863,9.6076428 7.4236808,9.5551298 7.6931356,9.5235486 7.800108,9.5110257 7.7416713,9.4536083 7.7104782,9.4143909 7.5957886,9.2702412 7.4723499,9.2317557 7.3452331,9.2290026 Z m 0.3242126,1.8001678 c -0.1847399,0.0014 -0.4317659,0.09088 -0.7801927,0.35345 -0.1718984,0.129541 -0.4750825,0.273383 -0.6784779,0.07277 -0.1027663,-0.101354 -0.1581225,-0.201781 -0.1808884,-0.29916 -0.1489408,-0.02146 -0.2943886,-0.0619 -0.4340193,-0.117815 -0.00612,0.227069 0.072761,0.432676 0.2005375,0.618535 0.318268,0.462936 0.8029777,0.312884 1.2448421,0.06816 0.2133559,-0.118172 0.3893863,-0.369788 0.6715427,-0.303786 0.055469,-0.117161 0.092986,-0.241245 0.1219413,-0.36731 -0.049258,-0.01607 -0.1037051,-0.02526 -0.1652853,-0.02484 z m 0.561738,0.322268 c -0.037452,0.12255 -0.08302,0.242724 -0.1386998,0.358071 0.06958,0.130397 0.096138,0.298444 0.00634,0.434297 -0.045202,0.06842 -0.094548,0.150593 -0.1964916,0.218893 -0.1512511,0.101326 -0.060177,0.116342 0.1225182,0.09182 0.2178361,-0.02926 0.2888502,-0.269114 0.3213237,-0.359225 0.092958,-0.257944 0.054338,-0.576914 -0.1150044,-0.743861 z M 6.3090141,4.8657379 c -0.045508,0.00133 -0.091092,0.00913 -0.1335006,0.022532 -0.1181814,0.037387 -0.3064088,0.2238445 -0.3178553,0.3915645 -0.010645,0.1558264 0.065,0.063707 0.1115387,0.00199 0.08058,-0.1072555 0.2442658,-0.1520378 0.3068752,-0.11378 0.1171588,0.07159 0.080105,0.2793828 0.038146,0.4100535 C 6.2840119,5.6721552 6.1738695,5.785392 6.0339282,5.9026647 6.1132272,5.9802078 6.181657,6.0681855 6.2431351,6.160823 6.4337337,5.9881102 6.6010239,5.799278 6.6852435,5.5636578 6.7444206,5.3980968 6.7366833,5.1917908 6.6523018,5.0375255 6.6107138,4.961495 6.5251651,4.910115 6.4425181,4.8839004 6.4001196,4.8704396 6.3545272,4.8647766 6.3090172,4.8659685 Z M 5.6825497,6.1709628 C 5.4975133,6.3052362 5.3214075,6.4299005 5.2317707,6.5203788 4.9826272,6.7718327 4.742371,7.0465571 4.5873888,7.3647258 4.4127971,7.7231569 4.3855901,8.4346374 4.8121996,8.7935429 c 0.3547457,0.2984554 0.8737358,0.584502 2.1394618,0.4088984 1.0081949,-0.1550527 1.0192309,0.556316 1.0038463,1.2902047 -0.064819,0.747141 -0.2196151,0.975276 -0.3028294,1.108291 -0.3091483,0.337326 -0.5104569,0.329991 -0.641493,0.183074 -0.1249739,0.06624 -0.2545888,0.12549 -0.3900956,0.165177 0.056785,0.09908 0.1203702,0.162027 0.1837793,0.212528 0.2097868,0.167101 0.6414166,0.251174 1.0096275,-0.10222 0.1452584,-0.139418 0.330877,-0.462024 0.4357516,-0.923474 C 8.3669783,10.622403 8.4945459,9.6794494 8.399351,9.2936859 8.2464249,8.6739818 8.2080836,8.6847048 7.8595718,8.5342304 7.7664674,8.4940437 7.5067474,8.4181498 7.3590948,8.0987691 7.3033705,7.9782297 7.4371978,7.8587174 7.6093335,8.0086786 c 0.069757,0.060777 0.068466,0.026925 0.042197,-0.022531 C 7.4661555,7.6373309 7.254697,7.4397419 7.0400916,7.1810712 c -0.044005,-0.053048 -0.082938,-0.045111 -0.050284,0.037515 0.057128,0.1446354 0.1430777,0.3575324 -0.028312,0.6214216 -0.028754,0.044324 -0.022955,0.00393 -0.012712,-0.013869 0.061142,-0.1071515 0.067999,-0.1193458 0.076287,-0.1876989 0.00618,-0.051577 -0.011085,-0.076377 -0.05837,-0.033516 -0.041697,0.037853 -0.3230055,-0.070277 -0.307453,-0.446424 0.00326,-0.080303 -0.016541,-0.07733 -0.067617,-0.036391 -0.4153021,0.332877 -0.5458208,1.0314867 -0.1658629,1.4022538 0.054331,0.053049 0.079214,0.085801 0.1207846,-0.016187 C 6.560717,8.4733913 6.6474808,8.3122669 6.8493832,8.3054622 6.9324226,8.3028432 7.2616141,8.4690318 6.8372476,8.7022333 6.4997301,8.887699 5.359282,8.9259167 5.0237335,8.4180838 4.4425898,7.5385441 5.5787985,6.7345931 5.6993233,6.6236841 5.7552822,6.5721728 5.8143105,6.521931 5.874433,6.4717971 5.8355944,6.3569282 5.7755092,6.2479392 5.6825622,6.1708963 Z m 0.2132501,3.2775024 c -0.010894,-7.28e-5 -0.021751,2.211e-4 -0.03236,5.762e-4 -0.101854,0.00325 -0.1895809,0.02546 -0.2438824,0.047912 -0.1783743,0.073826 -0.1597543,0.3568945 -0.1462134,0.4337239 0.026807,0.1521207 0.1724345,0.2394597 0.1803115,0.034659 0.00286,-0.074772 0.036604,-0.1859451 0.090156,-0.2131022 0.032791,-0.016672 0.1926169,-0.053249 0.3490628,0.08894 0.030401,0.027588 0.059128,0.060389 0.086109,0.098174 0.079387,-0.07913 0.1603602,-0.1565692 0.245039,-0.2304346 -0.00915,-0.011659 -0.018118,-0.023199 -0.027735,-0.034656 C 6.2509966,9.5013954 6.0591168,9.4496222 5.8958098,9.4484424 Z m 0.7663234,0.7097928 c -0.1052198,0.08704 -0.2039725,0.179691 -0.2941623,0.281837 3.72e-5,1.87e-4 -3.61e-5,4.19e-4 0,5.5e-4 0.025027,0.1339 0.041657,0.289088 0.047971,0.467222 0.0089,0.251076 0.029992,0.449442 0.060103,0.608712 0.129184,-0.0075 0.2527171,-0.06693 0.3588898,-0.140916 -0.00507,-0.02259 -0.010131,-0.04504 -0.014453,-0.06756 -0.039046,-0.203918 -0.00123,-0.688914 -0.158351,-1.149868 z M 8.3063051,4.4683995 c -0.02354,2.619e-4 -0.047263,0.00397 -0.069931,0.00806 C 7.8901852,4.5380381 7.5612162,4.691438 7.2562201,4.8662957 7.1018181,4.9548207 7.0604223,4.9922325 6.9851754,5.1591072 6.8208532,5.5235307 6.6847869,5.9819092 6.5893014,6.2910685 6.5380644,6.4569618 6.5737845,6.485558 6.6262905,6.5550044 7.1802831,7.2877685 7.88586,8.0873733 8.2577575,8.723642 c 0.034931,0.059772 0.080478,0.1724456 0.1934062,-0.03805 0.012415,-0.029252 0.015033,-0.020587 0.026906,0.00202 0.112139,0.2077564 0.1575046,0.095601 0.1923233,0.03605 0.371897,-0.6362655 1.0774757,-1.4358706 1.63147,-2.1686345 0.0525,-0.069448 0.08822,-0.098042 0.03698,-0.2639363 C 10.243363,5.9819265 10.107294,5.5235465 9.9429723,5.1591244 9.8677233,4.9922495 9.8263273,4.9548387 9.6719265,4.8663121 9.3669301,4.691455 9.0379622,4.5380284 8.6917736,4.47648 8.6464556,4.46842 8.5961146,4.462223 8.5536509,4.47991 c -0.02673,0.011201 -0.045562,0.04072 -0.073471,0.051379 -0.00929,0.00343 -0.019983,0.006 -0.029618,0.00343 C 8.4202679,4.526919 8.4025589,4.491471 8.3744959,4.479744 8.3532589,4.470884 8.3298339,4.467881 8.3062989,4.468216 Z"
     id="path339"
     style="fill:{{colors.primary.default.hex}};fill-opacity:1;stroke:none;stroke-width:0.12036;stroke-dasharray:none;stroke-opacity:0.6" />
  <rect
     style="opacity:0.3;fill:none;fill-opacity:0.996424;stroke:#000000;stroke-width:0.955221;stroke-dasharray:none;stroke-opacity:1;filter:url(#filter5421-3)"
     id="rect1-2-7-5"
     width="13.687567"
     height="13.591975"
     x="1.6227165"
     y="1.6705122"
     rx="2.8442214"
     ry="2.965905"
     transform="matrix(0.43046721,0,0,0.43046721,9.5627021,9.5627021)" />
  <rect
     style="fill:none;fill-opacity:1;stroke:{{colors.primary.default.hex}};stroke-width:0.411191;stroke-dasharray:none;stroke-opacity:1"
     id="rect1-2-3"
     width="5.8920484"
     height="5.8508992"
     x="10.261228"
     y="10.281802"
     rx="1.224344"
     ry="1.2767248" />
  <path
     id="path1"
     style="fill:{{colors.primary.default.hex}};fill-opacity:1;stroke:none;stroke-width:0.0587368;stroke-dasharray:none;stroke-dashoffset:2.2;stroke-opacity:0.6"
     d="m 14.168922,11.656658 c -0.06055,-2.6e-5 -0.125364,0.02435 -0.206481,0.07188 -0.193027,0.1131 -0.445472,0.166438 -0.792145,0.166438 -0.346641,0 -0.607506,-0.05448 -0.799384,-0.16692 -0.153862,-0.09017 -0.245719,-0.09136 -0.374847,-0.0043 -0.331514,0.223407 -0.581361,0.939687 -0.654655,1.875683 -0.04395,0.561277 -0.0029,0.857184 0.142315,1.023712 0.07004,0.08029 0.241969,0.06668 0.397039,-0.03184 0.13145,-0.08351 0.288072,-0.267793 0.475192,-0.559138 0.16909,-0.263274 0.373614,-0.349984 0.825918,-0.350725 0.451405,-6.81e-4 0.628801,0.08471 0.837013,0.404757 0.349331,0.536972 0.672221,0.723915 0.861617,0.498829 0.104925,-0.124694 0.12413,-0.24517 0.119159,-0.746797 -0.0091,-0.911235 -0.247248,-1.740202 -0.590491,-2.056592 -0.09141,-0.08427 -0.162394,-0.124918 -0.24025,-0.124951 z M 12.207851,12.1936 h 0.209374 0.209373 v 0.179464 0.179463 h 0.179465 0.179462 v 0.22433 0.224328 h -0.179462 -0.179465 v 0.194419 0.194419 h -0.189593 c -0.104158,0 -0.197928,-0.0093 -0.208892,-0.02026 -0.01096,-0.01096 -0.02025,-0.098 -0.02025,-0.193935 v -0.174644 h -0.179466 -0.179465 v -0.224328 -0.224329 h 0.179465 0.179463 v -0.179465 z m 1.706832,0 c 0.188883,0 0.269773,0.209278 0.133633,0.345419 -0.08658,0.08657 -0.165598,0.09337 -0.250863,0.02123 -0.147895,-0.125144 -0.0707,-0.366645 0.11723,-0.366645 z m -0.363268,0.383531 c 0.04717,3.2e-5 0.09465,0.01883 0.132184,0.0603 0.05851,0.06466 0.06483,0.212666 0.01207,0.281737 -0.103261,0.135182 -0.351207,0.04823 -0.351207,-0.123018 0,-0.12997 0.103198,-0.219094 0.206961,-0.219022 z m 0.741493,0.0073 c 0.05436,9.9e-4 0.10714,0.019 0.137972,0.05306 0.05851,0.06466 0.06482,0.212666 0.01206,0.281738 -0.109832,0.143783 -0.351209,0.04755 -0.351209,-0.139905 0,-0.05682 0.02277,-0.118403 0.05451,-0.14714 0.03629,-0.03285 0.0923,-0.04875 0.14666,-0.04775 z m -0.365199,0.386906 c 0.167454,0 0.248932,0.177621 0.147622,0.322262 -0.03463,0.04945 -0.07687,0.06657 -0.164026,0.06657 -0.100342,0 -0.123628,-0.01306 -0.164024,-0.09118 -0.07966,-0.154035 0.0073,-0.297659 0.180428,-0.297659 z" />
</svg>
