<?xml version="1.0" encoding="UTF-8" standalone="no"?>
<svg
   width="64"
   height="64"
   version="1.1"
   viewBox="0 0 16.933 16.933"
   id="svg7"
   sodipodi:docname="steam_icon_1184370.svg"
   inkscape:version="1.4.3 (0d15f75042, 2025-12-25)"
   xmlns:inkscape="http://www.inkscape.org/namespaces/inkscape"
   xmlns:sodipodi="http://sodipodi.sourceforge.net/DTD/sodipodi-0.dtd"
   xmlns="http://www.w3.org/2000/svg"
   xmlns:svg="http://www.w3.org/2000/svg"
   xmlns:rdf="http://www.w3.org/1999/02/22-rdf-syntax-ns#"
   xmlns:cc="http://creativecommons.org/ns#"
   xmlns:dc="http://purl.org/dc/elements/1.1/">
  <sodipodi:namedview
     id="namedview7"
     pagecolor="#9c4444"
     bordercolor="#000000"
     borderopacity="0.25"
     inkscape:showpageshadow="2"
     inkscape:pageopacity="0.0"
     inkscape:pagecheckerboard="0"
     inkscape:deskcolor="#d1d1d1"
     inkscape:zoom="4.3531261"
     inkscape:cx="42.957635"
     inkscape:cy="45.025114"
     inkscape:window-width="1226"
     inkscape:window-height="669"
     inkscape:window-x="314"
     inkscape:window-y="198"
     inkscape:window-maximized="0"
     inkscape:current-layer="svg7"
     showgrid="false" />
  <defs
     id="defs2">
    <filter
       style="color-interpolation-filters:sRGB;"
       inkscape:label="Blur"
       id="filter5421"
       x="-0.12256455"
       y="-0.12342654"
       width="1.2451291"
       height="1.2468531">
      <feGaussianBlur
         stdDeviation="0.5 0.5"
         result="blur"
         id="feGaussianBlur5419" />
    </filter>
    <filter
       style="color-interpolation-filters:sRGB"
       inkscape:label="Blur"
       id="filter5421-3"
       x="-0.12256455"
       y="-0.12342654"
       width="1.2451291"
       height="1.2468531">
      <feGaussianBlur
         stdDeviation="0.5 0.5"
         result="blur"
         id="feGaussianBlur5419-6" />
    </filter>
  </defs>
  <metadata
     id="metadata2">
    <rdf:RDF>
      <cc:Work
         rdf:about="">
        <dc:format>image/svg+xml</dc:format>
        <dc:type
           rdf:resource="http://purl.org/dc/dcmitype/StillImage" />
      </cc:Work>
    </rdf:RDF>
  </metadata>
  <rect
     style="opacity:0.3;fill:none;fill-opacity:0.996424;stroke:#000000;stroke-width:0.955221;stroke-dasharray:none;stroke-opacity:1;filter:url(#filter5421)"
     id="rect1-2-7"
     width="13.687567"
     height="13.591975"
     x="1.6227165"
     y="1.6705122"
     rx="2.8442214"
     ry="2.965905" />
  <rect
     style="fill:none;fill-opacity:1;stroke:{{colors.primary.default.hex}};stroke-width:0.955221;stroke-dasharray:none;stroke-opacity:1"
     id="rect1-2"
     width="13.687567"
     height="13.591975"
     x="1.6227167"
     y="1.6705124"
     rx="2.8442214"
     ry="2.965905" />
  <path
     style="fill:{{colors.primary.default.hex}};fill-opacity:1;stroke:none;stroke-width:0.134778;stroke-dasharray:none;stroke-opacity:0.6"
     d="m 6.4071855,10.880576 c 0.3100496,-0.323502 0.595585,-0.599223 0.6345192,-0.61271 0.038942,-0.01347 0.2321355,0.01759 0.429338,0.06905 0.476427,0.124332 0.815818,0.07977 1.6883437,-0.221704 0.8395831,-0.2901193 1.0224046,-0.4160517 1.3066196,-0.9003201 0.10827,-0.1844812 0.228956,-0.323432 0.303284,-0.3491823 0.0679,-0.023521 0.378225,0.00404 0.689611,0.06125 1.027283,0.1887429 1.381815,0.1497889 1.470511,-0.1615657 0.125754,-0.4414511 -0.368003,-0.674846 -1.50694,-0.7123168 -0.208026,-0.00684 -0.38049,-0.018973 -0.383256,-0.026956 -0.0027,-0.00798 0.376157,-0.1432994 0.842044,-0.3007225 l 0.847071,-0.2862088 0.07156,-0.1802121 c 0.09567,-0.2409574 0.02199,-0.4314104 -0.192618,-0.4979814 -0.153221,-0.047526 -0.244797,-0.025797 -0.996532,0.2364874 -0.564474,0.1969737 -0.833739,0.2717068 -0.846444,0.2350328 -0.01019,-0.029587 0.06837,-0.1444127 0.174725,-0.2551737 0.269432,-0.2806122 0.269519,-0.2806808 0.250262,-0.1945883 -0.0114,0.050949 -0.0019,0.058163 0.02826,0.021266 0.02502,-0.030718 0.02653,-0.071315 0.0032,-0.09022 -0.02319,-0.0189 0.03759,-0.08854 0.135095,-0.1547502 C 11.566282,6.4162234 11.844888,5.9214058 11.823715,5.7282639 11.813549,5.63536 11.760999,5.5618038 11.657171,5.4951426 11.350139,5.2979946 10.918912,5.5968283 10.268007,6.4578066 9.9257035,6.9105849 9.763834,7.0120816 9.4552675,6.9674158 9.1656326,6.9254926 8.3050676,7.1031363 7.7736744,7.3145448 7.3831012,7.4699379 7.1936898,7.5799655 6.815853,7.8709732 6.5568199,8.0704813 6.3019606,8.2342585 6.2495031,8.2349241 6.1970523,8.2355935 5.7575526,8.1859847 5.2728567,8.1246951 4.5156242,8.0289394 4.3677622,8.0261006 4.2222696,8.1045264 3.9898224,8.2298194 3.9427223,8.3294011 4.0167738,8.5389915 4.1163834,8.8207806 4.5299519,9.0055899 4.9984057,8.9775664 5.3385414,8.95722 5.7917685,9.0386079 5.7891044,9.1195546 5.7876492,9.1634065 5.5317154,9.2995624 5.0559828,9.5095742 4.6539862,9.6870369 4.281707,9.8699899 4.2286948,9.9161465 4.0246396,10.093815 4.115047,10.444243 4.400711,10.582904 c 0.1328419,0.06449 0.1728681,0.05536 0.6790107,-0.154615 0.2958162,-0.122728 0.5971612,-0.259196 0.6696536,-0.303272 0.2324272,-0.1413085 0.1582191,0.05081 -0.1305799,0.338034 -0.3184417,0.316718 -0.4960525,0.696456 -0.3928971,0.840025 0.1030465,0.143434 0.2714134,0.213087 0.4544518,0.18802 0.133779,-0.01832 0.2644701,-0.128094 0.7268366,-0.610524 z M 5.6150701,11.056988 C 5.6366126,10.99844 5.8780973,10.728868 6.1517247,10.457933 6.7602744,9.8553674 6.8590645,9.7113311 6.7935302,9.5221647 6.7665046,9.444136 6.7113594,9.3729093 6.6709948,9.3638799 6.5781112,9.3430999 6.3106364,9.4576106 5.8374978,9.7206879 5.4237084,9.9507722 4.6088701,10.251651 4.5851297,10.183125 4.5601647,10.111058 4.6852365,10.031616 5.1938724,9.7964559 5.458918,9.6739184 5.8344524,9.4920318 6.028395,9.3922716 6.2223393,9.2925083 6.4225007,9.1909801 6.4731928,9.1666486 6.564569,9.1227924 6.5925466,9.0468216 6.5863883,8.8592824 6.5815222,8.7110985 7.1963554,8.1287621 7.5782717,7.9198245 7.7682043,7.815915 8.150444,7.6654486 8.4671376,7.5699181 8.9320617,7.4296769 9.0830436,7.4066222 9.3919867,7.4287237 c 0.2030683,0.014523 0.4474136,0.01188 0.5429869,-0.00587 0.1642844,-0.030525 0.1751604,-0.022963 0.1992364,0.1384711 0.0163,0.1092771 0.05442,0.181165 0.105805,0.1996801 0.04871,0.017541 0.49744,-0.1136132 1.139938,-0.3331777 0.582795,-0.199123 1.076933,-0.3536965 1.09812,-0.3434043 0.132349,0.064245 -0.145661,0.191251 -0.982504,0.448851 -1.014219,0.3122013 -1.124718,0.3764533 -1.020377,0.5932791 0.06504,0.1351929 0.228198,0.1676085 1.426543,0.2834626 0.466251,0.045075 0.723887,0.1491728 0.636036,0.2569868 -0.04048,0.049686 -0.519779,-0.00665 -1.359591,-0.1598166 -0.292703,-0.053382 -0.585353,-0.078696 -0.650338,-0.056252 -0.06943,0.023976 -0.179136,0.1544237 -0.266017,0.3163005 C 9.9939302,9.2663616 9.8311657,9.3808592 8.9553819,9.6862584 8.2166619,9.9437853 8.1767504,9.9522239 7.8371802,9.9182903 7.6435106,9.8989829 7.3850829,9.8327135 7.2628935,9.771027 7.1407009,9.7093399 7.0160676,9.6674103 6.985928,9.6778518 6.9558002,9.6882913 6.8456574,9.8060074 6.7411973,9.9394401 6.4405054,10.32353 5.7181929,11.113401 5.6436851,11.139605 c -0.057444,0.0202 -0.061801,0.0077 -0.02862,-0.08261 z M 9.6881323,8.4834339 c 0.067789,-0.059092 -0.014758,-0.302882 -0.1198162,-0.353886 -0.1746769,-0.08479 -0.3983703,0.097304 -0.3370319,0.2743598 0.056635,0.1634776 0.3099783,0.2075756 0.4568604,0.079523 z m -1.7713954,0.51559 C 7.9671504,8.7987035 7.8279706,8.6659938 7.6368846,8.7321934 7.3914091,8.817235 7.3692299,9.0554624 7.5977367,9.1526318 7.7646336,9.2236009 7.8733984,9.171229 7.9167369,8.9990239 Z M 5.878338,8.719276 C 5.655378,8.6913133 5.3009579,8.6683095 5.0907366,8.6681643 4.6770048,8.6678733 4.2340778,8.5210483 4.3803164,8.4326697 c 0.04409,-0.026644 0.1654781,-0.036003 0.2697699,-0.020795 0.1042895,0.015207 0.3455662,0.046067 0.5361709,0.068587 0.1906044,0.022515 0.4261543,0.054849 0.5234438,0.071846 0.097282,0.016994 0.2824233,0.046957 0.4114064,0.066582 0.3609349,0.054915 0.3783389,0.061985 0.3753592,0.1524877 -0.00244,0.073666 -0.016435,0.07909 -0.1077872,0.041662 C 6.3309466,8.7894073 6.10128,8.747194 5.8783208,8.7192306 Z m 4.324207,-1.5092442 c -0.0064,-0.018359 0.467736,-0.5998688 0.77752,-0.9536538 0.0746,-0.08521 0.08551,-0.089941 0.04394,-0.019048 -0.0304,0.051834 -0.05482,0.1259048 -0.05424,0.1646 6.11e-4,0.038693 -0.154703,0.2317534 -0.345065,0.4290208 -0.354286,0.3671427 -0.409186,0.4164494 -0.422121,0.3791109 z m 0.96381,-1.079212 c -0.06389,-0.015044 -0.06267,-0.045257 0.0054,-0.1395517 0.04788,-0.066196 0.130504,-0.1353978 0.183598,-0.1537912 0.09051,-0.031356 0.09196,-0.023207 0.0232,0.1304475 -0.08082,0.1806836 -0.094,0.1907726 -0.212336,0.1628963 z"
     id="path1-26" />
  <rect
     style="opacity:0.3;fill:none;fill-opacity:0.996424;stroke:#000000;stroke-width:0.955221;stroke-dasharray:none;stroke-opacity:1;filter:url(#filter5421-3)"
     id="rect1-2-7-5"
     width="13.687567"
     height="13.591975"
     x="1.6227165"
     y="1.6705122"
     rx="2.8442214"
     ry="2.965905"
     transform="matrix(0.43046721,0,0,0.43046721,9.5627021,9.5627021)" />
  <rect
     style="fill:none;fill-opacity:1;stroke:{{colors.primary.default.hex}};stroke-width:0.411191;stroke-dasharray:none;stroke-opacity:1"
     id="rect1-2-3"
     width="5.8920484"
     height="5.8508992"
     x="10.261228"
     y="10.281802"
     rx="1.224344"
     ry="1.2767248" />
  <path
     id="path1"
     style="fill:{{colors.primary.default.hex}};fill-opacity:1;stroke:none;stroke-width:0.0587368;stroke-dasharray:none;stroke-dashoffset:2.2;stroke-opacity:0.6"
     d="m 14.168922,11.656658 c -0.06055,-2.6e-5 -0.125364,0.02435 -0.206481,0.07188 -0.193027,0.1131 -0.445472,0.166438 -0.792145,0.166438 -0.346641,0 -0.607506,-0.05448 -0.799384,-0.16692 -0.153862,-0.09017 -0.245719,-0.09136 -0.374847,-0.0043 -0.331514,0.223407 -0.581361,0.939687 -0.654655,1.875683 -0.04395,0.561277 -0.0029,0.857184 0.142315,1.023712 0.07004,0.08029 0.241969,0.06668 0.397039,-0.03184 0.13145,-0.08351 0.288072,-0.267793 0.475192,-0.559138 0.16909,-0.263274 0.373614,-0.349984 0.825918,-0.350725 0.451405,-6.81e-4 0.628801,0.08471 0.837013,0.404757 0.349331,0.536972 0.672221,0.723915 0.861617,0.498829 0.104925,-0.124694 0.12413,-0.24517 0.119159,-0.746797 -0.0091,-0.911235 -0.247248,-1.740202 -0.590491,-2.056592 -0.09141,-0.08427 -0.162394,-0.124918 -0.24025,-0.124951 z M 12.207851,12.1936 h 0.209374 0.209373 v 0.179464 0.179463 h 0.179465 0.179462 v 0.22433 0.224328 h -0.179462 -0.179465 v 0.194419 0.194419 h -0.189593 c -0.104158,0 -0.197928,-0.0093 -0.208892,-0.02026 -0.01096,-0.01096 -0.02025,-0.098 -0.02025,-0.193935 v -0.174644 h -0.179466 -0.179465 v -0.224328 -0.224329 h 0.179465 0.179463 v -0.179465 z m 1.706832,0 c 0.188883,0 0.269773,0.209278 0.133633,0.345419 -0.08658,0.08657 -0.165598,0.09337 -0.250863,0.02123 -0.147895,-0.125144 -0.0707,-0.366645 0.11723,-0.366645 z m -0.363268,0.383531 c 0.04717,3.2e-5 0.09465,0.01883 0.132184,0.0603 0.05851,0.06466 0.06483,0.212666 0.01207,0.281737 -0.103261,0.135182 -0.351207,0.04823 -0.351207,-0.123018 0,-0.12997 0.103198,-0.219094 0.206961,-0.219022 z m 0.741493,0.0073 c 0.05436,9.9e-4 0.10714,0.019 0.137972,0.05306 0.05851,0.06466 0.06482,0.212666 0.01206,0.281738 -0.109832,0.143783 -0.351209,0.04755 -0.351209,-0.139905 0,-0.05682 0.02277,-0.118403 0.05451,-0.14714 0.03629,-0.03285 0.0923,-0.04875 0.14666,-0.04775 z m -0.365199,0.386906 c 0.167454,0 0.248932,0.177621 0.147622,0.322262 -0.03463,0.04945 -0.07687,0.06657 -0.164026,0.06657 -0.100342,0 -0.123628,-0.01306 -0.164024,-0.09118 -0.07966,-0.154035 0.0073,-0.297659 0.180428,-0.297659 z" />
</svg>
