<?xml version="1.0" encoding="UTF-8" standalone="no"?>
<svg
   width="64"
   height="64"
   version="1.1"
   viewBox="0 0 16.933 16.933"
   id="svg7"
   sodipodi:docname="abcd.svg"
   inkscape:version="1.4.3 (0d15f75042, 2025-12-25)"
   xmlns:inkscape="http://www.inkscape.org/namespaces/inkscape"
   xmlns:sodipodi="http://sodipodi.sourceforge.net/DTD/sodipodi-0.dtd"
   xmlns="http://www.w3.org/2000/svg"
   xmlns:svg="http://www.w3.org/2000/svg"
   xmlns:rdf="http://www.w3.org/1999/02/22-rdf-syntax-ns#"
   xmlns:cc="http://creativecommons.org/ns#"
   xmlns:dc="http://purl.org/dc/elements/1.1/">
  <sodipodi:namedview
     id="namedview7"
     pagecolor="#9c4444"
     bordercolor="#000000"
     borderopacity="0.25"
     inkscape:showpageshadow="2"
     inkscape:pageopacity="0.0"
     inkscape:pagecheckerboard="0"
     inkscape:deskcolor="#d1d1d1"
     inkscape:zoom="4.3531261"
     inkscape:cx="43.072494"
     inkscape:cy="45.254834"
     inkscape:window-width="1226"
     inkscape:window-height="669"
     inkscape:window-x="109"
     inkscape:window-y="119"
     inkscape:window-maximized="0"
     inkscape:current-layer="svg7"
     showgrid="false" />
  <defs
     id="defs2">
    <filter
       style="color-interpolation-filters:sRGB;"
       inkscape:label="Blur"
       id="filter5421"
       x="-0.12256455"
       y="-0.12342654"
       width="1.2451291"
       height="1.2468531">
      <feGaussianBlur
         stdDeviation="0.5 0.5"
         result="blur"
         id="feGaussianBlur5419" />
    </filter>
    <filter
       style="color-interpolation-filters:sRGB"
       inkscape:label="Blur"
       id="filter5421-3"
       x="-0.12256455"
       y="-0.12342654"
       width="1.2451291"
       height="1.2468531">
      <feGaussianBlur
         stdDeviation="0.5 0.5"
         result="blur"
         id="feGaussianBlur5419-6" />
    </filter>
  </defs>
  <metadata
     id="metadata2">
    <rdf:RDF>
      <cc:Work
         rdf:about="">
        <dc:format>image/svg+xml</dc:format>
        <dc:type
           rdf:resource="http://purl.org/dc/dcmitype/StillImage" />
      </cc:Work>
    </rdf:RDF>
  </metadata>
  <rect
     style="opacity:0.3;fill:none;fill-opacity:0.996424;stroke:#000000;stroke-width:0.955221;stroke-dasharray:none;stroke-opacity:1;filter:url(#filter5421)"
     id="rect1-2-7"
     width="13.687567"
     height="13.591975"
     x="1.6227165"
     y="1.6705122"
     rx="2.8442214"
     ry="2.965905" />
  <rect
     style="fill:none;fill-opacity:1;stroke:{{colors.primary.default.hex}};stroke-width:0.955221;stroke-dasharray:none;stroke-opacity:1"
     id="rect1-2"
     width="13.687567"
     height="13.591975"
     x="1.6227167"
     y="1.6705124"
     rx="2.8442214"
     ry="2.965905" />
  <path
     style="fill:{{colors.primary.default.hex}};fill-opacity:1;stroke:none;stroke-width:0.127046;stroke-dasharray:none;stroke-opacity:0.6"
     d="m 7.6057595,5.0270912 c -0.8172306,0 -1.6779745,0.2125173 -2.5625924,0.6323057 C 4.3231128,6.0010929 4.0152394,6.2830091 4.1855023,6.44512 4.2455633,6.502306 4.2040353,6.514212 5.2126193,6.1400184 5.9018928,5.8842929 6.7496391,5.6685441 7.2079144,5.6316603 c 0.7076153,-0.056951 1.5503911,0.1201426 3.0423476,0.638807 0.535764,0.1862532 1.151894,0.3818904 1.369055,0.4346823 0.464441,0.1129047 0.51335,0.095393 0.900569,0.096644 l 0.273464,4.147e-4 V 6.5807496 c 0,-0.2526039 -0.03155,-0.2322931 -0.366206,-0.2322931 -0.746083,0 -0.93219,-0.1144926 -2.055101,-0.5881 C 9.1693042,5.2530719 8.4406781,5.0270713 7.6057595,5.0270713 Z M 7.1039019,6.8048276 C 6.977054,6.8094826 6.8638531,6.8211704 6.7727983,6.839931 6.3528351,6.9264358 5.7903199,7.240785 5.4453459,7.5597811 4.9106231,8.0542373 4.3061729,8.9787425 4.3653563,9.2118361 c 0.02665,0.1049649 0.054964,0.1120662 0.5261266,0.1317483 0.2735158,0.011422 0.809182,0.073408 1.2290741,0.1373827 l 0.7727214,0.1157136 v 0.3254702 c -0.1317007,0.5965121 -0.037735,0.9186501 -0.014299,1.1358961 0.087767,0.78626 0.088909,0.871836 0.2920998,0.843364 0.3138872,-0.510257 0.305427,-1.488971 0.3077011,-2.0529348 l 0.3202703,0.3103018 c 0.8774736,0.773948 1.2024398,0.829509 1.9549891,1.191371 0.6224393,0.253696 1.1560943,0.366107 1.7573673,0.322434 0.369614,0 0.836276,-0.409656 0.835996,-0.883233 -1.52e-4,-0.365169 -0.103102,-0.673605 -0.353207,-0.7909233 -0.45979,-0.2156744 -0.969479,0.040099 -0.969479,0.5187603 0,0.46979 0.452782,0.730802 0.753221,0.433814 0.125326,-0.123884 0.156169,-0.332866 0.06716,-0.458519 -0.03949,-0.05579 -0.04374,-0.04647 -0.01908,0.03987 0.08511,0.297939 -0.146975,0.504379 -0.413882,0.367943 -0.278939,-0.142588 -0.226116,-0.600627 0.07801,-0.676078 0.150225,-0.03727 0.413327,0.203428 0.511825,0.402179 0.05308,0.107105 0.05503,0.172338 0.0095,0.322436 -0.149247,0.492416 -0.819903,0.494924 -1.829307,0.0081 C 9.9375494,10.839098 9.6094518,10.661174 9.4532728,10.561391 9.1840922,10.38941 8.8335612,10.178545 8.3637483,9.7704667 8.1148653,9.5542854 8.1007826,9.5839068 8.7498921,9.479233 8.9365109,9.4491408 9.4821897,9.29244 9.9620632,9.1312268 10.814585,8.8448247 10.846972,8.7773907 11.367956,8.7736861 c 0.293261,-0.00207 -0.194008,-0.020491 0.292534,4.423e-4 l 0.910971,0.037693 V 8.3810476 7.9069268 L 11.515308,7.8809318 C 10.042624,7.8426896 10.76055,7.8087255 9.2404823,7.2282489 8.950226,7.117407 8.6408094,6.9834128 8.4378574,6.9309478 8.0779472,6.8379072 7.484448,6.7908709 7.1039054,6.8048334 Z m 1.7244304,0.7553868 c 0.017648,0 0.2688491,0.1409759 0.6739105,0.312469 0.4050623,0.1714921 0.7890632,0.3243671 0.8528972,0.3402044 0.06383,0.015839 0.115716,0.046001 0.115716,0.066308 0,0.020313 -0.245272,0.1574561 -0.5451978,0.3046683 C 9.3140146,8.8840771 8.951276,9.0099122 8.3602781,9.0389162 L 8.2146619,9.044974 8.3719803,8.922327 C 8.4586412,8.8548129 8.5894813,8.6988767 8.66278,8.5756195 8.7790712,8.380072 8.7962624,8.3012486 8.7962624,7.9563154 c 0,-0.2174143 0.014421,-0.3961124 0.032072,-0.3961122 z M 6.2778754,7.6646593 c 0.072644,-0.013609 0.072127,0.097791 0.072807,0.3202696 0.00136,0.4378214 0.1077052,0.6763946 0.413447,0.9274395 L 6.9639202,9.0761871 5.9359361,8.9899437 C 5.4366397,8.9428637 5.0489052,8.8941152 5.0353655,8.8807311 4.9868382,8.8327633 5.3436432,8.466194 5.7361461,8.0937079 6.0283938,7.8163653 6.2052286,7.6782653 6.2778754,7.6646593 Z"
     id="path3-8" />
  <rect
     style="opacity:0.3;fill:none;fill-opacity:0.996424;stroke:#000000;stroke-width:0.955221;stroke-dasharray:none;stroke-opacity:1;filter:url(#filter5421-3)"
     id="rect1-2-7-5"
     width="13.687567"
     height="13.591975"
     x="1.6227165"
     y="1.6705122"
     rx="2.8442214"
     ry="2.965905"
     transform="matrix(0.43046721,0,0,0.43046721,9.5627021,9.5627021)" />
  <rect
     style="fill:none;fill-opacity:1;stroke:{{colors.primary.default.hex}};stroke-width:0.411191;stroke-dasharray:none;stroke-opacity:1"
     id="rect1-2-3"
     width="5.8920484"
     height="5.8508992"
     x="10.261228"
     y="10.281802"
     rx="1.224344"
     ry="1.2767248" />
  <path
     id="path1"
     style="fill:{{colors.primary.default.hex}};fill-opacity:1;stroke:none;stroke-width:0.0587368;stroke-dasharray:none;stroke-dashoffset:2.2;stroke-opacity:0.6"
     d="m 14.168922,11.656658 c -0.06055,-2.6e-5 -0.125364,0.02435 -0.206481,0.07188 -0.193027,0.1131 -0.445472,0.166438 -0.792145,0.166438 -0.346641,0 -0.607506,-0.05448 -0.799384,-0.16692 -0.153862,-0.09017 -0.245719,-0.09136 -0.374847,-0.0043 -0.331514,0.223407 -0.581361,0.939687 -0.654655,1.875683 -0.04395,0.561277 -0.0029,0.857184 0.142315,1.023712 0.07004,0.08029 0.241969,0.06668 0.397039,-0.03184 0.13145,-0.08351 0.288072,-0.267793 0.475192,-0.559138 0.16909,-0.263274 0.373614,-0.349984 0.825918,-0.350725 0.451405,-6.81e-4 0.628801,0.08471 0.837013,0.404757 0.349331,0.536972 0.672221,0.723915 0.861617,0.498829 0.104925,-0.124694 0.12413,-0.24517 0.119159,-0.746797 -0.0091,-0.911235 -0.247248,-1.740202 -0.590491,-2.056592 -0.09141,-0.08427 -0.162394,-0.124918 -0.24025,-0.124951 z M 12.207851,12.1936 h 0.209374 0.209373 v 0.179464 0.179463 h 0.179465 0.179462 v 0.22433 0.224328 h -0.179462 -0.179465 v 0.194419 0.194419 h -0.189593 c -0.104158,0 -0.197928,-0.0093 -0.208892,-0.02026 -0.01096,-0.01096 -0.02025,-0.098 -0.02025,-0.193935 v -0.174644 h -0.179466 -0.179465 v -0.224328 -0.224329 h 0.179465 0.179463 v -0.179465 z m 1.706832,0 c 0.188883,0 0.269773,0.209278 0.133633,0.345419 -0.08658,0.08657 -0.165598,0.09337 -0.250863,0.02123 -0.147895,-0.125144 -0.0707,-0.366645 0.11723,-0.366645 z m -0.363268,0.383531 c 0.04717,3.2e-5 0.09465,0.01883 0.132184,0.0603 0.05851,0.06466 0.06483,0.212666 0.01207,0.281737 -0.103261,0.135182 -0.351207,0.04823 -0.351207,-0.123018 0,-0.12997 0.103198,-0.219094 0.206961,-0.219022 z m 0.741493,0.0073 c 0.05436,9.9e-4 0.10714,0.019 0.137972,0.05306 0.05851,0.06466 0.06482,0.212666 0.01206,0.281738 -0.109832,0.143783 -0.351209,0.04755 -0.351209,-0.139905 0,-0.05682 0.02277,-0.118403 0.05451,-0.14714 0.03629,-0.03285 0.0923,-0.04875 0.14666,-0.04775 z m -0.365199,0.386906 c 0.167454,0 0.248932,0.177621 0.147622,0.322262 -0.03463,0.04945 -0.07687,0.06657 -0.164026,0.06657 -0.100342,0 -0.123628,-0.01306 -0.164024,-0.09118 -0.07966,-0.154035 0.0073,-0.297659 0.180428,-0.297659 z" />
</svg>
