<?xml version="1.0" encoding="UTF-8" standalone="no"?>
<svg
   width="64"
   height="64"
   version="1.1"
   viewBox="0 0 16.933 16.933"
   id="svg7"
   sodipodi:docname="steam_icon_368260.svg"
   inkscape:version="1.4.3 (0d15f75042, 2025-12-25)"
   xmlns:inkscape="http://www.inkscape.org/namespaces/inkscape"
   xmlns:sodipodi="http://sodipodi.sourceforge.net/DTD/sodipodi-0.dtd"
   xmlns="http://www.w3.org/2000/svg"
   xmlns:svg="http://www.w3.org/2000/svg"
   xmlns:rdf="http://www.w3.org/1999/02/22-rdf-syntax-ns#"
   xmlns:cc="http://creativecommons.org/ns#"
   xmlns:dc="http://purl.org/dc/elements/1.1/">
  <sodipodi:namedview
     id="namedview7"
     pagecolor="#9c4444"
     bordercolor="#000000"
     borderopacity="0.25"
     inkscape:showpageshadow="2"
     inkscape:pageopacity="0.0"
     inkscape:pagecheckerboard="0"
     inkscape:deskcolor="#d1d1d1"
     inkscape:zoom="4.3531261"
     inkscape:cx="42.957635"
     inkscape:cy="45.025114"
     inkscape:window-width="1226"
     inkscape:window-height="669"
     inkscape:window-x="30"
     inkscape:window-y="150"
     inkscape:window-maximized="0"
     inkscape:current-layer="svg7"
     showgrid="false" />
  <defs
     id="defs2">
    <filter
       style="color-interpolation-filters:sRGB;"
       inkscape:label="Blur"
       id="filter5421"
       x="-0.12256455"
       y="-0.12342654"
       width="1.2451291"
       height="1.2468531">
      <feGaussianBlur
         stdDeviation="0.5 0.5"
         result="blur"
         id="feGaussianBlur5419" />
    </filter>
    <filter
       style="color-interpolation-filters:sRGB"
       inkscape:label="Blur"
       id="filter5421-3"
       x="-0.12256455"
       y="-0.12342654"
       width="1.2451291"
       height="1.2468531">
      <feGaussianBlur
         stdDeviation="0.5 0.5"
         result="blur"
         id="feGaussianBlur5419-6" />
    </filter>
  </defs>
  <metadata
     id="metadata2">
    <rdf:RDF>
      <cc:Work
         rdf:about="">
        <dc:format>image/svg+xml</dc:format>
        <dc:type
           rdf:resource="http://purl.org/dc/dcmitype/StillImage" />
      </cc:Work>
    </rdf:RDF>
  </metadata>
  <rect
     style="opacity:0.3;fill:none;fill-opacity:0.996424;stroke:#000000;stroke-width:0.955221;stroke-dasharray:none;stroke-opacity:1;filter:url(#filter5421)"
     id="rect1-2-7"
     width="13.687567"
     height="13.591975"
     x="1.6227165"
     y="1.6705122"
     rx="2.8442214"
     ry="2.965905" />
  <rect
     style="fill:none;fill-opacity:1;stroke:{{colors.primary.default.hex}};stroke-width:0.955221;stroke-dasharray:none;stroke-opacity:1"
     id="rect1-2"
     width="13.687567"
     height="13.591975"
     x="1.6227167"
     y="1.6705124"
     rx="2.8442214"
     ry="2.965905" />
  <path
     style="fill:{{colors.primary.default.hex}};fill-opacity:1;stroke:none;stroke-width:0.126378;stroke-dasharray:none;stroke-opacity:0.6"
     d="M 7.1599261,11.964997 C 7.1377823,11.936079 6.800799,10.962884 6.4110783,9.8023439 5.9949053,8.5630315 5.6542832,7.6152762 5.5856672,7.505696 5.4502926,7.289506 5.2417369,7.1605873 4.9627572,7.1206421 4.7599558,7.0916027 4.6678072,6.9985196 4.7747977,6.9307739 4.8062508,6.9108592 4.9676281,6.8942807 5.1334161,6.8939365 5.3570981,6.8934912 5.429989,6.880096 5.4160078,6.842093 5.4056458,6.8139282 5.3001439,6.4987118 5.1815613,6.1416183 4.9413971,5.4184056 4.830046,5.2436616 4.5636511,5.1719293 4.3794611,5.1223317 4.3340177,5.0697367 4.4032637,4.9863006 c 0.040927,-0.049314 0.2245564,-0.059555 1.0585647,-0.059036 0.5570345,4.191e-4 1.0362969,0.017859 1.0698768,0.039089 0.033454,0.021156 0.2823618,0.703056 0.553126,1.5153404 C 7.3555951,7.2939773 7.595567,7.9615936 7.6181021,7.965284 7.640639,7.968992 7.7830969,7.7618833 7.934678,7.5050817 8.0862625,7.2482788 8.2381916,7.0055751 8.2722994,6.9657389 c 0.054151,-0.063244 0.138717,-0.072349 0.6667595,-0.071802 0.3326082,2.881e-4 0.6304756,0.016924 0.6619292,0.036836 0.08989,0.056918 0.023058,0.1568509 -0.1261189,0.1885795 C 9.2946609,7.1576794 9.195399,7.2508938 9.1961554,7.3810838 9.1968626,7.5052267 9.5952738,8.0686701 9.6441365,8.01465 9.7091055,7.942819 10.506652,5.5513216 10.506652,5.4283287 c 0,-0.1404738 -0.09018,-0.2558586 -0.199958,-0.2558586 -0.03916,0 -0.106279,-0.025662 -0.149173,-0.057025 -0.06627,-0.048451 -0.06977,-0.066931 -0.02331,-0.1229171 0.0478,-0.057598 0.195488,-0.065894 1.173057,-0.065894 0.615105,0 1.147535,0.011198 1.183181,0.024871 0.125454,0.048142 0.07412,0.1743149 -0.08884,0.2183685 -0.198654,0.053705 -0.324088,0.1436136 -0.396966,0.28454 -0.04718,0.09124 -1.233772,3.48622 -1.752362,5.0137285 -0.08864,0.261092 -0.140203,0.357926 -0.189756,0.356365 -0.03751,-0.0013 -0.3161639,-0.313218 -0.6211615,-0.695593 C 9.137151,9.7475142 8.8702995,9.4410204 8.8483687,9.447817 8.8264345,9.4546508 8.7025644,9.6339613 8.5730969,9.8463664 8.2563987,10.365939 8.2545872,10.534619 8.5645606,10.641182 c 0.1080701,0.03716 0.1597937,0.07938 0.1597937,0.130445 0,0.06662 -0.04578,0.07793 -0.3892372,0.096 l -0.3892342,0.0205 -0.3347184,0.552023 c -0.1840946,0.30361 -0.3518751,0.557742 -0.3728436,0.564732 -0.02097,0.0069 -0.056247,-0.01095 -0.078393,-0.03986 z"
     id="path1151" />
  <rect
     style="opacity:0.3;fill:none;fill-opacity:0.996424;stroke:#000000;stroke-width:0.955221;stroke-dasharray:none;stroke-opacity:1;filter:url(#filter5421-3)"
     id="rect1-2-7-5"
     width="13.687567"
     height="13.591975"
     x="1.6227165"
     y="1.6705122"
     rx="2.8442214"
     ry="2.965905"
     transform="matrix(0.43046721,0,0,0.43046721,9.5627021,9.5627021)" />
  <rect
     style="fill:none;fill-opacity:1;stroke:{{colors.primary.default.hex}};stroke-width:0.411191;stroke-dasharray:none;stroke-opacity:1"
     id="rect1-2-3"
     width="5.8920484"
     height="5.8508992"
     x="10.261228"
     y="10.281802"
     rx="1.224344"
     ry="1.2767248" />
  <path
     id="path1"
     style="fill:{{colors.primary.default.hex}};fill-opacity:1;stroke:none;stroke-width:0.0587368;stroke-dasharray:none;stroke-dashoffset:2.2;stroke-opacity:0.6"
     d="m 14.168922,11.656658 c -0.06055,-2.6e-5 -0.125364,0.02435 -0.206481,0.07188 -0.193027,0.1131 -0.445472,0.166438 -0.792145,0.166438 -0.346641,0 -0.607506,-0.05448 -0.799384,-0.16692 -0.153862,-0.09017 -0.245719,-0.09136 -0.374847,-0.0043 -0.331514,0.223407 -0.581361,0.939687 -0.654655,1.875683 -0.04395,0.561277 -0.0029,0.857184 0.142315,1.023712 0.07004,0.08029 0.241969,0.06668 0.397039,-0.03184 0.13145,-0.08351 0.288072,-0.267793 0.475192,-0.559138 0.16909,-0.263274 0.373614,-0.349984 0.825918,-0.350725 0.451405,-6.81e-4 0.628801,0.08471 0.837013,0.404757 0.349331,0.536972 0.672221,0.723915 0.861617,0.498829 0.104925,-0.124694 0.12413,-0.24517 0.119159,-0.746797 -0.0091,-0.911235 -0.247248,-1.740202 -0.590491,-2.056592 -0.09141,-0.08427 -0.162394,-0.124918 -0.24025,-0.124951 z M 12.207851,12.1936 h 0.209374 0.209373 v 0.179464 0.179463 h 0.179465 0.179462 v 0.22433 0.224328 h -0.179462 -0.179465 v 0.194419 0.194419 h -0.189593 c -0.104158,0 -0.197928,-0.0093 -0.208892,-0.02026 -0.01096,-0.01096 -0.02025,-0.098 -0.02025,-0.193935 v -0.174644 h -0.179466 -0.179465 v -0.224328 -0.224329 h 0.179465 0.179463 v -0.179465 z m 1.706832,0 c 0.188883,0 0.269773,0.209278 0.133633,0.345419 -0.08658,0.08657 -0.165598,0.09337 -0.250863,0.02123 -0.147895,-0.125144 -0.0707,-0.366645 0.11723,-0.366645 z m -0.363268,0.383531 c 0.04717,3.2e-5 0.09465,0.01883 0.132184,0.0603 0.05851,0.06466 0.06483,0.212666 0.01207,0.281737 -0.103261,0.135182 -0.351207,0.04823 -0.351207,-0.123018 0,-0.12997 0.103198,-0.219094 0.206961,-0.219022 z m 0.741493,0.0073 c 0.05436,9.9e-4 0.10714,0.019 0.137972,0.05306 0.05851,0.06466 0.06482,0.212666 0.01206,0.281738 -0.109832,0.143783 -0.351209,0.04755 -0.351209,-0.139905 0,-0.05682 0.02277,-0.118403 0.05451,-0.14714 0.03629,-0.03285 0.0923,-0.04875 0.14666,-0.04775 z m -0.365199,0.386906 c 0.167454,0 0.248932,0.177621 0.147622,0.322262 -0.03463,0.04945 -0.07687,0.06657 -0.164026,0.06657 -0.100342,0 -0.123628,-0.01306 -0.164024,-0.09118 -0.07966,-0.154035 0.0073,-0.297659 0.180428,-0.297659 z" />
</svg>
