<?xml version="1.0" encoding="UTF-8" standalone="no"?>
<svg
   width="64"
   height="64"
   version="1.1"
   viewBox="0 0 16.933 16.933"
   id="svg7"
   sodipodi:docname="abcd.svg"
   inkscape:version="1.4.3 (0d15f75042, 2025-12-25)"
   xmlns:inkscape="http://www.inkscape.org/namespaces/inkscape"
   xmlns:sodipodi="http://sodipodi.sourceforge.net/DTD/sodipodi-0.dtd"
   xmlns="http://www.w3.org/2000/svg"
   xmlns:svg="http://www.w3.org/2000/svg"
   xmlns:rdf="http://www.w3.org/1999/02/22-rdf-syntax-ns#"
   xmlns:cc="http://creativecommons.org/ns#"
   xmlns:dc="http://purl.org/dc/elements/1.1/">
  <sodipodi:namedview
     id="namedview7"
     pagecolor="#9c4444"
     bordercolor="#000000"
     borderopacity="0.25"
     inkscape:showpageshadow="2"
     inkscape:pageopacity="0.0"
     inkscape:pagecheckerboard="0"
     inkscape:deskcolor="#d1d1d1"
     inkscape:zoom="4.3531261"
     inkscape:cx="43.187354"
     inkscape:cy="45.254834"
     inkscape:window-width="1226"
     inkscape:window-height="669"
     inkscape:window-x="109"
     inkscape:window-y="119"
     inkscape:window-maximized="0"
     inkscape:current-layer="svg7"
     showgrid="false" />
  <defs
     id="defs2">
    <filter
       style="color-interpolation-filters:sRGB;"
       inkscape:label="Blur"
       id="filter5421"
       x="-0.12256455"
       y="-0.12342654"
       width="1.2451291"
       height="1.2468531">
      <feGaussianBlur
         stdDeviation="0.5 0.5"
         result="blur"
         id="feGaussianBlur5419" />
    </filter>
    <filter
       style="color-interpolation-filters:sRGB"
       inkscape:label="Blur"
       id="filter5421-3"
       x="-0.12256455"
       y="-0.12342654"
       width="1.2451291"
       height="1.2468531">
      <feGaussianBlur
         stdDeviation="0.5 0.5"
         result="blur"
         id="feGaussianBlur5419-6" />
    </filter>
  </defs>
  <metadata
     id="metadata2">
    <rdf:RDF>
      <cc:Work
         rdf:about="">
        <dc:format>image/svg+xml</dc:format>
        <dc:type
           rdf:resource="http://purl.org/dc/dcmitype/StillImage" />
      </cc:Work>
    </rdf:RDF>
  </metadata>
  <rect
     style="opacity:0.3;fill:none;fill-opacity:0.996424;stroke:#000000;stroke-width:0.955221;stroke-dasharray:none;stroke-opacity:1;filter:url(#filter5421)"
     id="rect1-2-7"
     width="13.687567"
     height="13.591975"
     x="1.6227165"
     y="1.6705122"
     rx="2.8442214"
     ry="2.965905" />
  <rect
     style="fill:none;fill-opacity:1;stroke:{{colors.primary.default.hex}};stroke-width:0.955221;stroke-dasharray:none;stroke-opacity:1"
     id="rect1-2"
     width="13.687567"
     height="13.591975"
     x="1.6227167"
     y="1.6705124"
     rx="2.8442214"
     ry="2.965905" />
  <path
     style="fill:{{colors.primary.default.hex}};fill-opacity:1;stroke:none;stroke-width:0.126378;stroke-dasharray:none;stroke-opacity:0.6"
     d="m 4.5872165,12.420794 c 0.00969,-0.0091 0.4397826,-0.269885 0.9557521,-0.579495 l 0.9381222,-0.562927 -0.999818,-0.0086 -0.9998204,-0.0086 1.0223785,-0.614947 c 0.5623062,-0.338222 1.0303114,-0.61948 1.0400056,-0.625016 0.00969,-0.0057 -0.069631,0.08795 -0.1762732,0.207736 -0.5853316,0.657501 -0.7137035,0.804279 -0.7137979,0.816137 -5.55e-5,0.0073 0.4132182,0.01512 0.9183906,0.01764 l 0.9184925,0.0046 -1.4402897,0.678645 c -1.4823736,0.698346 -1.493039,0.703269 -1.4631423,0.675171 z m 4.8088651,6.29e-4 c 0.00502,-0.008 0.3825366,-0.268374 0.8388754,-0.57861 l 0.82971,-0.564073 -0.885495,-0.0088 -0.8854912,-0.0088 0.9077992,-0.618337 c 0.499289,-0.340176 0.910225,-0.616701 0.913193,-0.614591 0.003,0.0022 -0.173529,0.230846 -0.392207,0.508294 -0.218678,0.277449 -0.397594,0.508363 -0.397594,0.513141 0,0.0049 0.37083,0.0088 0.824073,0.0088 l 0.824069,4.19e-4 -1.110516,0.591292 c -0.61078,0.325208 -1.1926512,0.635098 -1.2930451,0.68865 -0.1003974,0.05354 -0.1784118,0.09081 -0.1733707,0.08282 z m -2.1686101,-0.50258 c 0.1045409,-0.1 0.5540333,-0.526857 0.9988714,-0.948589 0.4448384,-0.421731 0.8094563,-0.772669 0.8102686,-0.779861 6.286e-4,-0.0073 -0.4670278,-0.01512 -1.039637,-0.01761 L 6.955861,10.168231 7.4107141,9.7363634 C 8.5991701,8.6079526 8.9669977,8.2513657 8.9578214,8.2365189 8.9438578,8.2139273 8.7793133,8.216392 8.7328556,8.2398847 8.7116731,8.2505847 8.3353659,8.6174576 7.8966073,9.0551429 L 7.0988612,9.8509077 6.8301617,9.8502786 C 6.5736441,9.8496504 6.5538708,9.846989 6.3940046,9.7920859 5.818491,9.5942973 5.4319649,9.1052091 5.3799409,8.5088272 L 5.3676483,8.3678922 5.244986,8.3261331 C 4.9173427,8.2145834 4.6366693,7.930008 4.5117847,7.5827366 4.4696277,7.4654973 4.465287,7.429612 4.465287,7.1978485 c 0,-0.2317648 0.00433,-0.2676486 0.046499,-0.3848887 C 4.682399,6.3385254 5.0940128,6.0306402 5.597221,6.0010565 L 5.778754,5.9903825 5.819104,5.8758052 C 5.9901845,5.3900218 6.3739432,4.9657155 6.8395801,4.7475109 c 0.8901778,-0.4171524 1.9400902,-0.1320461 2.48888,0.6758609 0.062494,0.091998 0.1190522,0.1567275 0.1406378,0.1609459 0.019855,0.00388 0.086371,0.016061 0.1478058,0.027071 0.2503941,0.044869 0.5565443,0.1771081 0.7645803,0.3302564 l 0.104525,0.076951 0.09706,-0.064418 c 0.20229,-0.1342731 0.437253,-0.1951412 0.692012,-0.1792676 0.449544,0.028012 0.824219,0.3131632 0.983954,0.7488494 0.08755,0.2388246 0.07125,0.5914097 -0.03821,0.8272569 -0.03709,0.079887 -0.03916,0.094215 -0.01633,0.1131389 0.04529,0.037598 0.16131,0.2492605 0.199406,0.3638182 0.05863,0.1763593 0.07719,0.356903 0.05433,0.5286838 -0.03853,0.2896107 -0.14398,0.5001582 -0.357238,0.7133468 -0.110287,0.1102512 -0.167757,0.1515153 -0.29966,0.215143 -0.174738,0.08429 -0.371928,0.1337327 -0.533373,0.1337327 -0.230067,0 -0.523781,-0.098403 -0.716944,-0.2401997 L 10.464714,9.11533 10.346331,9.194413 C 10.033752,9.4032121 9.7059029,9.5142563 9.3377561,9.5360129 9.0946742,9.5503823 8.685549,9.4972805 8.685549,9.4513661 c 0,-0.00891 0.103121,-0.2087444 0.2291547,-0.4440694 0.1904494,-0.355598 0.229156,-0.4404843 0.229156,-0.5025793 0,-0.081841 -0.029604,-0.1521973 -0.085215,-0.2025219 -0.035491,-0.032116 -0.036667,-0.031243 -0.094347,0.070341 C 8.9321727,8.4291125 8.7342449,8.7808883 8.5244549,9.15426 l -0.3814332,0.6788558 0.9657456,0.00881 0.9657487,0.00882 -1.4903596,1.1105132 c -0.819699,0.610781 -1.5030488,1.11697 -1.5185564,1.12486 -0.015499,0.0079 0.057339,-0.06745 0.1618802,-0.167457 z"
     id="path1-3-5-9" />
  <rect
     style="opacity:0.3;fill:none;fill-opacity:0.996424;stroke:#000000;stroke-width:0.955221;stroke-dasharray:none;stroke-opacity:1;filter:url(#filter5421-3)"
     id="rect1-2-7-5"
     width="13.687567"
     height="13.591975"
     x="1.6227165"
     y="1.6705122"
     rx="2.8442214"
     ry="2.965905"
     transform="matrix(0.43046721,0,0,0.43046721,9.5627021,9.5627021)" />
  <rect
     style="fill:none;fill-opacity:1;stroke:{{colors.primary.default.hex}};stroke-width:0.411191;stroke-dasharray:none;stroke-opacity:1"
     id="rect1-2-3"
     width="5.8920484"
     height="5.8508992"
     x="10.261228"
     y="10.281802"
     rx="1.224344"
     ry="1.2767248" />
  <path
     id="path1"
     style="fill:{{colors.primary.default.hex}};fill-opacity:1;stroke:none;stroke-width:0.0587368;stroke-dasharray:none;stroke-dashoffset:2.2;stroke-opacity:0.6"
     d="m 14.168922,11.656658 c -0.06055,-2.6e-5 -0.125364,0.02435 -0.206481,0.07188 -0.193027,0.1131 -0.445472,0.166438 -0.792145,0.166438 -0.346641,0 -0.607506,-0.05448 -0.799384,-0.16692 -0.153862,-0.09017 -0.245719,-0.09136 -0.374847,-0.0043 -0.331514,0.223407 -0.581361,0.939687 -0.654655,1.875683 -0.04395,0.561277 -0.0029,0.857184 0.142315,1.023712 0.07004,0.08029 0.241969,0.06668 0.397039,-0.03184 0.13145,-0.08351 0.288072,-0.267793 0.475192,-0.559138 0.16909,-0.263274 0.373614,-0.349984 0.825918,-0.350725 0.451405,-6.81e-4 0.628801,0.08471 0.837013,0.404757 0.349331,0.536972 0.672221,0.723915 0.861617,0.498829 0.104925,-0.124694 0.12413,-0.24517 0.119159,-0.746797 -0.0091,-0.911235 -0.247248,-1.740202 -0.590491,-2.056592 -0.09141,-0.08427 -0.162394,-0.124918 -0.24025,-0.124951 z M 12.207851,12.1936 h 0.209374 0.209373 v 0.179464 0.179463 h 0.179465 0.179462 v 0.22433 0.224328 h -0.179462 -0.179465 v 0.194419 0.194419 h -0.189593 c -0.104158,0 -0.197928,-0.0093 -0.208892,-0.02026 -0.01096,-0.01096 -0.02025,-0.098 -0.02025,-0.193935 v -0.174644 h -0.179466 -0.179465 v -0.224328 -0.224329 h 0.179465 0.179463 v -0.179465 z m 1.706832,0 c 0.188883,0 0.269773,0.209278 0.133633,0.345419 -0.08658,0.08657 -0.165598,0.09337 -0.250863,0.02123 -0.147895,-0.125144 -0.0707,-0.366645 0.11723,-0.366645 z m -0.363268,0.383531 c 0.04717,3.2e-5 0.09465,0.01883 0.132184,0.0603 0.05851,0.06466 0.06483,0.212666 0.01207,0.281737 -0.103261,0.135182 -0.351207,0.04823 -0.351207,-0.123018 0,-0.12997 0.103198,-0.219094 0.206961,-0.219022 z m 0.741493,0.0073 c 0.05436,9.9e-4 0.10714,0.019 0.137972,0.05306 0.05851,0.06466 0.06482,0.212666 0.01206,0.281738 -0.109832,0.143783 -0.351209,0.04755 -0.351209,-0.139905 0,-0.05682 0.02277,-0.118403 0.05451,-0.14714 0.03629,-0.03285 0.0923,-0.04875 0.14666,-0.04775 z m -0.365199,0.386906 c 0.167454,0 0.248932,0.177621 0.147622,0.322262 -0.03463,0.04945 -0.07687,0.06657 -0.164026,0.06657 -0.100342,0 -0.123628,-0.01306 -0.164024,-0.09118 -0.07966,-0.154035 0.0073,-0.297659 0.180428,-0.297659 z" />
</svg>
