<?xml version="1.0" encoding="UTF-8" standalone="no"?>
<svg
   width="64"
   height="64"
   version="1.1"
   viewBox="0 0 16.933 16.933"
   id="svg7"
   sodipodi:docname="abcd.svg"
   inkscape:version="1.4.3 (0d15f75042, 2025-12-25)"
   xmlns:inkscape="http://www.inkscape.org/namespaces/inkscape"
   xmlns:sodipodi="http://sodipodi.sourceforge.net/DTD/sodipodi-0.dtd"
   xmlns="http://www.w3.org/2000/svg"
   xmlns:svg="http://www.w3.org/2000/svg"
   xmlns:rdf="http://www.w3.org/1999/02/22-rdf-syntax-ns#"
   xmlns:cc="http://creativecommons.org/ns#"
   xmlns:dc="http://purl.org/dc/elements/1.1/">
  <sodipodi:namedview
     id="namedview7"
     pagecolor="#9c4444"
     bordercolor="#000000"
     borderopacity="0.25"
     inkscape:showpageshadow="2"
     inkscape:pageopacity="0.0"
     inkscape:pagecheckerboard="0"
     inkscape:deskcolor="#d1d1d1"
     inkscape:zoom="4.3531261"
     inkscape:cx="43.072494"
     inkscape:cy="45.254834"
     inkscape:window-width="1226"
     inkscape:window-height="669"
     inkscape:window-x="109"
     inkscape:window-y="119"
     inkscape:window-maximized="0"
     inkscape:current-layer="svg7"
     showgrid="false" />
  <defs
     id="defs2">
    <filter
       style="color-interpolation-filters:sRGB;"
       inkscape:label="Blur"
       id="filter5421"
       x="-0.12256455"
       y="-0.12342654"
       width="1.2451291"
       height="1.2468531">
      <feGaussianBlur
         stdDeviation="0.5 0.5"
         result="blur"
         id="feGaussianBlur5419" />
    </filter>
    <filter
       style="color-interpolation-filters:sRGB"
       inkscape:label="Blur"
       id="filter5421-3"
       x="-0.12256455"
       y="-0.12342654"
       width="1.2451291"
       height="1.2468531">
      <feGaussianBlur
         stdDeviation="0.5 0.5"
         result="blur"
         id="feGaussianBlur5419-6" />
    </filter>
  </defs>
  <metadata
     id="metadata2">
    <rdf:RDF>
      <cc:Work
         rdf:about="">
        <dc:format>image/svg+xml</dc:format>
        <dc:type
           rdf:resource="http://purl.org/dc/dcmitype/StillImage" />
      </cc:Work>
    </rdf:RDF>
  </metadata>
  <rect
     style="opacity:0.3;fill:none;fill-opacity:0.996424;stroke:#000000;stroke-width:0.955221;stroke-dasharray:none;stroke-opacity:1;filter:url(#filter5421)"
     id="rect1-2-7"
     width="13.687567"
     height="13.591975"
     x="1.6227165"
     y="1.6705122"
     rx="2.8442214"
     ry="2.965905" />
  <rect
     style="fill:none;fill-opacity:1;stroke:{{colors.primary.default.hex}};stroke-width:0.955221;stroke-dasharray:none;stroke-opacity:1"
     id="rect1-2"
     width="13.687567"
     height="13.591975"
     x="1.6227167"
     y="1.6705124"
     rx="2.8442214"
     ry="2.965905" />
  <path
     style="fill:{{colors.primary.default.hex}};fill-opacity:1;stroke-width:0.014282"
     d="m 5.8273908,12.395505 c -0.00428,-0.03339 -0.027332,-0.19245 -0.051214,-0.35348 -0.075036,-0.505952 -0.091629,-0.733954 -0.083147,-1.142562 0.00549,-0.264589 0.015658,-0.416921 0.03716,-0.556999 C 5.8417093,9.6160575 6.1093235,9.0409908 6.5736829,8.5299118 L 6.6997402,8.3911717 6.6193966,8.2706731 C 6.3852501,7.9195023 6.0803797,7.7420869 5.5315447,7.6376133 5.3336562,7.599944 4.8501322,7.5433858 4.4639635,7.5127368 4.3441724,7.503226 4.2461626,7.4911719 4.2461626,7.4859406 c 0,-0.020232 0.6897239,-0.3569265 0.8997674,-0.4392309 0.663548,-0.260009 1.1342643,-0.3604431 1.6893251,-0.3604431 0.2781015,0 0.4494041,0.016214 0.6886321,0.065171 0.2947169,0.060316 0.5823954,0.1575212 0.8205364,0.2772564 L 8.4647603,7.089197 8.5055593,7.041264 C 8.6601,6.8596954 8.7759836,6.6437833 8.8302366,6.4363313 8.8970608,6.1808064 8.8816175,5.8260219 8.7869394,5.4416754 8.7157374,5.1526303 8.5512619,4.5807811 8.5230827,4.5242926 c -0.01148,-0.023019 -0.020881,-0.044238 -0.020881,-0.04716 0,-0.00291 0.051438,0.032441 0.1143038,0.078586 0.1412046,0.1036435 0.437328,0.372139 0.5603488,0.5080704 0.2085801,0.2304699 0.4506042,0.5688783 0.6168909,0.862565 0.3955858,0.6986637 0.5342118,1.5064926 0.3855548,2.246782 -0.0072,0.035782 -0.0023,0.038963 0.125319,0.081039 0.352164,0.1161406 0.697015,0.092849 1.084371,-0.07324 0.141838,-0.060817 0.370891,-0.1785003 0.726564,-0.3732985 0.08248,-0.045174 0.227084,-0.1207273 0.321345,-0.167899 0.09426,-0.047171 0.189059,-0.09827 0.210659,-0.1135518 0.02161,-0.015289 0.03928,-0.023927 0.03928,-0.01921 0,0.00472 -0.05363,0.116019 -0.119185,0.2473372 -0.160647,0.3218234 -0.38348,0.6991066 -0.520609,0.8814519 -0.576886,0.7671081 -1.234213,1.2449321 -2.023805,1.4711402 -0.1378913,0.03951 -0.4559822,0.107022 -0.5042071,0.107022 -0.024915,0 -0.030826,0.01211 -0.0394,0.08074 -0.026185,0.209588 0.013217,0.455822 0.1070041,0.668704 0.1046744,0.237593 0.3768184,0.545364 0.765655,0.865892 0.118137,0.09738 0.327963,0.270251 0.466282,0.384151 0.138318,0.113898 0.249855,0.208839 0.247862,0.210978 -0.0085,0.0092 -0.420122,-0.04484 -0.643298,-0.0844 -0.315144,-0.05587 -0.4269451,-0.08231 -0.6860494,-0.162299 -1.0698989,-0.33026 -1.8147119,-0.887494 -2.277759,-1.704114 -0.086216,-0.15205 -0.070492,-0.147504 -0.2508136,-0.07252 -0.2344532,0.09749 -0.4581561,0.286033 -0.6082991,0.512699 -0.1011464,0.152695 -0.3083103,0.569291 -0.5556586,1.1174 -0.105417,0.233597 -0.1956516,0.424797 -0.2005212,0.424889 -0.00487,2.16e-4 -0.012361,-0.02714 -0.01664,-0.06053 z M 9.986346,11.937992 C 9.983106,11.935652 9.918477,11.884325 9.8427882,11.823689 9.6776718,11.691404 9.4719489,11.479344 9.3716756,11.338066 9.1676976,11.050673 9.0648339,10.69592 9.0877696,10.358942 l 0.00714,-0.104919 -0.6807828,0.0049 c -0.374431,0.0028 -0.6848988,0.0091 -0.6899285,0.01409 -0.01417,0.01418 0.1637559,0.304851 0.278804,0.455476 0.1938231,0.253761 0.496565,0.526273 0.7991255,0.719333 0.2500634,0.159562 0.6713082,0.344154 1.0711516,0.469387 0.090894,0.02847 0.1367366,0.03686 0.1130652,0.02073 z M 6.1426777,10.99633 c 0.1631416,-0.358748 0.4093701,-0.65441 0.6913777,-0.830177 0.1127774,-0.07028 0.3273327,-0.165739 0.373585,-0.1661957 0.019401,-1.944e-4 0.023912,-0.00693 0.016798,-0.025254 C 7.1776164,9.8543184 7.0890371,9.577375 7.0230758,9.3451469 6.9385735,9.0476392 6.8646454,8.800423 6.8437158,8.7453637 c -0.01219,-0.032065 -0.015234,-0.030372 -0.08755,0.048648 -0.412,0.4502046 -0.6686224,1.0264219 -0.7532195,1.6912743 -0.0221,0.173685 -0.034604,0.599018 -0.022023,0.749257 l 0.010718,0.12799 0.053706,-0.135131 c 0.029537,-0.07432 0.073339,-0.178303 0.097335,-0.231071 z M 9.806625,9.8407807 C 10.507919,9.688762 11.13564,9.2871373 11.66081,8.6544452 11.75691,8.5386703 11.934363,8.300135 11.924392,8.300135 c -0.0032,0 -0.0499,0.026843 -0.103725,0.059647 -0.235201,0.1433508 -0.53957,0.2665535 -0.790542,0.3199962 -0.147021,0.031306 -0.47882,0.035756 -0.606986,0.00814 -0.07611,-0.016397 -0.286966,-0.077991 -0.330645,-0.096584 -0.01016,-0.00433 -0.03134,0.038316 -0.05541,0.1115491 C 9.99266,8.8379972 9.8656041,9.1610915 9.765815,9.3927104 9.706344,9.5307396 9.5733657,9.8687785 9.5733657,9.8819167 c 0,0.0063 0.077394,-0.00738 0.233267,-0.041135 z M 8.6450266,9.7042127 C 9.1028123,9.5367509 9.6371321,9.176656 9.7433179,8.9640395 9.8485776,8.7532762 9.7299593,8.5892073 9.2690956,8.3081437 9.0107816,8.1506058 8.9021024,8.0191835 8.9021024,7.8643498 c 0,-0.032032 -0.012334,-0.056074 -0.042614,-0.08305 -0.046208,-0.041171 -0.075772,-0.1007206 -0.091377,-0.1840525 -0.012685,-0.067747 -0.038462,-0.085989 -0.027686,-0.019595 0.00441,0.027162 7.334e-4,0.070211 -0.00813,0.095665 -0.013688,0.039258 -0.01163,0.054917 0.013534,0.1031985 0.018086,0.034695 0.026394,0.069961 0.02128,0.090322 -0.00802,0.031924 -0.036403,0.047715 -0.036403,0.02025 0,-0.00724 -0.030528,-0.043567 -0.06784,-0.08074 -0.037306,-0.037172 -0.083901,-0.096931 -0.103539,-0.1327996 -0.020465,-0.03738 -0.062177,-0.082946 -0.097729,-0.1067605 -0.057839,-0.038743 -0.061668,-0.045278 -0.05675,-0.09684 0.0061,-0.064071 -0.00947,-0.074639 -0.021478,-0.014571 -0.010588,0.052936 0.00133,0.097605 0.042589,0.158971 0.046654,0.069476 0.04442,0.1414972 -0.00588,0.1894818 -0.079725,0.076056 -0.187784,0.09086 -0.226947,0.031089 -0.022903,-0.03495 -0.022566,-0.039887 0.0068,-0.100356 0.035736,-0.073555 0.038024,-0.1128645 0.00947,-0.1628064 -0.02008,-0.035126 -0.020423,-0.034706 -0.020915,0.025933 C 8.1878063,7.6820021 8.1667264,7.7174906 8.1206934,7.7119 8.0863894,7.70773 8.0813194,7.71529 8.0448454,7.8249518 8.0163581,7.9106384 7.9820987,7.9741982 7.918381,8.059611 7.8371505,8.1685086 7.8196888,8.18323 7.6703001,8.2687676 7.2715584,8.4970807 7.0892773,8.6725423 7.0887336,8.8285751 c -3.143e-4,0.079942 0.062687,0.1948292 0.15777,0.2878679 0.2246297,0.2198005 0.6362244,0.4649512 0.9986207,0.594792 0.1953554,0.06999 0.1890761,0.070104 0.3998966,-0.00698 z M 8.2522706,9.6223682 C 7.8854008,9.5248757 7.4482646,9.2403051 7.3510127,9.0356594 7.3091017,8.9474668 7.303346,8.7817548 7.3397496,8.7113594 7.394926,8.6046604 7.5951939,8.4406804 7.8452342,8.2974665 8.0155516,8.1999145 8.2939359,8.1144692 8.4414446,8.1144692 c 0.1068478,0 0.3301199,0.061879 0.4807777,0.1332464 0.1729421,0.081923 0.40861,0.2384661 0.5089052,0.3380407 C 9.5432633,8.6970867 9.5646726,8.749348 9.5551378,8.8884637 9.5486916,8.9825751 9.5401736,9.011795 9.5017714,9.0716418 9.3802862,9.26096 8.954627,9.5341361 8.6593098,9.6123108 8.4823787,9.6591472 8.3984744,9.6612201 8.2522722,9.622369 Z M 8.5801635,9.5208027 C 8.9203112,9.4322061 9.1338078,9.1178229 9.0866299,8.7750124 9.0370565,8.4148051 8.6735841,8.1496455 8.3167979,8.2134069 7.9943463,8.271032 7.7598797,8.5480593 7.7598797,8.8714163 c 0,0.42944 0.4121212,0.7556997 0.8202838,0.6493864 z M 8.3510801,9.3860146 C 8.3065524,9.3680016 8.247423,9.2909203 8.2374819,9.2379283 8.2316409,9.2067802 8.2393899,9.1602988 8.260773,9.0990989 8.3046264,8.9733287 8.3050386,8.7747218 8.261772,8.6429036 8.224854,8.5305643 8.2241682,8.5114377 8.254743,8.4469984 8.2849587,8.3833252 8.350382,8.3430886 8.4237001,8.3430886 c 0.08257,0 0.1417483,0.041703 0.1721539,0.1213178 0.025009,0.065487 0.024886,0.068553 -0.00669,0.1665793 C 8.541372,8.7793751 8.536319,8.9122366 8.5735,9.0428007 8.618589,9.2011391 8.62078,9.2296685 8.592118,9.2853103 8.544916,9.3769383 8.4385506,9.4213842 8.351117,9.3860146 Z M 7.1160521,8.0436655 C 7.1775273,7.9968688 7.3330004,7.8898536 7.4615482,7.8058546 8.0161946,7.4434217 8.188001,7.3277659 8.188001,7.3168263 c 0,-0.00641 -0.054727,-0.035415 -0.121617,-0.064468 C 7.6389138,7.0667011 7.2875533,6.9917895 6.8243613,6.9875562 6.3812658,6.983504 5.9416449,7.0633573 5.4315707,7.240538 l -0.078552,0.027288 0.092833,0.010189 c 0.4716074,0.051775 0.7543628,0.1321979 1.0208822,0.2903673 0.1426444,0.084654 0.3745852,0.3127133 0.4644497,0.4566774 0.035347,0.056629 0.066254,0.1031249 0.068683,0.1033255 0.00241,1.951e-4 0.054711,-0.037923 0.1161855,-0.08472 z M 9.900486,7.9252318 C 10.0175,7.131669 9.7885027,6.3413512 9.2201433,5.5772286 9.1600042,5.4963751 9.1095652,5.4316547 9.1080575,5.4334055 c -0.00152,0.00176 0.012484,0.063164 0.031096,0.1364743 C 9.2649702,6.0654729 9.2530546,6.4570101 9.1010451,6.8221554 9.0564574,6.9292579 8.9322635,7.1281601 8.8461915,7.230314 l -0.04324,0.051317 0.1030163,0.070079 c 0.05666,0.038544 0.2508875,0.1800688 0.4316195,0.3144991 0.3219096,0.2394401 0.5173952,0.3768493 0.5361269,0.3768493 0.00513,0 0.017217,-0.053023 0.026775,-0.1178274 z"
     id="path1-1-1" />
  <rect
     style="opacity:0.3;fill:none;fill-opacity:0.996424;stroke:#000000;stroke-width:0.955221;stroke-dasharray:none;stroke-opacity:1;filter:url(#filter5421-3)"
     id="rect1-2-7-5"
     width="13.687567"
     height="13.591975"
     x="1.6227165"
     y="1.6705122"
     rx="2.8442214"
     ry="2.965905"
     transform="matrix(0.43046721,0,0,0.43046721,9.5627021,9.5627021)" />
  <rect
     style="fill:none;fill-opacity:1;stroke:{{colors.primary.default.hex}};stroke-width:0.411191;stroke-dasharray:none;stroke-opacity:1"
     id="rect1-2-3"
     width="5.8920484"
     height="5.8508992"
     x="10.261228"
     y="10.281802"
     rx="1.224344"
     ry="1.2767248" />
  <path
     id="path1"
     style="fill:{{colors.primary.default.hex}};fill-opacity:1;stroke:none;stroke-width:0.0587368;stroke-dasharray:none;stroke-dashoffset:2.2;stroke-opacity:0.6"
     d="m 14.168922,11.656658 c -0.06055,-2.6e-5 -0.125364,0.02435 -0.206481,0.07188 -0.193027,0.1131 -0.445472,0.166438 -0.792145,0.166438 -0.346641,0 -0.607506,-0.05448 -0.799384,-0.16692 -0.153862,-0.09017 -0.245719,-0.09136 -0.374847,-0.0043 -0.331514,0.223407 -0.581361,0.939687 -0.654655,1.875683 -0.04395,0.561277 -0.0029,0.857184 0.142315,1.023712 0.07004,0.08029 0.241969,0.06668 0.397039,-0.03184 0.13145,-0.08351 0.288072,-0.267793 0.475192,-0.559138 0.16909,-0.263274 0.373614,-0.349984 0.825918,-0.350725 0.451405,-6.81e-4 0.628801,0.08471 0.837013,0.404757 0.349331,0.536972 0.672221,0.723915 0.861617,0.498829 0.104925,-0.124694 0.12413,-0.24517 0.119159,-0.746797 -0.0091,-0.911235 -0.247248,-1.740202 -0.590491,-2.056592 -0.09141,-0.08427 -0.162394,-0.124918 -0.24025,-0.124951 z M 12.207851,12.1936 h 0.209374 0.209373 v 0.179464 0.179463 h 0.179465 0.179462 v 0.22433 0.224328 h -0.179462 -0.179465 v 0.194419 0.194419 h -0.189593 c -0.104158,0 -0.197928,-0.0093 -0.208892,-0.02026 -0.01096,-0.01096 -0.02025,-0.098 -0.02025,-0.193935 v -0.174644 h -0.179466 -0.179465 v -0.224328 -0.224329 h 0.179465 0.179463 v -0.179465 z m 1.706832,0 c 0.188883,0 0.269773,0.209278 0.133633,0.345419 -0.08658,0.08657 -0.165598,0.09337 -0.250863,0.02123 -0.147895,-0.125144 -0.0707,-0.366645 0.11723,-0.366645 z m -0.363268,0.383531 c 0.04717,3.2e-5 0.09465,0.01883 0.132184,0.0603 0.05851,0.06466 0.06483,0.212666 0.01207,0.281737 -0.103261,0.135182 -0.351207,0.04823 -0.351207,-0.123018 0,-0.12997 0.103198,-0.219094 0.206961,-0.219022 z m 0.741493,0.0073 c 0.05436,9.9e-4 0.10714,0.019 0.137972,0.05306 0.05851,0.06466 0.06482,0.212666 0.01206,0.281738 -0.109832,0.143783 -0.351209,0.04755 -0.351209,-0.139905 0,-0.05682 0.02277,-0.118403 0.05451,-0.14714 0.03629,-0.03285 0.0923,-0.04875 0.14666,-0.04775 z m -0.365199,0.386906 c 0.167454,0 0.248932,0.177621 0.147622,0.322262 -0.03463,0.04945 -0.07687,0.06657 -0.164026,0.06657 -0.100342,0 -0.123628,-0.01306 -0.164024,-0.09118 -0.07966,-0.154035 0.0073,-0.297659 0.180428,-0.297659 z" />
</svg>
