<?xml version="1.0" encoding="UTF-8" standalone="no"?>
<svg
   width="64"
   height="64"
   version="1.1"
   viewBox="0 0 16.933 16.933"
   id="svg7"
   sodipodi:docname="steam_icon_1184370.svg"
   inkscape:version="1.4.3 (0d15f75042, 2025-12-25)"
   xmlns:inkscape="http://www.inkscape.org/namespaces/inkscape"
   xmlns:sodipodi="http://sodipodi.sourceforge.net/DTD/sodipodi-0.dtd"
   xmlns="http://www.w3.org/2000/svg"
   xmlns:svg="http://www.w3.org/2000/svg"
   xmlns:rdf="http://www.w3.org/1999/02/22-rdf-syntax-ns#"
   xmlns:cc="http://creativecommons.org/ns#"
   xmlns:dc="http://purl.org/dc/elements/1.1/">
  <sodipodi:namedview
     id="namedview7"
     pagecolor="#9c4444"
     bordercolor="#000000"
     borderopacity="0.25"
     inkscape:showpageshadow="2"
     inkscape:pageopacity="0.0"
     inkscape:pagecheckerboard="0"
     inkscape:deskcolor="#d1d1d1"
     inkscape:zoom="4.3531261"
     inkscape:cx="42.957635"
     inkscape:cy="45.025114"
     inkscape:window-width="1226"
     inkscape:window-height="669"
     inkscape:window-x="314"
     inkscape:window-y="198"
     inkscape:window-maximized="0"
     inkscape:current-layer="svg7"
     showgrid="false" />
  <defs
     id="defs2">
    <filter
       style="color-interpolation-filters:sRGB;"
       inkscape:label="Blur"
       id="filter5421"
       x="-0.12256455"
       y="-0.12342654"
       width="1.2451291"
       height="1.2468531">
      <feGaussianBlur
         stdDeviation="0.5 0.5"
         result="blur"
         id="feGaussianBlur5419" />
    </filter>
    <filter
       style="color-interpolation-filters:sRGB"
       inkscape:label="Blur"
       id="filter5421-3"
       x="-0.12256455"
       y="-0.12342654"
       width="1.2451291"
       height="1.2468531">
      <feGaussianBlur
         stdDeviation="0.5 0.5"
         result="blur"
         id="feGaussianBlur5419-6" />
    </filter>
  </defs>
  <metadata
     id="metadata2">
    <rdf:RDF>
      <cc:Work
         rdf:about="">
        <dc:format>image/svg+xml</dc:format>
        <dc:type
           rdf:resource="http://purl.org/dc/dcmitype/StillImage" />
      </cc:Work>
    </rdf:RDF>
  </metadata>
  <rect
     style="opacity:0.3;fill:none;fill-opacity:0.996424;stroke:#000000;stroke-width:0.955221;stroke-dasharray:none;stroke-opacity:1;filter:url(#filter5421)"
     id="rect1-2-7"
     width="13.687567"
     height="13.591975"
     x="1.6227165"
     y="1.6705122"
     rx="2.8442214"
     ry="2.965905" />
  <rect
     style="fill:none;fill-opacity:1;stroke:{{colors.primary.default.hex}};stroke-width:0.955221;stroke-dasharray:none;stroke-opacity:1"
     id="rect1-2"
     width="13.687567"
     height="13.591975"
     x="1.6227167"
     y="1.6705124"
     rx="2.8442214"
     ry="2.965905" />
  <path
     fill="#000000"
     d="M 6.4991831,4.4093331 C 5.6860024,4.783692 5.1493939,5.3855982 5.1493939,6.0606983 c 0,0.4443389 0.2283801,0.8557977 0.6163887,1.1919327 -0.1984974,0.4322224 -0.3231703,0.9174374 -0.3541425,1.4331156 0.2926051,0.00956 0.5706101,0.071557 0.8201279,0.1991058 0.7073607,0.3616316 1.039505,1.1392446 0.9834109,2.0607506 0.1287562,0.03115 0.2601064,0.05709 0.3934821,0.07795 0.015203,-0.285221 0.014147,-0.569551 -0.00843,-0.852972 l 0.3170456,-0.02527 c 0.024491,0.306927 0.024944,0.612885 0.00779,0.917918 0.136522,0.01293 0.2746733,0.02056 0.4139149,0.02355 v -0.957018 h 0.3180076 v 0.955214 c 0.1332524,-0.0042 0.267062,-0.0129 0.4010255,-0.02574 -0.016887,-0.303683 -0.016331,-0.608306 0.00802,-0.913864 l 0.3170463,0.02525 c -0.022537,0.282446 -0.023621,0.565791 -0.00853,0.850042 C 9.4989,11.00246 9.6230072,10.980599 9.7466172,10.955246 9.6875944,10.029567 10.019561,9.2477971 10.72934,8.884927 10.978826,8.7573427 11.256862,8.6953077 11.549433,8.685782 11.518094,8.1630572 11.390438,7.6716189 11.187226,7.2349728 c 0.375757,-0.3328697 0.596378,-0.7376613 0.596378,-1.1742372 0,-0.6750992 -0.536613,-1.2770226 -1.349795,-1.6513321 0.222164,0.2819356 0.35894,0.6197411 0.35894,0.9764369 0,0.72646 -0.536235,1.3548613 -1.3108181,1.6532208 L 9.3774467,6.7957054 C 9.5671585,6.7201463 9.738785,6.6221755 9.885871,6.5070148 10.057754,6.3724874 10.195632,6.2162293 10.292765,6.0449099 9.7847899,5.6137951 9.1586648,5.3593779 8.480566,5.3593779 c -0.6864996,0 -1.3197983,0.2606127 -1.831123,0.7015287 0.09656,0.1650742 0.231242,0.3157673 0.3977411,0.4461082 0.1645645,0.1288249 0.3598442,0.2361556 0.576806,0.3146614 L 7.5197549,7.0644195 C 6.7083882,6.7774443 6.1402806,6.1336067 6.1402806,5.3858412 c 0,-0.3566955 0.1367887,-0.6945011 0.3589571,-0.9764369 z M 6.6742339,7.525792 c 0.00113,-7.2e-5 0.00155,7.1e-5 0.00184,0.00155 0.313369,0.3973574 0.8837418,0.6755516 1.5500909,0.7345162 -0.1002643,0.3352195 -0.4593115,0.5876285 -0.8963259,0.5876285 -0.5141166,0 -0.9385091,-0.3502962 -0.9385091,-0.7746068 3.14e-5,-0.2121241 0.1055977,-0.4083739 0.2741551,-0.547515 0.00155,0.00155 0.00562,-0.00113 0.00839,-0.00155 z m 3.6021471,3.02e-5 c 0.0013,-5.29e-5 0.0013,1.163e-4 0.0021,0.00155 0.168596,0.1391212 0.274189,0.3353721 0.274189,0.5475135 0,0.424261 -0.424377,0.7745727 -0.9385373,0.7745727 -0.4370184,0 -0.7960319,-0.2523749 -0.8963315,-0.5876305 0.6663907,-0.058983 1.2367851,-0.3371746 1.5501448,-0.7344869 0.0014,0.00155 0.0056,-0.00112 0.0082,-0.00155 z M 8.479628,8.2772301 c 0.095725,0.4666267 0.2370212,0.9332613 0.5600569,1.3998875 -0.3450184,0.092451 -0.7627064,0.095766 -1.1201175,0 C 8.2253422,9.2104914 8.3762244,8.7438568 8.479628,8.2772301 Z M 7.1809917,11.264554 c -0.039824,0.262072 -0.1091369,0.53266 -0.2084698,0.806166 0.1495168,0.09769 0.3069561,0.181163 0.4707652,0.249091 0.061727,-0.327163 0.1112435,-0.653079 0.1417549,-0.977756 -0.1364764,-0.02078 -0.2713281,-0.04653 -0.4040688,-0.07748 z m 2.6003733,0.0082 c -0.1272977,0.02558 -0.2551893,0.04776 -0.383352,0.06617 0.030249,0.322861 0.079225,0.646936 0.1403673,0.972233 0.1564278,-0.06632 0.3069189,-0.146866 0.4501555,-0.240401 -0.098289,-0.270737 -0.1671822,-0.53857 -0.2071708,-0.798071 z m -0.6993369,0.104064 c -0.1418455,0.01363 -0.2836534,0.02251 -0.4250238,0.02691 v 1.117984 c 0.1981571,-0.01309 0.3915101,-0.04783 0.5781513,-0.102348 -0.066338,-0.346151 -0.1201146,-0.693711 -0.1531275,-1.04256 z m -1.1810794,0.004 c -0.033259,0.349579 -0.087301,0.697802 -0.1538884,1.044674 0.191055,0.05413 0.3890279,0.08758 0.5919299,0.09824 v -1.11827 c -0.1470669,-0.0029 -0.2932838,-0.011 -0.4380415,-0.02455 z"
     id="path1-4"
     style="fill:{{colors.primary.default.hex}};fill-opacity:1;stroke:none;stroke-width:0.12036;stroke-dasharray:none;stroke-opacity:0.6" />
  <rect
     style="opacity:0.3;fill:none;fill-opacity:0.996424;stroke:#000000;stroke-width:0.955221;stroke-dasharray:none;stroke-opacity:1;filter:url(#filter5421-3)"
     id="rect1-2-7-5"
     width="13.687567"
     height="13.591975"
     x="1.6227165"
     y="1.6705122"
     rx="2.8442214"
     ry="2.965905"
     transform="matrix(0.43046721,0,0,0.43046721,9.5627021,9.5627021)" />
  <rect
     style="fill:none;fill-opacity:1;stroke:{{colors.primary.default.hex}};stroke-width:0.411191;stroke-dasharray:none;stroke-opacity:1"
     id="rect1-2-3"
     width="5.8920484"
     height="5.8508992"
     x="10.261228"
     y="10.281802"
     rx="1.224344"
     ry="1.2767248" />
  <path
     id="path1"
     style="fill:{{colors.primary.default.hex}};fill-opacity:1;stroke:none;stroke-width:0.0587368;stroke-dasharray:none;stroke-dashoffset:2.2;stroke-opacity:0.6"
     d="m 14.168922,11.656658 c -0.06055,-2.6e-5 -0.125364,0.02435 -0.206481,0.07188 -0.193027,0.1131 -0.445472,0.166438 -0.792145,0.166438 -0.346641,0 -0.607506,-0.05448 -0.799384,-0.16692 -0.153862,-0.09017 -0.245719,-0.09136 -0.374847,-0.0043 -0.331514,0.223407 -0.581361,0.939687 -0.654655,1.875683 -0.04395,0.561277 -0.0029,0.857184 0.142315,1.023712 0.07004,0.08029 0.241969,0.06668 0.397039,-0.03184 0.13145,-0.08351 0.288072,-0.267793 0.475192,-0.559138 0.16909,-0.263274 0.373614,-0.349984 0.825918,-0.350725 0.451405,-6.81e-4 0.628801,0.08471 0.837013,0.404757 0.349331,0.536972 0.672221,0.723915 0.861617,0.498829 0.104925,-0.124694 0.12413,-0.24517 0.119159,-0.746797 -0.0091,-0.911235 -0.247248,-1.740202 -0.590491,-2.056592 -0.09141,-0.08427 -0.162394,-0.124918 -0.24025,-0.124951 z M 12.207851,12.1936 h 0.209374 0.209373 v 0.179464 0.179463 h 0.179465 0.179462 v 0.22433 0.224328 h -0.179462 -0.179465 v 0.194419 0.194419 h -0.189593 c -0.104158,0 -0.197928,-0.0093 -0.208892,-0.02026 -0.01096,-0.01096 -0.02025,-0.098 -0.02025,-0.193935 v -0.174644 h -0.179466 -0.179465 v -0.224328 -0.224329 h 0.179465 0.179463 v -0.179465 z m 1.706832,0 c 0.188883,0 0.269773,0.209278 0.133633,0.345419 -0.08658,0.08657 -0.165598,0.09337 -0.250863,0.02123 -0.147895,-0.125144 -0.0707,-0.366645 0.11723,-0.366645 z m -0.363268,0.383531 c 0.04717,3.2e-5 0.09465,0.01883 0.132184,0.0603 0.05851,0.06466 0.06483,0.212666 0.01207,0.281737 -0.103261,0.135182 -0.351207,0.04823 -0.351207,-0.123018 0,-0.12997 0.103198,-0.219094 0.206961,-0.219022 z m 0.741493,0.0073 c 0.05436,9.9e-4 0.10714,0.019 0.137972,0.05306 0.05851,0.06466 0.06482,0.212666 0.01206,0.281738 -0.109832,0.143783 -0.351209,0.04755 -0.351209,-0.139905 0,-0.05682 0.02277,-0.118403 0.05451,-0.14714 0.03629,-0.03285 0.0923,-0.04875 0.14666,-0.04775 z m -0.365199,0.386906 c 0.167454,0 0.248932,0.177621 0.147622,0.322262 -0.03463,0.04945 -0.07687,0.06657 -0.164026,0.06657 -0.100342,0 -0.123628,-0.01306 -0.164024,-0.09118 -0.07966,-0.154035 0.0073,-0.297659 0.180428,-0.297659 z" />
</svg>
