<?xml version="1.0" encoding="UTF-8" standalone="no"?>
<svg
   width="64"
   height="64"
   version="1.1"
   viewBox="0 0 16.933 16.933"
   id="svg7"
   sodipodi:docname="abcd.svg"
   inkscape:version="1.4.3 (0d15f75042, 2025-12-25)"
   xmlns:inkscape="http://www.inkscape.org/namespaces/inkscape"
   xmlns:sodipodi="http://sodipodi.sourceforge.net/DTD/sodipodi-0.dtd"
   xmlns="http://www.w3.org/2000/svg"
   xmlns:svg="http://www.w3.org/2000/svg"
   xmlns:rdf="http://www.w3.org/1999/02/22-rdf-syntax-ns#"
   xmlns:cc="http://creativecommons.org/ns#"
   xmlns:dc="http://purl.org/dc/elements/1.1/">
  <sodipodi:namedview
     id="namedview7"
     pagecolor="#9c4444"
     bordercolor="#000000"
     borderopacity="0.25"
     inkscape:showpageshadow="2"
     inkscape:pageopacity="0.0"
     inkscape:pagecheckerboard="0"
     inkscape:deskcolor="#d1d1d1"
     inkscape:zoom="4.3531261"
     inkscape:cx="43.072494"
     inkscape:cy="45.254834"
     inkscape:window-width="1226"
     inkscape:window-height="669"
     inkscape:window-x="109"
     inkscape:window-y="119"
     inkscape:window-maximized="0"
     inkscape:current-layer="svg7"
     showgrid="false" />
  <defs
     id="defs2">
    <filter
       style="color-interpolation-filters:sRGB;"
       inkscape:label="Blur"
       id="filter5421"
       x="-0.12256455"
       y="-0.12342654"
       width="1.2451291"
       height="1.2468531">
      <feGaussianBlur
         stdDeviation="0.5 0.5"
         result="blur"
         id="feGaussianBlur5419" />
    </filter>
    <filter
       style="color-interpolation-filters:sRGB"
       inkscape:label="Blur"
       id="filter5421-3"
       x="-0.12256455"
       y="-0.12342654"
       width="1.2451291"
       height="1.2468531">
      <feGaussianBlur
         stdDeviation="0.5 0.5"
         result="blur"
         id="feGaussianBlur5419-6" />
    </filter>
  </defs>
  <metadata
     id="metadata2">
    <rdf:RDF>
      <cc:Work
         rdf:about="">
        <dc:format>image/svg+xml</dc:format>
        <dc:type
           rdf:resource="http://purl.org/dc/dcmitype/StillImage" />
      </cc:Work>
    </rdf:RDF>
  </metadata>
  <rect
     style="opacity:0.3;fill:none;fill-opacity:0.996424;stroke:#000000;stroke-width:0.955221;stroke-dasharray:none;stroke-opacity:1;filter:url(#filter5421)"
     id="rect1-2-7"
     width="13.687567"
     height="13.591975"
     x="1.6227165"
     y="1.6705122"
     rx="2.8442214"
     ry="2.965905" />
  <rect
     style="fill:none;fill-opacity:1;stroke:{{colors.primary.default.hex}};stroke-width:0.955221;stroke-dasharray:none;stroke-opacity:1"
     id="rect1-2"
     width="13.687567"
     height="13.591975"
     x="1.6227167"
     y="1.6705124"
     rx="2.8442214"
     ry="2.965905" />
  <path
     style="fill:{{colors.primary.default.hex}};fill-opacity:1;stroke:none;stroke-width:0.133733;stroke-dasharray:none;stroke-opacity:0.6"
     d="M 8.4459902,12.95594 C 8.4458633,12.933879 8.3658808,12.670411 8.268249,12.370442 8.110346,11.8853 8.087569,11.780752 8.0620611,11.424027 8.0462899,11.203464 8.0240012,10.998605 8.0125338,10.968787 7.9311578,10.757173 7.3604902,10.723824 7.2047641,10.92158 7.0235131,11.151751 6.8521558,11.138388 6.8920841,10.897197 6.922163,10.715513 6.9587573,10.65546 7.178983,10.426402 7.3825501,10.214674 7.5989388,10.092489 7.8847853,10.027871 L 8.045195,9.9916084 8.0612311,9.207986 c 0.00882,-0.4309899 0.011996,-1.182915 0.00704,-1.6709433 L 8.0592812,6.649726 7.9559814,6.6660007 c -0.056811,0.00896 -0.1249504,0.027692 -0.1514187,0.041663 -0.026467,0.013978 -0.1839522,0.070783 -0.3499666,0.126242 -0.6887444,0.2300893 -1.3785412,0.7198899 -1.4798948,1.0508196 -0.05279,0.1723629 -0.080003,1.4336745 -0.034553,1.6015225 0.049916,0.1843454 0.1611483,0.3370473 0.3038089,0.4170699 0.066992,0.037588 0.1243102,0.080855 0.1273797,0.09619 0.00994,0.049605 -0.2392079,0.072948 -0.8125103,0.076104 -0.5205143,0.0031 -0.9549003,-0.01706 -1.0506741,-0.04814 -0.066751,-0.02168 -0.044358,-0.059479 0.081068,-0.1368296 0.065696,-0.040508 0.1555366,-0.1271364 0.1996492,-0.19249 L 4.8690727,9.5793282 4.8781027,8.2396063 4.8871327,6.899884 4.990389,6.955697 C 5.2144649,7.0767973 5.6884542,7.0016483 5.9117556,6.80961 6.061949,6.6804489 6.5045754,6.4090497 6.7650753,6.2863978 7.062624,6.146301 7.6276921,5.9513151 7.8286513,5.9193948 c 0.074993,-0.011918 0.136348,-0.039149 0.136348,-0.06053 0,-0.021382 0.035695,-0.055138 0.07932,-0.075015 0.043624,-0.019878 0.085555,-0.069113 0.093177,-0.1094153 C 8.1629093,5.5400606 8.348348,4.4496046 8.3872825,4.2055948 8.4083975,4.0732572 8.4356585,3.953124 8.4478645,3.938633 8.4953955,3.88219 8.7982284,5.2701946 8.7988809,5.5474832 c 1.851e-4,0.075604 0.028321,0.1348049 0.096498,0.2029795 0.052933,0.052934 0.096245,0.106094 0.096245,0.1181312 0,0.012043 0.1191038,0.048439 0.2646759,0.080893 0.3197001,0.071276 0.7549992,0.2351937 1.0637072,0.4005554 0.325512,0.1743616 0.663687,0.3853577 0.756944,0.4722756 0.126913,0.1182895 0.314478,0.1804071 0.560052,0.1854839 0.155692,0.00321 0.25838,-0.011976 0.330221,-0.04887 l 0.104272,-0.053539 7.28e-4,1.2888396 c 9.31e-4,1.4688013 -0.0022,1.4497897 0.268138,1.6757983 0.102626,0.085781 0.137582,0.1337913 0.11435,0.1570343 -0.04869,0.04869 -1.758489,0.04545 -1.841362,-0.0035 -0.05832,-0.034448 -0.05504,-0.040195 0.04813,-0.084087 0.130287,-0.055436 0.222777,-0.1513643 0.315884,-0.3276087 0.06214,-0.1176149 0.06756,-0.1790628 0.06756,-0.7673378 0,-0.8196282 -0.02941,-0.9972568 -0.196601,-1.1871891 C 10.667789,7.4523702 10.392326,7.2546325 10.022715,7.0647764 9.6330676,6.8646284 8.9584149,6.6235225 8.913552,6.6683849 8.904172,6.6777549 8.8965,7.4263324 8.896544,8.3318409 l 7.1e-5,1.6463807 0.1357089,0.034262 c 0.4821159,0.121762 0.8852793,0.429132 1.0060581,0.767008 0.06015,0.168271 0.05336,0.252281 -0.02373,0.29354 -0.0585,0.0313 -0.083623,0.02076 -0.1844757,-0.07751 -0.14233,-0.138703 -0.3120496,-0.213142 -0.4859247,-0.213142 -0.130832,0 -0.3427376,0.08637 -0.407448,0.166085 -0.018946,0.02336 -0.041701,0.237345 -0.050553,0.475551 -0.015544,0.418413 -0.022197,0.451947 -0.1959862,0.988461 -0.098943,0.30544 -0.1798963,0.561695 -0.1798963,0.56945 0,0.0076 -0.014432,0.01412 -0.03208,0.01412 -0.017645,0 -0.032185,-0.01804 -0.032313,-0.04011 z"
     id="path1-3" />
  <rect
     style="opacity:0.3;fill:none;fill-opacity:0.996424;stroke:#000000;stroke-width:0.955221;stroke-dasharray:none;stroke-opacity:1;filter:url(#filter5421-3)"
     id="rect1-2-7-5"
     width="13.687567"
     height="13.591975"
     x="1.6227165"
     y="1.6705122"
     rx="2.8442214"
     ry="2.965905"
     transform="matrix(0.43046721,0,0,0.43046721,9.5627021,9.5627021)" />
  <rect
     style="fill:none;fill-opacity:1;stroke:{{colors.primary.default.hex}};stroke-width:0.411191;stroke-dasharray:none;stroke-opacity:1"
     id="rect1-2-3"
     width="5.8920484"
     height="5.8508992"
     x="10.261228"
     y="10.281802"
     rx="1.224344"
     ry="1.2767248" />
  <path
     id="path1"
     style="fill:{{colors.primary.default.hex}};fill-opacity:1;stroke:none;stroke-width:0.0587368;stroke-dasharray:none;stroke-dashoffset:2.2;stroke-opacity:0.6"
     d="m 14.168922,11.656658 c -0.06055,-2.6e-5 -0.125364,0.02435 -0.206481,0.07188 -0.193027,0.1131 -0.445472,0.166438 -0.792145,0.166438 -0.346641,0 -0.607506,-0.05448 -0.799384,-0.16692 -0.153862,-0.09017 -0.245719,-0.09136 -0.374847,-0.0043 -0.331514,0.223407 -0.581361,0.939687 -0.654655,1.875683 -0.04395,0.561277 -0.0029,0.857184 0.142315,1.023712 0.07004,0.08029 0.241969,0.06668 0.397039,-0.03184 0.13145,-0.08351 0.288072,-0.267793 0.475192,-0.559138 0.16909,-0.263274 0.373614,-0.349984 0.825918,-0.350725 0.451405,-6.81e-4 0.628801,0.08471 0.837013,0.404757 0.349331,0.536972 0.672221,0.723915 0.861617,0.498829 0.104925,-0.124694 0.12413,-0.24517 0.119159,-0.746797 -0.0091,-0.911235 -0.247248,-1.740202 -0.590491,-2.056592 -0.09141,-0.08427 -0.162394,-0.124918 -0.24025,-0.124951 z M 12.207851,12.1936 h 0.209374 0.209373 v 0.179464 0.179463 h 0.179465 0.179462 v 0.22433 0.224328 h -0.179462 -0.179465 v 0.194419 0.194419 h -0.189593 c -0.104158,0 -0.197928,-0.0093 -0.208892,-0.02026 -0.01096,-0.01096 -0.02025,-0.098 -0.02025,-0.193935 v -0.174644 h -0.179466 -0.179465 v -0.224328 -0.224329 h 0.179465 0.179463 v -0.179465 z m 1.706832,0 c 0.188883,0 0.269773,0.209278 0.133633,0.345419 -0.08658,0.08657 -0.165598,0.09337 -0.250863,0.02123 -0.147895,-0.125144 -0.0707,-0.366645 0.11723,-0.366645 z m -0.363268,0.383531 c 0.04717,3.2e-5 0.09465,0.01883 0.132184,0.0603 0.05851,0.06466 0.06483,0.212666 0.01207,0.281737 -0.103261,0.135182 -0.351207,0.04823 -0.351207,-0.123018 0,-0.12997 0.103198,-0.219094 0.206961,-0.219022 z m 0.741493,0.0073 c 0.05436,9.9e-4 0.10714,0.019 0.137972,0.05306 0.05851,0.06466 0.06482,0.212666 0.01206,0.281738 -0.109832,0.143783 -0.351209,0.04755 -0.351209,-0.139905 0,-0.05682 0.02277,-0.118403 0.05451,-0.14714 0.03629,-0.03285 0.0923,-0.04875 0.14666,-0.04775 z m -0.365199,0.386906 c 0.167454,0 0.248932,0.177621 0.147622,0.322262 -0.03463,0.04945 -0.07687,0.06657 -0.164026,0.06657 -0.100342,0 -0.123628,-0.01306 -0.164024,-0.09118 -0.07966,-0.154035 0.0073,-0.297659 0.180428,-0.297659 z" />
</svg>
