<?xml version="1.0" encoding="UTF-8" standalone="no"?>
<svg
   width="64"
   height="64"
   version="1.1"
   viewBox="0 0 16.933 16.933"
   id="svg7"
   sodipodi:docname="steam_icon_2975950 copy.svg"
   inkscape:version="1.4.3 (0d15f75042, 2025-12-25)"
   xmlns:inkscape="http://www.inkscape.org/namespaces/inkscape"
   xmlns:sodipodi="http://sodipodi.sourceforge.net/DTD/sodipodi-0.dtd"
   xmlns="http://www.w3.org/2000/svg"
   xmlns:svg="http://www.w3.org/2000/svg"
   xmlns:rdf="http://www.w3.org/1999/02/22-rdf-syntax-ns#"
   xmlns:cc="http://creativecommons.org/ns#"
   xmlns:dc="http://purl.org/dc/elements/1.1/">
  <sodipodi:namedview
     id="namedview7"
     pagecolor="#9c4444"
     bordercolor="#000000"
     borderopacity="0.25"
     inkscape:showpageshadow="2"
     inkscape:pageopacity="0.0"
     inkscape:pagecheckerboard="0"
     inkscape:deskcolor="#d1d1d1"
     inkscape:zoom="4.3531261"
     inkscape:cx="43.187354"
     inkscape:cy="45.254834"
     inkscape:window-width="1226"
     inkscape:window-height="669"
     inkscape:window-x="314"
     inkscape:window-y="198"
     inkscape:window-maximized="0"
     inkscape:current-layer="svg7"
     showgrid="false" />
  <defs
     id="defs2">
    <filter
       style="color-interpolation-filters:sRGB;"
       inkscape:label="Blur"
       id="filter5421"
       x="-0.12256455"
       y="-0.12342654"
       width="1.2451291"
       height="1.2468531">
      <feGaussianBlur
         stdDeviation="0.5 0.5"
         result="blur"
         id="feGaussianBlur5419" />
    </filter>
    <filter
       style="color-interpolation-filters:sRGB"
       inkscape:label="Blur"
       id="filter5421-3"
       x="-0.12256455"
       y="-0.12342654"
       width="1.2451291"
       height="1.2468531">
      <feGaussianBlur
         stdDeviation="0.5 0.5"
         result="blur"
         id="feGaussianBlur5419-6" />
    </filter>
  </defs>
  <metadata
     id="metadata2">
    <rdf:RDF>
      <cc:Work
         rdf:about="">
        <dc:format>image/svg+xml</dc:format>
        <dc:type
           rdf:resource="http://purl.org/dc/dcmitype/StillImage" />
      </cc:Work>
    </rdf:RDF>
  </metadata>
  <rect
     style="opacity:0.3;fill:none;fill-opacity:0.996424;stroke:#000000;stroke-width:0.955221;stroke-dasharray:none;stroke-opacity:1;filter:url(#filter5421)"
     id="rect1-2-7"
     width="13.687567"
     height="13.591975"
     x="1.6227165"
     y="1.6705122"
     rx="2.8442214"
     ry="2.965905" />
  <rect
     style="fill:none;fill-opacity:1;stroke:{{colors.primary.default.hex}};stroke-width:0.955221;stroke-dasharray:none;stroke-opacity:1"
     id="rect1-2"
     width="13.687567"
     height="13.591975"
     x="1.6227167"
     y="1.6705124"
     rx="2.8442214"
     ry="2.965905" />
  <path
     style="fill:{{colors.primary.default.hex}};stroke-width:0.0128309;fill-opacity:1"
     d="m 7.8547975,12.144577 c -0.063813,-0.170228 -0.076686,-0.309 -0.072214,-0.77839 0.00233,-0.244637 -0.00179,-0.473662 -0.00917,-0.508947 -0.00736,-0.03527 -0.00677,-0.06415 0.00132,-0.06414 0.015047,5e-6 0.013204,-0.9144839 -0.00192,-0.9542698 -0.00634,-0.016676 -0.023749,-0.013692 -0.072819,0.012449 -0.1346933,0.07174 -0.1804117,0.1484225 -0.1115358,0.1870878 0.028457,0.01599 0.028444,0.0174 -3.037e-4,0.02846 -0.041506,0.01599 -0.1250349,-0.02142 -0.1571025,-0.070347 -0.014573,-0.02223 -0.026496,-0.07637 -0.026496,-0.1202814 0,-0.1580461 0.1491139,-0.2362059 0.5669378,-0.297167 0.1189294,-0.017355 0.2319743,-0.03998 0.2512106,-0.050268 0.046667,-0.024978 0.055139,-0.023623 0.04341,0.00694 -0.00799,0.020812 0.00745,0.025714 0.081797,0.026001 0.2347088,8.39e-4 0.4621414,0.058564 0.5561152,0.1410718 0.0603,0.05295 0.1361299,0.1789403 0.1183767,0.1966933 -0.00536,0.00542 -0.00974,6.985e-4 -0.00974,-0.010216 0,-0.010974 -0.00704,-0.019955 -0.015636,-0.019955 -0.0086,0 -0.00125,0.036579 0.016328,0.081261 0.01757,0.044688 0.036687,0.1039541 0.042471,0.1316891 0.00832,0.03993 0.014071,0.04528 0.027597,0.02566 0.011674,-0.01692 0.014908,0.03333 0.010209,0.158677 -0.00638,0.169993 -0.01149,0.192795 -0.069849,0.310873 -0.1321331,0.26735 -0.4102275,0.419842 -0.7671057,0.420634 -0.086187,1.66e-4 -0.1363474,0.0077 -0.1454133,0.02169 -0.00762,0.01176 -0.022524,0.240789 -0.03314,0.508948 -0.017401,0.439647 -0.022944,0.495547 -0.056401,0.568822 -0.03641,0.07974 -0.069715,0.106306 -0.069715,0.05561 0,-0.04598 -0.028864,-0.02702 -0.045603,0.02993 l -0.016339,0.05561 z M 8.4876756,10.769251 C 8.6811042,10.711039 8.7819106,10.584577 8.8261119,10.344687 8.8525389,10.20127 8.8260173,10.019339 8.7613539,9.9005394 8.6917681,9.7726883 8.611024,9.7406391 8.362591,9.7422665 8.2543862,9.7428952 8.1446847,9.7524071 8.1188097,9.7632237 l -0.047046,0.019678 v 0.4845653 c 0,0.354073 0.00551,0.490093 0.02053,0.505094 0.028632,0.02864 0.2967061,0.02639 0.3953831,-0.0033 z m 1.7618404,0.365411 c 0.0048,-0.0189 2.64e-4,-0.03095 -0.01114,-0.02879 -0.01078,0.0022 -0.02204,-0.02133 -0.025,-0.0519 -0.0054,-0.05618 -0.02732,-0.07354 -0.04319,-0.03422 -0.0047,0.01175 -0.0092,0.0021 -0.01,-0.02186 -6.63e-4,-0.02377 -0.01483,-0.06228 -0.03129,-0.08553 -0.02681,-0.03786 -0.02999,-0.09373 -0.03048,-0.532947 -5.39e-4,-0.5627552 0.0027,-0.5497136 -0.1469553,-0.5703018 -0.095719,-0.013167 -0.1286033,-0.047735 -0.1377231,-0.1448344 -0.00471,-0.049978 -8.15e-5,-0.059631 0.028611,-0.059873 0.018819,-1.36e-4 0.038564,0.00559 0.043881,0.012697 0.00532,0.00713 0.05063,0.00522 0.1007035,-0.00426 0.1365059,-0.025894 0.2257489,-0.021006 0.2989909,0.016334 0.06582,0.033565 0.066,0.033558 0.170414,-0.00279 0.06608,-0.022986 0.148758,-0.036739 0.224752,-0.03739 0.162391,-0.00146 0.283316,0.063158 0.347347,0.1854078 0.05479,0.1046055 0.0692,0.2473274 0.03056,0.3025134 l -0.02766,0.03948 -2.13e-4,-0.05084 c -2.28e-4,-0.04519 -0.03295,-0.1276129 -0.03375,-0.085073 -1.74e-4,0.00941 -0.01563,-0.00798 -0.03431,-0.038655 -0.05092,-0.083499 -0.128863,-0.1237509 -0.239597,-0.1237123 -0.12339,3.68e-5 -0.201082,0.024084 -0.270483,0.083714 l -0.05664,0.048671 -0.01536,0.4084624 c -0.02565,0.681827 -0.03874,0.781713 -0.104734,0.798972 -0.02806,0.0073 -0.03347,0.0027 -0.02668,-0.02327 z m 1.512903,-0.04362 c -0.375153,-0.06782 -0.58459,-0.333287 -0.580878,-0.736274 0.0022,-0.220546 0.06232,-0.3856251 0.192372,-0.5267128 0.1786,-0.1937558 0.494236,-0.2455562 0.75865,-0.1245031 0.106265,0.048648 0.18373,0.1394797 0.242673,0.2845309 0.0505,0.124297 0.05259,0.178377 0.0086,0.222403 -0.04772,0.04771 -0.107288,0.05462 -0.498383,0.05789 l -0.349391,0.0028 -0.0055,0.05699 c -0.0029,0.03134 0.0028,0.0807 0.01292,0.109696 0.01012,0.02899 0.01481,0.05625 0.01049,0.06059 -0.009,0.009 -0.04931,-0.07958 -0.076,-0.167413 -0.01633,-0.05368 -0.01757,-0.04831 -0.01225,0.05207 0.01131,0.213121 0.169069,0.432414 0.342496,0.476082 0.176931,0.04454 0.366573,0.01877 0.45917,-0.06242 0.01646,-0.01443 0.02992,-0.01989 0.02992,-0.01212 0,0.0077 -0.01347,0.02933 -0.02992,0.04792 -0.02203,0.02487 -0.02345,0.0317 -0.0054,0.02592 0.05007,-0.01597 0.0939,-0.09845 0.091,-0.171214 -0.0035,-0.08742 0.02855,-0.06579 0.04748,0.03205 l 0.01258,0.06503 0.0021,-0.07039 c 0.0013,-0.04759 -0.0095,-0.085 -0.03349,-0.115475 -0.04796,-0.06096 -0.0084,-0.05734 0.05388,0.0049 0.04299,0.043 0.04999,0.06303 0.04999,0.142954 0,0.0798 -0.0084,0.103987 -0.05958,0.170995 -0.06802,0.0891 -0.190255,0.156575 -0.331935,0.183245 -0.115503,0.02175 -0.165508,0.02027 -0.331538,-0.0097 z m 0.356144,-1.040659 c 0.02664,-0.01947 0.02506,-0.02895 -0.02022,-0.1224834 -0.05108,-0.1054997 -0.09307,-0.1381665 -0.19985,-0.1554937 -0.138685,-0.022505 -0.308318,0.080906 -0.336163,0.2049288 -0.01303,0.058007 -0.01053,0.066965 0.02229,0.080446 0.05785,0.02375 0.499709,0.01764 0.533948,-0.0074 z m -2.7107691,1.029008 c -0.022616,-0.01164 -0.057258,-0.0429 -0.076982,-0.06948 -0.034729,-0.04683 -0.035955,-0.06803 -0.038805,-0.667191 -0.00159,-0.34036 -0.00814,-0.6429408 -0.014476,-0.6724072 -0.013162,-0.061181 -0.00937,-0.06477 0.128621,-0.1214558 0.1223397,-0.050255 0.1550708,-0.048833 0.2106424,0.00917 0.046501,0.048535 0.058931,0.1027691 0.030344,0.1325016 -0.0146,0.015182 -0.044245,0.6682704 -0.044245,0.9742694 v 0.136859 l 0.048149,0.0055 c 0.026478,0.003 0.068085,-0.0075 0.092462,-0.02351 0.041727,-0.02736 0.043657,-0.02733 0.033094,1.75e-4 -0.00732,0.01922 -0.0039,0.02682 0.01019,0.02221 0.011763,-0.0039 0.023826,-0.0276 0.026801,-0.05274 0.010896,-0.09202 0.053706,-0.02954 0.05423,0.07915 4.413e-4,0.102418 -0.1000679,0.217862 -0.2184176,0.250732 -0.085393,0.02372 -0.1913264,0.02206 -0.2416005,-0.0038 z m -3.0296684,-0.007 C 6.2596332,11.060139 6.0767013,11.009194 5.9708548,10.958888 5.7211785,10.84022 5.5987327,10.560023 5.6754,10.282782 c 0.022634,-0.08184 0.1369072,-0.222329 0.1377163,-0.169305 4.131e-4,0.02779 0.0038,0.02815 0.040135,0.0044 0.02182,-0.01432 0.087046,-0.03096 0.1449469,-0.037 0.057901,-0.0061 0.1011809,-0.0176 0.096178,-0.02572 -0.029828,-0.04827 0.1746333,0.06215 0.2072397,0.111909 0.057689,0.08805 0.053242,0.221682 -0.00946,0.284386 -0.037178,0.03718 -0.1340333,0.04543 -0.1888719,0.01606 -0.043854,-0.02346 -0.042123,-0.05072 0.00321,-0.05072 0.028904,0 0.03232,-0.0048 0.016747,-0.02357 -0.015371,-0.01852 -0.012155,-0.02551 0.015012,-0.0326 0.044411,-0.01161 0.044199,-0.0401 -4.724e-4,-0.06401 -0.037975,-0.02033 -0.1531295,0.0063 -0.1531295,0.03545 0,0.0084 0.013473,0.01038 0.029938,0.0045 0.019685,-0.0071 0.014488,0.004 -0.015175,0.03214 -0.060901,0.05795 -0.073889,0.127721 -0.039375,0.211447 0.059329,0.143914 0.1695453,0.210521 0.423486,0.25592 0.2623293,0.0469 0.4085285,0.01879 0.5272254,-0.101398 0.082932,-0.08397 0.1129107,-0.189082 0.084911,-0.297727 -0.043938,-0.170494 -0.043927,-0.171792 8.746e-4,-0.1102 0.022125,0.03041 0.045999,0.05544 0.053057,0.05561 0.023656,4.87e-4 0.013145,-0.06887 -0.020376,-0.134587 -0.029701,-0.0583 -0.1367186,-0.169664 -0.1684001,-0.175317 -0.00673,-0.0013 -0.027632,-0.0043 -0.04645,-0.007 C 6.7724862,10.059361 6.4868901,9.9413979 6.3598589,9.8776159 6.1220176,9.758296 5.8680428,9.5463479 5.8059245,9.4154439 c -0.017521,-0.036923 -0.030722,-0.096181 -0.029331,-0.131673 0.00139,-0.035498 -0.00511,-0.064535 -0.014456,-0.064535 -0.025443,0 -0.019937,-0.1467771 0.010593,-0.2822727 0.014841,-0.065862 0.028632,-0.1326526 0.030651,-0.148423 0.00463,-0.036217 0.079608,-0.1103219 0.1898299,-0.187628 C 6.2331809,8.4326056 6.3445057,8.398079 6.6472101,8.398079 c 0.1806322,0 0.2281588,0.0061 0.3342782,0.042969 0.068038,0.023634 0.1429536,0.058556 0.1664761,0.077607 0.023523,0.019051 0.056241,0.039105 0.072708,0.044563 0.018312,0.00608 0.030039,0.027418 0.0302,0.054975 1.563e-4,0.024778 0.00772,0.056598 0.016846,0.070711 0.013182,0.0204 0.01679,0.016896 0.017597,-0.017107 8.389e-4,-0.035526 0.00552,-0.031184 0.027703,0.025661 0.091402,0.2343324 0.095198,0.2525127 0.08841,0.4235445 -0.00586,0.1476214 -0.011234,0.1713697 -0.046452,0.205289 l -0.039827,0.03835 0.019052,-0.037371 c 0.01048,-0.020544 0.018512,-0.051345 0.017844,-0.068429 -6.74e-4,-0.017503 -0.014701,-7.719e-4 -0.032119,0.038356 -0.095211,0.2138365 -0.4169237,0.2620795 -0.5804303,0.087041 -0.022593,-0.024185 -0.0363,-0.054876 -0.030851,-0.069075 0.00539,-0.014045 0.00261,-0.050615 -0.00617,-0.081256 -0.00879,-0.030636 -0.00974,-0.059947 -0.0021,-0.065134 0.00763,-0.00519 0.019884,-0.024824 0.027252,-0.043644 0.013372,-0.034165 0.013417,-0.034165 0.029494,1.94e-4 0.025988,0.055581 0.1214109,0.1109783 0.1911552,0.1109783 0.052933,0 0.069061,-0.00913 0.098104,-0.0556 C 7.1057672,9.0856765 7.0610668,8.9413371 6.9301335,8.8053955 6.8218953,8.6930346 6.5902997,8.6275294 6.4440298,8.6679226 c -0.077377,0.021368 -0.2016062,0.113338 -0.2559451,0.1894833 -0.0225,0.03153 -0.055447,0.073011 -0.073217,0.092182 -0.045671,0.049274 -0.055258,0.1651727 -0.019836,0.2398166 0.055985,0.1179795 0.3003727,0.2821881 0.7320806,0.4919011 0.1387292,0.067397 0.2565794,0.1295578 0.2618902,0.1381513 0.020887,0.033806 0.042282,0.014181 0.023273,-0.021331 -0.0254,-0.047461 0.1552539,0.1315215 0.2013511,0.1994854 0.099655,0.1469317 0.1326458,0.4658357 0.067712,0.6545577 -0.064221,0.186648 -0.2805982,0.355988 -0.5195897,0.40663 -0.105839,0.02242 -0.3345723,0.02881 -0.4836242,0.0135 z M 9.3248852,9.1928456 c -0.049398,-0.032371 -0.089815,-0.067822 -0.089815,-0.078779 0,-0.01096 -0.019059,-0.044909 -0.042355,-0.075452 -0.023294,-0.030541 -0.057872,-0.094897 -0.076836,-0.1430143 L 9.0813952,8.8080953 9.1337922,8.697197 c 0.050035,-0.1058962 0.051504,-0.1152056 0.032576,-0.2063831 -0.010902,-0.052517 -0.015299,-0.1000064 -0.00978,-0.105533 0.00552,-0.00551 0.010052,-0.00107 0.010052,0.00991 0,0.010975 0.011544,0.019958 0.025659,0.019958 0.014112,0 0.025657,0.011547 0.025657,0.025661 0,0.014112 0.00753,0.025661 0.016761,0.025661 0.01996,0 0.085886,-0.1242171 0.085886,-0.161839 0,-0.033753 0.027537,-0.034217 0.040404,-6.768e-4 0.021245,0.055343 0.045146,0.021552 0.045401,-0.064153 1.658e-4,-0.064297 0.00496,-0.082524 0.016848,-0.064153 0.00912,0.014113 0.016698,0.042039 0.016849,0.062059 3.074e-4,0.047688 0.049146,0.092101 0.050721,0.046157 5.404e-4,-0.017178 0.00756,-0.085119 0.015477,-0.1509835 0.010416,-0.086505 0.00822,-0.1385647 -0.00789,-0.187514 -0.025179,-0.076479 -0.017129,-0.1066938 0.0099,-0.037255 0.00966,0.024829 0.026152,0.066311 0.036627,0.092187 0.010475,0.025874 0.025454,0.1078397 0.033317,0.1821436 0.00786,0.074304 0.021098,0.1419168 0.029413,0.150251 0.028683,0.028682 0.072192,-0.00522 0.072192,-0.056228 0,-0.02722 0.00773,-0.049492 0.017109,-0.049492 0.01539,0 0.026789,0.1172871 0.021239,0.2185099 -0.00155,0.026027 0.00464,0.03473 0.018245,0.026324 0.011217,-0.00692 0.00693,0.00805 -0.00956,0.033221 -0.040235,0.061528 -0.037381,0.1241387 0.01032,0.2266144 0.036799,0.079027 0.038012,0.090746 0.016249,0.1539669 C 9.7040539,9.0290665 9.5072196,9.2556916 9.4347536,9.2525597 9.4237231,9.2521423 9.374288,9.2252063 9.32489,9.192837 Z M 7.7894905,8.6121034 C 7.7141809,8.5767322 7.6884258,8.5520705 7.6290944,8.4585146 7.5883479,8.3942642 7.5756474,8.3547064 7.5756474,8.2920491 c 0,-0.085605 0.023359,-0.1106661 0.040287,-0.043222 0.00538,0.021431 0.032986,0.0612 0.061353,0.088376 0.095246,0.091251 0.2762528,0.07877 0.3688577,-0.025434 l 0.034175,-0.038455 -0.047194,0.0087 c -0.038406,0.00709 -0.043593,0.00437 -0.027844,-0.014619 0.010642,-0.012824 0.029304,-0.023318 0.041465,-0.023318 0.036326,0 0.1604759,-0.1538647 0.181931,-0.225475 0.012075,-0.040299 0.024873,-0.058596 0.032435,-0.046362 0.014976,0.024231 0.056604,-0.051073 0.1033617,-0.1869739 0.03701,-0.107569 0.036675,-0.1057347 0.019243,-0.1057347 -0.0072,0 -0.027017,0.039205 -0.044034,0.087122 -0.043273,0.1218384 -0.051197,0.096617 -0.01061,-0.033779 0.018439,-0.059241 0.033525,-0.1205006 0.033525,-0.1361317 0,-0.01563 -0.038908,-0.1246469 -0.086462,-0.2422569 C 8.0022251,6.6770735 7.8616714,6.2794653 7.8324336,6.0993301 7.8110111,5.9673444 7.8109864,5.9470834 7.8322594,5.9602311 c 0.00941,0.0058 0.017107,0.030042 0.017107,0.053836 0,0.045937 0.1096675,0.3107623 0.1406466,0.3396342 0.012883,0.012005 0.014477,0.00692 0.00535,-0.017107 -0.00715,-0.01882 -0.016471,-0.049612 -0.020697,-0.068429 -0.00622,-0.027691 -0.00236,-0.026059 0.020231,0.00856 0.029461,0.045137 0.02922,0.043982 -0.020333,-0.097481 -0.013836,-0.039501 -0.02251,-0.08954 -0.019276,-0.1111985 0.00546,-0.036518 0.00897,-0.034737 0.048351,0.024563 0.042691,0.064279 0.075553,0.08651 0.057208,0.038703 -0.00541,-0.014112 -0.00526,-0.025661 3.196e-4,-0.025661 0.016255,0 0.1207723,0.2163648 0.2327249,0.481768 0.1253194,0.2970899 0.2088713,0.4764063 0.221697,0.4757965 0.00523,-2.463e-4 0.044098,-0.072809 0.086355,-0.1612464 0.084057,-0.1759118 0.1076491,-0.2032181 0.050669,-0.058645 -0.019951,0.050622 -0.030636,0.086403 -0.023744,0.079517 0.024548,-0.024537 0.2617394,-0.5263621 0.2487877,-0.5263621 -0.00726,0 -0.033548,0.036566 -0.058425,0.08126 -0.024878,0.044694 -0.045344,0.069713 -0.045486,0.055599 -4.615e-4,-0.043512 0.096983,-0.1979601 0.1566633,-0.2483877 0.06168,-0.052118 0.1960959,-0.1166765 0.2818471,-0.1353691 0.1253676,-0.027327 0.2833457,0.068093 0.3013297,0.1820073 0.015478,0.097994 -0.062924,0.1709904 -0.1211259,0.1127873 -0.014785,-0.014787 -0.020521,-0.015069 -0.020521,-10e-4 0,0.010735 0.00677,0.023703 0.015039,0.028816 0.020184,0.012477 0.036636,0.07826 0.019574,0.07826 -0.00743,0 -0.017448,-0.015046 -0.022257,-0.033436 -0.00483,-0.018392 -0.028698,-0.038447 -0.053081,-0.044568 C 9.2613242,6.4549052 9.1678168,6.5151278 9.0709067,6.64008 8.9806182,6.7564963 8.9395179,6.8502661 8.7240248,7.4314774 8.3650733,8.3996071 8.2030775,8.6392479 7.9092405,8.6367825 7.8716042,8.6364674 7.8177159,8.6253612 7.7894883,8.6121034 Z M 9.0811026,8.5102513 c 0,-0.013557 0.0077,-0.029411 0.017108,-0.035224 0.0094,-0.0058 0.017105,0.00528 0.017105,0.024652 0,0.019373 -0.0077,0.035224 -0.017105,0.035224 -0.00941,0 -0.017108,-0.011094 -0.017108,-0.024652 z m 1.5086624,-0.06105 c -0.03182,-0.072853 -0.03742,-0.1172206 -0.03742,-0.2959588 0,-0.1407244 -0.0067,-0.2170477 -0.02051,-0.2307876 -0.01129,-0.011291 -0.04863,-0.02053 -0.08298,-0.02053 -0.101857,0 -0.160804,-0.029196 -0.190288,-0.09425 l -0.02674,-0.059011 0.05334,-0.00895 c 0.02935,-0.00493 0.09914,-0.010858 0.155104,-0.013183 l 0.101751,-0.00424 -0.0046,-0.1026446 c -0.0026,-0.056454 -0.01117,-0.1093566 -0.01915,-0.1175601 -0.03333,-0.03423 0.0048,-0.062067 0.08518,-0.062067 0.105124,0 0.126272,0.02612 0.137123,0.1693649 l 0.0085,0.1129079 0.127973,0.00511 c 0.08773,0.00351 0.12001,0.010142 0.102646,0.021121 -0.02194,0.013875 -0.02171,0.016052 0.0019,0.016279 0.01489,1.453e-4 0.02707,0.011777 0.02707,0.025853 0,0.048276 -0.06405,0.085291 -0.162823,0.094098 l -0.09664,0.00862 -0.0085,0.2786606 c -0.0052,0.170024 -0.01571,0.2834037 -0.02689,0.2908268 -0.0101,0.0067 -0.02333,0.025639 -0.02941,0.042104 -0.01969,0.053392 -0.0562,0.031844 -0.09445,-0.055762 z m 0.550732,0.035166 c -0.01607,-0.036703 -0.03042,-1.2165718 -0.01572,-1.2948552 0.0088,-0.047014 0.01597,-0.057221 0.02743,-0.03913 0.01099,0.017387 0.01556,0.00738 0.01574,-0.034544 2.63e-4,-0.060903 0.02401,-0.056265 0.03939,0.0077 0.0046,0.01882 0.0091,-3.85e-5 0.0102,-0.041915 0.0032,-0.12278 0.03297,-0.060118 0.05252,0.1105521 0.0097,0.084567 0.01769,0.2438478 0.01775,0.3539577 l 1.35e-4,0.2001998 0.05561,-0.00901 c 0.242965,-0.039373 0.312152,-0.020767 0.374855,0.1008018 0.03155,0.061169 0.03703,0.098799 0.03546,0.2434286 -9.02e-4,0.094091 0.0022,0.1845469 0.0067,0.2010127 0.0107,0.037099 0.05766,0.039759 0.05766,0.00328 0,-0.014669 0.0082,-0.021588 0.01828,-0.015375 0.01004,0.00622 0.01415,0.022063 0.0091,0.035224 -0.0051,0.013162 -0.0018,0.023931 0.0073,0.023931 0.0091,0 0.0167,-0.021169 0.01684,-0.047047 1.65e-4,-0.03666 0.004,-0.041379 0.01685,-0.021383 0.05284,0.081744 -0.01196,0.2132401 -0.11479,0.2329702 -0.04592,0.00881 -0.06344,0.002 -0.106923,-0.04147 -0.04809,-0.048073 -0.05202,-0.061108 -0.05202,-0.1722346 0,-0.2057958 -0.04324,-0.33506 -0.122196,-0.3652835 -0.03571,-0.01367 -0.161554,0.047867 -0.194718,0.095214 -0.0185,0.026398 -0.02555,0.088693 -0.02644,0.2332259 -5.98e-4,0.1084634 -0.0072,0.2126029 -0.01455,0.2314211 -0.01619,0.041499 -0.09761,0.048136 -0.114605,0.00934 z m 1.043723,-0.052731 c -0.106268,-0.052602 -0.16549,-0.1723945 -0.172974,-0.3498717 -0.0052,-0.1224593 -6.31e-4,-0.1470285 0.04178,-0.2304725 0.02615,-0.05137 0.0591,-0.096888 0.07322,-0.1011499 0.022,-0.00663 0.02231,-0.00369 0.0023,0.020694 -0.03045,0.036894 -0.0056,0.036817 0.03524,-1.171e-4 0.04694,-0.042477 0.203593,-0.050488 0.296144,-0.015143 0.08721,0.033304 0.162563,0.1131959 0.162563,0.1723431 0,0.072096 -0.05774,0.093749 -0.250009,0.093749 -0.166825,0 -0.17437,0.00162 -0.183758,0.039008 -0.0054,0.021453 -0.005,0.057299 7.34e-4,0.079658 0.0074,0.028382 0.0047,0.036956 -0.0092,0.028413 -0.05176,-0.031996 0.01639,0.095154 0.07625,0.1422373 0.05532,0.043516 0.173179,0.04777 0.248232,0.00896 0.05441,-0.028129 0.10258,-0.115412 0.08862,-0.1605179 -0.0045,-0.014605 0.01169,-0.00497 0.03604,0.021443 0.122352,0.1326527 -0.01794,0.2844062 -0.263662,0.2852068 -0.07796,2.553e-4 -0.132214,-0.01004 -0.181517,-0.034445 z m 0.274208,-0.5058808 c 0.06639,-0.025478 0.0076,-0.1175371 -0.08717,-0.1364906 -0.08648,-0.017296 -0.218592,0.075659 -0.184931,0.1301206 0.01125,0.018196 0.228053,0.023272 0.272101,0.00637 z M 9.1740291,8.2760379 c -0.028682,-0.055463 -0.023619,-0.1674387 0.00995,-0.2201436 0.012366,-0.019414 0.016414,-0.012466 0.016605,0.028539 3.077e-4,0.07148 0.015604,0.1083207 0.044861,0.1083207 0.034706,0 0.031822,0.113025 -0.00321,0.1264756 -0.038809,0.014895 -0.037843,0.015513 -0.068195,-0.043192 z M 6.1974901,7.9116794 c -0.032626,-0.024033 -0.032535,-0.025096 0.00529,-0.060542 0.0381,-0.035713 0.057235,-0.150995 0.021383,-0.1288384 -0.00942,0.00581 -0.017635,-0.00716 -0.018286,-0.028927 -6.454e-4,-0.021725 -0.00416,-0.2358097 -0.0078,-0.4757417 -0.00364,-0.2399318 -0.011441,-0.5132234 -0.01733,-0.6073144 -0.00725,-0.1156699 -0.00507,-0.165534 0.00666,-0.1539673 0.00955,0.00941 0.020435,0.047903 0.024184,0.085538 0.00374,0.037634 0.00682,-0.047046 0.00682,-0.188182 0,-0.1411365 -0.00306,-0.2258184 -0.00682,-0.1881817 -0.01458,0.1462669 -0.03,0.082749 -0.026153,-0.1077314 0.00878,-0.4348209 0.041671,-0.9000309 0.066093,-0.9348994 0.013175,-0.018809 0.024059,-0.053654 0.024187,-0.077437 1.103e-4,-0.02378 0.00492,-0.060723 0.010641,-0.082092 0.00823,-0.030717 0.015344,-0.034756 0.033982,-0.019289 0.019435,0.016129 0.02398,0.00494 0.025901,-0.063792 0.00128,-0.045846 0.00573,-0.065584 0.00987,-0.043864 0.00611,0.031957 0.012187,0.035637 0.031885,0.01929 0.013386,-0.01111 0.024339,-0.034657 0.024339,-0.052322 0,-0.017666 0.0077,-0.032121 0.017107,-0.032121 0.00941,0 0.01788,-0.021169 0.018824,-0.047046 0.00154,-0.042366 0.00306,-0.04109 0.015273,0.012829 0.027911,0.1232829 0.051712,1.0327009 0.051576,1.9707922 -1.466e-4,0.9703178 -0.00695,1.1010768 -0.061071,1.1708191 -0.023782,0.030655 -0.024322,0.030567 -0.014697,-0.0024 0.00763,-0.0261 0.0012,-0.023058 -0.027046,0.01283 -0.029962,0.038057 -0.050851,0.047046 -0.1093256,0.047046 -0.039757,0 -0.08723,-0.011008 -0.1054945,-0.024461 z M 4.9667602,7.6977694 C 4.8276913,7.6793064 4.6582387,7.6329674 4.5755705,7.5907929 4.5380602,7.5716564 4.4663383,7.5171936 4.4161886,7.4697642 4.3415896,7.3992117 4.318805,7.3634493 4.2909039,7.2731157 4.2284522,7.0709201 4.2581935,6.879186 4.3685801,6.7723687 c 0.033811,-0.032719 0.056262,-0.045968 0.049969,-0.029491 -0.010499,0.027487 -0.00537,0.027171 0.063104,-0.00389 0.040991,-0.0186 0.1115507,-0.033989 0.1567989,-0.034195 0.050406,-2.374e-4 0.078175,-0.00699 0.071697,-0.017481 -0.015426,-0.02496 0.00186,-0.021213 0.075512,0.016357 0.1687805,0.086105 0.2169044,0.2563339 0.1078195,0.3813911 -0.032665,0.03745 -0.1523294,0.039352 -0.2001847,0.00317 -0.033509,-0.025325 -0.033438,-0.025802 0.00523,-0.035919 0.02399,-0.00627 0.035717,-0.019338 0.03022,-0.033666 -0.00509,-0.013262 0.00192,-0.023414 0.01614,-0.023414 0.039987,0 0.029098,-0.050245 -0.015271,-0.070462 -0.031273,-0.014249 -0.052524,-0.012134 -0.094092,0.00936 -0.055445,0.028673 -0.074666,0.055704 -0.026453,0.037203 0.017351,-0.00666 0.011137,0.00868 -0.017108,0.042251 -0.071601,0.085093 -0.054245,0.1984778 0.046516,0.3038733 0.075471,0.078941 0.1251701,0.1015934 0.3072235,0.140023 0.1798027,0.037954 0.2659754,0.041514 0.3853107,0.015921 0.09406,-0.020181 0.2056697,-0.1090856 0.2502335,-0.1993347 0.034503,-0.069872 0.034591,-0.1881531 2.099e-4,-0.2704541 -0.019032,-0.045551 -0.021517,-0.06953 -0.00856,-0.082494 0.012967,-0.012966 0.018278,-0.010594 0.018278,0.00815 0,0.025939 0.051151,0.083056 0.074379,0.083056 0.019997,0 -0.00783,-0.090288 -0.051341,-0.166587 C 5.5914894,6.8058793 5.5444234,6.7539153 5.5096359,6.730277 5.4476579,6.688162 5.3918413,6.672499 5.4103279,6.702412 5.4154679,6.710732 5.3716539,6.692612 5.3129699,6.662154 5.2542827,6.6316958 5.1754745,6.5968788 5.1378376,6.5847802 4.9703315,6.5309344 4.7678812,6.4111394 4.6198885,6.2782979 4.4420104,6.1186307 4.3722689,6.0084792 4.3879345,5.911943 4.3988215,5.844854 4.3847045,5.831372 4.3513225,5.877006 4.3352235,5.899023 4.3339635,5.878076 4.3454025,5.778638 4.3732305,5.5367519 4.3901505,5.4847254 4.4796193,5.3658954 4.6165786,5.1839889 4.828746,5.0631778 5.0716633,5.0287767 c 0.1293171,-0.018315 0.359884,-0.00571 0.4639239,0.025359 0.063418,0.018939 0.072707,0.018353 0.072707,-0.00459 0,-0.017614 0.011709,-0.011412 0.035456,0.018782 0.019502,0.024791 0.048754,0.045077 0.065008,0.045077 0.016255,0 0.03879,0.00924 0.050081,0.02053 0.015039,0.015038 0.02053,0.015254 0.02053,8.047e-4 0,-0.010848 -0.026181,-0.03215 -0.05818,-0.047335 -0.031998,-0.015186 -0.062073,-0.04249 -0.066829,-0.060678 -0.01125,-0.043024 0.00832,-0.042396 0.0355,0.00116 0.011753,0.01882 0.035506,0.034215 0.052788,0.034215 0.050556,0 0.087766,0.056528 0.1104673,0.1678228 0.011654,0.057141 0.0274,0.1101011 0.03499,0.1176898 0.00759,0.00759 0.00899,-0.00928 0.00313,-0.037491 -0.00626,-0.030012 0.010679,-0.00647 0.040822,0.056743 0.028333,0.059417 0.060195,0.1556463 0.070803,0.2138433 0.027939,0.1532734 -0.00387,0.3880855 -0.052578,0.3880855 -0.012627,0 -0.012754,-0.010049 -4.169e-4,-0.03309 0.0217,-0.040548 0.022257,-0.052446 0.00245,-0.052446 -0.00839,0 -0.01995,0.01871 -0.02569,0.04158 C 5.9092485,5.9940904 5.811363,6.0832328 5.7280805,6.105658 5.6406987,6.1291835 5.5081807,6.1165792 5.4242688,6.0767609 5.357835,6.0452366 5.2861111,5.9539722 5.3141512,5.9366426 c 0.012017,-0.00743 0.012973,-0.020457 0.00269,-0.036723 -0.022714,-0.035916 -0.020721,-0.089734 0.00279,-0.075206 0.013313,0.00823 0.017081,-0.0067 0.012213,-0.048389 l -0.00704,-0.060285 0.060493,0.068137 c 0.049713,0.055994 0.074487,0.069712 0.1390063,0.076976 0.071018,0.00799 0.082212,0.00416 0.1172726,-0.040124 0.082523,-0.104259 0.00654,-0.328432 -0.149838,-0.4420536 C 5.3690446,5.2898274 5.1803909,5.2586179 5.0250511,5.3017693 4.963166,5.3189596 4.8016333,5.463116 4.7209462,5.5731608 c -0.077281,0.1053988 -0.024526,0.3012075 0.097922,0.3634564 0.024891,0.012654 0.08079,0.054184 0.1242151,0.092291 0.092615,0.08127 0.4405087,0.2706003 0.6481101,0.3527181 0.1937309,0.076632 0.3358458,0.2112707 0.38586,0.3655636 0.045736,0.1410925 0.0469,0.4453189 0.00213,0.5559921 C 5.919878,7.4497732 5.7206546,7.6163442 5.539868,7.6704892 5.4313291,7.7029953 5.1183183,7.7179018 4.9667678,7.6977827 Z m 2.0024297,-0.00297 C 6.8882208,7.6754382 6.8507742,7.6445073 6.7861156,7.5435983 6.7287493,7.4540698 6.7198416,7.3196396 6.7649733,7.2245315 6.8110694,7.1273908 6.9638456,7.0297223 7.2305377,6.9269 7.3418207,6.883995 7.3801751,6.860195 7.4058253,6.8181299 c 0.053917,-0.088423 0.040334,-0.240769 -0.027518,-0.30862 -0.016023,-0.016022 -0.025532,-0.03273 -0.021132,-0.037128 0.0044,-0.0044 0.028527,0.012531 0.053617,0.037622 0.058162,0.058162 0.070681,0.046312 0.026985,-0.02554 -0.073298,-0.1205326 -0.2479095,-0.1333206 -0.3552155,-0.026015 -0.061229,0.061229 -0.063579,0.084608 -0.028191,0.2805184 0.023655,0.1309578 -0.1273252,0.1585236 -0.2417163,0.044132 -0.067316,-0.067316 -0.088394,-0.1588124 -0.06056,-0.2628819 0.02961,-0.1107125 0.083102,-0.1705501 0.2069195,-0.2314723 0.1050618,-0.051694 0.1220286,-0.054776 0.2998451,-0.054472 0.2016516,3.363e-4 0.30922,0.031443 0.3983391,0.1151676 0.034242,0.03217 0.1340419,0.297388 0.1303509,0.3464113 -0.01884,0.2502686 -0.022642,0.4889148 -0.00764,0.4796407 0.00997,-0.00617 0.01813,-0.039235 0.01813,-0.073492 0,-0.043462 0.00542,-0.056865 0.017944,-0.044343 0.01252,0.01252 0.00656,0.067533 -0.019746,0.1820259 -0.035594,0.1549507 -0.036094,0.1665178 -0.009,0.2078736 0.051156,0.078075 0.2134915,0.037559 0.1902314,-0.047476 -0.00989,-0.036161 -0.0095,-0.036253 0.016417,-0.00384 0.025847,0.032335 0.026545,0.032132 0.026545,-0.0077 0,-0.062608 0.028296,-0.018674 0.040575,0.063 0.00923,0.061398 0.00422,0.079144 -0.035739,0.1266343 C 7.9463425,7.6719805 7.8315004,7.7062338 7.6204283,7.6989318 7.5678843,7.6971218 7.5418363,7.6837178 7.49567,7.6347668 7.441809,7.5776538 7.43503,7.5749738 7.407488,7.5998968 7.320995,7.6781718 7.099802,7.7260703 6.9691827,7.6948108 Z m 1.082528,-0.2037142 c -0.00381,-0.0114 -0.016788,0.00132 -0.028864,0.028257 -0.02055,0.045858 -0.020109,0.047181 0.00693,0.020729 0.015875,-0.015544 0.025754,-0.037585 0.021954,-0.048987 z M 7.331628,7.4303691 c 0.070376,-0.046056 0.098606,-0.1099064 0.098606,-0.2230224 0,-0.080111 -0.00793,-0.1146418 -0.03259,-0.1418889 -0.075045,-0.082924 -0.2813959,-0.014826 -0.3466137,0.1143876 -0.020381,0.040378 -0.042741,0.071171 -0.049692,0.06843 -0.017354,-0.00684 -0.024978,0.054771 -0.012819,0.1035618 0.00626,0.025149 0.014554,0.032747 0.022206,0.020363 0.00805,-0.013025 0.022189,-0.00452 0.041505,0.024955 0.016112,0.024591 0.046168,0.051855 0.06679,0.060588 0.047524,0.020126 0.1626821,0.00529 0.2126076,-0.027376 z"
     id="path1-3" />
  <rect
     style="opacity:0.3;fill:none;fill-opacity:0.996424;stroke:#000000;stroke-width:0.955221;stroke-dasharray:none;stroke-opacity:1;filter:url(#filter5421-3)"
     id="rect1-2-7-5"
     width="13.687567"
     height="13.591975"
     x="1.6227165"
     y="1.6705122"
     rx="2.8442214"
     ry="2.965905"
     transform="matrix(0.43046721,0,0,0.43046721,9.5627021,9.5627021)" />
  <rect
     style="fill:none;fill-opacity:1;stroke:{{colors.primary.default.hex}};stroke-width:0.411191;stroke-dasharray:none;stroke-opacity:1"
     id="rect1-2-3"
     width="5.8920484"
     height="5.8508992"
     x="10.261228"
     y="10.281802"
     rx="1.224344"
     ry="1.2767248" />
  <path
     id="path1"
     style="fill:{{colors.primary.default.hex}};fill-opacity:1;stroke:none;stroke-width:0.0587368;stroke-dasharray:none;stroke-dashoffset:2.2;stroke-opacity:0.6"
     d="m 14.168922,11.656658 c -0.06055,-2.6e-5 -0.125364,0.02435 -0.206481,0.07188 -0.193027,0.1131 -0.445472,0.166438 -0.792145,0.166438 -0.346641,0 -0.607506,-0.05448 -0.799384,-0.16692 -0.153862,-0.09017 -0.245719,-0.09136 -0.374847,-0.0043 -0.331514,0.223407 -0.581361,0.939687 -0.654655,1.875683 -0.04395,0.561277 -0.0029,0.857184 0.142315,1.023712 0.07004,0.08029 0.241969,0.06668 0.397039,-0.03184 0.13145,-0.08351 0.288072,-0.267793 0.475192,-0.559138 0.16909,-0.263274 0.373614,-0.349984 0.825918,-0.350725 0.451405,-6.81e-4 0.628801,0.08471 0.837013,0.404757 0.349331,0.536972 0.672221,0.723915 0.861617,0.498829 0.104925,-0.124694 0.12413,-0.24517 0.119159,-0.746797 -0.0091,-0.911235 -0.247248,-1.740202 -0.590491,-2.056592 -0.09141,-0.08427 -0.162394,-0.124918 -0.24025,-0.124951 z M 12.207851,12.1936 h 0.209374 0.209373 v 0.179464 0.179463 h 0.179465 0.179462 v 0.22433 0.224328 h -0.179462 -0.179465 v 0.194419 0.194419 h -0.189593 c -0.104158,0 -0.197928,-0.0093 -0.208892,-0.02026 -0.01096,-0.01096 -0.02025,-0.098 -0.02025,-0.193935 v -0.174644 h -0.179466 -0.179465 v -0.224328 -0.224329 h 0.179465 0.179463 v -0.179465 z m 1.706832,0 c 0.188883,0 0.269773,0.209278 0.133633,0.345419 -0.08658,0.08657 -0.165598,0.09337 -0.250863,0.02123 -0.147895,-0.125144 -0.0707,-0.366645 0.11723,-0.366645 z m -0.363268,0.383531 c 0.04717,3.2e-5 0.09465,0.01883 0.132184,0.0603 0.05851,0.06466 0.06483,0.212666 0.01207,0.281737 -0.103261,0.135182 -0.351207,0.04823 -0.351207,-0.123018 0,-0.12997 0.103198,-0.219094 0.206961,-0.219022 z m 0.741493,0.0073 c 0.05436,9.9e-4 0.10714,0.019 0.137972,0.05306 0.05851,0.06466 0.06482,0.212666 0.01206,0.281738 -0.109832,0.143783 -0.351209,0.04755 -0.351209,-0.139905 0,-0.05682 0.02277,-0.118403 0.05451,-0.14714 0.03629,-0.03285 0.0923,-0.04875 0.14666,-0.04775 z m -0.365199,0.386906 c 0.167454,0 0.248932,0.177621 0.147622,0.322262 -0.03463,0.04945 -0.07687,0.06657 -0.164026,0.06657 -0.100342,0 -0.123628,-0.01306 -0.164024,-0.09118 -0.07966,-0.154035 0.0073,-0.297659 0.180428,-0.297659 z" />
</svg>
