<?xml version="1.0" encoding="UTF-8" standalone="no"?>
<svg
   width="64"
   height="64"
   version="1.1"
   viewBox="0 0 16.933 16.933"
   id="svg7"
   sodipodi:docname="steam_icon_1184370.svg"
   inkscape:version="1.4.3 (0d15f75042, 2025-12-25)"
   xmlns:inkscape="http://www.inkscape.org/namespaces/inkscape"
   xmlns:sodipodi="http://sodipodi.sourceforge.net/DTD/sodipodi-0.dtd"
   xmlns="http://www.w3.org/2000/svg"
   xmlns:svg="http://www.w3.org/2000/svg"
   xmlns:rdf="http://www.w3.org/1999/02/22-rdf-syntax-ns#"
   xmlns:cc="http://creativecommons.org/ns#"
   xmlns:dc="http://purl.org/dc/elements/1.1/">
  <sodipodi:namedview
     id="namedview7"
     pagecolor="#9c4444"
     bordercolor="#000000"
     borderopacity="0.25"
     inkscape:showpageshadow="2"
     inkscape:pageopacity="0.0"
     inkscape:pagecheckerboard="0"
     inkscape:deskcolor="#d1d1d1"
     inkscape:zoom="4.3531261"
     inkscape:cx="42.957635"
     inkscape:cy="45.025114"
     inkscape:window-width="1226"
     inkscape:window-height="669"
     inkscape:window-x="314"
     inkscape:window-y="198"
     inkscape:window-maximized="0"
     inkscape:current-layer="svg7"
     showgrid="false" />
  <defs
     id="defs2">
    <filter
       style="color-interpolation-filters:sRGB;"
       inkscape:label="Blur"
       id="filter5421"
       x="-0.12256455"
       y="-0.12342654"
       width="1.2451291"
       height="1.2468531">
      <feGaussianBlur
         stdDeviation="0.5 0.5"
         result="blur"
         id="feGaussianBlur5419" />
    </filter>
    <filter
       style="color-interpolation-filters:sRGB"
       inkscape:label="Blur"
       id="filter5421-3"
       x="-0.12256455"
       y="-0.12342654"
       width="1.2451291"
       height="1.2468531">
      <feGaussianBlur
         stdDeviation="0.5 0.5"
         result="blur"
         id="feGaussianBlur5419-6" />
    </filter>
  </defs>
  <metadata
     id="metadata2">
    <rdf:RDF>
      <cc:Work
         rdf:about="">
        <dc:format>image/svg+xml</dc:format>
        <dc:type
           rdf:resource="http://purl.org/dc/dcmitype/StillImage" />
      </cc:Work>
    </rdf:RDF>
  </metadata>
  <rect
     style="opacity:0.3;fill:none;fill-opacity:0.996424;stroke:#000000;stroke-width:0.955221;stroke-dasharray:none;stroke-opacity:1;filter:url(#filter5421)"
     id="rect1-2-7"
     width="13.687567"
     height="13.591975"
     x="1.6227165"
     y="1.6705122"
     rx="2.8442214"
     ry="2.965905" />
  <rect
     style="fill:none;fill-opacity:1;stroke:{{colors.primary.default.hex}};stroke-width:0.955221;stroke-dasharray:none;stroke-opacity:1"
     id="rect1-2"
     width="13.687567"
     height="13.591975"
     x="1.6227167"
     y="1.6705124"
     rx="2.8442214"
     ry="2.965905" />
  <path
     fill="#000000"
     d="m 8.4974079,4.3859635 c 0,0 -0.5910259,0.965202 -0.5910259,1.291594 0,0.2202183 0.087026,0.3844718 0.213756,0.4898713 0.096823,0.0829 0.2216626,0.1340703 0.3591704,0.1381956 C 8.7807083,6.3210924 9.0884,6.118854 9.0884,5.6775575 9.0884335,5.3510965 8.4974079,4.3859635 8.4974079,4.3859635 Z M 7.6285817,5.493159 C 7.2184304,5.66195 6.9352846,5.972993 6.7261865,6.398236 6.4164847,7.0281079 6.2986402,7.9199666 6.2872785,8.9178266 H 7.3646529 C 7.3166285,9.1665427 7.2968106,9.44596 7.2946949,9.7418943 7.2655603,9.992278 7.4484285,11.055902 7.4484285,11.055902 c 0,0 0.5200546,-0.859974 0.6142476,-1.1393053 0.1057608,0.4125243 0.3922411,1.1804543 0.3922411,1.1804543 0,0 0.2837128,-0.760418 0.3906942,-1.1743869 0.099625,0.2856239 0.6122191,1.1332379 0.6122191,1.1332379 0,0 0.1881634,-1.094252 0.1523757,-1.3242004 -0.0025,-0.2921544 -0.022411,-0.5680282 -0.069905,-0.813875 H 10.608668 C 10.597293,7.9199495 10.479448,7.0280905 10.169745,6.3982187 9.9799841,6.0123031 9.7292027,5.720477 9.3779571,5.5436076 c 0.012434,0.059387 0.019037,0.1208348 0.019037,0.1837791 -2.4e-6,0.4950798 -0.4047905,0.8998858 -0.899888,0.8998858 -0.4950797,0 -0.8998687,-0.4047888 -0.8998687,-0.8998858 0,-0.080958 0.011001,-0.1594574 0.031283,-0.2342277 z M 6.8053396,5.577898 c -0.019424,-2.89e-4 -0.038847,-2.89e-4 -0.058166,0 C 5.2557121,5.5988691 4.0287982,7.1389562 4.5150602,8.7550856 4.7274413,9.4609142 5.7672413,9.9141048 6.3071829,9.6184286 5.2894529,9.6201097 4.9871421,8.5145848 5.3018633,7.7477207 5.4788531,7.3164621 5.7732573,7.0503326 6.1738694,6.9907056 6.2413512,6.7264327 6.3279123,6.4802078 6.4378841,6.2565343 6.5653714,5.9973321 6.7280256,5.769653 6.9275498,5.5828833 c -0.040909,-0.00278 -0.081646,-0.00446 -0.1222102,-0.00499 z m 3.3222934,0 c -0.05179,6.305e-4 -0.103903,0.00328 -0.1562426,0.00767 0.1981816,0.1862546 0.3598556,0.4129876 0.4866906,0.6709352 0.109282,0.2222468 0.195432,0.4667703 0.262726,0.7291009 0.420206,0.047989 0.727726,0.3171621 0.910302,0.7620859 0.314721,0.7668465 0.01237,1.8724271 -1.005354,1.8707261 0.53994,0.2957088 1.579793,-0.1574985 1.792192,-0.8633272 0.486261,-1.616129 -0.740652,-3.1561822 -2.23213,-3.1771519 -0.01932,-2.627e-4 -0.03875,-2.627e-4 -0.05818,0 z M 9.6818152,6.9675353 c 0.1948314,0.075028 0.3331118,0.2639123 0.3331118,0.4851624 0,0.2871162 -0.2327305,0.5198483 -0.5197784,0.5198483 -0.2637926,0 -0.4815713,-0.1965331 -0.5152083,-0.4511633 0.3567466,-0.09464 0.5751263,-0.2924104 0.7018562,-0.5538642 z m -2.4676134,1.783e-4 c 0.1268509,0.261472 0.3453167,0.4592253 0.7022869,0.5537792 -0.033689,0.2545619 -0.2514671,0.451078 -0.5151903,0.451078 -0.2870474,0 -0.5198139,-0.2327319 -0.5198139,-0.5198654 0,-0.2211301 0.1381097,-0.4098594 0.3327346,-0.4849907 z M 9.0788081,8.2484727 8.4480256,9.5555718 7.8172083,8.2485073 8.4479911,8.6806767 Z m -2.063632,2.0585283 c 0,0 -0.8892627,1.248519 -0.9658198,1.534415 -0.2029966,0.757461 0.8445383,0.988459 1.0350897,0.277353 0.076575,-0.285845 -0.069268,-1.811768 -0.06927,-1.811768 z m 2.8417202,0 c 0,0 -0.1458951,1.525923 -0.06932,1.811768 0.1905521,0.711088 1.2381387,0.480108 1.0351437,-0.277371 -0.07657,-0.285845 -0.9658217,-1.534381 -0.9658217,-1.534381 z m -1.8506834,0.407847 c 0,0 -0.5051696,1.01381 -0.5280991,1.231296 -0.060814,0.576279 0.7304245,0.624115 0.7875075,0.08312 0.022964,-0.217466 -0.2593745,-1.314403 -0.2593745,-1.314403 z m 0.8901567,0 c 0,0 -0.2824065,1.096935 -0.2594429,1.314402 0.057066,0.541009 0.8483548,0.493173 0.7875425,-0.08311 -0.022914,-0.217487 -0.5280996,-1.231313 -0.5280996,-1.231313 z"
     id="path1-3-5"
     style="fill:{{colors.primary.default.hex}};stroke-width:0.0171885;fill-opacity:1" />
  <rect
     style="opacity:0.3;fill:none;fill-opacity:0.996424;stroke:#000000;stroke-width:0.955221;stroke-dasharray:none;stroke-opacity:1;filter:url(#filter5421-3)"
     id="rect1-2-7-5"
     width="13.687567"
     height="13.591975"
     x="1.6227165"
     y="1.6705122"
     rx="2.8442214"
     ry="2.965905"
     transform="matrix(0.43046721,0,0,0.43046721,9.5627021,9.5627021)" />
  <rect
     style="fill:none;fill-opacity:1;stroke:{{colors.primary.default.hex}};stroke-width:0.411191;stroke-dasharray:none;stroke-opacity:1"
     id="rect1-2-3"
     width="5.8920484"
     height="5.8508992"
     x="10.261228"
     y="10.281802"
     rx="1.224344"
     ry="1.2767248" />
  <path
     id="path1"
     style="fill:{{colors.primary.default.hex}};fill-opacity:1;stroke:none;stroke-width:0.0587368;stroke-dasharray:none;stroke-dashoffset:2.2;stroke-opacity:0.6"
     d="m 14.168922,11.656658 c -0.06055,-2.6e-5 -0.125364,0.02435 -0.206481,0.07188 -0.193027,0.1131 -0.445472,0.166438 -0.792145,0.166438 -0.346641,0 -0.607506,-0.05448 -0.799384,-0.16692 -0.153862,-0.09017 -0.245719,-0.09136 -0.374847,-0.0043 -0.331514,0.223407 -0.581361,0.939687 -0.654655,1.875683 -0.04395,0.561277 -0.0029,0.857184 0.142315,1.023712 0.07004,0.08029 0.241969,0.06668 0.397039,-0.03184 0.13145,-0.08351 0.288072,-0.267793 0.475192,-0.559138 0.16909,-0.263274 0.373614,-0.349984 0.825918,-0.350725 0.451405,-6.81e-4 0.628801,0.08471 0.837013,0.404757 0.349331,0.536972 0.672221,0.723915 0.861617,0.498829 0.104925,-0.124694 0.12413,-0.24517 0.119159,-0.746797 -0.0091,-0.911235 -0.247248,-1.740202 -0.590491,-2.056592 -0.09141,-0.08427 -0.162394,-0.124918 -0.24025,-0.124951 z M 12.207851,12.1936 h 0.209374 0.209373 v 0.179464 0.179463 h 0.179465 0.179462 v 0.22433 0.224328 h -0.179462 -0.179465 v 0.194419 0.194419 h -0.189593 c -0.104158,0 -0.197928,-0.0093 -0.208892,-0.02026 -0.01096,-0.01096 -0.02025,-0.098 -0.02025,-0.193935 v -0.174644 h -0.179466 -0.179465 v -0.224328 -0.224329 h 0.179465 0.179463 v -0.179465 z m 1.706832,0 c 0.188883,0 0.269773,0.209278 0.133633,0.345419 -0.08658,0.08657 -0.165598,0.09337 -0.250863,0.02123 -0.147895,-0.125144 -0.0707,-0.366645 0.11723,-0.366645 z m -0.363268,0.383531 c 0.04717,3.2e-5 0.09465,0.01883 0.132184,0.0603 0.05851,0.06466 0.06483,0.212666 0.01207,0.281737 -0.103261,0.135182 -0.351207,0.04823 -0.351207,-0.123018 0,-0.12997 0.103198,-0.219094 0.206961,-0.219022 z m 0.741493,0.0073 c 0.05436,9.9e-4 0.10714,0.019 0.137972,0.05306 0.05851,0.06466 0.06482,0.212666 0.01206,0.281738 -0.109832,0.143783 -0.351209,0.04755 -0.351209,-0.139905 0,-0.05682 0.02277,-0.118403 0.05451,-0.14714 0.03629,-0.03285 0.0923,-0.04875 0.14666,-0.04775 z m -0.365199,0.386906 c 0.167454,0 0.248932,0.177621 0.147622,0.322262 -0.03463,0.04945 -0.07687,0.06657 -0.164026,0.06657 -0.100342,0 -0.123628,-0.01306 -0.164024,-0.09118 -0.07966,-0.154035 0.0073,-0.297659 0.180428,-0.297659 z" />
</svg>
