<?xml version="1.0" encoding="UTF-8" standalone="no"?>
<svg
   width="64"
   height="64"
   version="1.1"
   viewBox="0 0 16.933 16.933"
   id="svg7"
   sodipodi:docname="steam_icon_1184370.svg"
   inkscape:version="1.4.3 (0d15f75042, 2025-12-25)"
   xmlns:inkscape="http://www.inkscape.org/namespaces/inkscape"
   xmlns:sodipodi="http://sodipodi.sourceforge.net/DTD/sodipodi-0.dtd"
   xmlns="http://www.w3.org/2000/svg"
   xmlns:svg="http://www.w3.org/2000/svg"
   xmlns:rdf="http://www.w3.org/1999/02/22-rdf-syntax-ns#"
   xmlns:cc="http://creativecommons.org/ns#"
   xmlns:dc="http://purl.org/dc/elements/1.1/">
  <sodipodi:namedview
     id="namedview7"
     pagecolor="#9c4444"
     bordercolor="#000000"
     borderopacity="0.25"
     inkscape:showpageshadow="2"
     inkscape:pageopacity="0.0"
     inkscape:pagecheckerboard="0"
     inkscape:deskcolor="#d1d1d1"
     inkscape:zoom="4.3531261"
     inkscape:cx="42.957635"
     inkscape:cy="45.025114"
     inkscape:window-width="1226"
     inkscape:window-height="669"
     inkscape:window-x="314"
     inkscape:window-y="198"
     inkscape:window-maximized="0"
     inkscape:current-layer="svg7"
     showgrid="false" />
  <defs
     id="defs2">
    <filter
       style="color-interpolation-filters:sRGB;"
       inkscape:label="Blur"
       id="filter5421"
       x="-0.12256455"
       y="-0.12342654"
       width="1.2451291"
       height="1.2468531">
      <feGaussianBlur
         stdDeviation="0.5 0.5"
         result="blur"
         id="feGaussianBlur5419" />
    </filter>
    <filter
       style="color-interpolation-filters:sRGB"
       inkscape:label="Blur"
       id="filter5421-3"
       x="-0.12256455"
       y="-0.12342654"
       width="1.2451291"
       height="1.2468531">
      <feGaussianBlur
         stdDeviation="0.5 0.5"
         result="blur"
         id="feGaussianBlur5419-6" />
    </filter>
  </defs>
  <metadata
     id="metadata2">
    <rdf:RDF>
      <cc:Work
         rdf:about="">
        <dc:format>image/svg+xml</dc:format>
        <dc:type
           rdf:resource="http://purl.org/dc/dcmitype/StillImage" />
      </cc:Work>
    </rdf:RDF>
  </metadata>
  <rect
     style="opacity:0.3;fill:none;fill-opacity:0.996424;stroke:#000000;stroke-width:0.955221;stroke-dasharray:none;stroke-opacity:1;filter:url(#filter5421)"
     id="rect1-2-7"
     width="13.687567"
     height="13.591975"
     x="1.6227165"
     y="1.6705122"
     rx="2.8442214"
     ry="2.965905" />
  <rect
     style="fill:none;fill-opacity:1;stroke:{{colors.primary.default.hex}};stroke-width:0.955221;stroke-dasharray:none;stroke-opacity:1"
     id="rect1-2"
     width="13.687567"
     height="13.591975"
     x="1.6227167"
     y="1.6705124"
     rx="2.8442214"
     ry="2.965905" />
  <path
     style="fill:{{colors.primary.default.hex}};fill-opacity:1;stroke:none;stroke-width:0.126378;stroke-dasharray:none;stroke-opacity:0.6"
     d="m 8.7085138,12.554611 c 0.036329,-0.0054 0.06605,-0.01699 0.06605,-0.02593 0,-0.009 -0.084594,-0.05741 -0.1879885,-0.107704 -0.337862,-0.164337 -0.5092386,-0.319783 -0.617308,-0.559935 -0.043626,-0.09695 -0.065071,-0.228055 -0.037303,-0.228055 0.00603,0 0.044902,0.017 0.086375,0.0378 0.087762,0.04398 0.2219682,0.0665 0.2748081,0.04614 0.033517,-0.01293 0.03131,-0.02114 -0.024618,-0.09152 -0.1051395,-0.132294 -0.1443022,-0.27053 -0.1443022,-0.509336 0,-0.209026 6.601e-4,-0.211902 0.091698,-0.39374 0.1952013,-0.389936 0.5717948,-0.691571 1.0057504,-0.8055699 0.1675261,-0.044005 0.6403499,-0.062954 0.8840574,-0.035424 0.1006,0.011362 0.186682,0.016922 0.191291,0.012354 C 10.352683,9.8384872 9.9017803,9.3718901 9.587483,9.1594365 9.4758157,9.0839532 8.9563546,8.8227175 8.8497241,8.7884183 8.8072286,8.7747466 8.7755477,8.7529998 8.7793194,8.7400853 8.7935715,8.6913142 9.0556094,8.5832632 9.2826425,8.5325413 9.4111864,8.5038222 9.5236867,8.4731175 9.5326441,8.4643064 9.5605951,8.4368116 9.3078937,8.2977658 9.0593542,8.2038943 8.9046878,8.1454779 8.354884,8.015599 8.2603453,8.0151458 8.1865892,8.0147333 8.127489,7.9851151 8.1518684,7.9606743 c 0.00898,-0.00899 0.1816585,-0.019398 0.383757,-0.02312 0.2753471,-0.00508 0.4188424,0.00175 0.5724765,0.027319 0.3670845,0.061037 0.7557349,0.2074319 1.0394171,0.3915252 0.128412,0.083334 0.395158,0.3212023 0.395158,0.3523817 0,0.00989 -0.03032,0.017998 -0.06741,0.017998 -0.134009,0 -0.4822344,0.079809 -0.5276048,0.1209225 -0.00869,0.00786 0.091911,0.053587 0.2235538,0.1015885 0.468186,0.1707213 0.822124,0.3793852 1.204698,0.7102296 l 0.213392,0.1845378 0.01365,-0.3241973 C 11.624639,9.0048078 11.659278,8.8919536 11.851343,8.7102968 12.024861,8.5461937 12.141354,8.50174 12.460828,8.4777247 12.607442,8.4667007 12.736546,8.4489095 12.747723,8.438188 12.778015,8.409146 12.60865,8.2676074 12.280304,8.047539 12.009125,7.8657846 11.906472,7.8043995 11.487703,7.5735646 11.249161,7.4420746 11.207116,7.3842127 11.217118,7.2011941 c 0.01384,-0.2532327 0.180075,-0.5051377 0.456403,-0.6916023 0.08225,-0.055488 0.149514,-0.1087652 0.149514,-0.118391 0,-0.034098 -0.115559,-0.046096 -0.426205,-0.04425 -0.337651,0.00195 -0.404113,0.00878 -0.555702,0.056588 -0.05382,0.016981 -0.102659,0.026057 -0.108535,0.020181 -0.0059,-0.00588 0.02194,-0.08294 0.06182,-0.1712523 0.08254,-0.1828197 0.122353,-0.3520881 0.157826,-0.6710987 0.01617,-0.1453454 0.01814,-0.2454661 0.0057,-0.2886495 l -0.01897,-0.066114 -0.135586,0.1711156 C 10.630778,5.6155557 10.330301,5.902634 10.135319,6.0359939 10.051972,6.0929986 9.811035,6.2333401 9.5999003,6.3478641 8.9920458,6.6775777 8.7604043,6.8370871 8.411241,7.1663839 8.2680243,7.3014515 8.1932572,7.3595211 8.1891296,7.3388911 8.1802874,7.2946767 8.3268913,7.0114458 8.4334182,6.8669458 8.5502643,6.7084482 8.8382476,6.4070383 8.9962821,6.2778404 9.1514007,6.1510269 9.1917534,6.068249 9.2230966,5.8125728 9.2710509,5.4213909 9.2167791,5.0124283 9.0591246,4.5770546 8.9769704,4.3501772 8.9446652,4.3197227 8.9270472,4.4525458 8.8705253,4.8786536 8.7905422,5.0780559 8.5441576,5.4071114 8.3955902,5.6055277 8.1820495,5.8165766 7.3411701,6.5960584 6.8416211,7.0591316 6.4501501,7.4838313 6.2272168,7.8045658 6.1641102,7.8953556 6.0971619,7.9822372 6.0784421,7.9976347 6.0474377,8.0231326 6.0456392,8.0194032 6.0582523,7.9557641 6.0799465,7.8463072 6.2592113,7.4899009 6.3624653,7.3509594 6.5205113,7.1382869 6.7293542,6.9115478 7.32254,6.3086137 7.8875759,5.7342932 7.99418,5.610696 8.0397063,5.4771243 8.071872,5.3827564 8.0687213,5.1079144 8.0335759,4.9420675 7.9788397,4.6837898 7.880343,4.534544 7.880343,4.7098857 7.880343,4.8100252 7.7643656,5.1592401 7.6667879,5.35291 7.618859,5.4480455 7.5209181,5.5944748 7.4491438,5.6783077 7.3164382,5.8333093 6.8207928,6.3132083 6.0742611,7.0095129 5.6167446,7.4362475 5.451205,7.6341663 5.3080007,7.9256534 5.1910235,8.1637533 5.157841,8.3253556 5.1574004,8.6590662 5.1572061,8.8062567 5.1515099,8.9411515 5.1447132,8.958832 5.1377832,8.9768983 5.108841,8.9910135 5.078663,8.9910544 4.9428336,8.9912467 4.7921566,9.1631469 4.7754538,9.3369708 4.7681563,9.4128259 4.7574967,9.4380385 4.7327598,9.4378915 4.6622228,9.4374523 4.4315574,9.2363943 4.3253107,9.0827051 4.2670141,8.9983782 4.2108185,8.9346357 4.2004298,8.941057 c -0.010384,0.00642 -0.018776,0.1185935 -0.018622,0.2492727 7.15e-4,0.6569171 0.2518135,1.1703663 0.7516883,1.5372073 l 0.1320997,0.09695 0.01085,-0.200359 c 0.012891,-0.238031 0.056134,-0.350003 0.1825436,-0.472681 0.1829624,-0.1775586 0.4870859,-0.2701028 0.8695514,-0.2646002 0.1151557,0.00168 0.2141425,-0.00175 0.2199715,-0.0075 0.00582,-0.00582 -0.00379,-0.038431 -0.021386,-0.072444 -0.03939,-0.076176 -0.041359,-0.2256433 -0.00414,-0.3147137 0.062554,-0.1497118 0.2700421,-0.2684656 0.5818535,-0.3330175 0.228359,-0.047274 0.8815409,-0.046454 1.0533614,0.00132 0.1660924,0.046185 0.3489346,0.1272141 0.3489346,0.1546349 0,0.0131 -0.058228,0.021444 -0.1496494,0.021444 -0.1788324,0 -0.3091089,0.022761 -0.4658085,0.081392 -0.1357774,0.050801 -0.1440157,0.078801 -0.054969,0.1868304 0.078262,0.094947 0.1577404,0.2663769 0.1741126,0.37555 0.010028,0.066868 0.00163,0.1096111 -0.039339,0.1989931 -0.059391,0.129727 -0.1311896,0.173391 -0.2851178,0.173391 -0.1556268,0 -0.1615628,0.0089 -0.090461,0.134832 0.054117,0.09589 0.061304,0.125793 0.053337,0.22187 -0.015822,0.190858 -0.1416279,0.285109 -0.357425,0.267787 l -0.1306259,-0.0105 0.013791,0.07405 c 0.037597,0.201905 0.036233,0.234899 -0.012728,0.307771 -0.07656,0.113958 -0.1777951,0.152691 -0.3927466,0.150271 -0.1399852,-0.0017 -0.2174845,-0.01421 -0.3302513,-0.0538 -0.1091511,-0.03833 -0.1473419,-0.04481 -0.1473419,-0.02499 0,0.05032 0.1994577,0.324693 0.3284365,0.451825 0.175723,0.173202 0.2963375,0.257095 0.5352966,0.372316 0.3788821,0.182688 0.9004095,0.298915 1.4022957,0.312514 0.1564882,0.0043 0.3142464,0.0035 0.3505737,-0.002 z M 6.1280947,8.7747794 C 6.1078966,8.7623509 6.1757561,8.5961063 6.2575965,8.4575318 6.4412179,8.1466201 6.8006261,7.8290144 7.0216939,7.7823063 l 0.066051,-0.013958 v 0.1137962 c 0,0.1897348 -0.1593431,0.5064934 -0.3694534,0.7344351 C 6.6166295,8.7268698 6.5409939,8.7703602 6.417081,8.7897745 6.330742,8.8032975 6.1600532,8.7944445 6.1280951,8.7747725 Z"
     id="path2-65" />
  <rect
     style="opacity:0.3;fill:none;fill-opacity:0.996424;stroke:#000000;stroke-width:0.955221;stroke-dasharray:none;stroke-opacity:1;filter:url(#filter5421-3)"
     id="rect1-2-7-5"
     width="13.687567"
     height="13.591975"
     x="1.6227165"
     y="1.6705122"
     rx="2.8442214"
     ry="2.965905"
     transform="matrix(0.43046721,0,0,0.43046721,9.5627021,9.5627021)" />
  <rect
     style="fill:none;fill-opacity:1;stroke:{{colors.primary.default.hex}};stroke-width:0.411191;stroke-dasharray:none;stroke-opacity:1"
     id="rect1-2-3"
     width="5.8920484"
     height="5.8508992"
     x="10.261228"
     y="10.281802"
     rx="1.224344"
     ry="1.2767248" />
  <path
     id="path1"
     style="fill:{{colors.primary.default.hex}};fill-opacity:1;stroke:none;stroke-width:0.0587368;stroke-dasharray:none;stroke-dashoffset:2.2;stroke-opacity:0.6"
     d="m 14.168922,11.656658 c -0.06055,-2.6e-5 -0.125364,0.02435 -0.206481,0.07188 -0.193027,0.1131 -0.445472,0.166438 -0.792145,0.166438 -0.346641,0 -0.607506,-0.05448 -0.799384,-0.16692 -0.153862,-0.09017 -0.245719,-0.09136 -0.374847,-0.0043 -0.331514,0.223407 -0.581361,0.939687 -0.654655,1.875683 -0.04395,0.561277 -0.0029,0.857184 0.142315,1.023712 0.07004,0.08029 0.241969,0.06668 0.397039,-0.03184 0.13145,-0.08351 0.288072,-0.267793 0.475192,-0.559138 0.16909,-0.263274 0.373614,-0.349984 0.825918,-0.350725 0.451405,-6.81e-4 0.628801,0.08471 0.837013,0.404757 0.349331,0.536972 0.672221,0.723915 0.861617,0.498829 0.104925,-0.124694 0.12413,-0.24517 0.119159,-0.746797 -0.0091,-0.911235 -0.247248,-1.740202 -0.590491,-2.056592 -0.09141,-0.08427 -0.162394,-0.124918 -0.24025,-0.124951 z M 12.207851,12.1936 h 0.209374 0.209373 v 0.179464 0.179463 h 0.179465 0.179462 v 0.22433 0.224328 h -0.179462 -0.179465 v 0.194419 0.194419 h -0.189593 c -0.104158,0 -0.197928,-0.0093 -0.208892,-0.02026 -0.01096,-0.01096 -0.02025,-0.098 -0.02025,-0.193935 v -0.174644 h -0.179466 -0.179465 v -0.224328 -0.224329 h 0.179465 0.179463 v -0.179465 z m 1.706832,0 c 0.188883,0 0.269773,0.209278 0.133633,0.345419 -0.08658,0.08657 -0.165598,0.09337 -0.250863,0.02123 -0.147895,-0.125144 -0.0707,-0.366645 0.11723,-0.366645 z m -0.363268,0.383531 c 0.04717,3.2e-5 0.09465,0.01883 0.132184,0.0603 0.05851,0.06466 0.06483,0.212666 0.01207,0.281737 -0.103261,0.135182 -0.351207,0.04823 -0.351207,-0.123018 0,-0.12997 0.103198,-0.219094 0.206961,-0.219022 z m 0.741493,0.0073 c 0.05436,9.9e-4 0.10714,0.019 0.137972,0.05306 0.05851,0.06466 0.06482,0.212666 0.01206,0.281738 -0.109832,0.143783 -0.351209,0.04755 -0.351209,-0.139905 0,-0.05682 0.02277,-0.118403 0.05451,-0.14714 0.03629,-0.03285 0.0923,-0.04875 0.14666,-0.04775 z m -0.365199,0.386906 c 0.167454,0 0.248932,0.177621 0.147622,0.322262 -0.03463,0.04945 -0.07687,0.06657 -0.164026,0.06657 -0.100342,0 -0.123628,-0.01306 -0.164024,-0.09118 -0.07966,-0.154035 0.0073,-0.297659 0.180428,-0.297659 z" />
</svg>
