<?xml version="1.0" encoding="UTF-8" standalone="no"?>
<svg
   width="64"
   height="64"
   version="1.1"
   viewBox="0 0 16.933 16.933"
   id="svg7"
   sodipodi:docname="abcd.svg"
   inkscape:version="1.4.3 (0d15f75042, 2025-12-25)"
   xmlns:inkscape="http://www.inkscape.org/namespaces/inkscape"
   xmlns:sodipodi="http://sodipodi.sourceforge.net/DTD/sodipodi-0.dtd"
   xmlns="http://www.w3.org/2000/svg"
   xmlns:svg="http://www.w3.org/2000/svg"
   xmlns:rdf="http://www.w3.org/1999/02/22-rdf-syntax-ns#"
   xmlns:cc="http://creativecommons.org/ns#"
   xmlns:dc="http://purl.org/dc/elements/1.1/">
  <sodipodi:namedview
     id="namedview7"
     pagecolor="#9c4444"
     bordercolor="#000000"
     borderopacity="0.25"
     inkscape:showpageshadow="2"
     inkscape:pageopacity="0.0"
     inkscape:pagecheckerboard="0"
     inkscape:deskcolor="#d1d1d1"
     inkscape:zoom="4.3531261"
     inkscape:cx="33.309396"
     inkscape:cy="31.471636"
     inkscape:window-width="1226"
     inkscape:window-height="669"
     inkscape:window-x="100"
     inkscape:window-y="206"
     inkscape:window-maximized="0"
     inkscape:current-layer="svg7"
     showgrid="false" />
  <defs
     id="defs2">
    <filter
       style="color-interpolation-filters:sRGB;"
       inkscape:label="Blur"
       id="filter5421"
       x="-0.12256455"
       y="-0.12342654"
       width="1.2451291"
       height="1.2468531">
      <feGaussianBlur
         stdDeviation="0.5 0.5"
         result="blur"
         id="feGaussianBlur5419" />
    </filter>
  </defs>
  <metadata
     id="metadata2">
    <rdf:RDF>
      <cc:Work
         rdf:about="">
        <dc:format>image/svg+xml</dc:format>
        <dc:type
           rdf:resource="http://purl.org/dc/dcmitype/StillImage" />
      </cc:Work>
    </rdf:RDF>
  </metadata>
  <rect
     style="opacity:0.3;fill:none;fill-opacity:0.996424;stroke:#000000;stroke-width:0.955221;stroke-dasharray:none;stroke-opacity:1;filter:url(#filter5421)"
     id="rect1-2-7"
     width="13.687567"
     height="13.591975"
     x="1.6227165"
     y="1.6705122"
     rx="2.8442214"
     ry="2.965905" />
  <rect
     style="fill:none;fill-opacity:1;stroke:{{colors.primary.default.hex}};stroke-width:0.955221;stroke-dasharray:none;stroke-opacity:1"
     id="rect1-2"
     width="13.687567"
     height="13.591975"
     x="1.6227167"
     y="1.6705124"
     rx="2.8442214"
     ry="2.965905" />
  <g
     id="g6"
     transform="matrix(0.15509805,0,0,0.15509805,3.503362,3.5033156)"
     style="fill:{{colors.primary.default.hex}};fill-opacity:1;stroke:none;stroke-width:0.846754;stroke-dasharray:none;stroke-opacity:0.6">
    <path
       style="fill:{{colors.primary.default.hex}};fill-opacity:1;stroke:none;stroke-width:0.846754;stroke-dasharray:none;stroke-opacity:0.6"
       d="m 31,6 c -2.43,0 -4.772,0.3546 -7,0.9726 10.978,3.0448 19,13.0534 19,25.028 0,11.974 -8.022,21.982 -19,25.028 2.228,0.618 4.57,0.972 7,0.972 14.404,0 26,-11.596 26,-26 0,-14.404 -11.596,-26 -26,-26 z"
       id="path2-3" />
    <path
       style="fill:{{colors.primary.default.hex}};fill-opacity:1;stroke:none;stroke-width:0.846754;stroke-dasharray:none;stroke-opacity:0.6"
       d="m 18,36 3.4,7 7.6,1 -5.5,4.764 L 25,56 18,52.584 11,56 12.5,48.764 7,44 14.6008,43 Z"
       id="path3-6" />
    <path
       style="fill:{{colors.primary.default.hex}};fill-opacity:1;stroke:none;stroke-width:0.846754;stroke-dasharray:none;stroke-opacity:0.6"
       d="M 27.999768,24.000466 30.780859,29 36.999673,30.111921 32.499721,34.211589 34,40.000403 27.999719,37.267254 22,40.000403 23.499717,34.211589 18.999765,30.111921 25.218579,29 Z"
       id="path4-3" />
    <path
       style="fill:{{colors.primary.default.hex}};fill-opacity:1;stroke:none;stroke-width:0.846754;stroke-dasharray:none;stroke-opacity:0.6"
       d="M 21.00011,16.000268 23,19 h 4.000145 L 24.000127,22 25,26.000123 21.000077,24 17,26.000123 18.000027,22 15.000009,19 H 19 Z"
       id="path5-6" />
  </g>
</svg>
