<?xml version="1.0" encoding="UTF-8" standalone="no"?>
<svg
   width="64"
   height="64"
   version="1.1"
   viewBox="0 0 16.933 16.933"
   id="svg7"
   sodipodi:docname="abcd.svg"
   inkscape:version="1.4.3 (0d15f75042, 2025-12-25)"
   xmlns:inkscape="http://www.inkscape.org/namespaces/inkscape"
   xmlns:sodipodi="http://sodipodi.sourceforge.net/DTD/sodipodi-0.dtd"
   xmlns="http://www.w3.org/2000/svg"
   xmlns:svg="http://www.w3.org/2000/svg"
   xmlns:rdf="http://www.w3.org/1999/02/22-rdf-syntax-ns#"
   xmlns:cc="http://creativecommons.org/ns#"
   xmlns:dc="http://purl.org/dc/elements/1.1/">
  <sodipodi:namedview
     id="namedview7"
     pagecolor="#9c4444"
     bordercolor="#000000"
     borderopacity="0.25"
     inkscape:showpageshadow="2"
     inkscape:pageopacity="0.0"
     inkscape:pagecheckerboard="0"
     inkscape:deskcolor="#d1d1d1"
     inkscape:zoom="4.3531261"
     inkscape:cx="33.768836"
     inkscape:cy="30.093316"
     inkscape:window-width="1226"
     inkscape:window-height="669"
     inkscape:window-x="100"
     inkscape:window-y="206"
     inkscape:window-maximized="0"
     inkscape:current-layer="svg7"
     showgrid="false" />
  <defs
     id="defs2">
    <filter
       style="color-interpolation-filters:sRGB;"
       inkscape:label="Blur"
       id="filter5421"
       x="-0.12256455"
       y="-0.12342654"
       width="1.2451291"
       height="1.2468531">
      <feGaussianBlur
         stdDeviation="0.5 0.5"
         result="blur"
         id="feGaussianBlur5419" />
    </filter>
  </defs>
  <metadata
     id="metadata2">
    <rdf:RDF>
      <cc:Work
         rdf:about="">
        <dc:format>image/svg+xml</dc:format>
        <dc:type
           rdf:resource="http://purl.org/dc/dcmitype/StillImage" />
      </cc:Work>
    </rdf:RDF>
  </metadata>
  <rect
     style="opacity:0.3;fill:none;fill-opacity:0.996424;stroke:#000000;stroke-width:0.955221;stroke-dasharray:none;stroke-opacity:1;filter:url(#filter5421)"
     id="rect1-2-7"
     width="13.687567"
     height="13.591975"
     x="1.6227165"
     y="1.6705122"
     rx="2.8442214"
     ry="2.965905" />
  <rect
     style="fill:none;fill-opacity:1;stroke:{{colors.primary.default.hex}};stroke-width:0.955221;stroke-dasharray:none;stroke-opacity:1"
     id="rect1-2"
     width="13.687567"
     height="13.591975"
     x="1.6227167"
     y="1.6705124"
     rx="2.8442214"
     ry="2.965905" />
  <g
     id="g6532"
     style="fill:{{colors.primary.default.hex}};fill-opacity:1;stroke:none;stroke-width:0.940838;stroke-dasharray:none;stroke-opacity:0.6"
     transform="matrix(0.13468465,0,0,0.13468465,4.1565545,4.1591524)">
    <path
       style="fill:{{colors.primary.default.hex}};fill-opacity:1;stroke:none;stroke-width:0.940838;stroke-dasharray:none;stroke-opacity:0.6"
       d="m 37.863473,4 h 6.671381 c 1.34018,-0.1684714 1.233924,0.2127093 1.241149,1.3417995 0.200766,18.2858585 3.738163,35.9682215 14.99617,44.3996615 1.248345,0.810303 1.38583,0.810341 0.615249,2.164369 l -3.904565,6.862041 c -0.714591,1.689522 -1.064468,1.250553 -2.215961,0.475506 C 47.496935,53.851389 42.537269,46.747147 40.048146,38.031448 37.411545,28.799355 37.863473,18.009665 37.863473,4 Z"
       id="path2-9-0" />
    <path
       style="fill:{{colors.primary.default.hex}};fill-opacity:1;stroke:none;stroke-width:0.940838;stroke-dasharray:none;stroke-opacity:0.6"
       d="M 26.137073,4.038454 H 19.465692 C 18.125512,3.8699826 18.231768,4.2511633 18.224543,5.3802535 18.023777,23.666112 14.48638,41.348475 3.2283727,49.779915 1.9800279,50.590218 1.8425429,50.590256 2.613124,51.944284 l 3.9045653,6.862041 c 0.7145908,1.689522 1.0644682,1.250553 2.215961,0.475506 C 16.503611,53.889843 21.463277,46.785601 23.9524,38.069902 26.589001,28.837809 26.137073,18.048119 26.137073,4.038454 Z"
       id="path3-3-1" />
    <path
       style="fill:{{colors.primary.default.hex}};fill-opacity:1;stroke:none;stroke-width:0.940838;stroke-dasharray:none;stroke-opacity:0.6"
       d="m 26.00002,4.0001938 v 0.03826 54.2896322 c -0.07764,1.594371 -0.0124,1.639675 1.477851,1.639675 h 9.327541 c 1.545897,0.169559 1.194568,-0.317857 1.194568,-1.740788 V 4.038453 4.0001938 Z"
       id="path4" />
  </g>
</svg>
