<?xml version="1.0" encoding="UTF-8" standalone="no"?>
<svg
   width="64"
   height="64"
   version="1.1"
   viewBox="0 0 16.933 16.933"
   id="svg7"
   sodipodi:docname="abcd.svg"
   inkscape:version="1.4.3 (0d15f75042, 2025-12-25)"
   xmlns:inkscape="http://www.inkscape.org/namespaces/inkscape"
   xmlns:sodipodi="http://sodipodi.sourceforge.net/DTD/sodipodi-0.dtd"
   xmlns="http://www.w3.org/2000/svg"
   xmlns:svg="http://www.w3.org/2000/svg"
   xmlns:rdf="http://www.w3.org/1999/02/22-rdf-syntax-ns#"
   xmlns:cc="http://creativecommons.org/ns#"
   xmlns:dc="http://purl.org/dc/elements/1.1/">
  <sodipodi:namedview
     id="namedview7"
     pagecolor="#9c4444"
     bordercolor="#000000"
     borderopacity="0.25"
     inkscape:showpageshadow="2"
     inkscape:pageopacity="0.0"
     inkscape:pagecheckerboard="0"
     inkscape:deskcolor="#d1d1d1"
     inkscape:zoom="4.3531261"
     inkscape:cx="43.417074"
     inkscape:cy="20.904517"
     inkscape:window-width="1226"
     inkscape:window-height="669"
     inkscape:window-x="75"
     inkscape:window-y="151"
     inkscape:window-maximized="0"
     inkscape:current-layer="svg7"
     showgrid="false" />
  <defs
     id="defs2">
    <filter
       style="color-interpolation-filters:sRGB;"
       inkscape:label="Blur"
       id="filter5421"
       x="-0.12256455"
       y="-0.12342654"
       width="1.2451291"
       height="1.2468531">
      <feGaussianBlur
         stdDeviation="0.5 0.5"
         result="blur"
         id="feGaussianBlur5419" />
    </filter>
  </defs>
  <metadata
     id="metadata2">
    <rdf:RDF>
      <cc:Work
         rdf:about="">
        <dc:format>image/svg+xml</dc:format>
        <dc:type
           rdf:resource="http://purl.org/dc/dcmitype/StillImage" />
      </cc:Work>
    </rdf:RDF>
  </metadata>
  <rect
     style="opacity:0.3;fill:none;fill-opacity:0.996424;stroke:#000000;stroke-width:0.955221;stroke-dasharray:none;stroke-opacity:1;filter:url(#filter5421)"
     id="rect1-2-7"
     width="13.687567"
     height="13.591975"
     x="1.6227165"
     y="1.6705122"
     rx="2.8442214"
     ry="2.965905" />
  <rect
     style="fill:none;fill-opacity:1;stroke:{{colors.primary.default.hex}};stroke-width:0.955221;stroke-dasharray:none;stroke-opacity:1"
     id="rect1-2"
     width="13.687567"
     height="13.591975"
     x="1.6227167"
     y="1.6705124"
     rx="2.8442214"
     ry="2.965905" />
  <path
     style="fill:{{colors.primary.default.hex}};fill-opacity:1;stroke:none;stroke-width:0.124763;stroke-dasharray:none;stroke-opacity:0.6"
     d="M 8.4807289,5.7027498 C 8.4033971,5.7008587 8.3259308,5.7009638 8.248575,5.7030913 7.3203062,5.7289632 6.2726282,6.0477828 5.5468888,6.6990742 5.0316158,7.165133 4.4813999,7.7445134 4.4859709,8.5321242 4.4392049,8.8094311 4.5873482,8.9459096 4.7723291,8.9645424 l 0.00249,-0.00191 C 5.0099202,8.7806013 5.2961453,8.6703525 5.6000291,8.6640541 5.9045507,8.657745 6.2426256,8.7766588 6.4723003,9.0717843 l 0.00927,0.011573 0.00821,0.012345 C 6.6390747,9.3209427 6.7303747,9.5713893 6.7797091,9.828615 7.1582669,9.88173 7.5459721,9.853213 7.9265705,9.831275 8.0362789,9.828835 8.1384596,9.810711 8.2386048,9.787711 8.4243744,9.5730293 8.6735066,9.3265904 9.0623686,9.263105 l 0.00891,-0.00116 0.00893,-0.00116 c 0.2908228,-0.031725 0.5410328,0.052221 0.7759856,0.2515037 0.051334,0.043531 0.1042986,0.1017765 0.1494208,0.1712703 0.127575,-0.3361837 0.513895,-0.2128079 0.44612,0.145039 0.321649,0.320308 0.255327,-0.4431467 0.498187,-0.3490969 0.213615,0.2856451 0.457623,0.6607969 0.798095,0.7529699 0.257443,0.03575 0.549638,-0.05644 0.675777,-0.3259522 C 12.62397,9.4800448 12.26775,9.0889386 12.114961,8.7219238 11.913084,8.170587 11.812856,7.5667515 11.476625,7.0840621 10.935484,6.2885269 10.035753,5.9322481 9.1718484,5.7733142 8.9440463,5.7321383 8.7127332,5.7083852 8.480736,5.7027233 Z m 2.8158021,2.7638476 c 0.151259,0 0.273877,0.1326359 0.273877,0.2962505 0,0.1636155 -0.122618,0.2962507 -0.273877,0.2962507 -0.151258,0 -0.273877,-0.1326352 -0.273877,-0.2962507 0,-0.1636146 0.122619,-0.2962505 0.273877,-0.2962505 z M 5.6071562,9.0590986 C 5.3866547,9.0636681 5.1602952,9.1500981 4.9873656,9.2839864 4.6658849,9.5774551 4.4015502,10.064935 4.4570851,10.54768 c 0.1313944,0.463563 0.596967,0.564727 0.9624936,0.651907 0.3451004,0.07184 0.8461368,0.0554 0.983177,-0.398859 C 6.5122198,10.309397 6.4679396,9.7407374 6.193068,9.3260328 6.0424018,9.1324417 5.8276581,9.0545286 5.6071562,9.0590986 Z m 3.5097671,0.594816 C 8.736065,9.7160943 8.510043,10.105617 8.235737,10.358667 8.0816956,10.594848 7.5562354,10.915859 7.7996018,11.210386 8.5189871,11.345421 9.1496095,10.811957 9.5929993,10.261074 10.028027,9.9356447 9.4174575,9.6211289 9.1169233,9.6539146 Z"
     id="path8" />
</svg>
