<?xml version="1.0" encoding="UTF-8" standalone="no"?>
<svg
   width="64"
   height="64"
   version="1.1"
   viewBox="0 0 16.933 16.933"
   id="svg7"
   sodipodi:docname="abcd.svg"
   inkscape:version="1.4.3 (0d15f75042, 2025-12-25)"
   xmlns:inkscape="http://www.inkscape.org/namespaces/inkscape"
   xmlns:sodipodi="http://sodipodi.sourceforge.net/DTD/sodipodi-0.dtd"
   xmlns="http://www.w3.org/2000/svg"
   xmlns:svg="http://www.w3.org/2000/svg"
   xmlns:rdf="http://www.w3.org/1999/02/22-rdf-syntax-ns#"
   xmlns:cc="http://creativecommons.org/ns#"
   xmlns:dc="http://purl.org/dc/elements/1.1/">
  <sodipodi:namedview
     id="namedview7"
     pagecolor="#9c4444"
     bordercolor="#000000"
     borderopacity="0.25"
     inkscape:showpageshadow="2"
     inkscape:pageopacity="0.0"
     inkscape:pagecheckerboard="0"
     inkscape:deskcolor="#d1d1d1"
     inkscape:zoom="4.3531261"
     inkscape:cx="40.200995"
     inkscape:cy="23.431437"
     inkscape:window-width="1226"
     inkscape:window-height="669"
     inkscape:window-x="474"
     inkscape:window-y="225"
     inkscape:window-maximized="0"
     inkscape:current-layer="svg7"
     showgrid="false" />
  <defs
     id="defs2">
    <filter
       style="color-interpolation-filters:sRGB;"
       inkscape:label="Blur"
       id="filter5421"
       x="-0.12256455"
       y="-0.12342654"
       width="1.2451291"
       height="1.2468531">
      <feGaussianBlur
         stdDeviation="0.5 0.5"
         result="blur"
         id="feGaussianBlur5419" />
    </filter>
  </defs>
  <metadata
     id="metadata2">
    <rdf:RDF>
      <cc:Work
         rdf:about="">
        <dc:format>image/svg+xml</dc:format>
        <dc:type
           rdf:resource="http://purl.org/dc/dcmitype/StillImage" />
      </cc:Work>
    </rdf:RDF>
  </metadata>
  <rect
     style="opacity:0.3;fill:none;fill-opacity:0.996424;stroke:#000000;stroke-width:0.955221;stroke-dasharray:none;stroke-opacity:1;filter:url(#filter5421)"
     id="rect1-2-7"
     width="13.687567"
     height="13.591975"
     x="1.6227165"
     y="1.6705122"
     rx="2.8442214"
     ry="2.965905" />
  <rect
     style="fill:none;fill-opacity:1;stroke:{{colors.primary.default.hex}};stroke-width:0.955221;stroke-dasharray:none;stroke-opacity:1"
     id="rect1-2"
     width="13.687567"
     height="13.591975"
     x="1.6227167"
     y="1.6705124"
     rx="2.8442214"
     ry="2.965905" />
  <path
     id="path7-7"
     style="fill:{{colors.primary.default.hex}};fill-opacity:1;stroke:none;stroke-width:0.118466;stroke-dasharray:none;stroke-opacity:0.6"
     d="m 5.6392161,4.8187769 c -0.00542,4.727e-4 -0.010393,0.0021 -0.014694,0.00448 -0.043075,0.024104 -1.2257935,1.7251934 -1.2200883,1.7548202 0.00287,0.014919 0.5543397,0.4079955 1.225803,0.8735318 0.6714635,0.4655375 1.2244885,0.8461842 1.2286598,0.8461842 0.00417,-2e-7 0.3603485,-0.2484213 0.7914858,-0.5522853 0.4311379,-0.3038589 0.8066229,-0.5675842 0.8347543,-0.5857519 0.03979,-0.025696 0.094659,-0.034887 0.2461402,-0.041636 l 0.194708,-0.00857 -1.5878694,-1.118856 C 6.4649265,5.3752666 5.7282264,4.8573949 5.7008551,4.8400071 5.6766011,4.8245994 5.6554997,4.817337 5.6392185,4.8187815 Z M 8.6173897,7.3438568 6.521728,8.8206978 C 5.3693206,9.6329531 4.4208307,10.306014 4.4138211,10.316724 c -0.007,0.01071 -0.012914,0.02852 -0.013064,0.0396 -3.414e-4,0.02451 1.1719657,1.705867 1.2106997,1.736453 0.015106,0.01193 0.032909,0.02163 0.039594,0.02163 0.00669,0 0.8306349,-0.565925 1.8311523,-1.25764 l 1.8193154,-1.2576405 1.0755865,7.881e-4 1.075589,4.202e-4 0.52412,-0.5343245 c 0.288169,-0.2937375 0.532967,-0.5508672 0.544121,-0.5714693 0.01595,-0.029457 0.01527,-0.044794 -0.0036,-0.071843 -0.01325,-0.018919 -0.254232,-0.2694944 -0.535142,-0.5567775 l -0.51067,-0.5220762 h -1.427041 z" />
</svg>
