<?xml version="1.0" encoding="UTF-8" standalone="no"?>
<svg
   width="64"
   height="64"
   version="1.1"
   viewBox="0 0 16.933 16.933"
   id="svg7"
   sodipodi:docname="abcd.svg"
   inkscape:version="1.4.3 (0d15f75042, 2025-12-25)"
   xmlns:inkscape="http://www.inkscape.org/namespaces/inkscape"
   xmlns:sodipodi="http://sodipodi.sourceforge.net/DTD/sodipodi-0.dtd"
   xmlns="http://www.w3.org/2000/svg"
   xmlns:svg="http://www.w3.org/2000/svg"
   xmlns:rdf="http://www.w3.org/1999/02/22-rdf-syntax-ns#"
   xmlns:cc="http://creativecommons.org/ns#"
   xmlns:dc="http://purl.org/dc/elements/1.1/">
  <sodipodi:namedview
     id="namedview7"
     pagecolor="#9c4444"
     bordercolor="#000000"
     borderopacity="0.25"
     inkscape:showpageshadow="2"
     inkscape:pageopacity="0.0"
     inkscape:pagecheckerboard="0"
     inkscape:deskcolor="#d1d1d1"
     inkscape:zoom="4.3531261"
     inkscape:cx="43.417074"
     inkscape:cy="20.904517"
     inkscape:window-width="1226"
     inkscape:window-height="669"
     inkscape:window-x="75"
     inkscape:window-y="151"
     inkscape:window-maximized="0"
     inkscape:current-layer="svg7"
     showgrid="false" />
  <defs
     id="defs2">
    <filter
       style="color-interpolation-filters:sRGB;"
       inkscape:label="Blur"
       id="filter5421"
       x="-0.12256455"
       y="-0.12342654"
       width="1.2451291"
       height="1.2468531">
      <feGaussianBlur
         stdDeviation="0.5 0.5"
         result="blur"
         id="feGaussianBlur5419" />
    </filter>
  </defs>
  <metadata
     id="metadata2">
    <rdf:RDF>
      <cc:Work
         rdf:about="">
        <dc:format>image/svg+xml</dc:format>
        <dc:type
           rdf:resource="http://purl.org/dc/dcmitype/StillImage" />
      </cc:Work>
    </rdf:RDF>
  </metadata>
  <rect
     style="opacity:0.3;fill:none;fill-opacity:0.996424;stroke:#000000;stroke-width:0.955221;stroke-dasharray:none;stroke-opacity:1;filter:url(#filter5421)"
     id="rect1-2-7"
     width="13.687567"
     height="13.591975"
     x="1.6227165"
     y="1.6705122"
     rx="2.8442214"
     ry="2.965905" />
  <rect
     style="fill:none;fill-opacity:1;stroke:{{colors.primary.default.hex}};stroke-width:0.955221;stroke-dasharray:none;stroke-opacity:1"
     id="rect1-2"
     width="13.687567"
     height="13.591975"
     x="1.6227167"
     y="1.6705124"
     rx="2.8442214"
     ry="2.965905" />
  <path
     style="fill:{{colors.primary.default.hex}};fill-opacity:1;stroke-width:0.230965"
     d="m 5.0313911,5.2331515 c -0.3359269,0 -0.606736,0.2717031 -0.606736,0.6058341 v 2.577162 c 0,0.1616759 0.065013,0.3144823 0.1781861,0.429452 L 7.279247,11.522005 c 0.2371246,0.237125 0.6199745,0.237125 0.8570992,0 L 10.713509,8.9448421 c 0.237124,-0.2371248 0.237124,-0.6217706 0,-0.8570989 L 8.037103,5.411338 C 7.9239299,5.2981645 7.7693276,5.2331515 7.6076509,5.2331515 Z m 3.5790663,0 2.4788226,2.4806259 c 0.21377,0.2137715 0.332463,0.499826 0.332463,0.8034178 0,0.3035913 -0.116898,0.5869476 -0.332463,0.8025155 l -2.1991376,2.1973323 0.00587,0.0048 c 0.2371244,0.237125 0.6199744,0.237125 0.8570982,0 L 12.330271,8.9448561 c 0.237139,-0.237125 0.237109,-0.621771 0.0018,-0.8570993 L 9.6556671,5.411338 C 9.5406975,5.2981645 9.3878911,5.2331515 9.2262157,5.2331515 Z M 5.8104491,5.9260484 c 0.3833488,0 0.6928972,0.310334 0.6928972,0.6942504 0,0.3839156 -0.3115982,0.6915439 -0.6928972,0.6915439 -0.3812983,0 -0.6928972,-0.3103334 -0.6928972,-0.6942501 0,-0.3839161 0.3095489,-0.6915442 0.6928972,-0.6915442 z"
     id="path3" />
</svg>
