<?xml version="1.0" encoding="UTF-8" standalone="no"?>
<svg
   width="64"
   height="64"
   version="1.1"
   viewBox="0 0 16.933 16.933"
   id="svg7"
   sodipodi:docname="abcd.svg"
   inkscape:version="1.4.3 (0d15f75042, 2025-12-25)"
   xmlns:inkscape="http://www.inkscape.org/namespaces/inkscape"
   xmlns:sodipodi="http://sodipodi.sourceforge.net/DTD/sodipodi-0.dtd"
   xmlns="http://www.w3.org/2000/svg"
   xmlns:svg="http://www.w3.org/2000/svg"
   xmlns:rdf="http://www.w3.org/1999/02/22-rdf-syntax-ns#"
   xmlns:cc="http://creativecommons.org/ns#"
   xmlns:dc="http://purl.org/dc/elements/1.1/">
  <sodipodi:namedview
     id="namedview7"
     pagecolor="#9c4444"
     bordercolor="#000000"
     borderopacity="0.25"
     inkscape:showpageshadow="2"
     inkscape:pageopacity="0.0"
     inkscape:pagecheckerboard="0"
     inkscape:deskcolor="#d1d1d1"
     inkscape:zoom="4.3531261"
     inkscape:cx="43.417074"
     inkscape:cy="20.904517"
     inkscape:window-width="1226"
     inkscape:window-height="669"
     inkscape:window-x="75"
     inkscape:window-y="151"
     inkscape:window-maximized="0"
     inkscape:current-layer="svg7"
     showgrid="false" />
  <defs
     id="defs2">
    <filter
       style="color-interpolation-filters:sRGB;"
       inkscape:label="Blur"
       id="filter5421"
       x="-0.12256455"
       y="-0.12342654"
       width="1.2451291"
       height="1.2468531">
      <feGaussianBlur
         stdDeviation="0.5 0.5"
         result="blur"
         id="feGaussianBlur5419" />
    </filter>
  </defs>
  <metadata
     id="metadata2">
    <rdf:RDF>
      <cc:Work
         rdf:about="">
        <dc:format>image/svg+xml</dc:format>
        <dc:type
           rdf:resource="http://purl.org/dc/dcmitype/StillImage" />
      </cc:Work>
    </rdf:RDF>
  </metadata>
  <rect
     style="opacity:0.3;fill:none;fill-opacity:0.996424;stroke:#000000;stroke-width:0.955221;stroke-dasharray:none;stroke-opacity:1;filter:url(#filter5421)"
     id="rect1-2-7"
     width="13.687567"
     height="13.591975"
     x="1.6227165"
     y="1.6705122"
     rx="2.8442214"
     ry="2.965905" />
  <rect
     style="fill:none;fill-opacity:1;stroke:{{colors.primary.default.hex}};stroke-width:0.955221;stroke-dasharray:none;stroke-opacity:1"
     id="rect1-2"
     width="13.687567"
     height="13.591975"
     x="1.6227167"
     y="1.6705124"
     rx="2.8442214"
     ry="2.965905" />
  <path
     style="fill:{{colors.primary.default.hex}};fill-opacity:1;stroke-width:0.256628"
     d="M 8.8275415,12.072741 C 7.8217446,11.709857 7.2946514,11.78952 6.8812513,11.802654 c -0.4392144,0.03795 -0.8642607,0.151468 -1.294946,0.292997 -0.2360147,0.06883 -0.2363266,0.06525 -0.01581,-0.181334 0.6786581,-0.593853 1.4667665,-1.079701 2.2536417,-1.23864 0.5712815,0 0.9492774,-0.457491 0.8271292,-0.8373584 C 8.1925257,9.0914077 6.9267261,8.1164021 6.9267261,7.8506944 c 0,-0.222402 0.3883688,-0.787095 0.8960404,-1.3232306 C 8.0474053,6.2902302 8.349645,6.1004919 8.2795759,6.0359603 8.1335694,5.9014979 6.7333447,5.6435674 6.0790209,5.6435674 c -0.5226144,0 -0.9832795,0.3520793 -0.9832795,0.6972252 0,0.095752 0.06408,0.3616764 0.2680198,0.5909414 L 5.7345616,7.3485782 C 5.4892968,7.6282889 5.384521,7.9314841 4.9626799,7.9314841 c -0.6050208,0 -0.6050208,-0.4898321 -0.6018208,-0.9662865 0.08543,-1.1667263 1.866326,-2.5012928 3.5507666,-2.3338394 1.0654244,0.1061068 1.999327,0.1659653 3.0192763,0.2423235 0.567452,0.027997 0.923192,-0.021282 1.455398,-0.2228594 0.38567,-0.1460774 0.139718,0.323896 -0.437647,0.8362678 C 11.25421,6.1033615 10.843334,6.2593468 9.7310336,6.1568246 8.8990753,6.0801422 8.6714515,6.2419131 8.4808537,6.7496162 8.3296012,7.1525169 8.699872,7.5365109 9.4855256,8.3564596 9.872943,8.7607859 10.008955,9.0219435 10.006268,9.2774916 10.003832,9.506182 9.9006796,9.730379 9.5999796,10.048671 c -0.2651231,0.280634 -0.6220751,0.559792 -0.5841557,0.62035 0.1189686,0.190001 0.9066583,0.620375 1.3359721,0.620375 0.226285,0 0.85853,-0.142108 1.112531,-0.27001 0.429643,-0.216347 0.612012,-0.214396 0.612012,0.0066 0,0.174965 -1.557512,1.291993 -2.3309323,1.289971 -0.1406933,-4.24e-4 -0.553714,-0.11182 -0.9178677,-0.24321 z"
     id="path3" />
</svg>
