<?xml version="1.0" encoding="UTF-8" standalone="no"?>
<svg
   width="64"
   height="64"
   version="1.1"
   viewBox="0 0 16.933 16.933"
   id="svg7"
   sodipodi:docname="abcd.svg"
   inkscape:version="1.4.3 (0d15f75042, 2025-12-25)"
   xmlns:inkscape="http://www.inkscape.org/namespaces/inkscape"
   xmlns:sodipodi="http://sodipodi.sourceforge.net/DTD/sodipodi-0.dtd"
   xmlns="http://www.w3.org/2000/svg"
   xmlns:svg="http://www.w3.org/2000/svg"
   xmlns:rdf="http://www.w3.org/1999/02/22-rdf-syntax-ns#"
   xmlns:cc="http://creativecommons.org/ns#"
   xmlns:dc="http://purl.org/dc/elements/1.1/">
  <sodipodi:namedview
     id="namedview7"
     pagecolor="#9c4444"
     bordercolor="#000000"
     borderopacity="0.25"
     inkscape:showpageshadow="2"
     inkscape:pageopacity="0.0"
     inkscape:pagecheckerboard="0"
     inkscape:deskcolor="#d1d1d1"
     inkscape:zoom="4.3531261"
     inkscape:cx="38.133515"
     inkscape:cy="27.106957"
     inkscape:window-width="1226"
     inkscape:window-height="669"
     inkscape:window-x="100"
     inkscape:window-y="206"
     inkscape:window-maximized="0"
     inkscape:current-layer="svg7"
     showgrid="false" />
  <defs
     id="defs2">
    <filter
       style="color-interpolation-filters:sRGB;"
       inkscape:label="Blur"
       id="filter5421"
       x="-0.12256455"
       y="-0.12342654"
       width="1.2451291"
       height="1.2468531">
      <feGaussianBlur
         stdDeviation="0.5 0.5"
         result="blur"
         id="feGaussianBlur5419" />
    </filter>
  </defs>
  <metadata
     id="metadata2">
    <rdf:RDF>
      <cc:Work
         rdf:about="">
        <dc:format>image/svg+xml</dc:format>
        <dc:type
           rdf:resource="http://purl.org/dc/dcmitype/StillImage" />
      </cc:Work>
    </rdf:RDF>
  </metadata>
  <rect
     style="opacity:0.3;fill:none;fill-opacity:0.996424;stroke:#000000;stroke-width:0.955221;stroke-dasharray:none;stroke-opacity:1;filter:url(#filter5421)"
     id="rect1-2-7"
     width="13.687567"
     height="13.591975"
     x="1.6227165"
     y="1.6705122"
     rx="2.8442214"
     ry="2.965905" />
  <rect
     style="fill:none;fill-opacity:1;stroke:{{colors.primary.default.hex}};stroke-width:0.955221;stroke-dasharray:none;stroke-opacity:1"
     id="rect1-2"
     width="13.687567"
     height="13.591975"
     x="1.6227167"
     y="1.6705124"
     rx="2.8442214"
     ry="2.965905" />
  <path
     id="path7"
     style="fill:{{colors.primary.default.hex}};fill-opacity:1;stroke:none;stroke-width:0.0977626;stroke-dasharray:none;stroke-opacity:0.6"
     d="m 11.664762,5.0434794 c -0.122594,0 -0.237549,0.05817 -0.305206,0.1544379 -0.0172,0.024451 -0.124882,0.2914223 -0.248716,0.6162865 l -0.218268,0.5729989 -0.383344,0.1683781 c -0.210691,0.092602 -0.386661,0.1683861 -0.391049,0.1683784 -0.0045,-8.4e-6 -0.01661,-0.02971 -0.02714,-0.066032 C 10.06321,6.5619705 9.966111,6.3705699 9.9017447,6.2852222 9.8243936,6.1826523 9.7244627,6.0786614 9.6310206,6.0034912 9.560612,5.9468501 9.5478092,5.9309703 9.5173015,5.8607922 9.4423431,5.6883599 9.3196942,5.5451645 9.1511985,5.4341603 8.6762869,5.1212918 7.9920996,5.1820372 7.6027795,5.5713573 7.5165768,5.6575602 7.4537609,5.7501076 7.4046877,5.8629928 7.3726681,5.9366481 7.3620194,5.949725 7.2847325,6.0115613 7.074602,6.1796869 6.8818896,6.459789 6.8272866,6.6766369 c -0.0093,0.03692 -0.016482,0.047784 -0.029348,0.044021 C 6.7576491,6.7088746 6.0504784,6.3932381 6.0393204,6.3820674 6.0325464,6.3752802 5.9315111,6.1180719 5.8144491,5.8101685 5.6973873,5.5022648 5.5920407,5.2347153 5.5804075,5.2158923 5.5456298,5.159621 5.4577432,5.0883227 5.3933211,5.0640225 5.3127082,5.0336143 5.1888346,5.0388334 5.1112231,5.0757608 5.0403671,5.1094737 4.962889,5.1887763 4.9285387,5.2628477 c -0.023214,0.050049 -0.028191,0.075465 -0.027878,0.1452673 3.94e-4,0.084315 9.975e-4,0.086353 0.2303736,0.6870858 0.1265325,0.3313386 0.2422829,0.6331606 0.2571526,0.6709442 0.033328,0.084694 0.084628,0.1570053 0.137564,0.1936897 0.029092,0.020156 0.6245557,0.2901481 0.8235485,0.3734402 0.00661,0.00278 0.047847,-0.048682 0.091709,-0.1144533 0.1723601,-0.2584314 0.3581358,-0.4611636 0.4783555,-0.5212754 0.05033,-0.025165 0.079504,-0.031883 0.1504041,-0.035216 0.140385,-0.0066 0.1360053,-0.00959 0.8052062,0.5623606 0.5734377,0.4901067 0.5871848,0.50072 0.6078491,0.4823905 0.099446,-0.088209 1.1290631,-0.9623636 1.1713105,-0.9944948 0.09742,-0.074092 0.2069202,-0.1007743 0.2934679,-0.071532 0.063926,0.021593 0.1283463,0.07783 0.2597213,0.2270722 0.14653,0.1664558 0.209794,0.2480954 0.294206,0.3789422 0.04583,0.071042 0.06322,0.090001 0.07705,0.08474 0.106144,-0.040407 0.779153,-0.343723 0.812178,-0.3661033 0.05087,-0.034485 0.0918,-0.08116 0.119221,-0.1349962 0.01072,-0.021021 0.130693,-0.328093 0.266324,-0.6826831 l 0.246511,-0.6449008 v -0.09501 c 1.74e-4,-0.082863 -0.0031,-0.1027828 -0.02897,-0.1551722 C 11.932564,5.1278186 11.800076,5.0434775 11.664775,5.0434772 Z M 8.9435663,5.8061332 c 0.097749,0.00479 0.2090772,0.061195 0.3030076,0.1617747 0.2341664,0.2507441 0.2736764,0.6438134 0.075935,0.7549505 -0.04644,0.0261 -0.1330669,0.036818 -0.18672,0.023112 C 9.0620574,6.7271293 8.9781794,6.675665 8.9101846,6.6076697 8.6791174,6.3766022 8.6186391,6.0000726 8.7891283,5.8549211 c 0.042276,-0.035995 0.095788,-0.051663 0.154438,-0.04879 z m -0.9471725,0.00478 C 8.1063705,5.811135 8.166282,5.8512022 8.215028,5.9576477 8.235379,6.0020907 8.239219,6.0272367 8.238507,6.1161214 8.2369552,6.3001336 8.1674419,6.4613054 8.0283096,6.6029096 7.9775188,6.6546033 7.9319951,6.6892477 7.883408,6.7129617 7.807572,6.7499728 7.7070261,6.7640233 7.6497329,6.7456061 7.5566175,6.7156652 7.4938376,6.6140074 7.4861241,6.4807434 7.4715438,6.2288605 7.6403646,5.9417317 7.864332,5.8376777 7.90939,5.8167467 7.939046,5.8107877 7.9963933,5.8109027 Z M 9.8617594,6.825584 c -0.01,0.00116 -0.02142,0.00691 -0.041464,0.017606 C 9.7960916,6.8561003 9.4835207,7.1161396 9.1258779,7.421319 8.7682354,7.7264977 8.469523,7.9763438 8.4619035,7.9763438 8.454275,7.9763438 8.1565818,7.7276471 7.8004966,7.423887 7.3407516,7.0316887 7.1414471,6.8684479 7.1134175,6.8600498 7.0552982,6.8426355 6.9762142,6.8818402 6.8870793,6.9723021 6.8033803,7.057245 6.6305012,7.2856007 6.5510563,7.4161745 6.3141039,7.8056275 6.1720572,8.2493604 6.1299276,8.7320191 c -0.01499,0.1717192 -0.00672,0.5030277 0.01687,0.6749791 0.097634,0.7115218 0.4104944,1.3660068 0.8767401,1.8341858 0.3642093,0.365722 0.8110758,0.592787 1.25825,0.639398 0.2443591,0.02547 0.5018296,-0.0036 0.7505486,-0.08511 0.1252893,-0.04103 0.3670509,-0.160488 0.4860586,-0.239911 0.7766671,-0.518317 1.2839341,-1.533923 1.2839341,-2.5700589 0,-0.6571506 -0.203186,-1.2880168 -0.572633,-1.7773246 C 10.127178,7.0723956 9.9305306,6.8538009 9.8936705,6.8347392 c -0.013402,-0.00694 -0.021922,-0.010288 -0.031912,-0.00917 z m 0.9651476,1.0865714 c -0.0011,7.618e-4 0.01388,0.051873 0.03335,0.1133525 0.04286,0.1350802 0.09464,0.3773906 0.11152,0.5216421 0.01775,0.1517941 0.01495,0.1475467 0.112248,0.1632421 0.04541,0.00734 0.09201,0.017102 0.103818,0.021643 0.0118,0.00453 0.195382,0.1683494 0.407556,0.3642688 0.212173,0.1959188 0.403724,0.3686948 0.425899,0.3837115 0.02217,0.015014 0.06486,0.036182 0.09501,0.046957 0.165963,0.059302 0.368437,-0.036116 0.448642,-0.211298 C 12.61673,9.2025942 12.59603,9.0495655 12.51507,8.9466376 12.503301,8.9316612 12.290396,8.7320543 12.04186,8.5027546 11.749932,8.233423 11.571233,8.0761068 11.537092,8.0585155 c -0.04008,-0.02065 -0.13197,-0.041947 -0.380409,-0.087674 -0.180202,-0.033167 -0.328622,-0.059503 -0.329789,-0.058694 z m -4.7490706,0.00953 c -0.031986,0.0022 -0.1595529,0.022253 -0.3085094,0.048787 -0.2478068,0.044151 -0.321936,0.06146 -0.3727068,0.08621 -0.050367,0.02455 -0.1590587,0.1194924 -0.5282451,0.4614765 -0.5425333,0.50256 -0.5286991,0.4852829 -0.5286113,0.6577387 4.52e-5,0.088984 0.00328,0.1067101 0.02898,0.1555389 0.055512,0.10549 0.134756,0.1716718 0.2395443,0.199926 0.026567,0.00714 0.068257,0.01318 0.092443,0.013572 0.060125,9.975e-4 0.1651982,-0.033213 0.2127651,-0.069334 0.033152,-0.025179 0.6353287,-0.5759775 0.7688908,-0.7032266 0.038854,-0.037019 0.052071,-0.042091 0.1426994,-0.057961 0.054927,-0.00961 0.1012772,-0.018858 0.1030817,-0.020177 0.00181,-0.00132 0.010168,-0.056137 0.018707,-0.1221561 0.026449,-0.2045218 0.060329,-0.3642537 0.1170208,-0.550989 0.015456,-0.050907 0.025271,-0.095417 0.021641,-0.099045 -4.728e-4,-4.728e-4 -0.00314,-6.83e-4 -0.0077,-3.941e-4 z M 5.9556803,9.4818339 5.7660254,9.6414083 C 5.5252375,9.8438353 5.4844156,9.8840877 5.4516464,9.9510176 5.3556712,10.147043 4.9138675,11.129198 4.9039586,11.168549 c -0.015883,0.06309 -0.00672,0.166758 0.02054,0.229275 0.039455,0.09052 0.1318907,0.173973 0.2270721,0.205061 0.026813,0.0087 0.077391,0.01292 0.1287599,0.01099 0.072277,-0.0028 0.094031,-0.0081 0.1511366,-0.03852 0.1155522,-0.0616 0.1222601,-0.07323 0.398385,-0.679013 0.2163863,-0.474719 0.2578905,-0.557726 0.2927373,-0.589499 l 0.040353,-0.03706 -0.051724,-0.153338 C 6.0518601,9.9410493 6.0110721,9.7846952 5.978423,9.6061916 Z m 5.0117267,0.00223 c -0.0013,0.00205 -0.01126,0.053563 -0.02164,0.1144531 -0.02644,0.1549798 -0.07986,0.3610861 -0.136828,0.528612 l -0.04844,0.142334 0.04219,0.03706 c 0.03721,0.03281 0.06977,0.09793 0.27953,0.557591 0.130623,0.286257 0.245615,0.536103 0.255319,0.555023 0.03978,0.07756 0.105827,0.137229 0.192223,0.173514 0.08331,0.035 0.202802,0.03132 0.289066,-0.0087 0.161362,-0.07507 0.253301,-0.276261 0.19956,-0.4369 -0.02284,-0.06829 -0.546075,-1.2081521 -0.573,-1.2483481 -0.02229,-0.033248 -0.471706,-0.4230221 -0.477986,-0.4145253 z" />
</svg>
