<?xml version="1.0" encoding="UTF-8" standalone="no"?>
<svg
   width="64"
   height="64"
   version="1.1"
   viewBox="0 0 16.933 16.933"
   id="svg7"
   sodipodi:docname="abcd.svg"
   inkscape:version="1.4.3 (0d15f75042, 2025-12-25)"
   xmlns:inkscape="http://www.inkscape.org/namespaces/inkscape"
   xmlns:sodipodi="http://sodipodi.sourceforge.net/DTD/sodipodi-0.dtd"
   xmlns="http://www.w3.org/2000/svg"
   xmlns:svg="http://www.w3.org/2000/svg"
   xmlns:rdf="http://www.w3.org/1999/02/22-rdf-syntax-ns#"
   xmlns:cc="http://creativecommons.org/ns#"
   xmlns:dc="http://purl.org/dc/elements/1.1/">
  <sodipodi:namedview
     id="namedview7"
     pagecolor="#9c4444"
     bordercolor="#000000"
     borderopacity="0.25"
     inkscape:showpageshadow="2"
     inkscape:pageopacity="0.0"
     inkscape:pagecheckerboard="0"
     inkscape:deskcolor="#d1d1d1"
     inkscape:zoom="4.3531261"
     inkscape:cx="32.160796"
     inkscape:cy="33.309396"
     inkscape:window-width="1226"
     inkscape:window-height="669"
     inkscape:window-x="100"
     inkscape:window-y="206"
     inkscape:window-maximized="0"
     inkscape:current-layer="svg7"
     showgrid="false" />
  <defs
     id="defs2">
    <filter
       style="color-interpolation-filters:sRGB;"
       inkscape:label="Blur"
       id="filter5421"
       x="-0.12256455"
       y="-0.12342654"
       width="1.2451291"
       height="1.2468531">
      <feGaussianBlur
         stdDeviation="0.5 0.5"
         result="blur"
         id="feGaussianBlur5419" />
    </filter>
  </defs>
  <metadata
     id="metadata2">
    <rdf:RDF>
      <cc:Work
         rdf:about="">
        <dc:format>image/svg+xml</dc:format>
        <dc:type
           rdf:resource="http://purl.org/dc/dcmitype/StillImage" />
      </cc:Work>
    </rdf:RDF>
  </metadata>
  <rect
     style="opacity:0.3;fill:none;fill-opacity:0.996424;stroke:#000000;stroke-width:0.955221;stroke-dasharray:none;stroke-opacity:1;filter:url(#filter5421)"
     id="rect1-2-7"
     width="13.687567"
     height="13.591975"
     x="1.6227165"
     y="1.6705122"
     rx="2.8442214"
     ry="2.965905" />
  <rect
     style="fill:none;fill-opacity:1;stroke:{{colors.primary.default.hex}};stroke-width:0.955221;stroke-dasharray:none;stroke-opacity:1"
     id="rect1-2"
     width="13.687567"
     height="13.591975"
     x="1.6227167"
     y="1.6705124"
     rx="2.8442214"
     ry="2.965905" />
  <path
     style="fill:{{colors.primary.default.hex}};fill-opacity:1;stroke:none;stroke-width:0.00561011;stroke-opacity:0.5"
     d="M 8.096228,12.427345 C 7.1452816,12.33258 6.2873411,11.920078 5.6219444,11.237692 5.0108524,10.611 4.6465151,9.8580901 4.5204137,8.9613566 c -0.028183,-0.2004094 -0.028183,-0.7869708 0,-0.9873799 C 4.587226,7.4988547 4.702892,7.1184259 4.9041957,6.7117006 5.1155581,6.2846516 5.3539312,5.9571273 5.6964701,5.6231148 6.3199345,5.0151694 7.0818085,4.6453065 7.9615856,4.5234797 8.14161,4.4985472 8.5934806,4.4892276 8.7939203,4.50631 c 0.7201473,0.061365 1.3867227,0.306158 1.9840467,0.7286236 0.351962,0.2489284 0.727847,0.6343743 0.975108,0.9999096 0.356328,0.5267714 0.566078,1.0802436 0.659543,1.7403624 0.02814,0.1987147 0.02814,0.7862116 0,0.9849257 -0.06458,0.4560569 -0.177766,0.8386652 -0.360935,1.2200247 -0.195118,0.406228 -0.423448,0.732255 -0.740635,1.057538 -0.327794,0.336162 -0.655935,0.576483 -1.071755,0.784921 -0.3990932,0.200055 -0.8000978,0.323159 -1.2685124,0.389418 -0.1533396,0.02169 -0.7123161,0.03148 -0.8745521,0.01531 z m 0.767621,-0.566607 c 0.3753696,-0.04135 0.7287961,-0.143829 1.0809013,-0.313417 0.3400747,-0.163796 0.6274687,-0.363861 0.8918697,-0.620867 0.318137,-0.309243 0.515949,-0.581994 0.705016,-0.9721067 0.233564,-0.4819222 0.33847,-0.9427066 0.33847,-1.486681 0,-0.5439735 -0.104906,-1.004758 -0.33847,-1.4866806 C 11.355408,6.5967333 11.156294,6.3206676 10.849272,6.0210476 10.675917,5.8518709 10.537737,5.7397002 10.344388,5.6111962 10.184899,5.505196 9.8346329,5.3267464 9.6633924,5.2642489 9.3242512,5.1404728 8.9755603,5.0714556 8.5927233,5.0523285 l -0.126228,-0.0063 v 0.3082937 0.3082937 l 0.058907,3.86e-5 c 0.1029612,6.66e-5 0.312087,0.023069 0.4645072,0.051089 1.0284825,0.1890782 1.8838375,0.9711125 2.1735385,1.9872282 0.209957,0.7364128 0.107803,1.5293141 -0.281856,2.1878068 -0.14382,0.2430375 -0.340221,0.4846745 -0.533243,0.6560485 -0.5012009,0.445007 -1.0844477,0.686955 -1.7444048,0.723631 l -0.1374484,0.0077 v 0.306609 0.306612 l 0.1262277,-0.0062 c 0.069425,-0.0036 0.191432,-0.01347 0.2711257,-0.02228 z M 8.7548419,10.728115 C 9.5190087,10.628512 10.173121,10.162581 10.510572,9.4774871 11.067144,8.3475422 10.599039,6.9713687 9.470706,6.4204024 9.1896705,6.2831727 8.8150131,6.1899604 8.544462,6.1899604 H 8.466496 v 0.3126293 0.3126288 l 0.109397,0.00776 c 0.295966,0.02103 0.57228,0.1181654 0.8274928,0.2908966 0.1313586,0.088905 0.3286888,0.2866311 0.4190871,0.4199263 0.2033791,0.2998913 0.3060851,0.6556954 0.2890011,1.001174 C 10.090345,8.9621057 9.9275848,9.3306025 9.6282386,9.6290148 9.343967,9.9124016 9.0094855,10.069709 8.6095534,10.108102 l -0.1430581,0.01373 v 0.311766 0.311764 h 0.077967 c 0.042883,0 0.1375525,-0.008 0.2103794,-0.01726 z m 0.00337,-1.1564997 c 0.3895921,-0.097926 0.709846,-0.4192746 0.815048,-0.8178332 0.025902,-0.098155 0.029617,-0.1339743 0.029617,-0.2861158 0,-0.1521407 -0.00371,-0.1879604 -0.029617,-0.2861157 C 9.4491107,7.7111811 9.0444748,7.3709996 8.5590613,7.3288964 l -0.092567,-0.00802 v 1.1467994 1.1467988 l 0.092566,-0.00803 c 0.050911,-0.00443 0.140533,-0.020087 0.1991591,-0.034823 z"
     id="path7" />
</svg>
