<?xml version="1.0" encoding="UTF-8" standalone="no"?>
<svg
   width="64"
   height="64"
   version="1.1"
   viewBox="0 0 16.933 16.933"
   id="svg7"
   sodipodi:docname="abcd.svg"
   inkscape:version="1.4.3 (0d15f75042, 2025-12-25)"
   xmlns:inkscape="http://www.inkscape.org/namespaces/inkscape"
   xmlns:sodipodi="http://sodipodi.sourceforge.net/DTD/sodipodi-0.dtd"
   xmlns="http://www.w3.org/2000/svg"
   xmlns:svg="http://www.w3.org/2000/svg"
   xmlns:rdf="http://www.w3.org/1999/02/22-rdf-syntax-ns#"
   xmlns:cc="http://creativecommons.org/ns#"
   xmlns:dc="http://purl.org/dc/elements/1.1/">
  <sodipodi:namedview
     id="namedview7"
     pagecolor="#9c4444"
     bordercolor="#000000"
     borderopacity="0.25"
     inkscape:showpageshadow="2"
     inkscape:pageopacity="0.0"
     inkscape:pagecheckerboard="0"
     inkscape:deskcolor="#d1d1d1"
     inkscape:zoom="4.3531261"
     inkscape:cx="43.417074"
     inkscape:cy="20.904517"
     inkscape:window-width="1226"
     inkscape:window-height="669"
     inkscape:window-x="75"
     inkscape:window-y="151"
     inkscape:window-maximized="0"
     inkscape:current-layer="svg7"
     showgrid="false" />
  <defs
     id="defs2">
    <filter
       style="color-interpolation-filters:sRGB;"
       inkscape:label="Blur"
       id="filter5421"
       x="-0.12256455"
       y="-0.12342654"
       width="1.2451291"
       height="1.2468531">
      <feGaussianBlur
         stdDeviation="0.5 0.5"
         result="blur"
         id="feGaussianBlur5419" />
    </filter>
  </defs>
  <metadata
     id="metadata2">
    <rdf:RDF>
      <cc:Work
         rdf:about="">
        <dc:format>image/svg+xml</dc:format>
        <dc:type
           rdf:resource="http://purl.org/dc/dcmitype/StillImage" />
      </cc:Work>
    </rdf:RDF>
  </metadata>
  <rect
     style="opacity:0.3;fill:none;fill-opacity:0.996424;stroke:#000000;stroke-width:0.955221;stroke-dasharray:none;stroke-opacity:1;filter:url(#filter5421)"
     id="rect1-2-7"
     width="13.687567"
     height="13.591975"
     x="1.6227165"
     y="1.6705122"
     rx="2.8442214"
     ry="2.965905" />
  <rect
     style="fill:none;fill-opacity:1;stroke:{{colors.primary.default.hex}};stroke-width:0.955221;stroke-dasharray:none;stroke-opacity:1"
     id="rect1-2"
     width="13.687567"
     height="13.591975"
     x="1.6227167"
     y="1.6705124"
     rx="2.8442214"
     ry="2.965905" />
  <g
     id="g1"
     transform="matrix(0.24952693,0,0,0.24952693,0.48513328,0.48015298)"
     style="fill:{{colors.primary.default.hex}};fill-opacity:1">
    <path
       style="fill:{{colors.primary.default.hex}};fill-opacity:1;stroke:none;stroke-width:0.400949;stroke-dasharray:none;stroke-opacity:0.6"
       d="m 31.986048,16.097071 c -4.893786,0.002 -9.513681,2.261465 -12.523359,6.124919 l 4.737228,8.212957 c 0.74697,-3.712019 4.004005,-6.38229 7.786131,-6.383437 H 45.730944 C 42.895371,19.134332 37.657195,16.102897 31.986048,16.097071 Z m -13.748881,7.974327 c -1.395586,2.411421 -2.133956,5.147586 -2.141183,7.934551 0.01319,7.927111 5.853394,14.634977 13.695247,15.7299 l 4.735237,-8.193067 c -0.8185,0.276546 -1.676569,0.417597 -2.540421,0.4176 -2.834865,-0.0036 -5.453034,-1.519241 -6.870467,-3.977215 h -0.012 z m 18.990617,1.96872 c 1.715147,1.507559 2.699899,3.680787 2.703288,5.965831 -0.0019,1.396856 -0.371115,2.768588 -1.070589,3.977218 h 0.0076 l -6.878201,11.93166 c 8.774303,-0.0022 15.886129,-7.124184 15.88613,-15.908878 -0.0039,-2.045547 -0.40181,-4.071144 -1.171897,-5.965831 z"
       id="path2-50"
       sodipodi:nodetypes="cccccccccccccccccccccc" />
    <path
       style="fill:{{colors.primary.default.hex}};fill-opacity:1;stroke:none;stroke-width:0.171647;stroke-dasharray:none;stroke-opacity:0.6"
       d="m 27.748986,36.862632 c -0.229269,-0.09275 -0.422089,-0.39167 -0.461725,-0.715802 -0.02065,-0.16877 -0.02912,-1.304361 -0.01886,-2.523537 0.01705,-2.023858 0.02784,-2.230197 0.124165,-2.372074 0.156815,-0.23097 0.43992,-0.340443 0.880408,-0.340443 h 0.384934 l 7.22e-4,-1.181258 c 8.91e-4,-1.58089 0.122852,-2.018469 0.738875,-2.651705 0.566786,-0.582622 1.459803,-0.890044 2.585457,-0.890044 1.055131,0 1.873862,0.258344 2.423057,0.764577 0.383698,0.353679 0.58242,0.665329 0.762233,1.195378 0.142044,0.418713 0.158221,0.55969 0.184857,1.610961 l 0.0292,1.152091 0.385766,2.19e-4 c 0.283955,1.6e-4 0.436719,0.03128 0.578856,0.117944 0.354587,0.216184 0.361075,0.268134 0.361075,2.889916 0,2.623613 -0.0053,2.665213 -0.374501,2.890297 -0.171481,0.104579 -0.368461,0.109403 -4.321364,0.106089 -2.277938,-0.0019 -4.196342,-0.0256 -4.263126,-0.0526 z m 6.275638,-6.999676 c 0,-0.915115 -0.0152,-1.088489 -0.120151,-1.368951 -0.147176,-0.393358 -0.515993,-0.739418 -0.949078,-0.890519 -0.363808,-0.126933 -1.451823,-0.145699 -1.827472,-0.03154 -0.43764,0.133016 -0.787423,0.417096 -0.981184,0.796874 -0.174984,0.342978 -0.176456,0.353859 -0.195442,1.44376 l -0.01912,1.098178 h 2.046228 2.046226 z"
       id="path53" />
  </g>
</svg>
