<?xml version="1.0" encoding="UTF-8" standalone="no"?>
<svg
   width="64"
   height="64"
   version="1.1"
   viewBox="0 0 16.933 16.933"
   id="svg7"
   sodipodi:docname="abcd.svg"
   inkscape:version="1.4.3 (0d15f75042, 2025-12-25)"
   xmlns:inkscape="http://www.inkscape.org/namespaces/inkscape"
   xmlns:sodipodi="http://sodipodi.sourceforge.net/DTD/sodipodi-0.dtd"
   xmlns="http://www.w3.org/2000/svg"
   xmlns:svg="http://www.w3.org/2000/svg"
   xmlns:rdf="http://www.w3.org/1999/02/22-rdf-syntax-ns#"
   xmlns:cc="http://creativecommons.org/ns#"
   xmlns:dc="http://purl.org/dc/elements/1.1/">
  <sodipodi:namedview
     id="namedview7"
     pagecolor="#9c4444"
     bordercolor="#000000"
     borderopacity="0.25"
     inkscape:showpageshadow="2"
     inkscape:pageopacity="0.0"
     inkscape:pagecheckerboard="0"
     inkscape:deskcolor="#d1d1d1"
     inkscape:zoom="4.3531261"
     inkscape:cx="33.309396"
     inkscape:cy="31.471636"
     inkscape:window-width="1226"
     inkscape:window-height="669"
     inkscape:window-x="100"
     inkscape:window-y="206"
     inkscape:window-maximized="0"
     inkscape:current-layer="svg7"
     showgrid="false" />
  <defs
     id="defs2">
    <filter
       style="color-interpolation-filters:sRGB;"
       inkscape:label="Blur"
       id="filter5421"
       x="-0.12256455"
       y="-0.12342654"
       width="1.2451291"
       height="1.2468531">
      <feGaussianBlur
         stdDeviation="0.5 0.5"
         result="blur"
         id="feGaussianBlur5419" />
    </filter>
  </defs>
  <metadata
     id="metadata2">
    <rdf:RDF>
      <cc:Work
         rdf:about="">
        <dc:format>image/svg+xml</dc:format>
        <dc:type
           rdf:resource="http://purl.org/dc/dcmitype/StillImage" />
      </cc:Work>
    </rdf:RDF>
  </metadata>
  <rect
     style="opacity:0.3;fill:none;fill-opacity:0.996424;stroke:#000000;stroke-width:0.955221;stroke-dasharray:none;stroke-opacity:1;filter:url(#filter5421)"
     id="rect1-2-7"
     width="13.687567"
     height="13.591975"
     x="1.6227165"
     y="1.6705122"
     rx="2.8442214"
     ry="2.965905" />
  <rect
     style="fill:none;fill-opacity:1;stroke:{{colors.primary.default.hex}};stroke-width:0.955221;stroke-dasharray:none;stroke-opacity:1"
     id="rect1-2"
     width="13.687567"
     height="13.591975"
     x="1.6227167"
     y="1.6705124"
     rx="2.8442214"
     ry="2.965905" />
  <path
     id="path11"
     style="fill:{{colors.primary.default.hex}};fill-opacity:1;stroke:none;stroke-width:0.132432;stroke-dasharray:none;stroke-opacity:0.6"
     d="M 8.4963182,4.4903775 C 8.3885399,4.4870912 8.2803958,4.5000441 8.1947298,4.5296923 8.0816998,4.5688088 5.3531312,6.137405 5.2154115,6.2424497 5.1731539,6.274681 5.0973302,6.362926 5.046885,6.4384682 4.8821117,6.6852177 4.8812301,6.6963036 4.8813829,8.4503401 c 7.82e-5,0.8940837 0.00968,1.6080679 0.022816,1.6882879 0.030118,0.183927 0.1160427,0.354481 0.2446798,0.484961 0.077926,0.07906 0.4613617,0.312947 1.4900716,0.908614 0.7618341,0.441134 1.4430253,0.825991 1.5137154,0.855278 0.1788432,0.0741 0.4515983,0.07418 0.6312182,3.25e-4 0.070728,-0.02911 0.7517583,-0.413801 1.5137191,-0.855004 0.984908,-0.570301 1.415127,-0.832022 1.488145,-0.905039 0.122841,-0.122844 0.21347,-0.298994 0.246878,-0.480288 0.016,-0.0868 0.022,-0.7020392 0.01759,-1.7759884 l -0.0066,-1.643207 -0.05471,-0.1355358 C 11.876614,6.3144519 11.832725,6.2831911 10.314374,5.4039875 9.5560616,4.9648862 8.8728101,4.5795777 8.7959851,4.5478837 8.7115796,4.5130617 8.6041004,4.4937042 8.4963213,4.4904251 Z m 0.1880462,1.0581711 c 0.00964,3.993e-4 0.522347,0.2929996 1.1392735,0.6501884 l 1.1216761,0.6493622 0.0062,1.3130232 c 0.004,0.8686025 -0.002,1.3127482 -0.01759,1.3127482 -0.01294,0 -0.212616,-0.1071024 -0.444,-0.2380824 L 10.068863,8.9977073 V 8.4530881 c 0,-0.2995873 -0.0058,-0.5448929 -0.01321,-0.5448929 -0.02456,0 -1.1900179,0.6870184 -1.2074527,0.7117703 -0.022667,0.032183 -0.022932,1.268826 -2.495e-4,1.2827831 C 8.8575922,9.9086196 9.0847985,9.7831144 9.352977,9.623702 9.6211534,9.4642896 9.8524953,9.3338411 9.8670779,9.3339354 9.8928799,9.3341057 10.693422,9.7874416 10.72978,9.8224697 10.739812,9.832115 10.445366,10.014 10.075467,10.226877 9.7055751,10.439757 9.2083428,10.726619 8.9705669,10.864145 8.7327919,11.001672 8.5224806,11.121959 8.5032014,11.131643 8.479414,11.143583 8.1152025,10.943621 7.3699781,10.509498 6.765906,10.157597 6.2574156,9.8612354 6.2400595,9.8507872 6.2184005,9.8377489 6.3421197,9.753612 6.6342967,9.5827396 6.8684412,9.4458038 7.0709635,9.3336604 7.0846172,9.3336604 c 0.013647,0 0.2379944,0.1261863 0.4984311,0.2804194 0.2604441,0.1542323 0.4845747,0.2804209 0.4981631,0.2804209 0.016766,0 0.024743,-0.2058859 0.024743,-0.6408423 V 8.6125427 L 8.041605,8.5682801 C 7.9087007,8.4766474 6.9212394,7.9081949 6.8949107,7.9081949 c -0.020251,0 -0.027592,0.1430697 -0.028042,0.5435181 l -5.744e-4,0.5432446 -0.3090106,0.1743 C 6.3873208,9.2652165 6.1928584,9.3738906 6.1253816,9.4106382 L 6.0027666,9.4774439 6.0033406,8.1611216 6.003615,6.8450751 7.1173203,6.2023103 C 7.7298649,5.8488596 8.2397048,5.5561317 8.2502694,5.5518471 8.2608323,5.5475602 8.269517,5.7746533 8.269517,6.0563273 V 6.5685052 L 7.8326674,6.8255571 C 7.5923992,6.9669326 7.3924467,7.0924481 7.3883959,7.1046014 7.3798269,7.1303245 8.4340041,7.7446175 8.4867048,7.7446175 8.5406714,7.7446178 9.5656601,7.1448842 9.5720931,7.10955 9.5754491,7.0912072 9.3927298,6.974209 9.1225964,6.8217079 L 8.6670456,6.5646563 V 6.0563274 C 8.6669667,5.776781 8.6747216,5.548225 8.6843707,5.5485486 Z" />
</svg>
