<?xml version="1.0" encoding="UTF-8" standalone="no"?>
<svg
   width="64"
   height="64"
   version="1.1"
   viewBox="0 0 16.933 16.933"
   id="svg7"
   sodipodi:docname="abcd.svg"
   inkscape:version="1.4.3 (0d15f75042, 2025-12-25)"
   xmlns:inkscape="http://www.inkscape.org/namespaces/inkscape"
   xmlns:sodipodi="http://sodipodi.sourceforge.net/DTD/sodipodi-0.dtd"
   xmlns="http://www.w3.org/2000/svg"
   xmlns:svg="http://www.w3.org/2000/svg"
   xmlns:rdf="http://www.w3.org/1999/02/22-rdf-syntax-ns#"
   xmlns:cc="http://creativecommons.org/ns#"
   xmlns:dc="http://purl.org/dc/elements/1.1/">
  <sodipodi:namedview
     id="namedview7"
     pagecolor="#9c4444"
     bordercolor="#000000"
     borderopacity="0.25"
     inkscape:showpageshadow="2"
     inkscape:pageopacity="0.0"
     inkscape:pagecheckerboard="0"
     inkscape:deskcolor="#d1d1d1"
     inkscape:zoom="4.3531261"
     inkscape:cx="40.200995"
     inkscape:cy="23.201717"
     inkscape:window-width="1226"
     inkscape:window-height="669"
     inkscape:window-x="77"
     inkscape:window-y="131"
     inkscape:window-maximized="0"
     inkscape:current-layer="svg7"
     showgrid="false" />
  <defs
     id="defs2">
    <filter
       style="color-interpolation-filters:sRGB;"
       inkscape:label="Blur"
       id="filter5421"
       x="-0.12256455"
       y="-0.12342654"
       width="1.2451291"
       height="1.2468531">
      <feGaussianBlur
         stdDeviation="0.5 0.5"
         result="blur"
         id="feGaussianBlur5419" />
    </filter>
  </defs>
  <metadata
     id="metadata2">
    <rdf:RDF>
      <cc:Work
         rdf:about="">
        <dc:format>image/svg+xml</dc:format>
        <dc:type
           rdf:resource="http://purl.org/dc/dcmitype/StillImage" />
      </cc:Work>
    </rdf:RDF>
  </metadata>
  <rect
     style="opacity:0.3;fill:none;fill-opacity:0.996424;stroke:#000000;stroke-width:0.955221;stroke-dasharray:none;stroke-opacity:1;filter:url(#filter5421)"
     id="rect1-2-7"
     width="13.687567"
     height="13.591975"
     x="1.6227165"
     y="1.6705122"
     rx="2.8442214"
     ry="2.965905" />
  <rect
     style="fill:none;fill-opacity:1;stroke:{{colors.primary.default.hex}};stroke-width:0.955221;stroke-dasharray:none;stroke-opacity:1"
     id="rect1-2"
     width="13.687567"
     height="13.591975"
     x="1.6227167"
     y="1.6705124"
     rx="2.8442214"
     ry="2.965905" />
  <path
     style="fill:{{colors.primary.default.hex}};fill-opacity:1;stroke:none;stroke-width:0.123146;stroke-dasharray:none;stroke-opacity:0.6"
     d="m 6.7303622,11.730257 v -0.772741 l -0.064661,-0.01622 C 6.57453,10.918401 6.2418142,10.749702 6.1076591,10.658334 5.6194636,10.325841 5.2360644,9.7781067 5.072852,9.1799791 L 5.0070541,8.9388486 5.0067915,7.7452527 5.0064762,6.5516574 5.0726095,6.3105272 C 5.1990349,5.8495624 5.4275714,5.4514127 5.7519041,5.1270802 6.0621654,4.816819 6.4267941,4.6019067 6.8441124,4.4833331 c 0.1841729,-0.052331 0.214579,-0.053329 1.6224166,-0.053329 1.4078373,0 1.4382426,0.00103 1.622415,0.053328 0.417319,0.1185736 0.781948,0.3334859 1.092209,0.6437472 0.324334,0.3243324 0.552869,0.7224821 0.679294,1.1834469 l 0.06613,0.2411302 -2.63e-4,1.1935953 -2.62e-4,1.1935959 -0.06427,0.234036 c -0.199466,0.7264175 -0.677909,1.3280964 -1.306428,1.6429304 -0.44376,0.222288 -0.6565822,0.257038 -1.5741596,0.257038 H 8.2723298 L 7.5547034,11.74199 C 7.160009,12.110016 6.8130873,12.431797 6.783766,12.457062 l -0.053311,0.04594 z M 9.6247526,9.9008895 C 9.7305906,9.8694591 9.7877268,9.8294071 9.930704,9.6864339 10.205485,9.4116527 10.283998,9.1871706 10.167503,9.0093777 10.112672,8.9256966 9.7512601,8.6415856 9.5277965,8.5064961 9.3054364,8.3720733 9.1518867,8.340729 9.028445,8.4045641 8.988305,8.4253195 8.8986271,8.5079102 8.8291614,8.5880961 8.7172609,8.7172641 8.6928218,8.7338136 8.6148223,8.7332348 8.5024831,8.7323944 8.2529155,8.6260862 8.0671093,8.4999073 7.7926956,8.3135566 7.5235083,7.9760015 7.3894396,7.6501236 7.3072796,7.4504219 7.3144189,7.3712915 7.4229175,7.2790192 7.6740805,7.0654168 7.7198159,6.9814741 7.6852943,6.7974553 7.6536095,6.6285618 7.1971171,5.9869388 7.0371488,5.886453 6.9224195,5.8143857 6.7651633,5.8344468 6.6039905,5.9417127 6.3269284,6.1261062 6.1275364,6.3965214 6.1275364,6.5878793 c 0,0.1338908 0.087058,0.3633519 0.2881592,0.7595083 0.4678578,0.9216495 0.9418245,1.4687147 1.7001075,1.9623116 0.425166,0.2767582 1.1629755,0.6259389 1.3289287,0.628939 0.027433,4.997e-4 0.108442,-0.016488 0.1800208,-0.037733 z M 9.9298139,7.2587884 c 0.046018,-0.043231 0.055822,-0.077208 0.055822,-0.1936649 0,-0.4380858 -0.3174712,-0.8315596 -0.7630418,-0.9457129 -0.3112817,-0.07975 -0.466724,-0.033405 -0.466724,0.1391529 0,0.1094058 0.066309,0.1630465 0.2340806,0.189355 0.3734189,0.058559 0.5682664,0.2509109 0.611844,0.6040115 0.01627,0.13183 0.034189,0.1852827 0.072761,0.2170901 0.070508,0.058137 0.1874867,0.053449 0.255272,-0.010228 z m 0.8164651,-0.00676 c 0.07172,-0.071712 0.07723,-0.1927365 0.02297,-0.5038958 C 10.667496,6.1646472 10.34158,5.7188558 9.834911,5.4701351 9.5598664,5.3351177 9.3889431,5.2891404 9.0934419,5.2706856 8.8814904,5.2574449 8.8603134,5.2602475 8.8101141,5.3081575 c -0.03584,0.034204 -0.054254,0.080105 -0.054254,0.1352344 0,0.1346608 0.055429,0.168413 0.3277129,0.1995538 0.2905227,0.033226 0.4923422,0.098833 0.6828905,0.2219907 0.2507105,0.162042 0.4351665,0.3795286 0.5340785,0.6297173 0.06052,0.1530947 0.119117,0.4415123 0.119117,0.5863557 0,0.2095088 0.189113,0.3085274 0.326623,0.1710175 z"
     id="path7" />
</svg>
