<?xml version="1.0" encoding="UTF-8" standalone="no"?>
<svg
   width="64"
   height="64"
   version="1.1"
   viewBox="0 0 16.933 16.933"
   id="svg7"
   sodipodi:docname="abcd.svg"
   inkscape:version="1.4.3 (0d15f75042, 2025-12-25)"
   xmlns:inkscape="http://www.inkscape.org/namespaces/inkscape"
   xmlns:sodipodi="http://sodipodi.sourceforge.net/DTD/sodipodi-0.dtd"
   xmlns="http://www.w3.org/2000/svg"
   xmlns:svg="http://www.w3.org/2000/svg"
   xmlns:rdf="http://www.w3.org/1999/02/22-rdf-syntax-ns#"
   xmlns:cc="http://creativecommons.org/ns#"
   xmlns:dc="http://purl.org/dc/elements/1.1/">
  <sodipodi:namedview
     id="namedview7"
     pagecolor="#9c4444"
     bordercolor="#000000"
     borderopacity="0.25"
     inkscape:showpageshadow="2"
     inkscape:pageopacity="0.0"
     inkscape:pagecheckerboard="0"
     inkscape:deskcolor="#d1d1d1"
     inkscape:zoom="4.3531261"
     inkscape:cx="40.200995"
     inkscape:cy="23.201717"
     inkscape:window-width="1226"
     inkscape:window-height="669"
     inkscape:window-x="77"
     inkscape:window-y="131"
     inkscape:window-maximized="0"
     inkscape:current-layer="svg7"
     showgrid="false" />
  <defs
     id="defs2">
    <filter
       style="color-interpolation-filters:sRGB;"
       inkscape:label="Blur"
       id="filter5421"
       x="-0.12256455"
       y="-0.12342654"
       width="1.2451291"
       height="1.2468531">
      <feGaussianBlur
         stdDeviation="0.5 0.5"
         result="blur"
         id="feGaussianBlur5419" />
    </filter>
  </defs>
  <metadata
     id="metadata2">
    <rdf:RDF>
      <cc:Work
         rdf:about="">
        <dc:format>image/svg+xml</dc:format>
        <dc:type
           rdf:resource="http://purl.org/dc/dcmitype/StillImage" />
      </cc:Work>
    </rdf:RDF>
  </metadata>
  <rect
     style="opacity:0.3;fill:none;fill-opacity:0.996424;stroke:#000000;stroke-width:0.955221;stroke-dasharray:none;stroke-opacity:1;filter:url(#filter5421)"
     id="rect1-2-7"
     width="13.687567"
     height="13.591975"
     x="1.6227165"
     y="1.6705122"
     rx="2.8442214"
     ry="2.965905" />
  <rect
     style="fill:none;fill-opacity:1;stroke:{{colors.primary.default.hex}};stroke-width:0.955221;stroke-dasharray:none;stroke-opacity:1"
     id="rect1-2"
     width="13.687567"
     height="13.591975"
     x="1.6227167"
     y="1.6705124"
     rx="2.8442214"
     ry="2.965905" />
  <path
     d="m 4.5588507,5.9098893 3.2651304,6.3293167 c 0,0 0.1770015,0.339256 0.6218837,0.339256 0.4436923,0 0.6206943,-0.339256 0.6206943,-0.339256 0,0 2.2691869,-3.8134144 3.1955179,-5.847642 0.09323,-0.2045917 0.193522,-0.4117699 0.236011,-0.6344995 a 0.98530171,1.0811898 0 0 0 0.0081,-0.4661455 0.91098224,0.9996375 0 0 0 -0.244264,-0.5024123 0.97120675,1.0657234 0 0 0 -0.547535,-0.2615644 1.1364146,1.2470088 0 0 0 -0.631317,0.1398407 0.82601967,0.90640656 0 0 0 -0.32687,0.3470316 1.0030401,1.1006545 0 0 0 -0.102659,0.4816949 1.1965335,1.3129785 0 0 0 0.06725,0.450615 c 0.03067,0.09196 0.07079,0.1812758 0.102659,0.2719284 0.0248,0.077753 0.06137,0.1514889 0.06843,0.2330732 a 0.75521912,0.82871579 0 0 1 -0.03309,0.3897474 C 10.646616,7.4339394 10.279621,8.0023423 9.7946117,8.3507098 9.5940013,8.4944334 9.3367561,8.5306902 9.0983887,8.5423489 8.8246214,8.5552926 8.5083679,8.531824 8.2877003,8.3986139 8.0658555,8.266538 7.9620131,8.0360537 7.8227708,7.8340503 7.1855543,6.9056228 6.1435564,4.8726683 6.1435564,4.8726683 c 0,0 -0.453137,-0.8792195 -1.2685425,-0.3470205 C 4.0607878,5.0591301 4.5575813,5.911119 4.5575813,5.911119 Z"
     fill="url(#linearGradient984)"
     fill-rule="evenodd"
     id="path20-7"
     style="fill:{{colors.primary.default.hex}};fill-opacity:1;stroke:none;stroke-width:0.130608;stroke-dasharray:none;stroke-opacity:0.6" />
</svg>
