<?xml version="1.0" encoding="UTF-8" standalone="no"?>
<svg
   width="64"
   height="64"
   version="1.1"
   viewBox="0 0 16.933 16.933"
   id="svg7"
   sodipodi:docname="abcd.svg"
   inkscape:version="1.4.3 (0d15f75042, 2025-12-25)"
   xmlns:inkscape="http://www.inkscape.org/namespaces/inkscape"
   xmlns:sodipodi="http://sodipodi.sourceforge.net/DTD/sodipodi-0.dtd"
   xmlns="http://www.w3.org/2000/svg"
   xmlns:svg="http://www.w3.org/2000/svg"
   xmlns:rdf="http://www.w3.org/1999/02/22-rdf-syntax-ns#"
   xmlns:cc="http://creativecommons.org/ns#"
   xmlns:dc="http://purl.org/dc/elements/1.1/">
  <sodipodi:namedview
     id="namedview7"
     pagecolor="#9c4444"
     bordercolor="#000000"
     borderopacity="0.25"
     inkscape:showpageshadow="2"
     inkscape:pageopacity="0.0"
     inkscape:pagecheckerboard="0"
     inkscape:deskcolor="#d1d1d1"
     inkscape:zoom="4.3531261"
     inkscape:cx="43.417074"
     inkscape:cy="20.674797"
     inkscape:window-width="1226"
     inkscape:window-height="669"
     inkscape:window-x="0"
     inkscape:window-y="161"
     inkscape:window-maximized="0"
     inkscape:current-layer="svg7"
     showgrid="false" />
  <defs
     id="defs2">
    <filter
       style="color-interpolation-filters:sRGB;"
       inkscape:label="Blur"
       id="filter5421"
       x="-0.12256455"
       y="-0.12342654"
       width="1.2451291"
       height="1.2468531">
      <feGaussianBlur
         stdDeviation="0.5 0.5"
         result="blur"
         id="feGaussianBlur5419" />
    </filter>
  </defs>
  <metadata
     id="metadata2">
    <rdf:RDF>
      <cc:Work
         rdf:about="">
        <dc:format>image/svg+xml</dc:format>
        <dc:type
           rdf:resource="http://purl.org/dc/dcmitype/StillImage" />
      </cc:Work>
    </rdf:RDF>
  </metadata>
  <rect
     style="opacity:0.3;fill:none;fill-opacity:0.996424;stroke:#000000;stroke-width:0.955221;stroke-dasharray:none;stroke-opacity:1;filter:url(#filter5421)"
     id="rect1-2-7"
     width="13.687567"
     height="13.591975"
     x="1.6227165"
     y="1.6705122"
     rx="2.8442214"
     ry="2.965905" />
  <rect
     style="fill:none;fill-opacity:1;stroke:{{colors.primary.default.hex}};stroke-width:0.955221;stroke-dasharray:none;stroke-opacity:1"
     id="rect1-2"
     width="13.687567"
     height="13.591975"
     x="1.6227167"
     y="1.6705124"
     rx="2.8442214"
     ry="2.965905" />
  <path
     id="path2"
     style="fill:{{colors.primary.default.hex}};fill-opacity:1;stroke:none;stroke-width:0.131001;stroke-dasharray:none;stroke-opacity:0.6"
     d="m 11.105842,4.4755133 c -0.01761,0.00117 -0.03068,0.00668 -0.03734,0.016884 -0.02,0.03055 -0.151349,0.2312174 -0.292195,0.4457128 L 10.51992,5.3280463 10.232842,5.1827165 C 10.075024,5.102746 9.9198607,5.0373861 9.8879357,5.0373861 c -0.031922,0 -0.1381477,0.116335 -0.2359053,0.2584212 L 9.4744617,5.5537164 8.7212023,5.5235252 C 7.8195816,5.4869567 7.2533494,5.6022493 6.4895689,5.9779372 4.6937482,6.8612646 3.9886085,8.9222602 4.9267602,10.54662 c 0.5247122,0.908512 1.6523432,1.668209 2.7484757,1.851421 1.1447,0.191329 2.3915801,-0.08388 3.2909051,-0.725626 1.655385,-1.181256 1.940593,-3.3206412 0.640681,-4.8066336 L 11.331513,6.5515819 11.492706,6.2624573 C 11.58137,6.1036501 11.638411,5.9482765 11.619101,5.9170428 11.599798,5.8858096 11.473168,5.804732 11.337652,5.7364038 11.202134,5.6680763 11.080576,5.6023916 11.067461,5.5905621 l -5.23e-4,-5.241e-4 -5.25e-4,-5.239e-4 V 5.5889902 5.588466 5.5879421 C 11.065273,5.5602572 11.176585,5.3684966 11.323299,5.1478584 11.623301,4.6966992 11.62487,4.7178975 11.274678,4.5286707 11.20605,4.4915865 11.144567,4.4728763 11.10581,4.4754517 Z M 8.0385607,6.3335877 c 0.099166,0.0017 0.2231666,0.00788 0.3878879,0.016377 0.9772458,0.050408 2.0453224,0.3912866 2.3774754,0.7583765 0.08589,0.094926 0.192486,0.4233839 0.339272,1.0459664 0.210923,0.8945814 0.212606,0.9108397 0.110534,1.1155609 -0.0752,0.1508498 -0.20076,0.2571126 -0.457482,0.3883993 L 10.443157,9.8389061 9.3531832,9.8506777 C 8.7537091,9.8572796 8.188267,9.8394291 8.0968979,9.8107584 8.0055288,9.7820922 7.7924538,9.6519447 7.6235518,9.521638 7.4546497,9.391331 7.121557,9.2052107 6.8830852,9.1081641 6.2872169,8.8656735 5.9339901,8.5071186 5.9374171,8.1481678 5.9417339,7.6960621 6.6839468,6.8479848 7.3722949,6.5091122 7.6654686,6.3647828 7.7410644,6.328455 8.0385607,6.3335905 Z M 9.6745461,7.5642865 C 9.4539018,7.5600146 9.281128,7.7042656 9.1423521,8.0023233 8.9616916,8.390337 8.9635429,8.5202674 9.1520737,8.7443245 9.2779208,8.893885 9.3474124,8.9255263 9.5496846,8.9244518 9.9160026,8.9224806 10.134312,8.7023874 10.241536,8.2269704 10.301246,7.962223 10.222946,7.7738754 10.006655,7.6620257 9.8852824,7.5992617 9.7748386,7.5662283 9.6745455,7.5642865 Z m -1.8637028,0.00717 C 7.5197298,7.5702538 7.349779,7.7803776 7.349779,8.1420227 c 0,0.1435788 0.02735,0.3124167 0.060895,0.3750947 C 7.5018388,8.687464 7.936203,8.675904 8.0989442,8.4986998 8.2577659,8.3257619 8.3139182,8.0465654 8.2325047,7.8324324 8.1502425,7.6160658 8.0800045,7.572579 7.8108433,7.5714523 Z M 6.7351969,9.2560512 c 0.2147433,0.00683 0.4135298,0.107426 0.5255416,0.2783785 0.078976,0.120534 0.08515,0.1892686 0.034286,0.3781641 C 7.2187058,10.196022 6.822474,10.819708 6.6359224,10.950374 6.146105,11.293455 5.3805527,10.547606 5.6626209,10.002147 5.8008849,9.7347731 6.2549586,9.3518782 6.5177137,9.2811255 c 0.07252,-0.01953 0.145902,-0.027354 0.2174832,-0.025074 z M 8.1096911,10.12189 c 0.1672679,0.0017 0.3169644,0.06979 0.3996569,0.195991 0.1236009,0.188639 0.1806636,1.00811 0.082899,1.190785 -0.057192,0.106865 -0.1172847,0.126 -0.3756065,0.120255 -0.3594917,-0.008 -0.4749855,-0.03209 -0.7343259,-0.153008 -0.1713539,-0.0799 -0.1913852,-0.115302 -0.1913852,-0.3362 0,-0.362365 0.2478693,-0.823212 0.5091664,-0.947206 0.1027486,-0.04876 0.2092329,-0.07164 0.3095936,-0.07061 z m 1.4783736,0.0021 c 0.2033523,-0.0037 0.3357021,0.10022 0.4989323,0.35616 0.342025,0.536285 0.314199,0.66261 -0.1744979,0.796244 -0.3019057,0.08255 -0.8353105,0.08374 -0.8857966,0.0021 -0.021387,-0.03459 -0.053132,-0.216048 -0.070107,-0.403238 -0.038692,-0.426719 0.07284,-0.625067 0.4006807,-0.713345 0.087304,-0.0235 0.1630039,-0.03664 0.2307879,-0.03786 z" />
</svg>
