<?xml version="1.0" encoding="UTF-8" standalone="no"?>
<svg
   width="64"
   height="64"
   version="1.1"
   viewBox="0 0 16.933 16.933"
   id="svg7"
   sodipodi:docname="accessories-text-editor.svg"
   inkscape:version="1.4.3 (0d15f75042, 2025-12-25)"
   xmlns:inkscape="http://www.inkscape.org/namespaces/inkscape"
   xmlns:sodipodi="http://sodipodi.sourceforge.net/DTD/sodipodi-0.dtd"
   xmlns="http://www.w3.org/2000/svg"
   xmlns:svg="http://www.w3.org/2000/svg"
   xmlns:rdf="http://www.w3.org/1999/02/22-rdf-syntax-ns#"
   xmlns:cc="http://creativecommons.org/ns#"
   xmlns:dc="http://purl.org/dc/elements/1.1/">
  <sodipodi:namedview
     id="namedview7"
     pagecolor="#9c4444"
     bordercolor="#000000"
     borderopacity="0.25"
     inkscape:showpageshadow="2"
     inkscape:pageopacity="0.0"
     inkscape:pagecheckerboard="0"
     inkscape:deskcolor="#d1d1d1"
     inkscape:zoom="4.3531261"
     inkscape:cx="43.417074"
     inkscape:cy="20.674797"
     inkscape:window-width="1226"
     inkscape:window-height="669"
     inkscape:window-x="474"
     inkscape:window-y="225"
     inkscape:window-maximized="0"
     inkscape:current-layer="svg7"
     showgrid="false" />
  <defs
     id="defs2">
    <filter
       style="color-interpolation-filters:sRGB;"
       inkscape:label="Blur"
       id="filter5421"
       x="-0.12256455"
       y="-0.12342654"
       width="1.2451291"
       height="1.2468531">
      <feGaussianBlur
         stdDeviation="0.5 0.5"
         result="blur"
         id="feGaussianBlur5419" />
    </filter>
  </defs>
  <metadata
     id="metadata2">
    <rdf:RDF>
      <cc:Work
         rdf:about="">
        <dc:format>image/svg+xml</dc:format>
        <dc:type
           rdf:resource="http://purl.org/dc/dcmitype/StillImage" />
      </cc:Work>
    </rdf:RDF>
  </metadata>
  <rect
     style="opacity:0.3;fill:none;fill-opacity:0.996424;stroke:#000000;stroke-width:0.955221;stroke-dasharray:none;stroke-opacity:1;filter:url(#filter5421)"
     id="rect1-2-7"
     width="13.687567"
     height="13.591975"
     x="1.6227165"
     y="1.6705122"
     rx="2.8442214"
     ry="2.965905" />
  <rect
     style="fill:none;fill-opacity:1;stroke:{{colors.primary.default.hex}};stroke-width:0.955221;stroke-dasharray:none;stroke-opacity:1"
     id="rect1-2"
     width="13.687567"
     height="13.591975"
     x="1.6227167"
     y="1.6705124"
     rx="2.8442214"
     ry="2.965905" />
  <path
     style="fill:{{colors.primary.default.hex}};fill-opacity:1;stroke:none;stroke-width:0.124763;stroke-dasharray:none;stroke-opacity:0.6"
     d="M 11.611775,4.4947798 A 0.76712184,0.83615234 0 0 0 10.844652,5.330932 0.76712184,0.83615234 0 0 0 10.8806,5.582431 L 9.5636188,7.1567491 A 1.5342438,1.6723046 0 0 0 8.9268484,7.0032366 1.5342438,1.6723046 0 0 0 7.394103,8.6208321 L 5.5324837,8.9098926 C 5.4286936,8.7656701 5.2698933,8.681383 5.1017271,8.6812571 4.7990641,8.6814553 4.5538676,8.9490769 4.5541039,9.2789754 4.554274,9.6085546 4.7993562,9.8756843 5.1017271,9.8758783 5.32515,9.8757447 5.5261239,9.7277683 5.6096454,9.5018944 L 7.4750098,9.2112013 A 1.5342438,1.6723046 0 0 0 8.9268484,10.347847 1.5342438,1.6723046 0 0 0 10.461092,8.6755411 1.5342438,1.6723046 0 0 0 10.192899,7.7316039 l 1.315493,-1.5735015 a 0.76712184,0.83615234 0 0 0 0.103383,0.00898 0.76712184,0.83615234 0 0 0 0.767122,-0.8361522 0.76712184,0.83615234 0 0 0 -0.767122,-0.8361504 z M 7.2008241,4.9128559 A 0.57534135,0.62711419 0 0 0 6.6254829,5.5399703 0.57534135,0.62711419 0 0 0 7.2008241,6.1670844 0.57534135,0.62711419 0 0 0 7.7761656,5.5399703 0.57534135,0.62711419 0 0 0 7.2008241,4.9128559 Z m 4.4109509,0 A 0.38356093,0.41807615 0 0 1 11.995336,5.330932 0.38356093,0.41807615 0 0 1 11.611775,5.7490084 0.38356093,0.41807615 0 0 1 11.228214,5.330932 0.38356093,0.41807615 0 0 1 11.611775,4.9128559 Z M 7.7222269,6.0715472 7.4383028,6.2993658 7.6285846,6.5957758 7.9125097,6.3671408 Z M 8.0061524,6.5141204 7.7229763,6.7427557 7.9724407,7.1322523 8.256366,6.9036175 Z m 0.920696,1.3252683 A 0.76712184,0.83615234 0 0 1 9.6939696,8.6755411 0.76712184,0.83615234 0 0 1 8.9268484,9.5116938 0.76712184,0.83615234 0 0 1 8.1597265,8.6755411 0.76712184,0.83615234 0 0 1 8.9268484,7.8393887 Z M 5.1017271,8.9801163 C 5.2532044,8.979987 5.3760312,9.1138667 5.3759134,9.2789754 5.3760316,9.4440839 5.2532044,9.577963 5.1017271,9.5778341 4.9505416,9.5775098 4.8281716,9.4437653 4.8282901,9.2789754 4.8281719,9.1141857 4.9505418,8.9804382 5.1017271,8.9801163 Z m 5.1548499,0.7838936 -0.2674436,0.2915091 0.3453536,0.378065 0.268943,-0.293143 z m 0.47121,0.5127961 -0.268193,0.292326 0.400792,0.436041 0.267444,-0.291511 z m -2.4751666,0.04491 -0.2389764,0.650796 0.3431072,0.130649 0.2382271,-0.649977 z m 3.2632646,0.444206 a 0.6712316,0.73163319 0 0 0 -0.671233,0.731633 0.6712316,0.73163319 0 0 0 0.671233,0.731634 0.6712316,0.73163319 0 0 0 0.671232,-0.731634 0.6712316,0.73163319 0 0 0 -0.671232,-0.731633 z m -3.5479391,0.418075 a 0.57534135,0.62711419 0 0 0 -0.5753412,0.627115 0.57534135,0.62711419 0 0 0 0.5753412,0.627114 0.57534135,0.62711419 0 0 0 0.5753415,-0.627114 0.57534135,0.62711419 0 0 0 -0.5753415,-0.627115 z"
     id="path8" />
</svg>
