<?xml version="1.0" encoding="UTF-8" standalone="no"?>
<svg
   width="64"
   height="64"
   version="1.1"
   viewBox="0 0 16.933 16.933"
   id="svg7"
   sodipodi:docname="abcd.svg"
   inkscape:version="1.4.3 (0d15f75042, 2025-12-25)"
   xmlns:inkscape="http://www.inkscape.org/namespaces/inkscape"
   xmlns:sodipodi="http://sodipodi.sourceforge.net/DTD/sodipodi-0.dtd"
   xmlns="http://www.w3.org/2000/svg"
   xmlns:svg="http://www.w3.org/2000/svg"
   xmlns:rdf="http://www.w3.org/1999/02/22-rdf-syntax-ns#"
   xmlns:cc="http://creativecommons.org/ns#"
   xmlns:dc="http://purl.org/dc/elements/1.1/">
  <sodipodi:namedview
     id="namedview7"
     pagecolor="#9c4444"
     bordercolor="#000000"
     borderopacity="0.25"
     inkscape:showpageshadow="2"
     inkscape:pageopacity="0.0"
     inkscape:pagecheckerboard="0"
     inkscape:deskcolor="#d1d1d1"
     inkscape:zoom="4.3531261"
     inkscape:cx="43.417074"
     inkscape:cy="20.904517"
     inkscape:window-width="1226"
     inkscape:window-height="669"
     inkscape:window-x="75"
     inkscape:window-y="151"
     inkscape:window-maximized="0"
     inkscape:current-layer="svg7"
     showgrid="false" />
  <defs
     id="defs2">
    <filter
       style="color-interpolation-filters:sRGB;"
       inkscape:label="Blur"
       id="filter5421"
       x="-0.12256455"
       y="-0.12342654"
       width="1.2451291"
       height="1.2468531">
      <feGaussianBlur
         stdDeviation="0.5 0.5"
         result="blur"
         id="feGaussianBlur5419" />
    </filter>
  </defs>
  <metadata
     id="metadata2">
    <rdf:RDF>
      <cc:Work
         rdf:about="">
        <dc:format>image/svg+xml</dc:format>
        <dc:type
           rdf:resource="http://purl.org/dc/dcmitype/StillImage" />
      </cc:Work>
    </rdf:RDF>
  </metadata>
  <rect
     style="opacity:0.3;fill:none;fill-opacity:0.996424;stroke:#000000;stroke-width:0.955221;stroke-dasharray:none;stroke-opacity:1;filter:url(#filter5421)"
     id="rect1-2-7"
     width="13.687567"
     height="13.591975"
     x="1.6227165"
     y="1.6705122"
     rx="2.8442214"
     ry="2.965905" />
  <rect
     style="fill:none;fill-opacity:1;stroke:{{colors.primary.default.hex}};stroke-width:0.955221;stroke-dasharray:none;stroke-opacity:1"
     id="rect1-2"
     width="13.687567"
     height="13.591975"
     x="1.6227167"
     y="1.6705124"
     rx="2.8442214"
     ry="2.965905" />
  <path
     d="m 8.4865323,4.4812077 c -2.211897,0 -4.0049939,1.7842777 -4.0049939,3.9852922 0,2.2010161 1.7930969,3.9852921 4.0049939,3.9852921 2.2118937,0 4.0049937,-1.784276 4.0049937,-3.9852921 0,-2.2010143 -1.7931,-3.9852922 -4.0049937,-3.9852922 z M 8.2004606,5.5842794 c 0.038276,-0.00399 0.086543,0.00225 0.1251646,0 0.00454,0.018229 -0.027875,0.083049 -0.071514,0.1779159 -0.2779807,0.6042615 -0.29375,1.3119357 -0.035767,1.6901909 0.046688,0.068579 0.089397,0.1338479 0.089397,0.1423328 0,0.00848 -0.050343,0.017751 -0.1072811,0.017751 C 8.06682,7.61247 7.9403519,7.531421 7.6819562,7.3278116 7.5671734,7.2373621 7.4179418,7.1613902 7.3601257,7.149891 7.2693458,7.131841 7.2451478,7.1397523 7.1276887,7.2566389 7.0184184,7.3653583 6.9846629,7.4239805 6.9846629,7.5235116 c 0,0.3774303 0.4503213,0.6774654 1.2873201,0.8539918 1.1366734,0.2397268 1.4168815,0.4549606 1.4482328,1.0496967 0.03936,0.7458069 -0.3596474,1.3081839 -1.2336811,1.7435659 -0.1043173,0.05198 -0.1707918,0.07214 -0.2145596,0.08895 -0.019455,-0.0018 -0.034276,0.0018 -0.053609,0 -0.00735,-0.02305 -0.01795,-0.07655 -0.01795,-0.177917 0,-0.396127 -0.1569089,-0.803862 -0.3933397,-1.031905 C 7.7436099,9.988684 7.5659023,9.8589763 7.4137258,9.7652366 7.2615525,9.6715023 7.1082293,9.5626142 7.0740143,9.516157 7.0173155,9.4390632 7.0126003,9.3917009 7.0560668,9.2492848 7.13545,8.9891754 7.2299511,8.8443044 7.4136505,8.6799568 7.5099658,8.5937951 7.6068662,8.5215408 7.6282105,8.5198328 7.6496173,8.5181256 7.5051223,8.4749691 7.2885014,8.4308761 7.0718789,8.386707 6.7550312,8.294179 6.5911881,8.2351791 6.2916253,8.1273211 5.8871792,7.9008935 5.7329686,7.7370185 5.7264783,7.7300684 5.72086,7.7253984 5.715021,7.7192679 5.935943,6.8436077 6.5559168,6.1259141 7.3778037,5.779996 7.549763,5.7076171 7.7270511,5.6579607 7.9141873,5.6198709 8.0073893,5.6009147 8.104008,5.5940252 8.2002577,5.5842891 Z m 2.6819134,1.3343618 c 0.06718,0.04133 0.320922,0.5875743 0.393348,0.8539905 0.09352,0.3439823 0.08673,0.9392485 0,1.2809878 -0.03301,0.1300558 -0.07533,0.2517277 -0.08939,0.2668722 -0.01406,0.015151 -0.06511,-0.072038 -0.125165,-0.1779159 C 11.001122,9.036716 10.809336,8.8117683 10.649941,8.6444152 10.189861,8.1613235 10.117514,7.9090833 10.310234,7.5235518 c 0.09718,-0.1944212 0.520134,-0.6368502 0.57214,-0.6049106 z"
     fill="#333333"
     id="path2-0"
     style="fill:{{colors.primary.default.hex}};fill-opacity:1;stroke:none;stroke-width:0.242284;stroke-dasharray:none;stroke-opacity:0.3" />
</svg>
