<?xml version="1.0" encoding="UTF-8" standalone="no"?>
<svg
   width="64"
   height="64"
   version="1.1"
   viewBox="0 0 16.933 16.933"
   id="svg7"
   sodipodi:docname="abcd.svg"
   inkscape:version="1.4.3 (0d15f75042, 2025-12-25)"
   xmlns:inkscape="http://www.inkscape.org/namespaces/inkscape"
   xmlns:sodipodi="http://sodipodi.sourceforge.net/DTD/sodipodi-0.dtd"
   xmlns="http://www.w3.org/2000/svg"
   xmlns:svg="http://www.w3.org/2000/svg"
   xmlns:rdf="http://www.w3.org/1999/02/22-rdf-syntax-ns#"
   xmlns:cc="http://creativecommons.org/ns#"
   xmlns:dc="http://purl.org/dc/elements/1.1/">
  <sodipodi:namedview
     id="namedview7"
     pagecolor="#9c4444"
     bordercolor="#000000"
     borderopacity="0.25"
     inkscape:showpageshadow="2"
     inkscape:pageopacity="0.0"
     inkscape:pagecheckerboard="0"
     inkscape:deskcolor="#d1d1d1"
     inkscape:zoom="4.3531261"
     inkscape:cx="43.417074"
     inkscape:cy="20.674797"
     inkscape:window-width="1226"
     inkscape:window-height="669"
     inkscape:window-x="367"
     inkscape:window-y="200"
     inkscape:window-maximized="0"
     inkscape:current-layer="svg7"
     showgrid="false" />
  <defs
     id="defs2">
    <filter
       style="color-interpolation-filters:sRGB;"
       inkscape:label="Blur"
       id="filter5421"
       x="-0.12256455"
       y="-0.12342654"
       width="1.2451291"
       height="1.2468531">
      <feGaussianBlur
         stdDeviation="0.5 0.5"
         result="blur"
         id="feGaussianBlur5419" />
    </filter>
  </defs>
  <metadata
     id="metadata2">
    <rdf:RDF>
      <cc:Work
         rdf:about="">
        <dc:format>image/svg+xml</dc:format>
        <dc:type
           rdf:resource="http://purl.org/dc/dcmitype/StillImage" />
      </cc:Work>
    </rdf:RDF>
  </metadata>
  <rect
     style="opacity:0.3;fill:none;fill-opacity:0.996424;stroke:#000000;stroke-width:0.955221;stroke-dasharray:none;stroke-opacity:1;filter:url(#filter5421)"
     id="rect1-2-7"
     width="13.687567"
     height="13.591975"
     x="1.6227165"
     y="1.6705122"
     rx="2.8442214"
     ry="2.965905" />
  <rect
     style="fill:none;fill-opacity:1;stroke:{{colors.primary.default.hex}};stroke-width:0.955221;stroke-dasharray:none;stroke-opacity:1"
     id="rect1-2"
     width="13.687567"
     height="13.591975"
     x="1.6227167"
     y="1.6705124"
     rx="2.8442214"
     ry="2.965905" />
  <path
     style="fill:{{colors.primary.default.hex}};fill-opacity:1;stroke:none;stroke-width:0.126378;stroke-dasharray:none;stroke-opacity:0.6"
     d="M 8.4190441,4.4177497 A 3.5433666,3.5426911 0 0 0 4.923133,7.9604404 3.5433666,3.5426911 0 0 0 6.9627436,11.16804 c -0.5425692,0.181174 -1.0272195,0.388876 -1.0272195,0.560464 v 0.393412 c 0,0.218074 0.1884653,0.393414 0.422158,0.393414 h 4.2176359 c 0.233694,0 0.422158,-0.17534 0.422158,-0.393414 v -0.393412 c 0,-0.171588 -0.484654,-0.37929 -1.0272209,-0.560464 A 3.5433666,3.5426911 0 0 0 12.009867,7.9604404 3.5433666,3.5426911 0 0 0 8.4664993,4.4177497 a 3.5433666,3.5426911 0 0 0 -0.047455,0 z m 0.0168,1.5182957 a 2.0247808,2.0243952 0 0 1 0.03065,0 2.0247808,2.0243952 0 0 1 2.0247759,2.024395 2.0247808,2.0243952 0 0 1 -2.0247774,2.0243974 2.0247808,2.0243952 0 0 1 -2.024781,-2.0243974 2.0247808,2.0243952 0 0 1 1.9941325,-2.024395 z m 0.00593,1.0121973 a 1.0123904,1.0121974 0 0 0 -0.9876753,1.0121977 1.0123904,1.0121974 0 0 0 1.0123891,1.0121977 1.0123904,1.0121974 0 0 0 1.012391,-1.0121977 1.0123904,1.0121974 0 0 0 -1.012391,-1.0121977 1.0123904,1.0121974 0 0 0 -0.024719,0 z"
     id="path2-2" />
</svg>
