<?xml version="1.0" encoding="UTF-8" standalone="no"?>
<svg
   width="64"
   height="64"
   version="1.1"
   viewBox="0 0 16.933 16.933"
   id="svg7"
   sodipodi:docname="ca.desrt.dconf-editor.svg"
   inkscape:version="1.4.3 (0d15f75042, 2025-12-25)"
   xmlns:inkscape="http://www.inkscape.org/namespaces/inkscape"
   xmlns:sodipodi="http://sodipodi.sourceforge.net/DTD/sodipodi-0.dtd"
   xmlns="http://www.w3.org/2000/svg"
   xmlns:svg="http://www.w3.org/2000/svg"
   xmlns:rdf="http://www.w3.org/1999/02/22-rdf-syntax-ns#"
   xmlns:cc="http://creativecommons.org/ns#"
   xmlns:dc="http://purl.org/dc/elements/1.1/">
  <sodipodi:namedview
     id="namedview7"
     pagecolor="#9c4444"
     bordercolor="#000000"
     borderopacity="0.25"
     inkscape:showpageshadow="2"
     inkscape:pageopacity="0.0"
     inkscape:pagecheckerboard="0"
     inkscape:deskcolor="#d1d1d1"
     inkscape:zoom="4.3531261"
     inkscape:cx="43.417074"
     inkscape:cy="20.215357"
     inkscape:window-width="1226"
     inkscape:window-height="669"
     inkscape:window-x="575"
     inkscape:window-y="214"
     inkscape:window-maximized="0"
     inkscape:current-layer="svg7"
     showgrid="false" />
  <defs
     id="defs2">
    <filter
       style="color-interpolation-filters:sRGB;"
       inkscape:label="Blur"
       id="filter5421"
       x="-0.12256455"
       y="-0.12342654"
       width="1.2451291"
       height="1.2468531">
      <feGaussianBlur
         stdDeviation="0.5 0.5"
         result="blur"
         id="feGaussianBlur5419" />
    </filter>
    <filter
       style="color-interpolation-filters:sRGB"
       inkscape:label="Blur"
       id="filter5421-3"
       x="-0.12256455"
       y="-0.12342654"
       width="1.2451291"
       height="1.2468531">
      <feGaussianBlur
         stdDeviation="0.5 0.5"
         result="blur"
         id="feGaussianBlur5419-6" />
    </filter>
  </defs>
  <metadata
     id="metadata2">
    <rdf:RDF>
      <cc:Work
         rdf:about="">
        <dc:format>image/svg+xml</dc:format>
        <dc:type
           rdf:resource="http://purl.org/dc/dcmitype/StillImage" />
      </cc:Work>
    </rdf:RDF>
  </metadata>
  <rect
     style="opacity:0.3;fill:none;fill-opacity:0.996424;stroke:#000000;stroke-width:0.955221;stroke-dasharray:none;stroke-opacity:1;filter:url(#filter5421)"
     id="rect1-2-7"
     width="13.687567"
     height="13.591975"
     x="1.6227165"
     y="1.6705122"
     rx="2.8442214"
     ry="2.965905" />
  <rect
     style="fill:none;fill-opacity:1;stroke:{{colors.primary.default.hex}};stroke-width:0.955221;stroke-dasharray:none;stroke-opacity:1"
     id="rect1-2"
     width="13.687567"
     height="13.591975"
     x="1.6227167"
     y="1.6705124"
     rx="2.8442214"
     ry="2.965905" />
  <g
     id="g2"
     transform="matrix(0.04981142,0,0,0.04981142,4.379224,4.8642116)"
     style="fill:{{colors.primary.default.hex}};fill-opacity:1;stroke:none;stroke-width:2.39686;stroke-dasharray:none;stroke-opacity:0.6">
    <path
       d="m 34.089,6.949 c 0,0 32.8,-17.843 60.859,3.654 L 79.246,64.561 c 0,0 -17.574,-12.104 -30.623,-10.8 -13.049,1.304 -30.234,7.554 -30.234,7.554 z M 15.621,70.823 c 0,0 17.604,-8.188 32.221,-7.146 14.615,1.043 26.285,8.91 28.802,10.717 l -15.865,54.521 c 0,0 -17.635,-11.476 -30.162,-10.432 C 18.089,119.53 7.229,121.438 0,125.181 Z m 69.238,8.849 c 0,0 16.744,10.888 27.705,10.627 10.799,-0.258 18.27,-1.109 32.921,-6.852 0.114,-0.045 0.412,-0.258 0.313,-0.195 -0.313,0.195 -15.699,54.031 -15.699,54.031 0,0 -17.273,8.082 -32.935,7.301 -15.658,-0.783 -25.062,-9.738 -27.929,-10.873 z"
       id="path1-6"
       style="fill:{{colors.primary.default.hex}};fill-opacity:1;stroke:none;stroke-width:2.39686;stroke-dasharray:none;stroke-opacity:0.6" />
    <path
       d="M 103.251,16.295 87.51,69.942 c 0,0 12.788,12.527 30.797,11.482 18.008,-1.043 27.795,-6.719 30.176,-7.52 l 15.627,-54.12 c 0,0 -20.748,8.66 -34.32,7.094 -13.571,-1.564 -22.024,-7.335 -26.539,-10.583 z"
       id="path2"
       style="fill:{{colors.primary.default.hex}};fill-opacity:1;stroke:none;stroke-width:2.39686;stroke-dasharray:none;stroke-opacity:0.6" />
  </g>
  <rect
     style="opacity:0.3;fill:none;fill-opacity:0.996424;stroke:#000000;stroke-width:0.955221;stroke-dasharray:none;stroke-opacity:1;filter:url(#filter5421-3)"
     id="rect1-2-7-5"
     width="13.687567"
     height="13.591975"
     x="1.6227165"
     y="1.6705122"
     rx="2.8442214"
     ry="2.965905"
     transform="matrix(0.43046721,0,0,0.43046721,9.5627021,9.5627021)" />
  <rect
     style="fill:none;fill-opacity:1;stroke:{{colors.primary.default.hex}};stroke-width:0.411191;stroke-dasharray:none;stroke-opacity:1"
     id="rect1-2-3"
     width="5.8920484"
     height="5.8508992"
     x="10.261228"
     y="10.281802"
     rx="1.224344"
     ry="1.2767248" />
  <path
     style="fill:{{colors.primary.default.hex}};fill-opacity:1;stroke:none;stroke-width:0.137827;stroke-dasharray:none;stroke-opacity:0.6"
     d="m 11.62487,15.127503 c 0.02579,-0.04262 0.318257,-0.504719 0.649945,-1.026897 l 0.603066,-0.949415 -0.5843,-0.895938 c -0.321366,-0.492767 -0.584301,-0.909315 -0.584301,-0.925662 0,-0.01634 0.174378,-0.02973 0.387507,-0.02973 h 0.387506 l 0.375269,0.600348 c 0.206398,0.33019 0.401612,0.607757 0.433807,0.616815 0.03219,0.0091 0.226383,-0.254126 0.431526,-0.584851 l 0.372985,-0.601317 0.386343,-0.01845 c 0.212487,-0.01011 0.386341,-0.0017 0.386341,0.0189 0,0.02055 -0.107387,0.19621 -0.238638,0.390371 -0.131252,0.194159 -0.393685,0.594094 -0.583183,0.888743 l -0.344544,0.535726 0.507428,0.796972 c 0.279086,0.438336 0.571688,0.901575 0.650225,1.029421 l 0.142796,0.232447 h -0.404211 -0.40421 L 13.84467,14.631619 C 13.651314,14.316266 13.445204,13.980341 13.38665,13.88512 l -0.106461,-0.173131 -0.460029,0.746082 -0.460028,0.746079 -0.39107,4.45e-4 c -0.296612,3.68e-4 -0.379748,-0.0183 -0.344192,-0.07707 z"
     id="path16" />
</svg>
