<?xml version="1.0" encoding="UTF-8" standalone="no"?>
<svg
   width="64"
   height="64"
   version="1.1"
   viewBox="0 0 16.933 16.933"
   id="svg7"
   sodipodi:docname="accessories-text-editor.svg"
   inkscape:version="1.4.3 (0d15f75042, 2025-12-25)"
   xmlns:inkscape="http://www.inkscape.org/namespaces/inkscape"
   xmlns:sodipodi="http://sodipodi.sourceforge.net/DTD/sodipodi-0.dtd"
   xmlns="http://www.w3.org/2000/svg"
   xmlns:svg="http://www.w3.org/2000/svg"
   xmlns:rdf="http://www.w3.org/1999/02/22-rdf-syntax-ns#"
   xmlns:cc="http://creativecommons.org/ns#"
   xmlns:dc="http://purl.org/dc/elements/1.1/">
  <sodipodi:namedview
     id="namedview7"
     pagecolor="#9c4444"
     bordercolor="#000000"
     borderopacity="0.25"
     inkscape:showpageshadow="2"
     inkscape:pageopacity="0.0"
     inkscape:pagecheckerboard="0"
     inkscape:deskcolor="#d1d1d1"
     inkscape:zoom="4.3531261"
     inkscape:cx="41.349595"
     inkscape:cy="22.971997"
     inkscape:window-width="1226"
     inkscape:window-height="669"
     inkscape:window-x="263"
     inkscape:window-y="202"
     inkscape:window-maximized="0"
     inkscape:current-layer="svg7"
     showgrid="false" />
  <defs
     id="defs2">
    <filter
       style="color-interpolation-filters:sRGB;"
       inkscape:label="Blur"
       id="filter5421"
       x="-0.12256455"
       y="-0.12342654"
       width="1.2451291"
       height="1.2468531">
      <feGaussianBlur
         stdDeviation="0.5 0.5"
         result="blur"
         id="feGaussianBlur5419" />
    </filter>
  </defs>
  <metadata
     id="metadata2">
    <rdf:RDF>
      <cc:Work
         rdf:about="">
        <dc:format>image/svg+xml</dc:format>
        <dc:type
           rdf:resource="http://purl.org/dc/dcmitype/StillImage" />
      </cc:Work>
    </rdf:RDF>
  </metadata>
  <rect
     style="opacity:0.3;fill:none;fill-opacity:0.996424;stroke:#000000;stroke-width:0.955221;stroke-dasharray:none;stroke-opacity:1;filter:url(#filter5421)"
     id="rect1-2-7"
     width="13.687567"
     height="13.591975"
     x="1.6227165"
     y="1.6705122"
     rx="2.8442214"
     ry="2.965905" />
  <rect
     style="fill:none;fill-opacity:1;stroke:{{colors.primary.default.hex}};stroke-width:0.955221;stroke-dasharray:none;stroke-opacity:1"
     id="rect1-2"
     width="13.687567"
     height="13.591975"
     x="1.6227167"
     y="1.6705124"
     rx="2.8442214"
     ry="2.965905" />
  <path
     d="m 8.494137,5.4402284 c -1.627276,0 -2.9550764,1.2717535 -3.0539081,2.8742661 H 4.4867466 L 6.0206103,10.608381 7.5544737,8.3144945 h -1.091669 c 0.094189,-1.0397098 0.9667489,-1.851691 2.0313323,-1.851691 0.3937753,0 0.7664349,0.1113237 1.0778508,0.3040101 L 10.097093,5.8962431 C 9.6309102,5.609589 9.0811516,5.4402284 8.494137,5.4402284 Z m 2.418255,0.8843893 -1.5338639,2.2938868 h 1.0916689 c -0.09419,1.0397095 -0.9667501,1.8516915 -2.0313335,1.8516915 -0.3937752,0 -0.7664343,-0.111325 -1.0778495,-0.30401 l -0.5251081,0.87057 c 0.4661847,0.286653 1.015944,0.456016 1.6029576,0.456016 1.6272755,0 2.9550765,-1.271754 3.0539085,-2.8742675 h 0.953481 z"
     style="clip-rule:evenodd;fill:{{colors.primary.default.hex}};fill-opacity:1;fill-rule:evenodd;stroke:none;stroke-width:0.118525;stroke-linejoin:round;stroke-miterlimit:1.41421;stroke-dasharray:none;stroke-opacity:0.6"
     id="path2" />
</svg>
