<?xml version="1.0" encoding="UTF-8" standalone="no"?>
<svg
   width="64"
   height="64"
   version="1.1"
   viewBox="0 0 16.933 16.933"
   id="svg7"
   sodipodi:docname="accessories-text-editor.svg"
   inkscape:version="1.4.3 (0d15f75042, 2025-12-25)"
   xmlns:inkscape="http://www.inkscape.org/namespaces/inkscape"
   xmlns:sodipodi="http://sodipodi.sourceforge.net/DTD/sodipodi-0.dtd"
   xmlns="http://www.w3.org/2000/svg"
   xmlns:svg="http://www.w3.org/2000/svg"
   xmlns:rdf="http://www.w3.org/1999/02/22-rdf-syntax-ns#"
   xmlns:cc="http://creativecommons.org/ns#"
   xmlns:dc="http://purl.org/dc/elements/1.1/">
  <sodipodi:namedview
     id="namedview7"
     pagecolor="#9c4444"
     bordercolor="#000000"
     borderopacity="0.25"
     inkscape:showpageshadow="2"
     inkscape:pageopacity="0.0"
     inkscape:pagecheckerboard="0"
     inkscape:deskcolor="#d1d1d1"
     inkscape:zoom="4.3531261"
     inkscape:cx="43.417074"
     inkscape:cy="20.904517"
     inkscape:window-width="1226"
     inkscape:window-height="669"
     inkscape:window-x="263"
     inkscape:window-y="202"
     inkscape:window-maximized="0"
     inkscape:current-layer="svg7"
     showgrid="false" />
  <defs
     id="defs2">
    <filter
       style="color-interpolation-filters:sRGB;"
       inkscape:label="Blur"
       id="filter5421"
       x="-0.12256455"
       y="-0.12342654"
       width="1.2451291"
       height="1.2468531">
      <feGaussianBlur
         stdDeviation="0.5 0.5"
         result="blur"
         id="feGaussianBlur5419" />
    </filter>
  </defs>
  <metadata
     id="metadata2">
    <rdf:RDF>
      <cc:Work
         rdf:about="">
        <dc:format>image/svg+xml</dc:format>
        <dc:type
           rdf:resource="http://purl.org/dc/dcmitype/StillImage" />
      </cc:Work>
    </rdf:RDF>
  </metadata>
  <rect
     style="opacity:0.3;fill:none;fill-opacity:0.996424;stroke:#000000;stroke-width:0.955221;stroke-dasharray:none;stroke-opacity:1;filter:url(#filter5421)"
     id="rect1-2-7"
     width="13.687567"
     height="13.591975"
     x="1.6227165"
     y="1.6705122"
     rx="2.8442214"
     ry="2.965905" />
  <rect
     style="fill:none;fill-opacity:1;stroke:{{colors.primary.default.hex}};stroke-width:0.955221;stroke-dasharray:none;stroke-opacity:1"
     id="rect1-2"
     width="13.687567"
     height="13.591975"
     x="1.6227167"
     y="1.6705124"
     rx="2.8442214"
     ry="2.965905" />
  <path
     style="fill:{{colors.primary.default.hex}};fill-opacity:1;stroke:none;stroke-width:0.13133;stroke-dasharray:none;stroke-opacity:0.6"
     d="M 5.2246902,12.52986 C 5.0492733,12.458899 4.901744,12.230187 4.8714168,11.98219 4.8556178,11.85306 4.8491301,10.984204 4.8569889,10.051393 4.8700326,8.5029105 4.8782906,8.3450366 4.9519912,8.2364861 5.0719708,8.0597677 5.2885807,7.976007 5.6256031,7.976007 h 0.2945218 l 5.254e-4,-0.9037981 c 6.829e-4,-1.2095611 0.093995,-1.5443593 0.5653232,-2.0288573 0.4336557,-0.4457733 1.1169167,-0.680986 1.9781711,-0.680986 0.8072958,0 1.4337184,0.1976625 1.8539154,0.5849875 0.293574,0.2706063 0.445619,0.5090539 0.583197,0.9146021 0.108679,0.3203643 0.121057,0.4282279 0.141436,1.2325698 l 0.02234,0.881482 0.295155,1.674e-4 c 0.21726,1.227e-4 0.334141,0.023933 0.442892,0.090241 0.271299,0.165406 0.276263,0.2051538 0.276263,2.2111186 0,2.007364 -0.0041,2.039192 -0.286535,2.211407 -0.131203,0.08002 -0.281916,0.0837 -3.3063401,0.08117 C 6.7435933,12.568684 5.275793,12.55052 5.224696,12.529867 Z M 10.026273,7.1743054 c 0,-0.7001682 -0.01164,-0.832819 -0.091932,-1.0474049 C 9.8217371,5.8259361 9.5395507,5.5611604 9.2081895,5.4455509 8.9298351,5.3484335 8.0973799,5.3340752 7.8099646,5.4214335 7.4751201,5.5232064 7.2074951,5.7405599 7.0592465,6.0311342 6.9253636,6.2935514 6.9242372,6.3018778 6.9097112,7.135776 l -0.014633,0.8402316 h 1.5655985 1.5655973 z"
     id="path53" />
</svg>
