<?xml version="1.0" encoding="UTF-8" standalone="no"?>
<svg
   width="64"
   height="64"
   version="1.1"
   viewBox="0 0 16.933 16.933"
   id="svg7"
   sodipodi:docname="abcd.svg"
   inkscape:version="1.4.3 (0d15f75042, 2025-12-25)"
   xmlns:inkscape="http://www.inkscape.org/namespaces/inkscape"
   xmlns:sodipodi="http://sodipodi.sourceforge.net/DTD/sodipodi-0.dtd"
   xmlns="http://www.w3.org/2000/svg"
   xmlns:svg="http://www.w3.org/2000/svg"
   xmlns:rdf="http://www.w3.org/1999/02/22-rdf-syntax-ns#"
   xmlns:cc="http://creativecommons.org/ns#"
   xmlns:dc="http://purl.org/dc/elements/1.1/">
  <sodipodi:namedview
     id="namedview7"
     pagecolor="#9c4444"
     bordercolor="#000000"
     borderopacity="0.25"
     inkscape:showpageshadow="2"
     inkscape:pageopacity="0.0"
     inkscape:pagecheckerboard="0"
     inkscape:deskcolor="#d1d1d1"
     inkscape:zoom="4.3531261"
     inkscape:cx="40.200995"
     inkscape:cy="23.201717"
     inkscape:window-width="1226"
     inkscape:window-height="669"
     inkscape:window-x="77"
     inkscape:window-y="131"
     inkscape:window-maximized="0"
     inkscape:current-layer="svg7"
     showgrid="false" />
  <defs
     id="defs2">
    <filter
       style="color-interpolation-filters:sRGB;"
       inkscape:label="Blur"
       id="filter5421"
       x="-0.12256455"
       y="-0.12342654"
       width="1.2451291"
       height="1.2468531">
      <feGaussianBlur
         stdDeviation="0.5 0.5"
         result="blur"
         id="feGaussianBlur5419" />
    </filter>
  </defs>
  <metadata
     id="metadata2">
    <rdf:RDF>
      <cc:Work
         rdf:about="">
        <dc:format>image/svg+xml</dc:format>
        <dc:type
           rdf:resource="http://purl.org/dc/dcmitype/StillImage" />
      </cc:Work>
    </rdf:RDF>
  </metadata>
  <rect
     style="opacity:0.3;fill:none;fill-opacity:0.996424;stroke:#000000;stroke-width:0.955221;stroke-dasharray:none;stroke-opacity:1;filter:url(#filter5421)"
     id="rect1-2-7"
     width="13.687567"
     height="13.591975"
     x="1.6227165"
     y="1.6705122"
     rx="2.8442214"
     ry="2.965905" />
  <rect
     style="fill:none;fill-opacity:1;stroke:{{colors.primary.default.hex}};stroke-width:0.955221;stroke-dasharray:none;stroke-opacity:1"
     id="rect1-2"
     width="13.687567"
     height="13.591975"
     x="1.6227167"
     y="1.6705124"
     rx="2.8442214"
     ry="2.965905" />
  <path
     id="path4"
     style="fill:{{colors.primary.default.hex}};fill-opacity:1;stroke-width:0.0120456"
     d="M 9.6892618,4.8661433 C 9.597303,4.8663365 9.5028997,4.8887329 9.4101287,4.9338119 9.3220411,4.9766148 9.1953953,5.1043256 9.152706,5.1932084 9.1347471,5.2306062 9.0697653,5.4412019 9.0083467,5.6612493 L 8.8966936,6.0613401 8.824232,6.0540139 C 8.6414207,6.0356462 8.3807673,6.0320605 8.223955,6.0458369 8.1322758,6.0538866 8.0542934,6.0574748 8.0505538,6.053732 8.0468134,6.0499965 7.9957027,5.8747984 7.9369267,5.6643577 7.8719846,5.4318367 7.8135127,5.2480409 7.7880562,5.1957518 7.737508,5.0919236 7.643774,4.9939569 7.5441673,4.9408667 7.1401796,4.7255437 6.6622201,5.0074717 6.6622201,5.4610693 c 0,0.086384 0.0132,0.1480149 0.1071416,0.4956722 0.058997,0.2183376 0.1153379,0.4280258 0.1251868,0.4657858 L 6.9125918,6.4910413 6.7420102,6.60495 C 6.6483184,6.6676367 6.5206697,6.7602186 6.4580842,6.8104931 6.3954982,6.860768 6.3404028,6.901847 6.3357163,6.901847 6.3310328,6.901847 6.1693034,6.7379736 5.9765094,6.5375641 5.7837153,6.3371538 5.6000135,6.155473 5.5682423,6.1338076 5.3389707,5.9774641 5.017027,6.0099959 4.8171214,6.209935 4.6211029,6.4059867 4.5834159,6.698543 4.7240769,6.9328608 4.7488999,6.9742114 4.9085305,7.149607 5.1303702,7.3791918 L 5.4957809,7.7575723 5.3533951,7.9168752 C 5.1518976,8.14268 4.8078836,8.4843105 4.6840399,8.5814372 4.6262247,8.6267793 4.559858,8.6916799 4.5365782,8.7255149 4.4195258,8.8956406 4.4021969,9.1487161 4.4945673,9.3424269 c 0.043501,0.091226 0.1022424,0.1527219 0.2241517,0.2345853 0.2760776,0.1853847 0.4615287,0.3498714 0.9312892,0.8258388 0.6634652,0.672228 0.8611929,0.85751 1.132603,1.061833 0.4337492,0.326534 0.8863327,0.525487 1.3189733,0.57941 0.059627,0.0074 0.1218767,0.0158 0.138439,0.01861 0.071174,0.01211 0.5300546,-0.0044 0.6386222,-0.02283 0.526344,-0.0897 0.9906547,-0.322186 1.4935023,-0.74774 0.174379,-0.147577 0.389639,-0.35589 0.847832,-0.820486 0.542996,-0.5505954 0.687351,-0.6801224 0.986832,-0.885903 0.22658,-0.1556762 0.292141,-0.2731369 0.290695,-0.521603 C 12.496221,8.8435795 12.435879,8.7243517 12.253899,8.5814413 12.128356,8.4828445 11.795986,8.152793 11.590747,7.923082 L 11.443005,7.7578595 11.801931,7.3870918 C 11.999332,7.183147 12.178349,6.9898148 12.199765,6.9573962 12.36766,6.7032258 12.318094,6.3693121 12.083318,6.1735685 11.86141,5.9885517 11.535957,5.9880192 11.322893,6.1721462 c -0.02365,0.020432 -0.193421,0.1929836 -0.377534,0.3834552 -0.184114,0.1904721 -0.338537,0.3462382 -0.343137,0.3462382 -0.0045,0 -0.05977,-0.041109 -0.122365,-0.091353 C 10.417271,6.7602421 10.292982,6.670201 10.203543,6.6102995 10.1141,6.5503982 10.039347,6.4950854 10.037472,6.4873679 10.035572,6.4796539 10.088544,6.2720347 10.155046,6.026094 10.221556,5.7801528 10.27943,5.5462292 10.283617,5.5061732 10.300565,5.3440167 10.235262,5.1727421 10.108241,5.0460265 9.9888103,4.926884 9.8425248,4.8657712 9.6892605,4.8661447 Z M 8.4791215,6.7326691 c 0.3530594,0.00105 0.706131,0.080796 1.0254612,0.2413513 C 10.206693,7.3270345 10.679927,8.0054938 10.76914,8.7869747 10.82297,9.2585077 10.72023,9.769227 10.489723,10.175591 10.11733,10.83206 9.4624091,11.264916 8.7193452,11.345974 8.156956,11.407325 7.5891917,11.258944 7.1198286,10.927841 6.971741,10.823374 6.6917017,10.543999 6.5894762,10.398616 6.3124868,10.004685 6.1758277,9.5989163 6.1597806,9.1239079 6.146124,8.7197224 6.2177691,8.3802674 6.3906998,8.0282406 6.5109586,7.7834342 6.6262872,7.6212048 6.8223689,7.4217606 6.9513232,7.2905956 7.0507326,7.2075065 7.1897529,7.1147145 7.5711751,6.8601267 8.0251886,6.731347 8.4791215,6.7326691 Z M 8.468966,7.6196914 c -0.2165317,0 -0.2442506,0.00265 -0.3530046,0.032142 C 7.8576238,7.7218502 7.6422184,7.8461668 7.4556322,8.032752 7.2680178,8.2203669 7.1421467,8.4390538 7.0758426,8.6930852 7.0348415,8.8501718 7.0239118,9.1206336 7.051876,9.2809557 7.15713,9.8843698 7.6218721,10.352785 8.2219782,10.460081 c 0.1274415,0.02278 0.3472447,0.02356 0.4821385,0.0017 C 9.3037639,10.364505 9.7800674,9.8885971 9.8860611,9.2809485 9.9137786,9.1220582 9.9031426,8.8500194 9.8629426,8.6967429 9.7929884,8.4299839 9.6707,8.2205772 9.4690563,8.0220339 9.2774256,7.8333484 9.0841524,7.7228769 8.8219758,7.6518298 8.7129557,7.6222865 8.6856073,7.6196874 8.4689708,7.6196874 Z" />
</svg>
