<?xml version="1.0" encoding="UTF-8" standalone="no"?>
<svg
   width="64"
   height="64"
   version="1.1"
   viewBox="0 0 16.933 16.933"
   id="svg7"
   sodipodi:docname="abcd.svg"
   inkscape:version="1.4.3 (0d15f75042, 2025-12-25)"
   xmlns:inkscape="http://www.inkscape.org/namespaces/inkscape"
   xmlns:sodipodi="http://sodipodi.sourceforge.net/DTD/sodipodi-0.dtd"
   xmlns="http://www.w3.org/2000/svg"
   xmlns:svg="http://www.w3.org/2000/svg"
   xmlns:rdf="http://www.w3.org/1999/02/22-rdf-syntax-ns#"
   xmlns:cc="http://creativecommons.org/ns#"
   xmlns:dc="http://purl.org/dc/elements/1.1/">
  <sodipodi:namedview
     id="namedview7"
     pagecolor="#9c4444"
     bordercolor="#000000"
     borderopacity="0.25"
     inkscape:showpageshadow="2"
     inkscape:pageopacity="0.0"
     inkscape:pagecheckerboard="0"
     inkscape:deskcolor="#d1d1d1"
     inkscape:zoom="4.3531261"
     inkscape:cx="43.417074"
     inkscape:cy="20.674797"
     inkscape:window-width="1226"
     inkscape:window-height="669"
     inkscape:window-x="474"
     inkscape:window-y="225"
     inkscape:window-maximized="0"
     inkscape:current-layer="svg7"
     showgrid="false" />
  <defs
     id="defs2">
    <filter
       style="color-interpolation-filters:sRGB;"
       inkscape:label="Blur"
       id="filter5421"
       x="-0.12256455"
       y="-0.12342654"
       width="1.2451291"
       height="1.2468531">
      <feGaussianBlur
         stdDeviation="0.5 0.5"
         result="blur"
         id="feGaussianBlur5419" />
    </filter>
  </defs>
  <metadata
     id="metadata2">
    <rdf:RDF>
      <cc:Work
         rdf:about="">
        <dc:format>image/svg+xml</dc:format>
        <dc:type
           rdf:resource="http://purl.org/dc/dcmitype/StillImage" />
      </cc:Work>
    </rdf:RDF>
  </metadata>
  <rect
     style="opacity:0.3;fill:none;fill-opacity:0.996424;stroke:#000000;stroke-width:0.955221;stroke-dasharray:none;stroke-opacity:1;filter:url(#filter5421)"
     id="rect1-2-7"
     width="13.687567"
     height="13.591975"
     x="1.6227165"
     y="1.6705122"
     rx="2.8442214"
     ry="2.965905" />
  <rect
     style="fill:none;fill-opacity:1;stroke:{{colors.primary.default.hex}};stroke-width:0.955221;stroke-dasharray:none;stroke-opacity:1"
     id="rect1-2"
     width="13.687567"
     height="13.591975"
     x="1.6227167"
     y="1.6705124"
     rx="2.8442214"
     ry="2.965905" />
  <path
     fill="#3d3846"
     d="m 11.533978,4.4144691 c -0.566682,0 -0.820447,0.2198613 -1.5823174,1.4409337 L 8.8770141,7.5962824 8.3689045,5.8152114 C 8.0559869,4.6947669 7.6262162,4.4144691 7.1186878,4.4144691 c -0.5665358,0 -1.2506529,0.5001586 -2.1301064,1.5205725 -0.09767,0.080382 0.078339,0.2604995 0.1566769,0.1604671 C 5.6726985,5.5350632 6.1217991,5.275159 6.4539021,5.275159 c 0.2736753,0 0.6647857,0.1394792 0.9769766,1.2000835 L 8.0950831,8.7569183 6.7274323,10.837937 c -0.312191,0.459969 -0.6056332,0.600191 -0.8593974,0.600191 -0.3906741,0 -0.4299159,-0.400126 -0.8794535,-0.400126 -0.312336,0 -0.527585,0.200063 -0.5666811,0.480361 -0.077757,0.5402 0.4690121,1.000167 0.977122,1.000167 0.5864479,0 0.840212,-0.240254 1.5827551,-1.46073 l 1.2111205,-1.960743 0.6255443,2.160806 c 0.2930061,1.040807 0.6642051,1.260667 1.1718777,1.260667 0.5665351,0 1.2506521,-0.519956 2.1295241,-1.52057 0.09825,-0.100034 -0.05844,-0.259905 -0.156094,-0.180266 -0.52744,0.560595 -0.957211,0.820499 -1.289312,0.820499 -0.293008,0 -0.645021,-0.08039 -0.9185506,-1.020562 L 8.9745368,7.9161757 10.205569,6.0752647 c 0.312772,-0.4403184 0.605633,-0.6001904 0.859397,-0.6001904 0.390675,0 0.42977,0.4001267 0.879453,0.4001267 0.312336,0 0.52744,-0.2000632 0.56668,-0.4803605 0.07776,-0.5204035 -0.469011,-0.9803711 -0.977121,-0.9803714 z m 0,0"
     id="path6"
     style="fill:{{colors.primary.default.hex}};fill-opacity:1;stroke-width:0.270135" />
</svg>
