<?xml version="1.0" encoding="UTF-8" standalone="no"?>
<svg
   width="64"
   height="64"
   version="1.1"
   viewBox="0 0 16.933 16.933"
   id="svg7"
   sodipodi:docname="accessories-text-editor.svg"
   inkscape:version="1.4.3 (0d15f75042, 2025-12-25)"
   xmlns:inkscape="http://www.inkscape.org/namespaces/inkscape"
   xmlns:sodipodi="http://sodipodi.sourceforge.net/DTD/sodipodi-0.dtd"
   xmlns="http://www.w3.org/2000/svg"
   xmlns:svg="http://www.w3.org/2000/svg"
   xmlns:rdf="http://www.w3.org/1999/02/22-rdf-syntax-ns#"
   xmlns:cc="http://creativecommons.org/ns#"
   xmlns:dc="http://purl.org/dc/elements/1.1/">
  <sodipodi:namedview
     id="namedview7"
     pagecolor="#9c4444"
     bordercolor="#000000"
     borderopacity="0.25"
     inkscape:showpageshadow="2"
     inkscape:pageopacity="0.0"
     inkscape:pagecheckerboard="0"
     inkscape:deskcolor="#d1d1d1"
     inkscape:zoom="4.3531261"
     inkscape:cx="43.417074"
     inkscape:cy="20.674797"
     inkscape:window-width="1226"
     inkscape:window-height="669"
     inkscape:window-x="474"
     inkscape:window-y="225"
     inkscape:window-maximized="0"
     inkscape:current-layer="svg7"
     showgrid="false" />
  <defs
     id="defs2">
    <filter
       style="color-interpolation-filters:sRGB;"
       inkscape:label="Blur"
       id="filter5421"
       x="-0.12256455"
       y="-0.12342654"
       width="1.2451291"
       height="1.2468531">
      <feGaussianBlur
         stdDeviation="0.5 0.5"
         result="blur"
         id="feGaussianBlur5419" />
    </filter>
  </defs>
  <metadata
     id="metadata2">
    <rdf:RDF>
      <cc:Work
         rdf:about="">
        <dc:format>image/svg+xml</dc:format>
        <dc:type
           rdf:resource="http://purl.org/dc/dcmitype/StillImage" />
      </cc:Work>
    </rdf:RDF>
  </metadata>
  <rect
     style="opacity:0.3;fill:none;fill-opacity:0.996424;stroke:#000000;stroke-width:0.955221;stroke-dasharray:none;stroke-opacity:1;filter:url(#filter5421)"
     id="rect1-2-7"
     width="13.687567"
     height="13.591975"
     x="1.6227165"
     y="1.6705122"
     rx="2.8442214"
     ry="2.965905" />
  <rect
     style="fill:none;fill-opacity:1;stroke:{{colors.primary.default.hex}};stroke-width:0.955221;stroke-dasharray:none;stroke-opacity:1"
     id="rect1-2"
     width="13.687567"
     height="13.591975"
     x="1.6227167"
     y="1.6705124"
     rx="2.8442214"
     ry="2.965905" />
  <path
     d="M 12.574308,9.4318123 C 12.404529,9.264647 12.028406,9.1762129 11.455637,9.168377 11.067572,9.1624119 10.601149,9.1982277 10.1101,9.2668852 9.890321,9.1403916 9.663826,9.0023304 9.4862126,8.8359107 9.0078493,8.3892635 8.6085904,7.7694803 8.3597073,7.0877558 c 0.016041,-0.063806 0.02985,-0.119777 0.04291,-0.1768674 0,0 0.2694061,-1.5306146 0.198137,-2.0477846 C 8.5906789,4.7922079 8.5847112,4.771312 8.5656757,4.7164607 L 8.5421677,4.6563854 C 8.4690327,4.4873532 8.325374,4.3082465 8.0999986,4.3179484 l -0.1320911,-0.00598 h -0.00373 c -0.2511221,0 -0.4559753,0.1283592 -0.5097071,0.3205257 -0.163435,0.6022456 0.00523,1.5033754 0.3108244,2.6701802 l -0.07836,0.1903086 C 7.468277,8.0261986 7.1943929,8.5631451 6.9522259,9.0370312 l -0.031343,0.061568 C 6.6664015,9.5967393 6.4354296,10.019505 6.2264718,10.377345 l -0.2164207,0.114179 c -0.015667,0.0082 -0.3858254,0.204483 -0.4727664,0.256722 -0.7369489,0.440302 -1.2253871,0.939561 -1.3063581,1.336208 -0.025749,0.126121 -0.00635,0.288063 0.1246277,0.363063 l 0.2089581,0.105227 c 0.090672,0.04552 0.1861959,0.06829 0.2843312,0.06829 0.5246332,0 1.1339685,-0.65374 1.9735302,-2.118683 0.9690409,-0.315301 2.072412,-0.5776169 3.0395861,-0.7223958 0.7369501,0.4149308 1.6433021,0.7033668 2.2153241,0.7033668 0.101493,0 0.189181,-0.01006 0.26045,-0.02836 0.109703,-0.0291 0.202242,-0.0918 0.258585,-0.176493 0.110822,-0.167167 0.133584,-0.3973928 0.103359,-0.6328426 -0.0089,-0.069778 -0.06492,-0.1563458 -0.125373,-0.2153016 z M 4.7350395,12.224382 c 0.095523,-0.261569 0.4746318,-0.778739 1.0347129,-1.238073 0.035071,-0.02836 0.1220166,-0.109704 0.2014946,-0.185078 -0.5858276,0.93434 -0.9779958,1.306731 -1.2362075,1.423151 z m 3.317948,-7.6400128 c 0.1686584,0 0.2645552,0.4250049 0.2723909,0.82389 0.00821,0.3985121 -0.085075,0.6783659 -0.2007481,0.8854581 -0.095897,-0.3063474 -0.1421662,-0.789561 -0.1421662,-1.1056098 0,0 -0.00709,-0.6037383 0.070523,-0.6037383 z M 7.0630505,10.028833 C 7.180589,9.8183849 7.3029786,9.5967399 7.4279802,9.3612891 7.7324615,8.7851637 7.9250007,8.3347857 8.0679131,7.9642589 8.3529906,8.4825482 8.7078459,8.9232248 9.1250145,9.276214 9.1768807,9.3202437 9.2321052,9.3646476 9.2899421,9.4086782 8.4417977,9.5765907 7.7085804,9.7806974 7.0630505,10.028833 Z M 12.411246,9.981447 c -0.0515,0.032082 -0.19963,0.05112 -0.29478,0.05112 -0.307094,0 -0.68732,-0.140299 -1.220165,-0.3690339 0.204855,-0.0153 0.392543,-0.022762 0.560827,-0.022762 0.308215,0 0.399262,0 0.700756,0.075373 0.301497,0.077236 0.305227,0.2332119 0.253362,0.2653029 z"
     fill="url(#c)"
     id="path9"
     style="fill:{{colors.primary.default.hex}};fill-opacity:1;stroke:none;stroke-width:0.13133;stroke-dasharray:none;stroke-opacity:0.6" />
</svg>
