<?xml version="1.0" encoding="UTF-8" standalone="no"?>
<svg
   width="64"
   height="64"
   version="1.1"
   viewBox="0 0 16.933 16.933"
   id="svg7"
   sodipodi:docname="abcd.svg"
   inkscape:version="1.4.3 (0d15f75042, 2025-12-25)"
   xmlns:inkscape="http://www.inkscape.org/namespaces/inkscape"
   xmlns:sodipodi="http://sodipodi.sourceforge.net/DTD/sodipodi-0.dtd"
   xmlns="http://www.w3.org/2000/svg"
   xmlns:svg="http://www.w3.org/2000/svg"
   xmlns:rdf="http://www.w3.org/1999/02/22-rdf-syntax-ns#"
   xmlns:cc="http://creativecommons.org/ns#"
   xmlns:dc="http://purl.org/dc/elements/1.1/">
  <sodipodi:namedview
     id="namedview7"
     pagecolor="#9c4444"
     bordercolor="#000000"
     borderopacity="0.25"
     inkscape:showpageshadow="2"
     inkscape:pageopacity="0.0"
     inkscape:pagecheckerboard="0"
     inkscape:deskcolor="#d1d1d1"
     inkscape:zoom="4.3531261"
     inkscape:cx="33.768836"
     inkscape:cy="30.552756"
     inkscape:window-width="1226"
     inkscape:window-height="669"
     inkscape:window-x="100"
     inkscape:window-y="206"
     inkscape:window-maximized="0"
     inkscape:current-layer="svg7"
     showgrid="false" />
  <defs
     id="defs2">
    <filter
       style="color-interpolation-filters:sRGB;"
       inkscape:label="Blur"
       id="filter5421"
       x="-0.12256455"
       y="-0.12342654"
       width="1.2451291"
       height="1.2468531">
      <feGaussianBlur
         stdDeviation="0.5 0.5"
         result="blur"
         id="feGaussianBlur5419" />
    </filter>
  </defs>
  <metadata
     id="metadata2">
    <rdf:RDF>
      <cc:Work
         rdf:about="">
        <dc:format>image/svg+xml</dc:format>
        <dc:type
           rdf:resource="http://purl.org/dc/dcmitype/StillImage" />
      </cc:Work>
    </rdf:RDF>
  </metadata>
  <rect
     style="opacity:0.3;fill:none;fill-opacity:0.996424;stroke:#000000;stroke-width:0.955221;stroke-dasharray:none;stroke-opacity:1;filter:url(#filter5421)"
     id="rect1-2-7"
     width="13.687567"
     height="13.591975"
     x="1.6227165"
     y="1.6705122"
     rx="2.8442214"
     ry="2.965905" />
  <rect
     style="fill:none;fill-opacity:1;stroke:{{colors.primary.default.hex}};stroke-width:0.955221;stroke-dasharray:none;stroke-opacity:1"
     id="rect1-2"
     width="13.687567"
     height="13.591975"
     x="1.6227167"
     y="1.6705124"
     rx="2.8442214"
     ry="2.965905" />
  <g
     id="g1"
     transform="matrix(0.26265993,0,0,0.26265993,0.0650609,0.05981889)"
     style="fill:{{colors.primary.default.hex}};fill-opacity:1">
    <path
       style="fill:{{colors.primary.default.hex}};fill-opacity:1;stroke-width:0.634856"
       d="m 31.985993,25.657428 c -3.506192,0 -6.348522,2.84233 -6.348521,6.348521 0,3.506191 2.84233,6.348519 6.348521,6.348519 3.50619,0 6.348519,-2.842329 6.348519,-6.348519 0,-3.506191 -2.842329,-6.34852 -6.348519,-6.348521 z m 0,1.904556 c 2.454334,0 4.443965,1.989631 4.443965,4.443965 10e-7,2.454335 -1.989631,4.443966 -4.443965,4.443966 -2.454335,0 -4.443966,-1.989631 -4.443965,-4.443966 0,-2.454334 1.989631,-4.443965 4.443965,-4.443965 z m 0,-11.427337 c -8.765478,0 -15.871302,7.105824 -15.871302,15.871302 2e-6,8.765479 7.105825,15.871299 15.871302,15.871299 8.765475,-4e-6 15.871295,-7.105824 15.871298,-15.871299 0,-8.765476 -7.10582,-15.8713 -15.871298,-15.871302 z m 0,3.17426 c 7.012382,10e-7 12.697041,5.68466 12.697041,12.697042 0,7.012382 -5.684659,12.697041 -12.697041,12.697041 -7.012383,0 -12.697042,-5.684659 -12.697042,-12.697041 -1e-6,-7.012383 5.684659,-12.697042 12.697042,-12.697042 z"
       id="path4"
       sodipodi:nodetypes="ssssssssssssssssssss" />
    <path
       style="fill:{{colors.primary.default.hex}};fill-opacity:1;stroke:none;stroke-width:0.0313254;stroke-opacity:1"
       d="m 30.670317,42.683751 c -3.214668,-0.507995 -5.965513,-2.232854 -7.627609,-4.782735 -1.757949,-2.696931 -2.233972,-5.82905 -1.349679,-8.880559 1.601037,-5.524844 7.423774,-8.858552 12.945178,-7.411541 3.929678,1.029863 6.901892,4.117668 7.846662,8.151826 0.299344,1.278137 0.254848,3.533371 -0.09583,4.857625 -1.250368,4.72188 -5.285704,7.949952 -10.100247,8.079709 -0.717876,0.01924 -1.446192,0.01306 -1.618482,-0.01443 z m 3.236962,-2.614955 c 1.463217,-0.319411 2.995204,-1.200426 4.079032,-2.345769 0.754941,-0.797789 1.054327,-1.236757 1.506154,-2.208376 1.717008,-3.692283 0.508693,-8.100051 -2.850739,-10.399121 -2.368276,-1.620757 -5.756506,-1.834167 -8.373028,-0.527382 -2.202205,1.099862 -3.773518,3.081912 -4.340912,5.475616 -0.314663,1.327486 -0.251213,3.279353 0.145958,4.489981 0.842782,2.568921 2.901418,4.59535 5.456931,5.371564 1.443966,0.438592 2.818326,0.483648 4.376604,0.143487 z"
       id="path27" />
  </g>
</svg>
