<?xml version="1.0" encoding="UTF-8" standalone="no"?>
<svg
   width="64"
   height="64"
   version="1.1"
   viewBox="0 0 16.933 16.933"
   id="svg7"
   sodipodi:docname="accessories-text-editor.svg"
   inkscape:version="1.4.3 (0d15f75042, 2025-12-25)"
   xmlns:inkscape="http://www.inkscape.org/namespaces/inkscape"
   xmlns:sodipodi="http://sodipodi.sourceforge.net/DTD/sodipodi-0.dtd"
   xmlns="http://www.w3.org/2000/svg"
   xmlns:svg="http://www.w3.org/2000/svg"
   xmlns:rdf="http://www.w3.org/1999/02/22-rdf-syntax-ns#"
   xmlns:cc="http://creativecommons.org/ns#"
   xmlns:dc="http://purl.org/dc/elements/1.1/">
  <sodipodi:namedview
     id="namedview7"
     pagecolor="#9c4444"
     bordercolor="#000000"
     borderopacity="0.25"
     inkscape:showpageshadow="2"
     inkscape:pageopacity="0.0"
     inkscape:pagecheckerboard="0"
     inkscape:deskcolor="#d1d1d1"
     inkscape:zoom="4.3531261"
     inkscape:cx="43.417074"
     inkscape:cy="20.904517"
     inkscape:window-width="1226"
     inkscape:window-height="669"
     inkscape:window-x="27"
     inkscape:window-y="158"
     inkscape:window-maximized="0"
     inkscape:current-layer="svg7"
     showgrid="false" />
  <defs
     id="defs2">
    <filter
       style="color-interpolation-filters:sRGB;"
       inkscape:label="Blur"
       id="filter5421"
       x="-0.12256455"
       y="-0.12342654"
       width="1.2451291"
       height="1.2468531">
      <feGaussianBlur
         stdDeviation="0.5 0.5"
         result="blur"
         id="feGaussianBlur5419" />
    </filter>
  </defs>
  <metadata
     id="metadata2">
    <rdf:RDF>
      <cc:Work
         rdf:about="">
        <dc:format>image/svg+xml</dc:format>
        <dc:type
           rdf:resource="http://purl.org/dc/dcmitype/StillImage" />
      </cc:Work>
    </rdf:RDF>
  </metadata>
  <rect
     style="opacity:0.3;fill:none;fill-opacity:0.996424;stroke:#000000;stroke-width:0.955221;stroke-dasharray:none;stroke-opacity:1;filter:url(#filter5421)"
     id="rect1-2-7"
     width="13.687567"
     height="13.591975"
     x="1.6227165"
     y="1.6705122"
     rx="2.8442214"
     ry="2.965905" />
  <rect
     style="fill:none;fill-opacity:1;stroke:{{colors.primary.default.hex}};stroke-width:0.955221;stroke-dasharray:none;stroke-opacity:1"
     id="rect1-2"
     width="13.687567"
     height="13.591975"
     x="1.6227167"
     y="1.6705124"
     rx="2.8442214"
     ry="2.965905" />
  <path
     id="rect3"
     style="fill:{{colors.primary.default.hex}};fill-opacity:1;stroke:none;stroke-width:0.137896;stroke-dasharray:none;stroke-opacity:0.6"
     d="m 5.0152635,4.4455019 c -0.3155489,0 -0.5696308,0.2540822 -0.5696308,0.569631 v 2.2785237 c 0,0.3155484 0.2540819,0.5696307 0.5696308,0.5696307 h 2.2785241 c 0.3155483,0 0.5696305,-0.2540823 0.5696305,-0.5696307 V 5.0151329 c 0,-0.3155488 -0.2540822,-0.569631 -0.5696305,-0.569631 z m 4.6239489,0 c -0.315549,0 -0.5696311,0.2540822 -0.5696311,0.569631 v 2.2785237 c 0,0.3155484 0.2540821,0.5696307 0.5696311,0.5696307 h 2.2785246 c 0.315547,0 0.569629,-0.2540823 0.569629,-0.5696307 V 5.0151329 c 0,-0.3155488 -0.254082,-0.569631 -0.569629,-0.569631 z M 5.0152635,9.0694503 c -0.3155489,0 -0.5696308,0.2540825 -0.5696308,0.5696312 v 2.2785255 c 0,0.315547 0.2540819,0.569629 0.5696308,0.569629 h 2.2785241 c 0.3155483,0 0.5696305,-0.254082 0.5696305,-0.569629 V 9.6390815 c 0,-0.3155487 -0.2540822,-0.5696312 -0.5696305,-0.5696312 z m 5.7632115,0 c -0.278458,0 -0.502731,0.2562409 -0.502731,0.5744793 V 10.677992 H 9.313917 a 0.24417046,0.22621272 0 0 0 -0.1725863,0.385893 l 1.4645573,1.357419 a 0.24417046,0.22621272 0 0 0 0.345172,0 l 1.465042,-1.357419 A 0.24417046,0.22621272 0 0 0 12.243518,10.677992 H 11.281206 V 9.6439296 c 0,-0.3182384 -0.224273,-0.5744793 -0.502731,-0.5744793 z" />
</svg>
