<?xml version="1.0" encoding="UTF-8" standalone="no"?>
<svg
   width="64"
   height="64"
   version="1.1"
   id="svg73"
   sodipodi:docname="folder.svg"
   inkscape:version="1.4.3 (0d15f75042, 2025-12-25)"
   xmlns:inkscape="http://www.inkscape.org/namespaces/inkscape"
   xmlns:sodipodi="http://sodipodi.sourceforge.net/DTD/sodipodi-0.dtd"
   xmlns:xlink="http://www.w3.org/1999/xlink"
   xmlns="http://www.w3.org/2000/svg"
   xmlns:svg="http://www.w3.org/2000/svg"
   xmlns:rdf="http://www.w3.org/1999/02/22-rdf-syntax-ns#"
   xmlns:cc="http://creativecommons.org/ns#"
   xmlns:dc="http://purl.org/dc/elements/1.1/">
  <metadata
     id="metadata77">
    <rdf:RDF>
      <cc:Work
         rdf:about="">
        <dc:format>image/svg+xml</dc:format>
        <dc:type
           rdf:resource="http://purl.org/dc/dcmitype/StillImage" />
      </cc:Work>
    </rdf:RDF>
  </metadata>
  <sodipodi:namedview
     pagecolor="#f5f7fa"
     bordercolor="#666666"
     borderopacity="1"
     objecttolerance="10"
     gridtolerance="10"
     guidetolerance="10"
     inkscape:pageopacity="0"
     inkscape:pageshadow="2"
     inkscape:window-width="1226"
     inkscape:window-height="661"
     id="namedview75"
     showgrid="false"
     inkscape:zoom="4.4470388"
     inkscape:cx="1.7989499"
     inkscape:cy="17.989499"
     inkscape:window-x="349"
     inkscape:window-y="239"
     inkscape:window-maximized="0"
     inkscape:current-layer="g877"
     inkscape:document-rotation="0"
     inkscape:pagecheckerboard="0"
     inkscape:showpageshadow="2"
     inkscape:deskcolor="#d1d1d1" />
  <defs
     id="defs29">
    <linearGradient
       id="linearGradient1"
       inkscape:collect="always">
      <stop
         style="stop-color:#b2b2b2;stop-opacity:1;"
         offset="0"
         id="stop1-3" />
      <stop
         style="stop-color:#ffffff;stop-opacity:1;"
         offset="1"
         id="stop2-6" />
    </linearGradient>
    <linearGradient
       inkscape:collect="always"
       xlink:href="#linearGradient1"
       id="linearGradient7"
       gradientUnits="userSpaceOnUse"
       x1="-11.836824"
       y1="-49.950535"
       x2="-11.840569"
       y2="-53.775551" />
    <filter
       style="color-interpolation-filters:sRGB;"
       inkscape:label="Blur"
       id="filter1780"
       x="-0.088182512"
       y="-0.11071178"
       width="1.176365"
       height="1.2214236">
      <feGaussianBlur
         stdDeviation="2 2"
         result="blur"
         id="feGaussianBlur1778" />
    </filter>
    <filter
       style="color-interpolation-filters:sRGB;"
       inkscape:label="Blur"
       id="filter2"
       x="-0.12233263"
       y="-0.13504725"
       width="1.2476794"
       height="1.2734322">
      <feGaussianBlur
         stdDeviation="2 2"
         result="blur"
         id="feGaussianBlur2" />
    </filter>
  </defs>
  <g
     id="g877"
     transform="matrix(1.1,0,0,1.1,-3.1845928,-3.2065454)">
    <g
       id="g2-7"
       style="fill:none;stroke:#000000;filter:url(#filter2);opacity:0.3">
      <rect
         style="opacity:1;fill:none;fill-opacity:1;stroke:#000000;stroke-width:2.10038"
         id="rect1-0"
         width="46.53138"
         height="31.812698"
         x="8.7203035"
         y="21.554148"
         rx="3.9603224"
         ry="4.4558206" />
      <rect
         style="opacity:1;fill:none;fill-opacity:1;stroke:#000000;stroke-width:1.81818"
         id="rect2-9"
         width="25.348841"
         height="5.7239318"
         x="8.5796289"
         y="11.092087"
         rx="3.6363637"
         ry="3.6363637" />
    </g>
    <path
       style="fill:#f5f7fa;stroke-width:0.204426;fill-opacity:1"
       d=""
       id="path3" />
    <g
       transform="matrix(3.0924016,0,0,3.4016418,57.097122,202.44137)"
       fill="url(#linearGradient939)"
       stroke-width="0.66145"
       id="g46-5"
       style="fill:url(#linearGradient7);fill-opacity:1" />
    <g
       id="g2">
      <rect
         style="opacity:1;fill:none;fill-opacity:1;stroke:{{colors.primary.default.hex}};stroke-width:2.10038"
         id="rect1"
         width="46.53138"
         height="31.812698"
         x="8.7203035"
         y="21.554148"
         rx="3.9603224"
         ry="4.4558206" />
      <rect
         style="opacity:1;fill:none;fill-opacity:1;stroke:{{colors.primary.default.hex}};stroke-width:1.81818"
         id="rect2"
         width="25.348841"
         height="5.7239318"
         x="8.5796289"
         y="11.092087"
         rx="3.6363637"
         ry="3.6363637" />
    </g>
    <path
       style="fill:{{colors.primary.default.hex}};stroke-width:0.0194564;fill-opacity:1"
       d="m 35.888959,46.710004 c -0.994632,-0.111383 -1.870707,-0.735087 -2.304999,-1.640995 -0.447896,-0.934286 -0.368279,-2.003195 0.215204,-2.889268 0.233274,-0.354248 0.700239,-0.768019 1.086465,-0.962702 0.311833,-0.157182 0.696082,-0.26596 1.072723,-0.303678 0.500293,-0.0501 1.10598,0.06394 1.545484,0.290981 0.07491,0.03869 0.14276,0.07335 0.150787,0.077 0.0081,0.0036 0.01458,-2.051591 0.01458,-4.567216 0,-2.515625 0.0034,-4.573864 0.0074,-4.573864 0.0042,0 0.282091,-0.08401 0.617739,-0.186695 0.335647,-0.102682 0.640908,-0.195281 0.678362,-0.205774 0.03745,-0.0105 0.17754,-0.05289 0.311302,-0.09418 0.133763,-0.04132 0.387667,-0.118722 0.564233,-0.172029 0.176567,-0.0533 0.841975,-0.256073 1.478683,-0.450591 0.63671,-0.194517 1.210185,-0.369041 1.274391,-0.387832 0.143968,-0.04213 0.799065,-0.24155 2.305576,-0.701837 0.63671,-0.194532 1.188297,-0.362384 1.225751,-0.373002 0.03745,-0.01062 0.278226,-0.08334 0.535049,-0.161614 0.256825,-0.07827 0.712102,-0.216991 1.011729,-0.308268 0.299631,-0.09128 0.687055,-0.209359 0.860946,-0.262403 l 0.316168,-0.09645 v 6.612302 c 0,4.69363 -0.0063,6.67039 -0.02151,6.812491 -0.139794,1.301577 -1.115295,2.347869 -2.400815,2.575034 -0.265515,0.04692 -0.731152,0.04712 -0.992275,4.05e-4 -0.608655,-0.108855 -1.112167,-0.373463 -1.557029,-0.818262 -0.441607,-0.441544 -0.700253,-0.933089 -0.819282,-1.556994 -0.04554,-0.238762 -0.04588,-0.731941 -6.85e-4,-0.982547 0.315601,-1.749061 2.05082,-2.813491 3.73862,-2.293375 0.153793,0.0474 0.377765,0.142606 0.579129,0.246196 0.0081,0.0042 0.01459,-1.285575 0.01459,-2.866008 0,-2.290722 -0.0049,-2.871657 -0.02432,-2.864363 -0.01338,0.005 -0.190673,0.0634 -0.393992,0.129723 -0.646549,0.210872 -2.679654,0.877502 -2.821178,0.925027 -0.18143,0.0609 -1.168406,0.38518 -2.665519,0.875769 -0.674164,0.220989 -1.481845,0.486444 -1.794851,0.58997 l -0.569097,0.188232 v 3.787309 c 0,2.523626 -0.0068,3.854538 -0.02059,3.988797 -0.102033,0.998606 -0.667489,1.837885 -1.555377,2.308574 -0.495725,0.262796 -1.096933,0.375616 -1.663517,0.312167 z"
       id="path1" />
  </g>
</svg>
