<?xml version="1.0" encoding="UTF-8" standalone="no"?>
<svg
   width="64"
   height="64"
   version="1.1"
   viewBox="0 0 16.933 16.933"
   id="svg7"
   sodipodi:docname="abcd.svg"
   inkscape:version="1.4.3 (0d15f75042, 2025-12-25)"
   xmlns:inkscape="http://www.inkscape.org/namespaces/inkscape"
   xmlns:sodipodi="http://sodipodi.sourceforge.net/DTD/sodipodi-0.dtd"
   xmlns="http://www.w3.org/2000/svg"
   xmlns:svg="http://www.w3.org/2000/svg"
   xmlns:rdf="http://www.w3.org/1999/02/22-rdf-syntax-ns#"
   xmlns:cc="http://creativecommons.org/ns#"
   xmlns:dc="http://purl.org/dc/elements/1.1/">
  <sodipodi:namedview
     id="namedview7"
     pagecolor="#9c4444"
     bordercolor="#000000"
     borderopacity="0.25"
     inkscape:showpageshadow="2"
     inkscape:pageopacity="0.0"
     inkscape:pagecheckerboard="0"
     inkscape:deskcolor="#d1d1d1"
     inkscape:zoom="4.3531261"
     inkscape:cx="38.133515"
     inkscape:cy="27.106957"
     inkscape:window-width="1226"
     inkscape:window-height="669"
     inkscape:window-x="100"
     inkscape:window-y="206"
     inkscape:window-maximized="0"
     inkscape:current-layer="svg7"
     showgrid="false" />
  <defs
     id="defs2">
    <filter
       style="color-interpolation-filters:sRGB;"
       inkscape:label="Blur"
       id="filter5421"
       x="-0.12256455"
       y="-0.12342654"
       width="1.2451291"
       height="1.2468531">
      <feGaussianBlur
         stdDeviation="0.5 0.5"
         result="blur"
         id="feGaussianBlur5419" />
    </filter>
  </defs>
  <metadata
     id="metadata2">
    <rdf:RDF>
      <cc:Work
         rdf:about="">
        <dc:format>image/svg+xml</dc:format>
        <dc:type
           rdf:resource="http://purl.org/dc/dcmitype/StillImage" />
      </cc:Work>
    </rdf:RDF>
  </metadata>
  <rect
     style="opacity:0.3;fill:none;fill-opacity:0.996424;stroke:#000000;stroke-width:0.955221;stroke-dasharray:none;stroke-opacity:1;filter:url(#filter5421)"
     id="rect1-2-7"
     width="13.687567"
     height="13.591975"
     x="1.6227165"
     y="1.6705122"
     rx="2.8442214"
     ry="2.965905" />
  <rect
     style="fill:none;fill-opacity:1;stroke:{{colors.primary.default.hex}};stroke-width:0.955221;stroke-dasharray:none;stroke-opacity:1"
     id="rect1-2"
     width="13.687567"
     height="13.591975"
     x="1.6227167"
     y="1.6705124"
     rx="2.8442214"
     ry="2.965905" />
  <path
     style="color:#232629;fill:{{colors.primary.default.hex}};fill-opacity:1;stroke:none;stroke-width:0.100734;stroke-dasharray:none;stroke-opacity:0.6"
     d="M 9.8138062,4.4245702 8.8437454,5.3676866 10.622193,7.1191894 8.8437454,8.8706926 9.8138062,9.8138076 12.508429,7.1191894 Z M 6.3108044,4.6940333 A 0.53892361,0.53892361 0 0 0 5.771881,5.232956 0.53892361,0.53892361 0 0 0 6.3108044,5.7718801 0.53892361,0.53892361 0 0 0 6.8497287,5.232956 0.53892361,0.53892361 0 0 0 6.3108044,4.6940333 Z M 5.098227,7.6581132 A 0.6736545,0.6736545 0 0 0 4.4245718,8.3317707 0.6736545,0.6736545 0 0 0 5.098227,9.0054234 0.6736545,0.6736545 0 0 0 5.771881,8.3317707 0.6736545,0.6736545 0 0 0 5.098227,7.6581132 Z M 7.6581131,10.352736 A 1.0778471,1.0778471 0 0 0 6.5802664,11.430582 1.0778471,1.0778471 0 0 0 7.6581131,12.50843 1.0778471,1.0778471 0 0 0 8.73596,11.430582 1.0778471,1.0778471 0 0 0 7.6581131,10.352736 Z"
     class="ColorScheme-Text"
     id="path5-4" />
</svg>
