<?xml version="1.0" encoding="UTF-8" standalone="no"?>
<svg
   width="64"
   height="64"
   version="1.1"
   viewBox="0 0 16.933 16.933"
   id="svg7"
   sodipodi:docname="accessories-text-editor.svg"
   inkscape:version="1.4.3 (0d15f75042, 2025-12-25)"
   xmlns:inkscape="http://www.inkscape.org/namespaces/inkscape"
   xmlns:sodipodi="http://sodipodi.sourceforge.net/DTD/sodipodi-0.dtd"
   xmlns="http://www.w3.org/2000/svg"
   xmlns:svg="http://www.w3.org/2000/svg"
   xmlns:rdf="http://www.w3.org/1999/02/22-rdf-syntax-ns#"
   xmlns:cc="http://creativecommons.org/ns#"
   xmlns:dc="http://purl.org/dc/elements/1.1/">
  <sodipodi:namedview
     id="namedview7"
     pagecolor="#9c4444"
     bordercolor="#000000"
     borderopacity="0.25"
     inkscape:showpageshadow="2"
     inkscape:pageopacity="0.0"
     inkscape:pagecheckerboard="0"
     inkscape:deskcolor="#d1d1d1"
     inkscape:zoom="4.3531261"
     inkscape:cx="38.363235"
     inkscape:cy="26.188077"
     inkscape:window-width="1226"
     inkscape:window-height="669"
     inkscape:window-x="263"
     inkscape:window-y="202"
     inkscape:window-maximized="0"
     inkscape:current-layer="svg7"
     showgrid="false" />
  <defs
     id="defs2">
    <filter
       style="color-interpolation-filters:sRGB;"
       inkscape:label="Blur"
       id="filter5421"
       x="-0.12256455"
       y="-0.12342654"
       width="1.2451291"
       height="1.2468531">
      <feGaussianBlur
         stdDeviation="0.5 0.5"
         result="blur"
         id="feGaussianBlur5419" />
    </filter>
  </defs>
  <metadata
     id="metadata2">
    <rdf:RDF>
      <cc:Work
         rdf:about="">
        <dc:format>image/svg+xml</dc:format>
        <dc:type
           rdf:resource="http://purl.org/dc/dcmitype/StillImage" />
      </cc:Work>
    </rdf:RDF>
  </metadata>
  <rect
     style="opacity:0.3;fill:none;fill-opacity:0.996424;stroke:#000000;stroke-width:0.955221;stroke-dasharray:none;stroke-opacity:1;filter:url(#filter5421)"
     id="rect1-2-7"
     width="13.687567"
     height="13.591975"
     x="1.6227165"
     y="1.6705122"
     rx="2.8442214"
     ry="2.965905" />
  <rect
     style="fill:none;fill-opacity:1;stroke:{{colors.primary.default.hex}};stroke-width:0.955221;stroke-dasharray:none;stroke-opacity:1"
     id="rect1-2"
     width="13.687567"
     height="13.591975"
     x="1.6227167"
     y="1.6705124"
     rx="2.8442214"
     ry="2.965905" />
  <path
     id="path50"
     style="fill:{{colors.primary.default.hex}};fill-opacity:1;stroke:none;stroke-width:0.257642;stroke-dasharray:none;stroke-dashoffset:2.2;stroke-opacity:0.3"
     d="M 8.4585903,4.4510991 C 8.1890639,4.4510447 7.9221184,4.4689232 7.7505802,4.5049414 7.3807272,4.5825923 6.9114195,4.746279 6.629941,4.8959324 L 6.3823639,5.0277723 H 6.0084827 C 5.6768982,5.0280316 5.617853,5.0361013 5.4866583,5.0982212 5.3076529,5.1829909 5.1704552,5.3225236 5.0896289,5.5012889 5.0397321,5.6116465 5.029282,5.6963126 5.0287406,5.99745 L 5.0282416,6.360764 4.8662217,6.6928798 C 4.5537088,7.3349526 4.452797,7.7734257 4.4546002,8.4752334 4.4564142,9.17703 4.566605,9.6402151 4.8833316,10.273691 l 0.1449231,0.28884 v 0.370359 c 0,0.260541 0.012836,0.401466 0.043779,0.475528 0.075326,0.18028 0.2161591,0.329232 0.3935061,0.416151 0.1531827,0.07509 0.2075001,0.08442 0.5832159,0.09914 0.3808342,0.0149 0.4256306,0.02262 0.5495008,0.09561 0.2980938,0.175656 0.8051436,0.348419 1.2409041,0.422189 0.1220699,0.02067 0.3888233,0.03866 0.5922729,0.04025 0.6364037,0.005 1.1986273,-0.120813 1.7607175,-0.394009 l 0.325069,-0.158007 0.399547,-0.01258 c 0.343513,-0.01077 0.418391,-0.02243 0.532895,-0.08102 0.181409,-0.09284 0.287278,-0.196958 0.37841,-0.372372 0.06925,-0.133282 0.07766,-0.187628 0.08805,-0.547486 l 0.01159,-0.399043 0.127813,-0.251603 c 0.272961,-0.5381933 0.397117,-1.0337555 0.41968,-1.6721479 0.02454,-0.694225 -0.0912,-1.2553635 -0.381934,-1.8492804 L 11.941301,6.4332271 11.923185,6.0336817 C 11.903121,5.5827652 11.857803,5.4374226 11.680132,5.2597504 11.496949,5.0765673 11.392067,5.0434561 10.961554,5.0328047 L 10.5766,5.0232464 10.251027,4.8652398 C 9.8885238,4.6890272 9.5745528,4.5832992 9.1822067,4.5054481 9.0003371,4.4693676 8.7281236,4.4511566 8.4585969,4.4511022 Z m -2.759076,0.9732 c 0.013942,-0.00104 0.028231,-0.0011 0.042267,0 0.067377,0.00514 0.1346728,0.034536 0.1902118,0.090073 C 6.0754551,5.6578324 6.0484756,5.8712 5.8736227,5.9778249 5.613117,6.1366817 5.316203,5.8626351 5.4559631,5.5923688 5.5091893,5.4894411 5.6018844,5.4314594 5.6995143,5.4242991 Z m 5.5312357,0 c 0.0763,0.00412 0.144678,0.041042 0.203294,0.1107047 0.102126,0.1213687 0.09972,0.2630438 -0.0064,0.3809269 -0.0982,0.1089308 -0.25146,0.1390805 -0.369353,0.072964 C 10.955852,5.9314477 10.91689,5.858619 10.91689,5.7232023 c 0,-0.1466814 0.04536,-0.2192409 0.168575,-0.2707246 0.05112,-0.02136 0.09964,-0.030655 0.145425,-0.02818 z m -2.7706496,0.140897 c 0.9257559,-0.00306 1.8683346,0.4831459 2.3962646,1.2504664 0.144285,0.2097101 0.350103,0.6598063 0.420681,0.9198596 0.09397,0.3462426 0.09404,1.1095499 5e-4,1.4472191 C 10.990008,10.220779 10.269422,10.956813 9.2450985,11.258465 8.8804616,11.365844 8.245026,11.387592 7.8688311,11.305264 7.0141476,11.118215 6.3065603,10.581351 5.9018004,9.8137605 4.9269169,7.9649871 6.1778458,5.7302282 8.275421,5.5727439 c 0.061442,-0.00461 0.1229598,-0.00734 0.1846767,-0.00752 z m 0.012579,1.9232515 c -0.018379,2.393e-4 -0.037223,5.779e-4 -0.056358,0.00155 -0.3804767,0.018372 -0.6840085,0.2147498 -0.8473983,0.547998 -0.099601,0.2031456 -0.1120536,0.5551869 -0.027678,0.7799682 0.1107977,0.295168 0.3662769,0.5230584 0.6808373,0.6078733 0.3189349,0.085993 0.6479273,0.00382 0.8982222,-0.2249338 C 9.5593689,8.799625 9.5673128,8.147512 9.1379185,7.7441252 8.9422258,7.5602725 8.7484153,7.485015 8.4726786,7.4884812 Z m 2.7696446,3.4253204 c 0.05446,0.0046 0.109109,0.02494 0.158009,0.06341 0.152443,0.119914 0.128058,0.400028 -0.04227,0.48811 -0.215308,0.111339 -0.441314,-0.01783 -0.441314,-0.252611 0,-0.186875 0.162171,-0.312714 0.325574,-0.298902 z m -5.5196617,0.003 c 0.1390673,0 0.2415167,0.06968 0.2817947,0.191721 0.043124,0.130669 0.012631,0.23627 -0.094099,0.326076 -0.2450667,0.206184 -0.6026338,-0.08114 -0.4554006,-0.365857 0.058028,-0.112218 0.1286356,-0.151969 0.2677054,-0.151969 z" />
</svg>
