<?xml version="1.0" encoding="UTF-8" standalone="no"?>
<svg
   width="64"
   height="64"
   version="1.1"
   viewBox="0 0 16.933 16.933"
   id="svg7"
   sodipodi:docname="accessories-text-editor.svg"
   inkscape:version="1.4.3 (0d15f75042, 2025-12-25)"
   xmlns:inkscape="http://www.inkscape.org/namespaces/inkscape"
   xmlns:sodipodi="http://sodipodi.sourceforge.net/DTD/sodipodi-0.dtd"
   xmlns="http://www.w3.org/2000/svg"
   xmlns:svg="http://www.w3.org/2000/svg"
   xmlns:rdf="http://www.w3.org/1999/02/22-rdf-syntax-ns#"
   xmlns:cc="http://creativecommons.org/ns#"
   xmlns:dc="http://purl.org/dc/elements/1.1/">
  <sodipodi:namedview
     id="namedview7"
     pagecolor="#9c4444"
     bordercolor="#000000"
     borderopacity="0.25"
     inkscape:showpageshadow="2"
     inkscape:pageopacity="0.0"
     inkscape:pagecheckerboard="0"
     inkscape:deskcolor="#d1d1d1"
     inkscape:zoom="4.3531261"
     inkscape:cx="38.363235"
     inkscape:cy="26.188077"
     inkscape:window-width="1226"
     inkscape:window-height="669"
     inkscape:window-x="263"
     inkscape:window-y="202"
     inkscape:window-maximized="0"
     inkscape:current-layer="svg7"
     showgrid="false" />
  <defs
     id="defs2">
    <filter
       style="color-interpolation-filters:sRGB;"
       inkscape:label="Blur"
       id="filter5421"
       x="-0.12256455"
       y="-0.12342654"
       width="1.2451291"
       height="1.2468531">
      <feGaussianBlur
         stdDeviation="0.5 0.5"
         result="blur"
         id="feGaussianBlur5419" />
    </filter>
  </defs>
  <metadata
     id="metadata2">
    <rdf:RDF>
      <cc:Work
         rdf:about="">
        <dc:format>image/svg+xml</dc:format>
        <dc:type
           rdf:resource="http://purl.org/dc/dcmitype/StillImage" />
      </cc:Work>
    </rdf:RDF>
  </metadata>
  <rect
     style="opacity:0.3;fill:none;fill-opacity:0.996424;stroke:#000000;stroke-width:0.955221;stroke-dasharray:none;stroke-opacity:1;filter:url(#filter5421)"
     id="rect1-2-7"
     width="13.687567"
     height="13.591975"
     x="1.6227165"
     y="1.6705122"
     rx="2.8442214"
     ry="2.965905" />
  <rect
     style="fill:none;fill-opacity:1;stroke:{{colors.primary.default.hex}};stroke-width:0.955221;stroke-dasharray:none;stroke-opacity:1"
     id="rect1-2"
     width="13.687567"
     height="13.591975"
     x="1.6227167"
     y="1.6705124"
     rx="2.8442214"
     ry="2.965905" />
  <path
     style="color:#444444;fill:{{colors.primary.default.hex}};fill-opacity:1;stroke:none;stroke-width:0.243472;stroke-dasharray:none;stroke-opacity:0.3"
     class="ColorScheme-Text"
     d="m 7.4850503,5.0314219 c -0.1962906,0 -0.1960182,2.627e-4 -0.3824211,0.1983983 L 6.5706908,6.0128729 H 5.3256675 c -0.4318397,0 -0.78497,0.3219967 -0.78497,0.7418379 V 11.13865 c 0,0.419845 0.3531303,0.762927 0.78497,0.762927 h 6.2816685 c 0.431838,0 0.784967,-0.343082 0.784967,-0.762927 V 6.7547108 c 0,-0.4198412 -0.353129,-0.7418379 -0.784967,-0.7418379 H 10.362311 L 9.8236624,5.2221533 C 9.6444603,5.0317527 9.6442415,5.0314219 9.4479513,5.0314219 Z M 11.650464,6.503598 a 0.24536265,0.24536265 0 0 1 0.0057,0 0.24536265,0.24536265 0 0 1 0.245365,0.2453628 A 0.24536265,0.24536265 0 0 1 11.656157,6.9943232 0.24536265,0.24536265 0 0 1 11.410816,6.7489608 0.24536265,0.24536265 0 0 1 11.650428,6.503598 Z M 8.4367883,6.9943232 a 1.9629012,1.9629012 0 0 1 0.029713,0 A 1.9629012,1.9629012 0 0 1 10.429402,8.957225 1.9629012,1.9629012 0 0 1 8.4665007,10.920127 1.9629012,1.9629012 0 0 1 6.5036001,8.957225 1.9629012,1.9629012 0 0 1 8.4367883,6.9943232 Z m 0.00574,0.981451 A 0.9814506,0.9814506 0 0 0 7.4850434,8.957225 0.9814506,0.9814506 0 0 0 8.4664943,9.9386751 0.9814506,0.9814506 0 0 0 9.447945,8.957225 0.9814506,0.9814506 0 0 0 8.4664943,7.9757742 a 0.9814506,0.9814506 0 0 0 -0.023962,0 z"
     id="path5-3" />
</svg>
