<?xml version="1.0" encoding="UTF-8" standalone="no"?>
<svg
   width="64"
   height="64"
   version="1.1"
   viewBox="0 0 16.933 16.933"
   id="svg7"
   sodipodi:docname="accessories-text-editor.svg"
   inkscape:version="1.4.3 (0d15f75042, 2025-12-25)"
   xmlns:inkscape="http://www.inkscape.org/namespaces/inkscape"
   xmlns:sodipodi="http://sodipodi.sourceforge.net/DTD/sodipodi-0.dtd"
   xmlns="http://www.w3.org/2000/svg"
   xmlns:svg="http://www.w3.org/2000/svg"
   xmlns:rdf="http://www.w3.org/1999/02/22-rdf-syntax-ns#"
   xmlns:cc="http://creativecommons.org/ns#"
   xmlns:dc="http://purl.org/dc/elements/1.1/">
  <sodipodi:namedview
     id="namedview7"
     pagecolor="#9c4444"
     bordercolor="#000000"
     borderopacity="0.25"
     inkscape:showpageshadow="2"
     inkscape:pageopacity="0.0"
     inkscape:pagecheckerboard="0"
     inkscape:deskcolor="#d1d1d1"
     inkscape:zoom="4.3531261"
     inkscape:cx="38.363235"
     inkscape:cy="26.188077"
     inkscape:window-width="1226"
     inkscape:window-height="669"
     inkscape:window-x="263"
     inkscape:window-y="202"
     inkscape:window-maximized="0"
     inkscape:current-layer="svg7"
     showgrid="false" />
  <defs
     id="defs2">
    <filter
       style="color-interpolation-filters:sRGB;"
       inkscape:label="Blur"
       id="filter5421"
       x="-0.12256455"
       y="-0.12342654"
       width="1.2451291"
       height="1.2468531">
      <feGaussianBlur
         stdDeviation="0.5 0.5"
         result="blur"
         id="feGaussianBlur5419" />
    </filter>
  </defs>
  <metadata
     id="metadata2">
    <rdf:RDF>
      <cc:Work
         rdf:about="">
        <dc:format>image/svg+xml</dc:format>
        <dc:type
           rdf:resource="http://purl.org/dc/dcmitype/StillImage" />
      </cc:Work>
    </rdf:RDF>
  </metadata>
  <rect
     style="opacity:0.3;fill:none;fill-opacity:0.996424;stroke:#000000;stroke-width:0.955221;stroke-dasharray:none;stroke-opacity:1;filter:url(#filter5421)"
     id="rect1-2-7"
     width="13.687567"
     height="13.591975"
     x="1.6227165"
     y="1.6705122"
     rx="2.8442214"
     ry="2.965905" />
  <rect
     style="fill:none;fill-opacity:1;stroke:{{colors.primary.default.hex}};stroke-width:0.955221;stroke-dasharray:none;stroke-opacity:1"
     id="rect1-2"
     width="13.687567"
     height="13.591975"
     x="1.6227167"
     y="1.6705124"
     rx="2.8442214"
     ry="2.965905" />
  <path
     style="fill:{{colors.primary.default.hex}};fill-opacity:1;stroke:none;stroke-width:0.257642;stroke-dasharray:none;stroke-opacity:0.3"
     d="M 8.4193193,4.441225 A 3.5228224,3.522151 0 0 0 4.943678,7.9633751 3.5228224,3.522151 0 0 0 6.9714629,11.152375 C 6.43204,11.3325 5.9501993,11.538999 5.9501993,11.709591 v 0.39113 c 0,0.216809 0.1873724,0.391133 0.4197104,0.391133 H 10.56309 c 0.232339,0 0.41971,-0.174324 0.41971,-0.391133 v -0.39113 c 0,-0.170592 -0.481839,-0.377091 -1.0212631,-0.557216 A 3.5228224,3.522151 0 0 0 11.989322,7.9633751 3.5228224,3.522151 0 0 0 8.4664998,4.441225 a 3.5228224,3.522151 0 0 0 -0.04718,0 z m 0.016705,1.5094928 a 2.0130412,2.0126576 0 0 1 0.030472,0 A 2.0130412,2.0126576 0 0 1 10.479537,7.9633751 2.0130412,2.0126576 0 0 1 8.4664965,9.9760339 2.0130412,2.0126576 0 0 1 6.4534554,7.9633751 2.0130412,2.0126576 0 0 1 8.4360243,5.9507178 Z m 0.00588,1.0063287 a 1.0065204,1.0063287 0 0 0 -0.9819231,1.0063286 1.0065204,1.0063287 0 0 0 1.0065196,1.006329 1.0065204,1.0063287 0 0 0 1.0065206,-1.006329 1.0065204,1.0063287 0 0 0 -1.0065206,-1.0063286 1.0065204,1.0063287 0 0 0 -0.024569,0 z"
     id="path2" />
</svg>
