<?xml version="1.0" encoding="UTF-8" standalone="no"?>
<svg
   width="64"
   height="64"
   version="1.1"
   viewBox="0 0 16.933 16.933"
   id="svg7"
   sodipodi:docname="accessories-text-editor.svg"
   inkscape:version="1.4.3 (0d15f75042, 2025-12-25)"
   xmlns:inkscape="http://www.inkscape.org/namespaces/inkscape"
   xmlns:sodipodi="http://sodipodi.sourceforge.net/DTD/sodipodi-0.dtd"
   xmlns="http://www.w3.org/2000/svg"
   xmlns:svg="http://www.w3.org/2000/svg"
   xmlns:rdf="http://www.w3.org/1999/02/22-rdf-syntax-ns#"
   xmlns:cc="http://creativecommons.org/ns#"
   xmlns:dc="http://purl.org/dc/elements/1.1/">
  <sodipodi:namedview
     id="namedview7"
     pagecolor="#9c4444"
     bordercolor="#000000"
     borderopacity="0.25"
     inkscape:showpageshadow="2"
     inkscape:pageopacity="0.0"
     inkscape:pagecheckerboard="0"
     inkscape:deskcolor="#d1d1d1"
     inkscape:zoom="4.3531261"
     inkscape:cx="38.363235"
     inkscape:cy="26.188077"
     inkscape:window-width="1226"
     inkscape:window-height="669"
     inkscape:window-x="263"
     inkscape:window-y="202"
     inkscape:window-maximized="0"
     inkscape:current-layer="svg7"
     showgrid="false" />
  <defs
     id="defs2">
    <filter
       style="color-interpolation-filters:sRGB;"
       inkscape:label="Blur"
       id="filter5421"
       x="-0.12256455"
       y="-0.12342654"
       width="1.2451291"
       height="1.2468531">
      <feGaussianBlur
         stdDeviation="0.5 0.5"
         result="blur"
         id="feGaussianBlur5419" />
    </filter>
  </defs>
  <metadata
     id="metadata2">
    <rdf:RDF>
      <cc:Work
         rdf:about="">
        <dc:format>image/svg+xml</dc:format>
        <dc:type
           rdf:resource="http://purl.org/dc/dcmitype/StillImage" />
      </cc:Work>
    </rdf:RDF>
  </metadata>
  <rect
     style="opacity:0.3;fill:none;fill-opacity:0.996424;stroke:#000000;stroke-width:0.955221;stroke-dasharray:none;stroke-opacity:1;filter:url(#filter5421)"
     id="rect1-2-7"
     width="13.687567"
     height="13.591975"
     x="1.6227165"
     y="1.6705122"
     rx="2.8442214"
     ry="2.965905" />
  <rect
     style="fill:none;fill-opacity:1;stroke:{{colors.primary.default.hex}};stroke-width:0.955221;stroke-dasharray:none;stroke-opacity:1"
     id="rect1-2"
     width="13.687567"
     height="13.591975"
     x="1.6227167"
     y="1.6705124"
     rx="2.8442214"
     ry="2.965905" />
  <path
     id="path53"
     style="fill:{{colors.primary.default.hex}};fill-opacity:1;stroke:none;stroke-width:0.269278;stroke-dasharray:none;stroke-dashoffset:2.2;stroke-opacity:0.3"
     d="m 10.894388,4.267669 -0.734257,0.7347835 -0.7347842,0.7342567 0.7263682,0.726895 c 0.399563,0.3998336 0.733895,0.7268933 0.742673,0.7268933 0.0088,0 0.342584,-0.3270597 0.742147,-0.7268933 L 12.363429,5.7367092 11.628642,5.0024525 Z M 6.0380859,4.2681943 5.3038279,5.001926 4.5695709,5.7361834 4.8315052,5.9996957 c 0.144018,0.14477 0.2692235,0.2629858 0.2782395,0.2629858 0.00902,0 0.3431485,-0.3270975 0.7426721,-0.7268935 L 6.578785,4.8088937 6.3084359,4.5385442 Z m 0.9441199,0.9425426 -0.7347833,0.7342577 -0.734783,0.7342566 0.2545709,0.255623 c 0.1398634,0.1405961 0.2613299,0.2556231 0.2703489,0.2556231 0.00902,0 0.3432757,-0.3266988 0.7426732,-0.7263685 L 7.5066004,5.7372348 7.244666,5.474249 Z m 1.4837675,1.1476716 c -0.139348,0 -0.2783445,0.019668 -0.4297194,0.058383 C 7.6955326,6.5039343 7.4491846,6.6443674 7.1957508,6.8959527 6.9462153,7.1436682 6.8380661,7.3125719 6.7265833,7.6317878 6.6264588,7.9184774 6.6147024,8.3752585 6.6997594,8.6600638 6.9235577,9.4094457 7.5324342,9.9263768 8.2808312,10.002345 9.2218269,10.097866 10.065341,9.4673713 10.263748,8.520681 10.456129,7.6027381 9.842383,6.6587793 8.8962194,6.4167916 8.7448448,6.3780764 8.6053207,6.3584085 8.4659733,6.3584085 Z m 0,0.7863286 c 0.2598342,2.89e-4 0.3324014,0.011899 0.4528627,0.071533 0.2195993,0.1087111 0.3761729,0.2598025 0.4923099,0.474953 0.09891,0.1832364 0.1058162,0.2139809 0.1062464,0.4891535 C 9.5177864,8.4399919 9.5080158,8.4951 9.4316576,8.650597 9.3068954,8.9046623 9.0586056,9.1213649 8.8015445,9.2007638 8.5510173,9.2781419 8.3681779,9.2777074 8.1204103,9.1991615 7.8747759,9.1213173 7.6223468,8.8980548 7.5008149,8.6505724 7.4256367,8.4974814 7.4145558,8.438278 7.4145558,8.1961323 c 0,-0.2352411 0.012487,-0.3052814 0.080473,-0.4502319 C 7.6058565,7.5096124 7.7342663,7.3737303 7.9626184,7.2499078 8.1471424,7.1498509 8.1723886,7.1443637 8.465973,7.144713 Z M 7.4298082,10.593018 v 0.371337 0.371336 H 8.4659733 9.5026652 V 10.964335 10.592998 H 8.4659733 Z m 0,1.299153 v 0.386586 0.386591 H 8.4659733 9.5026652 V 12.27875 11.89216 H 8.4659733 Z" />
</svg>
