<?xml version="1.0" encoding="UTF-8" standalone="no"?>
<svg
   width="64"
   height="64"
   version="1.1"
   viewBox="0 0 16.933 16.933"
   id="svg7"
   sodipodi:docname="accessories-text-editor.svg"
   inkscape:version="1.4.3 (0d15f75042, 2025-12-25)"
   xmlns:inkscape="http://www.inkscape.org/namespaces/inkscape"
   xmlns:sodipodi="http://sodipodi.sourceforge.net/DTD/sodipodi-0.dtd"
   xmlns="http://www.w3.org/2000/svg"
   xmlns:svg="http://www.w3.org/2000/svg"
   xmlns:rdf="http://www.w3.org/1999/02/22-rdf-syntax-ns#"
   xmlns:cc="http://creativecommons.org/ns#"
   xmlns:dc="http://purl.org/dc/elements/1.1/">
  <sodipodi:namedview
     id="namedview7"
     pagecolor="#9c4444"
     bordercolor="#000000"
     borderopacity="0.25"
     inkscape:showpageshadow="2"
     inkscape:pageopacity="0.0"
     inkscape:pagecheckerboard="0"
     inkscape:deskcolor="#d1d1d1"
     inkscape:zoom="4.3531261"
     inkscape:cx="38.363235"
     inkscape:cy="26.188077"
     inkscape:window-width="1226"
     inkscape:window-height="669"
     inkscape:window-x="10"
     inkscape:window-y="169"
     inkscape:window-maximized="0"
     inkscape:current-layer="svg7"
     showgrid="false" />
  <defs
     id="defs2">
    <filter
       style="color-interpolation-filters:sRGB;"
       inkscape:label="Blur"
       id="filter5421"
       x="-0.12256455"
       y="-0.12342654"
       width="1.2451291"
       height="1.2468531">
      <feGaussianBlur
         stdDeviation="0.5 0.5"
         result="blur"
         id="feGaussianBlur5419" />
    </filter>
  </defs>
  <metadata
     id="metadata2">
    <rdf:RDF>
      <cc:Work
         rdf:about="">
        <dc:format>image/svg+xml</dc:format>
        <dc:type
           rdf:resource="http://purl.org/dc/dcmitype/StillImage" />
      </cc:Work>
    </rdf:RDF>
  </metadata>
  <rect
     style="opacity:0.3;fill:none;fill-opacity:0.996424;stroke:#000000;stroke-width:0.955221;stroke-dasharray:none;stroke-opacity:1;filter:url(#filter5421)"
     id="rect1-2-7"
     width="13.687567"
     height="13.591975"
     x="1.6227165"
     y="1.6705122"
     rx="2.8442214"
     ry="2.965905" />
  <rect
     style="fill:none;fill-opacity:1;stroke:{{colors.primary.default.hex}};stroke-width:0.955221;stroke-dasharray:none;stroke-opacity:1"
     id="rect1-2"
     width="13.687567"
     height="13.591975"
     x="1.6227167"
     y="1.6705124"
     rx="2.8442214"
     ry="2.965905" />
  <path
     style="color:#444444;fill:{{colors.primary.default.hex}};fill-opacity:1;stroke:none;stroke-width:0.244816;stroke-dasharray:none;stroke-opacity:0.3"
     class="ColorScheme-Text"
     d="m 5.5354852,5.2690297 c 0,0 -1.0658234,0 -1.0658234,1.0658238 v 4.2632925 c 0,1.065824 1.0658234,1.065824 1.0658234,1.065824 h 5.8620278 c 0,0 1.065826,0 1.065826,-1.065824 V 6.3348535 c 0,-1.0658238 -1.065826,-1.0658238 -1.065826,-1.0658238 z m 0.133228,1.0658238 h 0.7993674 c 0.073809,0 0.1332273,0.059422 0.1332273,0.1332285 v 0.7993674 c 0,0.073809 -0.059421,0.1332276 -0.1332273,0.1332276 H 5.6687132 c -0.073808,0 -0.133228,-0.059422 -0.133228,-0.1332276 V 6.468082 c 0,-0.073809 0.059421,-0.1332285 0.133228,-0.1332285 z m 1.5987353,0 h 0.7993669 c 0.07381,0 0.133228,0.059422 0.133228,0.1332285 v 0.7993674 c 0,0.073809 -0.05942,0.1332276 -0.133228,0.1332276 H 7.2674485 C 7.1936385,7.400677 7.13422,7.341256 7.13422,7.2674494 V 6.468082 c 0,-0.073809 0.059421,-0.1332285 0.1332285,-0.1332285 z m 1.5987349,0 h 0.7993668 c 0.073809,0 0.1332291,0.059422 0.1332291,0.1332285 v 0.7993674 c 0,0.073809 -0.059419,0.1332276 -0.1332291,0.1332276 H 8.8661834 c -0.073808,0 -0.133228,-0.059422 -0.133228,-0.1332276 V 6.468082 c 0,-0.073809 0.059419,-0.1332285 0.133228,-0.1332285 z m 1.5987336,0 h 0.799369 c 0.07381,0 0.133227,0.059422 0.133227,0.1332285 v 0.7993674 c 0,0.073809 -0.05943,0.1332276 -0.133227,0.1332276 h -0.799369 c -0.07381,0 -0.133227,-0.059422 -0.133227,-0.1332276 V 6.468082 c 0,-0.073809 0.05942,-0.1332285 0.133227,-0.1332285 z M 5.6687132,7.9335884 h 0.7993674 c 0.073809,0 0.1332273,0.059421 0.1332273,0.1332271 v 0.7993688 c 0,0.07381 -0.059421,0.1332271 -0.1332273,0.1332271 H 5.6687132 c -0.073808,0 -0.133228,-0.059421 -0.133228,-0.1332271 V 8.0668155 c 0,-0.073808 0.059421,-0.1332271 0.133228,-0.1332271 z m 1.5987353,0 h 0.7993669 c 0.07381,0 0.133228,0.059421 0.133228,0.1332271 v 0.7993688 c 0,0.07381 -0.05942,0.1332271 -0.133228,0.1332271 H 7.2674485 c -0.07381,0 -0.1332285,-0.059421 -0.1332285,-0.1332271 V 8.0668155 c 0,-0.073808 0.059421,-0.1332271 0.1332285,-0.1332271 z m 1.5987349,0 h 0.7993668 c 0.073809,0 0.1332291,0.059421 0.1332291,0.1332271 v 0.7993688 c 0,0.07381 -0.059419,0.1332271 -0.1332291,0.1332271 H 8.8661834 c -0.073808,0 -0.133228,-0.059421 -0.133228,-0.1332271 V 8.0668155 c 0,-0.073808 0.059419,-0.1332271 0.133228,-0.1332271 z m 1.5987336,0 h 0.799369 c 0.07381,0 0.133227,0.059421 0.133227,0.1332271 v 0.7993688 c 0,0.07381 -0.05943,0.1332271 -0.133227,0.1332271 h -0.799369 c -0.07381,0 -0.133227,-0.059421 -0.133227,-0.1332271 V 8.0668155 c 0,-0.073808 0.05942,-0.1332271 0.133227,-0.1332271 z M 6.7345359,9.5323235 h 3.4639251 c 0.07381,0 0.133229,0.059422 0.133229,0.1332274 v 0.7993651 c 0,0.07382 -0.05943,0.13323 -0.133229,0.13323 H 6.7345359 c -0.073809,0 -0.133228,-0.05943 -0.133228,-0.13323 V 9.6655509 c 0,-0.073805 0.059421,-0.1332274 0.133228,-0.1332274 z"
     id="path5" />
</svg>
