<?xml version="1.0" encoding="UTF-8" standalone="no"?>
<svg
   width="64"
   height="64"
   version="1.1"
   viewBox="0 0 16.933 16.933"
   id="svg7"
   sodipodi:docname="accessories-text-editor.svg"
   inkscape:version="1.4.3 (0d15f75042, 2025-12-25)"
   xmlns:inkscape="http://www.inkscape.org/namespaces/inkscape"
   xmlns:sodipodi="http://sodipodi.sourceforge.net/DTD/sodipodi-0.dtd"
   xmlns="http://www.w3.org/2000/svg"
   xmlns:svg="http://www.w3.org/2000/svg"
   xmlns:rdf="http://www.w3.org/1999/02/22-rdf-syntax-ns#"
   xmlns:cc="http://creativecommons.org/ns#"
   xmlns:dc="http://purl.org/dc/elements/1.1/">
  <sodipodi:namedview
     id="namedview7"
     pagecolor="#9c4444"
     bordercolor="#000000"
     borderopacity="0.25"
     inkscape:showpageshadow="2"
     inkscape:pageopacity="0.0"
     inkscape:pagecheckerboard="0"
     inkscape:deskcolor="#d1d1d1"
     inkscape:zoom="4.3531261"
     inkscape:cx="38.363235"
     inkscape:cy="26.188077"
     inkscape:window-width="1226"
     inkscape:window-height="669"
     inkscape:window-x="10"
     inkscape:window-y="169"
     inkscape:window-maximized="0"
     inkscape:current-layer="svg7"
     showgrid="false" />
  <defs
     id="defs2">
    <filter
       style="color-interpolation-filters:sRGB;"
       inkscape:label="Blur"
       id="filter5421"
       x="-0.12256455"
       y="-0.12342654"
       width="1.2451291"
       height="1.2468531">
      <feGaussianBlur
         stdDeviation="0.5 0.5"
         result="blur"
         id="feGaussianBlur5419" />
    </filter>
  </defs>
  <metadata
     id="metadata2">
    <rdf:RDF>
      <cc:Work
         rdf:about="">
        <dc:format>image/svg+xml</dc:format>
        <dc:type
           rdf:resource="http://purl.org/dc/dcmitype/StillImage" />
      </cc:Work>
    </rdf:RDF>
  </metadata>
  <rect
     style="opacity:0.3;fill:none;fill-opacity:0.996424;stroke:#000000;stroke-width:0.955221;stroke-dasharray:none;stroke-opacity:1;filter:url(#filter5421)"
     id="rect1-2-7"
     width="13.687567"
     height="13.591975"
     x="1.6227165"
     y="1.6705122"
     rx="2.8442214"
     ry="2.965905" />
  <rect
     style="fill:none;fill-opacity:1;stroke:{{colors.primary.default.hex}};stroke-width:0.955221;stroke-dasharray:none;stroke-opacity:1"
     id="rect1-2"
     width="13.687567"
     height="13.591975"
     x="1.6227167"
     y="1.6705124"
     rx="2.8442214"
     ry="2.965905" />
  <path
     id="path46"
     style="fill:{{colors.primary.default.hex}};fill-opacity:1;stroke-width:0.0441856;stroke-opacity:0.3"
     d="m 7.9402295,5.0606879 c -3.592991,0 -3.4585672,-0.00944 -3.5999914,0.2640486 -0.057986,0.112133 -0.066941,0.5351264 -0.066941,3.1383019 0,3.2879246 -0.0075,3.1911066 0.2544855,3.3332826 0.1842426,0.09997 6.6233074,0.101985 6.8163944,0.0023 0.259421,-0.134159 0.263518,-0.165896 0.263518,-1.9737238 V 8.1772014 L 11.099783,8.6840477 10.591876,9.190894 v 0.829336 0.828806 H 7.9402295 5.2891144 V 8.4624937 6.0759602 l 2.6824603,0.00218 2.6819273,0.00158 0.410686,-0.4090893 c 0.225991,-0.2250531 0.411215,-0.4239479 0.411215,-0.4420289 0,-0.018081 -0.05901,-0.063337 -0.130696,-0.1004128 -0.113411,-0.05865 -0.556074,-0.067474 -3.4044775,-0.067474 z m 4.1944985,0.5355355 c -0.06956,0.00344 -0.140401,0.02211 -0.208795,0.058442 -0.139727,0.074231 -3.2921179,3.2295846 -3.3587869,3.3619731 -0.02485,0.049352 -0.059219,0.233647 -0.076503,0.4090894 l -0.031346,0.318771 h 0.2900822 c 0.1595217,0 0.3459901,-0.020792 0.4144028,-0.046225 0.06841,-0.025423 0.8751329,-0.7956209 1.7925559,-1.7117958 1.344846,-1.343012 1.672929,-1.6941006 1.6948,-1.8106198 0.06126,-0.3265073 -0.214995,-0.5944988 -0.516409,-0.5796324 z" />
</svg>
