<?xml version="1.0" encoding="UTF-8" standalone="no"?>
<svg
   width="64"
   height="64"
   version="1.1"
   viewBox="0 0 16.933 16.933"
   id="svg7"
   sodipodi:docname="accessories-text-editor.svg"
   inkscape:version="1.4.3 (0d15f75042, 2025-12-25)"
   xmlns:inkscape="http://www.inkscape.org/namespaces/inkscape"
   xmlns:sodipodi="http://sodipodi.sourceforge.net/DTD/sodipodi-0.dtd"
   xmlns="http://www.w3.org/2000/svg"
   xmlns:svg="http://www.w3.org/2000/svg"
   xmlns:rdf="http://www.w3.org/1999/02/22-rdf-syntax-ns#"
   xmlns:cc="http://creativecommons.org/ns#"
   xmlns:dc="http://purl.org/dc/elements/1.1/">
  <sodipodi:namedview
     id="namedview7"
     pagecolor="#9c4444"
     bordercolor="#000000"
     borderopacity="0.25"
     inkscape:showpageshadow="2"
     inkscape:pageopacity="0.0"
     inkscape:pagecheckerboard="0"
     inkscape:deskcolor="#d1d1d1"
     inkscape:zoom="4.3531261"
     inkscape:cx="38.363235"
     inkscape:cy="26.188077"
     inkscape:window-width="1226"
     inkscape:window-height="669"
     inkscape:window-x="10"
     inkscape:window-y="169"
     inkscape:window-maximized="0"
     inkscape:current-layer="svg7"
     showgrid="false" />
  <defs
     id="defs2">
    <filter
       style="color-interpolation-filters:sRGB;"
       inkscape:label="Blur"
       id="filter5421"
       x="-0.12256455"
       y="-0.12342654"
       width="1.2451291"
       height="1.2468531">
      <feGaussianBlur
         stdDeviation="0.5 0.5"
         result="blur"
         id="feGaussianBlur5419" />
    </filter>
  </defs>
  <metadata
     id="metadata2">
    <rdf:RDF>
      <cc:Work
         rdf:about="">
        <dc:format>image/svg+xml</dc:format>
        <dc:type
           rdf:resource="http://purl.org/dc/dcmitype/StillImage" />
      </cc:Work>
    </rdf:RDF>
  </metadata>
  <rect
     style="opacity:0.3;fill:none;fill-opacity:0.996424;stroke:#000000;stroke-width:0.955221;stroke-dasharray:none;stroke-opacity:1;filter:url(#filter5421)"
     id="rect1-2-7"
     width="13.687567"
     height="13.591975"
     x="1.6227165"
     y="1.6705122"
     rx="2.8442214"
     ry="2.965905" />
  <rect
     style="fill:none;fill-opacity:1;stroke:{{colors.primary.default.hex}};stroke-width:0.955221;stroke-dasharray:none;stroke-opacity:1"
     id="rect1-2"
     width="13.687567"
     height="13.591975"
     x="1.6227167"
     y="1.6705124"
     rx="2.8442214"
     ry="2.965905" />
  <path
     id="path59"
     style="fill:{{colors.primary.default.hex}};fill-opacity:1;stroke:none;stroke-width:0.139717;stroke-dasharray:none;stroke-dashoffset:2.2;stroke-opacity:0.6"
     d="m 8.4825574,4.3797478 c -4.1606463,0 -3.9961692,-0.00624 -4.0840684,0.1579983 -0.020324,0.037989 -0.033117,0.4062674 -0.033117,0.9659073 0,0.9989965 0.00181,1.0094738 0.2036067,1.0973026 0.082092,0.03573 0.7691499,0.043493 3.8945781,0.04452 3.4477822,0.00118 3.8049492,-0.00359 3.9048942,-0.051036 0.20025,-0.095029 0.20704,-0.1335314 0.196548,-1.1331363 l -0.0092,-0.8953241 -0.10424,-0.093387 -0.104783,-0.092845 z m 2.2684436,0.3496595 c 0.127143,0.00325 0.248257,0.055903 0.308396,0.1476823 0.117567,0.179431 0.04258,0.3901013 -0.171029,0.4805109 -0.126764,0.053657 -0.18884,0.053408 -0.31654,-0.00213 -0.129391,-0.056317 -0.203607,-0.1652383 -0.203607,-0.2986254 0,-0.1402504 0.04507,-0.2190331 0.159086,-0.2779901 0.06907,-0.035716 0.14741,-0.051342 0.223694,-0.049409 z m -1.1657134,0.00162 c 0.3896828,0 0.4953344,0.4784464 0.1373675,0.6216774 C 9.5863648,5.4072473 9.5649412,5.408158 9.4202311,5.3662882 9.2185279,5.3079208 9.1316752,5.0897202 9.2323707,4.8949972 9.2894282,4.7846619 9.4054763,4.7310268 9.5852876,4.7310273 Z m 2.1821144,0 c 0.405984,0 0.532793,0.4717155 0.166143,0.6184191 -0.07127,0.028518 -0.147262,0.050451 -0.168857,0.048866 -0.342953,-0.025165 -0.490334,-0.3344173 -0.266041,-0.5587064 0.09462,-0.094647 0.128922,-0.1085895 0.268755,-0.1085895 z m -3.5867244,0.159623 c 0.077986,0 0.2079495,0.1467084 0.2079495,0.2345547 0,0.07104 -0.4118001,0.6500566 -0.6336227,0.8909803 -0.1454921,0.15802 -0.3882092,0.085358 -0.3882092,-0.1161915 0,-0.083312 0.06508,-0.1901298 0.3208834,-0.5250317 C 8.0020069,4.963433 8.0766824,4.8906466 8.1806776,4.8906466 Z m -2.6713129,0.00542 c 0.042455,-0.00473 0.081331,0.014612 0.1281355,0.049406 C 5.798927,5.0654644 5.7728485,5.1583354 5.4642982,5.5639112 5.3117664,5.7644138 5.150232,5.967898 5.1054089,6.016192 5.0074781,6.1217079 4.8722784,6.1316354 4.780726,6.0400861 4.6595268,5.918889 4.6956163,5.8285346 5.0527427,5.3619423 5.3050045,5.0323611 5.4159577,4.9064245 5.5093647,4.8960918 Z m 0.902381,0.0011 c 0.014546,7.85e-5 0.029296,0.0027 0.044519,0.00654 0.1042675,0.02615 0.188886,0.1564413 0.1645141,0.2535407 C 6.6009242,5.2363669 6.0668369,5.9512971 5.9556669,6.0476898 5.869544,6.1223645 5.7297432,6.118675 5.6581308,6.0395402 5.5441014,5.9135457 5.5813153,5.8192687 5.912233,5.3890939 6.2108379,5.0009238 6.3099463,4.8966373 6.4117457,4.8971813 Z m 0.8475451,0.00654 c 0.090018,-0.00631 0.1916384,0.037903 0.2150079,0.098805 0.052661,0.1372306 0.013024,0.223072 -0.2866773,0.617328 C 7.0186191,5.84218 6.8573466,6.0420393 6.8298184,6.0639924 6.7007008,6.166949 6.4730999,6.0601261 6.4730999,5.8967628 c 0,-0.1109922 0.6442253,-0.960991 0.7481847,-0.9870826 0.012112,-0.00304 0.025148,-0.00506 0.038005,-0.00598 z M 8.448351,7.3111246 c -1.9134746,6.041e-4 -3.8230169,0.018714 -3.8907783,0.053756 -0.1908755,0.098702 -0.1922045,0.104913 -0.1922045,1.095132 0,0.5570651 0.012969,0.9282594 0.03312,0.9659066 0.017998,0.033637 0.071596,0.08262 0.1194478,0.1085894 0.075384,0.040912 0.6041577,0.047209 3.9581045,0.048322 l 3.8706895,0.00107 0.104785,-0.092844 0.10424,-0.093386 0.0092,-0.8953249 c 0.01046,-1.0040733 0.0019,-1.0545723 -0.201931,-1.1396523 -0.08376,-0.034964 -2.001197,-0.052123 -3.914672,-0.05155 z m 1.1271638,0.3599822 c 0.054014,0.00116 0.107554,0.017488 0.1748297,0.049409 0.2129485,0.1010517 0.2585795,0.3651221 0.090676,0.522863 C 9.7842329,8.2967166 9.712665,8.3219961 9.5869242,8.3324204 9.4207661,8.346207 9.4058315,8.3408173 9.2991548,8.2341474 9.1151534,8.0501462 9.160069,7.8120919 9.3974322,7.7129168 9.466718,7.6839672 9.5214979,7.6699343 9.5755193,7.6711112 Z m 2.2032882,0 c 0.05402,0.00116 0.107557,0.017488 0.17483,0.049409 0.212948,0.1010507 0.258583,0.3651208 0.09066,0.522861 -0.05678,0.053339 -0.12836,0.078617 -0.2541,0.089046 -0.166151,0.013786 -0.181083,0.0084 -0.287763,-0.098275 -0.184002,-0.1840022 -0.139086,-0.4220564 0.09828,-0.5212315 0.06929,-0.028949 0.124064,-0.042983 0.178087,-0.041808 z m -1.012599,0.00706 c 0.01725,7.617e-4 0.03392,0.00301 0.04993,0.00654 0.125524,0.027574 0.274416,0.1538705 0.299706,0.2546437 0.02893,0.1152409 -0.05625,0.2914343 -0.168858,0.3496599 -0.183937,0.09512 -0.467462,0.039087 -0.546202,-0.1080464 -0.05313,-0.099278 -0.0375,-0.273761 0.03203,-0.3621477 0.06946,-0.088299 0.212591,-0.1463851 0.33337,-0.1406232 z M 5.5153369,7.8600544 c 0.118766,0 0.2231526,0.099868 0.2231526,0.2133797 0,0.10641 -0.616133,0.9289754 -0.7275532,0.971337 C 4.9075674,9.0840784 4.8961735,9.0823238 4.8008148,9.0073144 4.6567594,8.8940009 4.6856439,8.8009825 4.9903034,8.3975817 5.3729742,7.8908873 5.4034065,7.8600624 5.5153369,7.8600605 Z m 0.909983,0 c 0.082457,0 0.2074071,0.1346387 0.2074071,0.2236959 0,0.076653 -0.6375146,0.9133651 -0.7280962,0.9555911 -0.084746,0.039503 -0.09467,0.039335 -0.1867744,0.00216 C 5.6302783,9.0061813 5.6071782,8.9673618 5.6038376,8.849855 5.6017626,8.7766612 5.6758048,8.6571221 5.9279784,8.3259084 6.2594308,7.890569 6.2919809,7.8600584 6.4253199,7.8600587 Z m 0.8584042,0.00107 C 7.344621,7.8585819 7.4044949,7.8770024 7.441723,7.9181402 7.5543545,8.0426043 7.5126747,8.147689 7.1740483,8.589775 6.9976271,8.8200945 6.82606,9.0232176 6.7928963,9.0409671 c -0.033157,0.017748 -0.083554,0.032577 -0.1118461,0.032577 -0.077218,0 -0.2079503,-0.1466679 -0.2079503,-0.2329257 0,-0.066958 0.4432801,-0.6900708 0.6466533,-0.9088981 0.041278,-0.044412 0.1030743,-0.068044 0.1639709,-0.07058 z m 0.8622036,0.00267 c 0.14571,-0.015594 0.269834,0.1081497 0.2323834,0.2573686 -0.02505,0.099822 -0.6109746,0.8617428 -0.7009488,0.9116054 -0.087116,0.048274 -0.1169204,0.048556 -0.1987198,0.00215 C 7.284914,8.9250707 7.3177714,8.8134457 7.6876775,8.3285478 7.8642418,8.0970976 8.0419146,7.8946788 8.0824023,7.8789869 c 0.021307,-0.00826 0.042711,-0.01297 0.063526,-0.015208 z M 8.4825574,10.28644 c -4.1606382,0 -3.9961695,-0.0062 -4.0840684,0.157999 -0.045365,0.08474 -0.044368,1.836568 0.00107,1.921501 0.018675,0.03492 0.079782,0.09131 0.1357377,0.125419 0.099232,0.0605 0.1953819,0.06178 3.9103243,0.06187 4.17795,1.33e-4 3.973721,0.0095 4.077008,-0.190033 0.04442,-0.08589 0.05046,-0.221288 0.04237,-0.994682 l -0.0092,-0.895873 -0.104241,-0.09283 -0.104785,-0.09338 z m 1.0044562,0.352378 c 0.026413,-2e-4 0.058366,0.0023 0.099899,0.0061 0.125741,0.01035 0.1973249,0.03518 0.2541013,0.0885 0.1679071,0.15774 0.1222766,0.421809 -0.090674,0.522862 -0.1320745,0.06267 -0.2266844,0.06451 -0.3599751,0.0064 -0.2309219,-0.100465 -0.2726817,-0.338647 -0.091213,-0.520114 0.080005,-0.08003 0.108606,-0.103109 0.1878599,-0.103706 z m 1.2129514,0 c 0.176255,-0.01162 0.350548,0.07984 0.401782,0.235099 0.04425,0.13406 0.0013,0.249332 -0.127592,0.344773 -0.244697,0.180944 -0.605934,0.02914 -0.605934,-0.254645 0,-0.140249 0.04507,-0.219034 0.159086,-0.277989 0.05466,-0.02827 0.113911,-0.04337 0.172658,-0.04723 z m 0.99034,0 c 0.02642,-2e-4 0.05835,0.0023 0.0999,0.0061 0.125739,0.01035 0.197321,0.03518 0.254102,0.0885 0.167905,0.157742 0.12227,0.421812 -0.09068,0.522863 -0.132077,0.06267 -0.226684,0.06451 -0.359977,0.0065 -0.230923,-0.100508 -0.272682,-0.338683 -0.09121,-0.52015 0.08002,-0.08002 0.108604,-0.103098 0.187862,-0.103707 z M 8.1681895,10.79736 c 0.088118,0 0.2204371,0.140745 0.2204371,0.234556 0,0.07101 -0.4118009,0.65006 -0.6336225,0.890983 -0.1513985,0.164434 -0.3882101,0.08906 -0.3882101,-0.123794 0,-0.07062 0.074852,-0.193806 0.2899359,-0.476712 0.3256873,-0.42838 0.4196509,-0.525033 0.5114596,-0.525033 z m -2.6316779,0.0081 c 0.033717,0.0032 0.066229,0.02103 0.1037037,0.04886 0.1575701,0.117089 0.1308551,0.211613 -0.1748299,0.615707 -0.1519259,0.200785 -0.3134855,0.404483 -0.3588902,0.452777 -0.099145,0.105371 -0.2343165,0.115266 -0.3257692,0.02382 -0.1209108,-0.120931 -0.084659,-0.21125 0.2703887,-0.674365 0.2741258,-0.357562 0.3842539,-0.476852 0.4853977,-0.466938 z m 0.8665472,0.0055 c 0.081674,0.0023 0.1685811,0.05344 0.203606,0.130308 0.050716,0.111312 0.00255,0.19977 -0.3643182,0.670545 -0.2710036,0.347778 -0.3090817,0.3839 -0.4110137,0.392551 -0.081211,0.0067 -0.1284962,-0.0086 -0.1715716,-0.05647 -0.1167245,-0.12896 -0.080168,-0.219499 0.2682171,-0.668353 0.1802159,-0.232189 0.3591037,-0.436442 0.3974397,-0.453907 0.023994,-0.01091 0.050419,-0.01546 0.077641,-0.01469 z m 0.8540608,5.77e-4 c 0.07713,-0.0039 0.1746765,0.03731 0.2128362,0.09449 0.074697,0.111869 0.019221,0.231936 -0.2980796,0.641769 -0.176659,0.228177 -0.3378763,0.425132 -0.358347,0.438159 -0.1289536,0.08202 -0.3404293,-0.03093 -0.3404293,-0.181889 0,-0.112103 0.6470113,-0.961683 0.7525275,-0.988168 0.00994,-0.0023 0.020474,-0.0039 0.031492,-0.0043 z" />
</svg>
