<?xml version="1.0" encoding="UTF-8" standalone="no"?>
<svg
   width="64"
   height="64"
   version="1.1"
   viewBox="0 0 16.933 16.933"
   id="svg7"
   sodipodi:docname="accessories-text-editor.svg"
   inkscape:version="1.4.3 (0d15f75042, 2025-12-25)"
   xmlns:inkscape="http://www.inkscape.org/namespaces/inkscape"
   xmlns:sodipodi="http://sodipodi.sourceforge.net/DTD/sodipodi-0.dtd"
   xmlns="http://www.w3.org/2000/svg"
   xmlns:svg="http://www.w3.org/2000/svg"
   xmlns:rdf="http://www.w3.org/1999/02/22-rdf-syntax-ns#"
   xmlns:cc="http://creativecommons.org/ns#"
   xmlns:dc="http://purl.org/dc/elements/1.1/">
  <sodipodi:namedview
     id="namedview7"
     pagecolor="#9c4444"
     bordercolor="#000000"
     borderopacity="0.25"
     inkscape:showpageshadow="2"
     inkscape:pageopacity="0.0"
     inkscape:pagecheckerboard="0"
     inkscape:deskcolor="#d1d1d1"
     inkscape:zoom="4.3531261"
     inkscape:cx="38.363235"
     inkscape:cy="26.188077"
     inkscape:window-width="1226"
     inkscape:window-height="669"
     inkscape:window-x="10"
     inkscape:window-y="169"
     inkscape:window-maximized="0"
     inkscape:current-layer="svg7"
     showgrid="false" />
  <defs
     id="defs2">
    <filter
       style="color-interpolation-filters:sRGB;"
       inkscape:label="Blur"
       id="filter5421"
       x="-0.12256455"
       y="-0.12342654"
       width="1.2451291"
       height="1.2468531">
      <feGaussianBlur
         stdDeviation="0.5 0.5"
         result="blur"
         id="feGaussianBlur5419" />
    </filter>
  </defs>
  <metadata
     id="metadata2">
    <rdf:RDF>
      <cc:Work
         rdf:about="">
        <dc:format>image/svg+xml</dc:format>
        <dc:type
           rdf:resource="http://purl.org/dc/dcmitype/StillImage" />
      </cc:Work>
    </rdf:RDF>
  </metadata>
  <rect
     style="opacity:0.3;fill:none;fill-opacity:0.996424;stroke:#000000;stroke-width:0.955221;stroke-dasharray:none;stroke-opacity:1;filter:url(#filter5421)"
     id="rect1-2-7"
     width="13.687567"
     height="13.591975"
     x="1.6227165"
     y="1.6705122"
     rx="2.8442214"
     ry="2.965905" />
  <rect
     style="fill:none;fill-opacity:1;stroke:{{colors.primary.default.hex}};stroke-width:0.955221;stroke-dasharray:none;stroke-opacity:1"
     id="rect1-2"
     width="13.687567"
     height="13.591975"
     x="1.6227167"
     y="1.6705124"
     rx="2.8442214"
     ry="2.965905" />
  <path
     id="path7250"
     style="fill:{{colors.primary.default.hex}};fill-opacity:1;stroke:none;stroke-width:0.0594248;stroke-dasharray:none;stroke-opacity:1"
     d="M 8.5415837,5.7348512 C 7.680046,5.7243528 6.8158565,5.9119594 6.0357757,6.2907177 5.4664156,6.5671628 4.938373,6.9430693 4.5047298,7.3807099 L 4.3879719,7.4985094 4.8418055,7.9101822 5.29557,8.3218554 5.4339284,8.192804 C 5.510003,8.1218262 5.5984025,8.0413005 5.6304228,8.0138819 6.9571528,6.8778422 8.846452,6.6451353 10.411789,7.4249539 c 0.40413,0.20133 0.727874,0.4294034 1.081381,0.7616681 L 11.638057,8.3227585 12.091544,7.9109468 12.545029,7.499065 12.416117,7.3691802 C 11.771879,6.7201052 10.971094,6.2421422 10.070685,5.9691998 9.5744706,5.8187821 9.0585069,5.7411506 8.5415837,5.7348512 Z m -0.0755,1.4284575 c -0.1979808,1.2e-5 -0.3959181,0.00738 -0.5049541,0.022016 -0.9301415,0.1247614 -1.7273964,0.5074233 -2.4037757,1.153754 -0.060882,0.058177 -0.1091635,0.1101748 -0.1073115,0.1155769 0.00184,0.00541 0.2063212,0.1938473 0.454389,0.4187578 l 0.4509858,0.4088942 0.089739,-0.086891 C 6.8783137,8.7760262 7.475663,8.49351 8.101364,8.4120092 c 0.1840583,-0.02396 0.5462344,-0.023952 0.7297176,8.11e-5 0.6258306,0.081933 1.1539231,0.3264869 1.6300234,0.7548606 l 0.121687,0.1094646 0.02619,-0.023476 c 0.128172,-0.1145428 0.81858,-0.7394087 0.84592,-0.7656277 l 0.03527,-0.033827 -0.04717,-0.049176 C 11.258763,8.2121883 10.93075,7.9500726 10.670865,7.7872513 10.48527,7.6709739 10.142986,7.5010919 9.9435097,7.4262126 9.6471877,7.3149811 9.3024447,7.2295476 8.9713163,7.1852656 8.8620527,7.170654 8.6640657,7.1633047 8.4660845,7.1633179 Z m -0.026117,1.4163022 c -0.046796,4.992e-4 -0.093658,0.00216 -0.1405124,0.00506 -0.6481688,0.040576 -1.2386134,0.2972743 -1.7262896,0.7503488 l -0.08064,0.074876 0.4550145,0.4125058 c 0.2502427,0.2268835 0.4567532,0.4127445 0.4589042,0.4129925 0.00216,2.47e-4 0.034193,-0.02564 0.071262,-0.05758 0.557138,-0.4800448 1.3952574,-0.4874406 1.9563324,-0.01722 l 0.091059,0.07633 0.05098,-0.04507 C 9.6041215,10.167074 9.8102259,9.9809523 10.03408,9.7783149 L 10.441102,9.4099157 10.34803,9.3227465 C 9.8318613,8.8395694 9.1419069,8.5724478 8.4399691,8.5796118 Z m -0.010835,1.4231101 c -0.076161,0.0017 -0.1515072,0.0099 -0.2243473,0.02536 -0.2314799,0.04896 -0.4635278,0.164488 -0.6139321,0.30575 l -0.037438,0.03523 0.4568898,0.41473 0.4568897,0.414798 0.2699112,-0.245393 c 0.148442,-0.134951 0.3538897,-0.320804 0.4565442,-0.413 l 0.1866313,-0.167601 -0.055912,-0.05244 C 9.104216,10.113624 8.7591639,9.9956298 8.429132,10.002723 Z" />
</svg>
