<?xml version="1.0" encoding="UTF-8" standalone="no"?>
<svg
   width="64"
   height="64"
   version="1.1"
   viewBox="0 0 16.933 16.933"
   id="svg7"
   sodipodi:docname="accessories-text-editor.svg"
   inkscape:version="1.4.3 (0d15f75042, 2025-12-25)"
   xmlns:inkscape="http://www.inkscape.org/namespaces/inkscape"
   xmlns:sodipodi="http://sodipodi.sourceforge.net/DTD/sodipodi-0.dtd"
   xmlns="http://www.w3.org/2000/svg"
   xmlns:svg="http://www.w3.org/2000/svg"
   xmlns:rdf="http://www.w3.org/1999/02/22-rdf-syntax-ns#"
   xmlns:cc="http://creativecommons.org/ns#"
   xmlns:dc="http://purl.org/dc/elements/1.1/">
  <sodipodi:namedview
     id="namedview7"
     pagecolor="#9c4444"
     bordercolor="#000000"
     borderopacity="0.25"
     inkscape:showpageshadow="2"
     inkscape:pageopacity="0.0"
     inkscape:pagecheckerboard="0"
     inkscape:deskcolor="#d1d1d1"
     inkscape:zoom="4.3531261"
     inkscape:cx="38.363235"
     inkscape:cy="26.188077"
     inkscape:window-width="1226"
     inkscape:window-height="669"
     inkscape:window-x="263"
     inkscape:window-y="202"
     inkscape:window-maximized="0"
     inkscape:current-layer="svg7"
     showgrid="false" />
  <defs
     id="defs2">
    <filter
       style="color-interpolation-filters:sRGB;"
       inkscape:label="Blur"
       id="filter5421"
       x="-0.12256455"
       y="-0.12342654"
       width="1.2451291"
       height="1.2468531">
      <feGaussianBlur
         stdDeviation="0.5 0.5"
         result="blur"
         id="feGaussianBlur5419" />
    </filter>
  </defs>
  <metadata
     id="metadata2">
    <rdf:RDF>
      <cc:Work
         rdf:about="">
        <dc:format>image/svg+xml</dc:format>
        <dc:type
           rdf:resource="http://purl.org/dc/dcmitype/StillImage" />
      </cc:Work>
    </rdf:RDF>
  </metadata>
  <rect
     style="opacity:0.3;fill:none;fill-opacity:0.996424;stroke:#000000;stroke-width:0.955221;stroke-dasharray:none;stroke-opacity:1;filter:url(#filter5421)"
     id="rect1-2-7"
     width="13.687567"
     height="13.591975"
     x="1.6227165"
     y="1.6705122"
     rx="2.8442214"
     ry="2.965905" />
  <rect
     style="fill:none;fill-opacity:1;stroke:{{colors.primary.default.hex}};stroke-width:0.955221;stroke-dasharray:none;stroke-opacity:1"
     id="rect1-2"
     width="13.687567"
     height="13.591975"
     x="1.6227167"
     y="1.6705124"
     rx="2.8442214"
     ry="2.965905" />
  <path
     id="path17-3"
     style="fill:{{colors.primary.default.hex}};fill-opacity:1;stroke:none;stroke-width:0.245374;stroke-dasharray:none;stroke-dashoffset:2.2;stroke-opacity:0.3"
     d="m 8.3299628,4.3586708 c -0.054736,0.00734 -0.1098282,0.053496 -0.1480862,0.1274789 -0.036568,0.070714 -0.042653,0.318436 -0.042653,1.7602612 0,0.9230737 -0.00946,1.6784661 -0.021086,1.6783101 C 8.1065095,7.9245655 7.6627655,7.5580162 7.1323348,7.1104867 6.601904,6.6629564 6.1470419,6.2889421 6.1211313,6.2789994 6.0952197,6.2690575 6.0433719,6.2809669 6.006113,6.305357 5.8914042,6.3805162 5.8519737,6.5546252 5.9174514,6.6983362 5.9356724,6.7383245 6.39551,7.1463805 6.9391984,7.6050648 7.482886,8.0637497 7.9305453,8.4535972 7.934108,8.4710577 7.9376705,8.488514 7.5028758,8.8576861 6.9674743,9.2915223 6.4320719,9.7253582 5.9741927,10.102074 5.9500399,10.128762 c -0.072097,0.07967 -0.077755,0.27565 -0.011021,0.381955 0.1091371,0.173863 0.1238319,0.16545 1.1856485,-0.6972991 0.534172,-0.4340249 0.9810617,-0.7893134 0.9929916,-0.7893134 0.011933,0 0.021567,0.7475134 0.021567,1.6610565 0,1.085636 0.00998,1.68828 0.029234,1.740136 0.016203,0.04364 0.050684,0.09516 0.0762,0.114538 0.025517,0.01939 0.073554,0.03546 0.1068713,0.03546 0.062543,0 2.4688557,-1.818081 2.6133137,-1.974482 0.103691,-0.112265 0.110649,-0.339941 0.01391,-0.452887 C 10.943955,10.107302 10.452334,9.7216438 9.8865521,9.2910436 9.3207664,8.8604412 8.8479673,8.4996394 8.8355683,8.4887887 8.8231735,8.4779382 9.2892343,8.1038251 9.8716933,7.657781 10.454151,7.2117369 10.955811,6.8148747 10.986414,6.7759729 c 0.06392,-0.081263 0.07466,-0.2936198 0.01965,-0.3920217 -0.03562,-0.063714 -2.532211,-1.9858525 -2.6224216,-2.019052 -0.017565,-0.00647 -0.03543,-0.00867 -0.053675,-0.00622 z m 0.2482487,0.8324457 c 0.028889,0 1.7875775,1.3560295 1.7875775,1.3783045 0,0.01192 -0.3954542,0.3252165 -0.8789325,0.6958609 -0.4834776,0.3706455 -0.889385,0.6777552 -0.9019356,0.6829221 -0.01255,0.00517 -0.023001,-0.612675 -0.023001,-1.3735113 0,-0.7608365 0.00746,-1.3835762 0.016292,-1.3835762 z m 0.00479,3.8051932 c 0.040798,7.617e-4 1.7684065,1.3426323 1.7684065,1.3735123 0,0.01717 -0.3979128,0.336579 -0.8846816,0.709759 -0.4867679,0.373179 -0.8893615,0.678129 -0.8947472,0.678129 -0.00539,0 -0.010067,-0.621156 -0.010067,-1.3807 0,-0.759544 0.00946,-1.380928 0.021086,-1.3807003 z" />
</svg>
