<?xml version="1.0" encoding="UTF-8" standalone="no"?>
<svg
   width="64"
   height="64"
   version="1.1"
   viewBox="0 0 16.933 16.933"
   id="svg7"
   sodipodi:docname="accessories-text-editor.svg"
   inkscape:version="1.4.3 (0d15f75042, 2025-12-25)"
   xmlns:inkscape="http://www.inkscape.org/namespaces/inkscape"
   xmlns:sodipodi="http://sodipodi.sourceforge.net/DTD/sodipodi-0.dtd"
   xmlns="http://www.w3.org/2000/svg"
   xmlns:svg="http://www.w3.org/2000/svg"
   xmlns:rdf="http://www.w3.org/1999/02/22-rdf-syntax-ns#"
   xmlns:cc="http://creativecommons.org/ns#"
   xmlns:dc="http://purl.org/dc/elements/1.1/">
  <sodipodi:namedview
     id="namedview7"
     pagecolor="#9c4444"
     bordercolor="#000000"
     borderopacity="0.25"
     inkscape:showpageshadow="2"
     inkscape:pageopacity="0.0"
     inkscape:pagecheckerboard="0"
     inkscape:deskcolor="#d1d1d1"
     inkscape:zoom="4.3531261"
     inkscape:cx="38.363235"
     inkscape:cy="26.188077"
     inkscape:window-width="1226"
     inkscape:window-height="669"
     inkscape:window-x="10"
     inkscape:window-y="169"
     inkscape:window-maximized="0"
     inkscape:current-layer="svg7"
     showgrid="false" />
  <defs
     id="defs2">
    <filter
       style="color-interpolation-filters:sRGB;"
       inkscape:label="Blur"
       id="filter5421"
       x="-0.12256455"
       y="-0.12342654"
       width="1.2451291"
       height="1.2468531">
      <feGaussianBlur
         stdDeviation="0.5 0.5"
         result="blur"
         id="feGaussianBlur5419" />
    </filter>
  </defs>
  <metadata
     id="metadata2">
    <rdf:RDF>
      <cc:Work
         rdf:about="">
        <dc:format>image/svg+xml</dc:format>
        <dc:type
           rdf:resource="http://purl.org/dc/dcmitype/StillImage" />
      </cc:Work>
    </rdf:RDF>
  </metadata>
  <rect
     style="opacity:0.3;fill:none;fill-opacity:0.996424;stroke:#000000;stroke-width:0.955221;stroke-dasharray:none;stroke-opacity:1;filter:url(#filter5421)"
     id="rect1-2-7"
     width="13.687567"
     height="13.591975"
     x="1.6227165"
     y="1.6705122"
     rx="2.8442214"
     ry="2.965905" />
  <rect
     style="fill:none;fill-opacity:1;stroke:{{colors.primary.default.hex}};stroke-width:0.955221;stroke-dasharray:none;stroke-opacity:1"
     id="rect1-2"
     width="13.687567"
     height="13.591975"
     x="1.6227167"
     y="1.6705124"
     rx="2.8442214"
     ry="2.965905" />
  <path
     style="fill:{{colors.primary.default.hex}};fill-opacity:1;stroke:none;stroke-width:0.259837;stroke-dasharray:none;stroke-opacity:0.3"
     d="M 5.6602105,12.459234 C 5.2306228,12.409203 4.8703175,12.095271 4.7464666,11.663097 4.7202241,11.571526 4.7171061,11.409703 4.7119507,9.8720761 l -0.00569,-1.6903544 h 3.7598375 3.7598348 l -0.0054,1.6903544 c -0.0063,1.8852799 0.0014,1.7611559 -0.125817,2.0175159 -0.08635,0.173952 -0.283417,0.371034 -0.457365,0.457369 -0.169897,0.08433 -0.287631,0.111365 -0.540516,0.124166 l -0.213615,0.01076 -0.0047,-0.887585 -0.0046,-0.887589 -0.03881,-0.07876 c -0.04953,-0.100505 -0.151003,-0.201974 -0.251543,-0.251498 l -0.07879,-0.03881 -2.0125847,-0.0045 C 6.1795889,10.328088 6.3804669,10.314532 6.208258,10.487022 6.044414,10.651139 6.0501902,10.6099 6.0501902,11.615604 v 0.861067 l -0.1384165,-0.0023 c -0.076101,-0.0014 -0.1892739,-0.0082 -0.2514731,-0.01535 z M 10.232091,9.4815126 C 10.313401,9.4262606 10.345237,9.3616753 10.34516,9.2521348 10.345046,9.0872629 10.24367,8.987177 10.076781,8.987177 c -0.1668851,0 -0.2682634,0.1000846 -0.2683787,0.2649578 -1.137e-4,0.1689318 0.1014566,0.2718029 0.2683787,0.2718029 0.07172,0 0.107111,-0.00969 0.155313,-0.042429 z m 1.065421,0.00896 c 0.08187,-0.049918 0.12136,-0.126377 0.12136,-0.2349787 0,-0.168394 -0.09991,-0.2683179 -0.268317,-0.2683179 -0.168394,0 -0.268315,0.099925 -0.268315,0.2683179 0,0.1683938 0.09991,0.2683179 0.268315,0.2683179 0.06256,0 0.109889,-0.010764 0.146963,-0.033341 z M 6.318574,12.074149 v -0.402665 h 2.1475462 2.1475488 v 0.402665 0.402665 H 8.4661202 6.318574 Z M 4.7123714,7.4309173 C 4.7220924,6.8937674 4.7309362,6.836661 4.8377674,6.6213925 4.924052,6.4475392 5.1211486,6.2504074 5.295134,6.163945 5.5012606,6.0615081 5.5950264,6.0444599 5.9578542,6.0434516 c 0.2949862,-8.93e-4 0.3237835,0.00184 0.3858862,0.035135 0.1470315,0.078924 0.2150829,0.1827763 0.2347556,0.3582521 0.015265,0.1360744 0.045462,0.2107657 0.1142326,0.2824579 0.1165595,0.1215133 -0.1054249,0.1108701 2.5116105,0.1204025 l 2.3572679,0.00858 0.09932,0.037633 c 0.141021,0.053429 0.228247,0.1081565 0.319451,0.20043 0.162161,0.1640634 0.221938,0.3196598 0.237959,0.6194025 l 0.011,0.2075237 H 8.4665509 4.7036566 Z M 7.0514874,6.5463526 C 6.932897,6.5047988 6.8722375,6.4205995 6.8722375,6.2975417 c 0,-0.08631 0.049682,-0.1711395 0.1258908,-0.2149667 0.027649,-0.015896 0.658047,-0.2417248 1.4008818,-0.5018283 0.7428322,-0.260105 1.7806839,-0.623504 2.3063359,-0.8075538 1.044515,-0.3657224 1.026382,-0.3613964 1.134281,-0.2706085 0.133724,0.1125248 0.134395,0.3109355 0.0014,0.4056575 -0.02653,0.018907 -0.353186,0.1410715 -0.725874,0.2714766 -0.37282,0.1304057 -0.964646,0.3374913 -1.3153003,0.460191 -2.1587054,0.7553653 -2.6048593,0.9105661 -2.6424832,0.919225 -0.023072,0.00531 -0.070757,-5.516e-4 -0.1059713,-0.012784 z"
     id="path1-3" />
</svg>
