<?xml version="1.0" encoding="UTF-8" standalone="no"?>
<svg
   width="64"
   height="64"
   version="1.1"
   viewBox="0 0 16.933 16.933"
   id="svg7"
   sodipodi:docname="accessories-text-editor.svg"
   inkscape:version="1.4.3 (0d15f75042, 2025-12-25)"
   xmlns:inkscape="http://www.inkscape.org/namespaces/inkscape"
   xmlns:sodipodi="http://sodipodi.sourceforge.net/DTD/sodipodi-0.dtd"
   xmlns="http://www.w3.org/2000/svg"
   xmlns:svg="http://www.w3.org/2000/svg"
   xmlns:rdf="http://www.w3.org/1999/02/22-rdf-syntax-ns#"
   xmlns:cc="http://creativecommons.org/ns#"
   xmlns:dc="http://purl.org/dc/elements/1.1/">
  <sodipodi:namedview
     id="namedview7"
     pagecolor="#9c4444"
     bordercolor="#000000"
     borderopacity="0.25"
     inkscape:showpageshadow="2"
     inkscape:pageopacity="0.0"
     inkscape:pagecheckerboard="0"
     inkscape:deskcolor="#d1d1d1"
     inkscape:zoom="4.3531261"
     inkscape:cx="43.417074"
     inkscape:cy="20.904517"
     inkscape:window-width="1226"
     inkscape:window-height="669"
     inkscape:window-x="164"
     inkscape:window-y="233"
     inkscape:window-maximized="0"
     inkscape:current-layer="svg7"
     showgrid="false" />
  <defs
     id="defs2">
    <filter
       style="color-interpolation-filters:sRGB;"
       inkscape:label="Blur"
       id="filter5421"
       x="-0.12256455"
       y="-0.12342654"
       width="1.2451291"
       height="1.2468531">
      <feGaussianBlur
         stdDeviation="0.5 0.5"
         result="blur"
         id="feGaussianBlur5419" />
    </filter>
  </defs>
  <metadata
     id="metadata2">
    <rdf:RDF>
      <cc:Work
         rdf:about="">
        <dc:format>image/svg+xml</dc:format>
        <dc:type
           rdf:resource="http://purl.org/dc/dcmitype/StillImage" />
      </cc:Work>
    </rdf:RDF>
  </metadata>
  <rect
     style="opacity:0.3;fill:none;fill-opacity:0.996424;stroke:#000000;stroke-width:0.955221;stroke-dasharray:none;stroke-opacity:1;filter:url(#filter5421)"
     id="rect1-2-7"
     width="13.687567"
     height="13.591975"
     x="1.6227165"
     y="1.6705122"
     rx="2.8442214"
     ry="2.965905" />
  <rect
     style="fill:none;fill-opacity:1;stroke:{{colors.primary.default.hex}};stroke-width:0.955221;stroke-dasharray:none;stroke-opacity:1"
     id="rect1-2"
     width="13.687567"
     height="13.591975"
     x="1.6227167"
     y="1.6705124"
     rx="2.8442214"
     ry="2.965905" />
  <path
     id="path1-6"
     style="fill:{{colors.primary.default.hex}};fill-opacity:1;stroke-width:0.0308066"
     d="m 8.4734586,4.4725263 c -1.9742466,0 -1.9546043,-0.00126 -2.1310104,0.1634401 C 6.1759864,4.7913905 6.1831985,4.6544686 6.1831985,7.653326 v 2.782676 l 0.06967,0.135677 c 0.079062,0.154728 0.1844893,0.24269 0.3347384,0.278164 0.1455779,0.03437 3.6506811,0.0353 3.7984171,10e-4 0.166256,-0.03856 0.267236,-0.119428 0.348883,-0.279211 l 0.06967,-0.135679 V 7.6690291 c 0,-2.9776759 0.0048,-2.8829962 -0.158725,-3.0335993 C 10.471059,4.4745154 10.445961,4.4725241 8.4734579,4.4725241 Z M 8.2167731,5.9513469 h 0.277115 0.2771154 V 7.1682438 8.3851406 H 8.4938881 8.2167731 V 7.1682438 Z m 0.2964977,2.9576415 c 0.1496549,0 0.2579728,0.113385 0.2566853,0.2682102 C 8.7688791,9.3049107 8.7304924,9.3724479 8.6269455,9.427597 8.5129822,9.488294 8.4031745,9.4694171 8.3068752,9.3731174 8.2062282,9.2724716 8.1923526,9.1685305 8.261824,9.034188 8.313681,8.9339093 8.3640461,8.9089886 8.5132708,8.9089884 Z M 6.768859,11.496795 v 0.569946 0.569943 H 8.4938881 10.218917 V 12.066741 11.496795 H 8.4938881 Z" />
</svg>
