<?xml version="1.0" encoding="UTF-8" standalone="no"?>
<svg
   width="64"
   height="64"
   version="1.1"
   viewBox="0 0 16.933 16.933"
   id="svg7"
   sodipodi:docname="accessories-text-editor.svg"
   inkscape:version="1.4.3 (0d15f75042, 2025-12-25)"
   xmlns:inkscape="http://www.inkscape.org/namespaces/inkscape"
   xmlns:sodipodi="http://sodipodi.sourceforge.net/DTD/sodipodi-0.dtd"
   xmlns="http://www.w3.org/2000/svg"
   xmlns:svg="http://www.w3.org/2000/svg"
   xmlns:rdf="http://www.w3.org/1999/02/22-rdf-syntax-ns#"
   xmlns:cc="http://creativecommons.org/ns#"
   xmlns:dc="http://purl.org/dc/elements/1.1/">
  <sodipodi:namedview
     id="namedview7"
     pagecolor="#9c4444"
     bordercolor="#000000"
     borderopacity="0.25"
     inkscape:showpageshadow="2"
     inkscape:pageopacity="0.0"
     inkscape:pagecheckerboard="0"
     inkscape:deskcolor="#d1d1d1"
     inkscape:zoom="4.3531261"
     inkscape:cx="43.417074"
     inkscape:cy="20.904517"
     inkscape:window-width="1226"
     inkscape:window-height="669"
     inkscape:window-x="164"
     inkscape:window-y="233"
     inkscape:window-maximized="0"
     inkscape:current-layer="svg7"
     showgrid="false" />
  <defs
     id="defs2">
    <filter
       style="color-interpolation-filters:sRGB;"
       inkscape:label="Blur"
       id="filter5421"
       x="-0.12256455"
       y="-0.12342654"
       width="1.2451291"
       height="1.2468531">
      <feGaussianBlur
         stdDeviation="0.5 0.5"
         result="blur"
         id="feGaussianBlur5419" />
    </filter>
  </defs>
  <metadata
     id="metadata2">
    <rdf:RDF>
      <cc:Work
         rdf:about="">
        <dc:format>image/svg+xml</dc:format>
        <dc:type
           rdf:resource="http://purl.org/dc/dcmitype/StillImage" />
      </cc:Work>
    </rdf:RDF>
  </metadata>
  <rect
     style="opacity:0.3;fill:none;fill-opacity:0.996424;stroke:#000000;stroke-width:0.955221;stroke-dasharray:none;stroke-opacity:1;filter:url(#filter5421)"
     id="rect1-2-7"
     width="13.687567"
     height="13.591975"
     x="1.6227165"
     y="1.6705122"
     rx="2.8442214"
     ry="2.965905" />
  <rect
     style="fill:none;fill-opacity:1;stroke:{{colors.primary.default.hex}};stroke-width:0.955221;stroke-dasharray:none;stroke-opacity:1"
     id="rect1-2"
     width="13.687567"
     height="13.591975"
     x="1.6227167"
     y="1.6705124"
     rx="2.8442214"
     ry="2.965905" />
  <path
     id="path1-5-9"
     style="fill:{{colors.primary.default.hex}};fill-opacity:1;stroke-width:0.0308066"
     d="m 8.4460835,4.3844259 c -1.9742466,0 -1.9546043,-0.00126 -2.1310104,0.1634406 C 6.1486113,4.7032898 6.1558234,4.5663687 6.1558234,7.565226 v 2.782677 l 0.06967,0.135676 c 0.079062,0.154727 0.1844893,0.242691 0.3347384,0.278164 0.1455779,0.03436 3.6506812,0.0353 3.7984172,0.001 0.166256,-0.03856 0.267236,-0.119428 0.348883,-0.27921 L 10.777205,10.3479 V 7.5809568 c 0,-2.9776759 0.0048,-2.8829961 -0.158726,-3.0335998 C 10.443686,4.3864089 10.418588,4.3844174 8.4460861,4.3844174 Z M 8.7912983,6.2954203 9.3444814,6.8496509 9.8981871,7.4038812 9.3596726,7.9429201 C 9.0635209,8.2394349 8.8141022,8.4819589 8.8049188,8.4819589 c -0.00917,0 -0.099383,-0.083129 -0.2001093,-0.184918 L 8.4219864,8.111599 8.7745351,7.7580019 9.1276088,7.4038812 8.7818691,7.0565702 C 8.5915304,6.8656905 8.4356066,6.6955612 8.4356066,6.6783525 c 0,-0.01721 0.079825,-0.1107048 0.1775838,-0.207443 z m -0.8800629,0.010478 c 0.014475,4.466e-4 0.029488,0.00255 0.044526,0.00628 0.148457,0.037263 0.1946912,0.2498979 0.072816,0.3352642 C 7.8814676,6.7504831 7.727364,6.6675873 7.727364,6.4855752 c 0,-0.1062144 0.082549,-0.1825349 0.1838711,-0.1796809 z M 7.3653858,7.3761178 c 0.066227,-0.00173 0.1329508,0.01743 0.1980151,0.0571 0.1098375,0.066973 0.1542951,0.1340161 0.1639637,0.2477794 0.01427,0.1678557 -0.00417,0.2257562 -0.1047689,0.3263569 -0.088244,0.088245 -0.1267163,0.1047695 -0.2441135,0.1047695 -0.3674846,0 -0.5126996,-0.4645921 -0.2090147,-0.6689521 0.063997,-0.043066 0.1296938,-0.065313 0.1959183,-0.067054 z M 8.1370137,8.454195 c 0.069473,4.728e-4 0.1043327,0.018945 0.1671065,0.071767 0.1868897,0.1572571 0.1976352,0.4084561 0.024622,0.5709938 -0.1050257,0.098667 -0.3105099,0.115136 -0.4379357,0.035098 -0.1271387,-0.079858 -0.1634401,-0.152255 -0.1634401,-0.3242616 0,-0.2032468 0.1170659,-0.3282482 0.3263568,-0.3483584 0.03325,-0.00318 0.060134,-0.00537 0.083292,-0.00523 z m -1.3955298,2.954499 v 0.569947 0.569944 H 8.466513 10.191542 V 11.978641 11.408694 H 8.466513 Z" />
</svg>
