<?xml version="1.0" encoding="UTF-8" standalone="no"?>
<svg
   width="64"
   height="64"
   version="1.1"
   viewBox="0 0 16.933 16.933"
   id="svg7"
   sodipodi:docname="accessories-text-editor.svg"
   inkscape:version="1.4.3 (0d15f75042, 2025-12-25)"
   xmlns:inkscape="http://www.inkscape.org/namespaces/inkscape"
   xmlns:sodipodi="http://sodipodi.sourceforge.net/DTD/sodipodi-0.dtd"
   xmlns="http://www.w3.org/2000/svg"
   xmlns:svg="http://www.w3.org/2000/svg"
   xmlns:rdf="http://www.w3.org/1999/02/22-rdf-syntax-ns#"
   xmlns:cc="http://creativecommons.org/ns#"
   xmlns:dc="http://purl.org/dc/elements/1.1/">
  <sodipodi:namedview
     id="namedview7"
     pagecolor="#9c4444"
     bordercolor="#000000"
     borderopacity="0.25"
     inkscape:showpageshadow="2"
     inkscape:pageopacity="0.0"
     inkscape:pagecheckerboard="0"
     inkscape:deskcolor="#d1d1d1"
     inkscape:zoom="4.3531261"
     inkscape:cx="43.417074"
     inkscape:cy="20.904517"
     inkscape:window-width="1226"
     inkscape:window-height="669"
     inkscape:window-x="164"
     inkscape:window-y="233"
     inkscape:window-maximized="0"
     inkscape:current-layer="svg7"
     showgrid="false" />
  <defs
     id="defs2">
    <filter
       style="color-interpolation-filters:sRGB;"
       inkscape:label="Blur"
       id="filter5421"
       x="-0.12256455"
       y="-0.12342654"
       width="1.2451291"
       height="1.2468531">
      <feGaussianBlur
         stdDeviation="0.5 0.5"
         result="blur"
         id="feGaussianBlur5419" />
    </filter>
  </defs>
  <metadata
     id="metadata2">
    <rdf:RDF>
      <cc:Work
         rdf:about="">
        <dc:format>image/svg+xml</dc:format>
        <dc:type
           rdf:resource="http://purl.org/dc/dcmitype/StillImage" />
      </cc:Work>
    </rdf:RDF>
  </metadata>
  <rect
     style="opacity:0.3;fill:none;fill-opacity:0.996424;stroke:#000000;stroke-width:0.955221;stroke-dasharray:none;stroke-opacity:1;filter:url(#filter5421)"
     id="rect1-2-7"
     width="13.687567"
     height="13.591975"
     x="1.6227165"
     y="1.6705122"
     rx="2.8442214"
     ry="2.965905" />
  <rect
     style="fill:none;fill-opacity:1;stroke:{{colors.primary.default.hex}};stroke-width:0.955221;stroke-dasharray:none;stroke-opacity:1"
     id="rect1-2"
     width="13.687567"
     height="13.591975"
     x="1.6227167"
     y="1.6705124"
     rx="2.8442214"
     ry="2.965905" />
  <path
     id="path51393"
     style="fill:{{colors.primary.default.hex}};fill-opacity:1;stroke:none;stroke-width:0.243828;stroke-dasharray:none;stroke-opacity:1"
     d="M 10.515639,6.1317621 C 9.5995911,6.1301827 9.047321,6.6454328 8.8245649,7.7090182 8.708804,8.2617456 8.7101625,9.242993 8.8274348,9.6782078 8.9933784,10.294118 9.3468239,10.68962 9.8127439,10.781621 10.191907,10.8565 10.655675,10.711302 10.889965,10.444453 11.184608,10.108876 11.326113,9.5188024 11.245228,8.9638708 11.190536,8.588623 11.066191,8.3315649 10.83615,8.1195242 10.640482,7.9391663 10.462027,7.8761995 10.150382,7.8771256 9.8620399,7.8779924 9.6600451,7.9779576 9.4408069,8.2285795 L 9.2584129,8.43669 V 8.2566768 c 0,-0.2697938 0.1019599,-0.7500561 0.2071578,-0.9757843 C 9.5818812,7.0313198 9.7688292,6.8403734 9.9951344,6.7394248 10.201087,6.6475551 10.651016,6.6095282 10.857575,6.6665617 L 11.0033,6.7065653 V 6.4427371 c 0,-0.3113196 0.0013,-0.3101458 -0.487653,-0.3109747 z m -3.6316899,0.00382 c -0.0325,1.6e-4 -0.065843,0.00118 -0.1000061,0.00287 C 6.4970325,6.152331 6.4132429,6.1729522 6.2148537,6.279403 6.0869129,6.34805 5.9137651,6.4626175 5.8295876,6.5337042 L 5.6762431,6.6627623 5.8043473,6.8623006 c 0.070408,0.1097199 0.1395791,0.1995377 0.153821,0.1995377 0.014241,0 0.08997,-0.052746 0.168107,-0.1171513 C 6.3496852,6.7605334 6.5732247,6.6756182 6.8391841,6.6746676 7.2707663,6.6730916 7.4812666,6.9124127 7.4797063,7.4028155 7.4779465,7.9619409 7.3749792,8.1308041 6.0834156,9.6982194 L 5.6529083,10.221114 v 0.261923 0.261923 h 1.2600902 1.260091 v -0.290979 -0.2905 H 7.239213 c -0.5399608,0 -0.9284923,-0.01498 -0.9210189,-0.03525 0.0071,-0.01927 0.2399752,-0.300406 0.5171801,-0.6248003 C 7.866425,8.2968688 8.0426121,7.9573998 8.010697,7.2404138 7.9973881,6.9414838 7.9780143,6.8556198 7.8825921,6.6808501 7.6748054,6.3002798 7.3714374,6.1331657 6.8839491,6.1355728 Z M 4.0370775,7.2956599 c -0.060532,-5.254e-4 -0.1251384,0.030372 -0.1885849,0.093815 l -0.095245,0.095245 v 0.9657835 c 0,0.9183487 0.0036,0.9705592 0.080005,1.0676961 0.1236704,0.1572205 0.3087771,0.1317946 0.4057437,-0.055718 0.08268,-0.1598896 0.08268,-1.8502554 0,-2.010145 C 4.1856208,7.3491192 4.1149057,7.296308 4.0370775,7.2956599 Z m 8.8782595,0 c -0.06052,-5.254e-4 -0.125137,0.030369 -0.188587,0.093815 l -0.09524,0.095245 v 0.9657838 c 0,0.9183518 0.0041,0.9705595 0.08048,1.067696 0.123673,0.1572211 0.308775,0.1317949 0.405743,-0.055718 0.08268,-0.15989 0.08268,-1.8502546 0,-2.0101444 C 13.064365,7.3491213 12.99316,7.2963094 12.915331,7.29566 Z m -2.854493,1.0843637 c 0.281718,0 0.44908,0.096796 0.570519,0.329547 0.06834,0.1310133 0.08096,0.2243329 0.08096,0.6009957 0,0.4160147 -0.0071,0.4578787 -0.106199,0.6262373 -0.07366,0.1252994 -0.157249,0.2050134 -0.273822,0.2614464 -0.191149,0.09254 -0.3813948,0.101833 -0.5505175,0.02667 C 9.3534873,10.03456 9.1274522,9.1981745 9.3855579,8.7590942 9.5355853,8.5038724 9.7562877,8.3800193 10.060844,8.3800193 Z" />
</svg>
