<?xml version="1.0" encoding="UTF-8" standalone="no"?>
<svg
   width="64"
   height="64"
   version="1.1"
   viewBox="0 0 16.933 16.933"
   id="svg7"
   sodipodi:docname="accessories-text-editor.svg"
   inkscape:version="1.4.3 (0d15f75042, 2025-12-25)"
   xmlns:inkscape="http://www.inkscape.org/namespaces/inkscape"
   xmlns:sodipodi="http://sodipodi.sourceforge.net/DTD/sodipodi-0.dtd"
   xmlns="http://www.w3.org/2000/svg"
   xmlns:svg="http://www.w3.org/2000/svg"
   xmlns:rdf="http://www.w3.org/1999/02/22-rdf-syntax-ns#"
   xmlns:cc="http://creativecommons.org/ns#"
   xmlns:dc="http://purl.org/dc/elements/1.1/">
  <sodipodi:namedview
     id="namedview7"
     pagecolor="#9c4444"
     bordercolor="#000000"
     borderopacity="0.25"
     inkscape:showpageshadow="2"
     inkscape:pageopacity="0.0"
     inkscape:pagecheckerboard="0"
     inkscape:deskcolor="#d1d1d1"
     inkscape:zoom="4.3531261"
     inkscape:cx="43.417074"
     inkscape:cy="20.904517"
     inkscape:window-width="1226"
     inkscape:window-height="669"
     inkscape:window-x="164"
     inkscape:window-y="233"
     inkscape:window-maximized="0"
     inkscape:current-layer="svg7"
     showgrid="false" />
  <defs
     id="defs2">
    <filter
       style="color-interpolation-filters:sRGB;"
       inkscape:label="Blur"
       id="filter5421"
       x="-0.12256455"
       y="-0.12342654"
       width="1.2451291"
       height="1.2468531">
      <feGaussianBlur
         stdDeviation="0.5 0.5"
         result="blur"
         id="feGaussianBlur5419" />
    </filter>
  </defs>
  <metadata
     id="metadata2">
    <rdf:RDF>
      <cc:Work
         rdf:about="">
        <dc:format>image/svg+xml</dc:format>
        <dc:type
           rdf:resource="http://purl.org/dc/dcmitype/StillImage" />
      </cc:Work>
    </rdf:RDF>
  </metadata>
  <rect
     style="opacity:0.3;fill:none;fill-opacity:0.996424;stroke:#000000;stroke-width:0.955221;stroke-dasharray:none;stroke-opacity:1;filter:url(#filter5421)"
     id="rect1-2-7"
     width="13.687567"
     height="13.591975"
     x="1.6227165"
     y="1.6705122"
     rx="2.8442214"
     ry="2.965905" />
  <rect
     style="fill:none;fill-opacity:1;stroke:{{colors.primary.default.hex}};stroke-width:0.955221;stroke-dasharray:none;stroke-opacity:1"
     id="rect1-2"
     width="13.687567"
     height="13.591975"
     x="1.6227167"
     y="1.6705124"
     rx="2.8442214"
     ry="2.965905" />
  <path
     id="path15571"
     style="fill:{{colors.primary.default.hex}};fill-opacity:1;stroke:none;stroke-width:0.243217;stroke-dasharray:none;stroke-opacity:1"
     d="m 11.029947,4.5185223 c -0.519702,0.00923 -1.020925,0.3321992 -1.2673913,0.845085 -0.2886165,0.6006007 -0.2421988,1.2300613 0.104032,1.4151272 0.098129,0.05245 0.1474903,0.06275 0.2451183,0.049879 0.478689,-0.063118 1.158679,-0.6854973 1.470705,-1.346247 0.09262,-0.1961069 0.101171,-0.234958 0.101661,-0.4555569 L 11.684974,4.7854912 11.573341,4.6814595 C 11.493655,4.6070489 11.420559,4.5683803 11.31877,4.5465491 11.222746,4.5259531 11.126189,4.5168131 11.029948,4.5185241 Z M 8.5711699,4.8885735 c -0.3679776,0.00868 -0.589617,0.2798307 -0.6132691,0.750079 -0.00645,0.1285741 0.00227,0.3013354 0.019475,0.3843023 C 8.0210686,6.2334198 8.1471,6.4871226 8.2514713,6.5749446 8.430487,6.725577 8.6057952,6.6333405 8.7835095,6.2951493 8.9889129,5.9042658 9.0559409,5.364838 8.92982,5.1180148 8.8417504,4.9456564 8.7459247,4.8844505 8.5711699,4.8885735 Z m -1.664995,0.3586509 c -0.049511,-9.975e-4 -0.1028092,0.00735 -0.1596114,0.024227 -0.3103695,0.092169 -0.472698,0.3708947 -0.414705,0.7120761 0.055289,0.3252768 0.3124202,0.7180819 0.5348887,0.8175335 0.04814,0.021519 0.124466,0.033066 0.1695877,0.02565 C 7.3527134,6.7747324 7.4862934,5.9566333 7.2534248,5.4970893 7.1705487,5.3335433 7.0547089,5.2501601 6.9061749,5.2472224 Z M 5.72239,6.5131905 C 5.5661294,6.5126166 5.3990415,6.5926014 5.3048343,6.731231 5.250786,6.8107698 5.242027,6.8524987 5.2511574,6.982999 5.2600274,7.1098515 5.2820584,7.1686511 5.3684907,7.2941464 5.4866213,7.4656672 5.6986206,7.6397771 5.8625263,7.699826 5.9214213,7.721403 5.9917448,7.740083 6.0188125,7.741154 6.1086985,7.744674 6.2230958,7.663886 6.2539538,7.5753671 6.360623,7.2693743 6.1807697,6.7248107 5.9209543,6.5663944 5.8622714,6.5306138 5.7934176,6.5134554 5.72239,6.5131905 Z M 8.9568979,7.2285917 C 8.4251463,7.2369168 7.8285097,7.3676827 7.3208801,7.6185951 6.3980566,8.0747296 5.909107,8.7880795 5.9641823,9.5975846 5.9874939,9.940237 6.0709389,10.22707 6.2553786,10.600382 c 0.4546038,0.920146 1.3005693,1.619655 2.1637805,1.788979 0.1888097,0.03703 0.516797,0.03282 0.6721736,-0.0085 0.7031904,-0.187227 1.3536973,-0.876903 1.5139333,-1.605139 0.02935,-0.133451 0.02767,-0.16542 -0.01329,-0.251768 C 10.457543,10.240625 9.7602064,10.205863 9.2823081,10.458373 9.071537,10.569737 9.03383,10.631912 9.030065,10.873079 c -0.00521,0.334 -0.1279955,0.485604 -0.3914321,0.48356 C 8.3699309,11.354473 8.0807212,11.19263 7.9821274,10.988962 7.8641305,10.745214 7.9323111,10.522938 8.2006431,10.274511 8.2901154,10.191674 8.6691943,9.9215593 9.0428786,9.6740669 9.8707581,9.1257637 10.163477,8.8669621 10.324521,8.5411126 10.417491,8.3529974 10.427089,8.3133618 10.426652,8.1135816 10.426103,7.859912 10.376698,7.7399824 10.203861,7.5734676 9.9557199,7.3343991 9.4886498,7.2202602 8.9568971,7.2285924 Z" />
</svg>
