<?xml version="1.0" encoding="UTF-8" standalone="no"?>
<svg
   width="64"
   height="64"
   version="1.1"
   viewBox="0 0 16.933 16.933"
   id="svg7"
   sodipodi:docname="accessories-text-editor.svg"
   inkscape:version="1.4.3 (0d15f75042, 2025-12-25)"
   xmlns:inkscape="http://www.inkscape.org/namespaces/inkscape"
   xmlns:sodipodi="http://sodipodi.sourceforge.net/DTD/sodipodi-0.dtd"
   xmlns="http://www.w3.org/2000/svg"
   xmlns:svg="http://www.w3.org/2000/svg"
   xmlns:rdf="http://www.w3.org/1999/02/22-rdf-syntax-ns#"
   xmlns:cc="http://creativecommons.org/ns#"
   xmlns:dc="http://purl.org/dc/elements/1.1/">
  <sodipodi:namedview
     id="namedview7"
     pagecolor="#9c4444"
     bordercolor="#000000"
     borderopacity="0.25"
     inkscape:showpageshadow="2"
     inkscape:pageopacity="0.0"
     inkscape:pagecheckerboard="0"
     inkscape:deskcolor="#d1d1d1"
     inkscape:zoom="4.3531261"
     inkscape:cx="40.430715"
     inkscape:cy="23.661157"
     inkscape:window-width="1226"
     inkscape:window-height="669"
     inkscape:window-x="164"
     inkscape:window-y="233"
     inkscape:window-maximized="0"
     inkscape:current-layer="svg7"
     showgrid="false" />
  <defs
     id="defs2">
    <filter
       style="color-interpolation-filters:sRGB;"
       inkscape:label="Blur"
       id="filter5421"
       x="-0.12256455"
       y="-0.12342654"
       width="1.2451291"
       height="1.2468531">
      <feGaussianBlur
         stdDeviation="0.5 0.5"
         result="blur"
         id="feGaussianBlur5419" />
    </filter>
  </defs>
  <metadata
     id="metadata2">
    <rdf:RDF>
      <cc:Work
         rdf:about="">
        <dc:format>image/svg+xml</dc:format>
        <dc:type
           rdf:resource="http://purl.org/dc/dcmitype/StillImage" />
      </cc:Work>
    </rdf:RDF>
  </metadata>
  <rect
     style="opacity:0.3;fill:none;fill-opacity:0.996424;stroke:#000000;stroke-width:0.955221;stroke-dasharray:none;stroke-opacity:1;filter:url(#filter5421)"
     id="rect1-2-7"
     width="13.687567"
     height="13.591975"
     x="1.6227165"
     y="1.6705122"
     rx="2.8442214"
     ry="2.965905" />
  <rect
     style="fill:none;fill-opacity:1;stroke:{{colors.primary.default.hex}};stroke-width:0.955221;stroke-dasharray:none;stroke-opacity:1"
     id="rect1-2"
     width="13.687567"
     height="13.591975"
     x="1.6227167"
     y="1.6705124"
     rx="2.8442214"
     ry="2.965905" />
  <path
     style="color:#232629;fill:{{colors.primary.default.hex}};fill-opacity:1;stroke:none;stroke-width:0.267427"
     d="M 9.8036316,4.4550936 8.8408967,5.3910879 10.605915,7.1293638 8.8408967,8.8676406 9.8036316,9.8036323 12.477905,7.1293638 Z M 6.3270835,4.7225215 A 0.53485389,0.53485389 0 0 0 5.7922302,5.2573741 0.53485389,0.53485389 0 0 0 6.3270835,5.7922288 0.53485389,0.53485389 0 0 0 6.8619382,5.2573741 0.53485389,0.53485389 0 0 0 6.3270835,4.7225215 Z M 5.1236629,7.6642184 A 0.66856738,0.66856738 0 0 0 4.4550955,8.3327882 0.66856738,0.66856738 0 0 0 5.1236629,9.001354 0.66856738,0.66856738 0 0 0 5.7922302,8.3327882 0.66856738,0.66856738 0 0 0 5.1236629,7.6642184 Z m 2.5405554,2.6742736 a 1.0697077,1.0697077 0 0 0 -1.0697072,1.069706 1.0697077,1.0697077 0 0 0 1.0697072,1.069708 1.0697077,1.0697077 0 0 0 1.0697079,-1.069708 1.0697077,1.0697077 0 0 0 -1.0697079,-1.069706 z"
     class="ColorScheme-Text"
     id="path5-4" />
</svg>
