<?xml version="1.0" encoding="UTF-8" standalone="no"?>
<svg
   width="64"
   height="64"
   version="1.1"
   viewBox="0 0 16.933 16.933"
   id="svg7"
   sodipodi:docname="abcd.svg"
   inkscape:version="1.4.3 (0d15f75042, 2025-12-25)"
   xmlns:inkscape="http://www.inkscape.org/namespaces/inkscape"
   xmlns:sodipodi="http://sodipodi.sourceforge.net/DTD/sodipodi-0.dtd"
   xmlns="http://www.w3.org/2000/svg"
   xmlns:svg="http://www.w3.org/2000/svg"
   xmlns:rdf="http://www.w3.org/1999/02/22-rdf-syntax-ns#"
   xmlns:cc="http://creativecommons.org/ns#"
   xmlns:dc="http://purl.org/dc/elements/1.1/">
  <sodipodi:namedview
     id="namedview7"
     pagecolor="#9c4444"
     bordercolor="#000000"
     borderopacity="0.25"
     inkscape:showpageshadow="2"
     inkscape:pageopacity="0.0"
     inkscape:pagecheckerboard="0"
     inkscape:deskcolor="#d1d1d1"
     inkscape:zoom="4.3531261"
     inkscape:cx="37.444355"
     inkscape:cy="27.336677"
     inkscape:window-width="1226"
     inkscape:window-height="669"
     inkscape:window-x="164"
     inkscape:window-y="233"
     inkscape:window-maximized="0"
     inkscape:current-layer="svg7"
     showgrid="false" />
  <defs
     id="defs2">
    <filter
       style="color-interpolation-filters:sRGB;"
       inkscape:label="Blur"
       id="filter5421"
       x="-0.12256455"
       y="-0.12342654"
       width="1.2451291"
       height="1.2468531">
      <feGaussianBlur
         stdDeviation="0.5 0.5"
         result="blur"
         id="feGaussianBlur5419" />
    </filter>
  </defs>
  <metadata
     id="metadata2">
    <rdf:RDF>
      <cc:Work
         rdf:about="">
        <dc:format>image/svg+xml</dc:format>
        <dc:type
           rdf:resource="http://purl.org/dc/dcmitype/StillImage" />
      </cc:Work>
    </rdf:RDF>
  </metadata>
  <rect
     style="opacity:0.3;fill:none;fill-opacity:0.996424;stroke:#000000;stroke-width:0.955221;stroke-dasharray:none;stroke-opacity:1;filter:url(#filter5421)"
     id="rect1-2-7"
     width="13.687567"
     height="13.591975"
     x="1.6227165"
     y="1.6705122"
     rx="2.8442214"
     ry="2.965905" />
  <rect
     style="fill:none;fill-opacity:1;stroke:{{colors.primary.default.hex}};stroke-width:0.955221;stroke-dasharray:none;stroke-opacity:1"
     id="rect1-2"
     width="13.687567"
     height="13.591975"
     x="1.6227167"
     y="1.6705124"
     rx="2.8442214"
     ry="2.965905" />
  <path
     d="m 4.7512252,4.4756944 v 0.00202 1.5962903 1.5962914 1.596291 0.5287454 1.0675475 0.26337 0.265373 a 0.99148859,1.0655345 0 0 0 0.9896186,1.063532 H 5.4808114 l 0.016832,0.0022 h 0.7426799 1.4853618 1.4853622 1.4853677 1.485359 V 10.860976 H 10.696415 9.2110517 8.2682022 L 9.0857122,10.35434 10.370906,9.5561526 11.657972,8.7580072 10.91529,7.3768333 9.6282238,8.174979 8.343032,8.9731251 7.5292618,9.4777452 7.9988172,8.603203 8.7414975,7.2220293 9.4841788,5.8388447 8.1933725,5.0386901 7.4506916,6.4218739 6.7080104,7.8030472 6.2365863,8.6816109 V 7.668345 6.0720545 4.4757629 Z m 0.9896186,6.3831536 c 0.1309506,0 0.2562909,0.0563 0.3498267,0.154805 0.093536,0.09851 0.1440459,0.235218 0.1440459,0.37595 0,0.140732 -0.05238,0.275431 -0.1440459,0.375954 -0.091667,0.100515 -0.2188761,0.154805 -0.3498267,0.154805 -0.130951,0 -0.256291,-0.0563 -0.3498279,-0.154805 -0.093536,-0.09851 -0.1440456,-0.235222 -0.1440456,-0.375954 0,-0.140732 0.052381,-0.275427 0.1440456,-0.37595 0.091665,-0.100513 0.2188769,-0.154805 0.3498279,-0.154805 z"
     fill="#bebebe"
     id="path2-3"
     style="fill:{{colors.primary.default.hex}};fill-opacity:1;stroke:none;stroke-width:0.251941;stroke-dasharray:none;stroke-opacity:0.3" />
</svg>
