<?xml version="1.0" encoding="UTF-8" standalone="no"?>
<svg
   width="64"
   height="64"
   version="1.1"
   viewBox="0 0 16.933 16.933"
   id="svg7"
   sodipodi:docname="abcd.svg"
   inkscape:version="1.4.3 (0d15f75042, 2025-12-25)"
   xmlns:inkscape="http://www.inkscape.org/namespaces/inkscape"
   xmlns:sodipodi="http://sodipodi.sourceforge.net/DTD/sodipodi-0.dtd"
   xmlns="http://www.w3.org/2000/svg"
   xmlns:svg="http://www.w3.org/2000/svg"
   xmlns:rdf="http://www.w3.org/1999/02/22-rdf-syntax-ns#"
   xmlns:cc="http://creativecommons.org/ns#"
   xmlns:dc="http://purl.org/dc/elements/1.1/">
  <sodipodi:namedview
     id="namedview7"
     pagecolor="#9c4444"
     bordercolor="#000000"
     borderopacity="0.25"
     inkscape:showpageshadow="2"
     inkscape:pageopacity="0.0"
     inkscape:pagecheckerboard="0"
     inkscape:deskcolor="#d1d1d1"
     inkscape:zoom="4.3531261"
     inkscape:cx="40.660435"
     inkscape:cy="23.431437"
     inkscape:window-width="1226"
     inkscape:window-height="669"
     inkscape:window-x="37"
     inkscape:window-y="156"
     inkscape:window-maximized="0"
     inkscape:current-layer="svg7"
     showgrid="false" />
  <defs
     id="defs2">
    <filter
       style="color-interpolation-filters:sRGB;"
       inkscape:label="Blur"
       id="filter5421"
       x="-0.12256455"
       y="-0.12342654"
       width="1.2451291"
       height="1.2468531">
      <feGaussianBlur
         stdDeviation="0.5 0.5"
         result="blur"
         id="feGaussianBlur5419" />
    </filter>
  </defs>
  <metadata
     id="metadata2">
    <rdf:RDF>
      <cc:Work
         rdf:about="">
        <dc:format>image/svg+xml</dc:format>
        <dc:type
           rdf:resource="http://purl.org/dc/dcmitype/StillImage" />
      </cc:Work>
    </rdf:RDF>
  </metadata>
  <rect
     style="opacity:0.3;fill:none;fill-opacity:0.996424;stroke:#000000;stroke-width:0.955221;stroke-dasharray:none;stroke-opacity:1;filter:url(#filter5421)"
     id="rect1-2-7"
     width="13.687567"
     height="13.591975"
     x="1.6227165"
     y="1.6705122"
     rx="2.8442214"
     ry="2.965905" />
  <rect
     style="fill:none;fill-opacity:1;stroke:{{colors.primary.default.hex}};stroke-width:0.955221;stroke-dasharray:none;stroke-opacity:1"
     id="rect1-2"
     width="13.687567"
     height="13.591975"
     x="1.6227167"
     y="1.6705124"
     rx="2.8442214"
     ry="2.965905" />
  <g
     fill="#232629"
     id="g15"
     transform="matrix(0.67142958,0,0,0.67142958,-7.6478099,-6.3049508)"
     style="fill:{{colors.primary.default.hex}};fill-opacity:1">
    <path
       d="M 27.936,23 A 2,2 0 0 1 28,23.5 V 24 a 2,2 0 0 1 -2,2 h -1 v 2 h 5 v -5 h -2 z"
       id="path13"
       style="fill:{{colors.primary.default.hex}};fill-opacity:1" />
    <path
       d="m 25,23 v 2 h 1 a 1.007,1.007 0 0 0 0.295,-0.045 0.997,0.997 0 0 0 0.35,-0.19 1,1 0 0 0 0.246,-0.312 A 0.997,0.997 0 0 0 27,24 V 23.5 A 1,1 0 0 0 26.863,23 Z m -7,0 v 5 h 5 v -2 h -3 v -1 h 3 v -2 z m 0,-7 v 5 h 2.064 A 2,2 0 0 1 20,20.5 V 20 a 2,2 0 0 1 2,-2 h 1 v -2 z"
       id="path14"
       style="fill:{{colors.primary.default.hex}};fill-opacity:1" />
    <path
       d="m 22,19 a 1.007,1.007 0 0 0 -0.295,0.045 0.997,0.997 0 0 0 -0.35,0.19 1,1 0 0 0 -0.246,0.312 A 0.997,0.997 0 0 0 21,20 v 0.5 A 1,1 0 0 0 21.137,21 H 23 v -2 z m 3,-3 v 2 h 3 v 1 h -3 v 2 h 5 v -5 z"
       id="path15"
       style="fill:{{colors.primary.default.hex}};fill-opacity:1" />
  </g>
</svg>
