<?xml version="1.0" encoding="UTF-8" standalone="no"?>
<svg
   width="64"
   height="64"
   version="1.1"
   viewBox="0 0 16.933 16.933"
   id="svg7"
   sodipodi:docname="accessories-text-editor.svg"
   inkscape:version="1.4.3 (0d15f75042, 2025-12-25)"
   xmlns:inkscape="http://www.inkscape.org/namespaces/inkscape"
   xmlns:sodipodi="http://sodipodi.sourceforge.net/DTD/sodipodi-0.dtd"
   xmlns="http://www.w3.org/2000/svg"
   xmlns:svg="http://www.w3.org/2000/svg"
   xmlns:rdf="http://www.w3.org/1999/02/22-rdf-syntax-ns#"
   xmlns:cc="http://creativecommons.org/ns#"
   xmlns:dc="http://purl.org/dc/elements/1.1/">
  <sodipodi:namedview
     id="namedview7"
     pagecolor="#9c4444"
     bordercolor="#000000"
     borderopacity="0.25"
     inkscape:showpageshadow="2"
     inkscape:pageopacity="0.0"
     inkscape:pagecheckerboard="0"
     inkscape:deskcolor="#d1d1d1"
     inkscape:zoom="4.3531261"
     inkscape:cx="37.444355"
     inkscape:cy="27.336677"
     inkscape:window-width="1226"
     inkscape:window-height="669"
     inkscape:window-x="164"
     inkscape:window-y="233"
     inkscape:window-maximized="0"
     inkscape:current-layer="svg7"
     showgrid="false" />
  <defs
     id="defs2">
    <filter
       style="color-interpolation-filters:sRGB;"
       inkscape:label="Blur"
       id="filter5421"
       x="-0.12256455"
       y="-0.12342654"
       width="1.2451291"
       height="1.2468531">
      <feGaussianBlur
         stdDeviation="0.5 0.5"
         result="blur"
         id="feGaussianBlur5419" />
    </filter>
  </defs>
  <metadata
     id="metadata2">
    <rdf:RDF>
      <cc:Work
         rdf:about="">
        <dc:format>image/svg+xml</dc:format>
        <dc:type
           rdf:resource="http://purl.org/dc/dcmitype/StillImage" />
      </cc:Work>
    </rdf:RDF>
  </metadata>
  <rect
     style="opacity:0.3;fill:none;fill-opacity:0.996424;stroke:#000000;stroke-width:0.955221;stroke-dasharray:none;stroke-opacity:1;filter:url(#filter5421)"
     id="rect1-2-7"
     width="13.687567"
     height="13.591975"
     x="1.6227165"
     y="1.6705122"
     rx="2.8442214"
     ry="2.965905" />
  <rect
     style="fill:none;fill-opacity:1;stroke:{{colors.primary.default.hex}};stroke-width:0.955221;stroke-dasharray:none;stroke-opacity:1"
     id="rect1-2"
     width="13.687567"
     height="13.591975"
     x="1.6227167"
     y="1.6705124"
     rx="2.8442214"
     ry="2.965905" />
  <path
     style="fill:{{colors.primary.default.hex}};fill-opacity:1;stroke:none;stroke-width:0.258866;stroke-dasharray:none;stroke-dashoffset:2.2;stroke-opacity:0.3"
     d="m 5.3707425,11.765496 c -0.032191,-0.02532 -0.065038,-0.07567 -0.072993,-0.111888 -0.012873,-0.05863 0.2216403,-1.250186 0.2520398,-1.280584 0.00581,-0.0058 -0.1005854,-0.124692 -0.2364402,-0.264176 C 4.7741532,9.5552474 4.5174746,8.997285 4.4914553,8.322235 4.4733868,7.8535137 4.5452724,7.5231097 4.7602648,7.0866785 5.1760048,6.2427345 6.1057546,5.5550814 7.2192338,5.2679985 7.651306,5.1565997 7.9473419,5.1218118 8.4662302,5.1214618 c 0.4686332,-2.626e-4 0.7304555,0.02661 1.1211527,0.1152949 1.0251851,0.2327114 1.9273211,0.8178663 2.4198681,1.5696046 1.000336,1.5267469 0.225156,3.3957967 -1.733448,4.1795457 -0.5935698,0.237521 -1.1071884,0.3318 -1.8075728,0.3318 -0.5065607,0 -0.8006471,-0.0332 -1.2068577,-0.136242 -0.1221743,-0.03099 -0.2360343,-0.05634 -0.253024,-0.05634 -0.016992,0 -0.3457194,0.154445 -0.7305112,0.343211 -0.4603887,0.225849 -0.7247446,0.343209 -0.7730933,0.343209 -0.040408,0 -0.099809,-0.0207 -0.1320015,-0.04604 z M 10.732684,9.8202393 c 0.165189,-0.088406 0.139052,-0.4591784 -0.03709,-0.526147 -0.0797,-0.030298 -4.310398,-0.030298 -4.3900887,0 -0.1660949,0.063149 -0.2014211,0.3612262 -0.059615,0.5030322 0.046331,0.046332 0.06284,0.046671 2.2447231,0.046671 1.4637987,0 2.2127526,-0.00785 2.2420676,-0.023552 z m 0.02697,-1.4160457 c 0.07021,-0.062745 0.07473,-0.075949 0.07473,-0.219243 0,-0.1432948 -0.0045,-0.1564991 -0.07473,-0.2192434 l -0.07473,-0.066765 H 8.5005515 6.3161693 l -0.074722,0.066765 c -0.070224,0.062745 -0.074722,0.075949 -0.074722,0.2192434 0,0.1432943 0.0045,0.1564994 0.074722,0.2192431 l 0.074722,0.066765 h 2.1843822 2.1843805 z m -0.06406,-1.328385 c 0.17928,-0.068163 0.202097,-0.3901764 0.03687,-0.5203777 -0.02723,-0.021461 -0.541096,-0.02804 -2.2333216,-0.028602 l -2.1979383,-7.087e-4 -0.051478,0.047958 c -0.1427559,0.1329977 -0.1133271,0.4353713 0.048713,0.5005176 0.071634,0.028801 4.3215229,0.02999 4.3971629,0.00124 z"
     id="path39" />
</svg>
