<?xml version="1.0" encoding="UTF-8" standalone="no"?>
<svg
   width="64"
   height="64"
   version="1.1"
   viewBox="0 0 16.933 16.933"
   id="svg7"
   sodipodi:docname="abcd.svg"
   inkscape:version="1.4.3 (0d15f75042, 2025-12-25)"
   xmlns:inkscape="http://www.inkscape.org/namespaces/inkscape"
   xmlns:sodipodi="http://sodipodi.sourceforge.net/DTD/sodipodi-0.dtd"
   xmlns="http://www.w3.org/2000/svg"
   xmlns:svg="http://www.w3.org/2000/svg"
   xmlns:rdf="http://www.w3.org/1999/02/22-rdf-syntax-ns#"
   xmlns:cc="http://creativecommons.org/ns#"
   xmlns:dc="http://purl.org/dc/elements/1.1/">
  <sodipodi:namedview
     id="namedview7"
     pagecolor="#9c4444"
     bordercolor="#000000"
     borderopacity="0.25"
     inkscape:showpageshadow="2"
     inkscape:pageopacity="0.0"
     inkscape:pagecheckerboard="0"
     inkscape:deskcolor="#d1d1d1"
     inkscape:zoom="4.3531261"
     inkscape:cx="37.444355"
     inkscape:cy="27.336677"
     inkscape:window-width="1226"
     inkscape:window-height="669"
     inkscape:window-x="164"
     inkscape:window-y="233"
     inkscape:window-maximized="0"
     inkscape:current-layer="svg7"
     showgrid="false" />
  <defs
     id="defs2">
    <filter
       style="color-interpolation-filters:sRGB;"
       inkscape:label="Blur"
       id="filter5421"
       x="-0.12256455"
       y="-0.12342654"
       width="1.2451291"
       height="1.2468531">
      <feGaussianBlur
         stdDeviation="0.5 0.5"
         result="blur"
         id="feGaussianBlur5419" />
    </filter>
  </defs>
  <metadata
     id="metadata2">
    <rdf:RDF>
      <cc:Work
         rdf:about="">
        <dc:format>image/svg+xml</dc:format>
        <dc:type
           rdf:resource="http://purl.org/dc/dcmitype/StillImage" />
      </cc:Work>
    </rdf:RDF>
  </metadata>
  <rect
     style="opacity:0.3;fill:none;fill-opacity:0.996424;stroke:#000000;stroke-width:0.955221;stroke-dasharray:none;stroke-opacity:1;filter:url(#filter5421)"
     id="rect1-2-7"
     width="13.687567"
     height="13.591975"
     x="1.6227165"
     y="1.6705122"
     rx="2.8442214"
     ry="2.965905" />
  <rect
     style="fill:none;fill-opacity:1;stroke:{{colors.primary.default.hex}};stroke-width:0.955221;stroke-dasharray:none;stroke-opacity:1"
     id="rect1-2"
     width="13.687567"
     height="13.591975"
     x="1.6227167"
     y="1.6705124"
     rx="2.8442214"
     ry="2.965905" />
  <path
     id="path19"
     style="fill:{{colors.primary.default.hex}};fill-opacity:1;stroke:none;stroke-width:0.272491;stroke-dasharray:none;stroke-dashoffset:2.2;stroke-opacity:0.3"
     d="m 7.4188518,5.1120566 c -0.2112626,0.0026 -0.4252521,0.050052 -0.6295998,0.1479539 -0.9705418,0.4649722 -1.186556,1.712785 -0.4257654,2.4609216 0.2297859,0.225964 0.4697135,0.3582866 0.7653128,0.4225715 0.2426809,0.052777 0.3383701,0.0552 0.5694607,0.013304 C 8.2607176,8.0548406 8.7539542,7.6125177 8.9143517,7.0657841 8.9899961,6.8079464 8.9791869,6.4060638 8.8898718,6.1530503 8.6596542,5.5008936 8.0526406,5.1043196 7.4188535,5.1120544 Z m 2.5881202,1.0074665 c -0.1159407,0.00176 -0.2327266,0.01897 -0.348063,0.053219 l -0.1617909,0.047899 0.019161,0.2740863 C 9.552167,7.0003327 9.3635204,7.6009791 9.06071,7.9449898 8.9903411,8.0249333 8.9324484,8.1027954 8.9324484,8.1179572 c 0,0.036211 0.3055801,0.3292011 0.4113953,0.3943642 0.04544,0.027984 0.1652236,0.079809 0.2661031,0.1154892 0.283301,0.1002013 0.6770472,0.078037 0.9585032,-0.053752 0.280857,-0.1315085 0.528647,-0.3693849 0.657275,-0.6306649 0.09468,-0.1923133 0.101115,-0.2267441 0.101115,-0.5353994 0,-0.3079043 -0.0067,-0.3435057 -0.100054,-0.5327379 C 10.991162,6.3974389 10.509385,6.1118763 10.006972,6.1195231 Z M 9.7983476,9.2547509 9.9516217,9.35587 c 0.3539973,0.2344778 0.6733603,0.5965164 0.8696263,0.984582 0.105946,0.209479 0.239492,0.670677 0.239492,0.827048 v 0.121342 h 0.770103 0.770102 l -0.01064,-0.369349 C 12.579665,10.566227 12.573632,10.539617 12.46151,10.312776 12.127914,9.6378796 11.275942,9.2547509 10.10969,9.2547509 Z m -2.3097768,0.00585 c -0.075204,7.24e-5 -0.1519176,0.00142 -0.2304453,0.00372 C 6.6011734,9.2836224 6.2854945,9.336333 5.8360702,9.5016979 4.8589019,9.8612486 4.3330901,10.592821 4.3320553,11.594335 v 0.226719 h 3.0985052 3.0985045 v -0.321986 c 0,-0.602663 -0.170578,-1.015079 -0.5912801,-1.431635 C 9.3764987,9.5116764 8.616633,9.259526 7.4885708,9.2606056 Z" />
</svg>
