<?xml version="1.0" encoding="UTF-8" standalone="no"?>
<svg
   width="64"
   height="64"
   version="1.1"
   viewBox="0 0 16.933 16.933"
   id="svg7"
   sodipodi:docname="abcd.svg"
   inkscape:version="1.4.3 (0d15f75042, 2025-12-25)"
   xmlns:inkscape="http://www.inkscape.org/namespaces/inkscape"
   xmlns:sodipodi="http://sodipodi.sourceforge.net/DTD/sodipodi-0.dtd"
   xmlns="http://www.w3.org/2000/svg"
   xmlns:svg="http://www.w3.org/2000/svg"
   xmlns:rdf="http://www.w3.org/1999/02/22-rdf-syntax-ns#"
   xmlns:cc="http://creativecommons.org/ns#"
   xmlns:dc="http://purl.org/dc/elements/1.1/">
  <sodipodi:namedview
     id="namedview7"
     pagecolor="#9c4444"
     bordercolor="#000000"
     borderopacity="0.25"
     inkscape:showpageshadow="2"
     inkscape:pageopacity="0.0"
     inkscape:pagecheckerboard="0"
     inkscape:deskcolor="#d1d1d1"
     inkscape:zoom="4.3531261"
     inkscape:cx="40.660435"
     inkscape:cy="23.431437"
     inkscape:window-width="1226"
     inkscape:window-height="669"
     inkscape:window-x="37"
     inkscape:window-y="156"
     inkscape:window-maximized="0"
     inkscape:current-layer="svg7"
     showgrid="false" />
  <defs
     id="defs2">
    <filter
       style="color-interpolation-filters:sRGB;"
       inkscape:label="Blur"
       id="filter5421"
       x="-0.12256455"
       y="-0.12342654"
       width="1.2451291"
       height="1.2468531">
      <feGaussianBlur
         stdDeviation="0.5 0.5"
         result="blur"
         id="feGaussianBlur5419" />
    </filter>
  </defs>
  <metadata
     id="metadata2">
    <rdf:RDF>
      <cc:Work
         rdf:about="">
        <dc:format>image/svg+xml</dc:format>
        <dc:type
           rdf:resource="http://purl.org/dc/dcmitype/StillImage" />
      </cc:Work>
    </rdf:RDF>
  </metadata>
  <rect
     style="opacity:0.3;fill:none;fill-opacity:0.996424;stroke:#000000;stroke-width:0.955221;stroke-dasharray:none;stroke-opacity:1;filter:url(#filter5421)"
     id="rect1-2-7"
     width="13.687567"
     height="13.591975"
     x="1.6227165"
     y="1.6705122"
     rx="2.8442214"
     ry="2.965905" />
  <rect
     style="fill:none;fill-opacity:1;stroke:{{colors.primary.default.hex}};stroke-width:0.955221;stroke-dasharray:none;stroke-opacity:1"
     id="rect1-2"
     width="13.687567"
     height="13.591975"
     x="1.6227167"
     y="1.6705124"
     rx="2.8442214"
     ry="2.965905" />
  <path
     d="m 8.4665003,4.3917907 c -2.2615244,0 -4.0948527,1.8243117 -4.0948527,4.0747098 0,2.2503965 1.8333283,4.0747095 4.0948527,4.0747095 2.2615227,0 4.0948517,-1.824313 4.0948517,-4.0747095 0,-2.2503981 -1.833329,-4.0747098 -4.0948517,-4.0747098 z M 8.1740106,5.5196123 c 0.039135,-0.00407 0.088485,0.00231 0.1279732,0 0.00465,0.018635 -0.0285,0.084912 -0.073118,0.1819075 -0.284218,0.617819 -0.3003406,1.3413712 -0.036569,1.7281135 0.047735,0.070119 0.091402,0.1368509 0.091402,0.145526 0,0.00866 -0.051471,0.018148 -0.1096875,0.018148 -0.1366381,0 -0.265944,-0.082867 -0.530137,-0.2910448 C 7.5265147,7.2097827 7.3739343,7.1321074 7.314821,7.1203504 7.2220039,7.1018933 7.1972633,7.1099885 7.0771687,7.2294932 6.9654473,7.3406523 6.9309343,7.4005897 6.9309343,7.5023538 c 0,0.3858985 0.4604248,0.6926653 1.3162034,0.8731521 1.1621767,0.2451056 1.4486712,0.4651689 1.4807265,1.073249 0.040245,0.7625401 -0.367716,1.3375351 -1.2613615,1.7826851 -0.1066582,0.05314 -0.174624,0.07378 -0.2193739,0.09095 -0.019894,-0.0018 -0.035044,0.0017 -0.054811,0 -0.00751,-0.02357 -0.018357,-0.07826 -0.018357,-0.181908 0,-0.405014 -0.1604294,-0.821898 -0.4021658,-1.055058 C 7.7069035,10.022838 7.525209,9.8902172 7.3696182,9.7943751 7.2140305,9.6985384 7.0572667,9.5872068 7.0222848,9.5397072 6.9643127,9.4608837 6.9594926,9.4124592 7.0039302,9.2668469 7.0850947,9.0009023 7.1817154,8.8527807 7.3695368,8.6847459 7.468013,8.5966508 7.5670883,8.5227756 7.5889112,8.5210287 7.610796,8.5193213 7.4630614,8.475158 7.2415805,8.4300762 7.0200969,8.3849165 6.696141,8.2903119 6.5286212,8.2299889 6.2223377,8.1197106 5.8088165,7.8882024 5.6511458,7.7206508 5.6445085,7.7135432 5.6387641,7.708768 5.6327912,7.702501 5.8586703,6.8071938 6.4925539,6.0733972 7.3328817,5.7197185 7.5086993,5.6457151 7.6899646,5.5949453 7.8812997,5.556001 7.9765928,5.5366218 8.0753797,5.5295749 8.1737881,5.51962 Z m 2.7420884,1.3642995 c 0.06869,0.04226 0.328119,0.6007582 0.402173,0.8731519 0.0956,0.3517003 0.08868,0.9603225 0,1.309729 -0.03376,0.1329742 -0.07701,0.2573758 -0.0914,0.2728601 -0.01436,0.015492 -0.06657,-0.073653 -0.12797,-0.1819078 -0.0614,-0.1082347 -0.257482,-0.3382291 -0.42045,-0.5093378 -0.470405,-0.4939301 -0.544376,-0.7518301 -0.347331,-1.1460121 0.09936,-0.1987823 0.531804,-0.651139 0.584978,-0.6184833 z"
     fill="#333333"
     id="path2-0"
     style="fill:{{colors.primary.default.hex}};fill-opacity:1;stroke:none;stroke-width:0.247717;stroke-dasharray:none;stroke-opacity:0.3" />
</svg>
