<?xml version="1.0" encoding="UTF-8" standalone="no"?>
<svg
   width="64"
   height="64"
   version="1.1"
   viewBox="0 0 16.933 16.933"
   id="svg7"
   sodipodi:docname="abcd.svg"
   inkscape:version="1.4.3 (0d15f75042, 2025-12-25)"
   xmlns:inkscape="http://www.inkscape.org/namespaces/inkscape"
   xmlns:sodipodi="http://sodipodi.sourceforge.net/DTD/sodipodi-0.dtd"
   xmlns="http://www.w3.org/2000/svg"
   xmlns:svg="http://www.w3.org/2000/svg"
   xmlns:rdf="http://www.w3.org/1999/02/22-rdf-syntax-ns#"
   xmlns:cc="http://creativecommons.org/ns#"
   xmlns:dc="http://purl.org/dc/elements/1.1/">
  <sodipodi:namedview
     id="namedview7"
     pagecolor="#9c4444"
     bordercolor="#000000"
     borderopacity="0.25"
     inkscape:showpageshadow="2"
     inkscape:pageopacity="0.0"
     inkscape:pagecheckerboard="0"
     inkscape:deskcolor="#d1d1d1"
     inkscape:zoom="4.3531261"
     inkscape:cx="37.444355"
     inkscape:cy="27.336677"
     inkscape:window-width="1226"
     inkscape:window-height="669"
     inkscape:window-x="164"
     inkscape:window-y="233"
     inkscape:window-maximized="0"
     inkscape:current-layer="svg7"
     showgrid="false" />
  <defs
     id="defs2">
    <filter
       style="color-interpolation-filters:sRGB;"
       inkscape:label="Blur"
       id="filter5421"
       x="-0.12256455"
       y="-0.12342654"
       width="1.2451291"
       height="1.2468531">
      <feGaussianBlur
         stdDeviation="0.5 0.5"
         result="blur"
         id="feGaussianBlur5419" />
    </filter>
  </defs>
  <metadata
     id="metadata2">
    <rdf:RDF>
      <cc:Work
         rdf:about="">
        <dc:format>image/svg+xml</dc:format>
        <dc:type
           rdf:resource="http://purl.org/dc/dcmitype/StillImage" />
      </cc:Work>
    </rdf:RDF>
  </metadata>
  <rect
     style="opacity:0.3;fill:none;fill-opacity:0.996424;stroke:#000000;stroke-width:0.955221;stroke-dasharray:none;stroke-opacity:1;filter:url(#filter5421)"
     id="rect1-2-7"
     width="13.687567"
     height="13.591975"
     x="1.6227165"
     y="1.6705122"
     rx="2.8442214"
     ry="2.965905" />
  <rect
     style="fill:none;fill-opacity:1;stroke:{{colors.primary.default.hex}};stroke-width:0.955221;stroke-dasharray:none;stroke-opacity:1"
     id="rect1-2"
     width="13.687567"
     height="13.591975"
     x="1.6227167"
     y="1.6705124"
     rx="2.8442214"
     ry="2.965905" />
  <path
     style="color:#444444;fill:{{colors.primary.default.hex}};fill-opacity:1;stroke:none;stroke-width:0.243828;stroke-dasharray:none;stroke-opacity:1"
     class="ColorScheme-Text"
     d="m 5.5473286,5.2819483 c 0,0 -1.0615173,0 -1.0615173,1.0615175 v 4.2460662 c 0,1.06152 1.0615173,1.06152 1.0615173,1.06152 h 5.8383434 c 0,0 1.061516,0 1.061516,-1.06152 V 6.3434658 c 0,-1.0615175 -1.061516,-1.0615175 -1.061516,-1.0615175 z M 5.6800183,6.3434658 H 6.476156 c 0.073508,0 0.1326891,0.059179 0.1326891,0.1326897 v 0.7961373 c 0,0.073509 -0.059179,0.1326897 -0.1326891,0.1326897 H 5.6800183 c -0.073509,0 -0.1326897,-0.05918 -0.1326897,-0.1326897 V 6.4761555 c 0,-0.07351 0.059179,-0.1326897 0.1326897,-0.1326897 z m 1.5922753,0 h 0.7961376 c 0.073509,0 0.1326893,0.059179 0.1326893,0.1326897 v 0.7961373 c 0,0.073509 -0.05918,0.1326897 -0.1326893,0.1326897 H 7.2722936 c -0.07351,0 -0.1326898,-0.05918 -0.1326898,-0.1326897 V 6.4761555 c 0,-0.07351 0.059179,-0.1326897 0.1326898,-0.1326897 z m 1.5922756,0 h 0.7961375 c 0.073512,0 0.1326892,0.059179 0.1326892,0.1326897 v 0.7961373 c 0,0.073509 -0.059177,0.1326897 -0.1326892,0.1326897 H 8.8645689 c -0.073509,0 -0.1326896,-0.05918 -0.1326896,-0.1326897 V 6.4761555 c 0,-0.07351 0.059178,-0.1326897 0.1326899,-0.1326897 z m 1.5922758,0 h 0.796136 c 0.07351,0 0.132691,0.059179 0.132691,0.1326897 v 0.7961373 c 0,0.073509 -0.05918,0.1326897 -0.132691,0.1326897 h -0.796136 c -0.07352,0 -0.13269,-0.05918 -0.13269,-0.1326897 V 6.4761555 c 0,-0.07351 0.05919,-0.1326897 0.13269,-0.1326897 z M 5.6800183,7.935741 H 6.476156 c 0.073508,0 0.1326891,0.059178 0.1326891,0.1326892 v 0.7961381 c 0,0.07351 -0.059179,0.1326897 -0.1326891,0.1326897 H 5.6800183 c -0.073509,0 -0.1326897,-0.05918 -0.1326897,-0.1326897 V 8.0684302 c 0,-0.073508 0.059179,-0.1326892 0.1326897,-0.1326892 z m 1.5922753,0 h 0.7961376 c 0.073509,0 0.1326893,0.059178 0.1326893,0.1326892 v 0.7961381 c 0,0.07351 -0.05918,0.1326897 -0.1326893,0.1326897 H 7.2722936 c -0.07351,0 -0.1326898,-0.05918 -0.1326898,-0.1326897 V 8.0684302 c 0,-0.073508 0.059179,-0.1326892 0.1326898,-0.1326892 z m 1.5922756,0 h 0.7961375 c 0.073512,0 0.1326892,0.059178 0.1326892,0.1326892 v 0.7961381 c 0,0.07351 -0.059177,0.1326897 -0.1326892,0.1326897 H 8.8645689 c -0.073509,0 -0.1326896,-0.05918 -0.1326896,-0.1326897 V 8.0684302 c 0,-0.073508 0.059178,-0.1326892 0.1326899,-0.1326892 z m 1.5922758,0 h 0.796136 c 0.07351,0 0.132691,0.059178 0.132691,0.1326892 v 0.7961381 c 0,0.07351 -0.05918,0.1326897 -0.132691,0.1326897 h -0.796136 c -0.07352,0 -0.13269,-0.05918 -0.13269,-0.1326897 V 8.0684302 c 0,-0.073508 0.05919,-0.1326892 0.13269,-0.1326892 z M 6.7415351,9.5280162 h 3.4499299 c 0.07351,0 0.13269,0.059178 0.13269,0.132689 v 0.7961398 c 0,0.07351 -0.05918,0.132687 -0.13269,0.132687 H 6.7415351 c -0.073509,0 -0.13269,-0.05917 -0.13269,-0.132687 V 9.6607052 c 0,-0.073512 0.059179,-0.132689 0.13269,-0.132689 z"
     id="path5" />
</svg>
