<?xml version="1.0" encoding="UTF-8" standalone="no"?>
<svg
   width="64"
   height="64"
   version="1.1"
   viewBox="0 0 16.933 16.933"
   id="svg7"
   sodipodi:docname="abcd.svg"
   inkscape:version="1.4.3 (0d15f75042, 2025-12-25)"
   xmlns:inkscape="http://www.inkscape.org/namespaces/inkscape"
   xmlns:sodipodi="http://sodipodi.sourceforge.net/DTD/sodipodi-0.dtd"
   xmlns="http://www.w3.org/2000/svg"
   xmlns:svg="http://www.w3.org/2000/svg"
   xmlns:rdf="http://www.w3.org/1999/02/22-rdf-syntax-ns#"
   xmlns:cc="http://creativecommons.org/ns#"
   xmlns:dc="http://purl.org/dc/elements/1.1/">
  <sodipodi:namedview
     id="namedview7"
     pagecolor="#9c4444"
     bordercolor="#000000"
     borderopacity="0.25"
     inkscape:showpageshadow="2"
     inkscape:pageopacity="0.0"
     inkscape:pagecheckerboard="0"
     inkscape:deskcolor="#d1d1d1"
     inkscape:zoom="4.3531261"
     inkscape:cx="37.444355"
     inkscape:cy="27.336677"
     inkscape:window-width="1226"
     inkscape:window-height="669"
     inkscape:window-x="164"
     inkscape:window-y="233"
     inkscape:window-maximized="0"
     inkscape:current-layer="svg7"
     showgrid="false" />
  <defs
     id="defs2">
    <filter
       style="color-interpolation-filters:sRGB;"
       inkscape:label="Blur"
       id="filter5421"
       x="-0.12256455"
       y="-0.12342654"
       width="1.2451291"
       height="1.2468531">
      <feGaussianBlur
         stdDeviation="0.5 0.5"
         result="blur"
         id="feGaussianBlur5419" />
    </filter>
  </defs>
  <metadata
     id="metadata2">
    <rdf:RDF>
      <cc:Work
         rdf:about="">
        <dc:format>image/svg+xml</dc:format>
        <dc:type
           rdf:resource="http://purl.org/dc/dcmitype/StillImage" />
      </cc:Work>
    </rdf:RDF>
  </metadata>
  <rect
     style="opacity:0.3;fill:none;fill-opacity:0.996424;stroke:#000000;stroke-width:0.955221;stroke-dasharray:none;stroke-opacity:1;filter:url(#filter5421)"
     id="rect1-2-7"
     width="13.687567"
     height="13.591975"
     x="1.6227165"
     y="1.6705122"
     rx="2.8442214"
     ry="2.965905" />
  <rect
     style="fill:none;fill-opacity:1;stroke:{{colors.primary.default.hex}};stroke-width:0.955221;stroke-dasharray:none;stroke-opacity:1"
     id="rect1-2"
     width="13.687567"
     height="13.591975"
     x="1.6227167"
     y="1.6705124"
     rx="2.8442214"
     ry="2.965905" />
  <g
     id="g7"
     transform="matrix(1.0762481,0,0,1.0762481,-0.60319729,-0.65768037)"
     style="fill:{{colors.primary.default.hex}};fill-opacity:1">
    <path
       style="fill:{{colors.primary.default.hex}};fill-opacity:1;stroke:none;stroke-width:0.264578;stroke-linecap:round;stroke-linejoin:round;stroke-dasharray:none;stroke-opacity:0.3"
       d="m 7.4949132,4.7269173 c -0.1032909,0 -0.1864458,0.08316 -0.1864458,0.1864501 v 1.8644554 c 0,0.1032931 0.083155,0.1864436 0.1864458,0.1864436 h 1.8644585 c 0.1032909,0 0.1864458,-0.08315 0.1864458,-0.1864436 V 4.9133674 c 0,-0.1032905 -0.083155,-0.1864501 -0.1864458,-0.1864501 z"
       id="path8" />
    <path
       style="fill:{{colors.primary.default.hex}};fill-opacity:1;stroke:none;stroke-width:0.264578;stroke-linecap:round;stroke-linejoin:round;stroke-dasharray:none;stroke-opacity:0.3"
       d="m 6.2188269,7.3590927 c -0.1032909,0 -0.1864457,0.083152 -0.1864457,0.1864435 v 1.864462 c 0,0.1032918 0.083155,0.1864436 0.1864457,0.1864436 h 1.8644572 c 0.1032911,0 0.1864458,-0.083152 0.1864458,-0.1864436 v -1.864462 c 0,-0.1032918 -0.083155,-0.1864435 -0.1864458,-0.1864435 z"
       id="path12-8" />
    <path
       style="fill:{{colors.primary.default.hex}};fill-opacity:1;stroke:none;stroke-width:0.264578;stroke-linecap:round;stroke-linejoin:round;stroke-dasharray:none;stroke-opacity:0.3"
       d="m 8.851002,7.3590927 c -0.1032908,0 -0.1864458,0.083152 -0.1864458,0.1864435 v 1.864462 c 0,0.1032918 0.083155,0.1864436 0.1864458,0.1864436 h 1.864457 c 0.103291,0 0.186445,-0.083152 0.186445,-0.1864436 v -1.864462 c 0,-0.1032918 -0.08315,-0.1864435 -0.186445,-0.1864435 z"
       id="path14" />
    <path
       style="fill:{{colors.primary.default.hex}};fill-opacity:1;stroke:none;stroke-width:0.264578;stroke-linecap:round;stroke-linejoin:round;stroke-dasharray:none;stroke-opacity:0.3"
       d="m 4.8627382,9.9912681 c -0.103291,0 -0.1864458,0.08315 -0.1864458,0.1864439 v 1.864455 c 0,0.103292 0.083155,0.18645 0.1864458,0.18645 h 1.8644585 c 0.1032909,0 0.1864458,-0.08316 0.1864458,-0.18645 v -1.864455 c 0,-0.103294 -0.083155,-0.1864439 -0.1864458,-0.1864439 z"
       id="path18" />
    <path
       style="fill:{{colors.primary.default.hex}};fill-opacity:1;stroke:none;stroke-width:0.264578;stroke-linecap:round;stroke-linejoin:round;stroke-dasharray:none;stroke-opacity:0.3"
       d="m 7.4949148,9.9912681 c -0.1032907,0 -0.1864458,0.08315 -0.1864458,0.1864439 v 1.864455 c 0,0.103292 0.083155,0.18645 0.1864458,0.18645 h 1.8644586 c 0.1032909,0 0.1864456,-0.08316 0.1864456,-0.18645 v -1.864455 c 0,-0.103294 -0.083155,-0.1864439 -0.1864456,-0.1864439 z"
       id="path20-3" />
    <path
       style="fill:{{colors.primary.default.hex}};fill-opacity:1;stroke:none;stroke-width:0.264578;stroke-linecap:round;stroke-linejoin:round;stroke-dasharray:none;stroke-opacity:0.3"
       d="m 10.127092,9.9912681 c -0.103291,0 -0.186446,0.08315 -0.186446,0.1864439 v 1.864455 c 0,0.103292 0.083155,0.18645 0.186446,0.18645 h 1.864458 c 0.103291,0 0.186446,-0.08316 0.186446,-0.18645 v -1.864455 c 0,-0.103294 -0.08315,-0.1864439 -0.186446,-0.1864439 z"
       id="path22" />
  </g>
</svg>
