<?xml version="1.0" encoding="UTF-8" standalone="no"?>
<svg
   width="64"
   height="64"
   version="1.1"
   viewBox="0 0 16.933 16.933"
   id="svg7"
   sodipodi:docname="abcd.svg"
   inkscape:version="1.4.3 (0d15f75042, 2025-12-25)"
   xmlns:inkscape="http://www.inkscape.org/namespaces/inkscape"
   xmlns:sodipodi="http://sodipodi.sourceforge.net/DTD/sodipodi-0.dtd"
   xmlns="http://www.w3.org/2000/svg"
   xmlns:svg="http://www.w3.org/2000/svg"
   xmlns:rdf="http://www.w3.org/1999/02/22-rdf-syntax-ns#"
   xmlns:cc="http://creativecommons.org/ns#"
   xmlns:dc="http://purl.org/dc/elements/1.1/">
  <sodipodi:namedview
     id="namedview7"
     pagecolor="#9c4444"
     bordercolor="#000000"
     borderopacity="0.25"
     inkscape:showpageshadow="2"
     inkscape:pageopacity="0.0"
     inkscape:pagecheckerboard="0"
     inkscape:deskcolor="#d1d1d1"
     inkscape:zoom="4.3531261"
     inkscape:cx="40.660435"
     inkscape:cy="23.431437"
     inkscape:window-width="1226"
     inkscape:window-height="669"
     inkscape:window-x="37"
     inkscape:window-y="156"
     inkscape:window-maximized="0"
     inkscape:current-layer="svg7"
     showgrid="false" />
  <defs
     id="defs2">
    <filter
       style="color-interpolation-filters:sRGB;"
       inkscape:label="Blur"
       id="filter5421"
       x="-0.12256455"
       y="-0.12342654"
       width="1.2451291"
       height="1.2468531">
      <feGaussianBlur
         stdDeviation="0.5 0.5"
         result="blur"
         id="feGaussianBlur5419" />
    </filter>
  </defs>
  <metadata
     id="metadata2">
    <rdf:RDF>
      <cc:Work
         rdf:about="">
        <dc:format>image/svg+xml</dc:format>
        <dc:type
           rdf:resource="http://purl.org/dc/dcmitype/StillImage" />
      </cc:Work>
    </rdf:RDF>
  </metadata>
  <rect
     style="opacity:0.3;fill:none;fill-opacity:0.996424;stroke:#000000;stroke-width:0.955221;stroke-dasharray:none;stroke-opacity:1;filter:url(#filter5421)"
     id="rect1-2-7"
     width="13.687567"
     height="13.591975"
     x="1.6227165"
     y="1.6705122"
     rx="2.8442214"
     ry="2.965905" />
  <rect
     style="fill:none;fill-opacity:1;stroke:{{colors.primary.default.hex}};stroke-width:0.955221;stroke-dasharray:none;stroke-opacity:1"
     id="rect1-2"
     width="13.687567"
     height="13.591975"
     x="1.6227167"
     y="1.6705124"
     rx="2.8442214"
     ry="2.965905" />
  <path
     id="path12"
     style="fill:{{colors.primary.default.hex}};fill-opacity:1;stroke-width:0.0365804;stroke-opacity:0.6"
     d="M 8.4748579,4.9794817 C 8.2350436,4.983432 7.9780227,5.1681334 7.9320958,5.3977693 L 7.9087847,5.5156467 H 8.4665012 9.0242181 L 9.0009075,5.3977693 C 8.9699469,5.2429689 8.7777954,5.0485226 8.6046119,4.9966356 8.5628053,4.9841094 8.5192689,4.9787486 8.4748589,4.979484 Z m -0.00836,1.1695348 c -0.7842963,0 -1.568452,0.2692015 -2.2264689,0.8075455 C 5.550144,7.5209799 5.0648172,8.4442691 5.0023204,9.3110255 L 4.9803279,9.6127561 H 8.4665003 11.95267 L 11.930679,9.3110255 C 11.868182,8.4442691 11.382855,7.5209799 10.692969,6.956562 10.034953,6.418218 9.2507969,6.1490165 8.4665007,6.1490165 Z m 0,4.0856735 c -3.6021191,0 -3.6308315,6.04e-4 -3.7628295,0.07566 -0.2660627,0.151295 -0.2780239,0.190353 -0.2907341,0.95753 l -0.011436,0.685712 h 4.0649985 4.0650002 l -0.01144,-0.685712 c -0.01271,-0.767177 -0.02467,-0.806235 -0.290735,-0.95753 -0.131997,-0.07505 -0.16071,-0.07566 -3.7628312,-0.07566 z" />
</svg>
