<?xml version="1.0" encoding="UTF-8" standalone="no"?>
<svg
   width="64"
   height="64"
   version="1.1"
   viewBox="0 0 16.933 16.933"
   id="svg7"
   sodipodi:docname="abcd.svg"
   inkscape:version="1.4.3 (0d15f75042, 2025-12-25)"
   xmlns:inkscape="http://www.inkscape.org/namespaces/inkscape"
   xmlns:sodipodi="http://sodipodi.sourceforge.net/DTD/sodipodi-0.dtd"
   xmlns="http://www.w3.org/2000/svg"
   xmlns:svg="http://www.w3.org/2000/svg"
   xmlns:rdf="http://www.w3.org/1999/02/22-rdf-syntax-ns#"
   xmlns:cc="http://creativecommons.org/ns#"
   xmlns:dc="http://purl.org/dc/elements/1.1/">
  <sodipodi:namedview
     id="namedview7"
     pagecolor="#9c4444"
     bordercolor="#000000"
     borderopacity="0.25"
     inkscape:showpageshadow="2"
     inkscape:pageopacity="0.0"
     inkscape:pagecheckerboard="0"
     inkscape:deskcolor="#d1d1d1"
     inkscape:zoom="4.3531261"
     inkscape:cx="37.444355"
     inkscape:cy="27.336677"
     inkscape:window-width="1226"
     inkscape:window-height="669"
     inkscape:window-x="164"
     inkscape:window-y="233"
     inkscape:window-maximized="0"
     inkscape:current-layer="svg7"
     showgrid="false" />
  <defs
     id="defs2">
    <filter
       style="color-interpolation-filters:sRGB;"
       inkscape:label="Blur"
       id="filter5421"
       x="-0.12256455"
       y="-0.12342654"
       width="1.2451291"
       height="1.2468531">
      <feGaussianBlur
         stdDeviation="0.5 0.5"
         result="blur"
         id="feGaussianBlur5419" />
    </filter>
  </defs>
  <metadata
     id="metadata2">
    <rdf:RDF>
      <cc:Work
         rdf:about="">
        <dc:format>image/svg+xml</dc:format>
        <dc:type
           rdf:resource="http://purl.org/dc/dcmitype/StillImage" />
      </cc:Work>
    </rdf:RDF>
  </metadata>
  <rect
     style="opacity:0.3;fill:none;fill-opacity:0.996424;stroke:#000000;stroke-width:0.955221;stroke-dasharray:none;stroke-opacity:1;filter:url(#filter5421)"
     id="rect1-2-7"
     width="13.687567"
     height="13.591975"
     x="1.6227165"
     y="1.6705122"
     rx="2.8442214"
     ry="2.965905" />
  <rect
     style="fill:none;fill-opacity:1;stroke:{{colors.primary.default.hex}};stroke-width:0.955221;stroke-dasharray:none;stroke-opacity:1"
     id="rect1-2"
     width="13.687567"
     height="13.591975"
     x="1.6227167"
     y="1.6705124"
     rx="2.8442214"
     ry="2.965905" />
  <path
     style="color:#6e6e6e;fill:{{colors.primary.default.hex}};fill-opacity:1;stroke:none;stroke-width:0.257642;stroke-dasharray:none;stroke-opacity:0.3"
     class="ColorScheme-Text"
     d="m 6.5768115,4.4553443 c -0.9448448,0 -0.9448448,1.0696415 -0.9448448,1.0696415 v 5.8830272 c 0,1.069643 0.8944374,1.067719 0.9448448,1.069643 h 3.7793755 c 0,0 0.944846,-0.0022 0.944846,-1.069643 V 5.5249858 c 0,-1.0696415 -0.944846,-1.0696415 -0.944846,-1.0696415 z m 1.8896887,1.0696415 c 0.2617551,0 0.4724223,0.2403748 0.4724223,0.5348206 0,0.2944935 -0.2106672,0.5348211 -0.4724223,0.5348211 -0.2618346,0 -0.472422,-0.2403276 -0.472422,-0.5348211 0,-0.2944458 0.2105874,-0.5348206 0.472422,-0.5348206 z m 0,1.6044624 c 1.0436278,0 1.8896868,0.9578097 1.8896868,2.1392828 0,1.181473 -0.846059,2.139282 -1.8896868,2.139282 -1.0436275,0 -1.8896887,-0.957809 -1.8896887,-2.139282 0,-1.1814728 0.8460612,-2.1392828 1.8896887,-2.1392828 z m 0,1.0696409 c -0.5218378,0 -0.9448443,0.4788952 -0.9448443,1.0696419 0,0.590748 0.423021,1.069642 0.9448443,1.069642 0.5218234,0 0.9448451,-0.478894 0.9448451,-1.069642 0,-0.5907467 -0.4230217,-1.0696417 -0.9448451,-1.0696419 z"
     id="path5" />
</svg>
