<?xml version="1.0" encoding="UTF-8" standalone="no"?>
<svg
   width="64"
   height="64"
   version="1.1"
   viewBox="0 0 16.933 16.933"
   id="svg7"
   sodipodi:docname="abcd.svg"
   inkscape:version="1.4.3 (0d15f75042, 2025-12-25)"
   xmlns:inkscape="http://www.inkscape.org/namespaces/inkscape"
   xmlns:sodipodi="http://sodipodi.sourceforge.net/DTD/sodipodi-0.dtd"
   xmlns="http://www.w3.org/2000/svg"
   xmlns:svg="http://www.w3.org/2000/svg"
   xmlns:rdf="http://www.w3.org/1999/02/22-rdf-syntax-ns#"
   xmlns:cc="http://creativecommons.org/ns#"
   xmlns:dc="http://purl.org/dc/elements/1.1/">
  <sodipodi:namedview
     id="namedview7"
     pagecolor="#9c4444"
     bordercolor="#000000"
     borderopacity="0.25"
     inkscape:showpageshadow="2"
     inkscape:pageopacity="0.0"
     inkscape:pagecheckerboard="0"
     inkscape:deskcolor="#d1d1d1"
     inkscape:zoom="4.3531261"
     inkscape:cx="40.660435"
     inkscape:cy="23.431437"
     inkscape:window-width="1226"
     inkscape:window-height="669"
     inkscape:window-x="37"
     inkscape:window-y="156"
     inkscape:window-maximized="0"
     inkscape:current-layer="svg7"
     showgrid="false" />
  <defs
     id="defs2">
    <filter
       style="color-interpolation-filters:sRGB;"
       inkscape:label="Blur"
       id="filter5421"
       x="-0.12256455"
       y="-0.12342654"
       width="1.2451291"
       height="1.2468531">
      <feGaussianBlur
         stdDeviation="0.5 0.5"
         result="blur"
         id="feGaussianBlur5419" />
    </filter>
  </defs>
  <metadata
     id="metadata2">
    <rdf:RDF>
      <cc:Work
         rdf:about="">
        <dc:format>image/svg+xml</dc:format>
        <dc:type
           rdf:resource="http://purl.org/dc/dcmitype/StillImage" />
      </cc:Work>
    </rdf:RDF>
  </metadata>
  <rect
     style="opacity:0.3;fill:none;fill-opacity:0.996424;stroke:#000000;stroke-width:0.955221;stroke-dasharray:none;stroke-opacity:1;filter:url(#filter5421)"
     id="rect1-2-7"
     width="13.687567"
     height="13.591975"
     x="1.6227165"
     y="1.6705122"
     rx="2.8442214"
     ry="2.965905" />
  <rect
     style="fill:none;fill-opacity:1;stroke:{{colors.primary.default.hex}};stroke-width:0.955221;stroke-dasharray:none;stroke-opacity:1"
     id="rect1-2"
     width="13.687567"
     height="13.591975"
     x="1.6227167"
     y="1.6705124"
     rx="2.8442214"
     ry="2.965905" />
  <path
     style="fill:{{colors.primary.default.hex}};fill-opacity:1;stroke:none;stroke-width:0.031298;stroke-dashoffset:2.2;stroke-opacity:0.3"
     d="M 4.8133739,12.473444 C 4.6681203,12.396872 4.5757089,12.302261 4.5125998,12.165523 4.4598824,12.051299 4.4547598,11.942291 4.4541326,10.92142 L 4.4534497,9.8025114 4.586467,9.8032469 c 0.089878,4.99e-4 0.1837694,0.03058 0.2895074,0.092772 C 5.3526982,10.176408 5.5315208,10.210811 5.7559252,10.065306 6.0426066,9.8794181 6.1895202,9.509082 6.1691756,9.0235958 6.1502852,8.5728101 5.9885964,8.258614 5.6987979,8.1095484 5.4945443,8.004485 5.3220046,8.0410493 4.9728973,8.2633781 4.7804095,8.3859641 4.6287499,8.4369033 4.5300321,8.4121266 L 4.4534491,8.3929051 V 7.5155989 c 0,-0.9523376 0.00313,-0.9721563 0.1835373,-1.1665004 0.179132,-0.1929567 0.1723147,-0.191919 1.3302218,-0.2025562 L 7.027144,6.1368082 7.0140977,5.9564903 C 7.0035755,5.8110024 6.9726854,5.7285022 6.8541824,5.5293757 6.6152443,5.1278761 6.616424,4.9449169 6.8595171,4.7018215 7.0738,4.4875385 7.2961803,4.4074853 7.6771539,4.4074853 c 0.3809731,0 0.6033531,0.080054 0.8176362,0.2943362 0.2430954,0.2430954 0.2442755,0.4260546 0.00533,0.8275542 C 8.3810804,5.729417 8.3507575,5.8106961 8.3400735,5.9584032 l -0.01318,0.18223 h 0.9057269 c 1.0203266,0 1.1465906,0.018726 1.3132396,0.194756 0.185075,0.1954949 0.181605,0.1720896 0.198515,1.3388536 l 0.01565,1.0797869 0.07453,0.010546 c 0.136957,0.019369 0.267749,-0.024911 0.530661,-0.1796544 0.143497,-0.084457 0.309019,-0.1625865 0.367827,-0.173619 0.221996,-0.041647 0.51249,0.1731486 0.641634,0.4744324 0.258088,0.602096 0.01619,1.4001043 -0.468405,1.5452943 -0.117737,0.03527 -0.138916,0.03071 -0.354049,-0.07631 -0.125851,-0.06261 -0.292089,-0.149705 -0.369418,-0.193563 -0.105118,-0.05962 -0.176187,-0.07742 -0.281678,-0.07051 l -0.141085,0.0093 -0.01565,1.001541 c -0.01685,1.078187 -0.02005,1.099105 -0.192639,1.256089 -0.172601,0.156999 -0.23252,0.167977 -0.9168902,0.167977 h -0.64317 v -0.119891 c 0,-0.06971 0.034521,-0.18432 0.082494,-0.273859 0.045372,-0.08468 0.1228353,-0.229896 0.1721399,-0.322695 0.2693943,-0.507041 -0.1183283,-0.976118 -0.8492993,-1.027505 -0.559791,-0.03935 -1.0648831,0.251131 -1.117394,0.642626 -0.02054,0.153149 0.022486,0.2879 0.1678907,0.52581 0.1305396,0.213586 0.2011142,0.417331 0.1767846,0.510368 -0.016931,0.06474 -0.025244,0.06513 -1.36703,0.0639 -1.1688524,-10e-4 -1.3625938,-0.008 -1.4438895,-0.05076 z"
     id="path1-7" />
</svg>
