<?xml version="1.0" encoding="UTF-8" standalone="no"?>
<svg
   width="64"
   height="64"
   version="1.1"
   viewBox="0 0 16.933 16.933"
   id="svg7"
   sodipodi:docname="abcd.svg"
   inkscape:version="1.4.3 (0d15f75042, 2025-12-25)"
   xmlns:inkscape="http://www.inkscape.org/namespaces/inkscape"
   xmlns:sodipodi="http://sodipodi.sourceforge.net/DTD/sodipodi-0.dtd"
   xmlns="http://www.w3.org/2000/svg"
   xmlns:svg="http://www.w3.org/2000/svg"
   xmlns:rdf="http://www.w3.org/1999/02/22-rdf-syntax-ns#"
   xmlns:cc="http://creativecommons.org/ns#"
   xmlns:dc="http://purl.org/dc/elements/1.1/">
  <sodipodi:namedview
     id="namedview7"
     pagecolor="#9c4444"
     bordercolor="#000000"
     borderopacity="0.25"
     inkscape:showpageshadow="2"
     inkscape:pageopacity="0.0"
     inkscape:pagecheckerboard="0"
     inkscape:deskcolor="#d1d1d1"
     inkscape:zoom="4.3531261"
     inkscape:cx="37.444355"
     inkscape:cy="27.336677"
     inkscape:window-width="1226"
     inkscape:window-height="669"
     inkscape:window-x="164"
     inkscape:window-y="233"
     inkscape:window-maximized="0"
     inkscape:current-layer="svg7"
     showgrid="false" />
  <defs
     id="defs2">
    <filter
       style="color-interpolation-filters:sRGB;"
       inkscape:label="Blur"
       id="filter5421"
       x="-0.12256455"
       y="-0.12342654"
       width="1.2451291"
       height="1.2468531">
      <feGaussianBlur
         stdDeviation="0.5 0.5"
         result="blur"
         id="feGaussianBlur5419" />
    </filter>
  </defs>
  <metadata
     id="metadata2">
    <rdf:RDF>
      <cc:Work
         rdf:about="">
        <dc:format>image/svg+xml</dc:format>
        <dc:type
           rdf:resource="http://purl.org/dc/dcmitype/StillImage" />
      </cc:Work>
    </rdf:RDF>
  </metadata>
  <rect
     style="opacity:0.3;fill:none;fill-opacity:0.996424;stroke:#000000;stroke-width:0.955221;stroke-dasharray:none;stroke-opacity:1;filter:url(#filter5421)"
     id="rect1-2-7"
     width="13.687567"
     height="13.591975"
     x="1.6227165"
     y="1.6705122"
     rx="2.8442214"
     ry="2.965905" />
  <rect
     style="fill:none;fill-opacity:1;stroke:{{colors.primary.default.hex}};stroke-width:0.955221;stroke-dasharray:none;stroke-opacity:1"
     id="rect1-2"
     width="13.687567"
     height="13.591975"
     x="1.6227167"
     y="1.6705124"
     rx="2.8442214"
     ry="2.965905" />
  <path
     fill="#f5f7fa"
     d="m 8.4665012,12.61396 c -2.325359,0 -4.210434,-1.856882 -4.210434,-4.1474586 0,-2.2905803 1.885075,-4.1474611 4.210434,-4.1474611 2.3253558,0 4.2104318,1.8568808 4.2104318,4.1474611 0,2.2905766 -1.885076,4.1474586 -4.2104318,4.1474586 z m 0,-7.3732643 c -1.8086126,0 -3.2747814,1.444244 -3.2747814,3.2258057 0,0.1272535 0.1047264,0.2304131 0.2339128,0.2304131 0.1291861,0 0.233912,-0.1031575 0.233912,-0.2304131 0,-1.5270539 1.2567173,-2.7649759 2.8069566,-2.7649759 0.129186,0 0.2339129,-0.1031603 0.2339129,-0.2304132 0,-0.1272548 -0.1047272,-0.2304166 -0.2339129,-0.2304166 z m 0,5.0691183 c 1.0334921,0 1.8713038,-0.8252803 1.8713038,-1.8433126 0,-1.0180355 -0.8378117,-1.8433178 -1.8713038,-1.8433178 -1.0334929,0 -1.8713041,0.8252823 -1.8713041,1.8433178 0,1.0180323 0.8378112,1.8433126 1.8713041,1.8433126 z m 0,-0.460828 c -0.7751199,0 -1.4034781,-0.6189587 -1.4034781,-1.3824846 0,-0.7635278 0.6283582,-1.3824891 1.4034781,-1.3824891 0.7751188,0 1.4034775,0.6189613 1.4034775,1.3824891 0,0.7635259 -0.6283587,1.3824846 -1.4034775,1.3824846 z m 0,-0.4608287 c 0.5167451,0 0.935651,-0.4126388 0.935651,-0.9216559 0,-0.5090195 -0.4189059,-0.9216595 -0.935651,-0.9216595 -0.5167473,0 -0.9356516,0.41264 -0.9356516,0.9216595 0,0.5090171 0.4189043,0.9216559 0.9356516,0.9216559 z"
     id="path42"
     style="fill:{{colors.primary.default.hex}};fill-opacity:1;stroke:none;stroke-width:0.272491;stroke-dasharray:none;stroke-opacity:0.3" />
</svg>
