<?xml version="1.0" encoding="UTF-8" standalone="no"?>
<svg
   width="64"
   height="64"
   version="1.1"
   viewBox="0 0 16.933 16.933"
   id="svg7"
   sodipodi:docname="accessories-text-editor.svg"
   inkscape:version="1.4.3 (0d15f75042, 2025-12-25)"
   xmlns:inkscape="http://www.inkscape.org/namespaces/inkscape"
   xmlns:sodipodi="http://sodipodi.sourceforge.net/DTD/sodipodi-0.dtd"
   xmlns="http://www.w3.org/2000/svg"
   xmlns:svg="http://www.w3.org/2000/svg"
   xmlns:rdf="http://www.w3.org/1999/02/22-rdf-syntax-ns#"
   xmlns:cc="http://creativecommons.org/ns#"
   xmlns:dc="http://purl.org/dc/elements/1.1/">
  <sodipodi:namedview
     id="namedview7"
     pagecolor="#9c4444"
     bordercolor="#000000"
     borderopacity="0.25"
     inkscape:showpageshadow="2"
     inkscape:pageopacity="0.0"
     inkscape:pagecheckerboard="0"
     inkscape:deskcolor="#d1d1d1"
     inkscape:zoom="4.3531261"
     inkscape:cx="40.430715"
     inkscape:cy="23.661157"
     inkscape:window-width="1226"
     inkscape:window-height="669"
     inkscape:window-x="164"
     inkscape:window-y="233"
     inkscape:window-maximized="0"
     inkscape:current-layer="svg7"
     showgrid="false" />
  <defs
     id="defs2">
    <filter
       style="color-interpolation-filters:sRGB;"
       inkscape:label="Blur"
       id="filter5421"
       x="-0.12256455"
       y="-0.12342654"
       width="1.2451291"
       height="1.2468531">
      <feGaussianBlur
         stdDeviation="0.5 0.5"
         result="blur"
         id="feGaussianBlur5419" />
    </filter>
  </defs>
  <metadata
     id="metadata2">
    <rdf:RDF>
      <cc:Work
         rdf:about="">
        <dc:format>image/svg+xml</dc:format>
        <dc:type
           rdf:resource="http://purl.org/dc/dcmitype/StillImage" />
      </cc:Work>
    </rdf:RDF>
  </metadata>
  <rect
     style="opacity:0.3;fill:none;fill-opacity:0.996424;stroke:#000000;stroke-width:0.955221;stroke-dasharray:none;stroke-opacity:1;filter:url(#filter5421)"
     id="rect1-2-7"
     width="13.687567"
     height="13.591975"
     x="1.6227165"
     y="1.6705122"
     rx="2.8442214"
     ry="2.965905" />
  <rect
     style="fill:none;fill-opacity:1;stroke:{{colors.primary.default.hex}};stroke-width:0.955221;stroke-dasharray:none;stroke-opacity:1"
     id="rect1-2"
     width="13.687567"
     height="13.591975"
     x="1.6227167"
     y="1.6705124"
     rx="2.8442214"
     ry="2.965905" />
  <path
     id="path8-9"
     style="fill:{{colors.primary.default.hex}};fill-opacity:1;stroke:none;stroke-width:0.105793;stroke-dasharray:none;stroke-opacity:0.6"
     d="m 8.4652548,4.9013954 c -0.1566743,9.72e-4 -0.315929,0.080811 -0.4277101,0.2420725 l -0.080692,0.1158382 -0.00793,1.4628302 -0.00793,1.4628304 0.139105,-0.042573 c 0.1784816,-0.054574 0.5941406,-0.054465 0.7722554,0 l 0.1381292,0.042078 V 6.7666898 5.3484124 L 8.914748,5.1969312 C 8.8168335,5.0004429 8.6428192,4.9003399 8.4652548,4.9013954 Z m 3.0187252,0 c -0.131481,0.005 -0.258402,0.067575 -0.359892,0.1831629 -0.13323,0.1517441 -0.153773,0.2636356 -0.153953,0.8440361 -1.51e-4,0.4805172 0.0039,0.5177514 0.051,0.503451 0.322241,-0.097635 0.638773,-0.099893 0.931654,-0.00595 l 0.06535,0.021287 v -0.555921 c 0,-0.6935014 -0.03458,-0.8014252 -0.297515,-0.9356171 -0.07735,-0.039479 -0.157739,-0.057452 -0.236628,-0.054454 z M 5.4059374,4.9019208 C 5.3092877,4.9055308 5.213752,4.9391826 5.1302012,5.0029077 4.980852,5.1168236 4.9141613,5.2726479 4.8940696,5.5573479 c -0.00958,0.1350671 -0.01183,0.2457113 -0.00546,0.245538 0.00641,-1.739e-4 0.075852,-0.020211 0.1544519,-0.044059 0.1805564,-0.054774 0.6059881,-0.05609 0.784136,-0.00247 L 5.962837,5.7974449 V 5.6014058 C 5.96284,5.3404605 5.8978054,5.1605439 5.7583901,5.0345898 5.6559481,4.9420395 5.5301881,4.8972848 5.4059253,4.9019202 Z m 0.018815,1.1192755 c -0.2671763,0 -0.3080534,0.00771 -0.4861247,0.092076 C 4.667888,6.2415377 4.4992885,6.4066056 4.3683453,6.6716735 4.2645497,6.8817789 4.2599296,6.9051601 4.2599296,7.1850253 c 0,0.2727855 0.00622,0.3067266 0.095537,0.4881052 0.159421,0.3237811 0.4355834,0.5568201 0.76384,0.6450315 0.087674,0.023555 0.2075689,0.043491 0.2668242,0.044555 C 5.6910009,8.3681768 6.0536202,8.2133379 6.2658093,7.9864898 6.8221958,7.3916651 6.6503235,6.4810896 5.9133447,6.1182236 5.7301212,6.0280101 5.6964763,6.0211963 5.4247444,6.0211963 Z m 6.0839826,0.6405763 c -0.295088,7.85e-5 -0.334077,0.00688 -0.495036,0.085641 -0.340523,0.1666092 -0.59146,0.5031449 -0.658398,0.8831442 -0.109117,0.6194724 0.362664,1.260338 0.98661,1.3400626 0.526618,0.067284 1.028822,-0.2074005 1.252933,-0.6856265 0.06966,-0.1486253 0.07823,-0.2019269 0.07823,-0.4737489 0,-0.2864081 -0.0061,-0.3187008 -0.09406,-0.4975103 C 12.464085,7.0803173 12.22985,6.849914 11.99634,6.7404831 11.846213,6.6701285 11.795795,6.6616961 11.508729,6.6617723 Z M 8.4934763,8.3711309 C 8.2790437,8.3690296 8.0601234,8.427277 7.8588408,8.5478595 7.664412,8.6643313 7.5292465,8.8196609 7.409349,9.0631912 7.323614,9.2373308 7.316633,9.2740364 7.316776,9.5433759 c 1.38e-4,0.2576925 0.00942,0.3118492 0.080692,0.4643431 0.1569338,0.335753 0.3724446,0.531127 0.7153264,0.648001 0.2412246,0.08222 0.4655705,0.08465 0.7123554,0.0083 C 9.4118116,10.482949 9.7697467,9.856439 9.6201774,9.2726057 9.557114,9.0264485 9.4574128,8.8648514 9.2513716,8.6740942 9.0375995,8.4761772 8.7691697,8.3738373 8.4934716,8.3711303 Z m -3.6107888,0.144056 0.00892,1.5331241 c 0.00964,1.699448 0.00316,1.641609 0.20445,1.833118 0.055448,0.05275 0.1386081,0.108152 0.1851425,0.12277 0.2138711,0.06719 0.4864027,-0.05533 0.6009733,-0.269795 0.065992,-0.123534 0.06602,-0.125589 0.074256,-1.671241 L 5.9648276,8.5156816 5.8252278,8.55924 C 5.6435443,8.6160862 5.2041914,8.6156549 5.0222831,8.5587407 Z m 6.0874495,0.6578915 v 1.1717486 c 0,0.808136 0.01032,1.206984 0.03366,1.285112 0.04618,0.154166 0.189556,0.310017 0.330188,0.359397 0.06405,0.02249 0.143105,0.04186 0.175741,0.04257 0.100067,0.0024 0.311115,-0.123708 0.404936,-0.241578 l 0.08911,-0.111878 0.008,-1.252937 c 0.0076,-1.1671833 0.0049,-1.2512593 -0.04109,-1.2336269 -0.02712,0.010412 -0.138763,0.034234 -0.248013,0.052967 -0.190868,0.032735 -0.479842,0.010827 -0.687109,-0.051983 z M 7.9425016,10.900258 v 0.334148 c 0,0.45904 0.073641,0.623085 0.3346438,0.743543 0.1430564,0.06601 0.2182428,0.06806 0.3574161,0.0099 0.2746691,-0.114762 0.354573,-0.282452 0.3554345,-0.74552 l 5.254e-4,-0.339099 -0.1381148,0.04306 c -0.1834044,0.05727 -0.6247692,0.05654 -0.7861157,-0.0015 z" />
</svg>
