<?xml version="1.0" encoding="UTF-8" standalone="no"?>
<svg
   width="64"
   height="64"
   version="1.1"
   viewBox="0 0 16.933 16.933"
   id="svg7"
   sodipodi:docname="accessories-text-editor.svg"
   inkscape:version="1.4.3 (0d15f75042, 2025-12-25)"
   xmlns:inkscape="http://www.inkscape.org/namespaces/inkscape"
   xmlns:sodipodi="http://sodipodi.sourceforge.net/DTD/sodipodi-0.dtd"
   xmlns="http://www.w3.org/2000/svg"
   xmlns:svg="http://www.w3.org/2000/svg"
   xmlns:rdf="http://www.w3.org/1999/02/22-rdf-syntax-ns#"
   xmlns:cc="http://creativecommons.org/ns#"
   xmlns:dc="http://purl.org/dc/elements/1.1/">
  <sodipodi:namedview
     id="namedview7"
     pagecolor="#9c4444"
     bordercolor="#000000"
     borderopacity="0.25"
     inkscape:showpageshadow="2"
     inkscape:pageopacity="0.0"
     inkscape:pagecheckerboard="0"
     inkscape:deskcolor="#d1d1d1"
     inkscape:zoom="4.3531261"
     inkscape:cx="37.444355"
     inkscape:cy="27.336677"
     inkscape:window-width="1226"
     inkscape:window-height="669"
     inkscape:window-x="164"
     inkscape:window-y="233"
     inkscape:window-maximized="0"
     inkscape:current-layer="svg7"
     showgrid="false" />
  <defs
     id="defs2">
    <filter
       style="color-interpolation-filters:sRGB;"
       inkscape:label="Blur"
       id="filter5421"
       x="-0.12256455"
       y="-0.12342654"
       width="1.2451291"
       height="1.2468531">
      <feGaussianBlur
         stdDeviation="0.5 0.5"
         result="blur"
         id="feGaussianBlur5419" />
    </filter>
  </defs>
  <metadata
     id="metadata2">
    <rdf:RDF>
      <cc:Work
         rdf:about="">
        <dc:format>image/svg+xml</dc:format>
        <dc:type
           rdf:resource="http://purl.org/dc/dcmitype/StillImage" />
      </cc:Work>
    </rdf:RDF>
  </metadata>
  <rect
     style="opacity:0.3;fill:none;fill-opacity:0.996424;stroke:#000000;stroke-width:0.955221;stroke-dasharray:none;stroke-opacity:1;filter:url(#filter5421)"
     id="rect1-2-7"
     width="13.687567"
     height="13.591975"
     x="1.6227165"
     y="1.6705122"
     rx="2.8442214"
     ry="2.965905" />
  <rect
     style="fill:none;fill-opacity:1;stroke:{{colors.primary.default.hex}};stroke-width:0.955221;stroke-dasharray:none;stroke-opacity:1"
     id="rect1-2"
     width="13.687567"
     height="13.591975"
     x="1.6227167"
     y="1.6705124"
     rx="2.8442214"
     ry="2.965905" />
  <g
     id="text4228"
     transform="matrix(0.44901676,0,0,0.44901676,-171.39678,-230.31972)"
     style="fill:{{colors.primary.default.hex}};fill-opacity:1">
    <path
       style="fill:{{colors.primary.default.hex}};fill-opacity:1"
       id="path4233"
       d="m 395.02473,532.78927 1.99875,-5.655 1.80375,5.655 z m 5.57375,4.8425 h 1.43 l -4.17625,-11.8625 h -1.69 l -4.42,11.8625 h 1.43 l 1.41375,-3.75375 h 4.7125 z" />
    <path
       style="fill:{{colors.primary.default.hex}};fill-opacity:1"
       id="path4235"
       d="m 405.53315,536.78677 c -0.82875,0 -1.44625,-0.40625 -1.44625,-1.38125 0,-1.21875 0.73125,-1.60875 3.20125,-1.93375 0.0163,0 0.79625,-0.11375 0.79625,-0.11375 v 2.145 c -0.56875,0.78 -1.7225,1.28375 -2.55125,1.28375 z m 2.58375,-0.11375 0.195,0.95875 h 1.08875 v -6.4025 c 0,-1.95 -1.34875,-2.51875 -3.07125,-2.51875 -1.235,0 -2.38875,0.30875 -3.055,0.66625 l 0.37375,1.04 c 0.715,-0.34125 1.755,-0.585 2.71375,-0.585 1.2025,0 1.7225,0.5525 1.7225,1.60875 v 0.99125 l -0.8775,0.0975 c -2.2425,0.325 -4.4525,0.63375 -4.4525,2.925 0,1.625 1.21875,2.3725 2.64875,2.3725 0.91,0 1.95,-0.2925 2.71375,-1.15375 z" />
  </g>
</svg>
