<?xml version="1.0" encoding="UTF-8" standalone="no"?>
<svg
   width="64"
   height="64"
   version="1.1"
   viewBox="0 0 16.933 16.933"
   id="svg7"
   sodipodi:docname="abcd.svg"
   inkscape:version="1.4.3 (0d15f75042, 2025-12-25)"
   xmlns:inkscape="http://www.inkscape.org/namespaces/inkscape"
   xmlns:sodipodi="http://sodipodi.sourceforge.net/DTD/sodipodi-0.dtd"
   xmlns="http://www.w3.org/2000/svg"
   xmlns:svg="http://www.w3.org/2000/svg"
   xmlns:rdf="http://www.w3.org/1999/02/22-rdf-syntax-ns#"
   xmlns:cc="http://creativecommons.org/ns#"
   xmlns:dc="http://purl.org/dc/elements/1.1/">
  <sodipodi:namedview
     id="namedview7"
     pagecolor="#9c4444"
     bordercolor="#000000"
     borderopacity="0.25"
     inkscape:showpageshadow="2"
     inkscape:pageopacity="0.0"
     inkscape:pagecheckerboard="0"
     inkscape:deskcolor="#d1d1d1"
     inkscape:zoom="4.3531261"
     inkscape:cx="40.660435"
     inkscape:cy="23.431437"
     inkscape:window-width="1226"
     inkscape:window-height="669"
     inkscape:window-x="37"
     inkscape:window-y="156"
     inkscape:window-maximized="0"
     inkscape:current-layer="svg7"
     showgrid="false" />
  <defs
     id="defs2">
    <filter
       style="color-interpolation-filters:sRGB;"
       inkscape:label="Blur"
       id="filter5421"
       x="-0.12256455"
       y="-0.12342654"
       width="1.2451291"
       height="1.2468531">
      <feGaussianBlur
         stdDeviation="0.5 0.5"
         result="blur"
         id="feGaussianBlur5419" />
    </filter>
  </defs>
  <metadata
     id="metadata2">
    <rdf:RDF>
      <cc:Work
         rdf:about="">
        <dc:format>image/svg+xml</dc:format>
        <dc:type
           rdf:resource="http://purl.org/dc/dcmitype/StillImage" />
      </cc:Work>
    </rdf:RDF>
  </metadata>
  <rect
     style="opacity:0.3;fill:none;fill-opacity:0.996424;stroke:#000000;stroke-width:0.955221;stroke-dasharray:none;stroke-opacity:1;filter:url(#filter5421)"
     id="rect1-2-7"
     width="13.687567"
     height="13.591975"
     x="1.6227165"
     y="1.6705122"
     rx="2.8442214"
     ry="2.965905" />
  <rect
     style="fill:none;fill-opacity:1;stroke:{{colors.primary.default.hex}};stroke-width:0.955221;stroke-dasharray:none;stroke-opacity:1"
     id="rect1-2"
     width="13.687567"
     height="13.591975"
     x="1.6227167"
     y="1.6705124"
     rx="2.8442214"
     ry="2.965905" />
  <path
     id="path11"
     style="fill:{{colors.primary.default.hex}};fill-opacity:1;stroke-width:0.0125054;stroke-opacity:0.6"
     d="M 8.40021,4.2785217 C 7.9786996,4.2852097 7.5541899,4.3555648 7.1409565,4.4922026 5.1888614,5.1376796 3.996419,7.1181889 4.3344197,9.1545434 4.5161199,10.249233 5.1052343,11.202596 6.006399,11.860385 c 0.6002688,0.438156 1.3608078,0.721634 2.0981702,0.782131 0.07181,0.0059 0.2211694,0.01133 0.3319372,0.01228 2.0619486,0.0178 3.8277786,-1.467373 4.1612136,-3.4996813 0.07723,-0.4707533 0.07723,-0.9054765 0,-1.3751681 C 12.455109,6.9127288 12.053353,6.128738 11.430379,5.5038198 10.663123,4.7341687 9.6375298,4.3083014 8.5805214,4.2796922 8.5204645,4.2780677 8.4604259,4.2775623 8.40021,4.2785099 Z M 8.35396,4.8698031 c 0.6917363,-0.021056 1.3482944,0.1430843 1.929569,0.482977 0.295978,0.1730701 0.516374,0.3470093 0.77042,0.6076735 0.528347,0.5421055 0.858515,1.2126135 0.978251,1.9845973 0.02358,0.1520394 0.02809,0.2293098 0.02809,0.522201 0,0.3942135 -0.01894,0.5569242 -0.103616,0.8916055 -0.119569,0.4725932 -0.320506,0.8899456 -0.622308,1.2943776 -0.14951,0.200353 -0.488013,0.537498 -0.694902,0.691974 -0.485356,0.362396 -1.0437097,0.595597 -1.6427094,0.68612 -0.1994461,0.03014 -0.6699764,0.04358 -0.8670173,0.0246 C 7.459297,11.991329 6.831471,11.746502 6.2803788,11.335258 6.0800273,11.185748 5.7428811,10.847245 5.5884041,10.640355 5.2241444,10.152505 4.9956327,9.6036562 4.9005274,8.9894527 4.8770614,8.8379014 4.8725954,8.759204 4.8724268,8.4672516 4.8722584,8.1746192 4.876674,8.09754 4.8999423,7.9485634 5.0063521,7.2672364 5.2646075,6.6841829 5.6920248,6.1630112 5.7424321,6.1015469 5.8626374,5.9741466 5.9589798,5.8802495 6.6081458,5.2475605 7.4379306,4.8976816 8.35396,4.8698031 Z M 8.1789188,5.7783856 V 7.4169959 9.0550207 H 9.3667497 10.554581 V 8.9110057 8.767576 H 9.5107651 8.4663633 V 7.2729805 5.7783856 H 8.3223481 Z" />
</svg>
