<?xml version="1.0" encoding="UTF-8" standalone="no"?>
<svg
   width="64"
   height="64"
   version="1.1"
   viewBox="0 0 16.933 16.933"
   id="svg7"
   sodipodi:docname="abcd.svg"
   inkscape:version="1.4.3 (0d15f75042, 2025-12-25)"
   xmlns:inkscape="http://www.inkscape.org/namespaces/inkscape"
   xmlns:sodipodi="http://sodipodi.sourceforge.net/DTD/sodipodi-0.dtd"
   xmlns="http://www.w3.org/2000/svg"
   xmlns:svg="http://www.w3.org/2000/svg"
   xmlns:rdf="http://www.w3.org/1999/02/22-rdf-syntax-ns#"
   xmlns:cc="http://creativecommons.org/ns#"
   xmlns:dc="http://purl.org/dc/elements/1.1/">
  <sodipodi:namedview
     id="namedview7"
     pagecolor="#9c4444"
     bordercolor="#000000"
     borderopacity="0.25"
     inkscape:showpageshadow="2"
     inkscape:pageopacity="0.0"
     inkscape:pagecheckerboard="0"
     inkscape:deskcolor="#d1d1d1"
     inkscape:zoom="4.3531261"
     inkscape:cx="40.660435"
     inkscape:cy="23.431437"
     inkscape:window-width="1226"
     inkscape:window-height="669"
     inkscape:window-x="37"
     inkscape:window-y="156"
     inkscape:window-maximized="0"
     inkscape:current-layer="svg7"
     showgrid="false" />
  <defs
     id="defs2">
    <filter
       style="color-interpolation-filters:sRGB;"
       inkscape:label="Blur"
       id="filter5421"
       x="-0.12256455"
       y="-0.12342654"
       width="1.2451291"
       height="1.2468531">
      <feGaussianBlur
         stdDeviation="0.5 0.5"
         result="blur"
         id="feGaussianBlur5419" />
    </filter>
  </defs>
  <metadata
     id="metadata2">
    <rdf:RDF>
      <cc:Work
         rdf:about="">
        <dc:format>image/svg+xml</dc:format>
        <dc:type
           rdf:resource="http://purl.org/dc/dcmitype/StillImage" />
      </cc:Work>
    </rdf:RDF>
  </metadata>
  <rect
     style="opacity:0.3;fill:none;fill-opacity:0.996424;stroke:#000000;stroke-width:0.955221;stroke-dasharray:none;stroke-opacity:1;filter:url(#filter5421)"
     id="rect1-2-7"
     width="13.687567"
     height="13.591975"
     x="1.6227165"
     y="1.6705122"
     rx="2.8442214"
     ry="2.965905" />
  <rect
     style="fill:none;fill-opacity:1;stroke:{{colors.primary.default.hex}};stroke-width:0.955221;stroke-dasharray:none;stroke-opacity:1"
     id="rect1-2"
     width="13.687567"
     height="13.591975"
     x="1.6227167"
     y="1.6705124"
     rx="2.8442214"
     ry="2.965905" />
  <path
     style="fill:{{colors.primary.default.hex}};fill-opacity:1;stroke:none;stroke-width:0.245241;stroke-dasharray:none;stroke-dashoffset:2.2;stroke-opacity:0.3"
     d="M 5.5881963,11.419824 C 5.2257096,11.334705 4.7862067,10.955501 4.5990565,10.566398 4.4461793,10.248554 4.402583,10.047791 4.4027537,9.6624079 4.4028745,9.3887971 4.4153404,9.2841324 4.4681845,9.1131258 4.6748292,8.444387 5.143907,7.992432 5.7284731,7.8988418 c 0.1639362,-0.026247 0.2379291,-0.024238 0.4084414,0.011097 0.1145291,0.023731 0.2304181,0.051998 0.2575301,0.062815 0.044317,0.017682 0.049293,-0.00171 0.049293,-0.192131 0,-0.6365154 0.2566924,-1.2593376 0.7042252,-1.7086874 C 7.525345,5.693022 7.8875304,5.518054 8.3575375,5.4876038 c 1.103785,-0.071511 2.0433765,0.9085336 2.1323415,2.2241489 0.0102,0.1510526 0.02141,0.2746417 0.02488,0.2746417 0.0035,0 0.06178,-0.020797 0.129564,-0.046222 0.185084,-0.069407 0.585203,-0.062194 0.797025,0.014368 0.489101,0.1767878 0.887056,0.6419596 1.032127,1.2064589 0.07114,0.2767943 0.0761,0.7192956 0.01109,0.9878777 -0.143875,0.594378 -0.571755,1.090221 -1.074897,1.245627 -0.17853,0.05514 -0.254339,0.05653 -2.9478178,0.05377 -1.5492113,-0.0016 -2.8125273,-0.0141 -2.8736537,-0.02844 z"
     id="path99" />
</svg>
