<?xml version="1.0" encoding="UTF-8" standalone="no"?>
<svg
   width="64"
   height="64"
   version="1.1"
   viewBox="0 0 16.933 16.933"
   id="svg7"
   sodipodi:docname="abcd.svg"
   inkscape:version="1.4.3 (0d15f75042, 2025-12-25)"
   xmlns:inkscape="http://www.inkscape.org/namespaces/inkscape"
   xmlns:sodipodi="http://sodipodi.sourceforge.net/DTD/sodipodi-0.dtd"
   xmlns="http://www.w3.org/2000/svg"
   xmlns:svg="http://www.w3.org/2000/svg"
   xmlns:rdf="http://www.w3.org/1999/02/22-rdf-syntax-ns#"
   xmlns:cc="http://creativecommons.org/ns#"
   xmlns:dc="http://purl.org/dc/elements/1.1/">
  <sodipodi:namedview
     id="namedview7"
     pagecolor="#9c4444"
     bordercolor="#000000"
     borderopacity="0.25"
     inkscape:showpageshadow="2"
     inkscape:pageopacity="0.0"
     inkscape:pagecheckerboard="0"
     inkscape:deskcolor="#d1d1d1"
     inkscape:zoom="4.3531261"
     inkscape:cx="37.444355"
     inkscape:cy="27.336677"
     inkscape:window-width="1226"
     inkscape:window-height="669"
     inkscape:window-x="164"
     inkscape:window-y="233"
     inkscape:window-maximized="0"
     inkscape:current-layer="svg7"
     showgrid="false" />
  <defs
     id="defs2">
    <filter
       style="color-interpolation-filters:sRGB;"
       inkscape:label="Blur"
       id="filter5421"
       x="-0.12256455"
       y="-0.12342654"
       width="1.2451291"
       height="1.2468531">
      <feGaussianBlur
         stdDeviation="0.5 0.5"
         result="blur"
         id="feGaussianBlur5419" />
    </filter>
  </defs>
  <metadata
     id="metadata2">
    <rdf:RDF>
      <cc:Work
         rdf:about="">
        <dc:format>image/svg+xml</dc:format>
        <dc:type
           rdf:resource="http://purl.org/dc/dcmitype/StillImage" />
      </cc:Work>
    </rdf:RDF>
  </metadata>
  <rect
     style="opacity:0.3;fill:none;fill-opacity:0.996424;stroke:#000000;stroke-width:0.955221;stroke-dasharray:none;stroke-opacity:1;filter:url(#filter5421)"
     id="rect1-2-7"
     width="13.687567"
     height="13.591975"
     x="1.6227165"
     y="1.6705122"
     rx="2.8442214"
     ry="2.965905" />
  <rect
     style="fill:none;fill-opacity:1;stroke:{{colors.primary.default.hex}};stroke-width:0.955221;stroke-dasharray:none;stroke-opacity:1"
     id="rect1-2"
     width="13.687567"
     height="13.591975"
     x="1.6227167"
     y="1.6705124"
     rx="2.8442214"
     ry="2.965905" />
  <path
     id="path72"
     style="fill:{{colors.primary.default.hex}};fill-opacity:1;stroke:none;stroke-width:0.266132;stroke-dasharray:none;stroke-dashoffset:2.2;stroke-opacity:0.3"
     d="m 8.4581829,4.711347 c -2.5408577,0 -2.5513796,4.202e-4 -2.6322035,0.063934 -0.1816335,0.1428749 -0.1720496,-0.071603 -0.1720496,3.6769767 0,2.0686763 0.011849,3.4688723 0.029108,3.5142803 0.038689,0.101754 0.1477923,0.19905 0.2604134,0.232347 0.051952,0.01537 1.1870851,0.02535 2.583863,0.02233 2.3916068,-0.0051 2.4949088,-0.0079 2.5771078,-0.0634 0.18421,-0.124851 0.174126,0.08761 0.174126,-3.7034844 0,-3.1609431 -0.0045,-3.4814539 -0.04991,-3.5584653 C 11.113627,4.7011535 11.265001,4.7113396 8.4581766,4.7113396 Z M 4.3399074,5.3226171 V 5.7046608 6.0872243 H 4.7370247 5.1346619 V 5.7046608 5.3226171 H 4.7370247 Z m 7.4277626,0 v 0.3820437 0.3825635 h 0.41271 0.412712 V 5.7046608 5.3226171 H 12.18038 Z M 7.0298071,5.6282526 H 7.2132914 7.3962572 V 6.1022982 6.575825 H 7.2132914 7.0298071 V 6.1022982 Z m 1.2532074,0 H 8.4664995 8.649984 V 6.8970536 8.165335 H 8.4867716 c -0.089666,0 -0.172276,-0.00906 -0.1834856,-0.020272 C 8.292084,8.133861 8.28302,7.5632745 8.28302,6.8767812 Z m 1.2838752,0 H 9.7347811 9.9031924 V 6.575825 7.523917 H 9.7347811 9.5668897 V 6.575825 Z M 4.3399074,6.7286417 V 7.1112058 7.4932487 H 4.7370247 5.1346622 V 7.1112058 6.7286417 H 4.7370247 Z m 7.4277626,0 v 0.3825641 0.3820429 h 0.41271 0.412712 V 7.1112058 6.7286417 H 12.18038 Z M 7.0298071,6.8819795 H 7.213812 7.3978169 l -0.00833,0.4813227 -0.00833,0.4813236 -0.1538578,0.00883 C 7.1426209,7.8584181 7.0636029,7.8529338 7.0516394,7.840988 7.0396805,7.8290291 7.0298071,7.6080945 7.0298071,7.3503095 Z M 9.5668897,7.8295521 H 9.7347811 9.9031924 V 8.3030782 8.7771245 H 9.7347811 9.5668897 V 8.3030782 Z M 7.0298071,8.135187 H 7.2132914 7.3962572 V 9.0827596 10.030331 H 7.2132914 7.0298071 V 9.0827596 Z M 4.3399074,8.1653347 V 8.532305 8.8992743 H 4.7370247 5.1346622 V 8.5323047 8.1653347 H 4.7370247 Z m 7.4277626,0 V 8.532305 8.8992743 h 0.41271 0.412712 V 8.5323047 8.1653347 H 12.18038 Z M 8.649984,8.437703 V 9.7075422 10.977902 H 8.4659794 8.2824947 l 0.00779,-1.2610025 0.00779,-1.2610039 0.1756884,-0.00883 z m 0.9169057,0.6450566 h 0.1678914 0.1684113 v 1.1154614 1.115984 H 9.7347811 9.5668897 v -1.115983 z m -5.2269823,0.48912 V 9.9539217 10.335965 H 4.7370247 5.1346622 V 9.9539217 9.5718796 H 4.7370247 Z m 7.4277626,0 v 0.3820421 0.3820433 h 0.41271 0.412712 V 9.9539217 9.5718796 H 12.18038 Z M 4.3399074,10.977903 v 0.382044 0.382043 H 4.7370247 5.1346622 V 11.359947 10.977903 H 4.7370247 Z m 7.4277626,0 v 0.382044 0.382043 h 0.41271 0.412712 V 11.359947 10.977903 H 12.18038 Z" />
</svg>
