<?xml version="1.0" encoding="UTF-8" standalone="no"?>
<svg
   width="64"
   height="64"
   version="1.1"
   viewBox="0 0 16.933 16.933"
   id="svg7"
   sodipodi:docname="abcd.svg"
   inkscape:version="1.4.3 (0d15f75042, 2025-12-25)"
   xmlns:inkscape="http://www.inkscape.org/namespaces/inkscape"
   xmlns:sodipodi="http://sodipodi.sourceforge.net/DTD/sodipodi-0.dtd"
   xmlns="http://www.w3.org/2000/svg"
   xmlns:svg="http://www.w3.org/2000/svg"
   xmlns:rdf="http://www.w3.org/1999/02/22-rdf-syntax-ns#"
   xmlns:cc="http://creativecommons.org/ns#"
   xmlns:dc="http://purl.org/dc/elements/1.1/">
  <sodipodi:namedview
     id="namedview7"
     pagecolor="#9c4444"
     bordercolor="#000000"
     borderopacity="0.25"
     inkscape:showpageshadow="2"
     inkscape:pageopacity="0.0"
     inkscape:pagecheckerboard="0"
     inkscape:deskcolor="#d1d1d1"
     inkscape:zoom="4.3531261"
     inkscape:cx="37.444355"
     inkscape:cy="27.336677"
     inkscape:window-width="1226"
     inkscape:window-height="669"
     inkscape:window-x="164"
     inkscape:window-y="233"
     inkscape:window-maximized="0"
     inkscape:current-layer="svg7"
     showgrid="false" />
  <defs
     id="defs2">
    <filter
       style="color-interpolation-filters:sRGB;"
       inkscape:label="Blur"
       id="filter5421"
       x="-0.12256455"
       y="-0.12342654"
       width="1.2451291"
       height="1.2468531">
      <feGaussianBlur
         stdDeviation="0.5 0.5"
         result="blur"
         id="feGaussianBlur5419" />
    </filter>
  </defs>
  <metadata
     id="metadata2">
    <rdf:RDF>
      <cc:Work
         rdf:about="">
        <dc:format>image/svg+xml</dc:format>
        <dc:type
           rdf:resource="http://purl.org/dc/dcmitype/StillImage" />
      </cc:Work>
    </rdf:RDF>
  </metadata>
  <rect
     style="opacity:0.3;fill:none;fill-opacity:0.996424;stroke:#000000;stroke-width:0.955221;stroke-dasharray:none;stroke-opacity:1;filter:url(#filter5421)"
     id="rect1-2-7"
     width="13.687567"
     height="13.591975"
     x="1.6227165"
     y="1.6705122"
     rx="2.8442214"
     ry="2.965905" />
  <rect
     style="fill:none;fill-opacity:1;stroke:{{colors.primary.default.hex}};stroke-width:0.955221;stroke-dasharray:none;stroke-opacity:1"
     id="rect1-2"
     width="13.687567"
     height="13.591975"
     x="1.6227167"
     y="1.6705124"
     rx="2.8442214"
     ry="2.965905" />
  <path
     id="path102"
     style="fill:{{colors.primary.default.hex}};fill-opacity:1;stroke:none;stroke-width:0.258866;stroke-dasharray:none;stroke-dashoffset:2.2;stroke-opacity:0.3"
     d="m 7.3191406,4.4821116 c -1.8808458,0 -1.8161695,-0.00614 -1.9258166,0.179487 -0.044312,0.075023 -0.048539,0.4109896 -0.048539,3.7884307 0,4.0924947 -0.013143,3.8205597 0.187071,3.9426367 0.092645,0.0565 0.170996,0.05804 2.9289194,0.05815 3.0874386,1.23e-4 2.9277666,0.0088 3.0659346,-0.166845 0.06187,-0.07868 0.06168,-0.08782 0.06168,-2.6619635 V 7.0394198 H 10.465966 C 9.2074951,7.0393681 9.1859527,7.0358687 9.0836668,6.831114 9.0369274,6.7375606 9.0316345,6.6135775 9.031586,5.6045383 V 4.4821116 Z m 2.069406,0.045504 v 0.9601271 c 0,1.0480075 0.00539,1.0882582 0.1708918,1.1780385 0.067011,0.036358 0.2488325,0.04452 1.0288876,0.045504 l 0.947488,9.975e-4 -0.506607,-0.5278404 C 10.750392,5.8941792 10.267134,5.4024073 9.9553201,5.0918568 Z M 6.7422552,8.3180692 h 1.7240839 1.7245889 v 0.2229676 0.222968 H 8.4663388 6.7422549 v -0.222968 z m 0,0.8322112 h 1.7240839 1.7245889 v 0.2381354 0.23763 H 8.4663388 6.7422549 v -0.23763 z m 0,0.8625456 h 1.7240839 1.7245889 v 0.237631 0.238135 H 8.4663388 6.7422549 v -0.238135 z m 0,0.862042 H 7.827265 8.9127807 v 0.238135 0.23763 H 7.827265 6.7422549 v -0.23763 z" />
</svg>
