<?xml version="1.0" encoding="UTF-8" standalone="no"?>
<svg
   width="64"
   height="64"
   version="1.1"
   viewBox="0 0 16.933 16.933"
   id="svg7"
   sodipodi:docname="abcd.svg"
   inkscape:version="1.4.3 (0d15f75042, 2025-12-25)"
   xmlns:inkscape="http://www.inkscape.org/namespaces/inkscape"
   xmlns:sodipodi="http://sodipodi.sourceforge.net/DTD/sodipodi-0.dtd"
   xmlns="http://www.w3.org/2000/svg"
   xmlns:svg="http://www.w3.org/2000/svg"
   xmlns:rdf="http://www.w3.org/1999/02/22-rdf-syntax-ns#"
   xmlns:cc="http://creativecommons.org/ns#"
   xmlns:dc="http://purl.org/dc/elements/1.1/">
  <sodipodi:namedview
     id="namedview7"
     pagecolor="#9c4444"
     bordercolor="#000000"
     borderopacity="0.25"
     inkscape:showpageshadow="2"
     inkscape:pageopacity="0.0"
     inkscape:pagecheckerboard="0"
     inkscape:deskcolor="#d1d1d1"
     inkscape:zoom="4.3531261"
     inkscape:cx="40.660435"
     inkscape:cy="23.431437"
     inkscape:window-width="1226"
     inkscape:window-height="669"
     inkscape:window-x="37"
     inkscape:window-y="156"
     inkscape:window-maximized="0"
     inkscape:current-layer="svg7"
     showgrid="false" />
  <defs
     id="defs2">
    <filter
       style="color-interpolation-filters:sRGB;"
       inkscape:label="Blur"
       id="filter5421"
       x="-0.12256455"
       y="-0.12342654"
       width="1.2451291"
       height="1.2468531">
      <feGaussianBlur
         stdDeviation="0.5 0.5"
         result="blur"
         id="feGaussianBlur5419" />
    </filter>
  </defs>
  <metadata
     id="metadata2">
    <rdf:RDF>
      <cc:Work
         rdf:about="">
        <dc:format>image/svg+xml</dc:format>
        <dc:type
           rdf:resource="http://purl.org/dc/dcmitype/StillImage" />
      </cc:Work>
    </rdf:RDF>
  </metadata>
  <rect
     style="opacity:0.3;fill:none;fill-opacity:0.996424;stroke:#000000;stroke-width:0.955221;stroke-dasharray:none;stroke-opacity:1;filter:url(#filter5421)"
     id="rect1-2-7"
     width="13.687567"
     height="13.591975"
     x="1.6227165"
     y="1.6705122"
     rx="2.8442214"
     ry="2.965905" />
  <rect
     style="fill:none;fill-opacity:1;stroke:{{colors.primary.default.hex}};stroke-width:0.955221;stroke-dasharray:none;stroke-opacity:1"
     id="rect1-2"
     width="13.687567"
     height="13.591975"
     x="1.6227167"
     y="1.6705124"
     rx="2.8442214"
     ry="2.965905" />
  <path
     d="m 6.9882834,5.5210314 c -0.1518721,0 -0.2741503,0.1222788 -0.2741503,0.2741503 v 0.5570728 c 0,0.1518721 0.1222782,0.2741503 0.2741503,0.2741503 h 2.9564337 c 0.1518719,0 0.2741499,-0.1222782 0.2741499,-0.2741503 V 5.7951817 c 0,-0.1518715 -0.122278,-0.2741503 -0.2741499,-0.2741503 z m 0.2500248,0.3311733 c 0.00599,-0.00118 0.01121,0 0.017543,0 H 7.92697 c 0.050688,0 0.092115,0.039234 0.092115,0.089921 v 0.2609909 c 0,0.050688 -0.041427,0.092115 -0.092115,0.092115 H 7.2558504 c -0.050687,0 -0.092114,-0.041427 -0.092114,-0.092115 V 5.9421263 c 0,-0.044352 0.032683,-0.081719 0.074569,-0.089921 z M 6.9882834,7.1154885 c -0.1518721,0 -0.2741503,0.1222782 -0.2741503,0.2741502 v 0.557073 c 0,0.1518716 0.1222782,0.2741495 0.2741503,0.2741495 h 2.9564337 c 0.1518719,0 0.2741499,-0.1222779 0.2741499,-0.2741495 v -0.557073 c 0,-0.151872 -0.122278,-0.2741502 -0.2741499,-0.2741502 z m 0.2500248,0.3311731 c 0.00599,-0.00118 0.01121,0 0.017543,0 H 7.92697 c 0.050688,0 0.092115,0.039235 0.092115,0.08992 v 0.260991 c 0,0.050687 -0.041427,0.092115 -0.092115,0.092115 H 7.2558504 c -0.050687,0 -0.092114,-0.041428 -0.092114,-0.092115 v -0.26099 c 0,-0.044351 0.032683,-0.081718 0.074569,-0.08992 z M 5.7337728,7.8041536 4.3388971,8.4665 5.7337728,9.1288461 V 8.7823204 h 0.550493 c 0.080014,0 0.1447513,-0.064738 0.1447513,-0.1447511 v -0.342139 c 0,-0.080014 -0.064737,-0.144751 -0.1447513,-0.144751 h -0.550493 z m 5.4654552,0 v 0.3465257 h -0.548301 c -0.08001,0 -0.14475,0.064737 -0.14475,0.144751 v 0.342139 c 0,0.080014 0.06473,0.1447511 0.14475,0.1447511 h 0.548301 V 9.1288461 L 12.594103,8.4665 Z M 6.9882834,8.7121385 c -0.1518721,0 -0.2741503,0.1222782 -0.2741503,0.2741495 v 0.5570731 c 0,0.1518723 0.1222782,0.2741496 0.2741503,0.2741496 h 2.9564337 c 0.1518719,0 0.2741499,-0.1222773 0.2741499,-0.2741496 V 8.986288 c 0,-0.1518713 -0.122278,-0.2741495 -0.2741499,-0.2741495 z m 0.2500248,0.331173 c 0.00599,-0.00118 0.01121,0 0.017543,0 H 7.92697 c 0.050688,0 0.092115,0.039234 0.092115,0.089921 v 0.2609906 c 0,0.050689 -0.041427,0.092115 -0.092115,0.092115 H 7.2558504 c -0.050687,0 -0.092114,-0.041428 -0.092114,-0.092115 V 9.1332326 c 0,-0.044351 0.032683,-0.081719 0.074569,-0.089921 z M 6.9882834,10.306596 c -0.1518721,0 -0.2741503,0.122276 -0.2741503,0.274148 v 0.557074 c 0,0.151872 0.1222782,0.274149 0.2741503,0.274149 h 2.9564337 c 0.1518719,0 0.2741499,-0.122277 0.2741499,-0.274149 v -0.557074 c 0,-0.151872 -0.122278,-0.274148 -0.2741499,-0.274148 z m 0.2500248,0.331174 c 0.00599,-0.0011 0.01121,0 0.017543,0 H 7.92697 c 0.050688,0 0.092115,0.03923 0.092115,0.08992 v 0.260991 c 0,0.05069 -0.041427,0.09211 -0.092115,0.09211 H 7.2558504 c -0.050687,0 -0.092114,-0.04143 -0.092114,-0.09211 V 10.72769 c 0,-0.04435 0.032683,-0.08172 0.074569,-0.08992 z"
     fill="url(#a)"
     id="path2"
     style="fill:{{colors.primary.default.hex}};fill-opacity:1;stroke-width:0.0701825" />
</svg>
