<?xml version="1.0" encoding="UTF-8" standalone="no"?>
<svg
   width="64"
   height="64"
   version="1.1"
   viewBox="0 0 16.933 16.933"
   id="svg7"
   sodipodi:docname="abcd.svg"
   inkscape:version="1.4.3 (0d15f75042, 2025-12-25)"
   xmlns:inkscape="http://www.inkscape.org/namespaces/inkscape"
   xmlns:sodipodi="http://sodipodi.sourceforge.net/DTD/sodipodi-0.dtd"
   xmlns="http://www.w3.org/2000/svg"
   xmlns:svg="http://www.w3.org/2000/svg"
   xmlns:rdf="http://www.w3.org/1999/02/22-rdf-syntax-ns#"
   xmlns:cc="http://creativecommons.org/ns#"
   xmlns:dc="http://purl.org/dc/elements/1.1/">
  <sodipodi:namedview
     id="namedview7"
     pagecolor="#9c4444"
     bordercolor="#000000"
     borderopacity="0.25"
     inkscape:showpageshadow="2"
     inkscape:pageopacity="0.0"
     inkscape:pagecheckerboard="0"
     inkscape:deskcolor="#d1d1d1"
     inkscape:zoom="4.3531261"
     inkscape:cx="37.444355"
     inkscape:cy="27.336677"
     inkscape:window-width="1226"
     inkscape:window-height="669"
     inkscape:window-x="164"
     inkscape:window-y="233"
     inkscape:window-maximized="0"
     inkscape:current-layer="svg7"
     showgrid="false" />
  <defs
     id="defs2">
    <filter
       style="color-interpolation-filters:sRGB;"
       inkscape:label="Blur"
       id="filter5421"
       x="-0.12256455"
       y="-0.12342654"
       width="1.2451291"
       height="1.2468531">
      <feGaussianBlur
         stdDeviation="0.5 0.5"
         result="blur"
         id="feGaussianBlur5419" />
    </filter>
  </defs>
  <metadata
     id="metadata2">
    <rdf:RDF>
      <cc:Work
         rdf:about="">
        <dc:format>image/svg+xml</dc:format>
        <dc:type
           rdf:resource="http://purl.org/dc/dcmitype/StillImage" />
      </cc:Work>
    </rdf:RDF>
  </metadata>
  <rect
     style="opacity:0.3;fill:none;fill-opacity:0.996424;stroke:#000000;stroke-width:0.955221;stroke-dasharray:none;stroke-opacity:1;filter:url(#filter5421)"
     id="rect1-2-7"
     width="13.687567"
     height="13.591975"
     x="1.6227165"
     y="1.6705122"
     rx="2.8442214"
     ry="2.965905" />
  <rect
     style="fill:none;fill-opacity:1;stroke:{{colors.primary.default.hex}};stroke-width:0.955221;stroke-dasharray:none;stroke-opacity:1"
     id="rect1-2"
     width="13.687567"
     height="13.591975"
     x="1.6227167"
     y="1.6705124"
     rx="2.8442214"
     ry="2.965905" />
  <path
     id="path5-7"
     style="fill:{{colors.primary.default.hex}};fill-opacity:1;stroke:none;stroke-width:0.0111901"
     d="m 8.466516,5.6853194 c -1.7863723,2.66e-5 -3.5730783,0.0056 -3.6145461,0.016763 -0.1799168,0.048486 -0.3174091,0.178049 -0.3787415,0.3567401 l -0.024097,0.06967 -0.00316,2.2771642 c -0.00202,1.4796678 0.00104,2.3102663 0.00839,2.3709313 0.02571,0.212968 0.1677977,0.385839 0.3698362,0.450511 0.058375,0.01867 0.2524425,0.01987 3.6381193,0.02043 3.5372361,5.77e-4 3.5777441,4.99e-4 3.6480731,-0.02148 0.09127,-0.0285 0.143074,-0.06063 0.218967,-0.135678 0.08305,-0.08212 0.134384,-0.190239 0.149297,-0.313783 0.0072,-0.06066 0.01044,-0.8912648 0.0084,-2.3709337 l -0.0031,-2.2771647 -0.0241,-0.06967 C 12.398986,5.8816438 12.258832,5.7496406 12.081063,5.7020829 12.039295,5.6909063 10.252889,5.6852937 8.466516,5.6853194 Z m 0,0.5233232 c 0.00579,-2.03e-5 0.3421725,0.4227427 0.7475299,0.9392579 l 0.7370521,0.9392584 -0.3368329,0.00262 -0.3363098,0.00314 V 9.0326955 9.9724789 H 8.466516 7.6550762 V 9.0326955 8.0929137 L 7.3187664,8.0897697 6.9819329,8.087143 7.7189861,7.1478851 C 8.1243368,6.6314003 8.4607224,6.2086567 8.466516,6.2086362 Z m 0,0.448937 c -0.00478,0 -0.2135136,0.2612582 -0.4641291,0.580423 L 7.5466396,7.818425 7.7409877,7.821565 7.9348111,7.824725 V 8.7587346 9.6927538 H 8.466516 8.9982208 V 8.7587325 7.8247127 L 9.1920445,7.8215687 9.3863918,7.8184247 8.9306448,7.238006 C 8.6800298,6.9188433 8.4712954,6.6575833 8.466516,6.6575833 Z" />
</svg>
