<?xml version="1.0" encoding="UTF-8" standalone="no"?>
<svg
   width="64"
   height="64"
   version="1.1"
   viewBox="0 0 16.933 16.933"
   id="svg7"
   sodipodi:docname="abcd.svg"
   inkscape:version="1.4.3 (0d15f75042, 2025-12-25)"
   xmlns:inkscape="http://www.inkscape.org/namespaces/inkscape"
   xmlns:sodipodi="http://sodipodi.sourceforge.net/DTD/sodipodi-0.dtd"
   xmlns="http://www.w3.org/2000/svg"
   xmlns:svg="http://www.w3.org/2000/svg"
   xmlns:rdf="http://www.w3.org/1999/02/22-rdf-syntax-ns#"
   xmlns:cc="http://creativecommons.org/ns#"
   xmlns:dc="http://purl.org/dc/elements/1.1/">
  <sodipodi:namedview
     id="namedview7"
     pagecolor="#9c4444"
     bordercolor="#000000"
     borderopacity="0.25"
     inkscape:showpageshadow="2"
     inkscape:pageopacity="0.0"
     inkscape:pagecheckerboard="0"
     inkscape:deskcolor="#d1d1d1"
     inkscape:zoom="4.3531261"
     inkscape:cx="43.417074"
     inkscape:cy="20.904517"
     inkscape:window-width="1226"
     inkscape:window-height="669"
     inkscape:window-x="37"
     inkscape:window-y="156"
     inkscape:window-maximized="0"
     inkscape:current-layer="svg7"
     showgrid="false" />
  <defs
     id="defs2">
    <filter
       style="color-interpolation-filters:sRGB;"
       inkscape:label="Blur"
       id="filter5421"
       x="-0.12256455"
       y="-0.12342654"
       width="1.2451291"
       height="1.2468531">
      <feGaussianBlur
         stdDeviation="0.5 0.5"
         result="blur"
         id="feGaussianBlur5419" />
    </filter>
  </defs>
  <metadata
     id="metadata2">
    <rdf:RDF>
      <cc:Work
         rdf:about="">
        <dc:format>image/svg+xml</dc:format>
        <dc:type
           rdf:resource="http://purl.org/dc/dcmitype/StillImage" />
      </cc:Work>
    </rdf:RDF>
  </metadata>
  <rect
     style="opacity:0.3;fill:none;fill-opacity:0.996424;stroke:#000000;stroke-width:0.955221;stroke-dasharray:none;stroke-opacity:1;filter:url(#filter5421)"
     id="rect1-2-7"
     width="13.687567"
     height="13.591975"
     x="1.6227165"
     y="1.6705122"
     rx="2.8442214"
     ry="2.965905" />
  <rect
     style="fill:none;fill-opacity:1;stroke:{{colors.primary.default.hex}};stroke-width:0.955221;stroke-dasharray:none;stroke-opacity:1"
     id="rect1-2"
     width="13.687567"
     height="13.591975"
     x="1.6227167"
     y="1.6705124"
     rx="2.8442214"
     ry="2.965905" />
  <path
     d="m 8.4672278,4.4712114 c -0.128753,0 -0.2555558,0.048775 -0.3530974,0.1463087 L 7.3220953,5.4095608 9.9381479,8.0236671 c 0.087808,-0.037092 0.1814381,-0.056575 0.2770171,-0.056575 0.413573,0 0.749117,0.3355388 0.749117,0.7491153 0,0.4135728 -0.335544,0.7491166 -0.749117,0.7491166 -0.4135751,0 -0.7491145,-0.3355438 -0.7491145,-0.7491166 0,-0.091675 0.01762,-0.181435 0.050713,-0.2653099 L 8.4925907,7.4267099 V 9.517993 c 0.2867682,0.1131502 0.4740474,0.3882111 0.4740474,0.696441 0,0.413576 -0.3355397,0.749114 -0.7491149,0.749114 -0.4135763,0 -0.7491155,-0.335538 -0.7491155,-0.749114 0,-0.3277374 0.2126398,-0.6164602 0.524771,-0.7140017 V 6.9273021 L 6.8987679,5.8328875 4.6182554,8.113397 c -0.1950824,0.1950923 -0.1950824,0.5111183 0,0.7061987 l 3.495875,3.4958753 c 0.1950906,0.195091 0.5111147,0.195091 0.7061972,0 L 12.316204,8.8195957 c 0.193137,-0.1950704 0.193137,-0.5111149 0,-0.7061987 L 8.8203276,4.6175238 C 8.722803,4.5199732 8.5959816,4.4712148 8.4672278,4.4712148 Z m 0,0"
     id="path1-7"
     style="fill:{{colors.primary.default.hex}};fill-opacity:1;stroke:none;stroke-width:0.504457;stroke-dasharray:none;stroke-opacity:0.3" />
</svg>
