<?xml version="1.0" encoding="UTF-8" standalone="no"?>
<svg
   width="64"
   height="64"
   version="1.1"
   viewBox="0 0 16.933 16.933"
   id="svg7"
   sodipodi:docname="accessories-text-editor.svg"
   inkscape:version="1.4.3 (0d15f75042, 2025-12-25)"
   xmlns:inkscape="http://www.inkscape.org/namespaces/inkscape"
   xmlns:sodipodi="http://sodipodi.sourceforge.net/DTD/sodipodi-0.dtd"
   xmlns="http://www.w3.org/2000/svg"
   xmlns:svg="http://www.w3.org/2000/svg"
   xmlns:rdf="http://www.w3.org/1999/02/22-rdf-syntax-ns#"
   xmlns:cc="http://creativecommons.org/ns#"
   xmlns:dc="http://purl.org/dc/elements/1.1/">
  <sodipodi:namedview
     id="namedview7"
     pagecolor="#9c4444"
     bordercolor="#000000"
     borderopacity="0.25"
     inkscape:showpageshadow="2"
     inkscape:pageopacity="0.0"
     inkscape:pagecheckerboard="0"
     inkscape:deskcolor="#d1d1d1"
     inkscape:zoom="4.3531261"
     inkscape:cx="40.430715"
     inkscape:cy="23.661157"
     inkscape:window-width="1226"
     inkscape:window-height="669"
     inkscape:window-x="164"
     inkscape:window-y="233"
     inkscape:window-maximized="0"
     inkscape:current-layer="svg7"
     showgrid="false" />
  <defs
     id="defs2">
    <filter
       style="color-interpolation-filters:sRGB;"
       inkscape:label="Blur"
       id="filter5421"
       x="-0.12256455"
       y="-0.12342654"
       width="1.2451291"
       height="1.2468531">
      <feGaussianBlur
         stdDeviation="0.5 0.5"
         result="blur"
         id="feGaussianBlur5419" />
    </filter>
  </defs>
  <metadata
     id="metadata2">
    <rdf:RDF>
      <cc:Work
         rdf:about="">
        <dc:format>image/svg+xml</dc:format>
        <dc:type
           rdf:resource="http://purl.org/dc/dcmitype/StillImage" />
      </cc:Work>
    </rdf:RDF>
  </metadata>
  <rect
     style="opacity:0.3;fill:none;fill-opacity:0.996424;stroke:#000000;stroke-width:0.955221;stroke-dasharray:none;stroke-opacity:1;filter:url(#filter5421)"
     id="rect1-2-7"
     width="13.687567"
     height="13.591975"
     x="1.6227165"
     y="1.6705122"
     rx="2.8442214"
     ry="2.965905" />
  <rect
     style="fill:none;fill-opacity:1;stroke:{{colors.primary.default.hex}};stroke-width:0.955221;stroke-dasharray:none;stroke-opacity:1"
     id="rect1-2"
     width="13.687567"
     height="13.591975"
     x="1.6227167"
     y="1.6705124"
     rx="2.8442214"
     ry="2.965905" />
  <path
     id="path6"
     style="fill:{{colors.primary.default.hex}};fill-opacity:1;stroke:none;stroke-width:0.256018;stroke-dasharray:none;stroke-dashoffset:2.2;stroke-opacity:0.3"
     d="M 8.4161316,4.382912 C 8.0935068,4.3831235 7.8506753,4.4441604 7.5450687,4.5954276 7.0093976,4.8605708 6.6328292,5.2988554 6.4324884,5.8895208 c -0.058147,0.1714198 -0.061445,0.2523844 -0.071007,1.9431395 -0.01136,2.0093513 -0.011659,2.0027424 0.2195162,2.4836787 0.1147533,0.238733 0.1720359,0.316507 0.4020288,0.545038 0.3385725,0.336419 0.6497194,0.50578 1.1085805,0.602545 0.071567,0.0151 0.2756257,0.02282 0.4535325,0.01751 0.2558295,-0.0076 0.3724826,-0.02621 0.5585414,-0.089 0.5775212,-0.194937 1.0094012,-0.575933 1.2680922,-1.119081 0.205814,-0.4321261 0.202514,-0.3941546 0.202514,-2.3376656 0,-1.982647 0.0075,-1.9069659 -0.240018,-2.410674 C 10.221864,5.2961578 10.154643,5.2041281 9.9592445,5.0104571 9.546474,4.6013385 9.1247753,4.4132846 8.559642,4.3864126 8.509876,4.3840526 8.462221,4.3828826 8.4161316,4.382912 Z m 3.0697204,4.8173472 c -0.11131,0 -0.152992,0.085035 -0.174012,0.3560253 -0.05091,0.6564755 -0.293467,1.2338265 -0.730051,1.7391245 -0.312591,0.361788 -0.8950207,0.716328 -1.3941016,0.84856 -0.2894565,0.07669 -0.8532498,0.10495 -1.1570838,0.058 C 7.7130544,12.152901 7.2731732,11.994161 6.9955283,11.828444 6.7329945,11.671745 6.2800086,11.250236 6.1209648,11.014386 5.8597807,10.627065 5.6656251,10.094264 5.6339302,9.6792879 5.6051716,9.3028305 5.5934244,9.2592529 5.5144203,9.2232566 5.4606871,9.1987742 5.4228523,9.1993573 5.3649105,9.2257782 l -0.077509,0.035502 0.017005,0.3295236 c 0.054248,1.0736702 0.7028806,2.0773872 1.6781213,2.5961852 0.2949253,0.156891 0.5086897,0.234705 0.8420616,0.307023 0.3106666,0.0674 0.9050555,0.07545 1.2130884,0.01649 0.610844,-0.116874 1.1301792,-0.382194 1.5926162,-0.814058 0.593096,-0.553888 0.942181,-1.292946 1.006572,-2.1306528 0.01653,-0.2150524 0.01189,-0.2563055 -0.034,-0.3070225 -0.02915,-0.032223 -0.0816,-0.058504 -0.117009,-0.058504 z" />
</svg>
