<?xml version="1.0" encoding="UTF-8" standalone="no"?>
<svg
   width="64"
   height="64"
   version="1.1"
   viewBox="0 0 16.933 16.933"
   id="svg7"
   sodipodi:docname="abcd.svg"
   inkscape:version="1.4.3 (0d15f75042, 2025-12-25)"
   xmlns:inkscape="http://www.inkscape.org/namespaces/inkscape"
   xmlns:sodipodi="http://sodipodi.sourceforge.net/DTD/sodipodi-0.dtd"
   xmlns="http://www.w3.org/2000/svg"
   xmlns:svg="http://www.w3.org/2000/svg"
   xmlns:rdf="http://www.w3.org/1999/02/22-rdf-syntax-ns#"
   xmlns:cc="http://creativecommons.org/ns#"
   xmlns:dc="http://purl.org/dc/elements/1.1/">
  <sodipodi:namedview
     id="namedview7"
     pagecolor="#9c4444"
     bordercolor="#000000"
     borderopacity="0.25"
     inkscape:showpageshadow="2"
     inkscape:pageopacity="0.0"
     inkscape:pagecheckerboard="0"
     inkscape:deskcolor="#d1d1d1"
     inkscape:zoom="4.3531261"
     inkscape:cx="40.660435"
     inkscape:cy="23.431437"
     inkscape:window-width="1226"
     inkscape:window-height="669"
     inkscape:window-x="37"
     inkscape:window-y="156"
     inkscape:window-maximized="0"
     inkscape:current-layer="svg7"
     showgrid="false" />
  <defs
     id="defs2">
    <filter
       style="color-interpolation-filters:sRGB;"
       inkscape:label="Blur"
       id="filter5421"
       x="-0.12256455"
       y="-0.12342654"
       width="1.2451291"
       height="1.2468531">
      <feGaussianBlur
         stdDeviation="0.5 0.5"
         result="blur"
         id="feGaussianBlur5419" />
    </filter>
  </defs>
  <metadata
     id="metadata2">
    <rdf:RDF>
      <cc:Work
         rdf:about="">
        <dc:format>image/svg+xml</dc:format>
        <dc:type
           rdf:resource="http://purl.org/dc/dcmitype/StillImage" />
      </cc:Work>
    </rdf:RDF>
  </metadata>
  <rect
     style="opacity:0.3;fill:none;fill-opacity:0.996424;stroke:#000000;stroke-width:0.955221;stroke-dasharray:none;stroke-opacity:1;filter:url(#filter5421)"
     id="rect1-2-7"
     width="13.687567"
     height="13.591975"
     x="1.6227165"
     y="1.6705122"
     rx="2.8442214"
     ry="2.965905" />
  <rect
     style="fill:none;fill-opacity:1;stroke:{{colors.primary.default.hex}};stroke-width:0.955221;stroke-dasharray:none;stroke-opacity:1"
     id="rect1-2"
     width="13.687567"
     height="13.591975"
     x="1.6227167"
     y="1.6705124"
     rx="2.8442214"
     ry="2.965905" />
  <path
     id="path17-6"
     style="fill:{{colors.primary.default.hex}};fill-opacity:1;stroke:none;stroke-width:0.247717;stroke-dasharray:none;stroke-dashoffset:2.2;stroke-opacity:0.3"
     d="m 8.32866,4.3194099 c -0.05526,0.00741 -0.1108777,0.054007 -0.1495011,0.1286968 -0.036918,0.071392 -0.04306,0.3214795 -0.04306,1.7770857 0,0.9318959 -0.00955,1.6945085 -0.021286,1.6943512 C 8.1030768,7.9193868 7.6550878,7.5493341 7.1195868,7.097527 6.5840863,6.6457197 6.1248766,6.26813 6.0987185,6.2580924 c -0.026158,-0.010037 -0.078502,0.00197 -0.1161177,0.026611 -0.1158054,0.075878 -0.1556124,0.2516504 -0.089508,0.3967357 0.018394,0.04037 0.4826275,0.4523267 1.0315121,0.9153946 0.5488844,0.4630688 1.0008216,0.8566422 1.0044188,0.8742699 0.00359,0.017632 -0.4353539,0.3903248 -0.9758731,0.8283064 -0.5405196,0.4379829 -1.0027752,0.818298 -1.0271583,0.845242 -0.072787,0.08043 -0.078497,0.278285 -0.011126,0.385607 0.1101796,0.175522 0.1250149,0.16703 1.1969802,-0.7039642 0.5392777,-0.4381734 0.9904394,-0.7968582 1.0024829,-0.7968582 0.012046,0 0.021775,0.7546577 0.021775,1.6769344 0,1.096012 0.010079,1.704413 0.029513,1.756765 0.016353,0.04404 0.051168,0.09607 0.076927,0.115634 0.025759,0.01956 0.074256,0.0358 0.1078927,0.0358 0.06314,0 2.4924529,-1.835459 2.6382919,-1.993354 0.104681,-0.113337 0.111706,-0.343191 0.01403,-0.457215 C 10.967629,10.122985 10.471319,9.7336417 9.9001279,9.2989254 9.3289375,8.8642091 8.8516198,8.4999588 8.8391022,8.4890045 8.8265864,8.478049 9.297105,8.1003616 9.8851301,7.650054 10.473155,7.1997466 10.979611,6.7990915 11.010504,6.759818 11.075047,6.677776 11.085887,6.4633916 11.03034,6.3640494 10.994364,6.2997268 8.4739293,4.3592166 8.3828563,4.3256995 c -0.017733,-0.00653 -0.035768,-0.00876 -0.054188,-0.00629 z m 0.2506208,0.8404022 c 0.029166,0 1.8046622,1.3689897 1.8046622,1.3914776 0,0.012035 -0.3992327,0.3283249 -0.8873318,0.7025121 -0.4880991,0.374188 -0.8978859,0.6842328 -0.9105569,0.689449 -0.012671,0.00522 -0.023224,-0.6185306 -0.023224,-1.3866393 0,-0.7681078 0.00751,-1.3967994 0.01645,-1.3967994 z m 0.00485,3.8415624 c 0.041187,7.88e-4 1.7853102,1.3554645 1.7853102,1.3866405 0,0.01734 -0.4017174,0.339796 -0.8931387,0.716542 -0.4914206,0.376746 -0.8978611,0.684611 -0.9032988,0.684611 -0.00543,0 -0.010159,-0.627092 -0.010159,-1.393898 0,-0.766803 0.00955,-1.3941262 0.021286,-1.3938955 z" />
</svg>
