<?xml version="1.0" encoding="UTF-8" standalone="no"?>
<svg
   width="64"
   height="64"
   version="1.1"
   viewBox="0 0 16.933 16.933"
   id="svg7"
   sodipodi:docname="abcd.svg"
   inkscape:version="1.4.3 (0d15f75042, 2025-12-25)"
   xmlns:inkscape="http://www.inkscape.org/namespaces/inkscape"
   xmlns:sodipodi="http://sodipodi.sourceforge.net/DTD/sodipodi-0.dtd"
   xmlns="http://www.w3.org/2000/svg"
   xmlns:svg="http://www.w3.org/2000/svg"
   xmlns:rdf="http://www.w3.org/1999/02/22-rdf-syntax-ns#"
   xmlns:cc="http://creativecommons.org/ns#"
   xmlns:dc="http://purl.org/dc/elements/1.1/">
  <sodipodi:namedview
     id="namedview7"
     pagecolor="#9c4444"
     bordercolor="#000000"
     borderopacity="0.25"
     inkscape:showpageshadow="2"
     inkscape:pageopacity="0.0"
     inkscape:pagecheckerboard="0"
     inkscape:deskcolor="#d1d1d1"
     inkscape:zoom="4.3531261"
     inkscape:cx="40.660435"
     inkscape:cy="23.431437"
     inkscape:window-width="1226"
     inkscape:window-height="669"
     inkscape:window-x="37"
     inkscape:window-y="156"
     inkscape:window-maximized="0"
     inkscape:current-layer="svg7"
     showgrid="false" />
  <defs
     id="defs2">
    <filter
       style="color-interpolation-filters:sRGB;"
       inkscape:label="Blur"
       id="filter5421"
       x="-0.12256455"
       y="-0.12342654"
       width="1.2451291"
       height="1.2468531">
      <feGaussianBlur
         stdDeviation="0.5 0.5"
         result="blur"
         id="feGaussianBlur5419" />
    </filter>
  </defs>
  <metadata
     id="metadata2">
    <rdf:RDF>
      <cc:Work
         rdf:about="">
        <dc:format>image/svg+xml</dc:format>
        <dc:type
           rdf:resource="http://purl.org/dc/dcmitype/StillImage" />
      </cc:Work>
    </rdf:RDF>
  </metadata>
  <rect
     style="opacity:0.3;fill:none;fill-opacity:0.996424;stroke:#000000;stroke-width:0.955221;stroke-dasharray:none;stroke-opacity:1;filter:url(#filter5421)"
     id="rect1-2-7"
     width="13.687567"
     height="13.591975"
     x="1.6227165"
     y="1.6705122"
     rx="2.8442214"
     ry="2.965905" />
  <rect
     style="fill:none;fill-opacity:1;stroke:{{colors.primary.default.hex}};stroke-width:0.955221;stroke-dasharray:none;stroke-opacity:1"
     id="rect1-2"
     width="13.687567"
     height="13.591975"
     x="1.6227167"
     y="1.6705124"
     rx="2.8442214"
     ry="2.965905" />
  <path
     id="path2-2"
     style="fill:{{colors.primary.default.hex}};fill-opacity:1;stroke-width:0.0402387"
     d="m 8.4775951,4.2819063 c -0.072102,0 -0.8172892,0.2282121 -1.6561302,0.507048 -1.3123678,0.4362378 -1.5350627,0.5212962 -1.5942009,0.6115532 -0.059894,0.0914 -0.06832,0.2240056 -0.067252,1.0319964 7.093e-4,0.5340247 0.023426,1.0895573 0.053705,1.3097118 0.3342571,2.4301413 1.3042666,4.0296233 2.9024616,4.7855033 0.1438523,0.06804 0.2936548,0.123357 0.3328714,0.123375 0.2109763,9.3e-5 0.9998644,-0.458884 1.4214768,-0.827339 C 10.774233,11.03398 11.42121,9.6670599 11.678577,8.0039642 11.764695,7.4474621 11.807749,5.6582825 11.739054,5.4924337 11.702688,5.4046499 11.626508,5.3405071 11.470047,5.2664882 11.132616,5.1068582 8.6252827,4.2819063 8.4775951,4.2819063 Z m -0.07935,2.1704342 c 0.429195,-0.010482 0.8751525,0.156414 1.0644134,0.462536 0.1136684,0.1838538 0.1229498,0.228292 0.1364384,0.6531622 l 0.014512,0.4557624 h 0.1320853 c 0.072619,0 0.1746659,0.034606 0.2269134,0.076927 0.094649,0.076662 0.095314,0.080256 0.095314,0.9642614 0,0.7979972 -0.0075,0.8948296 -0.072096,0.9594245 -0.065826,0.06584 -0.1877799,0.07224 -1.4684097,0.07983 -0.76829,0.0046 -1.4365081,-0.0077 -1.484856,-0.02758 -0.1571993,-0.06472 -0.173689,-0.1617977 -0.173689,-1.0257111 0,-0.8269051 2.251e-4,-0.8299839 0.0987,-0.9284584 0.059513,-0.059514 0.1453797,-0.0987 0.2157874,-0.0987 h 0.116603 L 7.3207639,7.5849669 C 7.345079,7.0719443 7.4240764,6.8830001 7.7029837,6.6705466 7.8895055,6.5284662 8.1407211,6.4586317 8.3982393,6.4523416 Z m 0.07451,0.4939845 C 8.3369286,6.9453533 8.1977701,6.9752912 8.076018,7.0382511 7.8924745,7.1331653 7.8345899,7.2867655 7.8345899,7.6798022 v 0.3439989 h 0.647841 0.6473567 L 9.115759,7.6439989 C 9.1026548,7.2871602 9.0948381,7.2572899 8.9831908,7.1408221 8.862649,7.0150763 8.6712692,6.9477322 8.4727569,6.946325 Z" />
</svg>
