<?xml version="1.0" encoding="UTF-8" standalone="no"?>
<svg
   width="64"
   height="64"
   version="1.1"
   viewBox="0 0 16.933 16.933"
   id="svg7"
   sodipodi:docname="abcd.svg"
   inkscape:version="1.4.3 (0d15f75042, 2025-12-25)"
   xmlns:inkscape="http://www.inkscape.org/namespaces/inkscape"
   xmlns:sodipodi="http://sodipodi.sourceforge.net/DTD/sodipodi-0.dtd"
   xmlns="http://www.w3.org/2000/svg"
   xmlns:svg="http://www.w3.org/2000/svg"
   xmlns:rdf="http://www.w3.org/1999/02/22-rdf-syntax-ns#"
   xmlns:cc="http://creativecommons.org/ns#"
   xmlns:dc="http://purl.org/dc/elements/1.1/">
  <sodipodi:namedview
     id="namedview7"
     pagecolor="#9c4444"
     bordercolor="#000000"
     borderopacity="0.25"
     inkscape:showpageshadow="2"
     inkscape:pageopacity="0.0"
     inkscape:pagecheckerboard="0"
     inkscape:deskcolor="#d1d1d1"
     inkscape:zoom="4.3531261"
     inkscape:cx="37.444355"
     inkscape:cy="27.336677"
     inkscape:window-width="1226"
     inkscape:window-height="669"
     inkscape:window-x="164"
     inkscape:window-y="233"
     inkscape:window-maximized="0"
     inkscape:current-layer="svg7"
     showgrid="false" />
  <defs
     id="defs2">
    <filter
       style="color-interpolation-filters:sRGB;"
       inkscape:label="Blur"
       id="filter5421"
       x="-0.12256455"
       y="-0.12342654"
       width="1.2451291"
       height="1.2468531">
      <feGaussianBlur
         stdDeviation="0.5 0.5"
         result="blur"
         id="feGaussianBlur5419" />
    </filter>
  </defs>
  <metadata
     id="metadata2">
    <rdf:RDF>
      <cc:Work
         rdf:about="">
        <dc:format>image/svg+xml</dc:format>
        <dc:type
           rdf:resource="http://purl.org/dc/dcmitype/StillImage" />
      </cc:Work>
    </rdf:RDF>
  </metadata>
  <rect
     style="opacity:0.3;fill:none;fill-opacity:0.996424;stroke:#000000;stroke-width:0.955221;stroke-dasharray:none;stroke-opacity:1;filter:url(#filter5421)"
     id="rect1-2-7"
     width="13.687567"
     height="13.591975"
     x="1.6227165"
     y="1.6705122"
     rx="2.8442214"
     ry="2.965905" />
  <rect
     style="fill:none;fill-opacity:1;stroke:{{colors.primary.default.hex}};stroke-width:0.955221;stroke-dasharray:none;stroke-opacity:1"
     id="rect1-2"
     width="13.687567"
     height="13.591975"
     x="1.6227167"
     y="1.6705124"
     rx="2.8442214"
     ry="2.965905" />
  <g
     fill="#474747"
     id="g6"
     transform="matrix(0.5906207,0,0,0.5906207,3.592398,3.592398)"
     style="fill:{{colors.primary.default.hex}};fill-opacity:1;stroke:none;stroke-width:0.441494;stroke-dasharray:none;stroke-opacity:0.3">
    <path
       d="m 12.109,5 c 0.62,0.75 0.995,1.71 0.995,2.76 A 4.344,4.344 0 0 1 8.76,12.104 C 7.71,12.104 6.75,11.728 6,11.109 A 5.055,5.055 0 0 0 10.932,15 5.068,5.068 0 0 0 16,9.932 5.055,5.055 0 0 0 12.109,5 Z M 6.511,1.79 c 0.4,0 0.721,0.322 0.721,0.721 A 0.72,0.72 0 0 1 6.512,3.232 0.72,0.72 0 0 1 5.79,2.512 c 0,-0.4 0.322,-0.722 0.721,-0.722 z m 4,1.023 a 0.699,0.699 0 1 1 0,1.398 0.697,0.697 0 0 1 -0.699,-0.7 c 0,-0.387 0.312,-0.698 0.7,-0.698 z m -3,1.977 c 0.4,0 0.721,0.322 0.721,0.721 A 0.72,0.72 0 0 1 7.512,6.232 0.72,0.72 0 0 1 6.79,5.512 c 0,-0.4 0.322,-0.722 0.721,-0.722 z"
       color="#bebebe"
       overflow="visible"
       id="path2-3"
       style="fill:{{colors.primary.default.hex}};fill-opacity:1;stroke:none;stroke-width:0.441494;stroke-dasharray:none;stroke-opacity:0.3" />
    <path
       d="M 3.505,7.505 2.76,5.25 0.505,4.505 2.76,3.76 3.505,1.505 4.25,3.76 6.505,4.505 4.25,5.25 Z"
       overflow="visible"
       id="path4"
       style="fill:{{colors.primary.default.hex}};fill-opacity:1;stroke:none;stroke-width:0.441494;stroke-dasharray:none;stroke-opacity:0.3" />
  </g>
</svg>
