<?xml version="1.0" encoding="UTF-8" standalone="no"?>
<svg
   width="64"
   height="64"
   version="1.1"
   viewBox="0 0 16.933 16.933"
   id="svg7"
   sodipodi:docname="accessories-text-editor.svg"
   inkscape:version="1.4.3 (0d15f75042, 2025-12-25)"
   xmlns:inkscape="http://www.inkscape.org/namespaces/inkscape"
   xmlns:sodipodi="http://sodipodi.sourceforge.net/DTD/sodipodi-0.dtd"
   xmlns="http://www.w3.org/2000/svg"
   xmlns:svg="http://www.w3.org/2000/svg"
   xmlns:rdf="http://www.w3.org/1999/02/22-rdf-syntax-ns#"
   xmlns:cc="http://creativecommons.org/ns#"
   xmlns:dc="http://purl.org/dc/elements/1.1/">
  <sodipodi:namedview
     id="namedview7"
     pagecolor="#9c4444"
     bordercolor="#000000"
     borderopacity="0.25"
     inkscape:showpageshadow="2"
     inkscape:pageopacity="0.0"
     inkscape:pagecheckerboard="0"
     inkscape:deskcolor="#d1d1d1"
     inkscape:zoom="4.3531261"
     inkscape:cx="37.444355"
     inkscape:cy="27.336677"
     inkscape:window-width="1226"
     inkscape:window-height="669"
     inkscape:window-x="164"
     inkscape:window-y="233"
     inkscape:window-maximized="0"
     inkscape:current-layer="svg7"
     showgrid="false" />
  <defs
     id="defs2">
    <filter
       style="color-interpolation-filters:sRGB;"
       inkscape:label="Blur"
       id="filter5421"
       x="-0.12256455"
       y="-0.12342654"
       width="1.2451291"
       height="1.2468531">
      <feGaussianBlur
         stdDeviation="0.5 0.5"
         result="blur"
         id="feGaussianBlur5419" />
    </filter>
  </defs>
  <metadata
     id="metadata2">
    <rdf:RDF>
      <cc:Work
         rdf:about="">
        <dc:format>image/svg+xml</dc:format>
        <dc:type
           rdf:resource="http://purl.org/dc/dcmitype/StillImage" />
      </cc:Work>
    </rdf:RDF>
  </metadata>
  <rect
     style="opacity:0.3;fill:none;fill-opacity:0.996424;stroke:#000000;stroke-width:0.955221;stroke-dasharray:none;stroke-opacity:1;filter:url(#filter5421)"
     id="rect1-2-7"
     width="13.687567"
     height="13.591975"
     x="1.6227165"
     y="1.6705122"
     rx="2.8442214"
     ry="2.965905" />
  <rect
     style="fill:none;fill-opacity:1;stroke:{{colors.primary.default.hex}};stroke-width:0.955221;stroke-dasharray:none;stroke-opacity:1"
     id="rect1-2"
     width="13.687567"
     height="13.591975"
     x="1.6227167"
     y="1.6705124"
     rx="2.8442214"
     ry="2.965905" />
  <path
     d="M 10.128855,7.3204643 11.5427,5.9066185 11.026382,5.3902999 9.6125355,6.804145 Z m 2.156959,-1.4138458 q 0,0.1302856 -0.08686,0.2171433 L 5.9934766,12.32924 q -0.086857,0.08686 -0.2171428,0.08686 -0.1302866,0 -0.2171439,-0.08686 L 4.603759,11.373808 q -0.086858,-0.08686 -0.086858,-0.217143 0,-0.130286 0.086858,-0.217145 l 6.205479,-6.2054756 q 0.08686,-0.086858 0.217144,-0.086858 0.130286,0 0.217143,0.086858 l 0.955432,0.9554301 q 0.08686,0.08686 0.08686,0.217144 z M 5.7666837,4.9897906 6.2395746,5.1345526 5.7666837,5.2793161 5.6219221,5.7522054 5.4771597,5.2793161 5.0042697,5.1345526 5.4771597,4.9897906 5.6219221,4.5169005 Z M 7.4555777,5.7715075 8.4013575,6.0610317 7.4555777,6.3505562 7.1660534,7.2963372 6.8765291,6.3505562 5.9307477,6.0610317 6.8765291,5.7715075 7.1660534,4.8257268 Z M 11.94321,8.078053 12.416099,8.2228155 11.94321,8.3675784 11.798448,8.8404679 11.653683,8.3675784 11.180794,8.2228155 11.653683,8.078053 11.798448,7.6051636 Z M 8.8549473,4.9897906 9.3278368,5.1345526 8.8549473,5.2793161 8.7101841,5.7522054 8.5654217,5.2793161 8.0925319,5.1345526 8.5654217,4.9897906 8.7101841,4.5169005 Z"
     id="path1-3-3"
     style="overflow:hidden;fill:{{colors.primary.default.hex}};fill-opacity:1;stroke-width:0.00844446" />
</svg>
