<?xml version="1.0" encoding="UTF-8" standalone="no"?>
<svg
   width="64"
   height="64"
   version="1.1"
   viewBox="0 0 16.933 16.933"
   id="svg7"
   sodipodi:docname="abcd.svg"
   inkscape:version="1.4.3 (0d15f75042, 2025-12-25)"
   xmlns:inkscape="http://www.inkscape.org/namespaces/inkscape"
   xmlns:sodipodi="http://sodipodi.sourceforge.net/DTD/sodipodi-0.dtd"
   xmlns="http://www.w3.org/2000/svg"
   xmlns:svg="http://www.w3.org/2000/svg"
   xmlns:rdf="http://www.w3.org/1999/02/22-rdf-syntax-ns#"
   xmlns:cc="http://creativecommons.org/ns#"
   xmlns:dc="http://purl.org/dc/elements/1.1/">
  <sodipodi:namedview
     id="namedview7"
     pagecolor="#9c4444"
     bordercolor="#000000"
     borderopacity="0.25"
     inkscape:showpageshadow="2"
     inkscape:pageopacity="0.0"
     inkscape:pagecheckerboard="0"
     inkscape:deskcolor="#d1d1d1"
     inkscape:zoom="4.3531261"
     inkscape:cx="37.444355"
     inkscape:cy="27.336677"
     inkscape:window-width="1226"
     inkscape:window-height="669"
     inkscape:window-x="164"
     inkscape:window-y="233"
     inkscape:window-maximized="0"
     inkscape:current-layer="svg7"
     showgrid="false" />
  <defs
     id="defs2">
    <filter
       style="color-interpolation-filters:sRGB;"
       inkscape:label="Blur"
       id="filter5421"
       x="-0.12256455"
       y="-0.12342654"
       width="1.2451291"
       height="1.2468531">
      <feGaussianBlur
         stdDeviation="0.5 0.5"
         result="blur"
         id="feGaussianBlur5419" />
    </filter>
  </defs>
  <metadata
     id="metadata2">
    <rdf:RDF>
      <cc:Work
         rdf:about="">
        <dc:format>image/svg+xml</dc:format>
        <dc:type
           rdf:resource="http://purl.org/dc/dcmitype/StillImage" />
      </cc:Work>
    </rdf:RDF>
  </metadata>
  <rect
     style="opacity:0.3;fill:none;fill-opacity:0.996424;stroke:#000000;stroke-width:0.955221;stroke-dasharray:none;stroke-opacity:1;filter:url(#filter5421)"
     id="rect1-2-7"
     width="13.687567"
     height="13.591975"
     x="1.6227165"
     y="1.6705122"
     rx="2.8442214"
     ry="2.965905" />
  <rect
     style="fill:none;fill-opacity:1;stroke:{{colors.primary.default.hex}};stroke-width:0.955221;stroke-dasharray:none;stroke-opacity:1"
     id="rect1-2"
     width="13.687567"
     height="13.591975"
     x="1.6227167"
     y="1.6705124"
     rx="2.8442214"
     ry="2.965905" />
  <path
     style="fill:{{colors.primary.default.hex}};fill-opacity:1;stroke:none;stroke-width:0.263771;stroke-dasharray:none;stroke-opacity:0.3"
     d="M 5.6177086,12.519636 C 5.1816187,12.468853 4.8158605,12.150165 4.6901348,11.711449 4.663493,11.618492 4.6603278,11.454219 4.6550961,9.8933198 L 4.6493391,8.1773809 H 8.466085 12.28283 l -0.0055,1.7159389 c -0.0064,1.9138162 0.0014,1.7878142 -0.127722,2.0480552 -0.08764,0.176582 -0.287707,0.37665 -0.464289,0.46429 -0.172467,0.0856 -0.291983,0.113051 -0.548694,0.126044 l -0.216851,0.01098 -0.0046,-0.901019 -0.0046,-0.901022 -0.0394,-0.07998 c -0.05031,-0.102073 -0.153316,-0.205087 -0.255376,-0.255359 l -0.07998,-0.03939 -2.0430474,-0.0045 c -2.3475181,-0.005 -2.1435995,-0.01886 -2.3184152,0.156265 -0.166323,0.166601 -0.1604602,0.124739 -0.1604602,1.145665 v 0.874097 l -0.1405113,-0.0024 c -0.077282,-0.0013 -0.1921707,-0.0083 -0.2553115,-0.0156 z M 10.25879,9.4968449 c 0.08255,-0.056088 0.114859,-0.121651 0.114782,-0.2328502 -1.17e-4,-0.167366 -0.103038,-0.2689671 -0.272443,-0.2689671 -0.1694108,0 -0.2723243,0.1016002 -0.2724419,0.2689671 -1.144e-4,0.1714894 0.1029931,0.2759177 0.2724419,0.2759177 0.07279,0 0.108731,-0.00984 0.157664,-0.04307 z m 1.081548,0.00909 c 0.08313,-0.050674 0.123196,-0.1282898 0.123196,-0.2385355 0,-0.1709434 -0.101434,-0.2723799 -0.272378,-0.2723799 -0.170944,0 -0.272378,0.1014371 -0.272378,0.2723799 0,0.170942 0.101436,0.2723782 0.272378,0.2723782 0.0635,0 0.111556,-0.010927 0.149184,-0.033846 z M 6.2860373,12.12872 v -0.40876 h 2.1800512 2.1800525 v 0.40876 0.408761 H 8.4660885 6.2860373 Z M 4.6555227,7.4152122 C 4.6653856,6.8699325 4.6743607,6.811961 4.7828169,6.5934345 4.8704079,6.4169505 5.0704876,6.216834 5.2471067,6.1290631 5.4563535,6.0250753 5.5515382,6.0077699 5.919857,6.0067452 c 0.2994524,-9.205e-4 0.3286854,0.00184 0.3917275,0.035669 0.1492573,0.080119 0.2183386,0.1855437 0.2383091,0.3636743 0.015489,0.1381344 0.046151,0.2139566 0.115961,0.2867338 0.1183236,0.1233523 -0.1070212,0.1125485 2.5496271,0.1222257 l 2.3929453,0.00871 0.100828,0.038203 c 0.143154,0.054237 0.231703,0.1097933 0.324285,0.2034641 0.164617,0.1665467 0.225299,0.3244978 0.241563,0.6287781 l 0.01122,0.2106643 H 8.4665258 4.6466771 Z M 7.030045,6.5172587 C 6.9096585,6.4750763 6.848081,6.3896028 6.848081,6.264682 c 0,-0.087617 0.050433,-0.1737304 0.1277961,-0.21822 0.028071,-0.01614 0.6680081,-0.2453842 1.4220851,-0.5094247 0.7540761,-0.2640421 1.8076368,-0.632941 2.3412448,-0.8197766 1.060327,-0.371258 1.041917,-0.3668666 1.151448,-0.274704 0.135751,0.1142271 0.136433,0.3156414 0.0013,0.411797 -0.02702,0.01919 -0.358606,0.1432069 -0.736933,0.275586 -0.378276,0.1323791 -0.979057,0.342599 -1.3350211,0.4671561 -2.1913787,0.7667981 -2.6442847,0.9243484 -2.682479,0.9331383 -0.023421,0.0054 -0.071828,-5.516e-4 -0.1075749,-0.012978 z"
     id="path1-3" />
</svg>
