<?xml version="1.0" encoding="UTF-8" standalone="no"?>
<svg
   width="64"
   height="64"
   version="1.1"
   viewBox="0 0 16.933 16.933"
   id="svg7"
   sodipodi:docname="accessories-text-editor.svg"
   inkscape:version="1.4.3 (0d15f75042, 2025-12-25)"
   xmlns:inkscape="http://www.inkscape.org/namespaces/inkscape"
   xmlns:sodipodi="http://sodipodi.sourceforge.net/DTD/sodipodi-0.dtd"
   xmlns="http://www.w3.org/2000/svg"
   xmlns:svg="http://www.w3.org/2000/svg"
   xmlns:rdf="http://www.w3.org/1999/02/22-rdf-syntax-ns#"
   xmlns:cc="http://creativecommons.org/ns#"
   xmlns:dc="http://purl.org/dc/elements/1.1/">
  <sodipodi:namedview
     id="namedview7"
     pagecolor="#9c4444"
     bordercolor="#000000"
     borderopacity="0.25"
     inkscape:showpageshadow="2"
     inkscape:pageopacity="0.0"
     inkscape:pagecheckerboard="0"
     inkscape:deskcolor="#d1d1d1"
     inkscape:zoom="4.3531261"
     inkscape:cx="43.417074"
     inkscape:cy="20.904517"
     inkscape:window-width="1226"
     inkscape:window-height="669"
     inkscape:window-x="474"
     inkscape:window-y="225"
     inkscape:window-maximized="0"
     inkscape:current-layer="svg7"
     showgrid="false" />
  <defs
     id="defs2">
    <filter
       style="color-interpolation-filters:sRGB;"
       inkscape:label="Blur"
       id="filter5421"
       x="-0.12256455"
       y="-0.12342654"
       width="1.2451291"
       height="1.2468531">
      <feGaussianBlur
         stdDeviation="0.5 0.5"
         result="blur"
         id="feGaussianBlur5419" />
    </filter>
  </defs>
  <metadata
     id="metadata2">
    <rdf:RDF>
      <cc:Work
         rdf:about="">
        <dc:format>image/svg+xml</dc:format>
        <dc:type
           rdf:resource="http://purl.org/dc/dcmitype/StillImage" />
      </cc:Work>
    </rdf:RDF>
  </metadata>
  <rect
     style="opacity:0.3;fill:none;fill-opacity:0.996424;stroke:#000000;stroke-width:0.955221;stroke-dasharray:none;stroke-opacity:1;filter:url(#filter5421)"
     id="rect1-2-7"
     width="13.687567"
     height="13.591975"
     x="1.6227165"
     y="1.6705122"
     rx="2.8442214"
     ry="2.965905" />
  <rect
     style="fill:none;fill-opacity:1;stroke:{{colors.primary.default.hex}};stroke-width:0.955221;stroke-dasharray:none;stroke-opacity:1"
     id="rect1-2"
     width="13.687567"
     height="13.591975"
     x="1.6227167"
     y="1.6705124"
     rx="2.8442214"
     ry="2.965905" />
  <g
     id="g6"
     transform="matrix(0.23878175,0,0,0.23878175,2.7357296,2.8549951)"
     style="fill:{{colors.primary.default.hex}};fill-opacity:1">
    <path
       fill="#ffffff"
       d="M 26.028,7.0004 21,7.4973 v 21.282 l 5,-0.779 v -9 l 7,10 5.943,-2 -7.943,-9 8,-9 -6,-2 -7,10 v -10 z"
       id="path5"
       style="fill:{{colors.primary.default.hex}};fill-opacity:1" />
    <path
       fill="#ffffff"
       d="m 14.701,13.002 c -0.0615,0.0075 -0.12733,0.02186 -0.17383,0.06836 l -2.1328,2.1191 c -0.08948,0.08925 -0.09898,0.22403 -0.0332,0.33203 l 2.2676,3.7207 c -0.53334,0.86612 -0.9446,1.8131 -1.2227,2.8164 l -4.1855,0.86328 c -0.1271,0.026 -0.2205,0.148 -0.2205,0.278 v 2.9922 c 0,0.12675 0.097403,0.23442 0.2207,0.26367 l 4.0586,0.97852 c 0.25531,1.1288 0.68686,2.1887 1.2598,3.1562 l -2.3652,3.5762 c -0.0717,0.10875 -0.05731,0.25345 0.03516,0.3457 l 2.1309,2.1172 c 0.09,0.08925 0.22989,0.10041 0.33789,0.03516 l 3.6934,-2.2266 c 0.9117,0.54494 1.9071,0.96098 2.9648,1.2246 l 0.86133,4.1191 c 0.027,0.127 0.135,0.219 0.266,0.219 h 3.0137 c 0.126,0 0.23563,-0.08478 0.26563,-0.20703 l 1.0234,-4.1445 c 1.0661,-0.27618 2.0598,-0.72303 2.9746,-1.2852 l 3.709,2.4141 c 0.1095,0.0705 0.2527,0.05755 0.3457,-0.0332 l 2.1211,-2.1172 c 0.09,-0.08925 0.11092,-0.22673 0.04492,-0.33398 l -1.4473,-2.3711 -0.47461,0.15039 c -0.069,0.021 -0.14505,-0.01106 -0.18555,-0.07031 0,0 -0.4496,-0.60826 -0.80664,-1.0918 -0.16655,-0.25344 -0.97368,-1.4388 -1.8066,-2.5254 -1.314,2.814 -4.137,4.613 -7.241,4.616 -4.4183,0 -8,-3.5817 -8,-8 0.0029,-3.0337 1.4205,-5.7296 4,-7.0803 v -3.2342 c -0.55787,0.20737 -0.92465,0.46281 -1.4355,0.75391 l -3.6914,-2.4004 c -0.05475,-0.036 -0.11113,-0.04311 -0.17188,-0.03711 z"
       id="path6"
       style="fill:{{colors.primary.default.hex}};fill-opacity:1" />
  </g>
</svg>
