<?xml version="1.0" encoding="UTF-8" standalone="no"?>
<svg
   width="64"
   height="64"
   version="1.1"
   viewBox="0 0 16.933 16.933"
   id="svg7"
   sodipodi:docname="accessories-text-editor.svg"
   inkscape:version="1.4.3 (0d15f75042, 2025-12-25)"
   xmlns:inkscape="http://www.inkscape.org/namespaces/inkscape"
   xmlns:sodipodi="http://sodipodi.sourceforge.net/DTD/sodipodi-0.dtd"
   xmlns="http://www.w3.org/2000/svg"
   xmlns:svg="http://www.w3.org/2000/svg"
   xmlns:rdf="http://www.w3.org/1999/02/22-rdf-syntax-ns#"
   xmlns:cc="http://creativecommons.org/ns#"
   xmlns:dc="http://purl.org/dc/elements/1.1/">
  <sodipodi:namedview
     id="namedview7"
     pagecolor="#9c4444"
     bordercolor="#000000"
     borderopacity="0.25"
     inkscape:showpageshadow="2"
     inkscape:pageopacity="0.0"
     inkscape:pagecheckerboard="0"
     inkscape:deskcolor="#d1d1d1"
     inkscape:zoom="4.3531261"
     inkscape:cx="38.363235"
     inkscape:cy="26.188077"
     inkscape:window-width="1226"
     inkscape:window-height="669"
     inkscape:window-x="263"
     inkscape:window-y="202"
     inkscape:window-maximized="0"
     inkscape:current-layer="svg7"
     showgrid="false" />
  <defs
     id="defs2">
    <filter
       style="color-interpolation-filters:sRGB;"
       inkscape:label="Blur"
       id="filter5421"
       x="-0.12256455"
       y="-0.12342654"
       width="1.2451291"
       height="1.2468531">
      <feGaussianBlur
         stdDeviation="0.5 0.5"
         result="blur"
         id="feGaussianBlur5419" />
    </filter>
  </defs>
  <metadata
     id="metadata2">
    <rdf:RDF>
      <cc:Work
         rdf:about="">
        <dc:format>image/svg+xml</dc:format>
        <dc:type
           rdf:resource="http://purl.org/dc/dcmitype/StillImage" />
      </cc:Work>
    </rdf:RDF>
  </metadata>
  <rect
     style="opacity:0.3;fill:none;fill-opacity:0.996424;stroke:#000000;stroke-width:0.955221;stroke-dasharray:none;stroke-opacity:1;filter:url(#filter5421)"
     id="rect1-2-7"
     width="13.687567"
     height="13.591975"
     x="1.6227165"
     y="1.6705122"
     rx="2.8442214"
     ry="2.965905" />
  <rect
     style="fill:none;fill-opacity:1;stroke:{{colors.primary.default.hex}};stroke-width:0.955221;stroke-dasharray:none;stroke-opacity:1"
     id="rect1-2"
     width="13.687567"
     height="13.591975"
     x="1.6227167"
     y="1.6705124"
     rx="2.8442214"
     ry="2.965905" />
  <path
     id="path2294"
     style="fill:{{colors.primary.default.hex}};fill-opacity:1;stroke:none;stroke-width:0.263468;stroke-dasharray:none;stroke-opacity:0.3"
     d="M 9.9945712,4.741821 C 9.612281,4.740035 9.1029761,4.7428185 8.4214726,4.7459345 L 5.9251988,4.7572628 5.802212,4.8946588 5.6792254,5.0325682 5.6905437,8.4828914 c 0.010966,3.3832366 0.012526,3.4521576 0.094685,3.5434646 0.046083,0.0512 0.1216751,0.108758 0.1677554,0.127618 0.1336652,0.05471 4.8849079,0.04791 5.0429769,-0.007 0.266835,-0.09302 0.256266,0.05759 0.256266,-3.6772572 0,-2.05887 -0.01582,-3.4341848 -0.04016,-3.4981804 C 11.143585,4.7912082 11.141457,4.7472951 9.9945645,4.741904 Z M 4.3819454,5.3649885 V 5.7416683 6.118863 H 4.7797222 5.1780146 V 5.7416683 5.3649885 H 4.7797222 Z m 7.3730386,0 V 5.7416683 6.118863 h 0.398291 0.397779 V 5.7416683 5.3649885 H 12.153276 Z M 4.3819454,6.788858 v 0.3560965 0.356096 H 4.7797222 5.1780146 V 7.1449545 6.788858 H 4.7797222 Z m 7.3730386,0 v 0.3560965 0.356096 h 0.398291 0.397779 V 7.1449545 6.788858 H 12.153276 Z M 4.3819454,8.17156 V 8.5487544 8.925434 H 4.7797222 5.1780146 V 8.5487544 8.17156 H 4.7797222 Z m 7.3730386,0 V 8.5487544 8.925434 h 0.398291 0.397779 V 8.5487544 8.17156 H 12.153276 Z M 4.3819454,9.5542626 V 9.9309421 10.308136 H 4.7797222 5.1780146 V 9.9309421 9.5542626 H 4.7797222 Z m 7.3730386,0 v 0.3766795 0.3771939 h 0.398291 0.397779 V 9.9309421 9.5542626 H 12.153276 Z M 4.3819454,10.978646 v 0.356098 0.356094 H 4.7797222 5.1780146 V 11.334744 10.978646 H 4.7797222 Z m 7.3730386,0 v 0.356098 0.356094 h 0.398291 0.397779 v -0.356094 -0.356098 h -0.397778 z" />
</svg>
