<?xml version="1.0" encoding="UTF-8" standalone="no"?>
<svg
   width="64"
   height="64"
   version="1.1"
   viewBox="0 0 16.933 16.933"
   id="svg7"
   sodipodi:docname="abcd.svg"
   inkscape:version="1.4.3 (0d15f75042, 2025-12-25)"
   xmlns:inkscape="http://www.inkscape.org/namespaces/inkscape"
   xmlns:sodipodi="http://sodipodi.sourceforge.net/DTD/sodipodi-0.dtd"
   xmlns="http://www.w3.org/2000/svg"
   xmlns:svg="http://www.w3.org/2000/svg"
   xmlns:rdf="http://www.w3.org/1999/02/22-rdf-syntax-ns#"
   xmlns:cc="http://creativecommons.org/ns#"
   xmlns:dc="http://purl.org/dc/elements/1.1/">
  <sodipodi:namedview
     id="namedview7"
     pagecolor="#9c4444"
     bordercolor="#000000"
     borderopacity="0.25"
     inkscape:showpageshadow="2"
     inkscape:pageopacity="0.0"
     inkscape:pagecheckerboard="0"
     inkscape:deskcolor="#d1d1d1"
     inkscape:zoom="4.3531261"
     inkscape:cx="37.444355"
     inkscape:cy="27.336677"
     inkscape:window-width="1226"
     inkscape:window-height="669"
     inkscape:window-x="164"
     inkscape:window-y="233"
     inkscape:window-maximized="0"
     inkscape:current-layer="svg7"
     showgrid="false" />
  <defs
     id="defs2">
    <filter
       style="color-interpolation-filters:sRGB;"
       inkscape:label="Blur"
       id="filter5421"
       x="-0.12256455"
       y="-0.12342654"
       width="1.2451291"
       height="1.2468531">
      <feGaussianBlur
         stdDeviation="0.5 0.5"
         result="blur"
         id="feGaussianBlur5419" />
    </filter>
  </defs>
  <metadata
     id="metadata2">
    <rdf:RDF>
      <cc:Work
         rdf:about="">
        <dc:format>image/svg+xml</dc:format>
        <dc:type
           rdf:resource="http://purl.org/dc/dcmitype/StillImage" />
      </cc:Work>
    </rdf:RDF>
  </metadata>
  <rect
     style="opacity:0.3;fill:none;fill-opacity:0.996424;stroke:#000000;stroke-width:0.955221;stroke-dasharray:none;stroke-opacity:1;filter:url(#filter5421)"
     id="rect1-2-7"
     width="13.687567"
     height="13.591975"
     x="1.6227165"
     y="1.6705122"
     rx="2.8442214"
     ry="2.965905" />
  <rect
     style="fill:none;fill-opacity:1;stroke:{{colors.primary.default.hex}};stroke-width:0.955221;stroke-dasharray:none;stroke-opacity:1"
     id="rect1-2"
     width="13.687567"
     height="13.591975"
     x="1.6227167"
     y="1.6705124"
     rx="2.8442214"
     ry="2.965905" />
  <path
     style="fill:{{colors.primary.default.hex}};fill-opacity:1;stroke:none;stroke-width:0.262218;stroke-dasharray:none;stroke-dashoffset:2.2;stroke-opacity:0.3"
     d="m 8.0807153,12.460993 c -0.041412,-0.0071 -0.1701672,-0.02802 -0.2861215,-0.0465 C 7.3089697,12.337042 6.7260441,12.098801 6.2572997,11.7862 5.960838,11.588491 5.4356883,11.061833 5.2347199,10.760683 4.9281665,10.30132 4.7121343,9.7814105 4.596665,9.2251338 4.5232185,8.8712985 4.5227309,8.0760218 4.5957168,7.7137438 4.7634145,6.8816 5.119017,6.2155886 5.7125021,5.622103 6.189973,5.1446327 6.6331938,4.8673503 7.2472826,4.6619355 8.6445988,4.1945274 10.173069,4.563829 11.228872,5.6239498 c 0.582709,0.5850903 0.969931,1.3293604 1.113615,2.1404588 0.0706,0.398569 0.06443,1.0628767 -0.01357,1.4634472 -0.316204,1.6234312 -1.514509,2.8433642 -3.1187882,3.1750662 -0.2292831,0.0474 -0.969341,0.08547 -1.1294268,0.05807 z M 7.3210383,9.9657197 8.6846833,8.8886514 8.5056754,8.6879461 C 8.4072205,8.5775584 8.2636832,8.4262523 8.1867032,8.3517101 L 8.0467397,8.2161791 7.9913005,8.2914742 C 7.9608093,8.3328869 7.4740514,8.9698831 6.909615,9.7070206 6.3451791,10.444158 5.8830814,11.059097 5.8827328,11.07355 c -3.742e-4,0.01446 0.016307,0.01342 0.037013,-0.0023 0.020703,-0.01567 0.6512876,-0.513199 1.4012925,-1.1055883 z M 10.038294,7.2558234 c 0.564262,-0.7269745 1.019998,-1.327704 1.012749,-1.3349539 -0.01,-0.010043 -2.5112224,1.9172585 -2.6530539,2.0443136 -0.029957,0.026836 0.5506616,0.6346204 0.5923669,0.6200835 0.012107,-0.00422 0.4836758,-0.6024679 1.047938,-1.3294432 z"
     id="path68" />
</svg>
