<?xml version="1.0" encoding="UTF-8" standalone="no"?>
<svg
   width="64"
   height="64"
   version="1.1"
   viewBox="0 0 16.933 16.933"
   id="svg7"
   sodipodi:docname="accessories-text-editor.svg"
   inkscape:version="1.4.3 (0d15f75042, 2025-12-25)"
   xmlns:inkscape="http://www.inkscape.org/namespaces/inkscape"
   xmlns:sodipodi="http://sodipodi.sourceforge.net/DTD/sodipodi-0.dtd"
   xmlns="http://www.w3.org/2000/svg"
   xmlns:svg="http://www.w3.org/2000/svg"
   xmlns:rdf="http://www.w3.org/1999/02/22-rdf-syntax-ns#"
   xmlns:cc="http://creativecommons.org/ns#"
   xmlns:dc="http://purl.org/dc/elements/1.1/">
  <sodipodi:namedview
     id="namedview7"
     pagecolor="#9c4444"
     bordercolor="#000000"
     borderopacity="0.25"
     inkscape:showpageshadow="2"
     inkscape:pageopacity="0.0"
     inkscape:pagecheckerboard="0"
     inkscape:deskcolor="#d1d1d1"
     inkscape:zoom="4.3531261"
     inkscape:cx="38.363235"
     inkscape:cy="26.188077"
     inkscape:window-width="1226"
     inkscape:window-height="669"
     inkscape:window-x="10"
     inkscape:window-y="169"
     inkscape:window-maximized="0"
     inkscape:current-layer="svg7"
     showgrid="false" />
  <defs
     id="defs2">
    <filter
       style="color-interpolation-filters:sRGB;"
       inkscape:label="Blur"
       id="filter5421"
       x="-0.12256455"
       y="-0.12342654"
       width="1.2451291"
       height="1.2468531">
      <feGaussianBlur
         stdDeviation="0.5 0.5"
         result="blur"
         id="feGaussianBlur5419" />
    </filter>
  </defs>
  <metadata
     id="metadata2">
    <rdf:RDF>
      <cc:Work
         rdf:about="">
        <dc:format>image/svg+xml</dc:format>
        <dc:type
           rdf:resource="http://purl.org/dc/dcmitype/StillImage" />
      </cc:Work>
    </rdf:RDF>
  </metadata>
  <rect
     style="opacity:0.3;fill:none;fill-opacity:0.996424;stroke:#000000;stroke-width:0.955221;stroke-dasharray:none;stroke-opacity:1;filter:url(#filter5421)"
     id="rect1-2-7"
     width="13.687567"
     height="13.591975"
     x="1.6227165"
     y="1.6705122"
     rx="2.8442214"
     ry="2.965905" />
  <rect
     style="fill:none;fill-opacity:1;stroke:{{colors.primary.default.hex}};stroke-width:0.955221;stroke-dasharray:none;stroke-opacity:1"
     id="rect1-2"
     width="13.687567"
     height="13.591975"
     x="1.6227167"
     y="1.6705124"
     rx="2.8442214"
     ry="2.965905" />
  <path
     id="path6189"
     style="fill:{{colors.primary.default.hex}};fill-opacity:1;stroke-width:0.0175116"
     d="m 6.8779767,4.3284246 c -1.1831893,-2.18e-4 -1.2057194,0.00659 -1.2780363,0.03365 -0.1211847,0.045342 -0.2608823,0.1692888 -0.3226031,0.2862758 l -0.047182,0.089443 -0.00457,3.6982806 c -0.0045,3.671466 -0.00425,3.698843 0.030828,3.792571 0.064043,0.171171 0.2163924,0.306593 0.4015529,0.35683 0.062357,0.01692 0.6912338,0.02098 2.8468358,0.01839 l 2.7668,-0.0033 0.09915,-0.0487 c 0.130289,-0.06397 0.234986,-0.167898 0.292281,-0.29011 l 0.04639,-0.09899 V 8.4590135 4.7553058 L 11.649357,4.644587 C 11.58342,4.5229882 11.492465,4.4352172 11.369298,4.3745211 l -0.0802,-0.039437 -2.7962527,-0.00463 c -0.6971549,-0.00116 -1.2204938,-0.00192 -1.614889,-0.00199 z m 1.5596808,0.7199577 c 1.7940845,-0.00345 2.4263145,6.041e-4 2.4627215,0.015631 0.103897,0.042888 0.09987,-0.02499 0.09987,1.6841479 0,1.1006132 -0.0058,1.5820468 -0.01946,1.6211905 -0.01083,0.031147 -0.04135,0.067015 -0.06918,0.081412 -0.0431,0.022286 -0.370647,0.025646 -2.445283,0.024674 C 7.1487515,8.4748075 6.0538278,8.4674766 6.0331887,8.4591556 5.9346995,8.4194094 5.9394028,8.5043283 5.9394028,6.757495 V 5.1512851 l 0.042262,-0.049135 0.042261,-0.049135 z M 7.8783489,5.986159 c -0.028501,-9.975e-4 -0.066441,0.015226 -0.091904,0.03915 l -0.043348,0.040742 v 0.6943402 0.6943414 l 0.039367,0.035893 c 0.021668,0.019713 0.051187,0.039714 0.065635,0.044505 0.014444,0.0048 0.053631,-0.00239 0.087054,-0.015993 0.1464255,-0.059539 1.19586,-0.6451209 1.2269485,-0.6846434 0.044775,-0.056921 0.043459,-0.09675 -0.00499,-0.1524003 C 9.1044205,6.6215711 7.9407372,5.9882626 7.8783518,5.9861587 Z m 1.9485698,2.7738917 c 0.3635213,0.017619 0.6017573,0.3069281 0.5724793,0.6952807 -0.01825,0.241877 -0.163127,0.448102 -0.368482,0.5245015 C 9.624909,10.13088 9.234163,9.8824765 9.2017579,9.4526539 9.1711303,9.0463969 9.4462353,8.7415967 9.8269187,8.7600507 Z m -2.6967501,0.0055 c 0.1468573,-1.289e-4 0.1780756,0.0057 0.2662295,0.048991 0.1263089,0.062027 0.2455801,0.193049 0.2948148,0.3239047 0.031934,0.084869 0.036531,0.1274506 0.030685,0.2837427 C 7.7159794,9.5802699 7.7082683,9.6189865 7.667119,9.698547 7.578432,9.8700329 7.4288093,9.9808703 7.2366202,10.017318 7.1316358,10.037227 7.116432,10.037191 7.0138084,10.016846 6.8378607,9.9820274 6.6592558,9.8389228 6.5813554,9.670365 6.5495152,9.6014736 6.5435081,9.5565728 6.5435081,9.3871286 c 0,-0.195913 0.00165,-0.2043841 0.059701,-0.3114585 0.067634,-0.1247306 0.1374013,-0.1926009 0.2693418,-0.2620334 0.080905,-0.042575 0.1101851,-0.048049 0.2576195,-0.048124 z m 2.697111,1.7664293 c 0.2974924,0.0088 0.5476714,0.248661 0.5723354,0.575806 0.02184,0.28972 -0.107375,0.529467 -0.345036,0.640211 -0.1405948,0.06551 -0.3405285,0.07216 -0.4740635,0.01578 -0.2632015,-0.11113 -0.4017468,-0.351058 -0.3787576,-0.655987 0.022334,-0.296208 0.2092243,-0.50929 0.4956268,-0.565097 0.043908,-0.0086 0.087397,-0.012 0.1298949,-0.01072 z m -2.697111,0.0057 c 0.074293,5.79e-4 0.1640193,0.0132 0.2066018,0.02895 0.1673303,0.06194 0.3044023,0.201352 0.3603767,0.36653 0.041913,0.123679 0.038163,0.37047 -0.0075,0.492586 -0.047286,0.126382 -0.1682885,0.258852 -0.2913403,0.319057 -0.1176974,0.05758 -0.3395836,0.07526 -0.4459852,0.03553 -0.1748408,-0.06531 -0.2757896,-0.153603 -0.361608,-0.316265 -0.043321,-0.08212 -0.047183,-0.105948 -0.047183,-0.290835 0,-0.236841 0.026496,-0.313261 0.1566698,-0.452426 C 6.8158289,10.597174 6.9586972,10.5363 7.130185,10.537644 Z" />
</svg>
