<?xml version="1.0" encoding="UTF-8" standalone="no"?>
<svg
   width="64"
   height="64"
   version="1.1"
   viewBox="0 0 16.933 16.933"
   id="svg7"
   sodipodi:docname="abcd.svg"
   inkscape:version="1.4.3 (0d15f75042, 2025-12-25)"
   xmlns:inkscape="http://www.inkscape.org/namespaces/inkscape"
   xmlns:sodipodi="http://sodipodi.sourceforge.net/DTD/sodipodi-0.dtd"
   xmlns="http://www.w3.org/2000/svg"
   xmlns:svg="http://www.w3.org/2000/svg"
   xmlns:rdf="http://www.w3.org/1999/02/22-rdf-syntax-ns#"
   xmlns:cc="http://creativecommons.org/ns#"
   xmlns:dc="http://purl.org/dc/elements/1.1/">
  <sodipodi:namedview
     id="namedview7"
     pagecolor="#9c4444"
     bordercolor="#000000"
     borderopacity="0.25"
     inkscape:showpageshadow="2"
     inkscape:pageopacity="0.0"
     inkscape:pagecheckerboard="0"
     inkscape:deskcolor="#d1d1d1"
     inkscape:zoom="4.3531261"
     inkscape:cx="37.903795"
     inkscape:cy="26.188077"
     inkscape:window-width="1226"
     inkscape:window-height="669"
     inkscape:window-x="37"
     inkscape:window-y="156"
     inkscape:window-maximized="0"
     inkscape:current-layer="svg7"
     showgrid="false" />
  <defs
     id="defs2">
    <filter
       style="color-interpolation-filters:sRGB;"
       inkscape:label="Blur"
       id="filter5421"
       x="-0.12256455"
       y="-0.12342654"
       width="1.2451291"
       height="1.2468531">
      <feGaussianBlur
         stdDeviation="0.5 0.5"
         result="blur"
         id="feGaussianBlur5419" />
    </filter>
  </defs>
  <metadata
     id="metadata2">
    <rdf:RDF>
      <cc:Work
         rdf:about="">
        <dc:format>image/svg+xml</dc:format>
        <dc:type
           rdf:resource="http://purl.org/dc/dcmitype/StillImage" />
      </cc:Work>
    </rdf:RDF>
  </metadata>
  <rect
     style="opacity:0.3;fill:none;fill-opacity:0.996424;stroke:#000000;stroke-width:0.955221;stroke-dasharray:none;stroke-opacity:1;filter:url(#filter5421)"
     id="rect1-2-7"
     width="13.687567"
     height="13.591975"
     x="1.6227165"
     y="1.6705122"
     rx="2.8442214"
     ry="2.965905" />
  <rect
     style="fill:none;fill-opacity:1;stroke:{{colors.primary.default.hex}};stroke-width:0.955221;stroke-dasharray:none;stroke-opacity:1"
     id="rect1-2"
     width="13.687567"
     height="13.591975"
     x="1.6227167"
     y="1.6705124"
     rx="2.8442214"
     ry="2.965905" />
  <path
     style="fill:{{colors.primary.default.hex}};stroke-width:0.264578;fill-opacity:1"
     d="m 12.051482,5.6879192 c -0.225597,0 -0.409222,0.057429 -0.55086,0.172079 -0.141606,0.1145448 -0.212386,0.2693564 -0.212386,0.4645621 0,0.1496277 0.04376,0.2788593 0.131256,0.3875657 0.08865,0.1087061 0.203187,0.1862998 0.343641,0.233056 -0.169231,0.059615 -0.300115,0.1485868 -0.392216,0.266645 -0.09095,0.1168819 -0.136423,0.2612143 -0.136423,0.43304 0,0.1426095 0.0373,0.2659656 0.112135,0.3699961 0.07598,0.1040322 0.174701,0.1803471 0.295584,0.2294388 0.120887,0.049093 0.256385,0.073896 0.407202,0.073896 v -5.291e-4 c 0.233707,0 0.427595,-0.058673 0.581865,-0.17673 0.15427,-0.1180548 0.231506,-0.2838622 0.231506,-0.4966007 0,-0.1624809 -0.04719,-0.3071818 -0.141591,-0.4345902 -0.0944,-0.127405 -0.22094,-0.2167633 -0.379814,-0.2681954 0.143905,-0.0526 0.257133,-0.1310929 0.340024,-0.2351232 0.08404,-0.105205 0.126088,-0.232779 0.126088,-0.3823979 0,-0.1963683 -0.06987,-0.3511799 -0.210319,-0.4645622 C 12.457882,5.7449191 12.275985,5.6879068 12.051482,5.6879068 Z m -7.129657,0.00103 c -0.1843229,0 -0.3408976,0.055272 -0.4697295,0.1663947 -0.1289413,0.1098706 -0.22503,0.2630245 -0.2883488,0.4593944 -0.062169,0.1952058 -0.093533,0.4272212 -0.093533,0.696068 0,0.194031 0.016739,0.3707039 0.050125,0.529673 0.034538,0.1577997 0.085152,0.2966251 0.1519257,0.4170206 C 4.3401974,8.076731 4.4290233,8.1699209 4.5383928,8.236547 4.648916,8.302006 4.7767649,8.33473 4.9218244,8.33473 v -5.292e-4 c 0.1439305,0 0.2696231,-0.032404 0.3777472,-0.097667 C 5.4089435,8.169912 5.4960624,8.076336 5.560533,7.9559405 5.6261539,7.8355453 5.6750551,7.6962029 5.7072913,7.5384032 5.7395275,7.3806088 5.7558662,7.204839 5.7558662,7.0107974 c 0,-0.2022102 -0.017655,-0.383487 -0.052192,-0.5436255 C 5.6691359,6.3058605 5.6181224,6.167421 5.550198,6.0517017 5.4834238,5.9348164 5.3963048,5.845458 5.2892372,5.7835063 5.1833284,5.7203991 5.0611272,5.6889527 4.921825,5.6889527 Z m 2.0701171,0.035656 c -0.059863,0.042078 -0.1494967,0.084905 -0.2692288,0.128155 -0.1185805,0.04208 -0.2211246,0.071866 -0.3074689,0.089398 v 0.2315059 c 0.07714,-0.01052 0.1701946,-0.033661 0.2795641,-0.068728 0.110523,-0.035066 0.2023835,-0.072774 0.274913,-0.113686 v 2.083036 H 6.361502 V 8.2846087 H 7.7985953 V 8.0742898 H 7.2560035 v -2.349681 z m 2.8943399,0 c -0.059863,0.042078 -0.1494966,0.084905 -0.2692288,0.128155 -0.1185805,0.04208 -0.2211246,0.071866 -0.3074689,0.089398 v 0.2315059 c 0.07714,-0.01052 0.1701947,-0.033661 0.2795642,-0.068728 0.1105229,-0.035066 0.2023835,-0.072774 0.2749132,-0.113686 v 2.083036 H 9.2558419 V 8.2846087 H 10.692935 V 8.0742898 h -0.542592 v -2.349681 z m 2.163133,0.1787969 c 0.146214,0 0.26338,0.038225 0.350876,0.1142027 0.0875,0.074808 0.131255,0.1746459 0.131255,0.2997173 0,0.1379333 -0.04033,0.2524678 -0.12092,0.3436415 -0.08058,0.091174 -0.201186,0.1545816 -0.361211,0.1896488 -0.158881,-0.036233 -0.279354,-0.099641 -0.362245,-0.1896452 -0.08174,-0.091179 -0.122987,-0.2057135 -0.122987,-0.3436415 0,-0.1239038 0.04467,-0.223741 0.133322,-0.2997173 0.0898,-0.075978 0.20685,-0.1142027 0.35191,-0.1142027 z m -7.12759,0.022219 c 0.3661055,0 0.5487929,0.3583182 0.5487929,1.0748486 0,0.3611846 -0.047586,0.6347484 -0.1431409,0.8206058 -0.094396,0.1846755 -0.2295083,0.2769802 -0.405652,0.2769802 -0.1784402,0 -0.3178935,-0.09319 -0.4180541,-0.2790474 C 4.4047622,7.6319908 4.3549457,7.3596981 4.3549457,7.002024 4.3537948,6.6595363 4.4040089,6.3947942 4.5053212,6.2077729 4.6066317,6.0195872 4.7456813,5.9256249 4.921825,5.9256249 Z M 8.4962135,6.428423 c -0.067926,0 -0.1202534,0.019685 -0.1570933,0.059427 -0.03684,0.038572 -0.055293,0.08434 -0.055293,0.1369399 0,0.053769 0.018454,0.1002973 0.055293,0.1400404 0.036841,0.038572 0.089169,0.057876 0.1570933,0.057876 0.067924,0 0.1198531,-0.019304 0.1555429,-0.057876 0.03684,-0.039743 0.055293,-0.086271 0.055293,-0.1400404 0,-0.0526 -0.018452,-0.098368 -0.055293,-0.1369399 C 8.6160663,6.448107 8.5641373,6.428423 8.4962135,6.428423 Z m 3.5532015,0.6273396 c 0.162324,0.035067 0.293207,0.101797 0.392216,0.1999838 0.100161,0.09818 0.150375,0.2180904 0.150375,0.3606943 0,0.3179348 -0.18109,0.4769642 -0.542591,0.4769642 -0.177301,0 -0.312799,-0.041547 -0.407202,-0.1245377 -0.09325,-0.082991 -0.140041,-0.1995691 -0.140041,-0.3503556 0,-0.14728 0.05021,-0.2689788 0.150376,-0.3648286 0.100158,-0.095848 0.232236,-0.16168 0.396867,-0.1979166 z M 8.4962135,7.9099608 c -0.067926,0 -0.1202534,0.019304 -0.1570933,0.057876 -0.03684,0.038574 -0.055293,0.084721 -0.055293,0.1384902 0,0.0526 0.018454,0.098749 0.055293,0.13849 0.036841,0.038574 0.089169,0.057876 0.1570933,0.057876 0.067924,0 0.1198531,-0.019304 0.1555429,-0.057876 0.03684,-0.039741 0.055293,-0.08589 0.055293,-0.13849 0,-0.053769 -0.018452,-0.099916 -0.055293,-0.1384902 -0.03569,-0.038572 -0.087619,-0.057876 -0.1555429,-0.057876 z M 5.7527656,9.6571067 c -0.1141212,0 -0.2106896,0.033224 -0.2904157,0.1002502 -0.079823,0.065935 -0.139597,0.158123 -0.1787969,0.2759471 -0.038487,0.117118 -0.057876,0.256231 -0.057876,0.417537 -3e-7,0.116422 0.010337,0.222422 0.031005,0.317804 0.02138,0.09468 0.052712,0.177872 0.094049,0.250109 0.04205,0.07154 0.097137,0.127452 0.1648446,0.167428 0.068421,0.03927 0.1473888,0.05891 0.23719,0.05891 v -0.0016 c 0.089075,0 0.1670631,-0.01907 0.2340898,-0.05788 0.067707,-0.03998 0.1218313,-0.09622 0.161744,-0.168462 0.040625,-0.07224 0.070992,-0.155429 0.090949,-0.250109 0.019957,-0.09468 0.029972,-0.200349 0.029972,-0.31677 0,-0.12133 -0.011173,-0.22999 -0.032556,-0.326072 C 6.2155837,10.027458 6.1839317,9.9440827 6.1418815,9.8746502 6.1005438,9.8045177 6.0469363,9.7511113 5.9806542,9.7139399 5.9150846,9.6760682 5.8390041,9.6570969 5.7527656,9.6570969 Z m 1.8091564,0 c -0.1141216,0 -0.2112064,0.033224 -0.2909328,0.1002502 -0.079823,0.065935 -0.1390802,0.158123 -0.1782801,0.2759471 -0.038487,0.117118 -0.057876,0.256231 -0.057876,0.417537 0,0.116422 0.010337,0.222422 0.031005,0.317804 0.021381,0.09468 0.052711,0.177872 0.094049,0.250109 0.04205,0.07154 0.097137,0.127452 0.1648446,0.167428 0.068422,0.03927 0.1473888,0.05891 0.2371903,0.05891 v -0.0016 c 0.089074,0 0.1670631,-0.01907 0.2340894,-0.05788 0.067707,-0.03998 0.1213149,-0.09622 0.1612273,-0.168462 0.040625,-0.07224 0.070993,-0.155429 0.090949,-0.250109 0.019957,-0.09468 0.029972,-0.200349 0.029972,-0.31677 0,-0.12133 -0.010657,-0.22999 -0.032039,-0.326072 C 8.02474,10.027458 7.993088,9.9440827 7.9510378,9.8746502 7.9097001,9.8045177 7.8555759,9.7511113 7.7892938,9.7139399 7.7237242,9.6760682 7.6481602,9.6570969 7.561922,9.6570969 Z m 1.3011867,5.178e-4 c -0.099658,0 -0.1883547,0.022047 -0.2656115,0.066145 -0.076973,0.042782 -0.1355881,0.100359 -0.1762133,0.1725959 -0.040625,0.072237 -0.060977,0.1524386 -0.060977,0.2408076 0,0.06663 0.013099,0.129371 0.038756,0.187581 0.025656,0.05751 0.059554,0.105933 0.1023173,0.145208 0.042763,0.03857 0.092521,0.06902 0.1488252,0.09147 0.057017,0.02244 0.1162737,0.03359 0.1782802,0.03359 0.07341,0 0.1435201,-0.01764 0.2098022,-0.05271 -0.054879,0.06943 -0.091217,0.115864 -0.1090353,0.139007 l -0.4041008,0.53329 h 0.2087685 l 0.3813645,-0.513137 c 0.044188,-0.05961 0.077961,-0.106377 0.1007673,-0.14004 0.023521,-0.03436 0.048043,-0.07596 0.074413,-0.125055 0.02637,-0.04979 0.045119,-0.09822 0.055809,-0.145208 0.011403,-0.04699 0.017052,-0.09741 0.017052,-0.151409 0,-0.06312 -0.010977,-0.123355 -0.033072,-0.1808638 C 9.3081587,9.9013816 9.2765086,9.8497841 9.2351709,9.8048995 9.1938332,9.7600146 9.1411885,9.7245831 9.0770442,9.6979313 9.0129007,9.6712812 8.9415069,9.6576245 8.8631087,9.6576245 Z m -0.337957,1.5569805 h -0.00103 v 10e-4 z M 4.4603635,9.6772612 c -0.03706,0.025248 -0.092789,0.051046 -0.1669116,0.076996 -0.07341,0.025239 -0.1367119,0.043212 -0.1901655,0.053742 v 0.1384909 c 0.047753,-0.00631 0.1054054,-0.019784 0.1731127,-0.040824 0.068422,-0.021041 0.1251114,-0.043666 0.1700121,-0.068211 v 1.2495109 h -0.376197 v 0.126605 H 4.959548 V 11.086966 H 4.6241747 V 9.6772612 Z m 6.1922645,0 c -0.03706,0.025249 -0.09279,0.051046 -0.166911,0.076996 -0.07341,0.025238 -0.136712,0.043212 -0.190166,0.053742 v 0.1384909 c 0.04775,-0.00631 0.105406,-0.019785 0.173113,-0.040824 0.06842,-0.021042 0.125111,-0.043666 0.170012,-0.068211 v 1.2495109 h -0.376197 v 0.126605 h 0.889334 v -0.126605 h -0.33589 V 9.6772612 Z m 0.908454,0.00206 -0.02997,0.8128548 0.143658,0.01705 c 0.03279,-0.03437 0.07413,-0.06183 0.124021,-0.08216 0.04989,-0.02034 0.101252,-0.03049 0.153993,-0.03049 0.07198,0 0.131883,0.01598 0.180347,0.04754 0.04846,0.03086 0.0832,0.07079 0.103868,0.119887 0.02067,0.04839 0.03101,0.103458 0.03101,0.165878 0,0.113618 -0.03197,0.201975 -0.09612,0.265095 -0.06343,0.06242 -0.148886,0.09405 -0.255793,0.09405 -0.119739,0 -0.248461,-0.03827 -0.386015,-0.11472 l -0.06098,0.13539 c 0.154651,0.08486 0.307782,0.127638 0.458877,0.127638 0.07341,0 0.141399,-0.01081 0.204118,-0.03256 0.06272,-0.02174 0.117806,-0.0537 0.164845,-0.09508 0.04775,-0.04208 0.08473,-0.09549 0.111102,-0.16071 0.02708,-0.06593 0.04031,-0.140148 0.04031,-0.222205 0,-0.08626 -0.01759,-0.16414 -0.05323,-0.233573 -0.03492,-0.07013 -0.08821,-0.126197 -0.160194,-0.168978 -0.07198,-0.04348 -0.157118,-0.06563 -0.25476,-0.06563 -0.106914,0 -0.20186,0.02779 -0.285248,0.0832 l 0.01705,-0.5239847 h 0.656277 l 0.01395,-0.1384902 z m -2.6928055,0.117307 c 0.1033442,0 0.183274,0.03178 0.2402906,0.095599 0.057017,0.063822 0.085781,0.1426938 0.085781,0.2366738 -3e-7,0.04769 -0.00777,0.09146 -0.022738,0.130738 -0.014255,0.03857 -0.032486,0.07002 -0.055293,0.09457 -0.022807,0.02385 -0.049129,0.04415 -0.079063,0.06098 -0.029935,0.01612 -0.059981,0.0276 -0.089915,0.03462 -0.029222,0.0063 -0.058627,0.0093 -0.087848,0.0093 -0.101919,0 -0.1815279,-0.02978 -0.239257,-0.0894 -0.057729,-0.06031 -0.086815,-0.138519 -0.086815,-0.234603 0,-0.09468 0.029725,-0.1745498 0.088882,-0.2397736 0.059867,-0.065924 0.1419181,-0.0987 0.2459751,-0.0987 z m -3.1155109,0.0031 c 0.2266377,0 0.3400242,0.2149878 0.3400242,0.6449088 0,0.216706 -0.029726,0.380954 -0.088882,0.492467 -0.058444,0.110811 -0.1420975,0.165878 -0.2511426,0.165878 -0.1104701,0 -0.1963706,-0.05592 -0.2583772,-0.167428 -0.061293,-0.112216 -0.091982,-0.275274 -0.091982,-0.489882 -7.144e-4,-0.205493 0.030297,-0.364235 0.093016,-0.4764475 0.062719,-0.1129148 0.1482985,-0.1694954 0.2573435,-0.1694963 z m 1.8091564,0 c 0.2266376,0 0.3400241,0.2149878 0.3400241,0.6449088 0,0.216706 -0.029726,0.380954 -0.088882,0.492467 -0.058444,0.110811 -0.1420975,0.165878 -0.2511423,0.165878 -0.1104704,0 -0.1968874,-0.05592 -0.2588939,-0.167428 C 7.241734,10.823338 7.2110459,10.66028 7.2110459,10.445672 7.2103315,10.240179 7.2413425,10.081437 7.3040615,9.9692245 7.3667808,9.8563097 7.4528769,9.7997291 7.561922,9.7997282 Z M 6.6648368,10.996532 c -0.037773,0 -0.066342,0.01115 -0.086298,0.03359 -0.019957,0.02244 -0.029972,0.04957 -0.029972,0.08113 0,0.03086 0.010014,0.05799 0.029972,0.08113 0.020666,0.02244 0.049236,0.03359 0.086298,0.03359 0.03706,0 0.065504,-0.01115 0.084747,-0.03359 0.019957,-0.02244 0.029455,-0.04957 0.029455,-0.08113 0,-0.03156 -0.0095,-0.05869 -0.029455,-0.08113 -0.019243,-0.02244 -0.047687,-0.03359 -0.084747,-0.03359 z m 3.0963908,0 c -0.037773,0 -0.066859,0.01115 -0.086815,0.03359 -0.019957,0.02244 -0.029972,0.04957 -0.029972,0.08113 0,0.03086 0.010017,0.05799 0.029972,0.08113 0.020669,0.02244 0.049754,0.03359 0.086815,0.03359 0.03706,0 0.064987,-0.01115 0.084231,-0.03359 0.019957,-0.02244 0.029972,-0.04957 0.029972,-0.08113 0,-0.03156 -0.010014,-0.05869 -0.029972,-0.08113 -0.019243,-0.02244 -0.047171,-0.03359 -0.084231,-0.03359 z"
     id="path5" />
</svg>
