<?xml version="1.0" encoding="UTF-8" standalone="no"?>
<svg
   width="64"
   height="64"
   version="1.1"
   viewBox="0 0 16.933 16.933"
   id="svg7"
   sodipodi:docname="accessories-text-editor.svg"
   inkscape:version="1.4.3 (0d15f75042, 2025-12-25)"
   xmlns:inkscape="http://www.inkscape.org/namespaces/inkscape"
   xmlns:sodipodi="http://sodipodi.sourceforge.net/DTD/sodipodi-0.dtd"
   xmlns="http://www.w3.org/2000/svg"
   xmlns:svg="http://www.w3.org/2000/svg"
   xmlns:rdf="http://www.w3.org/1999/02/22-rdf-syntax-ns#"
   xmlns:cc="http://creativecommons.org/ns#"
   xmlns:dc="http://purl.org/dc/elements/1.1/">
  <sodipodi:namedview
     id="namedview7"
     pagecolor="#9c4444"
     bordercolor="#000000"
     borderopacity="0.25"
     inkscape:showpageshadow="2"
     inkscape:pageopacity="0.0"
     inkscape:pagecheckerboard="0"
     inkscape:deskcolor="#d1d1d1"
     inkscape:zoom="4.3531261"
     inkscape:cx="43.417074"
     inkscape:cy="20.904517"
     inkscape:window-width="1226"
     inkscape:window-height="669"
     inkscape:window-x="474"
     inkscape:window-y="225"
     inkscape:window-maximized="0"
     inkscape:current-layer="svg7"
     showgrid="false" />
  <defs
     id="defs2">
    <filter
       style="color-interpolation-filters:sRGB;"
       inkscape:label="Blur"
       id="filter5421"
       x="-0.12256455"
       y="-0.12342654"
       width="1.2451291"
       height="1.2468531">
      <feGaussianBlur
         stdDeviation="0.5 0.5"
         result="blur"
         id="feGaussianBlur5419" />
    </filter>
  </defs>
  <metadata
     id="metadata2">
    <rdf:RDF>
      <cc:Work
         rdf:about="">
        <dc:format>image/svg+xml</dc:format>
        <dc:type
           rdf:resource="http://purl.org/dc/dcmitype/StillImage" />
      </cc:Work>
    </rdf:RDF>
  </metadata>
  <rect
     style="opacity:0.3;fill:none;fill-opacity:0.996424;stroke:#000000;stroke-width:0.955221;stroke-dasharray:none;stroke-opacity:1;filter:url(#filter5421)"
     id="rect1-2-7"
     width="13.687567"
     height="13.591975"
     x="1.6227165"
     y="1.6705122"
     rx="2.8442214"
     ry="2.965905" />
  <rect
     style="fill:none;fill-opacity:1;stroke:{{colors.primary.default.hex}};stroke-width:0.955221;stroke-dasharray:none;stroke-opacity:1"
     id="rect1-2"
     width="13.687567"
     height="13.591975"
     x="1.6227167"
     y="1.6705124"
     rx="2.8442214"
     ry="2.965905" />
  <path
     style="fill:{{colors.primary.default.hex}};stroke-width:0.264578;fill-opacity:1"
     d="m 7.3146548,4.4588292 c -0.043923,0 -0.08604,0.00439 -0.1260881,0.013435 -0.038755,0.00904 -0.07312,0.02532 -0.1028341,0.048575 -0.028423,0.021962 -0.050901,0.051418 -0.067695,0.088882 -0.016793,0.036173 -0.02532,0.082422 -0.02532,0.1379733 0,0.05426 0.00853,0.099992 0.02532,0.1374565 0.016795,0.037464 0.039274,0.067694 0.067695,0.090949 0.029712,0.02196 0.064077,0.038239 0.1028341,0.048575 0.040048,0.00905 0.082165,0.013435 0.1260881,0.013435 0.043923,-3e-7 0.085264,-0.00439 0.124021,-0.013435 0.038757,-0.010334 0.072346,-0.026613 0.100767,-0.048575 0.029714,-0.023254 0.052968,-0.053484 0.069762,-0.090949 0.018087,-0.037464 0.026871,-0.083197 0.026871,-0.1374565 0,-0.055551 -0.00878,-0.1018002 -0.026871,-0.1379733 -0.016793,-0.037464 -0.040048,-0.06692 -0.069762,-0.088882 -0.028421,-0.023249 -0.06201,-0.039526 -0.100767,-0.048575 -0.038757,-0.00905 -0.080098,-0.013435 -0.124021,-0.013435 z M 4.8864269,4.6396931 v 2.8328461 h 0.591167 V 6.3527333 H 6.4387565 V 5.8623335 H 5.4775939 V 5.1316431 h 1.0324746 v -0.49195 z m 6.3519421,0.6263062 c -0.147268,0 -0.28163,0.024029 -0.403068,0.071829 -0.120151,0.047799 -0.223497,0.1193705 -0.310053,0.2149697 -0.08526,0.094301 -0.151666,0.2129018 -0.199467,0.3550101 -0.0478,0.1420962 -0.07183,0.30772 -0.07183,0.4976342 0,0.1873178 0.02584,0.3508753 0.07751,0.4903998 0.05297,0.1382296 0.126863,0.2534676 0.221171,0.3451916 0.0943,0.090431 0.206442,0.1578679 0.336924,0.2030846 0.130488,0.045216 0.273362,0.068211 0.428389,0.068211 0.0801,0 0.153992,-0.00336 0.221171,-0.00982 0.06718,-0.00518 0.129446,-0.014478 0.187581,-0.027388 0.05814,-0.012919 0.113169,-0.028421 0.164845,-0.046508 0.05297,-0.019378 0.105418,-0.042115 0.157093,-0.069245 V 6.9020424 c -0.05684,0.028421 -0.112652,0.053483 -0.166911,0.075446 -0.05426,0.020664 -0.108777,0.037975 -0.164328,0.052192 -0.05555,0.014218 -0.11317,0.025328 -0.172596,0.033072 -0.05813,0.00646 -0.120145,0.0093 -0.186032,0.0093 -0.07881,0 -0.149342,-0.012144 -0.211352,-0.036689 -0.06072,-0.024542 -0.11317,-0.059166 -0.157093,-0.104382 -0.04263,-0.046508 -0.07622,-0.1025764 -0.100767,-0.1684616 -0.02325,-0.067178 -0.03617,-0.1421076 -0.03876,-0.2247882 h 1.321858 V 6.2504164 c 0,-0.1576039 -0.02222,-0.2966164 -0.06615,-0.4180541 -0.04263,-0.1227343 -0.104642,-0.2265976 -0.186032,-0.3105694 -0.0801,-0.083973 -0.17828,-0.1470163 -0.294549,-0.1896486 -0.11497,-0.043924 -0.244167,-0.066145 -0.387566,-0.066145 z M 7.9171902,5.3063059 8.682503,7.4725392 H 9.2907226 L 10.056552,5.3063059 H 9.4364472 l -0.3565603,1.234009 c -0.021963,0.073637 -0.0416,0.1493424 -0.058393,0.2268551 -0.015502,0.076221 -0.025063,0.1485675 -0.028938,0.2170366 H 8.9806707 C 8.9767946,6.9209055 8.9664602,6.8501094 8.9496653,6.771304 8.9341637,6.6912072 8.9158178,6.6139523 8.893856,6.5403149 L 8.5352285,5.3063059 Z m -0.8991523,0.00103 V 7.4740878 H 7.6092046 V 5.3073396 Z m 4.2244651,0.3792992 c 0.06201,0 0.11627,0.011887 0.162777,0.035139 0.04651,0.023254 0.08526,0.055294 0.11627,0.096633 0.03101,0.040048 0.05426,0.088107 0.06976,0.1436577 0.01551,0.055553 0.02403,0.1160122 0.02532,0.1818974 h -0.753944 c 0.01034,-0.1576016 0.04987,-0.2731024 0.118337,-0.3467398 0.06976,-0.073637 0.156835,-0.1105855 0.261478,-0.1105855 z M 6.0336213,9.5566087 c -0.2183299,2e-7 -0.4077197,0.035139 -0.5679127,0.1049012 C 5.3068135,9.7299859 5.175034,9.8273869 5.0703915,9.9539928 4.965749,10.080585 4.8874609,10.233809 4.8357851,10.413387 c -0.050383,0.178273 -0.075446,0.377234 -0.075446,0.596851 0,0.220482 0.025177,0.420555 0.075446,0.600468 0.051676,0.179579 0.1291882,0.333565 0.2325393,0.461462 0.1046356,0.127895 0.2364148,0.226338 0.395317,0.2961 0.1601933,0.06976 0.3488037,0.104901 0.5658458,0.104901 0.2171306,0 0.4048556,-0.03538 0.5637787,-0.105934 0.1602005,-0.06976 0.2927417,-0.168722 0.3973842,-0.296617 0.104644,-0.127897 0.1821564,-0.281367 0.2325393,-0.460945 0.05159,-0.179282 0.077428,-0.377911 0.077513,-0.595817 0,0 0,-5.3e-4 0,-5.3e-4 0,0 0,-5.29e-4 0,-5.29e-4 -8.43e-5,-0.220492 -0.025921,-0.419386 -0.077513,-0.597368 C 7.1728047,10.235864 7.0952923,10.082639 6.9906501,9.9560348 6.8873021,9.8281343 6.7563021,9.7299544 6.5973999,9.661485 6.438512,9.5917229 6.2506634,9.5565838 6.0336213,9.5565838 Z m 0,0.4986683 c 0.1136926,0 0.2110933,0.02222 0.2924829,0.06615 0.081388,0.04392 0.1477914,0.106968 0.199467,0.189648 0.052967,0.08269 0.091724,0.18345 0.1162696,0.302302 0.025836,0.117564 0.038756,0.250885 0.038756,0.399451 0,0.148564 -0.012919,0.282147 -0.038756,0.401001 -0.024545,0.117552 -0.063303,0.217553 -0.1162696,0.300234 -0.051676,0.08139 -0.1188535,0.144175 -0.2015342,0.188098 -0.081391,0.04392 -0.1795713,0.06563 -0.2945498,0.06563 -0.1123875,0 -0.2090262,-0.0217 -0.2904157,-0.06563 -0.081388,-0.04392 -0.1493417,-0.106709 -0.2036011,-0.188099 -0.052969,-0.08267 -0.0925,-0.182673 -0.1183368,-0.300234 -0.025836,-0.11885 -0.038756,-0.252433 -0.038756,-0.401001 0,-0.148568 0.012919,-0.281888 0.038756,-0.399451 0.025839,-0.118857 0.06537,-0.21962 0.1183368,-0.302301 0.05426,-0.08268 0.1224706,-0.145724 0.2051512,-0.189649 0.082688,-0.04392 0.180605,-0.06615 0.2930002,-0.06614 z m 2.9801211,0.171045 c -0.062012,0 -0.1224713,0.0062 -0.1818974,0.01912 -0.059428,0.01163 -0.1154953,0.03049 -0.168462,0.05633 -0.052967,0.02584 -0.1020586,0.05865 -0.147275,0.0987 -0.043923,0.04005 -0.081647,0.08811 -0.1126523,0.143657 H 8.3703834 L 8.2913201,10.267147 H 7.839677 v 2.166233 h 0.5911667 v -1.019039 c 0,-0.114973 0.0062,-0.217295 0.019121,-0.306435 0.012919,-0.08914 0.034364,-0.164069 0.064078,-0.224788 0.031005,-0.06072 0.072345,-0.106452 0.1240209,-0.137457 0.051676,-0.03101 0.1162702,-0.04651 0.1937829,-0.04651 0.1033513,0 0.1782804,0.03953 0.2247879,0.118337 0.047801,0.07752 0.071829,0.194041 0.071829,0.350359 v 1.265531 h 0.59065 v -1.412806 c 0,-0.139527 -0.016536,-0.258636 -0.050125,-0.35811 C 9.6353994,10.561695 9.5873404,10.479014 9.5253304,10.41442 9.4633204,10.34983 9.389165,10.302543 9.3026093,10.272829 9.2160553,10.241819 9.119679,10.226319 9.0137437,10.226319 Z m 2.1858706,10e-4 c -0.147268,0 -0.281631,0.02403 -0.403069,0.07183 -0.12015,0.0478 -0.223496,0.119371 -0.310052,0.21497 -0.08526,0.0943 -0.151667,0.212385 -0.199467,0.354493 -0.0478,0.142096 -0.07183,0.308237 -0.07183,0.498151 0,0.187318 0.02584,0.350875 0.07751,0.4904 0.05297,0.138229 0.126862,0.252951 0.221171,0.344675 0.0943,0.09043 0.206442,0.158385 0.336923,0.203601 0.130488,0.04522 0.273363,0.0677 0.428389,0.0677 v 0.001 c 0.08008,0 0.153968,-0.0038 0.221171,-0.01085 0.06718,-0.0052 0.129447,-0.01396 0.187582,-0.02687 0.05814,-0.01292 0.113169,-0.02842 0.164845,-0.04651 0.05297,-0.01938 0.105417,-0.04263 0.157093,-0.06976 V 11.86288 c -0.05684,0.02842 -0.112652,0.05348 -0.166912,0.07545 -0.05426,0.02066 -0.108777,0.03797 -0.164328,0.05219 -0.05555,0.01422 -0.113168,0.02533 -0.172595,0.03307 -0.05813,0.0065 -0.120145,0.0098 -0.186032,0.0098 -0.07881,0 -0.149342,-0.01214 -0.211352,-0.03669 -0.06072,-0.02455 -0.11317,-0.05969 -0.157093,-0.104902 -0.04263,-0.04651 -0.07622,-0.102577 -0.100768,-0.168462 -0.02325,-0.06718 -0.03617,-0.142107 -0.03876,-0.224788 h 1.321857 v -0.286799 c 0,-0.157603 -0.02222,-0.297133 -0.06614,-0.41857 -0.04263,-0.122715 -0.104641,-0.226061 -0.186031,-0.310033 -0.0801,-0.08397 -0.17828,-0.147533 -0.29455,-0.190165 -0.11497,-0.04392 -0.244166,-0.06563 -0.387565,-0.06563 z m 0.0041,0.420121 c 0.06201,0 0.116269,0.01189 0.162777,0.03514 0.04651,0.02325 0.08527,0.05529 0.11627,0.09663 0.03101,0.04005 0.05426,0.08811 0.06976,0.143658 0.01551,0.05555 0.02352,0.116012 0.0248,0.181897 h -0.753432 c 0.01034,-0.157601 0.04935,-0.273102 0.117819,-0.34674 0.06976,-0.07364 0.157352,-0.110585 0.261995,-0.110585 z"
     id="path5" />
</svg>
