<?xml version="1.0" encoding="UTF-8" standalone="no"?>
<svg
   width="64"
   height="64"
   version="1.1"
   viewBox="0 0 16.933 16.933"
   id="svg7"
   sodipodi:docname="abcd.svg"
   inkscape:version="1.4.3 (0d15f75042, 2025-12-25)"
   xmlns:inkscape="http://www.inkscape.org/namespaces/inkscape"
   xmlns:sodipodi="http://sodipodi.sourceforge.net/DTD/sodipodi-0.dtd"
   xmlns="http://www.w3.org/2000/svg"
   xmlns:svg="http://www.w3.org/2000/svg"
   xmlns:rdf="http://www.w3.org/1999/02/22-rdf-syntax-ns#"
   xmlns:cc="http://creativecommons.org/ns#"
   xmlns:dc="http://purl.org/dc/elements/1.1/">
  <sodipodi:namedview
     id="namedview7"
     pagecolor="#9c4444"
     bordercolor="#000000"
     borderopacity="0.25"
     inkscape:showpageshadow="2"
     inkscape:pageopacity="0.0"
     inkscape:pagecheckerboard="0"
     inkscape:deskcolor="#d1d1d1"
     inkscape:zoom="4.3531261"
     inkscape:cx="38.133515"
     inkscape:cy="27.106957"
     inkscape:window-width="1226"
     inkscape:window-height="669"
     inkscape:window-x="100"
     inkscape:window-y="206"
     inkscape:window-maximized="0"
     inkscape:current-layer="svg7"
     showgrid="false" />
  <defs
     id="defs2">
    <filter
       style="color-interpolation-filters:sRGB;"
       inkscape:label="Blur"
       id="filter5421"
       x="-0.12256455"
       y="-0.12342654"
       width="1.2451291"
       height="1.2468531">
      <feGaussianBlur
         stdDeviation="0.5 0.5"
         result="blur"
         id="feGaussianBlur5419" />
    </filter>
  </defs>
  <metadata
     id="metadata2">
    <rdf:RDF>
      <cc:Work
         rdf:about="">
        <dc:format>image/svg+xml</dc:format>
        <dc:type
           rdf:resource="http://purl.org/dc/dcmitype/StillImage" />
      </cc:Work>
    </rdf:RDF>
  </metadata>
  <rect
     style="opacity:0.3;fill:none;fill-opacity:0.996424;stroke:#000000;stroke-width:0.955221;stroke-dasharray:none;stroke-opacity:1;filter:url(#filter5421)"
     id="rect1-2-7"
     width="13.687567"
     height="13.591975"
     x="1.6227165"
     y="1.6705122"
     rx="2.8442214"
     ry="2.965905" />
  <rect
     style="fill:none;fill-opacity:1;stroke:{{colors.primary.default.hex}};stroke-width:0.955221;stroke-dasharray:none;stroke-opacity:1"
     id="rect1-2"
     width="13.687567"
     height="13.591975"
     x="1.6227167"
     y="1.6705124"
     rx="2.8442214"
     ry="2.965905" />
  <path
     style="fill:{{colors.primary.default.hex}};fill-opacity:1;stroke:none;stroke-width:0.126704;stroke-dasharray:none;stroke-dashoffset:2.2;stroke-opacity:0.6"
     d="M 6.2938292,12.029796 5.9125536,11.547508 5.546936,11.547391 C 5.1129497,11.547253 5.0051278,11.504109 4.9480736,11.307813 4.9237094,11.224001 4.9164301,10.236027 4.9230342,7.911786 L 4.9323579,4.6339502 5.0486034,4.5274257 5.1648477,4.4209012 h 3.2852232 c 3.6072461,0 3.4136891,-0.010232 3.5150071,0.1857051 0.04134,0.079922 0.04719,0.5040913 0.04719,3.4066824 v 3.3153943 l -0.09081,0.101633 -0.09081,0.101622 -2.1798669,0.0085 -2.179872,0.0085 -0.3801759,0.481749 c -0.2090894,0.264948 -0.3881529,0.4817 -0.3979123,0.481657 -0.00972,-4.6e-5 -0.189318,-0.217111 -0.3990204,-0.482368 z m 0.2744005,-1.634843 c 0.054274,-0.02903 0.060195,-0.06823 0.060195,-0.3983438 0,-0.2432717 -0.012531,-0.3786593 -0.037346,-0.4034716 -0.051501,-0.051501 -0.7451864,-0.051501 -0.7966853,0 -0.024608,0.024621 -0.037347,0.1564921 -0.037347,0.3867838 0,0.4528476 -0.00532,0.4472476 0.4243963,0.4472476 0.1796246,0 0.3536769,-0.0145 0.3867851,-0.03222 z m 4.4077843,-0.02874 C 11.20666,10.22557 11.250927,9.8899716 11.06552,9.6876178 L 10.959,9.5713705 9.3694946,9.5627625 C 7.972598,9.5552077 7.7685003,9.560086 7.6851984,9.6031736 7.393769,9.7538785 7.3969213,10.22944 7.6903292,10.37397 c 0.093733,0.04619 0.27232,0.05185 1.6456088,0.05239 1.473647,6.18e-4 1.544789,-0.002 1.640098,-0.06017 z M 6.5592587,8.3870069 c 0.064423,-0.04512 0.069166,-0.07218 0.069166,-0.3943364 0,-0.4608277 0.00106,-0.4597142 -0.4302811,-0.4597142 -0.4430121,0 -0.4410962,-0.00193 -0.4410962,0.4543072 0,0.4430803 0.00503,0.448189 0.435688,0.448189 0.2187636,0 0.3156387,-0.01281 0.3665233,-0.048446 z m 4.3779983,-0.013136 c 0.158345,-0.076654 0.23996,-0.2098183 0.23996,-0.3915439 0,-0.1736971 -0.08064,-0.3155134 -0.222551,-0.3913909 -0.101488,-0.054264 -0.204799,-0.05798 -1.6114863,-0.05798 -1.6212547,0 -1.6249761,4.288e-4 -1.7778281,0.1661359 -0.095381,0.1034586 -0.1241049,0.3440741 -0.056641,0.4745356 0.0613,0.1185415 0.1498545,0.1968032 0.2600516,0.2298257 0.048909,0.01466 0.7532079,0.027855 1.5651076,0.029323 1.4102842,0.00254 1.4818582,-7.44e-5 1.6033872,-0.058905 z M 6.5910795,6.3752732 c 0.0515,-0.051501 0.0515,-0.7451855 0,-0.7966861 -0.051501,-0.051501 -0.7451858,-0.051501 -0.7966858,0 -0.051501,0.051502 -0.051501,0.7451855 0,0.7966861 0.0515,0.051502 0.7451854,0.051502 0.7966858,0 z m 4.3621955,-0.00888 c 0.303451,-0.1569216 0.303451,-0.6220309 0,-0.7789531 -0.136667,-0.070675 -3.1326851,-0.068857 -3.2696726,0.00198 -0.2776682,0.1435873 -0.2889297,0.5975609 -0.018903,0.7622022 0.09529,0.058099 0.1672092,0.060752 1.6494253,0.060864 1.3098873,9.86e-5 1.5636243,-0.00703 1.6391553,-0.046095 z"
     id="path79" />
</svg>
