<?xml version="1.0" encoding="UTF-8" standalone="no"?>
<svg
   width="64"
   height="64"
   version="1.1"
   viewBox="0 0 16.933 16.933"
   id="svg7"
   sodipodi:docname="accessories-text-editor.svg"
   inkscape:version="1.4.3 (0d15f75042, 2025-12-25)"
   xmlns:inkscape="http://www.inkscape.org/namespaces/inkscape"
   xmlns:sodipodi="http://sodipodi.sourceforge.net/DTD/sodipodi-0.dtd"
   xmlns="http://www.w3.org/2000/svg"
   xmlns:svg="http://www.w3.org/2000/svg"
   xmlns:rdf="http://www.w3.org/1999/02/22-rdf-syntax-ns#"
   xmlns:cc="http://creativecommons.org/ns#"
   xmlns:dc="http://purl.org/dc/elements/1.1/">
  <sodipodi:namedview
     id="namedview7"
     pagecolor="#9c4444"
     bordercolor="#000000"
     borderopacity="0.25"
     inkscape:showpageshadow="2"
     inkscape:pageopacity="0.0"
     inkscape:pagecheckerboard="0"
     inkscape:deskcolor="#d1d1d1"
     inkscape:zoom="4.3531261"
     inkscape:cx="43.417074"
     inkscape:cy="20.904517"
     inkscape:window-width="1226"
     inkscape:window-height="669"
     inkscape:window-x="474"
     inkscape:window-y="225"
     inkscape:window-maximized="0"
     inkscape:current-layer="svg7"
     showgrid="false" />
  <defs
     id="defs2">
    <filter
       style="color-interpolation-filters:sRGB;"
       inkscape:label="Blur"
       id="filter5421"
       x="-0.12256455"
       y="-0.12342654"
       width="1.2451291"
       height="1.2468531">
      <feGaussianBlur
         stdDeviation="0.5 0.5"
         result="blur"
         id="feGaussianBlur5419" />
    </filter>
  </defs>
  <metadata
     id="metadata2">
    <rdf:RDF>
      <cc:Work
         rdf:about="">
        <dc:format>image/svg+xml</dc:format>
        <dc:type
           rdf:resource="http://purl.org/dc/dcmitype/StillImage" />
      </cc:Work>
    </rdf:RDF>
  </metadata>
  <rect
     style="opacity:0.3;fill:none;fill-opacity:0.996424;stroke:#000000;stroke-width:0.955221;stroke-dasharray:none;stroke-opacity:1;filter:url(#filter5421)"
     id="rect1-2-7"
     width="13.687567"
     height="13.591975"
     x="1.6227165"
     y="1.6705122"
     rx="2.8442214"
     ry="2.965905" />
  <rect
     style="fill:none;fill-opacity:1;stroke:{{colors.primary.default.hex}};stroke-width:0.955221;stroke-dasharray:none;stroke-opacity:1"
     id="rect1-2"
     width="13.687567"
     height="13.591975"
     x="1.6227167"
     y="1.6705124"
     rx="2.8442214"
     ry="2.965905" />
  <path
     id="path6"
     style="fill:{{colors.primary.default.hex}};stroke:none;stroke-width:0.0129643;stroke-opacity:1;fill-opacity:1"
     d="m 6.2153178,4.4799501 c -1.6660441,0 -1.6837158,3.276e-4 -1.7093779,0.02599 -0.025662,0.025662 -0.025991,0.043334 -0.025991,1.709378 0,1.5869996 0.0014,1.6843484 0.022792,1.7029805 0.012478,0.010869 0.031288,0.023217 0.041985,0.02719 0.010694,0.00397 0.7704153,0.00607 1.6881856,0.0048 1.5829027,-0.00218 1.6698256,-0.00364 1.6917845,-0.02559 0.021982,-0.021986 0.023191,-0.1077324 0.023191,-1.7065791 0,-1.6373333 -7.815e-4,-1.6844366 -0.024791,-1.7109774 L 7.898704,4.4799511 Z m 2.8189745,0 -0.024392,0.02719 c -0.023979,0.026494 -0.025101,0.075661 -0.028389,1.6905848 -0.0022,1.0820837 0.00118,1.6752742 0.0096,1.6973823 0.00711,0.018691 0.026238,0.039496 0.042384,0.045983 0.01706,0.00686 0.7250296,0.011925 1.6901847,0.012396 l 1.660996,7.969e-4 0.03398,-0.026791 0.03438,-0.026791 v -1.684583 c 0,-1.6671122 -3.27e-4,-1.6845154 -0.02599,-1.7101776 -0.02566,-0.025661 -0.04333,-0.02599 -1.709377,-0.02599 z M 8.1618098,5.8154642 V 6.217318 6.6191716 h 0.304689 0.3046891 V 6.217318 5.8154642 H 8.4664988 Z M 5.8154634,8.1618105 V 8.4664996 8.7711888 H 6.2173173 6.6191708 V 8.4664996 8.1618105 H 6.2173173 Z m 4.4983636,0 v 0.3046891 0.3046892 h 0.401853 0.401854 V 8.4664996 8.1618105 H 10.71568 Z m -4.09571,0.8233003 c -1.6373334,0 -1.6844367,7.817e-4 -1.7109775,0.024791 l -0.02719,0.024391 v 1.6833882 c 0,1.666044 3.277e-4,1.683715 0.02599,1.709377 0.025662,0.02566 0.043065,0.02598 1.7101776,0.02598 h 1.6845871 l 0.026791,-0.03438 0.02719,-0.03438 -0.00318,-1.676591 C 7.9482762,9.11813 7.9466464,9.0302509 7.9246959,9.0083023 7.9027099,8.9863205 7.8169639,8.9851108 6.218117,8.9851108 Z m 4.496765,0 c -1.5988903,0 -1.684594,0.00121 -1.7065805,0.023191 -0.021983,0.021986 -0.023191,0.1076902 -0.023191,1.7065812 0,1.637332 7.815e-4,1.684435 0.024791,1.710975 l 0.024391,0.02718 h 1.6833885 c 1.666043,0 1.683715,-3.29e-4 1.709377,-0.02598 0.02566,-0.02567 0.02598,-0.04333 0.02598,-1.709377 V 9.0342931 l -0.02718,-0.024392 c -0.02654,-0.024021 -0.07365,-0.02479 -1.71098,-0.02479 z M 8.1618098,10.313827 v 0.401854 0.401854 h 0.304689 0.3046891 V 10.715681 10.313827 H 8.4664988 Z" />
</svg>
