<?xml version="1.0" encoding="UTF-8" standalone="no"?>
<svg
   width="64"
   height="64"
   version="1.1"
   viewBox="0 0 16.933 16.933"
   id="svg7"
   sodipodi:docname="accessories-text-editor.svg"
   inkscape:version="1.4.3 (0d15f75042, 2025-12-25)"
   xmlns:inkscape="http://www.inkscape.org/namespaces/inkscape"
   xmlns:sodipodi="http://sodipodi.sourceforge.net/DTD/sodipodi-0.dtd"
   xmlns="http://www.w3.org/2000/svg"
   xmlns:svg="http://www.w3.org/2000/svg"
   xmlns:rdf="http://www.w3.org/1999/02/22-rdf-syntax-ns#"
   xmlns:cc="http://creativecommons.org/ns#"
   xmlns:dc="http://purl.org/dc/elements/1.1/">
  <sodipodi:namedview
     id="namedview7"
     pagecolor="#9c4444"
     bordercolor="#000000"
     borderopacity="0.25"
     inkscape:showpageshadow="2"
     inkscape:pageopacity="0.0"
     inkscape:pagecheckerboard="0"
     inkscape:deskcolor="#d1d1d1"
     inkscape:zoom="4.3531261"
     inkscape:cx="43.417074"
     inkscape:cy="20.904517"
     inkscape:window-width="1226"
     inkscape:window-height="669"
     inkscape:window-x="474"
     inkscape:window-y="225"
     inkscape:window-maximized="0"
     inkscape:current-layer="svg7"
     showgrid="false" />
  <defs
     id="defs2">
    <filter
       style="color-interpolation-filters:sRGB;"
       inkscape:label="Blur"
       id="filter5421"
       x="-0.12256455"
       y="-0.12342654"
       width="1.2451291"
       height="1.2468531">
      <feGaussianBlur
         stdDeviation="0.5 0.5"
         result="blur"
         id="feGaussianBlur5419" />
    </filter>
  </defs>
  <metadata
     id="metadata2">
    <rdf:RDF>
      <cc:Work
         rdf:about="">
        <dc:format>image/svg+xml</dc:format>
        <dc:type
           rdf:resource="http://purl.org/dc/dcmitype/StillImage" />
      </cc:Work>
    </rdf:RDF>
  </metadata>
  <rect
     style="opacity:0.3;fill:none;fill-opacity:0.996424;stroke:#000000;stroke-width:0.955221;stroke-dasharray:none;stroke-opacity:1;filter:url(#filter5421)"
     id="rect1-2-7"
     width="13.687567"
     height="13.591975"
     x="1.6227165"
     y="1.6705122"
     rx="2.8442214"
     ry="2.965905" />
  <rect
     style="fill:none;fill-opacity:1;stroke:{{colors.primary.default.hex}};stroke-width:0.955221;stroke-dasharray:none;stroke-opacity:1"
     id="rect1-2"
     width="13.687567"
     height="13.591975"
     x="1.6227167"
     y="1.6705124"
     rx="2.8442214"
     ry="2.965905" />
  <path
     id="path7"
     style="fill:{{colors.primary.default.hex}};fill-opacity:1;stroke:none;stroke-width:0.0167543;stroke-opacity:1"
     d="M 4.3701899,12.294615 V 8.4665003 4.6383851 H 5.2915625 6.2129352 V 8.4665003 12.294615 H 5.2915625 Z m 2.1274769,0 V 8.4665003 4.6383851 H 7.4107714 8.323876 V 8.4665003 12.294615 H 7.4107714 Z m 2.1114572,0 V 8.4665003 4.6383851 H 9.5222286 10.435333 V 8.4665003 12.294615 H 9.5222286 Z m 2.110941,0 V 8.4665003 4.6383851 h 0.921372 0.921373 V 8.4665003 12.294615 H 11.641437 Z M 6.5984337,10.853905 H 7.4025033 8.2065726 V 7.8045383 4.7551721 H 7.4025033 6.5984337 V 7.8045383 Z M 10.837368,9.530497 h 0.804069 0.80407 V 7.143093 4.7551721 h -0.80407 -0.804069 V 7.143093 Z M 8.7264273,7.9388942 H 9.5304967 10.334566 V 6.3472911 4.7551721 H 9.5304967 8.7264273 v 1.592119 z M 4.4874931,5.8279541 H 5.2915625 6.0956319 V 5.2915631 4.7551721 H 5.2915625 4.4874931 v 0.536391 z" />
</svg>
