<?xml version="1.0" encoding="UTF-8" standalone="no"?>
<svg
   width="64"
   height="64"
   version="1.1"
   viewBox="0 0 16.933 16.933"
   id="svg7"
   sodipodi:docname="fr.handbrake.ghb.svg"
   inkscape:version="1.4.3 (0d15f75042, 2025-12-25)"
   xmlns:inkscape="http://www.inkscape.org/namespaces/inkscape"
   xmlns:sodipodi="http://sodipodi.sourceforge.net/DTD/sodipodi-0.dtd"
   xmlns="http://www.w3.org/2000/svg"
   xmlns:svg="http://www.w3.org/2000/svg"
   xmlns:rdf="http://www.w3.org/1999/02/22-rdf-syntax-ns#"
   xmlns:cc="http://creativecommons.org/ns#"
   xmlns:dc="http://purl.org/dc/elements/1.1/">
  <sodipodi:namedview
     id="namedview7"
     pagecolor="#9c4444"
     bordercolor="#000000"
     borderopacity="0.25"
     inkscape:showpageshadow="2"
     inkscape:pageopacity="0.0"
     inkscape:pagecheckerboard="0"
     inkscape:deskcolor="#d1d1d1"
     inkscape:zoom="4.3531261"
     inkscape:cx="43.417074"
     inkscape:cy="20.215357"
     inkscape:window-width="1226"
     inkscape:window-height="669"
     inkscape:window-x="56"
     inkscape:window-y="196"
     inkscape:window-maximized="0"
     inkscape:current-layer="svg7"
     showgrid="false" />
  <defs
     id="defs2">
    <filter
       style="color-interpolation-filters:sRGB;"
       inkscape:label="Blur"
       id="filter5421"
       x="-0.12256455"
       y="-0.12342654"
       width="1.2451291"
       height="1.2468531">
      <feGaussianBlur
         stdDeviation="0.5 0.5"
         result="blur"
         id="feGaussianBlur5419" />
    </filter>
    <filter
       style="color-interpolation-filters:sRGB"
       inkscape:label="Blur"
       id="filter5421-3"
       x="-0.12256455"
       y="-0.12342654"
       width="1.2451291"
       height="1.2468531">
      <feGaussianBlur
         stdDeviation="0.5 0.5"
         result="blur"
         id="feGaussianBlur5419-6" />
    </filter>
  </defs>
  <metadata
     id="metadata2">
    <rdf:RDF>
      <cc:Work
         rdf:about="">
        <dc:format>image/svg+xml</dc:format>
        <dc:type
           rdf:resource="http://purl.org/dc/dcmitype/StillImage" />
      </cc:Work>
    </rdf:RDF>
  </metadata>
  <rect
     style="opacity:0.3;fill:none;fill-opacity:0.996424;stroke:#000000;stroke-width:0.955221;stroke-dasharray:none;stroke-opacity:1;filter:url(#filter5421)"
     id="rect1-2-7"
     width="13.687567"
     height="13.591975"
     x="1.6227165"
     y="1.6705122"
     rx="2.8442214"
     ry="2.965905" />
  <rect
     style="fill:none;fill-opacity:1;stroke:{{colors.primary.default.hex}};stroke-width:0.955221;stroke-dasharray:none;stroke-opacity:1"
     id="rect1-2"
     width="13.687567"
     height="13.591975"
     x="1.6227167"
     y="1.6705124"
     rx="2.8442214"
     ry="2.965905" />
  <path
     id="path1"
     style="fill:{{colors.primary.default.hex}};fill-opacity:1;stroke:none;stroke-width:0.126729;stroke-dasharray:none;stroke-opacity:0.6"
     d="m 5.3022583,4.7235464 c -0.2212248,0 -0.2957806,0.1645031 -0.298011,0.658893 l -0.00105,0.2747443 -0.3777121,0.011878 c -0.4533602,0.014362 -0.5493746,0.049641 -0.580182,0.2138553 -0.022981,0.1224923 0.026532,0.2329587 0.1272249,0.28316 0.036101,0.018001 0.2377233,0.041706 0.4480067,0.052969 l 0.3826625,0.020298 v 0.2499926 c 0,0.3503009 0.040019,0.5419279 0.129699,0.620775 0.097382,0.085619 0.2425122,0.084368 0.3440475,-0.00297 0.088478,-0.076101 0.1181095,-0.2305728 0.1222766,-0.6380981 l 0.00197,-0.2351424 0.1782129,-0.00194 c 0.097966,-9.849e-4 0.2852592,-0.011788 0.4158364,-0.024264 0.2698248,-0.025778 0.338017,-0.069845 0.3648417,-0.2351424 0.013806,-0.085104 0.00267,-0.1168769 -0.069801,-0.1980138 l -0.086127,-0.096531 -0.4014741,-0.0099 -0.4014742,-0.0099 -0.00194,-0.2465279 C 5.594802,4.884299 5.5254441,4.7235753 5.302232,4.7235753 Z M 11.719407,5.66857 c -1.095725,-0.011809 -1.284637,0.00213 -1.37719,0.1019773 -0.108898,0.1175022 -0.08202,0.3070316 0.05445,0.3836524 0.03492,0.019594 0.198289,0.044302 0.362862,0.05495 0.494002,0.031954 1.782105,0.00264 1.891532,-0.043068 0.182955,-0.076444 0.201464,-0.3049387 0.03514,-0.429195 -0.07475,-0.055842 -0.121982,-0.059211 -0.966804,-0.068316 z m -5.7216228,5.009761 c -0.099725,0.005 -0.2116036,0.100599 -0.4866206,0.363852 L 5.292358,11.251583 5.1547379,11.103567 C 4.9290598,10.860976 4.6956063,10.679203 4.6097035,10.67932 c -0.1005619,1.4e-4 -0.2517202,0.09406 -0.2762297,0.171282 -0.036054,0.113596 0.014239,0.198235 0.2900912,0.485632 l 0.2752395,0.286624 -0.1990035,0.204945 c -0.4169472,0.429264 -0.4486277,0.49788 -0.2975168,0.648991 0.096683,0.09668 0.2333778,0.111066 0.3450394,0.03615 0.038753,-0.02599 0.1814168,-0.154627 0.3168229,-0.285634 l 0.2460328,-0.238113 0.195539,0.203955 C 5.8757661,12.57912 6.0351097,12.64393 6.2022339,12.476807 6.3533201,12.325713 6.3217392,12.254751 5.9195677,11.842165 L 5.7057125,11.622858 5.9789719,11.338213 c 0.1502326,-0.15652 0.2814239,-0.311983 0.2920721,-0.345535 0.027808,-0.08762 -0.03748,-0.223573 -0.1306901,-0.271773 -0.054311,-0.02808 -0.09724,-0.04479 -0.1425697,-0.04258 z" />
  <rect
     style="opacity:0.3;fill:none;fill-opacity:0.996424;stroke:#000000;stroke-width:0.955221;stroke-dasharray:none;stroke-opacity:1;filter:url(#filter5421-3)"
     id="rect1-2-7-5"
     width="13.687567"
     height="13.591975"
     x="1.6227165"
     y="1.6705122"
     rx="2.8442214"
     ry="2.965905"
     transform="matrix(0.43046721,0,0,0.43046721,9.5627021,9.5627021)" />
  <rect
     style="fill:none;fill-opacity:1;stroke:{{colors.primary.default.hex}};stroke-width:0.411191;stroke-dasharray:none;stroke-opacity:1"
     id="rect1-2-3"
     width="5.8920484"
     height="5.8508992"
     x="10.261228"
     y="10.281802"
     rx="1.224344"
     ry="1.2767248" />
  <path
     id="path2-59"
     style="fill:{{colors.primary.default.hex}};fill-opacity:1;stroke:none;stroke-width:0.111361;stroke-dasharray:none;stroke-opacity:0.6"
     d="m 11.533665,12.286146 v 0.25794 0.257512 h 1.73054 1.730113 v -0.257512 -0.25794 h -1.730113 z m 0,1.521631 v 0.257938 0.257513 h 1.73054 1.730113 v -0.257513 -0.257938 h -1.730113 z" />
</svg>
