<?xml version="1.0" encoding="UTF-8" standalone="no"?>
<svg
   width="64"
   height="64"
   version="1.1"
   viewBox="0 0 16.933 16.933"
   id="svg7"
   sodipodi:docname="accessories-text-editor.svg"
   inkscape:version="1.4.3 (0d15f75042, 2025-12-25)"
   xmlns:inkscape="http://www.inkscape.org/namespaces/inkscape"
   xmlns:sodipodi="http://sodipodi.sourceforge.net/DTD/sodipodi-0.dtd"
   xmlns="http://www.w3.org/2000/svg"
   xmlns:svg="http://www.w3.org/2000/svg"
   xmlns:rdf="http://www.w3.org/1999/02/22-rdf-syntax-ns#"
   xmlns:cc="http://creativecommons.org/ns#"
   xmlns:dc="http://purl.org/dc/elements/1.1/">
  <sodipodi:namedview
     id="namedview7"
     pagecolor="#9c4444"
     bordercolor="#000000"
     borderopacity="0.25"
     inkscape:showpageshadow="2"
     inkscape:pageopacity="0.0"
     inkscape:pagecheckerboard="0"
     inkscape:deskcolor="#d1d1d1"
     inkscape:zoom="4.3531261"
     inkscape:cx="43.417074"
     inkscape:cy="20.904517"
     inkscape:window-width="1226"
     inkscape:window-height="669"
     inkscape:window-x="474"
     inkscape:window-y="225"
     inkscape:window-maximized="0"
     inkscape:current-layer="svg7"
     showgrid="false" />
  <defs
     id="defs2">
    <filter
       style="color-interpolation-filters:sRGB;"
       inkscape:label="Blur"
       id="filter5421"
       x="-0.12256455"
       y="-0.12342654"
       width="1.2451291"
       height="1.2468531">
      <feGaussianBlur
         stdDeviation="0.5 0.5"
         result="blur"
         id="feGaussianBlur5419" />
    </filter>
  </defs>
  <metadata
     id="metadata2">
    <rdf:RDF>
      <cc:Work
         rdf:about="">
        <dc:format>image/svg+xml</dc:format>
        <dc:type
           rdf:resource="http://purl.org/dc/dcmitype/StillImage" />
      </cc:Work>
    </rdf:RDF>
  </metadata>
  <rect
     style="opacity:0.3;fill:none;fill-opacity:0.996424;stroke:#000000;stroke-width:0.955221;stroke-dasharray:none;stroke-opacity:1;filter:url(#filter5421)"
     id="rect1-2-7"
     width="13.687567"
     height="13.591975"
     x="1.6227165"
     y="1.6705122"
     rx="2.8442214"
     ry="2.965905" />
  <rect
     style="fill:none;fill-opacity:1;stroke:{{colors.primary.default.hex}};stroke-width:0.955221;stroke-dasharray:none;stroke-opacity:1"
     id="rect1-2"
     width="13.687567"
     height="13.591975"
     x="1.6227167"
     y="1.6705124"
     rx="2.8442214"
     ry="2.965905" />
  <path
     id="path12"
     style="fill:{{colors.primary.default.hex}};stroke:none;stroke-width:0.0136466;stroke-dasharray:none;stroke-opacity:1;fill-opacity:1"
     d="m 5.4051357,10.429182 -0.028201,0.03577 c -0.027359,0.03479 -0.0282,0.0508 -0.02778,0.494557 4.525e-4,0.479257 5.085e-4,0.482818 0.060609,0.517285 0.038655,0.02216 0.8979209,0.02296 0.9394477,8.15e-4 0.062778,-0.03341 0.062682,-0.03568 0.063134,-0.518103 4.099e-4,-0.44376 -4.091e-4,-0.459772 -0.027779,-0.494555 l -0.028201,-0.03577 H 5.8807521 Z m 2.2034089,0 c -0.4416378,0 -0.4713943,0.0015 -0.5017122,0.0261 l -0.031988,0.0261 -0.00336,0.454992 c -0.00374,0.488183 -0.00198,0.505651 0.064818,0.540014 0.025873,0.0133 0.1413089,0.01656 0.489085,0.01389 l 0.4549925,-0.0038 0.026096,-0.03199 c 0.024543,-0.03032 0.026096,-0.06008 0.026096,-0.501712 0,-0.451096 -0.00112,-0.470005 -0.027358,-0.496241 -0.026234,-0.02624 -0.045566,-0.02735 -0.4966615,-0.02735 z m 1.716428,0 c -0.4510963,0 -0.4704267,10e-4 -0.4966614,0.02735 -0.026216,0.02623 -0.027358,0.04535 -0.027358,0.492031 0,0.302837 0.00526,0.474334 0.014733,0.49203 0.008,0.01493 0.027797,0.03281 0.044194,0.03956 0.016398,0.0067 0.2338322,0.01081 0.4831925,0.0092 0.451849,-0.0028 0.4534935,-0.0027 0.4844559,-0.03367 l 0.031149,-0.03114 v -0.471824 -0.471408 l -0.031989,-0.0261 c -0.030325,-0.02456 -0.05998,-0.0261 -0.5017119,-0.0261 z m 1.2521764,0 -0.0282,0.03577 c -0.02734,0.03479 -0.0282,0.0508 -0.02778,0.494557 4.52e-4,0.479257 5.17e-4,0.482818 0.06061,0.517285 0.03866,0.02216 0.897922,0.02296 0.939448,8.15e-4 0.06279,-0.03344 0.06268,-0.03571 0.06313,-0.518127 4.09e-4,-0.44376 -4.11e-4,-0.459774 -0.02779,-0.494557 l -0.0282,-0.03577 h -0.475605 z m -5.6661493,0.763932 c -0.3074507,0 -0.4236268,0.03526 -0.5728441,0.173411 -0.2582466,0.239091 -0.2583858,0.656003 -4.203e-4,0.894833 0.088115,0.08158 0.1738101,0.129014 0.2803191,0.154891 0.094883,0.02305 7.5701986,0.02674 7.6793116,0.0039 0.48622,-0.102268 0.660354,-0.718033 0.297996,-1.053512 -0.14942,-0.138377 -0.265422,-0.173451 -0.574527,-0.173451 H 11.81712 v 0.113643 c 0,0.146654 -0.02702,0.236419 -0.09091,0.302206 -0.0995,0.102456 -0.09846,0.102279 -0.67344,0.102279 -0.559906,0 -0.568861,-0.0011 -0.657445,-0.08461 -0.07201,-0.06779 -0.09776,-0.141057 -0.103962,-0.293367 l -0.0059,-0.14016 h -0.100596 -0.101016 l -4.31e-4,0.14016 c -2.37e-4,0.10575 -0.0061,0.153187 -0.02482,0.194456 -0.03171,0.06963 -0.1219893,0.150833 -0.1889843,0.170464 -0.035469,0.01038 -0.2166931,0.01381 -0.5703185,0.01093 l -0.5185747,-0.0043 -0.061031,-0.04125 c -0.03353,-0.02261 -0.079517,-0.07095 -0.1022786,-0.10772 -0.038284,-0.06185 -0.042026,-0.0779 -0.046299,-0.21466 l -0.00466,-0.148216 H 8.4654901 8.3644742 v 0.133003 c -1.541e-4,0.153808 -0.032025,0.243318 -0.1090132,0.3081 -0.091196,0.07673 -0.096905,0.07744 -0.6507105,0.07744 -0.5599131,0 -0.5569345,4.75e-4 -0.6523942,-0.08333 C 6.87127,11.557108 6.8504285,11.497033 6.8500837,11.333256 L 6.8496526,11.193114 H 6.747374 6.6450955 v 0.113643 c 0,0.146653 -0.027024,0.23642 -0.090914,0.302206 -0.099504,0.102456 -0.098456,0.102278 -0.6734392,0.102278 -0.5599058,0 -0.5688611,-0.0011 -0.657445,-0.0846 -0.071995,-0.06779 -0.097747,-0.141056 -0.103952,-0.293367 l -0.00589,-0.140159 z" />
</svg>
