<?xml version="1.0" encoding="UTF-8" standalone="no"?>
<svg
   width="64"
   height="64"
   version="1.1"
   viewBox="0 0 16.933 16.933"
   id="svg7"
   sodipodi:docname="accessories-text-editor.svg"
   inkscape:version="1.4.3 (0d15f75042, 2025-12-25)"
   xmlns:inkscape="http://www.inkscape.org/namespaces/inkscape"
   xmlns:sodipodi="http://sodipodi.sourceforge.net/DTD/sodipodi-0.dtd"
   xmlns="http://www.w3.org/2000/svg"
   xmlns:svg="http://www.w3.org/2000/svg"
   xmlns:rdf="http://www.w3.org/1999/02/22-rdf-syntax-ns#"
   xmlns:cc="http://creativecommons.org/ns#"
   xmlns:dc="http://purl.org/dc/elements/1.1/">
  <sodipodi:namedview
     id="namedview7"
     pagecolor="#9c4444"
     bordercolor="#000000"
     borderopacity="0.25"
     inkscape:showpageshadow="2"
     inkscape:pageopacity="0.0"
     inkscape:pagecheckerboard="0"
     inkscape:deskcolor="#d1d1d1"
     inkscape:zoom="4.3531261"
     inkscape:cx="41.349595"
     inkscape:cy="22.971997"
     inkscape:window-width="1226"
     inkscape:window-height="669"
     inkscape:window-x="263"
     inkscape:window-y="202"
     inkscape:window-maximized="0"
     inkscape:current-layer="svg7"
     showgrid="false" />
  <defs
     id="defs2">
    <filter
       style="color-interpolation-filters:sRGB;"
       inkscape:label="Blur"
       id="filter5421"
       x="-0.12256455"
       y="-0.12342654"
       width="1.2451291"
       height="1.2468531">
      <feGaussianBlur
         stdDeviation="0.5 0.5"
         result="blur"
         id="feGaussianBlur5419" />
    </filter>
  </defs>
  <metadata
     id="metadata2">
    <rdf:RDF>
      <cc:Work
         rdf:about="">
        <dc:format>image/svg+xml</dc:format>
        <dc:type
           rdf:resource="http://purl.org/dc/dcmitype/StillImage" />
      </cc:Work>
    </rdf:RDF>
  </metadata>
  <rect
     style="opacity:0.3;fill:none;fill-opacity:0.996424;stroke:#000000;stroke-width:0.955221;stroke-dasharray:none;stroke-opacity:1;filter:url(#filter5421)"
     id="rect1-2-7"
     width="13.687567"
     height="13.591975"
     x="1.6227165"
     y="1.6705122"
     rx="2.8442214"
     ry="2.965905" />
  <rect
     style="fill:none;fill-opacity:1;stroke:{{colors.primary.default.hex}};stroke-width:0.955221;stroke-dasharray:none;stroke-opacity:1"
     id="rect1-2"
     width="13.687567"
     height="13.591975"
     x="1.6227167"
     y="1.6705124"
     rx="2.8442214"
     ry="2.965905" />
  <path
     style="fill:{{colors.primary.default.hex}};fill-opacity:1;stroke:none;stroke-width:0.125048;stroke-dasharray:none;stroke-opacity:0.6"
     d="M 8.4576908,4.4555129 A 0.54701039,0.54505582 0 0 0 7.919281,5.0081661 v 3.2703393 a 0.54701039,0.54505582 0 1 0 1.0939115,0 V 5.0081661 A 0.54701039,0.54505582 0 0 0 8.4576908,4.4555129 Z M 6.6394899,5.3671055 A 0.54706882,0.54676717 0 0 0 6.3474958,5.462538 C 4.94513,6.393754 4.3153918,8.1388164 4.7992125,9.7505851 5.2830329,11.362356 6.7690444,12.471656 8.4527054,12.47753 10.136367,12.483404 11.631072,11.384579 12.12614,9.7762236 12.621207,8.1678691 12.002884,6.4184719 10.607056,5.4774941 A 0.54706882,0.54676717 0 1 0 9.9952904,6.3841014 C 10.99562,7.0584596 11.434739,8.3016796 11.079944,9.4543174 10.725152,10.606955 9.6635863,11.38854 8.4569785,11.384331 7.2503714,11.38012 6.1935654,10.590887 5.8468323,9.4358008 5.5000985,8.2807154 5.9478354,7.0414928 6.9528501,6.3741309 A 0.54706882,0.54676717 0 0 0 6.6394899,5.3671055 Z"
     id="path3-5" />
</svg>
