<?xml version="1.0" encoding="UTF-8" standalone="no"?>
<svg
   width="64"
   height="64"
   version="1.1"
   viewBox="0 0 16.933 16.933"
   id="svg7"
   sodipodi:docname="accessories-text-editor.svg"
   inkscape:version="1.4.3 (0d15f75042, 2025-12-25)"
   xmlns:inkscape="http://www.inkscape.org/namespaces/inkscape"
   xmlns:sodipodi="http://sodipodi.sourceforge.net/DTD/sodipodi-0.dtd"
   xmlns="http://www.w3.org/2000/svg"
   xmlns:svg="http://www.w3.org/2000/svg"
   xmlns:rdf="http://www.w3.org/1999/02/22-rdf-syntax-ns#"
   xmlns:cc="http://creativecommons.org/ns#"
   xmlns:dc="http://purl.org/dc/elements/1.1/">
  <sodipodi:namedview
     id="namedview7"
     pagecolor="#9c4444"
     bordercolor="#000000"
     borderopacity="0.25"
     inkscape:showpageshadow="2"
     inkscape:pageopacity="0.0"
     inkscape:pagecheckerboard="0"
     inkscape:deskcolor="#d1d1d1"
     inkscape:zoom="4.3531261"
     inkscape:cx="43.417074"
     inkscape:cy="20.904517"
     inkscape:window-width="1226"
     inkscape:window-height="669"
     inkscape:window-x="474"
     inkscape:window-y="225"
     inkscape:window-maximized="0"
     inkscape:current-layer="svg7"
     showgrid="false" />
  <defs
     id="defs2">
    <filter
       style="color-interpolation-filters:sRGB;"
       inkscape:label="Blur"
       id="filter5421"
       x="-0.12256455"
       y="-0.12342654"
       width="1.2451291"
       height="1.2468531">
      <feGaussianBlur
         stdDeviation="0.5 0.5"
         result="blur"
         id="feGaussianBlur5419" />
    </filter>
  </defs>
  <metadata
     id="metadata2">
    <rdf:RDF>
      <cc:Work
         rdf:about="">
        <dc:format>image/svg+xml</dc:format>
        <dc:type
           rdf:resource="http://purl.org/dc/dcmitype/StillImage" />
      </cc:Work>
    </rdf:RDF>
  </metadata>
  <rect
     style="opacity:0.3;fill:none;fill-opacity:0.996424;stroke:#000000;stroke-width:0.955221;stroke-dasharray:none;stroke-opacity:1;filter:url(#filter5421)"
     id="rect1-2-7"
     width="13.687567"
     height="13.591975"
     x="1.6227165"
     y="1.6705122"
     rx="2.8442214"
     ry="2.965905" />
  <rect
     style="fill:none;fill-opacity:1;stroke:{{colors.primary.default.hex}};stroke-width:0.955221;stroke-dasharray:none;stroke-opacity:1"
     id="rect1-2"
     width="13.687567"
     height="13.591975"
     x="1.6227167"
     y="1.6705124"
     rx="2.8442214"
     ry="2.965905" />
  <path
     id="path18"
     style="fill:{{colors.primary.default.hex}};fill-opacity:1;stroke:none;stroke-width:0.00409395;stroke-opacity:1"
     d="m 4.5373077,4.4919463 -0.05598,0.030305 C 4.4015657,4.5649153 4.3162873,4.6670725 4.291923,4.7491161 4.260849,4.8537577 4.261512,6.0442059 4.2927618,6.1494487 c 0.028943,0.097461 0.1376796,0.2081929 0.2327575,0.2373872 0.058553,0.017979 0.5371746,0.020633 3.936252,0.021466 4.3809977,0.00107 3.9599467,0.012924 4.0869347,-0.1140638 0.115836,-0.1158307 0.115327,-0.1103694 0.115327,-0.8468497 0,-0.5190509 -0.0039,-0.6416223 -0.02062,-0.6982722 -0.02436,-0.082044 -0.109642,-0.1842003 -0.189405,-0.226865 L 12.39803,4.4919464 H 8.4676671 Z m 0.4709866,0.3072565 h 0.3341942 0.334615 v 0.109013 0.109013 H 5.4586565 5.2402099 v 0.1026993 0.1022787 h 0.2184466 0.218447 V 5.3379542 5.4541223 H 5.4586565 5.2402099 V 5.6654139 5.8771264 H 5.1244625 5.0082943 V 5.3379542 Z m 0.8733663,0 h 0.109013 0.109434 V 5.3379542 5.8771264 H 5.9906736 5.8816606 V 5.3379542 Z m 0.4230041,0 h 0.1161682 0.1157473 v 0.4297383 0.4297384 h 0.2117124 0.2112917 v 0.1094339 0.109013 H 6.6321245 6.3046647 V 5.3379542 Z m 0.8598976,0 h 0.3341941 0.3341943 v 0.109013 0.109013 H 7.6149249 7.3964779 v 0.1026993 0.1022787 h 0.218447 0.2180258 V 5.3379542 5.4541223 H 7.6149249 7.3964779 v 0.1022788 0.1022784 h 0.218447 0.2180258 v 0.1094339 0.109013 H 7.4987564 7.1645623 V 5.3379542 Z m 1.9378211,0 h 0.3341944 0.3341944 v 0.109013 0.109013 H 9.5527459 9.334299 V 5.1199281 5.2222068 H 9.5527459 9.7707722 V 5.3379542 5.4541223 H 9.5527459 9.334299 v 0.1022788 0.1022784 h 0.2184469 0.2180263 v 0.1094339 0.109013 H 9.4365778 9.1023834 V 5.3379542 Z m 0.8733664,0 h 0.2180272 0.218446 V 4.9014814 5.00376 h 0.109433 0.109012 v 0.3341942 0.334615 H 10.521656 10.412223 V 5.7748479 5.8771264 H 10.193777 9.9757498 V 5.3379542 Z m 0.8594772,0 h 0.109434 0.109012 V 5.3379542 5.8771264 H 10.944661 10.835227 V 5.3379542 Z m 0.423004,0 h 0.334614 0.334194 v 0.109013 0.109013 H 11.818027 11.708594 V 5.447388 5.8771264 H 11.592845 11.476678 V 5.447388 5.0172288 h -0.109013 -0.109434 v -0.109013 z m -1.064454,0.218026 v 0.3207254 0.3207253 h 0.102698 0.102279 V 5.3379542 5.0172288 H 10.296475 Z M 4.8037371,6.0816835 H 6.4208329 8.0379286 V 6.1978517 6.3140201 H 6.4208329 4.8037371 V 6.1978517 Z m 0.109013,0.5597964 v 0.3834394 c 0,0.2839454 0.00211,0.3591481 0.013469,0.3724962 l 4.203e-4,4.309e-4 c 1.79e-4,8.42e-5 0.00107,3.448e-4 0.00126,4.309e-4 h 4.202e-4 c 0.00244,4.31e-4 0.00552,-2.586e-4 0.00842,-0.00168 0.033861,-0.016582 5.0492934,-0.021964 5.0966714,-0.00547 l 0.03789,0.013048 V 7.0228385 6.6415035 H 8.5152275 6.959583 V 6.7980782 6.9550735 H 6.0933731 5.226741 V 6.7980546 6.6414799 H 5.0697457 Z m 0.3274598,1.1869365 v 0.2049779 0.2045573 h 0.4230039 0.423004 V 8.0333943 7.8284164 H 5.6632138 Z M 10.071294,8.66306 10.025004,8.675686 C 9.966598,8.691814 4.9699091,8.686035 4.9367473,8.669796 4.9140623,8.658687 4.9127563,8.75275 4.9127563,10.549534 v 1.891518 h 2.579269 2.5792717 V 10.552057 Z M 5.226741,9.097849 H 5.8816606 6.5365802 V 9.3230303 9.5482116 H 5.8816606 5.226741 V 9.3230303 Z m 0,1.29637 H 6.6321245 8.0379286 V 10.6194 10.844582 H 6.6321245 5.226741 V 10.6194 Z" />
</svg>
