<?xml version="1.0" encoding="UTF-8" standalone="no"?>
<svg
   width="64"
   height="64"
   version="1.1"
   viewBox="0 0 16.933 16.933"
   id="svg7"
   sodipodi:docname="abcd.svg"
   inkscape:version="1.4.3 (0d15f75042, 2025-12-25)"
   xmlns:inkscape="http://www.inkscape.org/namespaces/inkscape"
   xmlns:sodipodi="http://sodipodi.sourceforge.net/DTD/sodipodi-0.dtd"
   xmlns="http://www.w3.org/2000/svg"
   xmlns:svg="http://www.w3.org/2000/svg"
   xmlns:rdf="http://www.w3.org/1999/02/22-rdf-syntax-ns#"
   xmlns:cc="http://creativecommons.org/ns#"
   xmlns:dc="http://purl.org/dc/elements/1.1/">
  <sodipodi:namedview
     id="namedview7"
     pagecolor="#9c4444"
     bordercolor="#000000"
     borderopacity="0.25"
     inkscape:showpageshadow="2"
     inkscape:pageopacity="0.0"
     inkscape:pagecheckerboard="0"
     inkscape:deskcolor="#d1d1d1"
     inkscape:zoom="4.3531261"
     inkscape:cx="38.133515"
     inkscape:cy="27.106957"
     inkscape:window-width="1226"
     inkscape:window-height="669"
     inkscape:window-x="100"
     inkscape:window-y="206"
     inkscape:window-maximized="0"
     inkscape:current-layer="svg7"
     showgrid="false" />
  <defs
     id="defs2">
    <filter
       style="color-interpolation-filters:sRGB;"
       inkscape:label="Blur"
       id="filter5421"
       x="-0.12256455"
       y="-0.12342654"
       width="1.2451291"
       height="1.2468531">
      <feGaussianBlur
         stdDeviation="0.5 0.5"
         result="blur"
         id="feGaussianBlur5419" />
    </filter>
  </defs>
  <metadata
     id="metadata2">
    <rdf:RDF>
      <cc:Work
         rdf:about="">
        <dc:format>image/svg+xml</dc:format>
        <dc:type
           rdf:resource="http://purl.org/dc/dcmitype/StillImage" />
      </cc:Work>
    </rdf:RDF>
  </metadata>
  <rect
     style="opacity:0.3;fill:none;fill-opacity:0.996424;stroke:#000000;stroke-width:0.955221;stroke-dasharray:none;stroke-opacity:1;filter:url(#filter5421)"
     id="rect1-2-7"
     width="13.687567"
     height="13.591975"
     x="1.6227165"
     y="1.6705122"
     rx="2.8442214"
     ry="2.965905" />
  <rect
     style="fill:none;fill-opacity:1;stroke:{{colors.primary.default.hex}};stroke-width:0.955221;stroke-dasharray:none;stroke-opacity:1"
     id="rect1-2"
     width="13.687567"
     height="13.591975"
     x="1.6227167"
     y="1.6705124"
     rx="2.8442214"
     ry="2.965905" />
  <path
     style="fill:{{colors.primary.default.hex}};fill-opacity:1;stroke:none;stroke-width:0.112914;stroke-dasharray:none;stroke-opacity:0.6"
     d="M 8.1258362,12.571496 C 7.1349028,12.47897 6.2750331,12.085467 5.580601,11.406709 4.897194,10.738731 4.4834479,9.8863136 4.3676411,8.9077206 4.346838,8.7319428 4.346838,8.1996982 4.3676411,8.0239203 4.4842597,7.0384604 4.9002609,6.1858563 5.5924966,5.5135448 6.2438788,4.8809124 7.0301361,4.5034603 7.9601243,4.3769391 c 0.1180192,-0.016051 0.2458815,-0.021902 0.4909995,-0.022452 0.3370783,-7.092e-4 0.4511659,0.00799 0.7303621,0.056063 1.2964541,0.223174 2.4198101,1.0753853 2.9945301,2.271735 0.811361,1.6889499 0.375198,3.7272139 -1.055083,4.9305729 -0.631376,0.531203 -1.3643665,0.846322 -2.203359,0.947247 -0.1479397,0.01778 -0.6463267,0.02496 -0.7917378,0.01135 z m 0.6321624,-2.067747 c 0.2147736,-0.04498 0.3993074,-0.122934 0.5884246,-0.248587 0.1996891,-0.132681 0.427067,-0.3680821 0.5632663,-0.5831441 0.051559,-0.081406 0.1187715,-0.211561 0.1187715,-0.2299856 0,-0.00772 -0.042295,-0.012621 -0.1083331,-0.012621 H 9.8117938 l -0.064561,0.079576 C 9.6524223,9.6258418 9.467386,9.7963503 9.3509176,9.8741868 9.0620954,10.067203 8.7848507,10.153631 8.4545125,10.153631 8.1397886,10.153631 7.8612861,10.06492 7.5747499,9.8734277 7.4596946,9.7965301 7.2489434,9.6013367 7.1687659,9.4974118 L 7.1163012,9.4294068 H 7.0011826 c -0.063319,0 -0.1151194,0.00379 -0.1151194,0.00841 0,0.015326 0.1323904,0.2418585 0.1863509,0.3188645 0.2897801,0.4135457 0.7024981,0.6828277 1.1638987,0.7594017 0.1313,0.02178 0.3876243,0.01573 0.521687,-0.01236 z M 7.1310613,7.5690222 C 7.4502279,7.4964299 7.6478124,7.1623902 7.5632331,6.8383868 7.4849733,6.5385934 7.1756933,6.3475758 6.8713225,6.411048 6.7743512,6.4312729 6.6622409,6.4888645 6.5890273,6.5560702 6.339937,6.7847223 6.3322318,7.1718547 6.572007,7.4110155 6.722529,7.5611493 6.9201275,7.6169976 7.1310576,7.5690222 Z m 2.9459997,0 C 10.396228,7.4964296 10.593812,7.1623902 10.509233,6.8383868 10.430973,6.5385934 10.121694,6.3475758 9.8173215,6.411048 9.7203504,6.4312729 9.6082397,6.4888645 9.5350265,6.5560702 9.2859361,6.7847223 9.2782307,7.1718547 9.5180087,7.4110155 9.6685299,7.5611493 9.8661285,7.6169976 10.077059,7.5690222 Z"
     id="path1-3" />
</svg>
