<?xml version="1.0" encoding="UTF-8" standalone="no"?>
<svg
   width="64"
   height="64"
   version="1.1"
   viewBox="0 0 16.933 16.933"
   id="svg7"
   sodipodi:docname="preferences-smart-status.svg"
   inkscape:version="1.4.3 (0d15f75042, 2025-12-25)"
   xmlns:inkscape="http://www.inkscape.org/namespaces/inkscape"
   xmlns:sodipodi="http://sodipodi.sourceforge.net/DTD/sodipodi-0.dtd"
   xmlns="http://www.w3.org/2000/svg"
   xmlns:svg="http://www.w3.org/2000/svg"
   xmlns:rdf="http://www.w3.org/1999/02/22-rdf-syntax-ns#"
   xmlns:cc="http://creativecommons.org/ns#"
   xmlns:dc="http://purl.org/dc/elements/1.1/">
  <sodipodi:namedview
     id="namedview7"
     pagecolor="#9c4444"
     bordercolor="#000000"
     borderopacity="0.25"
     inkscape:showpageshadow="2"
     inkscape:pageopacity="0.0"
     inkscape:pagecheckerboard="0"
     inkscape:deskcolor="#d1d1d1"
     inkscape:zoom="4.3531261"
     inkscape:cx="43.417074"
     inkscape:cy="19.985637"
     inkscape:window-width="1226"
     inkscape:window-height="669"
     inkscape:window-x="644"
     inkscape:window-y="133"
     inkscape:window-maximized="0"
     inkscape:current-layer="svg7"
     showgrid="false" />
  <defs
     id="defs2">
    <filter
       style="color-interpolation-filters:sRGB;"
       inkscape:label="Blur"
       id="filter5421"
       x="-0.12256455"
       y="-0.12342654"
       width="1.2451291"
       height="1.2468531">
      <feGaussianBlur
         stdDeviation="0.5 0.5"
         result="blur"
         id="feGaussianBlur5419" />
    </filter>
    <filter
       style="color-interpolation-filters:sRGB"
       inkscape:label="Blur"
       id="filter5421-3"
       x="-0.12256455"
       y="-0.12342654"
       width="1.2451291"
       height="1.2468531">
      <feGaussianBlur
         stdDeviation="0.5 0.5"
         result="blur"
         id="feGaussianBlur5419-6" />
    </filter>
  </defs>
  <metadata
     id="metadata2">
    <rdf:RDF>
      <cc:Work
         rdf:about="">
        <dc:format>image/svg+xml</dc:format>
        <dc:type
           rdf:resource="http://purl.org/dc/dcmitype/StillImage" />
      </cc:Work>
    </rdf:RDF>
  </metadata>
  <rect
     style="opacity:0.3;fill:none;fill-opacity:0.996424;stroke:#000000;stroke-width:0.955221;stroke-dasharray:none;stroke-opacity:1;filter:url(#filter5421)"
     id="rect1-2-7"
     width="13.687567"
     height="13.591975"
     x="1.6227165"
     y="1.6705122"
     rx="2.8442214"
     ry="2.965905" />
  <rect
     style="fill:none;fill-opacity:1;stroke:{{colors.primary.default.hex}};stroke-width:0.955221;stroke-dasharray:none;stroke-opacity:1"
     id="rect1-2"
     width="13.687567"
     height="13.591975"
     x="1.6227167"
     y="1.6705124"
     rx="2.8442214"
     ry="2.965905" />
  <path
     style="fill:{{colors.primary.default.hex}};fill-opacity:1;stroke:none;stroke-width:0.126378;stroke-dasharray:none;stroke-opacity:0.6"
     d="m 8.4665,4.5155939 c -2.1820289,0 -3.950906,1.7688774 -3.950906,3.950906 V 12.417406 H 8.4665 c 2.18203,0 3.950906,-1.768876 3.950906,-3.9509061 0,-2.1820286 -1.768876,-3.950906 -3.950906,-3.950906 z m 0,2.2576609 A 1.6932454,1.6932454 0 0 1 10.159747,8.4664999 1.6932454,1.6932454 0 0 1 8.4665,10.159745 1.6932454,1.6932454 0 0 1 6.7732546,8.4664999 1.6932454,1.6932454 0 0 1 8.4665,6.7732548 Z"
     id="path2072" />
  <rect
     style="opacity:0.3;fill:none;fill-opacity:0.996424;stroke:#000000;stroke-width:0.955221;stroke-dasharray:none;stroke-opacity:1;filter:url(#filter5421-3)"
     id="rect1-2-7-5"
     width="13.687567"
     height="13.591975"
     x="1.6227165"
     y="1.6705122"
     rx="2.8442214"
     ry="2.965905"
     transform="matrix(0.43046721,0,0,0.43046721,9.5627021,9.5627021)" />
  <rect
     style="fill:none;fill-opacity:1;stroke:{{colors.primary.default.hex}};stroke-width:0.411191;stroke-dasharray:none;stroke-opacity:1"
     id="rect1-2-3"
     width="5.8920484"
     height="5.8508992"
     x="10.261228"
     y="10.281802"
     rx="1.224344"
     ry="1.2767248" />
  <path
     style="fill:{{colors.primary.default.hex}};stroke-width:0.306282;fill-opacity:1"
     d="m 13.228905,11.391212 a 1.5314112,0.52505524 0 0 0 -1.531411,0.525227 v 2.624932 a 1.5314112,0.52505524 0 0 0 1.531411,0.525226 1.5314112,0.52505524 0 0 0 1.53141,-0.525226 v -2.624932 a 1.5314112,0.52505524 0 0 0 -1.53141,-0.525227 z m -0.04187,0.612564 a 1.3782699,0.49005147 0 0 1 0.04187,0 1.3782699,0.49005147 0 0 1 0.918847,0.126222 v 0.238684 a 1.3782699,0.49005147 0 0 1 -0.918847,0.125026 1.3782699,0.49005147 0 0 1 -0.918847,-0.126222 V 12.1294 a 1.3782699,0.49005147 0 0 1 0.876972,-0.125624 z m -0.876975,0.854838 a 1.3782699,0.49005147 0 0 0 0.918847,0.125027 1.3782699,0.49005147 0 0 0 0.918847,-0.125027 v 0.489932 A 1.3782699,0.49005147 0 0 1 13.228907,13.474169 1.3782699,0.49005147 0 0 1 12.31006,13.34735 Z m 0,0.979864 a 1.3782699,0.49005147 0 0 0 0.918847,0.125623 1.3782699,0.49005147 0 0 0 0.918847,-0.125623 v 0.489931 a 1.3782699,0.49005147 0 0 1 -0.918847,0.125624 1.3782699,0.49005147 0 0 1 -0.918847,-0.126221 z"
     id="path4" />
</svg>
