<?xml version="1.0" encoding="UTF-8" standalone="no"?>
<svg
   width="64"
   height="64"
   version="1.1"
   viewBox="0 0 16.933 16.933"
   id="svg7"
   sodipodi:docname="org.kde.plasma.systemtray.svg"
   inkscape:version="1.4.3 (0d15f75042, 2025-12-25)"
   xmlns:inkscape="http://www.inkscape.org/namespaces/inkscape"
   xmlns:sodipodi="http://sodipodi.sourceforge.net/DTD/sodipodi-0.dtd"
   xmlns="http://www.w3.org/2000/svg"
   xmlns:svg="http://www.w3.org/2000/svg"
   xmlns:rdf="http://www.w3.org/1999/02/22-rdf-syntax-ns#"
   xmlns:cc="http://creativecommons.org/ns#"
   xmlns:dc="http://purl.org/dc/elements/1.1/">
  <sodipodi:namedview
     id="namedview7"
     pagecolor="#9c4444"
     bordercolor="#000000"
     borderopacity="0.25"
     inkscape:showpageshadow="2"
     inkscape:pageopacity="0.0"
     inkscape:pagecheckerboard="0"
     inkscape:deskcolor="#d1d1d1"
     inkscape:zoom="4.3531261"
     inkscape:cx="38.133515"
     inkscape:cy="27.106957"
     inkscape:window-width="1226"
     inkscape:window-height="669"
     inkscape:window-x="653"
     inkscape:window-y="207"
     inkscape:window-maximized="0"
     inkscape:current-layer="svg7"
     showgrid="false" />
  <defs
     id="defs2">
    <filter
       style="color-interpolation-filters:sRGB;"
       inkscape:label="Blur"
       id="filter5421"
       x="-0.12256455"
       y="-0.12342654"
       width="1.2451291"
       height="1.2468531">
      <feGaussianBlur
         stdDeviation="0.5 0.5"
         result="blur"
         id="feGaussianBlur5419" />
    </filter>
  </defs>
  <metadata
     id="metadata2">
    <rdf:RDF>
      <cc:Work
         rdf:about="">
        <dc:format>image/svg+xml</dc:format>
        <dc:type
           rdf:resource="http://purl.org/dc/dcmitype/StillImage" />
      </cc:Work>
    </rdf:RDF>
  </metadata>
  <rect
     style="opacity:0.3;fill:none;fill-opacity:0.996424;stroke:#000000;stroke-width:0.955221;stroke-dasharray:none;stroke-opacity:1;filter:url(#filter5421)"
     id="rect1-2-7"
     width="13.687567"
     height="13.591975"
     x="1.6227165"
     y="1.6705122"
     rx="2.8442214"
     ry="2.965905" />
  <rect
     style="fill:none;fill-opacity:1;stroke:{{colors.primary.default.hex}};stroke-width:0.955221;stroke-dasharray:none;stroke-opacity:1"
     id="rect1-2"
     width="13.687567"
     height="13.591975"
     x="1.6227167"
     y="1.6705124"
     rx="2.8442214"
     ry="2.965905" />
  <path
     style="fill:{{colors.primary.default.hex}};stroke-width:0.352154;fill-opacity:1"
     d="M 4.2406583,5.2971188 V 11.635881 H 7.762193 V 10.931575 H 4.9449653 V 8.8186535 H 7.4100396 V 8.1143466 H 4.9449653 V 6.0014257 H 7.762193 V 5.2971188 Z m 4.5779952,1.4086138 v 4.9301484 h 0.704307 V 9.1254124 c 0,-0.5658538 0.1468927,-0.9638779 0.3411487,-1.2648639 0.1942558,-0.300986 0.5459038,-0.4511966 1.0543978,-0.4511966 0.685609,0 1.069528,0.3879013 1.069528,1.1644451 v 3.062084 h 0.704306 V 8.4843827 c 0,-0.6260507 -0.140288,-1.0773707 -0.420245,-1.3542775 C 11.99214,6.8471784 11.578417,6.7057326 11.02993,6.7057326 c -0.291384,0 -0.568733,0.063419 -0.83155,0.1898326 C 9.9355634,7.0159602 9.7299722,7.2026061 9.5814235,7.4554343 H 9.5387799 L 9.4273564,6.7057326 Z"
     id="path4" />
</svg>
