<?xml version="1.0" encoding="UTF-8" standalone="no"?>
<svg
   width="64"
   height="64"
   version="1.1"
   viewBox="0 0 16.933 16.933"
   id="svg7"
   sodipodi:docname="org.kde.plasma.showdesktop.svg"
   inkscape:version="1.4.3 (0d15f75042, 2025-12-25)"
   xmlns:inkscape="http://www.inkscape.org/namespaces/inkscape"
   xmlns:sodipodi="http://sodipodi.sourceforge.net/DTD/sodipodi-0.dtd"
   xmlns="http://www.w3.org/2000/svg"
   xmlns:svg="http://www.w3.org/2000/svg"
   xmlns:rdf="http://www.w3.org/1999/02/22-rdf-syntax-ns#"
   xmlns:cc="http://creativecommons.org/ns#"
   xmlns:dc="http://purl.org/dc/elements/1.1/">
  <sodipodi:namedview
     id="namedview7"
     pagecolor="#9c4444"
     bordercolor="#000000"
     borderopacity="0.25"
     inkscape:showpageshadow="2"
     inkscape:pageopacity="0.0"
     inkscape:pagecheckerboard="0"
     inkscape:deskcolor="#d1d1d1"
     inkscape:zoom="4.3531261"
     inkscape:cx="43.417074"
     inkscape:cy="20.904517"
     inkscape:window-width="1226"
     inkscape:window-height="669"
     inkscape:window-x="474"
     inkscape:window-y="225"
     inkscape:window-maximized="0"
     inkscape:current-layer="svg7"
     showgrid="false" />
  <defs
     id="defs2">
    <filter
       style="color-interpolation-filters:sRGB;"
       inkscape:label="Blur"
       id="filter5421"
       x="-0.12256455"
       y="-0.12342654"
       width="1.2451291"
       height="1.2468531">
      <feGaussianBlur
         stdDeviation="0.5 0.5"
         result="blur"
         id="feGaussianBlur5419" />
    </filter>
  </defs>
  <metadata
     id="metadata2">
    <rdf:RDF>
      <cc:Work
         rdf:about="">
        <dc:format>image/svg+xml</dc:format>
        <dc:type
           rdf:resource="http://purl.org/dc/dcmitype/StillImage" />
      </cc:Work>
    </rdf:RDF>
  </metadata>
  <rect
     style="opacity:0.3;fill:none;fill-opacity:0.996424;stroke:#000000;stroke-width:0.955221;stroke-dasharray:none;stroke-opacity:1;filter:url(#filter5421)"
     id="rect1-2-7"
     width="13.687567"
     height="13.591975"
     x="1.6227165"
     y="1.6705122"
     rx="2.8442214"
     ry="2.965905" />
  <rect
     style="fill:none;fill-opacity:1;stroke:{{colors.primary.default.hex}};stroke-width:0.955221;stroke-dasharray:none;stroke-opacity:1"
     id="rect1-2"
     width="13.687567"
     height="13.591975"
     x="1.6227167"
     y="1.6705124"
     rx="2.8442214"
     ry="2.965905" />
  <path
     style="fill:{{colors.primary.default.hex}};stroke:none;stroke-width:0.00351005;stroke-opacity:0.5"
     d="M 8.2848093,12.493644 C 8.2429808,12.479337 8.182433,12.452309 8.1502576,12.433604 8.1143158,12.412691 7.9358472,12.244631 7.6874478,11.997769 L 7.2831384,11.59596 H 6.5662967 5.8494552 L 5.7623492,11.56672 C 5.5651384,11.500518 5.4319773,11.367678 5.3660961,11.171422 l -0.029723,-0.08855 V 10.366158 9.6494368 L 4.9294309,9.2391567 C 4.4997307,8.8059315 4.4749179,8.7753707 4.4307279,8.6249251 c -0.023987,-0.081665 -0.023987,-0.235841 0,-0.3175069 0.04419,-0.1504456 0.069002,-0.1810064 0.498703,-0.6142316 L 5.3363731,7.2829059 5.336512,6.5699728 C 5.3366203,6.0133187 5.340072,5.8442159 5.352249,5.7985388 5.406812,5.5939009 5.5575819,5.4343618 5.7609121,5.3661062 l 0.088544,-0.029724 h 0.71672 0.7167203 L 7.6931765,4.9294409 C 8.1264016,4.4997407 8.1569625,4.474928 8.3074081,4.430738 c 0.081667,-0.023987 0.2358411,-0.023987 0.3175068,0 0.1504457,0.04419 0.1810065,0.069002 0.6142316,0.4987029 l 0.4102806,0.4069422 0.7129349,1.389e-4 c 0.774015,1.508e-4 0.771129,-6.13e-5 0.904447,0.066444 0.0892,0.044497 0.220214,0.1770982 0.263678,0.2668714 0.06568,0.1356529 0.06518,0.1287039 0.06532,0.9001354 l 1.4e-4,0.7129331 0.406941,0.4102809 c 0.429701,0.433225 0.454514,0.463786 0.498703,0.6142314 0.01036,0.035245 0.01866,0.1059537 0.01866,0.1587535 0,0.052801 -0.0083,0.1235091 -0.01866,0.1587535 -0.04418,0.1504457 -0.06901,0.1810064 -0.498703,0.6142315 l -0.406941,0.4102807 -1.4e-4,0.7129326 c -1.5e-4,0.771432 3.51e-4,0.764482 -0.06532,0.900138 -0.04345,0.08977 -0.17448,0.222373 -0.263678,0.266869 -0.133318,0.06651 -0.130432,0.06629 -0.904447,0.06644 l -0.7129349,1.4e-4 -0.4102806,0.406941 c -0.4332251,0.4297 -0.4637859,0.454514 -0.6142316,0.498703 -0.09426,0.02769 -0.24633,0.02412 -0.3401056,-0.008 z M 8.4720116,8.4661717 V 6.2489945 H 8.371137 c -0.3335823,0 -0.7810755,0.1377733 -1.0918261,0.3361491 -0.5482097,0.3499642 -0.9192677,0.922107 -1.0122268,1.5607757 -0.023642,0.1624299 -0.023642,0.4780746 0,0.6405048 0.1287845,0.8848047 0.7731543,1.6030469 1.6433205,1.8317149 0.1516559,0.03985 0.3111971,0.06269 0.4475306,0.06406 l 0.1140764,9.5e-4 z"
     id="path5" />
</svg>
