<?xml version="1.0" encoding="UTF-8" standalone="no"?>
<svg
   width="64"
   height="64"
   version="1.1"
   id="svg73"
   sodipodi:docname="application-bitwig-clip.svg"
   inkscape:version="1.4.3 (0d15f75042, 2025-12-25)"
   xmlns:inkscape="http://www.inkscape.org/namespaces/inkscape"
   xmlns:sodipodi="http://sodipodi.sourceforge.net/DTD/sodipodi-0.dtd"
   xmlns="http://www.w3.org/2000/svg"
   xmlns:svg="http://www.w3.org/2000/svg"
   xmlns:rdf="http://www.w3.org/1999/02/22-rdf-syntax-ns#"
   xmlns:cc="http://creativecommons.org/ns#"
   xmlns:dc="http://purl.org/dc/elements/1.1/">
  <metadata
     id="metadata77">
    <rdf:RDF>
      <cc:Work
         rdf:about="">
        <dc:format>image/svg+xml</dc:format>
        <dc:type
           rdf:resource="http://purl.org/dc/dcmitype/StillImage" />
      </cc:Work>
    </rdf:RDF>
  </metadata>
  <sodipodi:namedview
     pagecolor="#f5f7fa"
     bordercolor="#666666"
     borderopacity="1"
     objecttolerance="10"
     gridtolerance="10"
     guidetolerance="10"
     inkscape:pageopacity="0"
     inkscape:pageshadow="2"
     inkscape:window-width="1377"
     inkscape:window-height="886"
     id="namedview75"
     showgrid="false"
     inkscape:zoom="4.4470387"
     inkscape:cx="48.234345"
     inkscape:cy="13.829428"
     inkscape:window-x="119"
     inkscape:window-y="32"
     inkscape:window-maximized="0"
     inkscape:current-layer="g877"
     inkscape:document-rotation="0"
     inkscape:pagecheckerboard="0"
     inkscape:showpageshadow="2"
     inkscape:deskcolor="#d1d1d1" />
  <defs
     id="defs29">
    <linearGradient
       id="b"
       x1="399.57"
       x2="399.57"
       y1="545.8"
       y2="517.8"
       gradientTransform="matrix(2.1429,0,0,2.1429,-825.86391,-1107.6662)"
       gradientUnits="userSpaceOnUse">
      <stop
         stop-color="#3889e9"
         offset="0"
         id="stop2" />
      <stop
         stop-color="#5ea5fb"
         offset="1"
         id="stop4" />
    </linearGradient>
    <linearGradient
       id="d"
       x2="1"
       gradientTransform="matrix(14.905727,-4.7106182,4.7106182,14.905727,322.04962,998.26962)"
       gradientUnits="userSpaceOnUse">
      <stop
         stop-color="#fafafa"
         offset="0"
         id="stop7" />
      <stop
         stop-color="#aaa"
         offset="1"
         id="stop8" />
    </linearGradient>
    <linearGradient
       id="e"
       x2="1"
       gradientTransform="matrix(21.439909,0,0,21.439909,26.63554,1159.7788)"
       gradientUnits="userSpaceOnUse">
      <stop
         stop-color="#f0f0f0"
         offset="0"
         id="stop9" />
      <stop
         stop-color="#b7f1ff"
         offset="1"
         id="stop10" />
    </linearGradient>
    <linearGradient
       id="_Linear2"
       x2="1"
       gradientTransform="matrix(-0.33662128,-17.588561,17.588561,-0.33662128,289.63742,32.316102)"
       gradientUnits="userSpaceOnUse">
      <stop
         style="stop-color:#fefffe"
         offset="0"
         id="stop5" />
      <stop
         style="stop-color:#f1f1f0"
         offset="1"
         id="stop6" />
    </linearGradient>
    <clipPath
       clipPathUnits="userSpaceOnUse"
       id="clipPath7">
      <path
         d="m 33.894,28.457 v 1.292 h -8.831 v -1.292 z m 5.169,-2.508 v 1.292 h -14 v -1.292 z m 0,-2.538 v 1.292 h -14 v -1.292 z"
         style="display:block;fill:#d9dee3"
         id="path7" />
    </clipPath>
    <inkscape:path-effect
       effect="powerclip"
       id="path-effect7"
       is_visible="true"
       lpeversion="1"
       inverse="true"
       flatten="false"
       hide_clip="false"
       message="" />
    <filter
       style="color-interpolation-filters:sRGB;"
       inkscape:label="Blur"
       id="filter1"
       x="-0.1584771"
       y="-0.1235749"
       width="1.3169542"
       height="1.2471498">
      <feGaussianBlur
         stdDeviation="2 2"
         result="blur"
         id="feGaussianBlur1" />
    </filter>
  </defs>
  <circle
     cx="32.516094"
     cy="31.877844"
     r="0"
     fill="url(#b)"
     stroke-width="1.5715"
     id="circle41"
     style="fill:url(#b)" />
  <g
     aria-label="GZ"
     transform="matrix(1.2212657,0,0,0.81882264,0.4960938,-0.1661539)"
     id="text93"
     style="font-weight:bold;font-size:11.5263px;line-height:1.25;font-family:sans-serif;-inkscape-font-specification:'sans-serif Bold';fill:#f2f2f2;stroke-width:0.288159" />
  <g
     id="g877"
     transform="matrix(1.1,0,0,1.1,-3.1845928,-3.2065454)">
    <rect
       x="13.256583"
       y="7.9866519"
       width="37.45882"
       height="48.038597"
       rx="7.9658151"
       ry="9.6898966"
       fill="url(#linearGradient862)"
       stroke-width="3.0541"
       id="rect35-7-3-2"
       style="opacity:0.3;fill:none;fill-opacity:1;stroke:#000000;stroke-width:2.27273;stroke-dasharray:none;stroke-opacity:1;filter:url(#filter1)"
       transform="matrix(0.95,0,0,0.95,1.5992997,1.6002976)" />
    <rect
       x="14.193054"
       y="9.1876173"
       width="35.58588"
       height="45.636665"
       rx="7.5675244"
       ry="9.2054014"
       fill="url(#linearGradient862)"
       stroke-width="3.0541"
       id="rect35-7-3"
       style="fill:none;fill-opacity:1;stroke:{{colors.primary.default.hex}};stroke-width:2.15909;stroke-dasharray:none;stroke-opacity:1" />
    <g
       id="g1"
       transform="translate(-0.04954905,0.26077186)"
       style="fill:{{colors.primary.default.hex}};fill-opacity:1">
      <path
         d="m 26.5783,26.628473 -0.833942,-2.143037 h -2.744251 l -0.824245,2.143037 h -0.882426 l 2.705462,-6.952749 h 0.785457 l 2.695766,6.952749 z m -1.871521,-5.013349 q -0.02909,-0.07758 -0.09697,-0.281213 -0.06788,-0.203637 -0.135758,-0.416971 -0.05818,-0.223031 -0.09697,-0.339395 -0.06788,0.300607 -0.155152,0.591517 -0.08727,0.281213 -0.145455,0.446062 l -0.785457,2.094552 h 2.191522 z m 6.962445,2.075158 q -0.126061,-0.397577 -0.223031,-0.77576 -0.08727,-0.38788 -0.135758,-0.601214 h -0.03879 q -0.03879,0.213334 -0.126061,0.601214 -0.08727,0.378183 -0.223031,0.785457 l -0.930912,2.918797 h -0.9697 l -1.425458,-5.197592 h 0.882427 l 0.717577,2.773342 q 0.106667,0.416971 0.203637,0.843639 0.09697,0.426668 0.135758,0.707881 h 0.03879 q 0.03879,-0.164849 0.08727,-0.407274 0.05818,-0.242425 0.126061,-0.504244 0.06788,-0.271516 0.135758,-0.48485 l 0.921215,-2.928494 h 0.930912 l 0.892124,2.928494 q 0.106667,0.329698 0.203637,0.717578 0.106667,0.38788 0.145455,0.669093 h 0.03879 q 0.02909,-0.242425 0.126061,-0.669093 0.106667,-0.426668 0.223031,-0.87273 l 0.727275,-2.773342 h 0.87273 l -1.444853,5.197592 h -0.998791 z m 5.110312,-0.58182 q 0,0.155152 -0.01939,0.407274 -0.0097,0.252122 -0.01939,0.436365 h 0.03879 q 0.05818,-0.07758 0.174546,-0.223031 0.116364,-0.145455 0.232728,-0.29091 0.126061,-0.155152 0.213334,-0.252122 l 1.658187,-1.755157 h 0.998791 l -2.104249,2.220613 2.249704,2.976979 h -1.027882 l -1.803642,-2.42425 -0.591517,0.513941 v 1.910309 h -0.843639 v -7.36972 h 0.843639 z"
         id="text2"
         style="font-size:9.697px;opacity:1;fill:{{colors.primary.default.hex}};fill-opacity:1;stroke-width:3.63636"
         aria-label="Awk" />
      <g
         id="g6"
         style="fill:{{colors.primary.default.hex}};fill-opacity:1">
        <path
           fill="#f5f7fa"
           d="m 43.097573,31.718058 v 1.137596 H 20.973512 v -1.137596 z m 0,5.687971 v 1.137599 H 20.973512 v -1.137599 z m -7.127999,5.687977 v 1.137598 H 20.973512 v -1.137598 z"
           id="path42-7"
           style="fill:{{colors.primary.default.hex}};fill-opacity:1;stroke:none;stroke-width:0.990001;stroke-dasharray:none;stroke-opacity:0.3"
           sodipodi:nodetypes="ccccccccccccccc" />
      </g>
    </g>
    <g
       transform="matrix(0.52960909,0,0,0.52960909,19.275358,20.354587)"
       id="g5"
       style="fill:{{colors.primary.default.hex}};fill-opacity:1" />
  </g>
</svg>
