<?xml version="1.0" encoding="UTF-8" standalone="no"?>
<svg
   width="64"
   height="64"
   version="1.1"
   id="svg73"
   sodipodi:docname="application-bitwig-clip.svg"
   inkscape:version="1.4.3 (0d15f75042, 2025-12-25)"
   xmlns:inkscape="http://www.inkscape.org/namespaces/inkscape"
   xmlns:sodipodi="http://sodipodi.sourceforge.net/DTD/sodipodi-0.dtd"
   xmlns="http://www.w3.org/2000/svg"
   xmlns:svg="http://www.w3.org/2000/svg"
   xmlns:rdf="http://www.w3.org/1999/02/22-rdf-syntax-ns#"
   xmlns:cc="http://creativecommons.org/ns#"
   xmlns:dc="http://purl.org/dc/elements/1.1/">
  <metadata
     id="metadata77">
    <rdf:RDF>
      <cc:Work
         rdf:about="">
        <dc:format>image/svg+xml</dc:format>
        <dc:type
           rdf:resource="http://purl.org/dc/dcmitype/StillImage" />
      </cc:Work>
    </rdf:RDF>
  </metadata>
  <sodipodi:namedview
     pagecolor="#f5f7fa"
     bordercolor="#666666"
     borderopacity="1"
     objecttolerance="10"
     gridtolerance="10"
     guidetolerance="10"
     inkscape:pageopacity="0"
     inkscape:pageshadow="2"
     inkscape:window-width="1377"
     inkscape:window-height="886"
     id="namedview75"
     showgrid="false"
     inkscape:zoom="4.4470387"
     inkscape:cx="48.234345"
     inkscape:cy="13.829428"
     inkscape:window-x="119"
     inkscape:window-y="32"
     inkscape:window-maximized="0"
     inkscape:current-layer="g877"
     inkscape:document-rotation="0"
     inkscape:pagecheckerboard="0"
     inkscape:showpageshadow="2"
     inkscape:deskcolor="#d1d1d1" />
  <defs
     id="defs29">
    <linearGradient
       id="b"
       x1="399.57"
       x2="399.57"
       y1="545.8"
       y2="517.8"
       gradientTransform="matrix(2.1429,0,0,2.1429,-825.86391,-1107.6662)"
       gradientUnits="userSpaceOnUse">
      <stop
         stop-color="#3889e9"
         offset="0"
         id="stop2" />
      <stop
         stop-color="#5ea5fb"
         offset="1"
         id="stop4" />
    </linearGradient>
    <linearGradient
       id="d"
       x2="1"
       gradientTransform="matrix(14.905727,-4.7106182,4.7106182,14.905727,322.04962,998.26962)"
       gradientUnits="userSpaceOnUse">
      <stop
         stop-color="#fafafa"
         offset="0"
         id="stop7" />
      <stop
         stop-color="#aaa"
         offset="1"
         id="stop8" />
    </linearGradient>
    <linearGradient
       id="e"
       x2="1"
       gradientTransform="matrix(21.439909,0,0,21.439909,26.63554,1159.7788)"
       gradientUnits="userSpaceOnUse">
      <stop
         stop-color="#f0f0f0"
         offset="0"
         id="stop9" />
      <stop
         stop-color="#b7f1ff"
         offset="1"
         id="stop10" />
    </linearGradient>
    <linearGradient
       id="_Linear2"
       x2="1"
       gradientTransform="matrix(-0.33662128,-17.588561,17.588561,-0.33662128,289.63742,32.316102)"
       gradientUnits="userSpaceOnUse">
      <stop
         style="stop-color:#fefffe"
         offset="0"
         id="stop5" />
      <stop
         style="stop-color:#f1f1f0"
         offset="1"
         id="stop6" />
    </linearGradient>
    <clipPath
       clipPathUnits="userSpaceOnUse"
       id="clipPath7">
      <path
         d="m 33.894,28.457 v 1.292 h -8.831 v -1.292 z m 5.169,-2.508 v 1.292 h -14 v -1.292 z m 0,-2.538 v 1.292 h -14 v -1.292 z"
         style="display:block;fill:#d9dee3"
         id="path7" />
    </clipPath>
    <inkscape:path-effect
       effect="powerclip"
       id="path-effect7"
       is_visible="true"
       lpeversion="1"
       inverse="true"
       flatten="false"
       hide_clip="false"
       message="" />
    <filter
       style="color-interpolation-filters:sRGB;"
       inkscape:label="Blur"
       id="filter1"
       x="-0.1584771"
       y="-0.1235749"
       width="1.3169542"
       height="1.2471498">
      <feGaussianBlur
         stdDeviation="2 2"
         result="blur"
         id="feGaussianBlur1" />
    </filter>
  </defs>
  <circle
     cx="32.516094"
     cy="31.877844"
     r="0"
     fill="url(#b)"
     stroke-width="1.5715"
     id="circle41"
     style="fill:url(#b)" />
  <g
     aria-label="GZ"
     transform="matrix(1.2212657,0,0,0.81882264,0.4960938,-0.1661539)"
     id="text93"
     style="font-weight:bold;font-size:11.5263px;line-height:1.25;font-family:sans-serif;-inkscape-font-specification:'sans-serif Bold';fill:#f2f2f2;stroke-width:0.288159" />
  <g
     id="g877"
     transform="matrix(1.1,0,0,1.1,-3.1845928,-3.2065454)">
    <rect
       x="13.256583"
       y="7.9866519"
       width="37.45882"
       height="48.038597"
       rx="7.9658151"
       ry="9.6898966"
       fill="url(#linearGradient862)"
       stroke-width="3.0541"
       id="rect35-7-3-2"
       style="opacity:0.3;fill:none;fill-opacity:1;stroke:#000000;stroke-width:2.27273;stroke-dasharray:none;stroke-opacity:1;filter:url(#filter1)"
       transform="matrix(0.95,0,0,0.95,1.5992997,1.6002976)" />
    <rect
       x="14.193054"
       y="9.1876173"
       width="35.58588"
       height="45.636665"
       rx="7.5675244"
       ry="9.2054014"
       fill="url(#linearGradient862)"
       stroke-width="3.0541"
       id="rect35-7-3"
       style="fill:none;fill-opacity:1;stroke:{{colors.primary.default.hex}};stroke-width:2.15909;stroke-dasharray:none;stroke-opacity:1" />
    <path
       style="fill:{{colors.primary.default.hex}};fill-opacity:1;stroke:none;stroke-width:0.818181;stroke-dasharray:none;stroke-opacity:0.3"
       d="m 31.211206,22.405466 c -0.338814,0 -0.677521,0.131218 -0.937138,0.390907 -0.519234,0.519219 -0.519234,1.35496 0,1.874275 l 3.681244,3.681243 H 24.35612 c -0.734301,0 -1.325454,0.591154 -1.325454,1.325451 0,0.734306 0.591153,1.325456 1.325454,1.325456 1.691016,-0.0041 3.012608,-0.0012 5.208624,0 l -6.790367,6.787788 c -0.519235,0.519232 -0.519235,1.354963 0,1.874274 0.519233,0.519231 1.357683,0.519231 1.876863,0 1.215548,-1.222121 2.181474,-2.183064 3.75373,-3.753726 a 6.627273,6.6272727 0 0 0 6.554788,5.695311 6.627273,6.6272727 0 0 0 6.627279,-6.627277 6.627273,6.6272727 0 0 0 -1.944172,-4.683104 l 0.0028,-0.0026 c 0,0 -5.069403,-5.056279 -7.497112,-7.497105 -0.259258,-0.259683 -0.598348,-0.390904 -0.937135,-0.390904 z m 3.748552,8.597332 a 3.9763636,3.9763636 0 0 1 3.976369,3.97637 3.9763636,3.9763636 0 0 1 -3.976369,3.976367 3.9763636,3.9763636 0 0 1 -3.976365,-3.976367 3.9763636,3.9763636 0 0 1 3.976365,-3.97637 z m 0,1.325456 a 2.6509091,2.6509089 0 0 0 -2.650909,2.650914 2.6509091,2.6509089 0 0 0 2.650909,2.650912 2.6509091,2.6509089 0 0 0 2.650915,-2.650912 2.6509091,2.6509089 0 0 0 -2.650915,-2.650914 z"
       id="path14" />
    <g
       transform="matrix(0.52960909,0,0,0.52960909,19.275358,20.354587)"
       id="g5"
       style="fill:{{colors.primary.default.hex}};fill-opacity:1" />
  </g>
</svg>
