<?xml version="1.0" encoding="UTF-8" standalone="no"?>
<svg
   width="64"
   height="64"
   version="1.1"
   id="svg73"
   sodipodi:docname="application-ogg.svg"
   inkscape:version="1.4.3 (0d15f75042, 2025-12-25)"
   xmlns:inkscape="http://www.inkscape.org/namespaces/inkscape"
   xmlns:sodipodi="http://sodipodi.sourceforge.net/DTD/sodipodi-0.dtd"
   xmlns="http://www.w3.org/2000/svg"
   xmlns:svg="http://www.w3.org/2000/svg"
   xmlns:rdf="http://www.w3.org/1999/02/22-rdf-syntax-ns#"
   xmlns:cc="http://creativecommons.org/ns#"
   xmlns:dc="http://purl.org/dc/elements/1.1/">
  <metadata
     id="metadata77">
    <rdf:RDF>
      <cc:Work
         rdf:about="">
        <dc:format>image/svg+xml</dc:format>
        <dc:type
           rdf:resource="http://purl.org/dc/dcmitype/StillImage" />
      </cc:Work>
    </rdf:RDF>
  </metadata>
  <sodipodi:namedview
     pagecolor="#f5f7fa"
     bordercolor="#666666"
     borderopacity="1"
     objecttolerance="10"
     gridtolerance="10"
     guidetolerance="10"
     inkscape:pageopacity="0"
     inkscape:pageshadow="2"
     inkscape:window-width="1377"
     inkscape:window-height="886"
     id="namedview75"
     showgrid="false"
     inkscape:zoom="4.4470387"
     inkscape:cx="48.009477"
     inkscape:cy="13.829428"
     inkscape:window-x="489"
     inkscape:window-y="75"
     inkscape:window-maximized="0"
     inkscape:current-layer="g877"
     inkscape:document-rotation="0"
     inkscape:pagecheckerboard="0"
     inkscape:showpageshadow="2"
     inkscape:deskcolor="#d1d1d1" />
  <defs
     id="defs29">
    <linearGradient
       id="b"
       x1="399.57"
       x2="399.57"
       y1="545.8"
       y2="517.8"
       gradientTransform="matrix(2.1429,0,0,2.1429,-825.86391,-1107.6662)"
       gradientUnits="userSpaceOnUse">
      <stop
         stop-color="#3889e9"
         offset="0"
         id="stop2" />
      <stop
         stop-color="#5ea5fb"
         offset="1"
         id="stop4" />
    </linearGradient>
    <linearGradient
       id="d"
       x2="1"
       gradientTransform="matrix(14.905727,-4.7106182,4.7106182,14.905727,322.04962,998.26962)"
       gradientUnits="userSpaceOnUse">
      <stop
         stop-color="#fafafa"
         offset="0"
         id="stop7" />
      <stop
         stop-color="#aaa"
         offset="1"
         id="stop8" />
    </linearGradient>
    <linearGradient
       id="e"
       x2="1"
       gradientTransform="matrix(21.439909,0,0,21.439909,26.63554,1159.7788)"
       gradientUnits="userSpaceOnUse">
      <stop
         stop-color="#f0f0f0"
         offset="0"
         id="stop9" />
      <stop
         stop-color="#b7f1ff"
         offset="1"
         id="stop10" />
    </linearGradient>
    <filter
       style="color-interpolation-filters:sRGB;"
       inkscape:label="Blur"
       id="filter1"
       x="-0.11586747"
       y="-0.11762675"
       width="1.2317349"
       height="1.2352535">
      <feGaussianBlur
         stdDeviation="2 2"
         result="blur"
         id="feGaussianBlur1" />
    </filter>
  </defs>
  <circle
     cx="32.516094"
     cy="31.877844"
     r="0"
     fill="url(#b)"
     stroke-width="1.5715"
     id="circle41"
     style="fill:url(#b)" />
  <g
     aria-label="GZ"
     transform="matrix(1.2212657,0,0,0.81882264,0.4960938,-0.1661539)"
     id="text93"
     style="font-weight:bold;font-size:11.5263px;line-height:1.25;font-family:sans-serif;-inkscape-font-specification:'sans-serif Bold';fill:#f2f2f2;stroke-width:0.288159" />
  <g
     id="g877"
     transform="matrix(1.1,0,0,1.1,-3.1845928,-3.2065454)">
    <path
       fill="#f5f7fa"
       d="m 31.985996,56.273772 c -13.606251,0 -24.6362952,-10.865073 -24.6362952,-24.267817 0,-13.40275 11.0300442,-24.2678259 24.6362952,-24.2678259 13.606235,0 24.63629,10.8650759 24.63629,24.2678259 0,13.402744 -11.030055,24.267817 -24.63629,24.267817 z m 0,-13.482119 c 6.047223,0 10.949466,-4.82893 10.949466,-10.785698 0,-5.956772 -4.902243,-10.785706 -10.949466,-10.785706 -6.04722,0 -10.949462,4.828934 -10.949462,10.785706 0,5.956768 4.902242,10.785698 10.949462,10.785698 z m 0,-2.696422 c -4.535417,0 -8.212096,-3.621692 -8.212096,-8.089276 0,-4.467587 3.676679,-8.089285 8.212096,-8.089285 4.535415,0 8.2121,3.621698 8.2121,8.089285 0,4.467584 -3.676685,8.089276 -8.2121,8.089276 z m 0,-2.696432 c 3.023608,0 5.47473,-2.414454 5.47473,-5.392837 0,-2.978403 -2.451122,-5.392862 -5.47473,-5.392862 -3.023613,0 -5.474727,2.414459 -5.474727,5.392862 0,2.978383 2.451114,5.392837 5.474727,5.392837 z"
       id="path42-8"
       style="opacity:0.3;fill:none;fill-opacity:1;stroke:#000000;stroke-width:1.81818;stroke-dasharray:none;stroke-opacity:1;filter:url(#filter1)"
       sodipodi:nodetypes="ssssssssssssssssssss"
       transform="matrix(0.95,0,0,0.95,1.5992996,1.6002975)" />
    <path
       fill="#f5f7fa"
       d="m 31.985996,55.060381 c -12.925939,0 -23.4044812,-10.321819 -23.4044812,-23.054426 0,-12.732613 10.4785422,-23.0544349 23.4044812,-23.0544349 12.925923,0 23.404475,10.3218219 23.404475,23.0544349 0,12.732607 -10.478552,23.054426 -23.404475,23.054426 z m 0,-12.808013 c 5.744862,0 10.401992,-4.587484 10.401992,-10.246413 0,-5.658934 -4.65713,-10.246421 -10.401992,-10.246421 -5.744859,0 -10.401989,4.587487 -10.401989,10.246421 0,5.658929 4.65713,10.246413 10.401989,10.246413 z m 0,-2.561601 c -4.308646,0 -7.801491,-3.440607 -7.801491,-7.684812 0,-4.244208 3.492845,-7.684821 7.801491,-7.684821 4.308644,0 7.801495,3.440613 7.801495,7.684821 0,4.244205 -3.492851,7.684812 -7.801495,7.684812 z m 0,-2.56161 c 2.872427,0 5.200993,-2.293732 5.200993,-5.123196 0,-2.829482 -2.328566,-5.123219 -5.200993,-5.123219 -2.872433,0 -5.200991,2.293737 -5.200991,5.123219 0,2.829464 2.328558,5.123196 5.200991,5.123196 z"
       id="path42"
       style="fill:none;fill-opacity:1;stroke:{{colors.primary.default.hex}};stroke-width:1.72727;stroke-dasharray:none;stroke-opacity:1"
       sodipodi:nodetypes="ssssssssssssssssssss" />
  </g>
</svg>
