<?xml version="1.0" encoding="UTF-8" standalone="no"?>
<svg
   width="64"
   height="64"
   version="1.1"
   id="svg73"
   sodipodi:docname="application-bitwig-clip.svg"
   inkscape:version="1.4.3 (0d15f75042, 2025-12-25)"
   xmlns:inkscape="http://www.inkscape.org/namespaces/inkscape"
   xmlns:sodipodi="http://sodipodi.sourceforge.net/DTD/sodipodi-0.dtd"
   xmlns="http://www.w3.org/2000/svg"
   xmlns:svg="http://www.w3.org/2000/svg"
   xmlns:rdf="http://www.w3.org/1999/02/22-rdf-syntax-ns#"
   xmlns:cc="http://creativecommons.org/ns#"
   xmlns:dc="http://purl.org/dc/elements/1.1/">
  <metadata
     id="metadata77">
    <rdf:RDF>
      <cc:Work
         rdf:about="">
        <dc:format>image/svg+xml</dc:format>
        <dc:type
           rdf:resource="http://purl.org/dc/dcmitype/StillImage" />
      </cc:Work>
    </rdf:RDF>
  </metadata>
  <sodipodi:namedview
     pagecolor="#f5f7fa"
     bordercolor="#666666"
     borderopacity="1"
     objecttolerance="10"
     gridtolerance="10"
     guidetolerance="10"
     inkscape:pageopacity="0"
     inkscape:pageshadow="2"
     inkscape:window-width="1377"
     inkscape:window-height="886"
     id="namedview75"
     showgrid="false"
     inkscape:zoom="4.4470387"
     inkscape:cx="48.234345"
     inkscape:cy="13.829428"
     inkscape:window-x="119"
     inkscape:window-y="32"
     inkscape:window-maximized="0"
     inkscape:current-layer="g877"
     inkscape:document-rotation="0"
     inkscape:pagecheckerboard="0"
     inkscape:showpageshadow="2"
     inkscape:deskcolor="#d1d1d1" />
  <defs
     id="defs29">
    <linearGradient
       id="b"
       x1="399.57"
       x2="399.57"
       y1="545.8"
       y2="517.8"
       gradientTransform="matrix(2.1429,0,0,2.1429,-825.86391,-1107.6662)"
       gradientUnits="userSpaceOnUse">
      <stop
         stop-color="#3889e9"
         offset="0"
         id="stop2" />
      <stop
         stop-color="#5ea5fb"
         offset="1"
         id="stop4" />
    </linearGradient>
    <linearGradient
       id="d"
       x2="1"
       gradientTransform="matrix(14.905727,-4.7106182,4.7106182,14.905727,322.04962,998.26962)"
       gradientUnits="userSpaceOnUse">
      <stop
         stop-color="#fafafa"
         offset="0"
         id="stop7" />
      <stop
         stop-color="#aaa"
         offset="1"
         id="stop8" />
    </linearGradient>
    <linearGradient
       id="e"
       x2="1"
       gradientTransform="matrix(21.439909,0,0,21.439909,26.63554,1159.7788)"
       gradientUnits="userSpaceOnUse">
      <stop
         stop-color="#f0f0f0"
         offset="0"
         id="stop9" />
      <stop
         stop-color="#b7f1ff"
         offset="1"
         id="stop10" />
    </linearGradient>
    <linearGradient
       id="_Linear2"
       x2="1"
       gradientTransform="matrix(-0.33662128,-17.588561,17.588561,-0.33662128,289.63742,32.316102)"
       gradientUnits="userSpaceOnUse">
      <stop
         style="stop-color:#fefffe"
         offset="0"
         id="stop5" />
      <stop
         style="stop-color:#f1f1f0"
         offset="1"
         id="stop6" />
    </linearGradient>
    <clipPath
       clipPathUnits="userSpaceOnUse"
       id="clipPath7">
      <path
         d="m 33.894,28.457 v 1.292 h -8.831 v -1.292 z m 5.169,-2.508 v 1.292 h -14 v -1.292 z m 0,-2.538 v 1.292 h -14 v -1.292 z"
         style="display:block;fill:#d9dee3"
         id="path7" />
    </clipPath>
    <inkscape:path-effect
       effect="powerclip"
       id="path-effect7"
       is_visible="true"
       lpeversion="1"
       inverse="true"
       flatten="false"
       hide_clip="false"
       message="" />
    <filter
       style="color-interpolation-filters:sRGB;"
       inkscape:label="Blur"
       id="filter1"
       x="-0.1584771"
       y="-0.1235749"
       width="1.3169542"
       height="1.2471498">
      <feGaussianBlur
         stdDeviation="2 2"
         result="blur"
         id="feGaussianBlur1" />
    </filter>
  </defs>
  <circle
     cx="32.516094"
     cy="31.877844"
     r="0"
     fill="url(#b)"
     stroke-width="1.5715"
     id="circle41"
     style="fill:url(#b)" />
  <g
     aria-label="GZ"
     transform="matrix(1.2212657,0,0,0.81882264,0.4960938,-0.1661539)"
     id="text93"
     style="font-weight:bold;font-size:11.5263px;line-height:1.25;font-family:sans-serif;-inkscape-font-specification:'sans-serif Bold';fill:#f2f2f2;stroke-width:0.288159" />
  <g
     id="g877"
     transform="matrix(1.1,0,0,1.1,-3.1845928,-3.2065454)">
    <rect
       x="13.256583"
       y="7.9866519"
       width="37.45882"
       height="48.038597"
       rx="7.9658151"
       ry="9.6898966"
       fill="url(#linearGradient862)"
       stroke-width="3.0541"
       id="rect35-7-3-2"
       style="opacity:0.3;fill:none;fill-opacity:1;stroke:#000000;stroke-width:2.27273;stroke-dasharray:none;stroke-opacity:1;filter:url(#filter1)"
       transform="matrix(0.95,0,0,0.95,1.5992997,1.6002976)" />
    <rect
       x="14.193054"
       y="9.1876173"
       width="35.58588"
       height="45.636665"
       rx="7.5675244"
       ry="9.2054014"
       fill="url(#linearGradient862)"
       stroke-width="3.0541"
       id="rect35-7-3"
       style="fill:none;fill-opacity:1;stroke:{{colors.primary.default.hex}};stroke-width:2.15909;stroke-dasharray:none;stroke-opacity:1" />
    <path
       d="m 26.140142,24.990926 c -1.943289,0 -3.50751,1.564221 -3.50751,3.507508 v 9.353368 c 0,1.943293 1.564221,3.507514 3.50751,3.507514 h 9.353363 c 1.943289,0 3.507512,-1.564221 3.507512,-3.507514 v -4.676684 c 0,-0.64624 -0.522928,-1.16917 -1.169172,-1.16917 -0.646241,0 -1.169169,0.52293 -1.169169,1.16917 v 4.676684 c 0,0.648532 -0.520647,1.169176 -1.169171,1.169176 h -9.353363 c -0.648523,0 -1.16917,-0.520644 -1.16917,-1.169176 v -9.353368 c 0,-0.648522 0.520647,-1.169168 1.16917,-1.169168 h 4.676681 c 0.64624,0 1.169171,-0.522929 1.169171,-1.169171 0,-0.646239 -0.522931,-1.169169 -1.169171,-1.169169 z m 8.184191,-2.338341 c -0.646241,0 -1.169168,0.522929 -1.169168,1.16917 0,0.646241 0.522927,1.169171 1.169168,1.169171 h 3.021118 l -6.186097,6.1861 c -0.458991,0.456707 -0.458991,1.198856 0,1.655564 0.456707,0.456706 1.196571,0.456706 1.653279,0 l 6.188384,-6.188385 v 3.023402 c 0,0.64624 0.522925,1.169169 1.169166,1.169169 0.646241,0 1.169172,-0.522929 1.169172,-1.169169 v -5.845852 c 0,-0.102757 -0.01391,-0.203233 -0.04113,-0.301425 -0.02722,-0.100473 -0.06624,-0.194101 -0.11643,-0.283156 -0.05025,-0.08905 -0.114171,-0.168984 -0.184956,-0.242055 -0.01824,-0.0137 -0.03668,-0.02737 -0.05476,-0.04111 -0.06395,-0.05937 -0.137024,-0.10961 -0.212386,-0.150714 -0.04339,-0.02282 -0.08906,-0.04111 -0.134736,-0.0571 -0.05941,-0.02511 -0.121036,-0.04338 -0.182668,-0.0571 -0.04796,-0.01138 -0.09361,-0.01599 -0.14157,-0.02054 -0.03442,-0.01138 -0.06624,-0.01138 -0.100441,-0.0137 z m 0,0"
       id="path3-4"
       style="fill:{{colors.primary.default.hex}};fill-opacity:1;stroke:none;stroke-width:0.989991;stroke-dasharray:none;stroke-opacity:0.3" />
    <g
       transform="matrix(0.52960909,0,0,0.52960909,19.275358,20.354587)"
       id="g5"
       style="fill:{{colors.primary.default.hex}};fill-opacity:1" />
  </g>
</svg>
