<?xml version="1.0" encoding="UTF-8" standalone="no"?>
<svg
   width="64"
   height="64"
   version="1.1"
   id="svg73"
   sodipodi:docname="kolourpaint.svg"
   inkscape:version="1.4.2 (ebf0e940d0, 2025-05-08)"
   xmlns:inkscape="http://www.inkscape.org/namespaces/inkscape"
   xmlns:sodipodi="http://sodipodi.sourceforge.net/DTD/sodipodi-0.dtd"
   xmlns="http://www.w3.org/2000/svg"
   xmlns:svg="http://www.w3.org/2000/svg"
   xmlns:rdf="http://www.w3.org/1999/02/22-rdf-syntax-ns#"
   xmlns:cc="http://creativecommons.org/ns#"
   xmlns:dc="http://purl.org/dc/elements/1.1/">
  <metadata
     id="metadata77">
    <rdf:RDF>
      <cc:Work
         rdf:about="">
        <dc:format>image/svg+xml</dc:format>
        <dc:type
           rdf:resource="http://purl.org/dc/dcmitype/StillImage" />
      </cc:Work>
    </rdf:RDF>
  </metadata>
  <sodipodi:namedview
     pagecolor="#f5f7fa"
     bordercolor="#666666"
     borderopacity="1"
     objecttolerance="10"
     gridtolerance="10"
     guidetolerance="10"
     inkscape:pageopacity="0"
     inkscape:pageshadow="2"
     inkscape:window-width="1341"
     inkscape:window-height="844"
     id="namedview75"
     showgrid="false"
     inkscape:zoom="4.4470387"
     inkscape:cx="31.36919"
     inkscape:cy="34.067614"
     inkscape:window-x="26"
     inkscape:window-y="64"
     inkscape:window-maximized="0"
     inkscape:current-layer="g877"
     inkscape:document-rotation="0"
     inkscape:pagecheckerboard="0"
     inkscape:showpageshadow="2"
     inkscape:deskcolor="#d1d1d1" />
  <defs
     id="defs29">
    <filter
       style="color-interpolation-filters:sRGB;"
       inkscape:label="Blur"
       id="filter11"
       x="-0.12048148"
       y="-0.12078193"
       width="1.240963"
       height="1.2415639">
      <feGaussianBlur
         stdDeviation="1.7 1.7"
         result="blur"
         id="feGaussianBlur11" />
    </filter>
    <inkscape:path-effect
       effect="fillet_chamfer"
       id="path-effect14"
       is_visible="true"
       lpeversion="1"
       nodesatellites_param="F,0,0,1,0,0,0,1 @ F,0,0,1,0,0,0,1 @ F,0,0,1,0,0,0,1 @ F,0,0,1,0,0,0,1 @ F,0,0,1,0,0,0,1 @ F,0,0,1,0,0,0,1 @ F,0,0,1,0,0,0,1 @ F,0,0,1,0,0,0,1 @ F,0,0,1,0,0,0,1 @ F,0,0,1,0,0,0,1 @ F,0,0,1,0,0,0,1 @ F,0,0,1,0,0,0,1 @ F,0,0,1,0,0,0,1 @ F,0,0,1,0,0,0,1 @ F,0,0,1,0,0,0,1 @ F,0,0,1,0,0.73946661,0,1 @ F,0,0,1,0,0,0,1 | F,0,0,1,0,0,0,1 @ F,0,0,1,0,0,0,1 @ F,0,0,1,0,0,0,1 @ F,0,0,1,0,0,0,1"
       radius="0"
       unit="px"
       method="auto"
       mode="F"
       chamfer_steps="1"
       flexible="false"
       use_knot_distance="true"
       apply_no_radius="true"
       apply_with_radius="true"
       only_selected="false"
       hide_knots="false" />
  </defs>
  <g
     id="g877"
     transform="matrix(1.1,0,0,1.1,-3.1845928,-3.2065454)">
    <path
       style="fill:#f5f7fa;stroke-width:0.204426;fill-opacity:1"
       d=""
       id="path3" />
    <path
       style="fill:#ffffff;fill-opacity:1;stroke:none;stroke-width:0.886495;stroke-dasharray:none;stroke-opacity:0.6"
       d="M 29.412125,59.077094 C 23.750797,58.501889 18.630275,56.33535 14.3273,52.694559 13.921013,52.350798 13.050986,51.514 12.393904,50.834996 6.4658309,44.709269 3.8234222,36.14284 5.2074839,27.537392 5.7513041,24.156179 6.9627452,20.87068 8.7856818,17.833112 10.72399,14.603295 13.980081,11.261534 17.234243,9.1622425 c 3.723143,-2.4018306 7.928636,-3.8247061 12.49871,-4.2287791 1.445919,-0.1278958 4.698489,-0.055782 6.103371,0.1353121 5.200721,0.7072263 9.756502,2.5219432 13.644897,5.4352115 4.614149,3.457023 7.82336,8.163073 9.067293,13.296489 0.481097,1.985299 0.574742,2.803966 0.57659,5.0405 0.0015,1.797617 -0.02124,2.161995 -0.20049,3.041675 -1.157345,5.721942 -4.953854,10.135662 -10.238012,11.902401 -1.927621,0.644531 -2.581905,0.715413 -6.984243,0.757039 -3.800877,0.03579 -3.879408,0.03971 -4.573559,0.249333 -1.660561,0.500338 -2.764803,1.729743 -2.986509,3.324928 -0.158571,1.14084 0.227102,2.291181 1.214937,3.624087 0.665048,0.89737 0.716322,1.055458 0.762166,2.350488 0.03064,0.866412 0.0066,1.266118 -0.101189,1.694668 -0.353484,1.402331 -1.172071,2.44521 -2.367195,3.015866 l -0.682576,0.325976 -1.390482,0.01406 c -0.764767,0.0077 -1.739399,-0.02122 -2.165842,-0.06431 z M 14.10642,31.923391 c 1.356899,-0.353425 2.486208,-1.351611 3.009106,-2.659731 0.284282,-0.711169 0.324525,-1.808731 0.09415,-2.567248 -0.797264,-2.624811 -3.744334,-3.857221 -6.06895,-2.537923 -1.055897,0.599259 -1.9298855,1.847685 -2.136031,3.051158 -0.4791622,2.797336 2.366166,5.426276 5.101754,4.713744 z m 35.427329,0.04568 c 0.759704,-0.14174 1.533953,-0.573503 2.168739,-1.209313 1.338689,-1.340832 1.643378,-3.093602 0.825459,-4.748534 -1.066577,-2.158067 -3.559835,-2.993473 -5.69567,-1.90844 -0.719816,0.365657 -1.505653,1.202184 -1.890322,2.012193 -0.282953,0.59571 -0.326085,0.774563 -0.356848,1.47908 -0.02687,0.639112 0.0016,0.92346 0.148056,1.403945 0.626933,2.064041 2.719989,3.359407 4.800693,2.971084 z M 24.761868,19.31672 c 1.536373,-0.450725 2.754899,-1.819498 3.039998,-3.414816 0.390059,-2.182596 -1.262146,-4.422068 -3.545655,-4.805956 -1.989213,-0.33441 -4.097444,1.034837 -4.682212,3.040996 -0.289014,0.991481 -0.11155,2.353538 0.419431,3.219592 0.274685,0.448004 0.91495,1.11782 1.363922,1.426848 0.90973,0.626153 2.329819,0.848627 3.404516,0.533336 z m 15.303721,-0.271633 c 0.942431,-0.466995 1.598837,-1.133845 2.048859,-2.081474 0.281162,-0.592166 0.324459,-0.772108 0.355279,-1.475818 0.02742,-0.639118 -0.0016,-0.923462 -0.148054,-1.403946 -0.604014,-1.988811 -2.672286,-3.322982 -4.630695,-2.987153 -2.279652,0.390917 -3.92687,2.588519 -3.567194,4.759101 0.19856,1.198246 1.04188,2.442413 2.059934,3.039032 0.731275,0.428546 1.299298,0.562918 2.269793,0.536936 0.83512,-0.02231 0.915883,-0.04177 1.612005,-0.386683 z"
       id="path7" />
    <path
       style="fill:#f5f7fa;fill-opacity:1;stroke-width:0.097776"
       d=""
       id="path3-9" />
  </g>
</svg>
