<?xml version="1.0" encoding="UTF-8" standalone="no"?>
<svg
   width="64"
   height="64"
   version="1.1"
   viewBox="0 0 16.933 16.933"
   id="svg7"
   sodipodi:docname="org.kde.kontact.svg"
   inkscape:version="1.4.3 (0d15f75042, 2025-12-25)"
   xmlns:inkscape="http://www.inkscape.org/namespaces/inkscape"
   xmlns:sodipodi="http://sodipodi.sourceforge.net/DTD/sodipodi-0.dtd"
   xmlns="http://www.w3.org/2000/svg"
   xmlns:svg="http://www.w3.org/2000/svg"
   xmlns:rdf="http://www.w3.org/1999/02/22-rdf-syntax-ns#"
   xmlns:cc="http://creativecommons.org/ns#"
   xmlns:dc="http://purl.org/dc/elements/1.1/">
  <sodipodi:namedview
     id="namedview7"
     pagecolor="#9c4444"
     bordercolor="#000000"
     borderopacity="0.25"
     inkscape:showpageshadow="2"
     inkscape:pageopacity="0.0"
     inkscape:pagecheckerboard="0"
     inkscape:deskcolor="#d1d1d1"
     inkscape:zoom="4.3531261"
     inkscape:cx="32.620236"
     inkscape:cy="33.768836"
     inkscape:window-width="1226"
     inkscape:window-height="669"
     inkscape:window-x="100"
     inkscape:window-y="206"
     inkscape:window-maximized="0"
     inkscape:current-layer="svg7"
     showgrid="false" />
  <defs
     id="defs2">
    <filter
       style="color-interpolation-filters:sRGB;"
       inkscape:label="Blur"
       id="filter5421"
       x="-0.12256455"
       y="-0.12342654"
       width="1.2451291"
       height="1.2468531">
      <feGaussianBlur
         stdDeviation="0.5 0.5"
         result="blur"
         id="feGaussianBlur5419" />
    </filter>
  </defs>
  <metadata
     id="metadata2">
    <rdf:RDF>
      <cc:Work
         rdf:about="">
        <dc:format>image/svg+xml</dc:format>
        <dc:type
           rdf:resource="http://purl.org/dc/dcmitype/StillImage" />
      </cc:Work>
    </rdf:RDF>
  </metadata>
  <g
     id="g9"
     transform="matrix(0.03073551,0,0,0.03073551,0.59820803,0.59820803)"
     style="fill:{{colors.primary.default.hex}};fill-opacity:1">
    <g
       id="g2"
       style="fill:{{colors.primary.default.hex}};fill-opacity:1">
      <g
         id="g1"
         style="fill:{{colors.primary.default.hex}};fill-opacity:1">
        <path
           d="M 508.65,115.988 363.186,261.451 505.061,403.43 C 509.356,396.045 512,387.58 512,378.438 V 133.563 c 0,-6.206 -1.278,-12.087 -3.35,-17.575 z"
           id="path1"
           style="fill:{{colors.primary.default.hex}};fill-opacity:1" />
      </g>
    </g>
    <g
       id="g4"
       style="fill:{{colors.primary.default.hex}};fill-opacity:1">
      <g
         id="g3"
         style="fill:{{colors.primary.default.hex}};fill-opacity:1">
        <path
           d="M 461.913,83.476 H 50.087 c -8.327,0 -16.066,2.236 -22.982,5.847 L 245.76,307.976 c 6.344,6.344 17.363,6.344 23.596,0 L 486.982,90.456 c -7.402,-4.323 -15.894,-6.98 -25.069,-6.98 z"
           id="path2"
           style="fill:{{colors.primary.default.hex}};fill-opacity:1" />
      </g>
    </g>
    <g
       id="g6"
       style="fill:{{colors.primary.default.hex}};fill-opacity:1">
      <g
         id="g5"
         style="fill:{{colors.primary.default.hex}};fill-opacity:1">
        <path
           d="M 4.201,113.611 C 1.527,119.733 0,126.465 0,133.563 v 244.875 c 0,8.997 2.573,17.327 6.743,24.632 L 150.15,259.56 Z"
           id="path4"
           style="fill:{{colors.primary.default.hex}};fill-opacity:1" />
      </g>
    </g>
    <g
       id="g8"
       style="fill:{{colors.primary.default.hex}};fill-opacity:1">
      <g
         id="g7"
         style="fill:{{colors.primary.default.hex}};fill-opacity:1">
        <path
           d="m 339.478,285.159 -46.414,46.525 c -19.496,19.275 -51.084,19.591 -70.901,0 L 173.857,283.267 32.006,425.017 c 5.625,2.192 11.69,3.507 18.081,3.507 h 411.826 c 6.235,0 12.146,-1.284 17.657,-3.376 z"
           id="path6"
           style="fill:{{colors.primary.default.hex}};fill-opacity:1" />
      </g>
    </g>
  </g>
</svg>
