<?xml version="1.0" encoding="UTF-8" standalone="no"?>
<svg
   width="64"
   height="64"
   version="1.1"
   viewBox="0 0 16.933 16.933"
   id="svg7"
   sodipodi:docname="org.kde.kdeconnect.svg"
   inkscape:version="1.4.3 (0d15f75042, 2025-12-25)"
   xmlns:inkscape="http://www.inkscape.org/namespaces/inkscape"
   xmlns:sodipodi="http://sodipodi.sourceforge.net/DTD/sodipodi-0.dtd"
   xmlns="http://www.w3.org/2000/svg"
   xmlns:svg="http://www.w3.org/2000/svg"
   xmlns:rdf="http://www.w3.org/1999/02/22-rdf-syntax-ns#"
   xmlns:cc="http://creativecommons.org/ns#"
   xmlns:dc="http://purl.org/dc/elements/1.1/">
  <sodipodi:namedview
     id="namedview7"
     pagecolor="#9c4444"
     bordercolor="#000000"
     borderopacity="0.25"
     inkscape:showpageshadow="2"
     inkscape:pageopacity="0.0"
     inkscape:pagecheckerboard="0"
     inkscape:deskcolor="#d1d1d1"
     inkscape:zoom="4.3531261"
     inkscape:cx="38.133515"
     inkscape:cy="27.106957"
     inkscape:window-width="1226"
     inkscape:window-height="669"
     inkscape:window-x="100"
     inkscape:window-y="206"
     inkscape:window-maximized="0"
     inkscape:current-layer="svg7"
     showgrid="false" />
  <defs
     id="defs2">
    <filter
       style="color-interpolation-filters:sRGB;"
       inkscape:label="Blur"
       id="filter5421"
       x="-0.12256455"
       y="-0.12342654"
       width="1.2451291"
       height="1.2468531">
      <feGaussianBlur
         stdDeviation="0.5 0.5"
         result="blur"
         id="feGaussianBlur5419" />
    </filter>
  </defs>
  <metadata
     id="metadata2">
    <rdf:RDF>
      <cc:Work
         rdf:about="">
        <dc:format>image/svg+xml</dc:format>
        <dc:type
           rdf:resource="http://purl.org/dc/dcmitype/StillImage" />
      </cc:Work>
    </rdf:RDF>
  </metadata>
  <path
     style="color:#444444;fill:{{colors.primary.default.hex}};fill-opacity:1;stroke:none;stroke-width:0.235198;stroke-dasharray:none;stroke-opacity:0.6"
     class="ColorScheme-Text"
     d="m 4.0061526,0.66088921 c -1.1150889,0 -1.1150889,1.11508699 -1.1150889,1.11508699 V 15.157027 c 0,0 0,1.115084 1.1150889,1.115084 h 8.9206934 c 1.115091,0 1.115091,-1.115084 1.115091,-1.115084 V 1.7759762 c 0,0 0,-1.11508699 -1.115091,-1.11508699 z M 5.1212385,4.0061505 H 11.811761 V 12.92685 H 5.1212385 Z M 7.9089561,14.041939 h 1.1150877 c 0,0 0.5575438,0 0.5575438,0.557543 0,0.557545 -0.5575438,0.557545 -0.5575438,0.557545 H 7.9089561 c 0,0 -0.5575427,0 -0.5575427,-0.557545 0,-0.557543 0.5575427,-0.557543 0.5575427,-0.557543 z"
     id="path5-6" />
</svg>
