<?xml version="1.0" encoding="UTF-8" standalone="no"?>
<svg
   width="64"
   height="64"
   version="1.1"
   viewBox="0 0 16.933 16.933"
   id="svg7"
   sodipodi:docname="solseek.svg"
   inkscape:version="1.4.3 (0d15f75042, 2025-12-25)"
   xmlns:inkscape="http://www.inkscape.org/namespaces/inkscape"
   xmlns:sodipodi="http://sodipodi.sourceforge.net/DTD/sodipodi-0.dtd"
   xmlns="http://www.w3.org/2000/svg"
   xmlns:svg="http://www.w3.org/2000/svg"
   xmlns:rdf="http://www.w3.org/1999/02/22-rdf-syntax-ns#"
   xmlns:cc="http://creativecommons.org/ns#"
   xmlns:dc="http://purl.org/dc/elements/1.1/">
  <sodipodi:namedview
     id="namedview7"
     pagecolor="#9c4444"
     bordercolor="#000000"
     borderopacity="0.25"
     inkscape:showpageshadow="2"
     inkscape:pageopacity="0.0"
     inkscape:pagecheckerboard="0"
     inkscape:deskcolor="#d1d1d1"
     inkscape:zoom="6.15625"
     inkscape:cx="18.111675"
     inkscape:cy="48.649746"
     inkscape:window-width="1463"
     inkscape:window-height="921"
     inkscape:window-x="157"
     inkscape:window-y="49"
     inkscape:window-maximized="0"
     inkscape:current-layer="svg7"
     showgrid="false" />
  <defs
     id="defs2" />
  <metadata
     id="metadata2">
    <rdf:RDF>
      <cc:Work
         rdf:about="">
        <dc:format>image/svg+xml</dc:format>
        <dc:type
           rdf:resource="http://purl.org/dc/dcmitype/StillImage" />
      </cc:Work>
    </rdf:RDF>
  </metadata>
  <path
     style="fill:{{colors.primary.default.hex}};fill-opacity:1;stroke:none;stroke-width:0.127832;stroke-dasharray:none;stroke-opacity:0.5"
     d="m 10.166546,0.56174235 c -3.4117928,0 -6.2306234,2.79383075 -6.2306234,6.20951665 0,1.2982415 0.4384254,2.4926148 1.1264495,3.492913 l -4.15378795,4.163211 a 1.1326463,1.1352128 0 0 0 1.58412935,1.622934 l 4.1537877,-4.163198 c 0.9994863,0.689716 2.2224865,1.093723 3.5201578,1.093723 3.411904,0 6.195478,-2.793839 6.195478,-6.2095263 0,-3.4156859 -2.783574,-6.20951648 -6.195478,-6.20951648 z m 0,2.25800685 c 2.193653,0 3.942578,1.7553734 3.942578,3.9515098 0,2.1960251 -1.748925,3.951514 -3.942578,3.951514 -2.1936483,0 -3.942578,-1.7554889 -3.942578,-3.951514 0,-2.196136 1.7489297,-3.9515098 3.942578,-3.9515098 z"
     id="path8" />
</svg>
