<?xml version="1.0" encoding="UTF-8" standalone="no"?>
<svg
   width="64"
   height="64"
   version="1.1"
   viewBox="0 0 16.933 16.933"
   id="svg7"
   sodipodi:docname="steam_icon_2975950.svg"
   inkscape:version="1.4.3 (0d15f75042, 2025-12-25)"
   xmlns:inkscape="http://www.inkscape.org/namespaces/inkscape"
   xmlns:sodipodi="http://sodipodi.sourceforge.net/DTD/sodipodi-0.dtd"
   xmlns="http://www.w3.org/2000/svg"
   xmlns:svg="http://www.w3.org/2000/svg"
   xmlns:rdf="http://www.w3.org/1999/02/22-rdf-syntax-ns#"
   xmlns:cc="http://creativecommons.org/ns#"
   xmlns:dc="http://purl.org/dc/elements/1.1/">
  <sodipodi:namedview
     id="namedview7"
     pagecolor="#9c4444"
     bordercolor="#000000"
     borderopacity="0.25"
     inkscape:showpageshadow="2"
     inkscape:pageopacity="0.0"
     inkscape:pagecheckerboard="0"
     inkscape:deskcolor="#d1d1d1"
     inkscape:zoom="4.3531261"
     inkscape:cx="43.187354"
     inkscape:cy="45.254834"
     inkscape:window-width="1226"
     inkscape:window-height="669"
     inkscape:window-x="314"
     inkscape:window-y="198"
     inkscape:window-maximized="0"
     inkscape:current-layer="svg7"
     showgrid="false" />
  <defs
     id="defs2">
    <filter
       style="color-interpolation-filters:sRGB;"
       inkscape:label="Blur"
       id="filter5421"
       x="-0.12256455"
       y="-0.12342654"
       width="1.2451291"
       height="1.2468531">
      <feGaussianBlur
         stdDeviation="0.5 0.5"
         result="blur"
         id="feGaussianBlur5419" />
    </filter>
    <filter
       style="color-interpolation-filters:sRGB"
       inkscape:label="Blur"
       id="filter5421-3"
       x="-0.12256455"
       y="-0.12342654"
       width="1.2451291"
       height="1.2468531">
      <feGaussianBlur
         stdDeviation="0.5 0.5"
         result="blur"
         id="feGaussianBlur5419-6" />
    </filter>
  </defs>
  <metadata
     id="metadata2">
    <rdf:RDF>
      <cc:Work
         rdf:about="">
        <dc:format>image/svg+xml</dc:format>
        <dc:type
           rdf:resource="http://purl.org/dc/dcmitype/StillImage" />
      </cc:Work>
    </rdf:RDF>
  </metadata>
  <path
     style="fill:{{colors.primary.default.hex}};fill-opacity:1;stroke-width:0.0568103"
     d="M 7.0582441,16.299661 C 6.7597149,16.245493 6.2825184,16.124493 5.9978084,16.030777 5.2943945,15.799227 4.2303541,15.269879 4.2303541,15.151484 c 0,-0.05301 0.098464,-0.263412 0.2188057,-0.467515 l 0.2188063,-0.37109 -0.457076,-0.332856 C 1.7011705,12.1524 0.79976879,8.297035 2.2119652,5.4304694 2.7174727,4.4043573 3.5472633,3.4015353 4.344936,2.8527227 L 4.6806965,2.6217134 4.4480388,2.2435952 C 4.3200406,2.0355716 4.2354918,1.8130688 4.260088,1.7489734 4.3302078,1.5662438 5.6670214,0.97087097 6.4573388,0.77039025 7.8450255,0.41837562 9.3146754,0.44617361 10.720136,0.85102135 c 0.745239,0.21467005 1.90527,0.74496535 1.963908,0.89778275 0.02093,0.05456 -0.06471,0.2735518 -0.19037,0.4866463 l -0.228445,0.3874455 0.334906,0.2304186 c 0.905356,0.622902 1.899404,1.9003933 2.312725,2.9721758 0.392282,1.0172215 0.483565,1.5150742 0.475822,2.5951859 -0.01089,1.5157026 -0.316538,2.6190868 -1.054164,3.8050928 -0.3891,0.625622 -1.236519,1.530336 -1.754478,1.873109 l -0.313332,0.207349 0.223571,0.396151 c 0.122944,0.217883 0.223574,0.42852 0.223574,0.468094 0,0.09712 -1.048624,0.612178 -1.704271,0.837101 -1.139039,0.390753 -2.7509052,0.509904 -3.951328,0.292088 z m 3.2385019,-0.822217 c 0.357827,-0.106733 0.827165,-0.272514 1.042975,-0.368379 l 0.39238,-0.174287 -1.582926,-2.751713 C 9.278568,10.669621 8.5365449,9.401642 8.5002379,9.3653338 8.462717,9.3278121 7.747679,10.492301 6.8435711,12.063336 c -0.8748594,1.520204 -1.600296,2.791546 -1.6120815,2.825203 -0.027457,0.07844 0.7242617,0.413374 1.296288,0.577595 0.7570051,0.217327 1.1176108,0.256274 2.1336848,0.23044 0.7855005,-0.01994 1.116298,-0.06429 1.6352836,-0.21913 z M 6.5027401,11.109638 C 7.3056415,9.7140287 7.963588,8.5370201 7.9648441,8.4940645 7.9666727,8.4313263 5.116134,3.4194921 5.0203192,3.3169941 5.0055461,3.3011842 4.7776004,3.4633918 4.5137772,3.677443 2.8730403,5.0086465 1.9697408,7.2360718 2.2542069,9.249266 c 0.177193,1.254007 0.7556377,2.493025 1.5807657,3.385965 0.3997244,0.432575 1.1496279,1.083542 1.1904456,1.033386 0.00963,-0.01174 0.6744218,-1.163365 1.4773219,-2.558979 z m 6.4004659,1.700586 C 15.289899,10.387388 15.273251,6.573842 12.865335,4.1328727 11.850564,3.104174 12.114169,2.9269091 10.514428,5.7137768 9.7554763,7.0359314 9.0834772,8.2061843 9.0210964,8.3143384 8.900503,8.5234251 8.954089,8.6250605 11.443469,12.908731 l 0.451267,0.776535 0.239126,-0.168387 c 0.131543,-0.09264 0.477724,-0.410606 0.769344,-0.706644 z M 10.130857,4.8227672 11.723158,2.0580591 11.403438,1.8953969 C 10.134515,1.2498187 8.3391103,1.0690341 6.8814445,1.440064 6.0888253,1.6418155 5.2529174,1.9680147 5.2529174,2.075569 c 0,0.1365156 3.1825478,5.6109278 3.233474,5.5620122 0.028691,-0.027558 0.7687011,-1.2942248 1.6444656,-2.814814 z"
     id="path1-6" />
</svg>
