<?xml version="1.0" encoding="UTF-8" standalone="no"?>
<svg
   width="64"
   height="64"
   version="1.1"
   viewBox="0 0 16.933 16.933"
   id="svg7"
   sodipodi:docname="steam_icon_1771300.svg"
   inkscape:version="1.4.3 (0d15f75042, 2025-12-25)"
   xmlns:inkscape="http://www.inkscape.org/namespaces/inkscape"
   xmlns:sodipodi="http://sodipodi.sourceforge.net/DTD/sodipodi-0.dtd"
   xmlns="http://www.w3.org/2000/svg"
   xmlns:svg="http://www.w3.org/2000/svg"
   xmlns:rdf="http://www.w3.org/1999/02/22-rdf-syntax-ns#"
   xmlns:cc="http://creativecommons.org/ns#"
   xmlns:dc="http://purl.org/dc/elements/1.1/">
  <sodipodi:namedview
     id="namedview7"
     pagecolor="#9c4444"
     bordercolor="#000000"
     borderopacity="0.25"
     inkscape:showpageshadow="2"
     inkscape:pageopacity="0.0"
     inkscape:pagecheckerboard="0"
     inkscape:deskcolor="#d1d1d1"
     inkscape:zoom="4.3531261"
     inkscape:cx="42.957635"
     inkscape:cy="44.795394"
     inkscape:window-width="1226"
     inkscape:window-height="669"
     inkscape:window-x="314"
     inkscape:window-y="198"
     inkscape:window-maximized="0"
     inkscape:current-layer="svg7"
     showgrid="false" />
  <defs
     id="defs2">
    <filter
       style="color-interpolation-filters:sRGB;"
       inkscape:label="Blur"
       id="filter5421"
       x="-0.12256455"
       y="-0.12342654"
       width="1.2451291"
       height="1.2468531">
      <feGaussianBlur
         stdDeviation="0.5 0.5"
         result="blur"
         id="feGaussianBlur5419" />
    </filter>
    <filter
       style="color-interpolation-filters:sRGB"
       inkscape:label="Blur"
       id="filter5421-3"
       x="-0.12256455"
       y="-0.12342654"
       width="1.2451291"
       height="1.2468531">
      <feGaussianBlur
         stdDeviation="0.5 0.5"
         result="blur"
         id="feGaussianBlur5419-6" />
    </filter>
  </defs>
  <metadata
     id="metadata2">
    <rdf:RDF>
      <cc:Work
         rdf:about="">
        <dc:format>image/svg+xml</dc:format>
        <dc:type
           rdf:resource="http://purl.org/dc/dcmitype/StillImage" />
      </cc:Work>
    </rdf:RDF>
  </metadata>
  <path
     style="fill:{{colors.primary.default.hex}};fill-opacity:1;stroke-width:0.0232454"
     d="M 7.3022179,13.586831 C 5.9887179,13.510322 4.7005455,13.325864 4.0269774,13.117822 3.6777236,13.009951 3.396992,12.682404 3.396992,12.382782 c 0,-0.112711 0.018417,-0.148924 0.135053,-0.265554 0.07428,-0.07428 0.1858559,-0.153417 0.2479513,-0.175881 l 0.1128991,-0.04083 V 11.399979 10.89944 L 3.7437949,10.806747 C 3.5138827,10.663841 3.4282583,10.417565 3.5360231,10.209169 3.5887506,10.107207 3.7323552,10.045663 4.2989183,9.88222 6.0809011,9.3681539 8.8688879,9.2428742 11.14261,9.5746956 c 0.691138,0.1008623 1.516596,0.2988157 1.994641,0.4783334 0.128535,0.04827 0.191573,0.09207 0.224705,0.15614 0.107767,0.208396 0.02214,0.454672 -0.207772,0.597594 l -0.149103,0.09267 v 0.48831 0.488312 l 0.165643,0.09352 c 0.235735,0.133046 0.330259,0.255382 0.330259,0.427444 0,0.223404 -0.148858,0.45368 -0.397362,0.614688 -0.316176,0.204857 -1.382217,0.418741 -2.640036,0.529682 -0.6384534,0.05631 -2.5123844,0.08327 -3.1613723,0.04547 z m 3.3783301,-0.323577 c 0.910582,-0.0937 1.98905,-0.302774 1.879097,-0.364303 -0.07808,-0.04367 -0.584596,-0.16697 -0.918363,-0.223489 -1.504207,-0.254792 -4.5662316,-0.27007 -6.198695,-0.03093 -0.452762,0.06632 -1.0120983,0.200169 -0.9579968,0.229233 0.07464,0.04009 0.7068667,0.179373 1.1129655,0.245169 0.4718621,0.07647 1.1485183,0.151645 1.6891658,0.187723 0.6374226,0.04252 2.8312685,0.0145 3.3938265,-0.04343 z M 8.6894763,11.293272 c 0.42201,-0.257304 0.2084946,-0.909182 -0.2803241,-0.855847 -0.1783325,0.01946 -0.306752,0.104313 -0.3747576,0.247622 -0.1518372,0.319974 0.064702,0.669811 0.4145966,0.669811 0.08462,0 0.1791984,-0.02421 0.2404851,-0.06161 z m -1.854544,-0.142398 c 0.1326381,-0.111611 0.1346503,-0.288159 0.00475,-0.418045 -0.146088,-0.14608 -0.3872735,-0.09782 -0.466445,0.0933 -0.1199086,0.289484 0.2196902,0.528357 0.4616747,0.324742 z m 3.6349237,-0.01436 c 0.08309,-0.0831 0.09242,-0.109791 0.07744,-0.221505 -0.0093,-0.06986 -0.04393,-0.15393 -0.07682,-0.186807 -0.03288,-0.03288 -0.116934,-0.06744 -0.186807,-0.07681 -0.111722,-0.01499 -0.138413,-0.0056 -0.221506,0.07744 -0.1290456,0.129041 -0.1305137,0.284936 -0.0039,0.41157 0.126634,0.126632 0.282523,0.125168 0.411569,-0.0038 z M 3.2984323,9.8407565 C 3.1983328,9.6560926 1.6742589,6.7388749 1.126363,5.6832151 1.0069245,5.4530858 0.86736824,5.1880894 0.81623881,5.094332 0.74750586,4.968296 0.73848674,4.936477 0.78163677,4.9722536 1.0175987,5.1678852 1.504997,5.5832219 1.7294692,5.7799467 2.0772644,6.0847529 2.3980189,6.2530214 3.1111621,6.5047851 3.1398952,6.5149161 3.1298401,6.5508344 3.0745189,6.6356357 2.8775884,6.9374601 2.7899268,7.4904451 2.8821211,7.8492985 2.9651382,8.1724291 3.105043,8.4278788 3.3178798,8.6449487 3.6530167,8.9867484 3.9909975,9.0666116 4.3477657,8.8883081 4.5070059,8.8087236 4.5391894,8.7762246 4.6209931,8.6124164 L 4.713721,8.4267345 4.7078454,7.9118789 C 4.7010573,7.3183875 4.6720449,7.2062531 4.4421003,6.8849982 4.2751875,6.6518017 3.8255881,6.220878 3.5867181,6.0651453 3.5802585,6.0609433 3.6649858,5.9602786 3.7749929,5.8414603 4.0018967,5.5963827 4.1479939,5.3438905 4.2176618,5.076417 4.2756029,4.8539659 4.3404079,3.9164384 4.3171167,3.6376215 4.2974072,3.4017273 4.2895215,3.3893662 4.544609,3.9940502 4.9611016,4.9813444 5.4318239,5.4757664 6.0666714,5.5927416 L 6.2719322,5.630564 6.1668877,5.8041132 c -0.2243798,0.370701 -0.3833641,0.9220805 -0.3833641,1.3295512 0,0.2529451 0.087564,0.6183342 0.2025666,0.8452835 0.098447,0.1942798 0.3531998,0.4565516 0.5257877,0.5413106 0.091859,0.04511 0.1882101,0.060887 0.3719267,0.060887 0.2134477,0 0.2677195,-0.011592 0.3900151,-0.083518 C 7.5516417,8.3342982 7.7379864,8.0577054 7.8431539,7.6525646 7.8995321,7.4353722 7.905518,7.0723094 7.8561041,6.8669611 7.7812273,6.555773 7.5088149,6.0520575 7.1828601,5.6220636 7.1121361,5.5287656 7.0542717,5.4442854 7.0542717,5.4343295 c 0,-0.00995 0.088257,-0.082908 0.1961318,-0.162112 C 7.5482497,5.0535247 7.8725714,4.7412505 7.9978009,4.5525844 8.1584024,4.3106293 8.2628371,4.0145388 8.3997804,3.4129183 8.4238198,3.3073139 8.510983,3.2981268 8.510983,3.4011934 c 0,0.1580585 0.1602038,0.6982953 0.2769128,0.9337896 0.1544236,0.311597 0.3255199,0.5061587 0.7248614,0.8242647 0.1735067,0.138211 0.3195579,0.2621632 0.3245619,0.2754526 0.005,0.01327 -0.073031,0.1339154 -0.1734109,0.268061 C 9.2506779,6.2549935 9.0344018,6.7333365 9.0141118,7.1399325 8.975831,7.9069837 9.3866954,8.5435658 9.9491813,8.5887169 10.248883,8.6127741 10.435412,8.5387197 10.665056,8.3045047 11.22476,7.7336571 11.268513,6.8321259 10.782099,5.8927808 10.717993,5.7689991 10.661353,5.6589382 10.656213,5.6481998 c -0.0052,-0.010769 0.05696,-0.029471 0.137997,-0.041621 0.371925,-0.055772 0.7243,-0.2719833 1.01228,-0.6211146 0.188991,-0.2291205 0.478137,-0.7717936 0.659846,-1.2384116 l 0.120323,-0.3089926 0.01884,0.6964159 c 0.01824,0.6770612 0.048,0.9145554 0.142764,1.1413471 0.07231,0.1730743 0.232217,0.4071496 0.413039,0.6046296 l 0.166386,0.1817357 -0.09136,0.066218 c -0.385144,0.2791871 -0.764147,0.690388 -0.932317,1.0115278 l -0.08928,0.1704667 v 0.6043777 c 0,0.6034404 2.29e-4,0.6046051 0.08519,0.7493006 0.173861,0.2957712 0.605386,0.3974889 0.964855,0.2274352 0.43471,-0.2056519 0.792734,-0.8307858 0.793719,-1.3858786 5.86e-4,-0.3271434 -0.06705,-0.5666746 -0.271644,-0.9618907 -0.01278,-0.02504 -0.01012,-0.026381 0.457974,-0.2096354 0.42359,-0.1658604 0.68293,-0.3304361 1.100281,-0.6982342 0.187514,-0.1652477 0.45154,-0.3920443 0.586722,-0.5039924 l 0.245777,-0.2035435 -0.202633,0.3851876 c -0.111458,0.2118535 -0.708946,1.354521 -1.327775,2.5392611 -0.618828,1.1847395 -1.128834,2.1588308 -1.133345,2.1646468 -0.0046,0.0058 -0.09643,-0.038751 -0.204259,-0.099028 C 12.79813,9.6324591 11.8817,9.4280247 10.572073,9.3077241 9.9891627,9.2541772 7.6528466,9.2336919 6.9086867,9.2756041 5.2345578,9.3698873 3.9524609,9.6328335 3.5058207,9.973503 l -0.09582,0.073083 z"
     id="path1-6" />
</svg>
