<?xml version="1.0" encoding="UTF-8" standalone="no"?>
<svg
   width="64"
   height="64"
   version="1.1"
   viewBox="0 0 16.933 16.933"
   id="svg7"
   sodipodi:docname="steam_icon_2868840.svg"
   inkscape:version="1.4.3 (0d15f75042, 2025-12-25)"
   xmlns:inkscape="http://www.inkscape.org/namespaces/inkscape"
   xmlns:sodipodi="http://sodipodi.sourceforge.net/DTD/sodipodi-0.dtd"
   xmlns="http://www.w3.org/2000/svg"
   xmlns:svg="http://www.w3.org/2000/svg"
   xmlns:rdf="http://www.w3.org/1999/02/22-rdf-syntax-ns#"
   xmlns:cc="http://creativecommons.org/ns#"
   xmlns:dc="http://purl.org/dc/elements/1.1/">
  <sodipodi:namedview
     id="namedview7"
     pagecolor="#9c4444"
     bordercolor="#000000"
     borderopacity="0.25"
     inkscape:showpageshadow="2"
     inkscape:pageopacity="0.0"
     inkscape:pagecheckerboard="0"
     inkscape:deskcolor="#d1d1d1"
     inkscape:zoom="4.3531261"
     inkscape:cx="43.187354"
     inkscape:cy="45.254834"
     inkscape:window-width="1226"
     inkscape:window-height="669"
     inkscape:window-x="314"
     inkscape:window-y="198"
     inkscape:window-maximized="0"
     inkscape:current-layer="svg7"
     showgrid="false" />
  <defs
     id="defs2">
    <filter
       style="color-interpolation-filters:sRGB;"
       inkscape:label="Blur"
       id="filter5421"
       x="-0.12256455"
       y="-0.12342654"
       width="1.2451291"
       height="1.2468531">
      <feGaussianBlur
         stdDeviation="0.5 0.5"
         result="blur"
         id="feGaussianBlur5419" />
    </filter>
    <filter
       style="color-interpolation-filters:sRGB"
       inkscape:label="Blur"
       id="filter5421-3"
       x="-0.12256455"
       y="-0.12342654"
       width="1.2451291"
       height="1.2468531">
      <feGaussianBlur
         stdDeviation="0.5 0.5"
         result="blur"
         id="feGaussianBlur5419-6" />
    </filter>
  </defs>
  <metadata
     id="metadata2">
    <rdf:RDF>
      <cc:Work
         rdf:about="">
        <dc:format>image/svg+xml</dc:format>
        <dc:type
           rdf:resource="http://purl.org/dc/dcmitype/StillImage" />
      </cc:Work>
    </rdf:RDF>
  </metadata>
  <path
     style="fill:{{colors.primary.default.hex}};fill-opacity:1;stroke-width:0.0250038"
     d="M 7.2744424,15.634014 C 7.150091,15.302285 7.1250015,15.03186 7.1337188,14.117152 c 0.00454,-0.476729 -0.0035,-0.923032 -0.017872,-0.991794 -0.014348,-0.06875 -0.01319,-0.125007 0.00257,-0.124994 0.029323,1.1e-5 0.025729,-1.782071 -0.00373,-1.859601 -0.012352,-0.03251 -0.04628,-0.02669 -0.1419034,0.02426 -0.2624796,0.139793 -0.3515719,0.289224 -0.2173522,0.364572 0.055454,0.03117 0.055429,0.03391 -5.917e-4,0.05546 -0.080885,0.03117 -0.2436577,-0.04174 -0.3061484,-0.137084 -0.028399,-0.04333 -0.051634,-0.148827 -0.051634,-0.234394 0,-0.307986 0.2905808,-0.460298 1.1048014,-0.579093 0.2317598,-0.03382 0.4520523,-0.07791 0.4895383,-0.09797 0.09094,-0.04867 0.1074502,-0.04602 0.084594,0.01352 -0.015574,0.04056 0.014523,0.05012 0.1594004,0.05068 0.4573811,0.0015 0.9005828,0.114115 1.0837112,0.274909 0.1175079,0.103191 0.2652787,0.348705 0.2306824,0.383301 -0.010439,0.01067 -0.018979,0.0013 -0.018979,-0.01992 0,-0.0214 -0.013705,-0.03887 -0.03047,-0.03887 -0.01676,0 -0.00244,0.07129 0.03182,0.15836 0.034241,0.0871 0.071492,0.202576 0.082764,0.256626 0.01621,0.0778 0.027421,0.08824 0.05378,0.05002 0.022749,-0.03298 0.029052,0.06495 0.019895,0.309216 -0.012431,0.331267 -0.022389,0.375701 -0.1361159,0.605803 -0.25749,0.520989 -0.7994171,0.818154 -1.4948717,0.819696 -0.1679547,3.24e-4 -0.2657026,0.01498 -0.2833697,0.04227 -0.014849,0.02291 -0.043893,0.469231 -0.06458,0.991795 -0.033911,0.856748 -0.044711,0.965682 -0.1099087,1.108473 -0.070953,0.155381 -0.1358567,0.207163 -0.1358567,0.108372 0,-0.08961 -0.056248,-0.05266 -0.088867,0.05831 l -0.03184,0.108372 z M 8.5077427,12.953892 C 8.8846805,12.840467 9.0811235,12.594014 9.1672592,12.126537 9.218758,11.847058 9.167075,11.492525 9.0410645,11.26102 8.9054625,11.011874 8.7481147,10.949418 8.2639889,10.952591 c -0.2108606,0.0012 -0.4246378,0.01976 -0.4750607,0.04085 l -0.091681,0.03835 v 0.944281 c 0,0.689988 0.010747,0.955051 0.040007,0.984285 0.055796,0.05579 0.5781961,0.05141 0.7704896,-0.0064 z m 3.4333283,0.712083 c 0.0093,-0.03684 5.14e-4,-0.06031 -0.02169,-0.05611 -0.02103,0.0043 -0.04294,-0.04156 -0.04872,-0.101145 -0.01045,-0.109494 -0.05324,-0.143307 -0.08417,-0.06667 -0.0092,0.02289 -0.01792,0.0041 -0.01948,-0.04261 -0.0013,-0.04632 -0.02889,-0.121374 -0.06098,-0.166668 -0.05224,-0.07378 -0.05844,-0.182655 -0.0594,-1.038562 -10e-4,-1.096652 0.0053,-1.071237 -0.286375,-1.111359 -0.186529,-0.02565 -0.250612,-0.09303 -0.268382,-0.28224 -0.0092,-0.09739 -1.59e-4,-0.116209 0.05576,-0.116681 0.03667,-2.65e-4 0.07515,0.01089 0.08553,0.02475 0.01056,0.01388 0.09866,0.01012 0.196243,-0.0083 0.26601,-0.05046 0.439921,-0.04094 0.582648,0.03182 0.128254,0.06542 0.128614,0.0654 0.332088,-0.0055 0.128788,-0.04479 0.289888,-0.0716 0.437979,-0.07285 0.316454,-0.0027 0.552102,0.123077 0.676881,0.361308 0.106766,0.203844 0.134843,0.48197 0.05955,0.589513 l -0.0539,0.07695 -4.14e-4,-0.09907 c -4.45e-4,-0.08807 -0.06422,-0.248681 -0.06575,-0.165784 -3.42e-4,0.01834 -0.03046,-0.01562 -0.06686,-0.07532 -0.09922,-0.162717 -0.251117,-0.241155 -0.466908,-0.24108 -0.240451,7.2e-5 -0.391852,0.04693 -0.527094,0.163133 l -0.110364,0.09485 -0.02994,0.795978 c -0.04997,1.328688 -0.07549,1.523338 -0.204097,1.55697 -0.0547,0.0142 -0.06523,0.0053 -0.052,-0.04536 z m 2.948219,-0.08502 c -0.731067,-0.132168 -1.139201,-0.649482 -1.131965,-1.434789 0.0042,-0.429784 0.121427,-0.751474 0.374879,-1.026415 0.348042,-0.377576 0.963126,-0.47852 1.478393,-0.242621 0.20708,0.09481 0.358038,0.271807 0.4729,0.55447 0.0984,0.242219 0.102476,0.347607 0.01683,0.433402 -0.09298,0.09296 -0.209074,0.106447 -0.971206,0.112833 l -0.680864,0.0055 -0.01078,0.111066 c -0.0056,0.06107 0.0054,0.157264 0.02517,0.213763 0.01971,0.0565 0.02885,0.109637 0.02045,0.118084 -0.01755,0.01755 -0.09608,-0.155076 -0.148102,-0.32624 -0.03182,-0.104632 -0.03424,-0.09413 -0.02386,0.101475 0.02204,0.415312 0.329468,0.842653 0.667428,0.92775 0.344786,0.08679 0.714347,0.03657 0.89479,-0.12164 0.03208,-0.02812 0.0583,-0.03876 0.0583,-0.02361 0,0.01498 -0.02625,0.05715 -0.0583,0.09339 -0.04292,0.04848 -0.0457,0.06179 -0.01045,0.05052 0.09759,-0.03113 0.182986,-0.191853 0.177334,-0.333647 -0.0068,-0.170354 0.05565,-0.128216 0.09253,0.06247 l 0.02451,0.126711 0.004,-0.137172 c 0.0025,-0.09273 -0.01851,-0.165642 -0.06525,-0.225027 -0.09346,-0.118822 -0.01629,-0.111732 0.105006,0.0095 0.08376,0.0838 0.09742,0.122824 0.09742,0.278576 0,0.155511 -0.01629,0.202642 -0.116099,0.333219 -0.132541,0.173632 -0.370753,0.305123 -0.646848,0.357093 -0.225082,0.04237 -0.322527,0.0395 -0.646073,-0.0189 z m 0.694025,-2.027949 c 0.0519,-0.03795 0.04885,-0.0564 -0.0394,-0.238686 -0.09955,-0.205589 -0.181368,-0.269248 -0.38945,-0.303016 -0.270259,-0.04383 -0.600826,0.15767 -0.655088,0.39935 -0.02539,0.113038 -0.02052,0.130492 0.04344,0.156767 0.112736,0.04627 0.973793,0.03436 1.040514,-0.01436 z m -5.282522,2.005245 c -0.04408,-0.02267 -0.111579,-0.0836 -0.150016,-0.135401 -0.06768,-0.09126 -0.07007,-0.132554 -0.07562,-1.300166 -0.0031,-0.663266 -0.01585,-1.252908 -0.02821,-1.31033 -0.02565,-0.119233 -0.01826,-0.126218 0.250646,-0.236685 0.238407,-0.09793 0.30219,-0.09517 0.410483,0.01788 0.09062,0.09459 0.114841,0.200268 0.05914,0.258209 -0.02845,0.02958 -0.08623,1.302269 -0.08623,1.898577 v 0.266697 l 0.09383,0.01078 c 0.05159,0.0058 0.132674,-0.01465 0.180181,-0.04583 0.08131,-0.05333 0.08507,-0.05326 0.06447,3.41e-4 -0.01436,0.03743 -0.0076,0.05227 0.01985,0.04329 0.02291,-0.0076 0.04643,-0.05378 0.05223,-0.102762 0.02123,-0.179321 0.104654,-0.05755 0.105677,0.154253 8.59e-4,0.199585 -0.195006,0.424552 -0.425634,0.488609 -0.166408,0.04622 -0.372843,0.043 -0.470813,-0.0075 z M 4.3968264,13.544502 C 4.1659186,13.520751 3.8094361,13.421474 3.603171,13.323442 3.1166224,13.092192 2.8780103,12.546166 3.0274134,12.005902 c 0.044108,-0.159473 0.2667932,-0.433255 0.26837,-0.329928 8.049e-4,0.05416 0.00741,0.05487 0.078212,0.0085 0.04252,-0.02787 0.1696287,-0.06035 0.2824604,-0.0721 0.1128325,-0.01186 0.197173,-0.03431 0.1874237,-0.05012 -0.058126,-0.09406 0.340311,0.121121 0.4038514,0.218079 0.1124187,0.171576 0.1037542,0.431994 -0.018436,0.554189 -0.072451,0.07246 -0.2611928,0.08854 -0.3680576,0.03131 -0.085459,-0.04572 -0.082086,-0.09885 0.00626,-0.09885 0.056324,0 0.062983,-0.0094 0.032635,-0.04594 -0.029955,-0.03609 -0.023687,-0.04973 0.029253,-0.06353 0.086544,-0.02264 0.086131,-0.07814 -9.207e-4,-0.124741 -0.074002,-0.03962 -0.298406,0.01224 -0.298406,0.06908 0,0.01629 0.026255,0.02023 0.058341,0.0089 0.03836,-0.01392 0.028233,0.0077 -0.029571,0.06261 -0.1186792,0.112905 -0.1439898,0.248892 -0.076729,0.41205 0.1156155,0.280448 0.330396,0.410245 0.8252545,0.498714 0.5112057,0.0914 0.7961064,0.03662 1.027413,-0.197597 0.1616106,-0.163638 0.2200311,-0.368466 0.1654673,-0.580184 -0.085623,-0.332245 -0.085602,-0.334775 0.00172,-0.214748 0.043115,0.05926 0.08964,0.108042 0.1033934,0.108372 0.0461,9.49e-4 0.025618,-0.134215 -0.039707,-0.262271 -0.057878,-0.113607 -0.2664262,-0.330628 -0.3281643,-0.341645 -0.013097,-0.0024 -0.053848,-0.0084 -0.09052,-0.01362 -0.081628,-0.01191 -0.638174,-0.24177 -0.885722,-0.366064 -0.4634899,-0.232542 -0.9584152,-0.645568 -1.079466,-0.900662 -0.034143,-0.07195 -0.059869,-0.18743 -0.057157,-0.256594 0.00271,-0.069176 -0.00996,-0.1257622 -0.02817,-0.1257622 -0.049581,0 -0.038852,-0.2860269 0.020643,-0.5500695 0.028919,-0.1283457 0.055794,-0.2585021 0.05973,-0.289234 0.00903,-0.070578 0.1551341,-0.2149862 0.3699248,-0.365634 0.4676328,-0.327982 0.6845735,-0.3952648 1.2744589,-0.3952648 0.352001,0 0.4446169,0.011882 0.6514134,0.083734 0.1325876,0.046056 0.2785761,0.114109 0.3244149,0.1512349 0.045839,0.037125 0.1095985,0.076206 0.1416884,0.086839 0.035684,0.011858 0.058538,0.05343 0.058852,0.1071301 3.046e-4,0.048287 0.015041,0.1102927 0.032827,0.1377954 0.025687,0.039753 0.032719,0.032927 0.034291,-0.033338 0.00163,-0.069232 0.010769,-0.060768 0.053984,0.050006 0.1781152,0.4566471 0.1855124,0.4920754 0.1722847,0.8253679 -0.011422,0.2876722 -0.021891,0.3339512 -0.090522,0.4000502 l -0.077612,0.07473 0.037126,-0.07283 c 0.020423,-0.04003 0.036073,-0.100056 0.034772,-0.133346 -0.00132,-0.034108 -0.028648,-0.0015 -0.062591,0.07475 -0.1855394,0.416707 -0.8124666,0.510719 -1.1310943,0.169617 -0.044028,-0.04712 -0.070738,-0.106936 -0.060121,-0.134607 0.010505,-0.02737 0.00509,-0.09864 -0.012027,-0.1583455 -0.017131,-0.059701 -0.018981,-0.1168207 -0.00409,-0.1269268 0.014865,-0.01012 0.038746,-0.048376 0.053107,-0.08505 0.026059,-0.066576 0.026146,-0.066576 0.057475,3.783e-4 0.050645,0.1083115 0.2365954,0.2162653 0.3725075,0.2162653 0.1031514,0 0.13458,-0.017791 0.1911768,-0.1083478 C 5.8147942,9.6730821 5.7276866,9.3918054 5.4725339,9.1268937 5.2616083,8.9079341 4.810294,8.780283 4.5252553,8.8589981 4.3744697,8.9006377 4.1323818,9.0798618 4.0264906,9.2282474 3.9826446,9.2896901 3.9184398,9.3705243 3.8838112,9.407884 c -0.089,0.096019 -0.1076812,0.3218748 -0.038655,0.4673347 0.1091002,0.2299083 0.5853414,0.5499043 1.4266181,0.9585753 0.2703438,0.131343 0.5000005,0.252473 0.5103497,0.269219 0.040703,0.06589 0.082397,0.02765 0.045352,-0.04156 -0.049498,-0.09249 0.302546,0.256296 0.3923762,0.388738 0.1941996,0.286331 0.2584894,0.907782 0.1319501,1.275548 -0.1251487,0.363725 -0.5468063,0.69372 -1.0125332,0.792409 -0.2062502,0.04368 -0.6519868,0.05614 -0.9424467,0.0263 z M 10.139228,9.8819244 C 10.042965,9.8188427 9.9642026,9.7497587 9.9642026,9.7284062 c 0,-0.021359 -0.037143,-0.087515 -0.082537,-0.1470346 C 9.8362712,9.5218564 9.768888,9.3964447 9.7319316,9.3026777 L 9.6647327,9.1321561 9.7668401,8.9160464 C 9.8643443,8.7096848 9.8672059,8.6915435 9.8303215,8.5138643 9.8090775,8.4115237 9.8005083,8.31898 9.811264,8.3082103 c 0.010769,-0.010747 0.019589,-0.00209 0.019589,0.019312 0,0.021388 0.022496,0.038892 0.050002,0.038892 0.0275,0 0.049997,0.022503 0.049997,0.050006 0,0.027499 0.014671,0.050007 0.032662,0.050007 0.038897,0 0.167368,-0.2420642 0.167368,-0.3153784 0,-0.065774 0.05366,-0.06668 0.07874,-0.00132 0.0414,0.1078484 0.08798,0.042 0.08847,-0.1250154 3.23e-4,-0.1252977 0.0097,-0.160816 0.03284,-0.1250156 0.01778,0.027501 0.03254,0.081921 0.03284,0.1209359 5.99e-4,0.09293 0.09577,0.1794786 0.09885,0.089947 0.0011,-0.033476 0.01474,-0.1658731 0.03016,-0.2942241 0.02031,-0.1685739 0.01601,-0.2700226 -0.01538,-0.3654107 -0.04907,-0.1490367 -0.03339,-0.2079162 0.0193,-0.072599 0.01883,0.048385 0.05096,0.1292215 0.07138,0.1796464 0.02042,0.050421 0.04961,0.2101491 0.06493,0.3549465 0.01533,0.1447966 0.04112,0.2765554 0.05732,0.2927966 0.05589,0.055893 0.140682,-0.010153 0.140682,-0.1095732 0,-0.053044 0.01505,-0.096446 0.03333,-0.096446 0.02999,0 0.05222,0.2285593 0.04139,0.4258141 -0.0031,0.05072 0.0091,0.067679 0.03555,0.051297 0.02186,-0.013484 0.01346,0.015669 -0.01862,0.064738 -0.0784,0.1199001 -0.07283,0.2419109 0.02011,0.4416073 0.07172,0.1540019 0.07406,0.176839 0.03167,0.300038 -0.09628,0.2795531 -0.479861,0.7211813 -0.621076,0.7150784 C 10.33187,9.997477 10.235534,9.9449866 10.13927,9.8819078 Z M 7.1471775,8.7502224 C 7.0004203,8.681294 6.950231,8.6332352 6.834611,8.450921 6.7552074,8.3257152 6.7304578,8.2486282 6.7304578,8.1265268 c 0,-0.166821 0.045519,-0.2156569 0.078509,-0.084227 0.010494,0.041761 0.064279,0.1192612 0.1195601,0.1722205 0.185607,0.1778227 0.5383379,0.1535011 0.7187988,-0.049563 l 0.066596,-0.074936 -0.091964,0.016954 c -0.074843,0.01382 -0.08495,0.00851 -0.05426,-0.028488 0.020738,-0.024991 0.057103,-0.04544 0.080803,-0.04544 0.070789,0 0.312722,-0.2998387 0.3545319,-0.4393869 0.023531,-0.078531 0.048472,-0.1141877 0.063208,-0.090347 0.029184,0.047219 0.1103036,-0.099527 0.2014228,-0.3643591 0.072121,-0.2096216 0.07147,-0.2060472 0.037498,-0.2060472 -0.014026,0 -0.052649,0.076398 -0.08581,0.169776 -0.084327,0.2374283 -0.099769,0.188279 -0.020676,-0.065826 0.035933,-0.1154437 0.065329,-0.2348217 0.065329,-0.2652824 0,-0.030457 -0.075822,-0.2429014 -0.1684898,-0.4720901 C 7.5617373,4.9793962 7.2878377,4.2045705 7.2308615,3.8535377 7.189115,3.5963351 7.189067,3.5568521 7.2305219,3.582473 c 0.018338,0.011301 0.033338,0.058543 0.033338,0.1049114 0,0.089518 0.2137111,0.6055883 0.2740807,0.6618514 0.025105,0.023397 0.028213,0.013484 0.010428,-0.033338 -0.013952,-0.036674 -0.032098,-0.096679 -0.040333,-0.1333488 -0.012112,-0.053963 -0.00462,-0.05078 0.039424,0.016688 0.057411,0.08796 0.056941,0.085708 -0.039623,-0.189963 -0.026961,-0.076976 -0.043863,-0.1744876 -0.03756,-0.2166942 0.010648,-0.071165 0.017486,-0.067694 0.094224,0.047865 0.083192,0.1252631 0.1472313,0.1685836 0.1114822,0.075419 -0.010538,-0.0275 -0.010263,-0.050007 6.225e-4,-0.050007 0.031678,0 0.235351,0.4216341 0.4535151,0.9388297 0.2442119,0.5789441 0.4070311,0.928381 0.4320248,0.9271926 0.010197,-4.799e-4 0.085934,-0.1418844 0.1682804,-0.3142236 0.1638039,-0.3428023 0.2097776,-0.3960146 0.098739,-0.114282 -0.038879,0.098647 -0.059702,0.1683743 -0.046269,0.1549569 0.047836,-0.047816 0.5100561,-1.0257309 0.4848171,-1.0257309 -0.014158,0 -0.065375,0.071257 -0.1138538,0.1583536 -0.04848,0.087096 -0.088363,0.1358493 -0.088641,0.1083456 C 9.0643137,4.6145117 9.2542056,4.3135344 9.3705054,4.2152652 9.4907032,4.1137011 9.7526409,3.9878957 9.9197458,3.9514691 10.164052,3.8982159 10.471907,4.0841617 10.506952,4.30615 c 0.03016,0.1909625 -0.122622,0.3332118 -0.236041,0.2197906 -0.02881,-0.028817 -0.03998,-0.029366 -0.03998,-0.00195 0,0.02092 0.01319,0.046189 0.0293,0.056156 0.03932,0.024317 0.07139,0.1525073 0.03815,0.1525073 -0.01448,0 -0.034,-0.029322 -0.04337,-0.065157 -0.0094,-0.03584 -0.05592,-0.074922 -0.103439,-0.086852 C 10.015365,4.5464532 9.8331456,4.6638099 9.6442952,4.9073063 9.4683485,5.1341688 9.3882556,5.3168996 8.9683204,6.4495159 8.2688256,8.3361269 7.9531415,8.8031191 7.3805365,8.7983146 7.3071941,8.7977007 7.2021809,8.776058 7.1471732,8.7502224 Z M 9.6641642,8.5517413 c 0,-0.026418 0.015011,-0.057314 0.033339,-0.068641 0.018317,-0.011301 0.033334,0.010285 0.033334,0.048039 0,0.037751 -0.015009,0.068641 -0.033334,0.068641 -0.018338,0 -0.033339,-0.021617 -0.033339,-0.048039 z M 12.60412,8.4327729 C 12.5421,8.2908036 12.53119,8.2043432 12.53119,7.8560328 c 0,-0.2742321 -0.01305,-0.4229644 -0.03996,-0.4497398 -0.022,-0.022002 -0.09475,-0.040006 -0.16171,-0.040006 -0.198489,0 -0.313359,-0.056896 -0.370814,-0.1836666 l -0.05208,-0.1149948 0.103939,-0.01745 c 0.0572,-0.0096 0.193193,-0.02116 0.302253,-0.025689 l 0.198283,-0.00825 -0.0091,-0.2000251 c -0.0051,-0.1100119 -0.02178,-0.2131053 -0.03732,-0.2290913 -0.06495,-0.066705 0.0094,-0.1209504 0.165997,-0.1209504 0.204855,0 0.246068,0.0509 0.267213,0.3300442 l 0.01648,0.2200254 0.249383,0.00996 c 0.170956,0.00684 0.233864,0.019764 0.200028,0.041158 -0.04274,0.027039 -0.04232,0.031281 0.0036,0.031724 0.02902,2.832e-4 0.05276,0.02295 0.05276,0.05038 0,0.094075 -0.124835,0.1662079 -0.317295,0.1833704 l -0.188325,0.016795 -0.01665,0.5430307 c -0.01012,0.3313286 -0.03061,0.5522739 -0.0524,0.5667393 -0.01968,0.013057 -0.04547,0.049962 -0.05732,0.082047 -0.03837,0.1040446 -0.109516,0.062053 -0.184056,-0.1086635 z m 1.073221,0.06853 c -0.03133,-0.071523 -0.05928,-2.3707542 -0.03062,-2.5233066 0.01718,-0.091618 0.03113,-0.1115075 0.05346,-0.076253 0.02142,0.033883 0.03033,0.014377 0.03065,-0.067317 5.12e-4,-0.1186816 0.04676,-0.1096447 0.07676,0.015009 0.0091,0.036674 0.01772,-7.51e-5 0.01987,-0.081682 0.0062,-0.2392634 0.06426,-0.1171534 0.102344,0.2154349 0.0189,0.1647976 0.03447,0.4751903 0.03459,0.6897635 l 2.64e-4,0.3901325 0.108372,-0.017556 c 0.47347,-0.076726 0.608294,-0.04047 0.730487,0.1964343 0.06149,0.1192032 0.07215,0.1925313 0.0691,0.4743734 -0.0016,0.1833567 0.0042,0.3596297 0.01305,0.391717 0.02086,0.072296 0.11236,0.077479 0.11236,0.0064 0,-0.028588 0.01595,-0.04207 0.03562,-0.029961 0.01956,0.012112 0.02758,0.042995 0.01773,0.068641 -0.01001,0.02565 -0.0035,0.046635 0.0142,0.046635 0.01773,0 0.03254,-0.041252 0.03281,-0.091682 3.23e-4,-0.07144 0.0077,-0.080637 0.03282,-0.041669 0.102949,0.1592957 -0.02332,0.4155446 -0.223695,0.4539928 -0.08948,0.017168 -0.123623,0.00389 -0.208363,-0.080815 -0.09371,-0.09368 -0.101354,-0.1190821 -0.101354,-0.3356362 0,-0.4010378 -0.08425,-0.6529373 -0.238124,-0.7118343 -0.06959,-0.026641 -0.314823,0.093279 -0.379451,0.185545 -0.03605,0.051443 -0.04979,0.1728372 -0.05152,0.4544914 -0.0012,0.2113646 -0.01406,0.4143029 -0.02835,0.4509742 -0.03155,0.08087 -0.190214,0.093805 -0.223333,0.018199 z m 2.03392,-0.102756 c -0.207084,-0.1025064 -0.322494,-0.335949 -0.337077,-0.6818021 -0.01012,-0.2386385 -0.0012,-0.286517 0.08143,-0.4491257 0.05095,-0.1001055 0.115168,-0.1888072 0.142676,-0.1971125 0.04287,-0.012911 0.04347,-0.0072 0.0044,0.040326 -0.05932,0.071894 -0.01101,0.071745 0.06866,-2.283e-4 0.09146,-0.082777 0.396745,-0.098387 0.577103,-0.029509 0.169944,0.0649 0.31679,0.2205868 0.31679,0.3358482 0,0.1404964 -0.112506,0.1826902 -0.487198,0.1826902 -0.325096,0 -0.339799,0.00317 -0.358092,0.076015 -0.01056,0.041805 -0.0098,0.1116601 0.0014,0.1552306 0.01436,0.055308 0.0092,0.072018 -0.01792,0.055369 -0.10087,-0.062354 0.03193,0.1854281 0.148586,0.2771803 0.1078,0.0848 0.337477,0.09309 0.483736,0.017468 0.106029,-0.054815 0.1999,-0.2249055 0.172692,-0.312804 -0.0087,-0.028459 0.02279,-0.00969 0.07022,0.041787 0.238429,0.2585025 -0.03496,0.5542273 -0.513804,0.5557873 -0.151979,4.959e-4 -0.25769,-0.019566 -0.353769,-0.067126 z m 0.534354,-0.9858196 c 0.129374,-0.04965 0.01481,-0.2290467 -0.169875,-0.2659817 -0.168529,-0.033706 -0.425973,0.147439 -0.360377,0.2535683 0.02192,0.035461 0.444409,0.04535 0.530247,0.012418 z M 9.8452517,8.0953255 C 9.7893596,7.987245 9.7992244,7.7690349 9.8646414,7.666328 c 0.024099,-0.03783 0.031986,-0.024292 0.032359,0.055614 5.996e-4,0.1392946 0.030407,0.2110864 0.087421,0.2110864 0.067635,0 0.06201,0.2202537 -0.00626,0.2464651 -0.075628,0.029027 -0.073746,0.030229 -0.1328911,-0.084169 z M 4.0448193,7.385294 C 3.9812382,7.3384593 3.9814186,7.336388 4.0551153,7.2673141 4.1293609,7.1977215 4.1666494,6.9730677 4.0967844,7.0162444 4.0784276,7.0275579 4.0624182,7.0022777 4.0611488,6.9598738 4.0598948,6.917537 4.0530418,6.5003471 4.0459512,6.0327874 4.0388562,5.5652281 4.0236553,5.0326601 4.0121801,4.8493033 3.9980363,4.6238957 4.0022911,4.5267244 4.0251667,4.5492646 c 0.018611,0.018338 0.039823,0.093348 0.047127,0.1666897 0.00728,0.073338 0.013297,-0.091681 0.013297,-0.3667135 0,-0.2750352 -0.00597,-0.4400558 -0.013297,-0.3667128 -0.028413,0.2850329 -0.058461,0.1612544 -0.050964,-0.209938 0.017114,-0.8473428 0.081204,-1.7539054 0.1287954,-1.8218545 0.025675,-0.036653 0.046883,-0.104555 0.047134,-0.1509032 2.15e-4,-0.046341 0.00958,-0.1183307 0.020737,-0.1599735 0.016025,-0.059859 0.029901,-0.06773 0.066221,-0.037589 0.037874,0.031431 0.046731,0.00962 0.050472,-0.1243127 0.0025,-0.08934 0.011156,-0.1278039 0.019235,-0.085478 0.011894,0.062275 0.02375,0.069446 0.062135,0.03759 0.026086,-0.02165 0.047429,-0.067538 0.047429,-0.101959 0,-0.034426 0.015009,-0.062594 0.033338,-0.062594 0.018339,0 0.034845,-0.041252 0.036683,-0.091681 0.00301,-0.082559 0.00597,-0.080073 0.029763,0.024999 0.05439,0.2402434 0.100771,2.0124419 0.100507,3.8405164 -2.857e-4,1.8908749 -0.013558,2.145687 -0.1190119,2.2815952 -0.046344,0.059737 -0.047396,0.059566 -0.028641,-0.00468 0.014865,-0.050861 0.00234,-0.044934 -0.052707,0.025001 -0.058387,0.074162 -0.099095,0.091681 -0.2130447,0.091681 -0.077476,0 -0.1699867,-0.021452 -0.205579,-0.047668 z M 1.6464747,6.9684437 C 1.3754688,6.9324648 1.0452536,6.842163 0.8841568,6.7599769 0.8110596,6.7226853 0.67129415,6.6165527 0.57356652,6.5241263 0.42819404,6.3866394 0.38379364,6.3169486 0.32942174,6.1409138 0.20772145,5.7468917 0.26567872,5.3732564 0.48079087,5.1650997 c 0.0658867,-0.063759 0.1096392,-0.089577 0.0973764,-0.057468 -0.0204589,0.053567 -0.010472,0.052948 0.12297109,-0.00759 0.0798798,-0.036247 0.21738079,-0.066235 0.30555694,-0.066636 0.098228,-4.625e-4 0.1523397,-0.01363 0.1397175,-0.034065 -0.030063,-0.04864 0.00364,-0.041337 0.1471507,0.031875 0.3289056,0.1677951 0.4226852,0.4995224 0.2101096,0.7432234 -0.063657,0.072977 -0.2968468,0.076688 -0.3901035,0.00617 -0.0653,-0.049353 -0.065162,-0.05028 0.010197,-0.069996 0.04675,-0.012232 0.069603,-0.037684 0.058891,-0.065606 -0.00993,-0.025844 0.00373,-0.045627 0.031451,-0.045627 0.077925,0 0.056704,-0.097914 -0.029759,-0.1373107 -0.060941,-0.027766 -0.1023539,-0.023644 -0.1833585,0.018242 -0.10804865,0.055874 -0.14550376,0.1085491 -0.0515493,0.072499 0.033814,-0.012991 0.0217041,0.016919 -0.0333388,0.082336 -0.13953016,0.1658217 -0.1057089,0.3867771 0.0906477,0.5921628 0.1470717,0.1538328 0.243921,0.1979771 0.5986918,0.2728654 0.3503846,0.073962 0.5183107,0.080897 0.7508614,0.031024 0.183292,-0.039324 0.4007875,-0.2125738 0.4876299,-0.3884437 0.067235,-0.1361599 0.067407,-0.3666572 4.089e-4,-0.5270386 -0.037089,-0.088767 -0.041932,-0.1354936 -0.016688,-0.1607561 0.025269,-0.025267 0.03562,-0.020644 0.03562,0.01588 0,0.050549 0.099679,0.1618532 0.1449444,0.1618532 0.038971,0 -0.015253,-0.1759462 -0.1000494,-0.324631 C 2.8638953,5.2304026 2.7721761,5.1291393 2.704386,5.0830749 2.583608,5.0010055 2.4748377,4.9704816 2.5108627,5.0287748 2.5208719,5.0449846 2.4354987,5.0096773 2.3211394,4.9503229 2.2067748,4.8909679 2.0531998,4.8231195 1.9798561,4.7995428 1.6534344,4.6946126 1.2589158,4.4611658 0.97052,4.2022954 0.62388591,3.8911493 0.48797937,3.6764953 0.51850712,3.4883733 0.53972194,3.357635 0.51221149,3.3313631 0.44716156,3.4202912 0.41578879,3.4631966 0.41333502,3.4223702 0.43562443,3.2285997 0.48984739,2.7572326 0.52282044,2.6558477 0.69716912,2.4242818 0.96406399,2.0697973 1.3775184,1.8343708 1.8508954,1.7673325 2.1028978,1.7316397 2.5522075,1.7562005 2.7549519,1.81675 2.8785366,1.853657 2.8966386,1.852515 2.8966386,1.8078 c 0,-0.034323 0.022818,-0.022239 0.069093,0.036601 0.038004,0.048312 0.095007,0.087843 0.1266833,0.087843 0.031677,0 0.075591,0.018006 0.097594,0.040006 0.029307,0.029306 0.040006,0.029725 0.040006,0.00157 0,-0.02114 -0.051019,-0.06265 -0.113377,-0.092243 -0.062356,-0.029596 -0.1209625,-0.0828 -0.1302304,-0.1182448 -0.021922,-0.083841 0.01621,-0.082619 0.069178,0.00227 0.022903,0.036674 0.069191,0.066677 0.1028698,0.066677 0.098519,0 0.1710318,0.1101572 0.2152694,0.3270393 0.022709,0.1113503 0.053395,0.2145559 0.068186,0.2293438 0.014785,0.0148 0.017521,-0.018085 0.00609,-0.073059 -0.012206,-0.058484 0.020811,-0.012605 0.079549,0.1105758 0.055212,0.1157885 0.1173034,0.3033107 0.1379739,0.4167204 0.054447,0.2986863 -0.00756,0.7562686 -0.1024606,0.7562686 -0.024608,0 -0.024853,-0.019581 -8.124e-4,-0.064483 0.042287,-0.079016 0.043372,-0.1022043 0.0048,-0.1022043 -0.016352,0 -0.038877,0.036459 -0.050062,0.081028 C 3.4831178,3.6484555 3.2923667,3.8221687 3.1300727,3.8658692 2.9597903,3.9117138 2.7015501,3.8871515 2.5380296,3.8095569 2.408569,3.7481249 2.2687993,3.5702766 2.3234415,3.536506 c 0.023417,-0.01448 0.02528,-0.039865 0.00527,-0.071563 -0.044261,-0.069992 -0.040379,-0.1748655 0.00544,-0.1465565 0.025942,0.016041 0.033287,-0.013057 0.023798,-0.094297 l -0.01371,-0.117477 0.1178842,0.1327806 c 0.096875,0.1091156 0.1451553,0.1358479 0.2708841,0.1500044 0.1383939,0.015574 0.1602069,0.00811 0.2285311,-0.07819 C 3.122323,3.108038 2.9742473,2.6711885 2.6695177,2.449772 2.4304227,2.2760492 2.0627899,2.2152301 1.7600769,2.2993204 1.6394805,2.3328191 1.3246988,2.6137393 1.1674624,2.8281856 c -0.150599,0.2053923 -0.047795,0.5869682 0.1908222,0.7082738 0.048506,0.024659 0.1574372,0.1055879 0.2420602,0.179849 0.1804803,0.1583728 0.8584269,0.5273235 1.262983,0.6873477 0.3775269,0.1493347 0.6544687,0.4117069 0.7519321,0.7123801 0.089126,0.2749494 0.091395,0.8678004 0.00414,1.0834712 C 3.5038213,6.4851695 3.1155901,6.8097692 2.7632881,6.9152823 2.5517765,6.9786271 1.941807,7.0076755 1.646478,6.9684691 Z m 3.902169,-0.00581 C 5.3908578,6.9249267 5.3178851,6.864651 5.1918836,6.6680078 5.0800931,6.4935423 5.0627344,6.2315758 5.1506835,6.0462371 5.2405116,5.8569373 5.5382292,5.6666092 6.0579366,5.4662373 6.2747959,5.3826277 6.3495376,5.3362482 6.3995227,5.2542753 6.5045918,5.0819643 6.4781207,4.7850845 6.3458979,4.652862 6.3146739,4.6216391 6.2961439,4.5890804 6.304718,4.58051 6.313278,4.57194 6.36031,4.604929 6.4092026,4.653823 6.5225433,4.7671637 6.5469393,4.744072 6.4617876,4.604055 6.3189508,4.3691708 5.9786826,4.3442507 5.7695735,4.5533587 5.6502551,4.6726771 5.6456753,4.7182363 5.7146375,5.1000098 5.7607332,5.3552094 5.4665167,5.4089273 5.243601,5.1860095 5.1124205,5.0548291 5.0713467,4.876529 5.1255871,4.6737272 5.1832887,4.4579797 5.2875291,4.3413733 5.528815,4.2226531 c 0.2047354,-0.1007358 0.2377989,-0.106744 0.5843129,-0.10615 0.3929621,6.555e-4 0.6025823,0.061274 0.7762503,0.2244291 0.066728,0.062691 0.2612097,0.5795251 0.254017,0.6750575 -0.036714,0.4877028 -0.044124,0.9527567 -0.014881,0.9346842 0.019429,-0.012027 0.03533,-0.076458 0.03533,-0.1432139 0,-0.084696 0.01056,-0.1108154 0.034967,-0.08641 0.024397,0.024397 0.012778,0.1316039 -0.038479,0.354717 -0.069361,0.301955 -0.070335,0.3244962 -0.017538,0.405087 0.09969,0.152145 0.4160346,0.073192 0.3707072,-0.092518 -0.019273,-0.070468 -0.018512,-0.070647 0.031994,-0.00747 0.050368,0.063014 0.05173,0.062616 0.05173,-0.015009 0,-0.1220062 0.055142,-0.03639 0.07907,0.1227688 C 7.6942824,6.608273 7.6845154,6.6428546 7.6066514,6.7354 7.4528446,6.9181958 7.2290493,6.9849457 6.8177295,6.9707162 6.7153368,6.9671908 6.6645763,6.9410692 6.5746108,6.8456776 6.469651,6.7343812 6.4564407,6.7291586 6.4027694,6.7777259 6.2342126,6.9302535 5.8031698,7.0235943 5.5486296,6.9626785 Z M 7.6581845,6.565675 c -0.00742,-0.022214 -0.032715,0.00257 -0.056247,0.055065 -0.040048,0.089365 -0.039185,0.091944 0.013499,0.040394 0.030936,-0.030291 0.050187,-0.073241 0.042781,-0.095461 z M 6.2549331,6.4473561 c 0.1371437,-0.08975 0.1921554,-0.2141763 0.1921554,-0.4346075 0,-0.1561131 -0.015444,-0.2234045 -0.06351,-0.2765013 -0.1462406,-0.1615946 -0.5483602,-0.028893 -0.6754513,0.2229092 -0.039717,0.078686 -0.083291,0.1386927 -0.096835,0.1333502 -0.033818,-0.013323 -0.048676,0.106733 -0.02498,0.2018128 0.012206,0.049007 0.028361,0.063815 0.043274,0.03968 0.015704,-0.025384 0.043241,-0.00881 0.080883,0.048631 0.031396,0.047919 0.08997,0.1010504 0.1301559,0.1180694 0.09261,0.03922 0.3170214,0.010296 0.4143121,-0.053348 z"
     id="path1-3" />
</svg>
