<?xml version="1.0" encoding="UTF-8" standalone="no"?>
<svg
   width="64"
   height="64"
   version="1.1"
   viewBox="0 0 16.933 16.933"
   id="svg7"
   sodipodi:docname="accessories-text-editor.svg"
   inkscape:version="1.4.3 (0d15f75042, 2025-12-25)"
   xmlns:inkscape="http://www.inkscape.org/namespaces/inkscape"
   xmlns:sodipodi="http://sodipodi.sourceforge.net/DTD/sodipodi-0.dtd"
   xmlns="http://www.w3.org/2000/svg"
   xmlns:svg="http://www.w3.org/2000/svg"
   xmlns:rdf="http://www.w3.org/1999/02/22-rdf-syntax-ns#"
   xmlns:cc="http://creativecommons.org/ns#"
   xmlns:dc="http://purl.org/dc/elements/1.1/">
  <sodipodi:namedview
     id="namedview7"
     pagecolor="#9c4444"
     bordercolor="#000000"
     borderopacity="0.25"
     inkscape:showpageshadow="2"
     inkscape:pageopacity="0.0"
     inkscape:pagecheckerboard="0"
     inkscape:deskcolor="#d1d1d1"
     inkscape:zoom="4.3531261"
     inkscape:cx="41.349595"
     inkscape:cy="22.971997"
     inkscape:window-width="1226"
     inkscape:window-height="669"
     inkscape:window-x="263"
     inkscape:window-y="202"
     inkscape:window-maximized="0"
     inkscape:current-layer="svg7"
     showgrid="false" />
  <defs
     id="defs2">
    <filter
       style="color-interpolation-filters:sRGB;"
       inkscape:label="Blur"
       id="filter5421"
       x="-0.12256455"
       y="-0.12342654"
       width="1.2451291"
       height="1.2468531">
      <feGaussianBlur
         stdDeviation="0.5 0.5"
         result="blur"
         id="feGaussianBlur5419" />
    </filter>
  </defs>
  <metadata
     id="metadata2">
    <rdf:RDF>
      <cc:Work
         rdf:about="">
        <dc:format>image/svg+xml</dc:format>
        <dc:type
           rdf:resource="http://purl.org/dc/dcmitype/StillImage" />
      </cc:Work>
    </rdf:RDF>
  </metadata>
  <rect
     style="opacity:0.3;fill:none;fill-opacity:0.996424;stroke:#000000;stroke-width:0.955221;stroke-dasharray:none;stroke-opacity:1;filter:url(#filter5421)"
     id="rect1-2-7"
     width="13.687567"
     height="13.591975"
     x="1.6227165"
     y="1.6705122"
     rx="2.8442214"
     ry="2.965905" />
  <rect
     style="fill:none;fill-opacity:1;stroke:{{colors.primary.default.hex}};stroke-width:0.955221;stroke-dasharray:none;stroke-opacity:1"
     id="rect1-2"
     width="13.687567"
     height="13.591975"
     x="1.6227167"
     y="1.6705124"
     rx="2.8442214"
     ry="2.965905" />
  <path
     style="fill:{{colors.primary.default.hex}};fill-opacity:1;stroke:none;stroke-width:0.246289;stroke-dasharray:none;stroke-dashoffset:2.2;stroke-opacity:0.3"
     d="M 5.5688246,11.35213 C 5.2047864,11.266649 4.7634031,10.88582 4.5754524,10.495053 4.4219203,10.175849 4.3781385,9.974228 4.3783098,9.5871959 4.3784309,9.3124142 4.3909486,9.2073008 4.4440204,9.0355628 4.6515485,8.3639633 5.1226339,7.9100741 5.7097006,7.8160837 c 0.1646382,-0.026361 0.2389473,-0.024338 0.4101892,0.011143 0.1150194,0.023834 0.2314042,0.05222 0.2586323,0.063084 0.044506,0.017758 0.049504,-0.00171 0.049504,-0.1929531 0,-0.6392389 0.2577899,-1.2647259 0.7072377,-1.7159978 0.378998,-0.3805341 0.7427329,-0.5562507 1.2147507,-0.5868314 1.1085076,-0.071817 2.0521185,0.912421 2.1414635,2.2336653 0.01023,0.1516988 0.0215,0.2758161 0.02499,0.2758161 0.0034,0 0.06204,-0.02089 0.130118,-0.04642 0.185876,-0.069703 0.587707,-0.062461 0.800436,0.014431 0.491194,0.1775431 0.890851,0.6447056 1.036541,1.2116209 0.07143,0.2779779 0.07643,0.7223723 0.01113,0.9921023 -0.144488,0.596922 -0.574199,1.094887 -1.079494,1.250956 -0.179295,0.05539 -0.255428,0.05675 -2.9604279,0.05401 C 6.89893,11.37911 5.6302093,11.36655 5.5688208,11.35214 Z"
     id="path99" />
</svg>
