<?xml version="1.0" encoding="UTF-8" standalone="no"?>
<svg
   width="64"
   height="64"
   version="1.1"
   viewBox="0 0 16.933 16.933"
   id="svg7"
   sodipodi:docname="accessories-text-editor.svg"
   inkscape:version="1.4.3 (0d15f75042, 2025-12-25)"
   xmlns:inkscape="http://www.inkscape.org/namespaces/inkscape"
   xmlns:sodipodi="http://sodipodi.sourceforge.net/DTD/sodipodi-0.dtd"
   xmlns="http://www.w3.org/2000/svg"
   xmlns:svg="http://www.w3.org/2000/svg"
   xmlns:rdf="http://www.w3.org/1999/02/22-rdf-syntax-ns#"
   xmlns:cc="http://creativecommons.org/ns#"
   xmlns:dc="http://purl.org/dc/elements/1.1/">
  <sodipodi:namedview
     id="namedview7"
     pagecolor="#9c4444"
     bordercolor="#000000"
     borderopacity="0.25"
     inkscape:showpageshadow="2"
     inkscape:pageopacity="0.0"
     inkscape:pagecheckerboard="0"
     inkscape:deskcolor="#d1d1d1"
     inkscape:zoom="4.3531261"
     inkscape:cx="41.349595"
     inkscape:cy="22.971997"
     inkscape:window-width="1226"
     inkscape:window-height="669"
     inkscape:window-x="263"
     inkscape:window-y="202"
     inkscape:window-maximized="0"
     inkscape:current-layer="svg7"
     showgrid="false" />
  <defs
     id="defs2">
    <filter
       style="color-interpolation-filters:sRGB;"
       inkscape:label="Blur"
       id="filter5421"
       x="-0.12256455"
       y="-0.12342654"
       width="1.2451291"
       height="1.2468531">
      <feGaussianBlur
         stdDeviation="0.5 0.5"
         result="blur"
         id="feGaussianBlur5419" />
    </filter>
  </defs>
  <metadata
     id="metadata2">
    <rdf:RDF>
      <cc:Work
         rdf:about="">
        <dc:format>image/svg+xml</dc:format>
        <dc:type
           rdf:resource="http://purl.org/dc/dcmitype/StillImage" />
      </cc:Work>
    </rdf:RDF>
  </metadata>
  <rect
     style="opacity:0.3;fill:none;fill-opacity:0.996424;stroke:#000000;stroke-width:0.955221;stroke-dasharray:none;stroke-opacity:1;filter:url(#filter5421)"
     id="rect1-2-7"
     width="13.687567"
     height="13.591975"
     x="1.6227165"
     y="1.6705122"
     rx="2.8442214"
     ry="2.965905" />
  <rect
     style="fill:none;fill-opacity:1;stroke:{{colors.primary.default.hex}};stroke-width:0.955221;stroke-dasharray:none;stroke-opacity:1"
     id="rect1-2"
     width="13.687567"
     height="13.591975"
     x="1.6227167"
     y="1.6705124"
     rx="2.8442214"
     ry="2.965905" />
  <path
     style="fill:{{colors.primary.default.hex}};fill-opacity:1;stroke:none;stroke-width:0.222164;stroke-dasharray:none;stroke-dashoffset:2.2;stroke-opacity:0.3"
     d="M 4.8625879,12.419479 C 4.7192907,12.34394 4.6281242,12.2506 4.5658646,12.115703 4.5138566,12.003018 4.5088035,11.895479 4.5081852,10.888359 L 4.5075285,9.7845211 4.638754,9.7852303 c 0.088668,4.989e-4 0.1812948,0.030169 0.2856082,0.091522 C 5.3946651,10.153368 5.5710783,10.187306 5.7924605,10.043759 6.0752801,9.8603753 6.2202153,9.4950283 6.2001449,9.0160813 6.1815066,8.571367 6.0219979,8.2614025 5.7361029,8.114345 5.5346001,8.0106969 5.3643842,8.0467692 5.0199794,8.2661029 4.8300845,8.3870378 4.6804681,8.4372911 4.58308,8.4128475 L 4.5075284,8.3938836 V 7.5283918 c 0,-0.93951 0.00307,-0.9590611 0.1810655,-1.1507874 C 4.8653121,6.1872459 4.8585872,6.1882695 6.0008976,6.1777762 L 7.0465567,6.168176 7.0336862,5.9902871 C 7.0233033,5.8467587 6.9928316,5.7653699 6.8759243,5.5689256 6.6402041,5.172834 6.6413685,4.9923394 6.881188,4.7525183 7.0925848,4.5411216 7.3119695,4.4621466 7.6878114,4.4621466 c 0.3758414,0 0.5952268,0.078975 0.8066234,0.2903717 0.2398209,0.2398211 0.2409849,0.4203157 0.00526,0.8164073 -0.1174477,0.1973468 -0.1473615,0.2775315 -0.157902,0.423249 l -0.013006,0.1797749 h 0.8935274 c 1.0065828,0 1.1311448,0.018474 1.2955488,0.1921329 0.182582,0.1928612 0.179158,0.1697721 0.19584,1.3208202 l 0.01545,1.0652418 0.07353,0.010404 c 0.135112,0.019106 0.264142,-0.024574 0.523513,-0.1772342 0.141565,-0.083321 0.304855,-0.1603959 0.362873,-0.1712801 0.219006,-0.041085 0.505587,0.1708162 0.632993,0.4680422 0.25461,0.5939857 0.01599,1.3812457 -0.462097,1.5244807 -0.116157,0.03481 -0.137049,0.0303 -0.349285,-0.07529 -0.124173,-0.06178 -0.288171,-0.147702 -0.364456,-0.190968 -0.103713,-0.05881 -0.173822,-0.07638 -0.277892,-0.06957 l -0.139184,0.0091 -0.01543,0.988051 c -0.01663,1.063665 -0.01978,1.084302 -0.190045,1.23917 -0.170277,0.154883 -0.229388,0.165712 -0.9045393,0.165712 H 8.984615 v -0.118258 c 0,-0.06879 0.034056,-0.181839 0.081382,-0.27017 0.04476,-0.08353 0.1211805,-0.226801 0.1698215,-0.318351 0.2657659,-0.500215 -0.1167342,-0.962974 -0.8378592,-1.013669 -0.5522509,-0.03882 -1.0505394,0.24775 -1.102343,0.633971 -0.020262,0.151085 0.022182,0.284022 0.1656291,0.518729 0.1287817,0.21071 0.1984052,0.411709 0.174403,0.503492 -0.016708,0.06388 -0.024902,0.06428 -1.3486169,0.06301 -1.1531084,-0.0011 -1.3442399,-0.0079 -1.4244408,-0.05008 z"
     id="path1-28" />
</svg>
