<?xml version="1.0" encoding="UTF-8" standalone="no"?>
<svg
   width="64"
   height="64"
   version="1.1"
   viewBox="0 0 16.933 16.933"
   id="svg7"
   sodipodi:docname="accessories-text-editor.svg"
   inkscape:version="1.4.3 (0d15f75042, 2025-12-25)"
   xmlns:inkscape="http://www.inkscape.org/namespaces/inkscape"
   xmlns:sodipodi="http://sodipodi.sourceforge.net/DTD/sodipodi-0.dtd"
   xmlns="http://www.w3.org/2000/svg"
   xmlns:svg="http://www.w3.org/2000/svg"
   xmlns:rdf="http://www.w3.org/1999/02/22-rdf-syntax-ns#"
   xmlns:cc="http://creativecommons.org/ns#"
   xmlns:dc="http://purl.org/dc/elements/1.1/">
  <sodipodi:namedview
     id="namedview7"
     pagecolor="#9c4444"
     bordercolor="#000000"
     borderopacity="0.25"
     inkscape:showpageshadow="2"
     inkscape:pageopacity="0.0"
     inkscape:pagecheckerboard="0"
     inkscape:deskcolor="#d1d1d1"
     inkscape:zoom="4.3531261"
     inkscape:cx="41.349595"
     inkscape:cy="22.971997"
     inkscape:window-width="1226"
     inkscape:window-height="669"
     inkscape:window-x="263"
     inkscape:window-y="202"
     inkscape:window-maximized="0"
     inkscape:current-layer="svg7"
     showgrid="false" />
  <defs
     id="defs2">
    <filter
       style="color-interpolation-filters:sRGB;"
       inkscape:label="Blur"
       id="filter5421"
       x="-0.12256455"
       y="-0.12342654"
       width="1.2451291"
       height="1.2468531">
      <feGaussianBlur
         stdDeviation="0.5 0.5"
         result="blur"
         id="feGaussianBlur5419" />
    </filter>
  </defs>
  <metadata
     id="metadata2">
    <rdf:RDF>
      <cc:Work
         rdf:about="">
        <dc:format>image/svg+xml</dc:format>
        <dc:type
           rdf:resource="http://purl.org/dc/dcmitype/StillImage" />
      </cc:Work>
    </rdf:RDF>
  </metadata>
  <rect
     style="opacity:0.3;fill:none;fill-opacity:0.996424;stroke:#000000;stroke-width:0.955221;stroke-dasharray:none;stroke-opacity:1;filter:url(#filter5421)"
     id="rect1-2-7"
     width="13.687567"
     height="13.591975"
     x="1.6227165"
     y="1.6705122"
     rx="2.8442214"
     ry="2.965905" />
  <rect
     style="fill:none;fill-opacity:1;stroke:{{colors.primary.default.hex}};stroke-width:0.955221;stroke-dasharray:none;stroke-opacity:1"
     id="rect1-2"
     width="13.687567"
     height="13.591975"
     x="1.6227167"
     y="1.6705124"
     rx="2.8442214"
     ry="2.965905" />
  <path
     style="fill:{{colors.primary.default.hex}};fill-opacity:1;stroke-width:0.00894901"
     d="M 8.1204741,10.891078 C 7.332599,10.834382 6.6022749,10.610595 6.1777663,10.295796 6.0726858,10.217873 5.9965533,10.136108 5.9613367,10.063361 5.9374407,10.013991 5.9369137,9.994913 5.9369137,9.1741941 c 0,-0.6659777 0.00309,-0.8375743 0.014914,-0.8331684 0.00821,0.00304 0.5008462,0.1672025 1.0947624,0.364779 0.7052458,0.2346128 1.1166086,0.3655869 1.1858161,0.3775532 0.1353983,0.023408 0.3327895,0.023408 0.4681892,0 0.069206,-0.011964 0.4805695,-0.1429404 1.1858149,-0.3775532 0.5939157,-0.1975765 1.0865587,-0.3617274 1.0947617,-0.364779 0.01184,-0.00441 0.0149,0.167191 0.0149,0.8331684 0,0.9661199 0.0102,0.8824989 -0.124308,1.0195269 -0.31106,0.316904 -1.07754,0.593641 -1.8820519,0.679518 -0.2128706,0.02271 -0.6708227,0.03211 -0.8692511,0.01785 z M 11.897132,10.37039 c -0.231184,-0.155088 -0.355465,-0.364462 -0.335025,-0.5644089 0.01138,-0.1113686 0.08054,-0.309098 0.172186,-0.4923595 l 0.07915,-0.158247 0.006,-0.5478265 0.006,-0.5478251 0.154764,-0.051758 c 0.08512,-0.028466 0.158951,-0.051758 0.164067,-0.051758 0.0051,0 0.0094,0.2677401 0.0094,0.5949787 v 0.5949782 l 0.08281,0.1716538 c 0.04555,0.094409 0.100377,0.2226637 0.121829,0.2850082 0.03462,0.1006102 0.03906,0.1281329 0.03947,0.2448158 4.2e-4,0.1245103 -0.0016,0.1356044 -0.03809,0.2098283 -0.04609,0.09368 -0.157507,0.218788 -0.258217,0.289959 -0.121372,0.08577 -0.11212,0.08473 -0.204193,0.02296 z M 8.3650806,8.7598817 C 8.197751,8.7424148 8.0013522,8.6810687 6.3008411,8.1150956 5.3033243,7.7830966 4.4630117,7.4992713 4.4334801,7.4843735 4.2665915,7.400182 4.2689191,7.2812848 4.4390852,7.1982575 4.4720979,7.1821512 5.3231297,6.9219632 6.3302677,6.6200655 8.1807901,6.0653563 8.2911072,6.0351499 8.4665041,6.0351499 c 0.1759729,0 0.285443,0.029972 2.1367369,0.5850096 1.006863,0.3018678 1.857669,0.5620203 1.890683,0.5781177 0.170163,0.082969 0.17249,0.2019057 0.0056,0.2860963 -0.08846,0.044642 -3.672909,1.2327852 -3.7764584,1.2517997 -0.1062707,0.019516 -0.284838,0.031341 -0.3579606,0.023708 z"
     id="path1-53" />
</svg>
